{
  "header": {
    "PPQ": 120,
    "bpm": 123.00022140039852,
    "timeSignature": [
      4,
      4
    ],
    "name": " "
  },
  "startTime": 0,
  "duration": 324.3896599999999,
  "tracks": [
    {
      "startTime": 0,
      "duration": 0,
      "length": 0,
      "notes": [],
      "controlChanges": {},
      "id": 0
    },
    {
      "startTime": 70.975482,
      "duration": 280.9751040000033,
      "length": 351,
      "notes": [
        {
          "name": "G#5",
          "midi": 80,
          "time": 70.975482,
          "velocity": 1,
          "duration": 0.24390200000000561
        },
        {
          "name": "G5",
          "midi": 79,
          "time": 71.219384,
          "velocity": 1,
          "duration": 0.24390200000000561
        },
        {
          "name": "G#5",
          "midi": 80,
          "time": 71.46328600000001,
          "velocity": 1,
          "duration": 0.487803999999997
        },
        {
          "name": "D5",
          "midi": 74,
          "time": 71.95109000000001,
          "velocity": 1,
          "duration": 0.24390200000000561
        },
        {
          "name": "E5",
          "midi": 76,
          "time": 72.19499200000001,
          "velocity": 1,
          "duration": 0.24390200000000561
        },
        {
          "name": "E5",
          "midi": 76,
          "time": 72.43889400000002,
          "velocity": 1,
          "duration": 0.487803999999997
        },
        {
          "name": "E5",
          "midi": 76,
          "time": 72.92669800000002,
          "velocity": 1,
          "duration": 0.24390200000000561
        },
        {
          "name": "E5",
          "midi": 76,
          "time": 73.17060000000002,
          "velocity": 1,
          "duration": 0.24390200000000561
        },
        {
          "name": "E5",
          "midi": 76,
          "time": 73.41450200000003,
          "velocity": 1,
          "duration": 0.24390200000000561
        },
        {
          "name": "D5",
          "midi": 74,
          "time": 73.65840400000003,
          "velocity": 1,
          "duration": 0.487803999999997
        },
        {
          "name": "E5",
          "midi": 76,
          "time": 74.14620800000003,
          "velocity": 1,
          "duration": 0.487803999999997
        },
        {
          "name": "E5",
          "midi": 76,
          "time": 74.87791400000003,
          "velocity": 1,
          "duration": 0.24390200000000561
        },
        {
          "name": "E5",
          "midi": 76,
          "time": 75.12181600000004,
          "velocity": 1,
          "duration": 0.24390200000000561
        },
        {
          "name": "E5",
          "midi": 76,
          "time": 75.36571800000004,
          "velocity": 1,
          "duration": 0.24390200000000561
        },
        {
          "name": "B4",
          "midi": 71,
          "time": 75.60962000000005,
          "velocity": 1,
          "duration": 0.24390200000000561
        },
        {
          "name": "D5",
          "midi": 74,
          "time": 75.85352200000005,
          "velocity": 1,
          "duration": 0.24390200000000561
        },
        {
          "name": "E5",
          "midi": 76,
          "time": 76.09742400000006,
          "velocity": 1,
          "duration": 0.24390200000000561
        },
        {
          "name": "D5",
          "midi": 74,
          "time": 76.34132600000007,
          "velocity": 1,
          "duration": 0.24390200000000561
        },
        {
          "name": "D5",
          "midi": 74,
          "time": 76.5649028333334,
          "velocity": 0.5905511811023622,
          "duration": 0.02032516666666595
        },
        {
          "name": "E5",
          "midi": 76,
          "time": 76.58522800000007,
          "velocity": 1,
          "duration": 0.975607999999994
        },
        {
          "name": "E5",
          "midi": 76,
          "time": 78.53644400000006,
          "velocity": 1,
          "duration": 0.24390200000000561
        },
        {
          "name": "G5",
          "midi": 79,
          "time": 78.78034600000007,
          "velocity": 1,
          "duration": 0.24390200000000561
        },
        {
          "name": "G5",
          "midi": 79,
          "time": 79.02424800000007,
          "velocity": 1,
          "duration": 0.24390200000000561
        },
        {
          "name": "G5",
          "midi": 79,
          "time": 79.26815000000008,
          "velocity": 1,
          "duration": 0.487803999999997
        },
        {
          "name": "D5",
          "midi": 74,
          "time": 79.75595400000007,
          "velocity": 1,
          "duration": 0.24390200000000561
        },
        {
          "name": "E5",
          "midi": 76,
          "time": 79.99985600000008,
          "velocity": 1,
          "duration": 0.24390200000000561
        },
        {
          "name": "E5",
          "midi": 76,
          "time": 80.24375800000008,
          "velocity": 1,
          "duration": 0.487803999999997
        },
        {
          "name": "E5",
          "midi": 76,
          "time": 80.73156200000008,
          "velocity": 1,
          "duration": 0.24390200000000561
        },
        {
          "name": "E5",
          "midi": 76,
          "time": 80.97546400000009,
          "velocity": 1,
          "duration": 0.24390200000000561
        },
        {
          "name": "E5",
          "midi": 76,
          "time": 81.2193660000001,
          "velocity": 1,
          "duration": 0.24390200000000561
        },
        {
          "name": "D5",
          "midi": 74,
          "time": 81.4632680000001,
          "velocity": 1,
          "duration": 0.487803999999997
        },
        {
          "name": "E5",
          "midi": 76,
          "time": 81.9510720000001,
          "velocity": 1,
          "duration": 0.487803999999997
        },
        {
          "name": "E5",
          "midi": 76,
          "time": 82.6827780000001,
          "velocity": 1,
          "duration": 0.24390200000000561
        },
        {
          "name": "E5",
          "midi": 76,
          "time": 82.9266800000001,
          "velocity": 1,
          "duration": 0.24390200000000561
        },
        {
          "name": "E5",
          "midi": 76,
          "time": 83.17058200000011,
          "velocity": 1,
          "duration": 0.24390200000000561
        },
        {
          "name": "B4",
          "midi": 71,
          "time": 83.41448400000012,
          "velocity": 1,
          "duration": 0.24390200000000561
        },
        {
          "name": "D5",
          "midi": 74,
          "time": 83.65838600000012,
          "velocity": 1,
          "duration": 0.24390200000000561
        },
        {
          "name": "E5",
          "midi": 76,
          "time": 83.90228800000013,
          "velocity": 1,
          "duration": 0.24390200000000561
        },
        {
          "name": "D5",
          "midi": 74,
          "time": 84.14619000000013,
          "velocity": 1,
          "duration": 0.24390200000000561
        },
        {
          "name": "D5",
          "midi": 74,
          "time": 84.36976683333347,
          "velocity": 0.5905511811023622,
          "duration": 0.02032516666666595
        },
        {
          "name": "E5",
          "midi": 76,
          "time": 84.39009200000014,
          "velocity": 1,
          "duration": 0.975607999999994
        },
        {
          "name": "E5",
          "midi": 76,
          "time": 85.36570000000013,
          "velocity": 1,
          "duration": 0.24390200000000561
        },
        {
          "name": "F#5",
          "midi": 78,
          "time": 87.07301400000014,
          "velocity": 1,
          "duration": 0.24390200000000561
        },
        {
          "name": "F#5",
          "midi": 78,
          "time": 87.31691600000015,
          "velocity": 1,
          "duration": 0.487803999999997
        },
        {
          "name": "F#5",
          "midi": 78,
          "time": 87.80472000000015,
          "velocity": 1,
          "duration": 0.487803999999997
        },
        {
          "name": "F#5",
          "midi": 78,
          "time": 88.29252400000014,
          "velocity": 1,
          "duration": 0.487803999999997
        },
        {
          "name": "F#5",
          "midi": 78,
          "time": 88.76000283333347,
          "velocity": 0.5905511811023622,
          "duration": 0.02032516666666595
        },
        {
          "name": "A5",
          "midi": 81,
          "time": 88.78032800000014,
          "velocity": 1,
          "duration": 0.24390200000000561
        },
        {
          "name": "G5",
          "midi": 79,
          "time": 89.02423000000014,
          "velocity": 1,
          "duration": 0.24390200000000561
        },
        {
          "name": "F#5",
          "midi": 78,
          "time": 89.26813200000015,
          "velocity": 1,
          "duration": 0.487803999999997
        },
        {
          "name": "A5",
          "midi": 81,
          "time": 90.97544600000015,
          "velocity": 1,
          "duration": 0.24390200000000561
        },
        {
          "name": "G#5",
          "midi": 80,
          "time": 91.21934800000015,
          "velocity": 1,
          "duration": 0.24390200000000561
        },
        {
          "name": "F#5",
          "midi": 78,
          "time": 91.46325000000016,
          "velocity": 1,
          "duration": 0.24390200000000561
        },
        {
          "name": "G#5",
          "midi": 80,
          "time": 91.6868268333335,
          "velocity": 0.5905511811023622,
          "duration": 0.02032516666666595
        },
        {
          "name": "A5",
          "midi": 81,
          "time": 91.70715200000016,
          "velocity": 1,
          "duration": 0.487803999999997
        },
        {
          "name": "F#5",
          "midi": 78,
          "time": 92.19495600000016,
          "velocity": 1,
          "duration": 0.487803999999997
        },
        {
          "name": "F#5",
          "midi": 78,
          "time": 92.68276000000016,
          "velocity": 1,
          "duration": 0.487803999999997
        },
        {
          "name": "C#5",
          "midi": 73,
          "time": 93.17056400000016,
          "velocity": 1,
          "duration": 0.24390200000000561
        },
        {
          "name": "F#5",
          "midi": 78,
          "time": 93.90227000000016,
          "velocity": 1,
          "duration": 0.975607999999994
        },
        {
          "name": "E5",
          "midi": 76,
          "time": 94.87787800000015,
          "velocity": 1,
          "duration": 0.7317060000000026
        },
        {
          "name": "F#5",
          "midi": 78,
          "time": 95.60958400000015,
          "velocity": 1,
          "duration": 1.2195099999999996
        },
        {
          "name": "F#5",
          "midi": 78,
          "time": 97.80470200000015,
          "velocity": 1,
          "duration": 0.7317060000000026
        },
        {
          "name": "E5",
          "midi": 76,
          "time": 98.53640800000015,
          "velocity": 1,
          "duration": 0.24390200000000561
        },
        {
          "name": "E5",
          "midi": 76,
          "time": 98.78031000000016,
          "velocity": 1,
          "duration": 0.7317060000000026
        },
        {
          "name": "G#5",
          "midi": 80,
          "time": 99.51201600000016,
          "velocity": 1,
          "duration": 0.24390200000000561
        },
        {
          "name": "E5",
          "midi": 76,
          "time": 99.75591800000016,
          "velocity": 1,
          "duration": 1.2195099999999996
        },
        {
          "name": "E5",
          "midi": 76,
          "time": 101.6868088333335,
          "velocity": 0.5905511811023622,
          "duration": 0.02032516666666595
        },
        {
          "name": "F#5",
          "midi": 78,
          "time": 101.70713400000017,
          "velocity": 1,
          "duration": 0.7317060000000026
        },
        {
          "name": "E5",
          "midi": 76,
          "time": 102.43884000000017,
          "velocity": 1,
          "duration": 0.487803999999997
        },
        {
          "name": "E5",
          "midi": 76,
          "time": 102.92664400000017,
          "velocity": 1,
          "duration": 0.487803999999997
        },
        {
          "name": "D5",
          "midi": 74,
          "time": 103.3941228333335,
          "velocity": 0.5905511811023622,
          "duration": 0.02032516666666595
        },
        {
          "name": "E5",
          "midi": 76,
          "time": 103.41444800000016,
          "velocity": 1,
          "duration": 1.2195099999999996
        },
        {
          "name": "D5",
          "midi": 74,
          "time": 105.48761500000016,
          "velocity": 1,
          "duration": 0.1219509999999957
        },
        {
          "name": "D5",
          "midi": 74,
          "time": 105.58924083333349,
          "velocity": 0.5905511811023622,
          "duration": 0.02032516666666595
        },
        {
          "name": "E5",
          "midi": 76,
          "time": 105.60956600000016,
          "velocity": 1,
          "duration": 0.24390200000000561
        },
        {
          "name": "E5",
          "midi": 76,
          "time": 105.85346800000016,
          "velocity": 1,
          "duration": 0.24390200000000561
        },
        {
          "name": "E5",
          "midi": 76,
          "time": 106.09737000000017,
          "velocity": 1,
          "duration": 0.24390200000000561
        },
        {
          "name": "B4",
          "midi": 71,
          "time": 106.34127200000017,
          "velocity": 1,
          "duration": 0.24390200000000561
        },
        {
          "name": "B4",
          "midi": 71,
          "time": 106.56484883333351,
          "velocity": 0.5905511811023622,
          "duration": 0.02032516666666595
        },
        {
          "name": "D5",
          "midi": 74,
          "time": 106.58517400000018,
          "velocity": 1,
          "duration": 0.24390200000000561
        },
        {
          "name": "E5",
          "midi": 76,
          "time": 106.82907600000019,
          "velocity": 1,
          "duration": 0.24390200000000561
        },
        {
          "name": "E5",
          "midi": 76,
          "time": 107.07297800000019,
          "velocity": 1,
          "duration": 0.975607999999994
        },
        {
          "name": "G#5",
          "midi": 80,
          "time": 123.65831400000019,
          "velocity": 1,
          "duration": 0.24390200000000561
        },
        {
          "name": "G5",
          "midi": 79,
          "time": 123.9022160000002,
          "velocity": 1,
          "duration": 0.24390200000000561
        },
        {
          "name": "G#5",
          "midi": 80,
          "time": 124.1461180000002,
          "velocity": 1,
          "duration": 0.487803999999997
        },
        {
          "name": "D5",
          "midi": 74,
          "time": 124.6339220000002,
          "velocity": 1,
          "duration": 0.24390200000000561
        },
        {
          "name": "E5",
          "midi": 76,
          "time": 124.8778240000002,
          "velocity": 1,
          "duration": 0.24390200000000561
        },
        {
          "name": "E5",
          "midi": 76,
          "time": 125.12172600000021,
          "velocity": 1,
          "duration": 0.487803999999997
        },
        {
          "name": "E5",
          "midi": 76,
          "time": 125.6095300000002,
          "velocity": 1,
          "duration": 0.24390200000000561
        },
        {
          "name": "E5",
          "midi": 76,
          "time": 125.85343200000021,
          "velocity": 1,
          "duration": 0.24390200000000561
        },
        {
          "name": "E5",
          "midi": 76,
          "time": 126.09733400000022,
          "velocity": 1,
          "duration": 0.24390200000000561
        },
        {
          "name": "D5",
          "midi": 74,
          "time": 126.34123600000022,
          "velocity": 1,
          "duration": 0.487803999999997
        },
        {
          "name": "E5",
          "midi": 76,
          "time": 126.82904000000022,
          "velocity": 1,
          "duration": 0.487803999999997
        },
        {
          "name": "E5",
          "midi": 76,
          "time": 127.56074600000022,
          "velocity": 1,
          "duration": 0.24390200000000561
        },
        {
          "name": "E5",
          "midi": 76,
          "time": 127.80464800000023,
          "velocity": 1,
          "duration": 0.24390200000000561
        },
        {
          "name": "E5",
          "midi": 76,
          "time": 128.04855000000023,
          "velocity": 1,
          "duration": 0.2439019999999914
        },
        {
          "name": "B4",
          "midi": 71,
          "time": 128.29245200000022,
          "velocity": 1,
          "duration": 0.2439019999999914
        },
        {
          "name": "D5",
          "midi": 74,
          "time": 128.53635400000022,
          "velocity": 1,
          "duration": 0.2439019999999914
        },
        {
          "name": "E5",
          "midi": 76,
          "time": 128.7802560000002,
          "velocity": 1,
          "duration": 0.2439019999999914
        },
        {
          "name": "D5",
          "midi": 74,
          "time": 129.0241580000002,
          "velocity": 1,
          "duration": 0.24390200000001983
        },
        {
          "name": "D5",
          "midi": 74,
          "time": 129.24773483333354,
          "velocity": 0.5905511811023622,
          "duration": 0.02032516666668016
        },
        {
          "name": "E5",
          "midi": 76,
          "time": 129.26806000000022,
          "velocity": 1,
          "duration": 0.975607999999994
        },
        {
          "name": "E5",
          "midi": 76,
          "time": 131.2192760000002,
          "velocity": 1,
          "duration": 0.2439019999999914
        },
        {
          "name": "G5",
          "midi": 79,
          "time": 131.4631780000002,
          "velocity": 1,
          "duration": 0.2439019999999914
        },
        {
          "name": "G5",
          "midi": 79,
          "time": 131.7070800000002,
          "velocity": 1,
          "duration": 0.2439019999999914
        },
        {
          "name": "G5",
          "midi": 79,
          "time": 131.95098200000018,
          "velocity": 1,
          "duration": 0.48780400000001123
        },
        {
          "name": "D5",
          "midi": 74,
          "time": 132.4387860000002,
          "velocity": 1,
          "duration": 0.2439019999999914
        },
        {
          "name": "E5",
          "midi": 76,
          "time": 132.68268800000018,
          "velocity": 1,
          "duration": 0.2439019999999914
        },
        {
          "name": "E5",
          "midi": 76,
          "time": 132.92659000000017,
          "velocity": 1,
          "duration": 0.48780400000001123
        },
        {
          "name": "E5",
          "midi": 76,
          "time": 133.4143940000002,
          "velocity": 1,
          "duration": 0.2439019999999914
        },
        {
          "name": "E5",
          "midi": 76,
          "time": 133.65829600000018,
          "velocity": 1,
          "duration": 0.2439019999999914
        },
        {
          "name": "E5",
          "midi": 76,
          "time": 133.90219800000017,
          "velocity": 1,
          "duration": 0.2439019999999914
        },
        {
          "name": "D5",
          "midi": 74,
          "time": 134.14610000000016,
          "velocity": 1,
          "duration": 0.48780400000001123
        },
        {
          "name": "E5",
          "midi": 76,
          "time": 134.63390400000017,
          "velocity": 1,
          "duration": 0.48780400000001123
        },
        {
          "name": "E5",
          "midi": 76,
          "time": 135.36561000000017,
          "velocity": 1,
          "duration": 0.2439019999999914
        },
        {
          "name": "E5",
          "midi": 76,
          "time": 135.60951200000017,
          "velocity": 1,
          "duration": 0.2439019999999914
        },
        {
          "name": "E5",
          "midi": 76,
          "time": 135.85341400000016,
          "velocity": 1,
          "duration": 0.2439019999999914
        },
        {
          "name": "B4",
          "midi": 71,
          "time": 136.09731600000015,
          "velocity": 1,
          "duration": 0.2439019999999914
        },
        {
          "name": "D5",
          "midi": 74,
          "time": 136.34121800000014,
          "velocity": 1,
          "duration": 0.2439019999999914
        },
        {
          "name": "E5",
          "midi": 76,
          "time": 136.58512000000013,
          "velocity": 1,
          "duration": 0.2439019999999914
        },
        {
          "name": "D5",
          "midi": 74,
          "time": 136.82902200000012,
          "velocity": 1,
          "duration": 0.24390200000001983
        },
        {
          "name": "D5",
          "midi": 74,
          "time": 137.05259883333346,
          "velocity": 0.5905511811023622,
          "duration": 0.02032516666668016
        },
        {
          "name": "E5",
          "midi": 76,
          "time": 137.07292400000014,
          "velocity": 1,
          "duration": 0.975607999999994
        },
        {
          "name": "E5",
          "midi": 76,
          "time": 138.04853200000014,
          "velocity": 1,
          "duration": 0.2439019999999914
        },
        {
          "name": "F#5",
          "midi": 78,
          "time": 139.75584600000013,
          "velocity": 1,
          "duration": 0.2439019999999914
        },
        {
          "name": "F#5",
          "midi": 78,
          "time": 139.99974800000012,
          "velocity": 1,
          "duration": 0.48780400000001123
        },
        {
          "name": "F#5",
          "midi": 78,
          "time": 140.48755200000014,
          "velocity": 1,
          "duration": 0.48780400000001123
        },
        {
          "name": "F#5",
          "midi": 78,
          "time": 140.97535600000015,
          "velocity": 1,
          "duration": 0.48780400000001123
        },
        {
          "name": "F#5",
          "midi": 78,
          "time": 141.44283483333348,
          "velocity": 0.5905511811023622,
          "duration": 0.02032516666668016
        },
        {
          "name": "A5",
          "midi": 81,
          "time": 141.46316000000016,
          "velocity": 1,
          "duration": 0.2439019999999914
        },
        {
          "name": "G5",
          "midi": 79,
          "time": 141.70706200000015,
          "velocity": 1,
          "duration": 0.2439019999999914
        },
        {
          "name": "F#5",
          "midi": 78,
          "time": 141.95096400000014,
          "velocity": 1,
          "duration": 0.48780400000001123
        },
        {
          "name": "A5",
          "midi": 81,
          "time": 143.65827800000017,
          "velocity": 1,
          "duration": 0.2439019999999914
        },
        {
          "name": "G#5",
          "midi": 80,
          "time": 143.90218000000016,
          "velocity": 1,
          "duration": 0.2439019999999914
        },
        {
          "name": "F#5",
          "midi": 78,
          "time": 144.14608200000015,
          "velocity": 1,
          "duration": 0.24390200000001983
        },
        {
          "name": "G#5",
          "midi": 80,
          "time": 144.3696588333335,
          "velocity": 0.5905511811023622,
          "duration": 0.02032516666668016
        },
        {
          "name": "A5",
          "midi": 81,
          "time": 144.38998400000017,
          "velocity": 1,
          "duration": 0.48780400000001123
        },
        {
          "name": "F#5",
          "midi": 78,
          "time": 144.87778800000018,
          "velocity": 1,
          "duration": 0.48780400000001123
        },
        {
          "name": "F#5",
          "midi": 78,
          "time": 145.3655920000002,
          "velocity": 1,
          "duration": 0.48780400000001123
        },
        {
          "name": "C#5",
          "midi": 73,
          "time": 145.8533960000002,
          "velocity": 1,
          "duration": 0.2439019999999914
        },
        {
          "name": "F#5",
          "midi": 78,
          "time": 146.5851020000002,
          "velocity": 1,
          "duration": 0.975607999999994
        },
        {
          "name": "E5",
          "midi": 76,
          "time": 147.5607100000002,
          "velocity": 1,
          "duration": 0.7317060000000026
        },
        {
          "name": "F#5",
          "midi": 78,
          "time": 148.2924160000002,
          "velocity": 1,
          "duration": 1.2195100000000139
        },
        {
          "name": "F#5",
          "midi": 78,
          "time": 150.4875340000002,
          "velocity": 1,
          "duration": 0.7317060000000026
        },
        {
          "name": "E5",
          "midi": 76,
          "time": 151.2192400000002,
          "velocity": 1,
          "duration": 0.2439019999999914
        },
        {
          "name": "E5",
          "midi": 76,
          "time": 151.4631420000002,
          "velocity": 1,
          "duration": 0.7317060000000026
        },
        {
          "name": "G#5",
          "midi": 80,
          "time": 152.1948480000002,
          "velocity": 1,
          "duration": 0.2439019999999914
        },
        {
          "name": "E5",
          "midi": 76,
          "time": 152.4387500000002,
          "velocity": 1,
          "duration": 1.2195100000000139
        },
        {
          "name": "E5",
          "midi": 76,
          "time": 154.36964083333353,
          "velocity": 0.5905511811023622,
          "duration": 0.02032516666668016
        },
        {
          "name": "F#5",
          "midi": 78,
          "time": 154.38996600000021,
          "velocity": 1,
          "duration": 0.7317060000000026
        },
        {
          "name": "E5",
          "midi": 76,
          "time": 155.12167200000022,
          "velocity": 1,
          "duration": 0.48780400000001123
        },
        {
          "name": "E5",
          "midi": 76,
          "time": 155.60947600000023,
          "velocity": 1,
          "duration": 0.48780400000001123
        },
        {
          "name": "D5",
          "midi": 74,
          "time": 156.07695483333356,
          "velocity": 0.5905511811023622,
          "duration": 0.02032516666668016
        },
        {
          "name": "E5",
          "midi": 76,
          "time": 156.09728000000024,
          "velocity": 1,
          "duration": 1.2195100000000139
        },
        {
          "name": "D5",
          "midi": 74,
          "time": 158.17044700000025,
          "velocity": 1,
          "duration": 0.12195100000002412
        },
        {
          "name": "D5",
          "midi": 74,
          "time": 158.2720728333336,
          "velocity": 0.5905511811023622,
          "duration": 0.26422716666667156
        },
        {
          "name": "E4",
          "midi": 64,
          "time": 158.29239800000028,
          "velocity": 1,
          "duration": 0.2439019999999914
        },
        {
          "name": "E4",
          "midi": 64,
          "time": 158.53630000000027,
          "velocity": 1,
          "duration": 0.2439019999999914
        },
        {
          "name": "E4",
          "midi": 64,
          "time": 158.78020200000026,
          "velocity": 1,
          "duration": 0.2439019999999914
        },
        {
          "name": "B3",
          "midi": 59,
          "time": 159.02410400000025,
          "velocity": 1,
          "duration": 0.24390200000001983
        },
        {
          "name": "B3",
          "midi": 59,
          "time": 159.2476808333336,
          "velocity": 0.5905511811023622,
          "duration": 0.02032516666668016
        },
        {
          "name": "D4",
          "midi": 62,
          "time": 159.26800600000027,
          "velocity": 1,
          "duration": 0.2439019999999914
        },
        {
          "name": "E4",
          "midi": 64,
          "time": 159.51190800000026,
          "velocity": 1,
          "duration": 0.2439019999999914
        },
        {
          "name": "E4",
          "midi": 64,
          "time": 159.75581000000025,
          "velocity": 1,
          "duration": 0.975607999999994
        },
        {
          "name": "B3",
          "midi": 59,
          "time": 161.46312400000025,
          "velocity": 0.9448818897637795,
          "duration": 0.2439019999999914
        },
        {
          "name": "A3",
          "midi": 57,
          "time": 161.70702600000024,
          "velocity": 0.9448818897637795,
          "duration": 0.48780400000001123
        },
        {
          "name": "C3",
          "midi": 48,
          "time": 207.07279800000026,
          "velocity": 1,
          "duration": 0.48780400000001123
        },
        {
          "name": "C3",
          "midi": 48,
          "time": 207.56060200000027,
          "velocity": 1,
          "duration": 0.2439019999999914
        },
        {
          "name": "C3",
          "midi": 48,
          "time": 207.80450400000026,
          "velocity": 1,
          "duration": 0.2439019999999914
        },
        {
          "name": "C3",
          "midi": 48,
          "time": 208.04840600000026,
          "velocity": 1,
          "duration": 0.2439019999999914
        },
        {
          "name": "C3",
          "midi": 48,
          "time": 208.29230800000025,
          "velocity": 1,
          "duration": 0.2439019999999914
        },
        {
          "name": "C3",
          "midi": 48,
          "time": 208.53621000000024,
          "velocity": 1,
          "duration": 0.2439019999999914
        },
        {
          "name": "C3",
          "midi": 48,
          "time": 208.78011200000023,
          "velocity": 1,
          "duration": 0.2439019999999914
        },
        {
          "name": "B3",
          "midi": 59,
          "time": 209.02401400000022,
          "velocity": 1,
          "duration": 0.48780400000001123
        },
        {
          "name": "B3",
          "midi": 59,
          "time": 209.51181800000023,
          "velocity": 1,
          "duration": 0.2439019999999914
        },
        {
          "name": "B3",
          "midi": 59,
          "time": 209.75572000000022,
          "velocity": 1,
          "duration": 0.2439019999999914
        },
        {
          "name": "B3",
          "midi": 59,
          "time": 209.99962200000022,
          "velocity": 1,
          "duration": 0.2439019999999914
        },
        {
          "name": "B3",
          "midi": 59,
          "time": 210.2435240000002,
          "velocity": 1,
          "duration": 0.2439019999999914
        },
        {
          "name": "B3",
          "midi": 59,
          "time": 210.4874260000002,
          "velocity": 1,
          "duration": 0.2439019999999914
        },
        {
          "name": "B3",
          "midi": 59,
          "time": 210.7313280000002,
          "velocity": 1,
          "duration": 0.2439019999999914
        },
        {
          "name": "C3",
          "midi": 48,
          "time": 210.97523000000018,
          "velocity": 1,
          "duration": 0.48780400000001123
        },
        {
          "name": "C3",
          "midi": 48,
          "time": 211.4630340000002,
          "velocity": 1,
          "duration": 0.2439019999999914
        },
        {
          "name": "C3",
          "midi": 48,
          "time": 211.70693600000018,
          "velocity": 1,
          "duration": 0.2439019999999914
        },
        {
          "name": "C3",
          "midi": 48,
          "time": 211.95083800000018,
          "velocity": 1,
          "duration": 0.2439019999999914
        },
        {
          "name": "C3",
          "midi": 48,
          "time": 212.19474000000017,
          "velocity": 1,
          "duration": 0.2439019999999914
        },
        {
          "name": "C3",
          "midi": 48,
          "time": 212.43864200000016,
          "velocity": 1,
          "duration": 0.2439019999999914
        },
        {
          "name": "C3",
          "midi": 48,
          "time": 212.68254400000015,
          "velocity": 1,
          "duration": 0.2439019999999914
        },
        {
          "name": "B3",
          "midi": 59,
          "time": 212.92644600000014,
          "velocity": 1,
          "duration": 0.48780400000001123
        },
        {
          "name": "B3",
          "midi": 59,
          "time": 213.41425000000015,
          "velocity": 1,
          "duration": 0.2439019999999914
        },
        {
          "name": "B3",
          "midi": 59,
          "time": 213.65815200000014,
          "velocity": 1,
          "duration": 0.2439019999999914
        },
        {
          "name": "B3",
          "midi": 59,
          "time": 213.90205400000013,
          "velocity": 1,
          "duration": 0.2439019999999914
        },
        {
          "name": "B3",
          "midi": 59,
          "time": 214.14595600000013,
          "velocity": 1,
          "duration": 0.2439019999999914
        },
        {
          "name": "B3",
          "midi": 59,
          "time": 214.38985800000012,
          "velocity": 1,
          "duration": 0.2439019999999914
        },
        {
          "name": "B3",
          "midi": 59,
          "time": 214.6337600000001,
          "velocity": 1,
          "duration": 0.2439019999999914
        },
        {
          "name": "C3",
          "midi": 48,
          "time": 214.8776620000001,
          "velocity": 1,
          "duration": 0.48780400000001123
        },
        {
          "name": "C3",
          "midi": 48,
          "time": 215.3654660000001,
          "velocity": 1,
          "duration": 0.2439019999999914
        },
        {
          "name": "C3",
          "midi": 48,
          "time": 215.6093680000001,
          "velocity": 1,
          "duration": 0.2439019999999914
        },
        {
          "name": "C3",
          "midi": 48,
          "time": 215.8532700000001,
          "velocity": 1,
          "duration": 0.2439019999999914
        },
        {
          "name": "C3",
          "midi": 48,
          "time": 216.09717200000009,
          "velocity": 1,
          "duration": 0.2439019999999914
        },
        {
          "name": "C3",
          "midi": 48,
          "time": 216.34107400000008,
          "velocity": 1,
          "duration": 0.2439019999999914
        },
        {
          "name": "C3",
          "midi": 48,
          "time": 216.58497600000007,
          "velocity": 1,
          "duration": 0.2439019999999914
        },
        {
          "name": "B3",
          "midi": 59,
          "time": 216.82887800000006,
          "velocity": 1,
          "duration": 0.48780400000001123
        },
        {
          "name": "B3",
          "midi": 59,
          "time": 217.31668200000007,
          "velocity": 1,
          "duration": 0.2439019999999914
        },
        {
          "name": "B3",
          "midi": 59,
          "time": 217.56058400000006,
          "velocity": 1,
          "duration": 0.2439019999999914
        },
        {
          "name": "B3",
          "midi": 59,
          "time": 217.80448600000005,
          "velocity": 1,
          "duration": 0.2439019999999914
        },
        {
          "name": "B3",
          "midi": 59,
          "time": 218.04838800000005,
          "velocity": 1,
          "duration": 0.2439019999999914
        },
        {
          "name": "B3",
          "midi": 59,
          "time": 218.29229000000004,
          "velocity": 1,
          "duration": 0.2439019999999914
        },
        {
          "name": "B3",
          "midi": 59,
          "time": 218.53619200000003,
          "velocity": 1,
          "duration": 0.2439019999999914
        },
        {
          "name": "C3",
          "midi": 48,
          "time": 218.53619200000003,
          "velocity": 1,
          "duration": 0.4878039999999828
        },
        {
          "name": "C3",
          "midi": 48,
          "time": 219.023996,
          "velocity": 1,
          "duration": 0.2439019999999914
        },
        {
          "name": "C3",
          "midi": 48,
          "time": 219.267898,
          "velocity": 1,
          "duration": 0.2439019999999914
        },
        {
          "name": "C3",
          "midi": 48,
          "time": 219.5118,
          "velocity": 1,
          "duration": 0.2439019999999914
        },
        {
          "name": "C3",
          "midi": 48,
          "time": 219.75570199999999,
          "velocity": 1,
          "duration": 0.2439019999999914
        },
        {
          "name": "C3",
          "midi": 48,
          "time": 219.99960399999998,
          "velocity": 1,
          "duration": 0.2439019999999914
        },
        {
          "name": "C3",
          "midi": 48,
          "time": 220.24350599999997,
          "velocity": 1,
          "duration": 0.2439019999999914
        },
        {
          "name": "B3",
          "midi": 59,
          "time": 220.48740799999996,
          "velocity": 1,
          "duration": 0.48780400000001123
        },
        {
          "name": "B3",
          "midi": 59,
          "time": 220.97521199999997,
          "velocity": 1,
          "duration": 0.2439019999999914
        },
        {
          "name": "B3",
          "midi": 59,
          "time": 221.21911399999996,
          "velocity": 1,
          "duration": 0.2439019999999914
        },
        {
          "name": "B3",
          "midi": 59,
          "time": 221.46301599999995,
          "velocity": 1,
          "duration": 0.2439019999999914
        },
        {
          "name": "B3",
          "midi": 59,
          "time": 221.70691799999994,
          "velocity": 1,
          "duration": 0.2439019999999914
        },
        {
          "name": "B3",
          "midi": 59,
          "time": 221.95081999999994,
          "velocity": 1,
          "duration": 0.2439019999999914
        },
        {
          "name": "B3",
          "midi": 59,
          "time": 222.19472199999993,
          "velocity": 1,
          "duration": 0.48780400000001123
        },
        {
          "name": "F#3",
          "midi": 54,
          "time": 222.68252599999994,
          "velocity": 1,
          "duration": 0.48780400000001123
        },
        {
          "name": "F#3",
          "midi": 54,
          "time": 223.17032999999995,
          "velocity": 1,
          "duration": 0.2439019999999914
        },
        {
          "name": "F#3",
          "midi": 54,
          "time": 223.41423199999994,
          "velocity": 1,
          "duration": 0.2439019999999914
        },
        {
          "name": "F#3",
          "midi": 54,
          "time": 223.65813399999993,
          "velocity": 1,
          "duration": 0.2439019999999914
        },
        {
          "name": "F#3",
          "midi": 54,
          "time": 223.90203599999992,
          "velocity": 1,
          "duration": 0.48780400000001123
        },
        {
          "name": "E3",
          "midi": 52,
          "time": 224.38983999999994,
          "velocity": 1,
          "duration": 0.48780400000001123
        },
        {
          "name": "F#3",
          "midi": 54,
          "time": 224.87764399999995,
          "velocity": 1,
          "duration": 0.2439019999999914
        },
        {
          "name": "F#3",
          "midi": 54,
          "time": 225.12154599999994,
          "velocity": 1,
          "duration": 0.2439019999999914
        },
        {
          "name": "F#3",
          "midi": 54,
          "time": 225.36544799999993,
          "velocity": 1,
          "duration": 0.7317060000000026
        },
        {
          "name": "F#3",
          "midi": 54,
          "time": 226.82885999999993,
          "velocity": 1,
          "duration": 0.2439019999999914
        },
        {
          "name": "F#3",
          "midi": 54,
          "time": 227.07276199999993,
          "velocity": 1,
          "duration": 0.2439019999999914
        },
        {
          "name": "F#3",
          "midi": 54,
          "time": 227.31666399999992,
          "velocity": 1,
          "duration": 0.2439019999999914
        },
        {
          "name": "F#3",
          "midi": 54,
          "time": 227.5605659999999,
          "velocity": 1,
          "duration": 0.2439019999999914
        },
        {
          "name": "F#3",
          "midi": 54,
          "time": 227.8044679999999,
          "velocity": 1,
          "duration": 0.48780400000001123
        },
        {
          "name": "E3",
          "midi": 52,
          "time": 228.2922719999999,
          "velocity": 1,
          "duration": 0.2439019999999914
        },
        {
          "name": "F#3",
          "midi": 54,
          "time": 228.5361739999999,
          "velocity": 1,
          "duration": 0.2439019999999914
        },
        {
          "name": "F#3",
          "midi": 54,
          "time": 228.7800759999999,
          "velocity": 1,
          "duration": 0.7317060000000026
        },
        {
          "name": "C#5",
          "midi": 73,
          "time": 230.7312919999999,
          "velocity": 0.7086614173228346,
          "duration": 0.2439019999999914
        },
        {
          "name": "F#5",
          "midi": 78,
          "time": 230.7312919999999,
          "velocity": 0.8661417322834646,
          "duration": 0.2439019999999914
        },
        {
          "name": "F#3",
          "midi": 54,
          "time": 230.7312919999999,
          "velocity": 1,
          "duration": 0.2439019999999914
        },
        {
          "name": "C#5",
          "midi": 73,
          "time": 230.9751939999999,
          "velocity": 0.7086614173228346,
          "duration": 0.2439019999999914
        },
        {
          "name": "F#5",
          "midi": 78,
          "time": 230.9751939999999,
          "velocity": 0.8661417322834646,
          "duration": 0.2439019999999914
        },
        {
          "name": "F#3",
          "midi": 54,
          "time": 230.9751939999999,
          "velocity": 1,
          "duration": 0.2439019999999914
        },
        {
          "name": "C#5",
          "midi": 73,
          "time": 231.2190959999999,
          "velocity": 0.7086614173228346,
          "duration": 0.2439019999999914
        },
        {
          "name": "F#5",
          "midi": 78,
          "time": 231.2190959999999,
          "velocity": 0.8661417322834646,
          "duration": 0.2439019999999914
        },
        {
          "name": "F#3",
          "midi": 54,
          "time": 231.2190959999999,
          "velocity": 1,
          "duration": 0.2439019999999914
        },
        {
          "name": "C#5",
          "midi": 73,
          "time": 231.46299799999989,
          "velocity": 0.7086614173228346,
          "duration": 0.48780400000001123
        },
        {
          "name": "F#5",
          "midi": 78,
          "time": 231.46299799999989,
          "velocity": 0.8661417322834646,
          "duration": 0.48780400000001123
        },
        {
          "name": "F#3",
          "midi": 54,
          "time": 231.46299799999989,
          "velocity": 1,
          "duration": 0.48780400000001123
        },
        {
          "name": "C#5",
          "midi": 73,
          "time": 231.9508019999999,
          "velocity": 0.7086614173228346,
          "duration": 0.2439019999999914
        },
        {
          "name": "F#5",
          "midi": 78,
          "time": 231.9508019999999,
          "velocity": 0.8661417322834646,
          "duration": 0.2439019999999914
        },
        {
          "name": "F#3",
          "midi": 54,
          "time": 231.9508019999999,
          "velocity": 1,
          "duration": 0.2439019999999914
        },
        {
          "name": "B4",
          "midi": 71,
          "time": 232.1947039999999,
          "velocity": 0.7086614173228346,
          "duration": 0.48780400000001123
        },
        {
          "name": "E5",
          "midi": 76,
          "time": 232.1947039999999,
          "velocity": 0.8661417322834646,
          "duration": 0.48780400000001123
        },
        {
          "name": "E3",
          "midi": 52,
          "time": 232.1947039999999,
          "velocity": 1,
          "duration": 0.48780400000001123
        },
        {
          "name": "C#5",
          "midi": 73,
          "time": 232.6825079999999,
          "velocity": 0.7086614173228346,
          "duration": 0.48780400000001123
        },
        {
          "name": "F#5",
          "midi": 78,
          "time": 232.6825079999999,
          "velocity": 0.8661417322834646,
          "duration": 0.48780400000001123
        },
        {
          "name": "F#3",
          "midi": 54,
          "time": 232.6825079999999,
          "velocity": 1,
          "duration": 0.48780400000001123
        },
        {
          "name": "C#5",
          "midi": 73,
          "time": 233.1703119999999,
          "velocity": 0.7086614173228346,
          "duration": 0.7317060000000026
        },
        {
          "name": "F#5",
          "midi": 78,
          "time": 233.1703119999999,
          "velocity": 0.8661417322834646,
          "duration": 0.7317060000000026
        },
        {
          "name": "F#3",
          "midi": 54,
          "time": 233.1703119999999,
          "velocity": 1,
          "duration": 0.7317060000000026
        },
        {
          "name": "F#3",
          "midi": 54,
          "time": 234.8776259999999,
          "velocity": 1,
          "duration": 0.2439019999999914
        },
        {
          "name": "C#5",
          "midi": 73,
          "time": 234.8776259999999,
          "velocity": 0.7086614173228346,
          "duration": 0.2439019999999914
        },
        {
          "name": "F#5",
          "midi": 78,
          "time": 234.8776259999999,
          "velocity": 0.8661417322834646,
          "duration": 0.2439019999999914
        },
        {
          "name": "F#3",
          "midi": 54,
          "time": 235.1215279999999,
          "velocity": 1,
          "duration": 0.2439019999999914
        },
        {
          "name": "C#5",
          "midi": 73,
          "time": 235.1215279999999,
          "velocity": 0.7086614173228346,
          "duration": 0.2439019999999914
        },
        {
          "name": "F#5",
          "midi": 78,
          "time": 235.1215279999999,
          "velocity": 0.8661417322834646,
          "duration": 0.2439019999999914
        },
        {
          "name": "F#3",
          "midi": 54,
          "time": 235.3654299999999,
          "velocity": 1,
          "duration": 0.2439019999999914
        },
        {
          "name": "B4",
          "midi": 71,
          "time": 235.3654299999999,
          "velocity": 0.7086614173228346,
          "duration": 0.2439019999999914
        },
        {
          "name": "F#5",
          "midi": 78,
          "time": 235.3654299999999,
          "velocity": 0.8661417322834646,
          "duration": 0.2439019999999914
        },
        {
          "name": "F#3",
          "midi": 54,
          "time": 235.60933199999988,
          "velocity": 1,
          "duration": 0.48780400000001123
        },
        {
          "name": "C#5",
          "midi": 73,
          "time": 235.60933199999988,
          "velocity": 0.7086614173228346,
          "duration": 0.48780400000001123
        },
        {
          "name": "F#5",
          "midi": 78,
          "time": 235.60933199999988,
          "velocity": 0.8661417322834646,
          "duration": 0.48780400000001123
        },
        {
          "name": "F#3",
          "midi": 54,
          "time": 236.0971359999999,
          "velocity": 1,
          "duration": 0.48780400000001123
        },
        {
          "name": "C#5",
          "midi": 73,
          "time": 236.0971359999999,
          "velocity": 0.7086614173228346,
          "duration": 0.48780400000001123
        },
        {
          "name": "F#5",
          "midi": 78,
          "time": 236.0971359999999,
          "velocity": 0.8661417322834646,
          "duration": 0.48780400000001123
        },
        {
          "name": "G#3",
          "midi": 56,
          "time": 236.5849399999999,
          "velocity": 1,
          "duration": 0.48780400000001123
        },
        {
          "name": "B4",
          "midi": 71,
          "time": 236.5849399999999,
          "velocity": 0.7086614173228346,
          "duration": 0.48780400000001123
        },
        {
          "name": "G#5",
          "midi": 80,
          "time": 236.5849399999999,
          "velocity": 0.8661417322834646,
          "duration": 0.48780400000001123
        },
        {
          "name": "G#3",
          "midi": 56,
          "time": 237.05241883333323,
          "velocity": 0.84251968503937,
          "duration": 0.02032516666668016
        },
        {
          "name": "B4",
          "midi": 71,
          "time": 237.05241883333323,
          "velocity": 0.5511811023622047,
          "duration": 0.02032516666668016
        },
        {
          "name": "G#5",
          "midi": 80,
          "time": 237.05241883333323,
          "velocity": 0.7086614173228346,
          "duration": 0.02032516666668016
        },
        {
          "name": "A3",
          "midi": 57,
          "time": 237.07274399999991,
          "velocity": 1,
          "duration": 1.2195100000000139
        },
        {
          "name": "C#5",
          "midi": 73,
          "time": 237.07274399999991,
          "velocity": 0.7086614173228346,
          "duration": 1.2195100000000139
        },
        {
          "name": "A5",
          "midi": 81,
          "time": 237.07274399999991,
          "velocity": 0.8661417322834646,
          "duration": 1.2195100000000139
        },
        {
          "name": "F#5",
          "midi": 78,
          "time": 238.29225399999993,
          "velocity": 1,
          "duration": 0.975607999999994
        },
        {
          "name": "E5",
          "midi": 76,
          "time": 239.26786199999992,
          "velocity": 1,
          "duration": 0.7317060000000026
        },
        {
          "name": "F#5",
          "midi": 78,
          "time": 239.99956799999993,
          "velocity": 1,
          "duration": 1.2195100000000139
        },
        {
          "name": "F#5",
          "midi": 78,
          "time": 242.19468599999993,
          "velocity": 1,
          "duration": 0.7317060000000026
        },
        {
          "name": "E5",
          "midi": 76,
          "time": 242.92639199999994,
          "velocity": 1,
          "duration": 0.2439019999999914
        },
        {
          "name": "E5",
          "midi": 76,
          "time": 243.17029399999993,
          "velocity": 1,
          "duration": 0.7317060000000026
        },
        {
          "name": "G#5",
          "midi": 80,
          "time": 243.90199999999993,
          "velocity": 1,
          "duration": 0.2439019999999914
        },
        {
          "name": "E5",
          "midi": 76,
          "time": 244.14590199999992,
          "velocity": 1,
          "duration": 1.2195100000000139
        },
        {
          "name": "B4",
          "midi": 71,
          "time": 246.07679283333326,
          "velocity": 0.5511811023622047,
          "duration": 0.02032516666668016
        },
        {
          "name": "E5",
          "midi": 76,
          "time": 246.07679283333326,
          "velocity": 0.84251968503937,
          "duration": 0.7520311666666828
        },
        {
          "name": "C#5",
          "midi": 73,
          "time": 246.09711799999994,
          "velocity": 0.7086614173228346,
          "duration": 0.7317060000000026
        },
        {
          "name": "F#5",
          "midi": 78,
          "time": 246.09711799999994,
          "velocity": 1,
          "duration": 0.7317060000000026
        },
        {
          "name": "B4",
          "midi": 71,
          "time": 246.82882399999994,
          "velocity": 0.7086614173228346,
          "duration": 0.48780400000001123
        },
        {
          "name": "E5",
          "midi": 76,
          "time": 246.82882399999994,
          "velocity": 1,
          "duration": 0.48780400000001123
        },
        {
          "name": "B4",
          "midi": 71,
          "time": 247.31662799999995,
          "velocity": 0.7086614173228346,
          "duration": 0.48780400000001123
        },
        {
          "name": "E5",
          "midi": 76,
          "time": 247.31662799999995,
          "velocity": 1,
          "duration": 0.48780400000001123
        },
        {
          "name": "B4",
          "midi": 71,
          "time": 247.80443199999996,
          "velocity": 0.7086614173228346,
          "duration": 1.7073139999999967
        },
        {
          "name": "E5",
          "midi": 76,
          "time": 247.80443199999996,
          "velocity": 1,
          "duration": 1.7073139999999967
        },
        {
          "name": "F#5",
          "midi": 78,
          "time": 249.99954999999997,
          "velocity": 1,
          "duration": 0.975607999999994
        },
        {
          "name": "E5",
          "midi": 76,
          "time": 250.97515799999996,
          "velocity": 1,
          "duration": 0.7317060000000026
        },
        {
          "name": "F#5",
          "midi": 78,
          "time": 251.70686399999997,
          "velocity": 1,
          "duration": 1.2195100000000139
        },
        {
          "name": "F#5",
          "midi": 78,
          "time": 253.90198199999998,
          "velocity": 1,
          "duration": 0.7317060000000026
        },
        {
          "name": "E5",
          "midi": 76,
          "time": 254.63368799999998,
          "velocity": 1,
          "duration": 0.2439019999999914
        },
        {
          "name": "E5",
          "midi": 76,
          "time": 254.87758999999997,
          "velocity": 1,
          "duration": 0.7317060000000026
        },
        {
          "name": "G#5",
          "midi": 80,
          "time": 255.60929599999997,
          "velocity": 1,
          "duration": 0.24390200000001983
        },
        {
          "name": "F#5",
          "midi": 78,
          "time": 255.8328728333333,
          "velocity": 0.84251968503937,
          "duration": 0.02032516666668016
        },
        {
          "name": "G#5",
          "midi": 80,
          "time": 255.853198,
          "velocity": 1,
          "duration": 0.24390200000001983
        },
        {
          "name": "E5",
          "midi": 76,
          "time": 256.0971,
          "velocity": 1,
          "duration": 0.9756080000000225
        },
        {
          "name": "B4",
          "midi": 71,
          "time": 257.7840888333334,
          "velocity": 0.5511811023622047,
          "duration": 0.02032516666668016
        },
        {
          "name": "E5",
          "midi": 76,
          "time": 257.7840888333334,
          "velocity": 0.84251968503937,
          "duration": 1.239835166666694
        },
        {
          "name": "C#5",
          "midi": 73,
          "time": 257.80441400000007,
          "velocity": 0.7086614173228346,
          "duration": 1.1991848333333337
        },
        {
          "name": "F#5",
          "midi": 78,
          "time": 257.80441400000007,
          "velocity": 1,
          "duration": 1.2195100000000139
        },
        {
          "name": "F#5",
          "midi": 78,
          "time": 259.0035988333334,
          "velocity": 0.84251968503937,
          "duration": 0.5081291666667198
        },
        {
          "name": "G#5",
          "midi": 80,
          "time": 259.0239240000001,
          "velocity": 1,
          "duration": 0.48780400000003965
        },
        {
          "name": "D5",
          "midi": 74,
          "time": 259.49140283333344,
          "velocity": 0.84251968503937,
          "duration": 0.02032516666668016
        },
        {
          "name": "E5",
          "midi": 76,
          "time": 259.5117280000001,
          "velocity": 1,
          "duration": 1.7073139999999967
        },
        {
          "name": "D5",
          "midi": 74,
          "time": 261.58489500000013,
          "velocity": 1,
          "duration": 0.12195100000002412
        },
        {
          "name": "D5",
          "midi": 74,
          "time": 261.6865208333335,
          "velocity": 0.84251968503937,
          "duration": 0.02032516666668016
        },
        {
          "name": "E5",
          "midi": 76,
          "time": 261.70684600000016,
          "velocity": 1,
          "duration": 0.2439019999999914
        },
        {
          "name": "E5",
          "midi": 76,
          "time": 261.95074800000015,
          "velocity": 1,
          "duration": 0.2439019999999914
        },
        {
          "name": "E5",
          "midi": 76,
          "time": 262.19465000000014,
          "velocity": 1,
          "duration": 0.2439019999999914
        },
        {
          "name": "B4",
          "midi": 71,
          "time": 262.43855200000013,
          "velocity": 1,
          "duration": 0.2439019999999914
        },
        {
          "name": "B4",
          "midi": 71,
          "time": 262.66212883333344,
          "velocity": 0.84251968503937,
          "duration": 0.02032516666668016
        },
        {
          "name": "D5",
          "midi": 74,
          "time": 262.6824540000001,
          "velocity": 1,
          "duration": 0.2439019999999914
        },
        {
          "name": "E5",
          "midi": 76,
          "time": 262.9263560000001,
          "velocity": 1,
          "duration": 0.2439019999999914
        },
        {
          "name": "E5",
          "midi": 76,
          "time": 263.1702580000001,
          "velocity": 1,
          "duration": 0.9756080000000225
        },
        {
          "name": "E4",
          "midi": 64,
          "time": 264.8775720000001,
          "velocity": 1,
          "duration": 0.7317059999999742
        },
        {
          "name": "E4",
          "midi": 64,
          "time": 266.09708200000006,
          "velocity": 1,
          "duration": 0.2439019999999914
        },
        {
          "name": "E4",
          "midi": 64,
          "time": 266.34098400000005,
          "velocity": 1,
          "duration": 0.2439019999999914
        },
        {
          "name": "E4",
          "midi": 64,
          "time": 266.58488600000004,
          "velocity": 1,
          "duration": 0.2439019999999914
        },
        {
          "name": "E4",
          "midi": 64,
          "time": 266.82878800000003,
          "velocity": 1,
          "duration": 0.2439019999999914
        },
        {
          "name": "E4",
          "midi": 64,
          "time": 267.07269,
          "velocity": 1,
          "duration": 0.2439019999999914
        },
        {
          "name": "E4",
          "midi": 64,
          "time": 267.316592,
          "velocity": 1,
          "duration": 0.2439019999999914
        },
        {
          "name": "E5",
          "midi": 76,
          "time": 269.267808,
          "velocity": 1,
          "duration": 0.7317059999999742
        },
        {
          "name": "G#5",
          "midi": 80,
          "time": 272.682436,
          "velocity": 1,
          "duration": 0.2439019999999914
        },
        {
          "name": "E5",
          "midi": 76,
          "time": 272.926338,
          "velocity": 1,
          "duration": 0.2439019999999914
        },
        {
          "name": "F#5",
          "midi": 78,
          "time": 273.1499148333333,
          "velocity": 0.84251968503937,
          "duration": 0.02032516666668016
        },
        {
          "name": "G#5",
          "midi": 80,
          "time": 273.17024,
          "velocity": 1,
          "duration": 0.2439019999999914
        },
        {
          "name": "E5",
          "midi": 76,
          "time": 273.3938168333333,
          "velocity": 0.84251968503937,
          "duration": 0.02032516666668016
        },
        {
          "name": "G#5",
          "midi": 80,
          "time": 273.41414199999997,
          "velocity": 1,
          "duration": 1.463412000003359
        },
        {
          "name": "F#5",
          "midi": 78,
          "time": 279.0238880000033,
          "velocity": 1,
          "duration": 0.3658530000000155
        },
        {
          "name": "E5",
          "midi": 76,
          "time": 279.3897410000033,
          "velocity": 1,
          "duration": 0.12195100000002412
        },
        {
          "name": "D5",
          "midi": 74,
          "time": 279.51169200000334,
          "velocity": 1,
          "duration": 0.7317059999999742
        },
        {
          "name": "E5",
          "midi": 76,
          "time": 280.2433980000033,
          "velocity": 1,
          "duration": 0.7317059999999742
        }
      ],
      "controlChanges": {
        "1": [
          {
            "number": 1,
            "time": 273.41414199999997,
            "value": 0
          },
          {
            "number": 1,
            "time": 273.4182070333333,
            "value": 0.047244094488188976
          },
          {
            "number": 1,
            "time": 273.42227206666666,
            "value": 0.10236220472440945
          },
          {
            "number": 1,
            "time": 273.4263371,
            "value": 0.14960629921259844
          },
          {
            "number": 1,
            "time": 273.43040213333336,
            "value": 0.2047244094488189
          },
          {
            "number": 1,
            "time": 273.4344671666667,
            "value": 0.25196850393700787
          },
          {
            "number": 1,
            "time": 273.43853220000005,
            "value": 0.2992125984251969
          },
          {
            "number": 1,
            "time": 273.4425972333334,
            "value": 0.3543307086614173
          },
          {
            "number": 1,
            "time": 273.44666226666675,
            "value": 0.4015748031496063
          },
          {
            "number": 1,
            "time": 273.4507273000001,
            "value": 0.4566929133858268
          },
          {
            "number": 1,
            "time": 273.45479233333344,
            "value": 0.5039370078740157
          },
          {
            "number": 1,
            "time": 275.3653580000033,
            "value": 0
          }
        ],
        "7": [
          {
            "number": 7,
            "time": 0,
            "value": 0.7874015748031497
          },
          {
            "number": 7,
            "time": 308.5360300000033,
            "value": 0.7874015748031497
          },
          {
            "number": 7,
            "time": 308.69050126666997,
            "value": 0.7795275590551181
          },
          {
            "number": 7,
            "time": 308.84903756666995,
            "value": 0.7716535433070866
          },
          {
            "number": 7,
            "time": 309.00350883333664,
            "value": 0.7637795275590551
          },
          {
            "number": 7,
            "time": 309.1620451333366,
            "value": 0.7559055118110236
          },
          {
            "number": 7,
            "time": 309.3165164000033,
            "value": 0.7480314960629921
          },
          {
            "number": 7,
            "time": 309.47098766667,
            "value": 0.7401574803149606
          },
          {
            "number": 7,
            "time": 309.62952396667,
            "value": 0.7322834645669292
          },
          {
            "number": 7,
            "time": 309.78399523333667,
            "value": 0.7244094488188977
          },
          {
            "number": 7,
            "time": 309.94253153333665,
            "value": 0.7165354330708661
          },
          {
            "number": 7,
            "time": 310.09700280000334,
            "value": 0.7086614173228346
          },
          {
            "number": 7,
            "time": 310.25147406667,
            "value": 0.7007874015748031
          },
          {
            "number": 7,
            "time": 310.41001036667,
            "value": 0.6929133858267716
          },
          {
            "number": 7,
            "time": 310.5644816333367,
            "value": 0.6850393700787402
          },
          {
            "number": 7,
            "time": 310.7189529000034,
            "value": 0.6771653543307087
          },
          {
            "number": 7,
            "time": 310.87748920000337,
            "value": 0.6692913385826772
          },
          {
            "number": 7,
            "time": 311.03196046667006,
            "value": 0.6614173228346457
          },
          {
            "number": 7,
            "time": 311.19049676667004,
            "value": 0.6535433070866141
          },
          {
            "number": 7,
            "time": 311.3449680333367,
            "value": 0.6456692913385826
          },
          {
            "number": 7,
            "time": 311.4994393000034,
            "value": 0.6377952755905512
          },
          {
            "number": 7,
            "time": 311.6579756000034,
            "value": 0.6299212598425197
          },
          {
            "number": 7,
            "time": 311.8124468666701,
            "value": 0.6220472440944882
          },
          {
            "number": 7,
            "time": 311.97098316667007,
            "value": 0.6141732283464567
          },
          {
            "number": 7,
            "time": 312.12545443333676,
            "value": 0.6062992125984252
          },
          {
            "number": 7,
            "time": 312.27992570000345,
            "value": 0.5984251968503937
          },
          {
            "number": 7,
            "time": 312.4384620000034,
            "value": 0.5905511811023622
          },
          {
            "number": 7,
            "time": 312.5929332666701,
            "value": 0.5826771653543307
          },
          {
            "number": 7,
            "time": 312.7514695666701,
            "value": 0.5748031496062992
          },
          {
            "number": 7,
            "time": 312.9059408333368,
            "value": 0.5669291338582677
          },
          {
            "number": 7,
            "time": 313.0604121000035,
            "value": 0.5590551181102362
          },
          {
            "number": 7,
            "time": 313.21894840000346,
            "value": 0.5511811023622047
          },
          {
            "number": 7,
            "time": 313.37341966667015,
            "value": 0.5433070866141733
          },
          {
            "number": 7,
            "time": 313.52789093333683,
            "value": 0.5354330708661418
          },
          {
            "number": 7,
            "time": 313.6864272333368,
            "value": 0.5275590551181102
          },
          {
            "number": 7,
            "time": 313.8408985000035,
            "value": 0.5196850393700787
          },
          {
            "number": 7,
            "time": 313.9994348000035,
            "value": 0.5118110236220472
          },
          {
            "number": 7,
            "time": 314.1539060666702,
            "value": 0.5039370078740157
          },
          {
            "number": 7,
            "time": 314.30837733333686,
            "value": 0.49606299212598426
          },
          {
            "number": 7,
            "time": 314.46691363333684,
            "value": 0.4881889763779528
          },
          {
            "number": 7,
            "time": 314.62138490000353,
            "value": 0.48031496062992124
          },
          {
            "number": 7,
            "time": 314.7799212000035,
            "value": 0.47244094488188976
          },
          {
            "number": 7,
            "time": 314.9343924666702,
            "value": 0.4645669291338583
          },
          {
            "number": 7,
            "time": 315.0888637333369,
            "value": 0.4566929133858268
          },
          {
            "number": 7,
            "time": 315.2474000333369,
            "value": 0.44881889763779526
          },
          {
            "number": 7,
            "time": 315.40187130000356,
            "value": 0.4409448818897638
          },
          {
            "number": 7,
            "time": 315.56040760000354,
            "value": 0.4330708661417323
          },
          {
            "number": 7,
            "time": 315.71487886667023,
            "value": 0.4251968503937008
          },
          {
            "number": 7,
            "time": 315.8693501333369,
            "value": 0.41732283464566927
          },
          {
            "number": 7,
            "time": 316.0278864333369,
            "value": 0.4094488188976378
          },
          {
            "number": 7,
            "time": 316.1823577000036,
            "value": 0.4015748031496063
          },
          {
            "number": 7,
            "time": 316.3408940000036,
            "value": 0.3937007874015748
          },
          {
            "number": 7,
            "time": 316.49536526667026,
            "value": 0.3858267716535433
          },
          {
            "number": 7,
            "time": 316.64983653333695,
            "value": 0.3779527559055118
          },
          {
            "number": 7,
            "time": 316.80837283333693,
            "value": 0.3700787401574803
          },
          {
            "number": 7,
            "time": 316.9628441000036,
            "value": 0.36220472440944884
          },
          {
            "number": 7,
            "time": 317.1173153666703,
            "value": 0.3543307086614173
          },
          {
            "number": 7,
            "time": 317.2758516666703,
            "value": 0.3464566929133858
          },
          {
            "number": 7,
            "time": 317.430322933337,
            "value": 0.33858267716535434
          },
          {
            "number": 7,
            "time": 317.58885923333696,
            "value": 0.33070866141732286
          },
          {
            "number": 7,
            "time": 317.74333050000365,
            "value": 0.3228346456692913
          },
          {
            "number": 7,
            "time": 317.89780176667034,
            "value": 0.31496062992125984
          },
          {
            "number": 7,
            "time": 318.0563380666703,
            "value": 0.30708661417322836
          },
          {
            "number": 7,
            "time": 318.210809333337,
            "value": 0.2992125984251969
          },
          {
            "number": 7,
            "time": 318.369345633337,
            "value": 0.29133858267716534
          },
          {
            "number": 7,
            "time": 318.5238169000037,
            "value": 0.28346456692913385
          },
          {
            "number": 7,
            "time": 318.67828816667037,
            "value": 0.2755905511811024
          },
          {
            "number": 7,
            "time": 318.83682446667035,
            "value": 0.2677165354330709
          },
          {
            "number": 7,
            "time": 318.99129573333704,
            "value": 0.25984251968503935
          },
          {
            "number": 7,
            "time": 319.149832033337,
            "value": 0.25196850393700787
          },
          {
            "number": 7,
            "time": 319.3043033000037,
            "value": 0.2440944881889764
          },
          {
            "number": 7,
            "time": 319.4587745666704,
            "value": 0.23622047244094488
          },
          {
            "number": 7,
            "time": 319.6173108666704,
            "value": 0.2283464566929134
          },
          {
            "number": 7,
            "time": 319.77178213333707,
            "value": 0.2204724409448819
          },
          {
            "number": 7,
            "time": 319.92625340000376,
            "value": 0.2125984251968504
          },
          {
            "number": 7,
            "time": 320.08478970000374,
            "value": 0.2047244094488189
          },
          {
            "number": 7,
            "time": 320.23926096667043,
            "value": 0.1968503937007874
          },
          {
            "number": 7,
            "time": 320.3977972666704,
            "value": 0.1889763779527559
          },
          {
            "number": 7,
            "time": 320.5522685333371,
            "value": 0.18110236220472442
          },
          {
            "number": 7,
            "time": 320.7067398000038,
            "value": 0.1732283464566929
          },
          {
            "number": 7,
            "time": 320.86527610000377,
            "value": 0.16535433070866143
          },
          {
            "number": 7,
            "time": 321.01974736667046,
            "value": 0.15748031496062992
          },
          {
            "number": 7,
            "time": 321.17828366667044,
            "value": 0.14960629921259844
          },
          {
            "number": 7,
            "time": 321.3327549333371,
            "value": 0.14173228346456693
          },
          {
            "number": 7,
            "time": 321.4872262000038,
            "value": 0.13385826771653545
          },
          {
            "number": 7,
            "time": 321.6457625000038,
            "value": 0.12598425196850394
          },
          {
            "number": 7,
            "time": 321.8002337666705,
            "value": 0.11811023622047244
          },
          {
            "number": 7,
            "time": 321.95877006667047,
            "value": 0.11023622047244094
          },
          {
            "number": 7,
            "time": 322.11324133333716,
            "value": 0.10236220472440945
          },
          {
            "number": 7,
            "time": 322.26771260000385,
            "value": 0.09448818897637795
          },
          {
            "number": 7,
            "time": 322.4262489000038,
            "value": 0.08661417322834646
          },
          {
            "number": 7,
            "time": 322.5807201666705,
            "value": 0.07874015748031496
          },
          {
            "number": 7,
            "time": 322.7351914333372,
            "value": 0.07086614173228346
          },
          {
            "number": 7,
            "time": 322.8937277333372,
            "value": 0.06299212598425197
          },
          {
            "number": 7,
            "time": 323.0481990000039,
            "value": 0.05511811023622047
          },
          {
            "number": 7,
            "time": 323.20673530000386,
            "value": 0.047244094488188976
          },
          {
            "number": 7,
            "time": 323.36120656667055,
            "value": 0.03937007874015748
          },
          {
            "number": 7,
            "time": 323.51567783333724,
            "value": 0.031496062992125984
          },
          {
            "number": 7,
            "time": 323.6742141333372,
            "value": 0.023622047244094488
          },
          {
            "number": 7,
            "time": 323.8286854000039,
            "value": 0.015748031496062992
          },
          {
            "number": 7,
            "time": 323.9872217000039,
            "value": 0.007874015748031496
          },
          {
            "number": 7,
            "time": 324.1416929666706,
            "value": 0
          }
        ]
      },
      "id": 1,
      "name": "Voice",
      "instrumentNumber": 88,
      "instrument": "pad 1 (new age)",
      "instrumentFamily": "synth pad",
      "channelNumber": 0,
      "isPercussion": false
    },
    {
      "startTime": 0,
      "duration": 324.3896599999999,
      "length": 253,
      "notes": [
        {
          "name": "E2",
          "midi": 40,
          "time": 0,
          "velocity": 1,
          "duration": 0.487804
        },
        {
          "name": "E3",
          "midi": 52,
          "time": 0.487804,
          "velocity": 1,
          "duration": 0.24390199999999995
        },
        {
          "name": "G3",
          "midi": 55,
          "time": 0.731706,
          "velocity": 1,
          "duration": 0.24390200000000006
        },
        {
          "name": "A#2",
          "midi": 46,
          "time": 0.975608,
          "velocity": 1,
          "duration": 0.24390200000000006
        },
        {
          "name": "A2",
          "midi": 45,
          "time": 1.21951,
          "velocity": 1,
          "duration": 0.4878040000000001
        },
        {
          "name": "E3",
          "midi": 52,
          "time": 1.7073140000000002,
          "velocity": 1,
          "duration": 0.24390200000000006
        },
        {
          "name": "E2",
          "midi": 40,
          "time": 1.9512160000000003,
          "velocity": 1,
          "duration": 0.4878039999999999
        },
        {
          "name": "E3",
          "midi": 52,
          "time": 2.43902,
          "velocity": 1,
          "duration": 0.24390199999999984
        },
        {
          "name": "G3",
          "midi": 55,
          "time": 2.682922,
          "velocity": 1,
          "duration": 0.24390199999999984
        },
        {
          "name": "A#2",
          "midi": 46,
          "time": 2.926824,
          "velocity": 1,
          "duration": 0.24390199999999984
        },
        {
          "name": "A2",
          "midi": 45,
          "time": 3.1707259999999997,
          "velocity": 1,
          "duration": 0.4878040000000001
        },
        {
          "name": "E3",
          "midi": 52,
          "time": 3.65853,
          "velocity": 1,
          "duration": 0.24390199999999984
        },
        {
          "name": "E2",
          "midi": 40,
          "time": 3.906497033333333,
          "velocity": 1,
          "duration": 0.4878040000000001
        },
        {
          "name": "E3",
          "midi": 52,
          "time": 4.394301033333333,
          "velocity": 1,
          "duration": 0.24390200000000029
        },
        {
          "name": "G3",
          "midi": 55,
          "time": 4.638203033333333,
          "velocity": 1,
          "duration": 0.24390200000000029
        },
        {
          "name": "A#2",
          "midi": 46,
          "time": 4.882105033333334,
          "velocity": 1,
          "duration": 0.24390200000000029
        },
        {
          "name": "A2",
          "midi": 45,
          "time": 5.126007033333334,
          "velocity": 1,
          "duration": 0.4878039999999997
        },
        {
          "name": "E3",
          "midi": 52,
          "time": 5.6138110333333335,
          "velocity": 1,
          "duration": 0.24390200000000029
        },
        {
          "name": "E2",
          "midi": 40,
          "time": 5.861778066666667,
          "velocity": 1,
          "duration": 0.4878039999999997
        },
        {
          "name": "E3",
          "midi": 52,
          "time": 6.349582066666667,
          "velocity": 1,
          "duration": 0.24390200000000029
        },
        {
          "name": "G3",
          "midi": 55,
          "time": 6.593484066666667,
          "velocity": 1,
          "duration": 0.24390200000000029
        },
        {
          "name": "A#2",
          "midi": 46,
          "time": 6.837386066666667,
          "velocity": 1,
          "duration": 0.24390200000000029
        },
        {
          "name": "A2",
          "midi": 45,
          "time": 7.0812880666666675,
          "velocity": 1,
          "duration": 0.4878039999999997
        },
        {
          "name": "E3",
          "midi": 52,
          "time": 7.569092066666667,
          "velocity": 1,
          "duration": 0.24390200000000029
        },
        {
          "name": "E2",
          "midi": 40,
          "time": 7.817059100000001,
          "velocity": 1,
          "duration": 0.4878039999999997
        },
        {
          "name": "E3",
          "midi": 52,
          "time": 8.3048631,
          "velocity": 1,
          "duration": 0.24390200000000029
        },
        {
          "name": "G3",
          "midi": 55,
          "time": 8.5487651,
          "velocity": 1,
          "duration": 0.24390200000000029
        },
        {
          "name": "A#2",
          "midi": 46,
          "time": 8.792667100000001,
          "velocity": 1,
          "duration": 0.24390200000000029
        },
        {
          "name": "A2",
          "midi": 45,
          "time": 9.036569100000001,
          "velocity": 1,
          "duration": 0.48780400000000057
        },
        {
          "name": "E3",
          "midi": 52,
          "time": 9.524373100000002,
          "velocity": 1,
          "duration": 0.24390200000000029
        },
        {
          "name": "E2",
          "midi": 40,
          "time": 9.772340133333335,
          "velocity": 1,
          "duration": 0.48780400000000057
        },
        {
          "name": "E3",
          "midi": 52,
          "time": 10.260144133333336,
          "velocity": 1,
          "duration": 0.24390200000000029
        },
        {
          "name": "G3",
          "midi": 55,
          "time": 10.504046133333336,
          "velocity": 1,
          "duration": 0.24390200000000029
        },
        {
          "name": "A#2",
          "midi": 46,
          "time": 10.747948133333336,
          "velocity": 1,
          "duration": 0.24390200000000029
        },
        {
          "name": "A2",
          "midi": 45,
          "time": 10.991850133333337,
          "velocity": 1,
          "duration": 0.48780400000000057
        },
        {
          "name": "E3",
          "midi": 52,
          "time": 11.479654133333337,
          "velocity": 1,
          "duration": 0.24390200000000029
        },
        {
          "name": "E2",
          "midi": 40,
          "time": 11.72762116666667,
          "velocity": 1,
          "duration": 0.48780400000000057
        },
        {
          "name": "E3",
          "midi": 52,
          "time": 12.215425166666671,
          "velocity": 1,
          "duration": 0.24390200000000029
        },
        {
          "name": "G3",
          "midi": 55,
          "time": 12.459327166666672,
          "velocity": 1,
          "duration": 0.24390200000000029
        },
        {
          "name": "A#2",
          "midi": 46,
          "time": 12.703229166666672,
          "velocity": 1,
          "duration": 0.24390200000000029
        },
        {
          "name": "A2",
          "midi": 45,
          "time": 12.947131166666672,
          "velocity": 1,
          "duration": 0.48780400000000057
        },
        {
          "name": "E3",
          "midi": 52,
          "time": 13.434935166666673,
          "velocity": 1,
          "duration": 0.24390200000000029
        },
        {
          "name": "E2",
          "midi": 40,
          "time": 13.682902200000006,
          "velocity": 1,
          "duration": 0.48780400000000057
        },
        {
          "name": "E3",
          "midi": 52,
          "time": 14.170706200000007,
          "velocity": 1,
          "duration": 0.24390200000000029
        },
        {
          "name": "G3",
          "midi": 55,
          "time": 14.414608200000007,
          "velocity": 1,
          "duration": 0.24390200000000029
        },
        {
          "name": "A#2",
          "midi": 46,
          "time": 14.658510200000007,
          "velocity": 1,
          "duration": 0.24390200000000029
        },
        {
          "name": "A2",
          "midi": 45,
          "time": 14.902412200000008,
          "velocity": 1,
          "duration": 0.48780400000000057
        },
        {
          "name": "E3",
          "midi": 52,
          "time": 15.390216200000008,
          "velocity": 1,
          "duration": 0.24390200000000029
        },
        {
          "name": "E2",
          "midi": 40,
          "time": 15.638183233333342,
          "velocity": 1,
          "duration": 0.4878039999999988
        },
        {
          "name": "E3",
          "midi": 52,
          "time": 16.12598723333334,
          "velocity": 1,
          "duration": 0.2439019999999985
        },
        {
          "name": "G3",
          "midi": 55,
          "time": 16.36988923333334,
          "velocity": 1,
          "duration": 0.2439019999999985
        },
        {
          "name": "A#2",
          "midi": 46,
          "time": 16.613791233333338,
          "velocity": 1,
          "duration": 0.2439019999999985
        },
        {
          "name": "A2",
          "midi": 45,
          "time": 16.857693233333336,
          "velocity": 1,
          "duration": 0.48780400000000057
        },
        {
          "name": "E3",
          "midi": 52,
          "time": 17.345497233333337,
          "velocity": 1,
          "duration": 0.2439019999999985
        },
        {
          "name": "E2",
          "midi": 40,
          "time": 17.560944000000003,
          "velocity": 1,
          "duration": 0.48780400000000057
        },
        {
          "name": "E3",
          "midi": 52,
          "time": 18.048748000000003,
          "velocity": 1,
          "duration": 0.2439019999999985
        },
        {
          "name": "G3",
          "midi": 55,
          "time": 18.292650000000002,
          "velocity": 1,
          "duration": 0.2439019999999985
        },
        {
          "name": "A#2",
          "midi": 46,
          "time": 18.536552,
          "velocity": 1,
          "duration": 0.2439019999999985
        },
        {
          "name": "A2",
          "midi": 45,
          "time": 18.780454,
          "velocity": 1,
          "duration": 0.48780400000000057
        },
        {
          "name": "E3",
          "midi": 52,
          "time": 19.268258,
          "velocity": 1,
          "duration": 0.2439019999999985
        },
        {
          "name": "E2",
          "midi": 40,
          "time": 19.51622503333333,
          "velocity": 1,
          "duration": 0.48780400000000057
        },
        {
          "name": "E3",
          "midi": 52,
          "time": 20.00402903333333,
          "velocity": 1,
          "duration": 0.2439019999999985
        },
        {
          "name": "G3",
          "midi": 55,
          "time": 20.24793103333333,
          "velocity": 1,
          "duration": 0.2439019999999985
        },
        {
          "name": "A#2",
          "midi": 46,
          "time": 20.49183303333333,
          "velocity": 1,
          "duration": 0.2439019999999985
        },
        {
          "name": "A2",
          "midi": 45,
          "time": 20.735735033333327,
          "velocity": 1,
          "duration": 0.48780400000000057
        },
        {
          "name": "E3",
          "midi": 52,
          "time": 21.223539033333328,
          "velocity": 1,
          "duration": 0.2439019999999985
        },
        {
          "name": "E2",
          "midi": 40,
          "time": 21.463375999999993,
          "velocity": 1,
          "duration": 0.48780400000000057
        },
        {
          "name": "E3",
          "midi": 52,
          "time": 21.951179999999994,
          "velocity": 1,
          "duration": 0.2439019999999985
        },
        {
          "name": "G3",
          "midi": 55,
          "time": 22.195081999999992,
          "velocity": 1,
          "duration": 0.2439019999999985
        },
        {
          "name": "A#2",
          "midi": 46,
          "time": 22.43898399999999,
          "velocity": 1,
          "duration": 0.2439019999999985
        },
        {
          "name": "A2",
          "midi": 45,
          "time": 22.68288599999999,
          "velocity": 1,
          "duration": 0.48780400000000057
        },
        {
          "name": "E3",
          "midi": 52,
          "time": 23.17068999999999,
          "velocity": 1,
          "duration": 0.2439019999999985
        },
        {
          "name": "E2",
          "midi": 40,
          "time": 206.82889600000001,
          "velocity": 1,
          "duration": 0.48780400000001123
        },
        {
          "name": "E3",
          "midi": 52,
          "time": 207.31670000000003,
          "velocity": 1,
          "duration": 0.2439019999999914
        },
        {
          "name": "G3",
          "midi": 55,
          "time": 207.56060200000002,
          "velocity": 1,
          "duration": 0.2439019999999914
        },
        {
          "name": "A#2",
          "midi": 46,
          "time": 207.804504,
          "velocity": 1,
          "duration": 0.2439019999999914
        },
        {
          "name": "A2",
          "midi": 45,
          "time": 208.048406,
          "velocity": 1,
          "duration": 0.48780400000001123
        },
        {
          "name": "E3",
          "midi": 52,
          "time": 208.53621,
          "velocity": 1,
          "duration": 0.2439019999999914
        },
        {
          "name": "E2",
          "midi": 40,
          "time": 208.780112,
          "velocity": 1,
          "duration": 0.48780400000001123
        },
        {
          "name": "E3",
          "midi": 52,
          "time": 209.267916,
          "velocity": 1,
          "duration": 0.2439019999999914
        },
        {
          "name": "G3",
          "midi": 55,
          "time": 209.511818,
          "velocity": 1,
          "duration": 0.2439019999999914
        },
        {
          "name": "A#2",
          "midi": 46,
          "time": 209.75572,
          "velocity": 1,
          "duration": 0.2439019999999914
        },
        {
          "name": "A2",
          "midi": 45,
          "time": 209.999622,
          "velocity": 1,
          "duration": 0.48780400000001123
        },
        {
          "name": "E3",
          "midi": 52,
          "time": 210.487426,
          "velocity": 1,
          "duration": 0.2439019999999914
        },
        {
          "name": "E2",
          "midi": 40,
          "time": 210.731328,
          "velocity": 1,
          "duration": 0.48780400000001123
        },
        {
          "name": "E3",
          "midi": 52,
          "time": 211.219132,
          "velocity": 1,
          "duration": 0.2439019999999914
        },
        {
          "name": "G3",
          "midi": 55,
          "time": 211.463034,
          "velocity": 1,
          "duration": 0.2439019999999914
        },
        {
          "name": "A#2",
          "midi": 46,
          "time": 211.70693599999998,
          "velocity": 1,
          "duration": 0.2439019999999914
        },
        {
          "name": "A2",
          "midi": 45,
          "time": 211.95083799999998,
          "velocity": 1,
          "duration": 0.48780400000001123
        },
        {
          "name": "E3",
          "midi": 52,
          "time": 212.438642,
          "velocity": 1,
          "duration": 0.2439019999999914
        },
        {
          "name": "E2",
          "midi": 40,
          "time": 212.68254399999998,
          "velocity": 1,
          "duration": 0.48780400000001123
        },
        {
          "name": "E3",
          "midi": 52,
          "time": 213.170348,
          "velocity": 1,
          "duration": 0.2439019999999914
        },
        {
          "name": "G3",
          "midi": 55,
          "time": 213.41424999999998,
          "velocity": 1,
          "duration": 0.2439019999999914
        },
        {
          "name": "A#2",
          "midi": 46,
          "time": 213.65815199999997,
          "velocity": 1,
          "duration": 0.2439019999999914
        },
        {
          "name": "A2",
          "midi": 45,
          "time": 213.90205399999996,
          "velocity": 1,
          "duration": 0.48780400000001123
        },
        {
          "name": "E3",
          "midi": 52,
          "time": 214.38985799999998,
          "velocity": 1,
          "duration": 0.2439019999999914
        },
        {
          "name": "E2",
          "midi": 40,
          "time": 214.63375999999997,
          "velocity": 1,
          "duration": 0.48780400000001123
        },
        {
          "name": "E3",
          "midi": 52,
          "time": 215.12156399999998,
          "velocity": 1,
          "duration": 0.2439019999999914
        },
        {
          "name": "G3",
          "midi": 55,
          "time": 215.36546599999997,
          "velocity": 1,
          "duration": 0.2439019999999914
        },
        {
          "name": "A#2",
          "midi": 46,
          "time": 215.60936799999996,
          "velocity": 1,
          "duration": 0.2439019999999914
        },
        {
          "name": "A2",
          "midi": 45,
          "time": 215.85326999999995,
          "velocity": 1,
          "duration": 0.48780400000001123
        },
        {
          "name": "E3",
          "midi": 52,
          "time": 216.34107399999996,
          "velocity": 1,
          "duration": 0.2439019999999914
        },
        {
          "name": "E2",
          "midi": 40,
          "time": 216.58497599999995,
          "velocity": 1,
          "duration": 0.48780400000001123
        },
        {
          "name": "E3",
          "midi": 52,
          "time": 217.07277999999997,
          "velocity": 1,
          "duration": 0.2439019999999914
        },
        {
          "name": "G3",
          "midi": 55,
          "time": 217.31668199999996,
          "velocity": 1,
          "duration": 0.2439019999999914
        },
        {
          "name": "A#2",
          "midi": 46,
          "time": 217.56058399999995,
          "velocity": 1,
          "duration": 0.2439019999999914
        },
        {
          "name": "A2",
          "midi": 45,
          "time": 217.80448599999994,
          "velocity": 1,
          "duration": 0.48780400000001123
        },
        {
          "name": "E3",
          "midi": 52,
          "time": 218.29228999999995,
          "velocity": 1,
          "duration": 0.2439019999999914
        },
        {
          "name": "E2",
          "midi": 40,
          "time": 218.53619199999994,
          "velocity": 1,
          "duration": 0.48780400000001123
        },
        {
          "name": "E3",
          "midi": 52,
          "time": 219.02399599999995,
          "velocity": 1,
          "duration": 0.2439019999999914
        },
        {
          "name": "G3",
          "midi": 55,
          "time": 219.26789799999995,
          "velocity": 1,
          "duration": 0.2439019999999914
        },
        {
          "name": "A#2",
          "midi": 46,
          "time": 219.51179999999994,
          "velocity": 1,
          "duration": 0.2439019999999914
        },
        {
          "name": "A2",
          "midi": 45,
          "time": 219.75570199999993,
          "velocity": 1,
          "duration": 0.48780400000001123
        },
        {
          "name": "E3",
          "midi": 52,
          "time": 220.24350599999994,
          "velocity": 1,
          "duration": 0.2439019999999914
        },
        {
          "name": "E2",
          "midi": 40,
          "time": 220.48740799999993,
          "velocity": 1,
          "duration": 0.48780400000001123
        },
        {
          "name": "E3",
          "midi": 52,
          "time": 220.97521199999994,
          "velocity": 1,
          "duration": 0.2439019999999914
        },
        {
          "name": "G3",
          "midi": 55,
          "time": 221.21911399999993,
          "velocity": 1,
          "duration": 0.2439019999999914
        },
        {
          "name": "A#2",
          "midi": 46,
          "time": 221.46301599999993,
          "velocity": 1,
          "duration": 0.2439019999999914
        },
        {
          "name": "A2",
          "midi": 45,
          "time": 221.70691799999992,
          "velocity": 1,
          "duration": 0.48780400000001123
        },
        {
          "name": "E3",
          "midi": 52,
          "time": 222.19472199999993,
          "velocity": 1,
          "duration": 0.2439019999999914
        },
        {
          "name": "E2",
          "midi": 40,
          "time": 280.97510399999993,
          "velocity": 1,
          "duration": 0.4878039999999828
        },
        {
          "name": "E3",
          "midi": 52,
          "time": 281.4629079999999,
          "velocity": 1,
          "duration": 0.2439019999999914
        },
        {
          "name": "G3",
          "midi": 55,
          "time": 281.7068099999999,
          "velocity": 1,
          "duration": 0.2439019999999914
        },
        {
          "name": "A#2",
          "midi": 46,
          "time": 281.9507119999999,
          "velocity": 1,
          "duration": 0.2439019999999914
        },
        {
          "name": "A2",
          "midi": 45,
          "time": 282.1946139999999,
          "velocity": 1,
          "duration": 0.4878039999999828
        },
        {
          "name": "E3",
          "midi": 52,
          "time": 282.68241799999987,
          "velocity": 1,
          "duration": 0.2439019999999914
        },
        {
          "name": "E2",
          "midi": 40,
          "time": 282.92631999999986,
          "velocity": 1,
          "duration": 0.4878039999999828
        },
        {
          "name": "E3",
          "midi": 52,
          "time": 283.41412399999984,
          "velocity": 1,
          "duration": 0.2439019999999914
        },
        {
          "name": "G3",
          "midi": 55,
          "time": 283.65802599999984,
          "velocity": 1,
          "duration": 0.2439019999999914
        },
        {
          "name": "A#2",
          "midi": 46,
          "time": 283.9019279999998,
          "velocity": 1,
          "duration": 0.2439019999999914
        },
        {
          "name": "A2",
          "midi": 45,
          "time": 284.1458299999998,
          "velocity": 1,
          "duration": 0.4878039999999828
        },
        {
          "name": "E3",
          "midi": 52,
          "time": 284.6336339999998,
          "velocity": 1,
          "duration": 0.2439019999999914
        },
        {
          "name": "E2",
          "midi": 40,
          "time": 284.8775359999998,
          "velocity": 1,
          "duration": 0.4878039999999828
        },
        {
          "name": "E3",
          "midi": 52,
          "time": 285.3653399999998,
          "velocity": 1,
          "duration": 0.2439019999999914
        },
        {
          "name": "G3",
          "midi": 55,
          "time": 285.60924199999977,
          "velocity": 1,
          "duration": 0.2439019999999914
        },
        {
          "name": "A#2",
          "midi": 46,
          "time": 285.85314399999976,
          "velocity": 1,
          "duration": 0.2439019999999914
        },
        {
          "name": "A2",
          "midi": 45,
          "time": 286.09704599999975,
          "velocity": 1,
          "duration": 0.4878039999999828
        },
        {
          "name": "E3",
          "midi": 52,
          "time": 286.58484999999973,
          "velocity": 1,
          "duration": 0.2439019999999914
        },
        {
          "name": "E2",
          "midi": 40,
          "time": 286.8287519999997,
          "velocity": 1,
          "duration": 0.4878039999999828
        },
        {
          "name": "E3",
          "midi": 52,
          "time": 287.3165559999997,
          "velocity": 1,
          "duration": 0.2439019999999914
        },
        {
          "name": "G3",
          "midi": 55,
          "time": 287.5604579999997,
          "velocity": 1,
          "duration": 0.2439019999999914
        },
        {
          "name": "A#2",
          "midi": 46,
          "time": 287.8043599999997,
          "velocity": 1,
          "duration": 0.2439019999999914
        },
        {
          "name": "A2",
          "midi": 45,
          "time": 288.0482619999997,
          "velocity": 1,
          "duration": 0.4878039999999828
        },
        {
          "name": "E3",
          "midi": 52,
          "time": 288.53606599999966,
          "velocity": 1,
          "duration": 0.2439019999999914
        },
        {
          "name": "E2",
          "midi": 40,
          "time": 288.77996799999966,
          "velocity": 1,
          "duration": 0.4878039999999828
        },
        {
          "name": "E3",
          "midi": 52,
          "time": 289.26777199999964,
          "velocity": 1,
          "duration": 0.2439019999999914
        },
        {
          "name": "G3",
          "midi": 55,
          "time": 289.51167399999963,
          "velocity": 1,
          "duration": 0.2439019999999914
        },
        {
          "name": "A#2",
          "midi": 46,
          "time": 289.7555759999996,
          "velocity": 1,
          "duration": 0.2439019999999914
        },
        {
          "name": "A2",
          "midi": 45,
          "time": 289.9994779999996,
          "velocity": 1,
          "duration": 0.4878039999999828
        },
        {
          "name": "E3",
          "midi": 52,
          "time": 290.4872819999996,
          "velocity": 1,
          "duration": 0.2439019999999914
        },
        {
          "name": "E2",
          "midi": 40,
          "time": 290.7311839999996,
          "velocity": 1,
          "duration": 0.4878039999999828
        },
        {
          "name": "E3",
          "midi": 52,
          "time": 291.21898799999957,
          "velocity": 1,
          "duration": 0.2439019999999914
        },
        {
          "name": "G3",
          "midi": 55,
          "time": 291.46288999999956,
          "velocity": 1,
          "duration": 0.2439019999999914
        },
        {
          "name": "A#2",
          "midi": 46,
          "time": 291.70679199999955,
          "velocity": 1,
          "duration": 0.2439019999999914
        },
        {
          "name": "A2",
          "midi": 45,
          "time": 291.95069399999954,
          "velocity": 1,
          "duration": 0.4878039999999828
        },
        {
          "name": "E3",
          "midi": 52,
          "time": 292.4384979999995,
          "velocity": 1,
          "duration": 0.2439019999999914
        },
        {
          "name": "E2",
          "midi": 40,
          "time": 292.6823999999995,
          "velocity": 1,
          "duration": 0.4878039999999828
        },
        {
          "name": "E3",
          "midi": 52,
          "time": 293.1702039999995,
          "velocity": 1,
          "duration": 0.2439019999999914
        },
        {
          "name": "G3",
          "midi": 55,
          "time": 293.4141059999995,
          "velocity": 1,
          "duration": 0.2439019999999914
        },
        {
          "name": "A#2",
          "midi": 46,
          "time": 293.6580079999995,
          "velocity": 1,
          "duration": 0.2439019999999914
        },
        {
          "name": "A2",
          "midi": 45,
          "time": 293.9019099999995,
          "velocity": 1,
          "duration": 0.4878039999999828
        },
        {
          "name": "E3",
          "midi": 52,
          "time": 294.38971399999946,
          "velocity": 1,
          "duration": 0.2439019999999914
        },
        {
          "name": "E2",
          "midi": 40,
          "time": 294.63361599999945,
          "velocity": 1,
          "duration": 0.4878039999999828
        },
        {
          "name": "E3",
          "midi": 52,
          "time": 295.12141999999943,
          "velocity": 1,
          "duration": 0.2439019999999914
        },
        {
          "name": "G3",
          "midi": 55,
          "time": 295.3653219999994,
          "velocity": 1,
          "duration": 0.2439019999999914
        },
        {
          "name": "A#2",
          "midi": 46,
          "time": 295.6092239999994,
          "velocity": 1,
          "duration": 0.2439019999999914
        },
        {
          "name": "A2",
          "midi": 45,
          "time": 295.8531259999994,
          "velocity": 1,
          "duration": 0.4878039999999828
        },
        {
          "name": "E3",
          "midi": 52,
          "time": 296.3409299999994,
          "velocity": 1,
          "duration": 0.2439019999999914
        },
        {
          "name": "E2",
          "midi": 40,
          "time": 296.5848319999994,
          "velocity": 1,
          "duration": 0.4878039999999828
        },
        {
          "name": "E3",
          "midi": 52,
          "time": 297.07263599999936,
          "velocity": 1,
          "duration": 0.2439019999999914
        },
        {
          "name": "G3",
          "midi": 55,
          "time": 297.31653799999935,
          "velocity": 1,
          "duration": 0.2439019999999914
        },
        {
          "name": "A#2",
          "midi": 46,
          "time": 297.56043999999935,
          "velocity": 1,
          "duration": 0.2439019999999914
        },
        {
          "name": "A2",
          "midi": 45,
          "time": 297.80434199999934,
          "velocity": 1,
          "duration": 0.4878039999999828
        },
        {
          "name": "E3",
          "midi": 52,
          "time": 298.2921459999993,
          "velocity": 1,
          "duration": 0.2439019999999914
        },
        {
          "name": "E2",
          "midi": 40,
          "time": 298.5360479999993,
          "velocity": 1,
          "duration": 0.4878039999999828
        },
        {
          "name": "E3",
          "midi": 52,
          "time": 299.0238519999993,
          "velocity": 1,
          "duration": 0.2439019999999914
        },
        {
          "name": "G3",
          "midi": 55,
          "time": 299.2677539999993,
          "velocity": 1,
          "duration": 0.2439019999999914
        },
        {
          "name": "A#2",
          "midi": 46,
          "time": 299.5116559999993,
          "velocity": 1,
          "duration": 0.2439019999999914
        },
        {
          "name": "A2",
          "midi": 45,
          "time": 299.75555799999927,
          "velocity": 1,
          "duration": 0.4878039999999828
        },
        {
          "name": "E3",
          "midi": 52,
          "time": 300.24336199999925,
          "velocity": 1,
          "duration": 0.2439019999999914
        },
        {
          "name": "E2",
          "midi": 40,
          "time": 300.48726399999924,
          "velocity": 1,
          "duration": 0.4878039999999828
        },
        {
          "name": "E3",
          "midi": 52,
          "time": 300.9750679999992,
          "velocity": 1,
          "duration": 0.2439019999999914
        },
        {
          "name": "G3",
          "midi": 55,
          "time": 301.2189699999992,
          "velocity": 1,
          "duration": 0.2439019999999914
        },
        {
          "name": "A#2",
          "midi": 46,
          "time": 301.4628719999992,
          "velocity": 1,
          "duration": 0.2439019999999914
        },
        {
          "name": "A2",
          "midi": 45,
          "time": 301.7067739999992,
          "velocity": 1,
          "duration": 0.4878039999999828
        },
        {
          "name": "E3",
          "midi": 52,
          "time": 302.1945779999992,
          "velocity": 1,
          "duration": 0.2439019999999914
        },
        {
          "name": "E2",
          "midi": 40,
          "time": 302.4384799999992,
          "velocity": 1,
          "duration": 0.4878039999999828
        },
        {
          "name": "E3",
          "midi": 52,
          "time": 302.92628399999916,
          "velocity": 1,
          "duration": 0.2439019999999914
        },
        {
          "name": "G3",
          "midi": 55,
          "time": 303.17018599999915,
          "velocity": 1,
          "duration": 0.2439019999999914
        },
        {
          "name": "A#2",
          "midi": 46,
          "time": 303.41408799999914,
          "velocity": 1,
          "duration": 0.2439019999999914
        },
        {
          "name": "A2",
          "midi": 45,
          "time": 303.65798999999913,
          "velocity": 1,
          "duration": 0.4878039999999828
        },
        {
          "name": "E3",
          "midi": 52,
          "time": 304.1457939999991,
          "velocity": 1,
          "duration": 0.2439019999999914
        },
        {
          "name": "E2",
          "midi": 40,
          "time": 304.3896959999991,
          "velocity": 1,
          "duration": 0.4878039999999828
        },
        {
          "name": "E3",
          "midi": 52,
          "time": 304.8774999999991,
          "velocity": 1,
          "duration": 0.2439019999999914
        },
        {
          "name": "G3",
          "midi": 55,
          "time": 305.1214019999991,
          "velocity": 1,
          "duration": 0.2439019999999914
        },
        {
          "name": "A#2",
          "midi": 46,
          "time": 305.36530399999907,
          "velocity": 1,
          "duration": 0.2439019999999914
        },
        {
          "name": "A2",
          "midi": 45,
          "time": 305.60920599999906,
          "velocity": 1,
          "duration": 0.4878039999999828
        },
        {
          "name": "E3",
          "midi": 52,
          "time": 306.09700999999905,
          "velocity": 1,
          "duration": 0.2439019999999914
        },
        {
          "name": "E2",
          "midi": 40,
          "time": 306.34091199999904,
          "velocity": 1,
          "duration": 0.4878039999999828
        },
        {
          "name": "E3",
          "midi": 52,
          "time": 306.828715999999,
          "velocity": 1,
          "duration": 0.2439019999999914
        },
        {
          "name": "G3",
          "midi": 55,
          "time": 307.072617999999,
          "velocity": 1,
          "duration": 0.2439019999999914
        },
        {
          "name": "A#2",
          "midi": 46,
          "time": 307.316519999999,
          "velocity": 1,
          "duration": 0.2439019999999914
        },
        {
          "name": "A2",
          "midi": 45,
          "time": 307.560421999999,
          "velocity": 1,
          "duration": 0.4878039999999828
        },
        {
          "name": "E3",
          "midi": 52,
          "time": 308.048225999999,
          "velocity": 1,
          "duration": 0.2439019999999914
        },
        {
          "name": "E2",
          "midi": 40,
          "time": 308.29212799999897,
          "velocity": 1,
          "duration": 0.48780400000003965
        },
        {
          "name": "E3",
          "midi": 52,
          "time": 308.779931999999,
          "velocity": 1,
          "duration": 0.24390200000004825
        },
        {
          "name": "G3",
          "midi": 55,
          "time": 309.02383399999906,
          "velocity": 1,
          "duration": 0.24390200000004825
        },
        {
          "name": "A#2",
          "midi": 46,
          "time": 309.2677359999991,
          "velocity": 1,
          "duration": 0.24390200000004825
        },
        {
          "name": "A2",
          "midi": 45,
          "time": 309.51163799999915,
          "velocity": 1,
          "duration": 0.48780400000003965
        },
        {
          "name": "E3",
          "midi": 52,
          "time": 309.9994419999992,
          "velocity": 1,
          "duration": 0.2439019999999914
        },
        {
          "name": "E2",
          "midi": 40,
          "time": 310.2433439999992,
          "velocity": 1,
          "duration": 0.48780400000003965
        },
        {
          "name": "E3",
          "midi": 52,
          "time": 310.7311479999992,
          "velocity": 1,
          "duration": 0.2439019999999914
        },
        {
          "name": "G3",
          "midi": 55,
          "time": 310.9750499999992,
          "velocity": 1,
          "duration": 0.2439019999999914
        },
        {
          "name": "A#2",
          "midi": 46,
          "time": 311.2189519999992,
          "velocity": 1,
          "duration": 0.2439019999999914
        },
        {
          "name": "A2",
          "midi": 45,
          "time": 311.4628539999992,
          "velocity": 1,
          "duration": 0.48780400000003965
        },
        {
          "name": "E3",
          "midi": 52,
          "time": 311.95065799999924,
          "velocity": 1,
          "duration": 0.24390200000004825
        },
        {
          "name": "E2",
          "midi": 40,
          "time": 312.1945599999993,
          "velocity": 1,
          "duration": 0.48780400000003965
        },
        {
          "name": "E3",
          "midi": 52,
          "time": 312.6823639999993,
          "velocity": 1,
          "duration": 0.24390200000004825
        },
        {
          "name": "G3",
          "midi": 55,
          "time": 312.9262659999994,
          "velocity": 1,
          "duration": 0.2439019999999914
        },
        {
          "name": "A#2",
          "midi": 46,
          "time": 313.17016799999936,
          "velocity": 1,
          "duration": 0.24390200000004825
        },
        {
          "name": "A2",
          "midi": 45,
          "time": 313.4140699999994,
          "velocity": 1,
          "duration": 0.4878039999999828
        },
        {
          "name": "E3",
          "midi": 52,
          "time": 313.9018739999994,
          "velocity": 1,
          "duration": 0.2439019999999914
        },
        {
          "name": "E2",
          "midi": 40,
          "time": 314.1457759999994,
          "velocity": 1,
          "duration": 0.48780400000003965
        },
        {
          "name": "E3",
          "midi": 52,
          "time": 314.6335799999994,
          "velocity": 1,
          "duration": 0.2439019999999914
        },
        {
          "name": "G3",
          "midi": 55,
          "time": 314.8774819999994,
          "velocity": 1,
          "duration": 0.24390200000004825
        },
        {
          "name": "A#2",
          "midi": 46,
          "time": 315.12138399999947,
          "velocity": 1,
          "duration": 0.2439019999999914
        },
        {
          "name": "A2",
          "midi": 45,
          "time": 315.36528599999946,
          "velocity": 1,
          "duration": 0.48780400000003965
        },
        {
          "name": "E3",
          "midi": 52,
          "time": 315.8530899999995,
          "velocity": 1,
          "duration": 0.2439019999999914
        },
        {
          "name": "E2",
          "midi": 40,
          "time": 316.0969919999995,
          "velocity": 1,
          "duration": 0.48780400000003965
        },
        {
          "name": "E3",
          "midi": 52,
          "time": 316.5847959999995,
          "velocity": 1,
          "duration": 0.2439019999999914
        },
        {
          "name": "G3",
          "midi": 55,
          "time": 316.8286979999995,
          "velocity": 1,
          "duration": 0.2439019999999914
        },
        {
          "name": "A#2",
          "midi": 46,
          "time": 317.0725999999995,
          "velocity": 1,
          "duration": 0.2439019999999914
        },
        {
          "name": "A2",
          "midi": 45,
          "time": 317.3165019999995,
          "velocity": 1,
          "duration": 0.4878039999999828
        },
        {
          "name": "E3",
          "midi": 52,
          "time": 317.8043059999995,
          "velocity": 1,
          "duration": 0.2439019999999914
        },
        {
          "name": "E2",
          "midi": 40,
          "time": 318.0482079999995,
          "velocity": 1,
          "duration": 0.48780400000003965
        },
        {
          "name": "E3",
          "midi": 52,
          "time": 318.5360119999995,
          "velocity": 1,
          "duration": 0.2439019999999914
        },
        {
          "name": "G3",
          "midi": 55,
          "time": 318.7799139999995,
          "velocity": 1,
          "duration": 0.24390200000004825
        },
        {
          "name": "A#2",
          "midi": 46,
          "time": 319.02381599999956,
          "velocity": 1,
          "duration": 0.2439019999999914
        },
        {
          "name": "A2",
          "midi": 45,
          "time": 319.26771799999955,
          "velocity": 1,
          "duration": 0.48780400000003965
        },
        {
          "name": "E3",
          "midi": 52,
          "time": 319.7555219999996,
          "velocity": 1,
          "duration": 0.24390200000004825
        },
        {
          "name": "E2",
          "midi": 40,
          "time": 319.99942399999964,
          "velocity": 1,
          "duration": 0.48780400000003965
        },
        {
          "name": "E3",
          "midi": 52,
          "time": 320.4872279999997,
          "velocity": 1,
          "duration": 0.24390200000004825
        },
        {
          "name": "G3",
          "midi": 55,
          "time": 320.7311299999997,
          "velocity": 1,
          "duration": 0.2439019999999914
        },
        {
          "name": "A#2",
          "midi": 46,
          "time": 320.9750319999997,
          "velocity": 1,
          "duration": 0.2439019999999914
        },
        {
          "name": "A2",
          "midi": 45,
          "time": 321.2189339999997,
          "velocity": 1,
          "duration": 0.4878039999999828
        },
        {
          "name": "E3",
          "midi": 52,
          "time": 321.7067379999997,
          "velocity": 1,
          "duration": 0.2439019999999914
        },
        {
          "name": "E2",
          "midi": 40,
          "time": 321.9506399999997,
          "velocity": 1,
          "duration": 0.48780400000003965
        },
        {
          "name": "E3",
          "midi": 52,
          "time": 322.4384439999997,
          "velocity": 1,
          "duration": 0.2439019999999914
        },
        {
          "name": "G3",
          "midi": 55,
          "time": 322.6823459999997,
          "velocity": 1,
          "duration": 0.2439019999999914
        },
        {
          "name": "A#2",
          "midi": 46,
          "time": 322.9262479999997,
          "velocity": 1,
          "duration": 0.24390200000004825
        },
        {
          "name": "A2",
          "midi": 45,
          "time": 323.17014999999975,
          "velocity": 1,
          "duration": 0.48780400000003965
        },
        {
          "name": "E3",
          "midi": 52,
          "time": 323.6579539999998,
          "velocity": 1,
          "duration": 0.24390200000004825
        },
        {
          "name": "E2",
          "midi": 40,
          "time": 323.90185599999984,
          "velocity": 1,
          "duration": 0.48780400000003965
        }
      ],
      "controlChanges": {
        "7": [
          {
            "number": 7,
            "time": 0,
            "value": 0.7874015748031497
          },
          {
            "number": 7,
            "time": 308.53602999999896,
            "value": 0.7874015748031497
          },
          {
            "number": 7,
            "time": 308.69050126666565,
            "value": 0.7795275590551181
          },
          {
            "number": 7,
            "time": 308.8490375666657,
            "value": 0.7716535433070866
          },
          {
            "number": 7,
            "time": 309.0035088333324,
            "value": 0.7637795275590551
          },
          {
            "number": 7,
            "time": 309.1620451333324,
            "value": 0.7559055118110236
          },
          {
            "number": 7,
            "time": 309.3165163999991,
            "value": 0.7480314960629921
          },
          {
            "number": 7,
            "time": 309.4709876666658,
            "value": 0.7401574803149606
          },
          {
            "number": 7,
            "time": 309.62952396666583,
            "value": 0.7322834645669292
          },
          {
            "number": 7,
            "time": 309.7839952333325,
            "value": 0.7244094488188977
          },
          {
            "number": 7,
            "time": 309.9425315333325,
            "value": 0.7165354330708661
          },
          {
            "number": 7,
            "time": 310.0970027999992,
            "value": 0.7086614173228346
          },
          {
            "number": 7,
            "time": 310.2514740666659,
            "value": 0.7007874015748031
          },
          {
            "number": 7,
            "time": 310.41001036666586,
            "value": 0.6929133858267716
          },
          {
            "number": 7,
            "time": 310.56448163333255,
            "value": 0.6850393700787402
          },
          {
            "number": 7,
            "time": 310.71895289999924,
            "value": 0.6771653543307087
          },
          {
            "number": 7,
            "time": 310.8774891999992,
            "value": 0.6692913385826772
          },
          {
            "number": 7,
            "time": 311.0319604666659,
            "value": 0.6614173228346457
          },
          {
            "number": 7,
            "time": 311.1904967666659,
            "value": 0.6535433070866141
          },
          {
            "number": 7,
            "time": 311.3449680333325,
            "value": 0.6456692913385826
          },
          {
            "number": 7,
            "time": 311.4994392999992,
            "value": 0.6377952755905512
          },
          {
            "number": 7,
            "time": 311.6579755999992,
            "value": 0.6299212598425197
          },
          {
            "number": 7,
            "time": 311.8124468666659,
            "value": 0.6220472440944882
          },
          {
            "number": 7,
            "time": 311.9709831666659,
            "value": 0.6141732283464567
          },
          {
            "number": 7,
            "time": 312.1254544333326,
            "value": 0.6062992125984252
          },
          {
            "number": 7,
            "time": 312.2799256999993,
            "value": 0.5984251968503937
          },
          {
            "number": 7,
            "time": 312.4384619999993,
            "value": 0.5905511811023622
          },
          {
            "number": 7,
            "time": 312.59293326666597,
            "value": 0.5826771653543307
          },
          {
            "number": 7,
            "time": 312.751469566666,
            "value": 0.5748031496062992
          },
          {
            "number": 7,
            "time": 312.9059408333327,
            "value": 0.5669291338582677
          },
          {
            "number": 7,
            "time": 313.0604120999994,
            "value": 0.5590551181102362
          },
          {
            "number": 7,
            "time": 313.21894839999936,
            "value": 0.5511811023622047
          },
          {
            "number": 7,
            "time": 313.37341966666605,
            "value": 0.5433070866141733
          },
          {
            "number": 7,
            "time": 313.52789093333274,
            "value": 0.5354330708661418
          },
          {
            "number": 7,
            "time": 313.6864272333327,
            "value": 0.5275590551181102
          },
          {
            "number": 7,
            "time": 313.8408984999994,
            "value": 0.5196850393700787
          },
          {
            "number": 7,
            "time": 313.9994347999994,
            "value": 0.5118110236220472
          },
          {
            "number": 7,
            "time": 314.1539060666661,
            "value": 0.5039370078740157
          },
          {
            "number": 7,
            "time": 314.30837733333277,
            "value": 0.49606299212598426
          },
          {
            "number": 7,
            "time": 314.46691363333275,
            "value": 0.4881889763779528
          },
          {
            "number": 7,
            "time": 314.62138489999944,
            "value": 0.48031496062992124
          },
          {
            "number": 7,
            "time": 314.7799211999994,
            "value": 0.47244094488188976
          },
          {
            "number": 7,
            "time": 314.9343924666661,
            "value": 0.4645669291338583
          },
          {
            "number": 7,
            "time": 315.0888637333328,
            "value": 0.4566929133858268
          },
          {
            "number": 7,
            "time": 315.2474000333328,
            "value": 0.44881889763779526
          },
          {
            "number": 7,
            "time": 315.40187129999947,
            "value": 0.4409448818897638
          },
          {
            "number": 7,
            "time": 315.56040759999945,
            "value": 0.4330708661417323
          },
          {
            "number": 7,
            "time": 315.71487886666614,
            "value": 0.4251968503937008
          },
          {
            "number": 7,
            "time": 315.86935013333283,
            "value": 0.41732283464566927
          },
          {
            "number": 7,
            "time": 316.0278864333328,
            "value": 0.4094488188976378
          },
          {
            "number": 7,
            "time": 316.1823576999995,
            "value": 0.4015748031496063
          },
          {
            "number": 7,
            "time": 316.3408939999995,
            "value": 0.3937007874015748
          },
          {
            "number": 7,
            "time": 316.49536526666617,
            "value": 0.3858267716535433
          },
          {
            "number": 7,
            "time": 316.64983653333286,
            "value": 0.3779527559055118
          },
          {
            "number": 7,
            "time": 316.80837283333284,
            "value": 0.3700787401574803
          },
          {
            "number": 7,
            "time": 316.96284409999953,
            "value": 0.36220472440944884
          },
          {
            "number": 7,
            "time": 317.11731536666616,
            "value": 0.3543307086614173
          },
          {
            "number": 7,
            "time": 317.27585166666614,
            "value": 0.3464566929133858
          },
          {
            "number": 7,
            "time": 317.43032293333283,
            "value": 0.33858267716535434
          },
          {
            "number": 7,
            "time": 317.5888592333328,
            "value": 0.33070866141732286
          },
          {
            "number": 7,
            "time": 317.7433304999995,
            "value": 0.3228346456692913
          },
          {
            "number": 7,
            "time": 317.89780176666613,
            "value": 0.31496062992125984
          },
          {
            "number": 7,
            "time": 318.05633806666617,
            "value": 0.30708661417322836
          },
          {
            "number": 7,
            "time": 318.21080933333286,
            "value": 0.2992125984251969
          },
          {
            "number": 7,
            "time": 318.36934563333284,
            "value": 0.29133858267716534
          },
          {
            "number": 7,
            "time": 318.52381689999953,
            "value": 0.28346456692913385
          },
          {
            "number": 7,
            "time": 318.67828816666616,
            "value": 0.2755905511811024
          },
          {
            "number": 7,
            "time": 318.8368244666662,
            "value": 0.2677165354330709
          },
          {
            "number": 7,
            "time": 318.9912957333329,
            "value": 0.25984251968503935
          },
          {
            "number": 7,
            "time": 319.14983203333287,
            "value": 0.25196850393700787
          },
          {
            "number": 7,
            "time": 319.30430329999956,
            "value": 0.2440944881889764
          },
          {
            "number": 7,
            "time": 319.45877456666625,
            "value": 0.23622047244094488
          },
          {
            "number": 7,
            "time": 319.61731086666623,
            "value": 0.2283464566929134
          },
          {
            "number": 7,
            "time": 319.7717821333329,
            "value": 0.2204724409448819
          },
          {
            "number": 7,
            "time": 319.9262533999996,
            "value": 0.2125984251968504
          },
          {
            "number": 7,
            "time": 320.08478969999965,
            "value": 0.2047244094488189
          },
          {
            "number": 7,
            "time": 320.23926096666634,
            "value": 0.1968503937007874
          },
          {
            "number": 7,
            "time": 320.3977972666663,
            "value": 0.1889763779527559
          },
          {
            "number": 7,
            "time": 320.552268533333,
            "value": 0.18110236220472442
          },
          {
            "number": 7,
            "time": 320.7067397999997,
            "value": 0.1732283464566929
          },
          {
            "number": 7,
            "time": 320.86527609999973,
            "value": 0.16535433070866143
          },
          {
            "number": 7,
            "time": 321.01974736666637,
            "value": 0.15748031496062992
          },
          {
            "number": 7,
            "time": 321.17828366666635,
            "value": 0.14960629921259844
          },
          {
            "number": 7,
            "time": 321.33275493333304,
            "value": 0.14173228346456693
          },
          {
            "number": 7,
            "time": 321.4872261999997,
            "value": 0.13385826771653545
          },
          {
            "number": 7,
            "time": 321.6457624999997,
            "value": 0.12598425196850394
          },
          {
            "number": 7,
            "time": 321.80023376666634,
            "value": 0.11811023622047244
          },
          {
            "number": 7,
            "time": 321.9587700666664,
            "value": 0.11023622047244094
          },
          {
            "number": 7,
            "time": 322.11324133333306,
            "value": 0.10236220472440945
          },
          {
            "number": 7,
            "time": 322.26771259999975,
            "value": 0.09448818897637795
          },
          {
            "number": 7,
            "time": 322.42624889999973,
            "value": 0.08661417322834646
          },
          {
            "number": 7,
            "time": 322.58072016666637,
            "value": 0.07874015748031496
          },
          {
            "number": 7,
            "time": 322.73519143333306,
            "value": 0.07086614173228346
          },
          {
            "number": 7,
            "time": 322.89372773333304,
            "value": 0.06299212598425197
          },
          {
            "number": 7,
            "time": 323.0481989999997,
            "value": 0.05511811023622047
          },
          {
            "number": 7,
            "time": 323.20673529999976,
            "value": 0.047244094488188976
          },
          {
            "number": 7,
            "time": 323.36120656666645,
            "value": 0.03937007874015748
          },
          {
            "number": 7,
            "time": 323.51567783333314,
            "value": 0.031496062992125984
          },
          {
            "number": 7,
            "time": 323.6742141333331,
            "value": 0.023622047244094488
          },
          {
            "number": 7,
            "time": 323.8286853999998,
            "value": 0.015748031496062992
          },
          {
            "number": 7,
            "time": 323.98722169999985,
            "value": 0.007874015748031496
          },
          {
            "number": 7,
            "time": 324.14169296666654,
            "value": 0
          }
        ]
      },
      "id": 2,
      "name": "Guitar 1",
      "instrumentNumber": 25,
      "instrument": "acoustic guitar (steel)",
      "instrumentFamily": "guitar",
      "channelNumber": 1,
      "isPercussion": false
    },
    {
      "startTime": 7.804864,
      "duration": 311.46285400001506,
      "length": 251,
      "notes": [
        {
          "name": "E3",
          "midi": 52,
          "time": 7.804864,
          "velocity": 1,
          "duration": 4.146334000000001
        },
        {
          "name": "G3",
          "midi": 55,
          "time": 7.804864,
          "velocity": 1,
          "duration": 4.146334000000001
        },
        {
          "name": "B3",
          "midi": 59,
          "time": 7.804864,
          "velocity": 1,
          "duration": 4.146334000000001
        },
        {
          "name": "E4",
          "midi": 64,
          "time": 7.804864,
          "velocity": 1,
          "duration": 4.146334000000001
        },
        {
          "name": "E3",
          "midi": 52,
          "time": 15.609728000000002,
          "velocity": 1,
          "duration": 4.146334000000001
        },
        {
          "name": "G3",
          "midi": 55,
          "time": 15.609728000000002,
          "velocity": 1,
          "duration": 4.146334000000001
        },
        {
          "name": "B3",
          "midi": 59,
          "time": 15.609728000000002,
          "velocity": 1,
          "duration": 4.146334000000001
        },
        {
          "name": "E4",
          "midi": 64,
          "time": 15.609728000000002,
          "velocity": 1,
          "duration": 4.146334000000001
        },
        {
          "name": "B4",
          "midi": 71,
          "time": 119.024176,
          "velocity": 1,
          "duration": 0.487803999999997
        },
        {
          "name": "G4",
          "midi": 67,
          "time": 119.024176,
          "velocity": 1,
          "duration": 0.487803999999997
        },
        {
          "name": "E4",
          "midi": 64,
          "time": 119.51198,
          "velocity": 1,
          "duration": 0.24390200000000561
        },
        {
          "name": "G4",
          "midi": 67,
          "time": 119.755882,
          "velocity": 1,
          "duration": 0.24390200000000561
        },
        {
          "name": "A4",
          "midi": 69,
          "time": 119.999784,
          "velocity": 1,
          "duration": 0.24390200000000561
        },
        {
          "name": "A4",
          "midi": 69,
          "time": 120.24368600000001,
          "velocity": 1,
          "duration": 0.1219509999999957
        },
        {
          "name": "G4",
          "midi": 67,
          "time": 120.365637,
          "velocity": 1,
          "duration": 0.1219509999999957
        },
        {
          "name": "E4",
          "midi": 64,
          "time": 120.487588,
          "velocity": 1,
          "duration": 0.24390200000000561
        },
        {
          "name": "G4",
          "midi": 67,
          "time": 120.73149000000001,
          "velocity": 1,
          "duration": 0.24390200000000561
        },
        {
          "name": "C#5",
          "midi": 73,
          "time": 120.97539200000001,
          "velocity": 1,
          "duration": 1.9512159999999739
        },
        {
          "name": "A4",
          "midi": 69,
          "time": 120.97539200000001,
          "velocity": 1,
          "duration": 1.9512159999999739
        },
        {
          "name": "E5",
          "midi": 76,
          "time": 122.92660799999999,
          "velocity": 1,
          "duration": 0.7317060000000026
        },
        {
          "name": "B4",
          "midi": 71,
          "time": 122.92660799999999,
          "velocity": 1,
          "duration": 0.7317060000000026
        },
        {
          "name": "B4",
          "midi": 71,
          "time": 129.51196199999998,
          "velocity": 1,
          "duration": 0.48780400000001123
        },
        {
          "name": "G4",
          "midi": 67,
          "time": 129.51196199999998,
          "velocity": 1,
          "duration": 0.48780400000001123
        },
        {
          "name": "G4",
          "midi": 67,
          "time": 129.999766,
          "velocity": 1,
          "duration": 0.48780400000001123
        },
        {
          "name": "B4",
          "midi": 71,
          "time": 129.999766,
          "velocity": 1,
          "duration": 0.48780400000001123
        },
        {
          "name": "B4",
          "midi": 71,
          "time": 130.48757,
          "velocity": 1,
          "duration": 0.2439019999999914
        },
        {
          "name": "G4",
          "midi": 67,
          "time": 130.48757,
          "velocity": 1,
          "duration": 0.2439019999999914
        },
        {
          "name": "E4",
          "midi": 64,
          "time": 130.731472,
          "velocity": 1,
          "duration": 0.7317060000000026
        },
        {
          "name": "D5",
          "midi": 74,
          "time": 162.19483,
          "velocity": 1,
          "duration": 0.2439019999999914
        },
        {
          "name": "D5",
          "midi": 74,
          "time": 162.438732,
          "velocity": 1,
          "duration": 0.2439019999999914
        },
        {
          "name": "D5",
          "midi": 74,
          "time": 162.68263399999998,
          "velocity": 1,
          "duration": 0.2439019999999914
        },
        {
          "name": "B4",
          "midi": 71,
          "time": 162.92653599999997,
          "velocity": 1,
          "duration": 0.2439019999999914
        },
        {
          "name": "A4",
          "midi": 69,
          "time": 163.17043799999996,
          "velocity": 1,
          "duration": 0.2439020000001335
        },
        {
          "name": "B4",
          "midi": 71,
          "time": 163.4143400000001,
          "velocity": 1,
          "duration": 0.48780400000001123
        },
        {
          "name": "C5",
          "midi": 72,
          "time": 163.9021440000001,
          "velocity": 1,
          "duration": 0.48780400000015334
        },
        {
          "name": "D5",
          "midi": 74,
          "time": 164.38994800000026,
          "velocity": 1,
          "duration": 0.2439019999999914
        },
        {
          "name": "D5",
          "midi": 74,
          "time": 164.63385000000025,
          "velocity": 1,
          "duration": 0.2439019999999914
        },
        {
          "name": "C5",
          "midi": 72,
          "time": 164.87775200000024,
          "velocity": 1,
          "duration": 0.2439019999999914
        },
        {
          "name": "F#5",
          "midi": 78,
          "time": 165.12165400000023,
          "velocity": 1,
          "duration": 0.48780400000015334
        },
        {
          "name": "F#5",
          "midi": 78,
          "time": 165.6094580000004,
          "velocity": 1,
          "duration": 0.48780400000015334
        },
        {
          "name": "G4",
          "midi": 67,
          "time": 166.09726200000054,
          "velocity": 1,
          "duration": 0.1219509999999957
        },
        {
          "name": "A4",
          "midi": 69,
          "time": 166.21921300000054,
          "velocity": 1,
          "duration": 0.1219509999999957
        },
        {
          "name": "A4",
          "midi": 69,
          "time": 166.34116400000053,
          "velocity": 1,
          "duration": 0.1219509999999957
        },
        {
          "name": "A4",
          "midi": 69,
          "time": 166.46311500000053,
          "velocity": 1,
          "duration": 0.1219509999999957
        },
        {
          "name": "A4",
          "midi": 69,
          "time": 166.58506600000052,
          "velocity": 1,
          "duration": 0.1219509999999957
        },
        {
          "name": "G4",
          "midi": 67,
          "time": 166.70701700000052,
          "velocity": 1,
          "duration": 0.1219509999999957
        },
        {
          "name": "G4",
          "midi": 67,
          "time": 166.82896800000051,
          "velocity": 1,
          "duration": 0.1219509999999957
        },
        {
          "name": "G4",
          "midi": 67,
          "time": 166.9509190000005,
          "velocity": 1,
          "duration": 0.1219509999999957
        },
        {
          "name": "G4",
          "midi": 67,
          "time": 167.0728700000005,
          "velocity": 1,
          "duration": 0.1219509999999957
        },
        {
          "name": "A4",
          "midi": 69,
          "time": 167.1948210000005,
          "velocity": 1,
          "duration": 0.1219509999999957
        },
        {
          "name": "A4",
          "midi": 69,
          "time": 167.3167720000005,
          "velocity": 1,
          "duration": 0.1219509999999957
        },
        {
          "name": "A4",
          "midi": 69,
          "time": 167.4387230000005,
          "velocity": 1,
          "duration": 0.1219509999999957
        },
        {
          "name": "A4",
          "midi": 69,
          "time": 167.5606740000005,
          "velocity": 1,
          "duration": 0.1219509999999957
        },
        {
          "name": "G4",
          "midi": 67,
          "time": 167.68262500000048,
          "velocity": 1,
          "duration": 0.1219509999999957
        },
        {
          "name": "G4",
          "midi": 67,
          "time": 167.80457600000048,
          "velocity": 1,
          "duration": 0.1219509999999957
        },
        {
          "name": "G4",
          "midi": 67,
          "time": 167.92652700000048,
          "velocity": 1,
          "duration": 0.1219509999999957
        },
        {
          "name": "A4",
          "midi": 69,
          "time": 168.04847800000047,
          "velocity": 1,
          "duration": 0.1219509999999957
        },
        {
          "name": "G4",
          "midi": 67,
          "time": 168.17042900000047,
          "velocity": 1,
          "duration": 0.1219509999999957
        },
        {
          "name": "E4",
          "midi": 64,
          "time": 168.29238000000046,
          "velocity": 1,
          "duration": 0.2439019999999914
        },
        {
          "name": "E4",
          "midi": 64,
          "time": 168.53628200000045,
          "velocity": 1,
          "duration": 0.1219509999999957
        },
        {
          "name": "D4",
          "midi": 62,
          "time": 168.65823300000045,
          "velocity": 1,
          "duration": 0.1219509999999957
        },
        {
          "name": "B3",
          "midi": 59,
          "time": 168.78018400000045,
          "velocity": 1,
          "duration": 0.2439019999999914
        },
        {
          "name": "B3",
          "midi": 59,
          "time": 169.02408600000044,
          "velocity": 1,
          "duration": 0.1219509999999957
        },
        {
          "name": "A3",
          "midi": 57,
          "time": 169.14603700000043,
          "velocity": 1,
          "duration": 0.1219509999999957
        },
        {
          "name": "G3",
          "midi": 55,
          "time": 169.26798800000043,
          "velocity": 1,
          "duration": 0.2439019999999914
        },
        {
          "name": "E3",
          "midi": 52,
          "time": 169.51189000000042,
          "velocity": 1,
          "duration": 0.4878040000001249
        },
        {
          "name": "D5",
          "midi": 74,
          "time": 169.99969400000055,
          "velocity": 1,
          "duration": 0.12195100000013781
        },
        {
          "name": "E5",
          "midi": 76,
          "time": 170.12164500000068,
          "velocity": 1,
          "duration": 0.1219509999999957
        },
        {
          "name": "E5",
          "midi": 76,
          "time": 170.24359600000068,
          "velocity": 1,
          "duration": 0.1219509999999957
        },
        {
          "name": "E5",
          "midi": 76,
          "time": 170.36554700000067,
          "velocity": 1,
          "duration": 0.1219509999999957
        },
        {
          "name": "D5",
          "midi": 74,
          "time": 170.48749800000067,
          "velocity": 1,
          "duration": 0.12195100000013781
        },
        {
          "name": "E5",
          "midi": 76,
          "time": 170.6094490000008,
          "velocity": 1,
          "duration": 0.1219509999999957
        },
        {
          "name": "E5",
          "midi": 76,
          "time": 170.7314000000008,
          "velocity": 1,
          "duration": 0.1219509999999957
        },
        {
          "name": "E5",
          "midi": 76,
          "time": 170.8533510000008,
          "velocity": 1,
          "duration": 0.1219509999999957
        },
        {
          "name": "D5",
          "midi": 74,
          "time": 170.9753020000008,
          "velocity": 1,
          "duration": 0.12195100000013781
        },
        {
          "name": "E5",
          "midi": 76,
          "time": 171.09725300000093,
          "velocity": 1,
          "duration": 0.1219509999999957
        },
        {
          "name": "E5",
          "midi": 76,
          "time": 171.21920400000093,
          "velocity": 1,
          "duration": 0.1219509999999957
        },
        {
          "name": "E5",
          "midi": 76,
          "time": 171.34115500000092,
          "velocity": 1,
          "duration": 0.1219509999999957
        },
        {
          "name": "D5",
          "midi": 74,
          "time": 171.46310600000092,
          "velocity": 1,
          "duration": 0.12195100000013781
        },
        {
          "name": "E5",
          "midi": 76,
          "time": 171.58505700000106,
          "velocity": 1,
          "duration": 0.1219509999999957
        },
        {
          "name": "E5",
          "midi": 76,
          "time": 171.70700800000105,
          "velocity": 1,
          "duration": 0.1219509999999957
        },
        {
          "name": "E5",
          "midi": 76,
          "time": 171.82895900000105,
          "velocity": 1,
          "duration": 0.1219509999999957
        },
        {
          "name": "D5",
          "midi": 74,
          "time": 171.95091000000104,
          "velocity": 1,
          "duration": 0.12195100000013781
        },
        {
          "name": "E5",
          "midi": 76,
          "time": 172.07286100000118,
          "velocity": 1,
          "duration": 0.1219509999999957
        },
        {
          "name": "E5",
          "midi": 76,
          "time": 172.19481200000118,
          "velocity": 1,
          "duration": 0.1219509999999957
        },
        {
          "name": "E5",
          "midi": 76,
          "time": 172.31676300000117,
          "velocity": 1,
          "duration": 0.06097550000001206
        },
        {
          "name": "G5",
          "midi": 79,
          "time": 172.3777385000012,
          "velocity": 1,
          "duration": 0.06097550000001206
        },
        {
          "name": "E5",
          "midi": 76,
          "time": 172.4387140000012,
          "velocity": 1,
          "duration": 0.2439019999999914
        },
        {
          "name": "E5",
          "midi": 76,
          "time": 172.6826160000012,
          "velocity": 1,
          "duration": 0.06097550000001206
        },
        {
          "name": "G5",
          "midi": 79,
          "time": 172.7435915000012,
          "velocity": 1,
          "duration": 0.06097550000001206
        },
        {
          "name": "E5",
          "midi": 76,
          "time": 172.8045670000012,
          "velocity": 1,
          "duration": 0.1219509999999957
        },
        {
          "name": "E5",
          "midi": 76,
          "time": 172.9265180000012,
          "velocity": 1,
          "duration": 0.06097550000001206
        },
        {
          "name": "G5",
          "midi": 79,
          "time": 172.98749350000122,
          "velocity": 1,
          "duration": 0.06097550000001206
        },
        {
          "name": "E5",
          "midi": 76,
          "time": 173.04846900000123,
          "velocity": 1,
          "duration": 0.1219509999999957
        },
        {
          "name": "E5",
          "midi": 76,
          "time": 173.17042000000123,
          "velocity": 1,
          "duration": 0.1219509999999957
        },
        {
          "name": "G5",
          "midi": 79,
          "time": 173.29237100000122,
          "velocity": 1,
          "duration": 0.1219509999999957
        },
        {
          "name": "E5",
          "midi": 76,
          "time": 173.41432200000122,
          "velocity": 1,
          "duration": 0.1219509999999957
        },
        {
          "name": "E5",
          "midi": 76,
          "time": 173.53627300000122,
          "velocity": 1,
          "duration": 0.1219509999999957
        },
        {
          "name": "F#5",
          "midi": 78,
          "time": 173.6582240000012,
          "velocity": 1,
          "duration": 0.1219509999999957
        },
        {
          "name": "F#5",
          "midi": 78,
          "time": 173.7801750000012,
          "velocity": 1,
          "duration": 0.1219509999999957
        },
        {
          "name": "A5",
          "midi": 81,
          "time": 173.9021260000012,
          "velocity": 1,
          "duration": 0.1219509999999957
        },
        {
          "name": "F#5",
          "midi": 78,
          "time": 174.0240770000012,
          "velocity": 1,
          "duration": 0.1219509999999957
        },
        {
          "name": "D5",
          "midi": 74,
          "time": 174.1460280000012,
          "velocity": 1,
          "duration": 0.1219509999999957
        },
        {
          "name": "A5",
          "midi": 81,
          "time": 174.2679790000012,
          "velocity": 1,
          "duration": 0.1219509999999957
        },
        {
          "name": "F#5",
          "midi": 78,
          "time": 174.3899300000012,
          "velocity": 1,
          "duration": 0.1219509999999957
        },
        {
          "name": "D5",
          "midi": 74,
          "time": 174.51188100000118,
          "velocity": 1,
          "duration": 0.1219509999999957
        },
        {
          "name": "A5",
          "midi": 81,
          "time": 174.63383200000118,
          "velocity": 1,
          "duration": 0.1219509999999957
        },
        {
          "name": "F#5",
          "midi": 78,
          "time": 174.75578300000117,
          "velocity": 1,
          "duration": 0.1219509999999957
        },
        {
          "name": "B5",
          "midi": 83,
          "time": 174.87773400000117,
          "velocity": 1,
          "duration": 0.1219509999999957
        },
        {
          "name": "G5",
          "midi": 79,
          "time": 174.99968500000116,
          "velocity": 1,
          "duration": 0.1219509999999957
        },
        {
          "name": "E5",
          "midi": 76,
          "time": 175.12163600000116,
          "velocity": 1,
          "duration": 0.1219509999999957
        },
        {
          "name": "B5",
          "midi": 83,
          "time": 175.24358700000116,
          "velocity": 1,
          "duration": 0.1219509999999957
        },
        {
          "name": "G5",
          "midi": 79,
          "time": 175.36553800000115,
          "velocity": 1,
          "duration": 0.1219509999999957
        },
        {
          "name": "E5",
          "midi": 76,
          "time": 175.48748900000115,
          "velocity": 1,
          "duration": 0.1219509999999957
        },
        {
          "name": "B5",
          "midi": 83,
          "time": 175.60944000000114,
          "velocity": 1,
          "duration": 0.1219509999999957
        },
        {
          "name": "G5",
          "midi": 79,
          "time": 175.73139100000114,
          "velocity": 1,
          "duration": 0.1219509999999957
        },
        {
          "name": "C#6",
          "midi": 85,
          "time": 175.85334200000113,
          "velocity": 1,
          "duration": 0.1219509999999957
        },
        {
          "name": "A5",
          "midi": 81,
          "time": 175.97529300000113,
          "velocity": 1,
          "duration": 0.1219509999999957
        },
        {
          "name": "E5",
          "midi": 76,
          "time": 176.09724400000113,
          "velocity": 1,
          "duration": 0.1219509999999957
        },
        {
          "name": "C#6",
          "midi": 85,
          "time": 176.21919500000112,
          "velocity": 1,
          "duration": 0.1219509999999957
        },
        {
          "name": "A5",
          "midi": 81,
          "time": 176.34114600000112,
          "velocity": 1,
          "duration": 0.1219509999999957
        },
        {
          "name": "E5",
          "midi": 76,
          "time": 176.4630970000011,
          "velocity": 1,
          "duration": 0.06097550000001206
        },
        {
          "name": "C#6",
          "midi": 85,
          "time": 176.52407250000113,
          "velocity": 1,
          "duration": 0.06097550000001206
        },
        {
          "name": "A5",
          "midi": 81,
          "time": 176.58504800000114,
          "velocity": 1,
          "duration": 0.1219509999999957
        },
        {
          "name": "E5",
          "midi": 76,
          "time": 176.70699900000113,
          "velocity": 1,
          "duration": 0.1219509999999957
        },
        {
          "name": "D6",
          "midi": 86,
          "time": 176.82895000000113,
          "velocity": 1,
          "duration": 0.7317060000001447
        },
        {
          "name": "G#4",
          "midi": 68,
          "time": 177.56065600000127,
          "velocity": 1,
          "duration": 0.7317060000001447
        },
        {
          "name": "E4",
          "midi": 64,
          "time": 177.56065600000127,
          "velocity": 1,
          "duration": 0.7317060000001447
        },
        {
          "name": "G#4",
          "midi": 68,
          "time": 178.29236200000142,
          "velocity": 1,
          "duration": 0.7317060000001447
        },
        {
          "name": "E4",
          "midi": 64,
          "time": 178.29236200000142,
          "velocity": 1,
          "duration": 0.7317060000001447
        },
        {
          "name": "E4",
          "midi": 64,
          "time": 179.02406800000156,
          "velocity": 1,
          "duration": 0.7317060000000026
        },
        {
          "name": "G#4",
          "midi": 68,
          "time": 179.02406800000156,
          "velocity": 1,
          "duration": 0.7317060000000026
        },
        {
          "name": "E4",
          "midi": 64,
          "time": 179.75577400000157,
          "velocity": 1,
          "duration": 0.48780400000015334
        },
        {
          "name": "G#4",
          "midi": 68,
          "time": 179.75577400000157,
          "velocity": 1,
          "duration": 0.48780400000015334
        },
        {
          "name": "G#4",
          "midi": 68,
          "time": 180.24357800000172,
          "velocity": 1,
          "duration": 0.48780400000015334
        },
        {
          "name": "E4",
          "midi": 64,
          "time": 180.24357800000172,
          "velocity": 1,
          "duration": 0.48780400000015334
        },
        {
          "name": "D4",
          "midi": 62,
          "time": 180.73138200000187,
          "velocity": 1,
          "duration": 0.1219509999999957
        },
        {
          "name": "B3",
          "midi": 59,
          "time": 180.85333300000187,
          "velocity": 1,
          "duration": 0.3658530000001292
        },
        {
          "name": "A3",
          "midi": 57,
          "time": 181.219186000002,
          "velocity": 1,
          "duration": 0.1219509999999957
        },
        {
          "name": "B3",
          "midi": 59,
          "time": 181.341137000002,
          "velocity": 1,
          "duration": 0.1219509999999957
        },
        {
          "name": "D4",
          "midi": 62,
          "time": 181.463088000002,
          "velocity": 1,
          "duration": 0.1219509999999957
        },
        {
          "name": "A4",
          "midi": 69,
          "time": 181.58503900000198,
          "velocity": 1,
          "duration": 0.609755000000149
        },
        {
          "name": "A4",
          "midi": 69,
          "time": 182.19479400000213,
          "velocity": 1,
          "duration": 0.1219509999999957
        },
        {
          "name": "G#4",
          "midi": 68,
          "time": 182.31674500000213,
          "velocity": 1,
          "duration": 0.1219509999999957
        },
        {
          "name": "F#4",
          "midi": 66,
          "time": 182.43869600000212,
          "velocity": 1,
          "duration": 0.1219509999999957
        },
        {
          "name": "E4",
          "midi": 64,
          "time": 182.56064700000212,
          "velocity": 1,
          "duration": 0.12195100000002412
        },
        {
          "name": "F#4",
          "midi": 66,
          "time": 182.66227283333546,
          "velocity": 0.5905511811023622,
          "duration": 0.02032516666668016
        },
        {
          "name": "G#4",
          "midi": 68,
          "time": 182.68259800000214,
          "velocity": 1,
          "duration": 0.1219509999999957
        },
        {
          "name": "F#4",
          "midi": 66,
          "time": 182.80454900000214,
          "velocity": 1,
          "duration": 0.1219509999999957
        },
        {
          "name": "E4",
          "midi": 64,
          "time": 182.92650000000214,
          "velocity": 1,
          "duration": 0.1219509999999957
        },
        {
          "name": "F#4",
          "midi": 66,
          "time": 183.04845100000213,
          "velocity": 1,
          "duration": 0.1219509999999957
        },
        {
          "name": "E4",
          "midi": 64,
          "time": 183.17040200000213,
          "velocity": 1,
          "duration": 0.1219509999999957
        },
        {
          "name": "D4",
          "midi": 62,
          "time": 183.29235300000212,
          "velocity": 1,
          "duration": 0.1219509999999957
        },
        {
          "name": "B3",
          "midi": 59,
          "time": 183.41430400000212,
          "velocity": 1,
          "duration": 0.1219509999999957
        },
        {
          "name": "D4",
          "midi": 62,
          "time": 183.53625500000211,
          "velocity": 1,
          "duration": 0.1219509999999957
        },
        {
          "name": "E4",
          "midi": 64,
          "time": 183.6582060000021,
          "velocity": 1,
          "duration": 0.1219509999999957
        },
        {
          "name": "D4",
          "midi": 62,
          "time": 183.7801570000021,
          "velocity": 1,
          "duration": 0.1219509999999957
        },
        {
          "name": "B3",
          "midi": 59,
          "time": 183.9021080000021,
          "velocity": 1,
          "duration": 0.1219509999999957
        },
        {
          "name": "A3",
          "midi": 57,
          "time": 184.0240590000021,
          "velocity": 1,
          "duration": 0.1219509999999957
        },
        {
          "name": "F#3",
          "midi": 54,
          "time": 184.1460100000021,
          "velocity": 1,
          "duration": 0.1219509999999957
        },
        {
          "name": "A3",
          "midi": 57,
          "time": 184.2679610000021,
          "velocity": 1,
          "duration": 0.1219509999999957
        },
        {
          "name": "B3",
          "midi": 59,
          "time": 184.38991200000208,
          "velocity": 1,
          "duration": 0.1219509999999957
        },
        {
          "name": "A3",
          "midi": 57,
          "time": 184.51186300000208,
          "velocity": 1,
          "duration": 0.1219509999999957
        },
        {
          "name": "F#3",
          "midi": 54,
          "time": 184.63381400000208,
          "velocity": 1,
          "duration": 0.1219509999999957
        },
        {
          "name": "F3",
          "midi": 53,
          "time": 184.75576500000207,
          "velocity": 1,
          "duration": 0.1219509999999957
        },
        {
          "name": "E3",
          "midi": 52,
          "time": 184.87771600000207,
          "velocity": 1,
          "duration": 0.1219509999999957
        },
        {
          "name": "D3",
          "midi": 50,
          "time": 184.99966700000206,
          "velocity": 1,
          "duration": 0.1219509999999957
        },
        {
          "name": "B2",
          "midi": 47,
          "time": 185.12161800000206,
          "velocity": 1,
          "duration": 0.2439019999999914
        },
        {
          "name": "B4",
          "midi": 71,
          "time": 185.60942200000204,
          "velocity": 1,
          "duration": 0.2439020000001335
        },
        {
          "name": "A4",
          "midi": 69,
          "time": 185.85332400000217,
          "velocity": 1,
          "duration": 0.2439019999999914
        },
        {
          "name": "F#4",
          "midi": 66,
          "time": 186.09722600000217,
          "velocity": 1,
          "duration": 0.3658529999999871
        },
        {
          "name": "A4",
          "midi": 69,
          "time": 186.46307900000215,
          "velocity": 1,
          "duration": 0.1219509999999957
        },
        {
          "name": "B4",
          "midi": 71,
          "time": 186.58503000000215,
          "velocity": 1,
          "duration": 0.2439020000001335
        },
        {
          "name": "A4",
          "midi": 69,
          "time": 186.82893200000228,
          "velocity": 1,
          "duration": 0.2439020000001335
        },
        {
          "name": "F#4",
          "midi": 66,
          "time": 187.07283400000242,
          "velocity": 1,
          "duration": 0.3658529999999871
        },
        {
          "name": "A4",
          "midi": 69,
          "time": 187.4386870000024,
          "velocity": 1,
          "duration": 0.1219509999999957
        },
        {
          "name": "B4",
          "midi": 71,
          "time": 187.5606380000024,
          "velocity": 1,
          "duration": 0.2439020000001335
        },
        {
          "name": "A4",
          "midi": 69,
          "time": 187.80454000000253,
          "velocity": 1,
          "duration": 0.2439019999999914
        },
        {
          "name": "F#4",
          "midi": 66,
          "time": 188.04844200000252,
          "velocity": 1,
          "duration": 0.3658529999999871
        },
        {
          "name": "A4",
          "midi": 69,
          "time": 188.4142950000025,
          "velocity": 1,
          "duration": 0.1219509999999957
        },
        {
          "name": "B4",
          "midi": 71,
          "time": 188.5362460000025,
          "velocity": 1,
          "duration": 0.2439020000001335
        },
        {
          "name": "A4",
          "midi": 69,
          "time": 188.78014800000264,
          "velocity": 1,
          "duration": 0.2439019999999914
        },
        {
          "name": "F#4",
          "midi": 66,
          "time": 189.02405000000263,
          "velocity": 1,
          "duration": 0.2439019999999914
        },
        {
          "name": "F#4",
          "midi": 66,
          "time": 189.26795200000262,
          "velocity": 1,
          "duration": 0.1219509999999957
        },
        {
          "name": "A4",
          "midi": 69,
          "time": 189.38990300000262,
          "velocity": 1,
          "duration": 0.1219509999999957
        },
        {
          "name": "B4",
          "midi": 71,
          "time": 189.51185400000261,
          "velocity": 1,
          "duration": 0.2439020000001335
        },
        {
          "name": "E5",
          "midi": 76,
          "time": 189.75575600000275,
          "velocity": 1,
          "duration": 0.1219509999999957
        },
        {
          "name": "B4",
          "midi": 71,
          "time": 189.87770700000274,
          "velocity": 1,
          "duration": 0.24390200000041773
        },
        {
          "name": "E5",
          "midi": 76,
          "time": 190.12160900000316,
          "velocity": 1,
          "duration": 0.1219509999999957
        },
        {
          "name": "B4",
          "midi": 71,
          "time": 190.24356000000316,
          "velocity": 1,
          "duration": 0.7317060000001447
        },
        {
          "name": "E5",
          "midi": 76,
          "time": 190.9752660000033,
          "velocity": 1,
          "duration": 0.2439019999999914
        },
        {
          "name": "B4",
          "midi": 71,
          "time": 191.2191680000033,
          "velocity": 1,
          "duration": 2.195118000006886
        },
        {
          "name": "C#6",
          "midi": 85,
          "time": 193.41428600001018,
          "velocity": 1,
          "duration": 0.1219509999999957
        },
        {
          "name": "A5",
          "midi": 81,
          "time": 193.53623700001017,
          "velocity": 1,
          "duration": 0.1219509999999957
        },
        {
          "name": "E5",
          "midi": 76,
          "time": 193.65818800001017,
          "velocity": 1,
          "duration": 0.1219509999999957
        },
        {
          "name": "C#6",
          "midi": 85,
          "time": 193.78013900001017,
          "velocity": 1,
          "duration": 0.1219509999999957
        },
        {
          "name": "A5",
          "midi": 81,
          "time": 193.90209000001016,
          "velocity": 1,
          "duration": 0.1219509999999957
        },
        {
          "name": "E5",
          "midi": 76,
          "time": 194.02404100001016,
          "velocity": 1,
          "duration": 0.1219509999999957
        },
        {
          "name": "C#6",
          "midi": 85,
          "time": 194.14599200001015,
          "velocity": 1,
          "duration": 0.06097550000001206
        },
        {
          "name": "A5",
          "midi": 81,
          "time": 194.20696750001017,
          "velocity": 1,
          "duration": 0.06097550000001206
        },
        {
          "name": "E5",
          "midi": 76,
          "time": 194.26794300001018,
          "velocity": 1,
          "duration": 0.1219509999999957
        },
        {
          "name": "C#6",
          "midi": 85,
          "time": 194.38989400001017,
          "velocity": 1,
          "duration": 0.1219509999999957
        },
        {
          "name": "A5",
          "midi": 81,
          "time": 194.51184500001017,
          "velocity": 1,
          "duration": 0.1219509999999957
        },
        {
          "name": "E5",
          "midi": 76,
          "time": 194.63379600001016,
          "velocity": 1,
          "duration": 0.1219509999999957
        },
        {
          "name": "C#6",
          "midi": 85,
          "time": 194.75574700001016,
          "velocity": 1,
          "duration": 0.1219509999999957
        },
        {
          "name": "A5",
          "midi": 81,
          "time": 194.87769800001016,
          "velocity": 1,
          "duration": 0.1219509999999957
        },
        {
          "name": "E5",
          "midi": 76,
          "time": 194.99964900001015,
          "velocity": 1,
          "duration": 0.1219509999999957
        },
        {
          "name": "C#6",
          "midi": 85,
          "time": 195.12160000001015,
          "velocity": 1,
          "duration": 0.06097550000001206
        },
        {
          "name": "A5",
          "midi": 81,
          "time": 195.18257550001016,
          "velocity": 1,
          "duration": 0.06097550000001206
        },
        {
          "name": "E5",
          "midi": 76,
          "time": 195.24355100001017,
          "velocity": 1,
          "duration": 0.1219509999999957
        },
        {
          "name": "D6",
          "midi": 86,
          "time": 195.36550200001017,
          "velocity": 1,
          "duration": 0.2439020000001335
        },
        {
          "name": "D6",
          "midi": 86,
          "time": 195.6094040000103,
          "velocity": 1,
          "duration": 0.1219509999999957
        },
        {
          "name": "D6",
          "midi": 86,
          "time": 195.7313550000103,
          "velocity": 1,
          "duration": 0.1219509999999957
        },
        {
          "name": "D6",
          "midi": 86,
          "time": 195.8533060000103,
          "velocity": 1,
          "duration": 0.2439020000001335
        },
        {
          "name": "D6",
          "midi": 86,
          "time": 196.09720800001043,
          "velocity": 1,
          "duration": 0.1219509999999957
        },
        {
          "name": "D6",
          "midi": 86,
          "time": 196.21915900001042,
          "velocity": 1,
          "duration": 0.1219509999999957
        },
        {
          "name": "D6",
          "midi": 86,
          "time": 196.34111000001042,
          "velocity": 1,
          "duration": 0.9756080000001361
        },
        {
          "name": "A4",
          "midi": 69,
          "time": 197.56062000001054,
          "velocity": 1,
          "duration": 0.0813006666666638
        },
        {
          "name": "G4",
          "midi": 67,
          "time": 197.6419206666772,
          "velocity": 1,
          "duration": 0.0813006666666638
        },
        {
          "name": "F#4",
          "midi": 66,
          "time": 197.72322133334387,
          "velocity": 1,
          "duration": 0.0813006666666638
        },
        {
          "name": "E4",
          "midi": 64,
          "time": 197.80452200001054,
          "velocity": 1,
          "duration": 0.2439019999999914
        },
        {
          "name": "E4",
          "midi": 64,
          "time": 198.04842400001053,
          "velocity": 1,
          "duration": 0.1219509999999957
        },
        {
          "name": "D4",
          "midi": 62,
          "time": 198.17037500001052,
          "velocity": 1,
          "duration": 0.1219509999999957
        },
        {
          "name": "B3",
          "midi": 59,
          "time": 198.29232600001052,
          "velocity": 1,
          "duration": 0.2439019999999914
        },
        {
          "name": "B3",
          "midi": 59,
          "time": 198.5362280000105,
          "velocity": 1,
          "duration": 0.1219509999999957
        },
        {
          "name": "A3",
          "midi": 57,
          "time": 198.6581790000105,
          "velocity": 1,
          "duration": 0.1219509999999957
        },
        {
          "name": "G3",
          "midi": 55,
          "time": 198.7801300000105,
          "velocity": 1,
          "duration": 0.2439019999999914
        },
        {
          "name": "A3",
          "midi": 57,
          "time": 199.0240320000105,
          "velocity": 1,
          "duration": 0.2439020000001335
        },
        {
          "name": "G3",
          "midi": 55,
          "time": 199.26793400001063,
          "velocity": 1,
          "duration": 0.1219509999999957
        },
        {
          "name": "E3",
          "midi": 52,
          "time": 199.38988500001062,
          "velocity": 1,
          "duration": 1.5853630000001147
        },
        {
          "name": "D3",
          "midi": 50,
          "time": 200.97524800001074,
          "velocity": 1,
          "duration": 0.1219509999999957
        },
        {
          "name": "E3",
          "midi": 52,
          "time": 201.09719900001073,
          "velocity": 1,
          "duration": 0.1219509999999957
        },
        {
          "name": "C#3",
          "midi": 49,
          "time": 201.21915000001073,
          "velocity": 1,
          "duration": 1.7073140000001388
        },
        {
          "name": "A2",
          "midi": 45,
          "time": 202.92646400001087,
          "velocity": 1,
          "duration": 0.2439019999999914
        },
        {
          "name": "B2",
          "midi": 47,
          "time": 203.17036600001086,
          "velocity": 1,
          "duration": 5.853648000004142
        },
        {
          "name": "E2",
          "midi": 40,
          "time": 209.024014000015,
          "velocity": 1,
          "duration": 1.2195100000000139
        },
        {
          "name": "G4",
          "midi": 67,
          "time": 305.853108000015,
          "velocity": 1,
          "duration": 0.2439019999999914
        },
        {
          "name": "F#4",
          "midi": 66,
          "time": 306.097010000015,
          "velocity": 1,
          "duration": 0.0813006666666638
        },
        {
          "name": "G4",
          "midi": 67,
          "time": 306.1783106666817,
          "velocity": 1,
          "duration": 0.0813006666666638
        },
        {
          "name": "F#4",
          "midi": 66,
          "time": 306.25961133334835,
          "velocity": 1,
          "duration": 0.0813006666666638
        },
        {
          "name": "D4",
          "midi": 62,
          "time": 306.340912000015,
          "velocity": 1,
          "duration": 0.2439019999999914
        },
        {
          "name": "D4",
          "midi": 62,
          "time": 306.584814000015,
          "velocity": 1,
          "duration": 0.0813006666666638
        },
        {
          "name": "E4",
          "midi": 64,
          "time": 306.66611466668166,
          "velocity": 1,
          "duration": 0.0813006666666638
        },
        {
          "name": "D4",
          "midi": 62,
          "time": 306.74741533334833,
          "velocity": 1,
          "duration": 0.0813006666666638
        },
        {
          "name": "B3",
          "midi": 59,
          "time": 306.828716000015,
          "velocity": 1,
          "duration": 0.2439019999999914
        },
        {
          "name": "A3",
          "midi": 57,
          "time": 307.072618000015,
          "velocity": 1,
          "duration": 0.2439019999999914
        },
        {
          "name": "F#3",
          "midi": 54,
          "time": 307.316520000015,
          "velocity": 1,
          "duration": 0.2439019999999914
        },
        {
          "name": "A3",
          "midi": 57,
          "time": 307.56042200001497,
          "velocity": 1,
          "duration": 0.2439019999999914
        },
        {
          "name": "D4",
          "midi": 62,
          "time": 307.80432400001496,
          "velocity": 1,
          "duration": 0.2439019999999914
        },
        {
          "name": "B3",
          "midi": 59,
          "time": 308.29212800001494,
          "velocity": 1,
          "duration": 3.1707260000001156
        },
        {
          "name": "E4",
          "midi": 64,
          "time": 308.29212800001494,
          "velocity": 1,
          "duration": 3.1707260000001156
        }
      ],
      "controlChanges": {
        "1": [
          {
            "number": 1,
            "time": 169.51189000000042,
            "value": 0
          },
          {
            "number": 1,
            "time": 169.51595503333377,
            "value": 0.047244094488188976
          },
          {
            "number": 1,
            "time": 169.52002006666712,
            "value": 0.10236220472440945
          },
          {
            "number": 1,
            "time": 169.52408510000046,
            "value": 0.14960629921259844
          },
          {
            "number": 1,
            "time": 169.5281501333338,
            "value": 0.2047244094488189
          },
          {
            "number": 1,
            "time": 169.53221516666716,
            "value": 0.25196850393700787
          },
          {
            "number": 1,
            "time": 169.5362802000005,
            "value": 0.2992125984251969
          },
          {
            "number": 1,
            "time": 169.54034523333385,
            "value": 0.3543307086614173
          },
          {
            "number": 1,
            "time": 169.5444102666672,
            "value": 0.4015748031496063
          },
          {
            "number": 1,
            "time": 169.54847530000055,
            "value": 0.4566929133858268
          },
          {
            "number": 1,
            "time": 169.5525403333339,
            "value": 0.5039370078740157
          },
          {
            "number": 1,
            "time": 169.75579200000055,
            "value": 0
          },
          {
            "number": 1,
            "time": 176.82895000000113,
            "value": 0
          },
          {
            "number": 1,
            "time": 176.83301503333448,
            "value": 0.047244094488188976
          },
          {
            "number": 1,
            "time": 176.83708006666782,
            "value": 0.10236220472440945
          },
          {
            "number": 1,
            "time": 176.84114510000117,
            "value": 0.14960629921259844
          },
          {
            "number": 1,
            "time": 176.84521013333452,
            "value": 0.2047244094488189
          },
          {
            "number": 1,
            "time": 176.84927516666787,
            "value": 0.25196850393700787
          },
          {
            "number": 1,
            "time": 176.8533402000012,
            "value": 0.2992125984251969
          },
          {
            "number": 1,
            "time": 176.85740523333456,
            "value": 0.3543307086614173
          },
          {
            "number": 1,
            "time": 176.8614702666679,
            "value": 0.4015748031496063
          },
          {
            "number": 1,
            "time": 176.86553530000126,
            "value": 0.4566929133858268
          },
          {
            "number": 1,
            "time": 176.8696003333346,
            "value": 0.5039370078740157
          },
          {
            "number": 1,
            "time": 177.31675400000128,
            "value": 0
          },
          {
            "number": 1,
            "time": 180.85333300000187,
            "value": 0
          },
          {
            "number": 1,
            "time": 180.85739803333522,
            "value": 0.047244094488188976
          },
          {
            "number": 1,
            "time": 180.86146306666856,
            "value": 0.10236220472440945
          },
          {
            "number": 1,
            "time": 180.8655281000019,
            "value": 0.14960629921259844
          },
          {
            "number": 1,
            "time": 180.86959313333526,
            "value": 0.2047244094488189
          },
          {
            "number": 1,
            "time": 180.8736581666686,
            "value": 0.25196850393700787
          },
          {
            "number": 1,
            "time": 180.87772320000195,
            "value": 0.2992125984251969
          },
          {
            "number": 1,
            "time": 180.8817882333353,
            "value": 0.3543307086614173
          },
          {
            "number": 1,
            "time": 180.88585326666865,
            "value": 0.4015748031496063
          },
          {
            "number": 1,
            "time": 180.889918300002,
            "value": 0.4566929133858268
          },
          {
            "number": 1,
            "time": 180.89398333333534,
            "value": 0.5039370078740157
          },
          {
            "number": 1,
            "time": 181.219186000002,
            "value": 0
          },
          {
            "number": 1,
            "time": 181.70699000000198,
            "value": 0
          },
          {
            "number": 1,
            "time": 181.71105503333533,
            "value": 0.047244094488188976
          },
          {
            "number": 1,
            "time": 181.71512006666867,
            "value": 0.10236220472440945
          },
          {
            "number": 1,
            "time": 181.71918510000202,
            "value": 0.14960629921259844
          },
          {
            "number": 1,
            "time": 181.72325013333537,
            "value": 0.2047244094488189
          },
          {
            "number": 1,
            "time": 181.72731516666872,
            "value": 0.25196850393700787
          },
          {
            "number": 1,
            "time": 181.73138020000206,
            "value": 0.2992125984251969
          },
          {
            "number": 1,
            "time": 181.7354452333354,
            "value": 0.3543307086614173
          },
          {
            "number": 1,
            "time": 181.73951026666876,
            "value": 0.4015748031496063
          },
          {
            "number": 1,
            "time": 181.7435753000021,
            "value": 0.4566929133858268
          },
          {
            "number": 1,
            "time": 181.74764033333545,
            "value": 0.5039370078740157
          },
          {
            "number": 1,
            "time": 182.19479400000213,
            "value": 0
          },
          {
            "number": 1,
            "time": 186.82893200000228,
            "value": 0
          },
          {
            "number": 1,
            "time": 186.83299703333563,
            "value": 0.047244094488188976
          },
          {
            "number": 1,
            "time": 186.83706206666898,
            "value": 0.10236220472440945
          },
          {
            "number": 1,
            "time": 186.84112710000232,
            "value": 0.14960629921259844
          },
          {
            "number": 1,
            "time": 186.84519213333567,
            "value": 0.2047244094488189
          },
          {
            "number": 1,
            "time": 186.84925716666902,
            "value": 0.25196850393700787
          },
          {
            "number": 1,
            "time": 186.85332220000237,
            "value": 0.2992125984251969
          },
          {
            "number": 1,
            "time": 186.85738723333571,
            "value": 0.3543307086614173
          },
          {
            "number": 1,
            "time": 186.86145226666906,
            "value": 0.4015748031496063
          },
          {
            "number": 1,
            "time": 186.8655173000024,
            "value": 0.4566929133858268
          },
          {
            "number": 1,
            "time": 186.86958233333576,
            "value": 0.5039370078740157
          },
          {
            "number": 1,
            "time": 187.07283400000242,
            "value": 0
          },
          {
            "number": 1,
            "time": 196.34111000001042,
            "value": 0
          },
          {
            "number": 1,
            "time": 196.34517503334376,
            "value": 0.047244094488188976
          },
          {
            "number": 1,
            "time": 196.3492400666771,
            "value": 0.10236220472440945
          },
          {
            "number": 1,
            "time": 196.35330510001046,
            "value": 0.14960629921259844
          },
          {
            "number": 1,
            "time": 196.3573701333438,
            "value": 0.2047244094488189
          },
          {
            "number": 1,
            "time": 196.36143516667715,
            "value": 0.25196850393700787
          },
          {
            "number": 1,
            "time": 196.3655002000105,
            "value": 0.2992125984251969
          },
          {
            "number": 1,
            "time": 196.36956523334385,
            "value": 0.3543307086614173
          },
          {
            "number": 1,
            "time": 196.3736302666772,
            "value": 0.4015748031496063
          },
          {
            "number": 1,
            "time": 196.37769530001054,
            "value": 0.4566929133858268
          },
          {
            "number": 1,
            "time": 196.3817603333439,
            "value": 0.5039370078740157
          },
          {
            "number": 1,
            "time": 197.07281600001056,
            "value": 0
          },
          {
            "number": 1,
            "time": 199.7557380000106,
            "value": 0
          },
          {
            "number": 1,
            "time": 199.75980303334396,
            "value": 0.047244094488188976
          },
          {
            "number": 1,
            "time": 199.7638680666773,
            "value": 0.10236220472440945
          },
          {
            "number": 1,
            "time": 199.76793310001065,
            "value": 0.14960629921259844
          },
          {
            "number": 1,
            "time": 199.771998133344,
            "value": 0.2047244094488189
          },
          {
            "number": 1,
            "time": 199.77606316667735,
            "value": 0.25196850393700787
          },
          {
            "number": 1,
            "time": 199.7801282000107,
            "value": 0.2992125984251969
          },
          {
            "number": 1,
            "time": 199.78419323334404,
            "value": 0.3543307086614173
          },
          {
            "number": 1,
            "time": 199.7882582666774,
            "value": 0.4015748031496063
          },
          {
            "number": 1,
            "time": 199.79232330001074,
            "value": 0.4566929133858268
          },
          {
            "number": 1,
            "time": 199.79638833334408,
            "value": 0.5039370078740157
          },
          {
            "number": 1,
            "time": 200.97524800001074,
            "value": 0
          },
          {
            "number": 1,
            "time": 201.70695400001074,
            "value": 0
          },
          {
            "number": 1,
            "time": 201.7110190333441,
            "value": 0.047244094488188976
          },
          {
            "number": 1,
            "time": 201.71508406667743,
            "value": 0.10236220472440945
          },
          {
            "number": 1,
            "time": 201.71914910001078,
            "value": 0.14960629921259844
          },
          {
            "number": 1,
            "time": 201.72321413334413,
            "value": 0.2047244094488189
          },
          {
            "number": 1,
            "time": 201.72727916667748,
            "value": 0.25196850393700787
          },
          {
            "number": 1,
            "time": 201.73134420001082,
            "value": 0.2992125984251969
          },
          {
            "number": 1,
            "time": 201.73540923334417,
            "value": 0.3543307086614173
          },
          {
            "number": 1,
            "time": 201.73947426667752,
            "value": 0.4015748031496063
          },
          {
            "number": 1,
            "time": 201.74353930001087,
            "value": 0.4566929133858268
          },
          {
            "number": 1,
            "time": 201.7476043333442,
            "value": 0.5039370078740157
          },
          {
            "number": 1,
            "time": 202.92646400001087,
            "value": 0
          }
        ],
        "7": [
          {
            "number": 7,
            "time": 0,
            "value": 0.3937007874015748
          },
          {
            "number": 7,
            "time": 117.316862,
            "value": 0.7874015748031497
          },
          {
            "number": 7,
            "time": 117.316862,
            "value": 0.7874015748031497
          },
          {
            "number": 7,
            "time": 162.19483,
            "value": 0.9448818897637795
          },
          {
            "number": 7,
            "time": 305.853108000015,
            "value": 0.7874015748031497
          },
          {
            "number": 7,
            "time": 308.53603000001493,
            "value": 0.7874015748031497
          },
          {
            "number": 7,
            "time": 308.6905012666816,
            "value": 0.7795275590551181
          },
          {
            "number": 7,
            "time": 308.8490375666816,
            "value": 0.7716535433070866
          },
          {
            "number": 7,
            "time": 309.0035088333483,
            "value": 0.7637795275590551
          },
          {
            "number": 7,
            "time": 309.1620451333483,
            "value": 0.7559055118110236
          },
          {
            "number": 7,
            "time": 309.31651640001496,
            "value": 0.7480314960629921
          },
          {
            "number": 7,
            "time": 309.47098766668165,
            "value": 0.7401574803149606
          },
          {
            "number": 7,
            "time": 309.62952396668163,
            "value": 0.7322834645669292
          },
          {
            "number": 7,
            "time": 309.7839952333483,
            "value": 0.7244094488188977
          },
          {
            "number": 7,
            "time": 309.9425315333483,
            "value": 0.7165354330708661
          },
          {
            "number": 7,
            "time": 310.097002800015,
            "value": 0.7086614173228346
          },
          {
            "number": 7,
            "time": 310.2514740666817,
            "value": 0.7007874015748031
          },
          {
            "number": 7,
            "time": 310.41001036668166,
            "value": 0.6929133858267716
          },
          {
            "number": 7,
            "time": 310.56448163334835,
            "value": 0.6850393700787402
          },
          {
            "number": 7,
            "time": 310.71895290001504,
            "value": 0.6771653543307087
          },
          {
            "number": 7,
            "time": 310.877489200015,
            "value": 0.6692913385826772
          },
          {
            "number": 7,
            "time": 311.0319604666817,
            "value": 0.6614173228346457
          },
          {
            "number": 7,
            "time": 311.1904967666817,
            "value": 0.6535433070866141
          },
          {
            "number": 7,
            "time": 311.3449680333484,
            "value": 0.6456692913385826
          },
          {
            "number": 7,
            "time": 311.49943930001507,
            "value": 0.6377952755905512
          },
          {
            "number": 7,
            "time": 311.65797560001505,
            "value": 0.6299212598425197
          },
          {
            "number": 7,
            "time": 311.81244686668174,
            "value": 0.6220472440944882
          },
          {
            "number": 7,
            "time": 311.9709831666817,
            "value": 0.6141732283464567
          },
          {
            "number": 7,
            "time": 312.1254544333484,
            "value": 0.6062992125984252
          },
          {
            "number": 7,
            "time": 312.2799257000151,
            "value": 0.5984251968503937
          },
          {
            "number": 7,
            "time": 312.4384620000151,
            "value": 0.5905511811023622
          },
          {
            "number": 7,
            "time": 312.59293326668177,
            "value": 0.5826771653543307
          },
          {
            "number": 7,
            "time": 312.75146956668175,
            "value": 0.5748031496062992
          },
          {
            "number": 7,
            "time": 312.90594083334844,
            "value": 0.5669291338582677
          },
          {
            "number": 7,
            "time": 313.0604121000151,
            "value": 0.5590551181102362
          },
          {
            "number": 7,
            "time": 313.2189484000151,
            "value": 0.5511811023622047
          },
          {
            "number": 7,
            "time": 313.3734196666818,
            "value": 0.5433070866141733
          },
          {
            "number": 7,
            "time": 313.5278909333485,
            "value": 0.5354330708661418
          },
          {
            "number": 7,
            "time": 313.68642723334847,
            "value": 0.5275590551181102
          },
          {
            "number": 7,
            "time": 313.84089850001516,
            "value": 0.5196850393700787
          },
          {
            "number": 7,
            "time": 313.99943480001514,
            "value": 0.5118110236220472
          },
          {
            "number": 7,
            "time": 314.1539060666818,
            "value": 0.5039370078740157
          },
          {
            "number": 7,
            "time": 314.3083773333485,
            "value": 0.49606299212598426
          },
          {
            "number": 7,
            "time": 314.4669136333485,
            "value": 0.4881889763779528
          },
          {
            "number": 7,
            "time": 314.6213849000152,
            "value": 0.48031496062992124
          },
          {
            "number": 7,
            "time": 314.77992120001517,
            "value": 0.47244094488188976
          },
          {
            "number": 7,
            "time": 314.93439246668186,
            "value": 0.4645669291338583
          },
          {
            "number": 7,
            "time": 315.08886373334855,
            "value": 0.4566929133858268
          },
          {
            "number": 7,
            "time": 315.2474000333485,
            "value": 0.44881889763779526
          },
          {
            "number": 7,
            "time": 315.4018713000152,
            "value": 0.4409448818897638
          },
          {
            "number": 7,
            "time": 315.5604076000152,
            "value": 0.4330708661417323
          },
          {
            "number": 7,
            "time": 315.7148788666819,
            "value": 0.4251968503937008
          },
          {
            "number": 7,
            "time": 315.8693501333486,
            "value": 0.41732283464566927
          },
          {
            "number": 7,
            "time": 316.02788643334856,
            "value": 0.4094488188976378
          },
          {
            "number": 7,
            "time": 316.18235770001525,
            "value": 0.4015748031496063
          },
          {
            "number": 7,
            "time": 316.3408940000152,
            "value": 0.3937007874015748
          },
          {
            "number": 7,
            "time": 316.4953652666819,
            "value": 0.3858267716535433
          },
          {
            "number": 7,
            "time": 316.6498365333486,
            "value": 0.3779527559055118
          },
          {
            "number": 7,
            "time": 316.8083728333486,
            "value": 0.3700787401574803
          },
          {
            "number": 7,
            "time": 316.9628441000153,
            "value": 0.36220472440944884
          },
          {
            "number": 7,
            "time": 317.11731536668196,
            "value": 0.3543307086614173
          },
          {
            "number": 7,
            "time": 317.27585166668194,
            "value": 0.3464566929133858
          },
          {
            "number": 7,
            "time": 317.43032293334863,
            "value": 0.33858267716535434
          },
          {
            "number": 7,
            "time": 317.5888592333486,
            "value": 0.33070866141732286
          },
          {
            "number": 7,
            "time": 317.7433305000153,
            "value": 0.3228346456692913
          },
          {
            "number": 7,
            "time": 317.897801766682,
            "value": 0.31496062992125984
          },
          {
            "number": 7,
            "time": 318.056338066682,
            "value": 0.30708661417322836
          },
          {
            "number": 7,
            "time": 318.21080933334866,
            "value": 0.2992125984251969
          },
          {
            "number": 7,
            "time": 318.36934563334864,
            "value": 0.29133858267716534
          },
          {
            "number": 7,
            "time": 318.52381690001533,
            "value": 0.28346456692913385
          },
          {
            "number": 7,
            "time": 318.678288166682,
            "value": 0.2755905511811024
          },
          {
            "number": 7,
            "time": 318.836824466682,
            "value": 0.2677165354330709
          },
          {
            "number": 7,
            "time": 318.9912957333487,
            "value": 0.25984251968503935
          },
          {
            "number": 7,
            "time": 319.1498320333487,
            "value": 0.25196850393700787
          },
          {
            "number": 7,
            "time": 319.30430330001536,
            "value": 0.2440944881889764
          },
          {
            "number": 7,
            "time": 319.45877456668205,
            "value": 0.23622047244094488
          },
          {
            "number": 7,
            "time": 319.61731086668203,
            "value": 0.2283464566929134
          },
          {
            "number": 7,
            "time": 319.7717821333487,
            "value": 0.2204724409448819
          },
          {
            "number": 7,
            "time": 319.9262534000154,
            "value": 0.2125984251968504
          },
          {
            "number": 7,
            "time": 320.0847897000154,
            "value": 0.2047244094488189
          },
          {
            "number": 7,
            "time": 320.2392609666821,
            "value": 0.1968503937007874
          },
          {
            "number": 7,
            "time": 320.39779726668206,
            "value": 0.1889763779527559
          },
          {
            "number": 7,
            "time": 320.55226853334875,
            "value": 0.18110236220472442
          },
          {
            "number": 7,
            "time": 320.70673980001544,
            "value": 0.1732283464566929
          },
          {
            "number": 7,
            "time": 320.8652761000154,
            "value": 0.16535433070866143
          },
          {
            "number": 7,
            "time": 321.0197473666821,
            "value": 0.15748031496062992
          },
          {
            "number": 7,
            "time": 321.1782836666821,
            "value": 0.14960629921259844
          },
          {
            "number": 7,
            "time": 321.3327549333488,
            "value": 0.14173228346456693
          },
          {
            "number": 7,
            "time": 321.48722620001547,
            "value": 0.13385826771653545
          },
          {
            "number": 7,
            "time": 321.64576250001545,
            "value": 0.12598425196850394
          },
          {
            "number": 7,
            "time": 321.80023376668214,
            "value": 0.11811023622047244
          },
          {
            "number": 7,
            "time": 321.9587700666821,
            "value": 0.11023622047244094
          },
          {
            "number": 7,
            "time": 322.1132413333488,
            "value": 0.10236220472440945
          },
          {
            "number": 7,
            "time": 322.2677126000155,
            "value": 0.09448818897637795
          },
          {
            "number": 7,
            "time": 322.4262489000155,
            "value": 0.08661417322834646
          },
          {
            "number": 7,
            "time": 322.58072016668217,
            "value": 0.07874015748031496
          },
          {
            "number": 7,
            "time": 322.73519143334886,
            "value": 0.07086614173228346
          },
          {
            "number": 7,
            "time": 322.89372773334884,
            "value": 0.06299212598425197
          },
          {
            "number": 7,
            "time": 323.04819900001553,
            "value": 0.05511811023622047
          },
          {
            "number": 7,
            "time": 323.2067353000155,
            "value": 0.047244094488188976
          },
          {
            "number": 7,
            "time": 323.3612065666822,
            "value": 0.03937007874015748
          },
          {
            "number": 7,
            "time": 323.5156778333489,
            "value": 0.031496062992125984
          },
          {
            "number": 7,
            "time": 323.67421413334887,
            "value": 0.023622047244094488
          },
          {
            "number": 7,
            "time": 323.82868540001556,
            "value": 0.015748031496062992
          },
          {
            "number": 7,
            "time": 323.98722170001554,
            "value": 0.007874015748031496
          },
          {
            "number": 7,
            "time": 324.1416929666822,
            "value": 0
          }
        ]
      },
      "id": 3,
      "name": "Guitar 2",
      "instrumentNumber": 29,
      "instrument": "overdriven guitar",
      "instrumentFamily": "guitar",
      "channelNumber": 2,
      "isPercussion": false
    },
    {
      "startTime": 23.414592,
      "duration": 324.1457580000011,
      "length": 1064,
      "notes": [
        {
          "name": "E2",
          "midi": 40,
          "time": 23.414592,
          "velocity": 1,
          "duration": 0.48780400000000057
        },
        {
          "name": "B2",
          "midi": 47,
          "time": 23.414592,
          "velocity": 1,
          "duration": 0.48780400000000057
        },
        {
          "name": "E2",
          "midi": 40,
          "time": 23.902396,
          "velocity": 1,
          "duration": 0.2439019999999985
        },
        {
          "name": "E2",
          "midi": 40,
          "time": 24.146297999999998,
          "velocity": 1,
          "duration": 0.2439019999999985
        },
        {
          "name": "E2",
          "midi": 40,
          "time": 24.390199999999997,
          "velocity": 1,
          "duration": 0.2439019999999985
        },
        {
          "name": "E2",
          "midi": 40,
          "time": 24.634101999999995,
          "velocity": 1,
          "duration": 0.2439019999999985
        },
        {
          "name": "E2",
          "midi": 40,
          "time": 24.878003999999994,
          "velocity": 1,
          "duration": 0.2439019999999985
        },
        {
          "name": "E2",
          "midi": 40,
          "time": 25.121905999999992,
          "velocity": 1,
          "duration": 0.2439019999999985
        },
        {
          "name": "E3",
          "midi": 52,
          "time": 25.36580799999999,
          "velocity": 1,
          "duration": 0.2439019999999985
        },
        {
          "name": "E2",
          "midi": 40,
          "time": 25.60970999999999,
          "velocity": 1,
          "duration": 0.2439019999999985
        },
        {
          "name": "E2",
          "midi": 40,
          "time": 25.853611999999988,
          "velocity": 1,
          "duration": 0.2439019999999985
        },
        {
          "name": "E2",
          "midi": 40,
          "time": 26.097513999999986,
          "velocity": 1,
          "duration": 0.2439019999999985
        },
        {
          "name": "E2",
          "midi": 40,
          "time": 26.341415999999985,
          "velocity": 1,
          "duration": 0.2439019999999985
        },
        {
          "name": "E2",
          "midi": 40,
          "time": 26.585317999999983,
          "velocity": 1,
          "duration": 0.2439019999999985
        },
        {
          "name": "E2",
          "midi": 40,
          "time": 26.82921999999998,
          "velocity": 1,
          "duration": 0.2439019999999985
        },
        {
          "name": "E2",
          "midi": 40,
          "time": 27.07312199999998,
          "velocity": 1,
          "duration": 0.2439019999999985
        },
        {
          "name": "E3",
          "midi": 52,
          "time": 27.31702399999998,
          "velocity": 1,
          "duration": 0.2439019999999985
        },
        {
          "name": "E2",
          "midi": 40,
          "time": 27.560925999999977,
          "velocity": 1,
          "duration": 0.2439019999999985
        },
        {
          "name": "E2",
          "midi": 40,
          "time": 27.804827999999976,
          "velocity": 1,
          "duration": 0.2439019999999985
        },
        {
          "name": "E2",
          "midi": 40,
          "time": 28.048729999999974,
          "velocity": 1,
          "duration": 0.2439019999999985
        },
        {
          "name": "E2",
          "midi": 40,
          "time": 28.292631999999973,
          "velocity": 1,
          "duration": 0.2439019999999985
        },
        {
          "name": "E2",
          "midi": 40,
          "time": 28.53653399999997,
          "velocity": 1,
          "duration": 0.2439019999999985
        },
        {
          "name": "E2",
          "midi": 40,
          "time": 28.78043599999997,
          "velocity": 1,
          "duration": 0.2439019999999985
        },
        {
          "name": "E2",
          "midi": 40,
          "time": 29.024337999999968,
          "velocity": 1,
          "duration": 0.2439019999999985
        },
        {
          "name": "E3",
          "midi": 52,
          "time": 29.268239999999967,
          "velocity": 1,
          "duration": 0.2439019999999985
        },
        {
          "name": "E2",
          "midi": 40,
          "time": 29.512141999999965,
          "velocity": 1,
          "duration": 0.2439019999999985
        },
        {
          "name": "E2",
          "midi": 40,
          "time": 29.756043999999964,
          "velocity": 1,
          "duration": 0.2439019999999985
        },
        {
          "name": "E2",
          "midi": 40,
          "time": 29.999945999999962,
          "velocity": 1,
          "duration": 0.2439019999999985
        },
        {
          "name": "E2",
          "midi": 40,
          "time": 30.24384799999996,
          "velocity": 1,
          "duration": 0.2439019999999985
        },
        {
          "name": "E2",
          "midi": 40,
          "time": 30.48774999999996,
          "velocity": 1,
          "duration": 0.2439019999999985
        },
        {
          "name": "E2",
          "midi": 40,
          "time": 30.731651999999958,
          "velocity": 1,
          "duration": 0.2439019999999985
        },
        {
          "name": "E2",
          "midi": 40,
          "time": 30.975553999999956,
          "velocity": 1,
          "duration": 0.2439019999999985
        },
        {
          "name": "E3",
          "midi": 52,
          "time": 31.219455999999955,
          "velocity": 1,
          "duration": 0.2439019999999985
        },
        {
          "name": "E2",
          "midi": 40,
          "time": 31.463357999999953,
          "velocity": 1,
          "duration": 0.2439019999999985
        },
        {
          "name": "E2",
          "midi": 40,
          "time": 31.707259999999952,
          "velocity": 1,
          "duration": 0.2439019999999985
        },
        {
          "name": "E3",
          "midi": 52,
          "time": 31.95116199999995,
          "velocity": 1,
          "duration": 0.24390200000000206
        },
        {
          "name": "A#2",
          "midi": 46,
          "time": 32.19506399999995,
          "velocity": 1,
          "duration": 0.2439019999999985
        },
        {
          "name": "E2",
          "midi": 40,
          "time": 32.43896599999995,
          "velocity": 1,
          "duration": 0.2439019999999985
        },
        {
          "name": "E2",
          "midi": 40,
          "time": 32.68286799999995,
          "velocity": 1,
          "duration": 0.2439019999999985
        },
        {
          "name": "E2",
          "midi": 40,
          "time": 32.92676999999995,
          "velocity": 1,
          "duration": 0.2439019999999985
        },
        {
          "name": "C3",
          "midi": 48,
          "time": 33.170671999999946,
          "velocity": 1,
          "duration": 0.2439019999999985
        },
        {
          "name": "F2",
          "midi": 41,
          "time": 33.170671999999946,
          "velocity": 1,
          "duration": 0.2439019999999985
        },
        {
          "name": "E2",
          "midi": 40,
          "time": 33.414573999999945,
          "velocity": 1,
          "duration": 0.2439019999999985
        },
        {
          "name": "E2",
          "midi": 40,
          "time": 33.65847599999994,
          "velocity": 1,
          "duration": 0.2439019999999985
        },
        {
          "name": "E3",
          "midi": 52,
          "time": 33.90237799999994,
          "velocity": 1,
          "duration": 0.2439019999999985
        },
        {
          "name": "A#2",
          "midi": 46,
          "time": 34.14627999999994,
          "velocity": 1,
          "duration": 0.2439019999999985
        },
        {
          "name": "E2",
          "midi": 40,
          "time": 34.39018199999994,
          "velocity": 1,
          "duration": 0.2439019999999985
        },
        {
          "name": "E2",
          "midi": 40,
          "time": 34.63408399999994,
          "velocity": 1,
          "duration": 0.2439019999999985
        },
        {
          "name": "E2",
          "midi": 40,
          "time": 34.877985999999936,
          "velocity": 1,
          "duration": 0.2439019999999985
        },
        {
          "name": "C3",
          "midi": 48,
          "time": 35.121887999999934,
          "velocity": 1,
          "duration": 0.2439019999999985
        },
        {
          "name": "F2",
          "midi": 41,
          "time": 35.121887999999934,
          "velocity": 1,
          "duration": 0.2439019999999985
        },
        {
          "name": "E2",
          "midi": 40,
          "time": 35.36578999999993,
          "velocity": 1,
          "duration": 0.2439019999999985
        },
        {
          "name": "E2",
          "midi": 40,
          "time": 35.60969199999993,
          "velocity": 1,
          "duration": 0.2439019999999985
        },
        {
          "name": "E3",
          "midi": 52,
          "time": 35.85359399999993,
          "velocity": 1,
          "duration": 0.2439019999999985
        },
        {
          "name": "A#2",
          "midi": 46,
          "time": 36.09749599999993,
          "velocity": 1,
          "duration": 0.2439019999999985
        },
        {
          "name": "E2",
          "midi": 40,
          "time": 36.34139799999993,
          "velocity": 1,
          "duration": 0.2439019999999985
        },
        {
          "name": "E2",
          "midi": 40,
          "time": 36.585299999999926,
          "velocity": 1,
          "duration": 0.2439019999999985
        },
        {
          "name": "E2",
          "midi": 40,
          "time": 36.829201999999924,
          "velocity": 1,
          "duration": 0.2439019999999985
        },
        {
          "name": "C3",
          "midi": 48,
          "time": 37.07310399999992,
          "velocity": 1,
          "duration": 0.2439019999999985
        },
        {
          "name": "F2",
          "midi": 41,
          "time": 37.07310399999992,
          "velocity": 1,
          "duration": 0.2439019999999985
        },
        {
          "name": "E2",
          "midi": 40,
          "time": 37.31700599999992,
          "velocity": 1,
          "duration": 0.2439019999999985
        },
        {
          "name": "E2",
          "midi": 40,
          "time": 37.56090799999992,
          "velocity": 1,
          "duration": 0.2439019999999985
        },
        {
          "name": "E3",
          "midi": 52,
          "time": 37.80480999999992,
          "velocity": 1,
          "duration": 0.2439019999999985
        },
        {
          "name": "A#2",
          "midi": 46,
          "time": 38.04871199999992,
          "velocity": 1,
          "duration": 0.2439019999999985
        },
        {
          "name": "E2",
          "midi": 40,
          "time": 38.292613999999915,
          "velocity": 1,
          "duration": 0.2439019999999985
        },
        {
          "name": "E2",
          "midi": 40,
          "time": 38.536515999999914,
          "velocity": 1,
          "duration": 0.2439019999999985
        },
        {
          "name": "E2",
          "midi": 40,
          "time": 38.78041799999991,
          "velocity": 1,
          "duration": 0.2439019999999985
        },
        {
          "name": "C3",
          "midi": 48,
          "time": 39.02431999999991,
          "velocity": 1,
          "duration": 0.2439019999999985
        },
        {
          "name": "F2",
          "midi": 41,
          "time": 39.02431999999991,
          "velocity": 1,
          "duration": 0.2439019999999985
        },
        {
          "name": "E2",
          "midi": 40,
          "time": 39.26822199999991,
          "velocity": 1,
          "duration": 0.2439019999999985
        },
        {
          "name": "E2",
          "midi": 40,
          "time": 39.51212399999991,
          "velocity": 1,
          "duration": 0.2439019999999985
        },
        {
          "name": "E3",
          "midi": 52,
          "time": 39.756025999999906,
          "velocity": 1,
          "duration": 0.2439019999999985
        },
        {
          "name": "A#2",
          "midi": 46,
          "time": 39.999927999999905,
          "velocity": 1,
          "duration": 0.2439019999999985
        },
        {
          "name": "A2",
          "midi": 45,
          "time": 40.2438299999999,
          "velocity": 1,
          "duration": 0.2439019999999985
        },
        {
          "name": "E2",
          "midi": 40,
          "time": 40.4877319999999,
          "velocity": 1,
          "duration": 0.2439019999999985
        },
        {
          "name": "E2",
          "midi": 40,
          "time": 40.7316339999999,
          "velocity": 1,
          "duration": 0.2439019999999985
        },
        {
          "name": "C3",
          "midi": 48,
          "time": 40.9755359999999,
          "velocity": 1,
          "duration": 0.2439019999999985
        },
        {
          "name": "F2",
          "midi": 41,
          "time": 40.9755359999999,
          "velocity": 1,
          "duration": 0.2439019999999985
        },
        {
          "name": "E2",
          "midi": 40,
          "time": 41.2194379999999,
          "velocity": 1,
          "duration": 0.2439019999999985
        },
        {
          "name": "E2",
          "midi": 40,
          "time": 41.463339999999896,
          "velocity": 1,
          "duration": 0.2439019999999985
        },
        {
          "name": "E3",
          "midi": 52,
          "time": 41.707241999999894,
          "velocity": 1,
          "duration": 0.2439019999999985
        },
        {
          "name": "A#2",
          "midi": 46,
          "time": 41.95114399999989,
          "velocity": 1,
          "duration": 0.2439019999999985
        },
        {
          "name": "A2",
          "midi": 45,
          "time": 42.19504599999989,
          "velocity": 1,
          "duration": 0.2439019999999985
        },
        {
          "name": "E2",
          "midi": 40,
          "time": 42.43894799999989,
          "velocity": 1,
          "duration": 0.2439019999999985
        },
        {
          "name": "E2",
          "midi": 40,
          "time": 42.68284999999989,
          "velocity": 1,
          "duration": 0.2439019999999985
        },
        {
          "name": "C3",
          "midi": 48,
          "time": 42.92675199999989,
          "velocity": 1,
          "duration": 0.2439019999999985
        },
        {
          "name": "F2",
          "midi": 41,
          "time": 42.92675199999989,
          "velocity": 1,
          "duration": 0.2439019999999985
        },
        {
          "name": "E2",
          "midi": 40,
          "time": 43.170653999999885,
          "velocity": 1,
          "duration": 0.2439019999999985
        },
        {
          "name": "E2",
          "midi": 40,
          "time": 43.414555999999884,
          "velocity": 1,
          "duration": 0.2439019999999985
        },
        {
          "name": "E3",
          "midi": 52,
          "time": 43.65845799999988,
          "velocity": 1,
          "duration": 0.2439019999999985
        },
        {
          "name": "A#2",
          "midi": 46,
          "time": 43.90235999999988,
          "velocity": 1,
          "duration": 0.2439019999999985
        },
        {
          "name": "A2",
          "midi": 45,
          "time": 44.14626199999988,
          "velocity": 1,
          "duration": 0.2439019999999985
        },
        {
          "name": "E2",
          "midi": 40,
          "time": 44.39016399999988,
          "velocity": 1,
          "duration": 0.2439019999999985
        },
        {
          "name": "E2",
          "midi": 40,
          "time": 44.634065999999876,
          "velocity": 1,
          "duration": 0.2439019999999985
        },
        {
          "name": "C3",
          "midi": 48,
          "time": 44.877967999999875,
          "velocity": 1,
          "duration": 0.2439019999999985
        },
        {
          "name": "F2",
          "midi": 41,
          "time": 44.877967999999875,
          "velocity": 1,
          "duration": 0.2439019999999985
        },
        {
          "name": "E2",
          "midi": 40,
          "time": 45.12186999999987,
          "velocity": 1,
          "duration": 0.2439019999999985
        },
        {
          "name": "E2",
          "midi": 40,
          "time": 45.36577199999987,
          "velocity": 1,
          "duration": 0.2439019999999985
        },
        {
          "name": "E3",
          "midi": 52,
          "time": 45.60967399999987,
          "velocity": 1,
          "duration": 0.2439019999999985
        },
        {
          "name": "A#2",
          "midi": 46,
          "time": 45.85357599999987,
          "velocity": 1,
          "duration": 0.2439019999999985
        },
        {
          "name": "A2",
          "midi": 45,
          "time": 46.09747799999987,
          "velocity": 1,
          "duration": 0.2439019999999985
        },
        {
          "name": "E2",
          "midi": 40,
          "time": 46.341379999999866,
          "velocity": 1,
          "duration": 0.2439019999999985
        },
        {
          "name": "E2",
          "midi": 40,
          "time": 46.585281999999864,
          "velocity": 1,
          "duration": 0.2439019999999985
        },
        {
          "name": "C3",
          "midi": 48,
          "time": 46.82918399999986,
          "velocity": 1,
          "duration": 0.2439019999999985
        },
        {
          "name": "F2",
          "midi": 41,
          "time": 46.82918399999986,
          "velocity": 1,
          "duration": 0.2439019999999985
        },
        {
          "name": "E2",
          "midi": 40,
          "time": 47.07308599999986,
          "velocity": 1,
          "duration": 0.2439019999999985
        },
        {
          "name": "E2",
          "midi": 40,
          "time": 47.31698799999986,
          "velocity": 1,
          "duration": 0.2439019999999985
        },
        {
          "name": "E3",
          "midi": 52,
          "time": 47.56088999999986,
          "velocity": 1,
          "duration": 0.2439019999999985
        },
        {
          "name": "A#2",
          "midi": 46,
          "time": 47.80479199999986,
          "velocity": 1,
          "duration": 0.2439019999999985
        },
        {
          "name": "A2",
          "midi": 45,
          "time": 48.048693999999855,
          "velocity": 1,
          "duration": 0.2439019999999985
        },
        {
          "name": "E2",
          "midi": 40,
          "time": 48.292595999999854,
          "velocity": 1,
          "duration": 0.2439019999999985
        },
        {
          "name": "E2",
          "midi": 40,
          "time": 48.53649799999985,
          "velocity": 1,
          "duration": 0.2439019999999985
        },
        {
          "name": "C3",
          "midi": 48,
          "time": 48.78039999999985,
          "velocity": 1,
          "duration": 0.2439019999999985
        },
        {
          "name": "F2",
          "midi": 41,
          "time": 48.78039999999985,
          "velocity": 1,
          "duration": 0.2439019999999985
        },
        {
          "name": "E2",
          "midi": 40,
          "time": 49.02430199999985,
          "velocity": 1,
          "duration": 0.2439019999999985
        },
        {
          "name": "E2",
          "midi": 40,
          "time": 49.26820399999985,
          "velocity": 1,
          "duration": 0.2439019999999985
        },
        {
          "name": "E3",
          "midi": 52,
          "time": 49.51210599999985,
          "velocity": 1,
          "duration": 0.2439019999999985
        },
        {
          "name": "A#2",
          "midi": 46,
          "time": 49.756007999999845,
          "velocity": 1,
          "duration": 0.2439019999999985
        },
        {
          "name": "A2",
          "midi": 45,
          "time": 49.99990999999984,
          "velocity": 1,
          "duration": 0.2439019999999985
        },
        {
          "name": "E2",
          "midi": 40,
          "time": 50.24381199999984,
          "velocity": 1,
          "duration": 0.2439019999999985
        },
        {
          "name": "E2",
          "midi": 40,
          "time": 50.48771399999984,
          "velocity": 1,
          "duration": 0.2439019999999985
        },
        {
          "name": "C3",
          "midi": 48,
          "time": 50.73161599999984,
          "velocity": 1,
          "duration": 0.2439019999999985
        },
        {
          "name": "F2",
          "midi": 41,
          "time": 50.73161599999984,
          "velocity": 1,
          "duration": 0.2439019999999985
        },
        {
          "name": "E2",
          "midi": 40,
          "time": 50.97551799999984,
          "velocity": 1,
          "duration": 0.2439019999999985
        },
        {
          "name": "E2",
          "midi": 40,
          "time": 51.219419999999836,
          "velocity": 1,
          "duration": 0.2439019999999985
        },
        {
          "name": "E3",
          "midi": 52,
          "time": 51.463321999999835,
          "velocity": 1,
          "duration": 0.2439019999999985
        },
        {
          "name": "A#2",
          "midi": 46,
          "time": 51.70722399999983,
          "velocity": 1,
          "duration": 0.2439019999999985
        },
        {
          "name": "A2",
          "midi": 45,
          "time": 51.95112599999983,
          "velocity": 1,
          "duration": 0.2439019999999985
        },
        {
          "name": "E2",
          "midi": 40,
          "time": 52.19502799999983,
          "velocity": 1,
          "duration": 0.2439019999999985
        },
        {
          "name": "E2",
          "midi": 40,
          "time": 52.43892999999983,
          "velocity": 1,
          "duration": 0.2439019999999985
        },
        {
          "name": "C3",
          "midi": 48,
          "time": 52.68283199999983,
          "velocity": 1,
          "duration": 0.2439019999999985
        },
        {
          "name": "F2",
          "midi": 41,
          "time": 52.68283199999983,
          "velocity": 1,
          "duration": 0.2439019999999985
        },
        {
          "name": "E2",
          "midi": 40,
          "time": 52.926733999999826,
          "velocity": 1,
          "duration": 0.2439019999999985
        },
        {
          "name": "E2",
          "midi": 40,
          "time": 53.170635999999824,
          "velocity": 1,
          "duration": 0.2439019999999985
        },
        {
          "name": "E3",
          "midi": 52,
          "time": 53.41453799999982,
          "velocity": 1,
          "duration": 0.2439019999999985
        },
        {
          "name": "A#2",
          "midi": 46,
          "time": 53.65843999999982,
          "velocity": 1,
          "duration": 0.2439019999999985
        },
        {
          "name": "A2",
          "midi": 45,
          "time": 53.90234199999982,
          "velocity": 1,
          "duration": 0.2439019999999985
        },
        {
          "name": "E2",
          "midi": 40,
          "time": 54.14624399999982,
          "velocity": 1,
          "duration": 0.2439019999999985
        },
        {
          "name": "E2",
          "midi": 40,
          "time": 54.39014599999982,
          "velocity": 1,
          "duration": 0.2439019999999985
        },
        {
          "name": "B2",
          "midi": 47,
          "time": 54.634047999999815,
          "velocity": 1,
          "duration": 0.487803999999997
        },
        {
          "name": "E2",
          "midi": 40,
          "time": 54.634047999999815,
          "velocity": 1,
          "duration": 0.487803999999997
        },
        {
          "name": "E2",
          "midi": 40,
          "time": 55.12185199999981,
          "velocity": 1,
          "duration": 0.2439019999999985
        },
        {
          "name": "B2",
          "midi": 47,
          "time": 55.12185199999981,
          "velocity": 1,
          "duration": 0.2439019999999985
        },
        {
          "name": "E3",
          "midi": 52,
          "time": 55.36575399999981,
          "velocity": 1,
          "duration": 0.2439019999999985
        },
        {
          "name": "A#2",
          "midi": 46,
          "time": 55.60965599999981,
          "velocity": 1,
          "duration": 0.2439019999999985
        },
        {
          "name": "A2",
          "midi": 45,
          "time": 55.85355799999981,
          "velocity": 1,
          "duration": 0.487803999999997
        },
        {
          "name": "E2",
          "midi": 40,
          "time": 56.341361999999805,
          "velocity": 1,
          "duration": 0.2439019999999985
        },
        {
          "name": "B2",
          "midi": 47,
          "time": 56.5852639999998,
          "velocity": 1,
          "duration": 0.487803999999997
        },
        {
          "name": "E2",
          "midi": 40,
          "time": 56.5852639999998,
          "velocity": 1,
          "duration": 0.487803999999997
        },
        {
          "name": "E2",
          "midi": 40,
          "time": 57.0730679999998,
          "velocity": 1,
          "duration": 0.2439019999999985
        },
        {
          "name": "B2",
          "midi": 47,
          "time": 57.0730679999998,
          "velocity": 1,
          "duration": 0.2439019999999985
        },
        {
          "name": "E3",
          "midi": 52,
          "time": 57.3169699999998,
          "velocity": 1,
          "duration": 0.2439019999999985
        },
        {
          "name": "A#2",
          "midi": 46,
          "time": 57.5608719999998,
          "velocity": 1,
          "duration": 0.2439019999999985
        },
        {
          "name": "A2",
          "midi": 45,
          "time": 57.804773999999796,
          "velocity": 1,
          "duration": 0.487803999999997
        },
        {
          "name": "E2",
          "midi": 40,
          "time": 58.29257799999979,
          "velocity": 1,
          "duration": 0.2439019999999985
        },
        {
          "name": "B2",
          "midi": 47,
          "time": 58.53647999999979,
          "velocity": 1,
          "duration": 0.487803999999997
        },
        {
          "name": "E2",
          "midi": 40,
          "time": 58.53647999999979,
          "velocity": 1,
          "duration": 0.487803999999997
        },
        {
          "name": "E2",
          "midi": 40,
          "time": 59.02428399999979,
          "velocity": 1,
          "duration": 0.2439019999999985
        },
        {
          "name": "B2",
          "midi": 47,
          "time": 59.02428399999979,
          "velocity": 1,
          "duration": 0.2439019999999985
        },
        {
          "name": "E3",
          "midi": 52,
          "time": 59.26818599999979,
          "velocity": 1,
          "duration": 0.2439019999999985
        },
        {
          "name": "A#2",
          "midi": 46,
          "time": 59.512087999999785,
          "velocity": 1,
          "duration": 0.2439019999999985
        },
        {
          "name": "A2",
          "midi": 45,
          "time": 59.755989999999784,
          "velocity": 1,
          "duration": 0.487803999999997
        },
        {
          "name": "E2",
          "midi": 40,
          "time": 60.24379399999978,
          "velocity": 1,
          "duration": 0.2439019999999985
        },
        {
          "name": "G2",
          "midi": 43,
          "time": 60.48769599999978,
          "velocity": 1,
          "duration": 0.487803999999997
        },
        {
          "name": "D3",
          "midi": 50,
          "time": 60.48769599999978,
          "velocity": 1,
          "duration": 0.487803999999997
        },
        {
          "name": "E2",
          "midi": 40,
          "time": 60.975499999999776,
          "velocity": 1,
          "duration": 0.2439019999999985
        },
        {
          "name": "C#3",
          "midi": 49,
          "time": 61.219401999999775,
          "velocity": 1,
          "duration": 0.2439019999999985
        },
        {
          "name": "F#2",
          "midi": 42,
          "time": 61.219401999999775,
          "velocity": 1,
          "duration": 0.2439019999999985
        },
        {
          "name": "E2",
          "midi": 40,
          "time": 61.46330399999977,
          "velocity": 1,
          "duration": 0.2439019999999985
        },
        {
          "name": "C#3",
          "midi": 49,
          "time": 61.70720599999977,
          "velocity": 1,
          "duration": 0.2439019999999985
        },
        {
          "name": "F#2",
          "midi": 42,
          "time": 61.70720599999977,
          "velocity": 1,
          "duration": 0.2439019999999985
        },
        {
          "name": "G2",
          "midi": 43,
          "time": 61.95110799999977,
          "velocity": 1,
          "duration": 0.2439019999999985
        },
        {
          "name": "D3",
          "midi": 50,
          "time": 61.95110799999977,
          "velocity": 1,
          "duration": 0.2439019999999985
        },
        {
          "name": "F#2",
          "midi": 42,
          "time": 62.19500999999977,
          "velocity": 1,
          "duration": 0.2439019999999985
        },
        {
          "name": "C#3",
          "midi": 49,
          "time": 62.19500999999977,
          "velocity": 1,
          "duration": 0.2439019999999985
        },
        {
          "name": "E2",
          "midi": 40,
          "time": 62.43891199999977,
          "velocity": 1,
          "duration": 0.487803999999997
        },
        {
          "name": "B2",
          "midi": 47,
          "time": 62.43891199999977,
          "velocity": 1,
          "duration": 0.487803999999997
        },
        {
          "name": "E2",
          "midi": 40,
          "time": 62.926715999999765,
          "velocity": 1,
          "duration": 0.2439019999999985
        },
        {
          "name": "B2",
          "midi": 47,
          "time": 62.926715999999765,
          "velocity": 1,
          "duration": 0.2439019999999985
        },
        {
          "name": "E3",
          "midi": 52,
          "time": 63.17061799999976,
          "velocity": 1,
          "duration": 0.2439019999999985
        },
        {
          "name": "A#2",
          "midi": 46,
          "time": 63.41451999999976,
          "velocity": 1,
          "duration": 0.2439019999999985
        },
        {
          "name": "A2",
          "midi": 45,
          "time": 63.65842199999976,
          "velocity": 1,
          "duration": 0.487803999999997
        },
        {
          "name": "E2",
          "midi": 40,
          "time": 64.14622599999976,
          "velocity": 1,
          "duration": 0.24390200000000561
        },
        {
          "name": "B2",
          "midi": 47,
          "time": 64.39012799999976,
          "velocity": 1,
          "duration": 0.487803999999997
        },
        {
          "name": "E2",
          "midi": 40,
          "time": 64.39012799999976,
          "velocity": 1,
          "duration": 0.487803999999997
        },
        {
          "name": "E2",
          "midi": 40,
          "time": 64.87793199999976,
          "velocity": 1,
          "duration": 0.24390200000000561
        },
        {
          "name": "B2",
          "midi": 47,
          "time": 64.87793199999976,
          "velocity": 1,
          "duration": 0.24390200000000561
        },
        {
          "name": "E3",
          "midi": 52,
          "time": 65.12183399999977,
          "velocity": 1,
          "duration": 0.24390200000000561
        },
        {
          "name": "A#2",
          "midi": 46,
          "time": 65.36573599999977,
          "velocity": 1,
          "duration": 0.24390200000000561
        },
        {
          "name": "A2",
          "midi": 45,
          "time": 65.60963799999978,
          "velocity": 1,
          "duration": 0.487803999999997
        },
        {
          "name": "E2",
          "midi": 40,
          "time": 66.09744199999977,
          "velocity": 1,
          "duration": 0.24390200000000561
        },
        {
          "name": "B2",
          "midi": 47,
          "time": 66.34134399999978,
          "velocity": 1,
          "duration": 0.487803999999997
        },
        {
          "name": "E2",
          "midi": 40,
          "time": 66.34134399999978,
          "velocity": 1,
          "duration": 0.487803999999997
        },
        {
          "name": "E2",
          "midi": 40,
          "time": 66.82914799999978,
          "velocity": 1,
          "duration": 0.24390200000000561
        },
        {
          "name": "B2",
          "midi": 47,
          "time": 66.82914799999978,
          "velocity": 1,
          "duration": 0.24390200000000561
        },
        {
          "name": "E3",
          "midi": 52,
          "time": 67.07304999999978,
          "velocity": 1,
          "duration": 0.24390200000000561
        },
        {
          "name": "A#2",
          "midi": 46,
          "time": 67.31695199999979,
          "velocity": 1,
          "duration": 0.24390200000000561
        },
        {
          "name": "A2",
          "midi": 45,
          "time": 67.5608539999998,
          "velocity": 1,
          "duration": 0.487803999999997
        },
        {
          "name": "E2",
          "midi": 40,
          "time": 68.04865799999979,
          "velocity": 1,
          "duration": 0.24390200000000561
        },
        {
          "name": "G2",
          "midi": 43,
          "time": 68.2925599999998,
          "velocity": 1,
          "duration": 0.487803999999997
        },
        {
          "name": "D3",
          "midi": 50,
          "time": 68.2925599999998,
          "velocity": 1,
          "duration": 0.487803999999997
        },
        {
          "name": "E2",
          "midi": 40,
          "time": 68.78036399999979,
          "velocity": 1,
          "duration": 0.24390200000000561
        },
        {
          "name": "C#3",
          "midi": 49,
          "time": 69.0242659999998,
          "velocity": 1,
          "duration": 0.24390200000000561
        },
        {
          "name": "F#2",
          "midi": 42,
          "time": 69.0242659999998,
          "velocity": 1,
          "duration": 0.24390200000000561
        },
        {
          "name": "E2",
          "midi": 40,
          "time": 69.2681679999998,
          "velocity": 1,
          "duration": 0.24390200000000561
        },
        {
          "name": "C#3",
          "midi": 49,
          "time": 69.51206999999981,
          "velocity": 1,
          "duration": 0.24390200000000561
        },
        {
          "name": "F#2",
          "midi": 42,
          "time": 69.51206999999981,
          "velocity": 1,
          "duration": 0.24390200000000561
        },
        {
          "name": "G2",
          "midi": 43,
          "time": 69.75597199999982,
          "velocity": 1,
          "duration": 0.24390200000000561
        },
        {
          "name": "D3",
          "midi": 50,
          "time": 69.75597199999982,
          "velocity": 1,
          "duration": 0.24390200000000561
        },
        {
          "name": "F#2",
          "midi": 42,
          "time": 69.99987399999982,
          "velocity": 1,
          "duration": 0.24390200000000561
        },
        {
          "name": "C#3",
          "midi": 49,
          "time": 69.99987399999982,
          "velocity": 1,
          "duration": 0.24390200000000561
        },
        {
          "name": "E2",
          "midi": 40,
          "time": 70.24377599999983,
          "velocity": 1,
          "duration": 0.487803999999997
        },
        {
          "name": "B2",
          "midi": 47,
          "time": 70.24377599999983,
          "velocity": 1,
          "duration": 0.487803999999997
        },
        {
          "name": "E2",
          "midi": 40,
          "time": 70.73157999999982,
          "velocity": 1,
          "duration": 0.24390200000000561
        },
        {
          "name": "E2",
          "midi": 40,
          "time": 70.97548199999983,
          "velocity": 1,
          "duration": 0.24390200000000561
        },
        {
          "name": "E2",
          "midi": 40,
          "time": 71.21938399999983,
          "velocity": 1,
          "duration": 0.24390200000000561
        },
        {
          "name": "E2",
          "midi": 40,
          "time": 71.46328599999984,
          "velocity": 1,
          "duration": 0.24390200000000561
        },
        {
          "name": "E2",
          "midi": 40,
          "time": 71.70718799999985,
          "velocity": 1,
          "duration": 0.24390200000000561
        },
        {
          "name": "E2",
          "midi": 40,
          "time": 71.95108999999985,
          "velocity": 1,
          "duration": 0.24390200000000561
        },
        {
          "name": "C3",
          "midi": 48,
          "time": 72.19499199999986,
          "velocity": 1,
          "duration": 0.24390200000000561
        },
        {
          "name": "F2",
          "midi": 41,
          "time": 72.19499199999986,
          "velocity": 1,
          "duration": 0.24390200000000561
        },
        {
          "name": "E2",
          "midi": 40,
          "time": 72.43889399999986,
          "velocity": 1,
          "duration": 0.24390200000000561
        },
        {
          "name": "E2",
          "midi": 40,
          "time": 72.68279599999987,
          "velocity": 1,
          "duration": 0.24390200000000561
        },
        {
          "name": "E2",
          "midi": 40,
          "time": 72.92669799999987,
          "velocity": 1,
          "duration": 0.24390200000000561
        },
        {
          "name": "E2",
          "midi": 40,
          "time": 73.17059999999988,
          "velocity": 1,
          "duration": 0.24390200000000561
        },
        {
          "name": "E2",
          "midi": 40,
          "time": 73.41450199999989,
          "velocity": 1,
          "duration": 0.24390200000000561
        },
        {
          "name": "E2",
          "midi": 40,
          "time": 73.65840399999989,
          "velocity": 1,
          "duration": 0.24390200000000561
        },
        {
          "name": "E2",
          "midi": 40,
          "time": 73.9023059999999,
          "velocity": 1,
          "duration": 0.24390200000000561
        },
        {
          "name": "C3",
          "midi": 48,
          "time": 74.1462079999999,
          "velocity": 1,
          "duration": 0.24390200000000561
        },
        {
          "name": "F2",
          "midi": 41,
          "time": 74.1462079999999,
          "velocity": 1,
          "duration": 0.24390200000000561
        },
        {
          "name": "E2",
          "midi": 40,
          "time": 74.39010999999991,
          "velocity": 1,
          "duration": 0.24390200000000561
        },
        {
          "name": "E2",
          "midi": 40,
          "time": 74.63401199999991,
          "velocity": 1,
          "duration": 0.24390200000000561
        },
        {
          "name": "E2",
          "midi": 40,
          "time": 74.87791399999992,
          "velocity": 1,
          "duration": 0.24390200000000561
        },
        {
          "name": "E2",
          "midi": 40,
          "time": 75.12181599999992,
          "velocity": 1,
          "duration": 0.24390200000000561
        },
        {
          "name": "E2",
          "midi": 40,
          "time": 75.36571799999993,
          "velocity": 1,
          "duration": 0.24390200000000561
        },
        {
          "name": "E2",
          "midi": 40,
          "time": 75.60961999999994,
          "velocity": 1,
          "duration": 0.24390200000000561
        },
        {
          "name": "E2",
          "midi": 40,
          "time": 75.85352199999994,
          "velocity": 1,
          "duration": 0.24390200000000561
        },
        {
          "name": "D3",
          "midi": 50,
          "time": 76.09742399999995,
          "velocity": 1,
          "duration": 0.487803999999997
        },
        {
          "name": "G2",
          "midi": 43,
          "time": 76.09742399999995,
          "velocity": 1,
          "duration": 0.487803999999997
        },
        {
          "name": "E2",
          "midi": 40,
          "time": 76.58522799999994,
          "velocity": 1,
          "duration": 0.24390200000000561
        },
        {
          "name": "C#3",
          "midi": 49,
          "time": 76.82912999999995,
          "velocity": 1,
          "duration": 0.24390200000000561
        },
        {
          "name": "F#2",
          "midi": 42,
          "time": 76.82912999999995,
          "velocity": 1,
          "duration": 0.24390200000000561
        },
        {
          "name": "E2",
          "midi": 40,
          "time": 77.07303199999996,
          "velocity": 1,
          "duration": 0.24390200000000561
        },
        {
          "name": "C#3",
          "midi": 49,
          "time": 77.31693399999996,
          "velocity": 1,
          "duration": 0.24390200000000561
        },
        {
          "name": "F#2",
          "midi": 42,
          "time": 77.31693399999996,
          "velocity": 1,
          "duration": 0.24390200000000561
        },
        {
          "name": "G2",
          "midi": 43,
          "time": 77.56083599999997,
          "velocity": 1,
          "duration": 0.24390200000000561
        },
        {
          "name": "D3",
          "midi": 50,
          "time": 77.56083599999997,
          "velocity": 1,
          "duration": 0.24390200000000561
        },
        {
          "name": "C#3",
          "midi": 49,
          "time": 77.80473799999997,
          "velocity": 1,
          "duration": 0.24390200000000561
        },
        {
          "name": "F#2",
          "midi": 42,
          "time": 77.80473799999997,
          "velocity": 1,
          "duration": 0.24390200000000561
        },
        {
          "name": "E2",
          "midi": 40,
          "time": 78.04863999999998,
          "velocity": 1,
          "duration": 0.487803999999997
        },
        {
          "name": "B2",
          "midi": 47,
          "time": 78.04863999999998,
          "velocity": 1,
          "duration": 0.487803999999997
        },
        {
          "name": "E2",
          "midi": 40,
          "time": 78.53644399999997,
          "velocity": 1,
          "duration": 0.24390200000000561
        },
        {
          "name": "E2",
          "midi": 40,
          "time": 78.78034599999998,
          "velocity": 1,
          "duration": 0.24390200000000561
        },
        {
          "name": "E2",
          "midi": 40,
          "time": 79.02424799999999,
          "velocity": 1,
          "duration": 0.24390200000000561
        },
        {
          "name": "E2",
          "midi": 40,
          "time": 79.26814999999999,
          "velocity": 1,
          "duration": 0.24390200000000561
        },
        {
          "name": "E2",
          "midi": 40,
          "time": 79.512052,
          "velocity": 1,
          "duration": 0.24390200000000561
        },
        {
          "name": "E2",
          "midi": 40,
          "time": 79.755954,
          "velocity": 1,
          "duration": 0.24390200000000561
        },
        {
          "name": "C3",
          "midi": 48,
          "time": 79.99985600000001,
          "velocity": 1,
          "duration": 0.24390200000000561
        },
        {
          "name": "F2",
          "midi": 41,
          "time": 79.99985600000001,
          "velocity": 1,
          "duration": 0.24390200000000561
        },
        {
          "name": "E2",
          "midi": 40,
          "time": 80.24375800000001,
          "velocity": 1,
          "duration": 0.24390200000000561
        },
        {
          "name": "E2",
          "midi": 40,
          "time": 80.48766000000002,
          "velocity": 1,
          "duration": 0.24390200000000561
        },
        {
          "name": "E2",
          "midi": 40,
          "time": 80.73156200000003,
          "velocity": 1,
          "duration": 0.24390200000000561
        },
        {
          "name": "E2",
          "midi": 40,
          "time": 80.97546400000003,
          "velocity": 1,
          "duration": 0.24390200000000561
        },
        {
          "name": "E2",
          "midi": 40,
          "time": 81.21936600000004,
          "velocity": 1,
          "duration": 0.24390200000000561
        },
        {
          "name": "E2",
          "midi": 40,
          "time": 81.46326800000004,
          "velocity": 1,
          "duration": 0.24390200000000561
        },
        {
          "name": "E2",
          "midi": 40,
          "time": 81.70717000000005,
          "velocity": 1,
          "duration": 0.24390200000000561
        },
        {
          "name": "C3",
          "midi": 48,
          "time": 81.95107200000005,
          "velocity": 1,
          "duration": 0.24390200000000561
        },
        {
          "name": "F2",
          "midi": 41,
          "time": 81.95107200000005,
          "velocity": 1,
          "duration": 0.24390200000000561
        },
        {
          "name": "E2",
          "midi": 40,
          "time": 82.19497400000006,
          "velocity": 1,
          "duration": 0.24390200000000561
        },
        {
          "name": "E2",
          "midi": 40,
          "time": 82.43887600000006,
          "velocity": 1,
          "duration": 0.24390200000000561
        },
        {
          "name": "E2",
          "midi": 40,
          "time": 82.68277800000007,
          "velocity": 1,
          "duration": 0.24390200000000561
        },
        {
          "name": "E2",
          "midi": 40,
          "time": 82.92668000000008,
          "velocity": 1,
          "duration": 0.24390200000000561
        },
        {
          "name": "E2",
          "midi": 40,
          "time": 83.17058200000008,
          "velocity": 1,
          "duration": 0.24390200000000561
        },
        {
          "name": "E2",
          "midi": 40,
          "time": 83.41448400000009,
          "velocity": 1,
          "duration": 0.24390200000000561
        },
        {
          "name": "E2",
          "midi": 40,
          "time": 83.65838600000009,
          "velocity": 1,
          "duration": 0.24390200000000561
        },
        {
          "name": "G2",
          "midi": 43,
          "time": 83.9022880000001,
          "velocity": 1,
          "duration": 0.487803999999997
        },
        {
          "name": "D3",
          "midi": 50,
          "time": 83.9022880000001,
          "velocity": 1,
          "duration": 0.487803999999997
        },
        {
          "name": "E2",
          "midi": 40,
          "time": 84.3900920000001,
          "velocity": 1,
          "duration": 0.24390200000000561
        },
        {
          "name": "C#3",
          "midi": 49,
          "time": 84.6339940000001,
          "velocity": 1,
          "duration": 0.24390200000000561
        },
        {
          "name": "F#2",
          "midi": 42,
          "time": 84.6339940000001,
          "velocity": 1,
          "duration": 0.24390200000000561
        },
        {
          "name": "E2",
          "midi": 40,
          "time": 84.8778960000001,
          "velocity": 1,
          "duration": 0.24390200000000561
        },
        {
          "name": "C#3",
          "midi": 49,
          "time": 85.12179800000011,
          "velocity": 1,
          "duration": 0.24390200000000561
        },
        {
          "name": "F#2",
          "midi": 42,
          "time": 85.12179800000011,
          "velocity": 1,
          "duration": 0.24390200000000561
        },
        {
          "name": "G2",
          "midi": 43,
          "time": 85.36570000000012,
          "velocity": 1,
          "duration": 0.24390200000000561
        },
        {
          "name": "D3",
          "midi": 50,
          "time": 85.36570000000012,
          "velocity": 1,
          "duration": 0.24390200000000561
        },
        {
          "name": "C#3",
          "midi": 49,
          "time": 85.60960200000012,
          "velocity": 1,
          "duration": 0.24390200000000561
        },
        {
          "name": "F#2",
          "midi": 42,
          "time": 85.60960200000012,
          "velocity": 1,
          "duration": 0.24390200000000561
        },
        {
          "name": "F#2",
          "midi": 42,
          "time": 85.85350400000013,
          "velocity": 1,
          "duration": 0.487803999999997
        },
        {
          "name": "F#3",
          "midi": 54,
          "time": 86.34130800000013,
          "velocity": 1,
          "duration": 0.24390200000000561
        },
        {
          "name": "A3",
          "midi": 57,
          "time": 86.58521000000013,
          "velocity": 1,
          "duration": 0.24390200000000561
        },
        {
          "name": "C3",
          "midi": 48,
          "time": 86.82911200000014,
          "velocity": 1,
          "duration": 0.24390200000000561
        },
        {
          "name": "B2",
          "midi": 47,
          "time": 87.07301400000014,
          "velocity": 1,
          "duration": 0.487803999999997
        },
        {
          "name": "F#3",
          "midi": 54,
          "time": 87.56081800000014,
          "velocity": 1,
          "duration": 0.24390200000000561
        },
        {
          "name": "F#2",
          "midi": 42,
          "time": 87.80472000000015,
          "velocity": 1,
          "duration": 0.487803999999997
        },
        {
          "name": "F#3",
          "midi": 54,
          "time": 88.29252400000014,
          "velocity": 1,
          "duration": 0.24390200000000561
        },
        {
          "name": "A3",
          "midi": 57,
          "time": 88.53642600000015,
          "velocity": 1,
          "duration": 0.24390200000000561
        },
        {
          "name": "C3",
          "midi": 48,
          "time": 88.78032800000015,
          "velocity": 1,
          "duration": 0.24390200000000561
        },
        {
          "name": "B2",
          "midi": 47,
          "time": 89.02423000000016,
          "velocity": 1,
          "duration": 0.487803999999997
        },
        {
          "name": "F#3",
          "midi": 54,
          "time": 89.51203400000016,
          "velocity": 1,
          "duration": 0.24390200000000561
        },
        {
          "name": "F#2",
          "midi": 42,
          "time": 89.75593600000016,
          "velocity": 1,
          "duration": 0.487803999999997
        },
        {
          "name": "F#3",
          "midi": 54,
          "time": 90.24374000000016,
          "velocity": 1,
          "duration": 0.24390200000000561
        },
        {
          "name": "A3",
          "midi": 57,
          "time": 90.48764200000016,
          "velocity": 1,
          "duration": 0.24390200000000561
        },
        {
          "name": "C3",
          "midi": 48,
          "time": 90.73154400000017,
          "velocity": 1,
          "duration": 0.24390200000000561
        },
        {
          "name": "B2",
          "midi": 47,
          "time": 90.97544600000018,
          "velocity": 1,
          "duration": 0.487803999999997
        },
        {
          "name": "F#3",
          "midi": 54,
          "time": 91.46325000000017,
          "velocity": 1,
          "duration": 0.24390200000000561
        },
        {
          "name": "F#2",
          "midi": 42,
          "time": 91.70715200000018,
          "velocity": 1,
          "duration": 0.487803999999997
        },
        {
          "name": "F#3",
          "midi": 54,
          "time": 92.19495600000018,
          "velocity": 1,
          "duration": 0.24390200000000561
        },
        {
          "name": "A3",
          "midi": 57,
          "time": 92.43885800000018,
          "velocity": 1,
          "duration": 0.24390200000000561
        },
        {
          "name": "C3",
          "midi": 48,
          "time": 92.68276000000019,
          "velocity": 1,
          "duration": 0.24390200000000561
        },
        {
          "name": "B2",
          "midi": 47,
          "time": 92.92666200000019,
          "velocity": 1,
          "duration": 0.487803999999997
        },
        {
          "name": "F#3",
          "midi": 54,
          "time": 93.41446600000019,
          "velocity": 1,
          "duration": 0.487803999999997
        },
        {
          "name": "F#2",
          "midi": 42,
          "time": 93.90227000000019,
          "velocity": 1,
          "duration": 0.487803999999997
        },
        {
          "name": "C#3",
          "midi": 49,
          "time": 93.90227000000019,
          "velocity": 1,
          "duration": 0.487803999999997
        },
        {
          "name": "C#3",
          "midi": 49,
          "time": 94.39007400000018,
          "velocity": 1,
          "duration": 0.24390200000000561
        },
        {
          "name": "C3",
          "midi": 48,
          "time": 94.63397600000019,
          "velocity": 1,
          "duration": 0.24390200000000561
        },
        {
          "name": "B2",
          "midi": 47,
          "time": 94.8778780000002,
          "velocity": 1,
          "duration": 0.7317060000000026
        },
        {
          "name": "F#3",
          "midi": 54,
          "time": 94.8778780000002,
          "velocity": 1,
          "duration": 0.7317060000000026
        },
        {
          "name": "F#2",
          "midi": 42,
          "time": 95.6095840000002,
          "velocity": 1,
          "duration": 0.7317060000000026
        },
        {
          "name": "C#3",
          "midi": 49,
          "time": 95.6095840000002,
          "velocity": 1,
          "duration": 0.7317060000000026
        },
        {
          "name": "C#3",
          "midi": 49,
          "time": 96.3412900000002,
          "velocity": 1,
          "duration": 0.24390200000000561
        },
        {
          "name": "C3",
          "midi": 48,
          "time": 96.5851920000002,
          "velocity": 1,
          "duration": 0.24390200000000561
        },
        {
          "name": "B2",
          "midi": 47,
          "time": 96.82909400000021,
          "velocity": 1,
          "duration": 0.7317060000000026
        },
        {
          "name": "F#3",
          "midi": 54,
          "time": 96.82909400000021,
          "velocity": 1,
          "duration": 0.7317060000000026
        },
        {
          "name": "F#2",
          "midi": 42,
          "time": 97.56080000000021,
          "velocity": 1,
          "duration": 0.7317060000000026
        },
        {
          "name": "C#3",
          "midi": 49,
          "time": 97.56080000000021,
          "velocity": 1,
          "duration": 0.7317060000000026
        },
        {
          "name": "C#3",
          "midi": 49,
          "time": 98.29250600000022,
          "velocity": 1,
          "duration": 0.24390200000000561
        },
        {
          "name": "C3",
          "midi": 48,
          "time": 98.53640800000022,
          "velocity": 1,
          "duration": 0.24390200000000561
        },
        {
          "name": "B2",
          "midi": 47,
          "time": 98.78031000000023,
          "velocity": 1,
          "duration": 0.7317060000000026
        },
        {
          "name": "F#3",
          "midi": 54,
          "time": 98.78031000000023,
          "velocity": 1,
          "duration": 0.7317060000000026
        },
        {
          "name": "E2",
          "midi": 40,
          "time": 99.51201600000023,
          "velocity": 1,
          "duration": 2.1951179999999937
        },
        {
          "name": "B2",
          "midi": 47,
          "time": 99.51201600000023,
          "velocity": 1,
          "duration": 2.1951179999999937
        },
        {
          "name": "F#2",
          "midi": 42,
          "time": 101.70713400000022,
          "velocity": 1,
          "duration": 0.487803999999997
        },
        {
          "name": "C#3",
          "midi": 49,
          "time": 101.70713400000022,
          "velocity": 1,
          "duration": 0.487803999999997
        },
        {
          "name": "C#3",
          "midi": 49,
          "time": 102.19493800000022,
          "velocity": 1,
          "duration": 0.24390200000000561
        },
        {
          "name": "C3",
          "midi": 48,
          "time": 102.43884000000023,
          "velocity": 1,
          "duration": 0.24390200000000561
        },
        {
          "name": "B2",
          "midi": 47,
          "time": 102.68274200000023,
          "velocity": 1,
          "duration": 0.7317060000000026
        },
        {
          "name": "F#3",
          "midi": 54,
          "time": 102.68274200000023,
          "velocity": 1,
          "duration": 0.7317060000000026
        },
        {
          "name": "E2",
          "midi": 40,
          "time": 103.41444800000023,
          "velocity": 1,
          "duration": 2.1951179999999937
        },
        {
          "name": "B2",
          "midi": 47,
          "time": 103.41444800000023,
          "velocity": 1,
          "duration": 2.1951179999999937
        },
        {
          "name": "G2",
          "midi": 43,
          "time": 105.60956600000023,
          "velocity": 1,
          "duration": 0.24390200000000561
        },
        {
          "name": "E3",
          "midi": 52,
          "time": 105.60956600000023,
          "velocity": 1,
          "duration": 0.24390200000000561
        },
        {
          "name": "E2",
          "midi": 40,
          "time": 105.85346800000023,
          "velocity": 1,
          "duration": 0.24390200000000561
        },
        {
          "name": "C#3",
          "midi": 49,
          "time": 106.09737000000024,
          "velocity": 1,
          "duration": 0.24390200000000561
        },
        {
          "name": "F#2",
          "midi": 42,
          "time": 106.09737000000024,
          "velocity": 1,
          "duration": 0.24390200000000561
        },
        {
          "name": "E2",
          "midi": 40,
          "time": 106.34127200000025,
          "velocity": 1,
          "duration": 0.24390200000000561
        },
        {
          "name": "C#3",
          "midi": 49,
          "time": 106.58517400000025,
          "velocity": 1,
          "duration": 0.24390200000000561
        },
        {
          "name": "F#2",
          "midi": 42,
          "time": 106.58517400000025,
          "velocity": 1,
          "duration": 0.24390200000000561
        },
        {
          "name": "G2",
          "midi": 43,
          "time": 106.82907600000026,
          "velocity": 1,
          "duration": 0.24390200000000561
        },
        {
          "name": "D3",
          "midi": 50,
          "time": 106.82907600000026,
          "velocity": 1,
          "duration": 0.24390200000000561
        },
        {
          "name": "C#3",
          "midi": 49,
          "time": 107.07297800000026,
          "velocity": 1,
          "duration": 0.24390200000000561
        },
        {
          "name": "F#2",
          "midi": 42,
          "time": 107.07297800000026,
          "velocity": 1,
          "duration": 0.24390200000000561
        },
        {
          "name": "E2",
          "midi": 40,
          "time": 107.31688000000027,
          "velocity": 1,
          "duration": 0.487803999999997
        },
        {
          "name": "B2",
          "midi": 47,
          "time": 107.31688000000027,
          "velocity": 1,
          "duration": 0.487803999999997
        },
        {
          "name": "E2",
          "midi": 40,
          "time": 107.80468400000026,
          "velocity": 1,
          "duration": 0.24390200000000561
        },
        {
          "name": "B2",
          "midi": 47,
          "time": 107.80468400000026,
          "velocity": 1,
          "duration": 0.24390200000000561
        },
        {
          "name": "E3",
          "midi": 52,
          "time": 108.04858600000027,
          "velocity": 1,
          "duration": 0.24390200000000561
        },
        {
          "name": "A#2",
          "midi": 46,
          "time": 108.29248800000028,
          "velocity": 1,
          "duration": 0.24390200000000561
        },
        {
          "name": "A2",
          "midi": 45,
          "time": 108.53639000000028,
          "velocity": 1,
          "duration": 0.487803999999997
        },
        {
          "name": "E2",
          "midi": 40,
          "time": 109.02419400000028,
          "velocity": 1,
          "duration": 0.24390200000000561
        },
        {
          "name": "B2",
          "midi": 47,
          "time": 109.26809600000028,
          "velocity": 1,
          "duration": 0.487803999999997
        },
        {
          "name": "E2",
          "midi": 40,
          "time": 109.26809600000028,
          "velocity": 1,
          "duration": 0.487803999999997
        },
        {
          "name": "E2",
          "midi": 40,
          "time": 109.75590000000028,
          "velocity": 1,
          "duration": 0.24390200000000561
        },
        {
          "name": "B2",
          "midi": 47,
          "time": 109.75590000000028,
          "velocity": 1,
          "duration": 0.24390200000000561
        },
        {
          "name": "E3",
          "midi": 52,
          "time": 109.99980200000029,
          "velocity": 1,
          "duration": 0.24390200000000561
        },
        {
          "name": "A#2",
          "midi": 46,
          "time": 110.24370400000029,
          "velocity": 1,
          "duration": 0.24390200000000561
        },
        {
          "name": "A2",
          "midi": 45,
          "time": 110.4876060000003,
          "velocity": 1,
          "duration": 0.487803999999997
        },
        {
          "name": "E2",
          "midi": 40,
          "time": 110.9754100000003,
          "velocity": 1,
          "duration": 0.24390200000000561
        },
        {
          "name": "B2",
          "midi": 47,
          "time": 111.2193120000003,
          "velocity": 1,
          "duration": 0.487803999999997
        },
        {
          "name": "E2",
          "midi": 40,
          "time": 111.2193120000003,
          "velocity": 1,
          "duration": 0.487803999999997
        },
        {
          "name": "E2",
          "midi": 40,
          "time": 111.7071160000003,
          "velocity": 1,
          "duration": 0.24390200000000561
        },
        {
          "name": "B2",
          "midi": 47,
          "time": 111.7071160000003,
          "velocity": 1,
          "duration": 0.24390200000000561
        },
        {
          "name": "E3",
          "midi": 52,
          "time": 111.9510180000003,
          "velocity": 1,
          "duration": 0.24390200000000561
        },
        {
          "name": "A#2",
          "midi": 46,
          "time": 112.19492000000031,
          "velocity": 1,
          "duration": 0.24390200000000561
        },
        {
          "name": "A2",
          "midi": 45,
          "time": 112.43882200000031,
          "velocity": 1,
          "duration": 0.487803999999997
        },
        {
          "name": "E2",
          "midi": 40,
          "time": 112.92662600000031,
          "velocity": 1,
          "duration": 0.24390200000000561
        },
        {
          "name": "G2",
          "midi": 43,
          "time": 113.17052800000032,
          "velocity": 1,
          "duration": 0.487803999999997
        },
        {
          "name": "D3",
          "midi": 50,
          "time": 113.17052800000032,
          "velocity": 1,
          "duration": 0.487803999999997
        },
        {
          "name": "E2",
          "midi": 40,
          "time": 113.65833200000031,
          "velocity": 1,
          "duration": 0.24390200000000561
        },
        {
          "name": "C#3",
          "midi": 49,
          "time": 113.90223400000032,
          "velocity": 1,
          "duration": 0.24390200000000561
        },
        {
          "name": "F#2",
          "midi": 42,
          "time": 113.90223400000032,
          "velocity": 1,
          "duration": 0.24390200000000561
        },
        {
          "name": "E2",
          "midi": 40,
          "time": 114.14613600000033,
          "velocity": 1,
          "duration": 0.24390200000000561
        },
        {
          "name": "C#3",
          "midi": 49,
          "time": 114.39003800000033,
          "velocity": 1,
          "duration": 0.24390200000000561
        },
        {
          "name": "F#2",
          "midi": 42,
          "time": 114.39003800000033,
          "velocity": 1,
          "duration": 0.24390200000000561
        },
        {
          "name": "G2",
          "midi": 43,
          "time": 114.63394000000034,
          "velocity": 1,
          "duration": 0.24390200000000561
        },
        {
          "name": "D3",
          "midi": 50,
          "time": 114.63394000000034,
          "velocity": 1,
          "duration": 0.24390200000000561
        },
        {
          "name": "F#2",
          "midi": 42,
          "time": 114.87784200000034,
          "velocity": 1,
          "duration": 0.24390200000000561
        },
        {
          "name": "C#3",
          "midi": 49,
          "time": 114.87784200000034,
          "velocity": 1,
          "duration": 0.24390200000000561
        },
        {
          "name": "E2",
          "midi": 40,
          "time": 115.12174400000035,
          "velocity": 1,
          "duration": 0.487803999999997
        },
        {
          "name": "B2",
          "midi": 47,
          "time": 115.12174400000035,
          "velocity": 1,
          "duration": 0.487803999999997
        },
        {
          "name": "E2",
          "midi": 40,
          "time": 115.60954800000034,
          "velocity": 1,
          "duration": 0.24390200000000561
        },
        {
          "name": "B2",
          "midi": 47,
          "time": 115.60954800000034,
          "velocity": 1,
          "duration": 0.24390200000000561
        },
        {
          "name": "E3",
          "midi": 52,
          "time": 115.85345000000035,
          "velocity": 1,
          "duration": 0.24390200000000561
        },
        {
          "name": "A#2",
          "midi": 46,
          "time": 116.09735200000036,
          "velocity": 1,
          "duration": 0.24390200000000561
        },
        {
          "name": "A2",
          "midi": 45,
          "time": 116.34125400000036,
          "velocity": 1,
          "duration": 0.487803999999997
        },
        {
          "name": "E2",
          "midi": 40,
          "time": 116.82905800000036,
          "velocity": 1,
          "duration": 0.24390200000000561
        },
        {
          "name": "B2",
          "midi": 47,
          "time": 117.07296000000036,
          "velocity": 1,
          "duration": 0.487803999999997
        },
        {
          "name": "E2",
          "midi": 40,
          "time": 117.07296000000036,
          "velocity": 1,
          "duration": 0.487803999999997
        },
        {
          "name": "E2",
          "midi": 40,
          "time": 117.56076400000036,
          "velocity": 1,
          "duration": 0.24390200000000561
        },
        {
          "name": "B2",
          "midi": 47,
          "time": 117.56076400000036,
          "velocity": 1,
          "duration": 0.24390200000000561
        },
        {
          "name": "E3",
          "midi": 52,
          "time": 117.80466600000037,
          "velocity": 1,
          "duration": 0.24390200000000561
        },
        {
          "name": "A#2",
          "midi": 46,
          "time": 118.04856800000037,
          "velocity": 1,
          "duration": 0.24390200000000561
        },
        {
          "name": "A2",
          "midi": 45,
          "time": 118.29247000000038,
          "velocity": 1,
          "duration": 0.487803999999997
        },
        {
          "name": "E2",
          "midi": 40,
          "time": 118.78027400000038,
          "velocity": 1,
          "duration": 0.24390200000000561
        },
        {
          "name": "B2",
          "midi": 47,
          "time": 119.02417600000038,
          "velocity": 1,
          "duration": 0.487803999999997
        },
        {
          "name": "E2",
          "midi": 40,
          "time": 119.02417600000038,
          "velocity": 1,
          "duration": 0.487803999999997
        },
        {
          "name": "E2",
          "midi": 40,
          "time": 119.51198000000038,
          "velocity": 1,
          "duration": 0.24390200000000561
        },
        {
          "name": "B2",
          "midi": 47,
          "time": 119.51198000000038,
          "velocity": 1,
          "duration": 0.24390200000000561
        },
        {
          "name": "E3",
          "midi": 52,
          "time": 119.75588200000038,
          "velocity": 1,
          "duration": 0.24390200000000561
        },
        {
          "name": "A#2",
          "midi": 46,
          "time": 119.99978400000039,
          "velocity": 1,
          "duration": 0.24390200000000561
        },
        {
          "name": "A2",
          "midi": 45,
          "time": 120.2436860000004,
          "velocity": 1,
          "duration": 0.487803999999997
        },
        {
          "name": "E2",
          "midi": 40,
          "time": 120.73149000000039,
          "velocity": 1,
          "duration": 0.24390200000000561
        },
        {
          "name": "G2",
          "midi": 43,
          "time": 120.9753920000004,
          "velocity": 1,
          "duration": 0.487803999999997
        },
        {
          "name": "D3",
          "midi": 50,
          "time": 120.9753920000004,
          "velocity": 1,
          "duration": 0.487803999999997
        },
        {
          "name": "E2",
          "midi": 40,
          "time": 121.4631960000004,
          "velocity": 1,
          "duration": 0.24390200000000561
        },
        {
          "name": "C#3",
          "midi": 49,
          "time": 121.7070980000004,
          "velocity": 1,
          "duration": 0.24390200000000561
        },
        {
          "name": "F#2",
          "midi": 42,
          "time": 121.7070980000004,
          "velocity": 1,
          "duration": 0.24390200000000561
        },
        {
          "name": "E2",
          "midi": 40,
          "time": 121.9510000000004,
          "velocity": 1,
          "duration": 0.24390200000000561
        },
        {
          "name": "C#3",
          "midi": 49,
          "time": 122.19490200000041,
          "velocity": 1,
          "duration": 0.24390200000000561
        },
        {
          "name": "F#2",
          "midi": 42,
          "time": 122.19490200000041,
          "velocity": 1,
          "duration": 0.24390200000000561
        },
        {
          "name": "G2",
          "midi": 43,
          "time": 122.43880400000042,
          "velocity": 1,
          "duration": 0.24390200000000561
        },
        {
          "name": "D3",
          "midi": 50,
          "time": 122.43880400000042,
          "velocity": 1,
          "duration": 0.24390200000000561
        },
        {
          "name": "F#2",
          "midi": 42,
          "time": 122.68270600000042,
          "velocity": 1,
          "duration": 0.24390200000000561
        },
        {
          "name": "C#3",
          "midi": 49,
          "time": 122.68270600000042,
          "velocity": 1,
          "duration": 0.24390200000000561
        },
        {
          "name": "E2",
          "midi": 40,
          "time": 122.92660800000043,
          "velocity": 1,
          "duration": 0.487803999999997
        },
        {
          "name": "B2",
          "midi": 47,
          "time": 122.92660800000043,
          "velocity": 1,
          "duration": 0.487803999999997
        },
        {
          "name": "E2",
          "midi": 40,
          "time": 123.41441200000042,
          "velocity": 1,
          "duration": 0.24390200000000561
        },
        {
          "name": "E2",
          "midi": 40,
          "time": 123.65831400000043,
          "velocity": 1,
          "duration": 0.24390200000000561
        },
        {
          "name": "E2",
          "midi": 40,
          "time": 123.90221600000044,
          "velocity": 1,
          "duration": 0.24390200000000561
        },
        {
          "name": "E2",
          "midi": 40,
          "time": 124.14611800000044,
          "velocity": 1,
          "duration": 0.24390200000000561
        },
        {
          "name": "E2",
          "midi": 40,
          "time": 124.39002000000045,
          "velocity": 1,
          "duration": 0.24390200000000561
        },
        {
          "name": "E2",
          "midi": 40,
          "time": 124.63392200000045,
          "velocity": 1,
          "duration": 0.24390200000000561
        },
        {
          "name": "C3",
          "midi": 48,
          "time": 124.87782400000046,
          "velocity": 1,
          "duration": 0.24390200000000561
        },
        {
          "name": "F2",
          "midi": 41,
          "time": 124.87782400000046,
          "velocity": 1,
          "duration": 0.24390200000000561
        },
        {
          "name": "E2",
          "midi": 40,
          "time": 125.12172600000046,
          "velocity": 1,
          "duration": 0.24390200000000561
        },
        {
          "name": "E2",
          "midi": 40,
          "time": 125.36562800000047,
          "velocity": 1,
          "duration": 0.24390200000000561
        },
        {
          "name": "E2",
          "midi": 40,
          "time": 125.60953000000048,
          "velocity": 1,
          "duration": 0.24390200000000561
        },
        {
          "name": "E2",
          "midi": 40,
          "time": 125.85343200000048,
          "velocity": 1,
          "duration": 0.24390200000000561
        },
        {
          "name": "E2",
          "midi": 40,
          "time": 126.09733400000049,
          "velocity": 1,
          "duration": 0.24390200000000561
        },
        {
          "name": "E2",
          "midi": 40,
          "time": 126.34123600000049,
          "velocity": 1,
          "duration": 0.24390200000000561
        },
        {
          "name": "E2",
          "midi": 40,
          "time": 126.5851380000005,
          "velocity": 1,
          "duration": 0.24390200000000561
        },
        {
          "name": "C3",
          "midi": 48,
          "time": 126.8290400000005,
          "velocity": 1,
          "duration": 0.24390200000000561
        },
        {
          "name": "F2",
          "midi": 41,
          "time": 126.8290400000005,
          "velocity": 1,
          "duration": 0.24390200000000561
        },
        {
          "name": "E2",
          "midi": 40,
          "time": 127.07294200000051,
          "velocity": 1,
          "duration": 0.24390200000000561
        },
        {
          "name": "E2",
          "midi": 40,
          "time": 127.31684400000051,
          "velocity": 1,
          "duration": 0.24390200000000561
        },
        {
          "name": "E2",
          "midi": 40,
          "time": 127.56074600000052,
          "velocity": 1,
          "duration": 0.24390200000000561
        },
        {
          "name": "E2",
          "midi": 40,
          "time": 127.80464800000053,
          "velocity": 1,
          "duration": 0.2439019999999914
        },
        {
          "name": "E2",
          "midi": 40,
          "time": 128.04855000000052,
          "velocity": 1,
          "duration": 0.2439019999999914
        },
        {
          "name": "E2",
          "midi": 40,
          "time": 128.2924520000005,
          "velocity": 1,
          "duration": 0.2439019999999914
        },
        {
          "name": "E2",
          "midi": 40,
          "time": 128.5363540000005,
          "velocity": 1,
          "duration": 0.2439019999999914
        },
        {
          "name": "D3",
          "midi": 50,
          "time": 128.7802560000005,
          "velocity": 1,
          "duration": 0.48780400000001123
        },
        {
          "name": "G2",
          "midi": 43,
          "time": 128.7802560000005,
          "velocity": 1,
          "duration": 0.48780400000001123
        },
        {
          "name": "E2",
          "midi": 40,
          "time": 129.2680600000005,
          "velocity": 1,
          "duration": 0.2439019999999914
        },
        {
          "name": "C#3",
          "midi": 49,
          "time": 129.5119620000005,
          "velocity": 1,
          "duration": 0.2439019999999914
        },
        {
          "name": "F#2",
          "midi": 42,
          "time": 129.5119620000005,
          "velocity": 1,
          "duration": 0.2439019999999914
        },
        {
          "name": "E2",
          "midi": 40,
          "time": 129.75586400000049,
          "velocity": 1,
          "duration": 0.2439019999999914
        },
        {
          "name": "C#3",
          "midi": 49,
          "time": 129.99976600000048,
          "velocity": 1,
          "duration": 0.2439019999999914
        },
        {
          "name": "F#2",
          "midi": 42,
          "time": 129.99976600000048,
          "velocity": 1,
          "duration": 0.2439019999999914
        },
        {
          "name": "G2",
          "midi": 43,
          "time": 130.24366800000047,
          "velocity": 1,
          "duration": 0.2439019999999914
        },
        {
          "name": "D3",
          "midi": 50,
          "time": 130.24366800000047,
          "velocity": 1,
          "duration": 0.2439019999999914
        },
        {
          "name": "C#3",
          "midi": 49,
          "time": 130.48757000000046,
          "velocity": 1,
          "duration": 0.2439019999999914
        },
        {
          "name": "F#2",
          "midi": 42,
          "time": 130.48757000000046,
          "velocity": 1,
          "duration": 0.2439019999999914
        },
        {
          "name": "E2",
          "midi": 40,
          "time": 130.73147200000045,
          "velocity": 1,
          "duration": 0.48780400000001123
        },
        {
          "name": "B2",
          "midi": 47,
          "time": 130.73147200000045,
          "velocity": 1,
          "duration": 0.48780400000001123
        },
        {
          "name": "E2",
          "midi": 40,
          "time": 131.21927600000046,
          "velocity": 1,
          "duration": 0.2439019999999914
        },
        {
          "name": "E2",
          "midi": 40,
          "time": 131.46317800000045,
          "velocity": 1,
          "duration": 0.2439019999999914
        },
        {
          "name": "E2",
          "midi": 40,
          "time": 131.70708000000045,
          "velocity": 1,
          "duration": 0.2439019999999914
        },
        {
          "name": "E2",
          "midi": 40,
          "time": 131.95098200000044,
          "velocity": 1,
          "duration": 0.2439019999999914
        },
        {
          "name": "E2",
          "midi": 40,
          "time": 132.19488400000043,
          "velocity": 1,
          "duration": 0.2439019999999914
        },
        {
          "name": "E2",
          "midi": 40,
          "time": 132.43878600000042,
          "velocity": 1,
          "duration": 0.2439019999999914
        },
        {
          "name": "C3",
          "midi": 48,
          "time": 132.6826880000004,
          "velocity": 1,
          "duration": 0.2439019999999914
        },
        {
          "name": "F2",
          "midi": 41,
          "time": 132.6826880000004,
          "velocity": 1,
          "duration": 0.2439019999999914
        },
        {
          "name": "E2",
          "midi": 40,
          "time": 132.9265900000004,
          "velocity": 1,
          "duration": 0.2439019999999914
        },
        {
          "name": "E2",
          "midi": 40,
          "time": 133.1704920000004,
          "velocity": 1,
          "duration": 0.2439019999999914
        },
        {
          "name": "E2",
          "midi": 40,
          "time": 133.41439400000039,
          "velocity": 1,
          "duration": 0.2439019999999914
        },
        {
          "name": "E2",
          "midi": 40,
          "time": 133.65829600000038,
          "velocity": 1,
          "duration": 0.2439019999999914
        },
        {
          "name": "E2",
          "midi": 40,
          "time": 133.90219800000037,
          "velocity": 1,
          "duration": 0.2439019999999914
        },
        {
          "name": "E2",
          "midi": 40,
          "time": 134.14610000000036,
          "velocity": 1,
          "duration": 0.2439019999999914
        },
        {
          "name": "E2",
          "midi": 40,
          "time": 134.39000200000035,
          "velocity": 1,
          "duration": 0.2439019999999914
        },
        {
          "name": "C3",
          "midi": 48,
          "time": 134.63390400000034,
          "velocity": 1,
          "duration": 0.2439019999999914
        },
        {
          "name": "F2",
          "midi": 41,
          "time": 134.63390400000034,
          "velocity": 1,
          "duration": 0.2439019999999914
        },
        {
          "name": "E2",
          "midi": 40,
          "time": 134.87780600000033,
          "velocity": 1,
          "duration": 0.2439019999999914
        },
        {
          "name": "E2",
          "midi": 40,
          "time": 135.12170800000033,
          "velocity": 1,
          "duration": 0.2439019999999914
        },
        {
          "name": "E2",
          "midi": 40,
          "time": 135.36561000000032,
          "velocity": 1,
          "duration": 0.2439019999999914
        },
        {
          "name": "E2",
          "midi": 40,
          "time": 135.6095120000003,
          "velocity": 1,
          "duration": 0.2439019999999914
        },
        {
          "name": "E2",
          "midi": 40,
          "time": 135.8534140000003,
          "velocity": 1,
          "duration": 0.2439019999999914
        },
        {
          "name": "E2",
          "midi": 40,
          "time": 136.0973160000003,
          "velocity": 1,
          "duration": 0.2439019999999914
        },
        {
          "name": "E2",
          "midi": 40,
          "time": 136.34121800000028,
          "velocity": 1,
          "duration": 0.2439019999999914
        },
        {
          "name": "G2",
          "midi": 43,
          "time": 136.58512000000027,
          "velocity": 1,
          "duration": 0.48780400000001123
        },
        {
          "name": "D3",
          "midi": 50,
          "time": 136.58512000000027,
          "velocity": 1,
          "duration": 0.48780400000001123
        },
        {
          "name": "E2",
          "midi": 40,
          "time": 137.07292400000028,
          "velocity": 1,
          "duration": 0.2439019999999914
        },
        {
          "name": "C#3",
          "midi": 49,
          "time": 137.31682600000028,
          "velocity": 1,
          "duration": 0.2439019999999914
        },
        {
          "name": "F#2",
          "midi": 42,
          "time": 137.31682600000028,
          "velocity": 1,
          "duration": 0.2439019999999914
        },
        {
          "name": "E2",
          "midi": 40,
          "time": 137.56072800000027,
          "velocity": 1,
          "duration": 0.2439019999999914
        },
        {
          "name": "C#3",
          "midi": 49,
          "time": 137.80463000000026,
          "velocity": 1,
          "duration": 0.2439019999999914
        },
        {
          "name": "F#2",
          "midi": 42,
          "time": 137.80463000000026,
          "velocity": 1,
          "duration": 0.2439019999999914
        },
        {
          "name": "G2",
          "midi": 43,
          "time": 138.04853200000025,
          "velocity": 1,
          "duration": 0.2439019999999914
        },
        {
          "name": "D3",
          "midi": 50,
          "time": 138.04853200000025,
          "velocity": 1,
          "duration": 0.2439019999999914
        },
        {
          "name": "C#3",
          "midi": 49,
          "time": 138.29243400000024,
          "velocity": 1,
          "duration": 0.2439019999999914
        },
        {
          "name": "F#2",
          "midi": 42,
          "time": 138.29243400000024,
          "velocity": 1,
          "duration": 0.2439019999999914
        },
        {
          "name": "F#2",
          "midi": 42,
          "time": 138.53633600000023,
          "velocity": 1,
          "duration": 0.48780400000001123
        },
        {
          "name": "F#3",
          "midi": 54,
          "time": 139.02414000000024,
          "velocity": 1,
          "duration": 0.2439019999999914
        },
        {
          "name": "A3",
          "midi": 57,
          "time": 139.26804200000024,
          "velocity": 1,
          "duration": 0.2439019999999914
        },
        {
          "name": "C3",
          "midi": 48,
          "time": 139.51194400000023,
          "velocity": 1,
          "duration": 0.2439019999999914
        },
        {
          "name": "B2",
          "midi": 47,
          "time": 139.75584600000022,
          "velocity": 1,
          "duration": 0.48780400000001123
        },
        {
          "name": "F#3",
          "midi": 54,
          "time": 140.24365000000023,
          "velocity": 1,
          "duration": 0.2439019999999914
        },
        {
          "name": "F#2",
          "midi": 42,
          "time": 140.48755200000022,
          "velocity": 1,
          "duration": 0.48780400000001123
        },
        {
          "name": "F#3",
          "midi": 54,
          "time": 140.97535600000023,
          "velocity": 1,
          "duration": 0.2439019999999914
        },
        {
          "name": "A3",
          "midi": 57,
          "time": 141.21925800000022,
          "velocity": 1,
          "duration": 0.2439019999999914
        },
        {
          "name": "C3",
          "midi": 48,
          "time": 141.46316000000022,
          "velocity": 1,
          "duration": 0.2439019999999914
        },
        {
          "name": "B2",
          "midi": 47,
          "time": 141.7070620000002,
          "velocity": 1,
          "duration": 0.48780400000001123
        },
        {
          "name": "F#3",
          "midi": 54,
          "time": 142.19486600000022,
          "velocity": 1,
          "duration": 0.2439019999999914
        },
        {
          "name": "F#2",
          "midi": 42,
          "time": 142.4387680000002,
          "velocity": 1,
          "duration": 0.48780400000001123
        },
        {
          "name": "F#3",
          "midi": 54,
          "time": 142.92657200000022,
          "velocity": 1,
          "duration": 0.2439019999999914
        },
        {
          "name": "A3",
          "midi": 57,
          "time": 143.1704740000002,
          "velocity": 1,
          "duration": 0.2439019999999914
        },
        {
          "name": "C3",
          "midi": 48,
          "time": 143.4143760000002,
          "velocity": 1,
          "duration": 0.2439019999999914
        },
        {
          "name": "B2",
          "midi": 47,
          "time": 143.6582780000002,
          "velocity": 1,
          "duration": 0.48780400000001123
        },
        {
          "name": "F#3",
          "midi": 54,
          "time": 144.1460820000002,
          "velocity": 1,
          "duration": 0.2439019999999914
        },
        {
          "name": "F#2",
          "midi": 42,
          "time": 144.3899840000002,
          "velocity": 1,
          "duration": 0.48780400000001123
        },
        {
          "name": "F#3",
          "midi": 54,
          "time": 144.8777880000002,
          "velocity": 1,
          "duration": 0.2439019999999914
        },
        {
          "name": "A3",
          "midi": 57,
          "time": 145.1216900000002,
          "velocity": 1,
          "duration": 0.2439019999999914
        },
        {
          "name": "C3",
          "midi": 48,
          "time": 145.3655920000002,
          "velocity": 1,
          "duration": 0.2439019999999914
        },
        {
          "name": "B2",
          "midi": 47,
          "time": 145.60949400000018,
          "velocity": 1,
          "duration": 0.48780400000001123
        },
        {
          "name": "F#3",
          "midi": 54,
          "time": 146.0972980000002,
          "velocity": 1,
          "duration": 0.48780400000001123
        },
        {
          "name": "F#2",
          "midi": 42,
          "time": 146.5851020000002,
          "velocity": 1,
          "duration": 0.48780400000001123
        },
        {
          "name": "C#3",
          "midi": 49,
          "time": 146.5851020000002,
          "velocity": 1,
          "duration": 0.48780400000001123
        },
        {
          "name": "C#3",
          "midi": 49,
          "time": 147.07290600000022,
          "velocity": 1,
          "duration": 0.2439019999999914
        },
        {
          "name": "C3",
          "midi": 48,
          "time": 147.3168080000002,
          "velocity": 1,
          "duration": 0.2439019999999914
        },
        {
          "name": "B2",
          "midi": 47,
          "time": 147.5607100000002,
          "velocity": 1,
          "duration": 0.7317060000000026
        },
        {
          "name": "F#3",
          "midi": 54,
          "time": 147.5607100000002,
          "velocity": 1,
          "duration": 0.7317060000000026
        },
        {
          "name": "F#2",
          "midi": 42,
          "time": 148.2924160000002,
          "velocity": 1,
          "duration": 0.7317060000000026
        },
        {
          "name": "C#3",
          "midi": 49,
          "time": 148.2924160000002,
          "velocity": 1,
          "duration": 0.7317060000000026
        },
        {
          "name": "C#3",
          "midi": 49,
          "time": 149.0241220000002,
          "velocity": 1,
          "duration": 0.2439019999999914
        },
        {
          "name": "C3",
          "midi": 48,
          "time": 149.2680240000002,
          "velocity": 1,
          "duration": 0.2439019999999914
        },
        {
          "name": "B2",
          "midi": 47,
          "time": 149.5119260000002,
          "velocity": 1,
          "duration": 0.7317060000000026
        },
        {
          "name": "F#3",
          "midi": 54,
          "time": 149.5119260000002,
          "velocity": 1,
          "duration": 0.7317060000000026
        },
        {
          "name": "F#2",
          "midi": 42,
          "time": 150.2436320000002,
          "velocity": 1,
          "duration": 0.7317060000000026
        },
        {
          "name": "C#3",
          "midi": 49,
          "time": 150.2436320000002,
          "velocity": 1,
          "duration": 0.7317060000000026
        },
        {
          "name": "C#3",
          "midi": 49,
          "time": 150.9753380000002,
          "velocity": 1,
          "duration": 0.2439019999999914
        },
        {
          "name": "C3",
          "midi": 48,
          "time": 151.21924000000018,
          "velocity": 1,
          "duration": 0.2439019999999914
        },
        {
          "name": "B2",
          "midi": 47,
          "time": 151.46314200000018,
          "velocity": 1,
          "duration": 0.7317060000000026
        },
        {
          "name": "F#3",
          "midi": 54,
          "time": 151.46314200000018,
          "velocity": 1,
          "duration": 0.7317060000000026
        },
        {
          "name": "E2",
          "midi": 40,
          "time": 152.19484800000018,
          "velocity": 1,
          "duration": 2.195118000000008
        },
        {
          "name": "B2",
          "midi": 47,
          "time": 152.19484800000018,
          "velocity": 1,
          "duration": 2.195118000000008
        },
        {
          "name": "F#2",
          "midi": 42,
          "time": 154.3899660000002,
          "velocity": 1,
          "duration": 0.48780400000001123
        },
        {
          "name": "C#3",
          "midi": 49,
          "time": 154.3899660000002,
          "velocity": 1,
          "duration": 0.48780400000001123
        },
        {
          "name": "C#3",
          "midi": 49,
          "time": 154.8777700000002,
          "velocity": 1,
          "duration": 0.2439019999999914
        },
        {
          "name": "C3",
          "midi": 48,
          "time": 155.1216720000002,
          "velocity": 1,
          "duration": 0.2439019999999914
        },
        {
          "name": "B2",
          "midi": 47,
          "time": 155.36557400000018,
          "velocity": 1,
          "duration": 0.7317060000000026
        },
        {
          "name": "F#3",
          "midi": 54,
          "time": 155.36557400000018,
          "velocity": 1,
          "duration": 0.7317060000000026
        },
        {
          "name": "E2",
          "midi": 40,
          "time": 156.09728000000018,
          "velocity": 1,
          "duration": 2.195118000000008
        },
        {
          "name": "B2",
          "midi": 47,
          "time": 156.09728000000018,
          "velocity": 1,
          "duration": 2.195118000000008
        },
        {
          "name": "G2",
          "midi": 43,
          "time": 158.2923980000002,
          "velocity": 1,
          "duration": 0.2439019999999914
        },
        {
          "name": "D3",
          "midi": 50,
          "time": 158.2923980000002,
          "velocity": 1,
          "duration": 0.2439019999999914
        },
        {
          "name": "E2",
          "midi": 40,
          "time": 158.53630000000018,
          "velocity": 1,
          "duration": 0.2439019999999914
        },
        {
          "name": "C#3",
          "midi": 49,
          "time": 158.78020200000017,
          "velocity": 1,
          "duration": 0.2439019999999914
        },
        {
          "name": "F#2",
          "midi": 42,
          "time": 158.78020200000017,
          "velocity": 1,
          "duration": 0.2439019999999914
        },
        {
          "name": "E2",
          "midi": 40,
          "time": 159.02410400000016,
          "velocity": 1,
          "duration": 0.2439019999999914
        },
        {
          "name": "C#3",
          "midi": 49,
          "time": 159.26800600000016,
          "velocity": 1,
          "duration": 0.2439019999999914
        },
        {
          "name": "F#2",
          "midi": 42,
          "time": 159.26800600000016,
          "velocity": 1,
          "duration": 0.2439019999999914
        },
        {
          "name": "G2",
          "midi": 43,
          "time": 159.51190800000015,
          "velocity": 1,
          "duration": 0.2439019999999914
        },
        {
          "name": "D3",
          "midi": 50,
          "time": 159.51190800000015,
          "velocity": 1,
          "duration": 0.2439019999999914
        },
        {
          "name": "D3",
          "midi": 50,
          "time": 159.75581000000014,
          "velocity": 1,
          "duration": 0.2439019999999914
        },
        {
          "name": "G2",
          "midi": 43,
          "time": 159.75581000000014,
          "velocity": 1,
          "duration": 0.2439019999999914
        },
        {
          "name": "E2",
          "midi": 40,
          "time": 159.99971200000013,
          "velocity": 1,
          "duration": 1.951215999999988
        },
        {
          "name": "B2",
          "midi": 47,
          "time": 159.99971200000013,
          "velocity": 1,
          "duration": 1.951215999999988
        },
        {
          "name": "E2",
          "midi": 40,
          "time": 161.95092800000012,
          "velocity": 1,
          "duration": 0.48780400000001123
        },
        {
          "name": "B2",
          "midi": 47,
          "time": 161.95092800000012,
          "velocity": 1,
          "duration": 0.48780400000001123
        },
        {
          "name": "E2",
          "midi": 40,
          "time": 162.43873200000013,
          "velocity": 1,
          "duration": 0.2439019999999914
        },
        {
          "name": "B2",
          "midi": 47,
          "time": 162.43873200000013,
          "velocity": 1,
          "duration": 0.2439019999999914
        },
        {
          "name": "E3",
          "midi": 52,
          "time": 162.68263400000012,
          "velocity": 1,
          "duration": 0.2439019999999914
        },
        {
          "name": "A#2",
          "midi": 46,
          "time": 162.9265360000001,
          "velocity": 1,
          "duration": 0.2439019999999914
        },
        {
          "name": "A2",
          "midi": 45,
          "time": 163.1704380000001,
          "velocity": 1,
          "duration": 0.48780400000015334
        },
        {
          "name": "E2",
          "midi": 40,
          "time": 163.65824200000026,
          "velocity": 1,
          "duration": 0.2439019999999914
        },
        {
          "name": "B2",
          "midi": 47,
          "time": 163.90214400000025,
          "velocity": 1,
          "duration": 0.48780400000001123
        },
        {
          "name": "E2",
          "midi": 40,
          "time": 163.90214400000025,
          "velocity": 1,
          "duration": 0.48780400000001123
        },
        {
          "name": "E2",
          "midi": 40,
          "time": 164.38994800000026,
          "velocity": 1,
          "duration": 0.2439019999999914
        },
        {
          "name": "B2",
          "midi": 47,
          "time": 164.38994800000026,
          "velocity": 1,
          "duration": 0.2439019999999914
        },
        {
          "name": "E3",
          "midi": 52,
          "time": 164.63385000000025,
          "velocity": 1,
          "duration": 0.2439019999999914
        },
        {
          "name": "A#2",
          "midi": 46,
          "time": 164.87775200000024,
          "velocity": 1,
          "duration": 0.2439019999999914
        },
        {
          "name": "A2",
          "midi": 45,
          "time": 165.12165400000023,
          "velocity": 1,
          "duration": 0.48780400000015334
        },
        {
          "name": "E2",
          "midi": 40,
          "time": 165.6094580000004,
          "velocity": 1,
          "duration": 0.2439019999999914
        },
        {
          "name": "B2",
          "midi": 47,
          "time": 165.85336000000038,
          "velocity": 1,
          "duration": 0.48780400000001123
        },
        {
          "name": "E2",
          "midi": 40,
          "time": 165.85336000000038,
          "velocity": 1,
          "duration": 0.48780400000001123
        },
        {
          "name": "E2",
          "midi": 40,
          "time": 166.3411640000004,
          "velocity": 1,
          "duration": 0.2439019999999914
        },
        {
          "name": "B2",
          "midi": 47,
          "time": 166.3411640000004,
          "velocity": 1,
          "duration": 0.2439019999999914
        },
        {
          "name": "E3",
          "midi": 52,
          "time": 166.58506600000038,
          "velocity": 1,
          "duration": 0.2439019999999914
        },
        {
          "name": "A#2",
          "midi": 46,
          "time": 166.82896800000037,
          "velocity": 1,
          "duration": 0.2439019999999914
        },
        {
          "name": "A2",
          "midi": 45,
          "time": 167.07287000000036,
          "velocity": 1,
          "duration": 0.48780400000015334
        },
        {
          "name": "E2",
          "midi": 40,
          "time": 167.56067400000052,
          "velocity": 1,
          "duration": 0.2439019999999914
        },
        {
          "name": "G2",
          "midi": 43,
          "time": 167.8045760000005,
          "velocity": 1,
          "duration": 0.48780400000001123
        },
        {
          "name": "D3",
          "midi": 50,
          "time": 167.8045760000005,
          "velocity": 1,
          "duration": 0.48780400000001123
        },
        {
          "name": "E2",
          "midi": 40,
          "time": 168.29238000000052,
          "velocity": 1,
          "duration": 0.2439019999999914
        },
        {
          "name": "C#3",
          "midi": 49,
          "time": 168.5362820000005,
          "velocity": 1,
          "duration": 0.2439019999999914
        },
        {
          "name": "F#2",
          "midi": 42,
          "time": 168.5362820000005,
          "velocity": 1,
          "duration": 0.2439019999999914
        },
        {
          "name": "E2",
          "midi": 40,
          "time": 168.7801840000005,
          "velocity": 1,
          "duration": 0.2439019999999914
        },
        {
          "name": "C#3",
          "midi": 49,
          "time": 169.0240860000005,
          "velocity": 1,
          "duration": 0.2439019999999914
        },
        {
          "name": "F#2",
          "midi": 42,
          "time": 169.0240860000005,
          "velocity": 1,
          "duration": 0.2439019999999914
        },
        {
          "name": "G2",
          "midi": 43,
          "time": 169.26798800000049,
          "velocity": 1,
          "duration": 0.2439019999999914
        },
        {
          "name": "D3",
          "midi": 50,
          "time": 169.26798800000049,
          "velocity": 1,
          "duration": 0.2439019999999914
        },
        {
          "name": "F#2",
          "midi": 42,
          "time": 169.51189000000048,
          "velocity": 1,
          "duration": 0.2439019999999914
        },
        {
          "name": "C#3",
          "midi": 49,
          "time": 169.51189000000048,
          "velocity": 1,
          "duration": 0.2439019999999914
        },
        {
          "name": "E2",
          "midi": 40,
          "time": 169.75579200000047,
          "velocity": 1,
          "duration": 0.48780400000001123
        },
        {
          "name": "B2",
          "midi": 47,
          "time": 169.75579200000047,
          "velocity": 1,
          "duration": 0.48780400000001123
        },
        {
          "name": "E2",
          "midi": 40,
          "time": 170.24359600000048,
          "velocity": 1,
          "duration": 0.2439019999999914
        },
        {
          "name": "B2",
          "midi": 47,
          "time": 170.24359600000048,
          "velocity": 1,
          "duration": 0.2439019999999914
        },
        {
          "name": "E3",
          "midi": 52,
          "time": 170.48749800000047,
          "velocity": 1,
          "duration": 0.2439019999999914
        },
        {
          "name": "A#2",
          "midi": 46,
          "time": 170.73140000000046,
          "velocity": 1,
          "duration": 0.2439019999999914
        },
        {
          "name": "A2",
          "midi": 45,
          "time": 170.97530200000045,
          "velocity": 1,
          "duration": 0.48780400000015334
        },
        {
          "name": "E2",
          "midi": 40,
          "time": 171.4631060000006,
          "velocity": 1,
          "duration": 0.2439019999999914
        },
        {
          "name": "B2",
          "midi": 47,
          "time": 171.7070080000006,
          "velocity": 1,
          "duration": 0.48780400000001123
        },
        {
          "name": "E2",
          "midi": 40,
          "time": 171.7070080000006,
          "velocity": 1,
          "duration": 0.48780400000001123
        },
        {
          "name": "E2",
          "midi": 40,
          "time": 172.1948120000006,
          "velocity": 1,
          "duration": 0.2439019999999914
        },
        {
          "name": "B2",
          "midi": 47,
          "time": 172.1948120000006,
          "velocity": 1,
          "duration": 0.2439019999999914
        },
        {
          "name": "E3",
          "midi": 52,
          "time": 172.4387140000006,
          "velocity": 1,
          "duration": 0.2439019999999914
        },
        {
          "name": "A#2",
          "midi": 46,
          "time": 172.6826160000006,
          "velocity": 1,
          "duration": 0.2439019999999914
        },
        {
          "name": "A2",
          "midi": 45,
          "time": 172.92651800000058,
          "velocity": 1,
          "duration": 0.48780400000015334
        },
        {
          "name": "E2",
          "midi": 40,
          "time": 173.41432200000074,
          "velocity": 1,
          "duration": 0.2439019999999914
        },
        {
          "name": "B2",
          "midi": 47,
          "time": 173.65822400000073,
          "velocity": 1,
          "duration": 0.48780400000001123
        },
        {
          "name": "E2",
          "midi": 40,
          "time": 173.65822400000073,
          "velocity": 1,
          "duration": 0.48780400000001123
        },
        {
          "name": "E2",
          "midi": 40,
          "time": 174.14602800000074,
          "velocity": 1,
          "duration": 0.2439019999999914
        },
        {
          "name": "B2",
          "midi": 47,
          "time": 174.14602800000074,
          "velocity": 1,
          "duration": 0.2439019999999914
        },
        {
          "name": "E3",
          "midi": 52,
          "time": 174.38993000000073,
          "velocity": 1,
          "duration": 0.2439019999999914
        },
        {
          "name": "A#2",
          "midi": 46,
          "time": 174.63383200000072,
          "velocity": 1,
          "duration": 0.2439019999999914
        },
        {
          "name": "A2",
          "midi": 45,
          "time": 174.87773400000071,
          "velocity": 1,
          "duration": 0.48780400000015334
        },
        {
          "name": "E2",
          "midi": 40,
          "time": 175.36553800000087,
          "velocity": 1,
          "duration": 0.2439019999999914
        },
        {
          "name": "G2",
          "midi": 43,
          "time": 175.60944000000086,
          "velocity": 1,
          "duration": 0.48780400000001123
        },
        {
          "name": "D3",
          "midi": 50,
          "time": 175.60944000000086,
          "velocity": 1,
          "duration": 0.48780400000001123
        },
        {
          "name": "E2",
          "midi": 40,
          "time": 176.09724400000087,
          "velocity": 1,
          "duration": 0.2439019999999914
        },
        {
          "name": "C#3",
          "midi": 49,
          "time": 176.34114600000086,
          "velocity": 1,
          "duration": 0.2439019999999914
        },
        {
          "name": "F#2",
          "midi": 42,
          "time": 176.34114600000086,
          "velocity": 1,
          "duration": 0.2439019999999914
        },
        {
          "name": "E2",
          "midi": 40,
          "time": 176.58504800000085,
          "velocity": 1,
          "duration": 0.2439019999999914
        },
        {
          "name": "C#3",
          "midi": 49,
          "time": 176.82895000000084,
          "velocity": 1,
          "duration": 0.2439019999999914
        },
        {
          "name": "F#2",
          "midi": 42,
          "time": 176.82895000000084,
          "velocity": 1,
          "duration": 0.2439019999999914
        },
        {
          "name": "G2",
          "midi": 43,
          "time": 177.07285200000084,
          "velocity": 1,
          "duration": 0.2439019999999914
        },
        {
          "name": "D3",
          "midi": 50,
          "time": 177.07285200000084,
          "velocity": 1,
          "duration": 0.2439019999999914
        },
        {
          "name": "C#3",
          "midi": 49,
          "time": 177.31675400000083,
          "velocity": 1,
          "duration": 0.2439019999999914
        },
        {
          "name": "F#2",
          "midi": 42,
          "time": 177.31675400000083,
          "velocity": 1,
          "duration": 0.2439019999999914
        },
        {
          "name": "F#2",
          "midi": 42,
          "time": 177.56065600000082,
          "velocity": 1,
          "duration": 0.48780400000001123
        },
        {
          "name": "F#3",
          "midi": 54,
          "time": 178.04846000000083,
          "velocity": 1,
          "duration": 0.2439019999999914
        },
        {
          "name": "A3",
          "midi": 57,
          "time": 178.29236200000082,
          "velocity": 1,
          "duration": 0.2439019999999914
        },
        {
          "name": "C3",
          "midi": 48,
          "time": 178.5362640000008,
          "velocity": 1,
          "duration": 0.2439019999999914
        },
        {
          "name": "B2",
          "midi": 47,
          "time": 178.7801660000008,
          "velocity": 1,
          "duration": 0.48780400000001123
        },
        {
          "name": "F#3",
          "midi": 54,
          "time": 179.26797000000082,
          "velocity": 1,
          "duration": 0.2439019999999914
        },
        {
          "name": "F#2",
          "midi": 42,
          "time": 179.5118720000008,
          "velocity": 1,
          "duration": 0.48780400000001123
        },
        {
          "name": "F#3",
          "midi": 54,
          "time": 179.99967600000082,
          "velocity": 1,
          "duration": 0.2439019999999914
        },
        {
          "name": "A3",
          "midi": 57,
          "time": 180.2435780000008,
          "velocity": 1,
          "duration": 0.2439019999999914
        },
        {
          "name": "C3",
          "midi": 48,
          "time": 180.4874800000008,
          "velocity": 1,
          "duration": 0.2439019999999914
        },
        {
          "name": "B2",
          "midi": 47,
          "time": 180.7313820000008,
          "velocity": 1,
          "duration": 0.48780400000001123
        },
        {
          "name": "F#3",
          "midi": 54,
          "time": 181.2191860000008,
          "velocity": 1,
          "duration": 0.2439019999999914
        },
        {
          "name": "F#2",
          "midi": 42,
          "time": 181.4630880000008,
          "velocity": 1,
          "duration": 0.48780400000001123
        },
        {
          "name": "F#3",
          "midi": 54,
          "time": 181.9508920000008,
          "velocity": 1,
          "duration": 0.2439019999999914
        },
        {
          "name": "A3",
          "midi": 57,
          "time": 182.1947940000008,
          "velocity": 1,
          "duration": 0.2439019999999914
        },
        {
          "name": "C3",
          "midi": 48,
          "time": 182.4386960000008,
          "velocity": 1,
          "duration": 0.2439019999999914
        },
        {
          "name": "B2",
          "midi": 47,
          "time": 182.68259800000078,
          "velocity": 1,
          "duration": 0.48780400000001123
        },
        {
          "name": "F#3",
          "midi": 54,
          "time": 183.1704020000008,
          "velocity": 1,
          "duration": 0.2439019999999914
        },
        {
          "name": "F#2",
          "midi": 42,
          "time": 183.41430400000078,
          "velocity": 1,
          "duration": 0.48780400000001123
        },
        {
          "name": "F#3",
          "midi": 54,
          "time": 183.9021080000008,
          "velocity": 1,
          "duration": 0.2439019999999914
        },
        {
          "name": "A3",
          "midi": 57,
          "time": 184.14601000000079,
          "velocity": 1,
          "duration": 0.2439019999999914
        },
        {
          "name": "C3",
          "midi": 48,
          "time": 184.38991200000078,
          "velocity": 1,
          "duration": 0.2439019999999914
        },
        {
          "name": "B2",
          "midi": 47,
          "time": 184.63381400000077,
          "velocity": 1,
          "duration": 0.48780400000001123
        },
        {
          "name": "F#3",
          "midi": 54,
          "time": 185.12161800000078,
          "velocity": 1,
          "duration": 0.48780400000001123
        },
        {
          "name": "F#2",
          "midi": 42,
          "time": 185.6094220000008,
          "velocity": 1,
          "duration": 0.48780400000001123
        },
        {
          "name": "C#3",
          "midi": 49,
          "time": 185.6094220000008,
          "velocity": 1,
          "duration": 0.48780400000001123
        },
        {
          "name": "C#3",
          "midi": 49,
          "time": 186.0972260000008,
          "velocity": 1,
          "duration": 0.2439019999999914
        },
        {
          "name": "C3",
          "midi": 48,
          "time": 186.3411280000008,
          "velocity": 1,
          "duration": 0.2439019999999914
        },
        {
          "name": "B2",
          "midi": 47,
          "time": 186.58503000000078,
          "velocity": 1,
          "duration": 0.7317060000000026
        },
        {
          "name": "F#3",
          "midi": 54,
          "time": 186.58503000000078,
          "velocity": 1,
          "duration": 0.7317060000000026
        },
        {
          "name": "F#2",
          "midi": 42,
          "time": 187.3167360000008,
          "velocity": 1,
          "duration": 0.7317060000000026
        },
        {
          "name": "C#3",
          "midi": 49,
          "time": 187.3167360000008,
          "velocity": 1,
          "duration": 0.7317060000000026
        },
        {
          "name": "C#3",
          "midi": 49,
          "time": 188.0484420000008,
          "velocity": 1,
          "duration": 0.2439019999999914
        },
        {
          "name": "C3",
          "midi": 48,
          "time": 188.29234400000078,
          "velocity": 1,
          "duration": 0.2439019999999914
        },
        {
          "name": "B2",
          "midi": 47,
          "time": 188.53624600000077,
          "velocity": 1,
          "duration": 0.7317060000000026
        },
        {
          "name": "F#3",
          "midi": 54,
          "time": 188.53624600000077,
          "velocity": 1,
          "duration": 0.7317060000000026
        },
        {
          "name": "F#2",
          "midi": 42,
          "time": 189.26795200000078,
          "velocity": 1,
          "duration": 0.7317060000000026
        },
        {
          "name": "C#3",
          "midi": 49,
          "time": 189.26795200000078,
          "velocity": 1,
          "duration": 0.7317060000000026
        },
        {
          "name": "C#3",
          "midi": 49,
          "time": 189.99965800000078,
          "velocity": 1,
          "duration": 0.2439019999999914
        },
        {
          "name": "C3",
          "midi": 48,
          "time": 190.24356000000077,
          "velocity": 1,
          "duration": 0.2439019999999914
        },
        {
          "name": "B2",
          "midi": 47,
          "time": 190.48746200000076,
          "velocity": 1,
          "duration": 0.7317060000000026
        },
        {
          "name": "F#3",
          "midi": 54,
          "time": 190.48746200000076,
          "velocity": 1,
          "duration": 0.7317060000000026
        },
        {
          "name": "E2",
          "midi": 40,
          "time": 191.21916800000076,
          "velocity": 1,
          "duration": 2.195118000000008
        },
        {
          "name": "B2",
          "midi": 47,
          "time": 191.21916800000076,
          "velocity": 1,
          "duration": 2.195118000000008
        },
        {
          "name": "F#2",
          "midi": 42,
          "time": 193.41428600000077,
          "velocity": 1,
          "duration": 0.48780400000001123
        },
        {
          "name": "C#3",
          "midi": 49,
          "time": 193.41428600000077,
          "velocity": 1,
          "duration": 0.48780400000001123
        },
        {
          "name": "C#3",
          "midi": 49,
          "time": 193.90209000000078,
          "velocity": 1,
          "duration": 0.2439019999999914
        },
        {
          "name": "C3",
          "midi": 48,
          "time": 194.14599200000077,
          "velocity": 1,
          "duration": 0.2439019999999914
        },
        {
          "name": "B2",
          "midi": 47,
          "time": 194.38989400000077,
          "velocity": 1,
          "duration": 0.7317060000000026
        },
        {
          "name": "F#3",
          "midi": 54,
          "time": 194.38989400000077,
          "velocity": 1,
          "duration": 0.7317060000000026
        },
        {
          "name": "E2",
          "midi": 40,
          "time": 195.12160000000077,
          "velocity": 1,
          "duration": 2.195118000000008
        },
        {
          "name": "B2",
          "midi": 47,
          "time": 195.12160000000077,
          "velocity": 1,
          "duration": 2.195118000000008
        },
        {
          "name": "B2",
          "midi": 47,
          "time": 197.31671800000078,
          "velocity": 1,
          "duration": 0.2439019999999914
        },
        {
          "name": "E2",
          "midi": 40,
          "time": 197.31671800000078,
          "velocity": 1,
          "duration": 0.2439019999999914
        },
        {
          "name": "F#2",
          "midi": 42,
          "time": 222.43862400000077,
          "velocity": 1,
          "duration": 0.48780400000001123
        },
        {
          "name": "F#3",
          "midi": 54,
          "time": 222.92642800000078,
          "velocity": 1,
          "duration": 0.2439019999999914
        },
        {
          "name": "A3",
          "midi": 57,
          "time": 223.17033000000077,
          "velocity": 1,
          "duration": 0.2439019999999914
        },
        {
          "name": "C3",
          "midi": 48,
          "time": 223.41423200000077,
          "velocity": 1,
          "duration": 0.2439019999999914
        },
        {
          "name": "B2",
          "midi": 47,
          "time": 223.65813400000076,
          "velocity": 1,
          "duration": 0.48780400000001123
        },
        {
          "name": "F#3",
          "midi": 54,
          "time": 224.14593800000077,
          "velocity": 1,
          "duration": 0.2439019999999914
        },
        {
          "name": "F#2",
          "midi": 42,
          "time": 224.38984000000076,
          "velocity": 1,
          "duration": 0.48780400000001123
        },
        {
          "name": "F#3",
          "midi": 54,
          "time": 224.87764400000077,
          "velocity": 1,
          "duration": 0.2439019999999914
        },
        {
          "name": "A3",
          "midi": 57,
          "time": 225.12154600000076,
          "velocity": 1,
          "duration": 0.2439019999999914
        },
        {
          "name": "C3",
          "midi": 48,
          "time": 225.36544800000075,
          "velocity": 1,
          "duration": 0.2439019999999914
        },
        {
          "name": "B2",
          "midi": 47,
          "time": 225.60935000000075,
          "velocity": 1,
          "duration": 0.48780400000001123
        },
        {
          "name": "F#3",
          "midi": 54,
          "time": 226.09715400000076,
          "velocity": 1,
          "duration": 0.2439019999999914
        },
        {
          "name": "F#2",
          "midi": 42,
          "time": 226.34105600000075,
          "velocity": 1,
          "duration": 0.48780400000001123
        },
        {
          "name": "F#3",
          "midi": 54,
          "time": 226.82886000000076,
          "velocity": 1,
          "duration": 0.2439019999999914
        },
        {
          "name": "A3",
          "midi": 57,
          "time": 227.07276200000075,
          "velocity": 1,
          "duration": 0.2439019999999914
        },
        {
          "name": "C3",
          "midi": 48,
          "time": 227.31666400000074,
          "velocity": 1,
          "duration": 0.2439019999999914
        },
        {
          "name": "B2",
          "midi": 47,
          "time": 227.56056600000073,
          "velocity": 1,
          "duration": 0.48780400000001123
        },
        {
          "name": "F#3",
          "midi": 54,
          "time": 228.04837000000074,
          "velocity": 1,
          "duration": 0.2439019999999914
        },
        {
          "name": "F#2",
          "midi": 42,
          "time": 228.29227200000074,
          "velocity": 1,
          "duration": 0.48780400000001123
        },
        {
          "name": "F#3",
          "midi": 54,
          "time": 228.78007600000075,
          "velocity": 1,
          "duration": 0.2439019999999914
        },
        {
          "name": "A3",
          "midi": 57,
          "time": 229.02397800000074,
          "velocity": 1,
          "duration": 0.2439019999999914
        },
        {
          "name": "C3",
          "midi": 48,
          "time": 229.26788000000073,
          "velocity": 1,
          "duration": 0.2439019999999914
        },
        {
          "name": "B2",
          "midi": 47,
          "time": 229.51178200000072,
          "velocity": 1,
          "duration": 0.48780400000001123
        },
        {
          "name": "F#3",
          "midi": 54,
          "time": 229.99958600000073,
          "velocity": 1,
          "duration": 0.2439019999999914
        },
        {
          "name": "F#2",
          "midi": 42,
          "time": 230.24348800000072,
          "velocity": 1,
          "duration": 0.48780400000001123
        },
        {
          "name": "F#3",
          "midi": 54,
          "time": 230.73129200000074,
          "velocity": 1,
          "duration": 0.2439019999999914
        },
        {
          "name": "A3",
          "midi": 57,
          "time": 230.97519400000073,
          "velocity": 1,
          "duration": 0.2439019999999914
        },
        {
          "name": "C3",
          "midi": 48,
          "time": 231.21909600000072,
          "velocity": 1,
          "duration": 0.2439019999999914
        },
        {
          "name": "B2",
          "midi": 47,
          "time": 231.4629980000007,
          "velocity": 1,
          "duration": 0.48780400000001123
        },
        {
          "name": "F#3",
          "midi": 54,
          "time": 231.95080200000072,
          "velocity": 1,
          "duration": 0.2439019999999914
        },
        {
          "name": "F#2",
          "midi": 42,
          "time": 232.1947040000007,
          "velocity": 1,
          "duration": 0.48780400000001123
        },
        {
          "name": "F#3",
          "midi": 54,
          "time": 232.68250800000072,
          "velocity": 1,
          "duration": 0.2439019999999914
        },
        {
          "name": "A3",
          "midi": 57,
          "time": 232.92641000000071,
          "velocity": 1,
          "duration": 0.2439019999999914
        },
        {
          "name": "C3",
          "midi": 48,
          "time": 233.1703120000007,
          "velocity": 1,
          "duration": 0.2439019999999914
        },
        {
          "name": "B2",
          "midi": 47,
          "time": 233.4142140000007,
          "velocity": 1,
          "duration": 0.48780400000001123
        },
        {
          "name": "F#3",
          "midi": 54,
          "time": 233.9020180000007,
          "velocity": 1,
          "duration": 0.2439019999999914
        },
        {
          "name": "F#2",
          "midi": 42,
          "time": 234.1459200000007,
          "velocity": 1,
          "duration": 0.48780400000001123
        },
        {
          "name": "F#3",
          "midi": 54,
          "time": 234.6337240000007,
          "velocity": 1,
          "duration": 0.2439019999999914
        },
        {
          "name": "A3",
          "midi": 57,
          "time": 234.8776260000007,
          "velocity": 1,
          "duration": 0.2439019999999914
        },
        {
          "name": "C3",
          "midi": 48,
          "time": 235.1215280000007,
          "velocity": 1,
          "duration": 0.2439019999999914
        },
        {
          "name": "B2",
          "midi": 47,
          "time": 235.36543000000069,
          "velocity": 1,
          "duration": 0.48780400000001123
        },
        {
          "name": "F#3",
          "midi": 54,
          "time": 235.8532340000007,
          "velocity": 1,
          "duration": 0.2439019999999914
        },
        {
          "name": "F#2",
          "midi": 42,
          "time": 236.0971360000007,
          "velocity": 1,
          "duration": 0.48780400000001123
        },
        {
          "name": "F#3",
          "midi": 54,
          "time": 236.5849400000007,
          "velocity": 1,
          "duration": 0.2439019999999914
        },
        {
          "name": "A3",
          "midi": 57,
          "time": 236.8288420000007,
          "velocity": 1,
          "duration": 0.2439019999999914
        },
        {
          "name": "C3",
          "midi": 48,
          "time": 237.07274400000068,
          "velocity": 1,
          "duration": 0.2439019999999914
        },
        {
          "name": "B2",
          "midi": 47,
          "time": 237.31664600000067,
          "velocity": 1,
          "duration": 0.48780400000001123
        },
        {
          "name": "F#3",
          "midi": 54,
          "time": 237.80445000000068,
          "velocity": 1,
          "duration": 0.48780400000001123
        },
        {
          "name": "F#2",
          "midi": 42,
          "time": 238.2922540000007,
          "velocity": 1,
          "duration": 0.48780400000001123
        },
        {
          "name": "C#3",
          "midi": 49,
          "time": 238.2922540000007,
          "velocity": 1,
          "duration": 0.48780400000001123
        },
        {
          "name": "C#3",
          "midi": 49,
          "time": 238.7800580000007,
          "velocity": 1,
          "duration": 0.2439019999999914
        },
        {
          "name": "C3",
          "midi": 48,
          "time": 239.0239600000007,
          "velocity": 1,
          "duration": 0.2439019999999914
        },
        {
          "name": "B2",
          "midi": 47,
          "time": 239.2678620000007,
          "velocity": 1,
          "duration": 0.7317060000000026
        },
        {
          "name": "F#3",
          "midi": 54,
          "time": 239.2678620000007,
          "velocity": 1,
          "duration": 0.7317060000000026
        },
        {
          "name": "F#2",
          "midi": 42,
          "time": 239.9995680000007,
          "velocity": 1,
          "duration": 0.7317060000000026
        },
        {
          "name": "C#3",
          "midi": 49,
          "time": 239.9995680000007,
          "velocity": 1,
          "duration": 0.7317060000000026
        },
        {
          "name": "C#3",
          "midi": 49,
          "time": 240.7312740000007,
          "velocity": 1,
          "duration": 0.2439019999999914
        },
        {
          "name": "C3",
          "midi": 48,
          "time": 240.9751760000007,
          "velocity": 1,
          "duration": 0.2439019999999914
        },
        {
          "name": "B2",
          "midi": 47,
          "time": 241.21907800000068,
          "velocity": 1,
          "duration": 0.7317060000000026
        },
        {
          "name": "F#3",
          "midi": 54,
          "time": 241.21907800000068,
          "velocity": 1,
          "duration": 0.7317060000000026
        },
        {
          "name": "F#2",
          "midi": 42,
          "time": 241.95078400000068,
          "velocity": 1,
          "duration": 0.7317060000000026
        },
        {
          "name": "C#3",
          "midi": 49,
          "time": 241.95078400000068,
          "velocity": 1,
          "duration": 0.7317060000000026
        },
        {
          "name": "C#3",
          "midi": 49,
          "time": 242.68249000000068,
          "velocity": 1,
          "duration": 0.2439019999999914
        },
        {
          "name": "C3",
          "midi": 48,
          "time": 242.92639200000067,
          "velocity": 1,
          "duration": 0.2439019999999914
        },
        {
          "name": "B2",
          "midi": 47,
          "time": 243.17029400000067,
          "velocity": 1,
          "duration": 0.7317060000000026
        },
        {
          "name": "F#3",
          "midi": 54,
          "time": 243.17029400000067,
          "velocity": 1,
          "duration": 0.7317060000000026
        },
        {
          "name": "E2",
          "midi": 40,
          "time": 243.90200000000067,
          "velocity": 1,
          "duration": 2.195118000000008
        },
        {
          "name": "B2",
          "midi": 47,
          "time": 243.90200000000067,
          "velocity": 1,
          "duration": 2.195118000000008
        },
        {
          "name": "F#2",
          "midi": 42,
          "time": 246.09711800000068,
          "velocity": 1,
          "duration": 0.48780400000001123
        },
        {
          "name": "C#3",
          "midi": 49,
          "time": 246.09711800000068,
          "velocity": 1,
          "duration": 0.48780400000001123
        },
        {
          "name": "C#3",
          "midi": 49,
          "time": 246.5849220000007,
          "velocity": 1,
          "duration": 0.2439019999999914
        },
        {
          "name": "C3",
          "midi": 48,
          "time": 246.82882400000068,
          "velocity": 1,
          "duration": 0.2439019999999914
        },
        {
          "name": "B2",
          "midi": 47,
          "time": 247.07272600000067,
          "velocity": 1,
          "duration": 0.7317060000000026
        },
        {
          "name": "F#3",
          "midi": 54,
          "time": 247.07272600000067,
          "velocity": 1,
          "duration": 0.7317060000000026
        },
        {
          "name": "E2",
          "midi": 40,
          "time": 247.80443200000067,
          "velocity": 1,
          "duration": 1.7073139999999967
        },
        {
          "name": "B2",
          "midi": 47,
          "time": 247.80443200000067,
          "velocity": 1,
          "duration": 1.7073139999999967
        },
        {
          "name": "E2",
          "midi": 40,
          "time": 249.51174600000067,
          "velocity": 1,
          "duration": 0.2439019999999914
        },
        {
          "name": "E2",
          "midi": 40,
          "time": 249.75564800000066,
          "velocity": 1,
          "duration": 0.2439019999999914
        },
        {
          "name": "F#2",
          "midi": 42,
          "time": 249.99955000000065,
          "velocity": 1,
          "duration": 0.48780400000001123
        },
        {
          "name": "C#3",
          "midi": 49,
          "time": 249.99955000000065,
          "velocity": 1,
          "duration": 0.48780400000001123
        },
        {
          "name": "C#3",
          "midi": 49,
          "time": 250.48735400000066,
          "velocity": 1,
          "duration": 0.2439019999999914
        },
        {
          "name": "C3",
          "midi": 48,
          "time": 250.73125600000066,
          "velocity": 1,
          "duration": 0.2439019999999914
        },
        {
          "name": "B2",
          "midi": 47,
          "time": 250.97515800000065,
          "velocity": 1,
          "duration": 0.7317060000000026
        },
        {
          "name": "F#3",
          "midi": 54,
          "time": 250.97515800000065,
          "velocity": 1,
          "duration": 0.7317060000000026
        },
        {
          "name": "F#2",
          "midi": 42,
          "time": 251.70686400000065,
          "velocity": 1,
          "duration": 0.7317060000000026
        },
        {
          "name": "C#3",
          "midi": 49,
          "time": 251.70686400000065,
          "velocity": 1,
          "duration": 0.7317060000000026
        },
        {
          "name": "C#3",
          "midi": 49,
          "time": 252.43857000000065,
          "velocity": 1,
          "duration": 0.2439019999999914
        },
        {
          "name": "C3",
          "midi": 48,
          "time": 252.68247200000064,
          "velocity": 1,
          "duration": 0.2439019999999914
        },
        {
          "name": "B2",
          "midi": 47,
          "time": 252.92637400000064,
          "velocity": 1,
          "duration": 0.7317060000000026
        },
        {
          "name": "F#3",
          "midi": 54,
          "time": 252.92637400000064,
          "velocity": 1,
          "duration": 0.7317060000000026
        },
        {
          "name": "F#2",
          "midi": 42,
          "time": 253.65808000000064,
          "velocity": 1,
          "duration": 0.7317060000000026
        },
        {
          "name": "C#3",
          "midi": 49,
          "time": 253.65808000000064,
          "velocity": 1,
          "duration": 0.7317060000000026
        },
        {
          "name": "C#3",
          "midi": 49,
          "time": 254.38978600000064,
          "velocity": 1,
          "duration": 0.2439019999999914
        },
        {
          "name": "C3",
          "midi": 48,
          "time": 254.63368800000063,
          "velocity": 1,
          "duration": 0.2439019999999914
        },
        {
          "name": "B2",
          "midi": 47,
          "time": 254.87759000000062,
          "velocity": 1,
          "duration": 0.7317060000000026
        },
        {
          "name": "F#3",
          "midi": 54,
          "time": 254.87759000000062,
          "velocity": 1,
          "duration": 0.7317060000000026
        },
        {
          "name": "E2",
          "midi": 40,
          "time": 255.60929600000063,
          "velocity": 1,
          "duration": 2.195118000000008
        },
        {
          "name": "B2",
          "midi": 47,
          "time": 255.60929600000063,
          "velocity": 1,
          "duration": 2.195118000000008
        },
        {
          "name": "F#2",
          "midi": 42,
          "time": 257.80441400000063,
          "velocity": 1,
          "duration": 0.4878039999999828
        },
        {
          "name": "C#3",
          "midi": 49,
          "time": 257.80441400000063,
          "velocity": 1,
          "duration": 0.4878039999999828
        },
        {
          "name": "C#3",
          "midi": 49,
          "time": 258.2922180000006,
          "velocity": 1,
          "duration": 0.2439019999999914
        },
        {
          "name": "C3",
          "midi": 48,
          "time": 258.5361200000006,
          "velocity": 1,
          "duration": 0.2439019999999914
        },
        {
          "name": "B2",
          "midi": 47,
          "time": 258.7800220000006,
          "velocity": 1,
          "duration": 0.7317059999999742
        },
        {
          "name": "F#3",
          "midi": 54,
          "time": 258.7800220000006,
          "velocity": 1,
          "duration": 0.7317059999999742
        },
        {
          "name": "E2",
          "midi": 40,
          "time": 259.5117280000006,
          "velocity": 1,
          "duration": 2.1951179999999795
        },
        {
          "name": "B2",
          "midi": 47,
          "time": 259.5117280000006,
          "velocity": 1,
          "duration": 2.1951179999999795
        },
        {
          "name": "G2",
          "midi": 43,
          "time": 261.70684600000055,
          "velocity": 1,
          "duration": 0.2439019999999914
        },
        {
          "name": "D3",
          "midi": 50,
          "time": 261.70684600000055,
          "velocity": 1,
          "duration": 0.2439019999999914
        },
        {
          "name": "E2",
          "midi": 40,
          "time": 261.95074800000054,
          "velocity": 1,
          "duration": 0.2439019999999914
        },
        {
          "name": "F#2",
          "midi": 42,
          "time": 262.19465000000054,
          "velocity": 1,
          "duration": 0.2439019999999914
        },
        {
          "name": "C3",
          "midi": 48,
          "time": 262.19465000000054,
          "velocity": 1,
          "duration": 0.2439019999999914
        },
        {
          "name": "E2",
          "midi": 40,
          "time": 262.4385520000005,
          "velocity": 1,
          "duration": 0.2439019999999914
        },
        {
          "name": "C3",
          "midi": 48,
          "time": 262.6824540000005,
          "velocity": 1,
          "duration": 0.2439019999999914
        },
        {
          "name": "F#2",
          "midi": 42,
          "time": 262.6824540000005,
          "velocity": 1,
          "duration": 0.2439019999999914
        },
        {
          "name": "D3",
          "midi": 50,
          "time": 262.9263560000005,
          "velocity": 1,
          "duration": 0.2439019999999914
        },
        {
          "name": "G2",
          "midi": 43,
          "time": 262.9263560000005,
          "velocity": 1,
          "duration": 0.2439019999999914
        },
        {
          "name": "G2",
          "midi": 43,
          "time": 263.1702580000005,
          "velocity": 1,
          "duration": 0.2439019999999914
        },
        {
          "name": "D3",
          "midi": 50,
          "time": 263.1702580000005,
          "velocity": 1,
          "duration": 0.2439019999999914
        },
        {
          "name": "E2",
          "midi": 40,
          "time": 263.4141600000005,
          "velocity": 1,
          "duration": 1.7073139999999967
        },
        {
          "name": "B2",
          "midi": 47,
          "time": 263.4141600000005,
          "velocity": 1,
          "duration": 1.7073139999999967
        },
        {
          "name": "E2",
          "midi": 40,
          "time": 265.3653760000005,
          "velocity": 1,
          "duration": 0.4878039999999828
        },
        {
          "name": "B2",
          "midi": 47,
          "time": 265.3653760000005,
          "velocity": 1,
          "duration": 0.4878039999999828
        },
        {
          "name": "E2",
          "midi": 40,
          "time": 265.85318000000046,
          "velocity": 1,
          "duration": 0.2439019999999914
        },
        {
          "name": "B2",
          "midi": 47,
          "time": 265.85318000000046,
          "velocity": 1,
          "duration": 0.2439019999999914
        },
        {
          "name": "F#3",
          "midi": 54,
          "time": 266.09708200000046,
          "velocity": 1,
          "duration": 0.2439019999999914
        },
        {
          "name": "A#2",
          "midi": 46,
          "time": 266.34098400000045,
          "velocity": 1,
          "duration": 0.2439019999999914
        },
        {
          "name": "A2",
          "midi": 45,
          "time": 266.58488600000044,
          "velocity": 1,
          "duration": 0.48780400000015334
        },
        {
          "name": "E2",
          "midi": 40,
          "time": 267.0726900000006,
          "velocity": 1,
          "duration": 0.2439019999999914
        },
        {
          "name": "B2",
          "midi": 47,
          "time": 267.3165920000006,
          "velocity": 1,
          "duration": 0.4878039999999828
        },
        {
          "name": "E2",
          "midi": 40,
          "time": 267.3165920000006,
          "velocity": 1,
          "duration": 0.4878039999999828
        },
        {
          "name": "E2",
          "midi": 40,
          "time": 267.80439600000057,
          "velocity": 1,
          "duration": 0.2439019999999914
        },
        {
          "name": "B2",
          "midi": 47,
          "time": 267.80439600000057,
          "velocity": 1,
          "duration": 0.2439019999999914
        },
        {
          "name": "F#3",
          "midi": 54,
          "time": 268.04829800000056,
          "velocity": 1,
          "duration": 0.2439019999999914
        },
        {
          "name": "A#2",
          "midi": 46,
          "time": 268.29220000000055,
          "velocity": 1,
          "duration": 0.2439019999999914
        },
        {
          "name": "A2",
          "midi": 45,
          "time": 268.53610200000054,
          "velocity": 1,
          "duration": 0.48780400000015334
        },
        {
          "name": "E2",
          "midi": 40,
          "time": 269.0239060000007,
          "velocity": 1,
          "duration": 0.2439019999999914
        },
        {
          "name": "B2",
          "midi": 47,
          "time": 269.2678080000007,
          "velocity": 1,
          "duration": 0.4878039999999828
        },
        {
          "name": "E2",
          "midi": 40,
          "time": 269.2678080000007,
          "velocity": 1,
          "duration": 0.4878039999999828
        },
        {
          "name": "E2",
          "midi": 40,
          "time": 269.75561200000067,
          "velocity": 1,
          "duration": 0.2439019999999914
        },
        {
          "name": "B2",
          "midi": 47,
          "time": 269.75561200000067,
          "velocity": 1,
          "duration": 0.2439019999999914
        },
        {
          "name": "F#3",
          "midi": 54,
          "time": 269.99951400000066,
          "velocity": 1,
          "duration": 0.2439019999999914
        },
        {
          "name": "A#2",
          "midi": 46,
          "time": 270.24341600000065,
          "velocity": 1,
          "duration": 0.2439019999999914
        },
        {
          "name": "A2",
          "midi": 45,
          "time": 270.48731800000064,
          "velocity": 1,
          "duration": 0.48780400000015334
        },
        {
          "name": "E2",
          "midi": 40,
          "time": 270.9751220000008,
          "velocity": 1,
          "duration": 0.2439019999999914
        },
        {
          "name": "B2",
          "midi": 47,
          "time": 271.2190240000008,
          "velocity": 1,
          "duration": 0.4878039999999828
        },
        {
          "name": "E2",
          "midi": 40,
          "time": 271.2190240000008,
          "velocity": 1,
          "duration": 0.4878039999999828
        },
        {
          "name": "E2",
          "midi": 40,
          "time": 271.70682800000077,
          "velocity": 1,
          "duration": 0.2439019999999914
        },
        {
          "name": "B2",
          "midi": 47,
          "time": 271.70682800000077,
          "velocity": 1,
          "duration": 0.2439019999999914
        },
        {
          "name": "F#3",
          "midi": 54,
          "time": 271.95073000000076,
          "velocity": 1,
          "duration": 0.2439019999999914
        },
        {
          "name": "A#2",
          "midi": 46,
          "time": 272.19463200000075,
          "velocity": 1,
          "duration": 0.2439019999999914
        },
        {
          "name": "A2",
          "midi": 45,
          "time": 272.43853400000074,
          "velocity": 1,
          "duration": 0.48780400000015334
        },
        {
          "name": "E2",
          "midi": 40,
          "time": 272.9263380000009,
          "velocity": 1,
          "duration": 0.2439019999999914
        },
        {
          "name": "B2",
          "midi": 47,
          "time": 273.1702400000009,
          "velocity": 1,
          "duration": 0.4878039999999828
        },
        {
          "name": "E2",
          "midi": 40,
          "time": 273.1702400000009,
          "velocity": 1,
          "duration": 0.4878039999999828
        },
        {
          "name": "E2",
          "midi": 40,
          "time": 273.65804400000087,
          "velocity": 1,
          "duration": 0.2439019999999914
        },
        {
          "name": "B2",
          "midi": 47,
          "time": 273.65804400000087,
          "velocity": 1,
          "duration": 0.2439019999999914
        },
        {
          "name": "F#3",
          "midi": 54,
          "time": 273.90194600000086,
          "velocity": 1,
          "duration": 0.2439019999999914
        },
        {
          "name": "A#2",
          "midi": 46,
          "time": 274.14584800000085,
          "velocity": 1,
          "duration": 0.2439019999999914
        },
        {
          "name": "A2",
          "midi": 45,
          "time": 274.38975000000084,
          "velocity": 1,
          "duration": 0.48780400000015334
        },
        {
          "name": "E2",
          "midi": 40,
          "time": 274.877554000001,
          "velocity": 1,
          "duration": 0.2439019999999914
        },
        {
          "name": "B2",
          "midi": 47,
          "time": 275.121456000001,
          "velocity": 1,
          "duration": 0.4878039999999828
        },
        {
          "name": "E2",
          "midi": 40,
          "time": 275.121456000001,
          "velocity": 1,
          "duration": 0.4878039999999828
        },
        {
          "name": "E2",
          "midi": 40,
          "time": 275.609260000001,
          "velocity": 1,
          "duration": 0.2439019999999914
        },
        {
          "name": "B2",
          "midi": 47,
          "time": 275.609260000001,
          "velocity": 1,
          "duration": 0.2439019999999914
        },
        {
          "name": "F#3",
          "midi": 54,
          "time": 275.85316200000096,
          "velocity": 1,
          "duration": 0.2439019999999914
        },
        {
          "name": "A#2",
          "midi": 46,
          "time": 276.09706400000096,
          "velocity": 1,
          "duration": 0.2439019999999914
        },
        {
          "name": "A2",
          "midi": 45,
          "time": 276.34096600000095,
          "velocity": 1,
          "duration": 0.48780400000015334
        },
        {
          "name": "E2",
          "midi": 40,
          "time": 276.8287700000011,
          "velocity": 1,
          "duration": 0.2439019999999914
        },
        {
          "name": "B2",
          "midi": 47,
          "time": 277.0726720000011,
          "velocity": 1,
          "duration": 0.4878039999999828
        },
        {
          "name": "E2",
          "midi": 40,
          "time": 277.0726720000011,
          "velocity": 1,
          "duration": 0.4878039999999828
        },
        {
          "name": "E2",
          "midi": 40,
          "time": 277.5604760000011,
          "velocity": 1,
          "duration": 0.2439019999999914
        },
        {
          "name": "B2",
          "midi": 47,
          "time": 277.5604760000011,
          "velocity": 1,
          "duration": 0.2439019999999914
        },
        {
          "name": "F#3",
          "midi": 54,
          "time": 277.80437800000107,
          "velocity": 1,
          "duration": 0.2439019999999914
        },
        {
          "name": "A#2",
          "midi": 46,
          "time": 278.04828000000106,
          "velocity": 1,
          "duration": 0.2439019999999914
        },
        {
          "name": "A2",
          "midi": 45,
          "time": 278.29218200000105,
          "velocity": 1,
          "duration": 0.48780400000015334
        },
        {
          "name": "E2",
          "midi": 40,
          "time": 278.7799860000012,
          "velocity": 1,
          "duration": 0.2439019999999914
        },
        {
          "name": "G2",
          "midi": 43,
          "time": 279.0238880000012,
          "velocity": 1,
          "duration": 0.4878039999999828
        },
        {
          "name": "D3",
          "midi": 50,
          "time": 279.0238880000012,
          "velocity": 1,
          "duration": 0.4878039999999828
        },
        {
          "name": "E2",
          "midi": 40,
          "time": 279.5116920000012,
          "velocity": 1,
          "duration": 0.2439019999999914
        },
        {
          "name": "F#2",
          "midi": 42,
          "time": 279.75559400000117,
          "velocity": 1,
          "duration": 0.2439019999999914
        },
        {
          "name": "C#3",
          "midi": 49,
          "time": 279.75559400000117,
          "velocity": 1,
          "duration": 0.2439019999999914
        },
        {
          "name": "E2",
          "midi": 40,
          "time": 279.99949600000116,
          "velocity": 1,
          "duration": 0.2439019999999914
        },
        {
          "name": "C#3",
          "midi": 49,
          "time": 280.24339800000115,
          "velocity": 1,
          "duration": 0.2439019999999914
        },
        {
          "name": "F#2",
          "midi": 42,
          "time": 280.24339800000115,
          "velocity": 1,
          "duration": 0.2439019999999914
        },
        {
          "name": "G2",
          "midi": 43,
          "time": 280.48730000000114,
          "velocity": 1,
          "duration": 0.2439019999999914
        },
        {
          "name": "D3",
          "midi": 50,
          "time": 280.48730000000114,
          "velocity": 1,
          "duration": 0.2439019999999914
        },
        {
          "name": "F#2",
          "midi": 42,
          "time": 280.73120200000113,
          "velocity": 1,
          "duration": 0.2439019999999914
        },
        {
          "name": "C#3",
          "midi": 49,
          "time": 280.73120200000113,
          "velocity": 1,
          "duration": 0.2439019999999914
        },
        {
          "name": "E2",
          "midi": 40,
          "time": 280.9751040000011,
          "velocity": 1,
          "duration": 0.4878039999999828
        },
        {
          "name": "B2",
          "midi": 47,
          "time": 280.9751040000011,
          "velocity": 1,
          "duration": 0.4878039999999828
        },
        {
          "name": "E2",
          "midi": 40,
          "time": 281.4629080000011,
          "velocity": 1,
          "duration": 0.2439019999999914
        },
        {
          "name": "E3",
          "midi": 52,
          "time": 281.7068100000011,
          "velocity": 1,
          "duration": 0.2439019999999914
        },
        {
          "name": "A#2",
          "midi": 46,
          "time": 281.9507120000011,
          "velocity": 1,
          "duration": 0.2439019999999914
        },
        {
          "name": "A2",
          "midi": 45,
          "time": 282.1946140000011,
          "velocity": 1,
          "duration": 0.2439019999999914
        },
        {
          "name": "E2",
          "midi": 40,
          "time": 282.4385160000011,
          "velocity": 1,
          "duration": 0.2439019999999914
        },
        {
          "name": "E2",
          "midi": 40,
          "time": 282.68241800000106,
          "velocity": 1,
          "duration": 0.2439019999999914
        },
        {
          "name": "C3",
          "midi": 48,
          "time": 282.92632000000106,
          "velocity": 1,
          "duration": 0.2439019999999914
        },
        {
          "name": "F2",
          "midi": 41,
          "time": 282.92632000000106,
          "velocity": 1,
          "duration": 0.2439019999999914
        },
        {
          "name": "E2",
          "midi": 40,
          "time": 283.17022200000105,
          "velocity": 1,
          "duration": 0.2439019999999914
        },
        {
          "name": "E2",
          "midi": 40,
          "time": 283.41412400000104,
          "velocity": 1,
          "duration": 0.2439019999999914
        },
        {
          "name": "E3",
          "midi": 52,
          "time": 283.65802600000103,
          "velocity": 1,
          "duration": 0.2439019999999914
        },
        {
          "name": "A#2",
          "midi": 46,
          "time": 283.901928000001,
          "velocity": 1,
          "duration": 0.2439019999999914
        },
        {
          "name": "A2",
          "midi": 45,
          "time": 284.145830000001,
          "velocity": 1,
          "duration": 0.2439019999999914
        },
        {
          "name": "E2",
          "midi": 40,
          "time": 284.389732000001,
          "velocity": 1,
          "duration": 0.2439019999999914
        },
        {
          "name": "E2",
          "midi": 40,
          "time": 284.633634000001,
          "velocity": 1,
          "duration": 0.2439019999999914
        },
        {
          "name": "F2",
          "midi": 41,
          "time": 284.877536000001,
          "velocity": 1,
          "duration": 0.2439019999999914
        },
        {
          "name": "C3",
          "midi": 48,
          "time": 284.877536000001,
          "velocity": 1,
          "duration": 0.2439019999999914
        },
        {
          "name": "E2",
          "midi": 40,
          "time": 285.121438000001,
          "velocity": 1,
          "duration": 0.2439019999999914
        },
        {
          "name": "E2",
          "midi": 40,
          "time": 285.36534000000097,
          "velocity": 1,
          "duration": 0.2439019999999914
        },
        {
          "name": "E3",
          "midi": 52,
          "time": 285.60924200000096,
          "velocity": 1,
          "duration": 0.2439019999999914
        },
        {
          "name": "A#2",
          "midi": 46,
          "time": 285.85314400000095,
          "velocity": 1,
          "duration": 0.2439019999999914
        },
        {
          "name": "A2",
          "midi": 45,
          "time": 286.09704600000094,
          "velocity": 1,
          "duration": 0.2439019999999914
        },
        {
          "name": "E2",
          "midi": 40,
          "time": 286.34094800000094,
          "velocity": 1,
          "duration": 0.2439019999999914
        },
        {
          "name": "E2",
          "midi": 40,
          "time": 286.5848500000009,
          "velocity": 1,
          "duration": 0.2439019999999914
        },
        {
          "name": "F2",
          "midi": 41,
          "time": 286.8287520000009,
          "velocity": 1,
          "duration": 0.2439019999999914
        },
        {
          "name": "C3",
          "midi": 48,
          "time": 286.8287520000009,
          "velocity": 1,
          "duration": 0.2439019999999914
        },
        {
          "name": "E2",
          "midi": 40,
          "time": 287.0726540000009,
          "velocity": 1,
          "duration": 0.2439019999999914
        },
        {
          "name": "E2",
          "midi": 40,
          "time": 287.3165560000009,
          "velocity": 1,
          "duration": 0.2439019999999914
        },
        {
          "name": "E3",
          "midi": 52,
          "time": 287.5604580000009,
          "velocity": 1,
          "duration": 0.2439019999999914
        },
        {
          "name": "A#2",
          "midi": 46,
          "time": 287.8043600000009,
          "velocity": 1,
          "duration": 0.2439019999999914
        },
        {
          "name": "A2",
          "midi": 45,
          "time": 288.0482620000009,
          "velocity": 1,
          "duration": 0.2439019999999914
        },
        {
          "name": "E2",
          "midi": 40,
          "time": 288.29216400000087,
          "velocity": 1,
          "duration": 0.2439019999999914
        },
        {
          "name": "E2",
          "midi": 40,
          "time": 288.53606600000086,
          "velocity": 1,
          "duration": 0.2439019999999914
        },
        {
          "name": "F2",
          "midi": 41,
          "time": 288.77996800000085,
          "velocity": 1,
          "duration": 0.2439019999999914
        },
        {
          "name": "C3",
          "midi": 48,
          "time": 288.77996800000085,
          "velocity": 1,
          "duration": 0.2439019999999914
        },
        {
          "name": "E2",
          "midi": 40,
          "time": 289.02387000000084,
          "velocity": 1,
          "duration": 0.2439019999999914
        },
        {
          "name": "E2",
          "midi": 40,
          "time": 289.26777200000083,
          "velocity": 1,
          "duration": 0.2439019999999914
        },
        {
          "name": "E3",
          "midi": 52,
          "time": 289.5116740000008,
          "velocity": 1,
          "duration": 0.2439019999999914
        },
        {
          "name": "A#2",
          "midi": 46,
          "time": 289.7555760000008,
          "velocity": 1,
          "duration": 0.2439019999999914
        },
        {
          "name": "E2",
          "midi": 40,
          "time": 289.9994780000008,
          "velocity": 1,
          "duration": 0.2439019999999914
        },
        {
          "name": "E2",
          "midi": 40,
          "time": 290.2433800000008,
          "velocity": 1,
          "duration": 0.2439019999999914
        },
        {
          "name": "E2",
          "midi": 40,
          "time": 290.4872820000008,
          "velocity": 1,
          "duration": 0.2439019999999914
        },
        {
          "name": "C3",
          "midi": 48,
          "time": 290.7311840000008,
          "velocity": 1,
          "duration": 0.2439019999999914
        },
        {
          "name": "F2",
          "midi": 41,
          "time": 290.7311840000008,
          "velocity": 1,
          "duration": 0.2439019999999914
        },
        {
          "name": "E2",
          "midi": 40,
          "time": 290.9750860000008,
          "velocity": 1,
          "duration": 0.2439019999999914
        },
        {
          "name": "E2",
          "midi": 40,
          "time": 291.21898800000076,
          "velocity": 1,
          "duration": 0.2439019999999914
        },
        {
          "name": "E3",
          "midi": 52,
          "time": 291.46289000000075,
          "velocity": 1,
          "duration": 0.2439019999999914
        },
        {
          "name": "A#2",
          "midi": 46,
          "time": 291.70679200000075,
          "velocity": 1,
          "duration": 0.2439019999999914
        },
        {
          "name": "E2",
          "midi": 40,
          "time": 291.95069400000074,
          "velocity": 1,
          "duration": 0.2439019999999914
        },
        {
          "name": "E2",
          "midi": 40,
          "time": 292.19459600000073,
          "velocity": 1,
          "duration": 0.2439019999999914
        },
        {
          "name": "E2",
          "midi": 40,
          "time": 292.4384980000007,
          "velocity": 1,
          "duration": 0.2439019999999914
        },
        {
          "name": "C3",
          "midi": 48,
          "time": 292.6824000000007,
          "velocity": 1,
          "duration": 0.2439019999999914
        },
        {
          "name": "F2",
          "midi": 41,
          "time": 292.6824000000007,
          "velocity": 1,
          "duration": 0.2439019999999914
        },
        {
          "name": "E2",
          "midi": 40,
          "time": 292.9263020000007,
          "velocity": 1,
          "duration": 0.2439019999999914
        },
        {
          "name": "E2",
          "midi": 40,
          "time": 293.1702040000007,
          "velocity": 1,
          "duration": 0.2439019999999914
        },
        {
          "name": "E3",
          "midi": 52,
          "time": 293.4141060000007,
          "velocity": 1,
          "duration": 0.2439019999999914
        },
        {
          "name": "A#2",
          "midi": 46,
          "time": 293.6580080000007,
          "velocity": 1,
          "duration": 0.2439019999999914
        },
        {
          "name": "E2",
          "midi": 40,
          "time": 293.90191000000067,
          "velocity": 1,
          "duration": 0.2439019999999914
        },
        {
          "name": "E2",
          "midi": 40,
          "time": 294.14581200000066,
          "velocity": 1,
          "duration": 0.2439019999999914
        },
        {
          "name": "E2",
          "midi": 40,
          "time": 294.38971400000065,
          "velocity": 1,
          "duration": 0.2439019999999914
        },
        {
          "name": "C3",
          "midi": 48,
          "time": 294.63361600000064,
          "velocity": 1,
          "duration": 0.2439019999999914
        },
        {
          "name": "F2",
          "midi": 41,
          "time": 294.63361600000064,
          "velocity": 1,
          "duration": 0.2439019999999914
        },
        {
          "name": "E2",
          "midi": 40,
          "time": 294.87751800000063,
          "velocity": 1,
          "duration": 0.2439019999999914
        },
        {
          "name": "E2",
          "midi": 40,
          "time": 295.1214200000006,
          "velocity": 1,
          "duration": 0.2439019999999914
        },
        {
          "name": "E3",
          "midi": 52,
          "time": 295.3653220000006,
          "velocity": 1,
          "duration": 0.2439019999999914
        },
        {
          "name": "A#2",
          "midi": 46,
          "time": 295.6092240000006,
          "velocity": 1,
          "duration": 0.2439019999999914
        },
        {
          "name": "E2",
          "midi": 40,
          "time": 295.8531260000006,
          "velocity": 1,
          "duration": 0.2439019999999914
        },
        {
          "name": "E2",
          "midi": 40,
          "time": 296.0970280000006,
          "velocity": 1,
          "duration": 0.2439019999999914
        },
        {
          "name": "E2",
          "midi": 40,
          "time": 296.3409300000006,
          "velocity": 1,
          "duration": 0.2439019999999914
        },
        {
          "name": "C3",
          "midi": 48,
          "time": 296.5848320000006,
          "velocity": 1,
          "duration": 0.2439019999999914
        },
        {
          "name": "F2",
          "midi": 41,
          "time": 296.5848320000006,
          "velocity": 1,
          "duration": 0.2439019999999914
        },
        {
          "name": "E2",
          "midi": 40,
          "time": 296.82873400000057,
          "velocity": 1,
          "duration": 0.2439019999999914
        },
        {
          "name": "E2",
          "midi": 40,
          "time": 297.07263600000056,
          "velocity": 1,
          "duration": 0.2439019999999914
        },
        {
          "name": "E3",
          "midi": 52,
          "time": 297.31653800000055,
          "velocity": 1,
          "duration": 0.2439019999999914
        },
        {
          "name": "E2",
          "midi": 40,
          "time": 297.56044000000054,
          "velocity": 1,
          "duration": 0.2439019999999914
        },
        {
          "name": "E2",
          "midi": 40,
          "time": 297.80434200000053,
          "velocity": 1,
          "duration": 0.2439019999999914
        },
        {
          "name": "E2",
          "midi": 40,
          "time": 298.0482440000005,
          "velocity": 1,
          "duration": 0.2439019999999914
        },
        {
          "name": "E2",
          "midi": 40,
          "time": 298.2921460000005,
          "velocity": 1,
          "duration": 0.2439019999999914
        },
        {
          "name": "E2",
          "midi": 40,
          "time": 298.5360480000005,
          "velocity": 1,
          "duration": 0.2439019999999914
        },
        {
          "name": "E2",
          "midi": 40,
          "time": 298.7799500000005,
          "velocity": 1,
          "duration": 0.2439019999999914
        },
        {
          "name": "E2",
          "midi": 40,
          "time": 299.0238520000005,
          "velocity": 1,
          "duration": 0.2439019999999914
        },
        {
          "name": "E3",
          "midi": 52,
          "time": 299.2677540000005,
          "velocity": 1,
          "duration": 0.2439019999999914
        },
        {
          "name": "E2",
          "midi": 40,
          "time": 299.51165600000047,
          "velocity": 1,
          "duration": 0.2439019999999914
        },
        {
          "name": "E2",
          "midi": 40,
          "time": 299.75555800000046,
          "velocity": 1,
          "duration": 0.2439019999999914
        },
        {
          "name": "E2",
          "midi": 40,
          "time": 299.99946000000045,
          "velocity": 1,
          "duration": 0.2439019999999914
        },
        {
          "name": "E2",
          "midi": 40,
          "time": 300.24336200000045,
          "velocity": 1,
          "duration": 0.2439019999999914
        },
        {
          "name": "E2",
          "midi": 40,
          "time": 300.48726400000044,
          "velocity": 1,
          "duration": 0.2439019999999914
        },
        {
          "name": "E2",
          "midi": 40,
          "time": 300.7311660000004,
          "velocity": 1,
          "duration": 0.2439019999999914
        },
        {
          "name": "E2",
          "midi": 40,
          "time": 300.9750680000004,
          "velocity": 1,
          "duration": 0.2439019999999914
        },
        {
          "name": "E3",
          "midi": 52,
          "time": 301.2189700000004,
          "velocity": 1,
          "duration": 0.2439019999999914
        },
        {
          "name": "E2",
          "midi": 40,
          "time": 301.4628720000004,
          "velocity": 1,
          "duration": 0.2439019999999914
        },
        {
          "name": "E2",
          "midi": 40,
          "time": 301.7067740000004,
          "velocity": 1,
          "duration": 0.2439019999999914
        },
        {
          "name": "E2",
          "midi": 40,
          "time": 301.9506760000004,
          "velocity": 1,
          "duration": 0.2439019999999914
        },
        {
          "name": "E2",
          "midi": 40,
          "time": 302.1945780000004,
          "velocity": 1,
          "duration": 0.2439019999999914
        },
        {
          "name": "E2",
          "midi": 40,
          "time": 302.43848000000037,
          "velocity": 1,
          "duration": 0.2439019999999914
        },
        {
          "name": "E2",
          "midi": 40,
          "time": 302.68238200000036,
          "velocity": 1,
          "duration": 0.2439019999999914
        },
        {
          "name": "E2",
          "midi": 40,
          "time": 302.92628400000035,
          "velocity": 1,
          "duration": 0.2439019999999914
        },
        {
          "name": "E3",
          "midi": 52,
          "time": 303.17018600000034,
          "velocity": 1,
          "duration": 0.2439019999999914
        },
        {
          "name": "E2",
          "midi": 40,
          "time": 303.41408800000033,
          "velocity": 1,
          "duration": 0.2439019999999914
        },
        {
          "name": "E2",
          "midi": 40,
          "time": 303.6579900000003,
          "velocity": 1,
          "duration": 0.2439019999999914
        },
        {
          "name": "E2",
          "midi": 40,
          "time": 303.9018920000003,
          "velocity": 1,
          "duration": 0.2439019999999914
        },
        {
          "name": "E2",
          "midi": 40,
          "time": 304.1457940000003,
          "velocity": 1,
          "duration": 0.2439019999999914
        },
        {
          "name": "E2",
          "midi": 40,
          "time": 304.3896960000003,
          "velocity": 1,
          "duration": 0.2439019999999914
        },
        {
          "name": "E2",
          "midi": 40,
          "time": 304.6335980000003,
          "velocity": 1,
          "duration": 0.2439019999999914
        },
        {
          "name": "E2",
          "midi": 40,
          "time": 304.8775000000003,
          "velocity": 1,
          "duration": 0.2439019999999914
        },
        {
          "name": "E3",
          "midi": 52,
          "time": 305.1214020000003,
          "velocity": 1,
          "duration": 0.2439019999999914
        },
        {
          "name": "E2",
          "midi": 40,
          "time": 305.36530400000026,
          "velocity": 1,
          "duration": 0.2439019999999914
        },
        {
          "name": "E2",
          "midi": 40,
          "time": 305.60920600000026,
          "velocity": 1,
          "duration": 0.2439019999999914
        },
        {
          "name": "E2",
          "midi": 40,
          "time": 305.85310800000025,
          "velocity": 1,
          "duration": 0.2439019999999914
        },
        {
          "name": "E2",
          "midi": 40,
          "time": 306.09701000000024,
          "velocity": 1,
          "duration": 0.2439019999999914
        },
        {
          "name": "E2",
          "midi": 40,
          "time": 306.34091200000023,
          "velocity": 1,
          "duration": 0.2439019999999914
        },
        {
          "name": "E2",
          "midi": 40,
          "time": 306.5848140000002,
          "velocity": 1,
          "duration": 0.2439019999999914
        },
        {
          "name": "E2",
          "midi": 40,
          "time": 306.8287160000002,
          "velocity": 1,
          "duration": 0.2439019999999914
        },
        {
          "name": "E3",
          "midi": 52,
          "time": 307.0726180000002,
          "velocity": 1,
          "duration": 0.2439019999999914
        },
        {
          "name": "E2",
          "midi": 40,
          "time": 307.3165200000002,
          "velocity": 1,
          "duration": 0.2439019999999914
        },
        {
          "name": "E2",
          "midi": 40,
          "time": 307.5604220000002,
          "velocity": 1,
          "duration": 0.2439019999999914
        },
        {
          "name": "E2",
          "midi": 40,
          "time": 307.8043240000002,
          "velocity": 1,
          "duration": 0.2439019999999914
        },
        {
          "name": "E2",
          "midi": 40,
          "time": 308.04822600000017,
          "velocity": 1,
          "duration": 0.2439019999999914
        },
        {
          "name": "E2",
          "midi": 40,
          "time": 308.29212800000016,
          "velocity": 1,
          "duration": 0.2439019999999914
        },
        {
          "name": "E2",
          "midi": 40,
          "time": 308.53603000000015,
          "velocity": 1,
          "duration": 0.24390200000004825
        },
        {
          "name": "E2",
          "midi": 40,
          "time": 308.7799320000002,
          "velocity": 1,
          "duration": 0.24390200000004825
        },
        {
          "name": "E3",
          "midi": 52,
          "time": 309.02383400000025,
          "velocity": 1,
          "duration": 0.24390200000004825
        },
        {
          "name": "E2",
          "midi": 40,
          "time": 309.2677360000003,
          "velocity": 1,
          "duration": 0.24390200000004825
        },
        {
          "name": "E2",
          "midi": 40,
          "time": 309.51163800000035,
          "velocity": 1,
          "duration": 0.2439019999999914
        },
        {
          "name": "E2",
          "midi": 40,
          "time": 309.75554000000034,
          "velocity": 1,
          "duration": 0.2439019999999914
        },
        {
          "name": "E2",
          "midi": 40,
          "time": 309.99944200000033,
          "velocity": 1,
          "duration": 0.2439019999999914
        },
        {
          "name": "E2",
          "midi": 40,
          "time": 310.2433440000003,
          "velocity": 1,
          "duration": 0.2439019999999914
        },
        {
          "name": "E2",
          "midi": 40,
          "time": 310.4872460000003,
          "velocity": 1,
          "duration": 0.2439019999999914
        },
        {
          "name": "E2",
          "midi": 40,
          "time": 310.7311480000003,
          "velocity": 1,
          "duration": 0.2439019999999914
        },
        {
          "name": "E3",
          "midi": 52,
          "time": 310.9750500000003,
          "velocity": 1,
          "duration": 0.2439019999999914
        },
        {
          "name": "E2",
          "midi": 40,
          "time": 311.2189520000003,
          "velocity": 1,
          "duration": 0.2439019999999914
        },
        {
          "name": "E2",
          "midi": 40,
          "time": 311.4628540000003,
          "velocity": 1,
          "duration": 0.2439019999999914
        },
        {
          "name": "E2",
          "midi": 40,
          "time": 311.70675600000027,
          "velocity": 1,
          "duration": 0.24390200000004825
        },
        {
          "name": "E2",
          "midi": 40,
          "time": 311.9506580000003,
          "velocity": 1,
          "duration": 0.24390200000004825
        },
        {
          "name": "E2",
          "midi": 40,
          "time": 312.19456000000037,
          "velocity": 1,
          "duration": 0.2439019999999914
        },
        {
          "name": "E2",
          "midi": 40,
          "time": 312.43846200000036,
          "velocity": 1,
          "duration": 0.24390200000004825
        },
        {
          "name": "E2",
          "midi": 40,
          "time": 312.6823640000004,
          "velocity": 1,
          "duration": 0.24390200000004825
        },
        {
          "name": "E3",
          "midi": 52,
          "time": 312.92626600000045,
          "velocity": 1,
          "duration": 0.2439019999999914
        },
        {
          "name": "E2",
          "midi": 40,
          "time": 313.17016800000044,
          "velocity": 1,
          "duration": 0.24390200000004825
        },
        {
          "name": "E2",
          "midi": 40,
          "time": 313.4140700000005,
          "velocity": 1,
          "duration": 0.2439019999999914
        },
        {
          "name": "E2",
          "midi": 40,
          "time": 313.6579720000005,
          "velocity": 1,
          "duration": 0.2439019999999914
        },
        {
          "name": "E2",
          "midi": 40,
          "time": 313.9018740000005,
          "velocity": 1,
          "duration": 0.2439019999999914
        },
        {
          "name": "E2",
          "midi": 40,
          "time": 314.14577600000047,
          "velocity": 1,
          "duration": 0.24390200000004825
        },
        {
          "name": "E2",
          "midi": 40,
          "time": 314.3896780000005,
          "velocity": 1,
          "duration": 0.2439019999999914
        },
        {
          "name": "E2",
          "midi": 40,
          "time": 314.6335800000005,
          "velocity": 1,
          "duration": 0.2439019999999914
        },
        {
          "name": "E3",
          "midi": 52,
          "time": 314.8774820000005,
          "velocity": 1,
          "duration": 0.24390200000004825
        },
        {
          "name": "E2",
          "midi": 40,
          "time": 315.12138400000055,
          "velocity": 1,
          "duration": 0.2439019999999914
        },
        {
          "name": "E2",
          "midi": 40,
          "time": 315.36528600000054,
          "velocity": 1,
          "duration": 0.2439019999999914
        },
        {
          "name": "E2",
          "midi": 40,
          "time": 315.60918800000053,
          "velocity": 1,
          "duration": 0.24390200000004825
        },
        {
          "name": "E2",
          "midi": 40,
          "time": 315.8530900000006,
          "velocity": 1,
          "duration": 0.2439019999999914
        },
        {
          "name": "E2",
          "midi": 40,
          "time": 316.09699200000057,
          "velocity": 1,
          "duration": 0.2439019999999914
        },
        {
          "name": "E2",
          "midi": 40,
          "time": 316.34089400000056,
          "velocity": 1,
          "duration": 0.24390200000004825
        },
        {
          "name": "E2",
          "midi": 40,
          "time": 316.5847960000006,
          "velocity": 1,
          "duration": 0.2439019999999914
        },
        {
          "name": "E3",
          "midi": 52,
          "time": 316.8286980000006,
          "velocity": 1,
          "duration": 0.2439019999999914
        },
        {
          "name": "E2",
          "midi": 40,
          "time": 317.0726000000006,
          "velocity": 1,
          "duration": 0.2439019999999914
        },
        {
          "name": "E2",
          "midi": 40,
          "time": 317.3165020000006,
          "velocity": 1,
          "duration": 0.2439019999999914
        },
        {
          "name": "E2",
          "midi": 40,
          "time": 317.5604040000006,
          "velocity": 1,
          "duration": 0.2439019999999914
        },
        {
          "name": "E2",
          "midi": 40,
          "time": 317.80430600000057,
          "velocity": 1,
          "duration": 0.2439019999999914
        },
        {
          "name": "E2",
          "midi": 40,
          "time": 318.04820800000056,
          "velocity": 1,
          "duration": 0.24390200000004825
        },
        {
          "name": "E2",
          "midi": 40,
          "time": 318.2921100000006,
          "velocity": 1,
          "duration": 0.2439019999999914
        },
        {
          "name": "E2",
          "midi": 40,
          "time": 318.5360120000006,
          "velocity": 1,
          "duration": 0.2439019999999914
        },
        {
          "name": "E3",
          "midi": 52,
          "time": 318.7799140000006,
          "velocity": 1,
          "duration": 0.24390200000004825
        },
        {
          "name": "E2",
          "midi": 40,
          "time": 319.02381600000064,
          "velocity": 1,
          "duration": 0.2439019999999914
        },
        {
          "name": "E2",
          "midi": 40,
          "time": 319.2677180000006,
          "velocity": 1,
          "duration": 0.24390200000004825
        },
        {
          "name": "E2",
          "midi": 40,
          "time": 319.5116200000007,
          "velocity": 1,
          "duration": 0.24390200000004825
        },
        {
          "name": "E2",
          "midi": 40,
          "time": 319.7555220000007,
          "velocity": 1,
          "duration": 0.24390200000004825
        },
        {
          "name": "E2",
          "midi": 40,
          "time": 319.9994240000008,
          "velocity": 1,
          "duration": 0.24390200000004825
        },
        {
          "name": "E2",
          "midi": 40,
          "time": 320.2433260000008,
          "velocity": 1,
          "duration": 0.24390200000004825
        },
        {
          "name": "E2",
          "midi": 40,
          "time": 320.48722800000087,
          "velocity": 1,
          "duration": 0.24390200000004825
        },
        {
          "name": "E3",
          "midi": 52,
          "time": 320.7311300000009,
          "velocity": 1,
          "duration": 0.2439019999999914
        },
        {
          "name": "E2",
          "midi": 40,
          "time": 320.9750320000009,
          "velocity": 1,
          "duration": 0.2439019999999914
        },
        {
          "name": "E2",
          "midi": 40,
          "time": 321.2189340000009,
          "velocity": 1,
          "duration": 0.2439019999999914
        },
        {
          "name": "E2",
          "midi": 40,
          "time": 321.4628360000009,
          "velocity": 1,
          "duration": 0.2439019999999914
        },
        {
          "name": "E2",
          "midi": 40,
          "time": 321.7067380000009,
          "velocity": 1,
          "duration": 0.2439019999999914
        },
        {
          "name": "E2",
          "midi": 40,
          "time": 321.9506400000009,
          "velocity": 1,
          "duration": 0.24390200000004825
        },
        {
          "name": "E2",
          "midi": 40,
          "time": 322.1945420000009,
          "velocity": 1,
          "duration": 0.2439019999999914
        },
        {
          "name": "E2",
          "midi": 40,
          "time": 322.4384440000009,
          "velocity": 1,
          "duration": 0.2439019999999914
        },
        {
          "name": "E3",
          "midi": 52,
          "time": 322.6823460000009,
          "velocity": 1,
          "duration": 0.2439019999999914
        },
        {
          "name": "E2",
          "midi": 40,
          "time": 322.9262480000009,
          "velocity": 1,
          "duration": 0.24390200000004825
        },
        {
          "name": "E2",
          "midi": 40,
          "time": 323.17015000000094,
          "velocity": 1,
          "duration": 0.24390200000004825
        },
        {
          "name": "E2",
          "midi": 40,
          "time": 323.414052000001,
          "velocity": 1,
          "duration": 0.2439019999999914
        },
        {
          "name": "E2",
          "midi": 40,
          "time": 323.657954000001,
          "velocity": 1,
          "duration": 0.24390200000004825
        },
        {
          "name": "E2",
          "midi": 40,
          "time": 323.90185600000103,
          "velocity": 1,
          "duration": 0.24390200000004825
        }
      ],
      "controlChanges": {
        "1": [
          {
            "number": 1,
            "time": 55.85355799999981,
            "value": 0
          },
          {
            "number": 1,
            "time": 55.85762303333314,
            "value": 0.047244094488188976
          },
          {
            "number": 1,
            "time": 55.861688066666474,
            "value": 0.10236220472440945
          },
          {
            "number": 1,
            "time": 55.86575309999981,
            "value": 0.14960629921259844
          },
          {
            "number": 1,
            "time": 55.86981813333314,
            "value": 0.2047244094488189
          },
          {
            "number": 1,
            "time": 55.873883166666474,
            "value": 0.25196850393700787
          },
          {
            "number": 1,
            "time": 55.87794819999981,
            "value": 0.2992125984251969
          },
          {
            "number": 1,
            "time": 55.88201323333314,
            "value": 0.3543307086614173
          },
          {
            "number": 1,
            "time": 55.88607826666647,
            "value": 0.4015748031496063
          },
          {
            "number": 1,
            "time": 55.89014329999981,
            "value": 0.4566929133858268
          },
          {
            "number": 1,
            "time": 55.89420833333314,
            "value": 0.5039370078740157
          },
          {
            "number": 1,
            "time": 56.341361999999805,
            "value": 0
          },
          {
            "number": 1,
            "time": 57.804773999999796,
            "value": 0
          },
          {
            "number": 1,
            "time": 57.80883903333313,
            "value": 0.047244094488188976
          },
          {
            "number": 1,
            "time": 57.81290406666646,
            "value": 0.10236220472440945
          },
          {
            "number": 1,
            "time": 57.816969099999795,
            "value": 0.14960629921259844
          },
          {
            "number": 1,
            "time": 57.82103413333313,
            "value": 0.2047244094488189
          },
          {
            "number": 1,
            "time": 57.82509916666646,
            "value": 0.25196850393700787
          },
          {
            "number": 1,
            "time": 57.829164199999795,
            "value": 0.2992125984251969
          },
          {
            "number": 1,
            "time": 57.83322923333313,
            "value": 0.3543307086614173
          },
          {
            "number": 1,
            "time": 57.83729426666646,
            "value": 0.4015748031496063
          },
          {
            "number": 1,
            "time": 57.841359299999795,
            "value": 0.4566929133858268
          },
          {
            "number": 1,
            "time": 57.84542433333313,
            "value": 0.5039370078740157
          },
          {
            "number": 1,
            "time": 58.29257799999979,
            "value": 0
          },
          {
            "number": 1,
            "time": 59.755989999999784,
            "value": 0
          },
          {
            "number": 1,
            "time": 59.76005503333312,
            "value": 0.047244094488188976
          },
          {
            "number": 1,
            "time": 59.76412006666645,
            "value": 0.10236220472440945
          },
          {
            "number": 1,
            "time": 59.76818509999978,
            "value": 0.14960629921259844
          },
          {
            "number": 1,
            "time": 59.77225013333312,
            "value": 0.2047244094488189
          },
          {
            "number": 1,
            "time": 59.77631516666645,
            "value": 0.25196850393700787
          },
          {
            "number": 1,
            "time": 59.78038019999978,
            "value": 0.2992125984251969
          },
          {
            "number": 1,
            "time": 59.784445233333116,
            "value": 0.3543307086614173
          },
          {
            "number": 1,
            "time": 59.78851026666645,
            "value": 0.4015748031496063
          },
          {
            "number": 1,
            "time": 59.79257529999978,
            "value": 0.4566929133858268
          },
          {
            "number": 1,
            "time": 59.796640333333116,
            "value": 0.5039370078740157
          },
          {
            "number": 1,
            "time": 60.24379399999978,
            "value": 0
          },
          {
            "number": 1,
            "time": 63.65842199999976,
            "value": 0
          },
          {
            "number": 1,
            "time": 63.66248703333309,
            "value": 0.047244094488188976
          },
          {
            "number": 1,
            "time": 63.666552066666426,
            "value": 0.10236220472440945
          },
          {
            "number": 1,
            "time": 63.67061709999976,
            "value": 0.14960629921259844
          },
          {
            "number": 1,
            "time": 63.67468213333309,
            "value": 0.2047244094488189
          },
          {
            "number": 1,
            "time": 63.678747166666426,
            "value": 0.25196850393700787
          },
          {
            "number": 1,
            "time": 63.68281219999976,
            "value": 0.2992125984251969
          },
          {
            "number": 1,
            "time": 63.68687723333309,
            "value": 0.3543307086614173
          },
          {
            "number": 1,
            "time": 63.690942266666426,
            "value": 0.4015748031496063
          },
          {
            "number": 1,
            "time": 63.69500729999976,
            "value": 0.4566929133858268
          },
          {
            "number": 1,
            "time": 63.69907233333309,
            "value": 0.5039370078740157
          },
          {
            "number": 1,
            "time": 64.14622599999976,
            "value": 0
          },
          {
            "number": 1,
            "time": 65.60963799999978,
            "value": 0
          },
          {
            "number": 1,
            "time": 65.61370303333311,
            "value": 0.047244094488188976
          },
          {
            "number": 1,
            "time": 65.61776806666644,
            "value": 0.10236220472440945
          },
          {
            "number": 1,
            "time": 65.62183309999978,
            "value": 0.14960629921259844
          },
          {
            "number": 1,
            "time": 65.62589813333311,
            "value": 0.2047244094488189
          },
          {
            "number": 1,
            "time": 65.62996316666644,
            "value": 0.25196850393700787
          },
          {
            "number": 1,
            "time": 65.63402819999978,
            "value": 0.2992125984251969
          },
          {
            "number": 1,
            "time": 65.63809323333311,
            "value": 0.3543307086614173
          },
          {
            "number": 1,
            "time": 65.64215826666644,
            "value": 0.4015748031496063
          },
          {
            "number": 1,
            "time": 65.64622329999978,
            "value": 0.4566929133858268
          },
          {
            "number": 1,
            "time": 65.65028833333311,
            "value": 0.5039370078740157
          },
          {
            "number": 1,
            "time": 66.09744199999977,
            "value": 0
          },
          {
            "number": 1,
            "time": 67.5608539999998,
            "value": 0
          },
          {
            "number": 1,
            "time": 67.56491903333313,
            "value": 0.047244094488188976
          },
          {
            "number": 1,
            "time": 67.56898406666646,
            "value": 0.10236220472440945
          },
          {
            "number": 1,
            "time": 67.57304909999979,
            "value": 0.14960629921259844
          },
          {
            "number": 1,
            "time": 67.57711413333313,
            "value": 0.2047244094488189
          },
          {
            "number": 1,
            "time": 67.58117916666646,
            "value": 0.25196850393700787
          },
          {
            "number": 1,
            "time": 67.58524419999979,
            "value": 0.2992125984251969
          },
          {
            "number": 1,
            "time": 67.58930923333313,
            "value": 0.3543307086614173
          },
          {
            "number": 1,
            "time": 67.59337426666646,
            "value": 0.4015748031496063
          },
          {
            "number": 1,
            "time": 67.59743929999979,
            "value": 0.4566929133858268
          },
          {
            "number": 1,
            "time": 67.60150433333312,
            "value": 0.5039370078740157
          },
          {
            "number": 1,
            "time": 68.04865799999979,
            "value": 0
          },
          {
            "number": 1,
            "time": 108.53639000000028,
            "value": 0
          },
          {
            "number": 1,
            "time": 108.54045503333361,
            "value": 0.047244094488188976
          },
          {
            "number": 1,
            "time": 108.54452006666695,
            "value": 0.10236220472440945
          },
          {
            "number": 1,
            "time": 108.54858510000028,
            "value": 0.14960629921259844
          },
          {
            "number": 1,
            "time": 108.55265013333361,
            "value": 0.2047244094488189
          },
          {
            "number": 1,
            "time": 108.55671516666695,
            "value": 0.25196850393700787
          },
          {
            "number": 1,
            "time": 108.56078020000028,
            "value": 0.2992125984251969
          },
          {
            "number": 1,
            "time": 108.56484523333361,
            "value": 0.3543307086614173
          },
          {
            "number": 1,
            "time": 108.56891026666695,
            "value": 0.4015748031496063
          },
          {
            "number": 1,
            "time": 108.57297530000028,
            "value": 0.4566929133858268
          },
          {
            "number": 1,
            "time": 108.57704033333361,
            "value": 0.5039370078740157
          },
          {
            "number": 1,
            "time": 109.02419400000028,
            "value": 0
          },
          {
            "number": 1,
            "time": 110.4876060000003,
            "value": 0
          },
          {
            "number": 1,
            "time": 110.49167103333363,
            "value": 0.047244094488188976
          },
          {
            "number": 1,
            "time": 110.49573606666696,
            "value": 0.10236220472440945
          },
          {
            "number": 1,
            "time": 110.4998011000003,
            "value": 0.14960629921259844
          },
          {
            "number": 1,
            "time": 110.50386613333363,
            "value": 0.2047244094488189
          },
          {
            "number": 1,
            "time": 110.50793116666696,
            "value": 0.25196850393700787
          },
          {
            "number": 1,
            "time": 110.5119962000003,
            "value": 0.2992125984251969
          },
          {
            "number": 1,
            "time": 110.51606123333363,
            "value": 0.3543307086614173
          },
          {
            "number": 1,
            "time": 110.52012626666696,
            "value": 0.4015748031496063
          },
          {
            "number": 1,
            "time": 110.5241913000003,
            "value": 0.4566929133858268
          },
          {
            "number": 1,
            "time": 110.52825633333363,
            "value": 0.5039370078740157
          },
          {
            "number": 1,
            "time": 110.9754100000003,
            "value": 0
          },
          {
            "number": 1,
            "time": 112.43882200000031,
            "value": 0
          },
          {
            "number": 1,
            "time": 112.44288703333365,
            "value": 0.047244094488188976
          },
          {
            "number": 1,
            "time": 112.44695206666698,
            "value": 0.10236220472440945
          },
          {
            "number": 1,
            "time": 112.45101710000031,
            "value": 0.14960629921259844
          },
          {
            "number": 1,
            "time": 112.45508213333365,
            "value": 0.2047244094488189
          },
          {
            "number": 1,
            "time": 112.45914716666698,
            "value": 0.25196850393700787
          },
          {
            "number": 1,
            "time": 112.46321220000031,
            "value": 0.2992125984251969
          },
          {
            "number": 1,
            "time": 112.46727723333365,
            "value": 0.3543307086614173
          },
          {
            "number": 1,
            "time": 112.47134226666698,
            "value": 0.4015748031496063
          },
          {
            "number": 1,
            "time": 112.47540730000031,
            "value": 0.4566929133858268
          },
          {
            "number": 1,
            "time": 112.47947233333365,
            "value": 0.5039370078740157
          },
          {
            "number": 1,
            "time": 112.92662600000031,
            "value": 0
          },
          {
            "number": 1,
            "time": 116.34125400000036,
            "value": 0
          },
          {
            "number": 1,
            "time": 116.3453190333337,
            "value": 0.047244094488188976
          },
          {
            "number": 1,
            "time": 116.34938406666703,
            "value": 0.10236220472440945
          },
          {
            "number": 1,
            "time": 116.35344910000036,
            "value": 0.14960629921259844
          },
          {
            "number": 1,
            "time": 116.3575141333337,
            "value": 0.2047244094488189
          },
          {
            "number": 1,
            "time": 116.36157916666703,
            "value": 0.25196850393700787
          },
          {
            "number": 1,
            "time": 116.36564420000036,
            "value": 0.2992125984251969
          },
          {
            "number": 1,
            "time": 116.3697092333337,
            "value": 0.3543307086614173
          },
          {
            "number": 1,
            "time": 116.37377426666703,
            "value": 0.4015748031496063
          },
          {
            "number": 1,
            "time": 116.37783930000036,
            "value": 0.4566929133858268
          },
          {
            "number": 1,
            "time": 116.3819043333337,
            "value": 0.5039370078740157
          },
          {
            "number": 1,
            "time": 116.82905800000036,
            "value": 0
          },
          {
            "number": 1,
            "time": 118.29247000000038,
            "value": 0
          },
          {
            "number": 1,
            "time": 118.29653503333371,
            "value": 0.047244094488188976
          },
          {
            "number": 1,
            "time": 118.30060006666704,
            "value": 0.10236220472440945
          },
          {
            "number": 1,
            "time": 118.30466510000038,
            "value": 0.14960629921259844
          },
          {
            "number": 1,
            "time": 118.30873013333371,
            "value": 0.2047244094488189
          },
          {
            "number": 1,
            "time": 118.31279516666704,
            "value": 0.25196850393700787
          },
          {
            "number": 1,
            "time": 118.31686020000038,
            "value": 0.2992125984251969
          },
          {
            "number": 1,
            "time": 118.32092523333371,
            "value": 0.3543307086614173
          },
          {
            "number": 1,
            "time": 118.32499026666704,
            "value": 0.4015748031496063
          },
          {
            "number": 1,
            "time": 118.32905530000038,
            "value": 0.4566929133858268
          },
          {
            "number": 1,
            "time": 118.33312033333371,
            "value": 0.5039370078740157
          },
          {
            "number": 1,
            "time": 118.78027400000038,
            "value": 0
          },
          {
            "number": 1,
            "time": 120.2436860000004,
            "value": 0
          },
          {
            "number": 1,
            "time": 120.24775103333373,
            "value": 0.047244094488188976
          },
          {
            "number": 1,
            "time": 120.25181606666706,
            "value": 0.10236220472440945
          },
          {
            "number": 1,
            "time": 120.2558811000004,
            "value": 0.14960629921259844
          },
          {
            "number": 1,
            "time": 120.25994613333373,
            "value": 0.2047244094488189
          },
          {
            "number": 1,
            "time": 120.26401116666706,
            "value": 0.25196850393700787
          },
          {
            "number": 1,
            "time": 120.2680762000004,
            "value": 0.2992125984251969
          },
          {
            "number": 1,
            "time": 120.27214123333373,
            "value": 0.3543307086614173
          },
          {
            "number": 1,
            "time": 120.27620626666706,
            "value": 0.4015748031496063
          },
          {
            "number": 1,
            "time": 120.2802713000004,
            "value": 0.4566929133858268
          },
          {
            "number": 1,
            "time": 120.28433633333373,
            "value": 0.5039370078740157
          },
          {
            "number": 1,
            "time": 120.73149000000039,
            "value": 0
          },
          {
            "number": 1,
            "time": 163.1704380000001,
            "value": 0
          },
          {
            "number": 1,
            "time": 163.17450303333345,
            "value": 0.047244094488188976
          },
          {
            "number": 1,
            "time": 163.1785680666668,
            "value": 0.10236220472440945
          },
          {
            "number": 1,
            "time": 163.18263310000015,
            "value": 0.14960629921259844
          },
          {
            "number": 1,
            "time": 163.1866981333335,
            "value": 0.2047244094488189
          },
          {
            "number": 1,
            "time": 163.19076316666684,
            "value": 0.25196850393700787
          },
          {
            "number": 1,
            "time": 163.1948282000002,
            "value": 0.2992125984251969
          },
          {
            "number": 1,
            "time": 163.19889323333354,
            "value": 0.3543307086614173
          },
          {
            "number": 1,
            "time": 163.20295826666688,
            "value": 0.4015748031496063
          },
          {
            "number": 1,
            "time": 163.20702330000023,
            "value": 0.4566929133858268
          },
          {
            "number": 1,
            "time": 163.21108833333358,
            "value": 0.5039370078740157
          },
          {
            "number": 1,
            "time": 163.65824200000026,
            "value": 0
          },
          {
            "number": 1,
            "time": 165.12165400000023,
            "value": 0
          },
          {
            "number": 1,
            "time": 165.12571903333358,
            "value": 0.047244094488188976
          },
          {
            "number": 1,
            "time": 165.12978406666693,
            "value": 0.10236220472440945
          },
          {
            "number": 1,
            "time": 165.13384910000028,
            "value": 0.14960629921259844
          },
          {
            "number": 1,
            "time": 165.13791413333362,
            "value": 0.2047244094488189
          },
          {
            "number": 1,
            "time": 165.14197916666697,
            "value": 0.25196850393700787
          },
          {
            "number": 1,
            "time": 165.14604420000032,
            "value": 0.2992125984251969
          },
          {
            "number": 1,
            "time": 165.15010923333367,
            "value": 0.3543307086614173
          },
          {
            "number": 1,
            "time": 165.154174266667,
            "value": 0.4015748031496063
          },
          {
            "number": 1,
            "time": 165.15823930000036,
            "value": 0.4566929133858268
          },
          {
            "number": 1,
            "time": 165.1623043333337,
            "value": 0.5039370078740157
          },
          {
            "number": 1,
            "time": 165.6094580000004,
            "value": 0
          },
          {
            "number": 1,
            "time": 167.07287000000036,
            "value": 0
          },
          {
            "number": 1,
            "time": 167.0769350333337,
            "value": 0.047244094488188976
          },
          {
            "number": 1,
            "time": 167.08100006666706,
            "value": 0.10236220472440945
          },
          {
            "number": 1,
            "time": 167.0850651000004,
            "value": 0.14960629921259844
          },
          {
            "number": 1,
            "time": 167.08913013333375,
            "value": 0.2047244094488189
          },
          {
            "number": 1,
            "time": 167.0931951666671,
            "value": 0.25196850393700787
          },
          {
            "number": 1,
            "time": 167.09726020000045,
            "value": 0.2992125984251969
          },
          {
            "number": 1,
            "time": 167.1013252333338,
            "value": 0.3543307086614173
          },
          {
            "number": 1,
            "time": 167.10539026666714,
            "value": 0.4015748031496063
          },
          {
            "number": 1,
            "time": 167.1094553000005,
            "value": 0.4566929133858268
          },
          {
            "number": 1,
            "time": 167.11352033333384,
            "value": 0.5039370078740157
          },
          {
            "number": 1,
            "time": 167.56067400000052,
            "value": 0
          },
          {
            "number": 1,
            "time": 170.97530200000045,
            "value": 0
          },
          {
            "number": 1,
            "time": 170.9793670333338,
            "value": 0.047244094488188976
          },
          {
            "number": 1,
            "time": 170.98343206666715,
            "value": 0.10236220472440945
          },
          {
            "number": 1,
            "time": 170.9874971000005,
            "value": 0.14960629921259844
          },
          {
            "number": 1,
            "time": 170.99156213333384,
            "value": 0.2047244094488189
          },
          {
            "number": 1,
            "time": 170.9956271666672,
            "value": 0.25196850393700787
          },
          {
            "number": 1,
            "time": 170.99969220000054,
            "value": 0.2992125984251969
          },
          {
            "number": 1,
            "time": 171.00375723333389,
            "value": 0.3543307086614173
          },
          {
            "number": 1,
            "time": 171.00782226666723,
            "value": 0.4015748031496063
          },
          {
            "number": 1,
            "time": 171.01188730000058,
            "value": 0.4566929133858268
          },
          {
            "number": 1,
            "time": 171.01595233333393,
            "value": 0.5039370078740157
          },
          {
            "number": 1,
            "time": 171.4631060000006,
            "value": 0
          },
          {
            "number": 1,
            "time": 172.92651800000058,
            "value": 0
          },
          {
            "number": 1,
            "time": 172.93058303333393,
            "value": 0.047244094488188976
          },
          {
            "number": 1,
            "time": 172.93464806666728,
            "value": 0.10236220472440945
          },
          {
            "number": 1,
            "time": 172.93871310000063,
            "value": 0.14960629921259844
          },
          {
            "number": 1,
            "time": 172.94277813333397,
            "value": 0.2047244094488189
          },
          {
            "number": 1,
            "time": 172.94684316666732,
            "value": 0.25196850393700787
          },
          {
            "number": 1,
            "time": 172.95090820000067,
            "value": 0.2992125984251969
          },
          {
            "number": 1,
            "time": 172.95497323333402,
            "value": 0.3543307086614173
          },
          {
            "number": 1,
            "time": 172.95903826666736,
            "value": 0.4015748031496063
          },
          {
            "number": 1,
            "time": 172.9631033000007,
            "value": 0.4566929133858268
          },
          {
            "number": 1,
            "time": 172.96716833333406,
            "value": 0.5039370078740157
          },
          {
            "number": 1,
            "time": 173.41432200000074,
            "value": 0
          },
          {
            "number": 1,
            "time": 174.87773400000071,
            "value": 0
          },
          {
            "number": 1,
            "time": 174.88179903333406,
            "value": 0.047244094488188976
          },
          {
            "number": 1,
            "time": 174.8858640666674,
            "value": 0.10236220472440945
          },
          {
            "number": 1,
            "time": 174.88992910000076,
            "value": 0.14960629921259844
          },
          {
            "number": 1,
            "time": 174.8939941333341,
            "value": 0.2047244094488189
          },
          {
            "number": 1,
            "time": 174.89805916666745,
            "value": 0.25196850393700787
          },
          {
            "number": 1,
            "time": 174.9021242000008,
            "value": 0.2992125984251969
          },
          {
            "number": 1,
            "time": 174.90618923333415,
            "value": 0.3543307086614173
          },
          {
            "number": 1,
            "time": 174.9102542666675,
            "value": 0.4015748031496063
          },
          {
            "number": 1,
            "time": 174.91431930000084,
            "value": 0.4566929133858268
          },
          {
            "number": 1,
            "time": 174.9183843333342,
            "value": 0.5039370078740157
          },
          {
            "number": 1,
            "time": 175.36553800000087,
            "value": 0
          },
          {
            "number": 1,
            "time": 266.58488600000044,
            "value": 0
          },
          {
            "number": 1,
            "time": 266.5889510333338,
            "value": 0.047244094488188976
          },
          {
            "number": 1,
            "time": 266.59301606666713,
            "value": 0.10236220472440945
          },
          {
            "number": 1,
            "time": 266.5970811000005,
            "value": 0.14960629921259844
          },
          {
            "number": 1,
            "time": 266.6011461333338,
            "value": 0.2047244094488189
          },
          {
            "number": 1,
            "time": 266.6052111666672,
            "value": 0.25196850393700787
          },
          {
            "number": 1,
            "time": 266.6092762000005,
            "value": 0.2992125984251969
          },
          {
            "number": 1,
            "time": 266.61334123333387,
            "value": 0.3543307086614173
          },
          {
            "number": 1,
            "time": 266.6174062666672,
            "value": 0.4015748031496063
          },
          {
            "number": 1,
            "time": 266.62147130000056,
            "value": 0.4566929133858268
          },
          {
            "number": 1,
            "time": 266.6255363333339,
            "value": 0.5039370078740157
          },
          {
            "number": 1,
            "time": 267.0726900000006,
            "value": 0
          },
          {
            "number": 1,
            "time": 268.53610200000054,
            "value": 0
          },
          {
            "number": 1,
            "time": 268.5401670333339,
            "value": 0.047244094488188976
          },
          {
            "number": 1,
            "time": 268.54423206666723,
            "value": 0.10236220472440945
          },
          {
            "number": 1,
            "time": 268.5482971000006,
            "value": 0.14960629921259844
          },
          {
            "number": 1,
            "time": 268.55236213333393,
            "value": 0.2047244094488189
          },
          {
            "number": 1,
            "time": 268.5564271666673,
            "value": 0.25196850393700787
          },
          {
            "number": 1,
            "time": 268.5604922000006,
            "value": 0.2992125984251969
          },
          {
            "number": 1,
            "time": 268.56455723333397,
            "value": 0.3543307086614173
          },
          {
            "number": 1,
            "time": 268.5686222666673,
            "value": 0.4015748031496063
          },
          {
            "number": 1,
            "time": 268.57268730000067,
            "value": 0.4566929133858268
          },
          {
            "number": 1,
            "time": 268.576752333334,
            "value": 0.5039370078740157
          },
          {
            "number": 1,
            "time": 269.0239060000007,
            "value": 0
          },
          {
            "number": 1,
            "time": 270.48731800000064,
            "value": 0
          },
          {
            "number": 1,
            "time": 270.491383033334,
            "value": 0.047244094488188976
          },
          {
            "number": 1,
            "time": 270.49544806666734,
            "value": 0.10236220472440945
          },
          {
            "number": 1,
            "time": 270.4995131000007,
            "value": 0.14960629921259844
          },
          {
            "number": 1,
            "time": 270.50357813333403,
            "value": 0.2047244094488189
          },
          {
            "number": 1,
            "time": 270.5076431666674,
            "value": 0.25196850393700787
          },
          {
            "number": 1,
            "time": 270.5117082000007,
            "value": 0.2992125984251969
          },
          {
            "number": 1,
            "time": 270.5157732333341,
            "value": 0.3543307086614173
          },
          {
            "number": 1,
            "time": 270.5198382666674,
            "value": 0.4015748031496063
          },
          {
            "number": 1,
            "time": 270.52390330000077,
            "value": 0.4566929133858268
          },
          {
            "number": 1,
            "time": 270.5279683333341,
            "value": 0.5039370078740157
          },
          {
            "number": 1,
            "time": 270.9751220000008,
            "value": 0
          },
          {
            "number": 1,
            "time": 272.43853400000074,
            "value": 0
          },
          {
            "number": 1,
            "time": 272.4425990333341,
            "value": 0.047244094488188976
          },
          {
            "number": 1,
            "time": 272.44666406666744,
            "value": 0.10236220472440945
          },
          {
            "number": 1,
            "time": 272.4507291000008,
            "value": 0.14960629921259844
          },
          {
            "number": 1,
            "time": 272.45479413333413,
            "value": 0.2047244094488189
          },
          {
            "number": 1,
            "time": 272.4588591666675,
            "value": 0.25196850393700787
          },
          {
            "number": 1,
            "time": 272.4629242000008,
            "value": 0.2992125984251969
          },
          {
            "number": 1,
            "time": 272.4669892333342,
            "value": 0.3543307086614173
          },
          {
            "number": 1,
            "time": 272.4710542666675,
            "value": 0.4015748031496063
          },
          {
            "number": 1,
            "time": 272.47511930000087,
            "value": 0.4566929133858268
          },
          {
            "number": 1,
            "time": 272.4791843333342,
            "value": 0.5039370078740157
          },
          {
            "number": 1,
            "time": 272.9263380000009,
            "value": 0
          },
          {
            "number": 1,
            "time": 274.38975000000084,
            "value": 0
          },
          {
            "number": 1,
            "time": 274.3938150333342,
            "value": 0.047244094488188976
          },
          {
            "number": 1,
            "time": 274.39788006666754,
            "value": 0.10236220472440945
          },
          {
            "number": 1,
            "time": 274.4019451000009,
            "value": 0.14960629921259844
          },
          {
            "number": 1,
            "time": 274.40601013333423,
            "value": 0.2047244094488189
          },
          {
            "number": 1,
            "time": 274.4100751666676,
            "value": 0.25196850393700787
          },
          {
            "number": 1,
            "time": 274.41414020000093,
            "value": 0.2992125984251969
          },
          {
            "number": 1,
            "time": 274.4182052333343,
            "value": 0.3543307086614173
          },
          {
            "number": 1,
            "time": 274.4222702666676,
            "value": 0.4015748031496063
          },
          {
            "number": 1,
            "time": 274.42633530000097,
            "value": 0.4566929133858268
          },
          {
            "number": 1,
            "time": 274.4304003333343,
            "value": 0.5039370078740157
          },
          {
            "number": 1,
            "time": 274.877554000001,
            "value": 0
          },
          {
            "number": 1,
            "time": 276.34096600000095,
            "value": 0
          },
          {
            "number": 1,
            "time": 276.3450310333343,
            "value": 0.047244094488188976
          },
          {
            "number": 1,
            "time": 276.34909606666764,
            "value": 0.10236220472440945
          },
          {
            "number": 1,
            "time": 276.353161100001,
            "value": 0.14960629921259844
          },
          {
            "number": 1,
            "time": 276.35722613333434,
            "value": 0.2047244094488189
          },
          {
            "number": 1,
            "time": 276.3612911666677,
            "value": 0.25196850393700787
          },
          {
            "number": 1,
            "time": 276.36535620000103,
            "value": 0.2992125984251969
          },
          {
            "number": 1,
            "time": 276.3694212333344,
            "value": 0.3543307086614173
          },
          {
            "number": 1,
            "time": 276.3734862666677,
            "value": 0.4015748031496063
          },
          {
            "number": 1,
            "time": 276.3775513000011,
            "value": 0.4566929133858268
          },
          {
            "number": 1,
            "time": 276.3816163333344,
            "value": 0.5039370078740157
          },
          {
            "number": 1,
            "time": 276.8287700000011,
            "value": 0
          },
          {
            "number": 1,
            "time": 278.29218200000105,
            "value": 0
          },
          {
            "number": 1,
            "time": 278.2962470333344,
            "value": 0.047244094488188976
          },
          {
            "number": 1,
            "time": 278.30031206666774,
            "value": 0.10236220472440945
          },
          {
            "number": 1,
            "time": 278.3043771000011,
            "value": 0.14960629921259844
          },
          {
            "number": 1,
            "time": 278.30844213333444,
            "value": 0.2047244094488189
          },
          {
            "number": 1,
            "time": 278.3125071666678,
            "value": 0.25196850393700787
          },
          {
            "number": 1,
            "time": 278.31657220000113,
            "value": 0.2992125984251969
          },
          {
            "number": 1,
            "time": 278.3206372333345,
            "value": 0.3543307086614173
          },
          {
            "number": 1,
            "time": 278.3247022666678,
            "value": 0.4015748031496063
          },
          {
            "number": 1,
            "time": 278.3287673000012,
            "value": 0.4566929133858268
          },
          {
            "number": 1,
            "time": 278.3328323333345,
            "value": 0.5039370078740157
          },
          {
            "number": 1,
            "time": 278.7799860000012,
            "value": 0
          }
        ],
        "7": [
          {
            "number": 7,
            "time": 0,
            "value": 0.7874015748031497
          },
          {
            "number": 7,
            "time": 308.53603000000015,
            "value": 0.7874015748031497
          },
          {
            "number": 7,
            "time": 308.69050126666684,
            "value": 0.7795275590551181
          },
          {
            "number": 7,
            "time": 308.8490375666669,
            "value": 0.7716535433070866
          },
          {
            "number": 7,
            "time": 309.00350883333357,
            "value": 0.7637795275590551
          },
          {
            "number": 7,
            "time": 309.1620451333336,
            "value": 0.7559055118110236
          },
          {
            "number": 7,
            "time": 309.3165164000003,
            "value": 0.7480314960629921
          },
          {
            "number": 7,
            "time": 309.470987666667,
            "value": 0.7401574803149606
          },
          {
            "number": 7,
            "time": 309.629523966667,
            "value": 0.7322834645669292
          },
          {
            "number": 7,
            "time": 309.78399523333366,
            "value": 0.7244094488188977
          },
          {
            "number": 7,
            "time": 309.94253153333364,
            "value": 0.7165354330708661
          },
          {
            "number": 7,
            "time": 310.0970028000003,
            "value": 0.7086614173228346
          },
          {
            "number": 7,
            "time": 310.251474066667,
            "value": 0.7007874015748031
          },
          {
            "number": 7,
            "time": 310.410010366667,
            "value": 0.6929133858267716
          },
          {
            "number": 7,
            "time": 310.5644816333336,
            "value": 0.6850393700787402
          },
          {
            "number": 7,
            "time": 310.7189529000003,
            "value": 0.6771653543307087
          },
          {
            "number": 7,
            "time": 310.8774892000003,
            "value": 0.6692913385826772
          },
          {
            "number": 7,
            "time": 311.031960466667,
            "value": 0.6614173228346457
          },
          {
            "number": 7,
            "time": 311.19049676666697,
            "value": 0.6535433070866141
          },
          {
            "number": 7,
            "time": 311.3449680333336,
            "value": 0.6456692913385826
          },
          {
            "number": 7,
            "time": 311.4994393000003,
            "value": 0.6377952755905512
          },
          {
            "number": 7,
            "time": 311.65797560000027,
            "value": 0.6299212598425197
          },
          {
            "number": 7,
            "time": 311.81244686666696,
            "value": 0.6220472440944882
          },
          {
            "number": 7,
            "time": 311.970983166667,
            "value": 0.6141732283464567
          },
          {
            "number": 7,
            "time": 312.1254544333337,
            "value": 0.6062992125984252
          },
          {
            "number": 7,
            "time": 312.2799257000004,
            "value": 0.5984251968503937
          },
          {
            "number": 7,
            "time": 312.43846200000036,
            "value": 0.5905511811023622
          },
          {
            "number": 7,
            "time": 312.59293326666705,
            "value": 0.5826771653543307
          },
          {
            "number": 7,
            "time": 312.7514695666671,
            "value": 0.5748031496062992
          },
          {
            "number": 7,
            "time": 312.9059408333338,
            "value": 0.5669291338582677
          },
          {
            "number": 7,
            "time": 313.06041210000046,
            "value": 0.5590551181102362
          },
          {
            "number": 7,
            "time": 313.21894840000044,
            "value": 0.5511811023622047
          },
          {
            "number": 7,
            "time": 313.37341966666713,
            "value": 0.5433070866141733
          },
          {
            "number": 7,
            "time": 313.5278909333338,
            "value": 0.5354330708661418
          },
          {
            "number": 7,
            "time": 313.6864272333338,
            "value": 0.5275590551181102
          },
          {
            "number": 7,
            "time": 313.8408985000005,
            "value": 0.5196850393700787
          },
          {
            "number": 7,
            "time": 313.9994348000005,
            "value": 0.5118110236220472
          },
          {
            "number": 7,
            "time": 314.15390606666716,
            "value": 0.5039370078740157
          },
          {
            "number": 7,
            "time": 314.30837733333385,
            "value": 0.49606299212598426
          },
          {
            "number": 7,
            "time": 314.46691363333383,
            "value": 0.4881889763779528
          },
          {
            "number": 7,
            "time": 314.6213849000005,
            "value": 0.48031496062992124
          },
          {
            "number": 7,
            "time": 314.7799212000005,
            "value": 0.47244094488188976
          },
          {
            "number": 7,
            "time": 314.9343924666672,
            "value": 0.4645669291338583
          },
          {
            "number": 7,
            "time": 315.0888637333339,
            "value": 0.4566929133858268
          },
          {
            "number": 7,
            "time": 315.24740003333386,
            "value": 0.44881889763779526
          },
          {
            "number": 7,
            "time": 315.40187130000055,
            "value": 0.4409448818897638
          },
          {
            "number": 7,
            "time": 315.56040760000053,
            "value": 0.4330708661417323
          },
          {
            "number": 7,
            "time": 315.7148788666672,
            "value": 0.4251968503937008
          },
          {
            "number": 7,
            "time": 315.8693501333339,
            "value": 0.41732283464566927
          },
          {
            "number": 7,
            "time": 316.0278864333339,
            "value": 0.4094488188976378
          },
          {
            "number": 7,
            "time": 316.1823577000006,
            "value": 0.4015748031496063
          },
          {
            "number": 7,
            "time": 316.34089400000056,
            "value": 0.3937007874015748
          },
          {
            "number": 7,
            "time": 316.49536526666725,
            "value": 0.3858267716535433
          },
          {
            "number": 7,
            "time": 316.64983653333394,
            "value": 0.3779527559055118
          },
          {
            "number": 7,
            "time": 316.8083728333339,
            "value": 0.3700787401574803
          },
          {
            "number": 7,
            "time": 316.9628441000006,
            "value": 0.36220472440944884
          },
          {
            "number": 7,
            "time": 317.11731536666724,
            "value": 0.3543307086614173
          },
          {
            "number": 7,
            "time": 317.2758516666672,
            "value": 0.3464566929133858
          },
          {
            "number": 7,
            "time": 317.4303229333339,
            "value": 0.33858267716535434
          },
          {
            "number": 7,
            "time": 317.5888592333339,
            "value": 0.33070866141732286
          },
          {
            "number": 7,
            "time": 317.7433305000006,
            "value": 0.3228346456692913
          },
          {
            "number": 7,
            "time": 317.8978017666672,
            "value": 0.31496062992125984
          },
          {
            "number": 7,
            "time": 318.05633806666725,
            "value": 0.30708661417322836
          },
          {
            "number": 7,
            "time": 318.21080933333394,
            "value": 0.2992125984251969
          },
          {
            "number": 7,
            "time": 318.3693456333339,
            "value": 0.29133858267716534
          },
          {
            "number": 7,
            "time": 318.5238169000006,
            "value": 0.28346456692913385
          },
          {
            "number": 7,
            "time": 318.67828816666724,
            "value": 0.2755905511811024
          },
          {
            "number": 7,
            "time": 318.8368244666673,
            "value": 0.2677165354330709
          },
          {
            "number": 7,
            "time": 318.99129573333397,
            "value": 0.25984251968503935
          },
          {
            "number": 7,
            "time": 319.14983203333395,
            "value": 0.25196850393700787
          },
          {
            "number": 7,
            "time": 319.30430330000064,
            "value": 0.2440944881889764
          },
          {
            "number": 7,
            "time": 319.45877456666733,
            "value": 0.23622047244094488
          },
          {
            "number": 7,
            "time": 319.61731086666737,
            "value": 0.2283464566929134
          },
          {
            "number": 7,
            "time": 319.77178213333406,
            "value": 0.2204724409448819
          },
          {
            "number": 7,
            "time": 319.92625340000075,
            "value": 0.2125984251968504
          },
          {
            "number": 7,
            "time": 320.0847897000008,
            "value": 0.2047244094488189
          },
          {
            "number": 7,
            "time": 320.2392609666675,
            "value": 0.1968503937007874
          },
          {
            "number": 7,
            "time": 320.3977972666675,
            "value": 0.1889763779527559
          },
          {
            "number": 7,
            "time": 320.5522685333342,
            "value": 0.18110236220472442
          },
          {
            "number": 7,
            "time": 320.7067398000009,
            "value": 0.1732283464566929
          },
          {
            "number": 7,
            "time": 320.8652761000009,
            "value": 0.16535433070866143
          },
          {
            "number": 7,
            "time": 321.01974736666756,
            "value": 0.15748031496062992
          },
          {
            "number": 7,
            "time": 321.17828366666754,
            "value": 0.14960629921259844
          },
          {
            "number": 7,
            "time": 321.33275493333423,
            "value": 0.14173228346456693
          },
          {
            "number": 7,
            "time": 321.4872262000009,
            "value": 0.13385826771653545
          },
          {
            "number": 7,
            "time": 321.6457625000009,
            "value": 0.12598425196850394
          },
          {
            "number": 7,
            "time": 321.80023376666753,
            "value": 0.11811023622047244
          },
          {
            "number": 7,
            "time": 321.95877006666757,
            "value": 0.11023622047244094
          },
          {
            "number": 7,
            "time": 322.11324133333426,
            "value": 0.10236220472440945
          },
          {
            "number": 7,
            "time": 322.26771260000095,
            "value": 0.09448818897637795
          },
          {
            "number": 7,
            "time": 322.4262489000009,
            "value": 0.08661417322834646
          },
          {
            "number": 7,
            "time": 322.58072016666756,
            "value": 0.07874015748031496
          },
          {
            "number": 7,
            "time": 322.73519143333425,
            "value": 0.07086614173228346
          },
          {
            "number": 7,
            "time": 322.89372773333423,
            "value": 0.06299212598425197
          },
          {
            "number": 7,
            "time": 323.0481990000009,
            "value": 0.05511811023622047
          },
          {
            "number": 7,
            "time": 323.20673530000096,
            "value": 0.047244094488188976
          },
          {
            "number": 7,
            "time": 323.36120656666765,
            "value": 0.03937007874015748
          },
          {
            "number": 7,
            "time": 323.51567783333434,
            "value": 0.031496062992125984
          },
          {
            "number": 7,
            "time": 323.6742141333343,
            "value": 0.023622047244094488
          },
          {
            "number": 7,
            "time": 323.828685400001,
            "value": 0.015748031496062992
          },
          {
            "number": 7,
            "time": 323.98722170000104,
            "value": 0.007874015748031496
          },
          {
            "number": 7,
            "time": 324.14169296666773,
            "value": 0
          }
        ]
      },
      "id": 4,
      "name": "Guitar 3",
      "instrumentNumber": 30,
      "instrument": "distortion guitar",
      "instrumentFamily": "guitar",
      "channelNumber": 3,
      "isPercussion": false
    },
    {
      "startTime": 23.414592,
      "duration": 324.1457580000008,
      "length": 939,
      "notes": [
        {
          "name": "B2",
          "midi": 47,
          "time": 23.414592,
          "velocity": 1,
          "duration": 7.804864000000002
        },
        {
          "name": "E2",
          "midi": 40,
          "time": 23.414592,
          "velocity": 1,
          "duration": 7.804864000000002
        },
        {
          "name": "E2",
          "midi": 40,
          "time": 31.219456,
          "velocity": 1,
          "duration": 6.829256000000001
        },
        {
          "name": "B2",
          "midi": 47,
          "time": 31.219456,
          "velocity": 1,
          "duration": 6.829256000000001
        },
        {
          "name": "A3",
          "midi": 57,
          "time": 38.048712,
          "velocity": 1,
          "duration": 0.487803999999997
        },
        {
          "name": "E3",
          "midi": 52,
          "time": 38.048712,
          "velocity": 1,
          "duration": 0.487803999999997
        },
        {
          "name": "A2",
          "midi": 45,
          "time": 38.048712,
          "velocity": 1,
          "duration": 0.487803999999997
        },
        {
          "name": "E3",
          "midi": 52,
          "time": 38.536516,
          "velocity": 1,
          "duration": 0.487803999999997
        },
        {
          "name": "A3",
          "midi": 57,
          "time": 38.536516,
          "velocity": 1,
          "duration": 0.487803999999997
        },
        {
          "name": "A2",
          "midi": 45,
          "time": 38.536516,
          "velocity": 1,
          "duration": 0.487803999999997
        },
        {
          "name": "E2",
          "midi": 40,
          "time": 39.024319999999996,
          "velocity": 1,
          "duration": 1.9512160000000023
        },
        {
          "name": "B2",
          "midi": 47,
          "time": 39.024319999999996,
          "velocity": 1,
          "duration": 1.9512160000000023
        },
        {
          "name": "E2",
          "midi": 40,
          "time": 40.975536,
          "velocity": 1,
          "duration": 1.9512160000000023
        },
        {
          "name": "B2",
          "midi": 47,
          "time": 40.975536,
          "velocity": 1,
          "duration": 1.9512160000000023
        },
        {
          "name": "E2",
          "midi": 40,
          "time": 42.926752,
          "velocity": 1,
          "duration": 1.9512160000000023
        },
        {
          "name": "B2",
          "midi": 47,
          "time": 42.926752,
          "velocity": 1,
          "duration": 1.9512160000000023
        },
        {
          "name": "E2",
          "midi": 40,
          "time": 44.877968,
          "velocity": 1,
          "duration": 1.9512160000000023
        },
        {
          "name": "B2",
          "midi": 47,
          "time": 44.877968,
          "velocity": 1,
          "duration": 1.9512160000000023
        },
        {
          "name": "E2",
          "midi": 40,
          "time": 46.829184000000005,
          "velocity": 1,
          "duration": 1.9512160000000023
        },
        {
          "name": "B2",
          "midi": 47,
          "time": 46.829184000000005,
          "velocity": 1,
          "duration": 1.9512160000000023
        },
        {
          "name": "E2",
          "midi": 40,
          "time": 48.78040000000001,
          "velocity": 1,
          "duration": 1.9512160000000023
        },
        {
          "name": "B2",
          "midi": 47,
          "time": 48.78040000000001,
          "velocity": 1,
          "duration": 1.9512160000000023
        },
        {
          "name": "E2",
          "midi": 40,
          "time": 50.73161600000001,
          "velocity": 1,
          "duration": 1.9512160000000023
        },
        {
          "name": "B2",
          "midi": 47,
          "time": 50.73161600000001,
          "velocity": 1,
          "duration": 1.9512160000000023
        },
        {
          "name": "E2",
          "midi": 40,
          "time": 52.68283200000001,
          "velocity": 1,
          "duration": 1.9512160000000023
        },
        {
          "name": "B2",
          "midi": 47,
          "time": 52.68283200000001,
          "velocity": 1,
          "duration": 1.9512160000000023
        },
        {
          "name": "E2",
          "midi": 40,
          "time": 54.634048000000014,
          "velocity": 1,
          "duration": 0.487803999999997
        },
        {
          "name": "B2",
          "midi": 47,
          "time": 54.634048000000014,
          "velocity": 1,
          "duration": 0.487803999999997
        },
        {
          "name": "E2",
          "midi": 40,
          "time": 55.12185200000001,
          "velocity": 1,
          "duration": 0.2439019999999985
        },
        {
          "name": "B2",
          "midi": 47,
          "time": 55.12185200000001,
          "velocity": 1,
          "duration": 0.2439019999999985
        },
        {
          "name": "E3",
          "midi": 52,
          "time": 55.36575400000001,
          "velocity": 1,
          "duration": 0.2439019999999985
        },
        {
          "name": "A#2",
          "midi": 46,
          "time": 55.60965600000001,
          "velocity": 1,
          "duration": 0.2439019999999985
        },
        {
          "name": "A2",
          "midi": 45,
          "time": 55.85355800000001,
          "velocity": 1,
          "duration": 0.487803999999997
        },
        {
          "name": "E2",
          "midi": 40,
          "time": 56.341362000000004,
          "velocity": 1,
          "duration": 0.2439019999999985
        },
        {
          "name": "B2",
          "midi": 47,
          "time": 56.585264,
          "velocity": 1,
          "duration": 0.487803999999997
        },
        {
          "name": "E2",
          "midi": 40,
          "time": 56.585264,
          "velocity": 1,
          "duration": 0.487803999999997
        },
        {
          "name": "E2",
          "midi": 40,
          "time": 57.073068,
          "velocity": 1,
          "duration": 0.2439019999999985
        },
        {
          "name": "B2",
          "midi": 47,
          "time": 57.073068,
          "velocity": 1,
          "duration": 0.2439019999999985
        },
        {
          "name": "E3",
          "midi": 52,
          "time": 57.31697,
          "velocity": 1,
          "duration": 0.2439019999999985
        },
        {
          "name": "A#2",
          "midi": 46,
          "time": 57.560871999999996,
          "velocity": 1,
          "duration": 0.2439019999999985
        },
        {
          "name": "A2",
          "midi": 45,
          "time": 57.804773999999995,
          "velocity": 1,
          "duration": 0.487803999999997
        },
        {
          "name": "E2",
          "midi": 40,
          "time": 58.29257799999999,
          "velocity": 1,
          "duration": 0.2439019999999985
        },
        {
          "name": "B2",
          "midi": 47,
          "time": 58.53647999999999,
          "velocity": 1,
          "duration": 0.487803999999997
        },
        {
          "name": "E2",
          "midi": 40,
          "time": 58.53647999999999,
          "velocity": 1,
          "duration": 0.487803999999997
        },
        {
          "name": "E2",
          "midi": 40,
          "time": 59.02428399999999,
          "velocity": 1,
          "duration": 0.2439019999999985
        },
        {
          "name": "B2",
          "midi": 47,
          "time": 59.02428399999999,
          "velocity": 1,
          "duration": 0.2439019999999985
        },
        {
          "name": "E3",
          "midi": 52,
          "time": 59.268185999999986,
          "velocity": 1,
          "duration": 0.2439019999999985
        },
        {
          "name": "A#2",
          "midi": 46,
          "time": 59.512087999999984,
          "velocity": 1,
          "duration": 0.2439019999999985
        },
        {
          "name": "A2",
          "midi": 45,
          "time": 59.75598999999998,
          "velocity": 1,
          "duration": 0.487803999999997
        },
        {
          "name": "E2",
          "midi": 40,
          "time": 60.24379399999998,
          "velocity": 1,
          "duration": 0.2439019999999985
        },
        {
          "name": "G2",
          "midi": 43,
          "time": 60.48769599999998,
          "velocity": 1,
          "duration": 0.487803999999997
        },
        {
          "name": "D3",
          "midi": 50,
          "time": 60.48769599999998,
          "velocity": 1,
          "duration": 0.487803999999997
        },
        {
          "name": "E2",
          "midi": 40,
          "time": 60.975499999999975,
          "velocity": 1,
          "duration": 0.2439019999999985
        },
        {
          "name": "C#3",
          "midi": 49,
          "time": 61.219401999999974,
          "velocity": 1,
          "duration": 0.2439019999999985
        },
        {
          "name": "F#2",
          "midi": 42,
          "time": 61.219401999999974,
          "velocity": 1,
          "duration": 0.2439019999999985
        },
        {
          "name": "E2",
          "midi": 40,
          "time": 61.46330399999997,
          "velocity": 1,
          "duration": 0.2439019999999985
        },
        {
          "name": "C#3",
          "midi": 49,
          "time": 61.70720599999997,
          "velocity": 1,
          "duration": 0.2439019999999985
        },
        {
          "name": "F#2",
          "midi": 42,
          "time": 61.70720599999997,
          "velocity": 1,
          "duration": 0.2439019999999985
        },
        {
          "name": "G2",
          "midi": 43,
          "time": 61.95110799999997,
          "velocity": 1,
          "duration": 0.2439019999999985
        },
        {
          "name": "D3",
          "midi": 50,
          "time": 61.95110799999997,
          "velocity": 1,
          "duration": 0.2439019999999985
        },
        {
          "name": "F#2",
          "midi": 42,
          "time": 62.19500999999997,
          "velocity": 1,
          "duration": 0.2439019999999985
        },
        {
          "name": "C#3",
          "midi": 49,
          "time": 62.19500999999997,
          "velocity": 1,
          "duration": 0.2439019999999985
        },
        {
          "name": "E2",
          "midi": 40,
          "time": 62.438911999999966,
          "velocity": 1,
          "duration": 0.487803999999997
        },
        {
          "name": "B2",
          "midi": 47,
          "time": 62.438911999999966,
          "velocity": 1,
          "duration": 0.487803999999997
        },
        {
          "name": "E2",
          "midi": 40,
          "time": 62.92671599999996,
          "velocity": 1,
          "duration": 0.2439019999999985
        },
        {
          "name": "B2",
          "midi": 47,
          "time": 62.92671599999996,
          "velocity": 1,
          "duration": 0.2439019999999985
        },
        {
          "name": "E3",
          "midi": 52,
          "time": 63.17061799999996,
          "velocity": 1,
          "duration": 0.2439019999999985
        },
        {
          "name": "A#2",
          "midi": 46,
          "time": 63.41451999999996,
          "velocity": 1,
          "duration": 0.2439019999999985
        },
        {
          "name": "A2",
          "midi": 45,
          "time": 63.65842199999996,
          "velocity": 1,
          "duration": 0.487803999999997
        },
        {
          "name": "E2",
          "midi": 40,
          "time": 64.14622599999996,
          "velocity": 1,
          "duration": 0.24390200000000561
        },
        {
          "name": "B2",
          "midi": 47,
          "time": 64.39012799999996,
          "velocity": 1,
          "duration": 0.487803999999997
        },
        {
          "name": "E2",
          "midi": 40,
          "time": 64.39012799999996,
          "velocity": 1,
          "duration": 0.487803999999997
        },
        {
          "name": "E2",
          "midi": 40,
          "time": 64.87793199999996,
          "velocity": 1,
          "duration": 0.24390200000000561
        },
        {
          "name": "B2",
          "midi": 47,
          "time": 64.87793199999996,
          "velocity": 1,
          "duration": 0.24390200000000561
        },
        {
          "name": "E3",
          "midi": 52,
          "time": 65.12183399999996,
          "velocity": 1,
          "duration": 0.24390200000000561
        },
        {
          "name": "A#2",
          "midi": 46,
          "time": 65.36573599999997,
          "velocity": 1,
          "duration": 0.24390200000000561
        },
        {
          "name": "A2",
          "midi": 45,
          "time": 65.60963799999998,
          "velocity": 1,
          "duration": 0.487803999999997
        },
        {
          "name": "E2",
          "midi": 40,
          "time": 66.09744199999997,
          "velocity": 1,
          "duration": 0.24390200000000561
        },
        {
          "name": "B2",
          "midi": 47,
          "time": 66.34134399999998,
          "velocity": 1,
          "duration": 0.487803999999997
        },
        {
          "name": "E2",
          "midi": 40,
          "time": 66.34134399999998,
          "velocity": 1,
          "duration": 0.487803999999997
        },
        {
          "name": "E2",
          "midi": 40,
          "time": 66.82914799999998,
          "velocity": 1,
          "duration": 0.24390200000000561
        },
        {
          "name": "B2",
          "midi": 47,
          "time": 66.82914799999998,
          "velocity": 1,
          "duration": 0.24390200000000561
        },
        {
          "name": "E3",
          "midi": 52,
          "time": 67.07304999999998,
          "velocity": 1,
          "duration": 0.24390200000000561
        },
        {
          "name": "A#2",
          "midi": 46,
          "time": 67.31695199999999,
          "velocity": 1,
          "duration": 0.24390200000000561
        },
        {
          "name": "A2",
          "midi": 45,
          "time": 67.56085399999999,
          "velocity": 1,
          "duration": 0.487803999999997
        },
        {
          "name": "E2",
          "midi": 40,
          "time": 68.04865799999999,
          "velocity": 1,
          "duration": 0.24390200000000561
        },
        {
          "name": "G2",
          "midi": 43,
          "time": 68.29256,
          "velocity": 1,
          "duration": 0.487803999999997
        },
        {
          "name": "D3",
          "midi": 50,
          "time": 68.29256,
          "velocity": 1,
          "duration": 0.487803999999997
        },
        {
          "name": "E2",
          "midi": 40,
          "time": 68.78036399999999,
          "velocity": 1,
          "duration": 0.24390200000000561
        },
        {
          "name": "C#3",
          "midi": 49,
          "time": 69.024266,
          "velocity": 1,
          "duration": 0.24390200000000561
        },
        {
          "name": "F#2",
          "midi": 42,
          "time": 69.024266,
          "velocity": 1,
          "duration": 0.24390200000000561
        },
        {
          "name": "E2",
          "midi": 40,
          "time": 69.268168,
          "velocity": 1,
          "duration": 0.24390200000000561
        },
        {
          "name": "C#3",
          "midi": 49,
          "time": 69.51207000000001,
          "velocity": 1,
          "duration": 0.24390200000000561
        },
        {
          "name": "F#2",
          "midi": 42,
          "time": 69.51207000000001,
          "velocity": 1,
          "duration": 0.24390200000000561
        },
        {
          "name": "G2",
          "midi": 43,
          "time": 69.75597200000001,
          "velocity": 1,
          "duration": 0.24390200000000561
        },
        {
          "name": "D3",
          "midi": 50,
          "time": 69.75597200000001,
          "velocity": 1,
          "duration": 0.24390200000000561
        },
        {
          "name": "F#2",
          "midi": 42,
          "time": 69.99987400000002,
          "velocity": 1,
          "duration": 0.24390200000000561
        },
        {
          "name": "C#3",
          "midi": 49,
          "time": 69.99987400000002,
          "velocity": 1,
          "duration": 0.24390200000000561
        },
        {
          "name": "E2",
          "midi": 40,
          "time": 70.24377600000003,
          "velocity": 1,
          "duration": 0.487803999999997
        },
        {
          "name": "B2",
          "midi": 47,
          "time": 70.24377600000003,
          "velocity": 1,
          "duration": 0.487803999999997
        },
        {
          "name": "E2",
          "midi": 40,
          "time": 70.73158000000002,
          "velocity": 1,
          "duration": 0.24390200000000561
        },
        {
          "name": "E2",
          "midi": 40,
          "time": 70.97548200000003,
          "velocity": 1,
          "duration": 0.24390200000000561
        },
        {
          "name": "E2",
          "midi": 40,
          "time": 71.21938400000003,
          "velocity": 1,
          "duration": 0.24390200000000561
        },
        {
          "name": "E2",
          "midi": 40,
          "time": 71.46328600000004,
          "velocity": 1,
          "duration": 0.24390200000000561
        },
        {
          "name": "E2",
          "midi": 40,
          "time": 71.70718800000004,
          "velocity": 1,
          "duration": 0.24390200000000561
        },
        {
          "name": "E2",
          "midi": 40,
          "time": 71.95109000000005,
          "velocity": 1,
          "duration": 0.24390200000000561
        },
        {
          "name": "C3",
          "midi": 48,
          "time": 72.19499200000006,
          "velocity": 1,
          "duration": 0.24390200000000561
        },
        {
          "name": "F2",
          "midi": 41,
          "time": 72.19499200000006,
          "velocity": 1,
          "duration": 0.24390200000000561
        },
        {
          "name": "E2",
          "midi": 40,
          "time": 72.43889400000006,
          "velocity": 1,
          "duration": 0.24390200000000561
        },
        {
          "name": "E2",
          "midi": 40,
          "time": 72.68279600000007,
          "velocity": 1,
          "duration": 0.24390200000000561
        },
        {
          "name": "E2",
          "midi": 40,
          "time": 72.92669800000007,
          "velocity": 1,
          "duration": 0.24390200000000561
        },
        {
          "name": "E2",
          "midi": 40,
          "time": 73.17060000000008,
          "velocity": 1,
          "duration": 0.24390200000000561
        },
        {
          "name": "E2",
          "midi": 40,
          "time": 73.41450200000008,
          "velocity": 1,
          "duration": 0.24390200000000561
        },
        {
          "name": "E2",
          "midi": 40,
          "time": 73.65840400000009,
          "velocity": 1,
          "duration": 0.24390200000000561
        },
        {
          "name": "E2",
          "midi": 40,
          "time": 73.9023060000001,
          "velocity": 1,
          "duration": 0.24390200000000561
        },
        {
          "name": "C3",
          "midi": 48,
          "time": 74.1462080000001,
          "velocity": 1,
          "duration": 0.24390200000000561
        },
        {
          "name": "F2",
          "midi": 41,
          "time": 74.1462080000001,
          "velocity": 1,
          "duration": 0.24390200000000561
        },
        {
          "name": "E2",
          "midi": 40,
          "time": 74.3901100000001,
          "velocity": 1,
          "duration": 0.24390200000000561
        },
        {
          "name": "E2",
          "midi": 40,
          "time": 74.63401200000011,
          "velocity": 1,
          "duration": 0.24390200000000561
        },
        {
          "name": "E2",
          "midi": 40,
          "time": 74.87791400000012,
          "velocity": 1,
          "duration": 0.24390200000000561
        },
        {
          "name": "E2",
          "midi": 40,
          "time": 75.12181600000012,
          "velocity": 1,
          "duration": 0.24390200000000561
        },
        {
          "name": "E2",
          "midi": 40,
          "time": 75.36571800000013,
          "velocity": 1,
          "duration": 0.24390200000000561
        },
        {
          "name": "E2",
          "midi": 40,
          "time": 75.60962000000013,
          "velocity": 1,
          "duration": 0.24390200000000561
        },
        {
          "name": "E2",
          "midi": 40,
          "time": 75.85352200000014,
          "velocity": 1,
          "duration": 0.24390200000000561
        },
        {
          "name": "D3",
          "midi": 50,
          "time": 76.09742400000015,
          "velocity": 1,
          "duration": 0.487803999999997
        },
        {
          "name": "G2",
          "midi": 43,
          "time": 76.09742400000015,
          "velocity": 1,
          "duration": 0.487803999999997
        },
        {
          "name": "E2",
          "midi": 40,
          "time": 76.58522800000014,
          "velocity": 1,
          "duration": 0.24390200000000561
        },
        {
          "name": "C#3",
          "midi": 49,
          "time": 76.82913000000015,
          "velocity": 1,
          "duration": 0.24390200000000561
        },
        {
          "name": "F#2",
          "midi": 42,
          "time": 76.82913000000015,
          "velocity": 1,
          "duration": 0.24390200000000561
        },
        {
          "name": "E2",
          "midi": 40,
          "time": 77.07303200000015,
          "velocity": 1,
          "duration": 0.24390200000000561
        },
        {
          "name": "C#3",
          "midi": 49,
          "time": 77.31693400000016,
          "velocity": 1,
          "duration": 0.24390200000000561
        },
        {
          "name": "F#2",
          "midi": 42,
          "time": 77.31693400000016,
          "velocity": 1,
          "duration": 0.24390200000000561
        },
        {
          "name": "G2",
          "midi": 43,
          "time": 77.56083600000017,
          "velocity": 1,
          "duration": 0.24390200000000561
        },
        {
          "name": "D3",
          "midi": 50,
          "time": 77.56083600000017,
          "velocity": 1,
          "duration": 0.24390200000000561
        },
        {
          "name": "C#3",
          "midi": 49,
          "time": 77.80473800000017,
          "velocity": 1,
          "duration": 0.24390200000000561
        },
        {
          "name": "F#2",
          "midi": 42,
          "time": 77.80473800000017,
          "velocity": 1,
          "duration": 0.24390200000000561
        },
        {
          "name": "E2",
          "midi": 40,
          "time": 78.04864000000018,
          "velocity": 1,
          "duration": 0.487803999999997
        },
        {
          "name": "B2",
          "midi": 47,
          "time": 78.04864000000018,
          "velocity": 1,
          "duration": 0.487803999999997
        },
        {
          "name": "E2",
          "midi": 40,
          "time": 78.53644400000017,
          "velocity": 1,
          "duration": 0.24390200000000561
        },
        {
          "name": "E2",
          "midi": 40,
          "time": 78.78034600000018,
          "velocity": 1,
          "duration": 0.24390200000000561
        },
        {
          "name": "E2",
          "midi": 40,
          "time": 79.02424800000018,
          "velocity": 1,
          "duration": 0.24390200000000561
        },
        {
          "name": "E2",
          "midi": 40,
          "time": 79.26815000000019,
          "velocity": 1,
          "duration": 0.24390200000000561
        },
        {
          "name": "E2",
          "midi": 40,
          "time": 79.5120520000002,
          "velocity": 1,
          "duration": 0.24390200000000561
        },
        {
          "name": "E2",
          "midi": 40,
          "time": 79.7559540000002,
          "velocity": 1,
          "duration": 0.24390200000000561
        },
        {
          "name": "C3",
          "midi": 48,
          "time": 79.99985600000021,
          "velocity": 1,
          "duration": 0.24390200000000561
        },
        {
          "name": "F2",
          "midi": 41,
          "time": 79.99985600000021,
          "velocity": 1,
          "duration": 0.24390200000000561
        },
        {
          "name": "E2",
          "midi": 40,
          "time": 80.24375800000021,
          "velocity": 1,
          "duration": 0.24390200000000561
        },
        {
          "name": "E2",
          "midi": 40,
          "time": 80.48766000000022,
          "velocity": 1,
          "duration": 0.24390200000000561
        },
        {
          "name": "E2",
          "midi": 40,
          "time": 80.73156200000022,
          "velocity": 1,
          "duration": 0.24390200000000561
        },
        {
          "name": "E2",
          "midi": 40,
          "time": 80.97546400000023,
          "velocity": 1,
          "duration": 0.24390200000000561
        },
        {
          "name": "E2",
          "midi": 40,
          "time": 81.21936600000024,
          "velocity": 1,
          "duration": 0.24390200000000561
        },
        {
          "name": "E2",
          "midi": 40,
          "time": 81.46326800000024,
          "velocity": 1,
          "duration": 0.24390200000000561
        },
        {
          "name": "E2",
          "midi": 40,
          "time": 81.70717000000025,
          "velocity": 1,
          "duration": 0.24390200000000561
        },
        {
          "name": "C3",
          "midi": 48,
          "time": 81.95107200000025,
          "velocity": 1,
          "duration": 0.24390200000000561
        },
        {
          "name": "F2",
          "midi": 41,
          "time": 81.95107200000025,
          "velocity": 1,
          "duration": 0.24390200000000561
        },
        {
          "name": "E2",
          "midi": 40,
          "time": 82.19497400000026,
          "velocity": 1,
          "duration": 0.24390200000000561
        },
        {
          "name": "E2",
          "midi": 40,
          "time": 82.43887600000026,
          "velocity": 1,
          "duration": 0.24390200000000561
        },
        {
          "name": "E2",
          "midi": 40,
          "time": 82.68277800000027,
          "velocity": 1,
          "duration": 0.24390200000000561
        },
        {
          "name": "E2",
          "midi": 40,
          "time": 82.92668000000027,
          "velocity": 1,
          "duration": 0.24390200000000561
        },
        {
          "name": "E2",
          "midi": 40,
          "time": 83.17058200000028,
          "velocity": 1,
          "duration": 0.24390200000000561
        },
        {
          "name": "E2",
          "midi": 40,
          "time": 83.41448400000029,
          "velocity": 1,
          "duration": 0.24390200000000561
        },
        {
          "name": "E2",
          "midi": 40,
          "time": 83.65838600000029,
          "velocity": 1,
          "duration": 0.24390200000000561
        },
        {
          "name": "G2",
          "midi": 43,
          "time": 83.9022880000003,
          "velocity": 1,
          "duration": 0.487803999999997
        },
        {
          "name": "D3",
          "midi": 50,
          "time": 83.9022880000003,
          "velocity": 1,
          "duration": 0.487803999999997
        },
        {
          "name": "E2",
          "midi": 40,
          "time": 84.3900920000003,
          "velocity": 1,
          "duration": 0.24390200000000561
        },
        {
          "name": "C#3",
          "midi": 49,
          "time": 84.6339940000003,
          "velocity": 1,
          "duration": 0.24390200000000561
        },
        {
          "name": "F#2",
          "midi": 42,
          "time": 84.6339940000003,
          "velocity": 1,
          "duration": 0.24390200000000561
        },
        {
          "name": "E2",
          "midi": 40,
          "time": 84.8778960000003,
          "velocity": 1,
          "duration": 0.24390200000000561
        },
        {
          "name": "C#3",
          "midi": 49,
          "time": 85.12179800000031,
          "velocity": 1,
          "duration": 0.24390200000000561
        },
        {
          "name": "F#2",
          "midi": 42,
          "time": 85.12179800000031,
          "velocity": 1,
          "duration": 0.24390200000000561
        },
        {
          "name": "G2",
          "midi": 43,
          "time": 85.36570000000032,
          "velocity": 1,
          "duration": 0.24390200000000561
        },
        {
          "name": "D3",
          "midi": 50,
          "time": 85.36570000000032,
          "velocity": 1,
          "duration": 0.24390200000000561
        },
        {
          "name": "C#3",
          "midi": 49,
          "time": 85.60960200000032,
          "velocity": 1,
          "duration": 0.24390200000000561
        },
        {
          "name": "F#2",
          "midi": 42,
          "time": 85.60960200000032,
          "velocity": 1,
          "duration": 0.24390200000000561
        },
        {
          "name": "F#2",
          "midi": 42,
          "time": 85.85350400000033,
          "velocity": 1,
          "duration": 0.487803999999997
        },
        {
          "name": "F#3",
          "midi": 54,
          "time": 86.34130800000032,
          "velocity": 1,
          "duration": 0.24390200000000561
        },
        {
          "name": "A3",
          "midi": 57,
          "time": 86.58521000000033,
          "velocity": 1,
          "duration": 0.24390200000000561
        },
        {
          "name": "C3",
          "midi": 48,
          "time": 86.82911200000034,
          "velocity": 1,
          "duration": 0.24390200000000561
        },
        {
          "name": "B2",
          "midi": 47,
          "time": 87.07301400000034,
          "velocity": 1,
          "duration": 0.487803999999997
        },
        {
          "name": "F#3",
          "midi": 54,
          "time": 87.56081800000034,
          "velocity": 1,
          "duration": 0.24390200000000561
        },
        {
          "name": "F#2",
          "midi": 42,
          "time": 87.80472000000034,
          "velocity": 1,
          "duration": 0.487803999999997
        },
        {
          "name": "F#3",
          "midi": 54,
          "time": 88.29252400000034,
          "velocity": 1,
          "duration": 0.24390200000000561
        },
        {
          "name": "A3",
          "midi": 57,
          "time": 88.53642600000035,
          "velocity": 1,
          "duration": 0.24390200000000561
        },
        {
          "name": "C3",
          "midi": 48,
          "time": 88.78032800000035,
          "velocity": 1,
          "duration": 0.24390200000000561
        },
        {
          "name": "B2",
          "midi": 47,
          "time": 89.02423000000036,
          "velocity": 1,
          "duration": 0.487803999999997
        },
        {
          "name": "F#3",
          "midi": 54,
          "time": 89.51203400000036,
          "velocity": 1,
          "duration": 0.24390200000000561
        },
        {
          "name": "F#2",
          "midi": 42,
          "time": 89.75593600000036,
          "velocity": 1,
          "duration": 0.487803999999997
        },
        {
          "name": "F#3",
          "midi": 54,
          "time": 90.24374000000036,
          "velocity": 1,
          "duration": 0.24390200000000561
        },
        {
          "name": "A3",
          "midi": 57,
          "time": 90.48764200000036,
          "velocity": 1,
          "duration": 0.24390200000000561
        },
        {
          "name": "C3",
          "midi": 48,
          "time": 90.73154400000037,
          "velocity": 1,
          "duration": 0.24390200000000561
        },
        {
          "name": "B2",
          "midi": 47,
          "time": 90.97544600000037,
          "velocity": 1,
          "duration": 0.487803999999997
        },
        {
          "name": "F#3",
          "midi": 54,
          "time": 91.46325000000037,
          "velocity": 1,
          "duration": 0.24390200000000561
        },
        {
          "name": "F#2",
          "midi": 42,
          "time": 91.70715200000038,
          "velocity": 1,
          "duration": 0.487803999999997
        },
        {
          "name": "F#3",
          "midi": 54,
          "time": 92.19495600000037,
          "velocity": 1,
          "duration": 0.24390200000000561
        },
        {
          "name": "A3",
          "midi": 57,
          "time": 92.43885800000038,
          "velocity": 1,
          "duration": 0.24390200000000561
        },
        {
          "name": "C3",
          "midi": 48,
          "time": 92.68276000000039,
          "velocity": 1,
          "duration": 0.24390200000000561
        },
        {
          "name": "B2",
          "midi": 47,
          "time": 92.92666200000039,
          "velocity": 1,
          "duration": 0.487803999999997
        },
        {
          "name": "F#3",
          "midi": 54,
          "time": 93.41446600000039,
          "velocity": 1,
          "duration": 0.487803999999997
        },
        {
          "name": "F#2",
          "midi": 42,
          "time": 93.90227000000039,
          "velocity": 1,
          "duration": 0.487803999999997
        },
        {
          "name": "C#3",
          "midi": 49,
          "time": 93.90227000000039,
          "velocity": 1,
          "duration": 0.487803999999997
        },
        {
          "name": "C#3",
          "midi": 49,
          "time": 94.39007400000038,
          "velocity": 1,
          "duration": 0.24390200000000561
        },
        {
          "name": "C3",
          "midi": 48,
          "time": 94.63397600000039,
          "velocity": 1,
          "duration": 0.24390200000000561
        },
        {
          "name": "B2",
          "midi": 47,
          "time": 94.8778780000004,
          "velocity": 1,
          "duration": 0.7317060000000026
        },
        {
          "name": "F#3",
          "midi": 54,
          "time": 94.8778780000004,
          "velocity": 1,
          "duration": 0.7317060000000026
        },
        {
          "name": "F#2",
          "midi": 42,
          "time": 95.6095840000004,
          "velocity": 1,
          "duration": 0.7317060000000026
        },
        {
          "name": "C#3",
          "midi": 49,
          "time": 95.6095840000004,
          "velocity": 1,
          "duration": 0.7317060000000026
        },
        {
          "name": "C#3",
          "midi": 49,
          "time": 96.3412900000004,
          "velocity": 1,
          "duration": 0.24390200000000561
        },
        {
          "name": "C3",
          "midi": 48,
          "time": 96.5851920000004,
          "velocity": 1,
          "duration": 0.24390200000000561
        },
        {
          "name": "B2",
          "midi": 47,
          "time": 96.82909400000041,
          "velocity": 1,
          "duration": 0.7317060000000026
        },
        {
          "name": "F#3",
          "midi": 54,
          "time": 96.82909400000041,
          "velocity": 1,
          "duration": 0.7317060000000026
        },
        {
          "name": "F#2",
          "midi": 42,
          "time": 97.56080000000041,
          "velocity": 1,
          "duration": 0.7317060000000026
        },
        {
          "name": "C#3",
          "midi": 49,
          "time": 97.56080000000041,
          "velocity": 1,
          "duration": 0.7317060000000026
        },
        {
          "name": "C#3",
          "midi": 49,
          "time": 98.29250600000042,
          "velocity": 1,
          "duration": 0.24390200000000561
        },
        {
          "name": "C3",
          "midi": 48,
          "time": 98.53640800000042,
          "velocity": 1,
          "duration": 0.24390200000000561
        },
        {
          "name": "B2",
          "midi": 47,
          "time": 98.78031000000043,
          "velocity": 1,
          "duration": 0.7317060000000026
        },
        {
          "name": "F#3",
          "midi": 54,
          "time": 98.78031000000043,
          "velocity": 1,
          "duration": 0.7317060000000026
        },
        {
          "name": "E2",
          "midi": 40,
          "time": 99.51201600000043,
          "velocity": 1,
          "duration": 0.7317060000000026
        },
        {
          "name": "B2",
          "midi": 47,
          "time": 99.51201600000043,
          "velocity": 1,
          "duration": 0.7317060000000026
        },
        {
          "name": "G3",
          "midi": 55,
          "time": 100.24372200000043,
          "velocity": 1,
          "duration": 0.24390200000000561
        },
        {
          "name": "E3",
          "midi": 52,
          "time": 100.48762400000044,
          "velocity": 1,
          "duration": 0.24390200000000561
        },
        {
          "name": "A3",
          "midi": 57,
          "time": 100.73152600000044,
          "velocity": 1,
          "duration": 0.24390200000000561
        },
        {
          "name": "E3",
          "midi": 52,
          "time": 100.97542800000045,
          "velocity": 1,
          "duration": 0.24390200000000561
        },
        {
          "name": "B3",
          "midi": 59,
          "time": 101.21933000000045,
          "velocity": 1,
          "duration": 0.24390200000000561
        },
        {
          "name": "G3",
          "midi": 55,
          "time": 101.46323200000046,
          "velocity": 1,
          "duration": 0.24390200000000561
        },
        {
          "name": "F#2",
          "midi": 42,
          "time": 101.70713400000047,
          "velocity": 1,
          "duration": 0.487803999999997
        },
        {
          "name": "C#3",
          "midi": 49,
          "time": 101.70713400000047,
          "velocity": 1,
          "duration": 0.487803999999997
        },
        {
          "name": "C#3",
          "midi": 49,
          "time": 102.19493800000046,
          "velocity": 1,
          "duration": 0.24390200000000561
        },
        {
          "name": "C3",
          "midi": 48,
          "time": 102.43884000000047,
          "velocity": 1,
          "duration": 0.24390200000000561
        },
        {
          "name": "B2",
          "midi": 47,
          "time": 102.68274200000047,
          "velocity": 1,
          "duration": 0.7317060000000026
        },
        {
          "name": "F#3",
          "midi": 54,
          "time": 102.68274200000047,
          "velocity": 1,
          "duration": 0.7317060000000026
        },
        {
          "name": "E2",
          "midi": 40,
          "time": 103.41444800000048,
          "velocity": 1,
          "duration": 0.7317060000000026
        },
        {
          "name": "B2",
          "midi": 47,
          "time": 103.41444800000048,
          "velocity": 1,
          "duration": 0.7317060000000026
        },
        {
          "name": "G3",
          "midi": 55,
          "time": 104.14615400000048,
          "velocity": 1,
          "duration": 0.24390200000000561
        },
        {
          "name": "E3",
          "midi": 52,
          "time": 104.39005600000048,
          "velocity": 1,
          "duration": 0.24390200000000561
        },
        {
          "name": "G3",
          "midi": 55,
          "time": 104.63395800000049,
          "velocity": 1,
          "duration": 0.24390200000000561
        },
        {
          "name": "E3",
          "midi": 52,
          "time": 104.8778600000005,
          "velocity": 1,
          "duration": 0.24390200000000561
        },
        {
          "name": "A3",
          "midi": 57,
          "time": 105.1217620000005,
          "velocity": 1,
          "duration": 0.24390200000000561
        },
        {
          "name": "E3",
          "midi": 52,
          "time": 105.3656640000005,
          "velocity": 1,
          "duration": 0.24390200000000561
        },
        {
          "name": "E2",
          "midi": 40,
          "time": 107.31688000000051,
          "velocity": 1,
          "duration": 0.487803999999997
        },
        {
          "name": "B2",
          "midi": 47,
          "time": 107.31688000000051,
          "velocity": 1,
          "duration": 0.487803999999997
        },
        {
          "name": "E2",
          "midi": 40,
          "time": 107.8046840000005,
          "velocity": 1,
          "duration": 0.24390200000000561
        },
        {
          "name": "B2",
          "midi": 47,
          "time": 107.8046840000005,
          "velocity": 1,
          "duration": 0.24390200000000561
        },
        {
          "name": "E3",
          "midi": 52,
          "time": 108.04858600000051,
          "velocity": 1,
          "duration": 0.24390200000000561
        },
        {
          "name": "A#2",
          "midi": 46,
          "time": 108.29248800000052,
          "velocity": 1,
          "duration": 0.24390200000000561
        },
        {
          "name": "A2",
          "midi": 45,
          "time": 108.53639000000052,
          "velocity": 1,
          "duration": 0.487803999999997
        },
        {
          "name": "E2",
          "midi": 40,
          "time": 109.02419400000052,
          "velocity": 1,
          "duration": 0.24390200000000561
        },
        {
          "name": "B2",
          "midi": 47,
          "time": 109.26809600000053,
          "velocity": 1,
          "duration": 0.487803999999997
        },
        {
          "name": "E2",
          "midi": 40,
          "time": 109.26809600000053,
          "velocity": 1,
          "duration": 0.487803999999997
        },
        {
          "name": "E2",
          "midi": 40,
          "time": 109.75590000000052,
          "velocity": 1,
          "duration": 0.24390200000000561
        },
        {
          "name": "B2",
          "midi": 47,
          "time": 109.75590000000052,
          "velocity": 1,
          "duration": 0.24390200000000561
        },
        {
          "name": "E3",
          "midi": 52,
          "time": 109.99980200000053,
          "velocity": 1,
          "duration": 0.24390200000000561
        },
        {
          "name": "A#2",
          "midi": 46,
          "time": 110.24370400000053,
          "velocity": 1,
          "duration": 0.24390200000000561
        },
        {
          "name": "A2",
          "midi": 45,
          "time": 110.48760600000054,
          "velocity": 1,
          "duration": 0.487803999999997
        },
        {
          "name": "E2",
          "midi": 40,
          "time": 110.97541000000054,
          "velocity": 1,
          "duration": 0.24390200000000561
        },
        {
          "name": "B2",
          "midi": 47,
          "time": 111.21931200000054,
          "velocity": 1,
          "duration": 0.487803999999997
        },
        {
          "name": "E2",
          "midi": 40,
          "time": 111.21931200000054,
          "velocity": 1,
          "duration": 0.487803999999997
        },
        {
          "name": "E2",
          "midi": 40,
          "time": 111.70711600000054,
          "velocity": 1,
          "duration": 0.24390200000000561
        },
        {
          "name": "B2",
          "midi": 47,
          "time": 111.70711600000054,
          "velocity": 1,
          "duration": 0.24390200000000561
        },
        {
          "name": "E3",
          "midi": 52,
          "time": 111.95101800000054,
          "velocity": 1,
          "duration": 0.24390200000000561
        },
        {
          "name": "A#2",
          "midi": 46,
          "time": 112.19492000000055,
          "velocity": 1,
          "duration": 0.24390200000000561
        },
        {
          "name": "A2",
          "midi": 45,
          "time": 112.43882200000056,
          "velocity": 1,
          "duration": 0.487803999999997
        },
        {
          "name": "E2",
          "midi": 40,
          "time": 112.92662600000055,
          "velocity": 1,
          "duration": 0.24390200000000561
        },
        {
          "name": "G2",
          "midi": 43,
          "time": 113.17052800000056,
          "velocity": 1,
          "duration": 0.487803999999997
        },
        {
          "name": "D3",
          "midi": 50,
          "time": 113.17052800000056,
          "velocity": 1,
          "duration": 0.487803999999997
        },
        {
          "name": "E2",
          "midi": 40,
          "time": 113.65833200000056,
          "velocity": 1,
          "duration": 0.24390200000000561
        },
        {
          "name": "C#3",
          "midi": 49,
          "time": 113.90223400000056,
          "velocity": 1,
          "duration": 0.24390200000000561
        },
        {
          "name": "F#2",
          "midi": 42,
          "time": 113.90223400000056,
          "velocity": 1,
          "duration": 0.24390200000000561
        },
        {
          "name": "E2",
          "midi": 40,
          "time": 114.14613600000057,
          "velocity": 1,
          "duration": 0.24390200000000561
        },
        {
          "name": "C#3",
          "midi": 49,
          "time": 114.39003800000057,
          "velocity": 1,
          "duration": 0.24390200000000561
        },
        {
          "name": "F#2",
          "midi": 42,
          "time": 114.39003800000057,
          "velocity": 1,
          "duration": 0.24390200000000561
        },
        {
          "name": "G2",
          "midi": 43,
          "time": 114.63394000000058,
          "velocity": 1,
          "duration": 0.24390200000000561
        },
        {
          "name": "D3",
          "midi": 50,
          "time": 114.63394000000058,
          "velocity": 1,
          "duration": 0.24390200000000561
        },
        {
          "name": "F#2",
          "midi": 42,
          "time": 114.87784200000058,
          "velocity": 1,
          "duration": 0.24390200000000561
        },
        {
          "name": "C#3",
          "midi": 49,
          "time": 114.87784200000058,
          "velocity": 1,
          "duration": 0.24390200000000561
        },
        {
          "name": "E2",
          "midi": 40,
          "time": 115.12174400000059,
          "velocity": 1,
          "duration": 0.487803999999997
        },
        {
          "name": "B2",
          "midi": 47,
          "time": 115.12174400000059,
          "velocity": 1,
          "duration": 0.487803999999997
        },
        {
          "name": "E2",
          "midi": 40,
          "time": 115.60954800000059,
          "velocity": 1,
          "duration": 0.24390200000000561
        },
        {
          "name": "B2",
          "midi": 47,
          "time": 115.60954800000059,
          "velocity": 1,
          "duration": 0.24390200000000561
        },
        {
          "name": "E3",
          "midi": 52,
          "time": 115.85345000000059,
          "velocity": 1,
          "duration": 0.24390200000000561
        },
        {
          "name": "A#2",
          "midi": 46,
          "time": 116.0973520000006,
          "velocity": 1,
          "duration": 0.24390200000000561
        },
        {
          "name": "A2",
          "midi": 45,
          "time": 116.3412540000006,
          "velocity": 1,
          "duration": 0.487803999999997
        },
        {
          "name": "E2",
          "midi": 40,
          "time": 116.8290580000006,
          "velocity": 1,
          "duration": 0.24390200000000561
        },
        {
          "name": "B2",
          "midi": 47,
          "time": 117.0729600000006,
          "velocity": 1,
          "duration": 0.487803999999997
        },
        {
          "name": "E2",
          "midi": 40,
          "time": 117.0729600000006,
          "velocity": 1,
          "duration": 0.487803999999997
        },
        {
          "name": "E2",
          "midi": 40,
          "time": 117.5607640000006,
          "velocity": 1,
          "duration": 0.24390200000000561
        },
        {
          "name": "B2",
          "midi": 47,
          "time": 117.5607640000006,
          "velocity": 1,
          "duration": 0.24390200000000561
        },
        {
          "name": "E3",
          "midi": 52,
          "time": 117.80466600000061,
          "velocity": 1,
          "duration": 0.24390200000000561
        },
        {
          "name": "A#2",
          "midi": 46,
          "time": 118.04856800000061,
          "velocity": 1,
          "duration": 0.24390200000000561
        },
        {
          "name": "A2",
          "midi": 45,
          "time": 118.29247000000062,
          "velocity": 1,
          "duration": 0.487803999999997
        },
        {
          "name": "E2",
          "midi": 40,
          "time": 118.78027400000062,
          "velocity": 1,
          "duration": 0.24390200000000561
        },
        {
          "name": "B2",
          "midi": 47,
          "time": 119.02417600000062,
          "velocity": 1,
          "duration": 0.487803999999997
        },
        {
          "name": "E2",
          "midi": 40,
          "time": 119.02417600000062,
          "velocity": 1,
          "duration": 0.487803999999997
        },
        {
          "name": "E2",
          "midi": 40,
          "time": 119.51198000000062,
          "velocity": 1,
          "duration": 0.24390200000000561
        },
        {
          "name": "B2",
          "midi": 47,
          "time": 119.51198000000062,
          "velocity": 1,
          "duration": 0.24390200000000561
        },
        {
          "name": "E3",
          "midi": 52,
          "time": 119.75588200000062,
          "velocity": 1,
          "duration": 0.24390200000000561
        },
        {
          "name": "A#2",
          "midi": 46,
          "time": 119.99978400000063,
          "velocity": 1,
          "duration": 0.24390200000000561
        },
        {
          "name": "A2",
          "midi": 45,
          "time": 120.24368600000064,
          "velocity": 1,
          "duration": 0.487803999999997
        },
        {
          "name": "E2",
          "midi": 40,
          "time": 120.73149000000063,
          "velocity": 1,
          "duration": 0.24390200000000561
        },
        {
          "name": "G2",
          "midi": 43,
          "time": 120.97539200000064,
          "velocity": 1,
          "duration": 0.487803999999997
        },
        {
          "name": "D3",
          "midi": 50,
          "time": 120.97539200000064,
          "velocity": 1,
          "duration": 0.487803999999997
        },
        {
          "name": "E2",
          "midi": 40,
          "time": 121.46319600000064,
          "velocity": 1,
          "duration": 0.24390200000000561
        },
        {
          "name": "C#3",
          "midi": 49,
          "time": 121.70709800000064,
          "velocity": 1,
          "duration": 0.24390200000000561
        },
        {
          "name": "F#2",
          "midi": 42,
          "time": 121.70709800000064,
          "velocity": 1,
          "duration": 0.24390200000000561
        },
        {
          "name": "E2",
          "midi": 40,
          "time": 121.95100000000065,
          "velocity": 1,
          "duration": 0.24390200000000561
        },
        {
          "name": "C#3",
          "midi": 49,
          "time": 122.19490200000065,
          "velocity": 1,
          "duration": 0.24390200000000561
        },
        {
          "name": "F#2",
          "midi": 42,
          "time": 122.19490200000065,
          "velocity": 1,
          "duration": 0.24390200000000561
        },
        {
          "name": "G2",
          "midi": 43,
          "time": 122.43880400000066,
          "velocity": 1,
          "duration": 0.24390200000000561
        },
        {
          "name": "D3",
          "midi": 50,
          "time": 122.43880400000066,
          "velocity": 1,
          "duration": 0.24390200000000561
        },
        {
          "name": "F#2",
          "midi": 42,
          "time": 122.68270600000066,
          "velocity": 1,
          "duration": 0.24390200000000561
        },
        {
          "name": "C#3",
          "midi": 49,
          "time": 122.68270600000066,
          "velocity": 1,
          "duration": 0.24390200000000561
        },
        {
          "name": "E2",
          "midi": 40,
          "time": 122.92660800000067,
          "velocity": 1,
          "duration": 0.487803999999997
        },
        {
          "name": "B2",
          "midi": 47,
          "time": 122.92660800000067,
          "velocity": 1,
          "duration": 0.487803999999997
        },
        {
          "name": "E2",
          "midi": 40,
          "time": 123.41441200000067,
          "velocity": 1,
          "duration": 0.24390200000000561
        },
        {
          "name": "E2",
          "midi": 40,
          "time": 123.65831400000067,
          "velocity": 1,
          "duration": 0.24390200000000561
        },
        {
          "name": "E2",
          "midi": 40,
          "time": 123.90221600000068,
          "velocity": 1,
          "duration": 0.24390200000000561
        },
        {
          "name": "E2",
          "midi": 40,
          "time": 124.14611800000068,
          "velocity": 1,
          "duration": 0.24390200000000561
        },
        {
          "name": "E2",
          "midi": 40,
          "time": 124.39002000000069,
          "velocity": 1,
          "duration": 0.24390200000000561
        },
        {
          "name": "E2",
          "midi": 40,
          "time": 124.6339220000007,
          "velocity": 1,
          "duration": 0.24390200000000561
        },
        {
          "name": "C3",
          "midi": 48,
          "time": 124.8778240000007,
          "velocity": 1,
          "duration": 0.24390200000000561
        },
        {
          "name": "F2",
          "midi": 41,
          "time": 124.8778240000007,
          "velocity": 1,
          "duration": 0.24390200000000561
        },
        {
          "name": "E2",
          "midi": 40,
          "time": 125.1217260000007,
          "velocity": 1,
          "duration": 0.24390200000000561
        },
        {
          "name": "E2",
          "midi": 40,
          "time": 125.36562800000071,
          "velocity": 1,
          "duration": 0.24390200000000561
        },
        {
          "name": "E2",
          "midi": 40,
          "time": 125.60953000000072,
          "velocity": 1,
          "duration": 0.24390200000000561
        },
        {
          "name": "E2",
          "midi": 40,
          "time": 125.85343200000072,
          "velocity": 1,
          "duration": 0.24390200000000561
        },
        {
          "name": "E2",
          "midi": 40,
          "time": 126.09733400000073,
          "velocity": 1,
          "duration": 0.24390200000000561
        },
        {
          "name": "E2",
          "midi": 40,
          "time": 126.34123600000073,
          "velocity": 1,
          "duration": 0.24390200000000561
        },
        {
          "name": "E2",
          "midi": 40,
          "time": 126.58513800000074,
          "velocity": 1,
          "duration": 0.24390200000000561
        },
        {
          "name": "C3",
          "midi": 48,
          "time": 126.82904000000075,
          "velocity": 1,
          "duration": 0.24390200000000561
        },
        {
          "name": "F2",
          "midi": 41,
          "time": 126.82904000000075,
          "velocity": 1,
          "duration": 0.24390200000000561
        },
        {
          "name": "E2",
          "midi": 40,
          "time": 127.07294200000075,
          "velocity": 1,
          "duration": 0.24390200000000561
        },
        {
          "name": "E2",
          "midi": 40,
          "time": 127.31684400000076,
          "velocity": 1,
          "duration": 0.24390200000000561
        },
        {
          "name": "E2",
          "midi": 40,
          "time": 127.56074600000076,
          "velocity": 1,
          "duration": 0.24390200000000561
        },
        {
          "name": "E2",
          "midi": 40,
          "time": 127.80464800000077,
          "velocity": 1,
          "duration": 0.24390200000000561
        },
        {
          "name": "E2",
          "midi": 40,
          "time": 128.04855000000077,
          "velocity": 1,
          "duration": 0.2439019999999914
        },
        {
          "name": "E2",
          "midi": 40,
          "time": 128.29245200000076,
          "velocity": 1,
          "duration": 0.2439019999999914
        },
        {
          "name": "E2",
          "midi": 40,
          "time": 128.53635400000076,
          "velocity": 1,
          "duration": 0.2439019999999914
        },
        {
          "name": "D3",
          "midi": 50,
          "time": 128.78025600000075,
          "velocity": 1,
          "duration": 0.48780400000001123
        },
        {
          "name": "G2",
          "midi": 43,
          "time": 128.78025600000075,
          "velocity": 1,
          "duration": 0.48780400000001123
        },
        {
          "name": "E2",
          "midi": 40,
          "time": 129.26806000000076,
          "velocity": 1,
          "duration": 0.2439019999999914
        },
        {
          "name": "C#3",
          "midi": 49,
          "time": 129.51196200000075,
          "velocity": 1,
          "duration": 0.2439019999999914
        },
        {
          "name": "F#2",
          "midi": 42,
          "time": 129.51196200000075,
          "velocity": 1,
          "duration": 0.2439019999999914
        },
        {
          "name": "E2",
          "midi": 40,
          "time": 129.75586400000074,
          "velocity": 1,
          "duration": 0.2439019999999914
        },
        {
          "name": "C#3",
          "midi": 49,
          "time": 129.99976600000073,
          "velocity": 1,
          "duration": 0.2439019999999914
        },
        {
          "name": "F#2",
          "midi": 42,
          "time": 129.99976600000073,
          "velocity": 1,
          "duration": 0.2439019999999914
        },
        {
          "name": "G2",
          "midi": 43,
          "time": 130.24366800000072,
          "velocity": 1,
          "duration": 0.2439019999999914
        },
        {
          "name": "D3",
          "midi": 50,
          "time": 130.24366800000072,
          "velocity": 1,
          "duration": 0.2439019999999914
        },
        {
          "name": "C#3",
          "midi": 49,
          "time": 130.48757000000072,
          "velocity": 1,
          "duration": 0.2439019999999914
        },
        {
          "name": "F#2",
          "midi": 42,
          "time": 130.48757000000072,
          "velocity": 1,
          "duration": 0.2439019999999914
        },
        {
          "name": "E2",
          "midi": 40,
          "time": 130.7314720000007,
          "velocity": 1,
          "duration": 0.48780400000001123
        },
        {
          "name": "B2",
          "midi": 47,
          "time": 130.7314720000007,
          "velocity": 1,
          "duration": 0.48780400000001123
        },
        {
          "name": "E2",
          "midi": 40,
          "time": 131.21927600000072,
          "velocity": 1,
          "duration": 0.2439019999999914
        },
        {
          "name": "E2",
          "midi": 40,
          "time": 131.4631780000007,
          "velocity": 1,
          "duration": 0.2439019999999914
        },
        {
          "name": "E2",
          "midi": 40,
          "time": 131.7070800000007,
          "velocity": 1,
          "duration": 0.2439019999999914
        },
        {
          "name": "E2",
          "midi": 40,
          "time": 131.9509820000007,
          "velocity": 1,
          "duration": 0.2439019999999914
        },
        {
          "name": "E2",
          "midi": 40,
          "time": 132.19488400000068,
          "velocity": 1,
          "duration": 0.2439019999999914
        },
        {
          "name": "E2",
          "midi": 40,
          "time": 132.43878600000068,
          "velocity": 1,
          "duration": 0.2439019999999914
        },
        {
          "name": "C3",
          "midi": 48,
          "time": 132.68268800000067,
          "velocity": 1,
          "duration": 0.2439019999999914
        },
        {
          "name": "F2",
          "midi": 41,
          "time": 132.68268800000067,
          "velocity": 1,
          "duration": 0.2439019999999914
        },
        {
          "name": "E2",
          "midi": 40,
          "time": 132.92659000000066,
          "velocity": 1,
          "duration": 0.2439019999999914
        },
        {
          "name": "E2",
          "midi": 40,
          "time": 133.17049200000065,
          "velocity": 1,
          "duration": 0.2439019999999914
        },
        {
          "name": "E2",
          "midi": 40,
          "time": 133.41439400000064,
          "velocity": 1,
          "duration": 0.2439019999999914
        },
        {
          "name": "E2",
          "midi": 40,
          "time": 133.65829600000063,
          "velocity": 1,
          "duration": 0.2439019999999914
        },
        {
          "name": "E2",
          "midi": 40,
          "time": 133.90219800000062,
          "velocity": 1,
          "duration": 0.2439019999999914
        },
        {
          "name": "E2",
          "midi": 40,
          "time": 134.14610000000062,
          "velocity": 1,
          "duration": 0.2439019999999914
        },
        {
          "name": "E2",
          "midi": 40,
          "time": 134.3900020000006,
          "velocity": 1,
          "duration": 0.2439019999999914
        },
        {
          "name": "C3",
          "midi": 48,
          "time": 134.6339040000006,
          "velocity": 1,
          "duration": 0.2439019999999914
        },
        {
          "name": "F2",
          "midi": 41,
          "time": 134.6339040000006,
          "velocity": 1,
          "duration": 0.2439019999999914
        },
        {
          "name": "E2",
          "midi": 40,
          "time": 134.8778060000006,
          "velocity": 1,
          "duration": 0.2439019999999914
        },
        {
          "name": "E2",
          "midi": 40,
          "time": 135.12170800000058,
          "velocity": 1,
          "duration": 0.2439019999999914
        },
        {
          "name": "E2",
          "midi": 40,
          "time": 135.36561000000057,
          "velocity": 1,
          "duration": 0.2439019999999914
        },
        {
          "name": "E2",
          "midi": 40,
          "time": 135.60951200000056,
          "velocity": 1,
          "duration": 0.2439019999999914
        },
        {
          "name": "E2",
          "midi": 40,
          "time": 135.85341400000056,
          "velocity": 1,
          "duration": 0.2439019999999914
        },
        {
          "name": "E2",
          "midi": 40,
          "time": 136.09731600000055,
          "velocity": 1,
          "duration": 0.2439019999999914
        },
        {
          "name": "E2",
          "midi": 40,
          "time": 136.34121800000054,
          "velocity": 1,
          "duration": 0.2439019999999914
        },
        {
          "name": "G2",
          "midi": 43,
          "time": 136.58512000000053,
          "velocity": 1,
          "duration": 0.48780400000001123
        },
        {
          "name": "D3",
          "midi": 50,
          "time": 136.58512000000053,
          "velocity": 1,
          "duration": 0.48780400000001123
        },
        {
          "name": "E2",
          "midi": 40,
          "time": 137.07292400000054,
          "velocity": 1,
          "duration": 0.2439019999999914
        },
        {
          "name": "C#3",
          "midi": 49,
          "time": 137.31682600000053,
          "velocity": 1,
          "duration": 0.2439019999999914
        },
        {
          "name": "F#2",
          "midi": 42,
          "time": 137.31682600000053,
          "velocity": 1,
          "duration": 0.2439019999999914
        },
        {
          "name": "E2",
          "midi": 40,
          "time": 137.56072800000052,
          "velocity": 1,
          "duration": 0.2439019999999914
        },
        {
          "name": "C#3",
          "midi": 49,
          "time": 137.80463000000051,
          "velocity": 1,
          "duration": 0.2439019999999914
        },
        {
          "name": "F#2",
          "midi": 42,
          "time": 137.80463000000051,
          "velocity": 1,
          "duration": 0.2439019999999914
        },
        {
          "name": "G2",
          "midi": 43,
          "time": 138.0485320000005,
          "velocity": 1,
          "duration": 0.2439019999999914
        },
        {
          "name": "D3",
          "midi": 50,
          "time": 138.0485320000005,
          "velocity": 1,
          "duration": 0.2439019999999914
        },
        {
          "name": "C#3",
          "midi": 49,
          "time": 138.2924340000005,
          "velocity": 1,
          "duration": 0.2439019999999914
        },
        {
          "name": "F#2",
          "midi": 42,
          "time": 138.2924340000005,
          "velocity": 1,
          "duration": 0.2439019999999914
        },
        {
          "name": "F#2",
          "midi": 42,
          "time": 138.5363360000005,
          "velocity": 1,
          "duration": 0.48780400000001123
        },
        {
          "name": "F#3",
          "midi": 54,
          "time": 139.0241400000005,
          "velocity": 1,
          "duration": 0.2439019999999914
        },
        {
          "name": "A3",
          "midi": 57,
          "time": 139.2680420000005,
          "velocity": 1,
          "duration": 0.2439019999999914
        },
        {
          "name": "C3",
          "midi": 48,
          "time": 139.51194400000048,
          "velocity": 1,
          "duration": 0.2439019999999914
        },
        {
          "name": "B2",
          "midi": 47,
          "time": 139.75584600000047,
          "velocity": 1,
          "duration": 0.48780400000001123
        },
        {
          "name": "F#3",
          "midi": 54,
          "time": 140.24365000000049,
          "velocity": 1,
          "duration": 0.2439019999999914
        },
        {
          "name": "F#2",
          "midi": 42,
          "time": 140.48755200000048,
          "velocity": 1,
          "duration": 0.48780400000001123
        },
        {
          "name": "F#3",
          "midi": 54,
          "time": 140.9753560000005,
          "velocity": 1,
          "duration": 0.2439019999999914
        },
        {
          "name": "A3",
          "midi": 57,
          "time": 141.21925800000048,
          "velocity": 1,
          "duration": 0.2439019999999914
        },
        {
          "name": "C3",
          "midi": 48,
          "time": 141.46316000000047,
          "velocity": 1,
          "duration": 0.2439019999999914
        },
        {
          "name": "B2",
          "midi": 47,
          "time": 141.70706200000046,
          "velocity": 1,
          "duration": 0.48780400000001123
        },
        {
          "name": "F#3",
          "midi": 54,
          "time": 142.19486600000047,
          "velocity": 1,
          "duration": 0.2439019999999914
        },
        {
          "name": "F#2",
          "midi": 42,
          "time": 142.43876800000047,
          "velocity": 1,
          "duration": 0.48780400000001123
        },
        {
          "name": "F#3",
          "midi": 54,
          "time": 142.92657200000048,
          "velocity": 1,
          "duration": 0.2439019999999914
        },
        {
          "name": "A3",
          "midi": 57,
          "time": 143.17047400000047,
          "velocity": 1,
          "duration": 0.2439019999999914
        },
        {
          "name": "C3",
          "midi": 48,
          "time": 143.41437600000046,
          "velocity": 1,
          "duration": 0.2439019999999914
        },
        {
          "name": "B2",
          "midi": 47,
          "time": 143.65827800000045,
          "velocity": 1,
          "duration": 0.48780400000001123
        },
        {
          "name": "F#3",
          "midi": 54,
          "time": 144.14608200000046,
          "velocity": 1,
          "duration": 0.2439019999999914
        },
        {
          "name": "F#2",
          "midi": 42,
          "time": 144.38998400000045,
          "velocity": 1,
          "duration": 0.48780400000001123
        },
        {
          "name": "F#3",
          "midi": 54,
          "time": 144.87778800000046,
          "velocity": 1,
          "duration": 0.2439019999999914
        },
        {
          "name": "A3",
          "midi": 57,
          "time": 145.12169000000046,
          "velocity": 1,
          "duration": 0.2439019999999914
        },
        {
          "name": "C3",
          "midi": 48,
          "time": 145.36559200000045,
          "velocity": 1,
          "duration": 0.2439019999999914
        },
        {
          "name": "B2",
          "midi": 47,
          "time": 145.60949400000044,
          "velocity": 1,
          "duration": 0.48780400000001123
        },
        {
          "name": "F#3",
          "midi": 54,
          "time": 146.09729800000045,
          "velocity": 1,
          "duration": 0.48780400000001123
        },
        {
          "name": "F#2",
          "midi": 42,
          "time": 146.58510200000046,
          "velocity": 1,
          "duration": 0.48780400000001123
        },
        {
          "name": "C#3",
          "midi": 49,
          "time": 146.58510200000046,
          "velocity": 1,
          "duration": 0.48780400000001123
        },
        {
          "name": "C#3",
          "midi": 49,
          "time": 147.07290600000047,
          "velocity": 1,
          "duration": 0.2439019999999914
        },
        {
          "name": "C3",
          "midi": 48,
          "time": 147.31680800000046,
          "velocity": 1,
          "duration": 0.2439019999999914
        },
        {
          "name": "B2",
          "midi": 47,
          "time": 147.56071000000046,
          "velocity": 1,
          "duration": 0.7317060000000026
        },
        {
          "name": "F#3",
          "midi": 54,
          "time": 147.56071000000046,
          "velocity": 1,
          "duration": 0.7317060000000026
        },
        {
          "name": "F#2",
          "midi": 42,
          "time": 148.29241600000046,
          "velocity": 1,
          "duration": 0.7317060000000026
        },
        {
          "name": "C#3",
          "midi": 49,
          "time": 148.29241600000046,
          "velocity": 1,
          "duration": 0.7317060000000026
        },
        {
          "name": "C#3",
          "midi": 49,
          "time": 149.02412200000046,
          "velocity": 1,
          "duration": 0.2439019999999914
        },
        {
          "name": "C3",
          "midi": 48,
          "time": 149.26802400000045,
          "velocity": 1,
          "duration": 0.2439019999999914
        },
        {
          "name": "B2",
          "midi": 47,
          "time": 149.51192600000044,
          "velocity": 1,
          "duration": 0.7317060000000026
        },
        {
          "name": "F#3",
          "midi": 54,
          "time": 149.51192600000044,
          "velocity": 1,
          "duration": 0.7317060000000026
        },
        {
          "name": "F#2",
          "midi": 42,
          "time": 150.24363200000045,
          "velocity": 1,
          "duration": 0.7317060000000026
        },
        {
          "name": "C#3",
          "midi": 49,
          "time": 150.24363200000045,
          "velocity": 1,
          "duration": 0.7317060000000026
        },
        {
          "name": "C#3",
          "midi": 49,
          "time": 150.97533800000045,
          "velocity": 1,
          "duration": 0.2439019999999914
        },
        {
          "name": "C3",
          "midi": 48,
          "time": 151.21924000000044,
          "velocity": 1,
          "duration": 0.2439019999999914
        },
        {
          "name": "B2",
          "midi": 47,
          "time": 151.46314200000043,
          "velocity": 1,
          "duration": 0.7317060000000026
        },
        {
          "name": "F#3",
          "midi": 54,
          "time": 151.46314200000043,
          "velocity": 1,
          "duration": 0.7317060000000026
        },
        {
          "name": "E2",
          "midi": 40,
          "time": 152.19484800000043,
          "velocity": 1,
          "duration": 0.7317060000000026
        },
        {
          "name": "B2",
          "midi": 47,
          "time": 152.19484800000043,
          "velocity": 1,
          "duration": 0.7317060000000026
        },
        {
          "name": "G3",
          "midi": 55,
          "time": 152.92655400000044,
          "velocity": 1,
          "duration": 0.2439019999999914
        },
        {
          "name": "E3",
          "midi": 52,
          "time": 153.17045600000043,
          "velocity": 1,
          "duration": 0.2439019999999914
        },
        {
          "name": "A3",
          "midi": 57,
          "time": 153.41435800000042,
          "velocity": 1,
          "duration": 0.2439019999999914
        },
        {
          "name": "E3",
          "midi": 52,
          "time": 153.6582600000004,
          "velocity": 1,
          "duration": 0.2439019999999914
        },
        {
          "name": "B3",
          "midi": 59,
          "time": 153.9021620000004,
          "velocity": 1,
          "duration": 0.2439019999999914
        },
        {
          "name": "G3",
          "midi": 55,
          "time": 154.1460640000004,
          "velocity": 1,
          "duration": 0.2439019999999914
        },
        {
          "name": "F#2",
          "midi": 42,
          "time": 154.38996600000038,
          "velocity": 1,
          "duration": 0.48780400000001123
        },
        {
          "name": "C#3",
          "midi": 49,
          "time": 154.38996600000038,
          "velocity": 1,
          "duration": 0.48780400000001123
        },
        {
          "name": "C#3",
          "midi": 49,
          "time": 154.8777700000004,
          "velocity": 1,
          "duration": 0.2439019999999914
        },
        {
          "name": "C3",
          "midi": 48,
          "time": 155.1216720000004,
          "velocity": 1,
          "duration": 0.2439019999999914
        },
        {
          "name": "B2",
          "midi": 47,
          "time": 155.36557400000038,
          "velocity": 1,
          "duration": 0.7317060000000026
        },
        {
          "name": "F#3",
          "midi": 54,
          "time": 155.36557400000038,
          "velocity": 1,
          "duration": 0.7317060000000026
        },
        {
          "name": "E2",
          "midi": 40,
          "time": 156.09728000000038,
          "velocity": 1,
          "duration": 0.7317060000000026
        },
        {
          "name": "B2",
          "midi": 47,
          "time": 156.09728000000038,
          "velocity": 1,
          "duration": 0.7317060000000026
        },
        {
          "name": "G3",
          "midi": 55,
          "time": 156.82898600000038,
          "velocity": 1,
          "duration": 0.2439019999999914
        },
        {
          "name": "E3",
          "midi": 52,
          "time": 157.07288800000038,
          "velocity": 1,
          "duration": 0.2439019999999914
        },
        {
          "name": "G3",
          "midi": 55,
          "time": 157.31679000000037,
          "velocity": 1,
          "duration": 0.2439019999999914
        },
        {
          "name": "E3",
          "midi": 52,
          "time": 157.56069200000036,
          "velocity": 1,
          "duration": 0.2439019999999914
        },
        {
          "name": "A3",
          "midi": 57,
          "time": 157.80459400000035,
          "velocity": 1,
          "duration": 0.2439019999999914
        },
        {
          "name": "E3",
          "midi": 52,
          "time": 158.04849600000034,
          "velocity": 1,
          "duration": 0.2439019999999914
        },
        {
          "name": "E2",
          "midi": 40,
          "time": 159.99971200000033,
          "velocity": 1,
          "duration": 1.951215999999988
        },
        {
          "name": "B2",
          "midi": 47,
          "time": 159.99971200000033,
          "velocity": 1,
          "duration": 1.951215999999988
        },
        {
          "name": "E2",
          "midi": 40,
          "time": 161.95092800000032,
          "velocity": 1,
          "duration": 0.48780400000001123
        },
        {
          "name": "B2",
          "midi": 47,
          "time": 161.95092800000032,
          "velocity": 1,
          "duration": 0.48780400000001123
        },
        {
          "name": "E2",
          "midi": 40,
          "time": 162.43873200000033,
          "velocity": 1,
          "duration": 0.2439019999999914
        },
        {
          "name": "B2",
          "midi": 47,
          "time": 162.43873200000033,
          "velocity": 1,
          "duration": 0.2439019999999914
        },
        {
          "name": "E3",
          "midi": 52,
          "time": 162.68263400000032,
          "velocity": 1,
          "duration": 0.2439019999999914
        },
        {
          "name": "A#2",
          "midi": 46,
          "time": 162.9265360000003,
          "velocity": 1,
          "duration": 0.2439019999999914
        },
        {
          "name": "A2",
          "midi": 45,
          "time": 163.1704380000003,
          "velocity": 1,
          "duration": 0.48780400000015334
        },
        {
          "name": "E2",
          "midi": 40,
          "time": 163.65824200000046,
          "velocity": 1,
          "duration": 0.2439019999999914
        },
        {
          "name": "B2",
          "midi": 47,
          "time": 163.90214400000045,
          "velocity": 1,
          "duration": 0.48780400000001123
        },
        {
          "name": "E2",
          "midi": 40,
          "time": 163.90214400000045,
          "velocity": 1,
          "duration": 0.48780400000001123
        },
        {
          "name": "E2",
          "midi": 40,
          "time": 164.38994800000046,
          "velocity": 1,
          "duration": 0.2439019999999914
        },
        {
          "name": "B2",
          "midi": 47,
          "time": 164.38994800000046,
          "velocity": 1,
          "duration": 0.2439019999999914
        },
        {
          "name": "E3",
          "midi": 52,
          "time": 164.63385000000045,
          "velocity": 1,
          "duration": 0.2439019999999914
        },
        {
          "name": "A#2",
          "midi": 46,
          "time": 164.87775200000044,
          "velocity": 1,
          "duration": 0.2439019999999914
        },
        {
          "name": "A2",
          "midi": 45,
          "time": 165.12165400000043,
          "velocity": 1,
          "duration": 0.48780400000015334
        },
        {
          "name": "E2",
          "midi": 40,
          "time": 165.6094580000006,
          "velocity": 1,
          "duration": 0.2439019999999914
        },
        {
          "name": "B2",
          "midi": 47,
          "time": 165.85336000000058,
          "velocity": 1,
          "duration": 0.48780400000001123
        },
        {
          "name": "E2",
          "midi": 40,
          "time": 165.85336000000058,
          "velocity": 1,
          "duration": 0.48780400000001123
        },
        {
          "name": "E2",
          "midi": 40,
          "time": 166.3411640000006,
          "velocity": 1,
          "duration": 0.2439019999999914
        },
        {
          "name": "B2",
          "midi": 47,
          "time": 166.3411640000006,
          "velocity": 1,
          "duration": 0.2439019999999914
        },
        {
          "name": "E3",
          "midi": 52,
          "time": 166.58506600000058,
          "velocity": 1,
          "duration": 0.2439019999999914
        },
        {
          "name": "A#2",
          "midi": 46,
          "time": 166.82896800000057,
          "velocity": 1,
          "duration": 0.2439019999999914
        },
        {
          "name": "A2",
          "midi": 45,
          "time": 167.07287000000056,
          "velocity": 1,
          "duration": 0.48780400000015334
        },
        {
          "name": "E2",
          "midi": 40,
          "time": 167.56067400000072,
          "velocity": 1,
          "duration": 0.2439019999999914
        },
        {
          "name": "G2",
          "midi": 43,
          "time": 167.8045760000007,
          "velocity": 1,
          "duration": 0.48780400000001123
        },
        {
          "name": "D3",
          "midi": 50,
          "time": 167.8045760000007,
          "velocity": 1,
          "duration": 0.48780400000001123
        },
        {
          "name": "E2",
          "midi": 40,
          "time": 168.29238000000072,
          "velocity": 1,
          "duration": 0.2439019999999914
        },
        {
          "name": "C#3",
          "midi": 49,
          "time": 168.5362820000007,
          "velocity": 1,
          "duration": 0.2439019999999914
        },
        {
          "name": "F#2",
          "midi": 42,
          "time": 168.5362820000007,
          "velocity": 1,
          "duration": 0.2439019999999914
        },
        {
          "name": "E2",
          "midi": 40,
          "time": 168.7801840000007,
          "velocity": 1,
          "duration": 0.2439019999999914
        },
        {
          "name": "C#3",
          "midi": 49,
          "time": 169.0240860000007,
          "velocity": 1,
          "duration": 0.2439019999999914
        },
        {
          "name": "F#2",
          "midi": 42,
          "time": 169.0240860000007,
          "velocity": 1,
          "duration": 0.2439019999999914
        },
        {
          "name": "G2",
          "midi": 43,
          "time": 169.26798800000068,
          "velocity": 1,
          "duration": 0.2439019999999914
        },
        {
          "name": "D3",
          "midi": 50,
          "time": 169.26798800000068,
          "velocity": 1,
          "duration": 0.2439019999999914
        },
        {
          "name": "F#2",
          "midi": 42,
          "time": 169.51189000000068,
          "velocity": 1,
          "duration": 0.2439019999999914
        },
        {
          "name": "C#3",
          "midi": 49,
          "time": 169.51189000000068,
          "velocity": 1,
          "duration": 0.2439019999999914
        },
        {
          "name": "E2",
          "midi": 40,
          "time": 169.75579200000067,
          "velocity": 1,
          "duration": 0.48780400000001123
        },
        {
          "name": "B2",
          "midi": 47,
          "time": 169.75579200000067,
          "velocity": 1,
          "duration": 0.48780400000001123
        },
        {
          "name": "E2",
          "midi": 40,
          "time": 170.24359600000068,
          "velocity": 1,
          "duration": 0.2439019999999914
        },
        {
          "name": "B2",
          "midi": 47,
          "time": 170.24359600000068,
          "velocity": 1,
          "duration": 0.2439019999999914
        },
        {
          "name": "E3",
          "midi": 52,
          "time": 170.48749800000067,
          "velocity": 1,
          "duration": 0.2439019999999914
        },
        {
          "name": "A#2",
          "midi": 46,
          "time": 170.73140000000066,
          "velocity": 1,
          "duration": 0.2439019999999914
        },
        {
          "name": "A2",
          "midi": 45,
          "time": 170.97530200000065,
          "velocity": 1,
          "duration": 0.48780400000015334
        },
        {
          "name": "E2",
          "midi": 40,
          "time": 171.4631060000008,
          "velocity": 1,
          "duration": 0.2439019999999914
        },
        {
          "name": "B2",
          "midi": 47,
          "time": 171.7070080000008,
          "velocity": 1,
          "duration": 0.48780400000001123
        },
        {
          "name": "E2",
          "midi": 40,
          "time": 171.7070080000008,
          "velocity": 1,
          "duration": 0.48780400000001123
        },
        {
          "name": "E2",
          "midi": 40,
          "time": 172.1948120000008,
          "velocity": 1,
          "duration": 0.2439019999999914
        },
        {
          "name": "B2",
          "midi": 47,
          "time": 172.1948120000008,
          "velocity": 1,
          "duration": 0.2439019999999914
        },
        {
          "name": "E3",
          "midi": 52,
          "time": 172.4387140000008,
          "velocity": 1,
          "duration": 0.2439019999999914
        },
        {
          "name": "A#2",
          "midi": 46,
          "time": 172.6826160000008,
          "velocity": 1,
          "duration": 0.2439019999999914
        },
        {
          "name": "A2",
          "midi": 45,
          "time": 172.92651800000078,
          "velocity": 1,
          "duration": 0.48780400000015334
        },
        {
          "name": "E2",
          "midi": 40,
          "time": 173.41432200000094,
          "velocity": 1,
          "duration": 0.2439019999999914
        },
        {
          "name": "B2",
          "midi": 47,
          "time": 173.65822400000093,
          "velocity": 1,
          "duration": 0.48780400000001123
        },
        {
          "name": "E2",
          "midi": 40,
          "time": 173.65822400000093,
          "velocity": 1,
          "duration": 0.48780400000001123
        },
        {
          "name": "E2",
          "midi": 40,
          "time": 174.14602800000094,
          "velocity": 1,
          "duration": 0.2439019999999914
        },
        {
          "name": "B2",
          "midi": 47,
          "time": 174.14602800000094,
          "velocity": 1,
          "duration": 0.2439019999999914
        },
        {
          "name": "E3",
          "midi": 52,
          "time": 174.38993000000093,
          "velocity": 1,
          "duration": 0.2439019999999914
        },
        {
          "name": "A#2",
          "midi": 46,
          "time": 174.63383200000092,
          "velocity": 1,
          "duration": 0.2439019999999914
        },
        {
          "name": "A2",
          "midi": 45,
          "time": 174.8777340000009,
          "velocity": 1,
          "duration": 0.48780400000015334
        },
        {
          "name": "E2",
          "midi": 40,
          "time": 175.36553800000107,
          "velocity": 1,
          "duration": 0.2439019999999914
        },
        {
          "name": "G2",
          "midi": 43,
          "time": 175.60944000000106,
          "velocity": 1,
          "duration": 0.48780400000001123
        },
        {
          "name": "D3",
          "midi": 50,
          "time": 175.60944000000106,
          "velocity": 1,
          "duration": 0.48780400000001123
        },
        {
          "name": "E2",
          "midi": 40,
          "time": 176.09724400000107,
          "velocity": 1,
          "duration": 0.2439019999999914
        },
        {
          "name": "C#3",
          "midi": 49,
          "time": 176.34114600000106,
          "velocity": 1,
          "duration": 0.2439019999999914
        },
        {
          "name": "F#2",
          "midi": 42,
          "time": 176.34114600000106,
          "velocity": 1,
          "duration": 0.2439019999999914
        },
        {
          "name": "E2",
          "midi": 40,
          "time": 176.58504800000105,
          "velocity": 1,
          "duration": 0.2439019999999914
        },
        {
          "name": "C#3",
          "midi": 49,
          "time": 176.82895000000104,
          "velocity": 1,
          "duration": 0.2439019999999914
        },
        {
          "name": "F#2",
          "midi": 42,
          "time": 176.82895000000104,
          "velocity": 1,
          "duration": 0.2439019999999914
        },
        {
          "name": "G2",
          "midi": 43,
          "time": 177.07285200000103,
          "velocity": 1,
          "duration": 0.2439019999999914
        },
        {
          "name": "D3",
          "midi": 50,
          "time": 177.07285200000103,
          "velocity": 1,
          "duration": 0.2439019999999914
        },
        {
          "name": "C#3",
          "midi": 49,
          "time": 177.31675400000103,
          "velocity": 1,
          "duration": 0.2439019999999914
        },
        {
          "name": "F#2",
          "midi": 42,
          "time": 177.31675400000103,
          "velocity": 1,
          "duration": 0.2439019999999914
        },
        {
          "name": "F#2",
          "midi": 42,
          "time": 177.56065600000102,
          "velocity": 1,
          "duration": 0.48780400000001123
        },
        {
          "name": "F#3",
          "midi": 54,
          "time": 178.04846000000103,
          "velocity": 1,
          "duration": 0.2439019999999914
        },
        {
          "name": "A3",
          "midi": 57,
          "time": 178.29236200000102,
          "velocity": 1,
          "duration": 0.2439019999999914
        },
        {
          "name": "C3",
          "midi": 48,
          "time": 178.536264000001,
          "velocity": 1,
          "duration": 0.2439019999999914
        },
        {
          "name": "B2",
          "midi": 47,
          "time": 178.780166000001,
          "velocity": 1,
          "duration": 0.48780400000001123
        },
        {
          "name": "F#3",
          "midi": 54,
          "time": 179.26797000000101,
          "velocity": 1,
          "duration": 0.2439019999999914
        },
        {
          "name": "F#2",
          "midi": 42,
          "time": 179.511872000001,
          "velocity": 1,
          "duration": 0.48780400000001123
        },
        {
          "name": "F#3",
          "midi": 54,
          "time": 179.99967600000102,
          "velocity": 1,
          "duration": 0.2439019999999914
        },
        {
          "name": "A3",
          "midi": 57,
          "time": 180.243578000001,
          "velocity": 1,
          "duration": 0.2439019999999914
        },
        {
          "name": "C3",
          "midi": 48,
          "time": 180.487480000001,
          "velocity": 1,
          "duration": 0.2439019999999914
        },
        {
          "name": "B2",
          "midi": 47,
          "time": 180.731382000001,
          "velocity": 1,
          "duration": 0.48780400000001123
        },
        {
          "name": "F#3",
          "midi": 54,
          "time": 181.219186000001,
          "velocity": 1,
          "duration": 0.2439019999999914
        },
        {
          "name": "F#2",
          "midi": 42,
          "time": 181.463088000001,
          "velocity": 1,
          "duration": 0.48780400000001123
        },
        {
          "name": "F#3",
          "midi": 54,
          "time": 181.950892000001,
          "velocity": 1,
          "duration": 0.2439019999999914
        },
        {
          "name": "A3",
          "midi": 57,
          "time": 182.194794000001,
          "velocity": 1,
          "duration": 0.2439019999999914
        },
        {
          "name": "C3",
          "midi": 48,
          "time": 182.438696000001,
          "velocity": 1,
          "duration": 0.2439019999999914
        },
        {
          "name": "B2",
          "midi": 47,
          "time": 182.68259800000098,
          "velocity": 1,
          "duration": 0.48780400000001123
        },
        {
          "name": "F#3",
          "midi": 54,
          "time": 183.170402000001,
          "velocity": 1,
          "duration": 0.2439019999999914
        },
        {
          "name": "F#2",
          "midi": 42,
          "time": 183.41430400000098,
          "velocity": 1,
          "duration": 0.48780400000001123
        },
        {
          "name": "F#3",
          "midi": 54,
          "time": 183.902108000001,
          "velocity": 1,
          "duration": 0.2439019999999914
        },
        {
          "name": "A3",
          "midi": 57,
          "time": 184.14601000000098,
          "velocity": 1,
          "duration": 0.2439019999999914
        },
        {
          "name": "C3",
          "midi": 48,
          "time": 184.38991200000098,
          "velocity": 1,
          "duration": 0.2439019999999914
        },
        {
          "name": "B2",
          "midi": 47,
          "time": 184.63381400000097,
          "velocity": 1,
          "duration": 0.48780400000001123
        },
        {
          "name": "F#3",
          "midi": 54,
          "time": 185.12161800000098,
          "velocity": 1,
          "duration": 0.48780400000001123
        },
        {
          "name": "F#2",
          "midi": 42,
          "time": 185.609422000001,
          "velocity": 1,
          "duration": 0.48780400000001123
        },
        {
          "name": "C#3",
          "midi": 49,
          "time": 185.609422000001,
          "velocity": 1,
          "duration": 0.48780400000001123
        },
        {
          "name": "C#3",
          "midi": 49,
          "time": 186.097226000001,
          "velocity": 1,
          "duration": 0.2439019999999914
        },
        {
          "name": "C3",
          "midi": 48,
          "time": 186.341128000001,
          "velocity": 1,
          "duration": 0.2439019999999914
        },
        {
          "name": "B2",
          "midi": 47,
          "time": 186.58503000000098,
          "velocity": 1,
          "duration": 0.7317060000000026
        },
        {
          "name": "F#3",
          "midi": 54,
          "time": 186.58503000000098,
          "velocity": 1,
          "duration": 0.7317060000000026
        },
        {
          "name": "F#2",
          "midi": 42,
          "time": 187.316736000001,
          "velocity": 1,
          "duration": 0.7317060000000026
        },
        {
          "name": "C#3",
          "midi": 49,
          "time": 187.316736000001,
          "velocity": 1,
          "duration": 0.7317060000000026
        },
        {
          "name": "C#3",
          "midi": 49,
          "time": 188.048442000001,
          "velocity": 1,
          "duration": 0.2439019999999914
        },
        {
          "name": "C3",
          "midi": 48,
          "time": 188.29234400000098,
          "velocity": 1,
          "duration": 0.2439019999999914
        },
        {
          "name": "B2",
          "midi": 47,
          "time": 188.53624600000097,
          "velocity": 1,
          "duration": 0.7317060000000026
        },
        {
          "name": "F#3",
          "midi": 54,
          "time": 188.53624600000097,
          "velocity": 1,
          "duration": 0.7317060000000026
        },
        {
          "name": "F#2",
          "midi": 42,
          "time": 189.26795200000097,
          "velocity": 1,
          "duration": 0.7317060000000026
        },
        {
          "name": "C#3",
          "midi": 49,
          "time": 189.26795200000097,
          "velocity": 1,
          "duration": 0.7317060000000026
        },
        {
          "name": "C#3",
          "midi": 49,
          "time": 189.99965800000098,
          "velocity": 1,
          "duration": 0.2439019999999914
        },
        {
          "name": "C3",
          "midi": 48,
          "time": 190.24356000000097,
          "velocity": 1,
          "duration": 0.2439019999999914
        },
        {
          "name": "B2",
          "midi": 47,
          "time": 190.48746200000096,
          "velocity": 1,
          "duration": 0.7317060000000026
        },
        {
          "name": "F#3",
          "midi": 54,
          "time": 190.48746200000096,
          "velocity": 1,
          "duration": 0.7317060000000026
        },
        {
          "name": "E2",
          "midi": 40,
          "time": 191.21916800000096,
          "velocity": 1,
          "duration": 0.7317060000000026
        },
        {
          "name": "B2",
          "midi": 47,
          "time": 191.21916800000096,
          "velocity": 1,
          "duration": 0.7317060000000026
        },
        {
          "name": "G3",
          "midi": 55,
          "time": 191.95087400000097,
          "velocity": 1,
          "duration": 0.2439019999999914
        },
        {
          "name": "E3",
          "midi": 52,
          "time": 192.19477600000096,
          "velocity": 1,
          "duration": 0.2439019999999914
        },
        {
          "name": "A3",
          "midi": 57,
          "time": 192.43867800000095,
          "velocity": 1,
          "duration": 0.2439019999999914
        },
        {
          "name": "E3",
          "midi": 52,
          "time": 192.68258000000094,
          "velocity": 1,
          "duration": 0.2439019999999914
        },
        {
          "name": "B3",
          "midi": 59,
          "time": 192.92648200000093,
          "velocity": 1,
          "duration": 0.2439019999999914
        },
        {
          "name": "G3",
          "midi": 55,
          "time": 193.17038400000092,
          "velocity": 1,
          "duration": 0.2439019999999914
        },
        {
          "name": "F#2",
          "midi": 42,
          "time": 193.4142860000009,
          "velocity": 1,
          "duration": 0.48780400000001123
        },
        {
          "name": "C#3",
          "midi": 49,
          "time": 193.4142860000009,
          "velocity": 1,
          "duration": 0.48780400000001123
        },
        {
          "name": "C#3",
          "midi": 49,
          "time": 193.90209000000092,
          "velocity": 1,
          "duration": 0.2439019999999914
        },
        {
          "name": "C3",
          "midi": 48,
          "time": 194.14599200000092,
          "velocity": 1,
          "duration": 0.2439019999999914
        },
        {
          "name": "B2",
          "midi": 47,
          "time": 194.3898940000009,
          "velocity": 1,
          "duration": 0.7317060000000026
        },
        {
          "name": "F#3",
          "midi": 54,
          "time": 194.3898940000009,
          "velocity": 1,
          "duration": 0.7317060000000026
        },
        {
          "name": "E2",
          "midi": 40,
          "time": 195.1216000000009,
          "velocity": 1,
          "duration": 0.7317060000000026
        },
        {
          "name": "B2",
          "midi": 47,
          "time": 195.1216000000009,
          "velocity": 1,
          "duration": 0.7317060000000026
        },
        {
          "name": "G3",
          "midi": 55,
          "time": 195.8533060000009,
          "velocity": 1,
          "duration": 0.2439019999999914
        },
        {
          "name": "E3",
          "midi": 52,
          "time": 196.0972080000009,
          "velocity": 1,
          "duration": 0.2439019999999914
        },
        {
          "name": "G3",
          "midi": 55,
          "time": 196.3411100000009,
          "velocity": 1,
          "duration": 0.2439019999999914
        },
        {
          "name": "E3",
          "midi": 52,
          "time": 196.5850120000009,
          "velocity": 1,
          "duration": 0.2439019999999914
        },
        {
          "name": "A3",
          "midi": 57,
          "time": 196.82891400000088,
          "velocity": 1,
          "duration": 0.2439019999999914
        },
        {
          "name": "E3",
          "midi": 52,
          "time": 197.07281600000087,
          "velocity": 1,
          "duration": 0.2439019999999914
        },
        {
          "name": "E2",
          "midi": 40,
          "time": 197.31671800000086,
          "velocity": 1,
          "duration": 0.2439019999999914
        },
        {
          "name": "B2",
          "midi": 47,
          "time": 197.31671800000086,
          "velocity": 1,
          "duration": 0.2439019999999914
        },
        {
          "name": "C#3",
          "midi": 49,
          "time": 234.14592000000084,
          "velocity": 1,
          "duration": 0.2439019999999914
        },
        {
          "name": "F#2",
          "midi": 42,
          "time": 234.14592000000084,
          "velocity": 1,
          "duration": 0.2439019999999914
        },
        {
          "name": "C#3",
          "midi": 49,
          "time": 234.38982200000083,
          "velocity": 1,
          "duration": 0.2439019999999914
        },
        {
          "name": "F#2",
          "midi": 42,
          "time": 234.38982200000083,
          "velocity": 1,
          "duration": 0.2439019999999914
        },
        {
          "name": "C#3",
          "midi": 49,
          "time": 234.63372400000083,
          "velocity": 1,
          "duration": 0.2439019999999914
        },
        {
          "name": "F#2",
          "midi": 42,
          "time": 234.63372400000083,
          "velocity": 1,
          "duration": 0.2439019999999914
        },
        {
          "name": "C#3",
          "midi": 49,
          "time": 234.87762600000082,
          "velocity": 1,
          "duration": 0.2439019999999914
        },
        {
          "name": "F#2",
          "midi": 42,
          "time": 234.87762600000082,
          "velocity": 1,
          "duration": 0.2439019999999914
        },
        {
          "name": "C#3",
          "midi": 49,
          "time": 235.1215280000008,
          "velocity": 1,
          "duration": 0.2439019999999914
        },
        {
          "name": "F#2",
          "midi": 42,
          "time": 235.1215280000008,
          "velocity": 1,
          "duration": 0.2439019999999914
        },
        {
          "name": "C#3",
          "midi": 49,
          "time": 235.3654300000008,
          "velocity": 1,
          "duration": 0.2439019999999914
        },
        {
          "name": "F#2",
          "midi": 42,
          "time": 235.3654300000008,
          "velocity": 1,
          "duration": 0.2439019999999914
        },
        {
          "name": "C#3",
          "midi": 49,
          "time": 235.6093320000008,
          "velocity": 1,
          "duration": 0.2439019999999914
        },
        {
          "name": "F#2",
          "midi": 42,
          "time": 235.6093320000008,
          "velocity": 1,
          "duration": 0.2439019999999914
        },
        {
          "name": "C#3",
          "midi": 49,
          "time": 235.85323400000078,
          "velocity": 1,
          "duration": 0.2439019999999914
        },
        {
          "name": "F#2",
          "midi": 42,
          "time": 235.85323400000078,
          "velocity": 1,
          "duration": 0.2439019999999914
        },
        {
          "name": "C#3",
          "midi": 49,
          "time": 236.09713600000077,
          "velocity": 1,
          "duration": 0.2439019999999914
        },
        {
          "name": "F#2",
          "midi": 42,
          "time": 236.09713600000077,
          "velocity": 1,
          "duration": 0.2439019999999914
        },
        {
          "name": "C#3",
          "midi": 49,
          "time": 236.34103800000076,
          "velocity": 1,
          "duration": 0.2439019999999914
        },
        {
          "name": "F#2",
          "midi": 42,
          "time": 236.34103800000076,
          "velocity": 1,
          "duration": 0.2439019999999914
        },
        {
          "name": "C#3",
          "midi": 49,
          "time": 236.58494000000076,
          "velocity": 1,
          "duration": 0.2439019999999914
        },
        {
          "name": "F#2",
          "midi": 42,
          "time": 236.58494000000076,
          "velocity": 1,
          "duration": 0.2439019999999914
        },
        {
          "name": "C#3",
          "midi": 49,
          "time": 236.82884200000075,
          "velocity": 1,
          "duration": 0.2439019999999914
        },
        {
          "name": "F#2",
          "midi": 42,
          "time": 236.82884200000075,
          "velocity": 1,
          "duration": 0.2439019999999914
        },
        {
          "name": "C#3",
          "midi": 49,
          "time": 237.07274400000074,
          "velocity": 1,
          "duration": 0.2439019999999914
        },
        {
          "name": "F#2",
          "midi": 42,
          "time": 237.07274400000074,
          "velocity": 1,
          "duration": 0.2439019999999914
        },
        {
          "name": "C#3",
          "midi": 49,
          "time": 237.31664600000073,
          "velocity": 1,
          "duration": 0.2439019999999914
        },
        {
          "name": "F#2",
          "midi": 42,
          "time": 237.31664600000073,
          "velocity": 1,
          "duration": 0.2439019999999914
        },
        {
          "name": "C#3",
          "midi": 49,
          "time": 237.56054800000072,
          "velocity": 1,
          "duration": 0.2439019999999914
        },
        {
          "name": "F#2",
          "midi": 42,
          "time": 237.56054800000072,
          "velocity": 1,
          "duration": 0.2439019999999914
        },
        {
          "name": "C#3",
          "midi": 49,
          "time": 237.8044500000007,
          "velocity": 1,
          "duration": 0.2439019999999914
        },
        {
          "name": "F#2",
          "midi": 42,
          "time": 237.8044500000007,
          "velocity": 1,
          "duration": 0.2439019999999914
        },
        {
          "name": "C#3",
          "midi": 49,
          "time": 238.0483520000007,
          "velocity": 1,
          "duration": 0.2439019999999914
        },
        {
          "name": "F#2",
          "midi": 42,
          "time": 238.0483520000007,
          "velocity": 1,
          "duration": 0.2439019999999914
        },
        {
          "name": "F#2",
          "midi": 42,
          "time": 238.2922540000007,
          "velocity": 1,
          "duration": 0.48780400000001123
        },
        {
          "name": "C#3",
          "midi": 49,
          "time": 238.2922540000007,
          "velocity": 1,
          "duration": 0.48780400000001123
        },
        {
          "name": "C#3",
          "midi": 49,
          "time": 238.7800580000007,
          "velocity": 1,
          "duration": 0.2439019999999914
        },
        {
          "name": "C3",
          "midi": 48,
          "time": 239.0239600000007,
          "velocity": 1,
          "duration": 0.2439019999999914
        },
        {
          "name": "B2",
          "midi": 47,
          "time": 239.2678620000007,
          "velocity": 1,
          "duration": 0.7317060000000026
        },
        {
          "name": "F#3",
          "midi": 54,
          "time": 239.2678620000007,
          "velocity": 1,
          "duration": 0.7317060000000026
        },
        {
          "name": "F#2",
          "midi": 42,
          "time": 239.9995680000007,
          "velocity": 1,
          "duration": 0.7317060000000026
        },
        {
          "name": "C#3",
          "midi": 49,
          "time": 239.9995680000007,
          "velocity": 1,
          "duration": 0.7317060000000026
        },
        {
          "name": "C#3",
          "midi": 49,
          "time": 240.7312740000007,
          "velocity": 1,
          "duration": 0.2439019999999914
        },
        {
          "name": "C3",
          "midi": 48,
          "time": 240.9751760000007,
          "velocity": 1,
          "duration": 0.2439019999999914
        },
        {
          "name": "B2",
          "midi": 47,
          "time": 241.21907800000068,
          "velocity": 1,
          "duration": 0.7317060000000026
        },
        {
          "name": "F#3",
          "midi": 54,
          "time": 241.21907800000068,
          "velocity": 1,
          "duration": 0.7317060000000026
        },
        {
          "name": "F#2",
          "midi": 42,
          "time": 241.95078400000068,
          "velocity": 1,
          "duration": 0.7317060000000026
        },
        {
          "name": "C#3",
          "midi": 49,
          "time": 241.95078400000068,
          "velocity": 1,
          "duration": 0.7317060000000026
        },
        {
          "name": "C#3",
          "midi": 49,
          "time": 242.68249000000068,
          "velocity": 1,
          "duration": 0.2439019999999914
        },
        {
          "name": "C3",
          "midi": 48,
          "time": 242.92639200000067,
          "velocity": 1,
          "duration": 0.2439019999999914
        },
        {
          "name": "B2",
          "midi": 47,
          "time": 243.17029400000067,
          "velocity": 1,
          "duration": 0.7317060000000026
        },
        {
          "name": "F#3",
          "midi": 54,
          "time": 243.17029400000067,
          "velocity": 1,
          "duration": 0.7317060000000026
        },
        {
          "name": "E2",
          "midi": 40,
          "time": 243.90200000000067,
          "velocity": 1,
          "duration": 0.7317060000000026
        },
        {
          "name": "B2",
          "midi": 47,
          "time": 243.90200000000067,
          "velocity": 1,
          "duration": 0.7317060000000026
        },
        {
          "name": "G3",
          "midi": 55,
          "time": 244.63370600000067,
          "velocity": 1,
          "duration": 0.2439019999999914
        },
        {
          "name": "E3",
          "midi": 52,
          "time": 244.87760800000066,
          "velocity": 1,
          "duration": 0.2439019999999914
        },
        {
          "name": "A3",
          "midi": 57,
          "time": 245.12151000000065,
          "velocity": 1,
          "duration": 0.2439019999999914
        },
        {
          "name": "E3",
          "midi": 52,
          "time": 245.36541200000065,
          "velocity": 1,
          "duration": 0.2439019999999914
        },
        {
          "name": "B3",
          "midi": 59,
          "time": 245.60931400000064,
          "velocity": 1,
          "duration": 0.2439019999999914
        },
        {
          "name": "G3",
          "midi": 55,
          "time": 245.85321600000063,
          "velocity": 1,
          "duration": 0.2439019999999914
        },
        {
          "name": "F#2",
          "midi": 42,
          "time": 246.09711800000062,
          "velocity": 1,
          "duration": 0.48780400000001123
        },
        {
          "name": "C#3",
          "midi": 49,
          "time": 246.09711800000062,
          "velocity": 1,
          "duration": 0.48780400000001123
        },
        {
          "name": "C#3",
          "midi": 49,
          "time": 246.58492200000063,
          "velocity": 1,
          "duration": 0.2439019999999914
        },
        {
          "name": "C3",
          "midi": 48,
          "time": 246.82882400000062,
          "velocity": 1,
          "duration": 0.2439019999999914
        },
        {
          "name": "B2",
          "midi": 47,
          "time": 247.0727260000006,
          "velocity": 1,
          "duration": 0.7317060000000026
        },
        {
          "name": "F#3",
          "midi": 54,
          "time": 247.0727260000006,
          "velocity": 1,
          "duration": 0.7317060000000026
        },
        {
          "name": "E2",
          "midi": 40,
          "time": 247.80443200000062,
          "velocity": 1,
          "duration": 1.7073139999999967
        },
        {
          "name": "B2",
          "midi": 47,
          "time": 247.80443200000062,
          "velocity": 1,
          "duration": 1.7073139999999967
        },
        {
          "name": "E2",
          "midi": 40,
          "time": 249.5117460000006,
          "velocity": 1,
          "duration": 0.2439019999999914
        },
        {
          "name": "E2",
          "midi": 40,
          "time": 249.7556480000006,
          "velocity": 1,
          "duration": 0.2439019999999914
        },
        {
          "name": "F#2",
          "midi": 42,
          "time": 249.9995500000006,
          "velocity": 1,
          "duration": 0.48780400000001123
        },
        {
          "name": "C#3",
          "midi": 49,
          "time": 249.9995500000006,
          "velocity": 1,
          "duration": 0.48780400000001123
        },
        {
          "name": "C#3",
          "midi": 49,
          "time": 250.4873540000006,
          "velocity": 1,
          "duration": 0.2439019999999914
        },
        {
          "name": "C3",
          "midi": 48,
          "time": 250.7312560000006,
          "velocity": 1,
          "duration": 0.2439019999999914
        },
        {
          "name": "B2",
          "midi": 47,
          "time": 250.9751580000006,
          "velocity": 1,
          "duration": 0.7317060000000026
        },
        {
          "name": "F#3",
          "midi": 54,
          "time": 250.9751580000006,
          "velocity": 1,
          "duration": 0.7317060000000026
        },
        {
          "name": "F#2",
          "midi": 42,
          "time": 251.7068640000006,
          "velocity": 1,
          "duration": 0.7317060000000026
        },
        {
          "name": "C#3",
          "midi": 49,
          "time": 251.7068640000006,
          "velocity": 1,
          "duration": 0.7317060000000026
        },
        {
          "name": "C#3",
          "midi": 49,
          "time": 252.4385700000006,
          "velocity": 1,
          "duration": 0.2439019999999914
        },
        {
          "name": "C3",
          "midi": 48,
          "time": 252.6824720000006,
          "velocity": 1,
          "duration": 0.2439019999999914
        },
        {
          "name": "B2",
          "midi": 47,
          "time": 252.92637400000058,
          "velocity": 1,
          "duration": 0.7317060000000026
        },
        {
          "name": "F#3",
          "midi": 54,
          "time": 252.92637400000058,
          "velocity": 1,
          "duration": 0.7317060000000026
        },
        {
          "name": "F#2",
          "midi": 42,
          "time": 253.65808000000058,
          "velocity": 1,
          "duration": 0.7317060000000026
        },
        {
          "name": "C#3",
          "midi": 49,
          "time": 253.65808000000058,
          "velocity": 1,
          "duration": 0.7317060000000026
        },
        {
          "name": "C#3",
          "midi": 49,
          "time": 254.38978600000058,
          "velocity": 1,
          "duration": 0.2439019999999914
        },
        {
          "name": "C3",
          "midi": 48,
          "time": 254.63368800000057,
          "velocity": 1,
          "duration": 0.2439019999999914
        },
        {
          "name": "B2",
          "midi": 47,
          "time": 254.87759000000057,
          "velocity": 1,
          "duration": 0.7317060000000026
        },
        {
          "name": "F#3",
          "midi": 54,
          "time": 254.87759000000057,
          "velocity": 1,
          "duration": 0.7317060000000026
        },
        {
          "name": "E2",
          "midi": 40,
          "time": 255.60929600000057,
          "velocity": 1,
          "duration": 0.7317060000000026
        },
        {
          "name": "B2",
          "midi": 47,
          "time": 255.60929600000057,
          "velocity": 1,
          "duration": 0.7317060000000026
        },
        {
          "name": "G3",
          "midi": 55,
          "time": 256.34100200000057,
          "velocity": 1,
          "duration": 0.2439019999999914
        },
        {
          "name": "E3",
          "midi": 52,
          "time": 256.58490400000056,
          "velocity": 1,
          "duration": 0.2439019999999914
        },
        {
          "name": "A3",
          "midi": 57,
          "time": 256.82880600000055,
          "velocity": 1,
          "duration": 0.2439019999999914
        },
        {
          "name": "E3",
          "midi": 52,
          "time": 257.07270800000055,
          "velocity": 1,
          "duration": 0.2439019999999914
        },
        {
          "name": "B3",
          "midi": 59,
          "time": 257.31661000000054,
          "velocity": 1,
          "duration": 0.2439019999999914
        },
        {
          "name": "G3",
          "midi": 55,
          "time": 257.56051200000053,
          "velocity": 1,
          "duration": 0.2439019999999914
        },
        {
          "name": "F#2",
          "midi": 42,
          "time": 257.8044140000005,
          "velocity": 1,
          "duration": 0.4878039999999828
        },
        {
          "name": "C#3",
          "midi": 49,
          "time": 257.8044140000005,
          "velocity": 1,
          "duration": 0.4878039999999828
        },
        {
          "name": "C#3",
          "midi": 49,
          "time": 258.2922180000005,
          "velocity": 1,
          "duration": 0.2439019999999914
        },
        {
          "name": "C3",
          "midi": 48,
          "time": 258.5361200000005,
          "velocity": 1,
          "duration": 0.2439019999999914
        },
        {
          "name": "B2",
          "midi": 47,
          "time": 258.7800220000005,
          "velocity": 1,
          "duration": 0.7317059999999742
        },
        {
          "name": "F#3",
          "midi": 54,
          "time": 258.7800220000005,
          "velocity": 1,
          "duration": 0.7317059999999742
        },
        {
          "name": "E2",
          "midi": 40,
          "time": 259.51172800000046,
          "velocity": 1,
          "duration": 0.7317059999999742
        },
        {
          "name": "B2",
          "midi": 47,
          "time": 259.51172800000046,
          "velocity": 1,
          "duration": 0.7317059999999742
        },
        {
          "name": "G3",
          "midi": 55,
          "time": 260.24343400000043,
          "velocity": 1,
          "duration": 0.2439019999999914
        },
        {
          "name": "E3",
          "midi": 52,
          "time": 260.4873360000004,
          "velocity": 1,
          "duration": 0.2439019999999914
        },
        {
          "name": "G3",
          "midi": 55,
          "time": 260.7312380000004,
          "velocity": 1,
          "duration": 0.2439019999999914
        },
        {
          "name": "E3",
          "midi": 52,
          "time": 260.9751400000004,
          "velocity": 1,
          "duration": 0.2439019999999914
        },
        {
          "name": "A3",
          "midi": 57,
          "time": 261.2190420000004,
          "velocity": 1,
          "duration": 0.2439019999999914
        },
        {
          "name": "E3",
          "midi": 52,
          "time": 261.4629440000004,
          "velocity": 1,
          "duration": 0.2439019999999914
        },
        {
          "name": "B2",
          "midi": 47,
          "time": 263.4141600000004,
          "velocity": 1,
          "duration": 5.853648000000021
        },
        {
          "name": "E2",
          "midi": 40,
          "time": 263.4141600000004,
          "velocity": 1,
          "duration": 5.853648000000021
        },
        {
          "name": "E2",
          "midi": 40,
          "time": 269.2678080000004,
          "velocity": 1,
          "duration": 0.4878039999999828
        },
        {
          "name": "B2",
          "midi": 47,
          "time": 269.2678080000004,
          "velocity": 1,
          "duration": 0.4878039999999828
        },
        {
          "name": "E2",
          "midi": 40,
          "time": 269.7556120000004,
          "velocity": 1,
          "duration": 0.2439019999999914
        },
        {
          "name": "B2",
          "midi": 47,
          "time": 269.7556120000004,
          "velocity": 1,
          "duration": 0.2439019999999914
        },
        {
          "name": "F#3",
          "midi": 54,
          "time": 269.9995140000004,
          "velocity": 1,
          "duration": 0.2439019999999914
        },
        {
          "name": "A#2",
          "midi": 46,
          "time": 270.24341600000037,
          "velocity": 1,
          "duration": 0.2439019999999914
        },
        {
          "name": "A2",
          "midi": 45,
          "time": 270.48731800000036,
          "velocity": 1,
          "duration": 0.48780400000015334
        },
        {
          "name": "E2",
          "midi": 40,
          "time": 270.9751220000005,
          "velocity": 1,
          "duration": 0.2439019999999914
        },
        {
          "name": "B2",
          "midi": 47,
          "time": 271.2190240000005,
          "velocity": 1,
          "duration": 0.4878039999999828
        },
        {
          "name": "E2",
          "midi": 40,
          "time": 271.2190240000005,
          "velocity": 1,
          "duration": 0.4878039999999828
        },
        {
          "name": "E2",
          "midi": 40,
          "time": 271.7068280000005,
          "velocity": 1,
          "duration": 0.2439019999999914
        },
        {
          "name": "B2",
          "midi": 47,
          "time": 271.7068280000005,
          "velocity": 1,
          "duration": 0.2439019999999914
        },
        {
          "name": "F#3",
          "midi": 54,
          "time": 271.9507300000005,
          "velocity": 1,
          "duration": 0.2439019999999914
        },
        {
          "name": "A#2",
          "midi": 46,
          "time": 272.19463200000047,
          "velocity": 1,
          "duration": 0.2439019999999914
        },
        {
          "name": "A2",
          "midi": 45,
          "time": 272.43853400000046,
          "velocity": 1,
          "duration": 0.48780400000015334
        },
        {
          "name": "E2",
          "midi": 40,
          "time": 272.9263380000006,
          "velocity": 1,
          "duration": 0.2439019999999914
        },
        {
          "name": "B2",
          "midi": 47,
          "time": 273.1702400000006,
          "velocity": 1,
          "duration": 0.4878039999999828
        },
        {
          "name": "E2",
          "midi": 40,
          "time": 273.1702400000006,
          "velocity": 1,
          "duration": 0.4878039999999828
        },
        {
          "name": "E2",
          "midi": 40,
          "time": 273.6580440000006,
          "velocity": 1,
          "duration": 0.2439019999999914
        },
        {
          "name": "B2",
          "midi": 47,
          "time": 273.6580440000006,
          "velocity": 1,
          "duration": 0.2439019999999914
        },
        {
          "name": "F#3",
          "midi": 54,
          "time": 273.9019460000006,
          "velocity": 1,
          "duration": 0.2439019999999914
        },
        {
          "name": "A#2",
          "midi": 46,
          "time": 274.14584800000057,
          "velocity": 1,
          "duration": 0.2439019999999914
        },
        {
          "name": "A2",
          "midi": 45,
          "time": 274.38975000000056,
          "velocity": 1,
          "duration": 0.48780400000015334
        },
        {
          "name": "E2",
          "midi": 40,
          "time": 274.8775540000007,
          "velocity": 1,
          "duration": 0.2439019999999914
        },
        {
          "name": "B2",
          "midi": 47,
          "time": 275.1214560000007,
          "velocity": 1,
          "duration": 0.4878039999999828
        },
        {
          "name": "E2",
          "midi": 40,
          "time": 275.1214560000007,
          "velocity": 1,
          "duration": 0.4878039999999828
        },
        {
          "name": "E2",
          "midi": 40,
          "time": 275.6092600000007,
          "velocity": 1,
          "duration": 0.2439019999999914
        },
        {
          "name": "B2",
          "midi": 47,
          "time": 275.6092600000007,
          "velocity": 1,
          "duration": 0.2439019999999914
        },
        {
          "name": "F#3",
          "midi": 54,
          "time": 275.8531620000007,
          "velocity": 1,
          "duration": 0.2439019999999914
        },
        {
          "name": "A#2",
          "midi": 46,
          "time": 276.09706400000067,
          "velocity": 1,
          "duration": 0.2439019999999914
        },
        {
          "name": "A2",
          "midi": 45,
          "time": 276.34096600000066,
          "velocity": 1,
          "duration": 0.48780400000015334
        },
        {
          "name": "E2",
          "midi": 40,
          "time": 276.8287700000008,
          "velocity": 1,
          "duration": 0.2439019999999914
        },
        {
          "name": "B2",
          "midi": 47,
          "time": 277.0726720000008,
          "velocity": 1,
          "duration": 0.4878039999999828
        },
        {
          "name": "E2",
          "midi": 40,
          "time": 277.0726720000008,
          "velocity": 1,
          "duration": 0.4878039999999828
        },
        {
          "name": "E2",
          "midi": 40,
          "time": 277.5604760000008,
          "velocity": 1,
          "duration": 0.2439019999999914
        },
        {
          "name": "B2",
          "midi": 47,
          "time": 277.5604760000008,
          "velocity": 1,
          "duration": 0.2439019999999914
        },
        {
          "name": "F#3",
          "midi": 54,
          "time": 277.8043780000008,
          "velocity": 1,
          "duration": 0.2439019999999914
        },
        {
          "name": "A#2",
          "midi": 46,
          "time": 278.0482800000008,
          "velocity": 1,
          "duration": 0.2439019999999914
        },
        {
          "name": "A2",
          "midi": 45,
          "time": 278.29218200000076,
          "velocity": 1,
          "duration": 0.48780400000015334
        },
        {
          "name": "E2",
          "midi": 40,
          "time": 278.7799860000009,
          "velocity": 1,
          "duration": 0.2439019999999914
        },
        {
          "name": "G2",
          "midi": 43,
          "time": 279.0238880000009,
          "velocity": 1,
          "duration": 0.4878039999999828
        },
        {
          "name": "D3",
          "midi": 50,
          "time": 279.0238880000009,
          "velocity": 1,
          "duration": 0.4878039999999828
        },
        {
          "name": "E2",
          "midi": 40,
          "time": 279.5116920000009,
          "velocity": 1,
          "duration": 0.2439019999999914
        },
        {
          "name": "F#2",
          "midi": 42,
          "time": 279.7555940000009,
          "velocity": 1,
          "duration": 0.2439019999999914
        },
        {
          "name": "C#3",
          "midi": 49,
          "time": 279.7555940000009,
          "velocity": 1,
          "duration": 0.2439019999999914
        },
        {
          "name": "E2",
          "midi": 40,
          "time": 279.9994960000009,
          "velocity": 1,
          "duration": 0.2439019999999914
        },
        {
          "name": "C#3",
          "midi": 49,
          "time": 280.24339800000087,
          "velocity": 1,
          "duration": 0.2439019999999914
        },
        {
          "name": "F#2",
          "midi": 42,
          "time": 280.24339800000087,
          "velocity": 1,
          "duration": 0.2439019999999914
        },
        {
          "name": "G2",
          "midi": 43,
          "time": 280.48730000000086,
          "velocity": 1,
          "duration": 0.2439019999999914
        },
        {
          "name": "D3",
          "midi": 50,
          "time": 280.48730000000086,
          "velocity": 1,
          "duration": 0.2439019999999914
        },
        {
          "name": "F#2",
          "midi": 42,
          "time": 280.73120200000085,
          "velocity": 1,
          "duration": 0.2439019999999914
        },
        {
          "name": "C#3",
          "midi": 49,
          "time": 280.73120200000085,
          "velocity": 1,
          "duration": 0.2439019999999914
        },
        {
          "name": "E2",
          "midi": 40,
          "time": 280.97510400000084,
          "velocity": 1,
          "duration": 0.4878039999999828
        },
        {
          "name": "B2",
          "midi": 47,
          "time": 280.97510400000084,
          "velocity": 1,
          "duration": 0.4878039999999828
        },
        {
          "name": "E2",
          "midi": 40,
          "time": 281.4629080000008,
          "velocity": 1,
          "duration": 0.2439019999999914
        },
        {
          "name": "E3",
          "midi": 52,
          "time": 281.7068100000008,
          "velocity": 1,
          "duration": 0.2439019999999914
        },
        {
          "name": "A#2",
          "midi": 46,
          "time": 281.9507120000008,
          "velocity": 1,
          "duration": 0.2439019999999914
        },
        {
          "name": "A2",
          "midi": 45,
          "time": 282.1946140000008,
          "velocity": 1,
          "duration": 0.2439019999999914
        },
        {
          "name": "E2",
          "midi": 40,
          "time": 282.4385160000008,
          "velocity": 1,
          "duration": 0.2439019999999914
        },
        {
          "name": "E2",
          "midi": 40,
          "time": 282.6824180000008,
          "velocity": 1,
          "duration": 0.2439019999999914
        },
        {
          "name": "C3",
          "midi": 48,
          "time": 282.92632000000077,
          "velocity": 1,
          "duration": 0.2439019999999914
        },
        {
          "name": "F2",
          "midi": 41,
          "time": 282.92632000000077,
          "velocity": 1,
          "duration": 0.2439019999999914
        },
        {
          "name": "E2",
          "midi": 40,
          "time": 283.17022200000076,
          "velocity": 1,
          "duration": 0.2439019999999914
        },
        {
          "name": "E2",
          "midi": 40,
          "time": 283.41412400000075,
          "velocity": 1,
          "duration": 0.2439019999999914
        },
        {
          "name": "E3",
          "midi": 52,
          "time": 283.65802600000075,
          "velocity": 1,
          "duration": 0.2439019999999914
        },
        {
          "name": "A#2",
          "midi": 46,
          "time": 283.90192800000074,
          "velocity": 1,
          "duration": 0.2439019999999914
        },
        {
          "name": "A2",
          "midi": 45,
          "time": 284.14583000000073,
          "velocity": 1,
          "duration": 0.2439019999999914
        },
        {
          "name": "E2",
          "midi": 40,
          "time": 284.3897320000007,
          "velocity": 1,
          "duration": 0.2439019999999914
        },
        {
          "name": "E2",
          "midi": 40,
          "time": 284.6336340000007,
          "velocity": 1,
          "duration": 0.2439019999999914
        },
        {
          "name": "F2",
          "midi": 41,
          "time": 284.8775360000007,
          "velocity": 1,
          "duration": 0.2439019999999914
        },
        {
          "name": "C3",
          "midi": 48,
          "time": 284.8775360000007,
          "velocity": 1,
          "duration": 0.2439019999999914
        },
        {
          "name": "E2",
          "midi": 40,
          "time": 285.1214380000007,
          "velocity": 1,
          "duration": 0.2439019999999914
        },
        {
          "name": "E2",
          "midi": 40,
          "time": 285.3653400000007,
          "velocity": 1,
          "duration": 0.2439019999999914
        },
        {
          "name": "E3",
          "midi": 52,
          "time": 285.6092420000007,
          "velocity": 1,
          "duration": 0.2439019999999914
        },
        {
          "name": "A#2",
          "midi": 46,
          "time": 285.85314400000067,
          "velocity": 1,
          "duration": 0.2439019999999914
        },
        {
          "name": "A2",
          "midi": 45,
          "time": 286.09704600000066,
          "velocity": 1,
          "duration": 0.2439019999999914
        },
        {
          "name": "E2",
          "midi": 40,
          "time": 286.34094800000065,
          "velocity": 1,
          "duration": 0.2439019999999914
        },
        {
          "name": "E2",
          "midi": 40,
          "time": 286.58485000000064,
          "velocity": 1,
          "duration": 0.2439019999999914
        },
        {
          "name": "F2",
          "midi": 41,
          "time": 286.82875200000063,
          "velocity": 1,
          "duration": 0.2439019999999914
        },
        {
          "name": "C3",
          "midi": 48,
          "time": 286.82875200000063,
          "velocity": 1,
          "duration": 0.2439019999999914
        },
        {
          "name": "E2",
          "midi": 40,
          "time": 287.0726540000006,
          "velocity": 1,
          "duration": 0.2439019999999914
        },
        {
          "name": "E2",
          "midi": 40,
          "time": 287.3165560000006,
          "velocity": 1,
          "duration": 0.2439019999999914
        },
        {
          "name": "E3",
          "midi": 52,
          "time": 287.5604580000006,
          "velocity": 1,
          "duration": 0.2439019999999914
        },
        {
          "name": "A#2",
          "midi": 46,
          "time": 287.8043600000006,
          "velocity": 1,
          "duration": 0.2439019999999914
        },
        {
          "name": "A2",
          "midi": 45,
          "time": 288.0482620000006,
          "velocity": 1,
          "duration": 0.2439019999999914
        },
        {
          "name": "E2",
          "midi": 40,
          "time": 288.2921640000006,
          "velocity": 1,
          "duration": 0.2439019999999914
        },
        {
          "name": "E2",
          "midi": 40,
          "time": 288.5360660000006,
          "velocity": 1,
          "duration": 0.2439019999999914
        },
        {
          "name": "F2",
          "midi": 41,
          "time": 288.77996800000057,
          "velocity": 1,
          "duration": 0.2439019999999914
        },
        {
          "name": "C3",
          "midi": 48,
          "time": 288.77996800000057,
          "velocity": 1,
          "duration": 0.2439019999999914
        },
        {
          "name": "E2",
          "midi": 40,
          "time": 289.02387000000056,
          "velocity": 1,
          "duration": 0.2439019999999914
        },
        {
          "name": "E2",
          "midi": 40,
          "time": 289.26777200000055,
          "velocity": 1,
          "duration": 0.2439019999999914
        },
        {
          "name": "E3",
          "midi": 52,
          "time": 289.51167400000054,
          "velocity": 1,
          "duration": 0.2439019999999914
        },
        {
          "name": "A#2",
          "midi": 46,
          "time": 289.75557600000053,
          "velocity": 1,
          "duration": 0.2439019999999914
        },
        {
          "name": "E2",
          "midi": 40,
          "time": 289.9994780000005,
          "velocity": 1,
          "duration": 0.2439019999999914
        },
        {
          "name": "E2",
          "midi": 40,
          "time": 290.2433800000005,
          "velocity": 1,
          "duration": 0.2439019999999914
        },
        {
          "name": "E2",
          "midi": 40,
          "time": 290.4872820000005,
          "velocity": 1,
          "duration": 0.2439019999999914
        },
        {
          "name": "C3",
          "midi": 48,
          "time": 290.7311840000005,
          "velocity": 1,
          "duration": 0.2439019999999914
        },
        {
          "name": "F2",
          "midi": 41,
          "time": 290.7311840000005,
          "velocity": 1,
          "duration": 0.2439019999999914
        },
        {
          "name": "E2",
          "midi": 40,
          "time": 290.9750860000005,
          "velocity": 1,
          "duration": 0.2439019999999914
        },
        {
          "name": "E2",
          "midi": 40,
          "time": 291.2189880000005,
          "velocity": 1,
          "duration": 0.2439019999999914
        },
        {
          "name": "E3",
          "midi": 52,
          "time": 291.46289000000047,
          "velocity": 1,
          "duration": 0.2439019999999914
        },
        {
          "name": "A#2",
          "midi": 46,
          "time": 291.70679200000046,
          "velocity": 1,
          "duration": 0.2439019999999914
        },
        {
          "name": "E2",
          "midi": 40,
          "time": 291.95069400000045,
          "velocity": 1,
          "duration": 0.2439019999999914
        },
        {
          "name": "E2",
          "midi": 40,
          "time": 292.19459600000044,
          "velocity": 1,
          "duration": 0.2439019999999914
        },
        {
          "name": "E2",
          "midi": 40,
          "time": 292.43849800000044,
          "velocity": 1,
          "duration": 0.2439019999999914
        },
        {
          "name": "C3",
          "midi": 48,
          "time": 292.6824000000004,
          "velocity": 1,
          "duration": 0.2439019999999914
        },
        {
          "name": "F2",
          "midi": 41,
          "time": 292.6824000000004,
          "velocity": 1,
          "duration": 0.2439019999999914
        },
        {
          "name": "E2",
          "midi": 40,
          "time": 292.9263020000004,
          "velocity": 1,
          "duration": 0.2439019999999914
        },
        {
          "name": "E2",
          "midi": 40,
          "time": 293.1702040000004,
          "velocity": 1,
          "duration": 0.2439019999999914
        },
        {
          "name": "E3",
          "midi": 52,
          "time": 293.4141060000004,
          "velocity": 1,
          "duration": 0.2439019999999914
        },
        {
          "name": "A#2",
          "midi": 46,
          "time": 293.6580080000004,
          "velocity": 1,
          "duration": 0.2439019999999914
        },
        {
          "name": "E2",
          "midi": 40,
          "time": 293.9019100000004,
          "velocity": 1,
          "duration": 0.2439019999999914
        },
        {
          "name": "E2",
          "midi": 40,
          "time": 294.1458120000004,
          "velocity": 1,
          "duration": 0.2439019999999914
        },
        {
          "name": "E2",
          "midi": 40,
          "time": 294.38971400000037,
          "velocity": 1,
          "duration": 0.2439019999999914
        },
        {
          "name": "C3",
          "midi": 48,
          "time": 294.63361600000036,
          "velocity": 1,
          "duration": 0.2439019999999914
        },
        {
          "name": "F2",
          "midi": 41,
          "time": 294.63361600000036,
          "velocity": 1,
          "duration": 0.2439019999999914
        },
        {
          "name": "E2",
          "midi": 40,
          "time": 294.87751800000035,
          "velocity": 1,
          "duration": 0.2439019999999914
        },
        {
          "name": "E2",
          "midi": 40,
          "time": 295.12142000000034,
          "velocity": 1,
          "duration": 0.2439019999999914
        },
        {
          "name": "E3",
          "midi": 52,
          "time": 295.36532200000033,
          "velocity": 1,
          "duration": 0.2439019999999914
        },
        {
          "name": "A#2",
          "midi": 46,
          "time": 295.6092240000003,
          "velocity": 1,
          "duration": 0.2439019999999914
        },
        {
          "name": "E2",
          "midi": 40,
          "time": 295.8531260000003,
          "velocity": 1,
          "duration": 0.2439019999999914
        },
        {
          "name": "E2",
          "midi": 40,
          "time": 296.0970280000003,
          "velocity": 1,
          "duration": 0.2439019999999914
        },
        {
          "name": "E2",
          "midi": 40,
          "time": 296.3409300000003,
          "velocity": 1,
          "duration": 0.2439019999999914
        },
        {
          "name": "C3",
          "midi": 48,
          "time": 296.5848320000003,
          "velocity": 1,
          "duration": 0.2439019999999914
        },
        {
          "name": "F2",
          "midi": 41,
          "time": 296.5848320000003,
          "velocity": 1,
          "duration": 0.2439019999999914
        },
        {
          "name": "E2",
          "midi": 40,
          "time": 296.8287340000003,
          "velocity": 1,
          "duration": 0.2439019999999914
        },
        {
          "name": "E2",
          "midi": 40,
          "time": 297.0726360000003,
          "velocity": 1,
          "duration": 0.2439019999999914
        },
        {
          "name": "E3",
          "midi": 52,
          "time": 297.31653800000026,
          "velocity": 1,
          "duration": 0.2439019999999914
        },
        {
          "name": "E2",
          "midi": 40,
          "time": 297.56044000000026,
          "velocity": 1,
          "duration": 0.2439019999999914
        },
        {
          "name": "E2",
          "midi": 40,
          "time": 297.80434200000025,
          "velocity": 1,
          "duration": 0.2439019999999914
        },
        {
          "name": "E2",
          "midi": 40,
          "time": 298.04824400000024,
          "velocity": 1,
          "duration": 0.2439019999999914
        },
        {
          "name": "E2",
          "midi": 40,
          "time": 298.29214600000023,
          "velocity": 1,
          "duration": 0.2439019999999914
        },
        {
          "name": "E2",
          "midi": 40,
          "time": 298.5360480000002,
          "velocity": 1,
          "duration": 0.2439019999999914
        },
        {
          "name": "E2",
          "midi": 40,
          "time": 298.7799500000002,
          "velocity": 1,
          "duration": 0.2439019999999914
        },
        {
          "name": "E2",
          "midi": 40,
          "time": 299.0238520000002,
          "velocity": 1,
          "duration": 0.2439019999999914
        },
        {
          "name": "E3",
          "midi": 52,
          "time": 299.2677540000002,
          "velocity": 1,
          "duration": 0.2439019999999914
        },
        {
          "name": "E2",
          "midi": 40,
          "time": 299.5116560000002,
          "velocity": 1,
          "duration": 0.2439019999999914
        },
        {
          "name": "E2",
          "midi": 40,
          "time": 299.7555580000002,
          "velocity": 1,
          "duration": 0.2439019999999914
        },
        {
          "name": "E2",
          "midi": 40,
          "time": 299.99946000000017,
          "velocity": 1,
          "duration": 0.2439019999999914
        },
        {
          "name": "E2",
          "midi": 40,
          "time": 300.24336200000016,
          "velocity": 1,
          "duration": 0.2439019999999914
        },
        {
          "name": "E2",
          "midi": 40,
          "time": 300.48726400000015,
          "velocity": 1,
          "duration": 0.2439019999999914
        },
        {
          "name": "E2",
          "midi": 40,
          "time": 300.73116600000014,
          "velocity": 1,
          "duration": 0.2439019999999914
        },
        {
          "name": "E2",
          "midi": 40,
          "time": 300.97506800000014,
          "velocity": 1,
          "duration": 0.2439019999999914
        },
        {
          "name": "E3",
          "midi": 52,
          "time": 301.2189700000001,
          "velocity": 1,
          "duration": 0.2439019999999914
        },
        {
          "name": "E2",
          "midi": 40,
          "time": 301.4628720000001,
          "velocity": 1,
          "duration": 0.2439019999999914
        },
        {
          "name": "E2",
          "midi": 40,
          "time": 301.7067740000001,
          "velocity": 1,
          "duration": 0.2439019999999914
        },
        {
          "name": "E2",
          "midi": 40,
          "time": 301.9506760000001,
          "velocity": 1,
          "duration": 0.2439019999999914
        },
        {
          "name": "E2",
          "midi": 40,
          "time": 302.1945780000001,
          "velocity": 1,
          "duration": 0.2439019999999914
        },
        {
          "name": "E2",
          "midi": 40,
          "time": 302.4384800000001,
          "velocity": 1,
          "duration": 0.2439019999999914
        },
        {
          "name": "E2",
          "midi": 40,
          "time": 302.6823820000001,
          "velocity": 1,
          "duration": 0.2439019999999914
        },
        {
          "name": "E2",
          "midi": 40,
          "time": 302.92628400000007,
          "velocity": 1,
          "duration": 0.2439019999999914
        },
        {
          "name": "E3",
          "midi": 52,
          "time": 303.17018600000006,
          "velocity": 1,
          "duration": 0.2439019999999914
        },
        {
          "name": "E2",
          "midi": 40,
          "time": 303.41408800000005,
          "velocity": 1,
          "duration": 0.2439019999999914
        },
        {
          "name": "E2",
          "midi": 40,
          "time": 303.65799000000004,
          "velocity": 1,
          "duration": 0.2439019999999914
        },
        {
          "name": "E2",
          "midi": 40,
          "time": 303.90189200000003,
          "velocity": 1,
          "duration": 0.2439019999999914
        },
        {
          "name": "E2",
          "midi": 40,
          "time": 304.145794,
          "velocity": 1,
          "duration": 0.2439019999999914
        },
        {
          "name": "E2",
          "midi": 40,
          "time": 304.389696,
          "velocity": 1,
          "duration": 0.2439019999999914
        },
        {
          "name": "E2",
          "midi": 40,
          "time": 304.633598,
          "velocity": 1,
          "duration": 0.2439019999999914
        },
        {
          "name": "E2",
          "midi": 40,
          "time": 304.8775,
          "velocity": 1,
          "duration": 0.2439019999999914
        },
        {
          "name": "E3",
          "midi": 52,
          "time": 305.121402,
          "velocity": 1,
          "duration": 0.2439019999999914
        },
        {
          "name": "E2",
          "midi": 40,
          "time": 305.365304,
          "velocity": 1,
          "duration": 0.2439019999999914
        },
        {
          "name": "E2",
          "midi": 40,
          "time": 305.609206,
          "velocity": 1,
          "duration": 0.2439019999999914
        },
        {
          "name": "E2",
          "midi": 40,
          "time": 305.85310799999996,
          "velocity": 1,
          "duration": 0.2439019999999914
        },
        {
          "name": "E2",
          "midi": 40,
          "time": 306.09700999999995,
          "velocity": 1,
          "duration": 0.2439019999999914
        },
        {
          "name": "E2",
          "midi": 40,
          "time": 306.34091199999995,
          "velocity": 1,
          "duration": 0.2439019999999914
        },
        {
          "name": "E2",
          "midi": 40,
          "time": 306.58481399999994,
          "velocity": 1,
          "duration": 0.2439019999999914
        },
        {
          "name": "E2",
          "midi": 40,
          "time": 306.82871599999993,
          "velocity": 1,
          "duration": 0.2439019999999914
        },
        {
          "name": "E3",
          "midi": 52,
          "time": 307.0726179999999,
          "velocity": 1,
          "duration": 0.2439019999999914
        },
        {
          "name": "E2",
          "midi": 40,
          "time": 307.3165199999999,
          "velocity": 1,
          "duration": 0.2439019999999914
        },
        {
          "name": "E2",
          "midi": 40,
          "time": 307.5604219999999,
          "velocity": 1,
          "duration": 0.2439019999999914
        },
        {
          "name": "E2",
          "midi": 40,
          "time": 307.8043239999999,
          "velocity": 1,
          "duration": 0.2439019999999914
        },
        {
          "name": "E2",
          "midi": 40,
          "time": 308.0482259999999,
          "velocity": 1,
          "duration": 0.2439019999999914
        },
        {
          "name": "E2",
          "midi": 40,
          "time": 308.2921279999999,
          "velocity": 1,
          "duration": 0.2439019999999914
        },
        {
          "name": "E2",
          "midi": 40,
          "time": 308.53602999999987,
          "velocity": 1,
          "duration": 0.24390200000004825
        },
        {
          "name": "E2",
          "midi": 40,
          "time": 308.7799319999999,
          "velocity": 1,
          "duration": 0.24390200000004825
        },
        {
          "name": "E3",
          "midi": 52,
          "time": 309.02383399999997,
          "velocity": 1,
          "duration": 0.24390200000004825
        },
        {
          "name": "E2",
          "midi": 40,
          "time": 309.267736,
          "velocity": 1,
          "duration": 0.24390200000004825
        },
        {
          "name": "E2",
          "midi": 40,
          "time": 309.51163800000006,
          "velocity": 1,
          "duration": 0.2439019999999914
        },
        {
          "name": "E2",
          "midi": 40,
          "time": 309.75554000000005,
          "velocity": 1,
          "duration": 0.2439019999999914
        },
        {
          "name": "E2",
          "midi": 40,
          "time": 309.99944200000004,
          "velocity": 1,
          "duration": 0.2439019999999914
        },
        {
          "name": "E2",
          "midi": 40,
          "time": 310.24334400000004,
          "velocity": 1,
          "duration": 0.2439019999999914
        },
        {
          "name": "E2",
          "midi": 40,
          "time": 310.487246,
          "velocity": 1,
          "duration": 0.2439019999999914
        },
        {
          "name": "E2",
          "midi": 40,
          "time": 310.731148,
          "velocity": 1,
          "duration": 0.2439019999999914
        },
        {
          "name": "E3",
          "midi": 52,
          "time": 310.97505,
          "velocity": 1,
          "duration": 0.2439019999999914
        },
        {
          "name": "E2",
          "midi": 40,
          "time": 311.218952,
          "velocity": 1,
          "duration": 0.2439019999999914
        },
        {
          "name": "E2",
          "midi": 40,
          "time": 311.462854,
          "velocity": 1,
          "duration": 0.2439019999999914
        },
        {
          "name": "E2",
          "midi": 40,
          "time": 311.706756,
          "velocity": 1,
          "duration": 0.24390200000004825
        },
        {
          "name": "E2",
          "midi": 40,
          "time": 311.95065800000003,
          "velocity": 1,
          "duration": 0.24390200000004825
        },
        {
          "name": "E2",
          "midi": 40,
          "time": 312.1945600000001,
          "velocity": 1,
          "duration": 0.2439019999999914
        },
        {
          "name": "E2",
          "midi": 40,
          "time": 312.4384620000001,
          "velocity": 1,
          "duration": 0.24390200000004825
        },
        {
          "name": "E2",
          "midi": 40,
          "time": 312.6823640000001,
          "velocity": 1,
          "duration": 0.24390200000004825
        },
        {
          "name": "E3",
          "midi": 52,
          "time": 312.92626600000017,
          "velocity": 1,
          "duration": 0.2439019999999914
        },
        {
          "name": "E2",
          "midi": 40,
          "time": 313.17016800000016,
          "velocity": 1,
          "duration": 0.24390200000004825
        },
        {
          "name": "E2",
          "midi": 40,
          "time": 313.4140700000002,
          "velocity": 1,
          "duration": 0.2439019999999914
        },
        {
          "name": "E2",
          "midi": 40,
          "time": 313.6579720000002,
          "velocity": 1,
          "duration": 0.2439019999999914
        },
        {
          "name": "E2",
          "midi": 40,
          "time": 313.9018740000002,
          "velocity": 1,
          "duration": 0.2439019999999914
        },
        {
          "name": "E2",
          "midi": 40,
          "time": 314.1457760000002,
          "velocity": 1,
          "duration": 0.24390200000004825
        },
        {
          "name": "E2",
          "midi": 40,
          "time": 314.38967800000023,
          "velocity": 1,
          "duration": 0.2439019999999914
        },
        {
          "name": "E2",
          "midi": 40,
          "time": 314.6335800000002,
          "velocity": 1,
          "duration": 0.2439019999999914
        },
        {
          "name": "E3",
          "midi": 52,
          "time": 314.8774820000002,
          "velocity": 1,
          "duration": 0.24390200000004825
        },
        {
          "name": "E2",
          "midi": 40,
          "time": 315.12138400000026,
          "velocity": 1,
          "duration": 0.2439019999999914
        },
        {
          "name": "E2",
          "midi": 40,
          "time": 315.36528600000025,
          "velocity": 1,
          "duration": 0.2439019999999914
        },
        {
          "name": "E2",
          "midi": 40,
          "time": 315.60918800000024,
          "velocity": 1,
          "duration": 0.24390200000004825
        },
        {
          "name": "E2",
          "midi": 40,
          "time": 315.8530900000003,
          "velocity": 1,
          "duration": 0.2439019999999914
        },
        {
          "name": "E2",
          "midi": 40,
          "time": 316.0969920000003,
          "velocity": 1,
          "duration": 0.2439019999999914
        },
        {
          "name": "E2",
          "midi": 40,
          "time": 316.3408940000003,
          "velocity": 1,
          "duration": 0.24390200000004825
        },
        {
          "name": "E2",
          "midi": 40,
          "time": 316.5847960000003,
          "velocity": 1,
          "duration": 0.2439019999999914
        },
        {
          "name": "E3",
          "midi": 52,
          "time": 316.8286980000003,
          "velocity": 1,
          "duration": 0.2439019999999914
        },
        {
          "name": "E2",
          "midi": 40,
          "time": 317.0726000000003,
          "velocity": 1,
          "duration": 0.2439019999999914
        },
        {
          "name": "E2",
          "midi": 40,
          "time": 317.3165020000003,
          "velocity": 1,
          "duration": 0.2439019999999914
        },
        {
          "name": "E2",
          "midi": 40,
          "time": 317.5604040000003,
          "velocity": 1,
          "duration": 0.2439019999999914
        },
        {
          "name": "E2",
          "midi": 40,
          "time": 317.8043060000003,
          "velocity": 1,
          "duration": 0.2439019999999914
        },
        {
          "name": "E2",
          "midi": 40,
          "time": 318.0482080000003,
          "velocity": 1,
          "duration": 0.24390200000004825
        },
        {
          "name": "E2",
          "midi": 40,
          "time": 318.2921100000003,
          "velocity": 1,
          "duration": 0.2439019999999914
        },
        {
          "name": "E2",
          "midi": 40,
          "time": 318.5360120000003,
          "velocity": 1,
          "duration": 0.2439019999999914
        },
        {
          "name": "E3",
          "midi": 52,
          "time": 318.7799140000003,
          "velocity": 1,
          "duration": 0.24390200000004825
        },
        {
          "name": "E2",
          "midi": 40,
          "time": 319.02381600000035,
          "velocity": 1,
          "duration": 0.2439019999999914
        },
        {
          "name": "E2",
          "midi": 40,
          "time": 319.26771800000034,
          "velocity": 1,
          "duration": 0.24390200000004825
        },
        {
          "name": "E2",
          "midi": 40,
          "time": 319.5116200000004,
          "velocity": 1,
          "duration": 0.24390200000004825
        },
        {
          "name": "E2",
          "midi": 40,
          "time": 319.75552200000044,
          "velocity": 1,
          "duration": 0.24390200000004825
        },
        {
          "name": "E2",
          "midi": 40,
          "time": 319.9994240000005,
          "velocity": 1,
          "duration": 0.24390200000004825
        },
        {
          "name": "E2",
          "midi": 40,
          "time": 320.24332600000054,
          "velocity": 1,
          "duration": 0.24390200000004825
        },
        {
          "name": "E2",
          "midi": 40,
          "time": 320.4872280000006,
          "velocity": 1,
          "duration": 0.24390200000004825
        },
        {
          "name": "E3",
          "midi": 52,
          "time": 320.73113000000063,
          "velocity": 1,
          "duration": 0.2439019999999914
        },
        {
          "name": "E2",
          "midi": 40,
          "time": 320.9750320000006,
          "velocity": 1,
          "duration": 0.2439019999999914
        },
        {
          "name": "E2",
          "midi": 40,
          "time": 321.2189340000006,
          "velocity": 1,
          "duration": 0.2439019999999914
        },
        {
          "name": "E2",
          "midi": 40,
          "time": 321.4628360000006,
          "velocity": 1,
          "duration": 0.2439019999999914
        },
        {
          "name": "E2",
          "midi": 40,
          "time": 321.7067380000006,
          "velocity": 1,
          "duration": 0.2439019999999914
        },
        {
          "name": "E2",
          "midi": 40,
          "time": 321.9506400000006,
          "velocity": 1,
          "duration": 0.24390200000004825
        },
        {
          "name": "E2",
          "midi": 40,
          "time": 322.19454200000064,
          "velocity": 1,
          "duration": 0.2439019999999914
        },
        {
          "name": "E2",
          "midi": 40,
          "time": 322.43844400000063,
          "velocity": 1,
          "duration": 0.2439019999999914
        },
        {
          "name": "E3",
          "midi": 52,
          "time": 322.6823460000006,
          "velocity": 1,
          "duration": 0.2439019999999914
        },
        {
          "name": "E2",
          "midi": 40,
          "time": 322.9262480000006,
          "velocity": 1,
          "duration": 0.24390200000004825
        },
        {
          "name": "E2",
          "midi": 40,
          "time": 323.17015000000066,
          "velocity": 1,
          "duration": 0.24390200000004825
        },
        {
          "name": "E2",
          "midi": 40,
          "time": 323.4140520000007,
          "velocity": 1,
          "duration": 0.2439019999999914
        },
        {
          "name": "E2",
          "midi": 40,
          "time": 323.6579540000007,
          "velocity": 1,
          "duration": 0.24390200000004825
        },
        {
          "name": "E2",
          "midi": 40,
          "time": 323.90185600000075,
          "velocity": 1,
          "duration": 0.24390200000004825
        }
      ],
      "controlChanges": {
        "1": [
          {
            "number": 1,
            "time": 55.85355800000001,
            "value": 0
          },
          {
            "number": 1,
            "time": 55.85762303333334,
            "value": 0.047244094488188976
          },
          {
            "number": 1,
            "time": 55.86168806666667,
            "value": 0.10236220472440945
          },
          {
            "number": 1,
            "time": 55.865753100000006,
            "value": 0.14960629921259844
          },
          {
            "number": 1,
            "time": 55.86981813333334,
            "value": 0.2047244094488189
          },
          {
            "number": 1,
            "time": 55.87388316666667,
            "value": 0.25196850393700787
          },
          {
            "number": 1,
            "time": 55.877948200000006,
            "value": 0.2992125984251969
          },
          {
            "number": 1,
            "time": 55.88201323333334,
            "value": 0.3543307086614173
          },
          {
            "number": 1,
            "time": 55.88607826666667,
            "value": 0.4015748031496063
          },
          {
            "number": 1,
            "time": 55.890143300000005,
            "value": 0.4566929133858268
          },
          {
            "number": 1,
            "time": 55.89420833333334,
            "value": 0.5039370078740157
          },
          {
            "number": 1,
            "time": 56.341362000000004,
            "value": 0
          },
          {
            "number": 1,
            "time": 57.804773999999995,
            "value": 0
          },
          {
            "number": 1,
            "time": 57.80883903333333,
            "value": 0.047244094488188976
          },
          {
            "number": 1,
            "time": 57.81290406666666,
            "value": 0.10236220472440945
          },
          {
            "number": 1,
            "time": 57.816969099999994,
            "value": 0.14960629921259844
          },
          {
            "number": 1,
            "time": 57.82103413333333,
            "value": 0.2047244094488189
          },
          {
            "number": 1,
            "time": 57.82509916666666,
            "value": 0.25196850393700787
          },
          {
            "number": 1,
            "time": 57.829164199999994,
            "value": 0.2992125984251969
          },
          {
            "number": 1,
            "time": 57.83322923333333,
            "value": 0.3543307086614173
          },
          {
            "number": 1,
            "time": 57.83729426666666,
            "value": 0.4015748031496063
          },
          {
            "number": 1,
            "time": 57.84135929999999,
            "value": 0.4566929133858268
          },
          {
            "number": 1,
            "time": 57.84542433333333,
            "value": 0.5039370078740157
          },
          {
            "number": 1,
            "time": 58.29257799999999,
            "value": 0
          },
          {
            "number": 1,
            "time": 59.75598999999998,
            "value": 0
          },
          {
            "number": 1,
            "time": 59.760055033333316,
            "value": 0.047244094488188976
          },
          {
            "number": 1,
            "time": 59.76412006666665,
            "value": 0.10236220472440945
          },
          {
            "number": 1,
            "time": 59.76818509999998,
            "value": 0.14960629921259844
          },
          {
            "number": 1,
            "time": 59.772250133333316,
            "value": 0.2047244094488189
          },
          {
            "number": 1,
            "time": 59.77631516666665,
            "value": 0.25196850393700787
          },
          {
            "number": 1,
            "time": 59.78038019999998,
            "value": 0.2992125984251969
          },
          {
            "number": 1,
            "time": 59.784445233333315,
            "value": 0.3543307086614173
          },
          {
            "number": 1,
            "time": 59.78851026666665,
            "value": 0.4015748031496063
          },
          {
            "number": 1,
            "time": 59.79257529999998,
            "value": 0.4566929133858268
          },
          {
            "number": 1,
            "time": 59.796640333333315,
            "value": 0.5039370078740157
          },
          {
            "number": 1,
            "time": 60.24379399999998,
            "value": 0
          },
          {
            "number": 1,
            "time": 63.65842199999996,
            "value": 0
          },
          {
            "number": 1,
            "time": 63.66248703333329,
            "value": 0.047244094488188976
          },
          {
            "number": 1,
            "time": 63.666552066666625,
            "value": 0.10236220472440945
          },
          {
            "number": 1,
            "time": 63.67061709999996,
            "value": 0.14960629921259844
          },
          {
            "number": 1,
            "time": 63.67468213333329,
            "value": 0.2047244094488189
          },
          {
            "number": 1,
            "time": 63.678747166666625,
            "value": 0.25196850393700787
          },
          {
            "number": 1,
            "time": 63.68281219999996,
            "value": 0.2992125984251969
          },
          {
            "number": 1,
            "time": 63.68687723333329,
            "value": 0.3543307086614173
          },
          {
            "number": 1,
            "time": 63.690942266666625,
            "value": 0.4015748031496063
          },
          {
            "number": 1,
            "time": 63.69500729999996,
            "value": 0.4566929133858268
          },
          {
            "number": 1,
            "time": 63.69907233333329,
            "value": 0.5039370078740157
          },
          {
            "number": 1,
            "time": 64.14622599999996,
            "value": 0
          },
          {
            "number": 1,
            "time": 65.60963799999998,
            "value": 0
          },
          {
            "number": 1,
            "time": 65.61370303333331,
            "value": 0.047244094488188976
          },
          {
            "number": 1,
            "time": 65.61776806666664,
            "value": 0.10236220472440945
          },
          {
            "number": 1,
            "time": 65.62183309999998,
            "value": 0.14960629921259844
          },
          {
            "number": 1,
            "time": 65.62589813333331,
            "value": 0.2047244094488189
          },
          {
            "number": 1,
            "time": 65.62996316666664,
            "value": 0.25196850393700787
          },
          {
            "number": 1,
            "time": 65.63402819999997,
            "value": 0.2992125984251969
          },
          {
            "number": 1,
            "time": 65.63809323333331,
            "value": 0.3543307086614173
          },
          {
            "number": 1,
            "time": 65.64215826666664,
            "value": 0.4015748031496063
          },
          {
            "number": 1,
            "time": 65.64622329999997,
            "value": 0.4566929133858268
          },
          {
            "number": 1,
            "time": 65.65028833333331,
            "value": 0.5039370078740157
          },
          {
            "number": 1,
            "time": 66.09744199999997,
            "value": 0
          },
          {
            "number": 1,
            "time": 67.56085399999999,
            "value": 0
          },
          {
            "number": 1,
            "time": 67.56491903333333,
            "value": 0.047244094488188976
          },
          {
            "number": 1,
            "time": 67.56898406666666,
            "value": 0.10236220472440945
          },
          {
            "number": 1,
            "time": 67.57304909999999,
            "value": 0.14960629921259844
          },
          {
            "number": 1,
            "time": 67.57711413333332,
            "value": 0.2047244094488189
          },
          {
            "number": 1,
            "time": 67.58117916666666,
            "value": 0.25196850393700787
          },
          {
            "number": 1,
            "time": 67.58524419999999,
            "value": 0.2992125984251969
          },
          {
            "number": 1,
            "time": 67.58930923333332,
            "value": 0.3543307086614173
          },
          {
            "number": 1,
            "time": 67.59337426666666,
            "value": 0.4015748031496063
          },
          {
            "number": 1,
            "time": 67.59743929999999,
            "value": 0.4566929133858268
          },
          {
            "number": 1,
            "time": 67.60150433333332,
            "value": 0.5039370078740157
          },
          {
            "number": 1,
            "time": 68.04865799999999,
            "value": 0
          },
          {
            "number": 1,
            "time": 108.53639000000052,
            "value": 0
          },
          {
            "number": 1,
            "time": 108.54045503333386,
            "value": 0.047244094488188976
          },
          {
            "number": 1,
            "time": 108.54452006666719,
            "value": 0.10236220472440945
          },
          {
            "number": 1,
            "time": 108.54858510000052,
            "value": 0.14960629921259844
          },
          {
            "number": 1,
            "time": 108.55265013333386,
            "value": 0.2047244094488189
          },
          {
            "number": 1,
            "time": 108.55671516666719,
            "value": 0.25196850393700787
          },
          {
            "number": 1,
            "time": 108.56078020000052,
            "value": 0.2992125984251969
          },
          {
            "number": 1,
            "time": 108.56484523333386,
            "value": 0.3543307086614173
          },
          {
            "number": 1,
            "time": 108.56891026666719,
            "value": 0.4015748031496063
          },
          {
            "number": 1,
            "time": 108.57297530000052,
            "value": 0.4566929133858268
          },
          {
            "number": 1,
            "time": 108.57704033333385,
            "value": 0.5039370078740157
          },
          {
            "number": 1,
            "time": 109.02419400000052,
            "value": 0
          },
          {
            "number": 1,
            "time": 110.48760600000054,
            "value": 0
          },
          {
            "number": 1,
            "time": 110.49167103333387,
            "value": 0.047244094488188976
          },
          {
            "number": 1,
            "time": 110.4957360666672,
            "value": 0.10236220472440945
          },
          {
            "number": 1,
            "time": 110.49980110000054,
            "value": 0.14960629921259844
          },
          {
            "number": 1,
            "time": 110.50386613333387,
            "value": 0.2047244094488189
          },
          {
            "number": 1,
            "time": 110.5079311666672,
            "value": 0.25196850393700787
          },
          {
            "number": 1,
            "time": 110.51199620000054,
            "value": 0.2992125984251969
          },
          {
            "number": 1,
            "time": 110.51606123333387,
            "value": 0.3543307086614173
          },
          {
            "number": 1,
            "time": 110.5201262666672,
            "value": 0.4015748031496063
          },
          {
            "number": 1,
            "time": 110.52419130000054,
            "value": 0.4566929133858268
          },
          {
            "number": 1,
            "time": 110.52825633333387,
            "value": 0.5039370078740157
          },
          {
            "number": 1,
            "time": 110.97541000000054,
            "value": 0
          },
          {
            "number": 1,
            "time": 112.43882200000056,
            "value": 0
          },
          {
            "number": 1,
            "time": 112.44288703333389,
            "value": 0.047244094488188976
          },
          {
            "number": 1,
            "time": 112.44695206666722,
            "value": 0.10236220472440945
          },
          {
            "number": 1,
            "time": 112.45101710000056,
            "value": 0.14960629921259844
          },
          {
            "number": 1,
            "time": 112.45508213333389,
            "value": 0.2047244094488189
          },
          {
            "number": 1,
            "time": 112.45914716666722,
            "value": 0.25196850393700787
          },
          {
            "number": 1,
            "time": 112.46321220000056,
            "value": 0.2992125984251969
          },
          {
            "number": 1,
            "time": 112.46727723333389,
            "value": 0.3543307086614173
          },
          {
            "number": 1,
            "time": 112.47134226666722,
            "value": 0.4015748031496063
          },
          {
            "number": 1,
            "time": 112.47540730000055,
            "value": 0.4566929133858268
          },
          {
            "number": 1,
            "time": 112.47947233333389,
            "value": 0.5039370078740157
          },
          {
            "number": 1,
            "time": 112.92662600000055,
            "value": 0
          },
          {
            "number": 1,
            "time": 116.3412540000006,
            "value": 0
          },
          {
            "number": 1,
            "time": 116.34531903333394,
            "value": 0.047244094488188976
          },
          {
            "number": 1,
            "time": 116.34938406666727,
            "value": 0.10236220472440945
          },
          {
            "number": 1,
            "time": 116.3534491000006,
            "value": 0.14960629921259844
          },
          {
            "number": 1,
            "time": 116.35751413333394,
            "value": 0.2047244094488189
          },
          {
            "number": 1,
            "time": 116.36157916666727,
            "value": 0.25196850393700787
          },
          {
            "number": 1,
            "time": 116.3656442000006,
            "value": 0.2992125984251969
          },
          {
            "number": 1,
            "time": 116.36970923333394,
            "value": 0.3543307086614173
          },
          {
            "number": 1,
            "time": 116.37377426666727,
            "value": 0.4015748031496063
          },
          {
            "number": 1,
            "time": 116.3778393000006,
            "value": 0.4566929133858268
          },
          {
            "number": 1,
            "time": 116.38190433333394,
            "value": 0.5039370078740157
          },
          {
            "number": 1,
            "time": 116.8290580000006,
            "value": 0
          },
          {
            "number": 1,
            "time": 118.29247000000062,
            "value": 0
          },
          {
            "number": 1,
            "time": 118.29653503333395,
            "value": 0.047244094488188976
          },
          {
            "number": 1,
            "time": 118.30060006666729,
            "value": 0.10236220472440945
          },
          {
            "number": 1,
            "time": 118.30466510000062,
            "value": 0.14960629921259844
          },
          {
            "number": 1,
            "time": 118.30873013333395,
            "value": 0.2047244094488189
          },
          {
            "number": 1,
            "time": 118.31279516666729,
            "value": 0.25196850393700787
          },
          {
            "number": 1,
            "time": 118.31686020000062,
            "value": 0.2992125984251969
          },
          {
            "number": 1,
            "time": 118.32092523333395,
            "value": 0.3543307086614173
          },
          {
            "number": 1,
            "time": 118.32499026666729,
            "value": 0.4015748031496063
          },
          {
            "number": 1,
            "time": 118.32905530000062,
            "value": 0.4566929133858268
          },
          {
            "number": 1,
            "time": 118.33312033333395,
            "value": 0.5039370078740157
          },
          {
            "number": 1,
            "time": 118.78027400000062,
            "value": 0
          },
          {
            "number": 1,
            "time": 120.24368600000064,
            "value": 0
          },
          {
            "number": 1,
            "time": 120.24775103333397,
            "value": 0.047244094488188976
          },
          {
            "number": 1,
            "time": 120.2518160666673,
            "value": 0.10236220472440945
          },
          {
            "number": 1,
            "time": 120.25588110000064,
            "value": 0.14960629921259844
          },
          {
            "number": 1,
            "time": 120.25994613333397,
            "value": 0.2047244094488189
          },
          {
            "number": 1,
            "time": 120.2640111666673,
            "value": 0.25196850393700787
          },
          {
            "number": 1,
            "time": 120.26807620000064,
            "value": 0.2992125984251969
          },
          {
            "number": 1,
            "time": 120.27214123333397,
            "value": 0.3543307086614173
          },
          {
            "number": 1,
            "time": 120.2762062666673,
            "value": 0.4015748031496063
          },
          {
            "number": 1,
            "time": 120.28027130000063,
            "value": 0.4566929133858268
          },
          {
            "number": 1,
            "time": 120.28433633333397,
            "value": 0.5039370078740157
          },
          {
            "number": 1,
            "time": 120.73149000000063,
            "value": 0
          },
          {
            "number": 1,
            "time": 163.1704380000003,
            "value": 0
          },
          {
            "number": 1,
            "time": 163.17450303333365,
            "value": 0.047244094488188976
          },
          {
            "number": 1,
            "time": 163.178568066667,
            "value": 0.10236220472440945
          },
          {
            "number": 1,
            "time": 163.18263310000034,
            "value": 0.14960629921259844
          },
          {
            "number": 1,
            "time": 163.1866981333337,
            "value": 0.2047244094488189
          },
          {
            "number": 1,
            "time": 163.19076316666704,
            "value": 0.25196850393700787
          },
          {
            "number": 1,
            "time": 163.1948282000004,
            "value": 0.2992125984251969
          },
          {
            "number": 1,
            "time": 163.19889323333373,
            "value": 0.3543307086614173
          },
          {
            "number": 1,
            "time": 163.20295826666708,
            "value": 0.4015748031496063
          },
          {
            "number": 1,
            "time": 163.20702330000043,
            "value": 0.4566929133858268
          },
          {
            "number": 1,
            "time": 163.21108833333378,
            "value": 0.5039370078740157
          },
          {
            "number": 1,
            "time": 163.65824200000046,
            "value": 0
          },
          {
            "number": 1,
            "time": 165.12165400000043,
            "value": 0
          },
          {
            "number": 1,
            "time": 165.12571903333378,
            "value": 0.047244094488188976
          },
          {
            "number": 1,
            "time": 165.12978406666713,
            "value": 0.10236220472440945
          },
          {
            "number": 1,
            "time": 165.13384910000048,
            "value": 0.14960629921259844
          },
          {
            "number": 1,
            "time": 165.13791413333382,
            "value": 0.2047244094488189
          },
          {
            "number": 1,
            "time": 165.14197916666717,
            "value": 0.25196850393700787
          },
          {
            "number": 1,
            "time": 165.14604420000052,
            "value": 0.2992125984251969
          },
          {
            "number": 1,
            "time": 165.15010923333386,
            "value": 0.3543307086614173
          },
          {
            "number": 1,
            "time": 165.1541742666672,
            "value": 0.4015748031496063
          },
          {
            "number": 1,
            "time": 165.15823930000056,
            "value": 0.4566929133858268
          },
          {
            "number": 1,
            "time": 165.1623043333339,
            "value": 0.5039370078740157
          },
          {
            "number": 1,
            "time": 165.6094580000006,
            "value": 0
          },
          {
            "number": 1,
            "time": 167.07287000000056,
            "value": 0
          },
          {
            "number": 1,
            "time": 167.0769350333339,
            "value": 0.047244094488188976
          },
          {
            "number": 1,
            "time": 167.08100006666726,
            "value": 0.10236220472440945
          },
          {
            "number": 1,
            "time": 167.0850651000006,
            "value": 0.14960629921259844
          },
          {
            "number": 1,
            "time": 167.08913013333395,
            "value": 0.2047244094488189
          },
          {
            "number": 1,
            "time": 167.0931951666673,
            "value": 0.25196850393700787
          },
          {
            "number": 1,
            "time": 167.09726020000065,
            "value": 0.2992125984251969
          },
          {
            "number": 1,
            "time": 167.101325233334,
            "value": 0.3543307086614173
          },
          {
            "number": 1,
            "time": 167.10539026666734,
            "value": 0.4015748031496063
          },
          {
            "number": 1,
            "time": 167.1094553000007,
            "value": 0.4566929133858268
          },
          {
            "number": 1,
            "time": 167.11352033333404,
            "value": 0.5039370078740157
          },
          {
            "number": 1,
            "time": 167.56067400000072,
            "value": 0
          },
          {
            "number": 1,
            "time": 170.97530200000065,
            "value": 0
          },
          {
            "number": 1,
            "time": 170.979367033334,
            "value": 0.047244094488188976
          },
          {
            "number": 1,
            "time": 170.98343206666735,
            "value": 0.10236220472440945
          },
          {
            "number": 1,
            "time": 170.9874971000007,
            "value": 0.14960629921259844
          },
          {
            "number": 1,
            "time": 170.99156213333404,
            "value": 0.2047244094488189
          },
          {
            "number": 1,
            "time": 170.9956271666674,
            "value": 0.25196850393700787
          },
          {
            "number": 1,
            "time": 170.99969220000074,
            "value": 0.2992125984251969
          },
          {
            "number": 1,
            "time": 171.00375723333408,
            "value": 0.3543307086614173
          },
          {
            "number": 1,
            "time": 171.00782226666743,
            "value": 0.4015748031496063
          },
          {
            "number": 1,
            "time": 171.01188730000078,
            "value": 0.4566929133858268
          },
          {
            "number": 1,
            "time": 171.01595233333413,
            "value": 0.5039370078740157
          },
          {
            "number": 1,
            "time": 171.4631060000008,
            "value": 0
          },
          {
            "number": 1,
            "time": 172.92651800000078,
            "value": 0
          },
          {
            "number": 1,
            "time": 172.93058303333413,
            "value": 0.047244094488188976
          },
          {
            "number": 1,
            "time": 172.93464806666748,
            "value": 0.10236220472440945
          },
          {
            "number": 1,
            "time": 172.93871310000083,
            "value": 0.14960629921259844
          },
          {
            "number": 1,
            "time": 172.94277813333417,
            "value": 0.2047244094488189
          },
          {
            "number": 1,
            "time": 172.94684316666752,
            "value": 0.25196850393700787
          },
          {
            "number": 1,
            "time": 172.95090820000087,
            "value": 0.2992125984251969
          },
          {
            "number": 1,
            "time": 172.95497323333421,
            "value": 0.3543307086614173
          },
          {
            "number": 1,
            "time": 172.95903826666756,
            "value": 0.4015748031496063
          },
          {
            "number": 1,
            "time": 172.9631033000009,
            "value": 0.4566929133858268
          },
          {
            "number": 1,
            "time": 172.96716833333426,
            "value": 0.5039370078740157
          },
          {
            "number": 1,
            "time": 173.41432200000094,
            "value": 0
          },
          {
            "number": 1,
            "time": 174.8777340000009,
            "value": 0
          },
          {
            "number": 1,
            "time": 174.88179903333426,
            "value": 0.047244094488188976
          },
          {
            "number": 1,
            "time": 174.8858640666676,
            "value": 0.10236220472440945
          },
          {
            "number": 1,
            "time": 174.88992910000096,
            "value": 0.14960629921259844
          },
          {
            "number": 1,
            "time": 174.8939941333343,
            "value": 0.2047244094488189
          },
          {
            "number": 1,
            "time": 174.89805916666765,
            "value": 0.25196850393700787
          },
          {
            "number": 1,
            "time": 174.902124200001,
            "value": 0.2992125984251969
          },
          {
            "number": 1,
            "time": 174.90618923333435,
            "value": 0.3543307086614173
          },
          {
            "number": 1,
            "time": 174.9102542666677,
            "value": 0.4015748031496063
          },
          {
            "number": 1,
            "time": 174.91431930000104,
            "value": 0.4566929133858268
          },
          {
            "number": 1,
            "time": 174.9183843333344,
            "value": 0.5039370078740157
          },
          {
            "number": 1,
            "time": 175.36553800000107,
            "value": 0
          },
          {
            "number": 1,
            "time": 270.48731800000036,
            "value": 0
          },
          {
            "number": 1,
            "time": 270.4913830333337,
            "value": 0.047244094488188976
          },
          {
            "number": 1,
            "time": 270.49544806666705,
            "value": 0.10236220472440945
          },
          {
            "number": 1,
            "time": 270.4995131000004,
            "value": 0.14960629921259844
          },
          {
            "number": 1,
            "time": 270.50357813333375,
            "value": 0.2047244094488189
          },
          {
            "number": 1,
            "time": 270.5076431666671,
            "value": 0.25196850393700787
          },
          {
            "number": 1,
            "time": 270.51170820000044,
            "value": 0.2992125984251969
          },
          {
            "number": 1,
            "time": 270.5157732333338,
            "value": 0.3543307086614173
          },
          {
            "number": 1,
            "time": 270.51983826666714,
            "value": 0.4015748031496063
          },
          {
            "number": 1,
            "time": 270.5239033000005,
            "value": 0.4566929133858268
          },
          {
            "number": 1,
            "time": 270.52796833333383,
            "value": 0.5039370078740157
          },
          {
            "number": 1,
            "time": 270.9751220000005,
            "value": 0
          },
          {
            "number": 1,
            "time": 272.43853400000046,
            "value": 0
          },
          {
            "number": 1,
            "time": 272.4425990333338,
            "value": 0.047244094488188976
          },
          {
            "number": 1,
            "time": 272.44666406666715,
            "value": 0.10236220472440945
          },
          {
            "number": 1,
            "time": 272.4507291000005,
            "value": 0.14960629921259844
          },
          {
            "number": 1,
            "time": 272.45479413333385,
            "value": 0.2047244094488189
          },
          {
            "number": 1,
            "time": 272.4588591666672,
            "value": 0.25196850393700787
          },
          {
            "number": 1,
            "time": 272.46292420000054,
            "value": 0.2992125984251969
          },
          {
            "number": 1,
            "time": 272.4669892333339,
            "value": 0.3543307086614173
          },
          {
            "number": 1,
            "time": 272.47105426666724,
            "value": 0.4015748031496063
          },
          {
            "number": 1,
            "time": 272.4751193000006,
            "value": 0.4566929133858268
          },
          {
            "number": 1,
            "time": 272.47918433333393,
            "value": 0.5039370078740157
          },
          {
            "number": 1,
            "time": 272.9263380000006,
            "value": 0
          },
          {
            "number": 1,
            "time": 274.38975000000056,
            "value": 0
          },
          {
            "number": 1,
            "time": 274.3938150333339,
            "value": 0.047244094488188976
          },
          {
            "number": 1,
            "time": 274.39788006666726,
            "value": 0.10236220472440945
          },
          {
            "number": 1,
            "time": 274.4019451000006,
            "value": 0.14960629921259844
          },
          {
            "number": 1,
            "time": 274.40601013333395,
            "value": 0.2047244094488189
          },
          {
            "number": 1,
            "time": 274.4100751666673,
            "value": 0.25196850393700787
          },
          {
            "number": 1,
            "time": 274.41414020000065,
            "value": 0.2992125984251969
          },
          {
            "number": 1,
            "time": 274.418205233334,
            "value": 0.3543307086614173
          },
          {
            "number": 1,
            "time": 274.42227026666734,
            "value": 0.4015748031496063
          },
          {
            "number": 1,
            "time": 274.4263353000007,
            "value": 0.4566929133858268
          },
          {
            "number": 1,
            "time": 274.43040033333403,
            "value": 0.5039370078740157
          },
          {
            "number": 1,
            "time": 274.8775540000007,
            "value": 0
          },
          {
            "number": 1,
            "time": 276.34096600000066,
            "value": 0
          },
          {
            "number": 1,
            "time": 276.345031033334,
            "value": 0.047244094488188976
          },
          {
            "number": 1,
            "time": 276.34909606666736,
            "value": 0.10236220472440945
          },
          {
            "number": 1,
            "time": 276.3531611000007,
            "value": 0.14960629921259844
          },
          {
            "number": 1,
            "time": 276.35722613333405,
            "value": 0.2047244094488189
          },
          {
            "number": 1,
            "time": 276.3612911666674,
            "value": 0.25196850393700787
          },
          {
            "number": 1,
            "time": 276.36535620000075,
            "value": 0.2992125984251969
          },
          {
            "number": 1,
            "time": 276.3694212333341,
            "value": 0.3543307086614173
          },
          {
            "number": 1,
            "time": 276.37348626666744,
            "value": 0.4015748031496063
          },
          {
            "number": 1,
            "time": 276.3775513000008,
            "value": 0.4566929133858268
          },
          {
            "number": 1,
            "time": 276.38161633333414,
            "value": 0.5039370078740157
          },
          {
            "number": 1,
            "time": 276.8287700000008,
            "value": 0
          },
          {
            "number": 1,
            "time": 278.29218200000076,
            "value": 0
          },
          {
            "number": 1,
            "time": 278.2962470333341,
            "value": 0.047244094488188976
          },
          {
            "number": 1,
            "time": 278.30031206666746,
            "value": 0.10236220472440945
          },
          {
            "number": 1,
            "time": 278.3043771000008,
            "value": 0.14960629921259844
          },
          {
            "number": 1,
            "time": 278.30844213333415,
            "value": 0.2047244094488189
          },
          {
            "number": 1,
            "time": 278.3125071666675,
            "value": 0.25196850393700787
          },
          {
            "number": 1,
            "time": 278.31657220000085,
            "value": 0.2992125984251969
          },
          {
            "number": 1,
            "time": 278.3206372333342,
            "value": 0.3543307086614173
          },
          {
            "number": 1,
            "time": 278.32470226666754,
            "value": 0.4015748031496063
          },
          {
            "number": 1,
            "time": 278.3287673000009,
            "value": 0.4566929133858268
          },
          {
            "number": 1,
            "time": 278.33283233333424,
            "value": 0.5039370078740157
          },
          {
            "number": 1,
            "time": 278.7799860000009,
            "value": 0
          }
        ],
        "7": [
          {
            "number": 7,
            "time": 0,
            "value": 0.7874015748031497
          },
          {
            "number": 7,
            "time": 308.53602999999987,
            "value": 0.7874015748031497
          },
          {
            "number": 7,
            "time": 308.69050126666656,
            "value": 0.7795275590551181
          },
          {
            "number": 7,
            "time": 308.8490375666666,
            "value": 0.7716535433070866
          },
          {
            "number": 7,
            "time": 309.0035088333333,
            "value": 0.7637795275590551
          },
          {
            "number": 7,
            "time": 309.1620451333333,
            "value": 0.7559055118110236
          },
          {
            "number": 7,
            "time": 309.3165164,
            "value": 0.7480314960629921
          },
          {
            "number": 7,
            "time": 309.4709876666667,
            "value": 0.7401574803149606
          },
          {
            "number": 7,
            "time": 309.62952396666674,
            "value": 0.7322834645669292
          },
          {
            "number": 7,
            "time": 309.78399523333337,
            "value": 0.7244094488188977
          },
          {
            "number": 7,
            "time": 309.94253153333335,
            "value": 0.7165354330708661
          },
          {
            "number": 7,
            "time": 310.09700280000004,
            "value": 0.7086614173228346
          },
          {
            "number": 7,
            "time": 310.25147406666673,
            "value": 0.7007874015748031
          },
          {
            "number": 7,
            "time": 310.4100103666667,
            "value": 0.6929133858267716
          },
          {
            "number": 7,
            "time": 310.56448163333334,
            "value": 0.6850393700787402
          },
          {
            "number": 7,
            "time": 310.71895290000003,
            "value": 0.6771653543307087
          },
          {
            "number": 7,
            "time": 310.8774892,
            "value": 0.6692913385826772
          },
          {
            "number": 7,
            "time": 311.0319604666667,
            "value": 0.6614173228346457
          },
          {
            "number": 7,
            "time": 311.1904967666667,
            "value": 0.6535433070866141
          },
          {
            "number": 7,
            "time": 311.3449680333333,
            "value": 0.6456692913385826
          },
          {
            "number": 7,
            "time": 311.4994393,
            "value": 0.6377952755905512
          },
          {
            "number": 7,
            "time": 311.6579756,
            "value": 0.6299212598425197
          },
          {
            "number": 7,
            "time": 311.8124468666667,
            "value": 0.6220472440944882
          },
          {
            "number": 7,
            "time": 311.9709831666667,
            "value": 0.6141732283464567
          },
          {
            "number": 7,
            "time": 312.1254544333334,
            "value": 0.6062992125984252
          },
          {
            "number": 7,
            "time": 312.2799257000001,
            "value": 0.5984251968503937
          },
          {
            "number": 7,
            "time": 312.4384620000001,
            "value": 0.5905511811023622
          },
          {
            "number": 7,
            "time": 312.59293326666676,
            "value": 0.5826771653543307
          },
          {
            "number": 7,
            "time": 312.7514695666668,
            "value": 0.5748031496062992
          },
          {
            "number": 7,
            "time": 312.9059408333335,
            "value": 0.5669291338582677
          },
          {
            "number": 7,
            "time": 313.0604121000002,
            "value": 0.5590551181102362
          },
          {
            "number": 7,
            "time": 313.21894840000016,
            "value": 0.5511811023622047
          },
          {
            "number": 7,
            "time": 313.37341966666685,
            "value": 0.5433070866141733
          },
          {
            "number": 7,
            "time": 313.52789093333354,
            "value": 0.5354330708661418
          },
          {
            "number": 7,
            "time": 313.6864272333335,
            "value": 0.5275590551181102
          },
          {
            "number": 7,
            "time": 313.8408985000002,
            "value": 0.5196850393700787
          },
          {
            "number": 7,
            "time": 313.9994348000002,
            "value": 0.5118110236220472
          },
          {
            "number": 7,
            "time": 314.1539060666669,
            "value": 0.5039370078740157
          },
          {
            "number": 7,
            "time": 314.30837733333357,
            "value": 0.49606299212598426
          },
          {
            "number": 7,
            "time": 314.46691363333355,
            "value": 0.4881889763779528
          },
          {
            "number": 7,
            "time": 314.62138490000024,
            "value": 0.48031496062992124
          },
          {
            "number": 7,
            "time": 314.7799212000002,
            "value": 0.47244094488188976
          },
          {
            "number": 7,
            "time": 314.9343924666669,
            "value": 0.4645669291338583
          },
          {
            "number": 7,
            "time": 315.0888637333336,
            "value": 0.4566929133858268
          },
          {
            "number": 7,
            "time": 315.2474000333336,
            "value": 0.44881889763779526
          },
          {
            "number": 7,
            "time": 315.40187130000027,
            "value": 0.4409448818897638
          },
          {
            "number": 7,
            "time": 315.56040760000025,
            "value": 0.4330708661417323
          },
          {
            "number": 7,
            "time": 315.71487886666694,
            "value": 0.4251968503937008
          },
          {
            "number": 7,
            "time": 315.8693501333336,
            "value": 0.41732283464566927
          },
          {
            "number": 7,
            "time": 316.0278864333336,
            "value": 0.4094488188976378
          },
          {
            "number": 7,
            "time": 316.1823577000003,
            "value": 0.4015748031496063
          },
          {
            "number": 7,
            "time": 316.3408940000003,
            "value": 0.3937007874015748
          },
          {
            "number": 7,
            "time": 316.49536526666697,
            "value": 0.3858267716535433
          },
          {
            "number": 7,
            "time": 316.64983653333366,
            "value": 0.3779527559055118
          },
          {
            "number": 7,
            "time": 316.80837283333364,
            "value": 0.3700787401574803
          },
          {
            "number": 7,
            "time": 316.9628441000003,
            "value": 0.36220472440944884
          },
          {
            "number": 7,
            "time": 317.11731536666696,
            "value": 0.3543307086614173
          },
          {
            "number": 7,
            "time": 317.27585166666694,
            "value": 0.3464566929133858
          },
          {
            "number": 7,
            "time": 317.4303229333336,
            "value": 0.33858267716535434
          },
          {
            "number": 7,
            "time": 317.5888592333336,
            "value": 0.33070866141732286
          },
          {
            "number": 7,
            "time": 317.7433305000003,
            "value": 0.3228346456692913
          },
          {
            "number": 7,
            "time": 317.89780176666693,
            "value": 0.31496062992125984
          },
          {
            "number": 7,
            "time": 318.05633806666697,
            "value": 0.30708661417322836
          },
          {
            "number": 7,
            "time": 318.21080933333366,
            "value": 0.2992125984251969
          },
          {
            "number": 7,
            "time": 318.36934563333364,
            "value": 0.29133858267716534
          },
          {
            "number": 7,
            "time": 318.5238169000003,
            "value": 0.28346456692913385
          },
          {
            "number": 7,
            "time": 318.67828816666696,
            "value": 0.2755905511811024
          },
          {
            "number": 7,
            "time": 318.836824466667,
            "value": 0.2677165354330709
          },
          {
            "number": 7,
            "time": 318.9912957333337,
            "value": 0.25984251968503935
          },
          {
            "number": 7,
            "time": 319.14983203333367,
            "value": 0.25196850393700787
          },
          {
            "number": 7,
            "time": 319.30430330000036,
            "value": 0.2440944881889764
          },
          {
            "number": 7,
            "time": 319.45877456666705,
            "value": 0.23622047244094488
          },
          {
            "number": 7,
            "time": 319.6173108666671,
            "value": 0.2283464566929134
          },
          {
            "number": 7,
            "time": 319.7717821333338,
            "value": 0.2204724409448819
          },
          {
            "number": 7,
            "time": 319.92625340000046,
            "value": 0.2125984251968504
          },
          {
            "number": 7,
            "time": 320.0847897000005,
            "value": 0.2047244094488189
          },
          {
            "number": 7,
            "time": 320.2392609666672,
            "value": 0.1968503937007874
          },
          {
            "number": 7,
            "time": 320.3977972666672,
            "value": 0.1889763779527559
          },
          {
            "number": 7,
            "time": 320.5522685333339,
            "value": 0.18110236220472442
          },
          {
            "number": 7,
            "time": 320.7067398000006,
            "value": 0.1732283464566929
          },
          {
            "number": 7,
            "time": 320.86527610000064,
            "value": 0.16535433070866143
          },
          {
            "number": 7,
            "time": 321.0197473666673,
            "value": 0.15748031496062992
          },
          {
            "number": 7,
            "time": 321.17828366666726,
            "value": 0.14960629921259844
          },
          {
            "number": 7,
            "time": 321.33275493333394,
            "value": 0.14173228346456693
          },
          {
            "number": 7,
            "time": 321.48722620000063,
            "value": 0.13385826771653545
          },
          {
            "number": 7,
            "time": 321.6457625000006,
            "value": 0.12598425196850394
          },
          {
            "number": 7,
            "time": 321.80023376666725,
            "value": 0.11811023622047244
          },
          {
            "number": 7,
            "time": 321.9587700666673,
            "value": 0.11023622047244094
          },
          {
            "number": 7,
            "time": 322.113241333334,
            "value": 0.10236220472440945
          },
          {
            "number": 7,
            "time": 322.26771260000066,
            "value": 0.09448818897637795
          },
          {
            "number": 7,
            "time": 322.42624890000064,
            "value": 0.08661417322834646
          },
          {
            "number": 7,
            "time": 322.5807201666673,
            "value": 0.07874015748031496
          },
          {
            "number": 7,
            "time": 322.73519143333397,
            "value": 0.07086614173228346
          },
          {
            "number": 7,
            "time": 322.89372773333395,
            "value": 0.06299212598425197
          },
          {
            "number": 7,
            "time": 323.04819900000064,
            "value": 0.05511811023622047
          },
          {
            "number": 7,
            "time": 323.2067353000007,
            "value": 0.047244094488188976
          },
          {
            "number": 7,
            "time": 323.36120656666736,
            "value": 0.03937007874015748
          },
          {
            "number": 7,
            "time": 323.51567783333405,
            "value": 0.031496062992125984
          },
          {
            "number": 7,
            "time": 323.67421413333403,
            "value": 0.023622047244094488
          },
          {
            "number": 7,
            "time": 323.8286854000007,
            "value": 0.015748031496062992
          },
          {
            "number": 7,
            "time": 323.98722170000076,
            "value": 0.007874015748031496
          },
          {
            "number": 7,
            "time": 324.14169296666745,
            "value": 0
          }
        ]
      },
      "id": 5,
      "name": "Guitar 4",
      "instrumentNumber": 27,
      "instrument": "electric guitar (clean)",
      "instrumentFamily": "guitar",
      "channelNumber": 4,
      "isPercussion": false
    },
    {
      "startTime": 15.85363,
      "duration": 324.145757999997,
      "length": 1102,
      "notes": [
        {
          "name": "E1",
          "midi": 28,
          "time": 15.85363,
          "velocity": 1,
          "duration": 0.24390200000000029
        },
        {
          "name": "E1",
          "midi": 28,
          "time": 16.097532,
          "velocity": 1,
          "duration": 0.2439019999999985
        },
        {
          "name": "E1",
          "midi": 28,
          "time": 16.341434,
          "velocity": 1,
          "duration": 0.2439019999999985
        },
        {
          "name": "E1",
          "midi": 28,
          "time": 16.585335999999998,
          "velocity": 1,
          "duration": 0.2439019999999985
        },
        {
          "name": "E1",
          "midi": 28,
          "time": 16.829237999999997,
          "velocity": 1,
          "duration": 0.2439019999999985
        },
        {
          "name": "E1",
          "midi": 28,
          "time": 17.073139999999995,
          "velocity": 1,
          "duration": 0.2439019999999985
        },
        {
          "name": "E1",
          "midi": 28,
          "time": 17.317041999999994,
          "velocity": 1,
          "duration": 0.2439019999999985
        },
        {
          "name": "E1",
          "midi": 28,
          "time": 17.560943999999992,
          "velocity": 1,
          "duration": 0.2439019999999985
        },
        {
          "name": "E1",
          "midi": 28,
          "time": 17.80484599999999,
          "velocity": 1,
          "duration": 0.2439019999999985
        },
        {
          "name": "E1",
          "midi": 28,
          "time": 18.04874799999999,
          "velocity": 1,
          "duration": 0.2439019999999985
        },
        {
          "name": "E1",
          "midi": 28,
          "time": 18.292649999999988,
          "velocity": 1,
          "duration": 0.2439019999999985
        },
        {
          "name": "E1",
          "midi": 28,
          "time": 18.536551999999986,
          "velocity": 1,
          "duration": 0.2439019999999985
        },
        {
          "name": "E1",
          "midi": 28,
          "time": 18.780453999999985,
          "velocity": 1,
          "duration": 0.2439019999999985
        },
        {
          "name": "E1",
          "midi": 28,
          "time": 19.024355999999983,
          "velocity": 1,
          "duration": 0.2439019999999985
        },
        {
          "name": "E1",
          "midi": 28,
          "time": 19.26825799999998,
          "velocity": 1,
          "duration": 0.2439019999999985
        },
        {
          "name": "E1",
          "midi": 28,
          "time": 19.51215999999998,
          "velocity": 1,
          "duration": 0.2439019999999985
        },
        {
          "name": "E1",
          "midi": 28,
          "time": 19.75606199999998,
          "velocity": 1,
          "duration": 0.2439019999999985
        },
        {
          "name": "E1",
          "midi": 28,
          "time": 19.999963999999977,
          "velocity": 1,
          "duration": 0.2439019999999985
        },
        {
          "name": "E1",
          "midi": 28,
          "time": 20.243865999999976,
          "velocity": 1,
          "duration": 0.2439019999999985
        },
        {
          "name": "E1",
          "midi": 28,
          "time": 20.487767999999974,
          "velocity": 1,
          "duration": 0.2439019999999985
        },
        {
          "name": "E1",
          "midi": 28,
          "time": 20.731669999999973,
          "velocity": 1,
          "duration": 0.2439019999999985
        },
        {
          "name": "E1",
          "midi": 28,
          "time": 20.97557199999997,
          "velocity": 1,
          "duration": 0.2439019999999985
        },
        {
          "name": "E1",
          "midi": 28,
          "time": 21.21947399999997,
          "velocity": 1,
          "duration": 0.2439019999999985
        },
        {
          "name": "E1",
          "midi": 28,
          "time": 21.46337599999997,
          "velocity": 1,
          "duration": 0.2439019999999985
        },
        {
          "name": "E1",
          "midi": 28,
          "time": 21.707277999999967,
          "velocity": 1,
          "duration": 0.2439019999999985
        },
        {
          "name": "E1",
          "midi": 28,
          "time": 21.951179999999965,
          "velocity": 1,
          "duration": 0.2439019999999985
        },
        {
          "name": "E1",
          "midi": 28,
          "time": 22.195081999999964,
          "velocity": 1,
          "duration": 0.2439019999999985
        },
        {
          "name": "E1",
          "midi": 28,
          "time": 22.438983999999962,
          "velocity": 1,
          "duration": 0.2439019999999985
        },
        {
          "name": "E1",
          "midi": 28,
          "time": 22.68288599999996,
          "velocity": 1,
          "duration": 0.2439019999999985
        },
        {
          "name": "E1",
          "midi": 28,
          "time": 22.92678799999996,
          "velocity": 1,
          "duration": 0.2439019999999985
        },
        {
          "name": "E1",
          "midi": 28,
          "time": 23.170689999999958,
          "velocity": 1,
          "duration": 0.2439019999999985
        },
        {
          "name": "E1",
          "midi": 28,
          "time": 23.414591999999956,
          "velocity": 1,
          "duration": 0.2439019999999985
        },
        {
          "name": "E1",
          "midi": 28,
          "time": 23.658493999999955,
          "velocity": 1,
          "duration": 0.2439019999999985
        },
        {
          "name": "E1",
          "midi": 28,
          "time": 23.902395999999953,
          "velocity": 1,
          "duration": 0.2439019999999985
        },
        {
          "name": "E1",
          "midi": 28,
          "time": 24.146297999999952,
          "velocity": 1,
          "duration": 0.2439019999999985
        },
        {
          "name": "E1",
          "midi": 28,
          "time": 24.39019999999995,
          "velocity": 1,
          "duration": 0.2439019999999985
        },
        {
          "name": "E1",
          "midi": 28,
          "time": 24.63410199999995,
          "velocity": 1,
          "duration": 0.2439019999999985
        },
        {
          "name": "E1",
          "midi": 28,
          "time": 24.878003999999947,
          "velocity": 1,
          "duration": 0.2439019999999985
        },
        {
          "name": "E1",
          "midi": 28,
          "time": 25.121905999999946,
          "velocity": 1,
          "duration": 0.2439019999999985
        },
        {
          "name": "F1",
          "midi": 29,
          "time": 25.365807999999944,
          "velocity": 1,
          "duration": 0.2439019999999985
        },
        {
          "name": "E1",
          "midi": 28,
          "time": 25.609709999999943,
          "velocity": 1,
          "duration": 0.2439019999999985
        },
        {
          "name": "E1",
          "midi": 28,
          "time": 25.85361199999994,
          "velocity": 1,
          "duration": 0.2439019999999985
        },
        {
          "name": "E1",
          "midi": 28,
          "time": 26.09751399999994,
          "velocity": 1,
          "duration": 0.2439019999999985
        },
        {
          "name": "E1",
          "midi": 28,
          "time": 26.34141599999994,
          "velocity": 1,
          "duration": 0.2439019999999985
        },
        {
          "name": "E1",
          "midi": 28,
          "time": 26.585317999999937,
          "velocity": 1,
          "duration": 0.2439019999999985
        },
        {
          "name": "E1",
          "midi": 28,
          "time": 26.829219999999935,
          "velocity": 1,
          "duration": 0.2439019999999985
        },
        {
          "name": "E1",
          "midi": 28,
          "time": 27.073121999999934,
          "velocity": 1,
          "duration": 0.2439019999999985
        },
        {
          "name": "F1",
          "midi": 29,
          "time": 27.317023999999932,
          "velocity": 1,
          "duration": 0.2439019999999985
        },
        {
          "name": "E1",
          "midi": 28,
          "time": 27.56092599999993,
          "velocity": 1,
          "duration": 0.2439019999999985
        },
        {
          "name": "E1",
          "midi": 28,
          "time": 27.80482799999993,
          "velocity": 1,
          "duration": 0.2439019999999985
        },
        {
          "name": "E1",
          "midi": 28,
          "time": 28.048729999999928,
          "velocity": 1,
          "duration": 0.2439019999999985
        },
        {
          "name": "F1",
          "midi": 29,
          "time": 28.292631999999927,
          "velocity": 1,
          "duration": 0.2439019999999985
        },
        {
          "name": "E1",
          "midi": 28,
          "time": 28.536533999999925,
          "velocity": 1,
          "duration": 0.2439019999999985
        },
        {
          "name": "E1",
          "midi": 28,
          "time": 28.780435999999924,
          "velocity": 1,
          "duration": 0.2439019999999985
        },
        {
          "name": "E1",
          "midi": 28,
          "time": 29.024337999999922,
          "velocity": 1,
          "duration": 0.2439019999999985
        },
        {
          "name": "F1",
          "midi": 29,
          "time": 29.26823999999992,
          "velocity": 1,
          "duration": 0.2439019999999985
        },
        {
          "name": "E1",
          "midi": 28,
          "time": 29.51214199999992,
          "velocity": 1,
          "duration": 0.2439019999999985
        },
        {
          "name": "E1",
          "midi": 28,
          "time": 29.756043999999918,
          "velocity": 1,
          "duration": 0.2439019999999985
        },
        {
          "name": "E1",
          "midi": 28,
          "time": 29.999945999999916,
          "velocity": 1,
          "duration": 0.2439019999999985
        },
        {
          "name": "F1",
          "midi": 29,
          "time": 30.243847999999915,
          "velocity": 1,
          "duration": 0.2439019999999985
        },
        {
          "name": "E1",
          "midi": 28,
          "time": 30.487749999999913,
          "velocity": 1,
          "duration": 0.2439019999999985
        },
        {
          "name": "E1",
          "midi": 28,
          "time": 30.73165199999991,
          "velocity": 1,
          "duration": 0.2439019999999985
        },
        {
          "name": "E1",
          "midi": 28,
          "time": 30.97555399999991,
          "velocity": 1,
          "duration": 0.2439019999999985
        },
        {
          "name": "F1",
          "midi": 29,
          "time": 31.21945599999991,
          "velocity": 1,
          "duration": 0.2439019999999985
        },
        {
          "name": "E1",
          "midi": 28,
          "time": 31.463357999999907,
          "velocity": 1,
          "duration": 0.2439019999999985
        },
        {
          "name": "E1",
          "midi": 28,
          "time": 31.707259999999906,
          "velocity": 1,
          "duration": 0.2439019999999985
        },
        {
          "name": "E1",
          "midi": 28,
          "time": 31.951161999999904,
          "velocity": 1,
          "duration": 0.2439019999999985
        },
        {
          "name": "E1",
          "midi": 28,
          "time": 32.1950639999999,
          "velocity": 1,
          "duration": 0.2439019999999985
        },
        {
          "name": "E1",
          "midi": 28,
          "time": 32.4389659999999,
          "velocity": 1,
          "duration": 0.2439019999999985
        },
        {
          "name": "E1",
          "midi": 28,
          "time": 32.6828679999999,
          "velocity": 1,
          "duration": 0.2439019999999985
        },
        {
          "name": "E1",
          "midi": 28,
          "time": 32.9267699999999,
          "velocity": 1,
          "duration": 0.2439019999999985
        },
        {
          "name": "F1",
          "midi": 29,
          "time": 33.1706719999999,
          "velocity": 1,
          "duration": 0.2439019999999985
        },
        {
          "name": "E1",
          "midi": 28,
          "time": 33.414573999999895,
          "velocity": 1,
          "duration": 0.2439019999999985
        },
        {
          "name": "E1",
          "midi": 28,
          "time": 33.658475999999894,
          "velocity": 1,
          "duration": 0.2439019999999985
        },
        {
          "name": "E1",
          "midi": 28,
          "time": 33.90237799999989,
          "velocity": 1,
          "duration": 0.2439019999999985
        },
        {
          "name": "E1",
          "midi": 28,
          "time": 34.14627999999989,
          "velocity": 1,
          "duration": 0.2439019999999985
        },
        {
          "name": "E1",
          "midi": 28,
          "time": 34.39018199999989,
          "velocity": 1,
          "duration": 0.2439019999999985
        },
        {
          "name": "E1",
          "midi": 28,
          "time": 34.63408399999989,
          "velocity": 1,
          "duration": 0.2439019999999985
        },
        {
          "name": "E1",
          "midi": 28,
          "time": 34.877985999999886,
          "velocity": 1,
          "duration": 0.2439019999999985
        },
        {
          "name": "F1",
          "midi": 29,
          "time": 35.121887999999885,
          "velocity": 1,
          "duration": 0.2439019999999985
        },
        {
          "name": "E1",
          "midi": 28,
          "time": 35.36578999999988,
          "velocity": 1,
          "duration": 0.2439019999999985
        },
        {
          "name": "E1",
          "midi": 28,
          "time": 35.60969199999988,
          "velocity": 1,
          "duration": 0.2439019999999985
        },
        {
          "name": "E1",
          "midi": 28,
          "time": 35.85359399999988,
          "velocity": 1,
          "duration": 0.2439019999999985
        },
        {
          "name": "E1",
          "midi": 28,
          "time": 36.09749599999988,
          "velocity": 1,
          "duration": 0.2439019999999985
        },
        {
          "name": "E1",
          "midi": 28,
          "time": 36.34139799999988,
          "velocity": 1,
          "duration": 0.2439019999999985
        },
        {
          "name": "E1",
          "midi": 28,
          "time": 36.585299999999876,
          "velocity": 1,
          "duration": 0.2439019999999985
        },
        {
          "name": "E1",
          "midi": 28,
          "time": 36.829201999999874,
          "velocity": 1,
          "duration": 0.2439019999999985
        },
        {
          "name": "F1",
          "midi": 29,
          "time": 37.07310399999987,
          "velocity": 1,
          "duration": 0.2439019999999985
        },
        {
          "name": "E1",
          "midi": 28,
          "time": 37.31700599999987,
          "velocity": 1,
          "duration": 0.2439019999999985
        },
        {
          "name": "E1",
          "midi": 28,
          "time": 37.56090799999987,
          "velocity": 1,
          "duration": 0.2439019999999985
        },
        {
          "name": "E1",
          "midi": 28,
          "time": 37.80480999999987,
          "velocity": 1,
          "duration": 0.2439019999999985
        },
        {
          "name": "A1",
          "midi": 33,
          "time": 38.04871199999987,
          "velocity": 1,
          "duration": 0.487803999999997
        },
        {
          "name": "A1",
          "midi": 33,
          "time": 38.536515999999864,
          "velocity": 1,
          "duration": 0.487803999999997
        },
        {
          "name": "F1",
          "midi": 29,
          "time": 39.02431999999986,
          "velocity": 1,
          "duration": 0.2439019999999985
        },
        {
          "name": "E1",
          "midi": 28,
          "time": 39.26822199999986,
          "velocity": 1,
          "duration": 0.2439019999999985
        },
        {
          "name": "E1",
          "midi": 28,
          "time": 39.51212399999986,
          "velocity": 1,
          "duration": 0.2439019999999985
        },
        {
          "name": "E1",
          "midi": 28,
          "time": 39.756025999999856,
          "velocity": 1,
          "duration": 0.2439019999999985
        },
        {
          "name": "E1",
          "midi": 28,
          "time": 39.999927999999855,
          "velocity": 1,
          "duration": 0.2439019999999985
        },
        {
          "name": "E1",
          "midi": 28,
          "time": 40.24382999999985,
          "velocity": 1,
          "duration": 0.2439019999999985
        },
        {
          "name": "E1",
          "midi": 28,
          "time": 40.48773199999985,
          "velocity": 1,
          "duration": 0.2439019999999985
        },
        {
          "name": "E1",
          "midi": 28,
          "time": 40.73163399999985,
          "velocity": 1,
          "duration": 0.2439019999999985
        },
        {
          "name": "F1",
          "midi": 29,
          "time": 40.97553599999985,
          "velocity": 1,
          "duration": 0.2439019999999985
        },
        {
          "name": "E1",
          "midi": 28,
          "time": 41.21943799999985,
          "velocity": 1,
          "duration": 0.2439019999999985
        },
        {
          "name": "E1",
          "midi": 28,
          "time": 41.463339999999846,
          "velocity": 1,
          "duration": 0.2439019999999985
        },
        {
          "name": "E1",
          "midi": 28,
          "time": 41.707241999999844,
          "velocity": 1,
          "duration": 0.2439019999999985
        },
        {
          "name": "E1",
          "midi": 28,
          "time": 41.95114399999984,
          "velocity": 1,
          "duration": 0.2439019999999985
        },
        {
          "name": "E1",
          "midi": 28,
          "time": 42.19504599999984,
          "velocity": 1,
          "duration": 0.2439019999999985
        },
        {
          "name": "E1",
          "midi": 28,
          "time": 42.43894799999984,
          "velocity": 1,
          "duration": 0.2439019999999985
        },
        {
          "name": "E1",
          "midi": 28,
          "time": 42.68284999999984,
          "velocity": 1,
          "duration": 0.2439019999999985
        },
        {
          "name": "F1",
          "midi": 29,
          "time": 42.92675199999984,
          "velocity": 1,
          "duration": 0.2439019999999985
        },
        {
          "name": "E1",
          "midi": 28,
          "time": 43.170653999999836,
          "velocity": 1,
          "duration": 0.2439019999999985
        },
        {
          "name": "E1",
          "midi": 28,
          "time": 43.414555999999834,
          "velocity": 1,
          "duration": 0.2439019999999985
        },
        {
          "name": "E1",
          "midi": 28,
          "time": 43.65845799999983,
          "velocity": 1,
          "duration": 0.2439019999999985
        },
        {
          "name": "E1",
          "midi": 28,
          "time": 43.90235999999983,
          "velocity": 1,
          "duration": 0.2439019999999985
        },
        {
          "name": "E1",
          "midi": 28,
          "time": 44.14626199999983,
          "velocity": 1,
          "duration": 0.2439019999999985
        },
        {
          "name": "E1",
          "midi": 28,
          "time": 44.39016399999983,
          "velocity": 1,
          "duration": 0.2439019999999985
        },
        {
          "name": "E1",
          "midi": 28,
          "time": 44.63406599999983,
          "velocity": 1,
          "duration": 0.2439019999999985
        },
        {
          "name": "F1",
          "midi": 29,
          "time": 44.877967999999825,
          "velocity": 1,
          "duration": 0.2439019999999985
        },
        {
          "name": "E1",
          "midi": 28,
          "time": 45.121869999999824,
          "velocity": 1,
          "duration": 0.2439019999999985
        },
        {
          "name": "E1",
          "midi": 28,
          "time": 45.36577199999982,
          "velocity": 1,
          "duration": 0.2439019999999985
        },
        {
          "name": "E1",
          "midi": 28,
          "time": 45.60967399999982,
          "velocity": 1,
          "duration": 0.2439019999999985
        },
        {
          "name": "E1",
          "midi": 28,
          "time": 45.85357599999982,
          "velocity": 1,
          "duration": 0.2439019999999985
        },
        {
          "name": "E1",
          "midi": 28,
          "time": 46.09747799999982,
          "velocity": 1,
          "duration": 0.2439019999999985
        },
        {
          "name": "E1",
          "midi": 28,
          "time": 46.341379999999816,
          "velocity": 1,
          "duration": 0.2439019999999985
        },
        {
          "name": "E1",
          "midi": 28,
          "time": 46.585281999999815,
          "velocity": 1,
          "duration": 0.2439019999999985
        },
        {
          "name": "F1",
          "midi": 29,
          "time": 46.82918399999981,
          "velocity": 1,
          "duration": 0.2439019999999985
        },
        {
          "name": "E1",
          "midi": 28,
          "time": 47.07308599999981,
          "velocity": 1,
          "duration": 0.2439019999999985
        },
        {
          "name": "E1",
          "midi": 28,
          "time": 47.31698799999981,
          "velocity": 1,
          "duration": 0.2439019999999985
        },
        {
          "name": "E1",
          "midi": 28,
          "time": 47.56088999999981,
          "velocity": 1,
          "duration": 0.2439019999999985
        },
        {
          "name": "E1",
          "midi": 28,
          "time": 47.80479199999981,
          "velocity": 1,
          "duration": 0.2439019999999985
        },
        {
          "name": "E1",
          "midi": 28,
          "time": 48.048693999999806,
          "velocity": 1,
          "duration": 0.2439019999999985
        },
        {
          "name": "E1",
          "midi": 28,
          "time": 48.292595999999804,
          "velocity": 1,
          "duration": 0.2439019999999985
        },
        {
          "name": "E1",
          "midi": 28,
          "time": 48.5364979999998,
          "velocity": 1,
          "duration": 0.2439019999999985
        },
        {
          "name": "F1",
          "midi": 29,
          "time": 48.7803999999998,
          "velocity": 1,
          "duration": 0.2439019999999985
        },
        {
          "name": "E1",
          "midi": 28,
          "time": 49.0243019999998,
          "velocity": 1,
          "duration": 0.2439019999999985
        },
        {
          "name": "E1",
          "midi": 28,
          "time": 49.2682039999998,
          "velocity": 1,
          "duration": 0.2439019999999985
        },
        {
          "name": "E1",
          "midi": 28,
          "time": 49.5121059999998,
          "velocity": 1,
          "duration": 0.2439019999999985
        },
        {
          "name": "E1",
          "midi": 28,
          "time": 49.756007999999795,
          "velocity": 1,
          "duration": 0.2439019999999985
        },
        {
          "name": "E1",
          "midi": 28,
          "time": 49.999909999999794,
          "velocity": 1,
          "duration": 0.2439019999999985
        },
        {
          "name": "E1",
          "midi": 28,
          "time": 50.24381199999979,
          "velocity": 1,
          "duration": 0.2439019999999985
        },
        {
          "name": "E1",
          "midi": 28,
          "time": 50.48771399999979,
          "velocity": 1,
          "duration": 0.2439019999999985
        },
        {
          "name": "F1",
          "midi": 29,
          "time": 50.73161599999979,
          "velocity": 1,
          "duration": 0.2439019999999985
        },
        {
          "name": "E1",
          "midi": 28,
          "time": 50.97551799999979,
          "velocity": 1,
          "duration": 0.2439019999999985
        },
        {
          "name": "E1",
          "midi": 28,
          "time": 51.219419999999786,
          "velocity": 1,
          "duration": 0.2439019999999985
        },
        {
          "name": "E1",
          "midi": 28,
          "time": 51.463321999999785,
          "velocity": 1,
          "duration": 0.2439019999999985
        },
        {
          "name": "E1",
          "midi": 28,
          "time": 51.70722399999978,
          "velocity": 1,
          "duration": 0.2439019999999985
        },
        {
          "name": "E1",
          "midi": 28,
          "time": 51.95112599999978,
          "velocity": 1,
          "duration": 0.2439019999999985
        },
        {
          "name": "E1",
          "midi": 28,
          "time": 52.19502799999978,
          "velocity": 1,
          "duration": 0.2439019999999985
        },
        {
          "name": "E1",
          "midi": 28,
          "time": 52.43892999999978,
          "velocity": 1,
          "duration": 0.2439019999999985
        },
        {
          "name": "F1",
          "midi": 29,
          "time": 52.68283199999978,
          "velocity": 1,
          "duration": 0.2439019999999985
        },
        {
          "name": "E1",
          "midi": 28,
          "time": 52.926733999999776,
          "velocity": 1,
          "duration": 0.2439019999999985
        },
        {
          "name": "E1",
          "midi": 28,
          "time": 53.170635999999774,
          "velocity": 1,
          "duration": 0.2439019999999985
        },
        {
          "name": "E1",
          "midi": 28,
          "time": 53.41453799999977,
          "velocity": 1,
          "duration": 0.2439019999999985
        },
        {
          "name": "E1",
          "midi": 28,
          "time": 53.65843999999977,
          "velocity": 1,
          "duration": 0.2439019999999985
        },
        {
          "name": "E1",
          "midi": 28,
          "time": 53.90234199999977,
          "velocity": 1,
          "duration": 0.2439019999999985
        },
        {
          "name": "E1",
          "midi": 28,
          "time": 54.14624399999977,
          "velocity": 1,
          "duration": 0.2439019999999985
        },
        {
          "name": "E1",
          "midi": 28,
          "time": 54.39014599999977,
          "velocity": 1,
          "duration": 0.2439019999999985
        },
        {
          "name": "E1",
          "midi": 28,
          "time": 54.634047999999765,
          "velocity": 1,
          "duration": 0.487803999999997
        },
        {
          "name": "E1",
          "midi": 28,
          "time": 55.12185199999976,
          "velocity": 1,
          "duration": 0.2439019999999985
        },
        {
          "name": "E1",
          "midi": 28,
          "time": 55.36575399999976,
          "velocity": 1,
          "duration": 0.2439019999999985
        },
        {
          "name": "A#1",
          "midi": 34,
          "time": 55.60965599999976,
          "velocity": 1,
          "duration": 0.2439019999999985
        },
        {
          "name": "A1",
          "midi": 33,
          "time": 55.85355799999976,
          "velocity": 1,
          "duration": 0.2439019999999985
        },
        {
          "name": "A1",
          "midi": 33,
          "time": 56.09745999999976,
          "velocity": 1,
          "duration": 0.2439019999999985
        },
        {
          "name": "E1",
          "midi": 28,
          "time": 56.341361999999755,
          "velocity": 1,
          "duration": 0.2439019999999985
        },
        {
          "name": "E1",
          "midi": 28,
          "time": 56.58526399999975,
          "velocity": 1,
          "duration": 0.487803999999997
        },
        {
          "name": "E1",
          "midi": 28,
          "time": 57.07306799999975,
          "velocity": 1,
          "duration": 0.2439019999999985
        },
        {
          "name": "E1",
          "midi": 28,
          "time": 57.31696999999975,
          "velocity": 1,
          "duration": 0.2439019999999985
        },
        {
          "name": "A#1",
          "midi": 34,
          "time": 57.56087199999975,
          "velocity": 1,
          "duration": 0.2439019999999985
        },
        {
          "name": "A1",
          "midi": 33,
          "time": 57.804773999999746,
          "velocity": 1,
          "duration": 0.2439019999999985
        },
        {
          "name": "A1",
          "midi": 33,
          "time": 58.048675999999745,
          "velocity": 1,
          "duration": 0.2439019999999985
        },
        {
          "name": "E1",
          "midi": 28,
          "time": 58.29257799999974,
          "velocity": 1,
          "duration": 0.2439019999999985
        },
        {
          "name": "E1",
          "midi": 28,
          "time": 58.53647999999974,
          "velocity": 1,
          "duration": 0.487803999999997
        },
        {
          "name": "E1",
          "midi": 28,
          "time": 59.02428399999974,
          "velocity": 1,
          "duration": 0.2439019999999985
        },
        {
          "name": "E1",
          "midi": 28,
          "time": 59.26818599999974,
          "velocity": 1,
          "duration": 0.2439019999999985
        },
        {
          "name": "A#1",
          "midi": 34,
          "time": 59.512087999999736,
          "velocity": 1,
          "duration": 0.2439019999999985
        },
        {
          "name": "A1",
          "midi": 33,
          "time": 59.755989999999734,
          "velocity": 1,
          "duration": 0.487803999999997
        },
        {
          "name": "E1",
          "midi": 28,
          "time": 60.24379399999973,
          "velocity": 1,
          "duration": 0.2439019999999985
        },
        {
          "name": "G1",
          "midi": 31,
          "time": 60.48769599999973,
          "velocity": 1,
          "duration": 0.487803999999997
        },
        {
          "name": "E1",
          "midi": 28,
          "time": 60.97549999999973,
          "velocity": 1,
          "duration": 0.2439019999999985
        },
        {
          "name": "F#1",
          "midi": 30,
          "time": 61.219401999999725,
          "velocity": 1,
          "duration": 0.2439019999999985
        },
        {
          "name": "E1",
          "midi": 28,
          "time": 61.463303999999724,
          "velocity": 1,
          "duration": 0.2439019999999985
        },
        {
          "name": "F#1",
          "midi": 30,
          "time": 61.70720599999972,
          "velocity": 1,
          "duration": 0.2439019999999985
        },
        {
          "name": "G1",
          "midi": 31,
          "time": 61.95110799999972,
          "velocity": 1,
          "duration": 0.2439019999999985
        },
        {
          "name": "F#1",
          "midi": 30,
          "time": 62.19500999999972,
          "velocity": 1,
          "duration": 0.2439019999999985
        },
        {
          "name": "E1",
          "midi": 28,
          "time": 62.43891199999972,
          "velocity": 1,
          "duration": 0.487803999999997
        },
        {
          "name": "E1",
          "midi": 28,
          "time": 62.926715999999715,
          "velocity": 1,
          "duration": 0.2439019999999985
        },
        {
          "name": "E1",
          "midi": 28,
          "time": 63.17061799999971,
          "velocity": 1,
          "duration": 0.2439019999999985
        },
        {
          "name": "A#1",
          "midi": 34,
          "time": 63.41451999999971,
          "velocity": 1,
          "duration": 0.2439019999999985
        },
        {
          "name": "A1",
          "midi": 33,
          "time": 63.65842199999971,
          "velocity": 1,
          "duration": 0.2439019999999985
        },
        {
          "name": "A1",
          "midi": 33,
          "time": 63.90232399999971,
          "velocity": 1,
          "duration": 0.24390200000000561
        },
        {
          "name": "E1",
          "midi": 28,
          "time": 64.14622599999971,
          "velocity": 1,
          "duration": 0.24390200000000561
        },
        {
          "name": "E1",
          "midi": 28,
          "time": 64.39012799999972,
          "velocity": 1,
          "duration": 0.487803999999997
        },
        {
          "name": "E1",
          "midi": 28,
          "time": 64.87793199999972,
          "velocity": 1,
          "duration": 0.24390200000000561
        },
        {
          "name": "E1",
          "midi": 28,
          "time": 65.12183399999972,
          "velocity": 1,
          "duration": 0.24390200000000561
        },
        {
          "name": "A#1",
          "midi": 34,
          "time": 65.36573599999973,
          "velocity": 1,
          "duration": 0.24390200000000561
        },
        {
          "name": "A1",
          "midi": 33,
          "time": 65.60963799999973,
          "velocity": 1,
          "duration": 0.24390200000000561
        },
        {
          "name": "A1",
          "midi": 33,
          "time": 65.85353999999974,
          "velocity": 1,
          "duration": 0.24390200000000561
        },
        {
          "name": "E1",
          "midi": 28,
          "time": 66.09744199999975,
          "velocity": 1,
          "duration": 0.24390200000000561
        },
        {
          "name": "E1",
          "midi": 28,
          "time": 66.34134399999975,
          "velocity": 1,
          "duration": 0.487803999999997
        },
        {
          "name": "E1",
          "midi": 28,
          "time": 66.82914799999975,
          "velocity": 1,
          "duration": 0.24390200000000561
        },
        {
          "name": "E1",
          "midi": 28,
          "time": 67.07304999999975,
          "velocity": 1,
          "duration": 0.24390200000000561
        },
        {
          "name": "A#1",
          "midi": 34,
          "time": 67.31695199999976,
          "velocity": 1,
          "duration": 0.24390200000000561
        },
        {
          "name": "A1",
          "midi": 33,
          "time": 67.56085399999976,
          "velocity": 1,
          "duration": 0.487803999999997
        },
        {
          "name": "E1",
          "midi": 28,
          "time": 68.04865799999976,
          "velocity": 1,
          "duration": 0.24390200000000561
        },
        {
          "name": "G1",
          "midi": 31,
          "time": 68.29255999999977,
          "velocity": 1,
          "duration": 0.487803999999997
        },
        {
          "name": "E1",
          "midi": 28,
          "time": 68.78036399999976,
          "velocity": 1,
          "duration": 0.24390200000000561
        },
        {
          "name": "F#1",
          "midi": 30,
          "time": 69.02426599999977,
          "velocity": 1,
          "duration": 0.24390200000000561
        },
        {
          "name": "E1",
          "midi": 28,
          "time": 69.26816799999978,
          "velocity": 1,
          "duration": 0.24390200000000561
        },
        {
          "name": "F#1",
          "midi": 30,
          "time": 69.51206999999978,
          "velocity": 1,
          "duration": 0.24390200000000561
        },
        {
          "name": "G1",
          "midi": 31,
          "time": 69.75597199999979,
          "velocity": 1,
          "duration": 0.24390200000000561
        },
        {
          "name": "F#1",
          "midi": 30,
          "time": 69.99987399999979,
          "velocity": 1,
          "duration": 0.24390200000000561
        },
        {
          "name": "E1",
          "midi": 28,
          "time": 70.2437759999998,
          "velocity": 1,
          "duration": 0.487803999999997
        },
        {
          "name": "E1",
          "midi": 28,
          "time": 70.7315799999998,
          "velocity": 1,
          "duration": 0.24390200000000561
        },
        {
          "name": "E1",
          "midi": 28,
          "time": 70.9754819999998,
          "velocity": 1,
          "duration": 0.24390200000000561
        },
        {
          "name": "E1",
          "midi": 28,
          "time": 71.2193839999998,
          "velocity": 1,
          "duration": 0.24390200000000561
        },
        {
          "name": "E1",
          "midi": 28,
          "time": 71.46328599999981,
          "velocity": 1,
          "duration": 0.24390200000000561
        },
        {
          "name": "E1",
          "midi": 28,
          "time": 71.70718799999982,
          "velocity": 1,
          "duration": 0.24390200000000561
        },
        {
          "name": "E1",
          "midi": 28,
          "time": 71.95108999999982,
          "velocity": 1,
          "duration": 0.24390200000000561
        },
        {
          "name": "F1",
          "midi": 29,
          "time": 72.19499199999983,
          "velocity": 1,
          "duration": 0.24390200000000561
        },
        {
          "name": "E1",
          "midi": 28,
          "time": 72.43889399999983,
          "velocity": 1,
          "duration": 0.24390200000000561
        },
        {
          "name": "E1",
          "midi": 28,
          "time": 72.68279599999984,
          "velocity": 1,
          "duration": 0.24390200000000561
        },
        {
          "name": "E1",
          "midi": 28,
          "time": 72.92669799999985,
          "velocity": 1,
          "duration": 0.24390200000000561
        },
        {
          "name": "E1",
          "midi": 28,
          "time": 73.17059999999985,
          "velocity": 1,
          "duration": 0.24390200000000561
        },
        {
          "name": "E1",
          "midi": 28,
          "time": 73.41450199999986,
          "velocity": 1,
          "duration": 0.24390200000000561
        },
        {
          "name": "E1",
          "midi": 28,
          "time": 73.65840399999986,
          "velocity": 1,
          "duration": 0.24390200000000561
        },
        {
          "name": "E1",
          "midi": 28,
          "time": 73.90230599999987,
          "velocity": 1,
          "duration": 0.24390200000000561
        },
        {
          "name": "F1",
          "midi": 29,
          "time": 74.14620799999987,
          "velocity": 1,
          "duration": 0.24390200000000561
        },
        {
          "name": "E1",
          "midi": 28,
          "time": 74.39010999999988,
          "velocity": 1,
          "duration": 0.24390200000000561
        },
        {
          "name": "E1",
          "midi": 28,
          "time": 74.63401199999988,
          "velocity": 1,
          "duration": 0.24390200000000561
        },
        {
          "name": "E1",
          "midi": 28,
          "time": 74.87791399999989,
          "velocity": 1,
          "duration": 0.24390200000000561
        },
        {
          "name": "E1",
          "midi": 28,
          "time": 75.1218159999999,
          "velocity": 1,
          "duration": 0.24390200000000561
        },
        {
          "name": "E1",
          "midi": 28,
          "time": 75.3657179999999,
          "velocity": 1,
          "duration": 0.24390200000000561
        },
        {
          "name": "E1",
          "midi": 28,
          "time": 75.60961999999991,
          "velocity": 1,
          "duration": 0.24390200000000561
        },
        {
          "name": "E1",
          "midi": 28,
          "time": 75.85352199999991,
          "velocity": 1,
          "duration": 0.24390200000000561
        },
        {
          "name": "G1",
          "midi": 31,
          "time": 76.09742399999992,
          "velocity": 1,
          "duration": 0.487803999999997
        },
        {
          "name": "E1",
          "midi": 28,
          "time": 76.58522799999992,
          "velocity": 1,
          "duration": 0.24390200000000561
        },
        {
          "name": "F#1",
          "midi": 30,
          "time": 76.82912999999992,
          "velocity": 1,
          "duration": 0.24390200000000561
        },
        {
          "name": "E1",
          "midi": 28,
          "time": 77.07303199999993,
          "velocity": 1,
          "duration": 0.24390200000000561
        },
        {
          "name": "F#1",
          "midi": 30,
          "time": 77.31693399999993,
          "velocity": 1,
          "duration": 0.24390200000000561
        },
        {
          "name": "G1",
          "midi": 31,
          "time": 77.56083599999994,
          "velocity": 1,
          "duration": 0.24390200000000561
        },
        {
          "name": "F#1",
          "midi": 30,
          "time": 77.80473799999994,
          "velocity": 1,
          "duration": 0.24390200000000561
        },
        {
          "name": "E1",
          "midi": 28,
          "time": 78.04863999999995,
          "velocity": 1,
          "duration": 0.487803999999997
        },
        {
          "name": "E1",
          "midi": 28,
          "time": 78.53644399999995,
          "velocity": 1,
          "duration": 0.24390200000000561
        },
        {
          "name": "E1",
          "midi": 28,
          "time": 78.78034599999995,
          "velocity": 1,
          "duration": 0.24390200000000561
        },
        {
          "name": "E1",
          "midi": 28,
          "time": 79.02424799999996,
          "velocity": 1,
          "duration": 0.24390200000000561
        },
        {
          "name": "E1",
          "midi": 28,
          "time": 79.26814999999996,
          "velocity": 1,
          "duration": 0.24390200000000561
        },
        {
          "name": "E1",
          "midi": 28,
          "time": 79.51205199999997,
          "velocity": 1,
          "duration": 0.24390200000000561
        },
        {
          "name": "E1",
          "midi": 28,
          "time": 79.75595399999997,
          "velocity": 1,
          "duration": 0.24390200000000561
        },
        {
          "name": "F1",
          "midi": 29,
          "time": 79.99985599999998,
          "velocity": 1,
          "duration": 0.24390200000000561
        },
        {
          "name": "E1",
          "midi": 28,
          "time": 80.24375799999999,
          "velocity": 1,
          "duration": 0.24390200000000561
        },
        {
          "name": "E1",
          "midi": 28,
          "time": 80.48765999999999,
          "velocity": 1,
          "duration": 0.24390200000000561
        },
        {
          "name": "E1",
          "midi": 28,
          "time": 80.731562,
          "velocity": 1,
          "duration": 0.24390200000000561
        },
        {
          "name": "E1",
          "midi": 28,
          "time": 80.975464,
          "velocity": 1,
          "duration": 0.24390200000000561
        },
        {
          "name": "E1",
          "midi": 28,
          "time": 81.21936600000001,
          "velocity": 1,
          "duration": 0.24390200000000561
        },
        {
          "name": "E1",
          "midi": 28,
          "time": 81.46326800000001,
          "velocity": 1,
          "duration": 0.24390200000000561
        },
        {
          "name": "E1",
          "midi": 28,
          "time": 81.70717000000002,
          "velocity": 1,
          "duration": 0.24390200000000561
        },
        {
          "name": "F1",
          "midi": 29,
          "time": 81.95107200000002,
          "velocity": 1,
          "duration": 0.24390200000000561
        },
        {
          "name": "E1",
          "midi": 28,
          "time": 82.19497400000003,
          "velocity": 1,
          "duration": 0.24390200000000561
        },
        {
          "name": "E1",
          "midi": 28,
          "time": 82.43887600000004,
          "velocity": 1,
          "duration": 0.24390200000000561
        },
        {
          "name": "E1",
          "midi": 28,
          "time": 82.68277800000004,
          "velocity": 1,
          "duration": 0.24390200000000561
        },
        {
          "name": "E1",
          "midi": 28,
          "time": 82.92668000000005,
          "velocity": 1,
          "duration": 0.24390200000000561
        },
        {
          "name": "E1",
          "midi": 28,
          "time": 83.17058200000005,
          "velocity": 1,
          "duration": 0.24390200000000561
        },
        {
          "name": "E1",
          "midi": 28,
          "time": 83.41448400000006,
          "velocity": 1,
          "duration": 0.24390200000000561
        },
        {
          "name": "E1",
          "midi": 28,
          "time": 83.65838600000006,
          "velocity": 1,
          "duration": 0.24390200000000561
        },
        {
          "name": "G1",
          "midi": 31,
          "time": 83.90228800000007,
          "velocity": 1,
          "duration": 0.487803999999997
        },
        {
          "name": "E1",
          "midi": 28,
          "time": 84.39009200000007,
          "velocity": 1,
          "duration": 0.24390200000000561
        },
        {
          "name": "F#1",
          "midi": 30,
          "time": 84.63399400000007,
          "velocity": 1,
          "duration": 0.24390200000000561
        },
        {
          "name": "E1",
          "midi": 28,
          "time": 84.87789600000008,
          "velocity": 1,
          "duration": 0.24390200000000561
        },
        {
          "name": "F#1",
          "midi": 30,
          "time": 85.12179800000008,
          "velocity": 1,
          "duration": 0.24390200000000561
        },
        {
          "name": "G1",
          "midi": 31,
          "time": 85.36570000000009,
          "velocity": 1,
          "duration": 0.24390200000000561
        },
        {
          "name": "E1",
          "midi": 28,
          "time": 85.6096020000001,
          "velocity": 1,
          "duration": 0.24390200000000561
        },
        {
          "name": "F#1",
          "midi": 30,
          "time": 85.8535040000001,
          "velocity": 1,
          "duration": 1.2195099999999996
        },
        {
          "name": "B1",
          "midi": 35,
          "time": 87.0730140000001,
          "velocity": 1,
          "duration": 0.7317060000000026
        },
        {
          "name": "F#1",
          "midi": 30,
          "time": 87.8047200000001,
          "velocity": 1,
          "duration": 1.2195099999999996
        },
        {
          "name": "B1",
          "midi": 35,
          "time": 89.0242300000001,
          "velocity": 1,
          "duration": 0.7317060000000026
        },
        {
          "name": "F#1",
          "midi": 30,
          "time": 89.7559360000001,
          "velocity": 1,
          "duration": 1.2195099999999996
        },
        {
          "name": "B1",
          "midi": 35,
          "time": 90.9754460000001,
          "velocity": 1,
          "duration": 0.7317060000000026
        },
        {
          "name": "F#1",
          "midi": 30,
          "time": 91.70715200000011,
          "velocity": 1,
          "duration": 0.24390200000000561
        },
        {
          "name": "F#1",
          "midi": 30,
          "time": 91.95105400000011,
          "velocity": 1,
          "duration": 0.24390200000000561
        },
        {
          "name": "F#1",
          "midi": 30,
          "time": 92.19495600000012,
          "velocity": 1,
          "duration": 0.24390200000000561
        },
        {
          "name": "F#1",
          "midi": 30,
          "time": 92.43885800000012,
          "velocity": 1,
          "duration": 0.24390200000000561
        },
        {
          "name": "F#1",
          "midi": 30,
          "time": 92.68276000000013,
          "velocity": 1,
          "duration": 0.24390200000000561
        },
        {
          "name": "F#1",
          "midi": 30,
          "time": 92.92666200000014,
          "velocity": 1,
          "duration": 0.24390200000000561
        },
        {
          "name": "E1",
          "midi": 28,
          "time": 93.17056400000014,
          "velocity": 1,
          "duration": 0.24390200000000561
        },
        {
          "name": "E1",
          "midi": 28,
          "time": 93.41446600000015,
          "velocity": 1,
          "duration": 0.24390200000000561
        },
        {
          "name": "F1",
          "midi": 29,
          "time": 93.65836800000015,
          "velocity": 1,
          "duration": 0.24390200000000561
        },
        {
          "name": "F#1",
          "midi": 30,
          "time": 93.90227000000016,
          "velocity": 1,
          "duration": 0.24390200000000561
        },
        {
          "name": "F#1",
          "midi": 30,
          "time": 94.14617200000016,
          "velocity": 1,
          "duration": 0.24390200000000561
        },
        {
          "name": "F#1",
          "midi": 30,
          "time": 94.39007400000017,
          "velocity": 1,
          "duration": 0.24390200000000561
        },
        {
          "name": "C2",
          "midi": 36,
          "time": 94.63397600000017,
          "velocity": 1,
          "duration": 0.24390200000000561
        },
        {
          "name": "B1",
          "midi": 35,
          "time": 94.87787800000018,
          "velocity": 1,
          "duration": 0.24390200000000561
        },
        {
          "name": "B1",
          "midi": 35,
          "time": 95.12178000000019,
          "velocity": 1,
          "duration": 0.24390200000000561
        },
        {
          "name": "B1",
          "midi": 35,
          "time": 95.36568200000019,
          "velocity": 1,
          "duration": 0.24390200000000561
        },
        {
          "name": "F#1",
          "midi": 30,
          "time": 95.6095840000002,
          "velocity": 1,
          "duration": 0.487803999999997
        },
        {
          "name": "F#1",
          "midi": 30,
          "time": 96.0973880000002,
          "velocity": 1,
          "duration": 0.24390200000000561
        },
        {
          "name": "F#1",
          "midi": 30,
          "time": 96.3412900000002,
          "velocity": 1,
          "duration": 0.24390200000000561
        },
        {
          "name": "C2",
          "midi": 36,
          "time": 96.5851920000002,
          "velocity": 1,
          "duration": 0.24390200000000561
        },
        {
          "name": "B1",
          "midi": 35,
          "time": 96.82909400000021,
          "velocity": 1,
          "duration": 0.24390200000000561
        },
        {
          "name": "B1",
          "midi": 35,
          "time": 97.07299600000022,
          "velocity": 1,
          "duration": 0.24390200000000561
        },
        {
          "name": "B1",
          "midi": 35,
          "time": 97.31689800000022,
          "velocity": 1,
          "duration": 0.24390200000000561
        },
        {
          "name": "F#1",
          "midi": 30,
          "time": 97.56080000000023,
          "velocity": 1,
          "duration": 0.24390200000000561
        },
        {
          "name": "F#1",
          "midi": 30,
          "time": 97.80470200000023,
          "velocity": 1,
          "duration": 0.24390200000000561
        },
        {
          "name": "F#1",
          "midi": 30,
          "time": 98.04860400000024,
          "velocity": 1,
          "duration": 0.24390200000000561
        },
        {
          "name": "F#1",
          "midi": 30,
          "time": 98.29250600000024,
          "velocity": 1,
          "duration": 0.24390200000000561
        },
        {
          "name": "C2",
          "midi": 36,
          "time": 98.53640800000025,
          "velocity": 1,
          "duration": 0.24390200000000561
        },
        {
          "name": "B1",
          "midi": 35,
          "time": 98.78031000000026,
          "velocity": 1,
          "duration": 0.24390200000000561
        },
        {
          "name": "B1",
          "midi": 35,
          "time": 99.02421200000026,
          "velocity": 1,
          "duration": 0.24390200000000561
        },
        {
          "name": "B1",
          "midi": 35,
          "time": 99.26811400000027,
          "velocity": 1,
          "duration": 0.24390200000000561
        },
        {
          "name": "E1",
          "midi": 28,
          "time": 99.51201600000027,
          "velocity": 1,
          "duration": 0.487803999999997
        },
        {
          "name": "A1",
          "midi": 33,
          "time": 99.99982000000027,
          "velocity": 1,
          "duration": 0.1219509999999957
        },
        {
          "name": "B1",
          "midi": 35,
          "time": 100.12177100000027,
          "velocity": 1,
          "duration": 0.1219509999999957
        },
        {
          "name": "D2",
          "midi": 38,
          "time": 100.24372200000026,
          "velocity": 1,
          "duration": 0.24390200000000561
        },
        {
          "name": "B1",
          "midi": 35,
          "time": 100.48762400000027,
          "velocity": 1,
          "duration": 0.24390200000000561
        },
        {
          "name": "E2",
          "midi": 40,
          "time": 100.73152600000027,
          "velocity": 1,
          "duration": 0.24390200000000561
        },
        {
          "name": "D2",
          "midi": 38,
          "time": 100.97542800000028,
          "velocity": 1,
          "duration": 0.24390200000000561
        },
        {
          "name": "B1",
          "midi": 35,
          "time": 101.21933000000028,
          "velocity": 1,
          "duration": 0.24390200000000561
        },
        {
          "name": "G1",
          "midi": 31,
          "time": 101.46323200000029,
          "velocity": 1,
          "duration": 0.24390200000000561
        },
        {
          "name": "F#1",
          "midi": 30,
          "time": 101.7071340000003,
          "velocity": 1,
          "duration": 0.487803999999997
        },
        {
          "name": "F#1",
          "midi": 30,
          "time": 102.19493800000029,
          "velocity": 1,
          "duration": 0.24390200000000561
        },
        {
          "name": "C2",
          "midi": 36,
          "time": 102.4388400000003,
          "velocity": 1,
          "duration": 0.24390200000000561
        },
        {
          "name": "B1",
          "midi": 35,
          "time": 102.6827420000003,
          "velocity": 1,
          "duration": 0.24390200000000561
        },
        {
          "name": "B1",
          "midi": 35,
          "time": 102.92664400000031,
          "velocity": 1,
          "duration": 0.24390200000000561
        },
        {
          "name": "B1",
          "midi": 35,
          "time": 103.17054600000031,
          "velocity": 1,
          "duration": 0.24390200000000561
        },
        {
          "name": "E1",
          "midi": 28,
          "time": 103.41444800000032,
          "velocity": 1,
          "duration": 0.24390200000000561
        },
        {
          "name": "E1",
          "midi": 28,
          "time": 103.65835000000033,
          "velocity": 1,
          "duration": 0.24390200000000561
        },
        {
          "name": "E1",
          "midi": 28,
          "time": 103.90225200000033,
          "velocity": 1,
          "duration": 0.24390200000000561
        },
        {
          "name": "F#1",
          "midi": 30,
          "time": 104.14615400000034,
          "velocity": 1,
          "duration": 0.24390200000000561
        },
        {
          "name": "E1",
          "midi": 28,
          "time": 104.39005600000034,
          "velocity": 1,
          "duration": 0.24390200000000561
        },
        {
          "name": "G1",
          "midi": 31,
          "time": 104.63395800000035,
          "velocity": 1,
          "duration": 0.24390200000000561
        },
        {
          "name": "E1",
          "midi": 28,
          "time": 104.87786000000035,
          "velocity": 1,
          "duration": 0.24390200000000561
        },
        {
          "name": "A1",
          "midi": 33,
          "time": 105.12176200000036,
          "velocity": 1,
          "duration": 0.24390200000000561
        },
        {
          "name": "E1",
          "midi": 28,
          "time": 105.36566400000036,
          "velocity": 1,
          "duration": 0.24390200000000561
        },
        {
          "name": "G1",
          "midi": 31,
          "time": 105.60956600000037,
          "velocity": 1,
          "duration": 0.24390200000000561
        },
        {
          "name": "E1",
          "midi": 28,
          "time": 107.31688000000038,
          "velocity": 1,
          "duration": 0.487803999999997
        },
        {
          "name": "E1",
          "midi": 28,
          "time": 107.80468400000038,
          "velocity": 1,
          "duration": 0.24390200000000561
        },
        {
          "name": "E1",
          "midi": 28,
          "time": 108.04858600000038,
          "velocity": 1,
          "duration": 0.24390200000000561
        },
        {
          "name": "A#1",
          "midi": 34,
          "time": 108.29248800000039,
          "velocity": 1,
          "duration": 0.24390200000000561
        },
        {
          "name": "A1",
          "midi": 33,
          "time": 108.5363900000004,
          "velocity": 1,
          "duration": 0.24390200000000561
        },
        {
          "name": "A1",
          "midi": 33,
          "time": 108.7802920000004,
          "velocity": 1,
          "duration": 0.24390200000000561
        },
        {
          "name": "E1",
          "midi": 28,
          "time": 109.0241940000004,
          "velocity": 1,
          "duration": 0.24390200000000561
        },
        {
          "name": "E1",
          "midi": 28,
          "time": 109.26809600000041,
          "velocity": 1,
          "duration": 0.487803999999997
        },
        {
          "name": "E1",
          "midi": 28,
          "time": 109.75590000000041,
          "velocity": 1,
          "duration": 0.24390200000000561
        },
        {
          "name": "E1",
          "midi": 28,
          "time": 109.99980200000041,
          "velocity": 1,
          "duration": 0.24390200000000561
        },
        {
          "name": "A#1",
          "midi": 34,
          "time": 110.24370400000042,
          "velocity": 1,
          "duration": 0.24390200000000561
        },
        {
          "name": "A1",
          "midi": 33,
          "time": 110.48760600000043,
          "velocity": 1,
          "duration": 0.24390200000000561
        },
        {
          "name": "A1",
          "midi": 33,
          "time": 110.73150800000043,
          "velocity": 1,
          "duration": 0.24390200000000561
        },
        {
          "name": "E1",
          "midi": 28,
          "time": 110.97541000000044,
          "velocity": 1,
          "duration": 0.24390200000000561
        },
        {
          "name": "E1",
          "midi": 28,
          "time": 111.21931200000044,
          "velocity": 1,
          "duration": 0.487803999999997
        },
        {
          "name": "E1",
          "midi": 28,
          "time": 111.70711600000044,
          "velocity": 1,
          "duration": 0.24390200000000561
        },
        {
          "name": "E1",
          "midi": 28,
          "time": 111.95101800000045,
          "velocity": 1,
          "duration": 0.24390200000000561
        },
        {
          "name": "A#1",
          "midi": 34,
          "time": 112.19492000000045,
          "velocity": 1,
          "duration": 0.24390200000000561
        },
        {
          "name": "A1",
          "midi": 33,
          "time": 112.43882200000046,
          "velocity": 1,
          "duration": 0.487803999999997
        },
        {
          "name": "E1",
          "midi": 28,
          "time": 112.92662600000045,
          "velocity": 1,
          "duration": 0.24390200000000561
        },
        {
          "name": "G1",
          "midi": 31,
          "time": 113.17052800000046,
          "velocity": 1,
          "duration": 0.487803999999997
        },
        {
          "name": "E1",
          "midi": 28,
          "time": 113.65833200000046,
          "velocity": 1,
          "duration": 0.24390200000000561
        },
        {
          "name": "F#1",
          "midi": 30,
          "time": 113.90223400000046,
          "velocity": 1,
          "duration": 0.24390200000000561
        },
        {
          "name": "E1",
          "midi": 28,
          "time": 114.14613600000047,
          "velocity": 1,
          "duration": 0.24390200000000561
        },
        {
          "name": "F#1",
          "midi": 30,
          "time": 114.39003800000047,
          "velocity": 1,
          "duration": 0.24390200000000561
        },
        {
          "name": "G1",
          "midi": 31,
          "time": 114.63394000000048,
          "velocity": 1,
          "duration": 0.24390200000000561
        },
        {
          "name": "F#1",
          "midi": 30,
          "time": 114.87784200000048,
          "velocity": 1,
          "duration": 0.24390200000000561
        },
        {
          "name": "E1",
          "midi": 28,
          "time": 115.12174400000049,
          "velocity": 1,
          "duration": 0.487803999999997
        },
        {
          "name": "E1",
          "midi": 28,
          "time": 115.60954800000049,
          "velocity": 1,
          "duration": 0.24390200000000561
        },
        {
          "name": "E1",
          "midi": 28,
          "time": 115.85345000000049,
          "velocity": 1,
          "duration": 0.24390200000000561
        },
        {
          "name": "A#1",
          "midi": 34,
          "time": 116.0973520000005,
          "velocity": 1,
          "duration": 0.24390200000000561
        },
        {
          "name": "A1",
          "midi": 33,
          "time": 116.3412540000005,
          "velocity": 1,
          "duration": 0.24390200000000561
        },
        {
          "name": "A1",
          "midi": 33,
          "time": 116.58515600000051,
          "velocity": 1,
          "duration": 0.24390200000000561
        },
        {
          "name": "E1",
          "midi": 28,
          "time": 116.82905800000051,
          "velocity": 1,
          "duration": 0.24390200000000561
        },
        {
          "name": "E1",
          "midi": 28,
          "time": 117.07296000000052,
          "velocity": 1,
          "duration": 0.487803999999997
        },
        {
          "name": "E1",
          "midi": 28,
          "time": 117.56076400000052,
          "velocity": 1,
          "duration": 0.24390200000000561
        },
        {
          "name": "E1",
          "midi": 28,
          "time": 117.80466600000052,
          "velocity": 1,
          "duration": 0.24390200000000561
        },
        {
          "name": "A#1",
          "midi": 34,
          "time": 118.04856800000053,
          "velocity": 1,
          "duration": 0.24390200000000561
        },
        {
          "name": "A1",
          "midi": 33,
          "time": 118.29247000000053,
          "velocity": 1,
          "duration": 0.24390200000000561
        },
        {
          "name": "A1",
          "midi": 33,
          "time": 118.53637200000054,
          "velocity": 1,
          "duration": 0.24390200000000561
        },
        {
          "name": "E1",
          "midi": 28,
          "time": 118.78027400000055,
          "velocity": 1,
          "duration": 0.24390200000000561
        },
        {
          "name": "E1",
          "midi": 28,
          "time": 119.02417600000055,
          "velocity": 1,
          "duration": 0.487803999999997
        },
        {
          "name": "E1",
          "midi": 28,
          "time": 119.51198000000055,
          "velocity": 1,
          "duration": 0.24390200000000561
        },
        {
          "name": "E1",
          "midi": 28,
          "time": 119.75588200000055,
          "velocity": 1,
          "duration": 0.24390200000000561
        },
        {
          "name": "A#1",
          "midi": 34,
          "time": 119.99978400000056,
          "velocity": 1,
          "duration": 0.24390200000000561
        },
        {
          "name": "A1",
          "midi": 33,
          "time": 120.24368600000057,
          "velocity": 1,
          "duration": 0.487803999999997
        },
        {
          "name": "E1",
          "midi": 28,
          "time": 120.73149000000056,
          "velocity": 1,
          "duration": 0.24390200000000561
        },
        {
          "name": "G1",
          "midi": 31,
          "time": 120.97539200000057,
          "velocity": 1,
          "duration": 0.487803999999997
        },
        {
          "name": "E1",
          "midi": 28,
          "time": 121.46319600000056,
          "velocity": 1,
          "duration": 0.24390200000000561
        },
        {
          "name": "F#1",
          "midi": 30,
          "time": 121.70709800000057,
          "velocity": 1,
          "duration": 0.24390200000000561
        },
        {
          "name": "E1",
          "midi": 28,
          "time": 121.95100000000058,
          "velocity": 1,
          "duration": 0.24390200000000561
        },
        {
          "name": "F#1",
          "midi": 30,
          "time": 122.19490200000058,
          "velocity": 1,
          "duration": 0.24390200000000561
        },
        {
          "name": "G1",
          "midi": 31,
          "time": 122.43880400000059,
          "velocity": 1,
          "duration": 0.24390200000000561
        },
        {
          "name": "F#1",
          "midi": 30,
          "time": 122.68270600000059,
          "velocity": 1,
          "duration": 0.24390200000000561
        },
        {
          "name": "E1",
          "midi": 28,
          "time": 122.9266080000006,
          "velocity": 1,
          "duration": 0.487803999999997
        },
        {
          "name": "E1",
          "midi": 28,
          "time": 123.4144120000006,
          "velocity": 1,
          "duration": 0.24390200000000561
        },
        {
          "name": "E1",
          "midi": 28,
          "time": 123.6583140000006,
          "velocity": 1,
          "duration": 0.24390200000000561
        },
        {
          "name": "E1",
          "midi": 28,
          "time": 123.9022160000006,
          "velocity": 1,
          "duration": 0.24390200000000561
        },
        {
          "name": "E1",
          "midi": 28,
          "time": 124.14611800000061,
          "velocity": 1,
          "duration": 0.24390200000000561
        },
        {
          "name": "E1",
          "midi": 28,
          "time": 124.39002000000062,
          "velocity": 1,
          "duration": 0.24390200000000561
        },
        {
          "name": "E1",
          "midi": 28,
          "time": 124.63392200000062,
          "velocity": 1,
          "duration": 0.24390200000000561
        },
        {
          "name": "F1",
          "midi": 29,
          "time": 124.87782400000063,
          "velocity": 1,
          "duration": 0.24390200000000561
        },
        {
          "name": "E1",
          "midi": 28,
          "time": 125.12172600000063,
          "velocity": 1,
          "duration": 0.24390200000000561
        },
        {
          "name": "E1",
          "midi": 28,
          "time": 125.36562800000064,
          "velocity": 1,
          "duration": 0.24390200000000561
        },
        {
          "name": "E1",
          "midi": 28,
          "time": 125.60953000000065,
          "velocity": 1,
          "duration": 0.24390200000000561
        },
        {
          "name": "E1",
          "midi": 28,
          "time": 125.85343200000065,
          "velocity": 1,
          "duration": 0.24390200000000561
        },
        {
          "name": "E1",
          "midi": 28,
          "time": 126.09733400000066,
          "velocity": 1,
          "duration": 0.24390200000000561
        },
        {
          "name": "E1",
          "midi": 28,
          "time": 126.34123600000066,
          "velocity": 1,
          "duration": 0.24390200000000561
        },
        {
          "name": "E1",
          "midi": 28,
          "time": 126.58513800000067,
          "velocity": 1,
          "duration": 0.24390200000000561
        },
        {
          "name": "F1",
          "midi": 29,
          "time": 126.82904000000067,
          "velocity": 1,
          "duration": 0.24390200000000561
        },
        {
          "name": "E1",
          "midi": 28,
          "time": 127.07294200000068,
          "velocity": 1,
          "duration": 0.24390200000000561
        },
        {
          "name": "E1",
          "midi": 28,
          "time": 127.31684400000069,
          "velocity": 1,
          "duration": 0.24390200000000561
        },
        {
          "name": "E1",
          "midi": 28,
          "time": 127.56074600000069,
          "velocity": 1,
          "duration": 0.24390200000000561
        },
        {
          "name": "E1",
          "midi": 28,
          "time": 127.8046480000007,
          "velocity": 1,
          "duration": 0.2439019999999914
        },
        {
          "name": "E1",
          "midi": 28,
          "time": 128.0485500000007,
          "velocity": 1,
          "duration": 0.2439019999999914
        },
        {
          "name": "E1",
          "midi": 28,
          "time": 128.29245200000068,
          "velocity": 1,
          "duration": 0.2439019999999914
        },
        {
          "name": "E1",
          "midi": 28,
          "time": 128.53635400000067,
          "velocity": 1,
          "duration": 0.2439019999999914
        },
        {
          "name": "G1",
          "midi": 31,
          "time": 128.78025600000066,
          "velocity": 1,
          "duration": 0.48780400000001123
        },
        {
          "name": "E1",
          "midi": 28,
          "time": 129.26806000000067,
          "velocity": 1,
          "duration": 0.2439019999999914
        },
        {
          "name": "F#1",
          "midi": 30,
          "time": 129.51196200000066,
          "velocity": 1,
          "duration": 0.2439019999999914
        },
        {
          "name": "E1",
          "midi": 28,
          "time": 129.75586400000066,
          "velocity": 1,
          "duration": 0.2439019999999914
        },
        {
          "name": "F#1",
          "midi": 30,
          "time": 129.99976600000065,
          "velocity": 1,
          "duration": 0.2439019999999914
        },
        {
          "name": "G1",
          "midi": 31,
          "time": 130.24366800000064,
          "velocity": 1,
          "duration": 0.2439019999999914
        },
        {
          "name": "F#1",
          "midi": 30,
          "time": 130.48757000000063,
          "velocity": 1,
          "duration": 0.2439019999999914
        },
        {
          "name": "E1",
          "midi": 28,
          "time": 130.73147200000062,
          "velocity": 1,
          "duration": 0.48780400000001123
        },
        {
          "name": "E1",
          "midi": 28,
          "time": 131.21927600000063,
          "velocity": 1,
          "duration": 0.2439019999999914
        },
        {
          "name": "E1",
          "midi": 28,
          "time": 131.46317800000062,
          "velocity": 1,
          "duration": 0.2439019999999914
        },
        {
          "name": "E1",
          "midi": 28,
          "time": 131.70708000000062,
          "velocity": 1,
          "duration": 0.2439019999999914
        },
        {
          "name": "E1",
          "midi": 28,
          "time": 131.9509820000006,
          "velocity": 1,
          "duration": 0.2439019999999914
        },
        {
          "name": "E1",
          "midi": 28,
          "time": 132.1948840000006,
          "velocity": 1,
          "duration": 0.2439019999999914
        },
        {
          "name": "E1",
          "midi": 28,
          "time": 132.4387860000006,
          "velocity": 1,
          "duration": 0.2439019999999914
        },
        {
          "name": "F1",
          "midi": 29,
          "time": 132.68268800000058,
          "velocity": 1,
          "duration": 0.2439019999999914
        },
        {
          "name": "E1",
          "midi": 28,
          "time": 132.92659000000057,
          "velocity": 1,
          "duration": 0.2439019999999914
        },
        {
          "name": "E1",
          "midi": 28,
          "time": 133.17049200000056,
          "velocity": 1,
          "duration": 0.2439019999999914
        },
        {
          "name": "E1",
          "midi": 28,
          "time": 133.41439400000056,
          "velocity": 1,
          "duration": 0.2439019999999914
        },
        {
          "name": "E1",
          "midi": 28,
          "time": 133.65829600000055,
          "velocity": 1,
          "duration": 0.2439019999999914
        },
        {
          "name": "E1",
          "midi": 28,
          "time": 133.90219800000054,
          "velocity": 1,
          "duration": 0.2439019999999914
        },
        {
          "name": "G#1",
          "midi": 32,
          "time": 134.14610000000053,
          "velocity": 1,
          "duration": 0.2439019999999914
        },
        {
          "name": "E1",
          "midi": 28,
          "time": 134.39000200000052,
          "velocity": 1,
          "duration": 0.2439019999999914
        },
        {
          "name": "F1",
          "midi": 29,
          "time": 134.6339040000005,
          "velocity": 1,
          "duration": 0.2439019999999914
        },
        {
          "name": "E1",
          "midi": 28,
          "time": 134.8778060000005,
          "velocity": 1,
          "duration": 0.2439019999999914
        },
        {
          "name": "E1",
          "midi": 28,
          "time": 135.1217080000005,
          "velocity": 1,
          "duration": 0.2439019999999914
        },
        {
          "name": "E1",
          "midi": 28,
          "time": 135.3656100000005,
          "velocity": 1,
          "duration": 0.2439019999999914
        },
        {
          "name": "E1",
          "midi": 28,
          "time": 135.60951200000048,
          "velocity": 1,
          "duration": 0.2439019999999914
        },
        {
          "name": "E1",
          "midi": 28,
          "time": 135.85341400000047,
          "velocity": 1,
          "duration": 0.2439019999999914
        },
        {
          "name": "E1",
          "midi": 28,
          "time": 136.09731600000046,
          "velocity": 1,
          "duration": 0.2439019999999914
        },
        {
          "name": "E1",
          "midi": 28,
          "time": 136.34121800000045,
          "velocity": 1,
          "duration": 0.2439019999999914
        },
        {
          "name": "G1",
          "midi": 31,
          "time": 136.58512000000044,
          "velocity": 1,
          "duration": 0.48780400000001123
        },
        {
          "name": "E1",
          "midi": 28,
          "time": 137.07292400000046,
          "velocity": 1,
          "duration": 0.2439019999999914
        },
        {
          "name": "F#1",
          "midi": 30,
          "time": 137.31682600000045,
          "velocity": 1,
          "duration": 0.2439019999999914
        },
        {
          "name": "E1",
          "midi": 28,
          "time": 137.56072800000044,
          "velocity": 1,
          "duration": 0.2439019999999914
        },
        {
          "name": "F#1",
          "midi": 30,
          "time": 137.80463000000043,
          "velocity": 1,
          "duration": 0.2439019999999914
        },
        {
          "name": "G1",
          "midi": 31,
          "time": 138.04853200000042,
          "velocity": 1,
          "duration": 0.2439019999999914
        },
        {
          "name": "E1",
          "midi": 28,
          "time": 138.2924340000004,
          "velocity": 1,
          "duration": 0.2439019999999914
        },
        {
          "name": "F#1",
          "midi": 30,
          "time": 138.5363360000004,
          "velocity": 1,
          "duration": 1.2195100000000139
        },
        {
          "name": "B1",
          "midi": 35,
          "time": 139.75584600000042,
          "velocity": 1,
          "duration": 0.7317060000000026
        },
        {
          "name": "F#1",
          "midi": 30,
          "time": 140.48755200000042,
          "velocity": 1,
          "duration": 1.2195100000000139
        },
        {
          "name": "B1",
          "midi": 35,
          "time": 141.70706200000043,
          "velocity": 1,
          "duration": 0.7317060000000026
        },
        {
          "name": "F#1",
          "midi": 30,
          "time": 142.43876800000044,
          "velocity": 1,
          "duration": 1.2195100000000139
        },
        {
          "name": "B1",
          "midi": 35,
          "time": 143.65827800000045,
          "velocity": 1,
          "duration": 0.7317060000000026
        },
        {
          "name": "F#1",
          "midi": 30,
          "time": 144.38998400000045,
          "velocity": 1,
          "duration": 0.2439019999999914
        },
        {
          "name": "F#1",
          "midi": 30,
          "time": 144.63388600000044,
          "velocity": 1,
          "duration": 0.2439019999999914
        },
        {
          "name": "F#1",
          "midi": 30,
          "time": 144.87778800000044,
          "velocity": 1,
          "duration": 0.2439019999999914
        },
        {
          "name": "F#1",
          "midi": 30,
          "time": 145.12169000000043,
          "velocity": 1,
          "duration": 0.2439019999999914
        },
        {
          "name": "F#1",
          "midi": 30,
          "time": 145.36559200000042,
          "velocity": 1,
          "duration": 0.2439019999999914
        },
        {
          "name": "F#1",
          "midi": 30,
          "time": 145.6094940000004,
          "velocity": 1,
          "duration": 0.2439019999999914
        },
        {
          "name": "E1",
          "midi": 28,
          "time": 145.8533960000004,
          "velocity": 1,
          "duration": 0.2439019999999914
        },
        {
          "name": "E1",
          "midi": 28,
          "time": 146.0972980000004,
          "velocity": 1,
          "duration": 0.2439019999999914
        },
        {
          "name": "F1",
          "midi": 29,
          "time": 146.34120000000038,
          "velocity": 1,
          "duration": 0.2439019999999914
        },
        {
          "name": "F#1",
          "midi": 30,
          "time": 146.58510200000038,
          "velocity": 1,
          "duration": 0.2439019999999914
        },
        {
          "name": "F#1",
          "midi": 30,
          "time": 146.82900400000037,
          "velocity": 1,
          "duration": 0.2439019999999914
        },
        {
          "name": "F#1",
          "midi": 30,
          "time": 147.07290600000036,
          "velocity": 1,
          "duration": 0.2439019999999914
        },
        {
          "name": "C2",
          "midi": 36,
          "time": 147.31680800000035,
          "velocity": 1,
          "duration": 0.2439019999999914
        },
        {
          "name": "B1",
          "midi": 35,
          "time": 147.56071000000034,
          "velocity": 1,
          "duration": 0.2439019999999914
        },
        {
          "name": "B1",
          "midi": 35,
          "time": 147.80461200000033,
          "velocity": 1,
          "duration": 0.2439019999999914
        },
        {
          "name": "B1",
          "midi": 35,
          "time": 148.04851400000032,
          "velocity": 1,
          "duration": 0.2439019999999914
        },
        {
          "name": "F#1",
          "midi": 30,
          "time": 148.29241600000032,
          "velocity": 1,
          "duration": 0.48780400000001123
        },
        {
          "name": "F#1",
          "midi": 30,
          "time": 148.78022000000033,
          "velocity": 1,
          "duration": 0.2439019999999914
        },
        {
          "name": "F#1",
          "midi": 30,
          "time": 149.02412200000032,
          "velocity": 1,
          "duration": 0.2439019999999914
        },
        {
          "name": "C2",
          "midi": 36,
          "time": 149.2680240000003,
          "velocity": 1,
          "duration": 0.2439019999999914
        },
        {
          "name": "B1",
          "midi": 35,
          "time": 149.5119260000003,
          "velocity": 1,
          "duration": 0.2439019999999914
        },
        {
          "name": "B1",
          "midi": 35,
          "time": 149.7558280000003,
          "velocity": 1,
          "duration": 0.2439019999999914
        },
        {
          "name": "B1",
          "midi": 35,
          "time": 149.99973000000028,
          "velocity": 1,
          "duration": 0.2439019999999914
        },
        {
          "name": "F#1",
          "midi": 30,
          "time": 150.24363200000028,
          "velocity": 1,
          "duration": 0.2439019999999914
        },
        {
          "name": "F#1",
          "midi": 30,
          "time": 150.48753400000027,
          "velocity": 1,
          "duration": 0.2439019999999914
        },
        {
          "name": "F#1",
          "midi": 30,
          "time": 150.73143600000026,
          "velocity": 1,
          "duration": 0.2439019999999914
        },
        {
          "name": "F#1",
          "midi": 30,
          "time": 150.97533800000025,
          "velocity": 1,
          "duration": 0.2439019999999914
        },
        {
          "name": "C2",
          "midi": 36,
          "time": 151.21924000000024,
          "velocity": 1,
          "duration": 0.2439019999999914
        },
        {
          "name": "B1",
          "midi": 35,
          "time": 151.46314200000023,
          "velocity": 1,
          "duration": 0.2439019999999914
        },
        {
          "name": "B1",
          "midi": 35,
          "time": 151.70704400000022,
          "velocity": 1,
          "duration": 0.2439019999999914
        },
        {
          "name": "B1",
          "midi": 35,
          "time": 151.95094600000022,
          "velocity": 1,
          "duration": 0.2439019999999914
        },
        {
          "name": "E1",
          "midi": 28,
          "time": 152.1948480000002,
          "velocity": 1,
          "duration": 0.48780400000001123
        },
        {
          "name": "E2",
          "midi": 40,
          "time": 152.68265200000022,
          "velocity": 1,
          "duration": 0.2439019999999914
        },
        {
          "name": "D2",
          "midi": 38,
          "time": 152.9265540000002,
          "velocity": 1,
          "duration": 0.48780400000001123
        },
        {
          "name": "C2",
          "midi": 36,
          "time": 153.41435800000022,
          "velocity": 1,
          "duration": 0.2439019999999914
        },
        {
          "name": "B1",
          "midi": 35,
          "time": 153.6582600000002,
          "velocity": 1,
          "duration": 0.2439019999999914
        },
        {
          "name": "A1",
          "midi": 33,
          "time": 153.9021620000002,
          "velocity": 1,
          "duration": 0.2439019999999914
        },
        {
          "name": "G1",
          "midi": 31,
          "time": 154.1460640000002,
          "velocity": 1,
          "duration": 0.2439019999999914
        },
        {
          "name": "F#1",
          "midi": 30,
          "time": 154.3899660000002,
          "velocity": 1,
          "duration": 0.48780400000001123
        },
        {
          "name": "F#1",
          "midi": 30,
          "time": 154.8777700000002,
          "velocity": 1,
          "duration": 0.2439019999999914
        },
        {
          "name": "C2",
          "midi": 36,
          "time": 155.1216720000002,
          "velocity": 1,
          "duration": 0.2439019999999914
        },
        {
          "name": "B1",
          "midi": 35,
          "time": 155.36557400000018,
          "velocity": 1,
          "duration": 0.2439019999999914
        },
        {
          "name": "B1",
          "midi": 35,
          "time": 155.60947600000017,
          "velocity": 1,
          "duration": 0.2439019999999914
        },
        {
          "name": "B1",
          "midi": 35,
          "time": 155.85337800000016,
          "velocity": 1,
          "duration": 0.2439019999999914
        },
        {
          "name": "E1",
          "midi": 28,
          "time": 156.09728000000015,
          "velocity": 1,
          "duration": 0.2439019999999914
        },
        {
          "name": "E1",
          "midi": 28,
          "time": 156.34118200000015,
          "velocity": 1,
          "duration": 0.2439019999999914
        },
        {
          "name": "E1",
          "midi": 28,
          "time": 156.58508400000014,
          "velocity": 1,
          "duration": 0.2439019999999914
        },
        {
          "name": "F#1",
          "midi": 30,
          "time": 156.82898600000013,
          "velocity": 1,
          "duration": 0.2439019999999914
        },
        {
          "name": "E1",
          "midi": 28,
          "time": 157.07288800000012,
          "velocity": 1,
          "duration": 0.2439019999999914
        },
        {
          "name": "G1",
          "midi": 31,
          "time": 157.3167900000001,
          "velocity": 1,
          "duration": 0.2439019999999914
        },
        {
          "name": "E1",
          "midi": 28,
          "time": 157.5606920000001,
          "velocity": 1,
          "duration": 0.2439019999999914
        },
        {
          "name": "A1",
          "midi": 33,
          "time": 157.8045940000001,
          "velocity": 1,
          "duration": 0.2439019999999914
        },
        {
          "name": "E1",
          "midi": 28,
          "time": 158.04849600000009,
          "velocity": 1,
          "duration": 0.2439019999999914
        },
        {
          "name": "G1",
          "midi": 31,
          "time": 158.29239800000008,
          "velocity": 1,
          "duration": 0.2439019999999914
        },
        {
          "name": "E1",
          "midi": 28,
          "time": 159.99971200000007,
          "velocity": 1,
          "duration": 0.48780400000001123
        },
        {
          "name": "E1",
          "midi": 28,
          "time": 160.48751600000008,
          "velocity": 1,
          "duration": 0.2439019999999914
        },
        {
          "name": "E1",
          "midi": 28,
          "time": 160.73141800000008,
          "velocity": 1,
          "duration": 0.2439019999999914
        },
        {
          "name": "E1",
          "midi": 28,
          "time": 160.97532000000007,
          "velocity": 1,
          "duration": 0.2439019999999914
        },
        {
          "name": "E2",
          "midi": 40,
          "time": 161.21922200000006,
          "velocity": 1,
          "duration": 0.2439019999999914
        },
        {
          "name": "E1",
          "midi": 28,
          "time": 161.21922200000006,
          "velocity": 1,
          "duration": 0.2439019999999914
        },
        {
          "name": "E2",
          "midi": 40,
          "time": 161.46312400000005,
          "velocity": 1,
          "duration": 0.2439019999999914
        },
        {
          "name": "E1",
          "midi": 28,
          "time": 161.46312400000005,
          "velocity": 1,
          "duration": 0.2439019999999914
        },
        {
          "name": "E2",
          "midi": 40,
          "time": 161.70702600000004,
          "velocity": 1,
          "duration": 0.2439019999999914
        },
        {
          "name": "E1",
          "midi": 28,
          "time": 161.70702600000004,
          "velocity": 1,
          "duration": 0.2439019999999914
        },
        {
          "name": "E1",
          "midi": 28,
          "time": 161.95092800000003,
          "velocity": 1,
          "duration": 0.48780400000001123
        },
        {
          "name": "E1",
          "midi": 28,
          "time": 162.43873200000004,
          "velocity": 1,
          "duration": 0.2439019999999914
        },
        {
          "name": "E1",
          "midi": 28,
          "time": 162.68263400000004,
          "velocity": 1,
          "duration": 0.2439019999999914
        },
        {
          "name": "A#1",
          "midi": 34,
          "time": 162.92653600000003,
          "velocity": 1,
          "duration": 0.2439019999999914
        },
        {
          "name": "A1",
          "midi": 33,
          "time": 163.17043800000002,
          "velocity": 1,
          "duration": 0.2439019999999914
        },
        {
          "name": "A1",
          "midi": 33,
          "time": 163.41434,
          "velocity": 1,
          "duration": 0.2439019999999914
        },
        {
          "name": "E1",
          "midi": 28,
          "time": 163.658242,
          "velocity": 1,
          "duration": 0.2439019999999914
        },
        {
          "name": "E1",
          "midi": 28,
          "time": 163.902144,
          "velocity": 1,
          "duration": 0.48780400000001123
        },
        {
          "name": "E1",
          "midi": 28,
          "time": 164.389948,
          "velocity": 1,
          "duration": 0.2439019999999914
        },
        {
          "name": "E1",
          "midi": 28,
          "time": 164.63385,
          "velocity": 1,
          "duration": 0.2439019999999914
        },
        {
          "name": "A#1",
          "midi": 34,
          "time": 164.877752,
          "velocity": 1,
          "duration": 0.2439019999999914
        },
        {
          "name": "A1",
          "midi": 33,
          "time": 165.12165399999998,
          "velocity": 1,
          "duration": 0.2439019999999914
        },
        {
          "name": "A1",
          "midi": 33,
          "time": 165.36555599999997,
          "velocity": 1,
          "duration": 0.2439019999999914
        },
        {
          "name": "E1",
          "midi": 28,
          "time": 165.60945799999996,
          "velocity": 1,
          "duration": 0.2439019999999914
        },
        {
          "name": "E1",
          "midi": 28,
          "time": 165.85335999999995,
          "velocity": 1,
          "duration": 0.48780400000001123
        },
        {
          "name": "E1",
          "midi": 28,
          "time": 166.34116399999996,
          "velocity": 1,
          "duration": 0.2439019999999914
        },
        {
          "name": "E1",
          "midi": 28,
          "time": 166.58506599999996,
          "velocity": 1,
          "duration": 0.2439019999999914
        },
        {
          "name": "A#1",
          "midi": 34,
          "time": 166.82896799999995,
          "velocity": 1,
          "duration": 0.2439019999999914
        },
        {
          "name": "A1",
          "midi": 33,
          "time": 167.07286999999994,
          "velocity": 1,
          "duration": 0.48780400000001123
        },
        {
          "name": "E1",
          "midi": 28,
          "time": 167.56067399999995,
          "velocity": 1,
          "duration": 0.2439019999999914
        },
        {
          "name": "G1",
          "midi": 31,
          "time": 167.80457599999994,
          "velocity": 1,
          "duration": 0.48780400000001123
        },
        {
          "name": "E1",
          "midi": 28,
          "time": 168.29237999999995,
          "velocity": 1,
          "duration": 0.2439019999999914
        },
        {
          "name": "F#1",
          "midi": 30,
          "time": 168.53628199999994,
          "velocity": 1,
          "duration": 0.2439019999999914
        },
        {
          "name": "E1",
          "midi": 28,
          "time": 168.78018399999993,
          "velocity": 1,
          "duration": 0.2439019999999914
        },
        {
          "name": "F#1",
          "midi": 30,
          "time": 169.02408599999993,
          "velocity": 1,
          "duration": 0.2439019999999914
        },
        {
          "name": "G1",
          "midi": 31,
          "time": 169.26798799999992,
          "velocity": 1,
          "duration": 0.2439019999999914
        },
        {
          "name": "F#1",
          "midi": 30,
          "time": 169.5118899999999,
          "velocity": 1,
          "duration": 0.2439019999999914
        },
        {
          "name": "E1",
          "midi": 28,
          "time": 169.7557919999999,
          "velocity": 1,
          "duration": 0.48780400000001123
        },
        {
          "name": "E1",
          "midi": 28,
          "time": 170.2435959999999,
          "velocity": 1,
          "duration": 0.2439019999999914
        },
        {
          "name": "E1",
          "midi": 28,
          "time": 170.4874979999999,
          "velocity": 1,
          "duration": 0.2439019999999914
        },
        {
          "name": "A#1",
          "midi": 34,
          "time": 170.7313999999999,
          "velocity": 1,
          "duration": 0.2439019999999914
        },
        {
          "name": "A1",
          "midi": 33,
          "time": 170.97530199999989,
          "velocity": 1,
          "duration": 0.2439019999999914
        },
        {
          "name": "A1",
          "midi": 33,
          "time": 171.21920399999988,
          "velocity": 1,
          "duration": 0.2439019999999914
        },
        {
          "name": "E1",
          "midi": 28,
          "time": 171.46310599999987,
          "velocity": 1,
          "duration": 0.2439019999999914
        },
        {
          "name": "E1",
          "midi": 28,
          "time": 171.70700799999986,
          "velocity": 1,
          "duration": 0.48780400000001123
        },
        {
          "name": "E1",
          "midi": 28,
          "time": 172.19481199999987,
          "velocity": 1,
          "duration": 0.2439019999999914
        },
        {
          "name": "E1",
          "midi": 28,
          "time": 172.43871399999986,
          "velocity": 1,
          "duration": 0.2439019999999914
        },
        {
          "name": "A#1",
          "midi": 34,
          "time": 172.68261599999985,
          "velocity": 1,
          "duration": 0.2439019999999914
        },
        {
          "name": "A1",
          "midi": 33,
          "time": 172.92651799999985,
          "velocity": 1,
          "duration": 0.2439019999999914
        },
        {
          "name": "A1",
          "midi": 33,
          "time": 173.17041999999984,
          "velocity": 1,
          "duration": 0.2439019999999914
        },
        {
          "name": "E1",
          "midi": 28,
          "time": 173.41432199999983,
          "velocity": 1,
          "duration": 0.2439019999999914
        },
        {
          "name": "E1",
          "midi": 28,
          "time": 173.65822399999982,
          "velocity": 1,
          "duration": 0.48780400000001123
        },
        {
          "name": "E1",
          "midi": 28,
          "time": 174.14602799999983,
          "velocity": 1,
          "duration": 0.2439019999999914
        },
        {
          "name": "E1",
          "midi": 28,
          "time": 174.38992999999982,
          "velocity": 1,
          "duration": 0.2439019999999914
        },
        {
          "name": "A#1",
          "midi": 34,
          "time": 174.6338319999998,
          "velocity": 1,
          "duration": 0.2439019999999914
        },
        {
          "name": "A1",
          "midi": 33,
          "time": 174.8777339999998,
          "velocity": 1,
          "duration": 0.48780400000001123
        },
        {
          "name": "E1",
          "midi": 28,
          "time": 175.36553799999982,
          "velocity": 1,
          "duration": 0.2439019999999914
        },
        {
          "name": "G1",
          "midi": 31,
          "time": 175.6094399999998,
          "velocity": 1,
          "duration": 0.48780400000001123
        },
        {
          "name": "E1",
          "midi": 28,
          "time": 176.09724399999982,
          "velocity": 1,
          "duration": 0.2439019999999914
        },
        {
          "name": "F#1",
          "midi": 30,
          "time": 176.3411459999998,
          "velocity": 1,
          "duration": 0.2439019999999914
        },
        {
          "name": "E1",
          "midi": 28,
          "time": 176.5850479999998,
          "velocity": 1,
          "duration": 0.2439019999999914
        },
        {
          "name": "F#1",
          "midi": 30,
          "time": 176.8289499999998,
          "velocity": 1,
          "duration": 0.2439019999999914
        },
        {
          "name": "G1",
          "midi": 31,
          "time": 177.07285199999978,
          "velocity": 1,
          "duration": 0.2439019999999914
        },
        {
          "name": "E1",
          "midi": 28,
          "time": 177.31675399999978,
          "velocity": 1,
          "duration": 0.2439019999999914
        },
        {
          "name": "F#1",
          "midi": 30,
          "time": 177.56065599999977,
          "velocity": 1,
          "duration": 1.2195100000000139
        },
        {
          "name": "B1",
          "midi": 35,
          "time": 178.78016599999978,
          "velocity": 1,
          "duration": 0.7317060000000026
        },
        {
          "name": "F#1",
          "midi": 30,
          "time": 179.51187199999978,
          "velocity": 1,
          "duration": 1.2195100000000139
        },
        {
          "name": "B1",
          "midi": 35,
          "time": 180.7313819999998,
          "velocity": 1,
          "duration": 0.7317060000000026
        },
        {
          "name": "F#1",
          "midi": 30,
          "time": 181.4630879999998,
          "velocity": 1,
          "duration": 1.2195100000000139
        },
        {
          "name": "B1",
          "midi": 35,
          "time": 182.6825979999998,
          "velocity": 1,
          "duration": 0.7317060000000026
        },
        {
          "name": "F#1",
          "midi": 30,
          "time": 183.41430399999982,
          "velocity": 1,
          "duration": 0.2439019999999914
        },
        {
          "name": "F#1",
          "midi": 30,
          "time": 183.6582059999998,
          "velocity": 1,
          "duration": 0.2439019999999914
        },
        {
          "name": "F#1",
          "midi": 30,
          "time": 183.9021079999998,
          "velocity": 1,
          "duration": 0.2439019999999914
        },
        {
          "name": "F#1",
          "midi": 30,
          "time": 184.1460099999998,
          "velocity": 1,
          "duration": 0.2439019999999914
        },
        {
          "name": "F#1",
          "midi": 30,
          "time": 184.38991199999978,
          "velocity": 1,
          "duration": 0.2439019999999914
        },
        {
          "name": "F#1",
          "midi": 30,
          "time": 184.63381399999977,
          "velocity": 1,
          "duration": 0.2439019999999914
        },
        {
          "name": "E1",
          "midi": 28,
          "time": 184.87771599999977,
          "velocity": 1,
          "duration": 0.2439019999999914
        },
        {
          "name": "E1",
          "midi": 28,
          "time": 185.12161799999976,
          "velocity": 1,
          "duration": 0.2439019999999914
        },
        {
          "name": "F1",
          "midi": 29,
          "time": 185.36551999999975,
          "velocity": 1,
          "duration": 0.2439019999999914
        },
        {
          "name": "F#1",
          "midi": 30,
          "time": 185.60942199999974,
          "velocity": 1,
          "duration": 0.2439019999999914
        },
        {
          "name": "F#1",
          "midi": 30,
          "time": 185.85332399999973,
          "velocity": 1,
          "duration": 0.2439019999999914
        },
        {
          "name": "F#1",
          "midi": 30,
          "time": 186.09722599999972,
          "velocity": 1,
          "duration": 0.2439019999999914
        },
        {
          "name": "C2",
          "midi": 36,
          "time": 186.3411279999997,
          "velocity": 1,
          "duration": 0.2439019999999914
        },
        {
          "name": "B1",
          "midi": 35,
          "time": 186.5850299999997,
          "velocity": 1,
          "duration": 0.2439019999999914
        },
        {
          "name": "B1",
          "midi": 35,
          "time": 186.8289319999997,
          "velocity": 1,
          "duration": 0.2439019999999914
        },
        {
          "name": "B1",
          "midi": 35,
          "time": 187.0728339999997,
          "velocity": 1,
          "duration": 0.2439019999999914
        },
        {
          "name": "F#1",
          "midi": 30,
          "time": 187.31673599999968,
          "velocity": 1,
          "duration": 0.48780400000001123
        },
        {
          "name": "F#1",
          "midi": 30,
          "time": 187.8045399999997,
          "velocity": 1,
          "duration": 0.2439019999999914
        },
        {
          "name": "F#1",
          "midi": 30,
          "time": 188.04844199999968,
          "velocity": 1,
          "duration": 0.2439019999999914
        },
        {
          "name": "C2",
          "midi": 36,
          "time": 188.29234399999967,
          "velocity": 1,
          "duration": 0.2439019999999914
        },
        {
          "name": "B1",
          "midi": 35,
          "time": 188.53624599999966,
          "velocity": 1,
          "duration": 0.2439019999999914
        },
        {
          "name": "B1",
          "midi": 35,
          "time": 188.78014799999966,
          "velocity": 1,
          "duration": 0.2439019999999914
        },
        {
          "name": "B1",
          "midi": 35,
          "time": 189.02404999999965,
          "velocity": 1,
          "duration": 0.2439019999999914
        },
        {
          "name": "F#1",
          "midi": 30,
          "time": 189.26795199999964,
          "velocity": 1,
          "duration": 0.2439019999999914
        },
        {
          "name": "F#1",
          "midi": 30,
          "time": 189.51185399999963,
          "velocity": 1,
          "duration": 0.2439019999999914
        },
        {
          "name": "F#1",
          "midi": 30,
          "time": 189.75575599999962,
          "velocity": 1,
          "duration": 0.2439019999999914
        },
        {
          "name": "F#1",
          "midi": 30,
          "time": 189.9996579999996,
          "velocity": 1,
          "duration": 0.2439019999999914
        },
        {
          "name": "C2",
          "midi": 36,
          "time": 190.2435599999996,
          "velocity": 1,
          "duration": 0.2439019999999914
        },
        {
          "name": "B1",
          "midi": 35,
          "time": 190.4874619999996,
          "velocity": 1,
          "duration": 0.2439019999999914
        },
        {
          "name": "B1",
          "midi": 35,
          "time": 190.7313639999996,
          "velocity": 1,
          "duration": 0.2439019999999914
        },
        {
          "name": "B1",
          "midi": 35,
          "time": 190.97526599999958,
          "velocity": 1,
          "duration": 0.2439019999999914
        },
        {
          "name": "E1",
          "midi": 28,
          "time": 191.21916799999957,
          "velocity": 1,
          "duration": 0.48780400000001123
        },
        {
          "name": "E2",
          "midi": 40,
          "time": 191.70697199999958,
          "velocity": 1,
          "duration": 0.2439019999999914
        },
        {
          "name": "D2",
          "midi": 38,
          "time": 191.95087399999957,
          "velocity": 1,
          "duration": 0.48780400000001123
        },
        {
          "name": "C2",
          "midi": 36,
          "time": 192.43867799999958,
          "velocity": 1,
          "duration": 0.2439019999999914
        },
        {
          "name": "B1",
          "midi": 35,
          "time": 192.68257999999958,
          "velocity": 1,
          "duration": 0.2439019999999914
        },
        {
          "name": "A1",
          "midi": 33,
          "time": 192.92648199999957,
          "velocity": 1,
          "duration": 0.2439019999999914
        },
        {
          "name": "G1",
          "midi": 31,
          "time": 193.17038399999956,
          "velocity": 1,
          "duration": 0.2439019999999914
        },
        {
          "name": "F#1",
          "midi": 30,
          "time": 193.41428599999955,
          "velocity": 1,
          "duration": 0.48780400000001123
        },
        {
          "name": "F#1",
          "midi": 30,
          "time": 193.90208999999956,
          "velocity": 1,
          "duration": 0.2439019999999914
        },
        {
          "name": "C2",
          "midi": 36,
          "time": 194.14599199999955,
          "velocity": 1,
          "duration": 0.2439019999999914
        },
        {
          "name": "B1",
          "midi": 35,
          "time": 194.38989399999954,
          "velocity": 1,
          "duration": 0.2439019999999914
        },
        {
          "name": "B1",
          "midi": 35,
          "time": 194.63379599999953,
          "velocity": 1,
          "duration": 0.2439019999999914
        },
        {
          "name": "B1",
          "midi": 35,
          "time": 194.87769799999953,
          "velocity": 1,
          "duration": 0.2439019999999914
        },
        {
          "name": "E1",
          "midi": 28,
          "time": 195.12159999999952,
          "velocity": 1,
          "duration": 0.2439019999999914
        },
        {
          "name": "E1",
          "midi": 28,
          "time": 195.3655019999995,
          "velocity": 1,
          "duration": 0.2439019999999914
        },
        {
          "name": "E1",
          "midi": 28,
          "time": 195.6094039999995,
          "velocity": 1,
          "duration": 0.2439019999999914
        },
        {
          "name": "F#1",
          "midi": 30,
          "time": 195.8533059999995,
          "velocity": 1,
          "duration": 0.2439019999999914
        },
        {
          "name": "E1",
          "midi": 28,
          "time": 196.09720799999948,
          "velocity": 1,
          "duration": 0.2439019999999914
        },
        {
          "name": "G1",
          "midi": 31,
          "time": 196.34110999999947,
          "velocity": 1,
          "duration": 0.2439019999999914
        },
        {
          "name": "E1",
          "midi": 28,
          "time": 196.58501199999947,
          "velocity": 1,
          "duration": 0.2439019999999914
        },
        {
          "name": "A1",
          "midi": 33,
          "time": 196.82891399999946,
          "velocity": 1,
          "duration": 0.2439019999999914
        },
        {
          "name": "E1",
          "midi": 28,
          "time": 197.07281599999945,
          "velocity": 1,
          "duration": 0.2439019999999914
        },
        {
          "name": "A1",
          "midi": 33,
          "time": 197.31671799999944,
          "velocity": 1,
          "duration": 0.2439019999999914
        },
        {
          "name": "E1",
          "midi": 28,
          "time": 199.26793399999943,
          "velocity": 1,
          "duration": 0.2439019999999914
        },
        {
          "name": "E1",
          "midi": 28,
          "time": 199.51183599999942,
          "velocity": 1,
          "duration": 0.2439019999999914
        },
        {
          "name": "E1",
          "midi": 28,
          "time": 199.7557379999994,
          "velocity": 1,
          "duration": 0.2439019999999914
        },
        {
          "name": "E1",
          "midi": 28,
          "time": 199.9996399999994,
          "velocity": 1,
          "duration": 0.2439019999999914
        },
        {
          "name": "E1",
          "midi": 28,
          "time": 200.2435419999994,
          "velocity": 1,
          "duration": 0.2439019999999914
        },
        {
          "name": "E1",
          "midi": 28,
          "time": 200.48744399999939,
          "velocity": 1,
          "duration": 0.2439019999999914
        },
        {
          "name": "E1",
          "midi": 28,
          "time": 200.73134599999938,
          "velocity": 1,
          "duration": 0.2439019999999914
        },
        {
          "name": "F1",
          "midi": 29,
          "time": 200.97524799999937,
          "velocity": 1,
          "duration": 0.2439019999999914
        },
        {
          "name": "E1",
          "midi": 28,
          "time": 201.21914999999936,
          "velocity": 1,
          "duration": 0.2439019999999914
        },
        {
          "name": "E1",
          "midi": 28,
          "time": 201.46305199999935,
          "velocity": 1,
          "duration": 0.2439019999999914
        },
        {
          "name": "E1",
          "midi": 28,
          "time": 201.70695399999934,
          "velocity": 1,
          "duration": 0.2439019999999914
        },
        {
          "name": "E1",
          "midi": 28,
          "time": 201.95085599999933,
          "velocity": 1,
          "duration": 0.2439019999999914
        },
        {
          "name": "E1",
          "midi": 28,
          "time": 202.19475799999933,
          "velocity": 1,
          "duration": 0.2439019999999914
        },
        {
          "name": "E1",
          "midi": 28,
          "time": 202.43865999999932,
          "velocity": 1,
          "duration": 0.2439019999999914
        },
        {
          "name": "E1",
          "midi": 28,
          "time": 202.6825619999993,
          "velocity": 1,
          "duration": 0.2439019999999914
        },
        {
          "name": "F1",
          "midi": 29,
          "time": 202.9264639999993,
          "velocity": 1,
          "duration": 0.2439019999999914
        },
        {
          "name": "E1",
          "midi": 28,
          "time": 203.1703659999993,
          "velocity": 1,
          "duration": 0.2439019999999914
        },
        {
          "name": "E1",
          "midi": 28,
          "time": 203.41426799999928,
          "velocity": 1,
          "duration": 0.2439019999999914
        },
        {
          "name": "E1",
          "midi": 28,
          "time": 203.65816999999927,
          "velocity": 1,
          "duration": 0.2439019999999914
        },
        {
          "name": "E1",
          "midi": 28,
          "time": 203.90207199999927,
          "velocity": 1,
          "duration": 0.2439019999999914
        },
        {
          "name": "E1",
          "midi": 28,
          "time": 204.14597399999926,
          "velocity": 1,
          "duration": 0.2439019999999914
        },
        {
          "name": "E1",
          "midi": 28,
          "time": 204.38987599999925,
          "velocity": 1,
          "duration": 0.2439019999999914
        },
        {
          "name": "E1",
          "midi": 28,
          "time": 204.63377799999924,
          "velocity": 1,
          "duration": 0.2439019999999914
        },
        {
          "name": "F1",
          "midi": 29,
          "time": 204.87767999999923,
          "velocity": 1,
          "duration": 0.2439019999999914
        },
        {
          "name": "E1",
          "midi": 28,
          "time": 205.12158199999922,
          "velocity": 1,
          "duration": 0.2439019999999914
        },
        {
          "name": "E1",
          "midi": 28,
          "time": 205.3654839999992,
          "velocity": 1,
          "duration": 0.2439019999999914
        },
        {
          "name": "E1",
          "midi": 28,
          "time": 205.6093859999992,
          "velocity": 1,
          "duration": 0.2439019999999914
        },
        {
          "name": "E1",
          "midi": 28,
          "time": 205.8532879999992,
          "velocity": 1,
          "duration": 0.2439019999999914
        },
        {
          "name": "E1",
          "midi": 28,
          "time": 206.0971899999992,
          "velocity": 1,
          "duration": 0.2439019999999914
        },
        {
          "name": "E1",
          "midi": 28,
          "time": 206.34109199999918,
          "velocity": 1,
          "duration": 0.2439019999999914
        },
        {
          "name": "E1",
          "midi": 28,
          "time": 206.58499399999917,
          "velocity": 1,
          "duration": 0.2439019999999914
        },
        {
          "name": "F1",
          "midi": 29,
          "time": 206.82889599999916,
          "velocity": 1,
          "duration": 0.2439019999999914
        },
        {
          "name": "E1",
          "midi": 28,
          "time": 207.07279799999915,
          "velocity": 1,
          "duration": 0.2439019999999914
        },
        {
          "name": "E1",
          "midi": 28,
          "time": 207.31669999999914,
          "velocity": 1,
          "duration": 0.2439019999999914
        },
        {
          "name": "E1",
          "midi": 28,
          "time": 207.56060199999914,
          "velocity": 1,
          "duration": 0.2439019999999914
        },
        {
          "name": "E1",
          "midi": 28,
          "time": 207.80450399999913,
          "velocity": 1,
          "duration": 0.2439019999999914
        },
        {
          "name": "E1",
          "midi": 28,
          "time": 208.04840599999912,
          "velocity": 1,
          "duration": 0.2439019999999914
        },
        {
          "name": "E1",
          "midi": 28,
          "time": 208.2923079999991,
          "velocity": 1,
          "duration": 0.2439019999999914
        },
        {
          "name": "E1",
          "midi": 28,
          "time": 208.5362099999991,
          "velocity": 1,
          "duration": 0.2439019999999914
        },
        {
          "name": "F1",
          "midi": 29,
          "time": 208.7801119999991,
          "velocity": 1,
          "duration": 0.2439019999999914
        },
        {
          "name": "E1",
          "midi": 28,
          "time": 209.02401399999908,
          "velocity": 1,
          "duration": 0.2439019999999914
        },
        {
          "name": "E1",
          "midi": 28,
          "time": 209.26791599999908,
          "velocity": 1,
          "duration": 0.2439019999999914
        },
        {
          "name": "E1",
          "midi": 28,
          "time": 209.51181799999907,
          "velocity": 1,
          "duration": 0.2439019999999914
        },
        {
          "name": "E1",
          "midi": 28,
          "time": 209.75571999999906,
          "velocity": 1,
          "duration": 0.2439019999999914
        },
        {
          "name": "E1",
          "midi": 28,
          "time": 209.99962199999905,
          "velocity": 1,
          "duration": 0.2439019999999914
        },
        {
          "name": "E1",
          "midi": 28,
          "time": 210.24352399999904,
          "velocity": 1,
          "duration": 0.2439019999999914
        },
        {
          "name": "E1",
          "midi": 28,
          "time": 210.48742599999903,
          "velocity": 1,
          "duration": 0.2439019999999914
        },
        {
          "name": "F1",
          "midi": 29,
          "time": 210.73132799999902,
          "velocity": 1,
          "duration": 0.2439019999999914
        },
        {
          "name": "E1",
          "midi": 28,
          "time": 210.97522999999902,
          "velocity": 1,
          "duration": 0.2439019999999914
        },
        {
          "name": "E1",
          "midi": 28,
          "time": 211.219131999999,
          "velocity": 1,
          "duration": 0.2439019999999914
        },
        {
          "name": "E1",
          "midi": 28,
          "time": 211.463033999999,
          "velocity": 1,
          "duration": 0.2439019999999914
        },
        {
          "name": "E1",
          "midi": 28,
          "time": 211.706935999999,
          "velocity": 1,
          "duration": 0.2439019999999914
        },
        {
          "name": "E1",
          "midi": 28,
          "time": 211.95083799999898,
          "velocity": 1,
          "duration": 0.2439019999999914
        },
        {
          "name": "E1",
          "midi": 28,
          "time": 212.19473999999897,
          "velocity": 1,
          "duration": 0.2439019999999914
        },
        {
          "name": "E1",
          "midi": 28,
          "time": 212.43864199999896,
          "velocity": 1,
          "duration": 0.2439019999999914
        },
        {
          "name": "F1",
          "midi": 29,
          "time": 212.68254399999896,
          "velocity": 1,
          "duration": 0.2439019999999914
        },
        {
          "name": "E1",
          "midi": 28,
          "time": 212.92644599999895,
          "velocity": 1,
          "duration": 0.2439019999999914
        },
        {
          "name": "E1",
          "midi": 28,
          "time": 213.17034799999894,
          "velocity": 1,
          "duration": 0.2439019999999914
        },
        {
          "name": "E1",
          "midi": 28,
          "time": 213.41424999999893,
          "velocity": 1,
          "duration": 0.2439019999999914
        },
        {
          "name": "E1",
          "midi": 28,
          "time": 213.65815199999892,
          "velocity": 1,
          "duration": 0.2439019999999914
        },
        {
          "name": "E1",
          "midi": 28,
          "time": 213.9020539999989,
          "velocity": 1,
          "duration": 0.2439019999999914
        },
        {
          "name": "E1",
          "midi": 28,
          "time": 214.1459559999989,
          "velocity": 1,
          "duration": 0.2439019999999914
        },
        {
          "name": "E1",
          "midi": 28,
          "time": 214.3898579999989,
          "velocity": 1,
          "duration": 0.2439019999999914
        },
        {
          "name": "F1",
          "midi": 29,
          "time": 214.6337599999989,
          "velocity": 1,
          "duration": 0.2439019999999914
        },
        {
          "name": "E1",
          "midi": 28,
          "time": 214.87766199999888,
          "velocity": 1,
          "duration": 0.2439019999999914
        },
        {
          "name": "E1",
          "midi": 28,
          "time": 215.12156399999887,
          "velocity": 1,
          "duration": 0.2439019999999914
        },
        {
          "name": "E1",
          "midi": 28,
          "time": 215.36546599999886,
          "velocity": 1,
          "duration": 0.2439019999999914
        },
        {
          "name": "E1",
          "midi": 28,
          "time": 215.60936799999885,
          "velocity": 1,
          "duration": 0.2439019999999914
        },
        {
          "name": "E1",
          "midi": 28,
          "time": 215.85326999999884,
          "velocity": 1,
          "duration": 0.2439019999999914
        },
        {
          "name": "E1",
          "midi": 28,
          "time": 216.09717199999884,
          "velocity": 1,
          "duration": 0.2439019999999914
        },
        {
          "name": "E1",
          "midi": 28,
          "time": 216.34107399999883,
          "velocity": 1,
          "duration": 0.2439019999999914
        },
        {
          "name": "F1",
          "midi": 29,
          "time": 216.58497599999882,
          "velocity": 1,
          "duration": 0.2439019999999914
        },
        {
          "name": "E1",
          "midi": 28,
          "time": 216.8288779999988,
          "velocity": 1,
          "duration": 0.2439019999999914
        },
        {
          "name": "E1",
          "midi": 28,
          "time": 217.0727799999988,
          "velocity": 1,
          "duration": 0.2439019999999914
        },
        {
          "name": "E1",
          "midi": 28,
          "time": 217.3166819999988,
          "velocity": 1,
          "duration": 0.2439019999999914
        },
        {
          "name": "E1",
          "midi": 28,
          "time": 217.56058399999878,
          "velocity": 1,
          "duration": 0.2439019999999914
        },
        {
          "name": "E1",
          "midi": 28,
          "time": 217.80448599999878,
          "velocity": 1,
          "duration": 0.2439019999999914
        },
        {
          "name": "E1",
          "midi": 28,
          "time": 218.04838799999877,
          "velocity": 1,
          "duration": 0.2439019999999914
        },
        {
          "name": "E1",
          "midi": 28,
          "time": 218.29228999999876,
          "velocity": 1,
          "duration": 0.2439019999999914
        },
        {
          "name": "F1",
          "midi": 29,
          "time": 218.53619199999875,
          "velocity": 1,
          "duration": 0.2439019999999914
        },
        {
          "name": "E1",
          "midi": 28,
          "time": 218.78009399999874,
          "velocity": 1,
          "duration": 0.2439019999999914
        },
        {
          "name": "E1",
          "midi": 28,
          "time": 219.02399599999873,
          "velocity": 1,
          "duration": 0.2439019999999914
        },
        {
          "name": "E1",
          "midi": 28,
          "time": 219.26789799999872,
          "velocity": 1,
          "duration": 0.2439019999999914
        },
        {
          "name": "E1",
          "midi": 28,
          "time": 219.51179999999871,
          "velocity": 1,
          "duration": 0.2439019999999914
        },
        {
          "name": "E1",
          "midi": 28,
          "time": 219.7557019999987,
          "velocity": 1,
          "duration": 0.2439019999999914
        },
        {
          "name": "E1",
          "midi": 28,
          "time": 219.9996039999987,
          "velocity": 1,
          "duration": 0.2439019999999914
        },
        {
          "name": "E1",
          "midi": 28,
          "time": 220.2435059999987,
          "velocity": 1,
          "duration": 0.2439019999999914
        },
        {
          "name": "F1",
          "midi": 29,
          "time": 220.48740799999868,
          "velocity": 1,
          "duration": 0.2439019999999914
        },
        {
          "name": "E1",
          "midi": 28,
          "time": 220.73130999999867,
          "velocity": 1,
          "duration": 0.2439019999999914
        },
        {
          "name": "E1",
          "midi": 28,
          "time": 220.97521199999866,
          "velocity": 1,
          "duration": 0.2439019999999914
        },
        {
          "name": "E1",
          "midi": 28,
          "time": 221.21911399999865,
          "velocity": 1,
          "duration": 0.2439019999999914
        },
        {
          "name": "E1",
          "midi": 28,
          "time": 221.46301599999865,
          "velocity": 1,
          "duration": 0.2439019999999914
        },
        {
          "name": "E1",
          "midi": 28,
          "time": 221.70691799999864,
          "velocity": 1,
          "duration": 0.2439019999999914
        },
        {
          "name": "E1",
          "midi": 28,
          "time": 221.95081999999863,
          "velocity": 1,
          "duration": 0.2439019999999914
        },
        {
          "name": "E1",
          "midi": 28,
          "time": 222.19472199999862,
          "velocity": 1,
          "duration": 0.2439019999999914
        },
        {
          "name": "F#1",
          "midi": 30,
          "time": 222.4386239999986,
          "velocity": 1,
          "duration": 0.2439019999999914
        },
        {
          "name": "F#1",
          "midi": 30,
          "time": 222.6825259999986,
          "velocity": 1,
          "duration": 0.2439019999999914
        },
        {
          "name": "F#1",
          "midi": 30,
          "time": 222.9264279999986,
          "velocity": 1,
          "duration": 0.2439019999999914
        },
        {
          "name": "F#1",
          "midi": 30,
          "time": 223.1703299999986,
          "velocity": 1,
          "duration": 0.2439019999999914
        },
        {
          "name": "F#1",
          "midi": 30,
          "time": 223.41423199999858,
          "velocity": 1,
          "duration": 0.2439019999999914
        },
        {
          "name": "F#1",
          "midi": 30,
          "time": 223.65813399999857,
          "velocity": 1,
          "duration": 0.2439019999999914
        },
        {
          "name": "F#1",
          "midi": 30,
          "time": 223.90203599999856,
          "velocity": 1,
          "duration": 0.2439019999999914
        },
        {
          "name": "F#1",
          "midi": 30,
          "time": 224.14593799999855,
          "velocity": 1,
          "duration": 0.2439019999999914
        },
        {
          "name": "F#1",
          "midi": 30,
          "time": 224.38983999999854,
          "velocity": 1,
          "duration": 0.2439019999999914
        },
        {
          "name": "F#1",
          "midi": 30,
          "time": 224.63374199999853,
          "velocity": 1,
          "duration": 0.2439019999999914
        },
        {
          "name": "F#1",
          "midi": 30,
          "time": 224.87764399999853,
          "velocity": 1,
          "duration": 0.2439019999999914
        },
        {
          "name": "F#1",
          "midi": 30,
          "time": 225.12154599999852,
          "velocity": 1,
          "duration": 0.2439019999999914
        },
        {
          "name": "F#1",
          "midi": 30,
          "time": 225.3654479999985,
          "velocity": 1,
          "duration": 0.2439019999999914
        },
        {
          "name": "F#1",
          "midi": 30,
          "time": 225.6093499999985,
          "velocity": 1,
          "duration": 0.2439019999999914
        },
        {
          "name": "F#1",
          "midi": 30,
          "time": 225.8532519999985,
          "velocity": 1,
          "duration": 0.2439019999999914
        },
        {
          "name": "F#1",
          "midi": 30,
          "time": 226.09715399999848,
          "velocity": 1,
          "duration": 0.2439019999999914
        },
        {
          "name": "G1",
          "midi": 31,
          "time": 226.34105599999847,
          "velocity": 1,
          "duration": 0.2439019999999914
        },
        {
          "name": "F#1",
          "midi": 30,
          "time": 226.58495799999847,
          "velocity": 1,
          "duration": 0.2439019999999914
        },
        {
          "name": "F#1",
          "midi": 30,
          "time": 226.82885999999846,
          "velocity": 1,
          "duration": 0.2439019999999914
        },
        {
          "name": "F#1",
          "midi": 30,
          "time": 227.07276199999845,
          "velocity": 1,
          "duration": 0.2439019999999914
        },
        {
          "name": "F#1",
          "midi": 30,
          "time": 227.31666399999844,
          "velocity": 1,
          "duration": 0.2439019999999914
        },
        {
          "name": "F#1",
          "midi": 30,
          "time": 227.56056599999843,
          "velocity": 1,
          "duration": 0.2439019999999914
        },
        {
          "name": "F#1",
          "midi": 30,
          "time": 227.80446799999842,
          "velocity": 1,
          "duration": 0.2439019999999914
        },
        {
          "name": "F#1",
          "midi": 30,
          "time": 228.0483699999984,
          "velocity": 1,
          "duration": 0.2439019999999914
        },
        {
          "name": "F#1",
          "midi": 30,
          "time": 228.2922719999984,
          "velocity": 1,
          "duration": 0.2439019999999914
        },
        {
          "name": "F#1",
          "midi": 30,
          "time": 228.5361739999984,
          "velocity": 1,
          "duration": 0.2439019999999914
        },
        {
          "name": "F#1",
          "midi": 30,
          "time": 228.7800759999984,
          "velocity": 1,
          "duration": 0.2439019999999914
        },
        {
          "name": "F#1",
          "midi": 30,
          "time": 229.02397799999838,
          "velocity": 1,
          "duration": 0.2439019999999914
        },
        {
          "name": "F#1",
          "midi": 30,
          "time": 229.26787999999837,
          "velocity": 1,
          "duration": 0.2439019999999914
        },
        {
          "name": "F#1",
          "midi": 30,
          "time": 229.51178199999836,
          "velocity": 1,
          "duration": 0.2439019999999914
        },
        {
          "name": "F#1",
          "midi": 30,
          "time": 229.75568399999835,
          "velocity": 1,
          "duration": 0.2439019999999914
        },
        {
          "name": "F#1",
          "midi": 30,
          "time": 229.99958599999835,
          "velocity": 1,
          "duration": 0.2439019999999914
        },
        {
          "name": "G1",
          "midi": 31,
          "time": 230.24348799999834,
          "velocity": 1,
          "duration": 0.2439019999999914
        },
        {
          "name": "F#1",
          "midi": 30,
          "time": 230.48738999999833,
          "velocity": 1,
          "duration": 0.2439019999999914
        },
        {
          "name": "F#1",
          "midi": 30,
          "time": 230.73129199999832,
          "velocity": 1,
          "duration": 0.2439019999999914
        },
        {
          "name": "F#1",
          "midi": 30,
          "time": 230.9751939999983,
          "velocity": 1,
          "duration": 0.2439019999999914
        },
        {
          "name": "F#1",
          "midi": 30,
          "time": 231.2190959999983,
          "velocity": 1,
          "duration": 0.2439019999999914
        },
        {
          "name": "F#1",
          "midi": 30,
          "time": 231.4629979999983,
          "velocity": 1,
          "duration": 0.2439019999999914
        },
        {
          "name": "F#1",
          "midi": 30,
          "time": 231.70689999999829,
          "velocity": 1,
          "duration": 0.2439019999999914
        },
        {
          "name": "F#1",
          "midi": 30,
          "time": 231.95080199999828,
          "velocity": 1,
          "duration": 0.2439019999999914
        },
        {
          "name": "F#1",
          "midi": 30,
          "time": 232.19470399999827,
          "velocity": 1,
          "duration": 0.2439019999999914
        },
        {
          "name": "F#1",
          "midi": 30,
          "time": 232.43860599999826,
          "velocity": 1,
          "duration": 0.2439019999999914
        },
        {
          "name": "F#1",
          "midi": 30,
          "time": 232.68250799999825,
          "velocity": 1,
          "duration": 0.2439019999999914
        },
        {
          "name": "F#1",
          "midi": 30,
          "time": 232.92640999999824,
          "velocity": 1,
          "duration": 0.2439019999999914
        },
        {
          "name": "F#1",
          "midi": 30,
          "time": 233.17031199999823,
          "velocity": 1,
          "duration": 0.2439019999999914
        },
        {
          "name": "F#1",
          "midi": 30,
          "time": 233.41421399999822,
          "velocity": 1,
          "duration": 0.2439019999999914
        },
        {
          "name": "F#1",
          "midi": 30,
          "time": 233.65811599999822,
          "velocity": 1,
          "duration": 0.2439019999999914
        },
        {
          "name": "F#1",
          "midi": 30,
          "time": 233.9020179999982,
          "velocity": 1,
          "duration": 0.2439019999999914
        },
        {
          "name": "G1",
          "midi": 31,
          "time": 234.1459199999982,
          "velocity": 1,
          "duration": 0.2439019999999914
        },
        {
          "name": "F#1",
          "midi": 30,
          "time": 234.3898219999982,
          "velocity": 1,
          "duration": 0.2439019999999914
        },
        {
          "name": "F#1",
          "midi": 30,
          "time": 234.63372399999818,
          "velocity": 1,
          "duration": 0.2439019999999914
        },
        {
          "name": "F#1",
          "midi": 30,
          "time": 234.87762599999817,
          "velocity": 1,
          "duration": 0.2439019999999914
        },
        {
          "name": "F#1",
          "midi": 30,
          "time": 235.12152799999816,
          "velocity": 1,
          "duration": 0.2439019999999914
        },
        {
          "name": "F#1",
          "midi": 30,
          "time": 235.36542999999816,
          "velocity": 1,
          "duration": 0.2439019999999914
        },
        {
          "name": "F#1",
          "midi": 30,
          "time": 235.60933199999815,
          "velocity": 1,
          "duration": 0.2439019999999914
        },
        {
          "name": "F#1",
          "midi": 30,
          "time": 235.85323399999814,
          "velocity": 1,
          "duration": 0.2439019999999914
        },
        {
          "name": "F#1",
          "midi": 30,
          "time": 236.09713599999813,
          "velocity": 1,
          "duration": 0.2439019999999914
        },
        {
          "name": "F#1",
          "midi": 30,
          "time": 236.34103799999812,
          "velocity": 1,
          "duration": 0.2439019999999914
        },
        {
          "name": "F#1",
          "midi": 30,
          "time": 236.5849399999981,
          "velocity": 1,
          "duration": 0.2439019999999914
        },
        {
          "name": "F#1",
          "midi": 30,
          "time": 236.8288419999981,
          "velocity": 1,
          "duration": 0.2439019999999914
        },
        {
          "name": "F#1",
          "midi": 30,
          "time": 237.0727439999981,
          "velocity": 1,
          "duration": 0.2439019999999914
        },
        {
          "name": "F#1",
          "midi": 30,
          "time": 237.3166459999981,
          "velocity": 1,
          "duration": 0.2439019999999914
        },
        {
          "name": "E1",
          "midi": 28,
          "time": 237.56054799999808,
          "velocity": 1,
          "duration": 0.2439019999999914
        },
        {
          "name": "E1",
          "midi": 28,
          "time": 237.80444999999807,
          "velocity": 1,
          "duration": 0.2439019999999914
        },
        {
          "name": "F1",
          "midi": 29,
          "time": 238.04835199999806,
          "velocity": 1,
          "duration": 0.2439019999999914
        },
        {
          "name": "F#1",
          "midi": 30,
          "time": 238.29225399999805,
          "velocity": 1,
          "duration": 0.48780400000001123
        },
        {
          "name": "F#1",
          "midi": 30,
          "time": 238.78005799999806,
          "velocity": 1,
          "duration": 0.2439019999999914
        },
        {
          "name": "C2",
          "midi": 36,
          "time": 239.02395999999806,
          "velocity": 1,
          "duration": 0.2439019999999914
        },
        {
          "name": "B1",
          "midi": 35,
          "time": 239.26786199999805,
          "velocity": 1,
          "duration": 0.2439019999999914
        },
        {
          "name": "B1",
          "midi": 35,
          "time": 239.51176399999804,
          "velocity": 1,
          "duration": 0.2439019999999914
        },
        {
          "name": "B1",
          "midi": 35,
          "time": 239.75566599999803,
          "velocity": 1,
          "duration": 0.2439019999999914
        },
        {
          "name": "F#1",
          "midi": 30,
          "time": 239.99956799999802,
          "velocity": 1,
          "duration": 0.48780400000001123
        },
        {
          "name": "F#1",
          "midi": 30,
          "time": 240.48737199999803,
          "velocity": 1,
          "duration": 0.2439019999999914
        },
        {
          "name": "F#1",
          "midi": 30,
          "time": 240.73127399999802,
          "velocity": 1,
          "duration": 0.2439019999999914
        },
        {
          "name": "C2",
          "midi": 36,
          "time": 240.97517599999802,
          "velocity": 1,
          "duration": 0.2439019999999914
        },
        {
          "name": "B1",
          "midi": 35,
          "time": 241.219077999998,
          "velocity": 1,
          "duration": 0.2439019999999914
        },
        {
          "name": "B1",
          "midi": 35,
          "time": 241.462979999998,
          "velocity": 1,
          "duration": 0.2439019999999914
        },
        {
          "name": "B1",
          "midi": 35,
          "time": 241.706881999998,
          "velocity": 1,
          "duration": 0.2439019999999914
        },
        {
          "name": "F#1",
          "midi": 30,
          "time": 241.95078399999798,
          "velocity": 1,
          "duration": 0.2439019999999914
        },
        {
          "name": "F#1",
          "midi": 30,
          "time": 242.19468599999797,
          "velocity": 1,
          "duration": 0.2439019999999914
        },
        {
          "name": "F#1",
          "midi": 30,
          "time": 242.43858799999796,
          "velocity": 1,
          "duration": 0.2439019999999914
        },
        {
          "name": "F#1",
          "midi": 30,
          "time": 242.68248999999796,
          "velocity": 1,
          "duration": 0.2439019999999914
        },
        {
          "name": "C2",
          "midi": 36,
          "time": 242.92639199999795,
          "velocity": 1,
          "duration": 0.2439019999999914
        },
        {
          "name": "B1",
          "midi": 35,
          "time": 243.17029399999794,
          "velocity": 1,
          "duration": 0.2439019999999914
        },
        {
          "name": "B1",
          "midi": 35,
          "time": 243.41419599999793,
          "velocity": 1,
          "duration": 0.2439019999999914
        },
        {
          "name": "B1",
          "midi": 35,
          "time": 243.65809799999792,
          "velocity": 1,
          "duration": 0.2439019999999914
        },
        {
          "name": "E1",
          "midi": 28,
          "time": 243.9019999999979,
          "velocity": 1,
          "duration": 0.48780400000001123
        },
        {
          "name": "E2",
          "midi": 40,
          "time": 244.38980399999792,
          "velocity": 1,
          "duration": 0.2439019999999914
        },
        {
          "name": "E1",
          "midi": 28,
          "time": 244.63370599999791,
          "velocity": 1,
          "duration": 0.2439019999999914
        },
        {
          "name": "D2",
          "midi": 38,
          "time": 244.8776079999979,
          "velocity": 1,
          "duration": 0.2439019999999914
        },
        {
          "name": "E1",
          "midi": 28,
          "time": 245.1215099999979,
          "velocity": 1,
          "duration": 0.2439019999999914
        },
        {
          "name": "B1",
          "midi": 35,
          "time": 245.3654119999979,
          "velocity": 1,
          "duration": 0.2439019999999914
        },
        {
          "name": "E2",
          "midi": 40,
          "time": 245.60931399999788,
          "velocity": 1,
          "duration": 0.2439019999999914
        },
        {
          "name": "G1",
          "midi": 31,
          "time": 245.85321599999787,
          "velocity": 1,
          "duration": 0.2439019999999914
        },
        {
          "name": "F#1",
          "midi": 30,
          "time": 246.09711799999786,
          "velocity": 1,
          "duration": 0.2439019999999914
        },
        {
          "name": "F#1",
          "midi": 30,
          "time": 246.34101999999785,
          "velocity": 1,
          "duration": 0.2439019999999914
        },
        {
          "name": "F#1",
          "midi": 30,
          "time": 246.58492199999785,
          "velocity": 1,
          "duration": 0.2439019999999914
        },
        {
          "name": "C2",
          "midi": 36,
          "time": 246.82882399999784,
          "velocity": 1,
          "duration": 0.2439019999999914
        },
        {
          "name": "B1",
          "midi": 35,
          "time": 247.07272599999783,
          "velocity": 1,
          "duration": 0.2439019999999914
        },
        {
          "name": "B1",
          "midi": 35,
          "time": 247.31662799999782,
          "velocity": 1,
          "duration": 0.2439019999999914
        },
        {
          "name": "B1",
          "midi": 35,
          "time": 247.5605299999978,
          "velocity": 1,
          "duration": 0.2439019999999914
        },
        {
          "name": "E1",
          "midi": 28,
          "time": 247.8044319999978,
          "velocity": 1,
          "duration": 0.48780400000001123
        },
        {
          "name": "E1",
          "midi": 28,
          "time": 248.2922359999978,
          "velocity": 1,
          "duration": 0.2439019999999914
        },
        {
          "name": "E1",
          "midi": 28,
          "time": 248.5361379999978,
          "velocity": 1,
          "duration": 0.2439019999999914
        },
        {
          "name": "E1",
          "midi": 28,
          "time": 248.7800399999978,
          "velocity": 1,
          "duration": 0.2439019999999914
        },
        {
          "name": "E1",
          "midi": 28,
          "time": 249.0239419999978,
          "velocity": 1,
          "duration": 0.2439019999999914
        },
        {
          "name": "E1",
          "midi": 28,
          "time": 249.26784399999778,
          "velocity": 1,
          "duration": 0.2439019999999914
        },
        {
          "name": "E1",
          "midi": 28,
          "time": 249.51174599999777,
          "velocity": 1,
          "duration": 0.2439019999999914
        },
        {
          "name": "F1",
          "midi": 29,
          "time": 249.75564799999776,
          "velocity": 1,
          "duration": 0.2439019999999914
        },
        {
          "name": "F#1",
          "midi": 30,
          "time": 249.99954999999775,
          "velocity": 1,
          "duration": 0.2439019999999914
        },
        {
          "name": "F#1",
          "midi": 30,
          "time": 250.24345199999775,
          "velocity": 1,
          "duration": 0.2439019999999914
        },
        {
          "name": "F#1",
          "midi": 30,
          "time": 250.48735399999774,
          "velocity": 1,
          "duration": 0.2439019999999914
        },
        {
          "name": "C2",
          "midi": 36,
          "time": 250.73125599999773,
          "velocity": 1,
          "duration": 0.2439019999999914
        },
        {
          "name": "B1",
          "midi": 35,
          "time": 250.97515799999772,
          "velocity": 1,
          "duration": 0.2439019999999914
        },
        {
          "name": "B1",
          "midi": 35,
          "time": 251.2190599999977,
          "velocity": 1,
          "duration": 0.2439019999999914
        },
        {
          "name": "B1",
          "midi": 35,
          "time": 251.4629619999977,
          "velocity": 1,
          "duration": 0.2439019999999914
        },
        {
          "name": "F#1",
          "midi": 30,
          "time": 251.7068639999977,
          "velocity": 1,
          "duration": 0.48780400000001123
        },
        {
          "name": "F#1",
          "midi": 30,
          "time": 252.1946679999977,
          "velocity": 1,
          "duration": 0.2439019999999914
        },
        {
          "name": "F#1",
          "midi": 30,
          "time": 252.4385699999977,
          "velocity": 1,
          "duration": 0.2439019999999914
        },
        {
          "name": "C2",
          "midi": 36,
          "time": 252.6824719999977,
          "velocity": 1,
          "duration": 0.2439019999999914
        },
        {
          "name": "B1",
          "midi": 35,
          "time": 252.92637399999768,
          "velocity": 1,
          "duration": 0.2439019999999914
        },
        {
          "name": "B1",
          "midi": 35,
          "time": 253.17027599999767,
          "velocity": 1,
          "duration": 0.2439019999999914
        },
        {
          "name": "B1",
          "midi": 35,
          "time": 253.41417799999766,
          "velocity": 1,
          "duration": 0.2439019999999914
        },
        {
          "name": "F#1",
          "midi": 30,
          "time": 253.65807999999765,
          "velocity": 1,
          "duration": 0.2439019999999914
        },
        {
          "name": "F#1",
          "midi": 30,
          "time": 253.90198199999764,
          "velocity": 1,
          "duration": 0.2439019999999914
        },
        {
          "name": "F#1",
          "midi": 30,
          "time": 254.14588399999764,
          "velocity": 1,
          "duration": 0.2439019999999914
        },
        {
          "name": "F#1",
          "midi": 30,
          "time": 254.38978599999763,
          "velocity": 1,
          "duration": 0.2439019999999914
        },
        {
          "name": "C2",
          "midi": 36,
          "time": 254.63368799999762,
          "velocity": 1,
          "duration": 0.2439019999999914
        },
        {
          "name": "B1",
          "midi": 35,
          "time": 254.8775899999976,
          "velocity": 1,
          "duration": 0.2439019999999914
        },
        {
          "name": "B1",
          "midi": 35,
          "time": 255.1214919999976,
          "velocity": 1,
          "duration": 0.2439019999999914
        },
        {
          "name": "B1",
          "midi": 35,
          "time": 255.3653939999976,
          "velocity": 1,
          "duration": 0.2439019999999914
        },
        {
          "name": "E1",
          "midi": 28,
          "time": 255.60929599999758,
          "velocity": 1,
          "duration": 0.4878039999999828
        },
        {
          "name": "A1",
          "midi": 33,
          "time": 256.09709999999757,
          "velocity": 1,
          "duration": 0.12195100000002412
        },
        {
          "name": "B1",
          "midi": 35,
          "time": 256.2190509999976,
          "velocity": 1,
          "duration": 0.12195100000002412
        },
        {
          "name": "D2",
          "midi": 38,
          "time": 256.3410019999976,
          "velocity": 1,
          "duration": 0.4878039999999828
        },
        {
          "name": "E2",
          "midi": 40,
          "time": 256.8288059999976,
          "velocity": 1,
          "duration": 0.2439019999999914
        },
        {
          "name": "D2",
          "midi": 38,
          "time": 257.0727079999976,
          "velocity": 1,
          "duration": 0.2439019999999914
        },
        {
          "name": "B1",
          "midi": 35,
          "time": 257.3166099999976,
          "velocity": 1,
          "duration": 0.2439019999999914
        },
        {
          "name": "G1",
          "midi": 31,
          "time": 257.5605119999976,
          "velocity": 1,
          "duration": 0.2439019999999914
        },
        {
          "name": "F#1",
          "midi": 30,
          "time": 257.80441399999756,
          "velocity": 1,
          "duration": 0.2439019999999914
        },
        {
          "name": "F#1",
          "midi": 30,
          "time": 258.04831599999756,
          "velocity": 1,
          "duration": 0.2439019999999914
        },
        {
          "name": "F#1",
          "midi": 30,
          "time": 258.29221799999755,
          "velocity": 1,
          "duration": 0.2439019999999914
        },
        {
          "name": "C2",
          "midi": 36,
          "time": 258.53611999999754,
          "velocity": 1,
          "duration": 0.2439019999999914
        },
        {
          "name": "B1",
          "midi": 35,
          "time": 258.78002199999753,
          "velocity": 1,
          "duration": 0.2439019999999914
        },
        {
          "name": "B1",
          "midi": 35,
          "time": 259.0239239999975,
          "velocity": 1,
          "duration": 0.2439019999999914
        },
        {
          "name": "B1",
          "midi": 35,
          "time": 259.2678259999975,
          "velocity": 1,
          "duration": 0.2439019999999914
        },
        {
          "name": "E1",
          "midi": 28,
          "time": 259.5117279999975,
          "velocity": 1,
          "duration": 0.4878039999999828
        },
        {
          "name": "E1",
          "midi": 28,
          "time": 259.9995319999975,
          "velocity": 1,
          "duration": 0.2439019999999914
        },
        {
          "name": "F#1",
          "midi": 30,
          "time": 260.2434339999975,
          "velocity": 1,
          "duration": 0.2439019999999914
        },
        {
          "name": "E1",
          "midi": 28,
          "time": 260.48733599999747,
          "velocity": 1,
          "duration": 0.2439019999999914
        },
        {
          "name": "G1",
          "midi": 31,
          "time": 260.73123799999746,
          "velocity": 1,
          "duration": 0.2439019999999914
        },
        {
          "name": "E1",
          "midi": 28,
          "time": 260.97513999999745,
          "velocity": 1,
          "duration": 0.2439019999999914
        },
        {
          "name": "A1",
          "midi": 33,
          "time": 261.21904199999744,
          "velocity": 1,
          "duration": 0.2439019999999914
        },
        {
          "name": "E1",
          "midi": 28,
          "time": 261.46294399999744,
          "velocity": 1,
          "duration": 0.2439019999999914
        },
        {
          "name": "G1",
          "midi": 31,
          "time": 261.7068459999974,
          "velocity": 1,
          "duration": 0.2439019999999914
        },
        {
          "name": "E1",
          "midi": 28,
          "time": 263.4141599999974,
          "velocity": 1,
          "duration": 5.853648000000021
        },
        {
          "name": "E1",
          "midi": 28,
          "time": 269.26780799999744,
          "velocity": 1,
          "duration": 0.4878039999999828
        },
        {
          "name": "E1",
          "midi": 28,
          "time": 269.7556119999974,
          "velocity": 1,
          "duration": 0.2439019999999914
        },
        {
          "name": "E1",
          "midi": 28,
          "time": 269.9995139999974,
          "velocity": 1,
          "duration": 0.2439019999999914
        },
        {
          "name": "A#1",
          "midi": 34,
          "time": 270.2434159999974,
          "velocity": 1,
          "duration": 0.2439019999999914
        },
        {
          "name": "A1",
          "midi": 33,
          "time": 270.4873179999974,
          "velocity": 1,
          "duration": 0.2439019999999914
        },
        {
          "name": "A1",
          "midi": 33,
          "time": 270.7312199999974,
          "velocity": 1,
          "duration": 0.2439019999999914
        },
        {
          "name": "A1",
          "midi": 33,
          "time": 270.9751219999974,
          "velocity": 1,
          "duration": 0.2439019999999914
        },
        {
          "name": "E1",
          "midi": 28,
          "time": 271.2190239999974,
          "velocity": 1,
          "duration": 0.2439019999999914
        },
        {
          "name": "E1",
          "midi": 28,
          "time": 271.46292599999737,
          "velocity": 1,
          "duration": 0.2439019999999914
        },
        {
          "name": "E1",
          "midi": 28,
          "time": 271.70682799999736,
          "velocity": 1,
          "duration": 0.2439019999999914
        },
        {
          "name": "E1",
          "midi": 28,
          "time": 271.95072999999735,
          "velocity": 1,
          "duration": 0.2439019999999914
        },
        {
          "name": "A#1",
          "midi": 34,
          "time": 272.19463199999734,
          "velocity": 1,
          "duration": 0.2439019999999914
        },
        {
          "name": "A1",
          "midi": 33,
          "time": 272.43853399999733,
          "velocity": 1,
          "duration": 0.2439019999999914
        },
        {
          "name": "A1",
          "midi": 33,
          "time": 272.6824359999973,
          "velocity": 1,
          "duration": 0.2439019999999914
        },
        {
          "name": "A1",
          "midi": 33,
          "time": 272.9263379999973,
          "velocity": 1,
          "duration": 0.2439019999999914
        },
        {
          "name": "E1",
          "midi": 28,
          "time": 273.1702399999973,
          "velocity": 1,
          "duration": 0.4878039999999828
        },
        {
          "name": "E1",
          "midi": 28,
          "time": 273.6580439999973,
          "velocity": 1,
          "duration": 0.2439019999999914
        },
        {
          "name": "E1",
          "midi": 28,
          "time": 273.9019459999973,
          "velocity": 1,
          "duration": 0.2439019999999914
        },
        {
          "name": "A#1",
          "midi": 34,
          "time": 274.1458479999973,
          "velocity": 1,
          "duration": 0.2439019999999914
        },
        {
          "name": "A1",
          "midi": 33,
          "time": 274.38974999999726,
          "velocity": 1,
          "duration": 0.2439019999999914
        },
        {
          "name": "A1",
          "midi": 33,
          "time": 274.63365199999726,
          "velocity": 1,
          "duration": 0.2439019999999914
        },
        {
          "name": "A1",
          "midi": 33,
          "time": 274.87755399999725,
          "velocity": 1,
          "duration": 0.2439019999999914
        },
        {
          "name": "E1",
          "midi": 28,
          "time": 275.12145599999724,
          "velocity": 1,
          "duration": 0.4878039999999828
        },
        {
          "name": "E1",
          "midi": 28,
          "time": 275.6092599999972,
          "velocity": 1,
          "duration": 0.2439019999999914
        },
        {
          "name": "E1",
          "midi": 28,
          "time": 275.8531619999972,
          "velocity": 1,
          "duration": 0.2439019999999914
        },
        {
          "name": "A#1",
          "midi": 34,
          "time": 276.0970639999972,
          "velocity": 1,
          "duration": 0.2439019999999914
        },
        {
          "name": "A1",
          "midi": 33,
          "time": 276.3409659999972,
          "velocity": 1,
          "duration": 0.2439019999999914
        },
        {
          "name": "A1",
          "midi": 33,
          "time": 276.5848679999972,
          "velocity": 1,
          "duration": 0.2439019999999914
        },
        {
          "name": "A1",
          "midi": 33,
          "time": 276.8287699999972,
          "velocity": 1,
          "duration": 0.2439019999999914
        },
        {
          "name": "E1",
          "midi": 28,
          "time": 277.07267199999717,
          "velocity": 1,
          "duration": 0.4878039999999828
        },
        {
          "name": "E1",
          "midi": 28,
          "time": 277.56047599999715,
          "velocity": 1,
          "duration": 0.2439019999999914
        },
        {
          "name": "E1",
          "midi": 28,
          "time": 277.80437799999714,
          "velocity": 1,
          "duration": 0.2439019999999914
        },
        {
          "name": "A#1",
          "midi": 34,
          "time": 278.04827999999713,
          "velocity": 1,
          "duration": 0.2439019999999914
        },
        {
          "name": "A1",
          "midi": 33,
          "time": 278.2921819999971,
          "velocity": 1,
          "duration": 0.2439019999999914
        },
        {
          "name": "A1",
          "midi": 33,
          "time": 278.5360839999971,
          "velocity": 1,
          "duration": 0.2439019999999914
        },
        {
          "name": "E1",
          "midi": 28,
          "time": 278.7799859999971,
          "velocity": 1,
          "duration": 0.2439019999999914
        },
        {
          "name": "G1",
          "midi": 31,
          "time": 279.0238879999971,
          "velocity": 1,
          "duration": 0.4878039999999828
        },
        {
          "name": "E1",
          "midi": 28,
          "time": 279.5116919999971,
          "velocity": 1,
          "duration": 0.2439019999999914
        },
        {
          "name": "F#1",
          "midi": 30,
          "time": 279.7555939999971,
          "velocity": 1,
          "duration": 0.2439019999999914
        },
        {
          "name": "E1",
          "midi": 28,
          "time": 279.99949599999707,
          "velocity": 1,
          "duration": 0.2439019999999914
        },
        {
          "name": "F#1",
          "midi": 30,
          "time": 280.24339799999706,
          "velocity": 1,
          "duration": 0.2439019999999914
        },
        {
          "name": "G1",
          "midi": 31,
          "time": 280.48729999999705,
          "velocity": 1,
          "duration": 0.2439019999999914
        },
        {
          "name": "F#1",
          "midi": 30,
          "time": 280.73120199999704,
          "velocity": 1,
          "duration": 0.2439019999999914
        },
        {
          "name": "E1",
          "midi": 28,
          "time": 280.97510399999703,
          "velocity": 1,
          "duration": 0.2439019999999914
        },
        {
          "name": "E1",
          "midi": 28,
          "time": 281.219005999997,
          "velocity": 1,
          "duration": 0.2439019999999914
        },
        {
          "name": "E1",
          "midi": 28,
          "time": 281.462907999997,
          "velocity": 1,
          "duration": 0.2439019999999914
        },
        {
          "name": "E1",
          "midi": 28,
          "time": 281.706809999997,
          "velocity": 1,
          "duration": 0.2439019999999914
        },
        {
          "name": "E1",
          "midi": 28,
          "time": 281.950711999997,
          "velocity": 1,
          "duration": 0.2439019999999914
        },
        {
          "name": "E1",
          "midi": 28,
          "time": 282.194613999997,
          "velocity": 1,
          "duration": 0.2439019999999914
        },
        {
          "name": "E1",
          "midi": 28,
          "time": 282.438515999997,
          "velocity": 1,
          "duration": 0.2439019999999914
        },
        {
          "name": "E1",
          "midi": 28,
          "time": 282.68241799999697,
          "velocity": 1,
          "duration": 0.2439019999999914
        },
        {
          "name": "F1",
          "midi": 29,
          "time": 282.92631999999696,
          "velocity": 1,
          "duration": 0.2439019999999914
        },
        {
          "name": "E1",
          "midi": 28,
          "time": 283.17022199999695,
          "velocity": 1,
          "duration": 0.2439019999999914
        },
        {
          "name": "E1",
          "midi": 28,
          "time": 283.41412399999695,
          "velocity": 1,
          "duration": 0.2439019999999914
        },
        {
          "name": "E1",
          "midi": 28,
          "time": 283.65802599999694,
          "velocity": 1,
          "duration": 0.2439019999999914
        },
        {
          "name": "E1",
          "midi": 28,
          "time": 283.90192799999693,
          "velocity": 1,
          "duration": 0.2439019999999914
        },
        {
          "name": "E1",
          "midi": 28,
          "time": 284.1458299999969,
          "velocity": 1,
          "duration": 0.2439019999999914
        },
        {
          "name": "E1",
          "midi": 28,
          "time": 284.3897319999969,
          "velocity": 1,
          "duration": 0.2439019999999914
        },
        {
          "name": "E1",
          "midi": 28,
          "time": 284.6336339999969,
          "velocity": 1,
          "duration": 0.2439019999999914
        },
        {
          "name": "F1",
          "midi": 29,
          "time": 284.8775359999969,
          "velocity": 1,
          "duration": 0.2439019999999914
        },
        {
          "name": "E1",
          "midi": 28,
          "time": 285.1214379999969,
          "velocity": 1,
          "duration": 0.2439019999999914
        },
        {
          "name": "E1",
          "midi": 28,
          "time": 285.3653399999969,
          "velocity": 1,
          "duration": 0.2439019999999914
        },
        {
          "name": "E1",
          "midi": 28,
          "time": 285.60924199999687,
          "velocity": 1,
          "duration": 0.2439019999999914
        },
        {
          "name": "E1",
          "midi": 28,
          "time": 285.85314399999686,
          "velocity": 1,
          "duration": 0.2439019999999914
        },
        {
          "name": "E1",
          "midi": 28,
          "time": 286.09704599999685,
          "velocity": 1,
          "duration": 0.2439019999999914
        },
        {
          "name": "E1",
          "midi": 28,
          "time": 286.34094799999684,
          "velocity": 1,
          "duration": 0.2439019999999914
        },
        {
          "name": "E1",
          "midi": 28,
          "time": 286.58484999999683,
          "velocity": 1,
          "duration": 0.2439019999999914
        },
        {
          "name": "F1",
          "midi": 29,
          "time": 286.8287519999968,
          "velocity": 1,
          "duration": 0.2439019999999914
        },
        {
          "name": "E1",
          "midi": 28,
          "time": 287.0726539999968,
          "velocity": 1,
          "duration": 0.2439019999999914
        },
        {
          "name": "E1",
          "midi": 28,
          "time": 287.3165559999968,
          "velocity": 1,
          "duration": 0.2439019999999914
        },
        {
          "name": "E1",
          "midi": 28,
          "time": 287.5604579999968,
          "velocity": 1,
          "duration": 0.2439019999999914
        },
        {
          "name": "E1",
          "midi": 28,
          "time": 287.8043599999968,
          "velocity": 1,
          "duration": 0.2439019999999914
        },
        {
          "name": "E1",
          "midi": 28,
          "time": 288.0482619999968,
          "velocity": 1,
          "duration": 0.2439019999999914
        },
        {
          "name": "E1",
          "midi": 28,
          "time": 288.2921639999968,
          "velocity": 1,
          "duration": 0.2439019999999914
        },
        {
          "name": "E1",
          "midi": 28,
          "time": 288.53606599999677,
          "velocity": 1,
          "duration": 0.2439019999999914
        },
        {
          "name": "F1",
          "midi": 29,
          "time": 288.77996799999676,
          "velocity": 1,
          "duration": 0.2439019999999914
        },
        {
          "name": "E1",
          "midi": 28,
          "time": 289.02386999999675,
          "velocity": 1,
          "duration": 0.2439019999999914
        },
        {
          "name": "E1",
          "midi": 28,
          "time": 289.26777199999674,
          "velocity": 1,
          "duration": 0.2439019999999914
        },
        {
          "name": "E1",
          "midi": 28,
          "time": 289.51167399999673,
          "velocity": 1,
          "duration": 0.2439019999999914
        },
        {
          "name": "E1",
          "midi": 28,
          "time": 289.7555759999967,
          "velocity": 1,
          "duration": 0.2439019999999914
        },
        {
          "name": "E1",
          "midi": 28,
          "time": 289.9994779999967,
          "velocity": 1,
          "duration": 0.2439019999999914
        },
        {
          "name": "E1",
          "midi": 28,
          "time": 290.2433799999967,
          "velocity": 1,
          "duration": 0.2439019999999914
        },
        {
          "name": "E1",
          "midi": 28,
          "time": 290.4872819999967,
          "velocity": 1,
          "duration": 0.2439019999999914
        },
        {
          "name": "F1",
          "midi": 29,
          "time": 290.7311839999967,
          "velocity": 1,
          "duration": 0.2439019999999914
        },
        {
          "name": "E1",
          "midi": 28,
          "time": 290.9750859999967,
          "velocity": 1,
          "duration": 0.2439019999999914
        },
        {
          "name": "E1",
          "midi": 28,
          "time": 291.21898799999667,
          "velocity": 1,
          "duration": 0.2439019999999914
        },
        {
          "name": "E1",
          "midi": 28,
          "time": 291.46288999999666,
          "velocity": 1,
          "duration": 0.2439019999999914
        },
        {
          "name": "E1",
          "midi": 28,
          "time": 291.70679199999665,
          "velocity": 1,
          "duration": 0.2439019999999914
        },
        {
          "name": "E1",
          "midi": 28,
          "time": 291.95069399999664,
          "velocity": 1,
          "duration": 0.2439019999999914
        },
        {
          "name": "E1",
          "midi": 28,
          "time": 292.19459599999664,
          "velocity": 1,
          "duration": 0.2439019999999914
        },
        {
          "name": "E1",
          "midi": 28,
          "time": 292.4384979999966,
          "velocity": 1,
          "duration": 0.2439019999999914
        },
        {
          "name": "F1",
          "midi": 29,
          "time": 292.6823999999966,
          "velocity": 1,
          "duration": 0.2439019999999914
        },
        {
          "name": "E1",
          "midi": 28,
          "time": 292.9263019999966,
          "velocity": 1,
          "duration": 0.2439019999999914
        },
        {
          "name": "E1",
          "midi": 28,
          "time": 293.1702039999966,
          "velocity": 1,
          "duration": 0.2439019999999914
        },
        {
          "name": "E1",
          "midi": 28,
          "time": 293.4141059999966,
          "velocity": 1,
          "duration": 0.2439019999999914
        },
        {
          "name": "E1",
          "midi": 28,
          "time": 293.6580079999966,
          "velocity": 1,
          "duration": 0.2439019999999914
        },
        {
          "name": "E1",
          "midi": 28,
          "time": 293.9019099999966,
          "velocity": 1,
          "duration": 0.2439019999999914
        },
        {
          "name": "E1",
          "midi": 28,
          "time": 294.14581199999657,
          "velocity": 1,
          "duration": 0.2439019999999914
        },
        {
          "name": "E1",
          "midi": 28,
          "time": 294.38971399999656,
          "velocity": 1,
          "duration": 0.2439019999999914
        },
        {
          "name": "F1",
          "midi": 29,
          "time": 294.63361599999655,
          "velocity": 1,
          "duration": 0.2439019999999914
        },
        {
          "name": "E1",
          "midi": 28,
          "time": 294.87751799999654,
          "velocity": 1,
          "duration": 0.2439019999999914
        },
        {
          "name": "E1",
          "midi": 28,
          "time": 295.12141999999653,
          "velocity": 1,
          "duration": 0.2439019999999914
        },
        {
          "name": "E1",
          "midi": 28,
          "time": 295.3653219999965,
          "velocity": 1,
          "duration": 0.2439019999999914
        },
        {
          "name": "E1",
          "midi": 28,
          "time": 295.6092239999965,
          "velocity": 1,
          "duration": 0.2439019999999914
        },
        {
          "name": "E1",
          "midi": 28,
          "time": 295.8531259999965,
          "velocity": 1,
          "duration": 0.2439019999999914
        },
        {
          "name": "E1",
          "midi": 28,
          "time": 296.0970279999965,
          "velocity": 1,
          "duration": 0.2439019999999914
        },
        {
          "name": "E1",
          "midi": 28,
          "time": 296.3409299999965,
          "velocity": 1,
          "duration": 0.2439019999999914
        },
        {
          "name": "F1",
          "midi": 29,
          "time": 296.5848319999965,
          "velocity": 1,
          "duration": 0.2439019999999914
        },
        {
          "name": "E1",
          "midi": 28,
          "time": 296.8287339999965,
          "velocity": 1,
          "duration": 0.2439019999999914
        },
        {
          "name": "E1",
          "midi": 28,
          "time": 297.07263599999646,
          "velocity": 1,
          "duration": 0.2439019999999914
        },
        {
          "name": "E1",
          "midi": 28,
          "time": 297.31653799999646,
          "velocity": 1,
          "duration": 0.2439019999999914
        },
        {
          "name": "E1",
          "midi": 28,
          "time": 297.56043999999645,
          "velocity": 1,
          "duration": 0.2439019999999914
        },
        {
          "name": "E1",
          "midi": 28,
          "time": 297.80434199999644,
          "velocity": 1,
          "duration": 0.2439019999999914
        },
        {
          "name": "E1",
          "midi": 28,
          "time": 298.04824399999643,
          "velocity": 1,
          "duration": 0.2439019999999914
        },
        {
          "name": "E1",
          "midi": 28,
          "time": 298.2921459999964,
          "velocity": 1,
          "duration": 0.2439019999999914
        },
        {
          "name": "E1",
          "midi": 28,
          "time": 298.5360479999964,
          "velocity": 1,
          "duration": 0.2439019999999914
        },
        {
          "name": "E1",
          "midi": 28,
          "time": 298.7799499999964,
          "velocity": 1,
          "duration": 0.2439019999999914
        },
        {
          "name": "E1",
          "midi": 28,
          "time": 299.0238519999964,
          "velocity": 1,
          "duration": 0.2439019999999914
        },
        {
          "name": "E1",
          "midi": 28,
          "time": 299.2677539999964,
          "velocity": 1,
          "duration": 0.2439019999999914
        },
        {
          "name": "E1",
          "midi": 28,
          "time": 299.5116559999964,
          "velocity": 1,
          "duration": 0.2439019999999914
        },
        {
          "name": "E1",
          "midi": 28,
          "time": 299.75555799999637,
          "velocity": 1,
          "duration": 0.2439019999999914
        },
        {
          "name": "E1",
          "midi": 28,
          "time": 299.99945999999636,
          "velocity": 1,
          "duration": 0.2439019999999914
        },
        {
          "name": "E1",
          "midi": 28,
          "time": 300.24336199999635,
          "velocity": 1,
          "duration": 0.2439019999999914
        },
        {
          "name": "E1",
          "midi": 28,
          "time": 300.48726399999634,
          "velocity": 1,
          "duration": 0.2439019999999914
        },
        {
          "name": "E1",
          "midi": 28,
          "time": 300.73116599999634,
          "velocity": 1,
          "duration": 0.2439019999999914
        },
        {
          "name": "E1",
          "midi": 28,
          "time": 300.9750679999963,
          "velocity": 1,
          "duration": 0.2439019999999914
        },
        {
          "name": "E1",
          "midi": 28,
          "time": 301.2189699999963,
          "velocity": 1,
          "duration": 0.2439019999999914
        },
        {
          "name": "E1",
          "midi": 28,
          "time": 301.4628719999963,
          "velocity": 1,
          "duration": 0.2439019999999914
        },
        {
          "name": "E1",
          "midi": 28,
          "time": 301.7067739999963,
          "velocity": 1,
          "duration": 0.2439019999999914
        },
        {
          "name": "E1",
          "midi": 28,
          "time": 301.9506759999963,
          "velocity": 1,
          "duration": 0.2439019999999914
        },
        {
          "name": "E1",
          "midi": 28,
          "time": 302.1945779999963,
          "velocity": 1,
          "duration": 0.2439019999999914
        },
        {
          "name": "E1",
          "midi": 28,
          "time": 302.4384799999963,
          "velocity": 1,
          "duration": 0.2439019999999914
        },
        {
          "name": "E1",
          "midi": 28,
          "time": 302.68238199999627,
          "velocity": 1,
          "duration": 0.2439019999999914
        },
        {
          "name": "E1",
          "midi": 28,
          "time": 302.92628399999626,
          "velocity": 1,
          "duration": 0.2439019999999914
        },
        {
          "name": "E1",
          "midi": 28,
          "time": 303.17018599999625,
          "velocity": 1,
          "duration": 0.2439019999999914
        },
        {
          "name": "E1",
          "midi": 28,
          "time": 303.41408799999624,
          "velocity": 1,
          "duration": 0.2439019999999914
        },
        {
          "name": "E1",
          "midi": 28,
          "time": 303.65798999999623,
          "velocity": 1,
          "duration": 0.2439019999999914
        },
        {
          "name": "E1",
          "midi": 28,
          "time": 303.9018919999962,
          "velocity": 1,
          "duration": 0.2439019999999914
        },
        {
          "name": "E1",
          "midi": 28,
          "time": 304.1457939999962,
          "velocity": 1,
          "duration": 0.2439019999999914
        },
        {
          "name": "E1",
          "midi": 28,
          "time": 304.3896959999962,
          "velocity": 1,
          "duration": 0.2439019999999914
        },
        {
          "name": "E1",
          "midi": 28,
          "time": 304.6335979999962,
          "velocity": 1,
          "duration": 0.2439019999999914
        },
        {
          "name": "E1",
          "midi": 28,
          "time": 304.8774999999962,
          "velocity": 1,
          "duration": 0.2439019999999914
        },
        {
          "name": "E1",
          "midi": 28,
          "time": 305.1214019999962,
          "velocity": 1,
          "duration": 0.2439019999999914
        },
        {
          "name": "E1",
          "midi": 28,
          "time": 305.3653039999962,
          "velocity": 1,
          "duration": 0.2439019999999914
        },
        {
          "name": "E1",
          "midi": 28,
          "time": 305.60920599999616,
          "velocity": 1,
          "duration": 0.2439019999999914
        },
        {
          "name": "E1",
          "midi": 28,
          "time": 305.85310799999615,
          "velocity": 1,
          "duration": 0.2439019999999914
        },
        {
          "name": "E1",
          "midi": 28,
          "time": 306.09700999999615,
          "velocity": 1,
          "duration": 0.2439019999999914
        },
        {
          "name": "E1",
          "midi": 28,
          "time": 306.34091199999614,
          "velocity": 1,
          "duration": 0.2439019999999914
        },
        {
          "name": "E1",
          "midi": 28,
          "time": 306.58481399999613,
          "velocity": 1,
          "duration": 0.2439019999999914
        },
        {
          "name": "E1",
          "midi": 28,
          "time": 306.8287159999961,
          "velocity": 1,
          "duration": 0.2439019999999914
        },
        {
          "name": "E1",
          "midi": 28,
          "time": 307.0726179999961,
          "velocity": 1,
          "duration": 0.2439019999999914
        },
        {
          "name": "E1",
          "midi": 28,
          "time": 307.3165199999961,
          "velocity": 1,
          "duration": 0.2439019999999914
        },
        {
          "name": "E1",
          "midi": 28,
          "time": 307.5604219999961,
          "velocity": 1,
          "duration": 0.2439019999999914
        },
        {
          "name": "E1",
          "midi": 28,
          "time": 307.8043239999961,
          "velocity": 1,
          "duration": 0.2439019999999914
        },
        {
          "name": "E1",
          "midi": 28,
          "time": 308.0482259999961,
          "velocity": 1,
          "duration": 0.2439019999999914
        },
        {
          "name": "E1",
          "midi": 28,
          "time": 308.29212799999607,
          "velocity": 1,
          "duration": 0.2439019999999914
        },
        {
          "name": "E1",
          "midi": 28,
          "time": 308.53602999999606,
          "velocity": 1,
          "duration": 0.24390200000004825
        },
        {
          "name": "E1",
          "midi": 28,
          "time": 308.7799319999961,
          "velocity": 1,
          "duration": 0.24390200000004825
        },
        {
          "name": "E1",
          "midi": 28,
          "time": 309.02383399999616,
          "velocity": 1,
          "duration": 0.24390200000004825
        },
        {
          "name": "E1",
          "midi": 28,
          "time": 309.2677359999962,
          "velocity": 1,
          "duration": 0.24390200000004825
        },
        {
          "name": "E1",
          "midi": 28,
          "time": 309.51163799999625,
          "velocity": 1,
          "duration": 0.2439019999999914
        },
        {
          "name": "E1",
          "midi": 28,
          "time": 309.75553999999624,
          "velocity": 1,
          "duration": 0.2439019999999914
        },
        {
          "name": "E1",
          "midi": 28,
          "time": 309.99944199999624,
          "velocity": 1,
          "duration": 0.2439019999999914
        },
        {
          "name": "E1",
          "midi": 28,
          "time": 310.2433439999962,
          "velocity": 1,
          "duration": 0.2439019999999914
        },
        {
          "name": "E1",
          "midi": 28,
          "time": 310.4872459999962,
          "velocity": 1,
          "duration": 0.2439019999999914
        },
        {
          "name": "E1",
          "midi": 28,
          "time": 310.7311479999962,
          "velocity": 1,
          "duration": 0.2439019999999914
        },
        {
          "name": "E1",
          "midi": 28,
          "time": 310.9750499999962,
          "velocity": 1,
          "duration": 0.2439019999999914
        },
        {
          "name": "E1",
          "midi": 28,
          "time": 311.2189519999962,
          "velocity": 1,
          "duration": 0.2439019999999914
        },
        {
          "name": "E1",
          "midi": 28,
          "time": 311.4628539999962,
          "velocity": 1,
          "duration": 0.2439019999999914
        },
        {
          "name": "E1",
          "midi": 28,
          "time": 311.7067559999962,
          "velocity": 1,
          "duration": 0.24390200000004825
        },
        {
          "name": "E1",
          "midi": 28,
          "time": 311.9506579999962,
          "velocity": 1,
          "duration": 0.24390200000004825
        },
        {
          "name": "E1",
          "midi": 28,
          "time": 312.1945599999963,
          "velocity": 1,
          "duration": 0.2439019999999914
        },
        {
          "name": "E1",
          "midi": 28,
          "time": 312.43846199999626,
          "velocity": 1,
          "duration": 0.24390200000004825
        },
        {
          "name": "E1",
          "midi": 28,
          "time": 312.6823639999963,
          "velocity": 1,
          "duration": 0.24390200000004825
        },
        {
          "name": "E1",
          "midi": 28,
          "time": 312.92626599999636,
          "velocity": 1,
          "duration": 0.2439019999999914
        },
        {
          "name": "E1",
          "midi": 28,
          "time": 313.17016799999635,
          "velocity": 1,
          "duration": 0.24390200000004825
        },
        {
          "name": "E1",
          "midi": 28,
          "time": 313.4140699999964,
          "velocity": 1,
          "duration": 0.2439019999999914
        },
        {
          "name": "E1",
          "midi": 28,
          "time": 313.6579719999964,
          "velocity": 1,
          "duration": 0.2439019999999914
        },
        {
          "name": "E1",
          "midi": 28,
          "time": 313.9018739999964,
          "velocity": 1,
          "duration": 0.2439019999999914
        },
        {
          "name": "E1",
          "midi": 28,
          "time": 314.1457759999964,
          "velocity": 1,
          "duration": 0.24390200000004825
        },
        {
          "name": "E1",
          "midi": 28,
          "time": 314.3896779999964,
          "velocity": 1,
          "duration": 0.2439019999999914
        },
        {
          "name": "E1",
          "midi": 28,
          "time": 314.6335799999964,
          "velocity": 1,
          "duration": 0.2439019999999914
        },
        {
          "name": "E1",
          "midi": 28,
          "time": 314.8774819999964,
          "velocity": 1,
          "duration": 0.24390200000004825
        },
        {
          "name": "E1",
          "midi": 28,
          "time": 315.12138399999645,
          "velocity": 1,
          "duration": 0.2439019999999914
        },
        {
          "name": "E1",
          "midi": 28,
          "time": 315.36528599999644,
          "velocity": 1,
          "duration": 0.2439019999999914
        },
        {
          "name": "E1",
          "midi": 28,
          "time": 315.60918799999644,
          "velocity": 1,
          "duration": 0.24390200000004825
        },
        {
          "name": "E1",
          "midi": 28,
          "time": 315.8530899999965,
          "velocity": 1,
          "duration": 0.2439019999999914
        },
        {
          "name": "E1",
          "midi": 28,
          "time": 316.0969919999965,
          "velocity": 1,
          "duration": 0.2439019999999914
        },
        {
          "name": "E1",
          "midi": 28,
          "time": 316.34089399999647,
          "velocity": 1,
          "duration": 0.24390200000004825
        },
        {
          "name": "E1",
          "midi": 28,
          "time": 316.5847959999965,
          "velocity": 1,
          "duration": 0.2439019999999914
        },
        {
          "name": "E1",
          "midi": 28,
          "time": 316.8286979999965,
          "velocity": 1,
          "duration": 0.2439019999999914
        },
        {
          "name": "E1",
          "midi": 28,
          "time": 317.0725999999965,
          "velocity": 1,
          "duration": 0.2439019999999914
        },
        {
          "name": "E1",
          "midi": 28,
          "time": 317.3165019999965,
          "velocity": 1,
          "duration": 0.2439019999999914
        },
        {
          "name": "E1",
          "midi": 28,
          "time": 317.5604039999965,
          "velocity": 1,
          "duration": 0.2439019999999914
        },
        {
          "name": "E1",
          "midi": 28,
          "time": 317.8043059999965,
          "velocity": 1,
          "duration": 0.2439019999999914
        },
        {
          "name": "E1",
          "midi": 28,
          "time": 318.04820799999646,
          "velocity": 1,
          "duration": 0.24390200000004825
        },
        {
          "name": "E1",
          "midi": 28,
          "time": 318.2921099999965,
          "velocity": 1,
          "duration": 0.2439019999999914
        },
        {
          "name": "E1",
          "midi": 28,
          "time": 318.5360119999965,
          "velocity": 1,
          "duration": 0.2439019999999914
        },
        {
          "name": "E1",
          "midi": 28,
          "time": 318.7799139999965,
          "velocity": 1,
          "duration": 0.24390200000004825
        },
        {
          "name": "E1",
          "midi": 28,
          "time": 319.02381599999654,
          "velocity": 1,
          "duration": 0.2439019999999914
        },
        {
          "name": "E1",
          "midi": 28,
          "time": 319.26771799999653,
          "velocity": 1,
          "duration": 0.24390200000004825
        },
        {
          "name": "E1",
          "midi": 28,
          "time": 319.5116199999966,
          "velocity": 1,
          "duration": 0.24390200000004825
        },
        {
          "name": "E1",
          "midi": 28,
          "time": 319.75552199999663,
          "velocity": 1,
          "duration": 0.24390200000004825
        },
        {
          "name": "E1",
          "midi": 28,
          "time": 319.9994239999967,
          "velocity": 1,
          "duration": 0.24390200000004825
        },
        {
          "name": "E1",
          "midi": 28,
          "time": 320.2433259999967,
          "velocity": 1,
          "duration": 0.24390200000004825
        },
        {
          "name": "E1",
          "midi": 28,
          "time": 320.4872279999968,
          "velocity": 1,
          "duration": 0.24390200000004825
        },
        {
          "name": "E1",
          "midi": 28,
          "time": 320.7311299999968,
          "velocity": 1,
          "duration": 0.2439019999999914
        },
        {
          "name": "E1",
          "midi": 28,
          "time": 320.9750319999968,
          "velocity": 1,
          "duration": 0.2439019999999914
        },
        {
          "name": "E1",
          "midi": 28,
          "time": 321.2189339999968,
          "velocity": 1,
          "duration": 0.2439019999999914
        },
        {
          "name": "E1",
          "midi": 28,
          "time": 321.4628359999968,
          "velocity": 1,
          "duration": 0.2439019999999914
        },
        {
          "name": "E1",
          "midi": 28,
          "time": 321.7067379999968,
          "velocity": 1,
          "duration": 0.2439019999999914
        },
        {
          "name": "E1",
          "midi": 28,
          "time": 321.9506399999968,
          "velocity": 1,
          "duration": 0.24390200000004825
        },
        {
          "name": "E1",
          "midi": 28,
          "time": 322.19454199999683,
          "velocity": 1,
          "duration": 0.2439019999999914
        },
        {
          "name": "E1",
          "midi": 28,
          "time": 322.4384439999968,
          "velocity": 1,
          "duration": 0.2439019999999914
        },
        {
          "name": "E1",
          "midi": 28,
          "time": 322.6823459999968,
          "velocity": 1,
          "duration": 0.2439019999999914
        },
        {
          "name": "E1",
          "midi": 28,
          "time": 322.9262479999968,
          "velocity": 1,
          "duration": 0.24390200000004825
        },
        {
          "name": "E1",
          "midi": 28,
          "time": 323.17014999999685,
          "velocity": 1,
          "duration": 0.24390200000004825
        },
        {
          "name": "E1",
          "midi": 28,
          "time": 323.4140519999969,
          "velocity": 1,
          "duration": 0.2439019999999914
        },
        {
          "name": "E1",
          "midi": 28,
          "time": 323.6579539999969,
          "velocity": 1,
          "duration": 0.24390200000004825
        },
        {
          "name": "E1",
          "midi": 28,
          "time": 323.90185599999694,
          "velocity": 1,
          "duration": 0.24390200000004825
        }
      ],
      "controlChanges": {
        "7": [
          {
            "number": 7,
            "time": 0,
            "value": 0.7874015748031497
          },
          {
            "number": 7,
            "time": 308.53602999999606,
            "value": 0.7874015748031497
          },
          {
            "number": 7,
            "time": 308.69050126666275,
            "value": 0.7795275590551181
          },
          {
            "number": 7,
            "time": 308.8490375666628,
            "value": 0.7716535433070866
          },
          {
            "number": 7,
            "time": 309.0035088333295,
            "value": 0.7637795275590551
          },
          {
            "number": 7,
            "time": 309.1620451333295,
            "value": 0.7559055118110236
          },
          {
            "number": 7,
            "time": 309.3165163999962,
            "value": 0.7480314960629921
          },
          {
            "number": 7,
            "time": 309.4709876666629,
            "value": 0.7401574803149606
          },
          {
            "number": 7,
            "time": 309.62952396666293,
            "value": 0.7322834645669292
          },
          {
            "number": 7,
            "time": 309.78399523332956,
            "value": 0.7244094488188977
          },
          {
            "number": 7,
            "time": 309.94253153332954,
            "value": 0.7165354330708661
          },
          {
            "number": 7,
            "time": 310.09700279999623,
            "value": 0.7086614173228346
          },
          {
            "number": 7,
            "time": 310.2514740666629,
            "value": 0.7007874015748031
          },
          {
            "number": 7,
            "time": 310.4100103666629,
            "value": 0.6929133858267716
          },
          {
            "number": 7,
            "time": 310.56448163332954,
            "value": 0.6850393700787402
          },
          {
            "number": 7,
            "time": 310.7189528999962,
            "value": 0.6771653543307087
          },
          {
            "number": 7,
            "time": 310.8774891999962,
            "value": 0.6692913385826772
          },
          {
            "number": 7,
            "time": 311.0319604666629,
            "value": 0.6614173228346457
          },
          {
            "number": 7,
            "time": 311.1904967666629,
            "value": 0.6535433070866141
          },
          {
            "number": 7,
            "time": 311.3449680333295,
            "value": 0.6456692913385826
          },
          {
            "number": 7,
            "time": 311.4994392999962,
            "value": 0.6377952755905512
          },
          {
            "number": 7,
            "time": 311.6579755999962,
            "value": 0.6299212598425197
          },
          {
            "number": 7,
            "time": 311.81244686666287,
            "value": 0.6220472440944882
          },
          {
            "number": 7,
            "time": 311.9709831666629,
            "value": 0.6141732283464567
          },
          {
            "number": 7,
            "time": 312.1254544333296,
            "value": 0.6062992125984252
          },
          {
            "number": 7,
            "time": 312.2799256999963,
            "value": 0.5984251968503937
          },
          {
            "number": 7,
            "time": 312.43846199999626,
            "value": 0.5905511811023622
          },
          {
            "number": 7,
            "time": 312.59293326666295,
            "value": 0.5826771653543307
          },
          {
            "number": 7,
            "time": 312.751469566663,
            "value": 0.5748031496062992
          },
          {
            "number": 7,
            "time": 312.9059408333297,
            "value": 0.5669291338582677
          },
          {
            "number": 7,
            "time": 313.06041209999637,
            "value": 0.5590551181102362
          },
          {
            "number": 7,
            "time": 313.21894839999635,
            "value": 0.5511811023622047
          },
          {
            "number": 7,
            "time": 313.37341966666304,
            "value": 0.5433070866141733
          },
          {
            "number": 7,
            "time": 313.52789093332973,
            "value": 0.5354330708661418
          },
          {
            "number": 7,
            "time": 313.6864272333297,
            "value": 0.5275590551181102
          },
          {
            "number": 7,
            "time": 313.8408984999964,
            "value": 0.5196850393700787
          },
          {
            "number": 7,
            "time": 313.9994347999964,
            "value": 0.5118110236220472
          },
          {
            "number": 7,
            "time": 314.15390606666307,
            "value": 0.5039370078740157
          },
          {
            "number": 7,
            "time": 314.30837733332976,
            "value": 0.49606299212598426
          },
          {
            "number": 7,
            "time": 314.46691363332974,
            "value": 0.4881889763779528
          },
          {
            "number": 7,
            "time": 314.62138489999643,
            "value": 0.48031496062992124
          },
          {
            "number": 7,
            "time": 314.7799211999964,
            "value": 0.47244094488188976
          },
          {
            "number": 7,
            "time": 314.9343924666631,
            "value": 0.4645669291338583
          },
          {
            "number": 7,
            "time": 315.0888637333298,
            "value": 0.4566929133858268
          },
          {
            "number": 7,
            "time": 315.24740003332977,
            "value": 0.44881889763779526
          },
          {
            "number": 7,
            "time": 315.40187129999646,
            "value": 0.4409448818897638
          },
          {
            "number": 7,
            "time": 315.56040759999644,
            "value": 0.4330708661417323
          },
          {
            "number": 7,
            "time": 315.7148788666631,
            "value": 0.4251968503937008
          },
          {
            "number": 7,
            "time": 315.8693501333298,
            "value": 0.41732283464566927
          },
          {
            "number": 7,
            "time": 316.0278864333298,
            "value": 0.4094488188976378
          },
          {
            "number": 7,
            "time": 316.1823576999965,
            "value": 0.4015748031496063
          },
          {
            "number": 7,
            "time": 316.34089399999647,
            "value": 0.3937007874015748
          },
          {
            "number": 7,
            "time": 316.49536526666316,
            "value": 0.3858267716535433
          },
          {
            "number": 7,
            "time": 316.64983653332985,
            "value": 0.3779527559055118
          },
          {
            "number": 7,
            "time": 316.8083728333298,
            "value": 0.3700787401574803
          },
          {
            "number": 7,
            "time": 316.9628440999965,
            "value": 0.36220472440944884
          },
          {
            "number": 7,
            "time": 317.11731536666315,
            "value": 0.3543307086614173
          },
          {
            "number": 7,
            "time": 317.27585166666313,
            "value": 0.3464566929133858
          },
          {
            "number": 7,
            "time": 317.4303229333298,
            "value": 0.33858267716535434
          },
          {
            "number": 7,
            "time": 317.5888592333298,
            "value": 0.33070866141732286
          },
          {
            "number": 7,
            "time": 317.7433304999965,
            "value": 0.3228346456692913
          },
          {
            "number": 7,
            "time": 317.8978017666631,
            "value": 0.31496062992125984
          },
          {
            "number": 7,
            "time": 318.05633806666316,
            "value": 0.30708661417322836
          },
          {
            "number": 7,
            "time": 318.21080933332985,
            "value": 0.2992125984251969
          },
          {
            "number": 7,
            "time": 318.36934563332983,
            "value": 0.29133858267716534
          },
          {
            "number": 7,
            "time": 318.5238168999965,
            "value": 0.28346456692913385
          },
          {
            "number": 7,
            "time": 318.67828816666315,
            "value": 0.2755905511811024
          },
          {
            "number": 7,
            "time": 318.8368244666632,
            "value": 0.2677165354330709
          },
          {
            "number": 7,
            "time": 318.9912957333299,
            "value": 0.25984251968503935
          },
          {
            "number": 7,
            "time": 319.14983203332986,
            "value": 0.25196850393700787
          },
          {
            "number": 7,
            "time": 319.30430329999655,
            "value": 0.2440944881889764
          },
          {
            "number": 7,
            "time": 319.45877456666324,
            "value": 0.23622047244094488
          },
          {
            "number": 7,
            "time": 319.6173108666633,
            "value": 0.2283464566929134
          },
          {
            "number": 7,
            "time": 319.77178213332996,
            "value": 0.2204724409448819
          },
          {
            "number": 7,
            "time": 319.92625339999665,
            "value": 0.2125984251968504
          },
          {
            "number": 7,
            "time": 320.0847896999967,
            "value": 0.2047244094488189
          },
          {
            "number": 7,
            "time": 320.2392609666634,
            "value": 0.1968503937007874
          },
          {
            "number": 7,
            "time": 320.3977972666634,
            "value": 0.1889763779527559
          },
          {
            "number": 7,
            "time": 320.5522685333301,
            "value": 0.18110236220472442
          },
          {
            "number": 7,
            "time": 320.7067397999968,
            "value": 0.1732283464566929
          },
          {
            "number": 7,
            "time": 320.86527609999683,
            "value": 0.16535433070866143
          },
          {
            "number": 7,
            "time": 321.01974736666347,
            "value": 0.15748031496062992
          },
          {
            "number": 7,
            "time": 321.17828366666345,
            "value": 0.14960629921259844
          },
          {
            "number": 7,
            "time": 321.33275493333014,
            "value": 0.14173228346456693
          },
          {
            "number": 7,
            "time": 321.4872261999968,
            "value": 0.13385826771653545
          },
          {
            "number": 7,
            "time": 321.6457624999968,
            "value": 0.12598425196850394
          },
          {
            "number": 7,
            "time": 321.80023376666344,
            "value": 0.11811023622047244
          },
          {
            "number": 7,
            "time": 321.9587700666635,
            "value": 0.11023622047244094
          },
          {
            "number": 7,
            "time": 322.11324133333017,
            "value": 0.10236220472440945
          },
          {
            "number": 7,
            "time": 322.26771259999686,
            "value": 0.09448818897637795
          },
          {
            "number": 7,
            "time": 322.42624889999684,
            "value": 0.08661417322834646
          },
          {
            "number": 7,
            "time": 322.58072016666347,
            "value": 0.07874015748031496
          },
          {
            "number": 7,
            "time": 322.73519143333016,
            "value": 0.07086614173228346
          },
          {
            "number": 7,
            "time": 322.89372773333014,
            "value": 0.06299212598425197
          },
          {
            "number": 7,
            "time": 323.0481989999968,
            "value": 0.05511811023622047
          },
          {
            "number": 7,
            "time": 323.20673529999686,
            "value": 0.047244094488188976
          },
          {
            "number": 7,
            "time": 323.36120656666355,
            "value": 0.03937007874015748
          },
          {
            "number": 7,
            "time": 323.51567783333024,
            "value": 0.031496062992125984
          },
          {
            "number": 7,
            "time": 323.6742141333302,
            "value": 0.023622047244094488
          },
          {
            "number": 7,
            "time": 323.8286853999969,
            "value": 0.015748031496062992
          },
          {
            "number": 7,
            "time": 323.98722169999695,
            "value": 0.007874015748031496
          },
          {
            "number": 7,
            "time": 324.14169296666364,
            "value": 0
          }
        ]
      },
      "id": 6,
      "name": "Bass",
      "instrumentNumber": 34,
      "instrument": "electric bass (pick)",
      "instrumentFamily": "bass",
      "channelNumber": 5,
      "isPercussion": false
    },
    {
      "startTime": 0.731706,
      "duration": 324.1457579999971,
      "length": 2034,
      "notes": [
        {
          "name": "F#2",
          "midi": 42,
          "time": 0.731706,
          "velocity": 1,
          "duration": 0.4878040000000001
        },
        {
          "name": "F#2",
          "midi": 42,
          "time": 1.7073140000000002,
          "velocity": 1,
          "duration": 0.4878040000000001
        },
        {
          "name": "F#2",
          "midi": 42,
          "time": 2.6829220000000005,
          "velocity": 1,
          "duration": 0.4878040000000001
        },
        {
          "name": "F#2",
          "midi": 42,
          "time": 3.6585300000000007,
          "velocity": 1,
          "duration": 0.4878039999999997
        },
        {
          "name": "F#2",
          "midi": 42,
          "time": 4.634138,
          "velocity": 1,
          "duration": 0.4878039999999997
        },
        {
          "name": "F#2",
          "midi": 42,
          "time": 5.6097459999999995,
          "velocity": 1,
          "duration": 0.4878039999999997
        },
        {
          "name": "F#2",
          "midi": 42,
          "time": 6.585353999999999,
          "velocity": 1,
          "duration": 0.4878039999999997
        },
        {
          "name": "F#2",
          "midi": 42,
          "time": 7.317059999999999,
          "velocity": 1,
          "duration": 0.08130066666666647
        },
        {
          "name": "F#2",
          "midi": 42,
          "time": 7.398360666666665,
          "velocity": 1,
          "duration": 0.08130066666666647
        },
        {
          "name": "F#2",
          "midi": 42,
          "time": 7.479661333333332,
          "velocity": 1,
          "duration": 0.08130066666666647
        },
        {
          "name": "F#2",
          "midi": 42,
          "time": 7.560961999999998,
          "velocity": 1,
          "duration": 0.48780400000000057
        },
        {
          "name": "F#2",
          "midi": 42,
          "time": 8.53657,
          "velocity": 1,
          "duration": 0.48780400000000057
        },
        {
          "name": "F#2",
          "midi": 42,
          "time": 9.512178,
          "velocity": 1,
          "duration": 0.48780400000000057
        },
        {
          "name": "F#2",
          "midi": 42,
          "time": 10.487786000000002,
          "velocity": 1,
          "duration": 0.48780400000000057
        },
        {
          "name": "F#2",
          "midi": 42,
          "time": 11.463394000000003,
          "velocity": 1,
          "duration": 0.48780400000000057
        },
        {
          "name": "F#2",
          "midi": 42,
          "time": 12.439002000000004,
          "velocity": 1,
          "duration": 0.48780400000000057
        },
        {
          "name": "F#2",
          "midi": 42,
          "time": 13.414610000000005,
          "velocity": 1,
          "duration": 0.48780400000000057
        },
        {
          "name": "F#2",
          "midi": 42,
          "time": 13.902414000000006,
          "velocity": 1,
          "duration": 0.48780400000000057
        },
        {
          "name": "F#2",
          "midi": 42,
          "time": 14.390218000000006,
          "velocity": 1,
          "duration": 0.48780400000000057
        },
        {
          "name": "F#2",
          "midi": 42,
          "time": 14.878022000000007,
          "velocity": 1,
          "duration": 0.48780400000000057
        },
        {
          "name": "F#2",
          "midi": 42,
          "time": 15.365826000000007,
          "velocity": 1,
          "duration": 0.48780400000000057
        },
        {
          "name": "G2",
          "midi": 43,
          "time": 15.853630000000008,
          "velocity": 1,
          "duration": 0.24390200000000029
        },
        {
          "name": "C2",
          "midi": 36,
          "time": 15.853630000000008,
          "velocity": 1,
          "duration": 0.4878039999999988
        },
        {
          "name": "G2",
          "midi": 43,
          "time": 16.097532000000008,
          "velocity": 1,
          "duration": 0.2439019999999985
        },
        {
          "name": "C3",
          "midi": 48,
          "time": 16.341434000000007,
          "velocity": 1,
          "duration": 0.2439019999999985
        },
        {
          "name": "G2",
          "midi": 43,
          "time": 16.341434000000007,
          "velocity": 1,
          "duration": 0.2439019999999985
        },
        {
          "name": "C2",
          "midi": 36,
          "time": 16.341434000000007,
          "velocity": 1,
          "duration": 0.487803999999997
        },
        {
          "name": "G2",
          "midi": 43,
          "time": 16.585336000000005,
          "velocity": 1,
          "duration": 0.2439019999999985
        },
        {
          "name": "G2",
          "midi": 43,
          "time": 16.829238000000004,
          "velocity": 1,
          "duration": 0.2439019999999985
        },
        {
          "name": "C2",
          "midi": 36,
          "time": 16.829238000000004,
          "velocity": 1,
          "duration": 0.487803999999997
        },
        {
          "name": "G2",
          "midi": 43,
          "time": 17.073140000000002,
          "velocity": 1,
          "duration": 0.2439019999999985
        },
        {
          "name": "C3",
          "midi": 48,
          "time": 17.317042,
          "velocity": 1,
          "duration": 0.2439019999999985
        },
        {
          "name": "G2",
          "midi": 43,
          "time": 17.317042,
          "velocity": 1,
          "duration": 0.2439019999999985
        },
        {
          "name": "C2",
          "midi": 36,
          "time": 17.317042,
          "velocity": 1,
          "duration": 0.487803999999997
        },
        {
          "name": "D3",
          "midi": 50,
          "time": 17.560944,
          "velocity": 1,
          "duration": 0.2439019999999985
        },
        {
          "name": "G2",
          "midi": 43,
          "time": 17.560944,
          "velocity": 1,
          "duration": 0.2439019999999985
        },
        {
          "name": "G2",
          "midi": 43,
          "time": 17.804845999999998,
          "velocity": 1,
          "duration": 0.2439019999999985
        },
        {
          "name": "C2",
          "midi": 36,
          "time": 17.804845999999998,
          "velocity": 1,
          "duration": 0.487803999999997
        },
        {
          "name": "G2",
          "midi": 43,
          "time": 18.048747999999996,
          "velocity": 1,
          "duration": 0.2439019999999985
        },
        {
          "name": "C3",
          "midi": 48,
          "time": 18.292649999999995,
          "velocity": 1,
          "duration": 0.2439019999999985
        },
        {
          "name": "G2",
          "midi": 43,
          "time": 18.292649999999995,
          "velocity": 1,
          "duration": 0.2439019999999985
        },
        {
          "name": "C2",
          "midi": 36,
          "time": 18.292649999999995,
          "velocity": 1,
          "duration": 0.487803999999997
        },
        {
          "name": "G2",
          "midi": 43,
          "time": 18.536551999999993,
          "velocity": 1,
          "duration": 0.2439019999999985
        },
        {
          "name": "G2",
          "midi": 43,
          "time": 18.78045399999999,
          "velocity": 1,
          "duration": 0.2439019999999985
        },
        {
          "name": "C2",
          "midi": 36,
          "time": 18.78045399999999,
          "velocity": 1,
          "duration": 0.487803999999997
        },
        {
          "name": "G2",
          "midi": 43,
          "time": 19.02435599999999,
          "velocity": 1,
          "duration": 0.2439019999999985
        },
        {
          "name": "C3",
          "midi": 48,
          "time": 19.26825799999999,
          "velocity": 1,
          "duration": 0.2439019999999985
        },
        {
          "name": "G2",
          "midi": 43,
          "time": 19.26825799999999,
          "velocity": 1,
          "duration": 0.2439019999999985
        },
        {
          "name": "C2",
          "midi": 36,
          "time": 19.26825799999999,
          "velocity": 1,
          "duration": 0.487803999999997
        },
        {
          "name": "D3",
          "midi": 50,
          "time": 19.512159999999987,
          "velocity": 1,
          "duration": 0.2439019999999985
        },
        {
          "name": "G2",
          "midi": 43,
          "time": 19.512159999999987,
          "velocity": 1,
          "duration": 0.2439019999999985
        },
        {
          "name": "G2",
          "midi": 43,
          "time": 19.756061999999986,
          "velocity": 1,
          "duration": 0.2439019999999985
        },
        {
          "name": "C2",
          "midi": 36,
          "time": 19.756061999999986,
          "velocity": 1,
          "duration": 0.487803999999997
        },
        {
          "name": "G2",
          "midi": 43,
          "time": 19.999963999999984,
          "velocity": 1,
          "duration": 0.2439019999999985
        },
        {
          "name": "C3",
          "midi": 48,
          "time": 20.243865999999983,
          "velocity": 1,
          "duration": 0.2439019999999985
        },
        {
          "name": "G2",
          "midi": 43,
          "time": 20.243865999999983,
          "velocity": 1,
          "duration": 0.2439019999999985
        },
        {
          "name": "C2",
          "midi": 36,
          "time": 20.243865999999983,
          "velocity": 1,
          "duration": 0.487803999999997
        },
        {
          "name": "G2",
          "midi": 43,
          "time": 20.48776799999998,
          "velocity": 1,
          "duration": 0.2439019999999985
        },
        {
          "name": "G2",
          "midi": 43,
          "time": 20.73166999999998,
          "velocity": 1,
          "duration": 0.2439019999999985
        },
        {
          "name": "C2",
          "midi": 36,
          "time": 20.73166999999998,
          "velocity": 1,
          "duration": 0.487803999999997
        },
        {
          "name": "G2",
          "midi": 43,
          "time": 20.97557199999998,
          "velocity": 1,
          "duration": 0.2439019999999985
        },
        {
          "name": "C3",
          "midi": 48,
          "time": 21.219473999999977,
          "velocity": 1,
          "duration": 0.2439019999999985
        },
        {
          "name": "G2",
          "midi": 43,
          "time": 21.219473999999977,
          "velocity": 1,
          "duration": 0.2439019999999985
        },
        {
          "name": "C2",
          "midi": 36,
          "time": 21.219473999999977,
          "velocity": 1,
          "duration": 0.487803999999997
        },
        {
          "name": "D3",
          "midi": 50,
          "time": 21.463375999999975,
          "velocity": 1,
          "duration": 0.2439019999999985
        },
        {
          "name": "G2",
          "midi": 43,
          "time": 21.463375999999975,
          "velocity": 1,
          "duration": 0.2439019999999985
        },
        {
          "name": "G2",
          "midi": 43,
          "time": 21.707277999999974,
          "velocity": 1,
          "duration": 0.2439019999999985
        },
        {
          "name": "C2",
          "midi": 36,
          "time": 21.707277999999974,
          "velocity": 1,
          "duration": 0.487803999999997
        },
        {
          "name": "G2",
          "midi": 43,
          "time": 21.951179999999972,
          "velocity": 1,
          "duration": 0.2439019999999985
        },
        {
          "name": "C3",
          "midi": 48,
          "time": 22.19508199999997,
          "velocity": 1,
          "duration": 0.2439019999999985
        },
        {
          "name": "G2",
          "midi": 43,
          "time": 22.19508199999997,
          "velocity": 1,
          "duration": 0.2439019999999985
        },
        {
          "name": "C2",
          "midi": 36,
          "time": 22.19508199999997,
          "velocity": 1,
          "duration": 0.487803999999997
        },
        {
          "name": "G2",
          "midi": 43,
          "time": 22.43898399999997,
          "velocity": 1,
          "duration": 0.2439019999999985
        },
        {
          "name": "G2",
          "midi": 43,
          "time": 22.682885999999968,
          "velocity": 1,
          "duration": 0.2439019999999985
        },
        {
          "name": "C2",
          "midi": 36,
          "time": 22.682885999999968,
          "velocity": 1,
          "duration": 0.487803999999997
        },
        {
          "name": "G2",
          "midi": 43,
          "time": 22.926787999999966,
          "velocity": 1,
          "duration": 0.2439019999999985
        },
        {
          "name": "C3",
          "midi": 48,
          "time": 23.170689999999965,
          "velocity": 1,
          "duration": 0.2439019999999985
        },
        {
          "name": "G2",
          "midi": 43,
          "time": 23.170689999999965,
          "velocity": 1,
          "duration": 0.2439019999999985
        },
        {
          "name": "C2",
          "midi": 36,
          "time": 23.170689999999965,
          "velocity": 1,
          "duration": 0.487803999999997
        },
        {
          "name": "D2",
          "midi": 38,
          "time": 23.414591999999963,
          "velocity": 1,
          "duration": 0.2439019999999985
        },
        {
          "name": "A3",
          "midi": 57,
          "time": 23.414591999999963,
          "velocity": 1,
          "duration": 0.2439019999999985
        },
        {
          "name": "G2",
          "midi": 43,
          "time": 23.658493999999962,
          "velocity": 1,
          "duration": 0.2439019999999985
        },
        {
          "name": "C2",
          "midi": 36,
          "time": 23.658493999999962,
          "velocity": 1,
          "duration": 0.487803999999997
        },
        {
          "name": "G2",
          "midi": 43,
          "time": 23.90239599999996,
          "velocity": 1,
          "duration": 0.2439019999999985
        },
        {
          "name": "C3",
          "midi": 48,
          "time": 24.14629799999996,
          "velocity": 1,
          "duration": 0.2439019999999985
        },
        {
          "name": "G2",
          "midi": 43,
          "time": 24.14629799999996,
          "velocity": 1,
          "duration": 0.2439019999999985
        },
        {
          "name": "C2",
          "midi": 36,
          "time": 24.14629799999996,
          "velocity": 1,
          "duration": 0.487803999999997
        },
        {
          "name": "G2",
          "midi": 43,
          "time": 24.390199999999957,
          "velocity": 1,
          "duration": 0.2439019999999985
        },
        {
          "name": "G2",
          "midi": 43,
          "time": 24.634101999999956,
          "velocity": 1,
          "duration": 0.2439019999999985
        },
        {
          "name": "C2",
          "midi": 36,
          "time": 24.634101999999956,
          "velocity": 1,
          "duration": 0.487803999999997
        },
        {
          "name": "G2",
          "midi": 43,
          "time": 24.878003999999954,
          "velocity": 1,
          "duration": 0.2439019999999985
        },
        {
          "name": "C3",
          "midi": 48,
          "time": 25.121905999999953,
          "velocity": 1,
          "duration": 0.2439019999999985
        },
        {
          "name": "G2",
          "midi": 43,
          "time": 25.121905999999953,
          "velocity": 1,
          "duration": 0.2439019999999985
        },
        {
          "name": "C2",
          "midi": 36,
          "time": 25.121905999999953,
          "velocity": 1,
          "duration": 0.487803999999997
        },
        {
          "name": "D3",
          "midi": 50,
          "time": 25.36580799999995,
          "velocity": 1,
          "duration": 0.2439019999999985
        },
        {
          "name": "G2",
          "midi": 43,
          "time": 25.36580799999995,
          "velocity": 1,
          "duration": 0.2439019999999985
        },
        {
          "name": "G2",
          "midi": 43,
          "time": 25.60970999999995,
          "velocity": 1,
          "duration": 0.2439019999999985
        },
        {
          "name": "C2",
          "midi": 36,
          "time": 25.60970999999995,
          "velocity": 1,
          "duration": 0.487803999999997
        },
        {
          "name": "G2",
          "midi": 43,
          "time": 25.85361199999995,
          "velocity": 1,
          "duration": 0.2439019999999985
        },
        {
          "name": "C3",
          "midi": 48,
          "time": 26.097513999999947,
          "velocity": 1,
          "duration": 0.2439019999999985
        },
        {
          "name": "G2",
          "midi": 43,
          "time": 26.097513999999947,
          "velocity": 1,
          "duration": 0.2439019999999985
        },
        {
          "name": "C2",
          "midi": 36,
          "time": 26.097513999999947,
          "velocity": 1,
          "duration": 0.487803999999997
        },
        {
          "name": "G2",
          "midi": 43,
          "time": 26.341415999999946,
          "velocity": 1,
          "duration": 0.2439019999999985
        },
        {
          "name": "G2",
          "midi": 43,
          "time": 26.585317999999944,
          "velocity": 1,
          "duration": 0.2439019999999985
        },
        {
          "name": "C2",
          "midi": 36,
          "time": 26.585317999999944,
          "velocity": 1,
          "duration": 0.487803999999997
        },
        {
          "name": "G2",
          "midi": 43,
          "time": 26.829219999999943,
          "velocity": 1,
          "duration": 0.2439019999999985
        },
        {
          "name": "C3",
          "midi": 48,
          "time": 27.07312199999994,
          "velocity": 1,
          "duration": 0.2439019999999985
        },
        {
          "name": "G2",
          "midi": 43,
          "time": 27.07312199999994,
          "velocity": 1,
          "duration": 0.2439019999999985
        },
        {
          "name": "C2",
          "midi": 36,
          "time": 27.07312199999994,
          "velocity": 1,
          "duration": 0.487803999999997
        },
        {
          "name": "D3",
          "midi": 50,
          "time": 27.31702399999994,
          "velocity": 1,
          "duration": 0.2439019999999985
        },
        {
          "name": "G2",
          "midi": 43,
          "time": 27.31702399999994,
          "velocity": 1,
          "duration": 0.2439019999999985
        },
        {
          "name": "G2",
          "midi": 43,
          "time": 27.560925999999938,
          "velocity": 1,
          "duration": 0.2439019999999985
        },
        {
          "name": "C2",
          "midi": 36,
          "time": 27.560925999999938,
          "velocity": 1,
          "duration": 0.487803999999997
        },
        {
          "name": "G2",
          "midi": 43,
          "time": 27.804827999999937,
          "velocity": 1,
          "duration": 0.2439019999999985
        },
        {
          "name": "C3",
          "midi": 48,
          "time": 28.048729999999935,
          "velocity": 1,
          "duration": 0.2439019999999985
        },
        {
          "name": "G2",
          "midi": 43,
          "time": 28.048729999999935,
          "velocity": 1,
          "duration": 0.2439019999999985
        },
        {
          "name": "C2",
          "midi": 36,
          "time": 28.048729999999935,
          "velocity": 1,
          "duration": 0.487803999999997
        },
        {
          "name": "G2",
          "midi": 43,
          "time": 28.292631999999934,
          "velocity": 1,
          "duration": 0.2439019999999985
        },
        {
          "name": "G2",
          "midi": 43,
          "time": 28.536533999999932,
          "velocity": 1,
          "duration": 0.2439019999999985
        },
        {
          "name": "C2",
          "midi": 36,
          "time": 28.536533999999932,
          "velocity": 1,
          "duration": 0.487803999999997
        },
        {
          "name": "G2",
          "midi": 43,
          "time": 28.78043599999993,
          "velocity": 1,
          "duration": 0.2439019999999985
        },
        {
          "name": "C3",
          "midi": 48,
          "time": 29.02433799999993,
          "velocity": 1,
          "duration": 0.2439019999999985
        },
        {
          "name": "G2",
          "midi": 43,
          "time": 29.02433799999993,
          "velocity": 1,
          "duration": 0.2439019999999985
        },
        {
          "name": "C2",
          "midi": 36,
          "time": 29.02433799999993,
          "velocity": 1,
          "duration": 0.487803999999997
        },
        {
          "name": "D3",
          "midi": 50,
          "time": 29.268239999999928,
          "velocity": 1,
          "duration": 0.2439019999999985
        },
        {
          "name": "G2",
          "midi": 43,
          "time": 29.268239999999928,
          "velocity": 1,
          "duration": 0.2439019999999985
        },
        {
          "name": "G2",
          "midi": 43,
          "time": 29.512141999999926,
          "velocity": 1,
          "duration": 0.2439019999999985
        },
        {
          "name": "C2",
          "midi": 36,
          "time": 29.512141999999926,
          "velocity": 1,
          "duration": 0.487803999999997
        },
        {
          "name": "G2",
          "midi": 43,
          "time": 29.756043999999925,
          "velocity": 1,
          "duration": 0.2439019999999985
        },
        {
          "name": "C3",
          "midi": 48,
          "time": 29.999945999999923,
          "velocity": 1,
          "duration": 0.2439019999999985
        },
        {
          "name": "G2",
          "midi": 43,
          "time": 29.999945999999923,
          "velocity": 1,
          "duration": 0.2439019999999985
        },
        {
          "name": "C2",
          "midi": 36,
          "time": 29.999945999999923,
          "velocity": 1,
          "duration": 0.487803999999997
        },
        {
          "name": "D2",
          "midi": 38,
          "time": 30.24384799999992,
          "velocity": 1,
          "duration": 0.2439019999999985
        },
        {
          "name": "A3",
          "midi": 57,
          "time": 30.24384799999992,
          "velocity": 1,
          "duration": 0.2439019999999985
        },
        {
          "name": "G2",
          "midi": 43,
          "time": 30.48774999999992,
          "velocity": 1,
          "duration": 0.2439019999999985
        },
        {
          "name": "C2",
          "midi": 36,
          "time": 30.48774999999992,
          "velocity": 1,
          "duration": 0.487803999999997
        },
        {
          "name": "G2",
          "midi": 43,
          "time": 30.73165199999992,
          "velocity": 1,
          "duration": 0.2439019999999985
        },
        {
          "name": "C3",
          "midi": 48,
          "time": 30.975553999999917,
          "velocity": 1,
          "duration": 0.2439019999999985
        },
        {
          "name": "G2",
          "midi": 43,
          "time": 30.975553999999917,
          "velocity": 1,
          "duration": 0.2439019999999985
        },
        {
          "name": "C2",
          "midi": 36,
          "time": 30.975553999999917,
          "velocity": 1,
          "duration": 0.487803999999997
        },
        {
          "name": "D2",
          "midi": 38,
          "time": 31.219455999999916,
          "velocity": 1,
          "duration": 0.2439019999999985
        },
        {
          "name": "A3",
          "midi": 57,
          "time": 31.219455999999916,
          "velocity": 1,
          "duration": 0.2439019999999985
        },
        {
          "name": "G2",
          "midi": 43,
          "time": 31.463357999999914,
          "velocity": 1,
          "duration": 0.2439019999999985
        },
        {
          "name": "C2",
          "midi": 36,
          "time": 31.463357999999914,
          "velocity": 1,
          "duration": 0.487803999999997
        },
        {
          "name": "G2",
          "midi": 43,
          "time": 31.707259999999913,
          "velocity": 1,
          "duration": 0.2439019999999985
        },
        {
          "name": "C3",
          "midi": 48,
          "time": 31.95116199999991,
          "velocity": 1,
          "duration": 0.2439019999999985
        },
        {
          "name": "G2",
          "midi": 43,
          "time": 31.95116199999991,
          "velocity": 1,
          "duration": 0.2439019999999985
        },
        {
          "name": "C2",
          "midi": 36,
          "time": 31.95116199999991,
          "velocity": 1,
          "duration": 0.487803999999997
        },
        {
          "name": "G2",
          "midi": 43,
          "time": 32.19506399999991,
          "velocity": 1,
          "duration": 0.2439019999999985
        },
        {
          "name": "G2",
          "midi": 43,
          "time": 32.43896599999991,
          "velocity": 1,
          "duration": 0.2439019999999985
        },
        {
          "name": "C2",
          "midi": 36,
          "time": 32.43896599999991,
          "velocity": 1,
          "duration": 0.487803999999997
        },
        {
          "name": "G2",
          "midi": 43,
          "time": 32.68286799999991,
          "velocity": 1,
          "duration": 0.2439019999999985
        },
        {
          "name": "C3",
          "midi": 48,
          "time": 32.926769999999905,
          "velocity": 1,
          "duration": 0.2439019999999985
        },
        {
          "name": "G2",
          "midi": 43,
          "time": 32.926769999999905,
          "velocity": 1,
          "duration": 0.2439019999999985
        },
        {
          "name": "C2",
          "midi": 36,
          "time": 32.926769999999905,
          "velocity": 1,
          "duration": 0.487803999999997
        },
        {
          "name": "D3",
          "midi": 50,
          "time": 33.170671999999904,
          "velocity": 1,
          "duration": 0.2439019999999985
        },
        {
          "name": "G2",
          "midi": 43,
          "time": 33.170671999999904,
          "velocity": 1,
          "duration": 0.2439019999999985
        },
        {
          "name": "G2",
          "midi": 43,
          "time": 33.4145739999999,
          "velocity": 1,
          "duration": 0.2439019999999985
        },
        {
          "name": "C2",
          "midi": 36,
          "time": 33.4145739999999,
          "velocity": 1,
          "duration": 0.487803999999997
        },
        {
          "name": "G2",
          "midi": 43,
          "time": 33.6584759999999,
          "velocity": 1,
          "duration": 0.2439019999999985
        },
        {
          "name": "C3",
          "midi": 48,
          "time": 33.9023779999999,
          "velocity": 1,
          "duration": 0.2439019999999985
        },
        {
          "name": "G2",
          "midi": 43,
          "time": 33.9023779999999,
          "velocity": 1,
          "duration": 0.2439019999999985
        },
        {
          "name": "C2",
          "midi": 36,
          "time": 33.9023779999999,
          "velocity": 1,
          "duration": 0.487803999999997
        },
        {
          "name": "G2",
          "midi": 43,
          "time": 34.1462799999999,
          "velocity": 1,
          "duration": 0.2439019999999985
        },
        {
          "name": "G2",
          "midi": 43,
          "time": 34.390181999999896,
          "velocity": 1,
          "duration": 0.2439019999999985
        },
        {
          "name": "C2",
          "midi": 36,
          "time": 34.390181999999896,
          "velocity": 1,
          "duration": 0.487803999999997
        },
        {
          "name": "G2",
          "midi": 43,
          "time": 34.634083999999895,
          "velocity": 1,
          "duration": 0.2439019999999985
        },
        {
          "name": "C3",
          "midi": 48,
          "time": 34.87798599999989,
          "velocity": 1,
          "duration": 0.2439019999999985
        },
        {
          "name": "G2",
          "midi": 43,
          "time": 34.87798599999989,
          "velocity": 1,
          "duration": 0.2439019999999985
        },
        {
          "name": "C2",
          "midi": 36,
          "time": 34.87798599999989,
          "velocity": 1,
          "duration": 0.487803999999997
        },
        {
          "name": "D3",
          "midi": 50,
          "time": 35.12188799999989,
          "velocity": 1,
          "duration": 0.2439019999999985
        },
        {
          "name": "G2",
          "midi": 43,
          "time": 35.12188799999989,
          "velocity": 1,
          "duration": 0.2439019999999985
        },
        {
          "name": "G2",
          "midi": 43,
          "time": 35.36578999999989,
          "velocity": 1,
          "duration": 0.2439019999999985
        },
        {
          "name": "C2",
          "midi": 36,
          "time": 35.36578999999989,
          "velocity": 1,
          "duration": 0.487803999999997
        },
        {
          "name": "G2",
          "midi": 43,
          "time": 35.60969199999989,
          "velocity": 1,
          "duration": 0.2439019999999985
        },
        {
          "name": "C3",
          "midi": 48,
          "time": 35.85359399999989,
          "velocity": 1,
          "duration": 0.2439019999999985
        },
        {
          "name": "G2",
          "midi": 43,
          "time": 35.85359399999989,
          "velocity": 1,
          "duration": 0.2439019999999985
        },
        {
          "name": "C2",
          "midi": 36,
          "time": 35.85359399999989,
          "velocity": 1,
          "duration": 0.487803999999997
        },
        {
          "name": "G2",
          "midi": 43,
          "time": 36.097495999999886,
          "velocity": 1,
          "duration": 0.2439019999999985
        },
        {
          "name": "G2",
          "midi": 43,
          "time": 36.341397999999884,
          "velocity": 1,
          "duration": 0.2439019999999985
        },
        {
          "name": "C2",
          "midi": 36,
          "time": 36.341397999999884,
          "velocity": 1,
          "duration": 0.487803999999997
        },
        {
          "name": "G2",
          "midi": 43,
          "time": 36.58529999999988,
          "velocity": 1,
          "duration": 0.2439019999999985
        },
        {
          "name": "C3",
          "midi": 48,
          "time": 36.82920199999988,
          "velocity": 1,
          "duration": 0.2439019999999985
        },
        {
          "name": "G2",
          "midi": 43,
          "time": 36.82920199999988,
          "velocity": 1,
          "duration": 0.2439019999999985
        },
        {
          "name": "C2",
          "midi": 36,
          "time": 36.82920199999988,
          "velocity": 1,
          "duration": 0.487803999999997
        },
        {
          "name": "D3",
          "midi": 50,
          "time": 37.07310399999988,
          "velocity": 1,
          "duration": 0.2439019999999985
        },
        {
          "name": "G2",
          "midi": 43,
          "time": 37.07310399999988,
          "velocity": 1,
          "duration": 0.2439019999999985
        },
        {
          "name": "G2",
          "midi": 43,
          "time": 37.31700599999988,
          "velocity": 1,
          "duration": 0.2439019999999985
        },
        {
          "name": "C2",
          "midi": 36,
          "time": 37.31700599999988,
          "velocity": 1,
          "duration": 0.487803999999997
        },
        {
          "name": "G2",
          "midi": 43,
          "time": 37.56090799999988,
          "velocity": 1,
          "duration": 0.2439019999999985
        },
        {
          "name": "C3",
          "midi": 48,
          "time": 37.804809999999875,
          "velocity": 1,
          "duration": 0.2439019999999985
        },
        {
          "name": "G2",
          "midi": 43,
          "time": 37.804809999999875,
          "velocity": 1,
          "duration": 0.2439019999999985
        },
        {
          "name": "C2",
          "midi": 36,
          "time": 37.804809999999875,
          "velocity": 1,
          "duration": 0.487803999999997
        },
        {
          "name": "A3",
          "midi": 57,
          "time": 38.048711999999874,
          "velocity": 1,
          "duration": 0.2439019999999985
        },
        {
          "name": "D2",
          "midi": 38,
          "time": 38.048711999999874,
          "velocity": 1,
          "duration": 0.2439019999999985
        },
        {
          "name": "C2",
          "midi": 36,
          "time": 38.29261399999987,
          "velocity": 1,
          "duration": 0.487803999999997
        },
        {
          "name": "A3",
          "midi": 57,
          "time": 38.53651599999987,
          "velocity": 1,
          "duration": 0.2439019999999985
        },
        {
          "name": "D2",
          "midi": 38,
          "time": 38.53651599999987,
          "velocity": 1,
          "duration": 0.2439019999999985
        },
        {
          "name": "C2",
          "midi": 36,
          "time": 38.78041799999987,
          "velocity": 1,
          "duration": 0.487803999999997
        },
        {
          "name": "A3",
          "midi": 57,
          "time": 39.02431999999987,
          "velocity": 1,
          "duration": 0.2439019999999985
        },
        {
          "name": "D2",
          "midi": 38,
          "time": 39.02431999999987,
          "velocity": 1,
          "duration": 0.2439019999999985
        },
        {
          "name": "C2",
          "midi": 36,
          "time": 39.26822199999987,
          "velocity": 1,
          "duration": 0.487803999999997
        },
        {
          "name": "G2",
          "midi": 43,
          "time": 39.26822199999987,
          "velocity": 1,
          "duration": 0.2439019999999985
        },
        {
          "name": "G2",
          "midi": 43,
          "time": 39.512123999999865,
          "velocity": 1,
          "duration": 0.2439019999999985
        },
        {
          "name": "C2",
          "midi": 36,
          "time": 39.75602599999986,
          "velocity": 1,
          "duration": 0.487803999999997
        },
        {
          "name": "G2",
          "midi": 43,
          "time": 39.75602599999986,
          "velocity": 1,
          "duration": 0.2439019999999985
        },
        {
          "name": "C3",
          "midi": 48,
          "time": 39.99992799999986,
          "velocity": 1,
          "duration": 0.2439019999999985
        },
        {
          "name": "G2",
          "midi": 43,
          "time": 39.99992799999986,
          "velocity": 1,
          "duration": 0.2439019999999985
        },
        {
          "name": "C2",
          "midi": 36,
          "time": 40.24382999999986,
          "velocity": 1,
          "duration": 0.487803999999997
        },
        {
          "name": "G2",
          "midi": 43,
          "time": 40.24382999999986,
          "velocity": 1,
          "duration": 0.2439019999999985
        },
        {
          "name": "G2",
          "midi": 43,
          "time": 40.48773199999986,
          "velocity": 1,
          "duration": 0.2439019999999985
        },
        {
          "name": "C2",
          "midi": 36,
          "time": 40.73163399999986,
          "velocity": 1,
          "duration": 0.487803999999997
        },
        {
          "name": "C3",
          "midi": 48,
          "time": 40.73163399999986,
          "velocity": 1,
          "duration": 0.2439019999999985
        },
        {
          "name": "G2",
          "midi": 43,
          "time": 40.73163399999986,
          "velocity": 1,
          "duration": 0.2439019999999985
        },
        {
          "name": "D2",
          "midi": 38,
          "time": 40.975535999999856,
          "velocity": 1,
          "duration": 0.2439019999999985
        },
        {
          "name": "G2",
          "midi": 43,
          "time": 40.975535999999856,
          "velocity": 1,
          "duration": 0.2439019999999985
        },
        {
          "name": "C2",
          "midi": 36,
          "time": 41.219437999999855,
          "velocity": 1,
          "duration": 0.487803999999997
        },
        {
          "name": "G2",
          "midi": 43,
          "time": 41.219437999999855,
          "velocity": 1,
          "duration": 0.2439019999999985
        },
        {
          "name": "G2",
          "midi": 43,
          "time": 41.46333999999985,
          "velocity": 1,
          "duration": 0.2439019999999985
        },
        {
          "name": "C2",
          "midi": 36,
          "time": 41.70724199999985,
          "velocity": 1,
          "duration": 0.487803999999997
        },
        {
          "name": "G2",
          "midi": 43,
          "time": 41.70724199999985,
          "velocity": 1,
          "duration": 0.2439019999999985
        },
        {
          "name": "C3",
          "midi": 48,
          "time": 41.95114399999985,
          "velocity": 1,
          "duration": 0.2439019999999985
        },
        {
          "name": "G2",
          "midi": 43,
          "time": 41.95114399999985,
          "velocity": 1,
          "duration": 0.2439019999999985
        },
        {
          "name": "C2",
          "midi": 36,
          "time": 42.19504599999985,
          "velocity": 1,
          "duration": 0.487803999999997
        },
        {
          "name": "G2",
          "midi": 43,
          "time": 42.19504599999985,
          "velocity": 1,
          "duration": 0.2439019999999985
        },
        {
          "name": "G2",
          "midi": 43,
          "time": 42.43894799999985,
          "velocity": 1,
          "duration": 0.2439019999999985
        },
        {
          "name": "C2",
          "midi": 36,
          "time": 42.682849999999846,
          "velocity": 1,
          "duration": 0.487803999999997
        },
        {
          "name": "C3",
          "midi": 48,
          "time": 42.682849999999846,
          "velocity": 1,
          "duration": 0.2439019999999985
        },
        {
          "name": "G2",
          "midi": 43,
          "time": 42.682849999999846,
          "velocity": 1,
          "duration": 0.2439019999999985
        },
        {
          "name": "D2",
          "midi": 38,
          "time": 42.926751999999844,
          "velocity": 1,
          "duration": 0.2439019999999985
        },
        {
          "name": "G2",
          "midi": 43,
          "time": 42.926751999999844,
          "velocity": 1,
          "duration": 0.2439019999999985
        },
        {
          "name": "C2",
          "midi": 36,
          "time": 43.17065399999984,
          "velocity": 1,
          "duration": 0.487803999999997
        },
        {
          "name": "G2",
          "midi": 43,
          "time": 43.17065399999984,
          "velocity": 1,
          "duration": 0.2439019999999985
        },
        {
          "name": "G2",
          "midi": 43,
          "time": 43.41455599999984,
          "velocity": 1,
          "duration": 0.2439019999999985
        },
        {
          "name": "C2",
          "midi": 36,
          "time": 43.65845799999984,
          "velocity": 1,
          "duration": 0.487803999999997
        },
        {
          "name": "G2",
          "midi": 43,
          "time": 43.65845799999984,
          "velocity": 1,
          "duration": 0.2439019999999985
        },
        {
          "name": "C3",
          "midi": 48,
          "time": 43.90235999999984,
          "velocity": 1,
          "duration": 0.2439019999999985
        },
        {
          "name": "G2",
          "midi": 43,
          "time": 43.90235999999984,
          "velocity": 1,
          "duration": 0.2439019999999985
        },
        {
          "name": "C2",
          "midi": 36,
          "time": 44.14626199999984,
          "velocity": 1,
          "duration": 0.487803999999997
        },
        {
          "name": "G2",
          "midi": 43,
          "time": 44.14626199999984,
          "velocity": 1,
          "duration": 0.2439019999999985
        },
        {
          "name": "G2",
          "midi": 43,
          "time": 44.390163999999835,
          "velocity": 1,
          "duration": 0.2439019999999985
        },
        {
          "name": "C2",
          "midi": 36,
          "time": 44.634065999999834,
          "velocity": 1,
          "duration": 0.487803999999997
        },
        {
          "name": "C3",
          "midi": 48,
          "time": 44.634065999999834,
          "velocity": 1,
          "duration": 0.2439019999999985
        },
        {
          "name": "G2",
          "midi": 43,
          "time": 44.634065999999834,
          "velocity": 1,
          "duration": 0.2439019999999985
        },
        {
          "name": "D2",
          "midi": 38,
          "time": 44.87796799999983,
          "velocity": 1,
          "duration": 0.2439019999999985
        },
        {
          "name": "G2",
          "midi": 43,
          "time": 44.87796799999983,
          "velocity": 1,
          "duration": 0.2439019999999985
        },
        {
          "name": "G2",
          "midi": 43,
          "time": 45.12186999999983,
          "velocity": 1,
          "duration": 0.2439019999999985
        },
        {
          "name": "C2",
          "midi": 36,
          "time": 45.12186999999983,
          "velocity": 1,
          "duration": 0.487803999999997
        },
        {
          "name": "G2",
          "midi": 43,
          "time": 45.36577199999983,
          "velocity": 1,
          "duration": 0.2439019999999985
        },
        {
          "name": "G2",
          "midi": 43,
          "time": 45.60967399999983,
          "velocity": 1,
          "duration": 0.2439019999999985
        },
        {
          "name": "C2",
          "midi": 36,
          "time": 45.60967399999983,
          "velocity": 1,
          "duration": 0.487803999999997
        },
        {
          "name": "C3",
          "midi": 48,
          "time": 45.853575999999826,
          "velocity": 1,
          "duration": 0.2439019999999985
        },
        {
          "name": "G2",
          "midi": 43,
          "time": 45.853575999999826,
          "velocity": 1,
          "duration": 0.2439019999999985
        },
        {
          "name": "G2",
          "midi": 43,
          "time": 46.097477999999825,
          "velocity": 1,
          "duration": 0.2439019999999985
        },
        {
          "name": "C2",
          "midi": 36,
          "time": 46.097477999999825,
          "velocity": 1,
          "duration": 0.487803999999997
        },
        {
          "name": "G2",
          "midi": 43,
          "time": 46.34137999999982,
          "velocity": 1,
          "duration": 0.2439019999999985
        },
        {
          "name": "G2",
          "midi": 43,
          "time": 46.58528199999982,
          "velocity": 1,
          "duration": 0.2439019999999985
        },
        {
          "name": "C2",
          "midi": 36,
          "time": 46.58528199999982,
          "velocity": 1,
          "duration": 0.487803999999997
        },
        {
          "name": "A3",
          "midi": 57,
          "time": 46.82918399999982,
          "velocity": 1,
          "duration": 0.2439019999999985
        },
        {
          "name": "D2",
          "midi": 38,
          "time": 46.82918399999982,
          "velocity": 1,
          "duration": 0.2439019999999985
        },
        {
          "name": "C2",
          "midi": 36,
          "time": 47.07308599999982,
          "velocity": 1,
          "duration": 0.487803999999997
        },
        {
          "name": "G2",
          "midi": 43,
          "time": 47.07308599999982,
          "velocity": 1,
          "duration": 0.2439019999999985
        },
        {
          "name": "G2",
          "midi": 43,
          "time": 47.31698799999982,
          "velocity": 1,
          "duration": 0.2439019999999985
        },
        {
          "name": "C2",
          "midi": 36,
          "time": 47.560889999999816,
          "velocity": 1,
          "duration": 0.487803999999997
        },
        {
          "name": "G2",
          "midi": 43,
          "time": 47.560889999999816,
          "velocity": 1,
          "duration": 0.2439019999999985
        },
        {
          "name": "C3",
          "midi": 48,
          "time": 47.804791999999814,
          "velocity": 1,
          "duration": 0.2439019999999985
        },
        {
          "name": "G2",
          "midi": 43,
          "time": 47.804791999999814,
          "velocity": 1,
          "duration": 0.2439019999999985
        },
        {
          "name": "C2",
          "midi": 36,
          "time": 48.04869399999981,
          "velocity": 1,
          "duration": 0.487803999999997
        },
        {
          "name": "G2",
          "midi": 43,
          "time": 48.04869399999981,
          "velocity": 1,
          "duration": 0.2439019999999985
        },
        {
          "name": "G2",
          "midi": 43,
          "time": 48.29259599999981,
          "velocity": 1,
          "duration": 0.2439019999999985
        },
        {
          "name": "C2",
          "midi": 36,
          "time": 48.53649799999981,
          "velocity": 1,
          "duration": 0.487803999999997
        },
        {
          "name": "C3",
          "midi": 48,
          "time": 48.53649799999981,
          "velocity": 1,
          "duration": 0.2439019999999985
        },
        {
          "name": "G2",
          "midi": 43,
          "time": 48.53649799999981,
          "velocity": 1,
          "duration": 0.2439019999999985
        },
        {
          "name": "D2",
          "midi": 38,
          "time": 48.78039999999981,
          "velocity": 1,
          "duration": 0.2439019999999985
        },
        {
          "name": "G2",
          "midi": 43,
          "time": 48.78039999999981,
          "velocity": 1,
          "duration": 0.2439019999999985
        },
        {
          "name": "C2",
          "midi": 36,
          "time": 49.02430199999981,
          "velocity": 1,
          "duration": 0.487803999999997
        },
        {
          "name": "G2",
          "midi": 43,
          "time": 49.02430199999981,
          "velocity": 1,
          "duration": 0.2439019999999985
        },
        {
          "name": "G2",
          "midi": 43,
          "time": 49.268203999999805,
          "velocity": 1,
          "duration": 0.2439019999999985
        },
        {
          "name": "C2",
          "midi": 36,
          "time": 49.512105999999804,
          "velocity": 1,
          "duration": 0.487803999999997
        },
        {
          "name": "G2",
          "midi": 43,
          "time": 49.512105999999804,
          "velocity": 1,
          "duration": 0.2439019999999985
        },
        {
          "name": "C3",
          "midi": 48,
          "time": 49.7560079999998,
          "velocity": 1,
          "duration": 0.2439019999999985
        },
        {
          "name": "G2",
          "midi": 43,
          "time": 49.7560079999998,
          "velocity": 1,
          "duration": 0.2439019999999985
        },
        {
          "name": "C2",
          "midi": 36,
          "time": 49.9999099999998,
          "velocity": 1,
          "duration": 0.487803999999997
        },
        {
          "name": "G2",
          "midi": 43,
          "time": 49.9999099999998,
          "velocity": 1,
          "duration": 0.2439019999999985
        },
        {
          "name": "G2",
          "midi": 43,
          "time": 50.2438119999998,
          "velocity": 1,
          "duration": 0.2439019999999985
        },
        {
          "name": "C2",
          "midi": 36,
          "time": 50.4877139999998,
          "velocity": 1,
          "duration": 0.487803999999997
        },
        {
          "name": "C3",
          "midi": 48,
          "time": 50.4877139999998,
          "velocity": 1,
          "duration": 0.2439019999999985
        },
        {
          "name": "G2",
          "midi": 43,
          "time": 50.4877139999998,
          "velocity": 1,
          "duration": 0.2439019999999985
        },
        {
          "name": "D2",
          "midi": 38,
          "time": 50.731615999999796,
          "velocity": 1,
          "duration": 0.2439019999999985
        },
        {
          "name": "G2",
          "midi": 43,
          "time": 50.731615999999796,
          "velocity": 1,
          "duration": 0.2439019999999985
        },
        {
          "name": "D3",
          "midi": 50,
          "time": 50.975517999999795,
          "velocity": 1,
          "duration": 0.2439019999999985
        },
        {
          "name": "D2",
          "midi": 38,
          "time": 50.975517999999795,
          "velocity": 1,
          "duration": 0.2439019999999985
        },
        {
          "name": "C2",
          "midi": 36,
          "time": 50.975517999999795,
          "velocity": 1,
          "duration": 0.487803999999997
        },
        {
          "name": "D3",
          "midi": 50,
          "time": 51.21941999999979,
          "velocity": 1,
          "duration": 0.2439019999999985
        },
        {
          "name": "D2",
          "midi": 38,
          "time": 51.21941999999979,
          "velocity": 1,
          "duration": 0.2439019999999985
        },
        {
          "name": "D3",
          "midi": 50,
          "time": 51.46332199999979,
          "velocity": 1,
          "duration": 0.2439019999999985
        },
        {
          "name": "D2",
          "midi": 38,
          "time": 51.46332199999979,
          "velocity": 1,
          "duration": 0.2439019999999985
        },
        {
          "name": "C2",
          "midi": 36,
          "time": 51.46332199999979,
          "velocity": 1,
          "duration": 0.487803999999997
        },
        {
          "name": "D3",
          "midi": 50,
          "time": 51.70722399999979,
          "velocity": 1,
          "duration": 0.2439019999999985
        },
        {
          "name": "D2",
          "midi": 38,
          "time": 51.70722399999979,
          "velocity": 1,
          "duration": 0.2439019999999985
        },
        {
          "name": "D3",
          "midi": 50,
          "time": 51.95112599999979,
          "velocity": 1,
          "duration": 0.2439019999999985
        },
        {
          "name": "D2",
          "midi": 38,
          "time": 51.95112599999979,
          "velocity": 1,
          "duration": 0.2439019999999985
        },
        {
          "name": "C2",
          "midi": 36,
          "time": 51.95112599999979,
          "velocity": 1,
          "duration": 0.487803999999997
        },
        {
          "name": "D3",
          "midi": 50,
          "time": 52.19502799999979,
          "velocity": 1,
          "duration": 0.2439019999999985
        },
        {
          "name": "D2",
          "midi": 38,
          "time": 52.19502799999979,
          "velocity": 1,
          "duration": 0.2439019999999985
        },
        {
          "name": "D3",
          "midi": 50,
          "time": 52.438929999999786,
          "velocity": 1,
          "duration": 0.2439019999999985
        },
        {
          "name": "D2",
          "midi": 38,
          "time": 52.438929999999786,
          "velocity": 1,
          "duration": 0.2439019999999985
        },
        {
          "name": "C2",
          "midi": 36,
          "time": 52.438929999999786,
          "velocity": 1,
          "duration": 0.487803999999997
        },
        {
          "name": "D3",
          "midi": 50,
          "time": 52.682831999999785,
          "velocity": 1,
          "duration": 0.2439019999999985
        },
        {
          "name": "D2",
          "midi": 38,
          "time": 52.682831999999785,
          "velocity": 1,
          "duration": 0.2439019999999985
        },
        {
          "name": "D3",
          "midi": 50,
          "time": 52.92673399999978,
          "velocity": 1,
          "duration": 0.2439019999999985
        },
        {
          "name": "D2",
          "midi": 38,
          "time": 52.92673399999978,
          "velocity": 1,
          "duration": 0.2439019999999985
        },
        {
          "name": "C2",
          "midi": 36,
          "time": 52.92673399999978,
          "velocity": 1,
          "duration": 0.487803999999997
        },
        {
          "name": "D3",
          "midi": 50,
          "time": 53.17063599999978,
          "velocity": 1,
          "duration": 0.2439019999999985
        },
        {
          "name": "D2",
          "midi": 38,
          "time": 53.17063599999978,
          "velocity": 1,
          "duration": 0.2439019999999985
        },
        {
          "name": "D3",
          "midi": 50,
          "time": 53.41453799999978,
          "velocity": 1,
          "duration": 0.2439019999999985
        },
        {
          "name": "D2",
          "midi": 38,
          "time": 53.41453799999978,
          "velocity": 1,
          "duration": 0.2439019999999985
        },
        {
          "name": "C2",
          "midi": 36,
          "time": 53.41453799999978,
          "velocity": 1,
          "duration": 0.487803999999997
        },
        {
          "name": "D3",
          "midi": 50,
          "time": 53.65843999999978,
          "velocity": 1,
          "duration": 0.2439019999999985
        },
        {
          "name": "D2",
          "midi": 38,
          "time": 53.65843999999978,
          "velocity": 1,
          "duration": 0.2439019999999985
        },
        {
          "name": "D3",
          "midi": 50,
          "time": 53.90234199999978,
          "velocity": 1,
          "duration": 0.2439019999999985
        },
        {
          "name": "D2",
          "midi": 38,
          "time": 53.90234199999978,
          "velocity": 1,
          "duration": 0.2439019999999985
        },
        {
          "name": "C2",
          "midi": 36,
          "time": 53.90234199999978,
          "velocity": 1,
          "duration": 0.487803999999997
        },
        {
          "name": "D3",
          "midi": 50,
          "time": 54.146243999999776,
          "velocity": 1,
          "duration": 0.2439019999999985
        },
        {
          "name": "D2",
          "midi": 38,
          "time": 54.146243999999776,
          "velocity": 1,
          "duration": 0.2439019999999985
        },
        {
          "name": "D3",
          "midi": 50,
          "time": 54.390145999999774,
          "velocity": 1,
          "duration": 0.2439019999999985
        },
        {
          "name": "D2",
          "midi": 38,
          "time": 54.390145999999774,
          "velocity": 1,
          "duration": 0.2439019999999985
        },
        {
          "name": "C2",
          "midi": 36,
          "time": 54.63404799999977,
          "velocity": 1,
          "duration": 0.2439019999999985
        },
        {
          "name": "A3",
          "midi": 57,
          "time": 54.63404799999977,
          "velocity": 1,
          "duration": 0.2439019999999985
        },
        {
          "name": "F#2",
          "midi": 42,
          "time": 55.12185199999977,
          "velocity": 1,
          "duration": 0.2439019999999985
        },
        {
          "name": "F#2",
          "midi": 42,
          "time": 55.36575399999977,
          "velocity": 1,
          "duration": 0.2439019999999985
        },
        {
          "name": "D2",
          "midi": 38,
          "time": 55.60965599999977,
          "velocity": 1,
          "duration": 0.2439019999999985
        },
        {
          "name": "F#2",
          "midi": 42,
          "time": 55.60965599999977,
          "velocity": 1,
          "duration": 0.2439019999999985
        },
        {
          "name": "C2",
          "midi": 36,
          "time": 55.853557999999765,
          "velocity": 1,
          "duration": 0.487803999999997
        },
        {
          "name": "F#2",
          "midi": 42,
          "time": 55.853557999999765,
          "velocity": 1,
          "duration": 0.2439019999999985
        },
        {
          "name": "F#2",
          "midi": 42,
          "time": 56.097459999999764,
          "velocity": 1,
          "duration": 0.2439019999999985
        },
        {
          "name": "D2",
          "midi": 38,
          "time": 56.34136199999976,
          "velocity": 1,
          "duration": 0.2439019999999985
        },
        {
          "name": "F#2",
          "midi": 42,
          "time": 56.34136199999976,
          "velocity": 1,
          "duration": 0.2439019999999985
        },
        {
          "name": "F#2",
          "midi": 42,
          "time": 56.58526399999976,
          "velocity": 1,
          "duration": 0.2439019999999985
        },
        {
          "name": "C2",
          "midi": 36,
          "time": 56.82916599999976,
          "velocity": 1,
          "duration": 0.487803999999997
        },
        {
          "name": "F#2",
          "midi": 42,
          "time": 56.82916599999976,
          "velocity": 1,
          "duration": 0.2439019999999985
        },
        {
          "name": "F#2",
          "midi": 42,
          "time": 57.07306799999976,
          "velocity": 1,
          "duration": 0.2439019999999985
        },
        {
          "name": "D2",
          "midi": 38,
          "time": 57.316969999999756,
          "velocity": 1,
          "duration": 0.2439019999999985
        },
        {
          "name": "F#2",
          "midi": 42,
          "time": 57.316969999999756,
          "velocity": 1,
          "duration": 0.2439019999999985
        },
        {
          "name": "F#2",
          "midi": 42,
          "time": 57.560871999999755,
          "velocity": 1,
          "duration": 0.2439019999999985
        },
        {
          "name": "C2",
          "midi": 36,
          "time": 57.80477399999975,
          "velocity": 1,
          "duration": 0.487803999999997
        },
        {
          "name": "F#2",
          "midi": 42,
          "time": 57.80477399999975,
          "velocity": 1,
          "duration": 0.2439019999999985
        },
        {
          "name": "F#2",
          "midi": 42,
          "time": 58.04867599999975,
          "velocity": 1,
          "duration": 0.2439019999999985
        },
        {
          "name": "D2",
          "midi": 38,
          "time": 58.29257799999975,
          "velocity": 1,
          "duration": 0.2439019999999985
        },
        {
          "name": "F#2",
          "midi": 42,
          "time": 58.29257799999975,
          "velocity": 1,
          "duration": 0.2439019999999985
        },
        {
          "name": "F#2",
          "midi": 42,
          "time": 58.53647999999975,
          "velocity": 1,
          "duration": 0.2439019999999985
        },
        {
          "name": "C2",
          "midi": 36,
          "time": 58.78038199999975,
          "velocity": 1,
          "duration": 0.487803999999997
        },
        {
          "name": "F#2",
          "midi": 42,
          "time": 58.78038199999975,
          "velocity": 1,
          "duration": 0.2439019999999985
        },
        {
          "name": "F#2",
          "midi": 42,
          "time": 59.024283999999746,
          "velocity": 1,
          "duration": 0.2439019999999985
        },
        {
          "name": "D2",
          "midi": 38,
          "time": 59.268185999999744,
          "velocity": 1,
          "duration": 0.2439019999999985
        },
        {
          "name": "F#2",
          "midi": 42,
          "time": 59.268185999999744,
          "velocity": 1,
          "duration": 0.2439019999999985
        },
        {
          "name": "F#2",
          "midi": 42,
          "time": 59.51208799999974,
          "velocity": 1,
          "duration": 0.2439019999999985
        },
        {
          "name": "C2",
          "midi": 36,
          "time": 59.75598999999974,
          "velocity": 1,
          "duration": 0.487803999999997
        },
        {
          "name": "F#2",
          "midi": 42,
          "time": 59.75598999999974,
          "velocity": 1,
          "duration": 0.2439019999999985
        },
        {
          "name": "F#2",
          "midi": 42,
          "time": 59.99989199999974,
          "velocity": 1,
          "duration": 0.2439019999999985
        },
        {
          "name": "D2",
          "midi": 38,
          "time": 60.24379399999974,
          "velocity": 1,
          "duration": 0.2439019999999985
        },
        {
          "name": "F#2",
          "midi": 42,
          "time": 60.24379399999974,
          "velocity": 1,
          "duration": 0.2439019999999985
        },
        {
          "name": "F#2",
          "midi": 42,
          "time": 60.48769599999974,
          "velocity": 1,
          "duration": 0.2439019999999985
        },
        {
          "name": "C2",
          "midi": 36,
          "time": 60.731597999999735,
          "velocity": 1,
          "duration": 0.487803999999997
        },
        {
          "name": "F#2",
          "midi": 42,
          "time": 60.731597999999735,
          "velocity": 1,
          "duration": 0.2439019999999985
        },
        {
          "name": "F#2",
          "midi": 42,
          "time": 60.975499999999734,
          "velocity": 1,
          "duration": 0.2439019999999985
        },
        {
          "name": "D2",
          "midi": 38,
          "time": 61.21940199999973,
          "velocity": 1,
          "duration": 0.2439019999999985
        },
        {
          "name": "F#2",
          "midi": 42,
          "time": 61.21940199999973,
          "velocity": 1,
          "duration": 0.2439019999999985
        },
        {
          "name": "F#2",
          "midi": 42,
          "time": 61.46330399999973,
          "velocity": 1,
          "duration": 0.2439019999999985
        },
        {
          "name": "C2",
          "midi": 36,
          "time": 61.70720599999973,
          "velocity": 1,
          "duration": 0.487803999999997
        },
        {
          "name": "F#2",
          "midi": 42,
          "time": 61.70720599999973,
          "velocity": 1,
          "duration": 0.2439019999999985
        },
        {
          "name": "F#2",
          "midi": 42,
          "time": 61.95110799999973,
          "velocity": 1,
          "duration": 0.2439019999999985
        },
        {
          "name": "D2",
          "midi": 38,
          "time": 62.195009999999726,
          "velocity": 1,
          "duration": 0.2439019999999985
        },
        {
          "name": "F#2",
          "midi": 42,
          "time": 62.195009999999726,
          "velocity": 1,
          "duration": 0.2439019999999985
        },
        {
          "name": "A3",
          "midi": 57,
          "time": 62.438911999999725,
          "velocity": 1,
          "duration": 0.2439019999999985
        },
        {
          "name": "C2",
          "midi": 36,
          "time": 62.438911999999725,
          "velocity": 1,
          "duration": 0.2439019999999985
        },
        {
          "name": "F#2",
          "midi": 42,
          "time": 62.68281399999972,
          "velocity": 1,
          "duration": 0.2439019999999985
        },
        {
          "name": "F#2",
          "midi": 42,
          "time": 62.92671599999972,
          "velocity": 1,
          "duration": 0.2439019999999985
        },
        {
          "name": "D2",
          "midi": 38,
          "time": 63.17061799999972,
          "velocity": 1,
          "duration": 0.2439019999999985
        },
        {
          "name": "F#2",
          "midi": 42,
          "time": 63.17061799999972,
          "velocity": 1,
          "duration": 0.2439019999999985
        },
        {
          "name": "F#2",
          "midi": 42,
          "time": 63.41451999999972,
          "velocity": 1,
          "duration": 0.2439019999999985
        },
        {
          "name": "C2",
          "midi": 36,
          "time": 63.65842199999972,
          "velocity": 1,
          "duration": 0.487803999999997
        },
        {
          "name": "F#2",
          "midi": 42,
          "time": 63.65842199999972,
          "velocity": 1,
          "duration": 0.2439019999999985
        },
        {
          "name": "F#2",
          "midi": 42,
          "time": 63.902323999999716,
          "velocity": 1,
          "duration": 0.2439019999999985
        },
        {
          "name": "D2",
          "midi": 38,
          "time": 64.14622599999971,
          "velocity": 1,
          "duration": 0.24390200000000561
        },
        {
          "name": "F#2",
          "midi": 42,
          "time": 64.14622599999971,
          "velocity": 1,
          "duration": 0.24390200000000561
        },
        {
          "name": "F#2",
          "midi": 42,
          "time": 64.39012799999972,
          "velocity": 1,
          "duration": 0.24390200000000561
        },
        {
          "name": "C2",
          "midi": 36,
          "time": 64.63402999999973,
          "velocity": 1,
          "duration": 0.48780400000001123
        },
        {
          "name": "F#2",
          "midi": 42,
          "time": 64.63402999999973,
          "velocity": 1,
          "duration": 0.24390200000000561
        },
        {
          "name": "F#2",
          "midi": 42,
          "time": 64.87793199999973,
          "velocity": 1,
          "duration": 0.24390200000000561
        },
        {
          "name": "D2",
          "midi": 38,
          "time": 65.12183399999974,
          "velocity": 1,
          "duration": 0.24390200000000561
        },
        {
          "name": "F#2",
          "midi": 42,
          "time": 65.12183399999974,
          "velocity": 1,
          "duration": 0.24390200000000561
        },
        {
          "name": "F#2",
          "midi": 42,
          "time": 65.36573599999974,
          "velocity": 1,
          "duration": 0.24390200000000561
        },
        {
          "name": "C2",
          "midi": 36,
          "time": 65.60963799999975,
          "velocity": 1,
          "duration": 0.48780400000001123
        },
        {
          "name": "F#2",
          "midi": 42,
          "time": 65.60963799999975,
          "velocity": 1,
          "duration": 0.24390200000000561
        },
        {
          "name": "F#2",
          "midi": 42,
          "time": 65.85353999999975,
          "velocity": 1,
          "duration": 0.24390200000000561
        },
        {
          "name": "D2",
          "midi": 38,
          "time": 66.09744199999976,
          "velocity": 1,
          "duration": 0.24390200000000561
        },
        {
          "name": "F#2",
          "midi": 42,
          "time": 66.09744199999976,
          "velocity": 1,
          "duration": 0.24390200000000561
        },
        {
          "name": "F#2",
          "midi": 42,
          "time": 66.34134399999976,
          "velocity": 1,
          "duration": 0.24390200000000561
        },
        {
          "name": "C2",
          "midi": 36,
          "time": 66.58524599999977,
          "velocity": 1,
          "duration": 0.48780400000001123
        },
        {
          "name": "F#2",
          "midi": 42,
          "time": 66.58524599999977,
          "velocity": 1,
          "duration": 0.24390200000000561
        },
        {
          "name": "F#2",
          "midi": 42,
          "time": 66.82914799999978,
          "velocity": 1,
          "duration": 0.24390200000000561
        },
        {
          "name": "D2",
          "midi": 38,
          "time": 67.07304999999978,
          "velocity": 1,
          "duration": 0.24390200000000561
        },
        {
          "name": "F#2",
          "midi": 42,
          "time": 67.07304999999978,
          "velocity": 1,
          "duration": 0.24390200000000561
        },
        {
          "name": "F#2",
          "midi": 42,
          "time": 67.31695199999979,
          "velocity": 1,
          "duration": 0.24390200000000561
        },
        {
          "name": "C2",
          "midi": 36,
          "time": 67.5608539999998,
          "velocity": 1,
          "duration": 0.48780400000001123
        },
        {
          "name": "F#2",
          "midi": 42,
          "time": 67.5608539999998,
          "velocity": 1,
          "duration": 0.24390200000000561
        },
        {
          "name": "F#2",
          "midi": 42,
          "time": 67.8047559999998,
          "velocity": 1,
          "duration": 0.24390200000000561
        },
        {
          "name": "D2",
          "midi": 38,
          "time": 68.0486579999998,
          "velocity": 1,
          "duration": 0.24390200000000561
        },
        {
          "name": "F#2",
          "midi": 42,
          "time": 68.0486579999998,
          "velocity": 1,
          "duration": 0.24390200000000561
        },
        {
          "name": "F#2",
          "midi": 42,
          "time": 68.29255999999981,
          "velocity": 1,
          "duration": 0.24390200000000561
        },
        {
          "name": "C2",
          "midi": 36,
          "time": 68.53646199999982,
          "velocity": 1,
          "duration": 0.48780400000001123
        },
        {
          "name": "F#2",
          "midi": 42,
          "time": 68.53646199999982,
          "velocity": 1,
          "duration": 0.24390200000000561
        },
        {
          "name": "F#2",
          "midi": 42,
          "time": 68.78036399999982,
          "velocity": 1,
          "duration": 0.24390200000000561
        },
        {
          "name": "D2",
          "midi": 38,
          "time": 69.02426599999983,
          "velocity": 1,
          "duration": 0.24390200000000561
        },
        {
          "name": "F#2",
          "midi": 42,
          "time": 69.02426599999983,
          "velocity": 1,
          "duration": 0.24390200000000561
        },
        {
          "name": "F#2",
          "midi": 42,
          "time": 69.26816799999983,
          "velocity": 1,
          "duration": 0.24390200000000561
        },
        {
          "name": "C2",
          "midi": 36,
          "time": 69.51206999999984,
          "velocity": 1,
          "duration": 0.48780400000001123
        },
        {
          "name": "F#2",
          "midi": 42,
          "time": 69.51206999999984,
          "velocity": 1,
          "duration": 0.24390200000000561
        },
        {
          "name": "F#2",
          "midi": 42,
          "time": 69.75597199999984,
          "velocity": 1,
          "duration": 0.24390200000000561
        },
        {
          "name": "D2",
          "midi": 38,
          "time": 69.99987399999985,
          "velocity": 1,
          "duration": 0.24390200000000561
        },
        {
          "name": "F#2",
          "midi": 42,
          "time": 69.99987399999985,
          "velocity": 1,
          "duration": 0.24390200000000561
        },
        {
          "name": "C2",
          "midi": 36,
          "time": 70.24377599999985,
          "velocity": 1,
          "duration": 0.24390200000000561
        },
        {
          "name": "A3",
          "midi": 57,
          "time": 70.24377599999985,
          "velocity": 1,
          "duration": 0.24390200000000561
        },
        {
          "name": "F#2",
          "midi": 42,
          "time": 70.48767799999986,
          "velocity": 1,
          "duration": 0.24390200000000561
        },
        {
          "name": "F#2",
          "midi": 42,
          "time": 70.73157999999987,
          "velocity": 1,
          "duration": 0.24390200000000561
        },
        {
          "name": "D2",
          "midi": 38,
          "time": 70.97548199999987,
          "velocity": 1,
          "duration": 0.24390200000000561
        },
        {
          "name": "F#2",
          "midi": 42,
          "time": 70.97548199999987,
          "velocity": 1,
          "duration": 0.24390200000000561
        },
        {
          "name": "F#2",
          "midi": 42,
          "time": 71.21938399999988,
          "velocity": 1,
          "duration": 0.24390200000000561
        },
        {
          "name": "C2",
          "midi": 36,
          "time": 71.46328599999988,
          "velocity": 1,
          "duration": 0.48780400000001123
        },
        {
          "name": "F#2",
          "midi": 42,
          "time": 71.46328599999988,
          "velocity": 1,
          "duration": 0.24390200000000561
        },
        {
          "name": "F#2",
          "midi": 42,
          "time": 71.70718799999989,
          "velocity": 1,
          "duration": 0.24390200000000561
        },
        {
          "name": "D2",
          "midi": 38,
          "time": 71.9510899999999,
          "velocity": 1,
          "duration": 0.24390200000000561
        },
        {
          "name": "F#2",
          "midi": 42,
          "time": 71.9510899999999,
          "velocity": 1,
          "duration": 0.24390200000000561
        },
        {
          "name": "F#2",
          "midi": 42,
          "time": 72.1949919999999,
          "velocity": 1,
          "duration": 0.24390200000000561
        },
        {
          "name": "C2",
          "midi": 36,
          "time": 72.4388939999999,
          "velocity": 1,
          "duration": 0.48780400000001123
        },
        {
          "name": "F#2",
          "midi": 42,
          "time": 72.4388939999999,
          "velocity": 1,
          "duration": 0.24390200000000561
        },
        {
          "name": "F#2",
          "midi": 42,
          "time": 72.68279599999991,
          "velocity": 1,
          "duration": 0.24390200000000561
        },
        {
          "name": "D2",
          "midi": 38,
          "time": 72.92669799999992,
          "velocity": 1,
          "duration": 0.24390200000000561
        },
        {
          "name": "F#2",
          "midi": 42,
          "time": 72.92669799999992,
          "velocity": 1,
          "duration": 0.24390200000000561
        },
        {
          "name": "F#2",
          "midi": 42,
          "time": 73.17059999999992,
          "velocity": 1,
          "duration": 0.24390200000000561
        },
        {
          "name": "C2",
          "midi": 36,
          "time": 73.41450199999993,
          "velocity": 1,
          "duration": 0.48780400000001123
        },
        {
          "name": "F#2",
          "midi": 42,
          "time": 73.41450199999993,
          "velocity": 1,
          "duration": 0.24390200000000561
        },
        {
          "name": "F#2",
          "midi": 42,
          "time": 73.65840399999993,
          "velocity": 1,
          "duration": 0.24390200000000561
        },
        {
          "name": "D2",
          "midi": 38,
          "time": 73.90230599999994,
          "velocity": 1,
          "duration": 0.24390200000000561
        },
        {
          "name": "F#2",
          "midi": 42,
          "time": 73.90230599999994,
          "velocity": 1,
          "duration": 0.24390200000000561
        },
        {
          "name": "F#2",
          "midi": 42,
          "time": 74.14620799999994,
          "velocity": 1,
          "duration": 0.24390200000000561
        },
        {
          "name": "C2",
          "midi": 36,
          "time": 74.39010999999995,
          "velocity": 1,
          "duration": 0.48780400000001123
        },
        {
          "name": "F#2",
          "midi": 42,
          "time": 74.39010999999995,
          "velocity": 1,
          "duration": 0.24390200000000561
        },
        {
          "name": "F#2",
          "midi": 42,
          "time": 74.63401199999996,
          "velocity": 1,
          "duration": 0.24390200000000561
        },
        {
          "name": "D2",
          "midi": 38,
          "time": 74.87791399999996,
          "velocity": 1,
          "duration": 0.24390200000000561
        },
        {
          "name": "F#2",
          "midi": 42,
          "time": 74.87791399999996,
          "velocity": 1,
          "duration": 0.24390200000000561
        },
        {
          "name": "F#2",
          "midi": 42,
          "time": 75.12181599999997,
          "velocity": 1,
          "duration": 0.24390200000000561
        },
        {
          "name": "C2",
          "midi": 36,
          "time": 75.36571799999997,
          "velocity": 1,
          "duration": 0.48780400000001123
        },
        {
          "name": "F#2",
          "midi": 42,
          "time": 75.36571799999997,
          "velocity": 1,
          "duration": 0.24390200000000561
        },
        {
          "name": "F#2",
          "midi": 42,
          "time": 75.60961999999998,
          "velocity": 1,
          "duration": 0.24390200000000561
        },
        {
          "name": "D2",
          "midi": 38,
          "time": 75.85352199999998,
          "velocity": 1,
          "duration": 0.24390200000000561
        },
        {
          "name": "F#2",
          "midi": 42,
          "time": 75.85352199999998,
          "velocity": 1,
          "duration": 0.24390200000000561
        },
        {
          "name": "F#2",
          "midi": 42,
          "time": 76.09742399999999,
          "velocity": 1,
          "duration": 0.24390200000000561
        },
        {
          "name": "C2",
          "midi": 36,
          "time": 76.341326,
          "velocity": 1,
          "duration": 0.48780400000001123
        },
        {
          "name": "F#2",
          "midi": 42,
          "time": 76.341326,
          "velocity": 1,
          "duration": 0.24390200000000561
        },
        {
          "name": "F#2",
          "midi": 42,
          "time": 76.585228,
          "velocity": 1,
          "duration": 0.24390200000000561
        },
        {
          "name": "D2",
          "midi": 38,
          "time": 76.82913,
          "velocity": 1,
          "duration": 0.24390200000000561
        },
        {
          "name": "F#2",
          "midi": 42,
          "time": 76.82913,
          "velocity": 1,
          "duration": 0.24390200000000561
        },
        {
          "name": "F#2",
          "midi": 42,
          "time": 77.07303200000001,
          "velocity": 1,
          "duration": 0.24390200000000561
        },
        {
          "name": "C2",
          "midi": 36,
          "time": 77.31693400000002,
          "velocity": 1,
          "duration": 0.48780400000001123
        },
        {
          "name": "F#2",
          "midi": 42,
          "time": 77.31693400000002,
          "velocity": 1,
          "duration": 0.24390200000000561
        },
        {
          "name": "F#2",
          "midi": 42,
          "time": 77.56083600000002,
          "velocity": 1,
          "duration": 0.24390200000000561
        },
        {
          "name": "D2",
          "midi": 38,
          "time": 77.80473800000003,
          "velocity": 1,
          "duration": 0.24390200000000561
        },
        {
          "name": "F#2",
          "midi": 42,
          "time": 77.80473800000003,
          "velocity": 1,
          "duration": 0.24390200000000561
        },
        {
          "name": "C2",
          "midi": 36,
          "time": 78.04864000000003,
          "velocity": 1,
          "duration": 0.24390200000000561
        },
        {
          "name": "A3",
          "midi": 57,
          "time": 78.04864000000003,
          "velocity": 1,
          "duration": 0.24390200000000561
        },
        {
          "name": "F#2",
          "midi": 42,
          "time": 78.29254200000004,
          "velocity": 1,
          "duration": 0.24390200000000561
        },
        {
          "name": "F#2",
          "midi": 42,
          "time": 78.53644400000005,
          "velocity": 1,
          "duration": 0.24390200000000561
        },
        {
          "name": "D2",
          "midi": 38,
          "time": 78.78034600000005,
          "velocity": 1,
          "duration": 0.24390200000000561
        },
        {
          "name": "F#2",
          "midi": 42,
          "time": 78.78034600000005,
          "velocity": 1,
          "duration": 0.24390200000000561
        },
        {
          "name": "F#2",
          "midi": 42,
          "time": 79.02424800000006,
          "velocity": 1,
          "duration": 0.24390200000000561
        },
        {
          "name": "C2",
          "midi": 36,
          "time": 79.26815000000006,
          "velocity": 1,
          "duration": 0.48780400000001123
        },
        {
          "name": "F#2",
          "midi": 42,
          "time": 79.26815000000006,
          "velocity": 1,
          "duration": 0.24390200000000561
        },
        {
          "name": "F#2",
          "midi": 42,
          "time": 79.51205200000007,
          "velocity": 1,
          "duration": 0.24390200000000561
        },
        {
          "name": "D2",
          "midi": 38,
          "time": 79.75595400000007,
          "velocity": 1,
          "duration": 0.24390200000000561
        },
        {
          "name": "F#2",
          "midi": 42,
          "time": 79.75595400000007,
          "velocity": 1,
          "duration": 0.24390200000000561
        },
        {
          "name": "F#2",
          "midi": 42,
          "time": 79.99985600000008,
          "velocity": 1,
          "duration": 0.24390200000000561
        },
        {
          "name": "C2",
          "midi": 36,
          "time": 80.24375800000008,
          "velocity": 1,
          "duration": 0.48780400000001123
        },
        {
          "name": "F#2",
          "midi": 42,
          "time": 80.24375800000008,
          "velocity": 1,
          "duration": 0.24390200000000561
        },
        {
          "name": "F#2",
          "midi": 42,
          "time": 80.48766000000009,
          "velocity": 1,
          "duration": 0.24390200000000561
        },
        {
          "name": "D2",
          "midi": 38,
          "time": 80.7315620000001,
          "velocity": 1,
          "duration": 0.24390200000000561
        },
        {
          "name": "F#2",
          "midi": 42,
          "time": 80.7315620000001,
          "velocity": 1,
          "duration": 0.24390200000000561
        },
        {
          "name": "F#2",
          "midi": 42,
          "time": 80.9754640000001,
          "velocity": 1,
          "duration": 0.24390200000000561
        },
        {
          "name": "C2",
          "midi": 36,
          "time": 81.21936600000011,
          "velocity": 1,
          "duration": 0.48780400000001123
        },
        {
          "name": "F#2",
          "midi": 42,
          "time": 81.21936600000011,
          "velocity": 1,
          "duration": 0.24390200000000561
        },
        {
          "name": "F#2",
          "midi": 42,
          "time": 81.46326800000011,
          "velocity": 1,
          "duration": 0.24390200000000561
        },
        {
          "name": "D2",
          "midi": 38,
          "time": 81.70717000000012,
          "velocity": 1,
          "duration": 0.24390200000000561
        },
        {
          "name": "F#2",
          "midi": 42,
          "time": 81.70717000000012,
          "velocity": 1,
          "duration": 0.24390200000000561
        },
        {
          "name": "F#2",
          "midi": 42,
          "time": 81.95107200000012,
          "velocity": 1,
          "duration": 0.24390200000000561
        },
        {
          "name": "C2",
          "midi": 36,
          "time": 82.19497400000013,
          "velocity": 1,
          "duration": 0.48780400000001123
        },
        {
          "name": "F#2",
          "midi": 42,
          "time": 82.19497400000013,
          "velocity": 1,
          "duration": 0.24390200000000561
        },
        {
          "name": "F#2",
          "midi": 42,
          "time": 82.43887600000014,
          "velocity": 1,
          "duration": 0.24390200000000561
        },
        {
          "name": "D2",
          "midi": 38,
          "time": 82.68277800000014,
          "velocity": 1,
          "duration": 0.24390200000000561
        },
        {
          "name": "F#2",
          "midi": 42,
          "time": 82.68277800000014,
          "velocity": 1,
          "duration": 0.24390200000000561
        },
        {
          "name": "F#2",
          "midi": 42,
          "time": 82.92668000000015,
          "velocity": 1,
          "duration": 0.24390200000000561
        },
        {
          "name": "C2",
          "midi": 36,
          "time": 83.17058200000015,
          "velocity": 1,
          "duration": 0.48780400000001123
        },
        {
          "name": "F#2",
          "midi": 42,
          "time": 83.17058200000015,
          "velocity": 1,
          "duration": 0.24390200000000561
        },
        {
          "name": "F#2",
          "midi": 42,
          "time": 83.41448400000016,
          "velocity": 1,
          "duration": 0.24390200000000561
        },
        {
          "name": "D2",
          "midi": 38,
          "time": 83.65838600000016,
          "velocity": 1,
          "duration": 0.24390200000000561
        },
        {
          "name": "F#2",
          "midi": 42,
          "time": 83.65838600000016,
          "velocity": 1,
          "duration": 0.24390200000000561
        },
        {
          "name": "F#2",
          "midi": 42,
          "time": 83.90228800000017,
          "velocity": 1,
          "duration": 0.24390200000000561
        },
        {
          "name": "C2",
          "midi": 36,
          "time": 84.14619000000017,
          "velocity": 1,
          "duration": 0.48780400000001123
        },
        {
          "name": "F#2",
          "midi": 42,
          "time": 84.14619000000017,
          "velocity": 1,
          "duration": 0.24390200000000561
        },
        {
          "name": "F#2",
          "midi": 42,
          "time": 84.39009200000018,
          "velocity": 1,
          "duration": 0.24390200000000561
        },
        {
          "name": "D2",
          "midi": 38,
          "time": 84.63399400000019,
          "velocity": 1,
          "duration": 0.24390200000000561
        },
        {
          "name": "F#2",
          "midi": 42,
          "time": 84.63399400000019,
          "velocity": 1,
          "duration": 0.24390200000000561
        },
        {
          "name": "F#2",
          "midi": 42,
          "time": 84.87789600000019,
          "velocity": 1,
          "duration": 0.24390200000000561
        },
        {
          "name": "C2",
          "midi": 36,
          "time": 85.1217980000002,
          "velocity": 1,
          "duration": 0.48780400000001123
        },
        {
          "name": "F#2",
          "midi": 42,
          "time": 85.1217980000002,
          "velocity": 1,
          "duration": 0.24390200000000561
        },
        {
          "name": "F#2",
          "midi": 42,
          "time": 85.3657000000002,
          "velocity": 1,
          "duration": 0.24390200000000561
        },
        {
          "name": "D2",
          "midi": 38,
          "time": 85.60960200000021,
          "velocity": 1,
          "duration": 0.24390200000000561
        },
        {
          "name": "F#2",
          "midi": 42,
          "time": 85.60960200000021,
          "velocity": 1,
          "duration": 0.24390200000000561
        },
        {
          "name": "C2",
          "midi": 36,
          "time": 85.85350400000021,
          "velocity": 1,
          "duration": 0.24390200000000561
        },
        {
          "name": "A3",
          "midi": 57,
          "time": 85.85350400000021,
          "velocity": 1,
          "duration": 0.24390200000000561
        },
        {
          "name": "F#2",
          "midi": 42,
          "time": 86.34130800000023,
          "velocity": 1,
          "duration": 0.24390200000000561
        },
        {
          "name": "F#2",
          "midi": 42,
          "time": 86.58521000000023,
          "velocity": 1,
          "duration": 0.24390200000000561
        },
        {
          "name": "F#2",
          "midi": 42,
          "time": 86.82911200000024,
          "velocity": 1,
          "duration": 0.24390200000000561
        },
        {
          "name": "D2",
          "midi": 38,
          "time": 87.07301400000024,
          "velocity": 1,
          "duration": 0.24390200000000561
        },
        {
          "name": "F#2",
          "midi": 42,
          "time": 87.07301400000024,
          "velocity": 1,
          "duration": 0.24390200000000561
        },
        {
          "name": "F#2",
          "midi": 42,
          "time": 87.31691600000025,
          "velocity": 1,
          "duration": 0.24390200000000561
        },
        {
          "name": "F#2",
          "midi": 42,
          "time": 87.56081800000025,
          "velocity": 1,
          "duration": 0.24390200000000561
        },
        {
          "name": "C2",
          "midi": 36,
          "time": 87.80472000000026,
          "velocity": 1,
          "duration": 0.24390200000000561
        },
        {
          "name": "A3",
          "midi": 57,
          "time": 87.80472000000026,
          "velocity": 1,
          "duration": 0.24390200000000561
        },
        {
          "name": "F#2",
          "midi": 42,
          "time": 88.04862200000026,
          "velocity": 1,
          "duration": 0.24390200000000561
        },
        {
          "name": "F#2",
          "midi": 42,
          "time": 88.29252400000027,
          "velocity": 1,
          "duration": 0.24390200000000561
        },
        {
          "name": "F#2",
          "midi": 42,
          "time": 88.53642600000028,
          "velocity": 1,
          "duration": 0.24390200000000561
        },
        {
          "name": "F#2",
          "midi": 42,
          "time": 88.78032800000028,
          "velocity": 1,
          "duration": 0.24390200000000561
        },
        {
          "name": "D2",
          "midi": 38,
          "time": 89.02423000000029,
          "velocity": 1,
          "duration": 0.24390200000000561
        },
        {
          "name": "F#2",
          "midi": 42,
          "time": 89.02423000000029,
          "velocity": 1,
          "duration": 0.24390200000000561
        },
        {
          "name": "F#2",
          "midi": 42,
          "time": 89.26813200000029,
          "velocity": 1,
          "duration": 0.24390200000000561
        },
        {
          "name": "F#2",
          "midi": 42,
          "time": 89.5120340000003,
          "velocity": 1,
          "duration": 0.24390200000000561
        },
        {
          "name": "A3",
          "midi": 57,
          "time": 89.7559360000003,
          "velocity": 1,
          "duration": 0.24390200000000561
        },
        {
          "name": "C2",
          "midi": 36,
          "time": 89.7559360000003,
          "velocity": 1,
          "duration": 0.24390200000000561
        },
        {
          "name": "F#2",
          "midi": 42,
          "time": 89.99983800000031,
          "velocity": 1,
          "duration": 0.24390200000000561
        },
        {
          "name": "F#2",
          "midi": 42,
          "time": 90.24374000000032,
          "velocity": 1,
          "duration": 0.24390200000000561
        },
        {
          "name": "F#2",
          "midi": 42,
          "time": 90.48764200000032,
          "velocity": 1,
          "duration": 0.24390200000000561
        },
        {
          "name": "F#2",
          "midi": 42,
          "time": 90.73154400000033,
          "velocity": 1,
          "duration": 0.24390200000000561
        },
        {
          "name": "D2",
          "midi": 38,
          "time": 90.97544600000033,
          "velocity": 1,
          "duration": 0.24390200000000561
        },
        {
          "name": "F#2",
          "midi": 42,
          "time": 90.97544600000033,
          "velocity": 1,
          "duration": 0.24390200000000561
        },
        {
          "name": "F#2",
          "midi": 42,
          "time": 91.21934800000034,
          "velocity": 1,
          "duration": 0.24390200000000561
        },
        {
          "name": "F#2",
          "midi": 42,
          "time": 91.46325000000034,
          "velocity": 1,
          "duration": 0.24390200000000561
        },
        {
          "name": "F#2",
          "midi": 42,
          "time": 91.70715200000035,
          "velocity": 1,
          "duration": 0.24390200000000561
        },
        {
          "name": "C2",
          "midi": 36,
          "time": 91.95105400000035,
          "velocity": 1,
          "duration": 0.48780400000001123
        },
        {
          "name": "D2",
          "midi": 38,
          "time": 91.95105400000035,
          "velocity": 1,
          "duration": 0.24390200000000561
        },
        {
          "name": "D3",
          "midi": 50,
          "time": 91.95105400000035,
          "velocity": 1,
          "duration": 0.24390200000000561
        },
        {
          "name": "D2",
          "midi": 38,
          "time": 92.19495600000036,
          "velocity": 1,
          "duration": 0.24390200000000561
        },
        {
          "name": "D3",
          "midi": 50,
          "time": 92.19495600000036,
          "velocity": 1,
          "duration": 0.24390200000000561
        },
        {
          "name": "C2",
          "midi": 36,
          "time": 92.43885800000037,
          "velocity": 1,
          "duration": 0.48780400000001123
        },
        {
          "name": "D2",
          "midi": 38,
          "time": 92.43885800000037,
          "velocity": 1,
          "duration": 0.24390200000000561
        },
        {
          "name": "D3",
          "midi": 50,
          "time": 92.43885800000037,
          "velocity": 1,
          "duration": 0.24390200000000561
        },
        {
          "name": "D2",
          "midi": 38,
          "time": 92.68276000000037,
          "velocity": 1,
          "duration": 0.24390200000000561
        },
        {
          "name": "D3",
          "midi": 50,
          "time": 92.68276000000037,
          "velocity": 1,
          "duration": 0.24390200000000561
        },
        {
          "name": "C2",
          "midi": 36,
          "time": 92.92666200000038,
          "velocity": 1,
          "duration": 0.48780400000001123
        },
        {
          "name": "D2",
          "midi": 38,
          "time": 92.92666200000038,
          "velocity": 1,
          "duration": 0.24390200000000561
        },
        {
          "name": "D3",
          "midi": 50,
          "time": 92.92666200000038,
          "velocity": 1,
          "duration": 0.24390200000000561
        },
        {
          "name": "D2",
          "midi": 38,
          "time": 93.17056400000038,
          "velocity": 1,
          "duration": 0.24390200000000561
        },
        {
          "name": "D3",
          "midi": 50,
          "time": 93.17056400000038,
          "velocity": 1,
          "duration": 0.24390200000000561
        },
        {
          "name": "A3",
          "midi": 57,
          "time": 93.41446600000039,
          "velocity": 1,
          "duration": 0.487803999999997
        },
        {
          "name": "D2",
          "midi": 38,
          "time": 93.41446600000039,
          "velocity": 1,
          "duration": 0.487803999999997
        },
        {
          "name": "C2",
          "midi": 36,
          "time": 93.90227000000039,
          "velocity": 1,
          "duration": 0.487803999999997
        },
        {
          "name": "A3",
          "midi": 57,
          "time": 93.90227000000039,
          "velocity": 1,
          "duration": 0.487803999999997
        },
        {
          "name": "D2",
          "midi": 38,
          "time": 94.39007400000038,
          "velocity": 1,
          "duration": 0.24390200000000561
        },
        {
          "name": "F#2",
          "midi": 42,
          "time": 94.39007400000038,
          "velocity": 1,
          "duration": 0.24390200000000561
        },
        {
          "name": "F#2",
          "midi": 42,
          "time": 94.63397600000039,
          "velocity": 1,
          "duration": 0.24390200000000561
        },
        {
          "name": "F#2",
          "midi": 42,
          "time": 94.8778780000004,
          "velocity": 1,
          "duration": 0.24390200000000561
        },
        {
          "name": "C2",
          "midi": 36,
          "time": 94.8778780000004,
          "velocity": 1,
          "duration": 0.48780400000001123
        },
        {
          "name": "F#2",
          "midi": 42,
          "time": 95.1217800000004,
          "velocity": 1,
          "duration": 0.24390200000000561
        },
        {
          "name": "D2",
          "midi": 38,
          "time": 95.3656820000004,
          "velocity": 1,
          "duration": 0.24390200000000561
        },
        {
          "name": "F#2",
          "midi": 42,
          "time": 95.3656820000004,
          "velocity": 1,
          "duration": 0.24390200000000561
        },
        {
          "name": "F#2",
          "midi": 42,
          "time": 95.60958400000041,
          "velocity": 1,
          "duration": 0.24390200000000561
        },
        {
          "name": "F#2",
          "midi": 42,
          "time": 95.85348600000042,
          "velocity": 1,
          "duration": 0.24390200000000561
        },
        {
          "name": "C2",
          "midi": 36,
          "time": 95.85348600000042,
          "velocity": 1,
          "duration": 0.48780400000001123
        },
        {
          "name": "F#2",
          "midi": 42,
          "time": 96.09738800000042,
          "velocity": 1,
          "duration": 0.24390200000000561
        },
        {
          "name": "D2",
          "midi": 38,
          "time": 96.34129000000043,
          "velocity": 1,
          "duration": 0.24390200000000561
        },
        {
          "name": "F#2",
          "midi": 42,
          "time": 96.34129000000043,
          "velocity": 1,
          "duration": 0.24390200000000561
        },
        {
          "name": "F#2",
          "midi": 42,
          "time": 96.58519200000043,
          "velocity": 1,
          "duration": 0.24390200000000561
        },
        {
          "name": "C2",
          "midi": 36,
          "time": 96.82909400000044,
          "velocity": 1,
          "duration": 0.24390200000000561
        },
        {
          "name": "F#2",
          "midi": 42,
          "time": 96.82909400000044,
          "velocity": 1,
          "duration": 0.24390200000000561
        },
        {
          "name": "C2",
          "midi": 36,
          "time": 97.07299600000044,
          "velocity": 1,
          "duration": 0.24390200000000561
        },
        {
          "name": "F#2",
          "midi": 42,
          "time": 97.07299600000044,
          "velocity": 1,
          "duration": 0.24390200000000561
        },
        {
          "name": "D2",
          "midi": 38,
          "time": 97.31689800000045,
          "velocity": 1,
          "duration": 0.24390200000000561
        },
        {
          "name": "F#2",
          "midi": 42,
          "time": 97.31689800000045,
          "velocity": 1,
          "duration": 0.24390200000000561
        },
        {
          "name": "F#2",
          "midi": 42,
          "time": 97.56080000000046,
          "velocity": 1,
          "duration": 0.24390200000000561
        },
        {
          "name": "F#2",
          "midi": 42,
          "time": 97.80470200000046,
          "velocity": 1,
          "duration": 0.24390200000000561
        },
        {
          "name": "C2",
          "midi": 36,
          "time": 97.80470200000046,
          "velocity": 1,
          "duration": 0.48780400000001123
        },
        {
          "name": "F#2",
          "midi": 42,
          "time": 98.04860400000047,
          "velocity": 1,
          "duration": 0.24390200000000561
        },
        {
          "name": "D2",
          "midi": 38,
          "time": 98.29250600000047,
          "velocity": 1,
          "duration": 0.24390200000000561
        },
        {
          "name": "F#2",
          "midi": 42,
          "time": 98.29250600000047,
          "velocity": 1,
          "duration": 0.24390200000000561
        },
        {
          "name": "F#2",
          "midi": 42,
          "time": 98.53640800000048,
          "velocity": 1,
          "duration": 0.24390200000000561
        },
        {
          "name": "F#2",
          "midi": 42,
          "time": 98.78031000000048,
          "velocity": 1,
          "duration": 0.24390200000000561
        },
        {
          "name": "C2",
          "midi": 36,
          "time": 98.78031000000048,
          "velocity": 1,
          "duration": 0.48780400000001123
        },
        {
          "name": "F#2",
          "midi": 42,
          "time": 99.02421200000049,
          "velocity": 1,
          "duration": 0.24390200000000561
        },
        {
          "name": "F#2",
          "midi": 42,
          "time": 99.2681140000005,
          "velocity": 1,
          "duration": 0.24390200000000561
        },
        {
          "name": "C2",
          "midi": 36,
          "time": 99.2681140000005,
          "velocity": 1,
          "duration": 0.48780400000001123
        },
        {
          "name": "A3",
          "midi": 57,
          "time": 99.5120160000005,
          "velocity": 1,
          "duration": 0.24390200000000561
        },
        {
          "name": "D2",
          "midi": 38,
          "time": 99.5120160000005,
          "velocity": 1,
          "duration": 0.24390200000000561
        },
        {
          "name": "F#2",
          "midi": 42,
          "time": 99.7559180000005,
          "velocity": 1,
          "duration": 0.24390200000000561
        },
        {
          "name": "C2",
          "midi": 36,
          "time": 99.7559180000005,
          "velocity": 1,
          "duration": 0.48780400000001123
        },
        {
          "name": "F#2",
          "midi": 42,
          "time": 99.99982000000051,
          "velocity": 1,
          "duration": 0.24390200000000561
        },
        {
          "name": "D2",
          "midi": 38,
          "time": 100.24372200000052,
          "velocity": 1,
          "duration": 0.24390200000000561
        },
        {
          "name": "F#2",
          "midi": 42,
          "time": 100.24372200000052,
          "velocity": 1,
          "duration": 0.24390200000000561
        },
        {
          "name": "F#2",
          "midi": 42,
          "time": 100.48762400000052,
          "velocity": 1,
          "duration": 0.24390200000000561
        },
        {
          "name": "C2",
          "midi": 36,
          "time": 100.73152600000053,
          "velocity": 1,
          "duration": 0.24390200000000561
        },
        {
          "name": "F#2",
          "midi": 42,
          "time": 100.73152600000053,
          "velocity": 1,
          "duration": 0.24390200000000561
        },
        {
          "name": "C2",
          "midi": 36,
          "time": 100.97542800000053,
          "velocity": 1,
          "duration": 0.24390200000000561
        },
        {
          "name": "F#2",
          "midi": 42,
          "time": 100.97542800000053,
          "velocity": 1,
          "duration": 0.24390200000000561
        },
        {
          "name": "D2",
          "midi": 38,
          "time": 101.21933000000054,
          "velocity": 1,
          "duration": 0.24390200000000561
        },
        {
          "name": "F#2",
          "midi": 42,
          "time": 101.21933000000054,
          "velocity": 1,
          "duration": 0.24390200000000561
        },
        {
          "name": "C2",
          "midi": 36,
          "time": 101.46323200000054,
          "velocity": 1,
          "duration": 0.24390200000000561
        },
        {
          "name": "F#2",
          "midi": 42,
          "time": 101.46323200000054,
          "velocity": 1,
          "duration": 0.24390200000000561
        },
        {
          "name": "C2",
          "midi": 36,
          "time": 101.70713400000055,
          "velocity": 1,
          "duration": 0.487803999999997
        },
        {
          "name": "A3",
          "midi": 57,
          "time": 101.70713400000055,
          "velocity": 1,
          "duration": 0.487803999999997
        },
        {
          "name": "F#2",
          "midi": 42,
          "time": 102.19493800000055,
          "velocity": 1,
          "duration": 0.24390200000000561
        },
        {
          "name": "D2",
          "midi": 38,
          "time": 102.19493800000055,
          "velocity": 1,
          "duration": 0.24390200000000561
        },
        {
          "name": "F#2",
          "midi": 42,
          "time": 102.43884000000055,
          "velocity": 1,
          "duration": 0.24390200000000561
        },
        {
          "name": "C2",
          "midi": 36,
          "time": 102.68274200000056,
          "velocity": 1,
          "duration": 0.48780400000001123
        },
        {
          "name": "F#2",
          "midi": 42,
          "time": 102.68274200000056,
          "velocity": 1,
          "duration": 0.24390200000000561
        },
        {
          "name": "F#2",
          "midi": 42,
          "time": 102.92664400000056,
          "velocity": 1,
          "duration": 0.24390200000000561
        },
        {
          "name": "C2",
          "midi": 36,
          "time": 103.17054600000057,
          "velocity": 1,
          "duration": 0.48780400000001123
        },
        {
          "name": "F#2",
          "midi": 42,
          "time": 103.17054600000057,
          "velocity": 1,
          "duration": 0.24390200000000561
        },
        {
          "name": "A3",
          "midi": 57,
          "time": 103.41444800000058,
          "velocity": 1,
          "duration": 0.24390200000000561
        },
        {
          "name": "D2",
          "midi": 38,
          "time": 103.41444800000058,
          "velocity": 1,
          "duration": 0.24390200000000561
        },
        {
          "name": "C2",
          "midi": 36,
          "time": 103.65835000000058,
          "velocity": 1,
          "duration": 0.48780400000001123
        },
        {
          "name": "F#2",
          "midi": 42,
          "time": 103.65835000000058,
          "velocity": 1,
          "duration": 0.24390200000000561
        },
        {
          "name": "F#2",
          "midi": 42,
          "time": 103.90225200000059,
          "velocity": 1,
          "duration": 0.24390200000000561
        },
        {
          "name": "D2",
          "midi": 38,
          "time": 104.14615400000059,
          "velocity": 1,
          "duration": 0.24390200000000561
        },
        {
          "name": "F#2",
          "midi": 42,
          "time": 104.14615400000059,
          "velocity": 1,
          "duration": 0.24390200000000561
        },
        {
          "name": "F#2",
          "midi": 42,
          "time": 104.3900560000006,
          "velocity": 1,
          "duration": 0.24390200000000561
        },
        {
          "name": "C2",
          "midi": 36,
          "time": 104.6339580000006,
          "velocity": 1,
          "duration": 0.24390200000000561
        },
        {
          "name": "F#2",
          "midi": 42,
          "time": 104.6339580000006,
          "velocity": 1,
          "duration": 0.24390200000000561
        },
        {
          "name": "C2",
          "midi": 36,
          "time": 104.87786000000061,
          "velocity": 1,
          "duration": 0.24390200000000561
        },
        {
          "name": "F#2",
          "midi": 42,
          "time": 104.87786000000061,
          "velocity": 1,
          "duration": 0.24390200000000561
        },
        {
          "name": "D2",
          "midi": 38,
          "time": 105.12176200000061,
          "velocity": 1,
          "duration": 0.24390200000000561
        },
        {
          "name": "F#2",
          "midi": 42,
          "time": 105.12176200000061,
          "velocity": 1,
          "duration": 0.24390200000000561
        },
        {
          "name": "C2",
          "midi": 36,
          "time": 105.36566400000062,
          "velocity": 1,
          "duration": 0.24390200000000561
        },
        {
          "name": "F#2",
          "midi": 42,
          "time": 105.36566400000062,
          "velocity": 1,
          "duration": 0.24390200000000561
        },
        {
          "name": "C2",
          "midi": 36,
          "time": 107.31688000000062,
          "velocity": 1,
          "duration": 0.24390200000000561
        },
        {
          "name": "A3",
          "midi": 57,
          "time": 107.31688000000062,
          "velocity": 1,
          "duration": 0.24390200000000561
        },
        {
          "name": "F#2",
          "midi": 42,
          "time": 107.56078200000063,
          "velocity": 1,
          "duration": 0.24390200000000561
        },
        {
          "name": "F#2",
          "midi": 42,
          "time": 107.80468400000063,
          "velocity": 1,
          "duration": 0.24390200000000561
        },
        {
          "name": "D2",
          "midi": 38,
          "time": 108.04858600000064,
          "velocity": 1,
          "duration": 0.24390200000000561
        },
        {
          "name": "F#2",
          "midi": 42,
          "time": 108.04858600000064,
          "velocity": 1,
          "duration": 0.24390200000000561
        },
        {
          "name": "F#2",
          "midi": 42,
          "time": 108.29248800000065,
          "velocity": 1,
          "duration": 0.24390200000000561
        },
        {
          "name": "C2",
          "midi": 36,
          "time": 108.53639000000065,
          "velocity": 1,
          "duration": 0.48780400000001123
        },
        {
          "name": "F#2",
          "midi": 42,
          "time": 108.53639000000065,
          "velocity": 1,
          "duration": 0.24390200000000561
        },
        {
          "name": "F#2",
          "midi": 42,
          "time": 108.78029200000066,
          "velocity": 1,
          "duration": 0.24390200000000561
        },
        {
          "name": "D2",
          "midi": 38,
          "time": 109.02419400000066,
          "velocity": 1,
          "duration": 0.24390200000000561
        },
        {
          "name": "F#2",
          "midi": 42,
          "time": 109.02419400000066,
          "velocity": 1,
          "duration": 0.24390200000000561
        },
        {
          "name": "F#2",
          "midi": 42,
          "time": 109.26809600000067,
          "velocity": 1,
          "duration": 0.24390200000000561
        },
        {
          "name": "C2",
          "midi": 36,
          "time": 109.51199800000067,
          "velocity": 1,
          "duration": 0.48780400000001123
        },
        {
          "name": "F#2",
          "midi": 42,
          "time": 109.51199800000067,
          "velocity": 1,
          "duration": 0.24390200000000561
        },
        {
          "name": "F#2",
          "midi": 42,
          "time": 109.75590000000068,
          "velocity": 1,
          "duration": 0.24390200000000561
        },
        {
          "name": "D2",
          "midi": 38,
          "time": 109.99980200000068,
          "velocity": 1,
          "duration": 0.24390200000000561
        },
        {
          "name": "F#2",
          "midi": 42,
          "time": 109.99980200000068,
          "velocity": 1,
          "duration": 0.24390200000000561
        },
        {
          "name": "F#2",
          "midi": 42,
          "time": 110.24370400000069,
          "velocity": 1,
          "duration": 0.24390200000000561
        },
        {
          "name": "C2",
          "midi": 36,
          "time": 110.4876060000007,
          "velocity": 1,
          "duration": 0.48780400000001123
        },
        {
          "name": "F#2",
          "midi": 42,
          "time": 110.4876060000007,
          "velocity": 1,
          "duration": 0.24390200000000561
        },
        {
          "name": "F#2",
          "midi": 42,
          "time": 110.7315080000007,
          "velocity": 1,
          "duration": 0.24390200000000561
        },
        {
          "name": "D2",
          "midi": 38,
          "time": 110.9754100000007,
          "velocity": 1,
          "duration": 0.24390200000000561
        },
        {
          "name": "F#2",
          "midi": 42,
          "time": 110.9754100000007,
          "velocity": 1,
          "duration": 0.24390200000000561
        },
        {
          "name": "F#2",
          "midi": 42,
          "time": 111.21931200000071,
          "velocity": 1,
          "duration": 0.24390200000000561
        },
        {
          "name": "C2",
          "midi": 36,
          "time": 111.46321400000072,
          "velocity": 1,
          "duration": 0.48780400000001123
        },
        {
          "name": "F#2",
          "midi": 42,
          "time": 111.46321400000072,
          "velocity": 1,
          "duration": 0.24390200000000561
        },
        {
          "name": "F#2",
          "midi": 42,
          "time": 111.70711600000072,
          "velocity": 1,
          "duration": 0.24390200000000561
        },
        {
          "name": "D2",
          "midi": 38,
          "time": 111.95101800000073,
          "velocity": 1,
          "duration": 0.24390200000000561
        },
        {
          "name": "F#2",
          "midi": 42,
          "time": 111.95101800000073,
          "velocity": 1,
          "duration": 0.24390200000000561
        },
        {
          "name": "F#2",
          "midi": 42,
          "time": 112.19492000000074,
          "velocity": 1,
          "duration": 0.24390200000000561
        },
        {
          "name": "C2",
          "midi": 36,
          "time": 112.43882200000074,
          "velocity": 1,
          "duration": 0.48780400000001123
        },
        {
          "name": "F#2",
          "midi": 42,
          "time": 112.43882200000074,
          "velocity": 1,
          "duration": 0.24390200000000561
        },
        {
          "name": "F#2",
          "midi": 42,
          "time": 112.68272400000075,
          "velocity": 1,
          "duration": 0.24390200000000561
        },
        {
          "name": "D2",
          "midi": 38,
          "time": 112.92662600000075,
          "velocity": 1,
          "duration": 0.24390200000000561
        },
        {
          "name": "F#2",
          "midi": 42,
          "time": 112.92662600000075,
          "velocity": 1,
          "duration": 0.24390200000000561
        },
        {
          "name": "F#2",
          "midi": 42,
          "time": 113.17052800000076,
          "velocity": 1,
          "duration": 0.24390200000000561
        },
        {
          "name": "D2",
          "midi": 38,
          "time": 113.41443000000076,
          "velocity": 1,
          "duration": 0.24390200000000561
        },
        {
          "name": "F#2",
          "midi": 42,
          "time": 113.41443000000076,
          "velocity": 1,
          "duration": 0.24390200000000561
        },
        {
          "name": "C2",
          "midi": 36,
          "time": 113.65833200000077,
          "velocity": 1,
          "duration": 0.24390200000000561
        },
        {
          "name": "F#2",
          "midi": 42,
          "time": 113.65833200000077,
          "velocity": 1,
          "duration": 0.24390200000000561
        },
        {
          "name": "D2",
          "midi": 38,
          "time": 113.90223400000077,
          "velocity": 1,
          "duration": 0.24390200000000561
        },
        {
          "name": "F#2",
          "midi": 42,
          "time": 113.90223400000077,
          "velocity": 1,
          "duration": 0.24390200000000561
        },
        {
          "name": "F#2",
          "midi": 42,
          "time": 114.14613600000078,
          "velocity": 1,
          "duration": 0.24390200000000561
        },
        {
          "name": "D2",
          "midi": 38,
          "time": 114.39003800000079,
          "velocity": 1,
          "duration": 0.24390200000000561
        },
        {
          "name": "F#2",
          "midi": 42,
          "time": 114.39003800000079,
          "velocity": 1,
          "duration": 0.24390200000000561
        },
        {
          "name": "C2",
          "midi": 36,
          "time": 114.63394000000079,
          "velocity": 1,
          "duration": 0.24390200000000561
        },
        {
          "name": "F#2",
          "midi": 42,
          "time": 114.63394000000079,
          "velocity": 1,
          "duration": 0.24390200000000561
        },
        {
          "name": "D2",
          "midi": 38,
          "time": 114.8778420000008,
          "velocity": 1,
          "duration": 0.24390200000000561
        },
        {
          "name": "F#2",
          "midi": 42,
          "time": 114.8778420000008,
          "velocity": 1,
          "duration": 0.24390200000000561
        },
        {
          "name": "C2",
          "midi": 36,
          "time": 115.1217440000008,
          "velocity": 1,
          "duration": 0.24390200000000561
        },
        {
          "name": "A3",
          "midi": 57,
          "time": 115.1217440000008,
          "velocity": 1,
          "duration": 0.24390200000000561
        },
        {
          "name": "F#2",
          "midi": 42,
          "time": 115.36564600000081,
          "velocity": 1,
          "duration": 0.24390200000000561
        },
        {
          "name": "F#2",
          "midi": 42,
          "time": 115.60954800000081,
          "velocity": 1,
          "duration": 0.24390200000000561
        },
        {
          "name": "D2",
          "midi": 38,
          "time": 115.85345000000082,
          "velocity": 1,
          "duration": 0.24390200000000561
        },
        {
          "name": "F#2",
          "midi": 42,
          "time": 115.85345000000082,
          "velocity": 1,
          "duration": 0.24390200000000561
        },
        {
          "name": "F#2",
          "midi": 42,
          "time": 116.09735200000083,
          "velocity": 1,
          "duration": 0.24390200000000561
        },
        {
          "name": "C2",
          "midi": 36,
          "time": 116.34125400000083,
          "velocity": 1,
          "duration": 0.48780400000001123
        },
        {
          "name": "F#2",
          "midi": 42,
          "time": 116.34125400000083,
          "velocity": 1,
          "duration": 0.24390200000000561
        },
        {
          "name": "F#2",
          "midi": 42,
          "time": 116.58515600000084,
          "velocity": 1,
          "duration": 0.24390200000000561
        },
        {
          "name": "D2",
          "midi": 38,
          "time": 116.82905800000084,
          "velocity": 1,
          "duration": 0.24390200000000561
        },
        {
          "name": "F#2",
          "midi": 42,
          "time": 116.82905800000084,
          "velocity": 1,
          "duration": 0.24390200000000561
        },
        {
          "name": "F#2",
          "midi": 42,
          "time": 117.07296000000085,
          "velocity": 1,
          "duration": 0.24390200000000561
        },
        {
          "name": "C2",
          "midi": 36,
          "time": 117.31686200000085,
          "velocity": 1,
          "duration": 0.48780400000001123
        },
        {
          "name": "F#2",
          "midi": 42,
          "time": 117.31686200000085,
          "velocity": 1,
          "duration": 0.24390200000000561
        },
        {
          "name": "F#2",
          "midi": 42,
          "time": 117.56076400000086,
          "velocity": 1,
          "duration": 0.24390200000000561
        },
        {
          "name": "D2",
          "midi": 38,
          "time": 117.80466600000086,
          "velocity": 1,
          "duration": 0.24390200000000561
        },
        {
          "name": "F#2",
          "midi": 42,
          "time": 117.80466600000086,
          "velocity": 1,
          "duration": 0.24390200000000561
        },
        {
          "name": "F#2",
          "midi": 42,
          "time": 118.04856800000087,
          "velocity": 1,
          "duration": 0.24390200000000561
        },
        {
          "name": "C2",
          "midi": 36,
          "time": 118.29247000000088,
          "velocity": 1,
          "duration": 0.48780400000001123
        },
        {
          "name": "F#2",
          "midi": 42,
          "time": 118.29247000000088,
          "velocity": 1,
          "duration": 0.24390200000000561
        },
        {
          "name": "F#2",
          "midi": 42,
          "time": 118.53637200000088,
          "velocity": 1,
          "duration": 0.24390200000000561
        },
        {
          "name": "D2",
          "midi": 38,
          "time": 118.78027400000089,
          "velocity": 1,
          "duration": 0.24390200000000561
        },
        {
          "name": "F#2",
          "midi": 42,
          "time": 118.78027400000089,
          "velocity": 1,
          "duration": 0.24390200000000561
        },
        {
          "name": "F#2",
          "midi": 42,
          "time": 119.02417600000089,
          "velocity": 1,
          "duration": 0.24390200000000561
        },
        {
          "name": "C2",
          "midi": 36,
          "time": 119.2680780000009,
          "velocity": 1,
          "duration": 0.48780400000001123
        },
        {
          "name": "F#2",
          "midi": 42,
          "time": 119.2680780000009,
          "velocity": 1,
          "duration": 0.24390200000000561
        },
        {
          "name": "F#2",
          "midi": 42,
          "time": 119.5119800000009,
          "velocity": 1,
          "duration": 0.24390200000000561
        },
        {
          "name": "D2",
          "midi": 38,
          "time": 119.75588200000091,
          "velocity": 1,
          "duration": 0.24390200000000561
        },
        {
          "name": "F#2",
          "midi": 42,
          "time": 119.75588200000091,
          "velocity": 1,
          "duration": 0.24390200000000561
        },
        {
          "name": "F#2",
          "midi": 42,
          "time": 119.99978400000091,
          "velocity": 1,
          "duration": 0.24390200000000561
        },
        {
          "name": "C2",
          "midi": 36,
          "time": 120.24368600000092,
          "velocity": 1,
          "duration": 0.48780400000001123
        },
        {
          "name": "F#2",
          "midi": 42,
          "time": 120.24368600000092,
          "velocity": 1,
          "duration": 0.24390200000000561
        },
        {
          "name": "F#2",
          "midi": 42,
          "time": 120.48758800000093,
          "velocity": 1,
          "duration": 0.24390200000000561
        },
        {
          "name": "D2",
          "midi": 38,
          "time": 120.73149000000093,
          "velocity": 1,
          "duration": 0.24390200000000561
        },
        {
          "name": "F#2",
          "midi": 42,
          "time": 120.73149000000093,
          "velocity": 1,
          "duration": 0.24390200000000561
        },
        {
          "name": "F#2",
          "midi": 42,
          "time": 120.97539200000094,
          "velocity": 1,
          "duration": 0.24390200000000561
        },
        {
          "name": "C2",
          "midi": 36,
          "time": 121.21929400000094,
          "velocity": 1,
          "duration": 0.48780400000001123
        },
        {
          "name": "D2",
          "midi": 38,
          "time": 121.21929400000094,
          "velocity": 1,
          "duration": 0.24390200000000561
        },
        {
          "name": "A3",
          "midi": 57,
          "time": 121.21929400000094,
          "velocity": 1,
          "duration": 0.24390200000000561
        },
        {
          "name": "C3",
          "midi": 48,
          "time": 121.46319600000095,
          "velocity": 1,
          "duration": 0.24390200000000561
        },
        {
          "name": "B2",
          "midi": 47,
          "time": 121.46319600000095,
          "velocity": 1,
          "duration": 0.24390200000000561
        },
        {
          "name": "C2",
          "midi": 36,
          "time": 121.70709800000095,
          "velocity": 1,
          "duration": 0.48780400000001123
        },
        {
          "name": "C3",
          "midi": 48,
          "time": 121.70709800000095,
          "velocity": 1,
          "duration": 0.24390200000000561
        },
        {
          "name": "B2",
          "midi": 47,
          "time": 121.70709800000095,
          "velocity": 1,
          "duration": 0.24390200000000561
        },
        {
          "name": "C3",
          "midi": 48,
          "time": 121.95100000000096,
          "velocity": 1,
          "duration": 0.24390200000000561
        },
        {
          "name": "B2",
          "midi": 47,
          "time": 121.95100000000096,
          "velocity": 1,
          "duration": 0.24390200000000561
        },
        {
          "name": "C2",
          "midi": 36,
          "time": 122.19490200000097,
          "velocity": 1,
          "duration": 0.48780400000001123
        },
        {
          "name": "C3",
          "midi": 48,
          "time": 122.19490200000097,
          "velocity": 1,
          "duration": 0.24390200000000561
        },
        {
          "name": "B2",
          "midi": 47,
          "time": 122.19490200000097,
          "velocity": 1,
          "duration": 0.24390200000000561
        },
        {
          "name": "C3",
          "midi": 48,
          "time": 122.43880400000097,
          "velocity": 1,
          "duration": 0.24390200000000561
        },
        {
          "name": "B2",
          "midi": 47,
          "time": 122.43880400000097,
          "velocity": 1,
          "duration": 0.24390200000000561
        },
        {
          "name": "C3",
          "midi": 48,
          "time": 122.68270600000098,
          "velocity": 1,
          "duration": 0.24390200000000561
        },
        {
          "name": "B2",
          "midi": 47,
          "time": 122.68270600000098,
          "velocity": 1,
          "duration": 0.24390200000000561
        },
        {
          "name": "A3",
          "midi": 57,
          "time": 122.92660800000098,
          "velocity": 1,
          "duration": 0.24390200000000561
        },
        {
          "name": "C2",
          "midi": 36,
          "time": 122.92660800000098,
          "velocity": 1,
          "duration": 0.24390200000000561
        },
        {
          "name": "F#2",
          "midi": 42,
          "time": 123.17051000000099,
          "velocity": 1,
          "duration": 0.24390200000000561
        },
        {
          "name": "F#2",
          "midi": 42,
          "time": 123.414412000001,
          "velocity": 1,
          "duration": 0.24390200000000561
        },
        {
          "name": "D2",
          "midi": 38,
          "time": 123.658314000001,
          "velocity": 1,
          "duration": 0.24390200000000561
        },
        {
          "name": "F#2",
          "midi": 42,
          "time": 123.658314000001,
          "velocity": 1,
          "duration": 0.24390200000000561
        },
        {
          "name": "F#2",
          "midi": 42,
          "time": 123.902216000001,
          "velocity": 1,
          "duration": 0.24390200000000561
        },
        {
          "name": "C2",
          "midi": 36,
          "time": 124.14611800000101,
          "velocity": 1,
          "duration": 0.48780400000001123
        },
        {
          "name": "F#2",
          "midi": 42,
          "time": 124.14611800000101,
          "velocity": 1,
          "duration": 0.24390200000000561
        },
        {
          "name": "F#2",
          "midi": 42,
          "time": 124.39002000000102,
          "velocity": 1,
          "duration": 0.24390200000000561
        },
        {
          "name": "D2",
          "midi": 38,
          "time": 124.63392200000102,
          "velocity": 1,
          "duration": 0.24390200000000561
        },
        {
          "name": "F#2",
          "midi": 42,
          "time": 124.63392200000102,
          "velocity": 1,
          "duration": 0.24390200000000561
        },
        {
          "name": "F#2",
          "midi": 42,
          "time": 124.87782400000103,
          "velocity": 1,
          "duration": 0.24390200000000561
        },
        {
          "name": "C2",
          "midi": 36,
          "time": 125.12172600000103,
          "velocity": 1,
          "duration": 0.48780400000001123
        },
        {
          "name": "F#2",
          "midi": 42,
          "time": 125.12172600000103,
          "velocity": 1,
          "duration": 0.24390200000000561
        },
        {
          "name": "F#2",
          "midi": 42,
          "time": 125.36562800000104,
          "velocity": 1,
          "duration": 0.24390200000000561
        },
        {
          "name": "D2",
          "midi": 38,
          "time": 125.60953000000104,
          "velocity": 1,
          "duration": 0.24390200000000561
        },
        {
          "name": "F#2",
          "midi": 42,
          "time": 125.60953000000104,
          "velocity": 1,
          "duration": 0.24390200000000561
        },
        {
          "name": "F#2",
          "midi": 42,
          "time": 125.85343200000105,
          "velocity": 1,
          "duration": 0.24390200000000561
        },
        {
          "name": "C2",
          "midi": 36,
          "time": 126.09733400000106,
          "velocity": 1,
          "duration": 0.48780400000001123
        },
        {
          "name": "F#2",
          "midi": 42,
          "time": 126.09733400000106,
          "velocity": 1,
          "duration": 0.24390200000000561
        },
        {
          "name": "F#2",
          "midi": 42,
          "time": 126.34123600000106,
          "velocity": 1,
          "duration": 0.24390200000000561
        },
        {
          "name": "D2",
          "midi": 38,
          "time": 126.58513800000107,
          "velocity": 1,
          "duration": 0.24390200000000561
        },
        {
          "name": "F#2",
          "midi": 42,
          "time": 126.58513800000107,
          "velocity": 1,
          "duration": 0.24390200000000561
        },
        {
          "name": "F#2",
          "midi": 42,
          "time": 126.82904000000107,
          "velocity": 1,
          "duration": 0.24390200000000561
        },
        {
          "name": "C2",
          "midi": 36,
          "time": 127.07294200000108,
          "velocity": 1,
          "duration": 0.48780400000001123
        },
        {
          "name": "F#2",
          "midi": 42,
          "time": 127.07294200000108,
          "velocity": 1,
          "duration": 0.24390200000000561
        },
        {
          "name": "F#2",
          "midi": 42,
          "time": 127.31684400000108,
          "velocity": 1,
          "duration": 0.24390200000000561
        },
        {
          "name": "D2",
          "midi": 38,
          "time": 127.56074600000109,
          "velocity": 1,
          "duration": 0.24390200000000561
        },
        {
          "name": "F#2",
          "midi": 42,
          "time": 127.56074600000109,
          "velocity": 1,
          "duration": 0.24390200000000561
        },
        {
          "name": "F#2",
          "midi": 42,
          "time": 127.8046480000011,
          "velocity": 1,
          "duration": 0.2439019999999914
        },
        {
          "name": "C2",
          "midi": 36,
          "time": 128.0485500000011,
          "velocity": 1,
          "duration": 0.4878039999999828
        },
        {
          "name": "F#2",
          "midi": 42,
          "time": 128.0485500000011,
          "velocity": 1,
          "duration": 0.2439019999999914
        },
        {
          "name": "F#2",
          "midi": 42,
          "time": 128.29245200000108,
          "velocity": 1,
          "duration": 0.2439019999999914
        },
        {
          "name": "D2",
          "midi": 38,
          "time": 128.53635400000107,
          "velocity": 1,
          "duration": 0.2439019999999914
        },
        {
          "name": "F#2",
          "midi": 42,
          "time": 128.53635400000107,
          "velocity": 1,
          "duration": 0.2439019999999914
        },
        {
          "name": "F#2",
          "midi": 42,
          "time": 128.78025600000106,
          "velocity": 1,
          "duration": 0.2439019999999914
        },
        {
          "name": "C2",
          "midi": 36,
          "time": 129.02415800000105,
          "velocity": 1,
          "duration": 0.4878039999999828
        },
        {
          "name": "F#2",
          "midi": 42,
          "time": 129.02415800000105,
          "velocity": 1,
          "duration": 0.2439019999999914
        },
        {
          "name": "F#2",
          "midi": 42,
          "time": 129.26806000000104,
          "velocity": 1,
          "duration": 0.2439019999999914
        },
        {
          "name": "D2",
          "midi": 38,
          "time": 129.51196200000103,
          "velocity": 1,
          "duration": 0.2439019999999914
        },
        {
          "name": "F#2",
          "midi": 42,
          "time": 129.51196200000103,
          "velocity": 1,
          "duration": 0.2439019999999914
        },
        {
          "name": "F#2",
          "midi": 42,
          "time": 129.75586400000103,
          "velocity": 1,
          "duration": 0.2439019999999914
        },
        {
          "name": "C2",
          "midi": 36,
          "time": 129.99976600000102,
          "velocity": 1,
          "duration": 0.4878039999999828
        },
        {
          "name": "F#2",
          "midi": 42,
          "time": 129.99976600000102,
          "velocity": 1,
          "duration": 0.2439019999999914
        },
        {
          "name": "F#2",
          "midi": 42,
          "time": 130.243668000001,
          "velocity": 1,
          "duration": 0.2439019999999914
        },
        {
          "name": "D2",
          "midi": 38,
          "time": 130.487570000001,
          "velocity": 1,
          "duration": 0.2439019999999914
        },
        {
          "name": "F#2",
          "midi": 42,
          "time": 130.487570000001,
          "velocity": 1,
          "duration": 0.2439019999999914
        },
        {
          "name": "C2",
          "midi": 36,
          "time": 130.731472000001,
          "velocity": 1,
          "duration": 0.2439019999999914
        },
        {
          "name": "A3",
          "midi": 57,
          "time": 130.731472000001,
          "velocity": 1,
          "duration": 0.2439019999999914
        },
        {
          "name": "F#2",
          "midi": 42,
          "time": 130.97537400000098,
          "velocity": 1,
          "duration": 0.2439019999999914
        },
        {
          "name": "F#2",
          "midi": 42,
          "time": 131.21927600000097,
          "velocity": 1,
          "duration": 0.2439019999999914
        },
        {
          "name": "D2",
          "midi": 38,
          "time": 131.46317800000097,
          "velocity": 1,
          "duration": 0.2439019999999914
        },
        {
          "name": "F#2",
          "midi": 42,
          "time": 131.46317800000097,
          "velocity": 1,
          "duration": 0.2439019999999914
        },
        {
          "name": "F#2",
          "midi": 42,
          "time": 131.70708000000096,
          "velocity": 1,
          "duration": 0.2439019999999914
        },
        {
          "name": "C2",
          "midi": 36,
          "time": 131.95098200000095,
          "velocity": 1,
          "duration": 0.4878039999999828
        },
        {
          "name": "F#2",
          "midi": 42,
          "time": 131.95098200000095,
          "velocity": 1,
          "duration": 0.2439019999999914
        },
        {
          "name": "F#2",
          "midi": 42,
          "time": 132.19488400000094,
          "velocity": 1,
          "duration": 0.2439019999999914
        },
        {
          "name": "D2",
          "midi": 38,
          "time": 132.43878600000093,
          "velocity": 1,
          "duration": 0.2439019999999914
        },
        {
          "name": "F#2",
          "midi": 42,
          "time": 132.43878600000093,
          "velocity": 1,
          "duration": 0.2439019999999914
        },
        {
          "name": "F#2",
          "midi": 42,
          "time": 132.68268800000092,
          "velocity": 1,
          "duration": 0.2439019999999914
        },
        {
          "name": "C2",
          "midi": 36,
          "time": 132.9265900000009,
          "velocity": 1,
          "duration": 0.4878039999999828
        },
        {
          "name": "F#2",
          "midi": 42,
          "time": 132.9265900000009,
          "velocity": 1,
          "duration": 0.2439019999999914
        },
        {
          "name": "F#2",
          "midi": 42,
          "time": 133.1704920000009,
          "velocity": 1,
          "duration": 0.2439019999999914
        },
        {
          "name": "D2",
          "midi": 38,
          "time": 133.4143940000009,
          "velocity": 1,
          "duration": 0.2439019999999914
        },
        {
          "name": "F#2",
          "midi": 42,
          "time": 133.4143940000009,
          "velocity": 1,
          "duration": 0.2439019999999914
        },
        {
          "name": "F#2",
          "midi": 42,
          "time": 133.6582960000009,
          "velocity": 1,
          "duration": 0.2439019999999914
        },
        {
          "name": "C2",
          "midi": 36,
          "time": 133.90219800000088,
          "velocity": 1,
          "duration": 0.4878039999999828
        },
        {
          "name": "F#2",
          "midi": 42,
          "time": 133.90219800000088,
          "velocity": 1,
          "duration": 0.2439019999999914
        },
        {
          "name": "F#2",
          "midi": 42,
          "time": 134.14610000000087,
          "velocity": 1,
          "duration": 0.2439019999999914
        },
        {
          "name": "D2",
          "midi": 38,
          "time": 134.39000200000086,
          "velocity": 1,
          "duration": 0.2439019999999914
        },
        {
          "name": "F#2",
          "midi": 42,
          "time": 134.39000200000086,
          "velocity": 1,
          "duration": 0.2439019999999914
        },
        {
          "name": "F#2",
          "midi": 42,
          "time": 134.63390400000085,
          "velocity": 1,
          "duration": 0.2439019999999914
        },
        {
          "name": "C2",
          "midi": 36,
          "time": 134.87780600000085,
          "velocity": 1,
          "duration": 0.4878039999999828
        },
        {
          "name": "F#2",
          "midi": 42,
          "time": 134.87780600000085,
          "velocity": 1,
          "duration": 0.2439019999999914
        },
        {
          "name": "F#2",
          "midi": 42,
          "time": 135.12170800000084,
          "velocity": 1,
          "duration": 0.2439019999999914
        },
        {
          "name": "D2",
          "midi": 38,
          "time": 135.36561000000083,
          "velocity": 1,
          "duration": 0.2439019999999914
        },
        {
          "name": "F#2",
          "midi": 42,
          "time": 135.36561000000083,
          "velocity": 1,
          "duration": 0.2439019999999914
        },
        {
          "name": "F#2",
          "midi": 42,
          "time": 135.60951200000082,
          "velocity": 1,
          "duration": 0.2439019999999914
        },
        {
          "name": "C2",
          "midi": 36,
          "time": 135.8534140000008,
          "velocity": 1,
          "duration": 0.4878039999999828
        },
        {
          "name": "F#2",
          "midi": 42,
          "time": 135.8534140000008,
          "velocity": 1,
          "duration": 0.2439019999999914
        },
        {
          "name": "F#2",
          "midi": 42,
          "time": 136.0973160000008,
          "velocity": 1,
          "duration": 0.2439019999999914
        },
        {
          "name": "D2",
          "midi": 38,
          "time": 136.3412180000008,
          "velocity": 1,
          "duration": 0.2439019999999914
        },
        {
          "name": "F#2",
          "midi": 42,
          "time": 136.3412180000008,
          "velocity": 1,
          "duration": 0.2439019999999914
        },
        {
          "name": "F#2",
          "midi": 42,
          "time": 136.58512000000079,
          "velocity": 1,
          "duration": 0.2439019999999914
        },
        {
          "name": "C2",
          "midi": 36,
          "time": 136.82902200000078,
          "velocity": 1,
          "duration": 0.4878039999999828
        },
        {
          "name": "F#2",
          "midi": 42,
          "time": 136.82902200000078,
          "velocity": 1,
          "duration": 0.2439019999999914
        },
        {
          "name": "F#2",
          "midi": 42,
          "time": 137.07292400000077,
          "velocity": 1,
          "duration": 0.2439019999999914
        },
        {
          "name": "D2",
          "midi": 38,
          "time": 137.31682600000076,
          "velocity": 1,
          "duration": 0.2439019999999914
        },
        {
          "name": "F#2",
          "midi": 42,
          "time": 137.31682600000076,
          "velocity": 1,
          "duration": 0.2439019999999914
        },
        {
          "name": "F#2",
          "midi": 42,
          "time": 137.56072800000075,
          "velocity": 1,
          "duration": 0.2439019999999914
        },
        {
          "name": "C2",
          "midi": 36,
          "time": 137.80463000000074,
          "velocity": 1,
          "duration": 0.4878039999999828
        },
        {
          "name": "F#2",
          "midi": 42,
          "time": 137.80463000000074,
          "velocity": 1,
          "duration": 0.2439019999999914
        },
        {
          "name": "F#2",
          "midi": 42,
          "time": 138.04853200000073,
          "velocity": 1,
          "duration": 0.2439019999999914
        },
        {
          "name": "D2",
          "midi": 38,
          "time": 138.29243400000072,
          "velocity": 1,
          "duration": 0.2439019999999914
        },
        {
          "name": "F#2",
          "midi": 42,
          "time": 138.29243400000072,
          "velocity": 1,
          "duration": 0.2439019999999914
        },
        {
          "name": "C2",
          "midi": 36,
          "time": 138.53633600000072,
          "velocity": 1,
          "duration": 0.2439019999999914
        },
        {
          "name": "A3",
          "midi": 57,
          "time": 138.53633600000072,
          "velocity": 1,
          "duration": 0.2439019999999914
        },
        {
          "name": "F#2",
          "midi": 42,
          "time": 139.0241400000007,
          "velocity": 1,
          "duration": 0.2439019999999914
        },
        {
          "name": "F#2",
          "midi": 42,
          "time": 139.2680420000007,
          "velocity": 1,
          "duration": 0.2439019999999914
        },
        {
          "name": "F#2",
          "midi": 42,
          "time": 139.51194400000068,
          "velocity": 1,
          "duration": 0.2439019999999914
        },
        {
          "name": "D2",
          "midi": 38,
          "time": 139.75584600000067,
          "velocity": 1,
          "duration": 0.2439019999999914
        },
        {
          "name": "F#2",
          "midi": 42,
          "time": 139.75584600000067,
          "velocity": 1,
          "duration": 0.2439019999999914
        },
        {
          "name": "F#2",
          "midi": 42,
          "time": 139.99974800000066,
          "velocity": 1,
          "duration": 0.2439019999999914
        },
        {
          "name": "F#2",
          "midi": 42,
          "time": 140.24365000000066,
          "velocity": 1,
          "duration": 0.2439019999999914
        },
        {
          "name": "C2",
          "midi": 36,
          "time": 140.48755200000065,
          "velocity": 1,
          "duration": 0.2439019999999914
        },
        {
          "name": "A3",
          "midi": 57,
          "time": 140.48755200000065,
          "velocity": 1,
          "duration": 0.2439019999999914
        },
        {
          "name": "F#2",
          "midi": 42,
          "time": 140.73145400000064,
          "velocity": 1,
          "duration": 0.2439019999999914
        },
        {
          "name": "F#2",
          "midi": 42,
          "time": 140.97535600000063,
          "velocity": 1,
          "duration": 0.2439019999999914
        },
        {
          "name": "F#2",
          "midi": 42,
          "time": 141.21925800000062,
          "velocity": 1,
          "duration": 0.2439019999999914
        },
        {
          "name": "F#2",
          "midi": 42,
          "time": 141.4631600000006,
          "velocity": 1,
          "duration": 0.2439019999999914
        },
        {
          "name": "D2",
          "midi": 38,
          "time": 141.7070620000006,
          "velocity": 1,
          "duration": 0.2439019999999914
        },
        {
          "name": "F#2",
          "midi": 42,
          "time": 141.7070620000006,
          "velocity": 1,
          "duration": 0.2439019999999914
        },
        {
          "name": "F#2",
          "midi": 42,
          "time": 141.9509640000006,
          "velocity": 1,
          "duration": 0.2439019999999914
        },
        {
          "name": "F#2",
          "midi": 42,
          "time": 142.1948660000006,
          "velocity": 1,
          "duration": 0.2439019999999914
        },
        {
          "name": "A3",
          "midi": 57,
          "time": 142.43876800000058,
          "velocity": 1,
          "duration": 0.2439019999999914
        },
        {
          "name": "C2",
          "midi": 36,
          "time": 142.43876800000058,
          "velocity": 1,
          "duration": 0.2439019999999914
        },
        {
          "name": "F#2",
          "midi": 42,
          "time": 142.68267000000057,
          "velocity": 1,
          "duration": 0.2439019999999914
        },
        {
          "name": "F#2",
          "midi": 42,
          "time": 142.92657200000056,
          "velocity": 1,
          "duration": 0.2439019999999914
        },
        {
          "name": "F#2",
          "midi": 42,
          "time": 143.17047400000055,
          "velocity": 1,
          "duration": 0.2439019999999914
        },
        {
          "name": "F#2",
          "midi": 42,
          "time": 143.41437600000054,
          "velocity": 1,
          "duration": 0.2439019999999914
        },
        {
          "name": "D2",
          "midi": 38,
          "time": 143.65827800000054,
          "velocity": 1,
          "duration": 0.2439019999999914
        },
        {
          "name": "F#2",
          "midi": 42,
          "time": 143.65827800000054,
          "velocity": 1,
          "duration": 0.2439019999999914
        },
        {
          "name": "F#2",
          "midi": 42,
          "time": 143.90218000000053,
          "velocity": 1,
          "duration": 0.2439019999999914
        },
        {
          "name": "F#2",
          "midi": 42,
          "time": 144.14608200000052,
          "velocity": 1,
          "duration": 0.2439019999999914
        },
        {
          "name": "F#2",
          "midi": 42,
          "time": 144.3899840000005,
          "velocity": 1,
          "duration": 0.2439019999999914
        },
        {
          "name": "C2",
          "midi": 36,
          "time": 144.6338860000005,
          "velocity": 1,
          "duration": 0.4878039999999828
        },
        {
          "name": "D2",
          "midi": 38,
          "time": 144.6338860000005,
          "velocity": 1,
          "duration": 0.2439019999999914
        },
        {
          "name": "D3",
          "midi": 50,
          "time": 144.6338860000005,
          "velocity": 1,
          "duration": 0.2439019999999914
        },
        {
          "name": "D2",
          "midi": 38,
          "time": 144.8777880000005,
          "velocity": 1,
          "duration": 0.2439019999999914
        },
        {
          "name": "D3",
          "midi": 50,
          "time": 144.8777880000005,
          "velocity": 1,
          "duration": 0.2439019999999914
        },
        {
          "name": "C2",
          "midi": 36,
          "time": 145.12169000000048,
          "velocity": 1,
          "duration": 0.4878039999999828
        },
        {
          "name": "D2",
          "midi": 38,
          "time": 145.12169000000048,
          "velocity": 1,
          "duration": 0.2439019999999914
        },
        {
          "name": "D3",
          "midi": 50,
          "time": 145.12169000000048,
          "velocity": 1,
          "duration": 0.2439019999999914
        },
        {
          "name": "D2",
          "midi": 38,
          "time": 145.36559200000048,
          "velocity": 1,
          "duration": 0.2439019999999914
        },
        {
          "name": "D3",
          "midi": 50,
          "time": 145.36559200000048,
          "velocity": 1,
          "duration": 0.2439019999999914
        },
        {
          "name": "C2",
          "midi": 36,
          "time": 145.60949400000047,
          "velocity": 1,
          "duration": 0.4878039999999828
        },
        {
          "name": "D2",
          "midi": 38,
          "time": 145.60949400000047,
          "velocity": 1,
          "duration": 0.2439019999999914
        },
        {
          "name": "D3",
          "midi": 50,
          "time": 145.60949400000047,
          "velocity": 1,
          "duration": 0.2439019999999914
        },
        {
          "name": "D2",
          "midi": 38,
          "time": 145.85339600000046,
          "velocity": 1,
          "duration": 0.2439019999999914
        },
        {
          "name": "D3",
          "midi": 50,
          "time": 145.85339600000046,
          "velocity": 1,
          "duration": 0.2439019999999914
        },
        {
          "name": "A3",
          "midi": 57,
          "time": 146.09729800000045,
          "velocity": 1,
          "duration": 0.48780400000001123
        },
        {
          "name": "D2",
          "midi": 38,
          "time": 146.09729800000045,
          "velocity": 1,
          "duration": 0.48780400000001123
        },
        {
          "name": "C2",
          "midi": 36,
          "time": 146.58510200000046,
          "velocity": 1,
          "duration": 0.48780400000001123
        },
        {
          "name": "A3",
          "midi": 57,
          "time": 146.58510200000046,
          "velocity": 1,
          "duration": 0.48780400000001123
        },
        {
          "name": "D2",
          "midi": 38,
          "time": 147.07290600000047,
          "velocity": 1,
          "duration": 0.2439019999999914
        },
        {
          "name": "F#2",
          "midi": 42,
          "time": 147.07290600000047,
          "velocity": 1,
          "duration": 0.2439019999999914
        },
        {
          "name": "F#2",
          "midi": 42,
          "time": 147.31680800000046,
          "velocity": 1,
          "duration": 0.2439019999999914
        },
        {
          "name": "F#2",
          "midi": 42,
          "time": 147.56071000000046,
          "velocity": 1,
          "duration": 0.2439019999999914
        },
        {
          "name": "C2",
          "midi": 36,
          "time": 147.56071000000046,
          "velocity": 1,
          "duration": 0.4878039999999828
        },
        {
          "name": "F#2",
          "midi": 42,
          "time": 147.80461200000045,
          "velocity": 1,
          "duration": 0.2439019999999914
        },
        {
          "name": "D2",
          "midi": 38,
          "time": 148.04851400000044,
          "velocity": 1,
          "duration": 0.2439019999999914
        },
        {
          "name": "F#2",
          "midi": 42,
          "time": 148.04851400000044,
          "velocity": 1,
          "duration": 0.2439019999999914
        },
        {
          "name": "F#2",
          "midi": 42,
          "time": 148.29241600000043,
          "velocity": 1,
          "duration": 0.2439019999999914
        },
        {
          "name": "F#2",
          "midi": 42,
          "time": 148.53631800000042,
          "velocity": 1,
          "duration": 0.2439019999999914
        },
        {
          "name": "C2",
          "midi": 36,
          "time": 148.53631800000042,
          "velocity": 1,
          "duration": 0.4878039999999828
        },
        {
          "name": "F#2",
          "midi": 42,
          "time": 148.7802200000004,
          "velocity": 1,
          "duration": 0.2439019999999914
        },
        {
          "name": "D2",
          "midi": 38,
          "time": 149.0241220000004,
          "velocity": 1,
          "duration": 0.2439019999999914
        },
        {
          "name": "F#2",
          "midi": 42,
          "time": 149.0241220000004,
          "velocity": 1,
          "duration": 0.2439019999999914
        },
        {
          "name": "F#2",
          "midi": 42,
          "time": 149.2680240000004,
          "velocity": 1,
          "duration": 0.2439019999999914
        },
        {
          "name": "C2",
          "midi": 36,
          "time": 149.5119260000004,
          "velocity": 1,
          "duration": 0.2439019999999914
        },
        {
          "name": "F#2",
          "midi": 42,
          "time": 149.5119260000004,
          "velocity": 1,
          "duration": 0.2439019999999914
        },
        {
          "name": "C2",
          "midi": 36,
          "time": 149.75582800000038,
          "velocity": 1,
          "duration": 0.2439019999999914
        },
        {
          "name": "F#2",
          "midi": 42,
          "time": 149.75582800000038,
          "velocity": 1,
          "duration": 0.2439019999999914
        },
        {
          "name": "D2",
          "midi": 38,
          "time": 149.99973000000037,
          "velocity": 1,
          "duration": 0.2439019999999914
        },
        {
          "name": "F#2",
          "midi": 42,
          "time": 149.99973000000037,
          "velocity": 1,
          "duration": 0.2439019999999914
        },
        {
          "name": "F#2",
          "midi": 42,
          "time": 150.24363200000036,
          "velocity": 1,
          "duration": 0.2439019999999914
        },
        {
          "name": "F#2",
          "midi": 42,
          "time": 150.48753400000035,
          "velocity": 1,
          "duration": 0.2439019999999914
        },
        {
          "name": "C2",
          "midi": 36,
          "time": 150.48753400000035,
          "velocity": 1,
          "duration": 0.4878039999999828
        },
        {
          "name": "F#2",
          "midi": 42,
          "time": 150.73143600000034,
          "velocity": 1,
          "duration": 0.2439019999999914
        },
        {
          "name": "D2",
          "midi": 38,
          "time": 150.97533800000033,
          "velocity": 1,
          "duration": 0.2439019999999914
        },
        {
          "name": "F#2",
          "midi": 42,
          "time": 150.97533800000033,
          "velocity": 1,
          "duration": 0.2439019999999914
        },
        {
          "name": "F#2",
          "midi": 42,
          "time": 151.21924000000033,
          "velocity": 1,
          "duration": 0.2439019999999914
        },
        {
          "name": "F#2",
          "midi": 42,
          "time": 151.46314200000032,
          "velocity": 1,
          "duration": 0.2439019999999914
        },
        {
          "name": "C2",
          "midi": 36,
          "time": 151.46314200000032,
          "velocity": 1,
          "duration": 0.4878039999999828
        },
        {
          "name": "F#2",
          "midi": 42,
          "time": 151.7070440000003,
          "velocity": 1,
          "duration": 0.2439019999999914
        },
        {
          "name": "F#2",
          "midi": 42,
          "time": 151.9509460000003,
          "velocity": 1,
          "duration": 0.2439019999999914
        },
        {
          "name": "C2",
          "midi": 36,
          "time": 151.9509460000003,
          "velocity": 1,
          "duration": 0.4878039999999828
        },
        {
          "name": "A3",
          "midi": 57,
          "time": 152.1948480000003,
          "velocity": 1,
          "duration": 0.2439019999999914
        },
        {
          "name": "D2",
          "midi": 38,
          "time": 152.1948480000003,
          "velocity": 1,
          "duration": 0.2439019999999914
        },
        {
          "name": "F#2",
          "midi": 42,
          "time": 152.43875000000028,
          "velocity": 1,
          "duration": 0.2439019999999914
        },
        {
          "name": "C2",
          "midi": 36,
          "time": 152.43875000000028,
          "velocity": 1,
          "duration": 0.4878039999999828
        },
        {
          "name": "F#2",
          "midi": 42,
          "time": 152.68265200000027,
          "velocity": 1,
          "duration": 0.2439019999999914
        },
        {
          "name": "D2",
          "midi": 38,
          "time": 152.92655400000027,
          "velocity": 1,
          "duration": 0.2439019999999914
        },
        {
          "name": "F#2",
          "midi": 42,
          "time": 152.92655400000027,
          "velocity": 1,
          "duration": 0.2439019999999914
        },
        {
          "name": "F#2",
          "midi": 42,
          "time": 153.17045600000026,
          "velocity": 1,
          "duration": 0.2439019999999914
        },
        {
          "name": "C2",
          "midi": 36,
          "time": 153.41435800000025,
          "velocity": 1,
          "duration": 0.2439019999999914
        },
        {
          "name": "F#2",
          "midi": 42,
          "time": 153.41435800000025,
          "velocity": 1,
          "duration": 0.2439019999999914
        },
        {
          "name": "C2",
          "midi": 36,
          "time": 153.65826000000024,
          "velocity": 1,
          "duration": 0.2439019999999914
        },
        {
          "name": "F#2",
          "midi": 42,
          "time": 153.65826000000024,
          "velocity": 1,
          "duration": 0.2439019999999914
        },
        {
          "name": "D2",
          "midi": 38,
          "time": 153.90216200000023,
          "velocity": 1,
          "duration": 0.2439019999999914
        },
        {
          "name": "F#2",
          "midi": 42,
          "time": 153.90216200000023,
          "velocity": 1,
          "duration": 0.2439019999999914
        },
        {
          "name": "C2",
          "midi": 36,
          "time": 154.14606400000022,
          "velocity": 1,
          "duration": 0.2439019999999914
        },
        {
          "name": "F#2",
          "midi": 42,
          "time": 154.14606400000022,
          "velocity": 1,
          "duration": 0.2439019999999914
        },
        {
          "name": "C2",
          "midi": 36,
          "time": 154.38996600000021,
          "velocity": 1,
          "duration": 0.48780400000001123
        },
        {
          "name": "A3",
          "midi": 57,
          "time": 154.38996600000021,
          "velocity": 1,
          "duration": 0.48780400000001123
        },
        {
          "name": "F#2",
          "midi": 42,
          "time": 154.87777000000023,
          "velocity": 1,
          "duration": 0.2439019999999914
        },
        {
          "name": "D2",
          "midi": 38,
          "time": 154.87777000000023,
          "velocity": 1,
          "duration": 0.2439019999999914
        },
        {
          "name": "F#2",
          "midi": 42,
          "time": 155.12167200000022,
          "velocity": 1,
          "duration": 0.2439019999999914
        },
        {
          "name": "C2",
          "midi": 36,
          "time": 155.3655740000002,
          "velocity": 1,
          "duration": 0.4878039999999828
        },
        {
          "name": "F#2",
          "midi": 42,
          "time": 155.3655740000002,
          "velocity": 1,
          "duration": 0.2439019999999914
        },
        {
          "name": "F#2",
          "midi": 42,
          "time": 155.6094760000002,
          "velocity": 1,
          "duration": 0.2439019999999914
        },
        {
          "name": "C2",
          "midi": 36,
          "time": 155.8533780000002,
          "velocity": 1,
          "duration": 0.4878039999999828
        },
        {
          "name": "F#2",
          "midi": 42,
          "time": 155.8533780000002,
          "velocity": 1,
          "duration": 0.2439019999999914
        },
        {
          "name": "A3",
          "midi": 57,
          "time": 156.09728000000018,
          "velocity": 1,
          "duration": 0.2439019999999914
        },
        {
          "name": "D2",
          "midi": 38,
          "time": 156.09728000000018,
          "velocity": 1,
          "duration": 0.2439019999999914
        },
        {
          "name": "C2",
          "midi": 36,
          "time": 156.34118200000017,
          "velocity": 1,
          "duration": 0.4878039999999828
        },
        {
          "name": "F#2",
          "midi": 42,
          "time": 156.34118200000017,
          "velocity": 1,
          "duration": 0.2439019999999914
        },
        {
          "name": "F#2",
          "midi": 42,
          "time": 156.58508400000017,
          "velocity": 1,
          "duration": 0.2439019999999914
        },
        {
          "name": "D2",
          "midi": 38,
          "time": 156.82898600000016,
          "velocity": 1,
          "duration": 0.2439019999999914
        },
        {
          "name": "F#2",
          "midi": 42,
          "time": 156.82898600000016,
          "velocity": 1,
          "duration": 0.2439019999999914
        },
        {
          "name": "F#2",
          "midi": 42,
          "time": 157.07288800000015,
          "velocity": 1,
          "duration": 0.2439019999999914
        },
        {
          "name": "C2",
          "midi": 36,
          "time": 157.31679000000014,
          "velocity": 1,
          "duration": 0.2439019999999914
        },
        {
          "name": "F#2",
          "midi": 42,
          "time": 157.31679000000014,
          "velocity": 1,
          "duration": 0.2439019999999914
        },
        {
          "name": "C2",
          "midi": 36,
          "time": 157.56069200000013,
          "velocity": 1,
          "duration": 0.2439019999999914
        },
        {
          "name": "F#2",
          "midi": 42,
          "time": 157.56069200000013,
          "velocity": 1,
          "duration": 0.2439019999999914
        },
        {
          "name": "D2",
          "midi": 38,
          "time": 157.80459400000012,
          "velocity": 1,
          "duration": 0.2439019999999914
        },
        {
          "name": "F#2",
          "midi": 42,
          "time": 157.80459400000012,
          "velocity": 1,
          "duration": 0.2439019999999914
        },
        {
          "name": "C2",
          "midi": 36,
          "time": 158.0484960000001,
          "velocity": 1,
          "duration": 0.2439019999999914
        },
        {
          "name": "F#2",
          "midi": 42,
          "time": 158.0484960000001,
          "velocity": 1,
          "duration": 0.2439019999999914
        },
        {
          "name": "C2",
          "midi": 36,
          "time": 158.2923980000001,
          "velocity": 1,
          "duration": 0.48780400000001123
        },
        {
          "name": "A3",
          "midi": 57,
          "time": 158.2923980000001,
          "velocity": 1,
          "duration": 0.48780400000001123
        },
        {
          "name": "D2",
          "midi": 38,
          "time": 159.73548483333346,
          "velocity": 0.7874015748031497,
          "duration": 0.02032516666668016
        },
        {
          "name": "C2",
          "midi": 36,
          "time": 159.99971200000013,
          "velocity": 1,
          "duration": 0.2439019999999914
        },
        {
          "name": "A3",
          "midi": 57,
          "time": 159.99971200000013,
          "velocity": 1,
          "duration": 0.2439019999999914
        },
        {
          "name": "C2",
          "midi": 36,
          "time": 160.4875160000001,
          "velocity": 1,
          "duration": 0.24390200000001983
        },
        {
          "name": "D2",
          "midi": 38,
          "time": 160.71109283333345,
          "velocity": 0.7874015748031497,
          "duration": 0.02032516666668016
        },
        {
          "name": "D2",
          "midi": 38,
          "time": 160.73141800000013,
          "velocity": 1,
          "duration": 0.48780400000001123
        },
        {
          "name": "C2",
          "midi": 36,
          "time": 160.97532000000012,
          "velocity": 1,
          "duration": 0.24390200000001983
        },
        {
          "name": "D2",
          "midi": 38,
          "time": 161.19889683333346,
          "velocity": 0.7874015748031497,
          "duration": 0.02032516666668016
        },
        {
          "name": "D2",
          "midi": 38,
          "time": 161.21922200000014,
          "velocity": 1,
          "duration": 0.4878039999999828
        },
        {
          "name": "C2",
          "midi": 36,
          "time": 161.46312400000014,
          "velocity": 1,
          "duration": 0.2439019999999914
        },
        {
          "name": "D2",
          "midi": 38,
          "time": 161.70702600000013,
          "velocity": 1,
          "duration": 0.2439019999999914
        },
        {
          "name": "A3",
          "midi": 57,
          "time": 161.95092800000012,
          "velocity": 1,
          "duration": 0.2439019999999914
        },
        {
          "name": "C2",
          "midi": 36,
          "time": 161.95092800000012,
          "velocity": 1,
          "duration": 0.2439019999999914
        },
        {
          "name": "F#2",
          "midi": 42,
          "time": 162.1948300000001,
          "velocity": 1,
          "duration": 0.2439019999999914
        },
        {
          "name": "F#2",
          "midi": 42,
          "time": 162.4387320000001,
          "velocity": 1,
          "duration": 0.2439019999999914
        },
        {
          "name": "D2",
          "midi": 38,
          "time": 162.6826340000001,
          "velocity": 1,
          "duration": 0.2439019999999914
        },
        {
          "name": "F#2",
          "midi": 42,
          "time": 162.6826340000001,
          "velocity": 1,
          "duration": 0.2439019999999914
        },
        {
          "name": "F#2",
          "midi": 42,
          "time": 162.92653600000008,
          "velocity": 1,
          "duration": 0.2439019999999914
        },
        {
          "name": "C2",
          "midi": 36,
          "time": 163.17043800000008,
          "velocity": 1,
          "duration": 0.4878039999999828
        },
        {
          "name": "F#2",
          "midi": 42,
          "time": 163.17043800000008,
          "velocity": 1,
          "duration": 0.2439019999999914
        },
        {
          "name": "F#2",
          "midi": 42,
          "time": 163.41434000000007,
          "velocity": 1,
          "duration": 0.2439019999999914
        },
        {
          "name": "D2",
          "midi": 38,
          "time": 163.65824200000006,
          "velocity": 1,
          "duration": 0.2439019999999914
        },
        {
          "name": "F#2",
          "midi": 42,
          "time": 163.65824200000006,
          "velocity": 1,
          "duration": 0.2439019999999914
        },
        {
          "name": "F#2",
          "midi": 42,
          "time": 163.90214400000005,
          "velocity": 1,
          "duration": 0.2439019999999914
        },
        {
          "name": "C2",
          "midi": 36,
          "time": 164.14604600000004,
          "velocity": 1,
          "duration": 0.4878039999999828
        },
        {
          "name": "F#2",
          "midi": 42,
          "time": 164.14604600000004,
          "velocity": 1,
          "duration": 0.2439019999999914
        },
        {
          "name": "F#2",
          "midi": 42,
          "time": 164.38994800000003,
          "velocity": 1,
          "duration": 0.2439019999999914
        },
        {
          "name": "D2",
          "midi": 38,
          "time": 164.63385000000002,
          "velocity": 1,
          "duration": 0.2439019999999914
        },
        {
          "name": "F#2",
          "midi": 42,
          "time": 164.63385000000002,
          "velocity": 1,
          "duration": 0.2439019999999914
        },
        {
          "name": "F#2",
          "midi": 42,
          "time": 164.87775200000002,
          "velocity": 1,
          "duration": 0.2439019999999914
        },
        {
          "name": "C2",
          "midi": 36,
          "time": 165.121654,
          "velocity": 1,
          "duration": 0.4878039999999828
        },
        {
          "name": "F#2",
          "midi": 42,
          "time": 165.121654,
          "velocity": 1,
          "duration": 0.2439019999999914
        },
        {
          "name": "F#2",
          "midi": 42,
          "time": 165.365556,
          "velocity": 1,
          "duration": 0.2439019999999914
        },
        {
          "name": "D2",
          "midi": 38,
          "time": 165.609458,
          "velocity": 1,
          "duration": 0.2439019999999914
        },
        {
          "name": "F#2",
          "midi": 42,
          "time": 165.609458,
          "velocity": 1,
          "duration": 0.2439019999999914
        },
        {
          "name": "F#2",
          "midi": 42,
          "time": 165.85335999999998,
          "velocity": 1,
          "duration": 0.2439019999999914
        },
        {
          "name": "C2",
          "midi": 36,
          "time": 166.09726199999997,
          "velocity": 1,
          "duration": 0.4878039999999828
        },
        {
          "name": "F#2",
          "midi": 42,
          "time": 166.09726199999997,
          "velocity": 1,
          "duration": 0.2439019999999914
        },
        {
          "name": "F#2",
          "midi": 42,
          "time": 166.34116399999996,
          "velocity": 1,
          "duration": 0.2439019999999914
        },
        {
          "name": "D2",
          "midi": 38,
          "time": 166.58506599999996,
          "velocity": 1,
          "duration": 0.2439019999999914
        },
        {
          "name": "F#2",
          "midi": 42,
          "time": 166.58506599999996,
          "velocity": 1,
          "duration": 0.2439019999999914
        },
        {
          "name": "F#2",
          "midi": 42,
          "time": 166.82896799999995,
          "velocity": 1,
          "duration": 0.2439019999999914
        },
        {
          "name": "C2",
          "midi": 36,
          "time": 167.07286999999994,
          "velocity": 1,
          "duration": 0.4878039999999828
        },
        {
          "name": "F#2",
          "midi": 42,
          "time": 167.07286999999994,
          "velocity": 1,
          "duration": 0.2439019999999914
        },
        {
          "name": "F#2",
          "midi": 42,
          "time": 167.31677199999993,
          "velocity": 1,
          "duration": 0.2439019999999914
        },
        {
          "name": "D2",
          "midi": 38,
          "time": 167.56067399999992,
          "velocity": 1,
          "duration": 0.2439019999999914
        },
        {
          "name": "F#2",
          "midi": 42,
          "time": 167.56067399999992,
          "velocity": 1,
          "duration": 0.2439019999999914
        },
        {
          "name": "F#2",
          "midi": 42,
          "time": 167.8045759999999,
          "velocity": 1,
          "duration": 0.2439019999999914
        },
        {
          "name": "F#2",
          "midi": 42,
          "time": 168.0484779999999,
          "velocity": 1,
          "duration": 0.2439019999999914
        },
        {
          "name": "C2",
          "midi": 36,
          "time": 168.0484779999999,
          "velocity": 1,
          "duration": 0.4878039999999828
        },
        {
          "name": "F#2",
          "midi": 42,
          "time": 168.2923799999999,
          "velocity": 1,
          "duration": 0.2439019999999914
        },
        {
          "name": "D2",
          "midi": 38,
          "time": 168.5362819999999,
          "velocity": 1,
          "duration": 0.2439019999999914
        },
        {
          "name": "F#2",
          "midi": 42,
          "time": 168.5362819999999,
          "velocity": 1,
          "duration": 0.2439019999999914
        },
        {
          "name": "C2",
          "midi": 36,
          "time": 168.78018399999988,
          "velocity": 1,
          "duration": 0.2439019999999914
        },
        {
          "name": "F#2",
          "midi": 42,
          "time": 168.78018399999988,
          "velocity": 1,
          "duration": 0.2439019999999914
        },
        {
          "name": "D2",
          "midi": 38,
          "time": 169.02408599999987,
          "velocity": 1,
          "duration": 0.2439019999999914
        },
        {
          "name": "F#2",
          "midi": 42,
          "time": 169.02408599999987,
          "velocity": 1,
          "duration": 0.2439019999999914
        },
        {
          "name": "F#2",
          "midi": 42,
          "time": 169.26798799999986,
          "velocity": 1,
          "duration": 0.2439019999999914
        },
        {
          "name": "C2",
          "midi": 36,
          "time": 169.26798799999986,
          "velocity": 1,
          "duration": 0.2439019999999914
        },
        {
          "name": "D2",
          "midi": 38,
          "time": 169.51188999999985,
          "velocity": 1,
          "duration": 0.2439019999999914
        },
        {
          "name": "F#2",
          "midi": 42,
          "time": 169.51188999999985,
          "velocity": 1,
          "duration": 0.2439019999999914
        },
        {
          "name": "A3",
          "midi": 57,
          "time": 169.75579199999984,
          "velocity": 1,
          "duration": 0.2439019999999914
        },
        {
          "name": "C2",
          "midi": 36,
          "time": 169.75579199999984,
          "velocity": 1,
          "duration": 0.2439019999999914
        },
        {
          "name": "F#2",
          "midi": 42,
          "time": 169.99969399999983,
          "velocity": 1,
          "duration": 0.2439019999999914
        },
        {
          "name": "F#2",
          "midi": 42,
          "time": 170.24359599999983,
          "velocity": 1,
          "duration": 0.2439019999999914
        },
        {
          "name": "D2",
          "midi": 38,
          "time": 170.48749799999982,
          "velocity": 1,
          "duration": 0.2439019999999914
        },
        {
          "name": "F#2",
          "midi": 42,
          "time": 170.48749799999982,
          "velocity": 1,
          "duration": 0.2439019999999914
        },
        {
          "name": "F#2",
          "midi": 42,
          "time": 170.7313999999998,
          "velocity": 1,
          "duration": 0.2439019999999914
        },
        {
          "name": "C2",
          "midi": 36,
          "time": 170.9753019999998,
          "velocity": 1,
          "duration": 0.4878039999999828
        },
        {
          "name": "F#2",
          "midi": 42,
          "time": 170.9753019999998,
          "velocity": 1,
          "duration": 0.2439019999999914
        },
        {
          "name": "F#2",
          "midi": 42,
          "time": 171.2192039999998,
          "velocity": 1,
          "duration": 0.2439019999999914
        },
        {
          "name": "D2",
          "midi": 38,
          "time": 171.46310599999978,
          "velocity": 1,
          "duration": 0.2439019999999914
        },
        {
          "name": "F#2",
          "midi": 42,
          "time": 171.46310599999978,
          "velocity": 1,
          "duration": 0.2439019999999914
        },
        {
          "name": "F#2",
          "midi": 42,
          "time": 171.70700799999977,
          "velocity": 1,
          "duration": 0.2439019999999914
        },
        {
          "name": "C2",
          "midi": 36,
          "time": 171.95090999999977,
          "velocity": 1,
          "duration": 0.4878039999999828
        },
        {
          "name": "F#2",
          "midi": 42,
          "time": 171.95090999999977,
          "velocity": 1,
          "duration": 0.2439019999999914
        },
        {
          "name": "F#2",
          "midi": 42,
          "time": 172.19481199999976,
          "velocity": 1,
          "duration": 0.2439019999999914
        },
        {
          "name": "D2",
          "midi": 38,
          "time": 172.43871399999975,
          "velocity": 1,
          "duration": 0.2439019999999914
        },
        {
          "name": "F#2",
          "midi": 42,
          "time": 172.43871399999975,
          "velocity": 1,
          "duration": 0.2439019999999914
        },
        {
          "name": "F#2",
          "midi": 42,
          "time": 172.68261599999974,
          "velocity": 1,
          "duration": 0.2439019999999914
        },
        {
          "name": "C2",
          "midi": 36,
          "time": 172.92651799999973,
          "velocity": 1,
          "duration": 0.4878039999999828
        },
        {
          "name": "F#2",
          "midi": 42,
          "time": 172.92651799999973,
          "velocity": 1,
          "duration": 0.2439019999999914
        },
        {
          "name": "F#2",
          "midi": 42,
          "time": 173.17041999999972,
          "velocity": 1,
          "duration": 0.2439019999999914
        },
        {
          "name": "D2",
          "midi": 38,
          "time": 173.41432199999971,
          "velocity": 1,
          "duration": 0.2439019999999914
        },
        {
          "name": "F#2",
          "midi": 42,
          "time": 173.41432199999971,
          "velocity": 1,
          "duration": 0.2439019999999914
        },
        {
          "name": "F#2",
          "midi": 42,
          "time": 173.6582239999997,
          "velocity": 1,
          "duration": 0.2439019999999914
        },
        {
          "name": "C2",
          "midi": 36,
          "time": 173.9021259999997,
          "velocity": 1,
          "duration": 0.4878039999999828
        },
        {
          "name": "F#2",
          "midi": 42,
          "time": 173.9021259999997,
          "velocity": 1,
          "duration": 0.2439019999999914
        },
        {
          "name": "F#2",
          "midi": 42,
          "time": 174.1460279999997,
          "velocity": 1,
          "duration": 0.2439019999999914
        },
        {
          "name": "D2",
          "midi": 38,
          "time": 174.38992999999968,
          "velocity": 1,
          "duration": 0.2439019999999914
        },
        {
          "name": "F#2",
          "midi": 42,
          "time": 174.38992999999968,
          "velocity": 1,
          "duration": 0.2439019999999914
        },
        {
          "name": "F#2",
          "midi": 42,
          "time": 174.63383199999967,
          "velocity": 1,
          "duration": 0.2439019999999914
        },
        {
          "name": "C2",
          "midi": 36,
          "time": 174.87773399999966,
          "velocity": 1,
          "duration": 0.4878039999999828
        },
        {
          "name": "F#2",
          "midi": 42,
          "time": 174.87773399999966,
          "velocity": 1,
          "duration": 0.2439019999999914
        },
        {
          "name": "F#2",
          "midi": 42,
          "time": 175.12163599999965,
          "velocity": 1,
          "duration": 0.2439019999999914
        },
        {
          "name": "A2",
          "midi": 45,
          "time": 175.36553799999965,
          "velocity": 1,
          "duration": 0.2439019999999914
        },
        {
          "name": "D2",
          "midi": 38,
          "time": 175.36553799999965,
          "velocity": 1,
          "duration": 0.2439019999999914
        },
        {
          "name": "F#2",
          "midi": 42,
          "time": 175.36553799999965,
          "velocity": 1,
          "duration": 0.2439019999999914
        },
        {
          "name": "C2",
          "midi": 36,
          "time": 175.60943999999964,
          "velocity": 1,
          "duration": 0.2439019999999914
        },
        {
          "name": "F#2",
          "midi": 42,
          "time": 175.60943999999964,
          "velocity": 1,
          "duration": 0.2439019999999914
        },
        {
          "name": "D2",
          "midi": 38,
          "time": 175.85334199999963,
          "velocity": 1,
          "duration": 0.2439019999999914
        },
        {
          "name": "F#2",
          "midi": 42,
          "time": 175.85334199999963,
          "velocity": 1,
          "duration": 0.2439019999999914
        },
        {
          "name": "D2",
          "midi": 38,
          "time": 176.09724399999962,
          "velocity": 1,
          "duration": 0.2439019999999914
        },
        {
          "name": "F#2",
          "midi": 42,
          "time": 176.09724399999962,
          "velocity": 1,
          "duration": 0.2439019999999914
        },
        {
          "name": "C2",
          "midi": 36,
          "time": 176.3411459999996,
          "velocity": 1,
          "duration": 0.2439019999999914
        },
        {
          "name": "F#2",
          "midi": 42,
          "time": 176.3411459999996,
          "velocity": 1,
          "duration": 0.2439019999999914
        },
        {
          "name": "C2",
          "midi": 36,
          "time": 176.5850479999996,
          "velocity": 1,
          "duration": 0.2439019999999914
        },
        {
          "name": "F#2",
          "midi": 42,
          "time": 176.5850479999996,
          "velocity": 1,
          "duration": 0.2439019999999914
        },
        {
          "name": "F#2",
          "midi": 42,
          "time": 176.8289499999996,
          "velocity": 1,
          "duration": 0.2439019999999914
        },
        {
          "name": "C2",
          "midi": 36,
          "time": 176.8289499999996,
          "velocity": 1,
          "duration": 0.2439019999999914
        },
        {
          "name": "F#2",
          "midi": 42,
          "time": 177.07285199999959,
          "velocity": 1,
          "duration": 0.2439019999999914
        },
        {
          "name": "C2",
          "midi": 36,
          "time": 177.07285199999959,
          "velocity": 1,
          "duration": 0.2439019999999914
        },
        {
          "name": "D2",
          "midi": 38,
          "time": 177.31675399999958,
          "velocity": 1,
          "duration": 0.2439019999999914
        },
        {
          "name": "F#2",
          "midi": 42,
          "time": 177.31675399999958,
          "velocity": 1,
          "duration": 0.2439019999999914
        },
        {
          "name": "A3",
          "midi": 57,
          "time": 177.56065599999957,
          "velocity": 1,
          "duration": 0.2439019999999914
        },
        {
          "name": "C2",
          "midi": 36,
          "time": 177.56065599999957,
          "velocity": 1,
          "duration": 0.2439019999999914
        },
        {
          "name": "F#2",
          "midi": 42,
          "time": 177.80455799999956,
          "velocity": 1,
          "duration": 0.2439019999999914
        },
        {
          "name": "F#2",
          "midi": 42,
          "time": 178.04845999999955,
          "velocity": 1,
          "duration": 0.2439019999999914
        },
        {
          "name": "F#2",
          "midi": 42,
          "time": 178.29236199999954,
          "velocity": 1,
          "duration": 0.2439019999999914
        },
        {
          "name": "F#2",
          "midi": 42,
          "time": 178.53626399999953,
          "velocity": 1,
          "duration": 0.2439019999999914
        },
        {
          "name": "D2",
          "midi": 38,
          "time": 178.78016599999953,
          "velocity": 1,
          "duration": 0.2439019999999914
        },
        {
          "name": "F#2",
          "midi": 42,
          "time": 178.78016599999953,
          "velocity": 1,
          "duration": 0.2439019999999914
        },
        {
          "name": "F#2",
          "midi": 42,
          "time": 179.02406799999952,
          "velocity": 1,
          "duration": 0.2439019999999914
        },
        {
          "name": "F#2",
          "midi": 42,
          "time": 179.2679699999995,
          "velocity": 1,
          "duration": 0.2439019999999914
        },
        {
          "name": "C2",
          "midi": 36,
          "time": 179.5118719999995,
          "velocity": 1,
          "duration": 0.2439019999999914
        },
        {
          "name": "A3",
          "midi": 57,
          "time": 179.5118719999995,
          "velocity": 1,
          "duration": 0.2439019999999914
        },
        {
          "name": "F#2",
          "midi": 42,
          "time": 179.7557739999995,
          "velocity": 1,
          "duration": 0.2439019999999914
        },
        {
          "name": "F#2",
          "midi": 42,
          "time": 179.99967599999948,
          "velocity": 1,
          "duration": 0.2439019999999914
        },
        {
          "name": "F#2",
          "midi": 42,
          "time": 180.24357799999947,
          "velocity": 1,
          "duration": 0.2439019999999914
        },
        {
          "name": "F#2",
          "midi": 42,
          "time": 180.48747999999947,
          "velocity": 1,
          "duration": 0.2439019999999914
        },
        {
          "name": "D2",
          "midi": 38,
          "time": 180.73138199999946,
          "velocity": 1,
          "duration": 0.2439019999999914
        },
        {
          "name": "F#2",
          "midi": 42,
          "time": 180.73138199999946,
          "velocity": 1,
          "duration": 0.2439019999999914
        },
        {
          "name": "F#2",
          "midi": 42,
          "time": 180.97528399999945,
          "velocity": 1,
          "duration": 0.2439019999999914
        },
        {
          "name": "F#2",
          "midi": 42,
          "time": 181.21918599999944,
          "velocity": 1,
          "duration": 0.2439019999999914
        },
        {
          "name": "C2",
          "midi": 36,
          "time": 181.46308799999943,
          "velocity": 1,
          "duration": 0.2439019999999914
        },
        {
          "name": "A3",
          "midi": 57,
          "time": 181.46308799999943,
          "velocity": 1,
          "duration": 0.2439019999999914
        },
        {
          "name": "F#2",
          "midi": 42,
          "time": 181.70698999999942,
          "velocity": 1,
          "duration": 0.2439019999999914
        },
        {
          "name": "F#2",
          "midi": 42,
          "time": 181.9508919999994,
          "velocity": 1,
          "duration": 0.2439019999999914
        },
        {
          "name": "F#2",
          "midi": 42,
          "time": 182.1947939999994,
          "velocity": 1,
          "duration": 0.2439019999999914
        },
        {
          "name": "F#2",
          "midi": 42,
          "time": 182.4386959999994,
          "velocity": 1,
          "duration": 0.2439019999999914
        },
        {
          "name": "D2",
          "midi": 38,
          "time": 182.6825979999994,
          "velocity": 1,
          "duration": 0.2439019999999914
        },
        {
          "name": "F#2",
          "midi": 42,
          "time": 182.6825979999994,
          "velocity": 1,
          "duration": 0.2439019999999914
        },
        {
          "name": "F#2",
          "midi": 42,
          "time": 182.92649999999938,
          "velocity": 1,
          "duration": 0.2439019999999914
        },
        {
          "name": "F#2",
          "midi": 42,
          "time": 183.17040199999937,
          "velocity": 1,
          "duration": 0.2439019999999914
        },
        {
          "name": "F#2",
          "midi": 42,
          "time": 183.41430399999936,
          "velocity": 1,
          "duration": 0.2439019999999914
        },
        {
          "name": "C2",
          "midi": 36,
          "time": 183.65820599999935,
          "velocity": 1,
          "duration": 0.4878039999999828
        },
        {
          "name": "D3",
          "midi": 50,
          "time": 183.65820599999935,
          "velocity": 1,
          "duration": 0.2439019999999914
        },
        {
          "name": "D2",
          "midi": 38,
          "time": 183.65820599999935,
          "velocity": 1,
          "duration": 0.2439019999999914
        },
        {
          "name": "D3",
          "midi": 50,
          "time": 183.90210799999934,
          "velocity": 1,
          "duration": 0.2439019999999914
        },
        {
          "name": "D2",
          "midi": 38,
          "time": 183.90210799999934,
          "velocity": 1,
          "duration": 0.2439019999999914
        },
        {
          "name": "C2",
          "midi": 36,
          "time": 184.14600999999934,
          "velocity": 1,
          "duration": 0.4878039999999828
        },
        {
          "name": "D3",
          "midi": 50,
          "time": 184.14600999999934,
          "velocity": 1,
          "duration": 0.2439019999999914
        },
        {
          "name": "D2",
          "midi": 38,
          "time": 184.14600999999934,
          "velocity": 1,
          "duration": 0.2439019999999914
        },
        {
          "name": "D3",
          "midi": 50,
          "time": 184.38991199999933,
          "velocity": 1,
          "duration": 0.2439019999999914
        },
        {
          "name": "D2",
          "midi": 38,
          "time": 184.38991199999933,
          "velocity": 1,
          "duration": 0.2439019999999914
        },
        {
          "name": "C2",
          "midi": 36,
          "time": 184.63381399999932,
          "velocity": 1,
          "duration": 0.4878039999999828
        },
        {
          "name": "D3",
          "midi": 50,
          "time": 184.63381399999932,
          "velocity": 1,
          "duration": 0.2439019999999914
        },
        {
          "name": "D2",
          "midi": 38,
          "time": 184.63381399999932,
          "velocity": 1,
          "duration": 0.2439019999999914
        },
        {
          "name": "D3",
          "midi": 50,
          "time": 184.8777159999993,
          "velocity": 1,
          "duration": 0.2439019999999914
        },
        {
          "name": "D2",
          "midi": 38,
          "time": 184.8777159999993,
          "velocity": 1,
          "duration": 0.2439019999999914
        },
        {
          "name": "A3",
          "midi": 57,
          "time": 185.1216179999993,
          "velocity": 1,
          "duration": 0.48780400000001123
        },
        {
          "name": "D2",
          "midi": 38,
          "time": 185.1216179999993,
          "velocity": 1,
          "duration": 0.48780400000001123
        },
        {
          "name": "A3",
          "midi": 57,
          "time": 185.6094219999993,
          "velocity": 1,
          "duration": 0.48780400000001123
        },
        {
          "name": "C2",
          "midi": 36,
          "time": 185.6094219999993,
          "velocity": 1,
          "duration": 0.48780400000001123
        },
        {
          "name": "F#2",
          "midi": 42,
          "time": 186.09722599999932,
          "velocity": 1,
          "duration": 0.2439019999999914
        },
        {
          "name": "D2",
          "midi": 38,
          "time": 186.09722599999932,
          "velocity": 1,
          "duration": 0.2439019999999914
        },
        {
          "name": "F#2",
          "midi": 42,
          "time": 186.34112799999932,
          "velocity": 1,
          "duration": 0.2439019999999914
        },
        {
          "name": "F#2",
          "midi": 42,
          "time": 186.5850299999993,
          "velocity": 1,
          "duration": 0.2439019999999914
        },
        {
          "name": "C2",
          "midi": 36,
          "time": 186.5850299999993,
          "velocity": 1,
          "duration": 0.4878039999999828
        },
        {
          "name": "F#2",
          "midi": 42,
          "time": 186.8289319999993,
          "velocity": 1,
          "duration": 0.2439019999999914
        },
        {
          "name": "D2",
          "midi": 38,
          "time": 187.0728339999993,
          "velocity": 1,
          "duration": 0.2439019999999914
        },
        {
          "name": "F#2",
          "midi": 42,
          "time": 187.0728339999993,
          "velocity": 1,
          "duration": 0.2439019999999914
        },
        {
          "name": "F#2",
          "midi": 42,
          "time": 187.31673599999928,
          "velocity": 1,
          "duration": 0.2439019999999914
        },
        {
          "name": "F#2",
          "midi": 42,
          "time": 187.56063799999927,
          "velocity": 1,
          "duration": 0.2439019999999914
        },
        {
          "name": "C2",
          "midi": 36,
          "time": 187.56063799999927,
          "velocity": 1,
          "duration": 0.4878039999999828
        },
        {
          "name": "F#2",
          "midi": 42,
          "time": 187.80453999999926,
          "velocity": 1,
          "duration": 0.2439019999999914
        },
        {
          "name": "D2",
          "midi": 38,
          "time": 188.04844199999926,
          "velocity": 1,
          "duration": 0.2439019999999914
        },
        {
          "name": "F#2",
          "midi": 42,
          "time": 188.04844199999926,
          "velocity": 1,
          "duration": 0.2439019999999914
        },
        {
          "name": "F#2",
          "midi": 42,
          "time": 188.29234399999925,
          "velocity": 1,
          "duration": 0.2439019999999914
        },
        {
          "name": "C2",
          "midi": 36,
          "time": 188.53624599999924,
          "velocity": 1,
          "duration": 0.2439019999999914
        },
        {
          "name": "F#2",
          "midi": 42,
          "time": 188.53624599999924,
          "velocity": 1,
          "duration": 0.2439019999999914
        },
        {
          "name": "C2",
          "midi": 36,
          "time": 188.78014799999923,
          "velocity": 1,
          "duration": 0.2439019999999914
        },
        {
          "name": "F#2",
          "midi": 42,
          "time": 188.78014799999923,
          "velocity": 1,
          "duration": 0.2439019999999914
        },
        {
          "name": "D2",
          "midi": 38,
          "time": 189.02404999999922,
          "velocity": 1,
          "duration": 0.2439019999999914
        },
        {
          "name": "F#2",
          "midi": 42,
          "time": 189.02404999999922,
          "velocity": 1,
          "duration": 0.2439019999999914
        },
        {
          "name": "F#2",
          "midi": 42,
          "time": 189.2679519999992,
          "velocity": 1,
          "duration": 0.2439019999999914
        },
        {
          "name": "F#2",
          "midi": 42,
          "time": 189.5118539999992,
          "velocity": 1,
          "duration": 0.2439019999999914
        },
        {
          "name": "C2",
          "midi": 36,
          "time": 189.5118539999992,
          "velocity": 1,
          "duration": 0.4878039999999828
        },
        {
          "name": "F#2",
          "midi": 42,
          "time": 189.7557559999992,
          "velocity": 1,
          "duration": 0.2439019999999914
        },
        {
          "name": "D2",
          "midi": 38,
          "time": 189.9996579999992,
          "velocity": 1,
          "duration": 0.2439019999999914
        },
        {
          "name": "F#2",
          "midi": 42,
          "time": 189.9996579999992,
          "velocity": 1,
          "duration": 0.2439019999999914
        },
        {
          "name": "F#2",
          "midi": 42,
          "time": 190.24355999999918,
          "velocity": 1,
          "duration": 0.2439019999999914
        },
        {
          "name": "F#2",
          "midi": 42,
          "time": 190.48746199999917,
          "velocity": 1,
          "duration": 0.2439019999999914
        },
        {
          "name": "C2",
          "midi": 36,
          "time": 190.48746199999917,
          "velocity": 1,
          "duration": 0.4878039999999828
        },
        {
          "name": "F#2",
          "midi": 42,
          "time": 190.73136399999916,
          "velocity": 1,
          "duration": 0.2439019999999914
        },
        {
          "name": "F#2",
          "midi": 42,
          "time": 190.97526599999915,
          "velocity": 1,
          "duration": 0.2439019999999914
        },
        {
          "name": "C2",
          "midi": 36,
          "time": 190.97526599999915,
          "velocity": 1,
          "duration": 0.4878039999999828
        },
        {
          "name": "A3",
          "midi": 57,
          "time": 191.21916799999914,
          "velocity": 1,
          "duration": 0.2439019999999914
        },
        {
          "name": "D2",
          "midi": 38,
          "time": 191.21916799999914,
          "velocity": 1,
          "duration": 0.2439019999999914
        },
        {
          "name": "F#2",
          "midi": 42,
          "time": 191.46306999999914,
          "velocity": 1,
          "duration": 0.2439019999999914
        },
        {
          "name": "C2",
          "midi": 36,
          "time": 191.46306999999914,
          "velocity": 1,
          "duration": 0.4878039999999828
        },
        {
          "name": "F#2",
          "midi": 42,
          "time": 191.70697199999913,
          "velocity": 1,
          "duration": 0.2439019999999914
        },
        {
          "name": "D2",
          "midi": 38,
          "time": 191.95087399999912,
          "velocity": 1,
          "duration": 0.2439019999999914
        },
        {
          "name": "F#2",
          "midi": 42,
          "time": 191.95087399999912,
          "velocity": 1,
          "duration": 0.2439019999999914
        },
        {
          "name": "F#2",
          "midi": 42,
          "time": 192.1947759999991,
          "velocity": 1,
          "duration": 0.2439019999999914
        },
        {
          "name": "C2",
          "midi": 36,
          "time": 192.4386779999991,
          "velocity": 1,
          "duration": 0.2439019999999914
        },
        {
          "name": "F#2",
          "midi": 42,
          "time": 192.4386779999991,
          "velocity": 1,
          "duration": 0.2439019999999914
        },
        {
          "name": "C2",
          "midi": 36,
          "time": 192.6825799999991,
          "velocity": 1,
          "duration": 0.2439019999999914
        },
        {
          "name": "F#2",
          "midi": 42,
          "time": 192.6825799999991,
          "velocity": 1,
          "duration": 0.2439019999999914
        },
        {
          "name": "D2",
          "midi": 38,
          "time": 192.92648199999908,
          "velocity": 1,
          "duration": 0.2439019999999914
        },
        {
          "name": "F#2",
          "midi": 42,
          "time": 192.92648199999908,
          "velocity": 1,
          "duration": 0.2439019999999914
        },
        {
          "name": "C2",
          "midi": 36,
          "time": 193.17038399999907,
          "velocity": 1,
          "duration": 0.2439019999999914
        },
        {
          "name": "F#2",
          "midi": 42,
          "time": 193.17038399999907,
          "velocity": 1,
          "duration": 0.2439019999999914
        },
        {
          "name": "C2",
          "midi": 36,
          "time": 193.41428599999907,
          "velocity": 1,
          "duration": 0.48780400000001123
        },
        {
          "name": "A3",
          "midi": 57,
          "time": 193.41428599999907,
          "velocity": 1,
          "duration": 0.48780400000001123
        },
        {
          "name": "D2",
          "midi": 38,
          "time": 193.90208999999908,
          "velocity": 1,
          "duration": 0.2439019999999914
        },
        {
          "name": "F#2",
          "midi": 42,
          "time": 193.90208999999908,
          "velocity": 1,
          "duration": 0.2439019999999914
        },
        {
          "name": "F#2",
          "midi": 42,
          "time": 194.14599199999907,
          "velocity": 1,
          "duration": 0.2439019999999914
        },
        {
          "name": "F#2",
          "midi": 42,
          "time": 194.38989399999906,
          "velocity": 1,
          "duration": 0.2439019999999914
        },
        {
          "name": "C2",
          "midi": 36,
          "time": 194.38989399999906,
          "velocity": 1,
          "duration": 0.4878039999999828
        },
        {
          "name": "F#2",
          "midi": 42,
          "time": 194.63379599999905,
          "velocity": 1,
          "duration": 0.2439019999999914
        },
        {
          "name": "F#2",
          "midi": 42,
          "time": 194.87769799999904,
          "velocity": 1,
          "duration": 0.2439019999999914
        },
        {
          "name": "C2",
          "midi": 36,
          "time": 194.87769799999904,
          "velocity": 1,
          "duration": 0.4878039999999828
        },
        {
          "name": "A3",
          "midi": 57,
          "time": 195.12159999999903,
          "velocity": 1,
          "duration": 0.2439019999999914
        },
        {
          "name": "D2",
          "midi": 38,
          "time": 195.12159999999903,
          "velocity": 1,
          "duration": 0.2439019999999914
        },
        {
          "name": "F#2",
          "midi": 42,
          "time": 195.36550199999903,
          "velocity": 1,
          "duration": 0.2439019999999914
        },
        {
          "name": "C2",
          "midi": 36,
          "time": 195.36550199999903,
          "velocity": 1,
          "duration": 0.4878039999999828
        },
        {
          "name": "F#2",
          "midi": 42,
          "time": 195.60940399999902,
          "velocity": 1,
          "duration": 0.2439019999999914
        },
        {
          "name": "D2",
          "midi": 38,
          "time": 195.853305999999,
          "velocity": 1,
          "duration": 0.2439019999999914
        },
        {
          "name": "F#2",
          "midi": 42,
          "time": 195.853305999999,
          "velocity": 1,
          "duration": 0.2439019999999914
        },
        {
          "name": "F#2",
          "midi": 42,
          "time": 196.097207999999,
          "velocity": 1,
          "duration": 0.2439019999999914
        },
        {
          "name": "C2",
          "midi": 36,
          "time": 196.341109999999,
          "velocity": 1,
          "duration": 0.2439019999999914
        },
        {
          "name": "F#2",
          "midi": 42,
          "time": 196.341109999999,
          "velocity": 1,
          "duration": 0.2439019999999914
        },
        {
          "name": "C2",
          "midi": 36,
          "time": 196.58501199999898,
          "velocity": 1,
          "duration": 0.2439019999999914
        },
        {
          "name": "F#2",
          "midi": 42,
          "time": 196.58501199999898,
          "velocity": 1,
          "duration": 0.2439019999999914
        },
        {
          "name": "D2",
          "midi": 38,
          "time": 196.82891399999897,
          "velocity": 1,
          "duration": 0.2439019999999914
        },
        {
          "name": "F#2",
          "midi": 42,
          "time": 196.82891399999897,
          "velocity": 1,
          "duration": 0.2439019999999914
        },
        {
          "name": "C2",
          "midi": 36,
          "time": 197.07281599999897,
          "velocity": 1,
          "duration": 0.2439019999999914
        },
        {
          "name": "F#2",
          "midi": 42,
          "time": 197.07281599999897,
          "velocity": 1,
          "duration": 0.2439019999999914
        },
        {
          "name": "C2",
          "midi": 36,
          "time": 197.31671799999896,
          "velocity": 1,
          "duration": 0.48780400000001123
        },
        {
          "name": "A3",
          "midi": 57,
          "time": 197.31671799999896,
          "velocity": 1,
          "duration": 0.48780400000001123
        },
        {
          "name": "G2",
          "midi": 43,
          "time": 199.26793399999897,
          "velocity": 1,
          "duration": 0.2439019999999914
        },
        {
          "name": "C2",
          "midi": 36,
          "time": 199.26793399999897,
          "velocity": 1,
          "duration": 0.4878039999999828
        },
        {
          "name": "G2",
          "midi": 43,
          "time": 199.51183599999897,
          "velocity": 1,
          "duration": 0.2439019999999914
        },
        {
          "name": "C3",
          "midi": 48,
          "time": 199.75573799999896,
          "velocity": 1,
          "duration": 0.2439019999999914
        },
        {
          "name": "G2",
          "midi": 43,
          "time": 199.75573799999896,
          "velocity": 1,
          "duration": 0.2439019999999914
        },
        {
          "name": "C2",
          "midi": 36,
          "time": 199.75573799999896,
          "velocity": 1,
          "duration": 0.4878039999999828
        },
        {
          "name": "G2",
          "midi": 43,
          "time": 199.99963999999895,
          "velocity": 1,
          "duration": 0.2439019999999914
        },
        {
          "name": "G2",
          "midi": 43,
          "time": 200.24354199999894,
          "velocity": 1,
          "duration": 0.2439019999999914
        },
        {
          "name": "C2",
          "midi": 36,
          "time": 200.24354199999894,
          "velocity": 1,
          "duration": 0.4878039999999828
        },
        {
          "name": "G2",
          "midi": 43,
          "time": 200.48744399999893,
          "velocity": 1,
          "duration": 0.2439019999999914
        },
        {
          "name": "C3",
          "midi": 48,
          "time": 200.73134599999892,
          "velocity": 1,
          "duration": 0.2439019999999914
        },
        {
          "name": "G2",
          "midi": 43,
          "time": 200.73134599999892,
          "velocity": 1,
          "duration": 0.2439019999999914
        },
        {
          "name": "C2",
          "midi": 36,
          "time": 200.73134599999892,
          "velocity": 1,
          "duration": 0.4878039999999828
        },
        {
          "name": "C3",
          "midi": 48,
          "time": 200.9752479999989,
          "velocity": 1,
          "duration": 0.2439019999999914
        },
        {
          "name": "G2",
          "midi": 43,
          "time": 200.9752479999989,
          "velocity": 1,
          "duration": 0.2439019999999914
        },
        {
          "name": "G2",
          "midi": 43,
          "time": 201.2191499999989,
          "velocity": 1,
          "duration": 0.2439019999999914
        },
        {
          "name": "C2",
          "midi": 36,
          "time": 201.2191499999989,
          "velocity": 1,
          "duration": 0.4878039999999828
        },
        {
          "name": "G2",
          "midi": 43,
          "time": 201.4630519999989,
          "velocity": 1,
          "duration": 0.2439019999999914
        },
        {
          "name": "C3",
          "midi": 48,
          "time": 201.7069539999989,
          "velocity": 1,
          "duration": 0.2439019999999914
        },
        {
          "name": "G2",
          "midi": 43,
          "time": 201.7069539999989,
          "velocity": 1,
          "duration": 0.2439019999999914
        },
        {
          "name": "C2",
          "midi": 36,
          "time": 201.7069539999989,
          "velocity": 1,
          "duration": 0.4878039999999828
        },
        {
          "name": "G2",
          "midi": 43,
          "time": 201.95085599999888,
          "velocity": 1,
          "duration": 0.2439019999999914
        },
        {
          "name": "G2",
          "midi": 43,
          "time": 202.19475799999887,
          "velocity": 1,
          "duration": 0.2439019999999914
        },
        {
          "name": "C2",
          "midi": 36,
          "time": 202.19475799999887,
          "velocity": 1,
          "duration": 0.4878039999999828
        },
        {
          "name": "G2",
          "midi": 43,
          "time": 202.43865999999886,
          "velocity": 1,
          "duration": 0.2439019999999914
        },
        {
          "name": "C3",
          "midi": 48,
          "time": 202.68256199999885,
          "velocity": 1,
          "duration": 0.2439019999999914
        },
        {
          "name": "G2",
          "midi": 43,
          "time": 202.68256199999885,
          "velocity": 1,
          "duration": 0.2439019999999914
        },
        {
          "name": "C2",
          "midi": 36,
          "time": 202.68256199999885,
          "velocity": 1,
          "duration": 0.4878039999999828
        },
        {
          "name": "C3",
          "midi": 48,
          "time": 202.92646399999884,
          "velocity": 1,
          "duration": 0.2439019999999914
        },
        {
          "name": "G2",
          "midi": 43,
          "time": 202.92646399999884,
          "velocity": 1,
          "duration": 0.2439019999999914
        },
        {
          "name": "G2",
          "midi": 43,
          "time": 203.17036599999884,
          "velocity": 1,
          "duration": 0.2439019999999914
        },
        {
          "name": "C2",
          "midi": 36,
          "time": 203.17036599999884,
          "velocity": 1,
          "duration": 0.4878039999999828
        },
        {
          "name": "G2",
          "midi": 43,
          "time": 203.41426799999883,
          "velocity": 1,
          "duration": 0.2439019999999914
        },
        {
          "name": "C3",
          "midi": 48,
          "time": 203.65816999999882,
          "velocity": 1,
          "duration": 0.2439019999999914
        },
        {
          "name": "G2",
          "midi": 43,
          "time": 203.65816999999882,
          "velocity": 1,
          "duration": 0.2439019999999914
        },
        {
          "name": "C2",
          "midi": 36,
          "time": 203.65816999999882,
          "velocity": 1,
          "duration": 0.4878039999999828
        },
        {
          "name": "G2",
          "midi": 43,
          "time": 203.9020719999988,
          "velocity": 1,
          "duration": 0.2439019999999914
        },
        {
          "name": "G2",
          "midi": 43,
          "time": 204.1459739999988,
          "velocity": 1,
          "duration": 0.2439019999999914
        },
        {
          "name": "C2",
          "midi": 36,
          "time": 204.1459739999988,
          "velocity": 1,
          "duration": 0.4878039999999828
        },
        {
          "name": "G2",
          "midi": 43,
          "time": 204.3898759999988,
          "velocity": 1,
          "duration": 0.2439019999999914
        },
        {
          "name": "C3",
          "midi": 48,
          "time": 204.63377799999878,
          "velocity": 1,
          "duration": 0.2439019999999914
        },
        {
          "name": "G2",
          "midi": 43,
          "time": 204.63377799999878,
          "velocity": 1,
          "duration": 0.2439019999999914
        },
        {
          "name": "C2",
          "midi": 36,
          "time": 204.63377799999878,
          "velocity": 1,
          "duration": 0.4878039999999828
        },
        {
          "name": "C3",
          "midi": 48,
          "time": 204.87767999999878,
          "velocity": 1,
          "duration": 0.2439019999999914
        },
        {
          "name": "G2",
          "midi": 43,
          "time": 204.87767999999878,
          "velocity": 1,
          "duration": 0.2439019999999914
        },
        {
          "name": "C2",
          "midi": 36,
          "time": 205.12158199999877,
          "velocity": 1,
          "duration": 0.4878039999999828
        },
        {
          "name": "G2",
          "midi": 43,
          "time": 205.12158199999877,
          "velocity": 1,
          "duration": 0.2439019999999914
        },
        {
          "name": "A3",
          "midi": 57,
          "time": 205.36548399999876,
          "velocity": 1,
          "duration": 0.2439019999999914
        },
        {
          "name": "D2",
          "midi": 38,
          "time": 205.36548399999876,
          "velocity": 1,
          "duration": 0.2439019999999914
        },
        {
          "name": "C2",
          "midi": 36,
          "time": 205.60938599999875,
          "velocity": 1,
          "duration": 0.4878039999999828
        },
        {
          "name": "D2",
          "midi": 38,
          "time": 205.85328799999874,
          "velocity": 1,
          "duration": 0.2439019999999914
        },
        {
          "name": "A3",
          "midi": 57,
          "time": 205.85328799999874,
          "velocity": 1,
          "duration": 0.2439019999999914
        },
        {
          "name": "C2",
          "midi": 36,
          "time": 206.09718999999873,
          "velocity": 1,
          "duration": 0.4878039999999828
        },
        {
          "name": "A3",
          "midi": 57,
          "time": 206.34109199999872,
          "velocity": 1,
          "duration": 0.2439019999999914
        },
        {
          "name": "D2",
          "midi": 38,
          "time": 206.34109199999872,
          "velocity": 1,
          "duration": 0.2439019999999914
        },
        {
          "name": "C2",
          "midi": 36,
          "time": 206.58499399999872,
          "velocity": 1,
          "duration": 0.4878039999999828
        },
        {
          "name": "A3",
          "midi": 57,
          "time": 206.8288959999987,
          "velocity": 1,
          "duration": 0.2439019999999914
        },
        {
          "name": "D2",
          "midi": 38,
          "time": 206.8288959999987,
          "velocity": 1,
          "duration": 0.2439019999999914
        },
        {
          "name": "G2",
          "midi": 43,
          "time": 207.0727979999987,
          "velocity": 1,
          "duration": 0.48780400000001123
        },
        {
          "name": "C2",
          "midi": 36,
          "time": 207.0727979999987,
          "velocity": 1,
          "duration": 0.48780400000001123
        },
        {
          "name": "C3",
          "midi": 48,
          "time": 207.5606019999987,
          "velocity": 1,
          "duration": 0.2439019999999914
        },
        {
          "name": "G2",
          "midi": 43,
          "time": 207.5606019999987,
          "velocity": 1,
          "duration": 0.2439019999999914
        },
        {
          "name": "C2",
          "midi": 36,
          "time": 207.5606019999987,
          "velocity": 1,
          "duration": 0.4878039999999828
        },
        {
          "name": "G2",
          "midi": 43,
          "time": 207.8045039999987,
          "velocity": 1,
          "duration": 0.2439019999999914
        },
        {
          "name": "G2",
          "midi": 43,
          "time": 208.0484059999987,
          "velocity": 1,
          "duration": 0.2439019999999914
        },
        {
          "name": "C2",
          "midi": 36,
          "time": 208.0484059999987,
          "velocity": 1,
          "duration": 0.4878039999999828
        },
        {
          "name": "G2",
          "midi": 43,
          "time": 208.29230799999868,
          "velocity": 1,
          "duration": 0.2439019999999914
        },
        {
          "name": "C3",
          "midi": 48,
          "time": 208.53620999999868,
          "velocity": 1,
          "duration": 0.2439019999999914
        },
        {
          "name": "G2",
          "midi": 43,
          "time": 208.53620999999868,
          "velocity": 1,
          "duration": 0.2439019999999914
        },
        {
          "name": "C2",
          "midi": 36,
          "time": 208.53620999999868,
          "velocity": 1,
          "duration": 0.4878039999999828
        },
        {
          "name": "D3",
          "midi": 50,
          "time": 208.78011199999867,
          "velocity": 1,
          "duration": 0.2439019999999914
        },
        {
          "name": "G2",
          "midi": 43,
          "time": 208.78011199999867,
          "velocity": 1,
          "duration": 0.2439019999999914
        },
        {
          "name": "G2",
          "midi": 43,
          "time": 209.02401399999866,
          "velocity": 1,
          "duration": 0.48780400000001123
        },
        {
          "name": "C2",
          "midi": 36,
          "time": 209.02401399999866,
          "velocity": 1,
          "duration": 0.48780400000001123
        },
        {
          "name": "C3",
          "midi": 48,
          "time": 209.51181799999867,
          "velocity": 1,
          "duration": 0.2439019999999914
        },
        {
          "name": "G2",
          "midi": 43,
          "time": 209.51181799999867,
          "velocity": 1,
          "duration": 0.2439019999999914
        },
        {
          "name": "C2",
          "midi": 36,
          "time": 209.51181799999867,
          "velocity": 1,
          "duration": 0.4878039999999828
        },
        {
          "name": "G2",
          "midi": 43,
          "time": 209.75571999999866,
          "velocity": 1,
          "duration": 0.2439019999999914
        },
        {
          "name": "G2",
          "midi": 43,
          "time": 209.99962199999865,
          "velocity": 1,
          "duration": 0.2439019999999914
        },
        {
          "name": "C2",
          "midi": 36,
          "time": 209.99962199999865,
          "velocity": 1,
          "duration": 0.4878039999999828
        },
        {
          "name": "G2",
          "midi": 43,
          "time": 210.24352399999864,
          "velocity": 1,
          "duration": 0.2439019999999914
        },
        {
          "name": "C3",
          "midi": 48,
          "time": 210.48742599999864,
          "velocity": 1,
          "duration": 0.2439019999999914
        },
        {
          "name": "G2",
          "midi": 43,
          "time": 210.48742599999864,
          "velocity": 1,
          "duration": 0.2439019999999914
        },
        {
          "name": "C2",
          "midi": 36,
          "time": 210.48742599999864,
          "velocity": 1,
          "duration": 0.4878039999999828
        },
        {
          "name": "D3",
          "midi": 50,
          "time": 210.73132799999863,
          "velocity": 1,
          "duration": 0.2439019999999914
        },
        {
          "name": "G2",
          "midi": 43,
          "time": 210.73132799999863,
          "velocity": 1,
          "duration": 0.2439019999999914
        },
        {
          "name": "G2",
          "midi": 43,
          "time": 210.97522999999862,
          "velocity": 1,
          "duration": 0.48780400000001123
        },
        {
          "name": "C2",
          "midi": 36,
          "time": 210.97522999999862,
          "velocity": 1,
          "duration": 0.48780400000001123
        },
        {
          "name": "C3",
          "midi": 48,
          "time": 211.46303399999863,
          "velocity": 1,
          "duration": 0.2439019999999914
        },
        {
          "name": "G2",
          "midi": 43,
          "time": 211.46303399999863,
          "velocity": 1,
          "duration": 0.2439019999999914
        },
        {
          "name": "C2",
          "midi": 36,
          "time": 211.46303399999863,
          "velocity": 1,
          "duration": 0.4878039999999828
        },
        {
          "name": "G2",
          "midi": 43,
          "time": 211.70693599999862,
          "velocity": 1,
          "duration": 0.2439019999999914
        },
        {
          "name": "G2",
          "midi": 43,
          "time": 211.9508379999986,
          "velocity": 1,
          "duration": 0.2439019999999914
        },
        {
          "name": "C2",
          "midi": 36,
          "time": 211.9508379999986,
          "velocity": 1,
          "duration": 0.4878039999999828
        },
        {
          "name": "G2",
          "midi": 43,
          "time": 212.1947399999986,
          "velocity": 1,
          "duration": 0.2439019999999914
        },
        {
          "name": "C3",
          "midi": 48,
          "time": 212.4386419999986,
          "velocity": 1,
          "duration": 0.2439019999999914
        },
        {
          "name": "G2",
          "midi": 43,
          "time": 212.4386419999986,
          "velocity": 1,
          "duration": 0.2439019999999914
        },
        {
          "name": "C2",
          "midi": 36,
          "time": 212.4386419999986,
          "velocity": 1,
          "duration": 0.4878039999999828
        },
        {
          "name": "D3",
          "midi": 50,
          "time": 212.6825439999986,
          "velocity": 1,
          "duration": 0.2439019999999914
        },
        {
          "name": "G2",
          "midi": 43,
          "time": 212.6825439999986,
          "velocity": 1,
          "duration": 0.2439019999999914
        },
        {
          "name": "G2",
          "midi": 43,
          "time": 212.92644599999858,
          "velocity": 1,
          "duration": 0.2439019999999914
        },
        {
          "name": "C2",
          "midi": 36,
          "time": 212.92644599999858,
          "velocity": 1,
          "duration": 0.4878039999999828
        },
        {
          "name": "C3",
          "midi": 48,
          "time": 213.17034799999857,
          "velocity": 1,
          "duration": 0.2439019999999914
        },
        {
          "name": "G2",
          "midi": 43,
          "time": 213.17034799999857,
          "velocity": 1,
          "duration": 0.2439019999999914
        },
        {
          "name": "G2",
          "midi": 43,
          "time": 213.41424999999856,
          "velocity": 1,
          "duration": 0.2439019999999914
        },
        {
          "name": "C2",
          "midi": 36,
          "time": 213.41424999999856,
          "velocity": 1,
          "duration": 0.4878039999999828
        },
        {
          "name": "C3",
          "midi": 48,
          "time": 213.65815199999855,
          "velocity": 1,
          "duration": 0.2439019999999914
        },
        {
          "name": "G2",
          "midi": 43,
          "time": 213.65815199999855,
          "velocity": 1,
          "duration": 0.2439019999999914
        },
        {
          "name": "G2",
          "midi": 43,
          "time": 213.90205399999854,
          "velocity": 1,
          "duration": 0.2439019999999914
        },
        {
          "name": "C2",
          "midi": 36,
          "time": 213.90205399999854,
          "velocity": 1,
          "duration": 0.4878039999999828
        },
        {
          "name": "A3",
          "midi": 57,
          "time": 214.14595599999853,
          "velocity": 1,
          "duration": 0.2439019999999914
        },
        {
          "name": "D2",
          "midi": 38,
          "time": 214.14595599999853,
          "velocity": 1,
          "duration": 0.2439019999999914
        },
        {
          "name": "C2",
          "midi": 36,
          "time": 214.38985799999853,
          "velocity": 1,
          "duration": 0.4878039999999828
        },
        {
          "name": "D2",
          "midi": 38,
          "time": 214.63375999999852,
          "velocity": 1,
          "duration": 0.2439019999999914
        },
        {
          "name": "A3",
          "midi": 57,
          "time": 214.63375999999852,
          "velocity": 1,
          "duration": 0.2439019999999914
        },
        {
          "name": "G2",
          "midi": 43,
          "time": 214.8776619999985,
          "velocity": 1,
          "duration": 0.2439019999999914
        },
        {
          "name": "C2",
          "midi": 36,
          "time": 214.8776619999985,
          "velocity": 1,
          "duration": 0.4878039999999828
        },
        {
          "name": "G2",
          "midi": 43,
          "time": 215.1215639999985,
          "velocity": 1,
          "duration": 0.2439019999999914
        },
        {
          "name": "C3",
          "midi": 48,
          "time": 215.3654659999985,
          "velocity": 1,
          "duration": 0.2439019999999914
        },
        {
          "name": "G2",
          "midi": 43,
          "time": 215.3654659999985,
          "velocity": 1,
          "duration": 0.2439019999999914
        },
        {
          "name": "C2",
          "midi": 36,
          "time": 215.3654659999985,
          "velocity": 1,
          "duration": 0.4878039999999828
        },
        {
          "name": "G2",
          "midi": 43,
          "time": 215.60936799999848,
          "velocity": 1,
          "duration": 0.2439019999999914
        },
        {
          "name": "G2",
          "midi": 43,
          "time": 215.85326999999847,
          "velocity": 1,
          "duration": 0.2439019999999914
        },
        {
          "name": "C2",
          "midi": 36,
          "time": 215.85326999999847,
          "velocity": 1,
          "duration": 0.4878039999999828
        },
        {
          "name": "G2",
          "midi": 43,
          "time": 216.09717199999847,
          "velocity": 1,
          "duration": 0.2439019999999914
        },
        {
          "name": "C3",
          "midi": 48,
          "time": 216.34107399999846,
          "velocity": 1,
          "duration": 0.2439019999999914
        },
        {
          "name": "G2",
          "midi": 43,
          "time": 216.34107399999846,
          "velocity": 1,
          "duration": 0.2439019999999914
        },
        {
          "name": "C2",
          "midi": 36,
          "time": 216.34107399999846,
          "velocity": 1,
          "duration": 0.4878039999999828
        },
        {
          "name": "D3",
          "midi": 50,
          "time": 216.58497599999845,
          "velocity": 1,
          "duration": 0.2439019999999914
        },
        {
          "name": "G2",
          "midi": 43,
          "time": 216.58497599999845,
          "velocity": 1,
          "duration": 0.2439019999999914
        },
        {
          "name": "G2",
          "midi": 43,
          "time": 216.82887799999844,
          "velocity": 1,
          "duration": 0.2439019999999914
        },
        {
          "name": "C2",
          "midi": 36,
          "time": 216.82887799999844,
          "velocity": 1,
          "duration": 0.4878039999999828
        },
        {
          "name": "G2",
          "midi": 43,
          "time": 217.07277999999843,
          "velocity": 1,
          "duration": 0.2439019999999914
        },
        {
          "name": "C3",
          "midi": 48,
          "time": 217.31668199999842,
          "velocity": 1,
          "duration": 0.2439019999999914
        },
        {
          "name": "G2",
          "midi": 43,
          "time": 217.31668199999842,
          "velocity": 1,
          "duration": 0.2439019999999914
        },
        {
          "name": "C2",
          "midi": 36,
          "time": 217.31668199999842,
          "velocity": 1,
          "duration": 0.4878039999999828
        },
        {
          "name": "G2",
          "midi": 43,
          "time": 217.5605839999984,
          "velocity": 1,
          "duration": 0.2439019999999914
        },
        {
          "name": "G2",
          "midi": 43,
          "time": 217.8044859999984,
          "velocity": 1,
          "duration": 0.2439019999999914
        },
        {
          "name": "C2",
          "midi": 36,
          "time": 217.8044859999984,
          "velocity": 1,
          "duration": 0.4878039999999828
        },
        {
          "name": "G2",
          "midi": 43,
          "time": 218.0483879999984,
          "velocity": 1,
          "duration": 0.2439019999999914
        },
        {
          "name": "C3",
          "midi": 48,
          "time": 218.2922899999984,
          "velocity": 1,
          "duration": 0.2439019999999914
        },
        {
          "name": "G2",
          "midi": 43,
          "time": 218.2922899999984,
          "velocity": 1,
          "duration": 0.2439019999999914
        },
        {
          "name": "C2",
          "midi": 36,
          "time": 218.2922899999984,
          "velocity": 1,
          "duration": 0.4878039999999828
        },
        {
          "name": "D3",
          "midi": 50,
          "time": 218.53619199999838,
          "velocity": 1,
          "duration": 0.2439019999999914
        },
        {
          "name": "G2",
          "midi": 43,
          "time": 218.53619199999838,
          "velocity": 1,
          "duration": 0.2439019999999914
        },
        {
          "name": "G2",
          "midi": 43,
          "time": 218.78009399999837,
          "velocity": 1,
          "duration": 0.2439019999999914
        },
        {
          "name": "C2",
          "midi": 36,
          "time": 218.78009399999837,
          "velocity": 1,
          "duration": 0.4878039999999828
        },
        {
          "name": "G2",
          "midi": 43,
          "time": 219.02399599999836,
          "velocity": 1,
          "duration": 0.2439019999999914
        },
        {
          "name": "C3",
          "midi": 48,
          "time": 219.26789799999835,
          "velocity": 1,
          "duration": 0.2439019999999914
        },
        {
          "name": "G2",
          "midi": 43,
          "time": 219.26789799999835,
          "velocity": 1,
          "duration": 0.2439019999999914
        },
        {
          "name": "C2",
          "midi": 36,
          "time": 219.26789799999835,
          "velocity": 1,
          "duration": 0.4878039999999828
        },
        {
          "name": "G2",
          "midi": 43,
          "time": 219.51179999999835,
          "velocity": 1,
          "duration": 0.2439019999999914
        },
        {
          "name": "G2",
          "midi": 43,
          "time": 219.75570199999834,
          "velocity": 1,
          "duration": 0.2439019999999914
        },
        {
          "name": "C2",
          "midi": 36,
          "time": 219.75570199999834,
          "velocity": 1,
          "duration": 0.4878039999999828
        },
        {
          "name": "G2",
          "midi": 43,
          "time": 219.99960399999833,
          "velocity": 1,
          "duration": 0.2439019999999914
        },
        {
          "name": "C3",
          "midi": 48,
          "time": 220.24350599999832,
          "velocity": 1,
          "duration": 0.2439019999999914
        },
        {
          "name": "G2",
          "midi": 43,
          "time": 220.24350599999832,
          "velocity": 1,
          "duration": 0.2439019999999914
        },
        {
          "name": "C2",
          "midi": 36,
          "time": 220.24350599999832,
          "velocity": 1,
          "duration": 0.4878039999999828
        },
        {
          "name": "B2",
          "midi": 47,
          "time": 220.4874079999983,
          "velocity": 1,
          "duration": 0.1219509999999957
        },
        {
          "name": "B2",
          "midi": 47,
          "time": 220.6093589999983,
          "velocity": 1,
          "duration": 0.1219509999999957
        },
        {
          "name": "B2",
          "midi": 47,
          "time": 220.7313099999983,
          "velocity": 1,
          "duration": 0.1219509999999957
        },
        {
          "name": "C2",
          "midi": 36,
          "time": 220.7313099999983,
          "velocity": 1,
          "duration": 0.4878039999999828
        },
        {
          "name": "B2",
          "midi": 47,
          "time": 220.8532609999983,
          "velocity": 1,
          "duration": 0.1219509999999957
        },
        {
          "name": "B2",
          "midi": 47,
          "time": 220.9752119999983,
          "velocity": 1,
          "duration": 0.1219509999999957
        },
        {
          "name": "B2",
          "midi": 47,
          "time": 221.0971629999983,
          "velocity": 1,
          "duration": 0.1219509999999957
        },
        {
          "name": "C3",
          "midi": 48,
          "time": 221.21911399999829,
          "velocity": 1,
          "duration": 0.2439019999999914
        },
        {
          "name": "C2",
          "midi": 36,
          "time": 221.21911399999829,
          "velocity": 1,
          "duration": 0.4878039999999828
        },
        {
          "name": "C3",
          "midi": 48,
          "time": 221.46301599999828,
          "velocity": 1,
          "duration": 0.1219509999999957
        },
        {
          "name": "C3",
          "midi": 48,
          "time": 221.58496699999827,
          "velocity": 1,
          "duration": 0.1219509999999957
        },
        {
          "name": "D3",
          "midi": 50,
          "time": 221.70691799999827,
          "velocity": 1,
          "duration": 0.1219509999999957
        },
        {
          "name": "C2",
          "midi": 36,
          "time": 221.70691799999827,
          "velocity": 1,
          "duration": 0.4878039999999828
        },
        {
          "name": "D3",
          "midi": 50,
          "time": 221.82886899999826,
          "velocity": 1,
          "duration": 0.1219509999999957
        },
        {
          "name": "D3",
          "midi": 50,
          "time": 221.95081999999826,
          "velocity": 1,
          "duration": 0.1219509999999957
        },
        {
          "name": "D3",
          "midi": 50,
          "time": 222.07277099999826,
          "velocity": 1,
          "duration": 0.1219509999999957
        },
        {
          "name": "G2",
          "midi": 43,
          "time": 222.19472199999825,
          "velocity": 1,
          "duration": 0.2439019999999914
        },
        {
          "name": "C2",
          "midi": 36,
          "time": 222.19472199999825,
          "velocity": 1,
          "duration": 0.4878039999999828
        },
        {
          "name": "G2",
          "midi": 43,
          "time": 222.43862399999824,
          "velocity": 1,
          "duration": 0.2439019999999914
        },
        {
          "name": "G2",
          "midi": 43,
          "time": 222.68252599999823,
          "velocity": 1,
          "duration": 0.2439019999999914
        },
        {
          "name": "C2",
          "midi": 36,
          "time": 222.68252599999823,
          "velocity": 1,
          "duration": 0.4878039999999828
        },
        {
          "name": "G2",
          "midi": 43,
          "time": 222.92642799999823,
          "velocity": 1,
          "duration": 0.2439019999999914
        },
        {
          "name": "A3",
          "midi": 57,
          "time": 223.17032999999822,
          "velocity": 1,
          "duration": 0.48780400000001123
        },
        {
          "name": "D2",
          "midi": 38,
          "time": 223.17032999999822,
          "velocity": 1,
          "duration": 0.48780400000001123
        },
        {
          "name": "C2",
          "midi": 36,
          "time": 223.17032999999822,
          "velocity": 1,
          "duration": 0.48780400000001123
        },
        {
          "name": "G2",
          "midi": 43,
          "time": 223.65813399999823,
          "velocity": 1,
          "duration": 0.2439019999999914
        },
        {
          "name": "C2",
          "midi": 36,
          "time": 223.65813399999823,
          "velocity": 1,
          "duration": 0.4878039999999828
        },
        {
          "name": "G2",
          "midi": 43,
          "time": 223.90203599999822,
          "velocity": 1,
          "duration": 0.2439019999999914
        },
        {
          "name": "C3",
          "midi": 48,
          "time": 224.1459379999982,
          "velocity": 1,
          "duration": 0.2439019999999914
        },
        {
          "name": "G2",
          "midi": 43,
          "time": 224.1459379999982,
          "velocity": 1,
          "duration": 0.2439019999999914
        },
        {
          "name": "C2",
          "midi": 36,
          "time": 224.1459379999982,
          "velocity": 1,
          "duration": 0.4878039999999828
        },
        {
          "name": "G2",
          "midi": 43,
          "time": 224.3898399999982,
          "velocity": 1,
          "duration": 0.2439019999999914
        },
        {
          "name": "G2",
          "midi": 43,
          "time": 224.6337419999982,
          "velocity": 1,
          "duration": 0.2439019999999914
        },
        {
          "name": "C2",
          "midi": 36,
          "time": 224.6337419999982,
          "velocity": 1,
          "duration": 0.4878039999999828
        },
        {
          "name": "G2",
          "midi": 43,
          "time": 224.87764399999818,
          "velocity": 1,
          "duration": 0.2439019999999914
        },
        {
          "name": "G2",
          "midi": 43,
          "time": 225.12154599999818,
          "velocity": 1,
          "duration": 0.2439019999999914
        },
        {
          "name": "C2",
          "midi": 36,
          "time": 225.12154599999818,
          "velocity": 1,
          "duration": 0.4878039999999828
        },
        {
          "name": "C3",
          "midi": 48,
          "time": 225.36544799999817,
          "velocity": 1,
          "duration": 0.2439019999999914
        },
        {
          "name": "G2",
          "midi": 43,
          "time": 225.36544799999817,
          "velocity": 1,
          "duration": 0.2439019999999914
        },
        {
          "name": "G2",
          "midi": 43,
          "time": 225.60934999999816,
          "velocity": 1,
          "duration": 0.2439019999999914
        },
        {
          "name": "C2",
          "midi": 36,
          "time": 225.60934999999816,
          "velocity": 1,
          "duration": 0.4878039999999828
        },
        {
          "name": "D2",
          "midi": 38,
          "time": 225.85325199999815,
          "velocity": 1,
          "duration": 0.2439019999999914
        },
        {
          "name": "A3",
          "midi": 57,
          "time": 225.85325199999815,
          "velocity": 1,
          "duration": 0.2439019999999914
        },
        {
          "name": "C2",
          "midi": 36,
          "time": 226.09715399999814,
          "velocity": 1,
          "duration": 0.4878039999999828
        },
        {
          "name": "A3",
          "midi": 57,
          "time": 226.34105599999813,
          "velocity": 1,
          "duration": 0.2439019999999914
        },
        {
          "name": "D2",
          "midi": 38,
          "time": 226.34105599999813,
          "velocity": 1,
          "duration": 0.2439019999999914
        },
        {
          "name": "G2",
          "midi": 43,
          "time": 226.58495799999812,
          "velocity": 1,
          "duration": 0.2439019999999914
        },
        {
          "name": "C2",
          "midi": 36,
          "time": 226.58495799999812,
          "velocity": 1,
          "duration": 0.4878039999999828
        },
        {
          "name": "G2",
          "midi": 43,
          "time": 226.82885999999812,
          "velocity": 1,
          "duration": 0.2439019999999914
        },
        {
          "name": "C3",
          "midi": 48,
          "time": 227.0727619999981,
          "velocity": 1,
          "duration": 0.2439019999999914
        },
        {
          "name": "G2",
          "midi": 43,
          "time": 227.0727619999981,
          "velocity": 1,
          "duration": 0.2439019999999914
        },
        {
          "name": "C2",
          "midi": 36,
          "time": 227.0727619999981,
          "velocity": 1,
          "duration": 0.4878039999999828
        },
        {
          "name": "G2",
          "midi": 43,
          "time": 227.3166639999981,
          "velocity": 1,
          "duration": 0.2439019999999914
        },
        {
          "name": "G2",
          "midi": 43,
          "time": 227.5605659999981,
          "velocity": 1,
          "duration": 0.2439019999999914
        },
        {
          "name": "C2",
          "midi": 36,
          "time": 227.5605659999981,
          "velocity": 1,
          "duration": 0.4878039999999828
        },
        {
          "name": "G2",
          "midi": 43,
          "time": 227.80446799999808,
          "velocity": 1,
          "duration": 0.2439019999999914
        },
        {
          "name": "C3",
          "midi": 48,
          "time": 228.04836999999807,
          "velocity": 1,
          "duration": 0.2439019999999914
        },
        {
          "name": "G2",
          "midi": 43,
          "time": 228.04836999999807,
          "velocity": 1,
          "duration": 0.2439019999999914
        },
        {
          "name": "C2",
          "midi": 36,
          "time": 228.04836999999807,
          "velocity": 1,
          "duration": 0.4878039999999828
        },
        {
          "name": "D3",
          "midi": 50,
          "time": 228.29227199999806,
          "velocity": 1,
          "duration": 0.2439019999999914
        },
        {
          "name": "G2",
          "midi": 43,
          "time": 228.29227199999806,
          "velocity": 1,
          "duration": 0.2439019999999914
        },
        {
          "name": "G2",
          "midi": 43,
          "time": 228.53617399999806,
          "velocity": 1,
          "duration": 0.2439019999999914
        },
        {
          "name": "C2",
          "midi": 36,
          "time": 228.53617399999806,
          "velocity": 1,
          "duration": 0.4878039999999828
        },
        {
          "name": "G2",
          "midi": 43,
          "time": 228.78007599999805,
          "velocity": 1,
          "duration": 0.2439019999999914
        },
        {
          "name": "C3",
          "midi": 48,
          "time": 229.02397799999804,
          "velocity": 1,
          "duration": 0.2439019999999914
        },
        {
          "name": "G2",
          "midi": 43,
          "time": 229.02397799999804,
          "velocity": 1,
          "duration": 0.2439019999999914
        },
        {
          "name": "C2",
          "midi": 36,
          "time": 229.02397799999804,
          "velocity": 1,
          "duration": 0.4878039999999828
        },
        {
          "name": "G2",
          "midi": 43,
          "time": 229.26787999999803,
          "velocity": 1,
          "duration": 0.2439019999999914
        },
        {
          "name": "G2",
          "midi": 43,
          "time": 229.51178199999802,
          "velocity": 1,
          "duration": 0.2439019999999914
        },
        {
          "name": "C2",
          "midi": 36,
          "time": 229.51178199999802,
          "velocity": 1,
          "duration": 0.4878039999999828
        },
        {
          "name": "D2",
          "midi": 38,
          "time": 229.755683999998,
          "velocity": 1,
          "duration": 0.2439019999999914
        },
        {
          "name": "A3",
          "midi": 57,
          "time": 229.755683999998,
          "velocity": 1,
          "duration": 0.2439019999999914
        },
        {
          "name": "C2",
          "midi": 36,
          "time": 229.999585999998,
          "velocity": 1,
          "duration": 0.4878039999999828
        },
        {
          "name": "D2",
          "midi": 38,
          "time": 230.243487999998,
          "velocity": 1,
          "duration": 0.2439019999999914
        },
        {
          "name": "A3",
          "midi": 57,
          "time": 230.243487999998,
          "velocity": 1,
          "duration": 0.2439019999999914
        },
        {
          "name": "G2",
          "midi": 43,
          "time": 230.487389999998,
          "velocity": 1,
          "duration": 0.2439019999999914
        },
        {
          "name": "C2",
          "midi": 36,
          "time": 230.487389999998,
          "velocity": 1,
          "duration": 0.4878039999999828
        },
        {
          "name": "G2",
          "midi": 43,
          "time": 230.73129199999798,
          "velocity": 1,
          "duration": 0.2439019999999914
        },
        {
          "name": "C3",
          "midi": 48,
          "time": 230.97519399999797,
          "velocity": 1,
          "duration": 0.2439019999999914
        },
        {
          "name": "G2",
          "midi": 43,
          "time": 230.97519399999797,
          "velocity": 1,
          "duration": 0.2439019999999914
        },
        {
          "name": "C2",
          "midi": 36,
          "time": 230.97519399999797,
          "velocity": 1,
          "duration": 0.4878039999999828
        },
        {
          "name": "G2",
          "midi": 43,
          "time": 231.21909599999796,
          "velocity": 1,
          "duration": 0.2439019999999914
        },
        {
          "name": "G2",
          "midi": 43,
          "time": 231.46299799999795,
          "velocity": 1,
          "duration": 0.2439019999999914
        },
        {
          "name": "C2",
          "midi": 36,
          "time": 231.46299799999795,
          "velocity": 1,
          "duration": 0.4878039999999828
        },
        {
          "name": "G2",
          "midi": 43,
          "time": 231.70689999999794,
          "velocity": 1,
          "duration": 0.2439019999999914
        },
        {
          "name": "C3",
          "midi": 48,
          "time": 231.95080199999794,
          "velocity": 1,
          "duration": 0.2439019999999914
        },
        {
          "name": "G2",
          "midi": 43,
          "time": 231.95080199999794,
          "velocity": 1,
          "duration": 0.2439019999999914
        },
        {
          "name": "C2",
          "midi": 36,
          "time": 231.95080199999794,
          "velocity": 1,
          "duration": 0.4878039999999828
        },
        {
          "name": "D3",
          "midi": 50,
          "time": 232.19470399999793,
          "velocity": 1,
          "duration": 0.2439019999999914
        },
        {
          "name": "G2",
          "midi": 43,
          "time": 232.19470399999793,
          "velocity": 1,
          "duration": 0.2439019999999914
        },
        {
          "name": "G2",
          "midi": 43,
          "time": 232.43860599999792,
          "velocity": 1,
          "duration": 0.2439019999999914
        },
        {
          "name": "C2",
          "midi": 36,
          "time": 232.43860599999792,
          "velocity": 1,
          "duration": 0.4878039999999828
        },
        {
          "name": "G2",
          "midi": 43,
          "time": 232.6825079999979,
          "velocity": 1,
          "duration": 0.2439019999999914
        },
        {
          "name": "C3",
          "midi": 48,
          "time": 232.9264099999979,
          "velocity": 1,
          "duration": 0.2439019999999914
        },
        {
          "name": "G2",
          "midi": 43,
          "time": 232.9264099999979,
          "velocity": 1,
          "duration": 0.2439019999999914
        },
        {
          "name": "C2",
          "midi": 36,
          "time": 232.9264099999979,
          "velocity": 1,
          "duration": 0.4878039999999828
        },
        {
          "name": "G2",
          "midi": 43,
          "time": 233.1703119999979,
          "velocity": 1,
          "duration": 0.2439019999999914
        },
        {
          "name": "G2",
          "midi": 43,
          "time": 233.41421399999788,
          "velocity": 1,
          "duration": 0.2439019999999914
        },
        {
          "name": "C2",
          "midi": 36,
          "time": 233.41421399999788,
          "velocity": 1,
          "duration": 0.4878039999999828
        },
        {
          "name": "G2",
          "midi": 43,
          "time": 233.65811599999788,
          "velocity": 1,
          "duration": 0.2439019999999914
        },
        {
          "name": "C3",
          "midi": 48,
          "time": 233.90201799999787,
          "velocity": 1,
          "duration": 0.2439019999999914
        },
        {
          "name": "G2",
          "midi": 43,
          "time": 233.90201799999787,
          "velocity": 1,
          "duration": 0.2439019999999914
        },
        {
          "name": "C2",
          "midi": 36,
          "time": 233.90201799999787,
          "velocity": 1,
          "duration": 0.4878039999999828
        },
        {
          "name": "D3",
          "midi": 50,
          "time": 234.14591999999786,
          "velocity": 1,
          "duration": 0.2439019999999914
        },
        {
          "name": "G2",
          "midi": 43,
          "time": 234.14591999999786,
          "velocity": 1,
          "duration": 0.2439019999999914
        },
        {
          "name": "D3",
          "midi": 50,
          "time": 234.38982199999785,
          "velocity": 1,
          "duration": 0.2439019999999914
        },
        {
          "name": "D2",
          "midi": 38,
          "time": 234.38982199999785,
          "velocity": 1,
          "duration": 0.2439019999999914
        },
        {
          "name": "C2",
          "midi": 36,
          "time": 234.38982199999785,
          "velocity": 1,
          "duration": 0.4878039999999828
        },
        {
          "name": "D3",
          "midi": 50,
          "time": 234.63372399999784,
          "velocity": 1,
          "duration": 0.2439019999999914
        },
        {
          "name": "D2",
          "midi": 38,
          "time": 234.63372399999784,
          "velocity": 1,
          "duration": 0.2439019999999914
        },
        {
          "name": "D3",
          "midi": 50,
          "time": 234.87762599999783,
          "velocity": 1,
          "duration": 0.2439019999999914
        },
        {
          "name": "D2",
          "midi": 38,
          "time": 234.87762599999783,
          "velocity": 1,
          "duration": 0.2439019999999914
        },
        {
          "name": "C2",
          "midi": 36,
          "time": 234.87762599999783,
          "velocity": 1,
          "duration": 0.4878039999999828
        },
        {
          "name": "D3",
          "midi": 50,
          "time": 235.12152799999782,
          "velocity": 1,
          "duration": 0.2439019999999914
        },
        {
          "name": "D2",
          "midi": 38,
          "time": 235.12152799999782,
          "velocity": 1,
          "duration": 0.2439019999999914
        },
        {
          "name": "D3",
          "midi": 50,
          "time": 235.36542999999782,
          "velocity": 1,
          "duration": 0.2439019999999914
        },
        {
          "name": "D2",
          "midi": 38,
          "time": 235.36542999999782,
          "velocity": 1,
          "duration": 0.2439019999999914
        },
        {
          "name": "C2",
          "midi": 36,
          "time": 235.36542999999782,
          "velocity": 1,
          "duration": 0.4878039999999828
        },
        {
          "name": "D3",
          "midi": 50,
          "time": 235.6093319999978,
          "velocity": 1,
          "duration": 0.2439019999999914
        },
        {
          "name": "D2",
          "midi": 38,
          "time": 235.6093319999978,
          "velocity": 1,
          "duration": 0.2439019999999914
        },
        {
          "name": "D3",
          "midi": 50,
          "time": 235.8532339999978,
          "velocity": 1,
          "duration": 0.2439019999999914
        },
        {
          "name": "D2",
          "midi": 38,
          "time": 235.8532339999978,
          "velocity": 1,
          "duration": 0.2439019999999914
        },
        {
          "name": "C2",
          "midi": 36,
          "time": 235.8532339999978,
          "velocity": 1,
          "duration": 0.4878039999999828
        },
        {
          "name": "D3",
          "midi": 50,
          "time": 236.0971359999978,
          "velocity": 1,
          "duration": 0.2439019999999914
        },
        {
          "name": "D2",
          "midi": 38,
          "time": 236.0971359999978,
          "velocity": 1,
          "duration": 0.2439019999999914
        },
        {
          "name": "D2",
          "midi": 38,
          "time": 236.34103799999778,
          "velocity": 1,
          "duration": 0.2439019999999914
        },
        {
          "name": "D3",
          "midi": 50,
          "time": 236.34103799999778,
          "velocity": 1,
          "duration": 0.2439019999999914
        },
        {
          "name": "C2",
          "midi": 36,
          "time": 236.34103799999778,
          "velocity": 1,
          "duration": 0.4878039999999828
        },
        {
          "name": "D2",
          "midi": 38,
          "time": 236.58493999999777,
          "velocity": 1,
          "duration": 0.2439019999999914
        },
        {
          "name": "D3",
          "midi": 50,
          "time": 236.58493999999777,
          "velocity": 1,
          "duration": 0.2439019999999914
        },
        {
          "name": "D2",
          "midi": 38,
          "time": 236.82884199999776,
          "velocity": 1,
          "duration": 0.2439019999999914
        },
        {
          "name": "D3",
          "midi": 50,
          "time": 236.82884199999776,
          "velocity": 1,
          "duration": 0.2439019999999914
        },
        {
          "name": "C2",
          "midi": 36,
          "time": 236.82884199999776,
          "velocity": 1,
          "duration": 0.48780400000001123
        },
        {
          "name": "D2",
          "midi": 38,
          "time": 237.07274399999775,
          "velocity": 1,
          "duration": 0.24390200000001983
        },
        {
          "name": "D3",
          "midi": 50,
          "time": 237.07274399999775,
          "velocity": 1,
          "duration": 0.24390200000001983
        },
        {
          "name": "D2",
          "midi": 38,
          "time": 237.2963208333311,
          "velocity": 0.7874015748031497,
          "duration": 0.02032516666668016
        },
        {
          "name": "D2",
          "midi": 38,
          "time": 237.31664599999777,
          "velocity": 1,
          "duration": 0.48780400000001123
        },
        {
          "name": "C2",
          "midi": 36,
          "time": 237.56054799999777,
          "velocity": 1,
          "duration": 0.24390200000001983
        },
        {
          "name": "D2",
          "midi": 38,
          "time": 237.7841248333311,
          "velocity": 0.7874015748031497,
          "duration": 0.02032516666668016
        },
        {
          "name": "D2",
          "midi": 38,
          "time": 237.8044499999978,
          "velocity": 1,
          "duration": 0.4878039999999828
        },
        {
          "name": "C2",
          "midi": 36,
          "time": 238.04835199999778,
          "velocity": 1,
          "duration": 0.2439019999999914
        },
        {
          "name": "C2",
          "midi": 36,
          "time": 238.29225399999777,
          "velocity": 1,
          "duration": 0.48780400000001123
        },
        {
          "name": "A3",
          "midi": 57,
          "time": 238.29225399999777,
          "velocity": 1,
          "duration": 0.48780400000001123
        },
        {
          "name": "D2",
          "midi": 38,
          "time": 238.78005799999778,
          "velocity": 1,
          "duration": 0.2439019999999914
        },
        {
          "name": "F#2",
          "midi": 42,
          "time": 238.78005799999778,
          "velocity": 1,
          "duration": 0.2439019999999914
        },
        {
          "name": "F#2",
          "midi": 42,
          "time": 239.02395999999777,
          "velocity": 1,
          "duration": 0.2439019999999914
        },
        {
          "name": "F#2",
          "midi": 42,
          "time": 239.26786199999776,
          "velocity": 1,
          "duration": 0.2439019999999914
        },
        {
          "name": "C2",
          "midi": 36,
          "time": 239.26786199999776,
          "velocity": 1,
          "duration": 0.4878039999999828
        },
        {
          "name": "F#2",
          "midi": 42,
          "time": 239.51176399999775,
          "velocity": 1,
          "duration": 0.2439019999999914
        },
        {
          "name": "D2",
          "midi": 38,
          "time": 239.75566599999775,
          "velocity": 1,
          "duration": 0.2439019999999914
        },
        {
          "name": "F#2",
          "midi": 42,
          "time": 239.75566599999775,
          "velocity": 1,
          "duration": 0.2439019999999914
        },
        {
          "name": "F#2",
          "midi": 42,
          "time": 239.99956799999774,
          "velocity": 1,
          "duration": 0.2439019999999914
        },
        {
          "name": "F#2",
          "midi": 42,
          "time": 240.24346999999773,
          "velocity": 1,
          "duration": 0.2439019999999914
        },
        {
          "name": "C2",
          "midi": 36,
          "time": 240.24346999999773,
          "velocity": 1,
          "duration": 0.4878039999999828
        },
        {
          "name": "F#2",
          "midi": 42,
          "time": 240.48737199999772,
          "velocity": 1,
          "duration": 0.2439019999999914
        },
        {
          "name": "D2",
          "midi": 38,
          "time": 240.7312739999977,
          "velocity": 1,
          "duration": 0.2439019999999914
        },
        {
          "name": "F#2",
          "midi": 42,
          "time": 240.7312739999977,
          "velocity": 1,
          "duration": 0.2439019999999914
        },
        {
          "name": "F#2",
          "midi": 42,
          "time": 240.9751759999977,
          "velocity": 1,
          "duration": 0.2439019999999914
        },
        {
          "name": "C2",
          "midi": 36,
          "time": 241.2190779999977,
          "velocity": 1,
          "duration": 0.2439019999999914
        },
        {
          "name": "F#2",
          "midi": 42,
          "time": 241.2190779999977,
          "velocity": 1,
          "duration": 0.2439019999999914
        },
        {
          "name": "C2",
          "midi": 36,
          "time": 241.46297999999769,
          "velocity": 1,
          "duration": 0.2439019999999914
        },
        {
          "name": "F#2",
          "midi": 42,
          "time": 241.46297999999769,
          "velocity": 1,
          "duration": 0.2439019999999914
        },
        {
          "name": "D2",
          "midi": 38,
          "time": 241.70688199999768,
          "velocity": 1,
          "duration": 0.2439019999999914
        },
        {
          "name": "F#2",
          "midi": 42,
          "time": 241.70688199999768,
          "velocity": 1,
          "duration": 0.2439019999999914
        },
        {
          "name": "F#2",
          "midi": 42,
          "time": 241.95078399999767,
          "velocity": 1,
          "duration": 0.2439019999999914
        },
        {
          "name": "F#2",
          "midi": 42,
          "time": 242.19468599999766,
          "velocity": 1,
          "duration": 0.2439019999999914
        },
        {
          "name": "C2",
          "midi": 36,
          "time": 242.19468599999766,
          "velocity": 1,
          "duration": 0.4878039999999828
        },
        {
          "name": "F#2",
          "midi": 42,
          "time": 242.43858799999765,
          "velocity": 1,
          "duration": 0.2439019999999914
        },
        {
          "name": "D2",
          "midi": 38,
          "time": 242.68248999999764,
          "velocity": 1,
          "duration": 0.2439019999999914
        },
        {
          "name": "F#2",
          "midi": 42,
          "time": 242.68248999999764,
          "velocity": 1,
          "duration": 0.2439019999999914
        },
        {
          "name": "F#2",
          "midi": 42,
          "time": 242.92639199999763,
          "velocity": 1,
          "duration": 0.2439019999999914
        },
        {
          "name": "F#2",
          "midi": 42,
          "time": 243.17029399999763,
          "velocity": 1,
          "duration": 0.2439019999999914
        },
        {
          "name": "C2",
          "midi": 36,
          "time": 243.17029399999763,
          "velocity": 1,
          "duration": 0.4878039999999828
        },
        {
          "name": "F#2",
          "midi": 42,
          "time": 243.41419599999762,
          "velocity": 1,
          "duration": 0.2439019999999914
        },
        {
          "name": "F#2",
          "midi": 42,
          "time": 243.6580979999976,
          "velocity": 1,
          "duration": 0.2439019999999914
        },
        {
          "name": "C2",
          "midi": 36,
          "time": 243.6580979999976,
          "velocity": 1,
          "duration": 0.4878039999999828
        },
        {
          "name": "A3",
          "midi": 57,
          "time": 243.9019999999976,
          "velocity": 1,
          "duration": 0.2439019999999914
        },
        {
          "name": "D2",
          "midi": 38,
          "time": 243.9019999999976,
          "velocity": 1,
          "duration": 0.2439019999999914
        },
        {
          "name": "F#2",
          "midi": 42,
          "time": 244.1459019999976,
          "velocity": 1,
          "duration": 0.2439019999999914
        },
        {
          "name": "C2",
          "midi": 36,
          "time": 244.1459019999976,
          "velocity": 1,
          "duration": 0.4878039999999828
        },
        {
          "name": "F#2",
          "midi": 42,
          "time": 244.38980399999758,
          "velocity": 1,
          "duration": 0.2439019999999914
        },
        {
          "name": "D2",
          "midi": 38,
          "time": 244.63370599999757,
          "velocity": 1,
          "duration": 0.2439019999999914
        },
        {
          "name": "F#2",
          "midi": 42,
          "time": 244.63370599999757,
          "velocity": 1,
          "duration": 0.2439019999999914
        },
        {
          "name": "F#2",
          "midi": 42,
          "time": 244.87760799999757,
          "velocity": 1,
          "duration": 0.2439019999999914
        },
        {
          "name": "C2",
          "midi": 36,
          "time": 245.12150999999756,
          "velocity": 1,
          "duration": 0.2439019999999914
        },
        {
          "name": "F#2",
          "midi": 42,
          "time": 245.12150999999756,
          "velocity": 1,
          "duration": 0.2439019999999914
        },
        {
          "name": "C2",
          "midi": 36,
          "time": 245.36541199999755,
          "velocity": 1,
          "duration": 0.2439019999999914
        },
        {
          "name": "F#2",
          "midi": 42,
          "time": 245.36541199999755,
          "velocity": 1,
          "duration": 0.2439019999999914
        },
        {
          "name": "D2",
          "midi": 38,
          "time": 245.60931399999754,
          "velocity": 1,
          "duration": 0.2439019999999914
        },
        {
          "name": "F#2",
          "midi": 42,
          "time": 245.60931399999754,
          "velocity": 1,
          "duration": 0.2439019999999914
        },
        {
          "name": "C2",
          "midi": 36,
          "time": 245.85321599999753,
          "velocity": 1,
          "duration": 0.2439019999999914
        },
        {
          "name": "F#2",
          "midi": 42,
          "time": 245.85321599999753,
          "velocity": 1,
          "duration": 0.2439019999999914
        },
        {
          "name": "C2",
          "midi": 36,
          "time": 246.09711799999752,
          "velocity": 1,
          "duration": 0.48780400000001123
        },
        {
          "name": "A3",
          "midi": 57,
          "time": 246.09711799999752,
          "velocity": 1,
          "duration": 0.48780400000001123
        },
        {
          "name": "F#2",
          "midi": 42,
          "time": 246.58492199999753,
          "velocity": 1,
          "duration": 0.2439019999999914
        },
        {
          "name": "D2",
          "midi": 38,
          "time": 246.58492199999753,
          "velocity": 1,
          "duration": 0.2439019999999914
        },
        {
          "name": "F#2",
          "midi": 42,
          "time": 246.82882399999752,
          "velocity": 1,
          "duration": 0.2439019999999914
        },
        {
          "name": "C2",
          "midi": 36,
          "time": 247.07272599999752,
          "velocity": 1,
          "duration": 0.4878039999999828
        },
        {
          "name": "F#2",
          "midi": 42,
          "time": 247.07272599999752,
          "velocity": 1,
          "duration": 0.2439019999999914
        },
        {
          "name": "F#2",
          "midi": 42,
          "time": 247.3166279999975,
          "velocity": 1,
          "duration": 0.2439019999999914
        },
        {
          "name": "C2",
          "midi": 36,
          "time": 247.5605299999975,
          "velocity": 1,
          "duration": 0.4878039999999828
        },
        {
          "name": "F#2",
          "midi": 42,
          "time": 247.5605299999975,
          "velocity": 1,
          "duration": 0.2439019999999914
        },
        {
          "name": "A3",
          "midi": 57,
          "time": 247.8044319999975,
          "velocity": 1,
          "duration": 0.2439019999999914
        },
        {
          "name": "D2",
          "midi": 38,
          "time": 247.8044319999975,
          "velocity": 1,
          "duration": 0.2439019999999914
        },
        {
          "name": "C2",
          "midi": 36,
          "time": 248.04833399999748,
          "velocity": 1,
          "duration": 0.4878039999999828
        },
        {
          "name": "F#2",
          "midi": 42,
          "time": 248.04833399999748,
          "velocity": 1,
          "duration": 0.2439019999999914
        },
        {
          "name": "F#2",
          "midi": 42,
          "time": 248.29223599999747,
          "velocity": 1,
          "duration": 0.2439019999999914
        },
        {
          "name": "D2",
          "midi": 38,
          "time": 248.53613799999746,
          "velocity": 1,
          "duration": 0.2439019999999914
        },
        {
          "name": "F#2",
          "midi": 42,
          "time": 248.53613799999746,
          "velocity": 1,
          "duration": 0.2439019999999914
        },
        {
          "name": "F#2",
          "midi": 42,
          "time": 248.78003999999746,
          "velocity": 1,
          "duration": 0.24390200000001983
        },
        {
          "name": "D2",
          "midi": 38,
          "time": 249.0036168333308,
          "velocity": 0.7874015748031497,
          "duration": 0.02032516666668016
        },
        {
          "name": "D2",
          "midi": 38,
          "time": 249.02394199999748,
          "velocity": 1,
          "duration": 0.48780400000001123
        },
        {
          "name": "C2",
          "midi": 36,
          "time": 249.26784399999747,
          "velocity": 1,
          "duration": 0.24390200000001983
        },
        {
          "name": "D2",
          "midi": 38,
          "time": 249.4914208333308,
          "velocity": 0.7874015748031497,
          "duration": 0.02032516666668016
        },
        {
          "name": "D2",
          "midi": 38,
          "time": 249.5117459999975,
          "velocity": 1,
          "duration": 0.4878039999999828
        },
        {
          "name": "C2",
          "midi": 36,
          "time": 249.75564799999748,
          "velocity": 1,
          "duration": 0.2439019999999914
        },
        {
          "name": "C2",
          "midi": 36,
          "time": 249.99954999999747,
          "velocity": 1,
          "duration": 0.48780400000001123
        },
        {
          "name": "A3",
          "midi": 57,
          "time": 249.99954999999747,
          "velocity": 1,
          "duration": 0.48780400000001123
        },
        {
          "name": "D2",
          "midi": 38,
          "time": 250.48735399999748,
          "velocity": 1,
          "duration": 0.2439019999999914
        },
        {
          "name": "F#2",
          "midi": 42,
          "time": 250.48735399999748,
          "velocity": 1,
          "duration": 0.2439019999999914
        },
        {
          "name": "F#2",
          "midi": 42,
          "time": 250.73125599999747,
          "velocity": 1,
          "duration": 0.2439019999999914
        },
        {
          "name": "F#2",
          "midi": 42,
          "time": 250.97515799999746,
          "velocity": 1,
          "duration": 0.2439019999999914
        },
        {
          "name": "C2",
          "midi": 36,
          "time": 250.97515799999746,
          "velocity": 1,
          "duration": 0.4878039999999828
        },
        {
          "name": "F#2",
          "midi": 42,
          "time": 251.21905999999746,
          "velocity": 1,
          "duration": 0.2439019999999914
        },
        {
          "name": "D2",
          "midi": 38,
          "time": 251.46296199999745,
          "velocity": 1,
          "duration": 0.2439019999999914
        },
        {
          "name": "F#2",
          "midi": 42,
          "time": 251.46296199999745,
          "velocity": 1,
          "duration": 0.2439019999999914
        },
        {
          "name": "F#2",
          "midi": 42,
          "time": 251.70686399999744,
          "velocity": 1,
          "duration": 0.2439019999999914
        },
        {
          "name": "F#2",
          "midi": 42,
          "time": 251.95076599999743,
          "velocity": 1,
          "duration": 0.2439019999999914
        },
        {
          "name": "C2",
          "midi": 36,
          "time": 251.95076599999743,
          "velocity": 1,
          "duration": 0.4878039999999828
        },
        {
          "name": "F#2",
          "midi": 42,
          "time": 252.19466799999742,
          "velocity": 1,
          "duration": 0.2439019999999914
        },
        {
          "name": "D2",
          "midi": 38,
          "time": 252.4385699999974,
          "velocity": 1,
          "duration": 0.2439019999999914
        },
        {
          "name": "F#2",
          "midi": 42,
          "time": 252.4385699999974,
          "velocity": 1,
          "duration": 0.2439019999999914
        },
        {
          "name": "F#2",
          "midi": 42,
          "time": 252.6824719999974,
          "velocity": 1,
          "duration": 0.2439019999999914
        },
        {
          "name": "C2",
          "midi": 36,
          "time": 252.9263739999974,
          "velocity": 1,
          "duration": 0.2439019999999914
        },
        {
          "name": "F#2",
          "midi": 42,
          "time": 252.9263739999974,
          "velocity": 1,
          "duration": 0.2439019999999914
        },
        {
          "name": "C2",
          "midi": 36,
          "time": 253.1702759999974,
          "velocity": 1,
          "duration": 0.2439019999999914
        },
        {
          "name": "F#2",
          "midi": 42,
          "time": 253.1702759999974,
          "velocity": 1,
          "duration": 0.2439019999999914
        },
        {
          "name": "D2",
          "midi": 38,
          "time": 253.41417799999738,
          "velocity": 1,
          "duration": 0.2439019999999914
        },
        {
          "name": "F#2",
          "midi": 42,
          "time": 253.41417799999738,
          "velocity": 1,
          "duration": 0.2439019999999914
        },
        {
          "name": "F#2",
          "midi": 42,
          "time": 253.65807999999737,
          "velocity": 1,
          "duration": 0.2439019999999914
        },
        {
          "name": "F#2",
          "midi": 42,
          "time": 253.90198199999736,
          "velocity": 1,
          "duration": 0.2439019999999914
        },
        {
          "name": "C2",
          "midi": 36,
          "time": 253.90198199999736,
          "velocity": 1,
          "duration": 0.4878039999999828
        },
        {
          "name": "F#2",
          "midi": 42,
          "time": 254.14588399999735,
          "velocity": 1,
          "duration": 0.2439019999999914
        },
        {
          "name": "D2",
          "midi": 38,
          "time": 254.38978599999734,
          "velocity": 1,
          "duration": 0.2439019999999914
        },
        {
          "name": "F#2",
          "midi": 42,
          "time": 254.38978599999734,
          "velocity": 1,
          "duration": 0.2439019999999914
        },
        {
          "name": "F#2",
          "midi": 42,
          "time": 254.63368799999733,
          "velocity": 1,
          "duration": 0.2439019999999914
        },
        {
          "name": "F#2",
          "midi": 42,
          "time": 254.87758999999733,
          "velocity": 1,
          "duration": 0.2439019999999914
        },
        {
          "name": "C2",
          "midi": 36,
          "time": 254.87758999999733,
          "velocity": 1,
          "duration": 0.4878039999999828
        },
        {
          "name": "F#2",
          "midi": 42,
          "time": 255.12149199999732,
          "velocity": 1,
          "duration": 0.2439019999999914
        },
        {
          "name": "F#2",
          "midi": 42,
          "time": 255.3653939999973,
          "velocity": 1,
          "duration": 0.2439019999999914
        },
        {
          "name": "C2",
          "midi": 36,
          "time": 255.3653939999973,
          "velocity": 1,
          "duration": 0.4878039999999828
        },
        {
          "name": "A3",
          "midi": 57,
          "time": 255.6092959999973,
          "velocity": 1,
          "duration": 0.2439019999999914
        },
        {
          "name": "D2",
          "midi": 38,
          "time": 255.6092959999973,
          "velocity": 1,
          "duration": 0.2439019999999914
        },
        {
          "name": "F#2",
          "midi": 42,
          "time": 255.8531979999973,
          "velocity": 1,
          "duration": 0.2439019999999914
        },
        {
          "name": "C2",
          "midi": 36,
          "time": 255.8531979999973,
          "velocity": 1,
          "duration": 0.4878039999999828
        },
        {
          "name": "F#2",
          "midi": 42,
          "time": 256.0970999999973,
          "velocity": 1,
          "duration": 0.2439019999999914
        },
        {
          "name": "D2",
          "midi": 38,
          "time": 256.3410019999973,
          "velocity": 1,
          "duration": 0.2439019999999914
        },
        {
          "name": "F#2",
          "midi": 42,
          "time": 256.3410019999973,
          "velocity": 1,
          "duration": 0.2439019999999914
        },
        {
          "name": "F#2",
          "midi": 42,
          "time": 256.58490399999727,
          "velocity": 1,
          "duration": 0.2439019999999914
        },
        {
          "name": "C2",
          "midi": 36,
          "time": 256.82880599999726,
          "velocity": 1,
          "duration": 0.2439019999999914
        },
        {
          "name": "F#2",
          "midi": 42,
          "time": 256.82880599999726,
          "velocity": 1,
          "duration": 0.2439019999999914
        },
        {
          "name": "C2",
          "midi": 36,
          "time": 257.07270799999725,
          "velocity": 1,
          "duration": 0.2439019999999914
        },
        {
          "name": "F#2",
          "midi": 42,
          "time": 257.07270799999725,
          "velocity": 1,
          "duration": 0.2439019999999914
        },
        {
          "name": "D2",
          "midi": 38,
          "time": 257.31660999999724,
          "velocity": 1,
          "duration": 0.2439019999999914
        },
        {
          "name": "F#2",
          "midi": 42,
          "time": 257.31660999999724,
          "velocity": 1,
          "duration": 0.2439019999999914
        },
        {
          "name": "C2",
          "midi": 36,
          "time": 257.56051199999723,
          "velocity": 1,
          "duration": 0.2439019999999914
        },
        {
          "name": "F#2",
          "midi": 42,
          "time": 257.56051199999723,
          "velocity": 1,
          "duration": 0.2439019999999914
        },
        {
          "name": "C2",
          "midi": 36,
          "time": 257.8044139999972,
          "velocity": 1,
          "duration": 0.4878039999999828
        },
        {
          "name": "A3",
          "midi": 57,
          "time": 257.8044139999972,
          "velocity": 1,
          "duration": 0.4878039999999828
        },
        {
          "name": "F#2",
          "midi": 42,
          "time": 258.2922179999972,
          "velocity": 1,
          "duration": 0.2439019999999914
        },
        {
          "name": "D2",
          "midi": 38,
          "time": 258.2922179999972,
          "velocity": 1,
          "duration": 0.2439019999999914
        },
        {
          "name": "F#2",
          "midi": 42,
          "time": 258.5361199999972,
          "velocity": 1,
          "duration": 0.2439019999999914
        },
        {
          "name": "C2",
          "midi": 36,
          "time": 258.7800219999972,
          "velocity": 1,
          "duration": 0.4878039999999828
        },
        {
          "name": "F#2",
          "midi": 42,
          "time": 258.7800219999972,
          "velocity": 1,
          "duration": 0.2439019999999914
        },
        {
          "name": "F#2",
          "midi": 42,
          "time": 259.0239239999972,
          "velocity": 1,
          "duration": 0.2439019999999914
        },
        {
          "name": "C2",
          "midi": 36,
          "time": 259.26782599999717,
          "velocity": 1,
          "duration": 0.4878039999999828
        },
        {
          "name": "F#2",
          "midi": 42,
          "time": 259.26782599999717,
          "velocity": 1,
          "duration": 0.2439019999999914
        },
        {
          "name": "A3",
          "midi": 57,
          "time": 259.51172799999716,
          "velocity": 1,
          "duration": 0.2439019999999914
        },
        {
          "name": "D2",
          "midi": 38,
          "time": 259.51172799999716,
          "velocity": 1,
          "duration": 0.2439019999999914
        },
        {
          "name": "C2",
          "midi": 36,
          "time": 259.75562999999715,
          "velocity": 1,
          "duration": 0.4878039999999828
        },
        {
          "name": "F#2",
          "midi": 42,
          "time": 259.75562999999715,
          "velocity": 1,
          "duration": 0.2439019999999914
        },
        {
          "name": "F#2",
          "midi": 42,
          "time": 259.99953199999715,
          "velocity": 1,
          "duration": 0.2439019999999914
        },
        {
          "name": "D2",
          "midi": 38,
          "time": 260.24343399999714,
          "velocity": 1,
          "duration": 0.2439019999999914
        },
        {
          "name": "F#2",
          "midi": 42,
          "time": 260.24343399999714,
          "velocity": 1,
          "duration": 0.2439019999999914
        },
        {
          "name": "F#2",
          "midi": 42,
          "time": 260.48733599999713,
          "velocity": 1,
          "duration": 0.2439019999999914
        },
        {
          "name": "C2",
          "midi": 36,
          "time": 260.7312379999971,
          "velocity": 1,
          "duration": 0.2439019999999914
        },
        {
          "name": "F#2",
          "midi": 42,
          "time": 260.7312379999971,
          "velocity": 1,
          "duration": 0.2439019999999914
        },
        {
          "name": "C2",
          "midi": 36,
          "time": 260.9751399999971,
          "velocity": 1,
          "duration": 0.2439019999999914
        },
        {
          "name": "F#2",
          "midi": 42,
          "time": 260.9751399999971,
          "velocity": 1,
          "duration": 0.2439019999999914
        },
        {
          "name": "D2",
          "midi": 38,
          "time": 261.2190419999971,
          "velocity": 1,
          "duration": 0.2439019999999914
        },
        {
          "name": "F#2",
          "midi": 42,
          "time": 261.2190419999971,
          "velocity": 1,
          "duration": 0.2439019999999914
        },
        {
          "name": "C2",
          "midi": 36,
          "time": 261.4629439999971,
          "velocity": 1,
          "duration": 0.2439019999999914
        },
        {
          "name": "F#2",
          "midi": 42,
          "time": 261.4629439999971,
          "velocity": 1,
          "duration": 0.2439019999999914
        },
        {
          "name": "C2",
          "midi": 36,
          "time": 263.4141599999971,
          "velocity": 1,
          "duration": 0.2439019999999914
        },
        {
          "name": "A3",
          "midi": 57,
          "time": 263.4141599999971,
          "velocity": 1,
          "duration": 0.2439019999999914
        },
        {
          "name": "D2",
          "midi": 38,
          "time": 269.26780799999705,
          "velocity": 1,
          "duration": 0.2439019999999914
        },
        {
          "name": "A3",
          "midi": 57,
          "time": 269.26780799999705,
          "velocity": 1,
          "duration": 0.2439019999999914
        },
        {
          "name": "F#2",
          "midi": 42,
          "time": 269.75561199999703,
          "velocity": 1,
          "duration": 0.2439019999999914
        },
        {
          "name": "F#2",
          "midi": 42,
          "time": 269.999513999997,
          "velocity": 1,
          "duration": 0.2439019999999914
        },
        {
          "name": "D2",
          "midi": 38,
          "time": 270.243415999997,
          "velocity": 1,
          "duration": 0.2439019999999914
        },
        {
          "name": "F#2",
          "midi": 42,
          "time": 270.243415999997,
          "velocity": 1,
          "duration": 0.2439019999999914
        },
        {
          "name": "C2",
          "midi": 36,
          "time": 270.487317999997,
          "velocity": 1,
          "duration": 0.4878039999999828
        },
        {
          "name": "F#2",
          "midi": 42,
          "time": 270.487317999997,
          "velocity": 1,
          "duration": 0.2439019999999914
        },
        {
          "name": "F#2",
          "midi": 42,
          "time": 270.731219999997,
          "velocity": 1,
          "duration": 0.2439019999999914
        },
        {
          "name": "D2",
          "midi": 38,
          "time": 270.975121999997,
          "velocity": 1,
          "duration": 0.2439019999999914
        },
        {
          "name": "F#2",
          "midi": 42,
          "time": 270.975121999997,
          "velocity": 1,
          "duration": 0.2439019999999914
        },
        {
          "name": "F#2",
          "midi": 42,
          "time": 271.219023999997,
          "velocity": 1,
          "duration": 0.2439019999999914
        },
        {
          "name": "C2",
          "midi": 36,
          "time": 271.46292599999697,
          "velocity": 1,
          "duration": 0.4878039999999828
        },
        {
          "name": "F#2",
          "midi": 42,
          "time": 271.46292599999697,
          "velocity": 1,
          "duration": 0.2439019999999914
        },
        {
          "name": "F#2",
          "midi": 42,
          "time": 271.70682799999696,
          "velocity": 1,
          "duration": 0.2439019999999914
        },
        {
          "name": "D2",
          "midi": 38,
          "time": 271.95072999999695,
          "velocity": 1,
          "duration": 0.2439019999999914
        },
        {
          "name": "F#2",
          "midi": 42,
          "time": 271.95072999999695,
          "velocity": 1,
          "duration": 0.2439019999999914
        },
        {
          "name": "F#2",
          "midi": 42,
          "time": 272.19463199999694,
          "velocity": 1,
          "duration": 0.2439019999999914
        },
        {
          "name": "C2",
          "midi": 36,
          "time": 272.43853399999693,
          "velocity": 1,
          "duration": 0.4878039999999828
        },
        {
          "name": "F#2",
          "midi": 42,
          "time": 272.43853399999693,
          "velocity": 1,
          "duration": 0.2439019999999914
        },
        {
          "name": "F#2",
          "midi": 42,
          "time": 272.6824359999969,
          "velocity": 1,
          "duration": 0.2439019999999914
        },
        {
          "name": "D2",
          "midi": 38,
          "time": 272.9263379999969,
          "velocity": 1,
          "duration": 0.2439019999999914
        },
        {
          "name": "F#2",
          "midi": 42,
          "time": 272.9263379999969,
          "velocity": 1,
          "duration": 0.2439019999999914
        },
        {
          "name": "A3",
          "midi": 57,
          "time": 273.1702399999969,
          "velocity": 1,
          "duration": 0.2439019999999914
        },
        {
          "name": "C2",
          "midi": 36,
          "time": 273.1702399999969,
          "velocity": 1,
          "duration": 0.2439019999999914
        },
        {
          "name": "F#2",
          "midi": 42,
          "time": 273.4141419999969,
          "velocity": 1,
          "duration": 0.2439019999999914
        },
        {
          "name": "F#2",
          "midi": 42,
          "time": 273.6580439999969,
          "velocity": 1,
          "duration": 0.2439019999999914
        },
        {
          "name": "D2",
          "midi": 38,
          "time": 273.9019459999969,
          "velocity": 1,
          "duration": 0.2439019999999914
        },
        {
          "name": "F#2",
          "midi": 42,
          "time": 273.9019459999969,
          "velocity": 1,
          "duration": 0.2439019999999914
        },
        {
          "name": "F#2",
          "midi": 42,
          "time": 274.1458479999969,
          "velocity": 1,
          "duration": 0.2439019999999914
        },
        {
          "name": "C2",
          "midi": 36,
          "time": 274.38974999999687,
          "velocity": 1,
          "duration": 0.4878039999999828
        },
        {
          "name": "F#2",
          "midi": 42,
          "time": 274.38974999999687,
          "velocity": 1,
          "duration": 0.2439019999999914
        },
        {
          "name": "F#2",
          "midi": 42,
          "time": 274.63365199999686,
          "velocity": 1,
          "duration": 0.2439019999999914
        },
        {
          "name": "D2",
          "midi": 38,
          "time": 274.87755399999685,
          "velocity": 1,
          "duration": 0.2439019999999914
        },
        {
          "name": "F#2",
          "midi": 42,
          "time": 274.87755399999685,
          "velocity": 1,
          "duration": 0.2439019999999914
        },
        {
          "name": "F#2",
          "midi": 42,
          "time": 275.12145599999684,
          "velocity": 1,
          "duration": 0.2439019999999914
        },
        {
          "name": "C2",
          "midi": 36,
          "time": 275.36535799999683,
          "velocity": 1,
          "duration": 0.4878039999999828
        },
        {
          "name": "F#2",
          "midi": 42,
          "time": 275.36535799999683,
          "velocity": 1,
          "duration": 0.2439019999999914
        },
        {
          "name": "F#2",
          "midi": 42,
          "time": 275.6092599999968,
          "velocity": 1,
          "duration": 0.2439019999999914
        },
        {
          "name": "D2",
          "midi": 38,
          "time": 275.8531619999968,
          "velocity": 1,
          "duration": 0.2439019999999914
        },
        {
          "name": "F#2",
          "midi": 42,
          "time": 275.8531619999968,
          "velocity": 1,
          "duration": 0.2439019999999914
        },
        {
          "name": "F#2",
          "midi": 42,
          "time": 276.0970639999968,
          "velocity": 1,
          "duration": 0.2439019999999914
        },
        {
          "name": "C2",
          "midi": 36,
          "time": 276.3409659999968,
          "velocity": 1,
          "duration": 0.4878039999999828
        },
        {
          "name": "F#2",
          "midi": 42,
          "time": 276.3409659999968,
          "velocity": 1,
          "duration": 0.2439019999999914
        },
        {
          "name": "F#2",
          "midi": 42,
          "time": 276.5848679999968,
          "velocity": 1,
          "duration": 0.2439019999999914
        },
        {
          "name": "D2",
          "midi": 38,
          "time": 276.8287699999968,
          "velocity": 1,
          "duration": 0.2439019999999914
        },
        {
          "name": "F#2",
          "midi": 42,
          "time": 276.8287699999968,
          "velocity": 1,
          "duration": 0.2439019999999914
        },
        {
          "name": "F#2",
          "midi": 42,
          "time": 277.07267199999677,
          "velocity": 1,
          "duration": 0.2439019999999914
        },
        {
          "name": "C2",
          "midi": 36,
          "time": 277.31657399999676,
          "velocity": 1,
          "duration": 0.4878039999999828
        },
        {
          "name": "F#2",
          "midi": 42,
          "time": 277.31657399999676,
          "velocity": 1,
          "duration": 0.2439019999999914
        },
        {
          "name": "F#2",
          "midi": 42,
          "time": 277.56047599999675,
          "velocity": 1,
          "duration": 0.2439019999999914
        },
        {
          "name": "D2",
          "midi": 38,
          "time": 277.80437799999675,
          "velocity": 1,
          "duration": 0.2439019999999914
        },
        {
          "name": "F#2",
          "midi": 42,
          "time": 277.80437799999675,
          "velocity": 1,
          "duration": 0.2439019999999914
        },
        {
          "name": "F#2",
          "midi": 42,
          "time": 278.04827999999674,
          "velocity": 1,
          "duration": 0.2439019999999914
        },
        {
          "name": "C2",
          "midi": 36,
          "time": 278.2921819999967,
          "velocity": 1,
          "duration": 0.4878039999999828
        },
        {
          "name": "F#2",
          "midi": 42,
          "time": 278.2921819999967,
          "velocity": 1,
          "duration": 0.2439019999999914
        },
        {
          "name": "F#2",
          "midi": 42,
          "time": 278.5360839999967,
          "velocity": 1,
          "duration": 0.2439019999999914
        },
        {
          "name": "D2",
          "midi": 38,
          "time": 278.7799859999967,
          "velocity": 1,
          "duration": 0.2439019999999914
        },
        {
          "name": "F#2",
          "midi": 42,
          "time": 278.7799859999967,
          "velocity": 1,
          "duration": 0.2439019999999914
        },
        {
          "name": "F#2",
          "midi": 42,
          "time": 279.0238879999967,
          "velocity": 1,
          "duration": 0.12195100000002412
        },
        {
          "name": "D2",
          "midi": 38,
          "time": 279.1458389999967,
          "velocity": 1,
          "duration": 0.12195100000002412
        },
        {
          "name": "D2",
          "midi": 38,
          "time": 279.26778999999675,
          "velocity": 1,
          "duration": 0.2439019999999914
        },
        {
          "name": "B2",
          "midi": 47,
          "time": 279.51169199999674,
          "velocity": 1,
          "duration": 0.2439019999999914
        },
        {
          "name": "B2",
          "midi": 47,
          "time": 279.75559399999673,
          "velocity": 1,
          "duration": 0.2439019999999914
        },
        {
          "name": "C3",
          "midi": 48,
          "time": 279.9994959999967,
          "velocity": 1,
          "duration": 0.12195100000002412
        },
        {
          "name": "C3",
          "midi": 48,
          "time": 280.12144699999675,
          "velocity": 1,
          "duration": 0.12195100000002412
        },
        {
          "name": "D2",
          "midi": 38,
          "time": 280.2433979999968,
          "velocity": 1,
          "duration": 0.12195100000002412
        },
        {
          "name": "D2",
          "midi": 38,
          "time": 280.3653489999968,
          "velocity": 1,
          "duration": 0.12195100000002412
        },
        {
          "name": "C3",
          "midi": 48,
          "time": 280.4872999999968,
          "velocity": 1,
          "duration": 0.12195100000002412
        },
        {
          "name": "C3",
          "midi": 48,
          "time": 280.60925099999685,
          "velocity": 1,
          "duration": 0.12195100000002412
        },
        {
          "name": "D2",
          "midi": 38,
          "time": 280.73120199999687,
          "velocity": 1,
          "duration": 0.12195100000002412
        },
        {
          "name": "D2",
          "midi": 38,
          "time": 280.8531529999969,
          "velocity": 1,
          "duration": 0.12195100000002412
        },
        {
          "name": "C3",
          "midi": 48,
          "time": 280.9751039999969,
          "velocity": 1,
          "duration": 0.12195100000002412
        },
        {
          "name": "C3",
          "midi": 48,
          "time": 281.09705499999694,
          "velocity": 1,
          "duration": 0.12195100000002412
        },
        {
          "name": "G2",
          "midi": 43,
          "time": 281.21900599999697,
          "velocity": 1,
          "duration": 0.2439019999999914
        },
        {
          "name": "C2",
          "midi": 36,
          "time": 281.21900599999697,
          "velocity": 1,
          "duration": 0.4878039999999828
        },
        {
          "name": "G2",
          "midi": 43,
          "time": 281.46290799999696,
          "velocity": 1,
          "duration": 0.2439019999999914
        },
        {
          "name": "A3",
          "midi": 57,
          "time": 281.70680999999695,
          "velocity": 1,
          "duration": 0.4878039999999828
        },
        {
          "name": "D2",
          "midi": 38,
          "time": 281.70680999999695,
          "velocity": 1,
          "duration": 0.4878039999999828
        },
        {
          "name": "C2",
          "midi": 36,
          "time": 281.70680999999695,
          "velocity": 1,
          "duration": 0.4878039999999828
        },
        {
          "name": "G2",
          "midi": 43,
          "time": 282.19461399999693,
          "velocity": 1,
          "duration": 0.2439019999999914
        },
        {
          "name": "C2",
          "midi": 36,
          "time": 282.19461399999693,
          "velocity": 1,
          "duration": 0.4878039999999828
        },
        {
          "name": "G2",
          "midi": 43,
          "time": 282.4385159999969,
          "velocity": 1,
          "duration": 0.2439019999999914
        },
        {
          "name": "C3",
          "midi": 48,
          "time": 282.6824179999969,
          "velocity": 1,
          "duration": 0.2439019999999914
        },
        {
          "name": "G2",
          "midi": 43,
          "time": 282.6824179999969,
          "velocity": 1,
          "duration": 0.2439019999999914
        },
        {
          "name": "C2",
          "midi": 36,
          "time": 282.6824179999969,
          "velocity": 1,
          "duration": 0.4878039999999828
        },
        {
          "name": "D3",
          "midi": 50,
          "time": 282.9263199999969,
          "velocity": 1,
          "duration": 0.2439019999999914
        },
        {
          "name": "G2",
          "midi": 43,
          "time": 282.9263199999969,
          "velocity": 1,
          "duration": 0.2439019999999914
        },
        {
          "name": "G2",
          "midi": 43,
          "time": 283.1702219999969,
          "velocity": 1,
          "duration": 0.2439019999999914
        },
        {
          "name": "C2",
          "midi": 36,
          "time": 283.1702219999969,
          "velocity": 1,
          "duration": 0.4878039999999828
        },
        {
          "name": "G2",
          "midi": 43,
          "time": 283.4141239999969,
          "velocity": 1,
          "duration": 0.2439019999999914
        },
        {
          "name": "G2",
          "midi": 43,
          "time": 283.6580259999969,
          "velocity": 1,
          "duration": 0.2439019999999914
        },
        {
          "name": "C2",
          "midi": 36,
          "time": 283.6580259999969,
          "velocity": 1,
          "duration": 0.4878039999999828
        },
        {
          "name": "C3",
          "midi": 48,
          "time": 283.9019279999969,
          "velocity": 1,
          "duration": 0.2439019999999914
        },
        {
          "name": "G2",
          "midi": 43,
          "time": 283.9019279999969,
          "velocity": 1,
          "duration": 0.2439019999999914
        },
        {
          "name": "G2",
          "midi": 43,
          "time": 284.14582999999686,
          "velocity": 1,
          "duration": 0.2439019999999914
        },
        {
          "name": "C2",
          "midi": 36,
          "time": 284.14582999999686,
          "velocity": 1,
          "duration": 0.4878039999999828
        },
        {
          "name": "G2",
          "midi": 43,
          "time": 284.38973199999685,
          "velocity": 1,
          "duration": 0.2439019999999914
        },
        {
          "name": "C3",
          "midi": 48,
          "time": 284.63363399999685,
          "velocity": 1,
          "duration": 0.2439019999999914
        },
        {
          "name": "G2",
          "midi": 43,
          "time": 284.63363399999685,
          "velocity": 1,
          "duration": 0.2439019999999914
        },
        {
          "name": "C2",
          "midi": 36,
          "time": 284.63363399999685,
          "velocity": 1,
          "duration": 0.4878039999999828
        },
        {
          "name": "D3",
          "midi": 50,
          "time": 284.87753599999684,
          "velocity": 1,
          "duration": 0.2439019999999914
        },
        {
          "name": "G2",
          "midi": 43,
          "time": 284.87753599999684,
          "velocity": 1,
          "duration": 0.2439019999999914
        },
        {
          "name": "G2",
          "midi": 43,
          "time": 285.12143799999683,
          "velocity": 1,
          "duration": 0.2439019999999914
        },
        {
          "name": "C2",
          "midi": 36,
          "time": 285.12143799999683,
          "velocity": 1,
          "duration": 0.4878039999999828
        },
        {
          "name": "G2",
          "midi": 43,
          "time": 285.3653399999968,
          "velocity": 1,
          "duration": 0.2439019999999914
        },
        {
          "name": "G2",
          "midi": 43,
          "time": 285.6092419999968,
          "velocity": 1,
          "duration": 0.2439019999999914
        },
        {
          "name": "C2",
          "midi": 36,
          "time": 285.6092419999968,
          "velocity": 1,
          "duration": 0.4878039999999828
        },
        {
          "name": "C3",
          "midi": 48,
          "time": 285.8531439999968,
          "velocity": 1,
          "duration": 0.2439019999999914
        },
        {
          "name": "G2",
          "midi": 43,
          "time": 285.8531439999968,
          "velocity": 1,
          "duration": 0.2439019999999914
        },
        {
          "name": "G2",
          "midi": 43,
          "time": 286.0970459999968,
          "velocity": 1,
          "duration": 0.2439019999999914
        },
        {
          "name": "C2",
          "midi": 36,
          "time": 286.0970459999968,
          "velocity": 1,
          "duration": 0.4878039999999828
        },
        {
          "name": "G2",
          "midi": 43,
          "time": 286.3409479999968,
          "velocity": 1,
          "duration": 0.2439019999999914
        },
        {
          "name": "C3",
          "midi": 48,
          "time": 286.5848499999968,
          "velocity": 1,
          "duration": 0.2439019999999914
        },
        {
          "name": "G2",
          "midi": 43,
          "time": 286.5848499999968,
          "velocity": 1,
          "duration": 0.2439019999999914
        },
        {
          "name": "C2",
          "midi": 36,
          "time": 286.5848499999968,
          "velocity": 1,
          "duration": 0.4878039999999828
        },
        {
          "name": "D3",
          "midi": 50,
          "time": 286.82875199999677,
          "velocity": 1,
          "duration": 0.2439019999999914
        },
        {
          "name": "G2",
          "midi": 43,
          "time": 286.82875199999677,
          "velocity": 1,
          "duration": 0.2439019999999914
        },
        {
          "name": "G2",
          "midi": 43,
          "time": 287.07265399999676,
          "velocity": 1,
          "duration": 0.2439019999999914
        },
        {
          "name": "C2",
          "midi": 36,
          "time": 287.07265399999676,
          "velocity": 1,
          "duration": 0.4878039999999828
        },
        {
          "name": "A3",
          "midi": 57,
          "time": 287.31655599999675,
          "velocity": 1,
          "duration": 0.2439019999999914
        },
        {
          "name": "D2",
          "midi": 38,
          "time": 287.31655599999675,
          "velocity": 1,
          "duration": 0.2439019999999914
        },
        {
          "name": "C2",
          "midi": 36,
          "time": 287.56045799999674,
          "velocity": 1,
          "duration": 0.4878039999999828
        },
        {
          "name": "D2",
          "midi": 38,
          "time": 287.80435999999673,
          "velocity": 1,
          "duration": 0.2439019999999914
        },
        {
          "name": "A3",
          "midi": 57,
          "time": 287.80435999999673,
          "velocity": 1,
          "duration": 0.2439019999999914
        },
        {
          "name": "G2",
          "midi": 43,
          "time": 288.0482619999967,
          "velocity": 1,
          "duration": 0.2439019999999914
        },
        {
          "name": "C2",
          "midi": 36,
          "time": 288.0482619999967,
          "velocity": 1,
          "duration": 0.4878039999999828
        },
        {
          "name": "G2",
          "midi": 43,
          "time": 288.2921639999967,
          "velocity": 1,
          "duration": 0.2439019999999914
        },
        {
          "name": "G2",
          "midi": 43,
          "time": 288.5360659999967,
          "velocity": 1,
          "duration": 0.2439019999999914
        },
        {
          "name": "C2",
          "midi": 36,
          "time": 288.5360659999967,
          "velocity": 1,
          "duration": 0.4878039999999828
        },
        {
          "name": "G2",
          "midi": 43,
          "time": 288.7799679999967,
          "velocity": 1,
          "duration": 0.2439019999999914
        },
        {
          "name": "G2",
          "midi": 43,
          "time": 289.0238699999967,
          "velocity": 1,
          "duration": 0.2439019999999914
        },
        {
          "name": "C2",
          "midi": 36,
          "time": 289.0238699999967,
          "velocity": 1,
          "duration": 0.4878039999999828
        },
        {
          "name": "G2",
          "midi": 43,
          "time": 289.2677719999967,
          "velocity": 1,
          "duration": 0.2439019999999914
        },
        {
          "name": "D2",
          "midi": 38,
          "time": 289.5116739999967,
          "velocity": 1,
          "duration": 0.4878039999999828
        },
        {
          "name": "A3",
          "midi": 57,
          "time": 289.5116739999967,
          "velocity": 1,
          "duration": 0.4878039999999828
        },
        {
          "name": "C2",
          "midi": 36,
          "time": 289.5116739999967,
          "velocity": 1,
          "duration": 0.4878039999999828
        },
        {
          "name": "G2",
          "midi": 43,
          "time": 289.99947799999666,
          "velocity": 1,
          "duration": 0.2439019999999914
        },
        {
          "name": "C2",
          "midi": 36,
          "time": 289.99947799999666,
          "velocity": 1,
          "duration": 0.4878039999999828
        },
        {
          "name": "G2",
          "midi": 43,
          "time": 290.24337999999665,
          "velocity": 1,
          "duration": 0.2439019999999914
        },
        {
          "name": "C3",
          "midi": 48,
          "time": 290.48728199999664,
          "velocity": 1,
          "duration": 0.2439019999999914
        },
        {
          "name": "G2",
          "midi": 43,
          "time": 290.48728199999664,
          "velocity": 1,
          "duration": 0.2439019999999914
        },
        {
          "name": "C2",
          "midi": 36,
          "time": 290.48728199999664,
          "velocity": 1,
          "duration": 0.4878039999999828
        },
        {
          "name": "A3",
          "midi": 57,
          "time": 290.73118399999663,
          "velocity": 1,
          "duration": 0.2439019999999914
        },
        {
          "name": "D2",
          "midi": 38,
          "time": 290.73118399999663,
          "velocity": 1,
          "duration": 0.2439019999999914
        },
        {
          "name": "C2",
          "midi": 36,
          "time": 290.9750859999966,
          "velocity": 1,
          "duration": 0.4878039999999828
        },
        {
          "name": "D2",
          "midi": 38,
          "time": 291.2189879999966,
          "velocity": 1,
          "duration": 0.2439019999999914
        },
        {
          "name": "A3",
          "midi": 57,
          "time": 291.2189879999966,
          "velocity": 1,
          "duration": 0.2439019999999914
        },
        {
          "name": "C2",
          "midi": 36,
          "time": 291.4628899999966,
          "velocity": 1,
          "duration": 0.4878039999999828
        },
        {
          "name": "G2",
          "midi": 43,
          "time": 291.9506939999966,
          "velocity": 1,
          "duration": 0.2439019999999914
        },
        {
          "name": "C2",
          "midi": 36,
          "time": 291.9506939999966,
          "velocity": 1,
          "duration": 0.4878039999999828
        },
        {
          "name": "G2",
          "midi": 43,
          "time": 292.1945959999966,
          "velocity": 1,
          "duration": 0.2439019999999914
        },
        {
          "name": "G2",
          "midi": 43,
          "time": 292.43849799999657,
          "velocity": 1,
          "duration": 0.2439019999999914
        },
        {
          "name": "C2",
          "midi": 36,
          "time": 292.43849799999657,
          "velocity": 1,
          "duration": 0.4878039999999828
        },
        {
          "name": "B2",
          "midi": 47,
          "time": 292.68239999999656,
          "velocity": 1,
          "duration": 0.2439019999999914
        },
        {
          "name": "G2",
          "midi": 43,
          "time": 292.68239999999656,
          "velocity": 1,
          "duration": 0.2439019999999914
        },
        {
          "name": "B2",
          "midi": 47,
          "time": 292.92630199999655,
          "velocity": 1,
          "duration": 0.2439019999999914
        },
        {
          "name": "G2",
          "midi": 43,
          "time": 292.92630199999655,
          "velocity": 1,
          "duration": 0.2439019999999914
        },
        {
          "name": "C2",
          "midi": 36,
          "time": 292.92630199999655,
          "velocity": 1,
          "duration": 0.4878039999999828
        },
        {
          "name": "B2",
          "midi": 47,
          "time": 293.17020399999655,
          "velocity": 1,
          "duration": 0.2439019999999914
        },
        {
          "name": "G2",
          "midi": 43,
          "time": 293.17020399999655,
          "velocity": 1,
          "duration": 0.2439019999999914
        },
        {
          "name": "B2",
          "midi": 47,
          "time": 293.41410599999654,
          "velocity": 1,
          "duration": 0.2439019999999914
        },
        {
          "name": "G2",
          "midi": 43,
          "time": 293.41410599999654,
          "velocity": 1,
          "duration": 0.2439019999999914
        },
        {
          "name": "C2",
          "midi": 36,
          "time": 293.41410599999654,
          "velocity": 1,
          "duration": 0.4878039999999828
        },
        {
          "name": "B2",
          "midi": 47,
          "time": 293.6580079999965,
          "velocity": 1,
          "duration": 0.2439019999999914
        },
        {
          "name": "G2",
          "midi": 43,
          "time": 293.6580079999965,
          "velocity": 1,
          "duration": 0.2439019999999914
        },
        {
          "name": "B2",
          "midi": 47,
          "time": 293.9019099999965,
          "velocity": 1,
          "duration": 0.2439019999999914
        },
        {
          "name": "G2",
          "midi": 43,
          "time": 293.9019099999965,
          "velocity": 1,
          "duration": 0.2439019999999914
        },
        {
          "name": "C2",
          "midi": 36,
          "time": 293.9019099999965,
          "velocity": 1,
          "duration": 0.4878039999999828
        },
        {
          "name": "B2",
          "midi": 47,
          "time": 294.1458119999965,
          "velocity": 1,
          "duration": 0.2439019999999914
        },
        {
          "name": "G2",
          "midi": 43,
          "time": 294.1458119999965,
          "velocity": 1,
          "duration": 0.2439019999999914
        },
        {
          "name": "B2",
          "midi": 47,
          "time": 294.3897139999965,
          "velocity": 1,
          "duration": 0.2439019999999914
        },
        {
          "name": "G2",
          "midi": 43,
          "time": 294.3897139999965,
          "velocity": 1,
          "duration": 0.2439019999999914
        },
        {
          "name": "C2",
          "midi": 36,
          "time": 294.3897139999965,
          "velocity": 1,
          "duration": 0.4878039999999828
        },
        {
          "name": "B2",
          "midi": 47,
          "time": 294.6336159999965,
          "velocity": 1,
          "duration": 0.2439019999999914
        },
        {
          "name": "G2",
          "midi": 43,
          "time": 294.6336159999965,
          "velocity": 1,
          "duration": 0.2439019999999914
        },
        {
          "name": "G2",
          "midi": 43,
          "time": 294.8775179999965,
          "velocity": 1,
          "duration": 0.2439019999999914
        },
        {
          "name": "C2",
          "midi": 36,
          "time": 294.8775179999965,
          "velocity": 1,
          "duration": 0.4878039999999828
        },
        {
          "name": "G2",
          "midi": 43,
          "time": 295.1214199999965,
          "velocity": 1,
          "duration": 0.2439019999999914
        },
        {
          "name": "A3",
          "midi": 57,
          "time": 295.36532199999647,
          "velocity": 1,
          "duration": 0.4878039999999828
        },
        {
          "name": "D2",
          "midi": 38,
          "time": 295.36532199999647,
          "velocity": 1,
          "duration": 0.4878039999999828
        },
        {
          "name": "C2",
          "midi": 36,
          "time": 295.36532199999647,
          "velocity": 1,
          "duration": 0.4878039999999828
        },
        {
          "name": "C2",
          "midi": 36,
          "time": 295.85312599999645,
          "velocity": 1,
          "duration": 0.4878039999999828
        },
        {
          "name": "C3",
          "midi": 48,
          "time": 296.09702799999644,
          "velocity": 1,
          "duration": 0.2439019999999914
        },
        {
          "name": "G2",
          "midi": 43,
          "time": 296.09702799999644,
          "velocity": 1,
          "duration": 0.2439019999999914
        },
        {
          "name": "C2",
          "midi": 36,
          "time": 296.34092999999643,
          "velocity": 1,
          "duration": 0.4878039999999828
        },
        {
          "name": "C3",
          "midi": 48,
          "time": 296.5848319999964,
          "velocity": 1,
          "duration": 0.2439019999999914
        },
        {
          "name": "G2",
          "midi": 43,
          "time": 296.5848319999964,
          "velocity": 1,
          "duration": 0.2439019999999914
        },
        {
          "name": "G2",
          "midi": 43,
          "time": 296.8287339999964,
          "velocity": 1,
          "duration": 0.2439019999999914
        },
        {
          "name": "C2",
          "midi": 36,
          "time": 296.8287339999964,
          "velocity": 1,
          "duration": 0.4878039999999828
        },
        {
          "name": "G2",
          "midi": 43,
          "time": 297.0726359999964,
          "velocity": 1,
          "duration": 0.2439019999999914
        },
        {
          "name": "A3",
          "midi": 57,
          "time": 297.3165379999964,
          "velocity": 1,
          "duration": 0.4878039999999828
        },
        {
          "name": "D2",
          "midi": 38,
          "time": 297.3165379999964,
          "velocity": 1,
          "duration": 0.4878039999999828
        },
        {
          "name": "C2",
          "midi": 36,
          "time": 297.3165379999964,
          "velocity": 1,
          "duration": 0.4878039999999828
        },
        {
          "name": "C2",
          "midi": 36,
          "time": 297.8043419999964,
          "velocity": 1,
          "duration": 0.4878039999999828
        },
        {
          "name": "C3",
          "midi": 48,
          "time": 298.0482439999964,
          "velocity": 1,
          "duration": 0.2439019999999914
        },
        {
          "name": "G2",
          "midi": 43,
          "time": 298.0482439999964,
          "velocity": 1,
          "duration": 0.2439019999999914
        },
        {
          "name": "C2",
          "midi": 36,
          "time": 298.29214599999636,
          "velocity": 1,
          "duration": 0.4878039999999828
        },
        {
          "name": "C3",
          "midi": 48,
          "time": 298.53604799999636,
          "velocity": 1,
          "duration": 0.2439019999999914
        },
        {
          "name": "G2",
          "midi": 43,
          "time": 298.53604799999636,
          "velocity": 1,
          "duration": 0.2439019999999914
        },
        {
          "name": "G2",
          "midi": 43,
          "time": 298.77994999999635,
          "velocity": 1,
          "duration": 0.2439019999999914
        },
        {
          "name": "C2",
          "midi": 36,
          "time": 298.77994999999635,
          "velocity": 1,
          "duration": 0.4878039999999828
        },
        {
          "name": "G2",
          "midi": 43,
          "time": 299.02385199999634,
          "velocity": 1,
          "duration": 0.2439019999999914
        },
        {
          "name": "A3",
          "midi": 57,
          "time": 299.26775399999633,
          "velocity": 1,
          "duration": 0.4878039999999828
        },
        {
          "name": "D2",
          "midi": 38,
          "time": 299.26775399999633,
          "velocity": 1,
          "duration": 0.4878039999999828
        },
        {
          "name": "C2",
          "midi": 36,
          "time": 299.26775399999633,
          "velocity": 1,
          "duration": 0.4878039999999828
        },
        {
          "name": "C2",
          "midi": 36,
          "time": 299.7555579999963,
          "velocity": 1,
          "duration": 0.4878039999999828
        },
        {
          "name": "C3",
          "midi": 48,
          "time": 299.9994599999963,
          "velocity": 1,
          "duration": 0.2439019999999914
        },
        {
          "name": "G2",
          "midi": 43,
          "time": 299.9994599999963,
          "velocity": 1,
          "duration": 0.2439019999999914
        },
        {
          "name": "C2",
          "midi": 36,
          "time": 300.2433619999963,
          "velocity": 1,
          "duration": 0.4878039999999828
        },
        {
          "name": "C3",
          "midi": 48,
          "time": 300.4872639999963,
          "velocity": 1,
          "duration": 0.2439019999999914
        },
        {
          "name": "G2",
          "midi": 43,
          "time": 300.4872639999963,
          "velocity": 1,
          "duration": 0.2439019999999914
        },
        {
          "name": "G2",
          "midi": 43,
          "time": 300.7311659999963,
          "velocity": 1,
          "duration": 0.2439019999999914
        },
        {
          "name": "C2",
          "midi": 36,
          "time": 300.7311659999963,
          "velocity": 1,
          "duration": 0.4878039999999828
        },
        {
          "name": "G2",
          "midi": 43,
          "time": 300.97506799999627,
          "velocity": 1,
          "duration": 0.2439019999999914
        },
        {
          "name": "G2",
          "midi": 43,
          "time": 301.21896999999626,
          "velocity": 1,
          "duration": 0.2439019999999914
        },
        {
          "name": "C2",
          "midi": 36,
          "time": 301.21896999999626,
          "velocity": 1,
          "duration": 0.4878039999999828
        },
        {
          "name": "A3",
          "midi": 57,
          "time": 301.46287199999625,
          "velocity": 1,
          "duration": 0.2439019999999914
        },
        {
          "name": "D2",
          "midi": 38,
          "time": 301.46287199999625,
          "velocity": 1,
          "duration": 0.2439019999999914
        },
        {
          "name": "C2",
          "midi": 36,
          "time": 301.70677399999624,
          "velocity": 1,
          "duration": 0.4878039999999828
        },
        {
          "name": "D2",
          "midi": 38,
          "time": 301.95067599999624,
          "velocity": 1,
          "duration": 0.2439019999999914
        },
        {
          "name": "A3",
          "midi": 57,
          "time": 301.95067599999624,
          "velocity": 1,
          "duration": 0.2439019999999914
        },
        {
          "name": "C2",
          "midi": 36,
          "time": 302.1945779999962,
          "velocity": 1,
          "duration": 0.4878039999999828
        },
        {
          "name": "D2",
          "midi": 38,
          "time": 302.4384799999962,
          "velocity": 1,
          "duration": 0.2439019999999914
        },
        {
          "name": "A3",
          "midi": 57,
          "time": 302.4384799999962,
          "velocity": 1,
          "duration": 0.2439019999999914
        },
        {
          "name": "G2",
          "midi": 43,
          "time": 302.6823819999962,
          "velocity": 1,
          "duration": 0.2439019999999914
        },
        {
          "name": "C2",
          "midi": 36,
          "time": 302.6823819999962,
          "velocity": 1,
          "duration": 0.4878039999999828
        },
        {
          "name": "G2",
          "midi": 43,
          "time": 302.9262839999962,
          "velocity": 1,
          "duration": 0.2439019999999914
        },
        {
          "name": "C3",
          "midi": 48,
          "time": 303.1701859999962,
          "velocity": 1,
          "duration": 0.2439019999999914
        },
        {
          "name": "G2",
          "midi": 43,
          "time": 303.1701859999962,
          "velocity": 1,
          "duration": 0.2439019999999914
        },
        {
          "name": "C2",
          "midi": 36,
          "time": 303.1701859999962,
          "velocity": 1,
          "duration": 0.4878039999999828
        },
        {
          "name": "G2",
          "midi": 43,
          "time": 303.4140879999962,
          "velocity": 1,
          "duration": 0.2439019999999914
        },
        {
          "name": "G2",
          "midi": 43,
          "time": 303.6579899999962,
          "velocity": 1,
          "duration": 0.2439019999999914
        },
        {
          "name": "C2",
          "midi": 36,
          "time": 303.6579899999962,
          "velocity": 1,
          "duration": 0.4878039999999828
        },
        {
          "name": "G2",
          "midi": 43,
          "time": 303.90189199999617,
          "velocity": 1,
          "duration": 0.2439019999999914
        },
        {
          "name": "C3",
          "midi": 48,
          "time": 304.14579399999616,
          "velocity": 1,
          "duration": 0.2439019999999914
        },
        {
          "name": "G2",
          "midi": 43,
          "time": 304.14579399999616,
          "velocity": 1,
          "duration": 0.2439019999999914
        },
        {
          "name": "C2",
          "midi": 36,
          "time": 304.14579399999616,
          "velocity": 1,
          "duration": 0.4878039999999828
        },
        {
          "name": "D3",
          "midi": 50,
          "time": 304.38969599999615,
          "velocity": 1,
          "duration": 0.2439019999999914
        },
        {
          "name": "G2",
          "midi": 43,
          "time": 304.38969599999615,
          "velocity": 1,
          "duration": 0.2439019999999914
        },
        {
          "name": "G2",
          "midi": 43,
          "time": 304.63359799999614,
          "velocity": 1,
          "duration": 0.2439019999999914
        },
        {
          "name": "C2",
          "midi": 36,
          "time": 304.63359799999614,
          "velocity": 1,
          "duration": 0.4878039999999828
        },
        {
          "name": "G2",
          "midi": 43,
          "time": 304.87749999999613,
          "velocity": 1,
          "duration": 0.2439019999999914
        },
        {
          "name": "D2",
          "midi": 38,
          "time": 305.1214019999961,
          "velocity": 1,
          "duration": 0.4878039999999828
        },
        {
          "name": "A3",
          "midi": 57,
          "time": 305.1214019999961,
          "velocity": 1,
          "duration": 0.4878039999999828
        },
        {
          "name": "C2",
          "midi": 36,
          "time": 305.1214019999961,
          "velocity": 1,
          "duration": 0.4878039999999828
        },
        {
          "name": "C2",
          "midi": 36,
          "time": 305.6092059999961,
          "velocity": 1,
          "duration": 0.4878039999999828
        },
        {
          "name": "D2",
          "midi": 38,
          "time": 305.8531079999961,
          "velocity": 1,
          "duration": 0.2439019999999914
        },
        {
          "name": "A3",
          "midi": 57,
          "time": 305.8531079999961,
          "velocity": 1,
          "duration": 0.2439019999999914
        },
        {
          "name": "C2",
          "midi": 36,
          "time": 306.0970099999961,
          "velocity": 1,
          "duration": 0.4878039999999828
        },
        {
          "name": "D2",
          "midi": 38,
          "time": 306.3409119999961,
          "velocity": 1,
          "duration": 0.2439019999999914
        },
        {
          "name": "A3",
          "midi": 57,
          "time": 306.3409119999961,
          "velocity": 1,
          "duration": 0.2439019999999914
        },
        {
          "name": "G2",
          "midi": 43,
          "time": 306.5848139999961,
          "velocity": 1,
          "duration": 0.2439019999999914
        },
        {
          "name": "C2",
          "midi": 36,
          "time": 306.5848139999961,
          "velocity": 1,
          "duration": 0.4878039999999828
        },
        {
          "name": "G2",
          "midi": 43,
          "time": 306.82871599999606,
          "velocity": 1,
          "duration": 0.2439019999999914
        },
        {
          "name": "A3",
          "midi": 57,
          "time": 307.07261799999606,
          "velocity": 1,
          "duration": 0.4878039999999828
        },
        {
          "name": "D2",
          "midi": 38,
          "time": 307.07261799999606,
          "velocity": 1,
          "duration": 0.4878039999999828
        },
        {
          "name": "C2",
          "midi": 36,
          "time": 307.07261799999606,
          "velocity": 1,
          "duration": 0.4878039999999828
        },
        {
          "name": "G2",
          "midi": 43,
          "time": 307.56042199999604,
          "velocity": 1,
          "duration": 0.2439019999999914
        },
        {
          "name": "C2",
          "midi": 36,
          "time": 307.56042199999604,
          "velocity": 1,
          "duration": 0.4878039999999828
        },
        {
          "name": "G2",
          "midi": 43,
          "time": 307.80432399999603,
          "velocity": 1,
          "duration": 0.2439019999999914
        },
        {
          "name": "G2",
          "midi": 43,
          "time": 308.048225999996,
          "velocity": 1,
          "duration": 0.2439019999999914
        },
        {
          "name": "C2",
          "midi": 36,
          "time": 308.048225999996,
          "velocity": 1,
          "duration": 0.4878039999999828
        },
        {
          "name": "D2",
          "midi": 38,
          "time": 308.292127999996,
          "velocity": 1,
          "duration": 0.2439019999999914
        },
        {
          "name": "G2",
          "midi": 43,
          "time": 308.292127999996,
          "velocity": 1,
          "duration": 0.2439019999999914
        },
        {
          "name": "G2",
          "midi": 43,
          "time": 308.536029999996,
          "velocity": 1,
          "duration": 0.24390200000004825
        },
        {
          "name": "C2",
          "midi": 36,
          "time": 308.536029999996,
          "velocity": 1,
          "duration": 0.4878040000000965
        },
        {
          "name": "G2",
          "midi": 43,
          "time": 308.77993199999605,
          "velocity": 1,
          "duration": 0.24390200000004825
        },
        {
          "name": "G2",
          "midi": 43,
          "time": 309.0238339999961,
          "velocity": 1,
          "duration": 0.24390200000004825
        },
        {
          "name": "C2",
          "midi": 36,
          "time": 309.0238339999961,
          "velocity": 1,
          "duration": 0.4878040000000965
        },
        {
          "name": "D2",
          "midi": 38,
          "time": 309.26773599999615,
          "velocity": 1,
          "duration": 0.24390200000004825
        },
        {
          "name": "G2",
          "midi": 43,
          "time": 309.26773599999615,
          "velocity": 1,
          "duration": 0.24390200000004825
        },
        {
          "name": "G2",
          "midi": 43,
          "time": 309.5116379999962,
          "velocity": 1,
          "duration": 0.24390200000004825
        },
        {
          "name": "C2",
          "midi": 36,
          "time": 309.5116379999962,
          "velocity": 1,
          "duration": 0.48780400000003965
        },
        {
          "name": "D2",
          "midi": 38,
          "time": 309.73521483332956,
          "velocity": 0.7874015748031497,
          "duration": 0.02032516666668016
        },
        {
          "name": "D2",
          "midi": 38,
          "time": 309.75553999999624,
          "velocity": 1,
          "duration": 0.2439019999999914
        },
        {
          "name": "G2",
          "midi": 43,
          "time": 309.99944199999624,
          "velocity": 1,
          "duration": 0.2439019999999914
        },
        {
          "name": "C2",
          "midi": 36,
          "time": 309.99944199999624,
          "velocity": 1,
          "duration": 0.4878039999999828
        },
        {
          "name": "G2",
          "midi": 43,
          "time": 310.2433439999962,
          "velocity": 1,
          "duration": 0.2439019999999914
        },
        {
          "name": "G2",
          "midi": 43,
          "time": 310.4872459999962,
          "velocity": 1,
          "duration": 0.2439019999999914
        },
        {
          "name": "C2",
          "midi": 36,
          "time": 310.4872459999962,
          "velocity": 1,
          "duration": 0.4878039999999828
        },
        {
          "name": "G2",
          "midi": 43,
          "time": 310.7311479999962,
          "velocity": 1,
          "duration": 0.2439019999999914
        },
        {
          "name": "A3",
          "midi": 57,
          "time": 310.9750499999962,
          "velocity": 1,
          "duration": 0.48780400000003965
        },
        {
          "name": "D2",
          "midi": 38,
          "time": 310.9750499999962,
          "velocity": 1,
          "duration": 0.48780400000003965
        },
        {
          "name": "C2",
          "midi": 36,
          "time": 310.9750499999962,
          "velocity": 1,
          "duration": 0.48780400000003965
        },
        {
          "name": "G2",
          "midi": 43,
          "time": 311.46285399999624,
          "velocity": 1,
          "duration": 0.48780400000003965
        },
        {
          "name": "C2",
          "midi": 36,
          "time": 311.46285399999624,
          "velocity": 1,
          "duration": 0.48780400000003965
        },
        {
          "name": "C3",
          "midi": 48,
          "time": 311.9506579999963,
          "velocity": 1,
          "duration": 0.24390200000004825
        },
        {
          "name": "G2",
          "midi": 43,
          "time": 311.9506579999963,
          "velocity": 1,
          "duration": 0.24390200000004825
        },
        {
          "name": "C2",
          "midi": 36,
          "time": 311.9506579999963,
          "velocity": 1,
          "duration": 0.48780400000003965
        },
        {
          "name": "D3",
          "midi": 50,
          "time": 312.19455999999633,
          "velocity": 1,
          "duration": 0.2439019999999914
        },
        {
          "name": "G2",
          "midi": 43,
          "time": 312.19455999999633,
          "velocity": 1,
          "duration": 0.2439019999999914
        },
        {
          "name": "G2",
          "midi": 43,
          "time": 312.4384619999963,
          "velocity": 1,
          "duration": 0.24390200000004825
        },
        {
          "name": "C2",
          "midi": 36,
          "time": 312.4384619999963,
          "velocity": 1,
          "duration": 0.4878040000000965
        },
        {
          "name": "G2",
          "midi": 43,
          "time": 312.68236399999637,
          "velocity": 1,
          "duration": 0.24390200000004825
        },
        {
          "name": "A3",
          "midi": 57,
          "time": 312.9262659999964,
          "velocity": 1,
          "duration": 0.48780400000003965
        },
        {
          "name": "D2",
          "midi": 38,
          "time": 312.9262659999964,
          "velocity": 1,
          "duration": 0.48780400000003965
        },
        {
          "name": "C2",
          "midi": 36,
          "time": 312.9262659999964,
          "velocity": 1,
          "duration": 0.48780400000003965
        },
        {
          "name": "G2",
          "midi": 43,
          "time": 313.41406999999646,
          "velocity": 1,
          "duration": 0.4878039999999828
        },
        {
          "name": "C2",
          "midi": 36,
          "time": 313.41406999999646,
          "velocity": 1,
          "duration": 0.4878039999999828
        },
        {
          "name": "C3",
          "midi": 48,
          "time": 313.90187399999644,
          "velocity": 1,
          "duration": 0.2439019999999914
        },
        {
          "name": "G2",
          "midi": 43,
          "time": 313.90187399999644,
          "velocity": 1,
          "duration": 0.2439019999999914
        },
        {
          "name": "C2",
          "midi": 36,
          "time": 313.90187399999644,
          "velocity": 1,
          "duration": 0.48780400000003965
        },
        {
          "name": "D3",
          "midi": 50,
          "time": 314.14577599999643,
          "velocity": 1,
          "duration": 0.24390200000004825
        },
        {
          "name": "G2",
          "midi": 43,
          "time": 314.14577599999643,
          "velocity": 1,
          "duration": 0.24390200000004825
        },
        {
          "name": "G2",
          "midi": 43,
          "time": 314.3896779999965,
          "velocity": 1,
          "duration": 0.2439019999999914
        },
        {
          "name": "C2",
          "midi": 36,
          "time": 314.3896779999965,
          "velocity": 1,
          "duration": 0.4878039999999828
        },
        {
          "name": "G2",
          "midi": 43,
          "time": 314.63357999999647,
          "velocity": 1,
          "duration": 0.2439019999999914
        },
        {
          "name": "A3",
          "midi": 57,
          "time": 314.87748199999646,
          "velocity": 1,
          "duration": 0.48780400000003965
        },
        {
          "name": "D2",
          "midi": 38,
          "time": 314.87748199999646,
          "velocity": 1,
          "duration": 0.48780400000003965
        },
        {
          "name": "C2",
          "midi": 36,
          "time": 314.87748199999646,
          "velocity": 1,
          "duration": 0.48780400000003965
        },
        {
          "name": "G2",
          "midi": 43,
          "time": 315.3652859999965,
          "velocity": 1,
          "duration": 0.2439019999999914
        },
        {
          "name": "C2",
          "midi": 36,
          "time": 315.3652859999965,
          "velocity": 1,
          "duration": 0.48780400000003965
        },
        {
          "name": "D2",
          "midi": 38,
          "time": 315.5888628333298,
          "velocity": 0.7874015748031497,
          "duration": 0.02032516666668016
        },
        {
          "name": "D2",
          "midi": 38,
          "time": 315.6091879999965,
          "velocity": 1,
          "duration": 0.24390200000004825
        },
        {
          "name": "D2",
          "midi": 38,
          "time": 315.83276483332986,
          "velocity": 0.7874015748031497,
          "duration": 0.02032516666668016
        },
        {
          "name": "D2",
          "midi": 38,
          "time": 315.85308999999654,
          "velocity": 1,
          "duration": 0.2439019999999914
        },
        {
          "name": "C2",
          "midi": 36,
          "time": 315.85308999999654,
          "velocity": 1,
          "duration": 0.4878039999999828
        },
        {
          "name": "D2",
          "midi": 38,
          "time": 316.07666683332985,
          "velocity": 0.7874015748031497,
          "duration": 0.02032516666668016
        },
        {
          "name": "D2",
          "midi": 38,
          "time": 316.09699199999653,
          "velocity": 1,
          "duration": 0.2439019999999914
        },
        {
          "name": "G2",
          "midi": 43,
          "time": 316.3408939999965,
          "velocity": 1,
          "duration": 0.24390200000004825
        },
        {
          "name": "C2",
          "midi": 36,
          "time": 316.3408939999965,
          "velocity": 1,
          "duration": 0.48780400000003965
        },
        {
          "name": "G2",
          "midi": 43,
          "time": 316.5847959999966,
          "velocity": 1,
          "duration": 0.2439019999999914
        },
        {
          "name": "D2",
          "midi": 38,
          "time": 316.82869799999656,
          "velocity": 1,
          "duration": 0.48780400000003965
        },
        {
          "name": "A3",
          "midi": 57,
          "time": 316.82869799999656,
          "velocity": 1,
          "duration": 0.48780400000003965
        },
        {
          "name": "C2",
          "midi": 36,
          "time": 316.82869799999656,
          "velocity": 1,
          "duration": 0.48780400000003965
        },
        {
          "name": "G2",
          "midi": 43,
          "time": 317.3165019999966,
          "velocity": 1,
          "duration": 0.2439019999999914
        },
        {
          "name": "C2",
          "midi": 36,
          "time": 317.3165019999966,
          "velocity": 1,
          "duration": 0.4878039999999828
        },
        {
          "name": "A3",
          "midi": 57,
          "time": 317.5604039999966,
          "velocity": 1,
          "duration": 0.2439019999999914
        },
        {
          "name": "D2",
          "midi": 38,
          "time": 317.5604039999966,
          "velocity": 1,
          "duration": 0.2439019999999914
        },
        {
          "name": "C2",
          "midi": 36,
          "time": 317.8043059999966,
          "velocity": 1,
          "duration": 0.48780400000003965
        },
        {
          "name": "A3",
          "midi": 57,
          "time": 318.0482079999966,
          "velocity": 1,
          "duration": 0.24390200000004825
        },
        {
          "name": "D2",
          "midi": 38,
          "time": 318.0482079999966,
          "velocity": 1,
          "duration": 0.24390200000004825
        },
        {
          "name": "G2",
          "midi": 43,
          "time": 318.2921099999966,
          "velocity": 1,
          "duration": 0.2439019999999914
        },
        {
          "name": "C2",
          "midi": 36,
          "time": 318.2921099999966,
          "velocity": 1,
          "duration": 0.4878039999999828
        },
        {
          "name": "G2",
          "midi": 43,
          "time": 318.5360119999966,
          "velocity": 1,
          "duration": 0.2439019999999914
        },
        {
          "name": "A3",
          "midi": 57,
          "time": 318.7799139999966,
          "velocity": 1,
          "duration": 0.48780400000003965
        },
        {
          "name": "D2",
          "midi": 38,
          "time": 318.7799139999966,
          "velocity": 1,
          "duration": 0.48780400000003965
        },
        {
          "name": "C2",
          "midi": 36,
          "time": 318.7799139999966,
          "velocity": 1,
          "duration": 0.48780400000003965
        },
        {
          "name": "G2",
          "midi": 43,
          "time": 319.26771799999665,
          "velocity": 1,
          "duration": 0.48780400000003965
        },
        {
          "name": "C2",
          "midi": 36,
          "time": 319.26771799999665,
          "velocity": 1,
          "duration": 0.48780400000003965
        },
        {
          "name": "C2",
          "midi": 36,
          "time": 319.7555219999967,
          "velocity": 1,
          "duration": 0.4878040000000965
        },
        {
          "name": "A3",
          "midi": 57,
          "time": 319.99942399999674,
          "velocity": 1,
          "duration": 0.24390200000004825
        },
        {
          "name": "D2",
          "midi": 38,
          "time": 319.99942399999674,
          "velocity": 1,
          "duration": 0.24390200000004825
        },
        {
          "name": "C2",
          "midi": 36,
          "time": 320.2433259999968,
          "velocity": 1,
          "duration": 0.4878040000000965
        },
        {
          "name": "D2",
          "midi": 38,
          "time": 320.48722799999683,
          "velocity": 1,
          "duration": 0.24390200000004825
        },
        {
          "name": "A3",
          "midi": 57,
          "time": 320.48722799999683,
          "velocity": 1,
          "duration": 0.24390200000004825
        },
        {
          "name": "C2",
          "midi": 36,
          "time": 320.7311299999969,
          "velocity": 1,
          "duration": 0.4878039999999828
        },
        {
          "name": "D2",
          "midi": 38,
          "time": 320.9750319999969,
          "velocity": 1,
          "duration": 0.2439019999999914
        },
        {
          "name": "A3",
          "midi": 57,
          "time": 320.9750319999969,
          "velocity": 1,
          "duration": 0.2439019999999914
        },
        {
          "name": "G2",
          "midi": 43,
          "time": 321.21893399999686,
          "velocity": 1,
          "duration": 0.4878039999999828
        },
        {
          "name": "C2",
          "midi": 36,
          "time": 321.21893399999686,
          "velocity": 1,
          "duration": 0.4878039999999828
        },
        {
          "name": "G2",
          "midi": 43,
          "time": 321.70673799999685,
          "velocity": 1,
          "duration": 0.2439019999999914
        },
        {
          "name": "C2",
          "midi": 36,
          "time": 321.70673799999685,
          "velocity": 1,
          "duration": 0.48780400000003965
        },
        {
          "name": "D2",
          "midi": 38,
          "time": 321.95063999999684,
          "velocity": 1,
          "duration": 0.24390200000004825
        },
        {
          "name": "G2",
          "midi": 43,
          "time": 321.95063999999684,
          "velocity": 1,
          "duration": 0.24390200000004825
        },
        {
          "name": "G2",
          "midi": 43,
          "time": 322.1945419999969,
          "velocity": 1,
          "duration": 0.2439019999999914
        },
        {
          "name": "C2",
          "midi": 36,
          "time": 322.1945419999969,
          "velocity": 1,
          "duration": 0.4878039999999828
        },
        {
          "name": "G2",
          "midi": 43,
          "time": 322.4384439999969,
          "velocity": 1,
          "duration": 0.2439019999999914
        },
        {
          "name": "G2",
          "midi": 43,
          "time": 322.68234599999687,
          "velocity": 1,
          "duration": 0.2439019999999914
        },
        {
          "name": "C2",
          "midi": 36,
          "time": 322.68234599999687,
          "velocity": 1,
          "duration": 0.48780400000003965
        },
        {
          "name": "D2",
          "midi": 38,
          "time": 322.92624799999686,
          "velocity": 1,
          "duration": 0.24390200000004825
        },
        {
          "name": "G2",
          "midi": 43,
          "time": 322.92624799999686,
          "velocity": 1,
          "duration": 0.24390200000004825
        },
        {
          "name": "G2",
          "midi": 43,
          "time": 323.1701499999969,
          "velocity": 1,
          "duration": 0.24390200000004825
        },
        {
          "name": "C2",
          "midi": 36,
          "time": 323.1701499999969,
          "velocity": 1,
          "duration": 0.4878040000000965
        },
        {
          "name": "D2",
          "midi": 38,
          "time": 323.41405199999696,
          "velocity": 1,
          "duration": 0.12195100000002412
        },
        {
          "name": "D2",
          "midi": 38,
          "time": 323.536002999997,
          "velocity": 1,
          "duration": 0.12195100000002412
        },
        {
          "name": "B2",
          "midi": 47,
          "time": 323.657953999997,
          "velocity": 1,
          "duration": 0.12195100000002412
        },
        {
          "name": "C2",
          "midi": 36,
          "time": 323.657953999997,
          "velocity": 1,
          "duration": 0.4878040000000965
        },
        {
          "name": "B2",
          "midi": 47,
          "time": 323.77990499999703,
          "velocity": 1,
          "duration": 0.12195100000002412
        },
        {
          "name": "D2",
          "midi": 38,
          "time": 323.90185599999705,
          "velocity": 1,
          "duration": 0.12195100000002412
        },
        {
          "name": "D2",
          "midi": 38,
          "time": 324.0238069999971,
          "velocity": 1,
          "duration": 0.12195100000002412
        }
      ],
      "controlChanges": {
        "7": [
          {
            "number": 7,
            "time": 0,
            "value": 0.7874015748031497
          },
          {
            "number": 7,
            "time": 308.536029999996,
            "value": 0.7874015748031497
          },
          {
            "number": 7,
            "time": 308.6905012666627,
            "value": 0.7795275590551181
          },
          {
            "number": 7,
            "time": 308.84903756666273,
            "value": 0.7716535433070866
          },
          {
            "number": 7,
            "time": 309.0035088333294,
            "value": 0.7637795275590551
          },
          {
            "number": 7,
            "time": 309.16204513332946,
            "value": 0.7559055118110236
          },
          {
            "number": 7,
            "time": 309.31651639999615,
            "value": 0.7480314960629921
          },
          {
            "number": 7,
            "time": 309.47098766666284,
            "value": 0.7401574803149606
          },
          {
            "number": 7,
            "time": 309.6295239666629,
            "value": 0.7322834645669292
          },
          {
            "number": 7,
            "time": 309.78399523332956,
            "value": 0.7244094488188977
          },
          {
            "number": 7,
            "time": 309.94253153332954,
            "value": 0.7165354330708661
          },
          {
            "number": 7,
            "time": 310.09700279999623,
            "value": 0.7086614173228346
          },
          {
            "number": 7,
            "time": 310.2514740666629,
            "value": 0.7007874015748031
          },
          {
            "number": 7,
            "time": 310.4100103666629,
            "value": 0.6929133858267716
          },
          {
            "number": 7,
            "time": 310.56448163332954,
            "value": 0.6850393700787402
          },
          {
            "number": 7,
            "time": 310.7189528999962,
            "value": 0.6771653543307087
          },
          {
            "number": 7,
            "time": 310.8774891999962,
            "value": 0.6692913385826772
          },
          {
            "number": 7,
            "time": 311.0319604666629,
            "value": 0.6614173228346457
          },
          {
            "number": 7,
            "time": 311.1904967666629,
            "value": 0.6535433070866141
          },
          {
            "number": 7,
            "time": 311.34496803332956,
            "value": 0.6456692913385826
          },
          {
            "number": 7,
            "time": 311.49943929999625,
            "value": 0.6377952755905512
          },
          {
            "number": 7,
            "time": 311.65797559999623,
            "value": 0.6299212598425197
          },
          {
            "number": 7,
            "time": 311.8124468666629,
            "value": 0.6220472440944882
          },
          {
            "number": 7,
            "time": 311.97098316666296,
            "value": 0.6141732283464567
          },
          {
            "number": 7,
            "time": 312.12545443332965,
            "value": 0.6062992125984252
          },
          {
            "number": 7,
            "time": 312.27992569999634,
            "value": 0.5984251968503937
          },
          {
            "number": 7,
            "time": 312.4384619999963,
            "value": 0.5905511811023622
          },
          {
            "number": 7,
            "time": 312.592933266663,
            "value": 0.5826771653543307
          },
          {
            "number": 7,
            "time": 312.75146956666305,
            "value": 0.5748031496062992
          },
          {
            "number": 7,
            "time": 312.90594083332974,
            "value": 0.5669291338582677
          },
          {
            "number": 7,
            "time": 313.0604120999964,
            "value": 0.5590551181102362
          },
          {
            "number": 7,
            "time": 313.2189483999964,
            "value": 0.5511811023622047
          },
          {
            "number": 7,
            "time": 313.3734196666631,
            "value": 0.5433070866141733
          },
          {
            "number": 7,
            "time": 313.5278909333298,
            "value": 0.5354330708661418
          },
          {
            "number": 7,
            "time": 313.68642723332977,
            "value": 0.5275590551181102
          },
          {
            "number": 7,
            "time": 313.84089849999646,
            "value": 0.5196850393700787
          },
          {
            "number": 7,
            "time": 313.99943479999644,
            "value": 0.5118110236220472
          },
          {
            "number": 7,
            "time": 314.1539060666631,
            "value": 0.5039370078740157
          },
          {
            "number": 7,
            "time": 314.3083773333298,
            "value": 0.49606299212598426
          },
          {
            "number": 7,
            "time": 314.4669136333298,
            "value": 0.4881889763779528
          },
          {
            "number": 7,
            "time": 314.6213848999965,
            "value": 0.48031496062992124
          },
          {
            "number": 7,
            "time": 314.77992119999647,
            "value": 0.47244094488188976
          },
          {
            "number": 7,
            "time": 314.93439246666316,
            "value": 0.4645669291338583
          },
          {
            "number": 7,
            "time": 315.08886373332984,
            "value": 0.4566929133858268
          },
          {
            "number": 7,
            "time": 315.2474000333298,
            "value": 0.44881889763779526
          },
          {
            "number": 7,
            "time": 315.4018712999965,
            "value": 0.4409448818897638
          },
          {
            "number": 7,
            "time": 315.5604075999965,
            "value": 0.4330708661417323
          },
          {
            "number": 7,
            "time": 315.7148788666632,
            "value": 0.4251968503937008
          },
          {
            "number": 7,
            "time": 315.8693501333299,
            "value": 0.41732283464566927
          },
          {
            "number": 7,
            "time": 316.02788643332985,
            "value": 0.4094488188976378
          },
          {
            "number": 7,
            "time": 316.18235769999654,
            "value": 0.4015748031496063
          },
          {
            "number": 7,
            "time": 316.3408939999965,
            "value": 0.3937007874015748
          },
          {
            "number": 7,
            "time": 316.4953652666632,
            "value": 0.3858267716535433
          },
          {
            "number": 7,
            "time": 316.6498365333299,
            "value": 0.3779527559055118
          },
          {
            "number": 7,
            "time": 316.8083728333299,
            "value": 0.3700787401574803
          },
          {
            "number": 7,
            "time": 316.9628440999966,
            "value": 0.36220472440944884
          },
          {
            "number": 7,
            "time": 317.11731536666326,
            "value": 0.3543307086614173
          },
          {
            "number": 7,
            "time": 317.27585166666324,
            "value": 0.3464566929133858
          },
          {
            "number": 7,
            "time": 317.43032293332993,
            "value": 0.33858267716535434
          },
          {
            "number": 7,
            "time": 317.5888592333299,
            "value": 0.33070866141732286
          },
          {
            "number": 7,
            "time": 317.7433304999966,
            "value": 0.3228346456692913
          },
          {
            "number": 7,
            "time": 317.89780176666324,
            "value": 0.31496062992125984
          },
          {
            "number": 7,
            "time": 318.0563380666633,
            "value": 0.30708661417322836
          },
          {
            "number": 7,
            "time": 318.21080933332996,
            "value": 0.2992125984251969
          },
          {
            "number": 7,
            "time": 318.36934563332994,
            "value": 0.29133858267716534
          },
          {
            "number": 7,
            "time": 318.52381689999663,
            "value": 0.28346456692913385
          },
          {
            "number": 7,
            "time": 318.67828816666326,
            "value": 0.2755905511811024
          },
          {
            "number": 7,
            "time": 318.8368244666633,
            "value": 0.2677165354330709
          },
          {
            "number": 7,
            "time": 318.99129573333,
            "value": 0.25984251968503935
          },
          {
            "number": 7,
            "time": 319.14983203333,
            "value": 0.25196850393700787
          },
          {
            "number": 7,
            "time": 319.30430329999666,
            "value": 0.2440944881889764
          },
          {
            "number": 7,
            "time": 319.45877456666335,
            "value": 0.23622047244094488
          },
          {
            "number": 7,
            "time": 319.61731086666333,
            "value": 0.2283464566929134
          },
          {
            "number": 7,
            "time": 319.77178213333,
            "value": 0.2204724409448819
          },
          {
            "number": 7,
            "time": 319.9262533999967,
            "value": 0.2125984251968504
          },
          {
            "number": 7,
            "time": 320.08478969999675,
            "value": 0.2047244094488189
          },
          {
            "number": 7,
            "time": 320.23926096666344,
            "value": 0.1968503937007874
          },
          {
            "number": 7,
            "time": 320.3977972666635,
            "value": 0.1889763779527559
          },
          {
            "number": 7,
            "time": 320.55226853333016,
            "value": 0.18110236220472442
          },
          {
            "number": 7,
            "time": 320.70673979999685,
            "value": 0.1732283464566929
          },
          {
            "number": 7,
            "time": 320.8652760999969,
            "value": 0.16535433070866143
          },
          {
            "number": 7,
            "time": 321.0197473666635,
            "value": 0.15748031496062992
          },
          {
            "number": 7,
            "time": 321.1782836666635,
            "value": 0.14960629921259844
          },
          {
            "number": 7,
            "time": 321.3327549333302,
            "value": 0.14173228346456693
          },
          {
            "number": 7,
            "time": 321.4872261999969,
            "value": 0.13385826771653545
          },
          {
            "number": 7,
            "time": 321.64576249999686,
            "value": 0.12598425196850394
          },
          {
            "number": 7,
            "time": 321.8002337666635,
            "value": 0.11811023622047244
          },
          {
            "number": 7,
            "time": 321.95877006666353,
            "value": 0.11023622047244094
          },
          {
            "number": 7,
            "time": 322.1132413333302,
            "value": 0.10236220472440945
          },
          {
            "number": 7,
            "time": 322.2677125999969,
            "value": 0.09448818897637795
          },
          {
            "number": 7,
            "time": 322.4262488999969,
            "value": 0.08661417322834646
          },
          {
            "number": 7,
            "time": 322.5807201666635,
            "value": 0.07874015748031496
          },
          {
            "number": 7,
            "time": 322.7351914333302,
            "value": 0.07086614173228346
          },
          {
            "number": 7,
            "time": 322.8937277333302,
            "value": 0.06299212598425197
          },
          {
            "number": 7,
            "time": 323.0481989999969,
            "value": 0.05511811023622047
          },
          {
            "number": 7,
            "time": 323.2067352999969,
            "value": 0.047244094488188976
          },
          {
            "number": 7,
            "time": 323.3612065666636,
            "value": 0.03937007874015748
          },
          {
            "number": 7,
            "time": 323.5156778333303,
            "value": 0.031496062992125984
          },
          {
            "number": 7,
            "time": 323.67421413333034,
            "value": 0.023622047244094488
          },
          {
            "number": 7,
            "time": 323.828685399997,
            "value": 0.015748031496062992
          },
          {
            "number": 7,
            "time": 323.98722169999706,
            "value": 0.007874015748031496
          },
          {
            "number": 7,
            "time": 324.14169296666375,
            "value": 0
          }
        ]
      },
      "id": 7,
      "name": "Drums",
      "channelNumber": 9,
      "isPercussion": true
    },
    {
      "startTime": 0,
      "duration": 0,
      "length": 0,
      "notes": [],
      "controlChanges": {},
      "id": 8,
      "name": " "
    },
    {
      "startTime": 0,
      "duration": 0,
      "length": 0,
      "notes": [],
      "controlChanges": {},
      "id": 9,
      "name": "Enter Sandman"
    },
    {
      "startTime": 0,
      "duration": 0,
      "length": 0,
      "notes": [],
      "controlChanges": {},
      "id": 10,
      "name": "by Metallica"
    },
    {
      "startTime": 0,
      "duration": 0,
      "length": 0,
      "notes": [],
      "controlChanges": {},
      "id": 11,
      "name": " "
    },
    {
      "startTime": 0,
      "duration": 0,
      "length": 0,
      "notes": [],
      "controlChanges": {},
      "id": 12,
      "name": "Transcribed by"
    },
    {
      "startTime": 0,
      "duration": 0,
      "length": 0,
      "notes": [],
      "controlChanges": {},
      "id": 13,
      "name": "King Diamond"
    }
  ]
}