{
  "header": {
    "PPQ": 480,
    "bpm": 170.0000850000425,
    "timeSignature": [
      4,
      4
    ],
    "name": "      'Paranoid'"
  },
  "startTime": 0,
  "duration": 157.72639172499927,
  "tracks": [
    {
      "startTime": 0,
      "duration": 0,
      "length": 0,
      "notes": [],
      "controlChanges": {},
      "id": 0
    },
    {
      "startTime": 0,
      "duration": 157.697715268749,
      "length": 1398,
      "notes": [
        {
          "name": "A3",
          "midi": 57,
          "time": 0,
          "velocity": 0.7874015748031497,
          "duration": 0.2867645625
        },
        {
          "name": "E3",
          "midi": 52,
          "time": 0,
          "velocity": 0.905511811023622,
          "duration": 0.5294114999999999
        },
        {
          "name": "E2",
          "midi": 40,
          "time": 0,
          "velocity": 0.905511811023622,
          "duration": 0.5294114999999999
        },
        {
          "name": "B3",
          "midi": 59,
          "time": 0.18088226249999997,
          "velocity": 0.6850393700787402,
          "duration": 0.39117627499999996
        },
        {
          "name": "E3",
          "midi": 52,
          "time": 0.5294114999999999,
          "velocity": 0.905511811023622,
          "duration": 0.5294114999999999
        },
        {
          "name": "E2",
          "midi": 40,
          "time": 0.5294114999999999,
          "velocity": 0.905511811023622,
          "duration": 0.5294114999999999
        },
        {
          "name": "A3",
          "midi": 57,
          "time": 0.5338232624999999,
          "velocity": 0.7874015748031497,
          "duration": 0.28676456250000004
        },
        {
          "name": "B3",
          "midi": 59,
          "time": 0.714705525,
          "velocity": 0.6850393700787402,
          "duration": 0.41911743749999986
        },
        {
          "name": "E3",
          "midi": 52,
          "time": 1.0588229999999998,
          "velocity": 0.905511811023622,
          "duration": 0.5294114999999999
        },
        {
          "name": "E2",
          "midi": 40,
          "time": 1.0588229999999998,
          "velocity": 0.905511811023622,
          "duration": 0.5294114999999999
        },
        {
          "name": "A3",
          "midi": 57,
          "time": 1.0676465249999998,
          "velocity": 0.7874015748031497,
          "duration": 0.28749985624999996
        },
        {
          "name": "B3",
          "midi": 59,
          "time": 1.2485287874999997,
          "velocity": 0.6850393700787402,
          "duration": 0.2860292687500001
        },
        {
          "name": "A3",
          "midi": 57,
          "time": 1.4117639999999998,
          "velocity": 0.7874015748031497,
          "duration": 0.28676456249999993
        },
        {
          "name": "B3",
          "midi": 59,
          "time": 1.5926462624999997,
          "velocity": 0.6850393700787402,
          "duration": 0.17647049999999997
        },
        {
          "name": "D4",
          "midi": 62,
          "time": 1.7647049999999997,
          "velocity": 0.7874015748031497,
          "duration": 0.17647049999999997
        },
        {
          "name": "E4",
          "midi": 64,
          "time": 1.9455872624999997,
          "velocity": 0.7874015748031497,
          "duration": 0.1764705000000002
        },
        {
          "name": "A3",
          "midi": 57,
          "time": 2.1176459999999997,
          "velocity": 0.7874015748031497,
          "duration": 0.2867645625000006
        },
        {
          "name": "B3",
          "midi": 59,
          "time": 2.2985282625,
          "velocity": 0.6850393700787402,
          "duration": 0.1764705000000002
        },
        {
          "name": "D4",
          "midi": 62,
          "time": 2.470587,
          "velocity": 0.7874015748031497,
          "duration": 0.1764705000000002
        },
        {
          "name": "B3",
          "midi": 59,
          "time": 2.6514692625000005,
          "velocity": 0.6850393700787402,
          "duration": 0.1764705000000002
        },
        {
          "name": "A3",
          "midi": 57,
          "time": 2.8235280000000005,
          "velocity": 0.7874015748031497,
          "duration": 0.2867645625000006
        },
        {
          "name": "E3",
          "midi": 52,
          "time": 2.8235280000000005,
          "velocity": 0.905511811023622,
          "duration": 0.5294115000000006
        },
        {
          "name": "E2",
          "midi": 40,
          "time": 2.8235280000000005,
          "velocity": 0.905511811023622,
          "duration": 0.5294115000000006
        },
        {
          "name": "B3",
          "midi": 59,
          "time": 3.004410262500001,
          "velocity": 0.6850393700787402,
          "duration": 0.3911762750000003
        },
        {
          "name": "E3",
          "midi": 52,
          "time": 3.352939500000001,
          "velocity": 0.905511811023622,
          "duration": 0.5294115000000006
        },
        {
          "name": "E2",
          "midi": 40,
          "time": 3.352939500000001,
          "velocity": 0.905511811023622,
          "duration": 0.5294115000000006
        },
        {
          "name": "A3",
          "midi": 57,
          "time": 3.3573512625000013,
          "velocity": 0.7874015748031497,
          "duration": 0.28676456250000015
        },
        {
          "name": "B3",
          "midi": 59,
          "time": 3.538233525000001,
          "velocity": 0.6850393700787402,
          "duration": 0.4191174375000002
        },
        {
          "name": "E3",
          "midi": 52,
          "time": 3.8823510000000017,
          "velocity": 0.905511811023622,
          "duration": 0.5294114999999993
        },
        {
          "name": "E2",
          "midi": 40,
          "time": 3.8823510000000017,
          "velocity": 0.905511811023622,
          "duration": 0.5294114999999993
        },
        {
          "name": "A3",
          "midi": 57,
          "time": 3.8911745250000016,
          "velocity": 0.7874015748031497,
          "duration": 0.28749985624999974
        },
        {
          "name": "B3",
          "midi": 59,
          "time": 4.072056787500001,
          "velocity": 0.6850393700787402,
          "duration": 0.2860292687500001
        },
        {
          "name": "A3",
          "midi": 57,
          "time": 4.235292000000001,
          "velocity": 0.7874015748031497,
          "duration": 0.2764704499999997
        },
        {
          "name": "B3",
          "midi": 59,
          "time": 4.416174262500001,
          "velocity": 0.6850393700787402,
          "duration": 0.17647049999999975
        },
        {
          "name": "D4",
          "midi": 62,
          "time": 4.588233000000001,
          "velocity": 0.7874015748031497,
          "duration": 0.17647050000000064
        },
        {
          "name": "E4",
          "midi": 64,
          "time": 4.7691152625000015,
          "velocity": 0.7874015748031497,
          "duration": 0.17647050000000064
        },
        {
          "name": "A3",
          "midi": 57,
          "time": 4.941174000000002,
          "velocity": 0.7874015748031497,
          "duration": 0.2764704499999997
        },
        {
          "name": "B3",
          "midi": 59,
          "time": 5.122056262500002,
          "velocity": 0.6850393700787402,
          "duration": 0.17647049999999975
        },
        {
          "name": "D4",
          "midi": 62,
          "time": 5.2941150000000015,
          "velocity": 0.7874015748031497,
          "duration": 0.17647050000000064
        },
        {
          "name": "B3",
          "midi": 59,
          "time": 5.474997262500002,
          "velocity": 0.6850393700787402,
          "duration": 0.17647050000000064
        },
        {
          "name": "A3",
          "midi": 57,
          "time": 5.647056000000003,
          "velocity": 0.7874015748031497,
          "duration": 0.2764704499999997
        },
        {
          "name": "E3",
          "midi": 52,
          "time": 5.647056000000003,
          "velocity": 0.905511811023622,
          "duration": 0.5294115000000001
        },
        {
          "name": "E2",
          "midi": 40,
          "time": 5.647056000000003,
          "velocity": 0.905511811023622,
          "duration": 0.5294115000000001
        },
        {
          "name": "B3",
          "midi": 59,
          "time": 5.827938262500003,
          "velocity": 0.6850393700787402,
          "duration": 0.3911762750000003
        },
        {
          "name": "E3",
          "midi": 52,
          "time": 6.176467500000003,
          "velocity": 0.905511811023622,
          "duration": 0.5294115000000001
        },
        {
          "name": "E2",
          "midi": 40,
          "time": 6.176467500000003,
          "velocity": 0.905511811023622,
          "duration": 0.5294115000000001
        },
        {
          "name": "A3",
          "midi": 57,
          "time": 6.180879262500003,
          "velocity": 0.7874015748031497,
          "duration": 0.2764704499999997
        },
        {
          "name": "B3",
          "midi": 59,
          "time": 6.361761525000003,
          "velocity": 0.6850393700787402,
          "duration": 0.41911743750000063
        },
        {
          "name": "E3",
          "midi": 52,
          "time": 6.705879000000003,
          "velocity": 0.905511811023622,
          "duration": 0.5294115000000001
        },
        {
          "name": "E2",
          "midi": 40,
          "time": 6.705879000000003,
          "velocity": 0.905511811023622,
          "duration": 0.5294115000000001
        },
        {
          "name": "A3",
          "midi": 57,
          "time": 6.714702525000003,
          "velocity": 0.7874015748031497,
          "duration": 0.27720574374999973
        },
        {
          "name": "B3",
          "midi": 59,
          "time": 6.895584787500003,
          "velocity": 0.6850393700787402,
          "duration": 0.2860292687500001
        },
        {
          "name": "A3",
          "midi": 57,
          "time": 7.058820000000003,
          "velocity": 0.7874015748031497,
          "duration": 0.2764704499999997
        },
        {
          "name": "B3",
          "midi": 59,
          "time": 7.239702262500003,
          "velocity": 0.6850393700787402,
          "duration": 0.17647049999999975
        },
        {
          "name": "D4",
          "midi": 62,
          "time": 7.411761000000003,
          "velocity": 0.7874015748031497,
          "duration": 0.17647049999999975
        },
        {
          "name": "E4",
          "midi": 64,
          "time": 7.592643262500003,
          "velocity": 0.7874015748031497,
          "duration": 0.17647050000000064
        },
        {
          "name": "A3",
          "midi": 57,
          "time": 7.764702000000003,
          "velocity": 0.7874015748031497,
          "duration": 0.2764704499999997
        },
        {
          "name": "B3",
          "midi": 59,
          "time": 7.945584262500003,
          "velocity": 0.6850393700787402,
          "duration": 0.17647049999999975
        },
        {
          "name": "D4",
          "midi": 62,
          "time": 8.117643000000003,
          "velocity": 0.7874015748031497,
          "duration": 0.17647050000000064
        },
        {
          "name": "B3",
          "midi": 59,
          "time": 8.298525262500004,
          "velocity": 0.6850393700787402,
          "duration": 0.17647050000000064
        },
        {
          "name": "A3",
          "midi": 57,
          "time": 8.470584000000004,
          "velocity": 0.7874015748031497,
          "duration": 0.2764704500000015
        },
        {
          "name": "E3",
          "midi": 52,
          "time": 8.470584000000004,
          "velocity": 0.905511811023622,
          "duration": 0.5294115000000019
        },
        {
          "name": "E2",
          "midi": 40,
          "time": 8.470584000000004,
          "velocity": 0.905511811023622,
          "duration": 0.5294115000000019
        },
        {
          "name": "B3",
          "midi": 59,
          "time": 8.651466262500005,
          "velocity": 0.6850393700787402,
          "duration": 0.3911762750000012
        },
        {
          "name": "E3",
          "midi": 52,
          "time": 8.999995500000006,
          "velocity": 0.905511811023622,
          "duration": 0.5294115000000001
        },
        {
          "name": "E2",
          "midi": 40,
          "time": 8.999995500000006,
          "velocity": 0.905511811023622,
          "duration": 0.5294115000000001
        },
        {
          "name": "A3",
          "midi": 57,
          "time": 9.004407262500006,
          "velocity": 0.7874015748031497,
          "duration": 0.2764704499999997
        },
        {
          "name": "B3",
          "midi": 59,
          "time": 9.185289525000005,
          "velocity": 0.6850393700787402,
          "duration": 0.41911743750000063
        },
        {
          "name": "E3",
          "midi": 52,
          "time": 9.529407000000006,
          "velocity": 0.905511811023622,
          "duration": 0.5294114999999984
        },
        {
          "name": "E2",
          "midi": 40,
          "time": 9.529407000000006,
          "velocity": 0.905511811023622,
          "duration": 0.5294114999999984
        },
        {
          "name": "A3",
          "midi": 57,
          "time": 9.538230525000007,
          "velocity": 0.7874015748031497,
          "duration": 0.27720574374999885
        },
        {
          "name": "B3",
          "midi": 59,
          "time": 9.719112787500006,
          "velocity": 0.6850393700787402,
          "duration": 0.28602926874999923
        },
        {
          "name": "A3",
          "midi": 57,
          "time": 9.882348000000006,
          "velocity": 0.7874015748031497,
          "duration": 0.2764704499999997
        },
        {
          "name": "B3",
          "midi": 59,
          "time": 10.063230262500005,
          "velocity": 0.6850393700787402,
          "duration": 0.17647050000000064
        },
        {
          "name": "D4",
          "midi": 62,
          "time": 10.235289000000005,
          "velocity": 0.7874015748031497,
          "duration": 0.17647050000000064
        },
        {
          "name": "E4",
          "midi": 64,
          "time": 10.416171262500006,
          "velocity": 0.7874015748031497,
          "duration": 0.17647050000000064
        },
        {
          "name": "A3",
          "midi": 57,
          "time": 10.588230000000006,
          "velocity": 0.7874015748031497,
          "duration": 0.2764704500000015
        },
        {
          "name": "B3",
          "midi": 59,
          "time": 10.769112262500007,
          "velocity": 0.6850393700787402,
          "duration": 0.17647050000000064
        },
        {
          "name": "D4",
          "midi": 62,
          "time": 10.941171000000008,
          "velocity": 0.7874015748031497,
          "duration": 0.17647050000000064
        },
        {
          "name": "B3",
          "midi": 59,
          "time": 11.122053262500009,
          "velocity": 0.6850393700787402,
          "duration": 0.17647050000000064
        },
        {
          "name": "E3",
          "midi": 52,
          "time": 11.294112000000009,
          "velocity": 0.7874015748031497,
          "duration": 0.161764625
        },
        {
          "name": "E2",
          "midi": 40,
          "time": 11.294112000000009,
          "velocity": 0.7874015748031497,
          "duration": 0.13308816874999962
        },
        {
          "name": "E3",
          "midi": 52,
          "time": 11.47499426250001,
          "velocity": 0.7874015748031497,
          "duration": 0.17205873750000045
        },
        {
          "name": "E2",
          "midi": 40,
          "time": 11.47499426250001,
          "velocity": 0.7874015748031497,
          "duration": 0.1529410999999996
        },
        {
          "name": "E3",
          "midi": 52,
          "time": 11.64705300000001,
          "velocity": 0.7874015748031497,
          "duration": 0.161764625
        },
        {
          "name": "E2",
          "midi": 40,
          "time": 11.64705300000001,
          "velocity": 0.7874015748031497,
          "duration": 0.13308816874999962
        },
        {
          "name": "E3",
          "midi": 52,
          "time": 11.827935262500011,
          "velocity": 0.7874015748031497,
          "duration": 0.16249991875000092
        },
        {
          "name": "E2",
          "midi": 40,
          "time": 11.827935262500011,
          "velocity": 0.7874015748031497,
          "duration": 0.13382346250000055
        },
        {
          "name": "E3",
          "midi": 52,
          "time": 11.999994000000012,
          "velocity": 0.7874015748031497,
          "duration": 0.161764625
        },
        {
          "name": "E2",
          "midi": 40,
          "time": 11.999994000000012,
          "velocity": 0.7874015748031497,
          "duration": 0.13308816874999962
        },
        {
          "name": "E3",
          "midi": 52,
          "time": 12.180876262500012,
          "velocity": 0.7874015748031497,
          "duration": 0.17205873750000045
        },
        {
          "name": "E2",
          "midi": 40,
          "time": 12.180876262500012,
          "velocity": 0.7874015748031497,
          "duration": 0.1529410999999996
        },
        {
          "name": "E3",
          "midi": 52,
          "time": 12.352935000000013,
          "velocity": 0.7874015748031497,
          "duration": 0.161764625
        },
        {
          "name": "E2",
          "midi": 40,
          "time": 12.352935000000013,
          "velocity": 0.7874015748031497,
          "duration": 0.13308816874999962
        },
        {
          "name": "E3",
          "midi": 52,
          "time": 12.533817262500014,
          "velocity": 0.7874015748031497,
          "duration": 0.1529410999999996
        },
        {
          "name": "E2",
          "midi": 40,
          "time": 12.533817262500014,
          "velocity": 0.7874015748031497,
          "duration": 0.12426464374999924
        },
        {
          "name": "E3",
          "midi": 52,
          "time": 12.705876000000014,
          "velocity": 0.7874015748031497,
          "duration": 0.161764625
        },
        {
          "name": "E2",
          "midi": 40,
          "time": 12.705876000000014,
          "velocity": 0.7874015748031497,
          "duration": 0.13308816874999962
        },
        {
          "name": "E3",
          "midi": 52,
          "time": 12.886758262500015,
          "velocity": 0.7874015748031497,
          "duration": 0.17205873750000045
        },
        {
          "name": "E2",
          "midi": 40,
          "time": 12.886758262500015,
          "velocity": 0.7874015748031497,
          "duration": 0.1529410999999996
        },
        {
          "name": "E3",
          "midi": 52,
          "time": 13.058817000000015,
          "velocity": 0.7874015748031497,
          "duration": 0.161764625
        },
        {
          "name": "E2",
          "midi": 40,
          "time": 13.058817000000015,
          "velocity": 0.7874015748031497,
          "duration": 0.13308816874999962
        },
        {
          "name": "E3",
          "midi": 52,
          "time": 13.239699262500016,
          "velocity": 0.7874015748031497,
          "duration": 0.16249991875000092
        },
        {
          "name": "E2",
          "midi": 40,
          "time": 13.239699262500016,
          "velocity": 0.7874015748031497,
          "duration": 0.13382346250000055
        },
        {
          "name": "E3",
          "midi": 52,
          "time": 13.411758000000017,
          "velocity": 0.7874015748031497,
          "duration": 0.161764625
        },
        {
          "name": "E2",
          "midi": 40,
          "time": 13.411758000000017,
          "velocity": 0.7874015748031497,
          "duration": 0.13308816874999962
        },
        {
          "name": "E3",
          "midi": 52,
          "time": 13.592640262500018,
          "velocity": 0.7874015748031497,
          "duration": 0.17205873750000045
        },
        {
          "name": "E2",
          "midi": 40,
          "time": 13.592640262500018,
          "velocity": 0.7874015748031497,
          "duration": 0.1529410999999996
        },
        {
          "name": "E3",
          "midi": 52,
          "time": 13.764699000000018,
          "velocity": 0.7874015748031497,
          "duration": 0.161764625
        },
        {
          "name": "E2",
          "midi": 40,
          "time": 13.764699000000018,
          "velocity": 0.7874015748031497,
          "duration": 0.13308816874999962
        },
        {
          "name": "E3",
          "midi": 52,
          "time": 13.945581262500019,
          "velocity": 0.7874015748031497,
          "duration": 0.16249991875000092
        },
        {
          "name": "E2",
          "midi": 40,
          "time": 13.945581262500019,
          "velocity": 0.7874015748031497,
          "duration": 0.13382346250000055
        },
        {
          "name": "D3",
          "midi": 50,
          "time": 14.11764000000002,
          "velocity": 0.7874015748031497,
          "duration": 0.161764625
        },
        {
          "name": "D2",
          "midi": 38,
          "time": 14.11764000000002,
          "velocity": 0.7874015748031497,
          "duration": 0.161764625
        },
        {
          "name": "D3",
          "midi": 50,
          "time": 14.29852226250002,
          "velocity": 0.7874015748031497,
          "duration": 0.17205873750000045
        },
        {
          "name": "D2",
          "midi": 38,
          "time": 14.29852226250002,
          "velocity": 0.7874015748031497,
          "duration": 0.17205873750000045
        },
        {
          "name": "D3",
          "midi": 50,
          "time": 14.47058100000002,
          "velocity": 0.7874015748031497,
          "duration": 0.161764625
        },
        {
          "name": "D2",
          "midi": 38,
          "time": 14.47058100000002,
          "velocity": 0.7874015748031497,
          "duration": 0.161764625
        },
        {
          "name": "D3",
          "midi": 50,
          "time": 14.651463262500021,
          "velocity": 0.7874015748031497,
          "duration": 0.16249991874999914
        },
        {
          "name": "D2",
          "midi": 38,
          "time": 14.651463262500021,
          "velocity": 0.7874015748031497,
          "duration": 0.16249991874999914
        },
        {
          "name": "D3",
          "midi": 50,
          "time": 14.82352200000002,
          "velocity": 0.7874015748031497,
          "duration": 0.161764625
        },
        {
          "name": "D2",
          "midi": 38,
          "time": 14.82352200000002,
          "velocity": 0.7874015748031497,
          "duration": 0.161764625
        },
        {
          "name": "D3",
          "midi": 50,
          "time": 15.004404262500021,
          "velocity": 0.7874015748031497,
          "duration": 0.17205873750000045
        },
        {
          "name": "D2",
          "midi": 38,
          "time": 15.004404262500021,
          "velocity": 0.7874015748031497,
          "duration": 0.17205873750000045
        },
        {
          "name": "D3",
          "midi": 50,
          "time": 15.176463000000021,
          "velocity": 0.7874015748031497,
          "duration": 0.161764625
        },
        {
          "name": "D2",
          "midi": 38,
          "time": 15.176463000000021,
          "velocity": 0.7874015748031497,
          "duration": 0.161764625
        },
        {
          "name": "D3",
          "midi": 50,
          "time": 15.357345262500022,
          "velocity": 0.7874015748031497,
          "duration": 0.1529410999999996
        },
        {
          "name": "D2",
          "midi": 38,
          "time": 15.357345262500022,
          "velocity": 0.7874015748031497,
          "duration": 0.1529410999999996
        },
        {
          "name": "G3",
          "midi": 55,
          "time": 15.529404000000023,
          "velocity": 0.7874015748031497,
          "duration": 0.17647050000000064
        },
        {
          "name": "G2",
          "midi": 43,
          "time": 15.529404000000023,
          "velocity": 0.7874015748031497,
          "duration": 0.17647050000000064
        },
        {
          "name": "D3",
          "midi": 50,
          "time": 15.710286262500023,
          "velocity": 0.7874015748031497,
          "duration": 0.5058821000000009
        },
        {
          "name": "D2",
          "midi": 38,
          "time": 15.710286262500023,
          "velocity": 0.7874015748031497,
          "duration": 0.5058821000000009
        },
        {
          "name": "E3",
          "midi": 52,
          "time": 16.235286000000023,
          "velocity": 0.7874015748031497,
          "duration": 0.3147057249999996
        },
        {
          "name": "E2",
          "midi": 40,
          "time": 16.235286000000023,
          "velocity": 0.7874015748031497,
          "duration": 0.28602926874999923
        },
        {
          "name": "D3",
          "midi": 50,
          "time": 16.588227000000025,
          "velocity": 0.7874015748031497,
          "duration": 0.17647050000000064
        },
        {
          "name": "D2",
          "midi": 38,
          "time": 16.588227000000025,
          "velocity": 0.7874015748031497,
          "duration": 0.17647050000000064
        },
        {
          "name": "E3",
          "midi": 52,
          "time": 16.769109262500024,
          "velocity": 0.7874015748031497,
          "duration": 0.13382346250000055
        },
        {
          "name": "E2",
          "midi": 40,
          "time": 16.769109262500024,
          "velocity": 0.7874015748031497,
          "duration": 0.10514700625000017
        },
        {
          "name": "E3",
          "midi": 52,
          "time": 16.941168000000026,
          "velocity": 0.7874015748031497,
          "duration": 0.161764625
        },
        {
          "name": "E2",
          "midi": 40,
          "time": 16.941168000000026,
          "velocity": 0.7874015748031497,
          "duration": 0.13308816874999962
        },
        {
          "name": "E3",
          "midi": 52,
          "time": 17.122050262500025,
          "velocity": 0.7874015748031497,
          "duration": 0.17205873749999867
        },
        {
          "name": "E2",
          "midi": 40,
          "time": 17.122050262500025,
          "velocity": 0.7874015748031497,
          "duration": 0.1529410999999996
        },
        {
          "name": "E3",
          "midi": 52,
          "time": 17.294109000000024,
          "velocity": 0.7874015748031497,
          "duration": 0.161764625
        },
        {
          "name": "E2",
          "midi": 40,
          "time": 17.294109000000024,
          "velocity": 0.7874015748031497,
          "duration": 0.13308816874999962
        },
        {
          "name": "E3",
          "midi": 52,
          "time": 17.474991262500023,
          "velocity": 0.7874015748031497,
          "duration": 0.16249991875000092
        },
        {
          "name": "E2",
          "midi": 40,
          "time": 17.474991262500023,
          "velocity": 0.7874015748031497,
          "duration": 0.13382346250000055
        },
        {
          "name": "E3",
          "midi": 52,
          "time": 17.647050000000025,
          "velocity": 0.7874015748031497,
          "duration": 0.161764625
        },
        {
          "name": "E2",
          "midi": 40,
          "time": 17.647050000000025,
          "velocity": 0.7874015748031497,
          "duration": 0.13308816874999962
        },
        {
          "name": "E3",
          "midi": 52,
          "time": 17.827932262500024,
          "velocity": 0.7874015748031497,
          "duration": 0.17205873749999867
        },
        {
          "name": "E2",
          "midi": 40,
          "time": 17.827932262500024,
          "velocity": 0.7874015748031497,
          "duration": 0.1529410999999996
        },
        {
          "name": "E3",
          "midi": 52,
          "time": 17.999991000000023,
          "velocity": 0.7874015748031497,
          "duration": 0.161764625
        },
        {
          "name": "E2",
          "midi": 40,
          "time": 17.999991000000023,
          "velocity": 0.7874015748031497,
          "duration": 0.13308816874999962
        },
        {
          "name": "E3",
          "midi": 52,
          "time": 18.180873262500022,
          "velocity": 0.7874015748031497,
          "duration": 0.1529410999999996
        },
        {
          "name": "E2",
          "midi": 40,
          "time": 18.180873262500022,
          "velocity": 0.7874015748031497,
          "duration": 0.12426464374999924
        },
        {
          "name": "E3",
          "midi": 52,
          "time": 18.35293200000002,
          "velocity": 0.7874015748031497,
          "duration": 0.161764625
        },
        {
          "name": "E2",
          "midi": 40,
          "time": 18.35293200000002,
          "velocity": 0.7874015748031497,
          "duration": 0.13308816874999962
        },
        {
          "name": "E3",
          "midi": 52,
          "time": 18.53381426250002,
          "velocity": 0.7874015748031497,
          "duration": 0.17205873749999867
        },
        {
          "name": "E2",
          "midi": 40,
          "time": 18.53381426250002,
          "velocity": 0.7874015748031497,
          "duration": 0.1529410999999996
        },
        {
          "name": "E3",
          "midi": 52,
          "time": 18.705873000000018,
          "velocity": 0.7874015748031497,
          "duration": 0.161764625
        },
        {
          "name": "E2",
          "midi": 40,
          "time": 18.705873000000018,
          "velocity": 0.7874015748031497,
          "duration": 0.13308816874999962
        },
        {
          "name": "E3",
          "midi": 52,
          "time": 18.886755262500017,
          "velocity": 0.7874015748031497,
          "duration": 0.16249991875000092
        },
        {
          "name": "E2",
          "midi": 40,
          "time": 18.886755262500017,
          "velocity": 0.7874015748031497,
          "duration": 0.13382346250000055
        },
        {
          "name": "E3",
          "midi": 52,
          "time": 19.05881400000002,
          "velocity": 0.7874015748031497,
          "duration": 0.161764625
        },
        {
          "name": "E2",
          "midi": 40,
          "time": 19.05881400000002,
          "velocity": 0.7874015748031497,
          "duration": 0.13308816874999962
        },
        {
          "name": "E3",
          "midi": 52,
          "time": 19.23969626250002,
          "velocity": 0.7874015748031497,
          "duration": 0.17205873749999867
        },
        {
          "name": "E2",
          "midi": 40,
          "time": 19.23969626250002,
          "velocity": 0.7874015748031497,
          "duration": 0.1529410999999996
        },
        {
          "name": "E3",
          "midi": 52,
          "time": 19.411755000000017,
          "velocity": 0.7874015748031497,
          "duration": 0.161764625
        },
        {
          "name": "E2",
          "midi": 40,
          "time": 19.411755000000017,
          "velocity": 0.7874015748031497,
          "duration": 0.13308816874999962
        },
        {
          "name": "E3",
          "midi": 52,
          "time": 19.592637262500016,
          "velocity": 0.7874015748031497,
          "duration": 0.16249991875000092
        },
        {
          "name": "E2",
          "midi": 40,
          "time": 19.592637262500016,
          "velocity": 0.7874015748031497,
          "duration": 0.13382346250000055
        },
        {
          "name": "D3",
          "midi": 50,
          "time": 19.76469600000002,
          "velocity": 0.7874015748031497,
          "duration": 0.161764625
        },
        {
          "name": "D2",
          "midi": 38,
          "time": 19.76469600000002,
          "velocity": 0.7874015748031497,
          "duration": 0.161764625
        },
        {
          "name": "D3",
          "midi": 50,
          "time": 19.945578262500018,
          "velocity": 0.7874015748031497,
          "duration": 0.17205873749999867
        },
        {
          "name": "D2",
          "midi": 38,
          "time": 19.945578262500018,
          "velocity": 0.7874015748031497,
          "duration": 0.17205873749999867
        },
        {
          "name": "D3",
          "midi": 50,
          "time": 20.117637000000016,
          "velocity": 0.7874015748031497,
          "duration": 0.161764625
        },
        {
          "name": "D2",
          "midi": 38,
          "time": 20.117637000000016,
          "velocity": 0.7874015748031497,
          "duration": 0.161764625
        },
        {
          "name": "D3",
          "midi": 50,
          "time": 20.298519262500015,
          "velocity": 0.7874015748031497,
          "duration": 0.16249991875000092
        },
        {
          "name": "D2",
          "midi": 38,
          "time": 20.298519262500015,
          "velocity": 0.7874015748031497,
          "duration": 0.16249991875000092
        },
        {
          "name": "D3",
          "midi": 50,
          "time": 20.470578000000017,
          "velocity": 0.7874015748031497,
          "duration": 0.161764625
        },
        {
          "name": "D2",
          "midi": 38,
          "time": 20.470578000000017,
          "velocity": 0.7874015748031497,
          "duration": 0.161764625
        },
        {
          "name": "D3",
          "midi": 50,
          "time": 20.651460262500017,
          "velocity": 0.7874015748031497,
          "duration": 0.17205873749999867
        },
        {
          "name": "D2",
          "midi": 38,
          "time": 20.651460262500017,
          "velocity": 0.7874015748031497,
          "duration": 0.17205873749999867
        },
        {
          "name": "D3",
          "midi": 50,
          "time": 20.823519000000015,
          "velocity": 0.7874015748031497,
          "duration": 0.161764625
        },
        {
          "name": "D2",
          "midi": 38,
          "time": 20.823519000000015,
          "velocity": 0.7874015748031497,
          "duration": 0.161764625
        },
        {
          "name": "D3",
          "midi": 50,
          "time": 21.004401262500014,
          "velocity": 0.7874015748031497,
          "duration": 0.1529410999999996
        },
        {
          "name": "D2",
          "midi": 38,
          "time": 21.004401262500014,
          "velocity": 0.7874015748031497,
          "duration": 0.1529410999999996
        },
        {
          "name": "G3",
          "midi": 55,
          "time": 21.176460000000013,
          "velocity": 0.7874015748031497,
          "duration": 0.17647050000000064
        },
        {
          "name": "G2",
          "midi": 43,
          "time": 21.176460000000013,
          "velocity": 0.7874015748031497,
          "duration": 0.17647050000000064
        },
        {
          "name": "D3",
          "midi": 50,
          "time": 21.357342262500012,
          "velocity": 0.7874015748031497,
          "duration": 0.5058821000000009
        },
        {
          "name": "D2",
          "midi": 38,
          "time": 21.357342262500012,
          "velocity": 0.7874015748031497,
          "duration": 0.5058821000000009
        },
        {
          "name": "E3",
          "midi": 52,
          "time": 21.882342000000012,
          "velocity": 0.7874015748031497,
          "duration": 0.3147057249999996
        },
        {
          "name": "E2",
          "midi": 40,
          "time": 21.882342000000012,
          "velocity": 0.7874015748031497,
          "duration": 0.28602926874999923
        },
        {
          "name": "D3",
          "midi": 50,
          "time": 22.235283000000013,
          "velocity": 0.7874015748031497,
          "duration": 0.17647050000000064
        },
        {
          "name": "D2",
          "midi": 38,
          "time": 22.235283000000013,
          "velocity": 0.7874015748031497,
          "duration": 0.17647050000000064
        },
        {
          "name": "E3",
          "midi": 52,
          "time": 22.416165262500012,
          "velocity": 0.7874015748031497,
          "duration": 0.13382346250000055
        },
        {
          "name": "E2",
          "midi": 40,
          "time": 22.416165262500012,
          "velocity": 0.7874015748031497,
          "duration": 0.10514700625000017
        },
        {
          "name": "E3",
          "midi": 52,
          "time": 22.59704752500001,
          "velocity": 0.8661417322834646,
          "duration": 1.411763999999998
        },
        {
          "name": "E2",
          "midi": 40,
          "time": 22.59704752500001,
          "velocity": 0.8661417322834646,
          "duration": 1.3838228374999986
        },
        {
          "name": "C2",
          "midi": 36,
          "time": 23.99998800000001,
          "velocity": 0.8661417322834646,
          "duration": 0.705881999999999
        },
        {
          "name": "C3",
          "midi": 48,
          "time": 23.99998800000001,
          "velocity": 0.8661417322834646,
          "duration": 0.705881999999999
        },
        {
          "name": "D2",
          "midi": 38,
          "time": 24.705870000000008,
          "velocity": 0.8661417322834646,
          "duration": 0.705881999999999
        },
        {
          "name": "D3",
          "midi": 50,
          "time": 24.705870000000008,
          "velocity": 0.8661417322834646,
          "duration": 0.705881999999999
        },
        {
          "name": "E3",
          "midi": 52,
          "time": 25.411752000000007,
          "velocity": 0.7874015748031497,
          "duration": 0.161764625
        },
        {
          "name": "E2",
          "midi": 40,
          "time": 25.411752000000007,
          "velocity": 0.7874015748031497,
          "duration": 0.13308816874999962
        },
        {
          "name": "E3",
          "midi": 52,
          "time": 25.592634262500006,
          "velocity": 0.7874015748031497,
          "duration": 0.17205873749999867
        },
        {
          "name": "E2",
          "midi": 40,
          "time": 25.592634262500006,
          "velocity": 0.7874015748031497,
          "duration": 0.1529410999999996
        },
        {
          "name": "E3",
          "midi": 52,
          "time": 25.764693000000005,
          "velocity": 0.7874015748031497,
          "duration": 0.161764625
        },
        {
          "name": "E2",
          "midi": 40,
          "time": 25.764693000000005,
          "velocity": 0.7874015748031497,
          "duration": 0.13308816874999962
        },
        {
          "name": "E3",
          "midi": 52,
          "time": 25.945575262500004,
          "velocity": 0.7874015748031497,
          "duration": 0.16249991875000092
        },
        {
          "name": "E2",
          "midi": 40,
          "time": 25.945575262500004,
          "velocity": 0.7874015748031497,
          "duration": 0.13382346250000055
        },
        {
          "name": "E3",
          "midi": 52,
          "time": 26.117634000000006,
          "velocity": 0.7874015748031497,
          "duration": 0.161764625
        },
        {
          "name": "E2",
          "midi": 40,
          "time": 26.117634000000006,
          "velocity": 0.7874015748031497,
          "duration": 0.13308816874999962
        },
        {
          "name": "E3",
          "midi": 52,
          "time": 26.298516262500005,
          "velocity": 0.7874015748031497,
          "duration": 0.17205873749999867
        },
        {
          "name": "E2",
          "midi": 40,
          "time": 26.298516262500005,
          "velocity": 0.7874015748031497,
          "duration": 0.1529410999999996
        },
        {
          "name": "E3",
          "midi": 52,
          "time": 26.470575000000004,
          "velocity": 0.7874015748031497,
          "duration": 0.161764625
        },
        {
          "name": "E2",
          "midi": 40,
          "time": 26.470575000000004,
          "velocity": 0.7874015748031497,
          "duration": 0.13308816874999962
        },
        {
          "name": "E3",
          "midi": 52,
          "time": 26.651457262500003,
          "velocity": 0.7874015748031497,
          "duration": 0.1529410999999996
        },
        {
          "name": "E2",
          "midi": 40,
          "time": 26.651457262500003,
          "velocity": 0.7874015748031497,
          "duration": 0.12426464374999924
        },
        {
          "name": "E3",
          "midi": 52,
          "time": 26.823516,
          "velocity": 0.7874015748031497,
          "duration": 0.161764625
        },
        {
          "name": "E2",
          "midi": 40,
          "time": 26.823516,
          "velocity": 0.7874015748031497,
          "duration": 0.13308816874999962
        },
        {
          "name": "E3",
          "midi": 52,
          "time": 27.0043982625,
          "velocity": 0.7874015748031497,
          "duration": 0.17205873749999867
        },
        {
          "name": "E2",
          "midi": 40,
          "time": 27.0043982625,
          "velocity": 0.7874015748031497,
          "duration": 0.1529410999999996
        },
        {
          "name": "E3",
          "midi": 52,
          "time": 27.176457,
          "velocity": 0.7874015748031497,
          "duration": 0.161764625
        },
        {
          "name": "E2",
          "midi": 40,
          "time": 27.176457,
          "velocity": 0.7874015748031497,
          "duration": 0.13308816874999962
        },
        {
          "name": "E3",
          "midi": 52,
          "time": 27.3573392625,
          "velocity": 0.7874015748031497,
          "duration": 0.16249991875000092
        },
        {
          "name": "E2",
          "midi": 40,
          "time": 27.3573392625,
          "velocity": 0.7874015748031497,
          "duration": 0.13382346250000055
        },
        {
          "name": "E3",
          "midi": 52,
          "time": 27.529398,
          "velocity": 0.7874015748031497,
          "duration": 0.161764625
        },
        {
          "name": "E2",
          "midi": 40,
          "time": 27.529398,
          "velocity": 0.7874015748031497,
          "duration": 0.13308816874999962
        },
        {
          "name": "E3",
          "midi": 52,
          "time": 27.7102802625,
          "velocity": 0.7874015748031497,
          "duration": 0.17205873749999867
        },
        {
          "name": "E2",
          "midi": 40,
          "time": 27.7102802625,
          "velocity": 0.7874015748031497,
          "duration": 0.1529410999999996
        },
        {
          "name": "E3",
          "midi": 52,
          "time": 27.882338999999998,
          "velocity": 0.7874015748031497,
          "duration": 0.161764625
        },
        {
          "name": "E2",
          "midi": 40,
          "time": 27.882338999999998,
          "velocity": 0.7874015748031497,
          "duration": 0.13308816874999962
        },
        {
          "name": "D2",
          "midi": 38,
          "time": 28.063221262499997,
          "velocity": 0.7874015748031497,
          "duration": 0.1529410999999996
        },
        {
          "name": "D3",
          "midi": 50,
          "time": 28.063221262499997,
          "velocity": 0.7874015748031497,
          "duration": 0.1529410999999996
        },
        {
          "name": "E3",
          "midi": 52,
          "time": 28.244103524999996,
          "velocity": 0.8661417322834646,
          "duration": 1.411763999999998
        },
        {
          "name": "E2",
          "midi": 40,
          "time": 28.244103524999996,
          "velocity": 0.8661417322834646,
          "duration": 1.3838228374999986
        },
        {
          "name": "C2",
          "midi": 36,
          "time": 29.647043999999994,
          "velocity": 0.8661417322834646,
          "duration": 0.705881999999999
        },
        {
          "name": "C3",
          "midi": 48,
          "time": 29.647043999999994,
          "velocity": 0.8661417322834646,
          "duration": 0.705881999999999
        },
        {
          "name": "D2",
          "midi": 38,
          "time": 30.352925999999993,
          "velocity": 0.8661417322834646,
          "duration": 0.705881999999999
        },
        {
          "name": "D3",
          "midi": 50,
          "time": 30.352925999999993,
          "velocity": 0.8661417322834646,
          "duration": 0.705881999999999
        },
        {
          "name": "E3",
          "midi": 52,
          "time": 31.058807999999992,
          "velocity": 0.7874015748031497,
          "duration": 0.161764625
        },
        {
          "name": "E2",
          "midi": 40,
          "time": 31.058807999999992,
          "velocity": 0.7874015748031497,
          "duration": 0.13308816874999962
        },
        {
          "name": "E3",
          "midi": 52,
          "time": 31.23969026249999,
          "velocity": 0.7874015748031497,
          "duration": 0.17205873749999867
        },
        {
          "name": "E2",
          "midi": 40,
          "time": 31.23969026249999,
          "velocity": 0.7874015748031497,
          "duration": 0.1529410999999996
        },
        {
          "name": "E3",
          "midi": 52,
          "time": 31.41174899999999,
          "velocity": 0.7874015748031497,
          "duration": 0.161764625
        },
        {
          "name": "E2",
          "midi": 40,
          "time": 31.41174899999999,
          "velocity": 0.7874015748031497,
          "duration": 0.13308816874999962
        },
        {
          "name": "E3",
          "midi": 52,
          "time": 31.59263126249999,
          "velocity": 0.7874015748031497,
          "duration": 0.16249991875000092
        },
        {
          "name": "E2",
          "midi": 40,
          "time": 31.59263126249999,
          "velocity": 0.7874015748031497,
          "duration": 0.13382346250000055
        },
        {
          "name": "E3",
          "midi": 52,
          "time": 31.76468999999999,
          "velocity": 0.7874015748031497,
          "duration": 0.161764625
        },
        {
          "name": "E2",
          "midi": 40,
          "time": 31.76468999999999,
          "velocity": 0.7874015748031497,
          "duration": 0.13308816874999962
        },
        {
          "name": "E3",
          "midi": 52,
          "time": 31.94557226249999,
          "velocity": 0.7874015748031497,
          "duration": 0.17205873750000578
        },
        {
          "name": "E2",
          "midi": 40,
          "time": 31.94557226249999,
          "velocity": 0.7874015748031497,
          "duration": 0.15294110000000316
        },
        {
          "name": "E3",
          "midi": 52,
          "time": 32.117630999999996,
          "velocity": 0.7874015748031497,
          "duration": 0.16176462499999644
        },
        {
          "name": "E2",
          "midi": 40,
          "time": 32.117630999999996,
          "velocity": 0.7874015748031497,
          "duration": 0.13308816874999962
        },
        {
          "name": "E3",
          "midi": 52,
          "time": 32.298513262499995,
          "velocity": 0.7874015748031497,
          "duration": 0.1529410999999996
        },
        {
          "name": "E2",
          "midi": 40,
          "time": 32.298513262499995,
          "velocity": 0.7874015748031497,
          "duration": 0.12426464375000279
        },
        {
          "name": "E3",
          "midi": 52,
          "time": 32.470572,
          "velocity": 0.7874015748031497,
          "duration": 0.16176462499999644
        },
        {
          "name": "E2",
          "midi": 40,
          "time": 32.470572,
          "velocity": 0.7874015748031497,
          "duration": 0.13308816874999962
        },
        {
          "name": "E3",
          "midi": 52,
          "time": 32.651454262499996,
          "velocity": 0.7874015748031497,
          "duration": 0.17205873750000222
        },
        {
          "name": "E2",
          "midi": 40,
          "time": 32.651454262499996,
          "velocity": 0.7874015748031497,
          "duration": 0.1529410999999996
        },
        {
          "name": "E3",
          "midi": 52,
          "time": 32.823513,
          "velocity": 0.7874015748031497,
          "duration": 0.16176462499999644
        },
        {
          "name": "E2",
          "midi": 40,
          "time": 32.823513,
          "velocity": 0.7874015748031497,
          "duration": 0.13308816874999962
        },
        {
          "name": "E3",
          "midi": 52,
          "time": 33.0043952625,
          "velocity": 0.7874015748031497,
          "duration": 0.1624999187499938
        },
        {
          "name": "E2",
          "midi": 40,
          "time": 33.0043952625,
          "velocity": 0.7874015748031497,
          "duration": 0.133823462499997
        },
        {
          "name": "E3",
          "midi": 52,
          "time": 33.17645399999999,
          "velocity": 0.7874015748031497,
          "duration": 0.16176462499999644
        },
        {
          "name": "E2",
          "midi": 40,
          "time": 33.17645399999999,
          "velocity": 0.7874015748031497,
          "duration": 0.13308816874999962
        },
        {
          "name": "E3",
          "midi": 52,
          "time": 33.35733626249999,
          "velocity": 0.7874015748031497,
          "duration": 0.17205873750000222
        },
        {
          "name": "E2",
          "midi": 40,
          "time": 33.35733626249999,
          "velocity": 0.7874015748031497,
          "duration": 0.1529410999999996
        },
        {
          "name": "E3",
          "midi": 52,
          "time": 33.529394999999994,
          "velocity": 0.7874015748031497,
          "duration": 0.16176462499999644
        },
        {
          "name": "E2",
          "midi": 40,
          "time": 33.529394999999994,
          "velocity": 0.7874015748031497,
          "duration": 0.13308816874999962
        },
        {
          "name": "D2",
          "midi": 38,
          "time": 33.71027726249999,
          "velocity": 0.7874015748031497,
          "duration": 0.1529410999999996
        },
        {
          "name": "D3",
          "midi": 50,
          "time": 33.71027726249999,
          "velocity": 0.7874015748031497,
          "duration": 0.1529410999999996
        },
        {
          "name": "E3",
          "midi": 52,
          "time": 33.882335999999995,
          "velocity": 0.7874015748031497,
          "duration": 0.16176462499999644
        },
        {
          "name": "E2",
          "midi": 40,
          "time": 33.882335999999995,
          "velocity": 0.7874015748031497,
          "duration": 0.13308816874999962
        },
        {
          "name": "E3",
          "midi": 52,
          "time": 34.063218262499994,
          "velocity": 0.7874015748031497,
          "duration": 0.17205873750000222
        },
        {
          "name": "E2",
          "midi": 40,
          "time": 34.063218262499994,
          "velocity": 0.7874015748031497,
          "duration": 0.1529410999999996
        },
        {
          "name": "E3",
          "midi": 52,
          "time": 34.235276999999996,
          "velocity": 0.7874015748031497,
          "duration": 0.16176462499999644
        },
        {
          "name": "E2",
          "midi": 40,
          "time": 34.235276999999996,
          "velocity": 0.7874015748031497,
          "duration": 0.13308816874999962
        },
        {
          "name": "E3",
          "midi": 52,
          "time": 34.416159262499995,
          "velocity": 0.7874015748031497,
          "duration": 0.1624999187499938
        },
        {
          "name": "E2",
          "midi": 40,
          "time": 34.416159262499995,
          "velocity": 0.7874015748031497,
          "duration": 0.133823462499997
        },
        {
          "name": "E3",
          "midi": 52,
          "time": 34.58821799999999,
          "velocity": 0.7874015748031497,
          "duration": 0.16176462499999644
        },
        {
          "name": "E2",
          "midi": 40,
          "time": 34.58821799999999,
          "velocity": 0.7874015748031497,
          "duration": 0.13308816874999962
        },
        {
          "name": "E3",
          "midi": 52,
          "time": 34.76910026249999,
          "velocity": 0.7874015748031497,
          "duration": 0.17205873750000222
        },
        {
          "name": "E2",
          "midi": 40,
          "time": 34.76910026249999,
          "velocity": 0.7874015748031497,
          "duration": 0.1529410999999996
        },
        {
          "name": "E3",
          "midi": 52,
          "time": 34.94115899999999,
          "velocity": 0.7874015748031497,
          "duration": 0.16176462499999644
        },
        {
          "name": "E2",
          "midi": 40,
          "time": 34.94115899999999,
          "velocity": 0.7874015748031497,
          "duration": 0.13308816874999962
        },
        {
          "name": "E3",
          "midi": 52,
          "time": 35.12204126249999,
          "velocity": 0.7874015748031497,
          "duration": 0.1529410999999996
        },
        {
          "name": "E2",
          "midi": 40,
          "time": 35.12204126249999,
          "velocity": 0.7874015748031497,
          "duration": 0.12426464375000279
        },
        {
          "name": "E3",
          "midi": 52,
          "time": 35.29409999999999,
          "velocity": 0.7874015748031497,
          "duration": 0.16176462499999644
        },
        {
          "name": "E2",
          "midi": 40,
          "time": 35.29409999999999,
          "velocity": 0.7874015748031497,
          "duration": 0.13308816874999962
        },
        {
          "name": "E3",
          "midi": 52,
          "time": 35.47498226249999,
          "velocity": 0.7874015748031497,
          "duration": 0.17205873750000222
        },
        {
          "name": "E2",
          "midi": 40,
          "time": 35.47498226249999,
          "velocity": 0.7874015748031497,
          "duration": 0.1529410999999996
        },
        {
          "name": "E3",
          "midi": 52,
          "time": 35.647040999999994,
          "velocity": 0.7874015748031497,
          "duration": 0.16176462499999644
        },
        {
          "name": "E2",
          "midi": 40,
          "time": 35.647040999999994,
          "velocity": 0.7874015748031497,
          "duration": 0.13308816874999962
        },
        {
          "name": "E3",
          "midi": 52,
          "time": 35.82792326249999,
          "velocity": 0.7874015748031497,
          "duration": 0.1624999187499938
        },
        {
          "name": "E2",
          "midi": 40,
          "time": 35.82792326249999,
          "velocity": 0.7874015748031497,
          "duration": 0.133823462499997
        },
        {
          "name": "E3",
          "midi": 52,
          "time": 35.99998199999999,
          "velocity": 0.7874015748031497,
          "duration": 0.16176462499999644
        },
        {
          "name": "E2",
          "midi": 40,
          "time": 35.99998199999999,
          "velocity": 0.7874015748031497,
          "duration": 0.13308816874999962
        },
        {
          "name": "E3",
          "midi": 52,
          "time": 36.18086426249999,
          "velocity": 0.7874015748031497,
          "duration": 0.17205873750000222
        },
        {
          "name": "E2",
          "midi": 40,
          "time": 36.18086426249999,
          "velocity": 0.7874015748031497,
          "duration": 0.1529410999999996
        },
        {
          "name": "E3",
          "midi": 52,
          "time": 36.35292299999999,
          "velocity": 0.7874015748031497,
          "duration": 0.16176462499999644
        },
        {
          "name": "E2",
          "midi": 40,
          "time": 36.35292299999999,
          "velocity": 0.7874015748031497,
          "duration": 0.13308816874999962
        },
        {
          "name": "E3",
          "midi": 52,
          "time": 36.53380526249999,
          "velocity": 0.7874015748031497,
          "duration": 0.1624999187499938
        },
        {
          "name": "E2",
          "midi": 40,
          "time": 36.53380526249999,
          "velocity": 0.7874015748031497,
          "duration": 0.133823462499997
        },
        {
          "name": "D3",
          "midi": 50,
          "time": 36.705863999999984,
          "velocity": 0.7874015748031497,
          "duration": 0.16176462499999644
        },
        {
          "name": "D2",
          "midi": 38,
          "time": 36.705863999999984,
          "velocity": 0.7874015748031497,
          "duration": 0.16176462499999644
        },
        {
          "name": "D3",
          "midi": 50,
          "time": 36.88674626249998,
          "velocity": 0.7874015748031497,
          "duration": 0.17205873750000222
        },
        {
          "name": "D2",
          "midi": 38,
          "time": 36.88674626249998,
          "velocity": 0.7874015748031497,
          "duration": 0.17205873750000222
        },
        {
          "name": "D3",
          "midi": 50,
          "time": 37.058804999999985,
          "velocity": 0.7874015748031497,
          "duration": 0.16176462499999644
        },
        {
          "name": "D2",
          "midi": 38,
          "time": 37.058804999999985,
          "velocity": 0.7874015748031497,
          "duration": 0.16176462499999644
        },
        {
          "name": "D3",
          "midi": 50,
          "time": 37.239687262499984,
          "velocity": 0.7874015748031497,
          "duration": 0.16249991875000092
        },
        {
          "name": "D2",
          "midi": 38,
          "time": 37.239687262499984,
          "velocity": 0.7874015748031497,
          "duration": 0.16249991875000092
        },
        {
          "name": "D3",
          "midi": 50,
          "time": 37.41174599999999,
          "velocity": 0.7874015748031497,
          "duration": 0.16176462499999644
        },
        {
          "name": "D2",
          "midi": 38,
          "time": 37.41174599999999,
          "velocity": 0.7874015748031497,
          "duration": 0.16176462499999644
        },
        {
          "name": "D3",
          "midi": 50,
          "time": 37.592628262499986,
          "velocity": 0.7874015748031497,
          "duration": 0.17205873750000222
        },
        {
          "name": "D2",
          "midi": 38,
          "time": 37.592628262499986,
          "velocity": 0.7874015748031497,
          "duration": 0.17205873750000222
        },
        {
          "name": "D3",
          "midi": 50,
          "time": 37.76468699999999,
          "velocity": 0.7874015748031497,
          "duration": 0.16176462499999644
        },
        {
          "name": "D2",
          "midi": 38,
          "time": 37.76468699999999,
          "velocity": 0.7874015748031497,
          "duration": 0.16176462499999644
        },
        {
          "name": "D3",
          "midi": 50,
          "time": 37.94556926249999,
          "velocity": 0.7874015748031497,
          "duration": 0.1529410999999996
        },
        {
          "name": "D2",
          "midi": 38,
          "time": 37.94556926249999,
          "velocity": 0.7874015748031497,
          "duration": 0.1529410999999996
        },
        {
          "name": "G3",
          "midi": 55,
          "time": 38.11762799999999,
          "velocity": 0.7874015748031497,
          "duration": 0.17647050000000064
        },
        {
          "name": "G2",
          "midi": 43,
          "time": 38.11762799999999,
          "velocity": 0.7874015748031497,
          "duration": 0.17647050000000064
        },
        {
          "name": "D3",
          "midi": 50,
          "time": 38.29851026249999,
          "velocity": 0.7874015748031497,
          "duration": 0.5058821000000009
        },
        {
          "name": "D2",
          "midi": 38,
          "time": 38.29851026249999,
          "velocity": 0.7874015748031497,
          "duration": 0.5058821000000009
        },
        {
          "name": "E3",
          "midi": 52,
          "time": 38.82350999999999,
          "velocity": 0.7874015748031497,
          "duration": 0.31470572499999605
        },
        {
          "name": "E2",
          "midi": 40,
          "time": 38.82350999999999,
          "velocity": 0.7874015748031497,
          "duration": 0.28602926874999923
        },
        {
          "name": "D3",
          "midi": 50,
          "time": 39.176450999999986,
          "velocity": 0.7874015748031497,
          "duration": 0.17647050000000064
        },
        {
          "name": "D2",
          "midi": 38,
          "time": 39.176450999999986,
          "velocity": 0.7874015748031497,
          "duration": 0.17647050000000064
        },
        {
          "name": "E3",
          "midi": 52,
          "time": 39.357333262499985,
          "velocity": 0.7874015748031497,
          "duration": 0.133823462499997
        },
        {
          "name": "E2",
          "midi": 40,
          "time": 39.357333262499985,
          "velocity": 0.7874015748031497,
          "duration": 0.10514700625000017
        },
        {
          "name": "E3",
          "midi": 52,
          "time": 39.52939199999998,
          "velocity": 0.7874015748031497,
          "duration": 0.16176462499999644
        },
        {
          "name": "E2",
          "midi": 40,
          "time": 39.52939199999998,
          "velocity": 0.7874015748031497,
          "duration": 0.13308816874999962
        },
        {
          "name": "E3",
          "midi": 52,
          "time": 39.71027426249998,
          "velocity": 0.7874015748031497,
          "duration": 0.17205873750000222
        },
        {
          "name": "E2",
          "midi": 40,
          "time": 39.71027426249998,
          "velocity": 0.7874015748031497,
          "duration": 0.1529410999999996
        },
        {
          "name": "E3",
          "midi": 52,
          "time": 39.88233299999998,
          "velocity": 0.7874015748031497,
          "duration": 0.16176462499999644
        },
        {
          "name": "E2",
          "midi": 40,
          "time": 39.88233299999998,
          "velocity": 0.7874015748031497,
          "duration": 0.13308816874999962
        },
        {
          "name": "E3",
          "midi": 52,
          "time": 40.06321526249998,
          "velocity": 0.7874015748031497,
          "duration": 0.1624999187499938
        },
        {
          "name": "E2",
          "midi": 40,
          "time": 40.06321526249998,
          "velocity": 0.7874015748031497,
          "duration": 0.133823462499997
        },
        {
          "name": "E3",
          "midi": 52,
          "time": 40.235273999999976,
          "velocity": 0.7874015748031497,
          "duration": 0.16176462499999644
        },
        {
          "name": "E2",
          "midi": 40,
          "time": 40.235273999999976,
          "velocity": 0.7874015748031497,
          "duration": 0.13308816874999962
        },
        {
          "name": "E3",
          "midi": 52,
          "time": 40.416156262499975,
          "velocity": 0.7874015748031497,
          "duration": 0.17205873750000222
        },
        {
          "name": "E2",
          "midi": 40,
          "time": 40.416156262499975,
          "velocity": 0.7874015748031497,
          "duration": 0.1529410999999996
        },
        {
          "name": "E3",
          "midi": 52,
          "time": 40.58821499999998,
          "velocity": 0.7874015748031497,
          "duration": 0.16176462499999644
        },
        {
          "name": "E2",
          "midi": 40,
          "time": 40.58821499999998,
          "velocity": 0.7874015748031497,
          "duration": 0.13308816874999962
        },
        {
          "name": "E3",
          "midi": 52,
          "time": 40.769097262499976,
          "velocity": 0.7874015748031497,
          "duration": 0.1529410999999996
        },
        {
          "name": "E2",
          "midi": 40,
          "time": 40.769097262499976,
          "velocity": 0.7874015748031497,
          "duration": 0.12426464375000279
        },
        {
          "name": "E3",
          "midi": 52,
          "time": 40.94115599999998,
          "velocity": 0.7874015748031497,
          "duration": 0.16176462499999644
        },
        {
          "name": "E2",
          "midi": 40,
          "time": 40.94115599999998,
          "velocity": 0.7874015748031497,
          "duration": 0.13308816874999962
        },
        {
          "name": "E3",
          "midi": 52,
          "time": 41.12203826249998,
          "velocity": 0.7874015748031497,
          "duration": 0.17205873750000222
        },
        {
          "name": "E2",
          "midi": 40,
          "time": 41.12203826249998,
          "velocity": 0.7874015748031497,
          "duration": 0.1529410999999996
        },
        {
          "name": "E3",
          "midi": 52,
          "time": 41.29409699999998,
          "velocity": 0.7874015748031497,
          "duration": 0.16176462499999644
        },
        {
          "name": "E2",
          "midi": 40,
          "time": 41.29409699999998,
          "velocity": 0.7874015748031497,
          "duration": 0.13308816874999962
        },
        {
          "name": "E3",
          "midi": 52,
          "time": 41.47497926249998,
          "velocity": 0.7874015748031497,
          "duration": 0.1624999187499938
        },
        {
          "name": "E2",
          "midi": 40,
          "time": 41.47497926249998,
          "velocity": 0.7874015748031497,
          "duration": 0.133823462499997
        },
        {
          "name": "E3",
          "midi": 52,
          "time": 41.647037999999974,
          "velocity": 0.7874015748031497,
          "duration": 0.16176462499999644
        },
        {
          "name": "E2",
          "midi": 40,
          "time": 41.647037999999974,
          "velocity": 0.7874015748031497,
          "duration": 0.13308816874999962
        },
        {
          "name": "E3",
          "midi": 52,
          "time": 41.82792026249997,
          "velocity": 0.7874015748031497,
          "duration": 0.17205873750000222
        },
        {
          "name": "E2",
          "midi": 40,
          "time": 41.82792026249997,
          "velocity": 0.7874015748031497,
          "duration": 0.1529410999999996
        },
        {
          "name": "E3",
          "midi": 52,
          "time": 41.999978999999975,
          "velocity": 0.7874015748031497,
          "duration": 0.16176462499999644
        },
        {
          "name": "E2",
          "midi": 40,
          "time": 41.999978999999975,
          "velocity": 0.7874015748031497,
          "duration": 0.13308816874999962
        },
        {
          "name": "E3",
          "midi": 52,
          "time": 42.180861262499974,
          "velocity": 0.7874015748031497,
          "duration": 0.1624999187499938
        },
        {
          "name": "E2",
          "midi": 40,
          "time": 42.180861262499974,
          "velocity": 0.7874015748031497,
          "duration": 0.133823462499997
        },
        {
          "name": "D3",
          "midi": 50,
          "time": 42.35291999999997,
          "velocity": 0.7874015748031497,
          "duration": 0.16176462500000355
        },
        {
          "name": "D2",
          "midi": 38,
          "time": 42.35291999999997,
          "velocity": 0.7874015748031497,
          "duration": 0.16176462500000355
        },
        {
          "name": "D3",
          "midi": 50,
          "time": 42.533802262499975,
          "velocity": 0.7874015748031497,
          "duration": 0.17205873750000222
        },
        {
          "name": "D2",
          "midi": 38,
          "time": 42.533802262499975,
          "velocity": 0.7874015748031497,
          "duration": 0.17205873750000222
        },
        {
          "name": "D3",
          "midi": 50,
          "time": 42.70586099999998,
          "velocity": 0.7874015748031497,
          "duration": 0.16176462499999644
        },
        {
          "name": "D2",
          "midi": 38,
          "time": 42.70586099999998,
          "velocity": 0.7874015748031497,
          "duration": 0.16176462499999644
        },
        {
          "name": "D3",
          "midi": 50,
          "time": 42.88674326249998,
          "velocity": 0.7874015748031497,
          "duration": 0.16249991875000092
        },
        {
          "name": "D2",
          "midi": 38,
          "time": 42.88674326249998,
          "velocity": 0.7874015748031497,
          "duration": 0.16249991875000092
        },
        {
          "name": "D3",
          "midi": 50,
          "time": 43.05880199999998,
          "velocity": 0.7874015748031497,
          "duration": 0.16176462499999644
        },
        {
          "name": "D2",
          "midi": 38,
          "time": 43.05880199999998,
          "velocity": 0.7874015748031497,
          "duration": 0.16176462499999644
        },
        {
          "name": "D3",
          "midi": 50,
          "time": 43.23968426249998,
          "velocity": 0.7874015748031497,
          "duration": 0.17205873750000222
        },
        {
          "name": "D2",
          "midi": 38,
          "time": 43.23968426249998,
          "velocity": 0.7874015748031497,
          "duration": 0.17205873750000222
        },
        {
          "name": "D3",
          "midi": 50,
          "time": 43.41174299999998,
          "velocity": 0.7874015748031497,
          "duration": 0.16176462499999644
        },
        {
          "name": "D2",
          "midi": 38,
          "time": 43.41174299999998,
          "velocity": 0.7874015748031497,
          "duration": 0.16176462499999644
        },
        {
          "name": "D3",
          "midi": 50,
          "time": 43.59262526249998,
          "velocity": 0.7874015748031497,
          "duration": 0.1529410999999996
        },
        {
          "name": "D2",
          "midi": 38,
          "time": 43.59262526249998,
          "velocity": 0.7874015748031497,
          "duration": 0.1529410999999996
        },
        {
          "name": "G3",
          "midi": 55,
          "time": 43.76468399999998,
          "velocity": 0.7874015748031497,
          "duration": 0.17647050000000064
        },
        {
          "name": "G2",
          "midi": 43,
          "time": 43.76468399999998,
          "velocity": 0.7874015748031497,
          "duration": 0.17647050000000064
        },
        {
          "name": "D3",
          "midi": 50,
          "time": 43.94556626249998,
          "velocity": 0.7874015748031497,
          "duration": 0.5058821000000009
        },
        {
          "name": "D2",
          "midi": 38,
          "time": 43.94556626249998,
          "velocity": 0.7874015748031497,
          "duration": 0.5058821000000009
        },
        {
          "name": "E3",
          "midi": 52,
          "time": 44.470565999999984,
          "velocity": 0.7874015748031497,
          "duration": 0.31470572499999605
        },
        {
          "name": "E2",
          "midi": 40,
          "time": 44.470565999999984,
          "velocity": 0.7874015748031497,
          "duration": 0.28602926874999923
        },
        {
          "name": "D3",
          "midi": 50,
          "time": 44.82350699999998,
          "velocity": 0.7874015748031497,
          "duration": 0.17647050000000064
        },
        {
          "name": "D2",
          "midi": 38,
          "time": 44.82350699999998,
          "velocity": 0.7874015748031497,
          "duration": 0.17647050000000064
        },
        {
          "name": "E3",
          "midi": 52,
          "time": 45.00438926249998,
          "velocity": 0.7874015748031497,
          "duration": 0.133823462499997
        },
        {
          "name": "E2",
          "midi": 40,
          "time": 45.00438926249998,
          "velocity": 0.7874015748031497,
          "duration": 0.10514700625000017
        },
        {
          "name": "E3",
          "midi": 52,
          "time": 45.17644799999997,
          "velocity": 0.8661417322834646,
          "duration": 2.832351525
        },
        {
          "name": "E2",
          "midi": 40,
          "time": 45.17644799999997,
          "velocity": 0.8661417322834646,
          "duration": 2.8044103625000005
        },
        {
          "name": "D2",
          "midi": 38,
          "time": 47.999975999999975,
          "velocity": 0.8661417322834646,
          "duration": 2.823527999999996
        },
        {
          "name": "D3",
          "midi": 50,
          "time": 47.999975999999975,
          "velocity": 0.8661417322834646,
          "duration": 2.832351524999993
        },
        {
          "name": "E3",
          "midi": 52,
          "time": 50.82350399999997,
          "velocity": 0.8661417322834646,
          "duration": 2.832351524999993
        },
        {
          "name": "E2",
          "midi": 40,
          "time": 50.82350399999997,
          "velocity": 0.8661417322834646,
          "duration": 2.8044103624999934
        },
        {
          "name": "D3",
          "midi": 50,
          "time": 53.64703199999997,
          "velocity": 0.8661417322834646,
          "duration": 2.1176459999999935
        },
        {
          "name": "D2",
          "midi": 38,
          "time": 53.64703199999997,
          "velocity": 0.8661417322834646,
          "duration": 2.1176459999999935
        },
        {
          "name": "D2",
          "midi": 38,
          "time": 55.76467799999996,
          "velocity": 0.8661417322834646,
          "duration": 0.7058820000000026
        },
        {
          "name": "D3",
          "midi": 50,
          "time": 55.76467799999996,
          "velocity": 0.8661417322834646,
          "duration": 0.7058820000000026
        },
        {
          "name": "E3",
          "midi": 52,
          "time": 56.47055999999996,
          "velocity": 0.7874015748031497,
          "duration": 0.16176462499999644
        },
        {
          "name": "E2",
          "midi": 40,
          "time": 56.47055999999996,
          "velocity": 0.7874015748031497,
          "duration": 0.13308816874999962
        },
        {
          "name": "E3",
          "midi": 52,
          "time": 56.65144226249996,
          "velocity": 0.7874015748031497,
          "duration": 0.17205873750000222
        },
        {
          "name": "E2",
          "midi": 40,
          "time": 56.65144226249996,
          "velocity": 0.7874015748031497,
          "duration": 0.1529410999999996
        },
        {
          "name": "E3",
          "midi": 52,
          "time": 56.823500999999965,
          "velocity": 0.7874015748031497,
          "duration": 0.16176462499999644
        },
        {
          "name": "E2",
          "midi": 40,
          "time": 56.823500999999965,
          "velocity": 0.7874015748031497,
          "duration": 0.13308816874999962
        },
        {
          "name": "E3",
          "midi": 52,
          "time": 57.004383262499964,
          "velocity": 0.7874015748031497,
          "duration": 0.1624999187499938
        },
        {
          "name": "E2",
          "midi": 40,
          "time": 57.004383262499964,
          "velocity": 0.7874015748031497,
          "duration": 0.133823462499997
        },
        {
          "name": "E3",
          "midi": 52,
          "time": 57.17644199999996,
          "velocity": 0.7874015748031497,
          "duration": 0.16176462499999644
        },
        {
          "name": "E2",
          "midi": 40,
          "time": 57.17644199999996,
          "velocity": 0.7874015748031497,
          "duration": 0.13308816874999962
        },
        {
          "name": "E3",
          "midi": 52,
          "time": 57.35732426249996,
          "velocity": 0.7874015748031497,
          "duration": 0.17205873750000222
        },
        {
          "name": "E2",
          "midi": 40,
          "time": 57.35732426249996,
          "velocity": 0.7874015748031497,
          "duration": 0.1529410999999996
        },
        {
          "name": "E3",
          "midi": 52,
          "time": 57.52938299999996,
          "velocity": 0.7874015748031497,
          "duration": 0.16176462499999644
        },
        {
          "name": "E2",
          "midi": 40,
          "time": 57.52938299999996,
          "velocity": 0.7874015748031497,
          "duration": 0.13308816874999962
        },
        {
          "name": "E3",
          "midi": 52,
          "time": 57.71026526249996,
          "velocity": 0.7874015748031497,
          "duration": 0.1529410999999996
        },
        {
          "name": "E2",
          "midi": 40,
          "time": 57.71026526249996,
          "velocity": 0.7874015748031497,
          "duration": 0.12426464375000279
        },
        {
          "name": "E3",
          "midi": 52,
          "time": 57.88232399999996,
          "velocity": 0.7874015748031497,
          "duration": 0.16176462499999644
        },
        {
          "name": "E2",
          "midi": 40,
          "time": 57.88232399999996,
          "velocity": 0.7874015748031497,
          "duration": 0.13308816874999962
        },
        {
          "name": "E3",
          "midi": 52,
          "time": 58.06320626249996,
          "velocity": 0.7874015748031497,
          "duration": 0.17205873750000222
        },
        {
          "name": "E2",
          "midi": 40,
          "time": 58.06320626249996,
          "velocity": 0.7874015748031497,
          "duration": 0.1529410999999996
        },
        {
          "name": "E3",
          "midi": 52,
          "time": 58.23526499999996,
          "velocity": 0.7874015748031497,
          "duration": 0.16176462499999644
        },
        {
          "name": "E2",
          "midi": 40,
          "time": 58.23526499999996,
          "velocity": 0.7874015748031497,
          "duration": 0.13308816874999962
        },
        {
          "name": "E3",
          "midi": 52,
          "time": 58.41614726249996,
          "velocity": 0.7874015748031497,
          "duration": 0.1624999187499938
        },
        {
          "name": "E2",
          "midi": 40,
          "time": 58.41614726249996,
          "velocity": 0.7874015748031497,
          "duration": 0.133823462499997
        },
        {
          "name": "E3",
          "midi": 52,
          "time": 58.58820599999996,
          "velocity": 0.7874015748031497,
          "duration": 0.16176462499999644
        },
        {
          "name": "E2",
          "midi": 40,
          "time": 58.58820599999996,
          "velocity": 0.7874015748031497,
          "duration": 0.13308816874999962
        },
        {
          "name": "E3",
          "midi": 52,
          "time": 58.769088262499956,
          "velocity": 0.7874015748031497,
          "duration": 0.17205873750000222
        },
        {
          "name": "E2",
          "midi": 40,
          "time": 58.769088262499956,
          "velocity": 0.7874015748031497,
          "duration": 0.1529410999999996
        },
        {
          "name": "E3",
          "midi": 52,
          "time": 58.94114699999996,
          "velocity": 0.7874015748031497,
          "duration": 0.16176462499999644
        },
        {
          "name": "E2",
          "midi": 40,
          "time": 58.94114699999996,
          "velocity": 0.7874015748031497,
          "duration": 0.13308816874999962
        },
        {
          "name": "E3",
          "midi": 52,
          "time": 59.12202926249996,
          "velocity": 0.7874015748031497,
          "duration": 0.1624999187499938
        },
        {
          "name": "E2",
          "midi": 40,
          "time": 59.12202926249996,
          "velocity": 0.7874015748031497,
          "duration": 0.133823462499997
        },
        {
          "name": "D3",
          "midi": 50,
          "time": 59.29408799999995,
          "velocity": 0.7874015748031497,
          "duration": 0.16176462499999644
        },
        {
          "name": "D2",
          "midi": 38,
          "time": 59.29408799999995,
          "velocity": 0.7874015748031497,
          "duration": 0.16176462499999644
        },
        {
          "name": "D3",
          "midi": 50,
          "time": 59.47497026249995,
          "velocity": 0.7874015748031497,
          "duration": 0.17205873750000222
        },
        {
          "name": "D2",
          "midi": 38,
          "time": 59.47497026249995,
          "velocity": 0.7874015748031497,
          "duration": 0.17205873750000222
        },
        {
          "name": "D3",
          "midi": 50,
          "time": 59.647028999999954,
          "velocity": 0.7874015748031497,
          "duration": 0.16176462499999644
        },
        {
          "name": "D2",
          "midi": 38,
          "time": 59.647028999999954,
          "velocity": 0.7874015748031497,
          "duration": 0.16176462499999644
        },
        {
          "name": "D3",
          "midi": 50,
          "time": 59.82791126249995,
          "velocity": 0.7874015748031497,
          "duration": 0.16249991875000092
        },
        {
          "name": "D2",
          "midi": 38,
          "time": 59.82791126249995,
          "velocity": 0.7874015748031497,
          "duration": 0.16249991875000092
        },
        {
          "name": "D3",
          "midi": 50,
          "time": 59.999969999999955,
          "velocity": 0.7874015748031497,
          "duration": 0.16176462499999644
        },
        {
          "name": "D2",
          "midi": 38,
          "time": 59.999969999999955,
          "velocity": 0.7874015748031497,
          "duration": 0.16176462499999644
        },
        {
          "name": "D3",
          "midi": 50,
          "time": 60.180852262499954,
          "velocity": 0.7874015748031497,
          "duration": 0.17205873750000222
        },
        {
          "name": "D2",
          "midi": 38,
          "time": 60.180852262499954,
          "velocity": 0.7874015748031497,
          "duration": 0.17205873750000222
        },
        {
          "name": "D3",
          "midi": 50,
          "time": 60.352910999999956,
          "velocity": 0.7874015748031497,
          "duration": 0.16176462499999644
        },
        {
          "name": "D2",
          "midi": 38,
          "time": 60.352910999999956,
          "velocity": 0.7874015748031497,
          "duration": 0.16176462499999644
        },
        {
          "name": "D3",
          "midi": 50,
          "time": 60.533793262499955,
          "velocity": 0.7874015748031497,
          "duration": 0.1529410999999996
        },
        {
          "name": "D2",
          "midi": 38,
          "time": 60.533793262499955,
          "velocity": 0.7874015748031497,
          "duration": 0.1529410999999996
        },
        {
          "name": "G3",
          "midi": 55,
          "time": 60.70585199999996,
          "velocity": 0.7874015748031497,
          "duration": 0.17647050000000064
        },
        {
          "name": "G2",
          "midi": 43,
          "time": 60.70585199999996,
          "velocity": 0.7874015748031497,
          "duration": 0.17647050000000064
        },
        {
          "name": "D3",
          "midi": 50,
          "time": 60.88673426249996,
          "velocity": 0.7874015748031497,
          "duration": 0.5058821000000009
        },
        {
          "name": "D2",
          "midi": 38,
          "time": 60.88673426249996,
          "velocity": 0.7874015748031497,
          "duration": 0.5058821000000009
        },
        {
          "name": "E3",
          "midi": 52,
          "time": 61.41173399999996,
          "velocity": 0.7874015748031497,
          "duration": 0.31470572499999605
        },
        {
          "name": "E2",
          "midi": 40,
          "time": 61.41173399999996,
          "velocity": 0.7874015748031497,
          "duration": 0.28602926874999923
        },
        {
          "name": "D3",
          "midi": 50,
          "time": 61.764674999999954,
          "velocity": 0.7874015748031497,
          "duration": 0.17647050000000064
        },
        {
          "name": "D2",
          "midi": 38,
          "time": 61.764674999999954,
          "velocity": 0.7874015748031497,
          "duration": 0.17647050000000064
        },
        {
          "name": "E3",
          "midi": 52,
          "time": 61.94555726249995,
          "velocity": 0.7874015748031497,
          "duration": 0.133823462499997
        },
        {
          "name": "E2",
          "midi": 40,
          "time": 61.94555726249995,
          "velocity": 0.7874015748031497,
          "duration": 0.10514700625000017
        },
        {
          "name": "E3",
          "midi": 52,
          "time": 62.11761599999995,
          "velocity": 0.7874015748031497,
          "duration": 0.16176462499999644
        },
        {
          "name": "E2",
          "midi": 40,
          "time": 62.11761599999995,
          "velocity": 0.7874015748031497,
          "duration": 0.13308816874999962
        },
        {
          "name": "E3",
          "midi": 52,
          "time": 62.29849826249995,
          "velocity": 0.7874015748031497,
          "duration": 0.17205873750000222
        },
        {
          "name": "E2",
          "midi": 40,
          "time": 62.29849826249995,
          "velocity": 0.7874015748031497,
          "duration": 0.1529410999999996
        },
        {
          "name": "E3",
          "midi": 52,
          "time": 62.47055699999995,
          "velocity": 0.7874015748031497,
          "duration": 0.16176462499999644
        },
        {
          "name": "E2",
          "midi": 40,
          "time": 62.47055699999995,
          "velocity": 0.7874015748031497,
          "duration": 0.13308816874999962
        },
        {
          "name": "E3",
          "midi": 52,
          "time": 62.65143926249995,
          "velocity": 0.7874015748031497,
          "duration": 0.1624999187499938
        },
        {
          "name": "E2",
          "midi": 40,
          "time": 62.65143926249995,
          "velocity": 0.7874015748031497,
          "duration": 0.133823462499997
        },
        {
          "name": "E3",
          "midi": 52,
          "time": 62.823497999999944,
          "velocity": 0.7874015748031497,
          "duration": 0.16176462499999644
        },
        {
          "name": "E2",
          "midi": 40,
          "time": 62.823497999999944,
          "velocity": 0.7874015748031497,
          "duration": 0.13308816874999962
        },
        {
          "name": "E3",
          "midi": 52,
          "time": 63.00438026249994,
          "velocity": 0.7874015748031497,
          "duration": 0.17205873750000222
        },
        {
          "name": "E2",
          "midi": 40,
          "time": 63.00438026249994,
          "velocity": 0.7874015748031497,
          "duration": 0.1529410999999996
        },
        {
          "name": "E3",
          "midi": 52,
          "time": 63.176438999999945,
          "velocity": 0.7874015748031497,
          "duration": 0.16176462499999644
        },
        {
          "name": "E2",
          "midi": 40,
          "time": 63.176438999999945,
          "velocity": 0.7874015748031497,
          "duration": 0.13308816874999962
        },
        {
          "name": "E3",
          "midi": 52,
          "time": 63.357321262499944,
          "velocity": 0.7874015748031497,
          "duration": 0.1529410999999996
        },
        {
          "name": "E2",
          "midi": 40,
          "time": 63.357321262499944,
          "velocity": 0.7874015748031497,
          "duration": 0.12426464375000279
        },
        {
          "name": "E3",
          "midi": 52,
          "time": 63.52937999999995,
          "velocity": 0.7874015748031497,
          "duration": 0.16176462499999644
        },
        {
          "name": "E2",
          "midi": 40,
          "time": 63.52937999999995,
          "velocity": 0.7874015748031497,
          "duration": 0.13308816874999962
        },
        {
          "name": "E3",
          "midi": 52,
          "time": 63.710262262499946,
          "velocity": 0.7874015748031497,
          "duration": 0.17205873750000222
        },
        {
          "name": "E2",
          "midi": 40,
          "time": 63.710262262499946,
          "velocity": 0.7874015748031497,
          "duration": 0.1529410999999996
        },
        {
          "name": "E3",
          "midi": 52,
          "time": 63.88232099999995,
          "velocity": 0.7874015748031497,
          "duration": 0.16176462500000355
        },
        {
          "name": "E2",
          "midi": 40,
          "time": 63.88232099999995,
          "velocity": 0.7874015748031497,
          "duration": 0.13308816875000673
        },
        {
          "name": "E3",
          "midi": 52,
          "time": 64.06320326249995,
          "velocity": 0.7874015748031497,
          "duration": 0.16249991875000092
        },
        {
          "name": "E2",
          "midi": 40,
          "time": 64.06320326249995,
          "velocity": 0.7874015748031497,
          "duration": 0.1338234625000041
        },
        {
          "name": "E3",
          "midi": 52,
          "time": 64.23526199999995,
          "velocity": 0.7874015748031497,
          "duration": 0.16176462500000355
        },
        {
          "name": "E2",
          "midi": 40,
          "time": 64.23526199999995,
          "velocity": 0.7874015748031497,
          "duration": 0.13308816875000673
        },
        {
          "name": "E3",
          "midi": 52,
          "time": 64.41614426249996,
          "velocity": 0.7874015748031497,
          "duration": 0.17205873750000933
        },
        {
          "name": "E2",
          "midi": 40,
          "time": 64.41614426249996,
          "velocity": 0.7874015748031497,
          "duration": 0.1529411000000067
        },
        {
          "name": "E3",
          "midi": 52,
          "time": 64.58820299999996,
          "velocity": 0.7874015748031497,
          "duration": 0.16176462500000355
        },
        {
          "name": "E2",
          "midi": 40,
          "time": 64.58820299999996,
          "velocity": 0.7874015748031497,
          "duration": 0.13308816875000673
        },
        {
          "name": "E3",
          "midi": 52,
          "time": 64.76908526249997,
          "velocity": 0.7874015748031497,
          "duration": 0.16249991875000092
        },
        {
          "name": "E2",
          "midi": 40,
          "time": 64.76908526249997,
          "velocity": 0.7874015748031497,
          "duration": 0.1338234625000041
        },
        {
          "name": "D3",
          "midi": 50,
          "time": 64.94114399999997,
          "velocity": 0.7874015748031497,
          "duration": 0.16176462500000355
        },
        {
          "name": "D2",
          "midi": 38,
          "time": 64.94114399999997,
          "velocity": 0.7874015748031497,
          "duration": 0.16176462500000355
        },
        {
          "name": "D3",
          "midi": 50,
          "time": 65.12202626249997,
          "velocity": 0.7874015748031497,
          "duration": 0.17205873749999512
        },
        {
          "name": "D2",
          "midi": 38,
          "time": 65.12202626249997,
          "velocity": 0.7874015748031497,
          "duration": 0.17205873749999512
        },
        {
          "name": "D3",
          "midi": 50,
          "time": 65.29408499999997,
          "velocity": 0.7874015748031497,
          "duration": 0.16176462500000355
        },
        {
          "name": "D2",
          "midi": 38,
          "time": 65.29408499999997,
          "velocity": 0.7874015748031497,
          "duration": 0.16176462500000355
        },
        {
          "name": "D3",
          "midi": 50,
          "time": 65.47496726249997,
          "velocity": 0.7874015748031497,
          "duration": 0.16249991875000092
        },
        {
          "name": "D2",
          "midi": 38,
          "time": 65.47496726249997,
          "velocity": 0.7874015748031497,
          "duration": 0.16249991875000092
        },
        {
          "name": "D3",
          "midi": 50,
          "time": 65.64702599999997,
          "velocity": 0.7874015748031497,
          "duration": 0.16176462500000355
        },
        {
          "name": "D2",
          "midi": 38,
          "time": 65.64702599999997,
          "velocity": 0.7874015748031497,
          "duration": 0.16176462500000355
        },
        {
          "name": "D3",
          "midi": 50,
          "time": 65.82790826249997,
          "velocity": 0.7874015748031497,
          "duration": 0.17205873749999512
        },
        {
          "name": "D2",
          "midi": 38,
          "time": 65.82790826249997,
          "velocity": 0.7874015748031497,
          "duration": 0.17205873749999512
        },
        {
          "name": "D3",
          "midi": 50,
          "time": 65.99996699999997,
          "velocity": 0.7874015748031497,
          "duration": 0.16176462500000355
        },
        {
          "name": "D2",
          "midi": 38,
          "time": 65.99996699999997,
          "velocity": 0.7874015748031497,
          "duration": 0.16176462500000355
        },
        {
          "name": "D3",
          "midi": 50,
          "time": 66.18084926249998,
          "velocity": 0.7874015748031497,
          "duration": 0.1529411000000067
        },
        {
          "name": "D2",
          "midi": 38,
          "time": 66.18084926249998,
          "velocity": 0.7874015748031497,
          "duration": 0.1529411000000067
        },
        {
          "name": "G3",
          "midi": 55,
          "time": 66.35290799999999,
          "velocity": 0.7874015748031497,
          "duration": 0.17647049999999354
        },
        {
          "name": "G2",
          "midi": 43,
          "time": 66.35290799999999,
          "velocity": 0.7874015748031497,
          "duration": 0.17647049999999354
        },
        {
          "name": "D3",
          "midi": 50,
          "time": 66.53379026249998,
          "velocity": 0.7874015748031497,
          "duration": 0.5058820999999938
        },
        {
          "name": "D2",
          "midi": 38,
          "time": 66.53379026249998,
          "velocity": 0.7874015748031497,
          "duration": 0.5058820999999938
        },
        {
          "name": "E3",
          "midi": 52,
          "time": 67.05878999999997,
          "velocity": 0.7874015748031497,
          "duration": 0.31470572499999605
        },
        {
          "name": "E2",
          "midi": 40,
          "time": 67.05878999999997,
          "velocity": 0.7874015748031497,
          "duration": 0.28602926874999923
        },
        {
          "name": "D3",
          "midi": 50,
          "time": 67.41173099999997,
          "velocity": 0.7874015748031497,
          "duration": 0.17647049999999354
        },
        {
          "name": "D2",
          "midi": 38,
          "time": 67.41173099999997,
          "velocity": 0.7874015748031497,
          "duration": 0.17647049999999354
        },
        {
          "name": "E3",
          "midi": 52,
          "time": 67.59261326249997,
          "velocity": 0.7874015748031497,
          "duration": 0.1338234624999899
        },
        {
          "name": "E2",
          "midi": 40,
          "time": 67.59261326249997,
          "velocity": 0.7874015748031497,
          "duration": 0.10514700624999307
        },
        {
          "name": "E3",
          "midi": 52,
          "time": 67.76467199999996,
          "velocity": 0.7874015748031497,
          "duration": 0.16176462500000355
        },
        {
          "name": "E2",
          "midi": 40,
          "time": 67.76467199999996,
          "velocity": 0.7874015748031497,
          "duration": 0.13308816875000673
        },
        {
          "name": "E3",
          "midi": 52,
          "time": 67.94555426249997,
          "velocity": 0.7874015748031497,
          "duration": 0.17205873750000933
        },
        {
          "name": "E2",
          "midi": 40,
          "time": 67.94555426249997,
          "velocity": 0.7874015748031497,
          "duration": 0.1529411000000067
        },
        {
          "name": "E3",
          "midi": 52,
          "time": 68.11761299999998,
          "velocity": 0.7874015748031497,
          "duration": 0.16176462500000355
        },
        {
          "name": "E2",
          "midi": 40,
          "time": 68.11761299999998,
          "velocity": 0.7874015748031497,
          "duration": 0.13308816875000673
        },
        {
          "name": "E3",
          "midi": 52,
          "time": 68.29849526249998,
          "velocity": 0.7874015748031497,
          "duration": 0.16249991875000092
        },
        {
          "name": "E2",
          "midi": 40,
          "time": 68.29849526249998,
          "velocity": 0.7874015748031497,
          "duration": 0.1338234625000041
        },
        {
          "name": "E3",
          "midi": 52,
          "time": 68.47055399999998,
          "velocity": 0.7874015748031497,
          "duration": 0.16176462500000355
        },
        {
          "name": "E2",
          "midi": 40,
          "time": 68.47055399999998,
          "velocity": 0.7874015748031497,
          "duration": 0.13308816875000673
        },
        {
          "name": "E3",
          "midi": 52,
          "time": 68.65143626249998,
          "velocity": 0.7874015748031497,
          "duration": 0.17205873750000933
        },
        {
          "name": "E2",
          "midi": 40,
          "time": 68.65143626249998,
          "velocity": 0.7874015748031497,
          "duration": 0.1529411000000067
        },
        {
          "name": "E3",
          "midi": 52,
          "time": 68.823495,
          "velocity": 0.7874015748031497,
          "duration": 0.16176462500000355
        },
        {
          "name": "E2",
          "midi": 40,
          "time": 68.823495,
          "velocity": 0.7874015748031497,
          "duration": 0.13308816875000673
        },
        {
          "name": "E3",
          "midi": 52,
          "time": 69.0043772625,
          "velocity": 0.7874015748031497,
          "duration": 0.1529410999999925
        },
        {
          "name": "E2",
          "midi": 40,
          "time": 69.0043772625,
          "velocity": 0.7874015748031497,
          "duration": 0.12426464374999568
        },
        {
          "name": "E3",
          "midi": 52,
          "time": 69.176436,
          "velocity": 0.7874015748031497,
          "duration": 0.16176462500000355
        },
        {
          "name": "E2",
          "midi": 40,
          "time": 69.176436,
          "velocity": 0.7874015748031497,
          "duration": 0.13308816875000673
        },
        {
          "name": "E3",
          "midi": 52,
          "time": 69.3573182625,
          "velocity": 0.7874015748031497,
          "duration": 0.17205873750000933
        },
        {
          "name": "E2",
          "midi": 40,
          "time": 69.3573182625,
          "velocity": 0.7874015748031497,
          "duration": 0.1529411000000067
        },
        {
          "name": "E3",
          "midi": 52,
          "time": 69.52937700000001,
          "velocity": 0.7874015748031497,
          "duration": 0.16176462500000355
        },
        {
          "name": "E2",
          "midi": 40,
          "time": 69.52937700000001,
          "velocity": 0.7874015748031497,
          "duration": 0.13308816875000673
        },
        {
          "name": "E3",
          "midi": 52,
          "time": 69.71025926250002,
          "velocity": 0.7874015748031497,
          "duration": 0.16249991875000092
        },
        {
          "name": "E2",
          "midi": 40,
          "time": 69.71025926250002,
          "velocity": 0.7874015748031497,
          "duration": 0.1338234625000041
        },
        {
          "name": "E3",
          "midi": 52,
          "time": 69.88231800000001,
          "velocity": 0.7874015748031497,
          "duration": 0.16176462500000355
        },
        {
          "name": "E2",
          "midi": 40,
          "time": 69.88231800000001,
          "velocity": 0.7874015748031497,
          "duration": 0.13308816875000673
        },
        {
          "name": "E3",
          "midi": 52,
          "time": 70.06320026250002,
          "velocity": 0.7874015748031497,
          "duration": 0.17205873750000933
        },
        {
          "name": "E2",
          "midi": 40,
          "time": 70.06320026250002,
          "velocity": 0.7874015748031497,
          "duration": 0.1529411000000067
        },
        {
          "name": "E3",
          "midi": 52,
          "time": 70.23525900000003,
          "velocity": 0.7874015748031497,
          "duration": 0.16176462500000355
        },
        {
          "name": "E2",
          "midi": 40,
          "time": 70.23525900000003,
          "velocity": 0.7874015748031497,
          "duration": 0.13308816875000673
        },
        {
          "name": "E3",
          "midi": 52,
          "time": 70.41614126250003,
          "velocity": 0.7874015748031497,
          "duration": 0.16249991875000092
        },
        {
          "name": "E2",
          "midi": 40,
          "time": 70.41614126250003,
          "velocity": 0.7874015748031497,
          "duration": 0.1338234625000041
        },
        {
          "name": "D3",
          "midi": 50,
          "time": 70.58820000000003,
          "velocity": 0.7874015748031497,
          "duration": 0.16176462500000355
        },
        {
          "name": "D2",
          "midi": 38,
          "time": 70.58820000000003,
          "velocity": 0.7874015748031497,
          "duration": 0.16176462500000355
        },
        {
          "name": "D3",
          "midi": 50,
          "time": 70.76908226250004,
          "velocity": 0.7874015748031497,
          "duration": 0.17205873749999512
        },
        {
          "name": "D2",
          "midi": 38,
          "time": 70.76908226250004,
          "velocity": 0.7874015748031497,
          "duration": 0.17205873749999512
        },
        {
          "name": "D3",
          "midi": 50,
          "time": 70.94114100000003,
          "velocity": 0.7874015748031497,
          "duration": 0.16176462500000355
        },
        {
          "name": "D2",
          "midi": 38,
          "time": 70.94114100000003,
          "velocity": 0.7874015748031497,
          "duration": 0.16176462500000355
        },
        {
          "name": "D3",
          "midi": 50,
          "time": 71.12202326250004,
          "velocity": 0.7874015748031497,
          "duration": 0.16249991875000092
        },
        {
          "name": "D2",
          "midi": 38,
          "time": 71.12202326250004,
          "velocity": 0.7874015748031497,
          "duration": 0.16249991875000092
        },
        {
          "name": "D3",
          "midi": 50,
          "time": 71.29408200000003,
          "velocity": 0.7874015748031497,
          "duration": 0.16176462500000355
        },
        {
          "name": "D2",
          "midi": 38,
          "time": 71.29408200000003,
          "velocity": 0.7874015748031497,
          "duration": 0.16176462500000355
        },
        {
          "name": "D3",
          "midi": 50,
          "time": 71.47496426250004,
          "velocity": 0.7874015748031497,
          "duration": 0.17205873749999512
        },
        {
          "name": "D2",
          "midi": 38,
          "time": 71.47496426250004,
          "velocity": 0.7874015748031497,
          "duration": 0.17205873749999512
        },
        {
          "name": "D3",
          "midi": 50,
          "time": 71.64702300000003,
          "velocity": 0.7874015748031497,
          "duration": 0.16176462500000355
        },
        {
          "name": "D2",
          "midi": 38,
          "time": 71.64702300000003,
          "velocity": 0.7874015748031497,
          "duration": 0.16176462500000355
        },
        {
          "name": "D3",
          "midi": 50,
          "time": 71.82790526250004,
          "velocity": 0.7874015748031497,
          "duration": 0.1529411000000067
        },
        {
          "name": "D2",
          "midi": 38,
          "time": 71.82790526250004,
          "velocity": 0.7874015748031497,
          "duration": 0.1529411000000067
        },
        {
          "name": "G3",
          "midi": 55,
          "time": 71.99996400000005,
          "velocity": 0.7874015748031497,
          "duration": 0.17647049999999354
        },
        {
          "name": "G2",
          "midi": 43,
          "time": 71.99996400000005,
          "velocity": 0.7874015748031497,
          "duration": 0.17647049999999354
        },
        {
          "name": "D3",
          "midi": 50,
          "time": 72.18084626250004,
          "velocity": 0.7874015748031497,
          "duration": 0.5058820999999938
        },
        {
          "name": "D2",
          "midi": 38,
          "time": 72.18084626250004,
          "velocity": 0.7874015748031497,
          "duration": 0.5058820999999938
        },
        {
          "name": "E3",
          "midi": 52,
          "time": 72.70584600000004,
          "velocity": 0.7874015748031497,
          "duration": 0.31470572499999605
        },
        {
          "name": "E2",
          "midi": 40,
          "time": 72.70584600000004,
          "velocity": 0.7874015748031497,
          "duration": 0.28602926874999923
        },
        {
          "name": "D3",
          "midi": 50,
          "time": 73.05878700000004,
          "velocity": 0.7874015748031497,
          "duration": 0.17647049999999354
        },
        {
          "name": "D2",
          "midi": 38,
          "time": 73.05878700000004,
          "velocity": 0.7874015748031497,
          "duration": 0.17647049999999354
        },
        {
          "name": "E3",
          "midi": 52,
          "time": 73.23966926250003,
          "velocity": 0.7874015748031497,
          "duration": 0.1338234624999899
        },
        {
          "name": "E2",
          "midi": 40,
          "time": 73.23966926250003,
          "velocity": 0.7874015748031497,
          "duration": 0.10514700624999307
        },
        {
          "name": "E3",
          "midi": 52,
          "time": 73.41172800000002,
          "velocity": 0.7874015748031497,
          "duration": 0.16176462500000355
        },
        {
          "name": "E2",
          "midi": 40,
          "time": 73.41172800000002,
          "velocity": 0.7874015748031497,
          "duration": 0.13308816875000673
        },
        {
          "name": "E3",
          "midi": 52,
          "time": 73.59261026250003,
          "velocity": 0.7874015748031497,
          "duration": 0.17205873750000933
        },
        {
          "name": "E2",
          "midi": 40,
          "time": 73.59261026250003,
          "velocity": 0.7874015748031497,
          "duration": 0.1529411000000067
        },
        {
          "name": "E3",
          "midi": 52,
          "time": 73.76466900000004,
          "velocity": 0.7874015748031497,
          "duration": 0.16176462500000355
        },
        {
          "name": "E2",
          "midi": 40,
          "time": 73.76466900000004,
          "velocity": 0.7874015748031497,
          "duration": 0.13308816875000673
        },
        {
          "name": "E3",
          "midi": 52,
          "time": 73.94555126250005,
          "velocity": 0.7874015748031497,
          "duration": 0.16249991875000092
        },
        {
          "name": "E2",
          "midi": 40,
          "time": 73.94555126250005,
          "velocity": 0.7874015748031497,
          "duration": 0.1338234625000041
        },
        {
          "name": "E3",
          "midi": 52,
          "time": 74.11761000000004,
          "velocity": 0.7874015748031497,
          "duration": 0.16176462500000355
        },
        {
          "name": "E2",
          "midi": 40,
          "time": 74.11761000000004,
          "velocity": 0.7874015748031497,
          "duration": 0.13308816875000673
        },
        {
          "name": "E3",
          "midi": 52,
          "time": 74.29849226250005,
          "velocity": 0.7874015748031497,
          "duration": 0.17205873750000933
        },
        {
          "name": "E2",
          "midi": 40,
          "time": 74.29849226250005,
          "velocity": 0.7874015748031497,
          "duration": 0.1529411000000067
        },
        {
          "name": "E3",
          "midi": 52,
          "time": 74.47055100000006,
          "velocity": 0.7874015748031497,
          "duration": 0.16176462500000355
        },
        {
          "name": "E2",
          "midi": 40,
          "time": 74.47055100000006,
          "velocity": 0.7874015748031497,
          "duration": 0.13308816875000673
        },
        {
          "name": "E3",
          "midi": 52,
          "time": 74.65143326250006,
          "velocity": 0.7874015748031497,
          "duration": 0.1529410999999925
        },
        {
          "name": "E2",
          "midi": 40,
          "time": 74.65143326250006,
          "velocity": 0.7874015748031497,
          "duration": 0.12426464374999568
        },
        {
          "name": "E3",
          "midi": 52,
          "time": 74.82349200000006,
          "velocity": 0.7874015748031497,
          "duration": 0.16176462500000355
        },
        {
          "name": "E2",
          "midi": 40,
          "time": 74.82349200000006,
          "velocity": 0.7874015748031497,
          "duration": 0.13308816875000673
        },
        {
          "name": "E3",
          "midi": 52,
          "time": 75.00437426250006,
          "velocity": 0.7874015748031497,
          "duration": 0.17205873750000933
        },
        {
          "name": "E2",
          "midi": 40,
          "time": 75.00437426250006,
          "velocity": 0.7874015748031497,
          "duration": 0.1529411000000067
        },
        {
          "name": "E3",
          "midi": 52,
          "time": 75.17643300000007,
          "velocity": 0.7874015748031497,
          "duration": 0.16176462500000355
        },
        {
          "name": "E2",
          "midi": 40,
          "time": 75.17643300000007,
          "velocity": 0.7874015748031497,
          "duration": 0.13308816875000673
        },
        {
          "name": "E3",
          "midi": 52,
          "time": 75.35731526250008,
          "velocity": 0.7874015748031497,
          "duration": 0.16249991875000092
        },
        {
          "name": "E2",
          "midi": 40,
          "time": 75.35731526250008,
          "velocity": 0.7874015748031497,
          "duration": 0.1338234625000041
        },
        {
          "name": "E3",
          "midi": 52,
          "time": 75.52937400000008,
          "velocity": 0.7874015748031497,
          "duration": 0.16176462500000355
        },
        {
          "name": "E2",
          "midi": 40,
          "time": 75.52937400000008,
          "velocity": 0.7874015748031497,
          "duration": 0.13308816875000673
        },
        {
          "name": "E3",
          "midi": 52,
          "time": 75.71025626250008,
          "velocity": 0.7874015748031497,
          "duration": 0.17205873750000933
        },
        {
          "name": "E2",
          "midi": 40,
          "time": 75.71025626250008,
          "velocity": 0.7874015748031497,
          "duration": 0.1529411000000067
        },
        {
          "name": "E3",
          "midi": 52,
          "time": 75.88231500000009,
          "velocity": 0.7874015748031497,
          "duration": 0.16176462500000355
        },
        {
          "name": "E2",
          "midi": 40,
          "time": 75.88231500000009,
          "velocity": 0.7874015748031497,
          "duration": 0.13308816875000673
        },
        {
          "name": "E3",
          "midi": 52,
          "time": 76.0631972625001,
          "velocity": 0.7874015748031497,
          "duration": 0.16249991875000092
        },
        {
          "name": "E2",
          "midi": 40,
          "time": 76.0631972625001,
          "velocity": 0.7874015748031497,
          "duration": 0.1338234625000041
        },
        {
          "name": "D3",
          "midi": 50,
          "time": 76.23525600000009,
          "velocity": 0.7874015748031497,
          "duration": 0.16176462500000355
        },
        {
          "name": "D2",
          "midi": 38,
          "time": 76.23525600000009,
          "velocity": 0.7874015748031497,
          "duration": 0.16176462500000355
        },
        {
          "name": "D3",
          "midi": 50,
          "time": 76.4161382625001,
          "velocity": 0.7874015748031497,
          "duration": 0.17205873749999512
        },
        {
          "name": "D2",
          "midi": 38,
          "time": 76.4161382625001,
          "velocity": 0.7874015748031497,
          "duration": 0.17205873749999512
        },
        {
          "name": "D3",
          "midi": 50,
          "time": 76.5881970000001,
          "velocity": 0.7874015748031497,
          "duration": 0.16176462500000355
        },
        {
          "name": "D2",
          "midi": 38,
          "time": 76.5881970000001,
          "velocity": 0.7874015748031497,
          "duration": 0.16176462500000355
        },
        {
          "name": "D3",
          "midi": 50,
          "time": 76.7690792625001,
          "velocity": 0.7874015748031497,
          "duration": 0.16249991875000092
        },
        {
          "name": "D2",
          "midi": 38,
          "time": 76.7690792625001,
          "velocity": 0.7874015748031497,
          "duration": 0.16249991875000092
        },
        {
          "name": "D3",
          "midi": 50,
          "time": 76.9411380000001,
          "velocity": 0.7874015748031497,
          "duration": 0.16176462500000355
        },
        {
          "name": "D2",
          "midi": 38,
          "time": 76.9411380000001,
          "velocity": 0.7874015748031497,
          "duration": 0.16176462500000355
        },
        {
          "name": "D3",
          "midi": 50,
          "time": 77.1220202625001,
          "velocity": 0.7874015748031497,
          "duration": 0.17205873749999512
        },
        {
          "name": "D2",
          "midi": 38,
          "time": 77.1220202625001,
          "velocity": 0.7874015748031497,
          "duration": 0.17205873749999512
        },
        {
          "name": "D3",
          "midi": 50,
          "time": 77.2940790000001,
          "velocity": 0.7874015748031497,
          "duration": 0.16176462500000355
        },
        {
          "name": "D2",
          "midi": 38,
          "time": 77.2940790000001,
          "velocity": 0.7874015748031497,
          "duration": 0.16176462500000355
        },
        {
          "name": "D3",
          "midi": 50,
          "time": 77.4749612625001,
          "velocity": 0.7874015748031497,
          "duration": 0.1529411000000067
        },
        {
          "name": "D2",
          "midi": 38,
          "time": 77.4749612625001,
          "velocity": 0.7874015748031497,
          "duration": 0.1529411000000067
        },
        {
          "name": "G3",
          "midi": 55,
          "time": 77.64702000000011,
          "velocity": 0.7874015748031497,
          "duration": 0.17647049999999354
        },
        {
          "name": "G2",
          "midi": 43,
          "time": 77.64702000000011,
          "velocity": 0.7874015748031497,
          "duration": 0.17647049999999354
        },
        {
          "name": "D3",
          "midi": 50,
          "time": 77.8279022625001,
          "velocity": 0.7874015748031497,
          "duration": 0.5058820999999938
        },
        {
          "name": "D2",
          "midi": 38,
          "time": 77.8279022625001,
          "velocity": 0.7874015748031497,
          "duration": 0.5058820999999938
        },
        {
          "name": "E3",
          "midi": 52,
          "time": 78.3529020000001,
          "velocity": 0.7874015748031497,
          "duration": 0.31470572499999605
        },
        {
          "name": "E2",
          "midi": 40,
          "time": 78.3529020000001,
          "velocity": 0.7874015748031497,
          "duration": 0.28602926874999923
        },
        {
          "name": "D3",
          "midi": 50,
          "time": 78.7058430000001,
          "velocity": 0.7874015748031497,
          "duration": 0.17647049999999354
        },
        {
          "name": "D2",
          "midi": 38,
          "time": 78.7058430000001,
          "velocity": 0.7874015748031497,
          "duration": 0.17647049999999354
        },
        {
          "name": "E3",
          "midi": 52,
          "time": 78.8867252625001,
          "velocity": 0.7874015748031497,
          "duration": 0.1338234624999899
        },
        {
          "name": "E2",
          "midi": 40,
          "time": 78.8867252625001,
          "velocity": 0.7874015748031497,
          "duration": 0.10514700624999307
        },
        {
          "name": "E3",
          "midi": 52,
          "time": 79.05878400000009,
          "velocity": 0.7874015748031497,
          "duration": 0.16176462500000355
        },
        {
          "name": "E2",
          "midi": 40,
          "time": 79.05878400000009,
          "velocity": 0.7874015748031497,
          "duration": 0.13308816875000673
        },
        {
          "name": "E3",
          "midi": 52,
          "time": 79.2396662625001,
          "velocity": 0.7874015748031497,
          "duration": 0.17205873750000933
        },
        {
          "name": "E2",
          "midi": 40,
          "time": 79.2396662625001,
          "velocity": 0.7874015748031497,
          "duration": 0.1529411000000067
        },
        {
          "name": "E3",
          "midi": 52,
          "time": 79.4117250000001,
          "velocity": 0.7874015748031497,
          "duration": 0.16176462500000355
        },
        {
          "name": "E2",
          "midi": 40,
          "time": 79.4117250000001,
          "velocity": 0.7874015748031497,
          "duration": 0.13308816875000673
        },
        {
          "name": "E3",
          "midi": 52,
          "time": 79.59260726250011,
          "velocity": 0.7874015748031497,
          "duration": 0.16249991875000092
        },
        {
          "name": "E2",
          "midi": 40,
          "time": 79.59260726250011,
          "velocity": 0.7874015748031497,
          "duration": 0.1338234625000041
        },
        {
          "name": "E3",
          "midi": 52,
          "time": 79.7646660000001,
          "velocity": 0.7874015748031497,
          "duration": 0.16176462500000355
        },
        {
          "name": "E2",
          "midi": 40,
          "time": 79.7646660000001,
          "velocity": 0.7874015748031497,
          "duration": 0.13308816875000673
        },
        {
          "name": "E3",
          "midi": 52,
          "time": 79.94554826250011,
          "velocity": 0.7874015748031497,
          "duration": 0.17205873750000933
        },
        {
          "name": "E2",
          "midi": 40,
          "time": 79.94554826250011,
          "velocity": 0.7874015748031497,
          "duration": 0.1529411000000067
        },
        {
          "name": "E3",
          "midi": 52,
          "time": 80.11760700000012,
          "velocity": 0.7874015748031497,
          "duration": 0.16176462500000355
        },
        {
          "name": "E2",
          "midi": 40,
          "time": 80.11760700000012,
          "velocity": 0.7874015748031497,
          "duration": 0.13308816875000673
        },
        {
          "name": "E3",
          "midi": 52,
          "time": 80.29848926250013,
          "velocity": 0.7874015748031497,
          "duration": 0.1529410999999925
        },
        {
          "name": "E2",
          "midi": 40,
          "time": 80.29848926250013,
          "velocity": 0.7874015748031497,
          "duration": 0.12426464374999568
        },
        {
          "name": "E3",
          "midi": 52,
          "time": 80.47054800000012,
          "velocity": 0.7874015748031497,
          "duration": 0.16176462500000355
        },
        {
          "name": "E2",
          "midi": 40,
          "time": 80.47054800000012,
          "velocity": 0.7874015748031497,
          "duration": 0.13308816875000673
        },
        {
          "name": "E3",
          "midi": 52,
          "time": 80.65143026250013,
          "velocity": 0.7874015748031497,
          "duration": 0.17205873750000933
        },
        {
          "name": "E2",
          "midi": 40,
          "time": 80.65143026250013,
          "velocity": 0.7874015748031497,
          "duration": 0.1529411000000067
        },
        {
          "name": "E3",
          "midi": 52,
          "time": 80.82348900000014,
          "velocity": 0.7874015748031497,
          "duration": 0.16176462500000355
        },
        {
          "name": "E2",
          "midi": 40,
          "time": 80.82348900000014,
          "velocity": 0.7874015748031497,
          "duration": 0.13308816875000673
        },
        {
          "name": "E3",
          "midi": 52,
          "time": 81.00437126250014,
          "velocity": 0.7874015748031497,
          "duration": 0.16249991875000092
        },
        {
          "name": "E2",
          "midi": 40,
          "time": 81.00437126250014,
          "velocity": 0.7874015748031497,
          "duration": 0.1338234625000041
        },
        {
          "name": "E3",
          "midi": 52,
          "time": 81.17643000000014,
          "velocity": 0.7874015748031497,
          "duration": 0.16176462500000355
        },
        {
          "name": "E2",
          "midi": 40,
          "time": 81.17643000000014,
          "velocity": 0.7874015748031497,
          "duration": 0.13308816875000673
        },
        {
          "name": "E3",
          "midi": 52,
          "time": 81.35731226250014,
          "velocity": 0.7874015748031497,
          "duration": 0.17205873750000933
        },
        {
          "name": "E2",
          "midi": 40,
          "time": 81.35731226250014,
          "velocity": 0.7874015748031497,
          "duration": 0.1529411000000067
        },
        {
          "name": "E3",
          "midi": 52,
          "time": 81.52937100000015,
          "velocity": 0.7874015748031497,
          "duration": 0.16176462500000355
        },
        {
          "name": "E2",
          "midi": 40,
          "time": 81.52937100000015,
          "velocity": 0.7874015748031497,
          "duration": 0.13308816875000673
        },
        {
          "name": "E3",
          "midi": 52,
          "time": 81.71025326250016,
          "velocity": 0.7874015748031497,
          "duration": 0.16249991875000092
        },
        {
          "name": "E2",
          "midi": 40,
          "time": 81.71025326250016,
          "velocity": 0.7874015748031497,
          "duration": 0.1338234625000041
        },
        {
          "name": "D3",
          "midi": 50,
          "time": 81.88231200000016,
          "velocity": 0.7874015748031497,
          "duration": 0.16176462500000355
        },
        {
          "name": "D2",
          "midi": 38,
          "time": 81.88231200000016,
          "velocity": 0.7874015748031497,
          "duration": 0.16176462500000355
        },
        {
          "name": "D3",
          "midi": 50,
          "time": 82.06319426250016,
          "velocity": 0.7874015748031497,
          "duration": 0.17205873749999512
        },
        {
          "name": "D2",
          "midi": 38,
          "time": 82.06319426250016,
          "velocity": 0.7874015748031497,
          "duration": 0.17205873749999512
        },
        {
          "name": "D3",
          "midi": 50,
          "time": 82.23525300000016,
          "velocity": 0.7874015748031497,
          "duration": 0.16176462500000355
        },
        {
          "name": "D2",
          "midi": 38,
          "time": 82.23525300000016,
          "velocity": 0.7874015748031497,
          "duration": 0.16176462500000355
        },
        {
          "name": "D3",
          "midi": 50,
          "time": 82.41613526250016,
          "velocity": 0.7874015748031497,
          "duration": 0.16249991875000092
        },
        {
          "name": "D2",
          "midi": 38,
          "time": 82.41613526250016,
          "velocity": 0.7874015748031497,
          "duration": 0.16249991875000092
        },
        {
          "name": "D3",
          "midi": 50,
          "time": 82.58819400000016,
          "velocity": 0.7874015748031497,
          "duration": 0.16176462500000355
        },
        {
          "name": "D2",
          "midi": 38,
          "time": 82.58819400000016,
          "velocity": 0.7874015748031497,
          "duration": 0.16176462500000355
        },
        {
          "name": "D3",
          "midi": 50,
          "time": 82.76907626250016,
          "velocity": 0.7874015748031497,
          "duration": 0.17205873749999512
        },
        {
          "name": "D2",
          "midi": 38,
          "time": 82.76907626250016,
          "velocity": 0.7874015748031497,
          "duration": 0.17205873749999512
        },
        {
          "name": "D3",
          "midi": 50,
          "time": 82.94113500000016,
          "velocity": 0.7874015748031497,
          "duration": 0.16176462500000355
        },
        {
          "name": "D2",
          "midi": 38,
          "time": 82.94113500000016,
          "velocity": 0.7874015748031497,
          "duration": 0.16176462500000355
        },
        {
          "name": "D3",
          "midi": 50,
          "time": 83.12201726250017,
          "velocity": 0.7874015748031497,
          "duration": 0.1529411000000067
        },
        {
          "name": "D2",
          "midi": 38,
          "time": 83.12201726250017,
          "velocity": 0.7874015748031497,
          "duration": 0.1529411000000067
        },
        {
          "name": "G3",
          "midi": 55,
          "time": 83.29407600000017,
          "velocity": 0.7874015748031497,
          "duration": 0.17647049999999354
        },
        {
          "name": "G2",
          "midi": 43,
          "time": 83.29407600000017,
          "velocity": 0.7874015748031497,
          "duration": 0.17647049999999354
        },
        {
          "name": "D3",
          "midi": 50,
          "time": 83.47495826250017,
          "velocity": 0.7874015748031497,
          "duration": 0.5058820999999938
        },
        {
          "name": "D2",
          "midi": 38,
          "time": 83.47495826250017,
          "velocity": 0.7874015748031497,
          "duration": 0.5058820999999938
        },
        {
          "name": "E3",
          "midi": 52,
          "time": 83.99995800000016,
          "velocity": 0.7874015748031497,
          "duration": 0.31470572499999605
        },
        {
          "name": "E2",
          "midi": 40,
          "time": 83.99995800000016,
          "velocity": 0.7874015748031497,
          "duration": 0.28602926874999923
        },
        {
          "name": "D3",
          "midi": 50,
          "time": 84.35289900000016,
          "velocity": 0.7874015748031497,
          "duration": 0.17647049999999354
        },
        {
          "name": "D2",
          "midi": 38,
          "time": 84.35289900000016,
          "velocity": 0.7874015748031497,
          "duration": 0.17647049999999354
        },
        {
          "name": "E3",
          "midi": 52,
          "time": 84.53378126250016,
          "velocity": 0.7874015748031497,
          "duration": 0.1338234624999899
        },
        {
          "name": "E2",
          "midi": 40,
          "time": 84.53378126250016,
          "velocity": 0.7874015748031497,
          "duration": 0.10514700624999307
        },
        {
          "name": "E3",
          "midi": 52,
          "time": 84.70584000000015,
          "velocity": 0.7874015748031497,
          "duration": 0.16176462500000355
        },
        {
          "name": "E2",
          "midi": 40,
          "time": 84.70584000000015,
          "velocity": 0.7874015748031497,
          "duration": 0.13308816875000673
        },
        {
          "name": "E3",
          "midi": 52,
          "time": 84.88672226250016,
          "velocity": 0.7874015748031497,
          "duration": 0.17205873750000933
        },
        {
          "name": "E2",
          "midi": 40,
          "time": 84.88672226250016,
          "velocity": 0.7874015748031497,
          "duration": 0.1529411000000067
        },
        {
          "name": "E3",
          "midi": 52,
          "time": 85.05878100000017,
          "velocity": 0.7874015748031497,
          "duration": 0.16176462500000355
        },
        {
          "name": "E2",
          "midi": 40,
          "time": 85.05878100000017,
          "velocity": 0.7874015748031497,
          "duration": 0.13308816875000673
        },
        {
          "name": "E3",
          "midi": 52,
          "time": 85.23966326250017,
          "velocity": 0.7874015748031497,
          "duration": 0.16249991875000092
        },
        {
          "name": "E2",
          "midi": 40,
          "time": 85.23966326250017,
          "velocity": 0.7874015748031497,
          "duration": 0.1338234625000041
        },
        {
          "name": "E3",
          "midi": 52,
          "time": 85.41172200000017,
          "velocity": 0.7874015748031497,
          "duration": 0.16176462500000355
        },
        {
          "name": "E2",
          "midi": 40,
          "time": 85.41172200000017,
          "velocity": 0.7874015748031497,
          "duration": 0.13308816875000673
        },
        {
          "name": "E3",
          "midi": 52,
          "time": 85.59260426250017,
          "velocity": 0.7874015748031497,
          "duration": 0.17205873750000933
        },
        {
          "name": "E2",
          "midi": 40,
          "time": 85.59260426250017,
          "velocity": 0.7874015748031497,
          "duration": 0.1529411000000067
        },
        {
          "name": "E3",
          "midi": 52,
          "time": 85.76466300000018,
          "velocity": 0.7874015748031497,
          "duration": 0.16176462500000355
        },
        {
          "name": "E2",
          "midi": 40,
          "time": 85.76466300000018,
          "velocity": 0.7874015748031497,
          "duration": 0.13308816875000673
        },
        {
          "name": "E3",
          "midi": 52,
          "time": 85.94554526250019,
          "velocity": 0.7874015748031497,
          "duration": 0.1529410999999925
        },
        {
          "name": "E2",
          "midi": 40,
          "time": 85.94554526250019,
          "velocity": 0.7874015748031497,
          "duration": 0.12426464374999568
        },
        {
          "name": "E3",
          "midi": 52,
          "time": 86.11760400000018,
          "velocity": 0.7874015748031497,
          "duration": 0.16176462500000355
        },
        {
          "name": "E2",
          "midi": 40,
          "time": 86.11760400000018,
          "velocity": 0.7874015748031497,
          "duration": 0.13308816875000673
        },
        {
          "name": "E3",
          "midi": 52,
          "time": 86.29848626250019,
          "velocity": 0.7874015748031497,
          "duration": 0.17205873750000933
        },
        {
          "name": "E2",
          "midi": 40,
          "time": 86.29848626250019,
          "velocity": 0.7874015748031497,
          "duration": 0.1529411000000067
        },
        {
          "name": "E3",
          "midi": 52,
          "time": 86.4705450000002,
          "velocity": 0.7874015748031497,
          "duration": 0.16176462500000355
        },
        {
          "name": "E2",
          "midi": 40,
          "time": 86.4705450000002,
          "velocity": 0.7874015748031497,
          "duration": 0.13308816875000673
        },
        {
          "name": "E3",
          "midi": 52,
          "time": 86.6514272625002,
          "velocity": 0.7874015748031497,
          "duration": 0.16249991875000092
        },
        {
          "name": "E2",
          "midi": 40,
          "time": 86.6514272625002,
          "velocity": 0.7874015748031497,
          "duration": 0.1338234625000041
        },
        {
          "name": "E3",
          "midi": 52,
          "time": 86.8234860000002,
          "velocity": 0.7874015748031497,
          "duration": 0.16176462500000355
        },
        {
          "name": "E2",
          "midi": 40,
          "time": 86.8234860000002,
          "velocity": 0.7874015748031497,
          "duration": 0.13308816875000673
        },
        {
          "name": "E3",
          "midi": 52,
          "time": 87.00436826250021,
          "velocity": 0.7874015748031497,
          "duration": 0.17205873750000933
        },
        {
          "name": "E2",
          "midi": 40,
          "time": 87.00436826250021,
          "velocity": 0.7874015748031497,
          "duration": 0.1529411000000067
        },
        {
          "name": "E3",
          "midi": 52,
          "time": 87.17642700000022,
          "velocity": 0.7874015748031497,
          "duration": 0.16176462500000355
        },
        {
          "name": "E2",
          "midi": 40,
          "time": 87.17642700000022,
          "velocity": 0.7874015748031497,
          "duration": 0.13308816875000673
        },
        {
          "name": "E3",
          "midi": 52,
          "time": 87.35730926250022,
          "velocity": 0.7874015748031497,
          "duration": 0.16249991875000092
        },
        {
          "name": "E2",
          "midi": 40,
          "time": 87.35730926250022,
          "velocity": 0.7874015748031497,
          "duration": 0.1338234625000041
        },
        {
          "name": "D3",
          "midi": 50,
          "time": 87.52936800000022,
          "velocity": 0.7874015748031497,
          "duration": 0.16176462500000355
        },
        {
          "name": "D2",
          "midi": 38,
          "time": 87.52936800000022,
          "velocity": 0.7874015748031497,
          "duration": 0.16176462500000355
        },
        {
          "name": "D3",
          "midi": 50,
          "time": 87.71025026250022,
          "velocity": 0.7874015748031497,
          "duration": 0.17205873749999512
        },
        {
          "name": "D2",
          "midi": 38,
          "time": 87.71025026250022,
          "velocity": 0.7874015748031497,
          "duration": 0.17205873749999512
        },
        {
          "name": "D3",
          "midi": 50,
          "time": 87.88230900000022,
          "velocity": 0.7874015748031497,
          "duration": 0.16176462500000355
        },
        {
          "name": "D2",
          "midi": 38,
          "time": 87.88230900000022,
          "velocity": 0.7874015748031497,
          "duration": 0.16176462500000355
        },
        {
          "name": "D3",
          "midi": 50,
          "time": 88.06319126250023,
          "velocity": 0.7874015748031497,
          "duration": 0.16249991875000092
        },
        {
          "name": "D2",
          "midi": 38,
          "time": 88.06319126250023,
          "velocity": 0.7874015748031497,
          "duration": 0.16249991875000092
        },
        {
          "name": "D3",
          "midi": 50,
          "time": 88.23525000000022,
          "velocity": 0.7874015748031497,
          "duration": 0.16176462500000355
        },
        {
          "name": "D2",
          "midi": 38,
          "time": 88.23525000000022,
          "velocity": 0.7874015748031497,
          "duration": 0.16176462500000355
        },
        {
          "name": "D3",
          "midi": 50,
          "time": 88.41613226250023,
          "velocity": 0.7874015748031497,
          "duration": 0.17205873749999512
        },
        {
          "name": "D2",
          "midi": 38,
          "time": 88.41613226250023,
          "velocity": 0.7874015748031497,
          "duration": 0.17205873749999512
        },
        {
          "name": "D3",
          "midi": 50,
          "time": 88.58819100000022,
          "velocity": 0.7874015748031497,
          "duration": 0.16176462500000355
        },
        {
          "name": "D2",
          "midi": 38,
          "time": 88.58819100000022,
          "velocity": 0.7874015748031497,
          "duration": 0.16176462500000355
        },
        {
          "name": "D3",
          "midi": 50,
          "time": 88.76907326250023,
          "velocity": 0.7874015748031497,
          "duration": 0.1529411000000067
        },
        {
          "name": "D2",
          "midi": 38,
          "time": 88.76907326250023,
          "velocity": 0.7874015748031497,
          "duration": 0.1529411000000067
        },
        {
          "name": "G3",
          "midi": 55,
          "time": 88.94113200000024,
          "velocity": 0.7874015748031497,
          "duration": 0.17647049999999354
        },
        {
          "name": "G2",
          "midi": 43,
          "time": 88.94113200000024,
          "velocity": 0.7874015748031497,
          "duration": 0.17647049999999354
        },
        {
          "name": "D3",
          "midi": 50,
          "time": 89.12201426250023,
          "velocity": 0.7874015748031497,
          "duration": 0.5058820999999938
        },
        {
          "name": "D2",
          "midi": 38,
          "time": 89.12201426250023,
          "velocity": 0.7874015748031497,
          "duration": 0.5058820999999938
        },
        {
          "name": "E3",
          "midi": 52,
          "time": 89.64701400000023,
          "velocity": 0.7874015748031497,
          "duration": 0.31470572499999605
        },
        {
          "name": "E2",
          "midi": 40,
          "time": 89.64701400000023,
          "velocity": 0.7874015748031497,
          "duration": 0.28602926874999923
        },
        {
          "name": "D3",
          "midi": 50,
          "time": 89.99995500000023,
          "velocity": 0.7874015748031497,
          "duration": 0.17647049999999354
        },
        {
          "name": "D2",
          "midi": 38,
          "time": 89.99995500000023,
          "velocity": 0.7874015748031497,
          "duration": 0.17647049999999354
        },
        {
          "name": "E3",
          "midi": 52,
          "time": 90.18083726250022,
          "velocity": 0.7874015748031497,
          "duration": 0.1338234624999899
        },
        {
          "name": "E2",
          "midi": 40,
          "time": 90.18083726250022,
          "velocity": 0.7874015748031497,
          "duration": 0.10514700624999307
        },
        {
          "name": "E3",
          "midi": 52,
          "time": 90.35289600000021,
          "velocity": 0.7874015748031497,
          "duration": 0.16176462500000355
        },
        {
          "name": "E2",
          "midi": 40,
          "time": 90.35289600000021,
          "velocity": 0.7874015748031497,
          "duration": 0.13308816875000673
        },
        {
          "name": "E3",
          "midi": 52,
          "time": 90.53377826250022,
          "velocity": 0.7874015748031497,
          "duration": 0.17205873750000933
        },
        {
          "name": "E2",
          "midi": 40,
          "time": 90.53377826250022,
          "velocity": 0.7874015748031497,
          "duration": 0.1529411000000067
        },
        {
          "name": "E3",
          "midi": 52,
          "time": 90.70583700000023,
          "velocity": 0.7874015748031497,
          "duration": 0.16176462500000355
        },
        {
          "name": "E2",
          "midi": 40,
          "time": 90.70583700000023,
          "velocity": 0.7874015748031497,
          "duration": 0.13308816875000673
        },
        {
          "name": "E3",
          "midi": 52,
          "time": 90.88671926250024,
          "velocity": 0.7874015748031497,
          "duration": 0.16249991875000092
        },
        {
          "name": "E2",
          "midi": 40,
          "time": 90.88671926250024,
          "velocity": 0.7874015748031497,
          "duration": 0.1338234625000041
        },
        {
          "name": "E3",
          "midi": 52,
          "time": 91.05877800000023,
          "velocity": 0.7874015748031497,
          "duration": 0.16176462500000355
        },
        {
          "name": "E2",
          "midi": 40,
          "time": 91.05877800000023,
          "velocity": 0.7874015748031497,
          "duration": 0.13308816875000673
        },
        {
          "name": "E3",
          "midi": 52,
          "time": 91.23966026250024,
          "velocity": 0.7874015748031497,
          "duration": 0.17205873750000933
        },
        {
          "name": "E2",
          "midi": 40,
          "time": 91.23966026250024,
          "velocity": 0.7874015748031497,
          "duration": 0.1529411000000067
        },
        {
          "name": "E3",
          "midi": 52,
          "time": 91.41171900000025,
          "velocity": 0.7874015748031497,
          "duration": 0.16176462500000355
        },
        {
          "name": "E2",
          "midi": 40,
          "time": 91.41171900000025,
          "velocity": 0.7874015748031497,
          "duration": 0.13308816875000673
        },
        {
          "name": "E3",
          "midi": 52,
          "time": 91.59260126250025,
          "velocity": 0.7874015748031497,
          "duration": 0.1529410999999925
        },
        {
          "name": "E2",
          "midi": 40,
          "time": 91.59260126250025,
          "velocity": 0.7874015748031497,
          "duration": 0.12426464374999568
        },
        {
          "name": "E3",
          "midi": 52,
          "time": 91.76466000000025,
          "velocity": 0.7874015748031497,
          "duration": 0.16176462500000355
        },
        {
          "name": "E2",
          "midi": 40,
          "time": 91.76466000000025,
          "velocity": 0.7874015748031497,
          "duration": 0.13308816875000673
        },
        {
          "name": "E3",
          "midi": 52,
          "time": 91.94554226250025,
          "velocity": 0.7874015748031497,
          "duration": 0.17205873750000933
        },
        {
          "name": "E2",
          "midi": 40,
          "time": 91.94554226250025,
          "velocity": 0.7874015748031497,
          "duration": 0.1529411000000067
        },
        {
          "name": "E3",
          "midi": 52,
          "time": 92.11760100000026,
          "velocity": 0.7874015748031497,
          "duration": 0.16176462500000355
        },
        {
          "name": "E2",
          "midi": 40,
          "time": 92.11760100000026,
          "velocity": 0.7874015748031497,
          "duration": 0.13308816875000673
        },
        {
          "name": "E3",
          "midi": 52,
          "time": 92.29848326250027,
          "velocity": 0.7874015748031497,
          "duration": 0.16249991875000092
        },
        {
          "name": "E2",
          "midi": 40,
          "time": 92.29848326250027,
          "velocity": 0.7874015748031497,
          "duration": 0.1338234625000041
        },
        {
          "name": "E3",
          "midi": 52,
          "time": 92.47054200000026,
          "velocity": 0.7874015748031497,
          "duration": 0.16176462500000355
        },
        {
          "name": "E2",
          "midi": 40,
          "time": 92.47054200000026,
          "velocity": 0.7874015748031497,
          "duration": 0.13308816875000673
        },
        {
          "name": "E3",
          "midi": 52,
          "time": 92.65142426250027,
          "velocity": 0.7874015748031497,
          "duration": 0.17205873750000933
        },
        {
          "name": "E2",
          "midi": 40,
          "time": 92.65142426250027,
          "velocity": 0.7874015748031497,
          "duration": 0.1529411000000067
        },
        {
          "name": "E3",
          "midi": 52,
          "time": 92.82348300000028,
          "velocity": 0.7874015748031497,
          "duration": 0.16176462500000355
        },
        {
          "name": "E2",
          "midi": 40,
          "time": 92.82348300000028,
          "velocity": 0.7874015748031497,
          "duration": 0.13308816875000673
        },
        {
          "name": "E3",
          "midi": 52,
          "time": 93.00436526250029,
          "velocity": 0.7874015748031497,
          "duration": 0.16249991875000092
        },
        {
          "name": "E2",
          "midi": 40,
          "time": 93.00436526250029,
          "velocity": 0.7874015748031497,
          "duration": 0.1338234625000041
        },
        {
          "name": "D3",
          "midi": 50,
          "time": 93.17642400000028,
          "velocity": 0.7874015748031497,
          "duration": 0.16176462500000355
        },
        {
          "name": "D2",
          "midi": 38,
          "time": 93.17642400000028,
          "velocity": 0.7874015748031497,
          "duration": 0.16176462500000355
        },
        {
          "name": "D3",
          "midi": 50,
          "time": 93.35730626250029,
          "velocity": 0.7874015748031497,
          "duration": 0.17205873749999512
        },
        {
          "name": "D2",
          "midi": 38,
          "time": 93.35730626250029,
          "velocity": 0.7874015748031497,
          "duration": 0.17205873749999512
        },
        {
          "name": "D3",
          "midi": 50,
          "time": 93.52936500000028,
          "velocity": 0.7874015748031497,
          "duration": 0.16176462500000355
        },
        {
          "name": "D2",
          "midi": 38,
          "time": 93.52936500000028,
          "velocity": 0.7874015748031497,
          "duration": 0.16176462500000355
        },
        {
          "name": "D3",
          "midi": 50,
          "time": 93.71024726250029,
          "velocity": 0.7874015748031497,
          "duration": 0.16249991875000092
        },
        {
          "name": "D2",
          "midi": 38,
          "time": 93.71024726250029,
          "velocity": 0.7874015748031497,
          "duration": 0.16249991875000092
        },
        {
          "name": "D3",
          "midi": 50,
          "time": 93.88230600000028,
          "velocity": 0.7874015748031497,
          "duration": 0.16176462500000355
        },
        {
          "name": "D2",
          "midi": 38,
          "time": 93.88230600000028,
          "velocity": 0.7874015748031497,
          "duration": 0.16176462500000355
        },
        {
          "name": "D3",
          "midi": 50,
          "time": 94.06318826250029,
          "velocity": 0.7874015748031497,
          "duration": 0.17205873749999512
        },
        {
          "name": "D2",
          "midi": 38,
          "time": 94.06318826250029,
          "velocity": 0.7874015748031497,
          "duration": 0.17205873749999512
        },
        {
          "name": "D3",
          "midi": 50,
          "time": 94.23524700000029,
          "velocity": 0.7874015748031497,
          "duration": 0.16176462500000355
        },
        {
          "name": "D2",
          "midi": 38,
          "time": 94.23524700000029,
          "velocity": 0.7874015748031497,
          "duration": 0.16176462500000355
        },
        {
          "name": "D3",
          "midi": 50,
          "time": 94.41612926250029,
          "velocity": 0.7874015748031497,
          "duration": 0.1529411000000067
        },
        {
          "name": "D2",
          "midi": 38,
          "time": 94.41612926250029,
          "velocity": 0.7874015748031497,
          "duration": 0.1529411000000067
        },
        {
          "name": "G3",
          "midi": 55,
          "time": 94.5881880000003,
          "velocity": 0.7874015748031497,
          "duration": 0.17647049999999354
        },
        {
          "name": "G2",
          "midi": 43,
          "time": 94.5881880000003,
          "velocity": 0.7874015748031497,
          "duration": 0.17647049999999354
        },
        {
          "name": "D3",
          "midi": 50,
          "time": 94.76907026250029,
          "velocity": 0.7874015748031497,
          "duration": 0.5058820999999938
        },
        {
          "name": "D2",
          "midi": 38,
          "time": 94.76907026250029,
          "velocity": 0.7874015748031497,
          "duration": 0.5058820999999938
        },
        {
          "name": "E3",
          "midi": 52,
          "time": 95.29407000000029,
          "velocity": 0.7874015748031497,
          "duration": 0.31470572499999605
        },
        {
          "name": "E2",
          "midi": 40,
          "time": 95.29407000000029,
          "velocity": 0.7874015748031497,
          "duration": 0.28602926874999923
        },
        {
          "name": "D3",
          "midi": 50,
          "time": 95.64701100000029,
          "velocity": 0.7874015748031497,
          "duration": 0.17647049999999354
        },
        {
          "name": "D2",
          "midi": 38,
          "time": 95.64701100000029,
          "velocity": 0.7874015748031497,
          "duration": 0.17647049999999354
        },
        {
          "name": "E3",
          "midi": 52,
          "time": 95.82789326250028,
          "velocity": 0.7874015748031497,
          "duration": 0.1338234624999899
        },
        {
          "name": "E2",
          "midi": 40,
          "time": 95.82789326250028,
          "velocity": 0.7874015748031497,
          "duration": 0.10514700624999307
        },
        {
          "name": "E3",
          "midi": 52,
          "time": 95.99995200000028,
          "velocity": 0.7874015748031497,
          "duration": 0.16176462500000355
        },
        {
          "name": "E2",
          "midi": 40,
          "time": 95.99995200000028,
          "velocity": 0.7874015748031497,
          "duration": 0.13308816875000673
        },
        {
          "name": "E3",
          "midi": 52,
          "time": 96.18083426250028,
          "velocity": 0.7874015748031497,
          "duration": 0.17205873750000933
        },
        {
          "name": "E2",
          "midi": 40,
          "time": 96.18083426250028,
          "velocity": 0.7874015748031497,
          "duration": 0.1529411000000067
        },
        {
          "name": "E3",
          "midi": 52,
          "time": 96.3528930000003,
          "velocity": 0.7874015748031497,
          "duration": 0.16176462500000355
        },
        {
          "name": "E2",
          "midi": 40,
          "time": 96.3528930000003,
          "velocity": 0.7874015748031497,
          "duration": 0.13308816875000673
        },
        {
          "name": "E3",
          "midi": 52,
          "time": 96.5337752625003,
          "velocity": 0.7874015748031497,
          "duration": 0.16249991875000092
        },
        {
          "name": "E2",
          "midi": 40,
          "time": 96.5337752625003,
          "velocity": 0.7874015748031497,
          "duration": 0.1338234625000041
        },
        {
          "name": "E3",
          "midi": 52,
          "time": 96.7058340000003,
          "velocity": 0.7874015748031497,
          "duration": 0.16176462500000355
        },
        {
          "name": "E2",
          "midi": 40,
          "time": 96.7058340000003,
          "velocity": 0.7874015748031497,
          "duration": 0.13308816875000673
        },
        {
          "name": "E3",
          "midi": 52,
          "time": 96.8867162625003,
          "velocity": 0.7874015748031497,
          "duration": 0.17205873750000933
        },
        {
          "name": "E2",
          "midi": 40,
          "time": 96.8867162625003,
          "velocity": 0.7874015748031497,
          "duration": 0.1529411000000067
        },
        {
          "name": "E3",
          "midi": 52,
          "time": 97.05877500000031,
          "velocity": 0.7874015748031497,
          "duration": 0.16176462500000355
        },
        {
          "name": "E2",
          "midi": 40,
          "time": 97.05877500000031,
          "velocity": 0.7874015748031497,
          "duration": 0.13308816875000673
        },
        {
          "name": "E3",
          "midi": 52,
          "time": 97.23965726250032,
          "velocity": 0.7874015748031497,
          "duration": 0.1529410999999925
        },
        {
          "name": "E2",
          "midi": 40,
          "time": 97.23965726250032,
          "velocity": 0.7874015748031497,
          "duration": 0.12426464374999568
        },
        {
          "name": "E3",
          "midi": 52,
          "time": 97.41171600000031,
          "velocity": 0.7874015748031497,
          "duration": 0.16176462500000355
        },
        {
          "name": "E2",
          "midi": 40,
          "time": 97.41171600000031,
          "velocity": 0.7874015748031497,
          "duration": 0.13308816875000673
        },
        {
          "name": "E3",
          "midi": 52,
          "time": 97.59259826250032,
          "velocity": 0.7874015748031497,
          "duration": 0.17205873750000933
        },
        {
          "name": "E2",
          "midi": 40,
          "time": 97.59259826250032,
          "velocity": 0.7874015748031497,
          "duration": 0.1529411000000067
        },
        {
          "name": "E3",
          "midi": 52,
          "time": 97.76465700000033,
          "velocity": 0.7874015748031497,
          "duration": 0.16176462500000355
        },
        {
          "name": "E2",
          "midi": 40,
          "time": 97.76465700000033,
          "velocity": 0.7874015748031497,
          "duration": 0.13308816875000673
        },
        {
          "name": "E3",
          "midi": 52,
          "time": 97.94553926250033,
          "velocity": 0.7874015748031497,
          "duration": 0.16249991875000092
        },
        {
          "name": "E2",
          "midi": 40,
          "time": 97.94553926250033,
          "velocity": 0.7874015748031497,
          "duration": 0.1338234625000041
        },
        {
          "name": "E3",
          "midi": 52,
          "time": 98.11759800000033,
          "velocity": 0.7874015748031497,
          "duration": 0.16176462500000355
        },
        {
          "name": "E2",
          "midi": 40,
          "time": 98.11759800000033,
          "velocity": 0.7874015748031497,
          "duration": 0.13308816875000673
        },
        {
          "name": "E3",
          "midi": 52,
          "time": 98.29848026250033,
          "velocity": 0.7874015748031497,
          "duration": 0.17205873750000933
        },
        {
          "name": "E2",
          "midi": 40,
          "time": 98.29848026250033,
          "velocity": 0.7874015748031497,
          "duration": 0.1529411000000067
        },
        {
          "name": "E3",
          "midi": 52,
          "time": 98.47053900000034,
          "velocity": 0.7874015748031497,
          "duration": 0.16176462500000355
        },
        {
          "name": "E2",
          "midi": 40,
          "time": 98.47053900000034,
          "velocity": 0.7874015748031497,
          "duration": 0.13308816875000673
        },
        {
          "name": "E3",
          "midi": 52,
          "time": 98.65142126250035,
          "velocity": 0.7874015748031497,
          "duration": 0.16249991875000092
        },
        {
          "name": "E2",
          "midi": 40,
          "time": 98.65142126250035,
          "velocity": 0.7874015748031497,
          "duration": 0.1338234625000041
        },
        {
          "name": "D3",
          "midi": 50,
          "time": 98.82348000000034,
          "velocity": 0.7874015748031497,
          "duration": 0.16176462500000355
        },
        {
          "name": "D2",
          "midi": 38,
          "time": 98.82348000000034,
          "velocity": 0.7874015748031497,
          "duration": 0.16176462500000355
        },
        {
          "name": "D3",
          "midi": 50,
          "time": 99.00436226250035,
          "velocity": 0.7874015748031497,
          "duration": 0.17205873749999512
        },
        {
          "name": "D2",
          "midi": 38,
          "time": 99.00436226250035,
          "velocity": 0.7874015748031497,
          "duration": 0.17205873749999512
        },
        {
          "name": "D3",
          "midi": 50,
          "time": 99.17642100000035,
          "velocity": 0.7874015748031497,
          "duration": 0.16176462500000355
        },
        {
          "name": "D2",
          "midi": 38,
          "time": 99.17642100000035,
          "velocity": 0.7874015748031497,
          "duration": 0.16176462500000355
        },
        {
          "name": "D3",
          "midi": 50,
          "time": 99.35730326250035,
          "velocity": 0.7874015748031497,
          "duration": 0.16249991875000092
        },
        {
          "name": "D2",
          "midi": 38,
          "time": 99.35730326250035,
          "velocity": 0.7874015748031497,
          "duration": 0.16249991875000092
        },
        {
          "name": "D3",
          "midi": 50,
          "time": 99.52936200000035,
          "velocity": 0.7874015748031497,
          "duration": 0.16176462500000355
        },
        {
          "name": "D2",
          "midi": 38,
          "time": 99.52936200000035,
          "velocity": 0.7874015748031497,
          "duration": 0.16176462500000355
        },
        {
          "name": "D3",
          "midi": 50,
          "time": 99.71024426250035,
          "velocity": 0.7874015748031497,
          "duration": 0.17205873749999512
        },
        {
          "name": "D2",
          "midi": 38,
          "time": 99.71024426250035,
          "velocity": 0.7874015748031497,
          "duration": 0.17205873749999512
        },
        {
          "name": "D3",
          "midi": 50,
          "time": 99.88230300000035,
          "velocity": 0.7874015748031497,
          "duration": 0.16176462500000355
        },
        {
          "name": "D2",
          "midi": 38,
          "time": 99.88230300000035,
          "velocity": 0.7874015748031497,
          "duration": 0.16176462500000355
        },
        {
          "name": "D3",
          "midi": 50,
          "time": 100.06318526250035,
          "velocity": 0.7874015748031497,
          "duration": 0.1529411000000067
        },
        {
          "name": "D2",
          "midi": 38,
          "time": 100.06318526250035,
          "velocity": 0.7874015748031497,
          "duration": 0.1529411000000067
        },
        {
          "name": "G3",
          "midi": 55,
          "time": 100.23524400000036,
          "velocity": 0.7874015748031497,
          "duration": 0.17647049999999354
        },
        {
          "name": "G2",
          "midi": 43,
          "time": 100.23524400000036,
          "velocity": 0.7874015748031497,
          "duration": 0.17647049999999354
        },
        {
          "name": "D3",
          "midi": 50,
          "time": 100.41612626250036,
          "velocity": 0.7874015748031497,
          "duration": 0.5058820999999938
        },
        {
          "name": "D2",
          "midi": 38,
          "time": 100.41612626250036,
          "velocity": 0.7874015748031497,
          "duration": 0.5058820999999938
        },
        {
          "name": "E3",
          "midi": 52,
          "time": 100.94112600000035,
          "velocity": 0.7874015748031497,
          "duration": 0.31470572499999605
        },
        {
          "name": "E2",
          "midi": 40,
          "time": 100.94112600000035,
          "velocity": 0.7874015748031497,
          "duration": 0.28602926874999923
        },
        {
          "name": "D3",
          "midi": 50,
          "time": 101.29406700000035,
          "velocity": 0.7874015748031497,
          "duration": 0.17647049999999354
        },
        {
          "name": "D2",
          "midi": 38,
          "time": 101.29406700000035,
          "velocity": 0.7874015748031497,
          "duration": 0.17647049999999354
        },
        {
          "name": "E3",
          "midi": 52,
          "time": 101.47494926250035,
          "velocity": 0.7874015748031497,
          "duration": 0.1338234624999899
        },
        {
          "name": "E2",
          "midi": 40,
          "time": 101.47494926250035,
          "velocity": 0.7874015748031497,
          "duration": 0.10514700624999307
        },
        {
          "name": "E3",
          "midi": 52,
          "time": 101.64700800000034,
          "velocity": 0.7874015748031497,
          "duration": 0.16176462500000355
        },
        {
          "name": "E2",
          "midi": 40,
          "time": 101.64700800000034,
          "velocity": 0.7874015748031497,
          "duration": 0.13308816875000673
        },
        {
          "name": "E3",
          "midi": 52,
          "time": 101.82789026250035,
          "velocity": 0.7874015748031497,
          "duration": 0.17205873750000933
        },
        {
          "name": "E2",
          "midi": 40,
          "time": 101.82789026250035,
          "velocity": 0.7874015748031497,
          "duration": 0.1529411000000067
        },
        {
          "name": "E3",
          "midi": 52,
          "time": 101.99994900000036,
          "velocity": 0.7874015748031497,
          "duration": 0.16176462500000355
        },
        {
          "name": "E2",
          "midi": 40,
          "time": 101.99994900000036,
          "velocity": 0.7874015748031497,
          "duration": 0.13308816875000673
        },
        {
          "name": "E3",
          "midi": 52,
          "time": 102.18083126250036,
          "velocity": 0.7874015748031497,
          "duration": 0.16249991875000092
        },
        {
          "name": "E2",
          "midi": 40,
          "time": 102.18083126250036,
          "velocity": 0.7874015748031497,
          "duration": 0.1338234625000041
        },
        {
          "name": "E3",
          "midi": 52,
          "time": 102.35289000000036,
          "velocity": 0.7874015748031497,
          "duration": 0.16176462500000355
        },
        {
          "name": "E2",
          "midi": 40,
          "time": 102.35289000000036,
          "velocity": 0.7874015748031497,
          "duration": 0.13308816875000673
        },
        {
          "name": "E3",
          "midi": 52,
          "time": 102.53377226250036,
          "velocity": 0.7874015748031497,
          "duration": 0.17205873750000933
        },
        {
          "name": "E2",
          "midi": 40,
          "time": 102.53377226250036,
          "velocity": 0.7874015748031497,
          "duration": 0.1529411000000067
        },
        {
          "name": "E3",
          "midi": 52,
          "time": 102.70583100000037,
          "velocity": 0.7874015748031497,
          "duration": 0.16176462500000355
        },
        {
          "name": "E2",
          "midi": 40,
          "time": 102.70583100000037,
          "velocity": 0.7874015748031497,
          "duration": 0.13308816875000673
        },
        {
          "name": "E3",
          "midi": 52,
          "time": 102.88671326250038,
          "velocity": 0.7874015748031497,
          "duration": 0.1529410999999925
        },
        {
          "name": "E2",
          "midi": 40,
          "time": 102.88671326250038,
          "velocity": 0.7874015748031497,
          "duration": 0.12426464374999568
        },
        {
          "name": "E3",
          "midi": 52,
          "time": 103.05877200000037,
          "velocity": 0.7874015748031497,
          "duration": 0.16176462500000355
        },
        {
          "name": "E2",
          "midi": 40,
          "time": 103.05877200000037,
          "velocity": 0.7874015748031497,
          "duration": 0.13308816875000673
        },
        {
          "name": "E3",
          "midi": 52,
          "time": 103.23965426250038,
          "velocity": 0.7874015748031497,
          "duration": 0.17205873750000933
        },
        {
          "name": "E2",
          "midi": 40,
          "time": 103.23965426250038,
          "velocity": 0.7874015748031497,
          "duration": 0.1529411000000067
        },
        {
          "name": "E3",
          "midi": 52,
          "time": 103.41171300000039,
          "velocity": 0.7874015748031497,
          "duration": 0.16176462500000355
        },
        {
          "name": "E2",
          "midi": 40,
          "time": 103.41171300000039,
          "velocity": 0.7874015748031497,
          "duration": 0.13308816875000673
        },
        {
          "name": "E3",
          "midi": 52,
          "time": 103.5925952625004,
          "velocity": 0.7874015748031497,
          "duration": 0.16249991875000092
        },
        {
          "name": "E2",
          "midi": 40,
          "time": 103.5925952625004,
          "velocity": 0.7874015748031497,
          "duration": 0.1338234625000041
        },
        {
          "name": "E3",
          "midi": 52,
          "time": 103.76465400000039,
          "velocity": 0.7874015748031497,
          "duration": 0.16176462500000355
        },
        {
          "name": "E2",
          "midi": 40,
          "time": 103.76465400000039,
          "velocity": 0.7874015748031497,
          "duration": 0.13308816875000673
        },
        {
          "name": "E3",
          "midi": 52,
          "time": 103.9455362625004,
          "velocity": 0.7874015748031497,
          "duration": 0.17205873750000933
        },
        {
          "name": "E2",
          "midi": 40,
          "time": 103.9455362625004,
          "velocity": 0.7874015748031497,
          "duration": 0.1529411000000067
        },
        {
          "name": "E3",
          "midi": 52,
          "time": 104.1175950000004,
          "velocity": 0.7874015748031497,
          "duration": 0.16176462500000355
        },
        {
          "name": "E2",
          "midi": 40,
          "time": 104.1175950000004,
          "velocity": 0.7874015748031497,
          "duration": 0.13308816875000673
        },
        {
          "name": "E3",
          "midi": 52,
          "time": 104.29847726250041,
          "velocity": 0.7874015748031497,
          "duration": 0.16249991875000092
        },
        {
          "name": "E2",
          "midi": 40,
          "time": 104.29847726250041,
          "velocity": 0.7874015748031497,
          "duration": 0.1338234625000041
        },
        {
          "name": "D3",
          "midi": 50,
          "time": 104.47053600000041,
          "velocity": 0.7874015748031497,
          "duration": 0.16176462500000355
        },
        {
          "name": "D2",
          "midi": 38,
          "time": 104.47053600000041,
          "velocity": 0.7874015748031497,
          "duration": 0.16176462500000355
        },
        {
          "name": "D3",
          "midi": 50,
          "time": 104.65141826250041,
          "velocity": 0.7874015748031497,
          "duration": 0.17205873749999512
        },
        {
          "name": "D2",
          "midi": 38,
          "time": 104.65141826250041,
          "velocity": 0.7874015748031497,
          "duration": 0.17205873749999512
        },
        {
          "name": "D3",
          "midi": 50,
          "time": 104.82347700000041,
          "velocity": 0.7874015748031497,
          "duration": 0.16176462500000355
        },
        {
          "name": "D2",
          "midi": 38,
          "time": 104.82347700000041,
          "velocity": 0.7874015748031497,
          "duration": 0.16176462500000355
        },
        {
          "name": "D3",
          "midi": 50,
          "time": 105.00435926250042,
          "velocity": 0.7874015748031497,
          "duration": 0.16249991875000092
        },
        {
          "name": "D2",
          "midi": 38,
          "time": 105.00435926250042,
          "velocity": 0.7874015748031497,
          "duration": 0.16249991875000092
        },
        {
          "name": "D3",
          "midi": 50,
          "time": 105.17641800000041,
          "velocity": 0.7874015748031497,
          "duration": 0.16176462500000355
        },
        {
          "name": "D2",
          "midi": 38,
          "time": 105.17641800000041,
          "velocity": 0.7874015748031497,
          "duration": 0.16176462500000355
        },
        {
          "name": "D3",
          "midi": 50,
          "time": 105.35730026250042,
          "velocity": 0.7874015748031497,
          "duration": 0.17205873749999512
        },
        {
          "name": "D2",
          "midi": 38,
          "time": 105.35730026250042,
          "velocity": 0.7874015748031497,
          "duration": 0.17205873749999512
        },
        {
          "name": "D3",
          "midi": 50,
          "time": 105.52935900000041,
          "velocity": 0.7874015748031497,
          "duration": 0.16176462500000355
        },
        {
          "name": "D2",
          "midi": 38,
          "time": 105.52935900000041,
          "velocity": 0.7874015748031497,
          "duration": 0.16176462500000355
        },
        {
          "name": "D3",
          "midi": 50,
          "time": 105.71024126250042,
          "velocity": 0.7874015748031497,
          "duration": 0.1529411000000067
        },
        {
          "name": "D2",
          "midi": 38,
          "time": 105.71024126250042,
          "velocity": 0.7874015748031497,
          "duration": 0.1529411000000067
        },
        {
          "name": "G3",
          "midi": 55,
          "time": 105.88230000000043,
          "velocity": 0.7874015748031497,
          "duration": 0.17647049999999354
        },
        {
          "name": "G2",
          "midi": 43,
          "time": 105.88230000000043,
          "velocity": 0.7874015748031497,
          "duration": 0.17647049999999354
        },
        {
          "name": "D3",
          "midi": 50,
          "time": 106.06318226250042,
          "velocity": 0.7874015748031497,
          "duration": 0.5058820999999938
        },
        {
          "name": "D2",
          "midi": 38,
          "time": 106.06318226250042,
          "velocity": 0.7874015748031497,
          "duration": 0.5058820999999938
        },
        {
          "name": "E3",
          "midi": 52,
          "time": 106.58818200000042,
          "velocity": 0.7874015748031497,
          "duration": 0.31470572499999605
        },
        {
          "name": "E2",
          "midi": 40,
          "time": 106.58818200000042,
          "velocity": 0.7874015748031497,
          "duration": 0.28602926874999923
        },
        {
          "name": "D3",
          "midi": 50,
          "time": 106.94112300000042,
          "velocity": 0.7874015748031497,
          "duration": 0.17647049999999354
        },
        {
          "name": "D2",
          "midi": 38,
          "time": 106.94112300000042,
          "velocity": 0.7874015748031497,
          "duration": 0.17647049999999354
        },
        {
          "name": "E3",
          "midi": 52,
          "time": 107.12200526250041,
          "velocity": 0.7874015748031497,
          "duration": 0.1338234624999899
        },
        {
          "name": "E2",
          "midi": 40,
          "time": 107.12200526250041,
          "velocity": 0.7874015748031497,
          "duration": 0.10514700624999307
        },
        {
          "name": "E3",
          "midi": 52,
          "time": 107.2940640000004,
          "velocity": 0.7874015748031497,
          "duration": 0.16176462500000355
        },
        {
          "name": "E2",
          "midi": 40,
          "time": 107.2940640000004,
          "velocity": 0.7874015748031497,
          "duration": 0.13308816875000673
        },
        {
          "name": "E3",
          "midi": 52,
          "time": 107.47494626250041,
          "velocity": 0.7874015748031497,
          "duration": 0.17205873750000933
        },
        {
          "name": "E2",
          "midi": 40,
          "time": 107.47494626250041,
          "velocity": 0.7874015748031497,
          "duration": 0.1529411000000067
        },
        {
          "name": "E3",
          "midi": 52,
          "time": 107.64700500000042,
          "velocity": 0.7874015748031497,
          "duration": 0.16176462500000355
        },
        {
          "name": "E2",
          "midi": 40,
          "time": 107.64700500000042,
          "velocity": 0.7874015748031497,
          "duration": 0.13308816875000673
        },
        {
          "name": "E3",
          "midi": 52,
          "time": 107.82788726250043,
          "velocity": 0.7874015748031497,
          "duration": 0.16249991875000092
        },
        {
          "name": "E2",
          "midi": 40,
          "time": 107.82788726250043,
          "velocity": 0.7874015748031497,
          "duration": 0.1338234625000041
        },
        {
          "name": "E3",
          "midi": 52,
          "time": 107.99994600000042,
          "velocity": 0.7874015748031497,
          "duration": 0.16176462500000355
        },
        {
          "name": "E2",
          "midi": 40,
          "time": 107.99994600000042,
          "velocity": 0.7874015748031497,
          "duration": 0.13308816875000673
        },
        {
          "name": "E3",
          "midi": 52,
          "time": 108.18082826250043,
          "velocity": 0.7874015748031497,
          "duration": 0.17205873750000933
        },
        {
          "name": "E2",
          "midi": 40,
          "time": 108.18082826250043,
          "velocity": 0.7874015748031497,
          "duration": 0.1529411000000067
        },
        {
          "name": "E3",
          "midi": 52,
          "time": 108.35288700000044,
          "velocity": 0.7874015748031497,
          "duration": 0.16176462500000355
        },
        {
          "name": "E2",
          "midi": 40,
          "time": 108.35288700000044,
          "velocity": 0.7874015748031497,
          "duration": 0.13308816875000673
        },
        {
          "name": "E3",
          "midi": 52,
          "time": 108.53376926250044,
          "velocity": 0.7874015748031497,
          "duration": 0.1529410999999925
        },
        {
          "name": "E2",
          "midi": 40,
          "time": 108.53376926250044,
          "velocity": 0.7874015748031497,
          "duration": 0.12426464374999568
        },
        {
          "name": "E3",
          "midi": 52,
          "time": 108.70582800000044,
          "velocity": 0.7874015748031497,
          "duration": 0.16176462500000355
        },
        {
          "name": "E2",
          "midi": 40,
          "time": 108.70582800000044,
          "velocity": 0.7874015748031497,
          "duration": 0.13308816875000673
        },
        {
          "name": "E3",
          "midi": 52,
          "time": 108.88671026250044,
          "velocity": 0.7874015748031497,
          "duration": 0.17205873750000933
        },
        {
          "name": "E2",
          "midi": 40,
          "time": 108.88671026250044,
          "velocity": 0.7874015748031497,
          "duration": 0.1529411000000067
        },
        {
          "name": "E3",
          "midi": 52,
          "time": 109.05876900000045,
          "velocity": 0.7874015748031497,
          "duration": 0.16176462500000355
        },
        {
          "name": "E2",
          "midi": 40,
          "time": 109.05876900000045,
          "velocity": 0.7874015748031497,
          "duration": 0.13308816875000673
        },
        {
          "name": "E3",
          "midi": 52,
          "time": 109.23965126250046,
          "velocity": 0.7874015748031497,
          "duration": 0.16249991875000092
        },
        {
          "name": "E2",
          "midi": 40,
          "time": 109.23965126250046,
          "velocity": 0.7874015748031497,
          "duration": 0.1338234625000041
        },
        {
          "name": "E3",
          "midi": 52,
          "time": 109.41171000000045,
          "velocity": 0.7874015748031497,
          "duration": 0.16176462500000355
        },
        {
          "name": "E2",
          "midi": 40,
          "time": 109.41171000000045,
          "velocity": 0.7874015748031497,
          "duration": 0.13308816875000673
        },
        {
          "name": "E3",
          "midi": 52,
          "time": 109.59259226250046,
          "velocity": 0.7874015748031497,
          "duration": 0.17205873750000933
        },
        {
          "name": "E2",
          "midi": 40,
          "time": 109.59259226250046,
          "velocity": 0.7874015748031497,
          "duration": 0.1529411000000067
        },
        {
          "name": "E3",
          "midi": 52,
          "time": 109.76465100000047,
          "velocity": 0.7874015748031497,
          "duration": 0.16176462500000355
        },
        {
          "name": "E2",
          "midi": 40,
          "time": 109.76465100000047,
          "velocity": 0.7874015748031497,
          "duration": 0.13308816875000673
        },
        {
          "name": "E3",
          "midi": 52,
          "time": 109.94553326250048,
          "velocity": 0.7874015748031497,
          "duration": 0.16249991875000092
        },
        {
          "name": "E2",
          "midi": 40,
          "time": 109.94553326250048,
          "velocity": 0.7874015748031497,
          "duration": 0.1338234625000041
        },
        {
          "name": "D3",
          "midi": 50,
          "time": 110.11759200000047,
          "velocity": 0.7874015748031497,
          "duration": 0.16176462500000355
        },
        {
          "name": "D2",
          "midi": 38,
          "time": 110.11759200000047,
          "velocity": 0.7874015748031497,
          "duration": 0.16176462500000355
        },
        {
          "name": "D3",
          "midi": 50,
          "time": 110.29847426250048,
          "velocity": 0.7874015748031497,
          "duration": 0.17205873749999512
        },
        {
          "name": "D2",
          "midi": 38,
          "time": 110.29847426250048,
          "velocity": 0.7874015748031497,
          "duration": 0.17205873749999512
        },
        {
          "name": "D3",
          "midi": 50,
          "time": 110.47053300000047,
          "velocity": 0.7874015748031497,
          "duration": 0.16176462500000355
        },
        {
          "name": "D2",
          "midi": 38,
          "time": 110.47053300000047,
          "velocity": 0.7874015748031497,
          "duration": 0.16176462500000355
        },
        {
          "name": "D3",
          "midi": 50,
          "time": 110.65141526250048,
          "velocity": 0.7874015748031497,
          "duration": 0.16249991875000092
        },
        {
          "name": "D2",
          "midi": 38,
          "time": 110.65141526250048,
          "velocity": 0.7874015748031497,
          "duration": 0.16249991875000092
        },
        {
          "name": "D3",
          "midi": 50,
          "time": 110.82347400000047,
          "velocity": 0.7874015748031497,
          "duration": 0.16176462500000355
        },
        {
          "name": "D2",
          "midi": 38,
          "time": 110.82347400000047,
          "velocity": 0.7874015748031497,
          "duration": 0.16176462500000355
        },
        {
          "name": "D3",
          "midi": 50,
          "time": 111.00435626250048,
          "velocity": 0.7874015748031497,
          "duration": 0.17205873749999512
        },
        {
          "name": "D2",
          "midi": 38,
          "time": 111.00435626250048,
          "velocity": 0.7874015748031497,
          "duration": 0.17205873749999512
        },
        {
          "name": "D3",
          "midi": 50,
          "time": 111.17641500000047,
          "velocity": 0.7874015748031497,
          "duration": 0.16176462500000355
        },
        {
          "name": "D2",
          "midi": 38,
          "time": 111.17641500000047,
          "velocity": 0.7874015748031497,
          "duration": 0.16176462500000355
        },
        {
          "name": "D3",
          "midi": 50,
          "time": 111.35729726250048,
          "velocity": 0.7874015748031497,
          "duration": 0.1529411000000067
        },
        {
          "name": "D2",
          "midi": 38,
          "time": 111.35729726250048,
          "velocity": 0.7874015748031497,
          "duration": 0.1529411000000067
        },
        {
          "name": "G3",
          "midi": 55,
          "time": 111.52935600000049,
          "velocity": 0.7874015748031497,
          "duration": 0.17647049999999354
        },
        {
          "name": "G2",
          "midi": 43,
          "time": 111.52935600000049,
          "velocity": 0.7874015748031497,
          "duration": 0.17647049999999354
        },
        {
          "name": "D3",
          "midi": 50,
          "time": 111.71023826250048,
          "velocity": 0.7874015748031497,
          "duration": 0.5058820999999938
        },
        {
          "name": "D2",
          "midi": 38,
          "time": 111.71023826250048,
          "velocity": 0.7874015748031497,
          "duration": 0.5058820999999938
        },
        {
          "name": "E3",
          "midi": 52,
          "time": 112.23523800000048,
          "velocity": 0.7874015748031497,
          "duration": 0.31470572499999605
        },
        {
          "name": "E2",
          "midi": 40,
          "time": 112.23523800000048,
          "velocity": 0.7874015748031497,
          "duration": 0.28602926874999923
        },
        {
          "name": "D3",
          "midi": 50,
          "time": 112.58817900000048,
          "velocity": 0.7874015748031497,
          "duration": 0.17647049999999354
        },
        {
          "name": "D2",
          "midi": 38,
          "time": 112.58817900000048,
          "velocity": 0.7874015748031497,
          "duration": 0.17647049999999354
        },
        {
          "name": "E3",
          "midi": 52,
          "time": 112.76906126250047,
          "velocity": 0.7874015748031497,
          "duration": 0.1338234624999899
        },
        {
          "name": "E2",
          "midi": 40,
          "time": 112.76906126250047,
          "velocity": 0.7874015748031497,
          "duration": 0.10514700624999307
        },
        {
          "name": "E3",
          "midi": 52,
          "time": 112.94112000000047,
          "velocity": 0.7874015748031497,
          "duration": 0.16176462500000355
        },
        {
          "name": "E2",
          "midi": 40,
          "time": 112.94112000000047,
          "velocity": 0.7874015748031497,
          "duration": 0.13308816875000673
        },
        {
          "name": "E3",
          "midi": 52,
          "time": 113.12200226250047,
          "velocity": 0.7874015748031497,
          "duration": 0.17205873750000933
        },
        {
          "name": "E2",
          "midi": 40,
          "time": 113.12200226250047,
          "velocity": 0.7874015748031497,
          "duration": 0.1529411000000067
        },
        {
          "name": "E3",
          "midi": 52,
          "time": 113.29406100000048,
          "velocity": 0.7874015748031497,
          "duration": 0.16176462500000355
        },
        {
          "name": "E2",
          "midi": 40,
          "time": 113.29406100000048,
          "velocity": 0.7874015748031497,
          "duration": 0.13308816875000673
        },
        {
          "name": "E3",
          "midi": 52,
          "time": 113.47494326250049,
          "velocity": 0.7874015748031497,
          "duration": 0.16249991875000092
        },
        {
          "name": "E2",
          "midi": 40,
          "time": 113.47494326250049,
          "velocity": 0.7874015748031497,
          "duration": 0.1338234625000041
        },
        {
          "name": "E3",
          "midi": 52,
          "time": 113.64700200000048,
          "velocity": 0.7874015748031497,
          "duration": 0.16176462500000355
        },
        {
          "name": "E2",
          "midi": 40,
          "time": 113.64700200000048,
          "velocity": 0.7874015748031497,
          "duration": 0.13308816875000673
        },
        {
          "name": "E3",
          "midi": 52,
          "time": 113.82788426250049,
          "velocity": 0.7874015748031497,
          "duration": 0.17205873750000933
        },
        {
          "name": "E2",
          "midi": 40,
          "time": 113.82788426250049,
          "velocity": 0.7874015748031497,
          "duration": 0.1529411000000067
        },
        {
          "name": "E3",
          "midi": 52,
          "time": 113.9999430000005,
          "velocity": 0.7874015748031497,
          "duration": 0.16176462500000355
        },
        {
          "name": "E2",
          "midi": 40,
          "time": 113.9999430000005,
          "velocity": 0.7874015748031497,
          "duration": 0.13308816875000673
        },
        {
          "name": "E3",
          "midi": 52,
          "time": 114.1808252625005,
          "velocity": 0.7874015748031497,
          "duration": 0.1529410999999925
        },
        {
          "name": "E2",
          "midi": 40,
          "time": 114.1808252625005,
          "velocity": 0.7874015748031497,
          "duration": 0.12426464374999568
        },
        {
          "name": "E3",
          "midi": 52,
          "time": 114.3528840000005,
          "velocity": 0.7874015748031497,
          "duration": 0.16176462500000355
        },
        {
          "name": "E2",
          "midi": 40,
          "time": 114.3528840000005,
          "velocity": 0.7874015748031497,
          "duration": 0.13308816875000673
        },
        {
          "name": "E3",
          "midi": 52,
          "time": 114.5337662625005,
          "velocity": 0.7874015748031497,
          "duration": 0.17205873750000933
        },
        {
          "name": "E2",
          "midi": 40,
          "time": 114.5337662625005,
          "velocity": 0.7874015748031497,
          "duration": 0.1529411000000067
        },
        {
          "name": "E3",
          "midi": 52,
          "time": 114.70582500000052,
          "velocity": 0.7874015748031497,
          "duration": 0.16176462500000355
        },
        {
          "name": "E2",
          "midi": 40,
          "time": 114.70582500000052,
          "velocity": 0.7874015748031497,
          "duration": 0.13308816875000673
        },
        {
          "name": "E3",
          "midi": 52,
          "time": 114.88670726250052,
          "velocity": 0.7874015748031497,
          "duration": 0.16249991875000092
        },
        {
          "name": "E2",
          "midi": 40,
          "time": 114.88670726250052,
          "velocity": 0.7874015748031497,
          "duration": 0.1338234625000041
        },
        {
          "name": "E3",
          "midi": 52,
          "time": 115.05876600000052,
          "velocity": 0.7874015748031497,
          "duration": 0.16176462500000355
        },
        {
          "name": "E2",
          "midi": 40,
          "time": 115.05876600000052,
          "velocity": 0.7874015748031497,
          "duration": 0.13308816875000673
        },
        {
          "name": "E3",
          "midi": 52,
          "time": 115.23964826250052,
          "velocity": 0.7874015748031497,
          "duration": 0.17205873750000933
        },
        {
          "name": "E2",
          "midi": 40,
          "time": 115.23964826250052,
          "velocity": 0.7874015748031497,
          "duration": 0.1529411000000067
        },
        {
          "name": "E3",
          "midi": 52,
          "time": 115.41170700000053,
          "velocity": 0.7874015748031497,
          "duration": 0.16176462500000355
        },
        {
          "name": "E2",
          "midi": 40,
          "time": 115.41170700000053,
          "velocity": 0.7874015748031497,
          "duration": 0.13308816875000673
        },
        {
          "name": "E3",
          "midi": 52,
          "time": 115.59258926250054,
          "velocity": 0.7874015748031497,
          "duration": 0.16249991875000092
        },
        {
          "name": "E2",
          "midi": 40,
          "time": 115.59258926250054,
          "velocity": 0.7874015748031497,
          "duration": 0.1338234625000041
        },
        {
          "name": "D3",
          "midi": 50,
          "time": 115.76464800000053,
          "velocity": 0.7874015748031497,
          "duration": 0.16176462500000355
        },
        {
          "name": "D2",
          "midi": 38,
          "time": 115.76464800000053,
          "velocity": 0.7874015748031497,
          "duration": 0.16176462500000355
        },
        {
          "name": "D3",
          "midi": 50,
          "time": 115.94553026250054,
          "velocity": 0.7874015748031497,
          "duration": 0.17205873749999512
        },
        {
          "name": "D2",
          "midi": 38,
          "time": 115.94553026250054,
          "velocity": 0.7874015748031497,
          "duration": 0.17205873749999512
        },
        {
          "name": "D3",
          "midi": 50,
          "time": 116.11758900000054,
          "velocity": 0.7874015748031497,
          "duration": 0.16176462500000355
        },
        {
          "name": "D2",
          "midi": 38,
          "time": 116.11758900000054,
          "velocity": 0.7874015748031497,
          "duration": 0.16176462500000355
        },
        {
          "name": "D3",
          "midi": 50,
          "time": 116.29847126250054,
          "velocity": 0.7874015748031497,
          "duration": 0.16249991875000092
        },
        {
          "name": "D2",
          "midi": 38,
          "time": 116.29847126250054,
          "velocity": 0.7874015748031497,
          "duration": 0.16249991875000092
        },
        {
          "name": "D3",
          "midi": 50,
          "time": 116.47053000000054,
          "velocity": 0.7874015748031497,
          "duration": 0.16176462500000355
        },
        {
          "name": "D2",
          "midi": 38,
          "time": 116.47053000000054,
          "velocity": 0.7874015748031497,
          "duration": 0.16176462500000355
        },
        {
          "name": "D3",
          "midi": 50,
          "time": 116.65141226250054,
          "velocity": 0.7874015748031497,
          "duration": 0.17205873749999512
        },
        {
          "name": "D2",
          "midi": 38,
          "time": 116.65141226250054,
          "velocity": 0.7874015748031497,
          "duration": 0.17205873749999512
        },
        {
          "name": "D3",
          "midi": 50,
          "time": 116.82347100000054,
          "velocity": 0.7874015748031497,
          "duration": 0.16176462500000355
        },
        {
          "name": "D2",
          "midi": 38,
          "time": 116.82347100000054,
          "velocity": 0.7874015748031497,
          "duration": 0.16176462500000355
        },
        {
          "name": "D3",
          "midi": 50,
          "time": 117.00435326250054,
          "velocity": 0.7874015748031497,
          "duration": 0.1529411000000067
        },
        {
          "name": "D2",
          "midi": 38,
          "time": 117.00435326250054,
          "velocity": 0.7874015748031497,
          "duration": 0.1529411000000067
        },
        {
          "name": "G3",
          "midi": 55,
          "time": 117.17641200000055,
          "velocity": 0.7874015748031497,
          "duration": 0.17647049999999354
        },
        {
          "name": "G2",
          "midi": 43,
          "time": 117.17641200000055,
          "velocity": 0.7874015748031497,
          "duration": 0.17647049999999354
        },
        {
          "name": "D3",
          "midi": 50,
          "time": 117.35729426250055,
          "velocity": 0.7874015748031497,
          "duration": 0.5058820999999938
        },
        {
          "name": "D2",
          "midi": 38,
          "time": 117.35729426250055,
          "velocity": 0.7874015748031497,
          "duration": 0.5058820999999938
        },
        {
          "name": "E3",
          "midi": 52,
          "time": 117.88229400000054,
          "velocity": 0.7874015748031497,
          "duration": 0.31470572499999605
        },
        {
          "name": "E2",
          "midi": 40,
          "time": 117.88229400000054,
          "velocity": 0.7874015748031497,
          "duration": 0.28602926874999923
        },
        {
          "name": "D3",
          "midi": 50,
          "time": 118.23523500000054,
          "velocity": 0.7874015748031497,
          "duration": 0.17647049999999354
        },
        {
          "name": "D2",
          "midi": 38,
          "time": 118.23523500000054,
          "velocity": 0.7874015748031497,
          "duration": 0.17647049999999354
        },
        {
          "name": "E3",
          "midi": 52,
          "time": 118.41611726250053,
          "velocity": 0.7874015748031497,
          "duration": 0.1338234624999899
        },
        {
          "name": "E2",
          "midi": 40,
          "time": 118.41611726250053,
          "velocity": 0.7874015748031497,
          "duration": 0.10514700624999307
        },
        {
          "name": "E3",
          "midi": 52,
          "time": 118.58817600000053,
          "velocity": 0.7874015748031497,
          "duration": 0.16176462500000355
        },
        {
          "name": "E2",
          "midi": 40,
          "time": 118.58817600000053,
          "velocity": 0.7874015748031497,
          "duration": 0.13308816875000673
        },
        {
          "name": "E3",
          "midi": 52,
          "time": 118.76905826250054,
          "velocity": 0.7874015748031497,
          "duration": 0.17205873750000933
        },
        {
          "name": "E2",
          "midi": 40,
          "time": 118.76905826250054,
          "velocity": 0.7874015748031497,
          "duration": 0.1529411000000067
        },
        {
          "name": "E3",
          "midi": 52,
          "time": 118.94111700000055,
          "velocity": 0.7874015748031497,
          "duration": 0.16176462500000355
        },
        {
          "name": "E2",
          "midi": 40,
          "time": 118.94111700000055,
          "velocity": 0.7874015748031497,
          "duration": 0.13308816875000673
        },
        {
          "name": "E3",
          "midi": 52,
          "time": 119.12199926250055,
          "velocity": 0.7874015748031497,
          "duration": 0.16249991875000092
        },
        {
          "name": "E2",
          "midi": 40,
          "time": 119.12199926250055,
          "velocity": 0.7874015748031497,
          "duration": 0.1338234625000041
        },
        {
          "name": "E3",
          "midi": 52,
          "time": 119.29405800000055,
          "velocity": 0.7874015748031497,
          "duration": 0.16176462500000355
        },
        {
          "name": "E2",
          "midi": 40,
          "time": 119.29405800000055,
          "velocity": 0.7874015748031497,
          "duration": 0.13308816875000673
        },
        {
          "name": "E3",
          "midi": 52,
          "time": 119.47494026250055,
          "velocity": 0.7874015748031497,
          "duration": 0.17205873750000933
        },
        {
          "name": "E2",
          "midi": 40,
          "time": 119.47494026250055,
          "velocity": 0.7874015748031497,
          "duration": 0.1529411000000067
        },
        {
          "name": "E3",
          "midi": 52,
          "time": 119.64699900000056,
          "velocity": 0.7874015748031497,
          "duration": 0.16176462500000355
        },
        {
          "name": "E2",
          "midi": 40,
          "time": 119.64699900000056,
          "velocity": 0.7874015748031497,
          "duration": 0.13308816875000673
        },
        {
          "name": "E3",
          "midi": 52,
          "time": 119.82788126250057,
          "velocity": 0.7874015748031497,
          "duration": 0.1529410999999925
        },
        {
          "name": "E2",
          "midi": 40,
          "time": 119.82788126250057,
          "velocity": 0.7874015748031497,
          "duration": 0.12426464374999568
        },
        {
          "name": "E3",
          "midi": 52,
          "time": 119.99994000000056,
          "velocity": 0.7874015748031497,
          "duration": 0.16176462500000355
        },
        {
          "name": "E2",
          "midi": 40,
          "time": 119.99994000000056,
          "velocity": 0.7874015748031497,
          "duration": 0.13308816875000673
        },
        {
          "name": "E3",
          "midi": 52,
          "time": 120.18082226250057,
          "velocity": 0.7874015748031497,
          "duration": 0.17205873750000933
        },
        {
          "name": "E2",
          "midi": 40,
          "time": 120.18082226250057,
          "velocity": 0.7874015748031497,
          "duration": 0.1529411000000067
        },
        {
          "name": "E3",
          "midi": 52,
          "time": 120.35288100000058,
          "velocity": 0.7874015748031497,
          "duration": 0.16176462500000355
        },
        {
          "name": "E2",
          "midi": 40,
          "time": 120.35288100000058,
          "velocity": 0.7874015748031497,
          "duration": 0.13308816875000673
        },
        {
          "name": "E3",
          "midi": 52,
          "time": 120.53376326250059,
          "velocity": 0.7874015748031497,
          "duration": 0.16249991875000092
        },
        {
          "name": "E2",
          "midi": 40,
          "time": 120.53376326250059,
          "velocity": 0.7874015748031497,
          "duration": 0.1338234625000041
        },
        {
          "name": "E3",
          "midi": 52,
          "time": 120.70582200000058,
          "velocity": 0.7874015748031497,
          "duration": 0.16176462500000355
        },
        {
          "name": "E2",
          "midi": 40,
          "time": 120.70582200000058,
          "velocity": 0.7874015748031497,
          "duration": 0.13308816875000673
        },
        {
          "name": "E3",
          "midi": 52,
          "time": 120.88670426250059,
          "velocity": 0.7874015748031497,
          "duration": 0.17205873750000933
        },
        {
          "name": "E2",
          "midi": 40,
          "time": 120.88670426250059,
          "velocity": 0.7874015748031497,
          "duration": 0.1529411000000067
        },
        {
          "name": "E3",
          "midi": 52,
          "time": 121.0587630000006,
          "velocity": 0.7874015748031497,
          "duration": 0.16176462500000355
        },
        {
          "name": "E2",
          "midi": 40,
          "time": 121.0587630000006,
          "velocity": 0.7874015748031497,
          "duration": 0.13308816875000673
        },
        {
          "name": "E3",
          "midi": 52,
          "time": 121.2396452625006,
          "velocity": 0.7874015748031497,
          "duration": 0.16249991875000092
        },
        {
          "name": "E2",
          "midi": 40,
          "time": 121.2396452625006,
          "velocity": 0.7874015748031497,
          "duration": 0.1338234625000041
        },
        {
          "name": "D3",
          "midi": 50,
          "time": 121.4117040000006,
          "velocity": 0.7874015748031497,
          "duration": 0.16176462500000355
        },
        {
          "name": "D2",
          "midi": 38,
          "time": 121.4117040000006,
          "velocity": 0.7874015748031497,
          "duration": 0.16176462500000355
        },
        {
          "name": "D3",
          "midi": 50,
          "time": 121.5925862625006,
          "velocity": 0.7874015748031497,
          "duration": 0.17205873749999512
        },
        {
          "name": "D2",
          "midi": 38,
          "time": 121.5925862625006,
          "velocity": 0.7874015748031497,
          "duration": 0.17205873749999512
        },
        {
          "name": "D3",
          "midi": 50,
          "time": 121.7646450000006,
          "velocity": 0.7874015748031497,
          "duration": 0.16176462500000355
        },
        {
          "name": "D2",
          "midi": 38,
          "time": 121.7646450000006,
          "velocity": 0.7874015748031497,
          "duration": 0.16176462500000355
        },
        {
          "name": "D3",
          "midi": 50,
          "time": 121.9455272625006,
          "velocity": 0.7874015748031497,
          "duration": 0.16249991875000092
        },
        {
          "name": "D2",
          "midi": 38,
          "time": 121.9455272625006,
          "velocity": 0.7874015748031497,
          "duration": 0.16249991875000092
        },
        {
          "name": "D3",
          "midi": 50,
          "time": 122.1175860000006,
          "velocity": 0.7874015748031497,
          "duration": 0.16176462500000355
        },
        {
          "name": "D2",
          "midi": 38,
          "time": 122.1175860000006,
          "velocity": 0.7874015748031497,
          "duration": 0.16176462500000355
        },
        {
          "name": "D3",
          "midi": 50,
          "time": 122.2984682625006,
          "velocity": 0.7874015748031497,
          "duration": 0.17205873749999512
        },
        {
          "name": "D2",
          "midi": 38,
          "time": 122.2984682625006,
          "velocity": 0.7874015748031497,
          "duration": 0.17205873749999512
        },
        {
          "name": "D3",
          "midi": 50,
          "time": 122.4705270000006,
          "velocity": 0.7874015748031497,
          "duration": 0.16176462500000355
        },
        {
          "name": "D2",
          "midi": 38,
          "time": 122.4705270000006,
          "velocity": 0.7874015748031497,
          "duration": 0.16176462500000355
        },
        {
          "name": "D3",
          "midi": 50,
          "time": 122.65140926250061,
          "velocity": 0.7874015748031497,
          "duration": 0.1529411000000067
        },
        {
          "name": "D2",
          "midi": 38,
          "time": 122.65140926250061,
          "velocity": 0.7874015748031497,
          "duration": 0.1529411000000067
        },
        {
          "name": "G3",
          "midi": 55,
          "time": 122.82346800000062,
          "velocity": 0.7874015748031497,
          "duration": 0.17647049999999354
        },
        {
          "name": "G2",
          "midi": 43,
          "time": 122.82346800000062,
          "velocity": 0.7874015748031497,
          "duration": 0.17647049999999354
        },
        {
          "name": "D3",
          "midi": 50,
          "time": 123.00435026250061,
          "velocity": 0.7874015748031497,
          "duration": 0.5058820999999938
        },
        {
          "name": "D2",
          "midi": 38,
          "time": 123.00435026250061,
          "velocity": 0.7874015748031497,
          "duration": 0.5058820999999938
        },
        {
          "name": "E3",
          "midi": 52,
          "time": 123.5293500000006,
          "velocity": 0.7874015748031497,
          "duration": 0.31470572499999605
        },
        {
          "name": "E2",
          "midi": 40,
          "time": 123.5293500000006,
          "velocity": 0.7874015748031497,
          "duration": 0.28602926874999923
        },
        {
          "name": "D3",
          "midi": 50,
          "time": 123.8822910000006,
          "velocity": 0.7874015748031497,
          "duration": 0.17647049999999354
        },
        {
          "name": "D2",
          "midi": 38,
          "time": 123.8822910000006,
          "velocity": 0.7874015748031497,
          "duration": 0.17647049999999354
        },
        {
          "name": "E3",
          "midi": 52,
          "time": 124.0631732625006,
          "velocity": 0.7874015748031497,
          "duration": 0.1338234624999899
        },
        {
          "name": "E2",
          "midi": 40,
          "time": 124.0631732625006,
          "velocity": 0.7874015748031497,
          "duration": 0.10514700624999307
        },
        {
          "name": "E3",
          "midi": 52,
          "time": 124.24405552500059,
          "velocity": 0.8661417322834646,
          "duration": 1.4117640000000051
        },
        {
          "name": "E2",
          "midi": 40,
          "time": 124.24405552500059,
          "velocity": 0.8661417322834646,
          "duration": 1.3838228375000057
        },
        {
          "name": "C2",
          "midi": 36,
          "time": 125.6469960000006,
          "velocity": 0.8661417322834646,
          "duration": 0.7058820000000026
        },
        {
          "name": "C3",
          "midi": 48,
          "time": 125.6469960000006,
          "velocity": 0.8661417322834646,
          "duration": 0.7058820000000026
        },
        {
          "name": "D2",
          "midi": 38,
          "time": 126.3528780000006,
          "velocity": 0.8661417322834646,
          "duration": 0.7058820000000026
        },
        {
          "name": "D3",
          "midi": 50,
          "time": 126.3528780000006,
          "velocity": 0.8661417322834646,
          "duration": 0.7058820000000026
        },
        {
          "name": "E3",
          "midi": 52,
          "time": 127.0587600000006,
          "velocity": 0.7874015748031497,
          "duration": 0.16176462500000355
        },
        {
          "name": "E2",
          "midi": 40,
          "time": 127.0587600000006,
          "velocity": 0.7874015748031497,
          "duration": 0.13308816875000673
        },
        {
          "name": "E3",
          "midi": 52,
          "time": 127.23964226250061,
          "velocity": 0.7874015748031497,
          "duration": 0.17205873750000933
        },
        {
          "name": "E2",
          "midi": 40,
          "time": 127.23964226250061,
          "velocity": 0.7874015748031497,
          "duration": 0.1529411000000067
        },
        {
          "name": "E3",
          "midi": 52,
          "time": 127.41170100000062,
          "velocity": 0.7874015748031497,
          "duration": 0.16176462500000355
        },
        {
          "name": "E2",
          "midi": 40,
          "time": 127.41170100000062,
          "velocity": 0.7874015748031497,
          "duration": 0.13308816875000673
        },
        {
          "name": "E3",
          "midi": 52,
          "time": 127.59258326250063,
          "velocity": 0.7874015748031497,
          "duration": 0.16249991875000092
        },
        {
          "name": "E2",
          "midi": 40,
          "time": 127.59258326250063,
          "velocity": 0.7874015748031497,
          "duration": 0.1338234625000041
        },
        {
          "name": "E3",
          "midi": 52,
          "time": 127.76464200000062,
          "velocity": 0.7874015748031497,
          "duration": 0.16176462500000355
        },
        {
          "name": "E2",
          "midi": 40,
          "time": 127.76464200000062,
          "velocity": 0.7874015748031497,
          "duration": 0.13308816875000673
        },
        {
          "name": "E3",
          "midi": 52,
          "time": 127.94552426250063,
          "velocity": 0.7874015748031497,
          "duration": 0.17205873749999512
        },
        {
          "name": "E2",
          "midi": 40,
          "time": 127.94552426250063,
          "velocity": 0.7874015748031497,
          "duration": 0.1529411000000067
        },
        {
          "name": "E3",
          "midi": 52,
          "time": 128.11758300000062,
          "velocity": 0.7874015748031497,
          "duration": 0.16176462499998934
        },
        {
          "name": "E2",
          "midi": 40,
          "time": 128.11758300000062,
          "velocity": 0.7874015748031497,
          "duration": 0.13308816874999252
        },
        {
          "name": "E3",
          "midi": 52,
          "time": 128.2984652625006,
          "velocity": 0.7874015748031497,
          "duration": 0.1529410999999925
        },
        {
          "name": "E2",
          "midi": 40,
          "time": 128.2984652625006,
          "velocity": 0.7874015748031497,
          "duration": 0.12426464374999568
        },
        {
          "name": "E3",
          "midi": 52,
          "time": 128.47052400000058,
          "velocity": 0.7874015748031497,
          "duration": 0.16176462499998934
        },
        {
          "name": "E2",
          "midi": 40,
          "time": 128.47052400000058,
          "velocity": 0.7874015748031497,
          "duration": 0.13308816874999252
        },
        {
          "name": "E3",
          "midi": 52,
          "time": 128.65140626250056,
          "velocity": 0.7874015748031497,
          "duration": 0.1720587374999809
        },
        {
          "name": "E2",
          "midi": 40,
          "time": 128.65140626250056,
          "velocity": 0.7874015748031497,
          "duration": 0.1529410999999925
        },
        {
          "name": "E3",
          "midi": 52,
          "time": 128.82346500000054,
          "velocity": 0.7874015748031497,
          "duration": 0.16176462499998934
        },
        {
          "name": "E2",
          "midi": 40,
          "time": 128.82346500000054,
          "velocity": 0.7874015748031497,
          "duration": 0.13308816874999252
        },
        {
          "name": "E3",
          "midi": 52,
          "time": 129.00434726250052,
          "velocity": 0.7874015748031497,
          "duration": 0.16249991875000092
        },
        {
          "name": "E2",
          "midi": 40,
          "time": 129.00434726250052,
          "velocity": 0.7874015748031497,
          "duration": 0.1338234625000041
        },
        {
          "name": "E3",
          "midi": 52,
          "time": 129.17640600000053,
          "velocity": 0.7874015748031497,
          "duration": 0.16176462499998934
        },
        {
          "name": "E2",
          "midi": 40,
          "time": 129.17640600000053,
          "velocity": 0.7874015748031497,
          "duration": 0.13308816874999252
        },
        {
          "name": "E3",
          "midi": 52,
          "time": 129.3572882625005,
          "velocity": 0.7874015748031497,
          "duration": 0.1720587374999809
        },
        {
          "name": "E2",
          "midi": 40,
          "time": 129.3572882625005,
          "velocity": 0.7874015748031497,
          "duration": 0.1529410999999925
        },
        {
          "name": "E3",
          "midi": 52,
          "time": 129.52934700000048,
          "velocity": 0.7874015748031497,
          "duration": 0.16176462499998934
        },
        {
          "name": "E2",
          "midi": 40,
          "time": 129.52934700000048,
          "velocity": 0.7874015748031497,
          "duration": 0.13308816874999252
        },
        {
          "name": "D2",
          "midi": 38,
          "time": 129.71022926250046,
          "velocity": 0.7874015748031497,
          "duration": 0.1529410999999925
        },
        {
          "name": "D3",
          "midi": 50,
          "time": 129.71022926250046,
          "velocity": 0.7874015748031497,
          "duration": 0.1529410999999925
        },
        {
          "name": "E3",
          "midi": 52,
          "time": 129.89111152500047,
          "velocity": 0.8661417322834646,
          "duration": 1.4117639999999767
        },
        {
          "name": "E2",
          "midi": 40,
          "time": 129.89111152500047,
          "velocity": 0.8661417322834646,
          "duration": 1.3838228374999915
        },
        {
          "name": "C2",
          "midi": 36,
          "time": 131.29405200000045,
          "velocity": 0.8661417322834646,
          "duration": 0.7058820000000026
        },
        {
          "name": "C3",
          "midi": 48,
          "time": 131.29405200000045,
          "velocity": 0.8661417322834646,
          "duration": 0.7058820000000026
        },
        {
          "name": "D2",
          "midi": 38,
          "time": 131.99993400000045,
          "velocity": 0.8661417322834646,
          "duration": 0.7058820000000026
        },
        {
          "name": "D3",
          "midi": 50,
          "time": 131.99993400000045,
          "velocity": 0.8661417322834646,
          "duration": 0.7058820000000026
        },
        {
          "name": "E3",
          "midi": 52,
          "time": 132.70581600000045,
          "velocity": 0.7874015748031497,
          "duration": 0.16176462499998934
        },
        {
          "name": "E2",
          "midi": 40,
          "time": 132.70581600000045,
          "velocity": 0.7874015748031497,
          "duration": 0.13308816874999252
        },
        {
          "name": "E3",
          "midi": 52,
          "time": 132.88669826250043,
          "velocity": 0.7874015748031497,
          "duration": 0.1720587374999809
        },
        {
          "name": "E2",
          "midi": 40,
          "time": 132.88669826250043,
          "velocity": 0.7874015748031497,
          "duration": 0.1529410999999925
        },
        {
          "name": "E3",
          "midi": 52,
          "time": 133.0587570000004,
          "velocity": 0.7874015748031497,
          "duration": 0.16176462499998934
        },
        {
          "name": "E2",
          "midi": 40,
          "time": 133.0587570000004,
          "velocity": 0.7874015748031497,
          "duration": 0.13308816874999252
        },
        {
          "name": "E3",
          "midi": 52,
          "time": 133.2396392625004,
          "velocity": 0.7874015748031497,
          "duration": 0.16249991875000092
        },
        {
          "name": "E2",
          "midi": 40,
          "time": 133.2396392625004,
          "velocity": 0.7874015748031497,
          "duration": 0.1338234625000041
        },
        {
          "name": "E3",
          "midi": 52,
          "time": 133.4116980000004,
          "velocity": 0.7874015748031497,
          "duration": 0.16176462499998934
        },
        {
          "name": "E2",
          "midi": 40,
          "time": 133.4116980000004,
          "velocity": 0.7874015748031497,
          "duration": 0.13308816874999252
        },
        {
          "name": "E3",
          "midi": 52,
          "time": 133.59258026250038,
          "velocity": 0.7874015748031497,
          "duration": 0.1720587374999809
        },
        {
          "name": "E2",
          "midi": 40,
          "time": 133.59258026250038,
          "velocity": 0.7874015748031497,
          "duration": 0.1529410999999925
        },
        {
          "name": "E3",
          "midi": 52,
          "time": 133.76463900000036,
          "velocity": 0.7874015748031497,
          "duration": 0.16176462499998934
        },
        {
          "name": "E2",
          "midi": 40,
          "time": 133.76463900000036,
          "velocity": 0.7874015748031497,
          "duration": 0.13308816874999252
        },
        {
          "name": "E3",
          "midi": 52,
          "time": 133.94552126250034,
          "velocity": 0.7874015748031497,
          "duration": 0.1529410999999925
        },
        {
          "name": "E2",
          "midi": 40,
          "time": 133.94552126250034,
          "velocity": 0.7874015748031497,
          "duration": 0.12426464374999568
        },
        {
          "name": "E3",
          "midi": 52,
          "time": 134.11758000000032,
          "velocity": 0.7874015748031497,
          "duration": 0.16176462499998934
        },
        {
          "name": "E2",
          "midi": 40,
          "time": 134.11758000000032,
          "velocity": 0.7874015748031497,
          "duration": 0.13308816874999252
        },
        {
          "name": "E3",
          "midi": 52,
          "time": 134.2984622625003,
          "velocity": 0.7874015748031497,
          "duration": 0.1720587374999809
        },
        {
          "name": "E2",
          "midi": 40,
          "time": 134.2984622625003,
          "velocity": 0.7874015748031497,
          "duration": 0.1529410999999925
        },
        {
          "name": "E3",
          "midi": 52,
          "time": 134.47052100000028,
          "velocity": 0.7874015748031497,
          "duration": 0.16176462499998934
        },
        {
          "name": "E2",
          "midi": 40,
          "time": 134.47052100000028,
          "velocity": 0.7874015748031497,
          "duration": 0.13308816874999252
        },
        {
          "name": "E3",
          "midi": 52,
          "time": 134.65140326250025,
          "velocity": 0.7874015748031497,
          "duration": 0.16249991875000092
        },
        {
          "name": "E2",
          "midi": 40,
          "time": 134.65140326250025,
          "velocity": 0.7874015748031497,
          "duration": 0.1338234625000041
        },
        {
          "name": "E3",
          "midi": 52,
          "time": 134.82346200000026,
          "velocity": 0.7874015748031497,
          "duration": 0.16176462499998934
        },
        {
          "name": "E2",
          "midi": 40,
          "time": 134.82346200000026,
          "velocity": 0.7874015748031497,
          "duration": 0.13308816874999252
        },
        {
          "name": "E3",
          "midi": 52,
          "time": 135.00434426250024,
          "velocity": 0.7874015748031497,
          "duration": 0.1720587374999809
        },
        {
          "name": "E2",
          "midi": 40,
          "time": 135.00434426250024,
          "velocity": 0.7874015748031497,
          "duration": 0.1529410999999925
        },
        {
          "name": "E3",
          "midi": 52,
          "time": 135.17640300000022,
          "velocity": 0.7874015748031497,
          "duration": 0.16176462499998934
        },
        {
          "name": "E2",
          "midi": 40,
          "time": 135.17640300000022,
          "velocity": 0.7874015748031497,
          "duration": 0.13308816874999252
        },
        {
          "name": "D2",
          "midi": 38,
          "time": 135.3572852625002,
          "velocity": 0.7874015748031497,
          "duration": 0.1529410999999925
        },
        {
          "name": "D3",
          "midi": 50,
          "time": 135.3572852625002,
          "velocity": 0.7874015748031497,
          "duration": 0.1529410999999925
        },
        {
          "name": "E3",
          "midi": 52,
          "time": 135.52934400000018,
          "velocity": 0.7874015748031497,
          "duration": 0.16176462499998934
        },
        {
          "name": "E2",
          "midi": 40,
          "time": 135.52934400000018,
          "velocity": 0.7874015748031497,
          "duration": 0.13308816874999252
        },
        {
          "name": "E3",
          "midi": 52,
          "time": 135.71022626250016,
          "velocity": 0.7874015748031497,
          "duration": 0.1720587374999809
        },
        {
          "name": "E2",
          "midi": 40,
          "time": 135.71022626250016,
          "velocity": 0.7874015748031497,
          "duration": 0.1529410999999925
        },
        {
          "name": "E3",
          "midi": 52,
          "time": 135.88228500000014,
          "velocity": 0.7874015748031497,
          "duration": 0.16176462499998934
        },
        {
          "name": "E2",
          "midi": 40,
          "time": 135.88228500000014,
          "velocity": 0.7874015748031497,
          "duration": 0.13308816874999252
        },
        {
          "name": "E3",
          "midi": 52,
          "time": 136.06316726250012,
          "velocity": 0.7874015748031497,
          "duration": 0.16249991875000092
        },
        {
          "name": "E2",
          "midi": 40,
          "time": 136.06316726250012,
          "velocity": 0.7874015748031497,
          "duration": 0.1338234625000041
        },
        {
          "name": "E3",
          "midi": 52,
          "time": 136.23522600000013,
          "velocity": 0.7874015748031497,
          "duration": 0.16176462499998934
        },
        {
          "name": "E2",
          "midi": 40,
          "time": 136.23522600000013,
          "velocity": 0.7874015748031497,
          "duration": 0.13308816874999252
        },
        {
          "name": "E3",
          "midi": 52,
          "time": 136.4161082625001,
          "velocity": 0.7874015748031497,
          "duration": 0.1720587374999809
        },
        {
          "name": "E2",
          "midi": 40,
          "time": 136.4161082625001,
          "velocity": 0.7874015748031497,
          "duration": 0.1529410999999925
        },
        {
          "name": "E3",
          "midi": 52,
          "time": 136.58816700000008,
          "velocity": 0.7874015748031497,
          "duration": 0.16176462499998934
        },
        {
          "name": "E2",
          "midi": 40,
          "time": 136.58816700000008,
          "velocity": 0.7874015748031497,
          "duration": 0.13308816874999252
        },
        {
          "name": "E3",
          "midi": 52,
          "time": 136.76904926250006,
          "velocity": 0.7874015748031497,
          "duration": 0.1529410999999925
        },
        {
          "name": "E2",
          "midi": 40,
          "time": 136.76904926250006,
          "velocity": 0.7874015748031497,
          "duration": 0.12426464374999568
        },
        {
          "name": "E3",
          "midi": 52,
          "time": 136.94110800000004,
          "velocity": 0.7874015748031497,
          "duration": 0.16176462499998934
        },
        {
          "name": "E2",
          "midi": 40,
          "time": 136.94110800000004,
          "velocity": 0.7874015748031497,
          "duration": 0.13308816874999252
        },
        {
          "name": "E3",
          "midi": 52,
          "time": 137.12199026250002,
          "velocity": 0.7874015748031497,
          "duration": 0.1720587374999809
        },
        {
          "name": "E2",
          "midi": 40,
          "time": 137.12199026250002,
          "velocity": 0.7874015748031497,
          "duration": 0.1529410999999925
        },
        {
          "name": "E3",
          "midi": 52,
          "time": 137.294049,
          "velocity": 0.7874015748031497,
          "duration": 0.16176462499998934
        },
        {
          "name": "E2",
          "midi": 40,
          "time": 137.294049,
          "velocity": 0.7874015748031497,
          "duration": 0.13308816874999252
        },
        {
          "name": "E3",
          "midi": 52,
          "time": 137.47493126249998,
          "velocity": 0.7874015748031497,
          "duration": 0.16249991875000092
        },
        {
          "name": "E2",
          "midi": 40,
          "time": 137.47493126249998,
          "velocity": 0.7874015748031497,
          "duration": 0.1338234625000041
        },
        {
          "name": "E3",
          "midi": 52,
          "time": 137.64699,
          "velocity": 0.7874015748031497,
          "duration": 0.16176462499998934
        },
        {
          "name": "E2",
          "midi": 40,
          "time": 137.64699,
          "velocity": 0.7874015748031497,
          "duration": 0.13308816874999252
        },
        {
          "name": "E3",
          "midi": 52,
          "time": 137.82787226249997,
          "velocity": 0.7874015748031497,
          "duration": 0.1720587374999809
        },
        {
          "name": "E2",
          "midi": 40,
          "time": 137.82787226249997,
          "velocity": 0.7874015748031497,
          "duration": 0.1529410999999925
        },
        {
          "name": "E3",
          "midi": 52,
          "time": 137.99993099999995,
          "velocity": 0.7874015748031497,
          "duration": 0.16176462499998934
        },
        {
          "name": "E2",
          "midi": 40,
          "time": 137.99993099999995,
          "velocity": 0.7874015748031497,
          "duration": 0.13308816874999252
        },
        {
          "name": "E3",
          "midi": 52,
          "time": 138.18081326249992,
          "velocity": 0.7874015748031497,
          "duration": 0.16249991875000092
        },
        {
          "name": "E2",
          "midi": 40,
          "time": 138.18081326249992,
          "velocity": 0.7874015748031497,
          "duration": 0.1338234625000041
        },
        {
          "name": "D3",
          "midi": 50,
          "time": 138.35287199999993,
          "velocity": 0.7874015748031497,
          "duration": 0.16176462499998934
        },
        {
          "name": "D2",
          "midi": 38,
          "time": 138.35287199999993,
          "velocity": 0.7874015748031497,
          "duration": 0.16176462499998934
        },
        {
          "name": "D3",
          "midi": 50,
          "time": 138.5337542624999,
          "velocity": 0.7874015748031497,
          "duration": 0.17205873750000933
        },
        {
          "name": "D2",
          "midi": 38,
          "time": 138.5337542624999,
          "velocity": 0.7874015748031497,
          "duration": 0.17205873750000933
        },
        {
          "name": "D3",
          "midi": 50,
          "time": 138.70581299999992,
          "velocity": 0.7874015748031497,
          "duration": 0.16176462499998934
        },
        {
          "name": "D2",
          "midi": 38,
          "time": 138.70581299999992,
          "velocity": 0.7874015748031497,
          "duration": 0.16176462499998934
        },
        {
          "name": "D3",
          "midi": 50,
          "time": 138.8866952624999,
          "velocity": 0.7874015748031497,
          "duration": 0.16249991875000092
        },
        {
          "name": "D2",
          "midi": 38,
          "time": 138.8866952624999,
          "velocity": 0.7874015748031497,
          "duration": 0.16249991875000092
        },
        {
          "name": "D3",
          "midi": 50,
          "time": 139.0587539999999,
          "velocity": 0.7874015748031497,
          "duration": 0.16176462499998934
        },
        {
          "name": "D2",
          "midi": 38,
          "time": 139.0587539999999,
          "velocity": 0.7874015748031497,
          "duration": 0.16176462499998934
        },
        {
          "name": "D3",
          "midi": 50,
          "time": 139.23963626249989,
          "velocity": 0.7874015748031497,
          "duration": 0.17205873750000933
        },
        {
          "name": "D2",
          "midi": 38,
          "time": 139.23963626249989,
          "velocity": 0.7874015748031497,
          "duration": 0.17205873750000933
        },
        {
          "name": "D3",
          "midi": 50,
          "time": 139.4116949999999,
          "velocity": 0.7874015748031497,
          "duration": 0.16176462499998934
        },
        {
          "name": "D2",
          "midi": 38,
          "time": 139.4116949999999,
          "velocity": 0.7874015748031497,
          "duration": 0.16176462499998934
        },
        {
          "name": "D3",
          "midi": 50,
          "time": 139.59257726249987,
          "velocity": 0.7874015748031497,
          "duration": 0.1529410999999925
        },
        {
          "name": "D2",
          "midi": 38,
          "time": 139.59257726249987,
          "velocity": 0.7874015748031497,
          "duration": 0.1529410999999925
        },
        {
          "name": "G3",
          "midi": 55,
          "time": 139.76463599999985,
          "velocity": 0.7874015748031497,
          "duration": 0.17647049999999354
        },
        {
          "name": "G2",
          "midi": 43,
          "time": 139.76463599999985,
          "velocity": 0.7874015748031497,
          "duration": 0.17647049999999354
        },
        {
          "name": "D3",
          "midi": 50,
          "time": 139.94551826249986,
          "velocity": 0.7874015748031497,
          "duration": 0.505882100000008
        },
        {
          "name": "D2",
          "midi": 38,
          "time": 139.94551826249986,
          "velocity": 0.7874015748031497,
          "duration": 0.505882100000008
        },
        {
          "name": "E3",
          "midi": 52,
          "time": 140.47051799999986,
          "velocity": 0.7874015748031497,
          "duration": 0.31470572500001026
        },
        {
          "name": "E2",
          "midi": 40,
          "time": 140.47051799999986,
          "velocity": 0.7874015748031497,
          "duration": 0.28602926875001344
        },
        {
          "name": "D3",
          "midi": 50,
          "time": 140.82345899999987,
          "velocity": 0.7874015748031497,
          "duration": 0.17647049999999354
        },
        {
          "name": "D2",
          "midi": 38,
          "time": 140.82345899999987,
          "velocity": 0.7874015748031497,
          "duration": 0.17647049999999354
        },
        {
          "name": "E3",
          "midi": 52,
          "time": 141.00434126249988,
          "velocity": 0.7874015748031497,
          "duration": 0.1338234625000041
        },
        {
          "name": "E2",
          "midi": 40,
          "time": 141.00434126249988,
          "velocity": 0.7874015748031497,
          "duration": 0.10514700625000728
        },
        {
          "name": "E3",
          "midi": 52,
          "time": 141.1763999999999,
          "velocity": 0.7874015748031497,
          "duration": 0.16176462499998934
        },
        {
          "name": "E2",
          "midi": 40,
          "time": 141.1763999999999,
          "velocity": 0.7874015748031497,
          "duration": 0.13308816874999252
        },
        {
          "name": "E3",
          "midi": 52,
          "time": 141.35728226249987,
          "velocity": 0.7874015748031497,
          "duration": 0.1720587374999809
        },
        {
          "name": "E2",
          "midi": 40,
          "time": 141.35728226249987,
          "velocity": 0.7874015748031497,
          "duration": 0.1529410999999925
        },
        {
          "name": "E3",
          "midi": 52,
          "time": 141.52934099999985,
          "velocity": 0.7874015748031497,
          "duration": 0.16176462499998934
        },
        {
          "name": "E2",
          "midi": 40,
          "time": 141.52934099999985,
          "velocity": 0.7874015748031497,
          "duration": 0.13308816874999252
        },
        {
          "name": "E3",
          "midi": 52,
          "time": 141.71022326249982,
          "velocity": 0.7874015748031497,
          "duration": 0.16249991875000092
        },
        {
          "name": "E2",
          "midi": 40,
          "time": 141.71022326249982,
          "velocity": 0.7874015748031497,
          "duration": 0.1338234625000041
        },
        {
          "name": "E3",
          "midi": 52,
          "time": 141.88228199999983,
          "velocity": 0.7874015748031497,
          "duration": 0.16176462499998934
        },
        {
          "name": "E2",
          "midi": 40,
          "time": 141.88228199999983,
          "velocity": 0.7874015748031497,
          "duration": 0.13308816874999252
        },
        {
          "name": "E3",
          "midi": 52,
          "time": 142.0631642624998,
          "velocity": 0.7874015748031497,
          "duration": 0.1720587374999809
        },
        {
          "name": "E2",
          "midi": 40,
          "time": 142.0631642624998,
          "velocity": 0.7874015748031497,
          "duration": 0.1529410999999925
        },
        {
          "name": "E3",
          "midi": 52,
          "time": 142.2352229999998,
          "velocity": 0.7874015748031497,
          "duration": 0.16176462499998934
        },
        {
          "name": "E2",
          "midi": 40,
          "time": 142.2352229999998,
          "velocity": 0.7874015748031497,
          "duration": 0.13308816874999252
        },
        {
          "name": "E3",
          "midi": 52,
          "time": 142.41610526249977,
          "velocity": 0.7874015748031497,
          "duration": 0.1529410999999925
        },
        {
          "name": "E2",
          "midi": 40,
          "time": 142.41610526249977,
          "velocity": 0.7874015748031497,
          "duration": 0.12426464374999568
        },
        {
          "name": "E3",
          "midi": 52,
          "time": 142.58816399999975,
          "velocity": 0.7874015748031497,
          "duration": 0.16176462499998934
        },
        {
          "name": "E2",
          "midi": 40,
          "time": 142.58816399999975,
          "velocity": 0.7874015748031497,
          "duration": 0.13308816874999252
        },
        {
          "name": "E3",
          "midi": 52,
          "time": 142.76904626249973,
          "velocity": 0.7874015748031497,
          "duration": 0.1720587374999809
        },
        {
          "name": "E2",
          "midi": 40,
          "time": 142.76904626249973,
          "velocity": 0.7874015748031497,
          "duration": 0.1529410999999925
        },
        {
          "name": "E3",
          "midi": 52,
          "time": 142.9411049999997,
          "velocity": 0.7874015748031497,
          "duration": 0.16176462499998934
        },
        {
          "name": "E2",
          "midi": 40,
          "time": 142.9411049999997,
          "velocity": 0.7874015748031497,
          "duration": 0.13308816874999252
        },
        {
          "name": "E3",
          "midi": 52,
          "time": 143.1219872624997,
          "velocity": 0.7874015748031497,
          "duration": 0.16249991875000092
        },
        {
          "name": "E2",
          "midi": 40,
          "time": 143.1219872624997,
          "velocity": 0.7874015748031497,
          "duration": 0.1338234625000041
        },
        {
          "name": "E3",
          "midi": 52,
          "time": 143.2940459999997,
          "velocity": 0.7874015748031497,
          "duration": 0.16176462499998934
        },
        {
          "name": "E2",
          "midi": 40,
          "time": 143.2940459999997,
          "velocity": 0.7874015748031497,
          "duration": 0.13308816874999252
        },
        {
          "name": "E3",
          "midi": 52,
          "time": 143.47492826249967,
          "velocity": 0.7874015748031497,
          "duration": 0.1720587374999809
        },
        {
          "name": "E2",
          "midi": 40,
          "time": 143.47492826249967,
          "velocity": 0.7874015748031497,
          "duration": 0.1529410999999925
        },
        {
          "name": "E3",
          "midi": 52,
          "time": 143.64698699999965,
          "velocity": 0.7874015748031497,
          "duration": 0.16176462499998934
        },
        {
          "name": "E2",
          "midi": 40,
          "time": 143.64698699999965,
          "velocity": 0.7874015748031497,
          "duration": 0.13308816874999252
        },
        {
          "name": "E3",
          "midi": 52,
          "time": 143.82786926249963,
          "velocity": 0.7874015748031497,
          "duration": 0.16249991875000092
        },
        {
          "name": "E2",
          "midi": 40,
          "time": 143.82786926249963,
          "velocity": 0.7874015748031497,
          "duration": 0.1338234625000041
        },
        {
          "name": "D3",
          "midi": 50,
          "time": 143.99992799999964,
          "velocity": 0.7874015748031497,
          "duration": 0.16176462499998934
        },
        {
          "name": "D2",
          "midi": 38,
          "time": 143.99992799999964,
          "velocity": 0.7874015748031497,
          "duration": 0.16176462499998934
        },
        {
          "name": "D3",
          "midi": 50,
          "time": 144.18081026249962,
          "velocity": 0.7874015748031497,
          "duration": 0.17205873750000933
        },
        {
          "name": "D2",
          "midi": 38,
          "time": 144.18081026249962,
          "velocity": 0.7874015748031497,
          "duration": 0.17205873750000933
        },
        {
          "name": "D3",
          "midi": 50,
          "time": 144.35286899999963,
          "velocity": 0.7874015748031497,
          "duration": 0.16176462499998934
        },
        {
          "name": "D2",
          "midi": 38,
          "time": 144.35286899999963,
          "velocity": 0.7874015748031497,
          "duration": 0.16176462499998934
        },
        {
          "name": "D3",
          "midi": 50,
          "time": 144.5337512624996,
          "velocity": 0.7874015748031497,
          "duration": 0.16249991875000092
        },
        {
          "name": "D2",
          "midi": 38,
          "time": 144.5337512624996,
          "velocity": 0.7874015748031497,
          "duration": 0.16249991875000092
        },
        {
          "name": "D3",
          "midi": 50,
          "time": 144.70580999999962,
          "velocity": 0.7874015748031497,
          "duration": 0.16176462499998934
        },
        {
          "name": "D2",
          "midi": 38,
          "time": 144.70580999999962,
          "velocity": 0.7874015748031497,
          "duration": 0.16176462499998934
        },
        {
          "name": "D3",
          "midi": 50,
          "time": 144.8866922624996,
          "velocity": 0.7874015748031497,
          "duration": 0.17205873750000933
        },
        {
          "name": "D2",
          "midi": 38,
          "time": 144.8866922624996,
          "velocity": 0.7874015748031497,
          "duration": 0.17205873750000933
        },
        {
          "name": "D3",
          "midi": 50,
          "time": 145.0587509999996,
          "velocity": 0.7874015748031497,
          "duration": 0.16176462499998934
        },
        {
          "name": "D2",
          "midi": 38,
          "time": 145.0587509999996,
          "velocity": 0.7874015748031497,
          "duration": 0.16176462499998934
        },
        {
          "name": "D3",
          "midi": 50,
          "time": 145.23963326249958,
          "velocity": 0.7874015748031497,
          "duration": 0.1529410999999925
        },
        {
          "name": "D2",
          "midi": 38,
          "time": 145.23963326249958,
          "velocity": 0.7874015748031497,
          "duration": 0.1529410999999925
        },
        {
          "name": "G3",
          "midi": 55,
          "time": 145.41169199999956,
          "velocity": 0.7874015748031497,
          "duration": 0.17647049999999354
        },
        {
          "name": "G2",
          "midi": 43,
          "time": 145.41169199999956,
          "velocity": 0.7874015748031497,
          "duration": 0.17647049999999354
        },
        {
          "name": "D3",
          "midi": 50,
          "time": 145.59257426249957,
          "velocity": 0.7874015748031497,
          "duration": 0.505882100000008
        },
        {
          "name": "D2",
          "midi": 38,
          "time": 145.59257426249957,
          "velocity": 0.7874015748031497,
          "duration": 0.505882100000008
        },
        {
          "name": "E3",
          "midi": 52,
          "time": 146.11757399999956,
          "velocity": 0.7874015748031497,
          "duration": 0.31470572500001026
        },
        {
          "name": "E2",
          "midi": 40,
          "time": 146.11757399999956,
          "velocity": 0.7874015748031497,
          "duration": 0.28602926875001344
        },
        {
          "name": "D3",
          "midi": 50,
          "time": 146.47051499999958,
          "velocity": 0.7874015748031497,
          "duration": 0.17647049999999354
        },
        {
          "name": "D2",
          "midi": 38,
          "time": 146.47051499999958,
          "velocity": 0.7874015748031497,
          "duration": 0.17647049999999354
        },
        {
          "name": "E3",
          "midi": 52,
          "time": 146.6513972624996,
          "velocity": 0.7874015748031497,
          "duration": 0.1338234625000041
        },
        {
          "name": "E2",
          "midi": 40,
          "time": 146.6513972624996,
          "velocity": 0.7874015748031497,
          "duration": 0.10514700625000728
        },
        {
          "name": "E3",
          "midi": 52,
          "time": 146.8234559999996,
          "velocity": 0.7874015748031497,
          "duration": 0.16176462499998934
        },
        {
          "name": "E2",
          "midi": 40,
          "time": 146.8234559999996,
          "velocity": 0.7874015748031497,
          "duration": 0.13308816874999252
        },
        {
          "name": "E3",
          "midi": 52,
          "time": 147.00433826249957,
          "velocity": 0.7874015748031497,
          "duration": 0.1720587374999809
        },
        {
          "name": "E2",
          "midi": 40,
          "time": 147.00433826249957,
          "velocity": 0.7874015748031497,
          "duration": 0.1529410999999925
        },
        {
          "name": "E3",
          "midi": 52,
          "time": 147.17639699999955,
          "velocity": 0.7874015748031497,
          "duration": 0.16176462499998934
        },
        {
          "name": "E2",
          "midi": 40,
          "time": 147.17639699999955,
          "velocity": 0.7874015748031497,
          "duration": 0.13308816874999252
        },
        {
          "name": "E3",
          "midi": 52,
          "time": 147.35727926249953,
          "velocity": 0.7874015748031497,
          "duration": 0.16249991875000092
        },
        {
          "name": "E2",
          "midi": 40,
          "time": 147.35727926249953,
          "velocity": 0.7874015748031497,
          "duration": 0.1338234625000041
        },
        {
          "name": "E3",
          "midi": 52,
          "time": 147.52933799999954,
          "velocity": 0.7874015748031497,
          "duration": 0.16176462499998934
        },
        {
          "name": "E2",
          "midi": 40,
          "time": 147.52933799999954,
          "velocity": 0.7874015748031497,
          "duration": 0.13308816874999252
        },
        {
          "name": "E3",
          "midi": 52,
          "time": 147.71022026249952,
          "velocity": 0.7874015748031497,
          "duration": 0.1720587374999809
        },
        {
          "name": "E2",
          "midi": 40,
          "time": 147.71022026249952,
          "velocity": 0.7874015748031497,
          "duration": 0.1529410999999925
        },
        {
          "name": "E3",
          "midi": 52,
          "time": 147.8822789999995,
          "velocity": 0.7874015748031497,
          "duration": 0.16176462499998934
        },
        {
          "name": "E2",
          "midi": 40,
          "time": 147.8822789999995,
          "velocity": 0.7874015748031497,
          "duration": 0.13308816874999252
        },
        {
          "name": "E3",
          "midi": 52,
          "time": 148.06316126249948,
          "velocity": 0.7874015748031497,
          "duration": 0.1529410999999925
        },
        {
          "name": "E2",
          "midi": 40,
          "time": 148.06316126249948,
          "velocity": 0.7874015748031497,
          "duration": 0.12426464374999568
        },
        {
          "name": "E3",
          "midi": 52,
          "time": 148.23521999999946,
          "velocity": 0.7874015748031497,
          "duration": 0.16176462499998934
        },
        {
          "name": "E2",
          "midi": 40,
          "time": 148.23521999999946,
          "velocity": 0.7874015748031497,
          "duration": 0.13308816874999252
        },
        {
          "name": "E3",
          "midi": 52,
          "time": 148.41610226249944,
          "velocity": 0.7874015748031497,
          "duration": 0.1720587374999809
        },
        {
          "name": "E2",
          "midi": 40,
          "time": 148.41610226249944,
          "velocity": 0.7874015748031497,
          "duration": 0.1529410999999925
        },
        {
          "name": "E3",
          "midi": 52,
          "time": 148.58816099999942,
          "velocity": 0.7874015748031497,
          "duration": 0.16176462499998934
        },
        {
          "name": "E2",
          "midi": 40,
          "time": 148.58816099999942,
          "velocity": 0.7874015748031497,
          "duration": 0.13308816874999252
        },
        {
          "name": "E3",
          "midi": 52,
          "time": 148.7690432624994,
          "velocity": 0.7874015748031497,
          "duration": 0.16249991875000092
        },
        {
          "name": "E2",
          "midi": 40,
          "time": 148.7690432624994,
          "velocity": 0.7874015748031497,
          "duration": 0.1338234625000041
        },
        {
          "name": "E3",
          "midi": 52,
          "time": 148.9411019999994,
          "velocity": 0.7874015748031497,
          "duration": 0.16176462499998934
        },
        {
          "name": "E2",
          "midi": 40,
          "time": 148.9411019999994,
          "velocity": 0.7874015748031497,
          "duration": 0.13308816874999252
        },
        {
          "name": "E3",
          "midi": 52,
          "time": 149.12198426249938,
          "velocity": 0.7874015748031497,
          "duration": 0.1720587374999809
        },
        {
          "name": "E2",
          "midi": 40,
          "time": 149.12198426249938,
          "velocity": 0.7874015748031497,
          "duration": 0.1529410999999925
        },
        {
          "name": "E3",
          "midi": 52,
          "time": 149.29404299999936,
          "velocity": 0.7874015748031497,
          "duration": 0.16176462499998934
        },
        {
          "name": "E2",
          "midi": 40,
          "time": 149.29404299999936,
          "velocity": 0.7874015748031497,
          "duration": 0.13308816874999252
        },
        {
          "name": "E3",
          "midi": 52,
          "time": 149.47492526249934,
          "velocity": 0.7874015748031497,
          "duration": 0.16249991875000092
        },
        {
          "name": "E2",
          "midi": 40,
          "time": 149.47492526249934,
          "velocity": 0.7874015748031497,
          "duration": 0.1338234625000041
        },
        {
          "name": "D3",
          "midi": 50,
          "time": 149.64698399999935,
          "velocity": 0.7874015748031497,
          "duration": 0.16176462499998934
        },
        {
          "name": "D2",
          "midi": 38,
          "time": 149.64698399999935,
          "velocity": 0.7874015748031497,
          "duration": 0.16176462499998934
        },
        {
          "name": "D3",
          "midi": 50,
          "time": 149.82786626249933,
          "velocity": 0.7874015748031497,
          "duration": 0.17205873750000933
        },
        {
          "name": "D2",
          "midi": 38,
          "time": 149.82786626249933,
          "velocity": 0.7874015748031497,
          "duration": 0.17205873750000933
        },
        {
          "name": "D3",
          "midi": 50,
          "time": 149.99992499999934,
          "velocity": 0.7874015748031497,
          "duration": 0.16176462499998934
        },
        {
          "name": "D2",
          "midi": 38,
          "time": 149.99992499999934,
          "velocity": 0.7874015748031497,
          "duration": 0.16176462499998934
        },
        {
          "name": "D3",
          "midi": 50,
          "time": 150.18080726249931,
          "velocity": 0.7874015748031497,
          "duration": 0.16249991875000092
        },
        {
          "name": "D2",
          "midi": 38,
          "time": 150.18080726249931,
          "velocity": 0.7874015748031497,
          "duration": 0.16249991875000092
        },
        {
          "name": "D3",
          "midi": 50,
          "time": 150.35286599999932,
          "velocity": 0.7874015748031497,
          "duration": 0.16176462499998934
        },
        {
          "name": "D2",
          "midi": 38,
          "time": 150.35286599999932,
          "velocity": 0.7874015748031497,
          "duration": 0.16176462499998934
        },
        {
          "name": "D3",
          "midi": 50,
          "time": 150.5337482624993,
          "velocity": 0.7874015748031497,
          "duration": 0.17205873750000933
        },
        {
          "name": "D2",
          "midi": 38,
          "time": 150.5337482624993,
          "velocity": 0.7874015748031497,
          "duration": 0.17205873750000933
        },
        {
          "name": "D3",
          "midi": 50,
          "time": 150.7058069999993,
          "velocity": 0.7874015748031497,
          "duration": 0.16176462499998934
        },
        {
          "name": "D2",
          "midi": 38,
          "time": 150.7058069999993,
          "velocity": 0.7874015748031497,
          "duration": 0.16176462499998934
        },
        {
          "name": "D3",
          "midi": 50,
          "time": 150.8866892624993,
          "velocity": 0.7874015748031497,
          "duration": 0.1529410999999925
        },
        {
          "name": "D2",
          "midi": 38,
          "time": 150.8866892624993,
          "velocity": 0.7874015748031497,
          "duration": 0.1529410999999925
        },
        {
          "name": "G3",
          "midi": 55,
          "time": 151.05874799999927,
          "velocity": 0.7874015748031497,
          "duration": 0.17647049999999354
        },
        {
          "name": "G2",
          "midi": 43,
          "time": 151.05874799999927,
          "velocity": 0.7874015748031497,
          "duration": 0.17647049999999354
        },
        {
          "name": "D3",
          "midi": 50,
          "time": 151.23963026249928,
          "velocity": 0.7874015748031497,
          "duration": 0.505882100000008
        },
        {
          "name": "D2",
          "midi": 38,
          "time": 151.23963026249928,
          "velocity": 0.7874015748031497,
          "duration": 0.505882100000008
        },
        {
          "name": "E3",
          "midi": 52,
          "time": 151.76462999999927,
          "velocity": 0.7874015748031497,
          "duration": 0.31470572500001026
        },
        {
          "name": "E2",
          "midi": 40,
          "time": 151.76462999999927,
          "velocity": 0.7874015748031497,
          "duration": 0.28602926875001344
        },
        {
          "name": "D3",
          "midi": 50,
          "time": 152.1175709999993,
          "velocity": 0.7874015748031497,
          "duration": 0.17647049999999354
        },
        {
          "name": "D2",
          "midi": 38,
          "time": 152.1175709999993,
          "velocity": 0.7874015748031497,
          "duration": 0.17647049999999354
        },
        {
          "name": "E3",
          "midi": 52,
          "time": 152.2984532624993,
          "velocity": 0.7874015748031497,
          "duration": 0.1338234625000041
        },
        {
          "name": "E2",
          "midi": 40,
          "time": 152.2984532624993,
          "velocity": 0.7874015748031497,
          "duration": 0.10514700625000728
        },
        {
          "name": "E3",
          "midi": 52,
          "time": 152.4705119999993,
          "velocity": 0.7874015748031497,
          "duration": 0.16176462499998934
        },
        {
          "name": "E2",
          "midi": 40,
          "time": 152.4705119999993,
          "velocity": 0.7874015748031497,
          "duration": 0.13308816874999252
        },
        {
          "name": "E3",
          "midi": 52,
          "time": 152.65139426249928,
          "velocity": 0.7874015748031497,
          "duration": 0.1720587374999809
        },
        {
          "name": "E2",
          "midi": 40,
          "time": 152.65139426249928,
          "velocity": 0.7874015748031497,
          "duration": 0.1529410999999925
        },
        {
          "name": "E3",
          "midi": 52,
          "time": 152.82345299999926,
          "velocity": 0.7874015748031497,
          "duration": 0.16176462499998934
        },
        {
          "name": "E2",
          "midi": 40,
          "time": 152.82345299999926,
          "velocity": 0.7874015748031497,
          "duration": 0.13308816874999252
        },
        {
          "name": "E3",
          "midi": 52,
          "time": 153.00433526249924,
          "velocity": 0.7874015748031497,
          "duration": 0.16249991875000092
        },
        {
          "name": "E2",
          "midi": 40,
          "time": 153.00433526249924,
          "velocity": 0.7874015748031497,
          "duration": 0.1338234625000041
        },
        {
          "name": "E3",
          "midi": 52,
          "time": 153.17639399999925,
          "velocity": 0.7874015748031497,
          "duration": 0.16176462499998934
        },
        {
          "name": "E2",
          "midi": 40,
          "time": 153.17639399999925,
          "velocity": 0.7874015748031497,
          "duration": 0.13308816874999252
        },
        {
          "name": "E3",
          "midi": 52,
          "time": 153.35727626249923,
          "velocity": 0.7874015748031497,
          "duration": 0.1720587374999809
        },
        {
          "name": "E2",
          "midi": 40,
          "time": 153.35727626249923,
          "velocity": 0.7874015748031497,
          "duration": 0.1529410999999925
        },
        {
          "name": "E3",
          "midi": 52,
          "time": 153.5293349999992,
          "velocity": 0.7874015748031497,
          "duration": 0.16176462499998934
        },
        {
          "name": "E2",
          "midi": 40,
          "time": 153.5293349999992,
          "velocity": 0.7874015748031497,
          "duration": 0.13308816874999252
        },
        {
          "name": "E3",
          "midi": 52,
          "time": 153.71021726249919,
          "velocity": 0.7874015748031497,
          "duration": 0.1529410999999925
        },
        {
          "name": "E2",
          "midi": 40,
          "time": 153.71021726249919,
          "velocity": 0.7874015748031497,
          "duration": 0.12426464374999568
        },
        {
          "name": "E3",
          "midi": 52,
          "time": 153.88227599999917,
          "velocity": 0.7874015748031497,
          "duration": 0.16176462499998934
        },
        {
          "name": "E2",
          "midi": 40,
          "time": 153.88227599999917,
          "velocity": 0.7874015748031497,
          "duration": 0.13308816874999252
        },
        {
          "name": "E3",
          "midi": 52,
          "time": 154.06315826249914,
          "velocity": 0.7874015748031497,
          "duration": 0.1720587374999809
        },
        {
          "name": "E2",
          "midi": 40,
          "time": 154.06315826249914,
          "velocity": 0.7874015748031497,
          "duration": 0.1529410999999925
        },
        {
          "name": "E3",
          "midi": 52,
          "time": 154.23521699999912,
          "velocity": 0.7874015748031497,
          "duration": 0.16176462499998934
        },
        {
          "name": "E2",
          "midi": 40,
          "time": 154.23521699999912,
          "velocity": 0.7874015748031497,
          "duration": 0.13308816874999252
        },
        {
          "name": "E3",
          "midi": 52,
          "time": 154.4160992624991,
          "velocity": 0.7874015748031497,
          "duration": 0.16249991875000092
        },
        {
          "name": "E2",
          "midi": 40,
          "time": 154.4160992624991,
          "velocity": 0.7874015748031497,
          "duration": 0.1338234625000041
        },
        {
          "name": "E3",
          "midi": 52,
          "time": 154.5881579999991,
          "velocity": 0.7874015748031497,
          "duration": 0.16176462499998934
        },
        {
          "name": "E2",
          "midi": 40,
          "time": 154.5881579999991,
          "velocity": 0.7874015748031497,
          "duration": 0.13308816874999252
        },
        {
          "name": "E3",
          "midi": 52,
          "time": 154.7690402624991,
          "velocity": 0.7874015748031497,
          "duration": 0.1720587374999809
        },
        {
          "name": "E2",
          "midi": 40,
          "time": 154.7690402624991,
          "velocity": 0.7874015748031497,
          "duration": 0.1529410999999925
        },
        {
          "name": "E3",
          "midi": 52,
          "time": 154.94109899999907,
          "velocity": 0.7874015748031497,
          "duration": 0.16176462499998934
        },
        {
          "name": "E2",
          "midi": 40,
          "time": 154.94109899999907,
          "velocity": 0.7874015748031497,
          "duration": 0.13308816874999252
        },
        {
          "name": "E3",
          "midi": 52,
          "time": 155.12198126249905,
          "velocity": 0.7874015748031497,
          "duration": 0.16249991875000092
        },
        {
          "name": "E2",
          "midi": 40,
          "time": 155.12198126249905,
          "velocity": 0.7874015748031497,
          "duration": 0.1338234625000041
        },
        {
          "name": "D3",
          "midi": 50,
          "time": 155.29403999999906,
          "velocity": 0.7874015748031497,
          "duration": 0.16176462499998934
        },
        {
          "name": "D2",
          "midi": 38,
          "time": 155.29403999999906,
          "velocity": 0.7874015748031497,
          "duration": 0.16176462499998934
        },
        {
          "name": "D3",
          "midi": 50,
          "time": 155.47492226249904,
          "velocity": 0.7874015748031497,
          "duration": 0.17205873750000933
        },
        {
          "name": "D2",
          "midi": 38,
          "time": 155.47492226249904,
          "velocity": 0.7874015748031497,
          "duration": 0.17205873750000933
        },
        {
          "name": "D3",
          "midi": 50,
          "time": 155.64698099999904,
          "velocity": 0.7874015748031497,
          "duration": 0.16176462499998934
        },
        {
          "name": "D2",
          "midi": 38,
          "time": 155.64698099999904,
          "velocity": 0.7874015748031497,
          "duration": 0.16176462499998934
        },
        {
          "name": "D3",
          "midi": 50,
          "time": 155.82786326249902,
          "velocity": 0.7874015748031497,
          "duration": 0.16249991875000092
        },
        {
          "name": "D2",
          "midi": 38,
          "time": 155.82786326249902,
          "velocity": 0.7874015748031497,
          "duration": 0.16249991875000092
        },
        {
          "name": "D3",
          "midi": 50,
          "time": 155.99992199999903,
          "velocity": 0.7874015748031497,
          "duration": 0.16176462499998934
        },
        {
          "name": "D2",
          "midi": 38,
          "time": 155.99992199999903,
          "velocity": 0.7874015748031497,
          "duration": 0.16176462499998934
        },
        {
          "name": "D3",
          "midi": 50,
          "time": 156.180804262499,
          "velocity": 0.7874015748031497,
          "duration": 0.17205873750000933
        },
        {
          "name": "D2",
          "midi": 38,
          "time": 156.180804262499,
          "velocity": 0.7874015748031497,
          "duration": 0.17205873750000933
        },
        {
          "name": "D3",
          "midi": 50,
          "time": 156.35286299999902,
          "velocity": 0.7874015748031497,
          "duration": 0.16176462499998934
        },
        {
          "name": "D2",
          "midi": 38,
          "time": 156.35286299999902,
          "velocity": 0.7874015748031497,
          "duration": 0.16176462499998934
        },
        {
          "name": "D3",
          "midi": 50,
          "time": 156.533745262499,
          "velocity": 0.7874015748031497,
          "duration": 0.1529410999999925
        },
        {
          "name": "D2",
          "midi": 38,
          "time": 156.533745262499,
          "velocity": 0.7874015748031497,
          "duration": 0.1529410999999925
        },
        {
          "name": "G3",
          "midi": 55,
          "time": 156.70580399999898,
          "velocity": 0.7874015748031497,
          "duration": 0.17647049999999354
        },
        {
          "name": "G2",
          "midi": 43,
          "time": 156.70580399999898,
          "velocity": 0.7874015748031497,
          "duration": 0.17647049999999354
        },
        {
          "name": "D3",
          "midi": 50,
          "time": 156.88668626249898,
          "velocity": 0.7874015748031497,
          "duration": 0.505882100000008
        },
        {
          "name": "D2",
          "midi": 38,
          "time": 156.88668626249898,
          "velocity": 0.7874015748031497,
          "duration": 0.505882100000008
        },
        {
          "name": "E3",
          "midi": 52,
          "time": 157.41168599999898,
          "velocity": 0.7874015748031497,
          "duration": 0.31470572500001026
        },
        {
          "name": "E2",
          "midi": 40,
          "time": 157.41168599999898,
          "velocity": 0.7874015748031497,
          "duration": 0.28602926875001344
        }
      ],
      "controlChanges": {
        "7": [
          {
            "number": 7,
            "time": 0,
            "value": 0.8582677165354331
          }
        ],
        "10": [
          {
            "number": 10,
            "time": 0,
            "value": 1
          }
        ],
        "91": [
          {
            "number": 91,
            "time": 0,
            "value": 1
          }
        ],
        "93": [
          {
            "number": 93,
            "time": 0,
            "value": 1
          }
        ]
      },
      "id": 1,
      "name": "gUITARRA",
      "instrumentNumber": 30,
      "instrument": "distortion guitar",
      "instrumentFamily": "guitar",
      "channelNumber": 0,
      "isPercussion": false
    },
    {
      "startTime": 11.294112,
      "duration": 146.47051499999992,
      "length": 170,
      "notes": [
        {
          "name": "G5",
          "midi": 79,
          "time": 11.294112,
          "velocity": 0.8661417322834646,
          "duration": 0.17647050000000064
        },
        {
          "name": "G5",
          "midi": 79,
          "time": 11.4705825,
          "velocity": 0.8661417322834646,
          "duration": 0.3191174874999998
        },
        {
          "name": "G5",
          "midi": 79,
          "time": 11.818376443750001,
          "velocity": 0.8661417322834646,
          "duration": 0.3147057249999996
        },
        {
          "name": "G5",
          "midi": 79,
          "time": 12.17131744375,
          "velocity": 0.8661417322834646,
          "duration": 0.3147057249999996
        },
        {
          "name": "G5",
          "midi": 79,
          "time": 12.52425844375,
          "velocity": 0.8661417322834646,
          "duration": 0.3147057249999996
        },
        {
          "name": "E5",
          "midi": 76,
          "time": 12.87719944375,
          "velocity": 0.8661417322834646,
          "duration": 0.34338218125
        },
        {
          "name": "E5",
          "midi": 76,
          "time": 13.2352875,
          "velocity": 0.8661417322834646,
          "duration": 0.34779394375000017
        },
        {
          "name": "E5",
          "midi": 76,
          "time": 13.5882285,
          "velocity": 0.8661417322834646,
          "duration": 0.34779394375000017
        },
        {
          "name": "D5",
          "midi": 74,
          "time": 13.941169499999999,
          "velocity": 0.8661417322834646,
          "duration": 0.34779394375000017
        },
        {
          "name": "D5",
          "midi": 74,
          "time": 14.294110499999999,
          "velocity": 0.8661417322834646,
          "duration": 0.34779394375000017
        },
        {
          "name": "D5",
          "midi": 74,
          "time": 14.647051499999998,
          "velocity": 0.8661417322834646,
          "duration": 0.34779394375000017
        },
        {
          "name": "D5",
          "midi": 74,
          "time": 14.999992499999998,
          "velocity": 0.8661417322834646,
          "duration": 0.5345585562499995
        },
        {
          "name": "G5",
          "midi": 79,
          "time": 15.529403999999998,
          "velocity": 0.8661417322834646,
          "duration": 0.17132344374999953
        },
        {
          "name": "E5",
          "midi": 76,
          "time": 15.705874499999997,
          "velocity": 0.8661417322834646,
          "duration": 0.4963232812499996
        },
        {
          "name": "E5",
          "midi": 76,
          "time": 16.235285999999995,
          "velocity": 0.8661417322834646,
          "duration": 0.3529410000000013
        },
        {
          "name": "G5",
          "midi": 79,
          "time": 16.941167999999998,
          "velocity": 0.8661417322834646,
          "duration": 0.17647050000000064
        },
        {
          "name": "G5",
          "midi": 79,
          "time": 17.117638499999998,
          "velocity": 0.8661417322834646,
          "duration": 0.3191174875000016
        },
        {
          "name": "G5",
          "midi": 79,
          "time": 17.46543244375,
          "velocity": 0.8661417322834646,
          "duration": 0.3147057249999996
        },
        {
          "name": "G5",
          "midi": 79,
          "time": 17.81837344375,
          "velocity": 0.8661417322834646,
          "duration": 0.3147057249999996
        },
        {
          "name": "G5",
          "midi": 79,
          "time": 18.171314443750003,
          "velocity": 0.8661417322834646,
          "duration": 0.3147057249999996
        },
        {
          "name": "E5",
          "midi": 76,
          "time": 18.524255443750004,
          "velocity": 0.8661417322834646,
          "duration": 0.34338218125
        },
        {
          "name": "E5",
          "midi": 76,
          "time": 18.882343500000005,
          "velocity": 0.8661417322834646,
          "duration": 0.3477939437499984
        },
        {
          "name": "E5",
          "midi": 76,
          "time": 19.235284500000002,
          "velocity": 0.8661417322834646,
          "duration": 0.3477939437499984
        },
        {
          "name": "D5",
          "midi": 74,
          "time": 19.5882255,
          "velocity": 0.8661417322834646,
          "duration": 0.3477939437499984
        },
        {
          "name": "D5",
          "midi": 74,
          "time": 19.941166499999998,
          "velocity": 0.8661417322834646,
          "duration": 0.3477939437499984
        },
        {
          "name": "D5",
          "midi": 74,
          "time": 20.294107499999996,
          "velocity": 0.8661417322834646,
          "duration": 0.3477939437499984
        },
        {
          "name": "D5",
          "midi": 74,
          "time": 20.647048499999993,
          "velocity": 0.8661417322834646,
          "duration": 0.5345585562499977
        },
        {
          "name": "G5",
          "midi": 79,
          "time": 21.17645999999999,
          "velocity": 0.8661417322834646,
          "duration": 0.17132344374999775
        },
        {
          "name": "E5",
          "midi": 76,
          "time": 21.35293049999999,
          "velocity": 0.8661417322834646,
          "duration": 0.4963232812499996
        },
        {
          "name": "E5",
          "midi": 76,
          "time": 21.882341999999987,
          "velocity": 0.8661417322834646,
          "duration": 0.3529410000000013
        },
        {
          "name": "G5",
          "midi": 79,
          "time": 33.88233599999999,
          "velocity": 0.8661417322834646,
          "duration": 0.17647050000000064
        },
        {
          "name": "G5",
          "midi": 79,
          "time": 34.05880649999999,
          "velocity": 0.8661417322834646,
          "duration": 0.3191174875000016
        },
        {
          "name": "G5",
          "midi": 79,
          "time": 34.40660044374999,
          "velocity": 0.8661417322834646,
          "duration": 0.31470572500000316
        },
        {
          "name": "G5",
          "midi": 79,
          "time": 34.75954144374999,
          "velocity": 0.8661417322834646,
          "duration": 0.31470572500000316
        },
        {
          "name": "G5",
          "midi": 79,
          "time": 35.11248244374999,
          "velocity": 0.8661417322834646,
          "duration": 0.31470572500000316
        },
        {
          "name": "E5",
          "midi": 76,
          "time": 35.46542344374999,
          "velocity": 0.8661417322834646,
          "duration": 0.34338218125
        },
        {
          "name": "E5",
          "midi": 76,
          "time": 35.82351149999999,
          "velocity": 0.8661417322834646,
          "duration": 0.3477939437499984
        },
        {
          "name": "E5",
          "midi": 76,
          "time": 36.17645249999999,
          "velocity": 0.8661417322834646,
          "duration": 0.3477939437499984
        },
        {
          "name": "D5",
          "midi": 74,
          "time": 36.52939349999999,
          "velocity": 0.8661417322834646,
          "duration": 0.3477939437499984
        },
        {
          "name": "D5",
          "midi": 74,
          "time": 36.88233449999999,
          "velocity": 0.8661417322834646,
          "duration": 0.3477939437499984
        },
        {
          "name": "D5",
          "midi": 74,
          "time": 37.23527549999999,
          "velocity": 0.8661417322834646,
          "duration": 0.3477939437499984
        },
        {
          "name": "D5",
          "midi": 74,
          "time": 37.588216499999994,
          "velocity": 0.8661417322834646,
          "duration": 0.5345585562500048
        },
        {
          "name": "G5",
          "midi": 79,
          "time": 38.117627999999996,
          "velocity": 0.8661417322834646,
          "duration": 0.17132344375000486
        },
        {
          "name": "E5",
          "midi": 76,
          "time": 38.294098500000004,
          "velocity": 0.8661417322834646,
          "duration": 0.4963232812499996
        },
        {
          "name": "E5",
          "midi": 76,
          "time": 38.823510000000006,
          "velocity": 0.8661417322834646,
          "duration": 0.3529410000000013
        },
        {
          "name": "G5",
          "midi": 79,
          "time": 39.52939200000001,
          "velocity": 0.8661417322834646,
          "duration": 0.17647050000000064
        },
        {
          "name": "G5",
          "midi": 79,
          "time": 39.70586250000001,
          "velocity": 0.8661417322834646,
          "duration": 0.3191174875000016
        },
        {
          "name": "G5",
          "midi": 79,
          "time": 40.05365644375001,
          "velocity": 0.8661417322834646,
          "duration": 0.31470572500000316
        },
        {
          "name": "G5",
          "midi": 79,
          "time": 40.40659744375001,
          "velocity": 0.8661417322834646,
          "duration": 0.31470572500000316
        },
        {
          "name": "G5",
          "midi": 79,
          "time": 40.75953844375001,
          "velocity": 0.8661417322834646,
          "duration": 0.31470572500000316
        },
        {
          "name": "E5",
          "midi": 76,
          "time": 41.11247944375001,
          "velocity": 0.8661417322834646,
          "duration": 0.34338218125
        },
        {
          "name": "E5",
          "midi": 76,
          "time": 41.47056750000001,
          "velocity": 0.8661417322834646,
          "duration": 0.3477939437499984
        },
        {
          "name": "E5",
          "midi": 76,
          "time": 41.82350850000001,
          "velocity": 0.8661417322834646,
          "duration": 0.3477939437499984
        },
        {
          "name": "D5",
          "midi": 74,
          "time": 42.17644950000001,
          "velocity": 0.8661417322834646,
          "duration": 0.3477939437499984
        },
        {
          "name": "D5",
          "midi": 74,
          "time": 42.52939050000001,
          "velocity": 0.8661417322834646,
          "duration": 0.3477939437499984
        },
        {
          "name": "D5",
          "midi": 74,
          "time": 42.882331500000014,
          "velocity": 0.8661417322834646,
          "duration": 0.3477939437499984
        },
        {
          "name": "D5",
          "midi": 74,
          "time": 43.235272500000015,
          "velocity": 0.8661417322834646,
          "duration": 0.3529410000000013
        },
        {
          "name": "G5",
          "midi": 79,
          "time": 43.588213500000016,
          "velocity": 0.8661417322834646,
          "duration": 0.17647050000000064
        },
        {
          "name": "G5",
          "midi": 79,
          "time": 43.76468400000002,
          "velocity": 0.8661417322834646,
          "duration": 0.17132344374999775
        },
        {
          "name": "E5",
          "midi": 76,
          "time": 43.94115450000002,
          "velocity": 0.8661417322834646,
          "duration": 0.4963232812499996
        },
        {
          "name": "E5",
          "midi": 76,
          "time": 44.47056600000002,
          "velocity": 0.8661417322834646,
          "duration": 0.3529410000000013
        },
        {
          "name": "G5",
          "midi": 79,
          "time": 46.58821200000002,
          "velocity": 0.8661417322834646,
          "duration": 0.2573528125000024
        },
        {
          "name": "G5",
          "midi": 79,
          "time": 46.852917750000024,
          "velocity": 0.8661417322834646,
          "duration": 0.31470572500000316
        },
        {
          "name": "A5",
          "midi": 81,
          "time": 47.16174112500003,
          "velocity": 0.8661417322834646,
          "duration": 0.33382336250000577
        },
        {
          "name": "G5",
          "midi": 79,
          "time": 47.47056450000003,
          "velocity": 0.8661417322834646,
          "duration": 0.5345585562500048
        },
        {
          "name": "B5",
          "midi": 83,
          "time": 49.41174000000004,
          "velocity": 0.8661417322834646,
          "duration": 0.19044108125000037
        },
        {
          "name": "G5",
          "midi": 79,
          "time": 49.592622262500036,
          "velocity": 0.8661417322834646,
          "duration": 0.4007350937500007
        },
        {
          "name": "A5",
          "midi": 81,
          "time": 49.974239718750034,
          "velocity": 0.8661417322834646,
          "duration": 0.3529410000000013
        },
        {
          "name": "A5",
          "midi": 81,
          "time": 50.327180718750036,
          "velocity": 0.8661417322834646,
          "duration": 0.33382336249999867
        },
        {
          "name": "A5",
          "midi": 81,
          "time": 50.68012171875004,
          "velocity": 0.8661417322834646,
          "duration": 0.3720586375000039
        },
        {
          "name": "G5",
          "midi": 79,
          "time": 51.03306271875004,
          "velocity": 0.8661417322834646,
          "duration": 0.3720586375000039
        },
        {
          "name": "E5",
          "midi": 76,
          "time": 51.38600371875004,
          "velocity": 0.8661417322834646,
          "duration": 0.8110290062500027
        },
        {
          "name": "G5",
          "midi": 79,
          "time": 52.94115000000004,
          "velocity": 0.8661417322834646,
          "duration": 0.3529410000000013
        },
        {
          "name": "E5",
          "midi": 76,
          "time": 53.294091000000044,
          "velocity": 0.8661417322834646,
          "duration": 0.17647050000000064
        },
        {
          "name": "D5",
          "midi": 74,
          "time": 53.470561500000045,
          "velocity": 0.8661417322834646,
          "duration": 0.17647050000000064
        },
        {
          "name": "E5",
          "midi": 76,
          "time": 53.647032000000046,
          "velocity": 0.8661417322834646,
          "duration": 0.17647050000000064
        },
        {
          "name": "D5",
          "midi": 74,
          "time": 53.823502500000046,
          "velocity": 0.8661417322834646,
          "duration": 0.5345585562499977
        },
        {
          "name": "G5",
          "midi": 79,
          "time": 67.76467200000005,
          "velocity": 0.8661417322834646,
          "duration": 0.17647049999999354
        },
        {
          "name": "G5",
          "midi": 79,
          "time": 67.94114250000004,
          "velocity": 0.8661417322834646,
          "duration": 0.31911748749999447
        },
        {
          "name": "G5",
          "midi": 79,
          "time": 68.28893644375003,
          "velocity": 0.8661417322834646,
          "duration": 0.31470572499999605
        },
        {
          "name": "G5",
          "midi": 79,
          "time": 68.64187744375003,
          "velocity": 0.8661417322834646,
          "duration": 0.31470572499999605
        },
        {
          "name": "G5",
          "midi": 79,
          "time": 68.99481844375003,
          "velocity": 0.8661417322834646,
          "duration": 0.31470572499999605
        },
        {
          "name": "E5",
          "midi": 76,
          "time": 69.34775944375004,
          "velocity": 0.8661417322834646,
          "duration": 0.34338218124999287
        },
        {
          "name": "E5",
          "midi": 76,
          "time": 69.70584750000003,
          "velocity": 0.8661417322834646,
          "duration": 0.3477939437500055
        },
        {
          "name": "E5",
          "midi": 76,
          "time": 70.05878850000003,
          "velocity": 0.8661417322834646,
          "duration": 0.3477939437500055
        },
        {
          "name": "D5",
          "midi": 74,
          "time": 70.41172950000004,
          "velocity": 0.8661417322834646,
          "duration": 0.3477939437500055
        },
        {
          "name": "D5",
          "midi": 74,
          "time": 70.76467050000004,
          "velocity": 0.8661417322834646,
          "duration": 0.3477939437500055
        },
        {
          "name": "D5",
          "midi": 74,
          "time": 71.11761150000004,
          "velocity": 0.8661417322834646,
          "duration": 0.3477939437500055
        },
        {
          "name": "G5",
          "midi": 79,
          "time": 71.47055250000004,
          "velocity": 0.8661417322834646,
          "duration": 0.4963232812499996
        },
        {
          "name": "G5",
          "midi": 79,
          "time": 71.99996400000003,
          "velocity": 0.8661417322834646,
          "duration": 0.17132344374999775
        },
        {
          "name": "E5",
          "midi": 76,
          "time": 72.17643450000003,
          "velocity": 0.8661417322834646,
          "duration": 0.4963232812499996
        },
        {
          "name": "E5",
          "midi": 76,
          "time": 72.70584600000002,
          "velocity": 0.8661417322834646,
          "duration": 0.3529410000000013
        },
        {
          "name": "G5",
          "midi": 79,
          "time": 73.41172800000002,
          "velocity": 0.8661417322834646,
          "duration": 0.17647049999999354
        },
        {
          "name": "G5",
          "midi": 79,
          "time": 73.58819850000002,
          "velocity": 0.8661417322834646,
          "duration": 0.31911748749999447
        },
        {
          "name": "G5",
          "midi": 79,
          "time": 73.93599244375001,
          "velocity": 0.8661417322834646,
          "duration": 0.31470572499999605
        },
        {
          "name": "G5",
          "midi": 79,
          "time": 74.28893344375001,
          "velocity": 0.8661417322834646,
          "duration": 0.31470572499999605
        },
        {
          "name": "G5",
          "midi": 79,
          "time": 74.64187444375001,
          "velocity": 0.8661417322834646,
          "duration": 0.31470572499999605
        },
        {
          "name": "E5",
          "midi": 76,
          "time": 74.99481544375001,
          "velocity": 0.8661417322834646,
          "duration": 0.3433821812500071
        },
        {
          "name": "E5",
          "midi": 76,
          "time": 75.35290350000002,
          "velocity": 0.8661417322834646,
          "duration": 0.3477939437500055
        },
        {
          "name": "E5",
          "midi": 76,
          "time": 75.70584450000003,
          "velocity": 0.8661417322834646,
          "duration": 0.3477939437500055
        },
        {
          "name": "D5",
          "midi": 74,
          "time": 76.05878550000003,
          "velocity": 0.8661417322834646,
          "duration": 0.3477939437500055
        },
        {
          "name": "D5",
          "midi": 74,
          "time": 76.41172650000003,
          "velocity": 0.8661417322834646,
          "duration": 0.3477939437500055
        },
        {
          "name": "D5",
          "midi": 74,
          "time": 76.76466750000003,
          "velocity": 0.8661417322834646,
          "duration": 0.3477939437500055
        },
        {
          "name": "G5",
          "midi": 79,
          "time": 77.11760850000003,
          "velocity": 0.8661417322834646,
          "duration": 0.33382336249999867
        },
        {
          "name": "G5",
          "midi": 79,
          "time": 77.47054950000003,
          "velocity": 0.8661417322834646,
          "duration": 0.17647049999999354
        },
        {
          "name": "G5",
          "midi": 79,
          "time": 77.64702000000003,
          "velocity": 0.8661417322834646,
          "duration": 0.17132344374999775
        },
        {
          "name": "E5",
          "midi": 76,
          "time": 77.82349050000002,
          "velocity": 0.8661417322834646,
          "duration": 0.4963232812499996
        },
        {
          "name": "E5",
          "midi": 76,
          "time": 78.35290200000001,
          "velocity": 0.8661417322834646,
          "duration": 0.3529410000000013
        },
        {
          "name": "G5",
          "midi": 79,
          "time": 112.95950234375002,
          "velocity": 0.8661417322834646,
          "duration": 0.08823524999999677
        },
        {
          "name": "G5",
          "midi": 79,
          "time": 113.11759050000002,
          "velocity": 0.8661417322834646,
          "duration": 0.31911748749999447
        },
        {
          "name": "G5",
          "midi": 79,
          "time": 113.46538444375001,
          "velocity": 0.8661417322834646,
          "duration": 0.31470572499999605
        },
        {
          "name": "G5",
          "midi": 79,
          "time": 113.81832544375001,
          "velocity": 0.8661417322834646,
          "duration": 0.31470572499999605
        },
        {
          "name": "G5",
          "midi": 79,
          "time": 114.17126644375001,
          "velocity": 0.8661417322834646,
          "duration": 0.31470572499999605
        },
        {
          "name": "E5",
          "midi": 76,
          "time": 114.52420744375002,
          "velocity": 0.8661417322834646,
          "duration": 0.3433821812500071
        },
        {
          "name": "E5",
          "midi": 76,
          "time": 114.88229550000003,
          "velocity": 0.8661417322834646,
          "duration": 0.3477939437500055
        },
        {
          "name": "E5",
          "midi": 76,
          "time": 115.23523650000003,
          "velocity": 0.8661417322834646,
          "duration": 0.3477939437500055
        },
        {
          "name": "D5",
          "midi": 74,
          "time": 115.58817750000003,
          "velocity": 0.8661417322834646,
          "duration": 0.3477939437500055
        },
        {
          "name": "D5",
          "midi": 74,
          "time": 115.94111850000003,
          "velocity": 0.8661417322834646,
          "duration": 0.3477939437500055
        },
        {
          "name": "D5",
          "midi": 74,
          "time": 116.29405950000003,
          "velocity": 0.8661417322834646,
          "duration": 0.3477939437500055
        },
        {
          "name": "G5",
          "midi": 79,
          "time": 116.64700050000003,
          "velocity": 0.8661417322834646,
          "duration": 0.4963232812499996
        },
        {
          "name": "G5",
          "midi": 79,
          "time": 117.17641200000003,
          "velocity": 0.8661417322834646,
          "duration": 0.17132344374999775
        },
        {
          "name": "E5",
          "midi": 76,
          "time": 117.35288250000002,
          "velocity": 0.8661417322834646,
          "duration": 0.4963232812499996
        },
        {
          "name": "E5",
          "midi": 76,
          "time": 117.88229400000002,
          "velocity": 0.8661417322834646,
          "duration": 0.3529410000000013
        },
        {
          "name": "G5",
          "midi": 79,
          "time": 118.58817600000002,
          "velocity": 0.8661417322834646,
          "duration": 0.17647049999999354
        },
        {
          "name": "G5",
          "midi": 79,
          "time": 118.76464650000001,
          "velocity": 0.8661417322834646,
          "duration": 0.31911748749999447
        },
        {
          "name": "G5",
          "midi": 79,
          "time": 119.11244044375,
          "velocity": 0.8661417322834646,
          "duration": 0.31470572499999605
        },
        {
          "name": "G5",
          "midi": 79,
          "time": 119.46538144375,
          "velocity": 0.8661417322834646,
          "duration": 0.31470572499999605
        },
        {
          "name": "G5",
          "midi": 79,
          "time": 119.81832244375,
          "velocity": 0.8661417322834646,
          "duration": 0.31470572499999605
        },
        {
          "name": "E5",
          "midi": 76,
          "time": 120.17126344375001,
          "velocity": 0.8661417322834646,
          "duration": 0.3433821812500071
        },
        {
          "name": "E5",
          "midi": 76,
          "time": 120.52935150000002,
          "velocity": 0.8661417322834646,
          "duration": 0.3477939437500055
        },
        {
          "name": "E5",
          "midi": 76,
          "time": 120.88229250000002,
          "velocity": 0.8661417322834646,
          "duration": 0.3477939437500055
        },
        {
          "name": "D5",
          "midi": 74,
          "time": 121.23523350000002,
          "velocity": 0.8661417322834646,
          "duration": 0.3477939437500055
        },
        {
          "name": "D5",
          "midi": 74,
          "time": 121.58817450000002,
          "velocity": 0.8661417322834646,
          "duration": 0.3477939437500055
        },
        {
          "name": "D5",
          "midi": 74,
          "time": 121.94111550000002,
          "velocity": 0.8661417322834646,
          "duration": 0.3477939437500055
        },
        {
          "name": "D5",
          "midi": 74,
          "time": 122.29405650000002,
          "velocity": 0.8661417322834646,
          "duration": 0.3529410000000013
        },
        {
          "name": "G5",
          "midi": 79,
          "time": 122.64699750000003,
          "velocity": 0.8661417322834646,
          "duration": 0.17647049999999354
        },
        {
          "name": "G5",
          "midi": 79,
          "time": 122.82346800000002,
          "velocity": 0.8661417322834646,
          "duration": 0.17132344374999775
        },
        {
          "name": "E5",
          "midi": 76,
          "time": 122.99993850000001,
          "velocity": 0.8661417322834646,
          "duration": 0.4963232812499996
        },
        {
          "name": "E5",
          "midi": 76,
          "time": 123.52935000000001,
          "velocity": 0.8661417322834646,
          "duration": 0.3529410000000013
        },
        {
          "name": "G5",
          "midi": 79,
          "time": 135.529344,
          "velocity": 0.8661417322834646,
          "duration": 0.17647049999999354
        },
        {
          "name": "G5",
          "midi": 79,
          "time": 135.7058145,
          "velocity": 0.8661417322834646,
          "duration": 0.31911748749999447
        },
        {
          "name": "G5",
          "midi": 79,
          "time": 136.05360844375,
          "velocity": 0.8661417322834646,
          "duration": 0.31470572500001026
        },
        {
          "name": "G5",
          "midi": 79,
          "time": 136.40654944375,
          "velocity": 0.8661417322834646,
          "duration": 0.31470572500001026
        },
        {
          "name": "G5",
          "midi": 79,
          "time": 136.75949044375002,
          "velocity": 0.8661417322834646,
          "duration": 0.31470572500001026
        },
        {
          "name": "E5",
          "midi": 76,
          "time": 137.11243144375004,
          "velocity": 0.8661417322834646,
          "duration": 0.3433821812500071
        },
        {
          "name": "E5",
          "midi": 76,
          "time": 137.47051950000005,
          "velocity": 0.8661417322834646,
          "duration": 0.3477939437499913
        },
        {
          "name": "E5",
          "midi": 76,
          "time": 137.82346050000004,
          "velocity": 0.8661417322834646,
          "duration": 0.3477939437499913
        },
        {
          "name": "D5",
          "midi": 74,
          "time": 138.17640150000003,
          "velocity": 0.8661417322834646,
          "duration": 0.3477939437499913
        },
        {
          "name": "D5",
          "midi": 74,
          "time": 138.5293425,
          "velocity": 0.8661417322834646,
          "duration": 0.3477939437499913
        },
        {
          "name": "D5",
          "midi": 74,
          "time": 138.8822835,
          "velocity": 0.8661417322834646,
          "duration": 0.3477939437499913
        },
        {
          "name": "D5",
          "midi": 74,
          "time": 139.2352245,
          "velocity": 0.8661417322834646,
          "duration": 0.5345585562500048
        },
        {
          "name": "G5",
          "midi": 79,
          "time": 139.764636,
          "velocity": 0.8661417322834646,
          "duration": 0.17132344374999775
        },
        {
          "name": "E5",
          "midi": 76,
          "time": 139.9411065,
          "velocity": 0.8661417322834646,
          "duration": 0.4963232812499996
        },
        {
          "name": "E5",
          "midi": 76,
          "time": 140.470518,
          "velocity": 0.8661417322834646,
          "duration": 0.35294099999998707
        },
        {
          "name": "G5",
          "midi": 79,
          "time": 141.17639999999997,
          "velocity": 0.8661417322834646,
          "duration": 0.17647049999999354
        },
        {
          "name": "G5",
          "midi": 79,
          "time": 141.35287049999997,
          "velocity": 0.8661417322834646,
          "duration": 0.31911748749999447
        },
        {
          "name": "G5",
          "midi": 79,
          "time": 141.70066444374996,
          "velocity": 0.8661417322834646,
          "duration": 0.31470572500001026
        },
        {
          "name": "G5",
          "midi": 79,
          "time": 142.05360544374997,
          "velocity": 0.8661417322834646,
          "duration": 0.31470572500001026
        },
        {
          "name": "G5",
          "midi": 79,
          "time": 142.40654644375,
          "velocity": 0.8661417322834646,
          "duration": 0.31470572500001026
        },
        {
          "name": "E5",
          "midi": 76,
          "time": 142.75948744375,
          "velocity": 0.8661417322834646,
          "duration": 0.3433821812500071
        },
        {
          "name": "E5",
          "midi": 76,
          "time": 143.11757550000002,
          "velocity": 0.8661417322834646,
          "duration": 0.3477939437499913
        },
        {
          "name": "E5",
          "midi": 76,
          "time": 143.4705165,
          "velocity": 0.8661417322834646,
          "duration": 0.3477939437499913
        },
        {
          "name": "D5",
          "midi": 74,
          "time": 143.8234575,
          "velocity": 0.8661417322834646,
          "duration": 0.3477939437499913
        },
        {
          "name": "D5",
          "midi": 74,
          "time": 144.17639849999998,
          "velocity": 0.8661417322834646,
          "duration": 0.3477939437499913
        },
        {
          "name": "D5",
          "midi": 74,
          "time": 144.52933949999996,
          "velocity": 0.8661417322834646,
          "duration": 0.3477939437499913
        },
        {
          "name": "G5",
          "midi": 79,
          "time": 144.88228049999995,
          "velocity": 0.8661417322834646,
          "duration": 0.35294099999998707
        },
        {
          "name": "G5",
          "midi": 79,
          "time": 145.23522149999994,
          "velocity": 0.8661417322834646,
          "duration": 0.17647049999999354
        },
        {
          "name": "G5",
          "midi": 79,
          "time": 145.41169199999993,
          "velocity": 0.8661417322834646,
          "duration": 0.17132344374999775
        },
        {
          "name": "E5",
          "midi": 76,
          "time": 145.58816249999992,
          "velocity": 0.8661417322834646,
          "duration": 0.4963232812499996
        },
        {
          "name": "E5",
          "midi": 76,
          "time": 146.11757399999993,
          "velocity": 0.8661417322834646,
          "duration": 0.35294099999998707
        }
      ],
      "controlChanges": {
        "7": [
          {
            "number": 7,
            "time": 0,
            "value": 0.7401574803149606
          }
        ],
        "10": [
          {
            "number": 10,
            "time": 0,
            "value": 0.6614173228346457
          }
        ],
        "91": [
          {
            "number": 91,
            "time": 0,
            "value": 1
          }
        ]
      },
      "id": 2,
      "name": "vOZ",
      "instrumentNumber": 85,
      "instrument": "lead 6 (voice)",
      "instrumentFamily": "synth lead",
      "channelNumber": 1,
      "isPercussion": false
    },
    {
      "startTime": 2.823528,
      "duration": 157.58815650000076,
      "length": 907,
      "notes": [
        {
          "name": "A#2",
          "midi": 46,
          "time": 2.823528,
          "velocity": 0.7874015748031497,
          "duration": 0.13308816875000007
        },
        {
          "name": "A#2",
          "midi": 46,
          "time": 3.176469,
          "velocity": 0.7874015748031497,
          "duration": 0.13308816875000007
        },
        {
          "name": "A#2",
          "midi": 46,
          "time": 3.52941,
          "velocity": 0.7874015748031497,
          "duration": 0.13308816875000007
        },
        {
          "name": "A#2",
          "midi": 46,
          "time": 3.882351,
          "velocity": 0.7874015748031497,
          "duration": 0.13308816874999962
        },
        {
          "name": "A#2",
          "midi": 46,
          "time": 4.235291999999999,
          "velocity": 0.7874015748031497,
          "duration": 0.13308816874999962
        },
        {
          "name": "A#2",
          "midi": 46,
          "time": 4.588232999999999,
          "velocity": 0.7874015748031497,
          "duration": 0.13308816874999962
        },
        {
          "name": "A#2",
          "midi": 46,
          "time": 4.941173999999998,
          "velocity": 0.7874015748031497,
          "duration": 0.13308816874999962
        },
        {
          "name": "D2",
          "midi": 38,
          "time": 5.294114999999998,
          "velocity": 0.7874015748031497,
          "duration": 0.08823525000000032
        },
        {
          "name": "E2",
          "midi": 40,
          "time": 5.294114999999998,
          "velocity": 0.7874015748031497,
          "duration": 0.08823525000000032
        },
        {
          "name": "A#2",
          "midi": 46,
          "time": 5.637497181249998,
          "velocity": 0.7874015748031497,
          "duration": 0.26691163125000106
        },
        {
          "name": "C2",
          "midi": 36,
          "time": 5.647055999999998,
          "velocity": 0.7874015748031497,
          "duration": 0.08823525000000032
        },
        {
          "name": "C#3",
          "midi": 49,
          "time": 5.647055999999998,
          "velocity": 0.7874015748031497,
          "duration": 0.286029268750001
        },
        {
          "name": "A#2",
          "midi": 46,
          "time": 5.999997,
          "velocity": 0.7874015748031497,
          "duration": 0.04411762500000016
        },
        {
          "name": "D2",
          "midi": 38,
          "time": 5.999997,
          "velocity": 0.7874015748031497,
          "duration": 0.08823525000000032
        },
        {
          "name": "A#2",
          "midi": 46,
          "time": 6.352938,
          "velocity": 0.7874015748031497,
          "duration": 0.04411762500000016
        },
        {
          "name": "C2",
          "midi": 36,
          "time": 6.352938,
          "velocity": 0.7874015748031497,
          "duration": 0.08823525000000032
        },
        {
          "name": "A#2",
          "midi": 46,
          "time": 6.705879,
          "velocity": 0.7874015748031497,
          "duration": 0.04411762500000016
        },
        {
          "name": "D2",
          "midi": 38,
          "time": 6.705879,
          "velocity": 0.7874015748031497,
          "duration": 0.08823525000000032
        },
        {
          "name": "A#2",
          "midi": 46,
          "time": 7.058820000000001,
          "velocity": 0.7874015748031497,
          "duration": 0.04411762500000016
        },
        {
          "name": "C2",
          "midi": 36,
          "time": 7.058820000000001,
          "velocity": 0.7874015748031497,
          "duration": 0.08823525000000032
        },
        {
          "name": "A#2",
          "midi": 46,
          "time": 7.411761000000001,
          "velocity": 0.7874015748031497,
          "duration": 0.04411762500000016
        },
        {
          "name": "D2",
          "midi": 38,
          "time": 7.411761000000001,
          "velocity": 0.7874015748031497,
          "duration": 0.08823525000000032
        },
        {
          "name": "A#2",
          "midi": 46,
          "time": 7.7647020000000015,
          "velocity": 0.7874015748031497,
          "duration": 0.04411762500000016
        },
        {
          "name": "C2",
          "midi": 36,
          "time": 7.7647020000000015,
          "velocity": 0.7874015748031497,
          "duration": 0.08823525000000032
        },
        {
          "name": "A#2",
          "midi": 46,
          "time": 8.117643000000001,
          "velocity": 0.7874015748031497,
          "duration": 0.04411762500000016
        },
        {
          "name": "D2",
          "midi": 38,
          "time": 8.117643000000001,
          "velocity": 0.7874015748031497,
          "duration": 0.08823525000000032
        },
        {
          "name": "A#2",
          "midi": 46,
          "time": 8.470584,
          "velocity": 0.7874015748031497,
          "duration": 0.04411762500000016
        },
        {
          "name": "C2",
          "midi": 36,
          "time": 8.470584,
          "velocity": 0.7874015748031497,
          "duration": 0.08823525000000032
        },
        {
          "name": "A#2",
          "midi": 46,
          "time": 8.823525,
          "velocity": 0.7874015748031497,
          "duration": 0.04411762500000016
        },
        {
          "name": "D2",
          "midi": 38,
          "time": 8.823525,
          "velocity": 0.7874015748031497,
          "duration": 0.08823525000000032
        },
        {
          "name": "A#2",
          "midi": 46,
          "time": 9.176466,
          "velocity": 0.7874015748031497,
          "duration": 0.04411762500000016
        },
        {
          "name": "C2",
          "midi": 36,
          "time": 9.176466,
          "velocity": 0.7874015748031497,
          "duration": 0.08823525000000032
        },
        {
          "name": "A#2",
          "midi": 46,
          "time": 9.529406999999999,
          "velocity": 0.7874015748031497,
          "duration": 0.04411762500000016
        },
        {
          "name": "D2",
          "midi": 38,
          "time": 9.529406999999999,
          "velocity": 0.7874015748031497,
          "duration": 0.08823525000000032
        },
        {
          "name": "A#2",
          "midi": 46,
          "time": 9.882347999999999,
          "velocity": 0.7874015748031497,
          "duration": 0.04411762500000016
        },
        {
          "name": "C2",
          "midi": 36,
          "time": 9.882347999999999,
          "velocity": 0.7874015748031497,
          "duration": 0.08823525000000032
        },
        {
          "name": "A#2",
          "midi": 46,
          "time": 10.235288999999998,
          "velocity": 0.7874015748031497,
          "duration": 0.04411762500000016
        },
        {
          "name": "D2",
          "midi": 38,
          "time": 10.235288999999998,
          "velocity": 0.7874015748031497,
          "duration": 0.08823525000000032
        },
        {
          "name": "A#2",
          "midi": 46,
          "time": 10.588229999999998,
          "velocity": 0.7874015748031497,
          "duration": 0.04411762500000016
        },
        {
          "name": "C2",
          "midi": 36,
          "time": 10.588229999999998,
          "velocity": 0.7874015748031497,
          "duration": 0.08823525000000032
        },
        {
          "name": "A#2",
          "midi": 46,
          "time": 10.941170999999997,
          "velocity": 0.7874015748031497,
          "duration": 0.04411762500000016
        },
        {
          "name": "D2",
          "midi": 38,
          "time": 10.941170999999997,
          "velocity": 0.7874015748031497,
          "duration": 0.08823525000000032
        },
        {
          "name": "D2",
          "midi": 38,
          "time": 11.036023893749997,
          "velocity": 0.7874015748031497,
          "duration": 0.04411762500000016
        },
        {
          "name": "D2",
          "midi": 38,
          "time": 11.122053262499996,
          "velocity": 0.7874015748031497,
          "duration": 0.04411762500000016
        },
        {
          "name": "D2",
          "midi": 38,
          "time": 11.198523812499996,
          "velocity": 0.7874015748031497,
          "duration": 0.04411762500000016
        },
        {
          "name": "C2",
          "midi": 36,
          "time": 11.294111999999997,
          "velocity": 0.7874015748031497,
          "duration": 0.08823525000000032
        },
        {
          "name": "C#3",
          "midi": 49,
          "time": 11.312494343749997,
          "velocity": 0.7874015748031497,
          "duration": 0.04411762500000016
        },
        {
          "name": "A#2",
          "midi": 46,
          "time": 11.647052999999996,
          "velocity": 0.7874015748031497,
          "duration": 0.04411762500000016
        },
        {
          "name": "D2",
          "midi": 38,
          "time": 11.647052999999996,
          "velocity": 0.7874015748031497,
          "duration": 0.08823525000000032
        },
        {
          "name": "A#2",
          "midi": 46,
          "time": 11.999993999999996,
          "velocity": 0.7874015748031497,
          "duration": 0.04411762500000016
        },
        {
          "name": "C2",
          "midi": 36,
          "time": 11.999993999999996,
          "velocity": 0.7874015748031497,
          "duration": 0.08823525000000032
        },
        {
          "name": "A#2",
          "midi": 46,
          "time": 12.352934999999995,
          "velocity": 0.7874015748031497,
          "duration": 0.04411762500000016
        },
        {
          "name": "D2",
          "midi": 38,
          "time": 12.352934999999995,
          "velocity": 0.7874015748031497,
          "duration": 0.08823525000000032
        },
        {
          "name": "A#2",
          "midi": 46,
          "time": 12.705875999999995,
          "velocity": 0.7874015748031497,
          "duration": 0.04411762500000016
        },
        {
          "name": "C2",
          "midi": 36,
          "time": 12.705875999999995,
          "velocity": 0.7874015748031497,
          "duration": 0.08823525000000032
        },
        {
          "name": "A#2",
          "midi": 46,
          "time": 13.058816999999994,
          "velocity": 0.7874015748031497,
          "duration": 0.04411762500000016
        },
        {
          "name": "D2",
          "midi": 38,
          "time": 13.058816999999994,
          "velocity": 0.7874015748031497,
          "duration": 0.08823525000000032
        },
        {
          "name": "A#2",
          "midi": 46,
          "time": 13.411757999999994,
          "velocity": 0.7874015748031497,
          "duration": 0.04411762500000016
        },
        {
          "name": "C2",
          "midi": 36,
          "time": 13.411757999999994,
          "velocity": 0.7874015748031497,
          "duration": 0.08823525000000032
        },
        {
          "name": "A#2",
          "midi": 46,
          "time": 13.764698999999993,
          "velocity": 0.7874015748031497,
          "duration": 0.04411762500000016
        },
        {
          "name": "D2",
          "midi": 38,
          "time": 13.764698999999993,
          "velocity": 0.7874015748031497,
          "duration": 0.08823525000000032
        },
        {
          "name": "A#2",
          "midi": 46,
          "time": 14.117639999999993,
          "velocity": 0.7874015748031497,
          "duration": 0.04411762500000016
        },
        {
          "name": "C2",
          "midi": 36,
          "time": 14.117639999999993,
          "velocity": 0.7874015748031497,
          "duration": 0.08823525000000032
        },
        {
          "name": "A#2",
          "midi": 46,
          "time": 14.470580999999992,
          "velocity": 0.7874015748031497,
          "duration": 0.04411762500000016
        },
        {
          "name": "D2",
          "midi": 38,
          "time": 14.470580999999992,
          "velocity": 0.7874015748031497,
          "duration": 0.08823525000000032
        },
        {
          "name": "A#2",
          "midi": 46,
          "time": 14.823521999999992,
          "velocity": 0.7874015748031497,
          "duration": 0.04411762500000016
        },
        {
          "name": "C2",
          "midi": 36,
          "time": 14.823521999999992,
          "velocity": 0.7874015748031497,
          "duration": 0.08823525000000032
        },
        {
          "name": "A#2",
          "midi": 46,
          "time": 15.176462999999991,
          "velocity": 0.7874015748031497,
          "duration": 0.04411762500000016
        },
        {
          "name": "D2",
          "midi": 38,
          "time": 15.176462999999991,
          "velocity": 0.7874015748031497,
          "duration": 0.08823525000000032
        },
        {
          "name": "D2",
          "midi": 38,
          "time": 15.52940399999999,
          "velocity": 0.7874015748031497,
          "duration": 0.08823525000000032
        },
        {
          "name": "E2",
          "midi": 40,
          "time": 15.52940399999999,
          "velocity": 0.7874015748031497,
          "duration": 0.04411762500000016
        },
        {
          "name": "C2",
          "midi": 36,
          "time": 15.710286262499991,
          "velocity": 0.7874015748031497,
          "duration": 0.04411762500000016
        },
        {
          "name": "C#3",
          "midi": 49,
          "time": 15.710286262499991,
          "velocity": 0.7874015748031497,
          "duration": 0.17647050000000064
        },
        {
          "name": "C#3",
          "midi": 49,
          "time": 16.23528599999999,
          "velocity": 0.7874015748031497,
          "duration": 0.08823525000000032
        },
        {
          "name": "C2",
          "midi": 36,
          "time": 16.23528599999999,
          "velocity": 0.7874015748031497,
          "duration": 0.17647050000000064
        },
        {
          "name": "D2",
          "midi": 38,
          "time": 16.588226999999993,
          "velocity": 0.7874015748031497,
          "duration": 0.08823525000000032
        },
        {
          "name": "E2",
          "midi": 40,
          "time": 16.588226999999993,
          "velocity": 0.7874015748031497,
          "duration": 0.08823525000000032
        },
        {
          "name": "C2",
          "midi": 36,
          "time": 16.941167999999994,
          "velocity": 0.7874015748031497,
          "duration": 0.08823525000000032
        },
        {
          "name": "C#3",
          "midi": 49,
          "time": 16.959550343749996,
          "velocity": 0.7874015748031497,
          "duration": 0.044117624999998384
        },
        {
          "name": "A#2",
          "midi": 46,
          "time": 17.294108999999995,
          "velocity": 0.7874015748031497,
          "duration": 0.044117624999998384
        },
        {
          "name": "D2",
          "midi": 38,
          "time": 17.294108999999995,
          "velocity": 0.7874015748031497,
          "duration": 0.08823524999999677
        },
        {
          "name": "A#2",
          "midi": 46,
          "time": 17.647049999999993,
          "velocity": 0.7874015748031497,
          "duration": 0.044117624999998384
        },
        {
          "name": "C2",
          "midi": 36,
          "time": 17.647049999999993,
          "velocity": 0.7874015748031497,
          "duration": 0.08823524999999677
        },
        {
          "name": "A#2",
          "midi": 46,
          "time": 17.99999099999999,
          "velocity": 0.7874015748031497,
          "duration": 0.044117624999998384
        },
        {
          "name": "D2",
          "midi": 38,
          "time": 17.99999099999999,
          "velocity": 0.7874015748031497,
          "duration": 0.08823524999999677
        },
        {
          "name": "A#2",
          "midi": 46,
          "time": 18.35293199999999,
          "velocity": 0.7874015748031497,
          "duration": 0.044117624999998384
        },
        {
          "name": "C2",
          "midi": 36,
          "time": 18.35293199999999,
          "velocity": 0.7874015748031497,
          "duration": 0.08823524999999677
        },
        {
          "name": "A#2",
          "midi": 46,
          "time": 18.705872999999986,
          "velocity": 0.7874015748031497,
          "duration": 0.044117624999998384
        },
        {
          "name": "D2",
          "midi": 38,
          "time": 18.705872999999986,
          "velocity": 0.7874015748031497,
          "duration": 0.08823524999999677
        },
        {
          "name": "A#2",
          "midi": 46,
          "time": 19.058813999999984,
          "velocity": 0.7874015748031497,
          "duration": 0.044117624999998384
        },
        {
          "name": "C2",
          "midi": 36,
          "time": 19.058813999999984,
          "velocity": 0.7874015748031497,
          "duration": 0.08823524999999677
        },
        {
          "name": "A#2",
          "midi": 46,
          "time": 19.41175499999998,
          "velocity": 0.7874015748031497,
          "duration": 0.044117624999998384
        },
        {
          "name": "D2",
          "midi": 38,
          "time": 19.41175499999998,
          "velocity": 0.7874015748031497,
          "duration": 0.08823524999999677
        },
        {
          "name": "A#2",
          "midi": 46,
          "time": 19.76469599999998,
          "velocity": 0.7874015748031497,
          "duration": 0.044117624999998384
        },
        {
          "name": "C2",
          "midi": 36,
          "time": 19.76469599999998,
          "velocity": 0.7874015748031497,
          "duration": 0.08823524999999677
        },
        {
          "name": "A#2",
          "midi": 46,
          "time": 20.117636999999977,
          "velocity": 0.7874015748031497,
          "duration": 0.044117624999998384
        },
        {
          "name": "D2",
          "midi": 38,
          "time": 20.117636999999977,
          "velocity": 0.7874015748031497,
          "duration": 0.08823524999999677
        },
        {
          "name": "A#2",
          "midi": 46,
          "time": 20.470577999999975,
          "velocity": 0.7874015748031497,
          "duration": 0.044117624999998384
        },
        {
          "name": "C2",
          "midi": 36,
          "time": 20.470577999999975,
          "velocity": 0.7874015748031497,
          "duration": 0.08823524999999677
        },
        {
          "name": "A#2",
          "midi": 46,
          "time": 20.823518999999973,
          "velocity": 0.7874015748031497,
          "duration": 0.044117624999998384
        },
        {
          "name": "D2",
          "midi": 38,
          "time": 20.823518999999973,
          "velocity": 0.7874015748031497,
          "duration": 0.08823524999999677
        },
        {
          "name": "D2",
          "midi": 38,
          "time": 21.17645999999997,
          "velocity": 0.7874015748031497,
          "duration": 0.08823524999999677
        },
        {
          "name": "E2",
          "midi": 40,
          "time": 21.17645999999997,
          "velocity": 0.7874015748031497,
          "duration": 0.044117624999998384
        },
        {
          "name": "C2",
          "midi": 36,
          "time": 21.357342262499966,
          "velocity": 0.7874015748031497,
          "duration": 0.044117624999998384
        },
        {
          "name": "C#3",
          "midi": 49,
          "time": 21.357342262499966,
          "velocity": 0.7874015748031497,
          "duration": 0.1764704999999971
        },
        {
          "name": "C#3",
          "midi": 49,
          "time": 21.882341999999962,
          "velocity": 0.7874015748031497,
          "duration": 0.08823525000000032
        },
        {
          "name": "C2",
          "midi": 36,
          "time": 21.882341999999962,
          "velocity": 0.7874015748031497,
          "duration": 0.17647050000000064
        },
        {
          "name": "D2",
          "midi": 38,
          "time": 22.235282999999963,
          "velocity": 0.7874015748031497,
          "duration": 0.08823525000000032
        },
        {
          "name": "E2",
          "midi": 40,
          "time": 22.235282999999963,
          "velocity": 0.7874015748031497,
          "duration": 0.08823525000000032
        },
        {
          "name": "C2",
          "midi": 36,
          "time": 22.588223999999965,
          "velocity": 0.8661417322834646,
          "duration": 0.08823525000000032
        },
        {
          "name": "C#3",
          "midi": 49,
          "time": 22.597047524999965,
          "velocity": 0.8661417322834646,
          "duration": 0.044117624999998384
        },
        {
          "name": "A#2",
          "midi": 46,
          "time": 22.941164999999966,
          "velocity": 0.7874015748031497,
          "duration": 0.044117624999998384
        },
        {
          "name": "D2",
          "midi": 38,
          "time": 22.941164999999966,
          "velocity": 0.8661417322834646,
          "duration": 0.08823524999999677
        },
        {
          "name": "A#2",
          "midi": 46,
          "time": 23.294105999999964,
          "velocity": 0.7874015748031497,
          "duration": 0.044117624999998384
        },
        {
          "name": "C2",
          "midi": 36,
          "time": 23.294105999999964,
          "velocity": 0.7874015748031497,
          "duration": 0.08823524999999677
        },
        {
          "name": "A#2",
          "midi": 46,
          "time": 23.64704699999996,
          "velocity": 0.7874015748031497,
          "duration": 0.044117624999998384
        },
        {
          "name": "D2",
          "midi": 38,
          "time": 23.64704699999996,
          "velocity": 0.7874015748031497,
          "duration": 0.08823524999999677
        },
        {
          "name": "A#2",
          "midi": 46,
          "time": 23.99998799999996,
          "velocity": 0.8661417322834646,
          "duration": 0.044117624999998384
        },
        {
          "name": "C2",
          "midi": 36,
          "time": 23.99998799999996,
          "velocity": 0.8661417322834646,
          "duration": 0.08823524999999677
        },
        {
          "name": "A#2",
          "midi": 46,
          "time": 24.352928999999957,
          "velocity": 0.7874015748031497,
          "duration": 0.044117624999998384
        },
        {
          "name": "D2",
          "midi": 38,
          "time": 24.352928999999957,
          "velocity": 0.8661417322834646,
          "duration": 0.08823524999999677
        },
        {
          "name": "A#2",
          "midi": 46,
          "time": 24.705869999999955,
          "velocity": 0.7874015748031497,
          "duration": 0.044117624999998384
        },
        {
          "name": "C2",
          "midi": 36,
          "time": 24.705869999999955,
          "velocity": 0.7874015748031497,
          "duration": 0.08823524999999677
        },
        {
          "name": "A#2",
          "midi": 46,
          "time": 25.058810999999952,
          "velocity": 0.7874015748031497,
          "duration": 0.044117624999998384
        },
        {
          "name": "D2",
          "midi": 38,
          "time": 25.058810999999952,
          "velocity": 0.7874015748031497,
          "duration": 0.08823524999999677
        },
        {
          "name": "A#2",
          "midi": 46,
          "time": 25.41175199999995,
          "velocity": 0.8661417322834646,
          "duration": 0.044117624999998384
        },
        {
          "name": "C2",
          "midi": 36,
          "time": 25.41175199999995,
          "velocity": 0.8661417322834646,
          "duration": 0.08823524999999677
        },
        {
          "name": "A#2",
          "midi": 46,
          "time": 25.764692999999948,
          "velocity": 0.7874015748031497,
          "duration": 0.044117624999998384
        },
        {
          "name": "D2",
          "midi": 38,
          "time": 25.764692999999948,
          "velocity": 0.8661417322834646,
          "duration": 0.08823524999999677
        },
        {
          "name": "A#2",
          "midi": 46,
          "time": 26.117633999999946,
          "velocity": 0.7874015748031497,
          "duration": 0.044117624999998384
        },
        {
          "name": "C2",
          "midi": 36,
          "time": 26.117633999999946,
          "velocity": 0.7874015748031497,
          "duration": 0.08823524999999677
        },
        {
          "name": "A#2",
          "midi": 46,
          "time": 26.470574999999943,
          "velocity": 0.7874015748031497,
          "duration": 0.044117624999998384
        },
        {
          "name": "D2",
          "midi": 38,
          "time": 26.470574999999943,
          "velocity": 0.7874015748031497,
          "duration": 0.08823524999999677
        },
        {
          "name": "C2",
          "midi": 36,
          "time": 26.82351599999994,
          "velocity": 0.8661417322834646,
          "duration": 0.08823524999999677
        },
        {
          "name": "A#2",
          "midi": 46,
          "time": 26.82351599999994,
          "velocity": 0.8661417322834646,
          "duration": 0.044117624999998384
        },
        {
          "name": "A#2",
          "midi": 46,
          "time": 27.16763347499994,
          "velocity": 0.7874015748031497,
          "duration": 0.04411762500000194
        },
        {
          "name": "D2",
          "midi": 38,
          "time": 27.17645699999994,
          "velocity": 0.8661417322834646,
          "duration": 0.08823525000000032
        },
        {
          "name": "A#2",
          "midi": 46,
          "time": 27.52057447499994,
          "velocity": 0.7874015748031497,
          "duration": 0.04411762500000194
        },
        {
          "name": "C2",
          "midi": 36,
          "time": 27.52939799999994,
          "velocity": 0.7874015748031497,
          "duration": 0.08823525000000032
        },
        {
          "name": "D2",
          "midi": 38,
          "time": 27.70586849999994,
          "velocity": 0.8661417322834646,
          "duration": 0.044117624999998384
        },
        {
          "name": "D2",
          "midi": 38,
          "time": 27.794103749999937,
          "velocity": 0.8661417322834646,
          "duration": 0.044117624999998384
        },
        {
          "name": "D2",
          "midi": 38,
          "time": 27.882338999999934,
          "velocity": 0.7874015748031497,
          "duration": 0.08823525000000032
        },
        {
          "name": "C2",
          "midi": 36,
          "time": 28.058809499999935,
          "velocity": 0.8661417322834646,
          "duration": 0.044117624999998384
        },
        {
          "name": "C2",
          "midi": 36,
          "time": 28.235279999999932,
          "velocity": 0.8661417322834646,
          "duration": 0.08823525000000032
        },
        {
          "name": "C#3",
          "midi": 49,
          "time": 28.244103524999932,
          "velocity": 0.8661417322834646,
          "duration": 0.24852928749999847
        },
        {
          "name": "A#2",
          "midi": 46,
          "time": 28.58822099999993,
          "velocity": 0.7874015748031497,
          "duration": 0.044117624999998384
        },
        {
          "name": "D2",
          "midi": 38,
          "time": 28.58822099999993,
          "velocity": 0.8661417322834646,
          "duration": 0.08823524999999677
        },
        {
          "name": "A#2",
          "midi": 46,
          "time": 28.941161999999927,
          "velocity": 0.7874015748031497,
          "duration": 0.044117624999998384
        },
        {
          "name": "C2",
          "midi": 36,
          "time": 28.941161999999927,
          "velocity": 0.7874015748031497,
          "duration": 0.08823524999999677
        },
        {
          "name": "A#2",
          "midi": 46,
          "time": 29.294102999999925,
          "velocity": 0.7874015748031497,
          "duration": 0.044117624999998384
        },
        {
          "name": "D2",
          "midi": 38,
          "time": 29.294102999999925,
          "velocity": 0.7874015748031497,
          "duration": 0.08823524999999677
        },
        {
          "name": "A#2",
          "midi": 46,
          "time": 29.647043999999923,
          "velocity": 0.8661417322834646,
          "duration": 0.044117624999998384
        },
        {
          "name": "C2",
          "midi": 36,
          "time": 29.647043999999923,
          "velocity": 0.8661417322834646,
          "duration": 0.08823524999999677
        },
        {
          "name": "A#2",
          "midi": 46,
          "time": 29.99998499999992,
          "velocity": 0.7874015748031497,
          "duration": 0.044117624999998384
        },
        {
          "name": "D2",
          "midi": 38,
          "time": 29.99998499999992,
          "velocity": 0.8661417322834646,
          "duration": 0.08823524999999677
        },
        {
          "name": "A#2",
          "midi": 46,
          "time": 30.35292599999992,
          "velocity": 0.7874015748031497,
          "duration": 0.044117624999998384
        },
        {
          "name": "C2",
          "midi": 36,
          "time": 30.35292599999992,
          "velocity": 0.7874015748031497,
          "duration": 0.08823524999999677
        },
        {
          "name": "A#2",
          "midi": 46,
          "time": 30.705866999999916,
          "velocity": 0.7874015748031497,
          "duration": 0.044117624999998384
        },
        {
          "name": "D2",
          "midi": 38,
          "time": 30.705866999999916,
          "velocity": 0.7874015748031497,
          "duration": 0.08823524999999677
        },
        {
          "name": "A#2",
          "midi": 46,
          "time": 31.058807999999914,
          "velocity": 0.8661417322834646,
          "duration": 0.044117624999998384
        },
        {
          "name": "C2",
          "midi": 36,
          "time": 31.058807999999914,
          "velocity": 0.8661417322834646,
          "duration": 0.08823524999999677
        },
        {
          "name": "A#2",
          "midi": 46,
          "time": 31.41174899999991,
          "velocity": 0.7874015748031497,
          "duration": 0.044117624999998384
        },
        {
          "name": "D2",
          "midi": 38,
          "time": 31.41174899999991,
          "velocity": 0.8661417322834646,
          "duration": 0.08823524999999677
        },
        {
          "name": "A#2",
          "midi": 46,
          "time": 31.76468999999991,
          "velocity": 0.7874015748031497,
          "duration": 0.044117624999998384
        },
        {
          "name": "C2",
          "midi": 36,
          "time": 31.76468999999991,
          "velocity": 0.7874015748031497,
          "duration": 0.08823524999999677
        },
        {
          "name": "A#2",
          "midi": 46,
          "time": 32.1176309999999,
          "velocity": 0.7874015748031497,
          "duration": 0.044117624999998384
        },
        {
          "name": "D2",
          "midi": 38,
          "time": 32.1176309999999,
          "velocity": 0.7874015748031497,
          "duration": 0.08823524999999677
        },
        {
          "name": "A#2",
          "midi": 46,
          "time": 32.4705719999999,
          "velocity": 0.8661417322834646,
          "duration": 0.044117624999998384
        },
        {
          "name": "C2",
          "midi": 36,
          "time": 32.4705719999999,
          "velocity": 0.8661417322834646,
          "duration": 0.08823524999999677
        },
        {
          "name": "A#2",
          "midi": 46,
          "time": 32.814689474999895,
          "velocity": 0.7874015748031497,
          "duration": 0.044117624999998384
        },
        {
          "name": "D2",
          "midi": 38,
          "time": 32.82351299999989,
          "velocity": 0.8661417322834646,
          "duration": 0.08823525000000387
        },
        {
          "name": "A#2",
          "midi": 46,
          "time": 33.167630474999896,
          "velocity": 0.7874015748031497,
          "duration": 0.044117624999998384
        },
        {
          "name": "C2",
          "midi": 36,
          "time": 33.17645399999989,
          "velocity": 0.7874015748031497,
          "duration": 0.08823525000000387
        },
        {
          "name": "D2",
          "midi": 38,
          "time": 33.352924499999894,
          "velocity": 0.8661417322834646,
          "duration": 0.044117624999998384
        },
        {
          "name": "D2",
          "midi": 38,
          "time": 33.44115974999989,
          "velocity": 0.8661417322834646,
          "duration": 0.044117624999998384
        },
        {
          "name": "D2",
          "midi": 38,
          "time": 33.52939499999989,
          "velocity": 0.7874015748031497,
          "duration": 0.08823524999999677
        },
        {
          "name": "C2",
          "midi": 36,
          "time": 33.70586549999988,
          "velocity": 0.8661417322834646,
          "duration": 0.044117624999998384
        },
        {
          "name": "C2",
          "midi": 36,
          "time": 33.88233599999988,
          "velocity": 0.7874015748031497,
          "duration": 0.08823524999999677
        },
        {
          "name": "C#3",
          "midi": 49,
          "time": 33.90071834374988,
          "velocity": 0.7874015748031497,
          "duration": 0.044117624999998384
        },
        {
          "name": "A#2",
          "midi": 46,
          "time": 34.235276999999876,
          "velocity": 0.7874015748031497,
          "duration": 0.044117624999998384
        },
        {
          "name": "D2",
          "midi": 38,
          "time": 34.235276999999876,
          "velocity": 0.7874015748031497,
          "duration": 0.08823524999999677
        },
        {
          "name": "A#2",
          "midi": 46,
          "time": 34.58821799999987,
          "velocity": 0.7874015748031497,
          "duration": 0.044117624999998384
        },
        {
          "name": "C2",
          "midi": 36,
          "time": 34.58821799999987,
          "velocity": 0.7874015748031497,
          "duration": 0.08823524999999677
        },
        {
          "name": "A#2",
          "midi": 46,
          "time": 34.941158999999864,
          "velocity": 0.7874015748031497,
          "duration": 0.044117624999998384
        },
        {
          "name": "D2",
          "midi": 38,
          "time": 34.941158999999864,
          "velocity": 0.7874015748031497,
          "duration": 0.08823524999999677
        },
        {
          "name": "A#2",
          "midi": 46,
          "time": 35.29409999999986,
          "velocity": 0.7874015748031497,
          "duration": 0.044117624999998384
        },
        {
          "name": "C2",
          "midi": 36,
          "time": 35.29409999999986,
          "velocity": 0.7874015748031497,
          "duration": 0.08823524999999677
        },
        {
          "name": "A#2",
          "midi": 46,
          "time": 35.64704099999985,
          "velocity": 0.7874015748031497,
          "duration": 0.044117624999998384
        },
        {
          "name": "D2",
          "midi": 38,
          "time": 35.64704099999985,
          "velocity": 0.7874015748031497,
          "duration": 0.08823524999999677
        },
        {
          "name": "A#2",
          "midi": 46,
          "time": 35.99998199999985,
          "velocity": 0.7874015748031497,
          "duration": 0.044117624999998384
        },
        {
          "name": "C2",
          "midi": 36,
          "time": 35.99998199999985,
          "velocity": 0.7874015748031497,
          "duration": 0.08823524999999677
        },
        {
          "name": "A#2",
          "midi": 46,
          "time": 36.35292299999984,
          "velocity": 0.7874015748031497,
          "duration": 0.044117624999998384
        },
        {
          "name": "D2",
          "midi": 38,
          "time": 36.35292299999984,
          "velocity": 0.7874015748031497,
          "duration": 0.08823524999999677
        },
        {
          "name": "A#2",
          "midi": 46,
          "time": 36.705863999999835,
          "velocity": 0.7874015748031497,
          "duration": 0.044117624999998384
        },
        {
          "name": "C2",
          "midi": 36,
          "time": 36.705863999999835,
          "velocity": 0.7874015748031497,
          "duration": 0.08823524999999677
        },
        {
          "name": "A#2",
          "midi": 46,
          "time": 37.05880499999983,
          "velocity": 0.7874015748031497,
          "duration": 0.044117624999998384
        },
        {
          "name": "D2",
          "midi": 38,
          "time": 37.05880499999983,
          "velocity": 0.7874015748031497,
          "duration": 0.08823524999999677
        },
        {
          "name": "A#2",
          "midi": 46,
          "time": 37.41174599999982,
          "velocity": 0.7874015748031497,
          "duration": 0.044117624999998384
        },
        {
          "name": "C2",
          "midi": 36,
          "time": 37.41174599999982,
          "velocity": 0.7874015748031497,
          "duration": 0.08823524999999677
        },
        {
          "name": "A#2",
          "midi": 46,
          "time": 37.76468699999982,
          "velocity": 0.7874015748031497,
          "duration": 0.044117624999998384
        },
        {
          "name": "D2",
          "midi": 38,
          "time": 37.76468699999982,
          "velocity": 0.7874015748031497,
          "duration": 0.08823524999999677
        },
        {
          "name": "D2",
          "midi": 38,
          "time": 38.11762799999981,
          "velocity": 0.7874015748031497,
          "duration": 0.08823524999999677
        },
        {
          "name": "E2",
          "midi": 40,
          "time": 38.11762799999981,
          "velocity": 0.7874015748031497,
          "duration": 0.044117624999998384
        },
        {
          "name": "C2",
          "midi": 36,
          "time": 38.29851026249981,
          "velocity": 0.7874015748031497,
          "duration": 0.044117624999998384
        },
        {
          "name": "C#3",
          "midi": 49,
          "time": 38.29851026249981,
          "velocity": 0.7874015748031497,
          "duration": 0.17647050000000064
        },
        {
          "name": "C#3",
          "midi": 49,
          "time": 38.823509999999814,
          "velocity": 0.7874015748031497,
          "duration": 0.08823524999999677
        },
        {
          "name": "C2",
          "midi": 36,
          "time": 38.823509999999814,
          "velocity": 0.7874015748031497,
          "duration": 0.17647049999999354
        },
        {
          "name": "D2",
          "midi": 38,
          "time": 39.17645099999981,
          "velocity": 0.7874015748031497,
          "duration": 0.08823524999999677
        },
        {
          "name": "E2",
          "midi": 40,
          "time": 39.17645099999981,
          "velocity": 0.7874015748031497,
          "duration": 0.08823524999999677
        },
        {
          "name": "C2",
          "midi": 36,
          "time": 39.5293919999998,
          "velocity": 0.7874015748031497,
          "duration": 0.08823524999999677
        },
        {
          "name": "C#3",
          "midi": 49,
          "time": 39.5477743437498,
          "velocity": 0.7874015748031497,
          "duration": 0.044117624999998384
        },
        {
          "name": "A#2",
          "midi": 46,
          "time": 39.8823329999998,
          "velocity": 0.7874015748031497,
          "duration": 0.044117624999998384
        },
        {
          "name": "D2",
          "midi": 38,
          "time": 39.8823329999998,
          "velocity": 0.7874015748031497,
          "duration": 0.08823524999999677
        },
        {
          "name": "A#2",
          "midi": 46,
          "time": 40.23527399999979,
          "velocity": 0.7874015748031497,
          "duration": 0.044117624999998384
        },
        {
          "name": "C2",
          "midi": 36,
          "time": 40.23527399999979,
          "velocity": 0.7874015748031497,
          "duration": 0.08823524999999677
        },
        {
          "name": "A#2",
          "midi": 46,
          "time": 40.588214999999785,
          "velocity": 0.7874015748031497,
          "duration": 0.044117624999998384
        },
        {
          "name": "D2",
          "midi": 38,
          "time": 40.588214999999785,
          "velocity": 0.7874015748031497,
          "duration": 0.08823524999999677
        },
        {
          "name": "A#2",
          "midi": 46,
          "time": 40.94115599999978,
          "velocity": 0.7874015748031497,
          "duration": 0.044117624999998384
        },
        {
          "name": "C2",
          "midi": 36,
          "time": 40.94115599999978,
          "velocity": 0.7874015748031497,
          "duration": 0.08823524999999677
        },
        {
          "name": "A#2",
          "midi": 46,
          "time": 41.29409699999977,
          "velocity": 0.7874015748031497,
          "duration": 0.044117624999998384
        },
        {
          "name": "D2",
          "midi": 38,
          "time": 41.29409699999977,
          "velocity": 0.7874015748031497,
          "duration": 0.08823524999999677
        },
        {
          "name": "A#2",
          "midi": 46,
          "time": 41.64703799999977,
          "velocity": 0.7874015748031497,
          "duration": 0.044117624999998384
        },
        {
          "name": "C2",
          "midi": 36,
          "time": 41.64703799999977,
          "velocity": 0.7874015748031497,
          "duration": 0.08823524999999677
        },
        {
          "name": "A#2",
          "midi": 46,
          "time": 41.99997899999976,
          "velocity": 0.7874015748031497,
          "duration": 0.044117624999998384
        },
        {
          "name": "D2",
          "midi": 38,
          "time": 41.99997899999976,
          "velocity": 0.7874015748031497,
          "duration": 0.08823524999999677
        },
        {
          "name": "A#2",
          "midi": 46,
          "time": 42.352919999999756,
          "velocity": 0.7874015748031497,
          "duration": 0.044117624999998384
        },
        {
          "name": "C2",
          "midi": 36,
          "time": 42.352919999999756,
          "velocity": 0.7874015748031497,
          "duration": 0.08823524999999677
        },
        {
          "name": "A#2",
          "midi": 46,
          "time": 42.70586099999975,
          "velocity": 0.7874015748031497,
          "duration": 0.044117624999998384
        },
        {
          "name": "D2",
          "midi": 38,
          "time": 42.70586099999975,
          "velocity": 0.7874015748031497,
          "duration": 0.08823524999999677
        },
        {
          "name": "A#2",
          "midi": 46,
          "time": 43.058801999999744,
          "velocity": 0.7874015748031497,
          "duration": 0.044117624999998384
        },
        {
          "name": "C2",
          "midi": 36,
          "time": 43.058801999999744,
          "velocity": 0.7874015748031497,
          "duration": 0.08823524999999677
        },
        {
          "name": "A#2",
          "midi": 46,
          "time": 43.41174299999974,
          "velocity": 0.7874015748031497,
          "duration": 0.044117624999998384
        },
        {
          "name": "D2",
          "midi": 38,
          "time": 43.41174299999974,
          "velocity": 0.7874015748031497,
          "duration": 0.08823524999999677
        },
        {
          "name": "D2",
          "midi": 38,
          "time": 43.76468399999973,
          "velocity": 0.7874015748031497,
          "duration": 0.08823524999999677
        },
        {
          "name": "E2",
          "midi": 40,
          "time": 43.76468399999973,
          "velocity": 0.7874015748031497,
          "duration": 0.044117624999998384
        },
        {
          "name": "C2",
          "midi": 36,
          "time": 43.94556626249973,
          "velocity": 0.7874015748031497,
          "duration": 0.044117624999998384
        },
        {
          "name": "C#3",
          "midi": 49,
          "time": 43.94556626249973,
          "velocity": 0.7874015748031497,
          "duration": 0.17647050000000064
        },
        {
          "name": "C#3",
          "midi": 49,
          "time": 44.470565999999735,
          "velocity": 0.7874015748031497,
          "duration": 0.08823524999999677
        },
        {
          "name": "C2",
          "midi": 36,
          "time": 44.470565999999735,
          "velocity": 0.7874015748031497,
          "duration": 0.17647049999999354
        },
        {
          "name": "D2",
          "midi": 38,
          "time": 44.82350699999973,
          "velocity": 0.7874015748031497,
          "duration": 0.08823524999999677
        },
        {
          "name": "E2",
          "midi": 40,
          "time": 44.82350699999973,
          "velocity": 0.7874015748031497,
          "duration": 0.08823524999999677
        },
        {
          "name": "C2",
          "midi": 36,
          "time": 45.17644799999972,
          "velocity": 0.8661417322834646,
          "duration": 0.08823524999999677
        },
        {
          "name": "C#3",
          "midi": 49,
          "time": 45.18527152499972,
          "velocity": 0.8661417322834646,
          "duration": 0.3529409999999942
        },
        {
          "name": "D2",
          "midi": 38,
          "time": 45.52938899999972,
          "velocity": 0.7874015748031497,
          "duration": 0.08823524999999677
        },
        {
          "name": "A#2",
          "midi": 46,
          "time": 45.52938899999972,
          "velocity": 0.7874015748031497,
          "duration": 0.044117624999998384
        },
        {
          "name": "A#2",
          "midi": 46,
          "time": 45.88232999999971,
          "velocity": 0.7874015748031497,
          "duration": 0.044117624999998384
        },
        {
          "name": "C2",
          "midi": 36,
          "time": 45.88232999999971,
          "velocity": 0.7874015748031497,
          "duration": 0.08823524999999677
        },
        {
          "name": "A#2",
          "midi": 46,
          "time": 46.235270999999706,
          "velocity": 0.7874015748031497,
          "duration": 0.044117624999998384
        },
        {
          "name": "D2",
          "midi": 38,
          "time": 46.235270999999706,
          "velocity": 0.7874015748031497,
          "duration": 0.08823524999999677
        },
        {
          "name": "C2",
          "midi": 36,
          "time": 46.5882119999997,
          "velocity": 0.8661417322834646,
          "duration": 0.08823524999999677
        },
        {
          "name": "A#2",
          "midi": 46,
          "time": 46.5882119999997,
          "velocity": 0.8661417322834646,
          "duration": 0.044117624999998384
        },
        {
          "name": "D2",
          "midi": 38,
          "time": 46.941152999999694,
          "velocity": 0.7874015748031497,
          "duration": 0.08823524999999677
        },
        {
          "name": "A#2",
          "midi": 46,
          "time": 46.941152999999694,
          "velocity": 0.7874015748031497,
          "duration": 0.044117624999998384
        },
        {
          "name": "C2",
          "midi": 36,
          "time": 47.29409399999969,
          "velocity": 0.7874015748031497,
          "duration": 0.08823524999999677
        },
        {
          "name": "A#2",
          "midi": 46,
          "time": 47.29409399999969,
          "velocity": 0.8661417322834646,
          "duration": 0.044117624999998384
        },
        {
          "name": "A#2",
          "midi": 46,
          "time": 47.64703499999968,
          "velocity": 0.7874015748031497,
          "duration": 0.044117624999998384
        },
        {
          "name": "D2",
          "midi": 38,
          "time": 47.64703499999968,
          "velocity": 0.7874015748031497,
          "duration": 0.08823524999999677
        },
        {
          "name": "C2",
          "midi": 36,
          "time": 47.99997599999968,
          "velocity": 0.8661417322834646,
          "duration": 0.08823524999999677
        },
        {
          "name": "C#3",
          "midi": 49,
          "time": 47.99997599999968,
          "velocity": 0.8661417322834646,
          "duration": 0.3529409999999942
        },
        {
          "name": "D2",
          "midi": 38,
          "time": 48.35291699999967,
          "velocity": 0.7874015748031497,
          "duration": 0.08823524999999677
        },
        {
          "name": "A#2",
          "midi": 46,
          "time": 48.35291699999967,
          "velocity": 0.7874015748031497,
          "duration": 0.044117624999998384
        },
        {
          "name": "A#2",
          "midi": 46,
          "time": 48.705857999999665,
          "velocity": 0.7874015748031497,
          "duration": 0.044117624999998384
        },
        {
          "name": "C2",
          "midi": 36,
          "time": 48.705857999999665,
          "velocity": 0.7874015748031497,
          "duration": 0.08823524999999677
        },
        {
          "name": "A#2",
          "midi": 46,
          "time": 49.05879899999966,
          "velocity": 0.7874015748031497,
          "duration": 0.044117624999998384
        },
        {
          "name": "D2",
          "midi": 38,
          "time": 49.05879899999966,
          "velocity": 0.7874015748031497,
          "duration": 0.08823524999999677
        },
        {
          "name": "C2",
          "midi": 36,
          "time": 49.411739999999654,
          "velocity": 0.8661417322834646,
          "duration": 0.08823524999999677
        },
        {
          "name": "A#2",
          "midi": 46,
          "time": 49.411739999999654,
          "velocity": 0.8661417322834646,
          "duration": 0.08823524999999677
        },
        {
          "name": "D2",
          "midi": 38,
          "time": 49.76468099999965,
          "velocity": 0.7874015748031497,
          "duration": 0.08823524999999677
        },
        {
          "name": "A#2",
          "midi": 46,
          "time": 49.76468099999965,
          "velocity": 0.7874015748031497,
          "duration": 0.044117624999998384
        },
        {
          "name": "C2",
          "midi": 36,
          "time": 50.11762199999964,
          "velocity": 0.7874015748031497,
          "duration": 0.08823524999999677
        },
        {
          "name": "A#2",
          "midi": 46,
          "time": 50.11762199999964,
          "velocity": 0.8661417322834646,
          "duration": 0.044117624999998384
        },
        {
          "name": "A#2",
          "midi": 46,
          "time": 50.470562999999636,
          "velocity": 0.7874015748031497,
          "duration": 0.044117624999998384
        },
        {
          "name": "D2",
          "midi": 38,
          "time": 50.470562999999636,
          "velocity": 0.7874015748031497,
          "duration": 0.08823524999999677
        },
        {
          "name": "C#3",
          "midi": 49,
          "time": 50.82350399999963,
          "velocity": 0.8661417322834646,
          "duration": 0.3529409999999942
        },
        {
          "name": "C2",
          "midi": 36,
          "time": 50.82350399999963,
          "velocity": 0.8661417322834646,
          "duration": 0.08823524999999677
        },
        {
          "name": "D2",
          "midi": 38,
          "time": 51.176444999999624,
          "velocity": 0.7874015748031497,
          "duration": 0.08823524999999677
        },
        {
          "name": "A#2",
          "midi": 46,
          "time": 51.176444999999624,
          "velocity": 0.7874015748031497,
          "duration": 0.044117624999998384
        },
        {
          "name": "A#2",
          "midi": 46,
          "time": 51.52938599999962,
          "velocity": 0.7874015748031497,
          "duration": 0.044117624999998384
        },
        {
          "name": "C2",
          "midi": 36,
          "time": 51.52938599999962,
          "velocity": 0.7874015748031497,
          "duration": 0.08823524999999677
        },
        {
          "name": "A#2",
          "midi": 46,
          "time": 51.88232699999961,
          "velocity": 0.7874015748031497,
          "duration": 0.044117624999998384
        },
        {
          "name": "D2",
          "midi": 38,
          "time": 51.88232699999961,
          "velocity": 0.7874015748031497,
          "duration": 0.08823524999999677
        },
        {
          "name": "C2",
          "midi": 36,
          "time": 52.23526799999961,
          "velocity": 0.8661417322834646,
          "duration": 0.08823524999999677
        },
        {
          "name": "A#2",
          "midi": 46,
          "time": 52.23526799999961,
          "velocity": 0.8661417322834646,
          "duration": 0.08823524999999677
        },
        {
          "name": "D2",
          "midi": 38,
          "time": 52.5882089999996,
          "velocity": 0.7874015748031497,
          "duration": 0.08823524999999677
        },
        {
          "name": "A#2",
          "midi": 46,
          "time": 52.5882089999996,
          "velocity": 0.7874015748031497,
          "duration": 0.044117624999998384
        },
        {
          "name": "C2",
          "midi": 36,
          "time": 52.941149999999595,
          "velocity": 0.7874015748031497,
          "duration": 0.08823524999999677
        },
        {
          "name": "A#2",
          "midi": 46,
          "time": 52.941149999999595,
          "velocity": 0.8661417322834646,
          "duration": 0.044117624999998384
        },
        {
          "name": "A#2",
          "midi": 46,
          "time": 53.29409099999959,
          "velocity": 0.7874015748031497,
          "duration": 0.044117624999998384
        },
        {
          "name": "D2",
          "midi": 38,
          "time": 53.29409099999959,
          "velocity": 0.7874015748031497,
          "duration": 0.08823524999999677
        },
        {
          "name": "C2",
          "midi": 36,
          "time": 53.647031999999584,
          "velocity": 0.8661417322834646,
          "duration": 0.08823524999999677
        },
        {
          "name": "C#3",
          "midi": 49,
          "time": 53.647031999999584,
          "velocity": 0.8661417322834646,
          "duration": 0.3529409999999942
        },
        {
          "name": "D2",
          "midi": 38,
          "time": 53.99997299999958,
          "velocity": 0.7874015748031497,
          "duration": 0.08823524999999677
        },
        {
          "name": "A#2",
          "midi": 46,
          "time": 53.99997299999958,
          "velocity": 0.7874015748031497,
          "duration": 0.044117624999998384
        },
        {
          "name": "A#2",
          "midi": 46,
          "time": 54.35291399999957,
          "velocity": 0.7874015748031497,
          "duration": 0.044117624999998384
        },
        {
          "name": "C2",
          "midi": 36,
          "time": 54.35291399999957,
          "velocity": 0.7874015748031497,
          "duration": 0.08823524999999677
        },
        {
          "name": "A#2",
          "midi": 46,
          "time": 54.705854999999566,
          "velocity": 0.7874015748031497,
          "duration": 0.044117624999998384
        },
        {
          "name": "D2",
          "midi": 38,
          "time": 54.705854999999566,
          "velocity": 0.7874015748031497,
          "duration": 0.08823524999999677
        },
        {
          "name": "C2",
          "midi": 36,
          "time": 55.05879599999956,
          "velocity": 0.8661417322834646,
          "duration": 0.08823524999999677
        },
        {
          "name": "A#2",
          "midi": 46,
          "time": 55.05879599999956,
          "velocity": 0.8661417322834646,
          "duration": 0.08823524999999677
        },
        {
          "name": "D2",
          "midi": 38,
          "time": 55.411736999999555,
          "velocity": 0.7874015748031497,
          "duration": 0.08823524999999677
        },
        {
          "name": "A#2",
          "midi": 46,
          "time": 55.411736999999555,
          "velocity": 0.7874015748031497,
          "duration": 0.044117624999998384
        },
        {
          "name": "D2",
          "midi": 38,
          "time": 55.76467799999955,
          "velocity": 0.8661417322834646,
          "duration": 0.044117624999998384
        },
        {
          "name": "D2",
          "midi": 38,
          "time": 55.852913249999546,
          "velocity": 0.8661417322834646,
          "duration": 0.044117624999998384
        },
        {
          "name": "D2",
          "midi": 38,
          "time": 55.94114849999954,
          "velocity": 0.8661417322834646,
          "duration": 0.044117624999998384
        },
        {
          "name": "D2",
          "midi": 38,
          "time": 56.02938374999954,
          "velocity": 0.8661417322834646,
          "duration": 0.044117624999998384
        },
        {
          "name": "D2",
          "midi": 38,
          "time": 56.117618999999536,
          "velocity": 0.8661417322834646,
          "duration": 0.044117624999998384
        },
        {
          "name": "D2",
          "midi": 38,
          "time": 56.20585424999953,
          "velocity": 0.8661417322834646,
          "duration": 0.044117624999998384
        },
        {
          "name": "D2",
          "midi": 38,
          "time": 56.29408949999953,
          "velocity": 0.8661417322834646,
          "duration": 0.044117624999998384
        },
        {
          "name": "D2",
          "midi": 38,
          "time": 56.382324749999526,
          "velocity": 0.8661417322834646,
          "duration": 0.044117624999998384
        },
        {
          "name": "C2",
          "midi": 36,
          "time": 56.47055999999952,
          "velocity": 0.7874015748031497,
          "duration": 0.08823524999999677
        },
        {
          "name": "C#3",
          "midi": 49,
          "time": 56.48894234374952,
          "velocity": 0.7874015748031497,
          "duration": 0.2867645624999966
        },
        {
          "name": "A#2",
          "midi": 46,
          "time": 56.82350099999952,
          "velocity": 0.7874015748031497,
          "duration": 0.044117624999998384
        },
        {
          "name": "D2",
          "midi": 38,
          "time": 56.82350099999952,
          "velocity": 0.7874015748031497,
          "duration": 0.08823524999999677
        },
        {
          "name": "A#2",
          "midi": 46,
          "time": 57.17644199999951,
          "velocity": 0.7874015748031497,
          "duration": 0.044117624999998384
        },
        {
          "name": "C2",
          "midi": 36,
          "time": 57.17644199999951,
          "velocity": 0.7874015748031497,
          "duration": 0.08823524999999677
        },
        {
          "name": "A#2",
          "midi": 46,
          "time": 57.529382999999505,
          "velocity": 0.7874015748031497,
          "duration": 0.044117624999998384
        },
        {
          "name": "D2",
          "midi": 38,
          "time": 57.529382999999505,
          "velocity": 0.7874015748031497,
          "duration": 0.08823524999999677
        },
        {
          "name": "A#2",
          "midi": 46,
          "time": 57.8823239999995,
          "velocity": 0.7874015748031497,
          "duration": 0.044117624999998384
        },
        {
          "name": "C2",
          "midi": 36,
          "time": 57.8823239999995,
          "velocity": 0.7874015748031497,
          "duration": 0.08823524999999677
        },
        {
          "name": "A#2",
          "midi": 46,
          "time": 58.235264999999494,
          "velocity": 0.7874015748031497,
          "duration": 0.044117624999998384
        },
        {
          "name": "D2",
          "midi": 38,
          "time": 58.235264999999494,
          "velocity": 0.7874015748031497,
          "duration": 0.08823524999999677
        },
        {
          "name": "A#2",
          "midi": 46,
          "time": 58.58820599999949,
          "velocity": 0.7874015748031497,
          "duration": 0.044117624999998384
        },
        {
          "name": "C2",
          "midi": 36,
          "time": 58.58820599999949,
          "velocity": 0.7874015748031497,
          "duration": 0.08823524999999677
        },
        {
          "name": "A#2",
          "midi": 46,
          "time": 58.94114699999948,
          "velocity": 0.7874015748031497,
          "duration": 0.044117624999998384
        },
        {
          "name": "D2",
          "midi": 38,
          "time": 58.94114699999948,
          "velocity": 0.7874015748031497,
          "duration": 0.08823524999999677
        },
        {
          "name": "A#2",
          "midi": 46,
          "time": 59.294087999999476,
          "velocity": 0.7874015748031497,
          "duration": 0.044117624999998384
        },
        {
          "name": "D2",
          "midi": 38,
          "time": 59.294087999999476,
          "velocity": 0.7874015748031497,
          "duration": 0.08823524999999677
        },
        {
          "name": "C2",
          "midi": 36,
          "time": 59.47055849999947,
          "velocity": 0.8661417322834646,
          "duration": 0.044117624999998384
        },
        {
          "name": "A#2",
          "midi": 46,
          "time": 59.64702899999947,
          "velocity": 0.7874015748031497,
          "duration": 0.044117624999998384
        },
        {
          "name": "D2",
          "midi": 38,
          "time": 59.64702899999947,
          "velocity": 0.7874015748031497,
          "duration": 0.08823524999999677
        },
        {
          "name": "C2",
          "midi": 36,
          "time": 59.823499499999464,
          "velocity": 0.8661417322834646,
          "duration": 0.044117624999998384
        },
        {
          "name": "A#2",
          "midi": 46,
          "time": 59.999969999999465,
          "velocity": 0.7874015748031497,
          "duration": 0.044117624999998384
        },
        {
          "name": "D2",
          "midi": 38,
          "time": 59.999969999999465,
          "velocity": 0.7874015748031497,
          "duration": 0.08823524999999677
        },
        {
          "name": "C2",
          "midi": 36,
          "time": 60.17644049999946,
          "velocity": 0.8661417322834646,
          "duration": 0.044117624999998384
        },
        {
          "name": "A#2",
          "midi": 46,
          "time": 60.35291099999946,
          "velocity": 0.7874015748031497,
          "duration": 0.044117624999998384
        },
        {
          "name": "D2",
          "midi": 38,
          "time": 60.35291099999946,
          "velocity": 0.7874015748031497,
          "duration": 0.08823524999999677
        },
        {
          "name": "C2",
          "midi": 36,
          "time": 60.52938149999945,
          "velocity": 0.8661417322834646,
          "duration": 0.044117624999998384
        },
        {
          "name": "D2",
          "midi": 38,
          "time": 60.70585199999945,
          "velocity": 0.7874015748031497,
          "duration": 0.08823524999999677
        },
        {
          "name": "E2",
          "midi": 40,
          "time": 60.70585199999945,
          "velocity": 0.7874015748031497,
          "duration": 0.044117624999998384
        },
        {
          "name": "C2",
          "midi": 36,
          "time": 60.88673426249945,
          "velocity": 0.7874015748031497,
          "duration": 0.044117624999998384
        },
        {
          "name": "C#3",
          "midi": 49,
          "time": 60.88673426249945,
          "velocity": 0.7874015748031497,
          "duration": 0.17647050000000064
        },
        {
          "name": "C#3",
          "midi": 49,
          "time": 61.411733999999456,
          "velocity": 0.7874015748031497,
          "duration": 0.08823524999999677
        },
        {
          "name": "C2",
          "midi": 36,
          "time": 61.411733999999456,
          "velocity": 0.7874015748031497,
          "duration": 0.17647049999999354
        },
        {
          "name": "D2",
          "midi": 38,
          "time": 61.76467499999945,
          "velocity": 0.7874015748031497,
          "duration": 0.08823524999999677
        },
        {
          "name": "E2",
          "midi": 40,
          "time": 61.76467499999945,
          "velocity": 0.7874015748031497,
          "duration": 0.08823524999999677
        },
        {
          "name": "C2",
          "midi": 36,
          "time": 62.117615999999444,
          "velocity": 0.7874015748031497,
          "duration": 0.08823524999999677
        },
        {
          "name": "C#3",
          "midi": 49,
          "time": 62.13599834374944,
          "velocity": 0.7874015748031497,
          "duration": 0.044117624999998384
        },
        {
          "name": "A#2",
          "midi": 46,
          "time": 62.47055699999944,
          "velocity": 0.7874015748031497,
          "duration": 0.044117624999998384
        },
        {
          "name": "D2",
          "midi": 38,
          "time": 62.47055699999944,
          "velocity": 0.7874015748031497,
          "duration": 0.08823524999999677
        },
        {
          "name": "A#2",
          "midi": 46,
          "time": 62.82349799999943,
          "velocity": 0.7874015748031497,
          "duration": 0.044117624999998384
        },
        {
          "name": "C2",
          "midi": 36,
          "time": 62.82349799999943,
          "velocity": 0.7874015748031497,
          "duration": 0.08823524999999677
        },
        {
          "name": "A#2",
          "midi": 46,
          "time": 63.17643899999943,
          "velocity": 0.7874015748031497,
          "duration": 0.044117624999998384
        },
        {
          "name": "D2",
          "midi": 38,
          "time": 63.17643899999943,
          "velocity": 0.7874015748031497,
          "duration": 0.08823524999999677
        },
        {
          "name": "A#2",
          "midi": 46,
          "time": 63.52937999999942,
          "velocity": 0.7874015748031497,
          "duration": 0.044117624999998384
        },
        {
          "name": "C2",
          "midi": 36,
          "time": 63.52937999999942,
          "velocity": 0.7874015748031497,
          "duration": 0.08823524999999677
        },
        {
          "name": "A#2",
          "midi": 46,
          "time": 63.882320999999415,
          "velocity": 0.7874015748031497,
          "duration": 0.044117624999998384
        },
        {
          "name": "D2",
          "midi": 38,
          "time": 63.882320999999415,
          "velocity": 0.7874015748031497,
          "duration": 0.08823524999999677
        },
        {
          "name": "A#2",
          "midi": 46,
          "time": 64.23526199999941,
          "velocity": 0.7874015748031497,
          "duration": 0.044117624999998384
        },
        {
          "name": "C2",
          "midi": 36,
          "time": 64.23526199999941,
          "velocity": 0.7874015748031497,
          "duration": 0.08823524999999677
        },
        {
          "name": "A#2",
          "midi": 46,
          "time": 64.58820299999941,
          "velocity": 0.7874015748031497,
          "duration": 0.044117624999998384
        },
        {
          "name": "D2",
          "midi": 38,
          "time": 64.58820299999941,
          "velocity": 0.7874015748031497,
          "duration": 0.08823524999999677
        },
        {
          "name": "A#2",
          "midi": 46,
          "time": 64.94114399999941,
          "velocity": 0.7874015748031497,
          "duration": 0.044117624999998384
        },
        {
          "name": "D2",
          "midi": 38,
          "time": 64.94114399999941,
          "velocity": 0.7874015748031497,
          "duration": 0.08823524999999677
        },
        {
          "name": "C2",
          "midi": 36,
          "time": 65.1176144999994,
          "velocity": 0.8661417322834646,
          "duration": 0.044117624999998384
        },
        {
          "name": "A#2",
          "midi": 46,
          "time": 65.2940849999994,
          "velocity": 0.7874015748031497,
          "duration": 0.044117624999998384
        },
        {
          "name": "D2",
          "midi": 38,
          "time": 65.2940849999994,
          "velocity": 0.7874015748031497,
          "duration": 0.08823524999999677
        },
        {
          "name": "C2",
          "midi": 36,
          "time": 65.47055549999939,
          "velocity": 0.8661417322834646,
          "duration": 0.044117624999998384
        },
        {
          "name": "A#2",
          "midi": 46,
          "time": 65.64702599999939,
          "velocity": 0.7874015748031497,
          "duration": 0.044117624999998384
        },
        {
          "name": "D2",
          "midi": 38,
          "time": 65.64702599999939,
          "velocity": 0.7874015748031497,
          "duration": 0.08823524999999677
        },
        {
          "name": "C2",
          "midi": 36,
          "time": 65.82349649999938,
          "velocity": 0.8661417322834646,
          "duration": 0.044117624999998384
        },
        {
          "name": "A#2",
          "midi": 46,
          "time": 65.99996699999937,
          "velocity": 0.7874015748031497,
          "duration": 0.044117624999998384
        },
        {
          "name": "D2",
          "midi": 38,
          "time": 65.99996699999937,
          "velocity": 0.7874015748031497,
          "duration": 0.08823524999999677
        },
        {
          "name": "C2",
          "midi": 36,
          "time": 66.17643749999937,
          "velocity": 0.8661417322834646,
          "duration": 0.044117624999998384
        },
        {
          "name": "D2",
          "midi": 38,
          "time": 66.35290799999936,
          "velocity": 0.7874015748031497,
          "duration": 0.08823524999999677
        },
        {
          "name": "E2",
          "midi": 40,
          "time": 66.35290799999936,
          "velocity": 0.7874015748031497,
          "duration": 0.044117624999998384
        },
        {
          "name": "C2",
          "midi": 36,
          "time": 66.53379026249935,
          "velocity": 0.7874015748031497,
          "duration": 0.044117624999998384
        },
        {
          "name": "C#3",
          "midi": 49,
          "time": 66.53379026249935,
          "velocity": 0.7874015748031497,
          "duration": 0.17647049999999354
        },
        {
          "name": "C#3",
          "midi": 49,
          "time": 67.05878999999935,
          "velocity": 0.7874015748031497,
          "duration": 0.08823524999999677
        },
        {
          "name": "C2",
          "midi": 36,
          "time": 67.05878999999935,
          "velocity": 0.7874015748031497,
          "duration": 0.17647049999999354
        },
        {
          "name": "D2",
          "midi": 38,
          "time": 67.41173099999934,
          "velocity": 0.7874015748031497,
          "duration": 0.08823524999999677
        },
        {
          "name": "E2",
          "midi": 40,
          "time": 67.41173099999934,
          "velocity": 0.7874015748031497,
          "duration": 0.08823524999999677
        },
        {
          "name": "C2",
          "midi": 36,
          "time": 67.76467199999934,
          "velocity": 0.7874015748031497,
          "duration": 0.08823524999999677
        },
        {
          "name": "C#3",
          "midi": 49,
          "time": 67.78305434374934,
          "velocity": 0.7874015748031497,
          "duration": 0.044117624999998384
        },
        {
          "name": "A#2",
          "midi": 46,
          "time": 68.11761299999934,
          "velocity": 0.7874015748031497,
          "duration": 0.044117624999998384
        },
        {
          "name": "D2",
          "midi": 38,
          "time": 68.11761299999934,
          "velocity": 0.7874015748031497,
          "duration": 0.08823524999999677
        },
        {
          "name": "A#2",
          "midi": 46,
          "time": 68.47055399999934,
          "velocity": 0.7874015748031497,
          "duration": 0.044117624999998384
        },
        {
          "name": "C2",
          "midi": 36,
          "time": 68.47055399999934,
          "velocity": 0.7874015748031497,
          "duration": 0.08823524999999677
        },
        {
          "name": "A#2",
          "midi": 46,
          "time": 68.82349499999934,
          "velocity": 0.7874015748031497,
          "duration": 0.044117624999998384
        },
        {
          "name": "D2",
          "midi": 38,
          "time": 68.82349499999934,
          "velocity": 0.7874015748031497,
          "duration": 0.08823524999999677
        },
        {
          "name": "A#2",
          "midi": 46,
          "time": 69.17643599999934,
          "velocity": 0.7874015748031497,
          "duration": 0.044117624999998384
        },
        {
          "name": "C2",
          "midi": 36,
          "time": 69.17643599999934,
          "velocity": 0.7874015748031497,
          "duration": 0.08823524999999677
        },
        {
          "name": "A#2",
          "midi": 46,
          "time": 69.52937699999934,
          "velocity": 0.7874015748031497,
          "duration": 0.044117624999998384
        },
        {
          "name": "D2",
          "midi": 38,
          "time": 69.52937699999934,
          "velocity": 0.7874015748031497,
          "duration": 0.08823524999999677
        },
        {
          "name": "A#2",
          "midi": 46,
          "time": 69.88231799999934,
          "velocity": 0.7874015748031497,
          "duration": 0.044117624999998384
        },
        {
          "name": "C2",
          "midi": 36,
          "time": 69.88231799999934,
          "velocity": 0.7874015748031497,
          "duration": 0.08823524999999677
        },
        {
          "name": "A#2",
          "midi": 46,
          "time": 70.23525899999935,
          "velocity": 0.7874015748031497,
          "duration": 0.044117624999998384
        },
        {
          "name": "D2",
          "midi": 38,
          "time": 70.23525899999935,
          "velocity": 0.7874015748031497,
          "duration": 0.08823524999999677
        },
        {
          "name": "A#2",
          "midi": 46,
          "time": 70.58819999999935,
          "velocity": 0.7874015748031497,
          "duration": 0.044117624999998384
        },
        {
          "name": "C2",
          "midi": 36,
          "time": 70.58819999999935,
          "velocity": 0.7874015748031497,
          "duration": 0.08823524999999677
        },
        {
          "name": "A#2",
          "midi": 46,
          "time": 70.94114099999935,
          "velocity": 0.7874015748031497,
          "duration": 0.044117624999998384
        },
        {
          "name": "D2",
          "midi": 38,
          "time": 70.94114099999935,
          "velocity": 0.7874015748031497,
          "duration": 0.08823524999999677
        },
        {
          "name": "A#2",
          "midi": 46,
          "time": 71.29408199999935,
          "velocity": 0.7874015748031497,
          "duration": 0.044117624999998384
        },
        {
          "name": "C2",
          "midi": 36,
          "time": 71.29408199999935,
          "velocity": 0.7874015748031497,
          "duration": 0.08823524999999677
        },
        {
          "name": "A#2",
          "midi": 46,
          "time": 71.64702299999935,
          "velocity": 0.7874015748031497,
          "duration": 0.044117624999998384
        },
        {
          "name": "D2",
          "midi": 38,
          "time": 71.64702299999935,
          "velocity": 0.7874015748031497,
          "duration": 0.08823524999999677
        },
        {
          "name": "D2",
          "midi": 38,
          "time": 71.99996399999935,
          "velocity": 0.7874015748031497,
          "duration": 0.08823524999999677
        },
        {
          "name": "E2",
          "midi": 40,
          "time": 71.99996399999935,
          "velocity": 0.7874015748031497,
          "duration": 0.044117624999998384
        },
        {
          "name": "C2",
          "midi": 36,
          "time": 72.18084626249934,
          "velocity": 0.7874015748031497,
          "duration": 0.044117624999998384
        },
        {
          "name": "C#3",
          "midi": 49,
          "time": 72.18084626249934,
          "velocity": 0.7874015748031497,
          "duration": 0.17647049999999354
        },
        {
          "name": "C#3",
          "midi": 49,
          "time": 72.70584599999934,
          "velocity": 0.7874015748031497,
          "duration": 0.08823524999999677
        },
        {
          "name": "C2",
          "midi": 36,
          "time": 72.70584599999934,
          "velocity": 0.7874015748031497,
          "duration": 0.17647049999999354
        },
        {
          "name": "D2",
          "midi": 38,
          "time": 73.05878699999933,
          "velocity": 0.7874015748031497,
          "duration": 0.08823524999999677
        },
        {
          "name": "E2",
          "midi": 40,
          "time": 73.05878699999933,
          "velocity": 0.7874015748031497,
          "duration": 0.08823524999999677
        },
        {
          "name": "C2",
          "midi": 36,
          "time": 73.41172799999933,
          "velocity": 0.7874015748031497,
          "duration": 0.08823524999999677
        },
        {
          "name": "C#3",
          "midi": 49,
          "time": 73.43011034374933,
          "velocity": 0.7874015748031497,
          "duration": 0.044117624999998384
        },
        {
          "name": "A#2",
          "midi": 46,
          "time": 73.76466899999933,
          "velocity": 0.7874015748031497,
          "duration": 0.044117624999998384
        },
        {
          "name": "D2",
          "midi": 38,
          "time": 73.76466899999933,
          "velocity": 0.7874015748031497,
          "duration": 0.08823524999999677
        },
        {
          "name": "A#2",
          "midi": 46,
          "time": 74.11760999999933,
          "velocity": 0.7874015748031497,
          "duration": 0.044117624999998384
        },
        {
          "name": "C2",
          "midi": 36,
          "time": 74.11760999999933,
          "velocity": 0.7874015748031497,
          "duration": 0.08823524999999677
        },
        {
          "name": "A#2",
          "midi": 46,
          "time": 74.47055099999933,
          "velocity": 0.7874015748031497,
          "duration": 0.044117624999998384
        },
        {
          "name": "D2",
          "midi": 38,
          "time": 74.47055099999933,
          "velocity": 0.7874015748031497,
          "duration": 0.08823524999999677
        },
        {
          "name": "A#2",
          "midi": 46,
          "time": 74.82349199999933,
          "velocity": 0.7874015748031497,
          "duration": 0.044117624999998384
        },
        {
          "name": "C2",
          "midi": 36,
          "time": 74.82349199999933,
          "velocity": 0.7874015748031497,
          "duration": 0.08823524999999677
        },
        {
          "name": "A#2",
          "midi": 46,
          "time": 75.17643299999934,
          "velocity": 0.7874015748031497,
          "duration": 0.044117624999998384
        },
        {
          "name": "D2",
          "midi": 38,
          "time": 75.17643299999934,
          "velocity": 0.7874015748031497,
          "duration": 0.08823524999999677
        },
        {
          "name": "A#2",
          "midi": 46,
          "time": 75.52937399999934,
          "velocity": 0.7874015748031497,
          "duration": 0.044117624999998384
        },
        {
          "name": "C2",
          "midi": 36,
          "time": 75.52937399999934,
          "velocity": 0.7874015748031497,
          "duration": 0.08823524999999677
        },
        {
          "name": "A#2",
          "midi": 46,
          "time": 75.88231499999934,
          "velocity": 0.7874015748031497,
          "duration": 0.044117624999998384
        },
        {
          "name": "D2",
          "midi": 38,
          "time": 75.88231499999934,
          "velocity": 0.7874015748031497,
          "duration": 0.08823524999999677
        },
        {
          "name": "A#2",
          "midi": 46,
          "time": 76.23525599999934,
          "velocity": 0.7874015748031497,
          "duration": 0.044117624999998384
        },
        {
          "name": "C2",
          "midi": 36,
          "time": 76.23525599999934,
          "velocity": 0.7874015748031497,
          "duration": 0.08823524999999677
        },
        {
          "name": "A#2",
          "midi": 46,
          "time": 76.58819699999934,
          "velocity": 0.7874015748031497,
          "duration": 0.044117624999998384
        },
        {
          "name": "D2",
          "midi": 38,
          "time": 76.58819699999934,
          "velocity": 0.7874015748031497,
          "duration": 0.08823524999999677
        },
        {
          "name": "A#2",
          "midi": 46,
          "time": 76.94113799999934,
          "velocity": 0.7874015748031497,
          "duration": 0.044117624999998384
        },
        {
          "name": "C2",
          "midi": 36,
          "time": 76.94113799999934,
          "velocity": 0.7874015748031497,
          "duration": 0.08823524999999677
        },
        {
          "name": "A#2",
          "midi": 46,
          "time": 77.29407899999934,
          "velocity": 0.7874015748031497,
          "duration": 0.044117624999998384
        },
        {
          "name": "D2",
          "midi": 38,
          "time": 77.29407899999934,
          "velocity": 0.7874015748031497,
          "duration": 0.08823524999999677
        },
        {
          "name": "D2",
          "midi": 38,
          "time": 77.64701999999934,
          "velocity": 0.7874015748031497,
          "duration": 0.08823524999999677
        },
        {
          "name": "E2",
          "midi": 40,
          "time": 77.64701999999934,
          "velocity": 0.7874015748031497,
          "duration": 0.044117624999998384
        },
        {
          "name": "C2",
          "midi": 36,
          "time": 77.82790226249934,
          "velocity": 0.7874015748031497,
          "duration": 0.044117624999998384
        },
        {
          "name": "C#3",
          "midi": 49,
          "time": 77.82790226249934,
          "velocity": 0.7874015748031497,
          "duration": 0.17647049999999354
        },
        {
          "name": "C#3",
          "midi": 49,
          "time": 78.35290199999933,
          "velocity": 0.7874015748031497,
          "duration": 0.08823524999999677
        },
        {
          "name": "C2",
          "midi": 36,
          "time": 78.35290199999933,
          "velocity": 0.7874015748031497,
          "duration": 0.17647049999999354
        },
        {
          "name": "D2",
          "midi": 38,
          "time": 78.70584299999932,
          "velocity": 0.7874015748031497,
          "duration": 0.08823524999999677
        },
        {
          "name": "E2",
          "midi": 40,
          "time": 78.70584299999932,
          "velocity": 0.7874015748031497,
          "duration": 0.08823524999999677
        },
        {
          "name": "C2",
          "midi": 36,
          "time": 79.05878399999932,
          "velocity": 0.7874015748031497,
          "duration": 0.08823525000001098
        },
        {
          "name": "C#3",
          "midi": 49,
          "time": 79.07716634374933,
          "velocity": 0.7874015748031497,
          "duration": 0.33455865625001024
        },
        {
          "name": "A#2",
          "midi": 46,
          "time": 79.41172499999934,
          "velocity": 0.7874015748031497,
          "duration": 0.044117624999998384
        },
        {
          "name": "D2",
          "midi": 38,
          "time": 79.41172499999934,
          "velocity": 0.7874015748031497,
          "duration": 0.08823524999999677
        },
        {
          "name": "A#2",
          "midi": 46,
          "time": 79.76466599999934,
          "velocity": 0.7874015748031497,
          "duration": 0.044117624999998384
        },
        {
          "name": "C2",
          "midi": 36,
          "time": 79.76466599999934,
          "velocity": 0.7874015748031497,
          "duration": 0.08823524999999677
        },
        {
          "name": "A#2",
          "midi": 46,
          "time": 80.11760699999934,
          "velocity": 0.7874015748031497,
          "duration": 0.044117624999998384
        },
        {
          "name": "D2",
          "midi": 38,
          "time": 80.11760699999934,
          "velocity": 0.7874015748031497,
          "duration": 0.08823524999999677
        },
        {
          "name": "A#2",
          "midi": 46,
          "time": 80.47054799999934,
          "velocity": 0.7874015748031497,
          "duration": 0.044117624999998384
        },
        {
          "name": "C2",
          "midi": 36,
          "time": 80.47054799999934,
          "velocity": 0.7874015748031497,
          "duration": 0.08823524999999677
        },
        {
          "name": "A#2",
          "midi": 46,
          "time": 80.82348899999934,
          "velocity": 0.7874015748031497,
          "duration": 0.044117624999998384
        },
        {
          "name": "D2",
          "midi": 38,
          "time": 80.82348899999934,
          "velocity": 0.7874015748031497,
          "duration": 0.08823524999999677
        },
        {
          "name": "A#2",
          "midi": 46,
          "time": 81.17642999999934,
          "velocity": 0.7874015748031497,
          "duration": 0.044117624999998384
        },
        {
          "name": "C2",
          "midi": 36,
          "time": 81.17642999999934,
          "velocity": 0.7874015748031497,
          "duration": 0.08823524999999677
        },
        {
          "name": "A#2",
          "midi": 46,
          "time": 81.52937099999934,
          "velocity": 0.7874015748031497,
          "duration": 0.044117624999998384
        },
        {
          "name": "D2",
          "midi": 38,
          "time": 81.52937099999934,
          "velocity": 0.7874015748031497,
          "duration": 0.08823524999999677
        },
        {
          "name": "A#2",
          "midi": 46,
          "time": 81.88231199999935,
          "velocity": 0.7874015748031497,
          "duration": 0.044117624999998384
        },
        {
          "name": "C2",
          "midi": 36,
          "time": 81.88231199999935,
          "velocity": 0.7874015748031497,
          "duration": 0.08823524999999677
        },
        {
          "name": "A#2",
          "midi": 46,
          "time": 82.23525299999935,
          "velocity": 0.7874015748031497,
          "duration": 0.044117624999998384
        },
        {
          "name": "D2",
          "midi": 38,
          "time": 82.23525299999935,
          "velocity": 0.7874015748031497,
          "duration": 0.08823524999999677
        },
        {
          "name": "A#2",
          "midi": 46,
          "time": 82.58819399999935,
          "velocity": 0.7874015748031497,
          "duration": 0.044117624999998384
        },
        {
          "name": "C2",
          "midi": 36,
          "time": 82.58819399999935,
          "velocity": 0.7874015748031497,
          "duration": 0.08823524999999677
        },
        {
          "name": "A#2",
          "midi": 46,
          "time": 82.94113499999935,
          "velocity": 0.7874015748031497,
          "duration": 0.044117624999998384
        },
        {
          "name": "D2",
          "midi": 38,
          "time": 82.94113499999935,
          "velocity": 0.7874015748031497,
          "duration": 0.08823524999999677
        },
        {
          "name": "D2",
          "midi": 38,
          "time": 83.29407599999935,
          "velocity": 0.7874015748031497,
          "duration": 0.08823524999999677
        },
        {
          "name": "E2",
          "midi": 40,
          "time": 83.29407599999935,
          "velocity": 0.7874015748031497,
          "duration": 0.044117624999998384
        },
        {
          "name": "C2",
          "midi": 36,
          "time": 83.47495826249934,
          "velocity": 0.7874015748031497,
          "duration": 0.044117624999998384
        },
        {
          "name": "C#3",
          "midi": 49,
          "time": 83.47495826249934,
          "velocity": 0.7874015748031497,
          "duration": 0.17647049999999354
        },
        {
          "name": "C#3",
          "midi": 49,
          "time": 83.99995799999934,
          "velocity": 0.7874015748031497,
          "duration": 0.08823524999999677
        },
        {
          "name": "C2",
          "midi": 36,
          "time": 83.99995799999934,
          "velocity": 0.7874015748031497,
          "duration": 0.17647049999999354
        },
        {
          "name": "D2",
          "midi": 38,
          "time": 84.35289899999933,
          "velocity": 0.7874015748031497,
          "duration": 0.08823524999999677
        },
        {
          "name": "E2",
          "midi": 40,
          "time": 84.35289899999933,
          "velocity": 0.7874015748031497,
          "duration": 0.08823524999999677
        },
        {
          "name": "C2",
          "midi": 36,
          "time": 84.70583999999933,
          "velocity": 0.7874015748031497,
          "duration": 0.08823524999999677
        },
        {
          "name": "C#3",
          "midi": 49,
          "time": 84.72422234374933,
          "velocity": 0.7874015748031497,
          "duration": 0.044117624999998384
        },
        {
          "name": "A#2",
          "midi": 46,
          "time": 85.05878099999933,
          "velocity": 0.7874015748031497,
          "duration": 0.044117624999998384
        },
        {
          "name": "D2",
          "midi": 38,
          "time": 85.05878099999933,
          "velocity": 0.7874015748031497,
          "duration": 0.08823524999999677
        },
        {
          "name": "A#2",
          "midi": 46,
          "time": 85.41172199999933,
          "velocity": 0.7874015748031497,
          "duration": 0.044117624999998384
        },
        {
          "name": "C2",
          "midi": 36,
          "time": 85.41172199999933,
          "velocity": 0.7874015748031497,
          "duration": 0.08823524999999677
        },
        {
          "name": "A#2",
          "midi": 46,
          "time": 85.76466299999933,
          "velocity": 0.7874015748031497,
          "duration": 0.044117624999998384
        },
        {
          "name": "D2",
          "midi": 38,
          "time": 85.76466299999933,
          "velocity": 0.7874015748031497,
          "duration": 0.08823524999999677
        },
        {
          "name": "A#2",
          "midi": 46,
          "time": 86.11760399999933,
          "velocity": 0.7874015748031497,
          "duration": 0.044117624999998384
        },
        {
          "name": "C2",
          "midi": 36,
          "time": 86.11760399999933,
          "velocity": 0.7874015748031497,
          "duration": 0.08823524999999677
        },
        {
          "name": "A#2",
          "midi": 46,
          "time": 86.47054499999933,
          "velocity": 0.7874015748031497,
          "duration": 0.044117624999998384
        },
        {
          "name": "D2",
          "midi": 38,
          "time": 86.47054499999933,
          "velocity": 0.7874015748031497,
          "duration": 0.08823524999999677
        },
        {
          "name": "A#2",
          "midi": 46,
          "time": 86.82348599999933,
          "velocity": 0.7874015748031497,
          "duration": 0.044117624999998384
        },
        {
          "name": "C2",
          "midi": 36,
          "time": 86.82348599999933,
          "velocity": 0.7874015748031497,
          "duration": 0.08823524999999677
        },
        {
          "name": "A#2",
          "midi": 46,
          "time": 87.17642699999934,
          "velocity": 0.7874015748031497,
          "duration": 0.044117624999998384
        },
        {
          "name": "D2",
          "midi": 38,
          "time": 87.17642699999934,
          "velocity": 0.7874015748031497,
          "duration": 0.08823524999999677
        },
        {
          "name": "A#2",
          "midi": 46,
          "time": 87.52936799999934,
          "velocity": 0.7874015748031497,
          "duration": 0.044117624999998384
        },
        {
          "name": "C2",
          "midi": 36,
          "time": 87.52936799999934,
          "velocity": 0.7874015748031497,
          "duration": 0.08823524999999677
        },
        {
          "name": "A#2",
          "midi": 46,
          "time": 87.88230899999934,
          "velocity": 0.7874015748031497,
          "duration": 0.044117624999998384
        },
        {
          "name": "D2",
          "midi": 38,
          "time": 87.88230899999934,
          "velocity": 0.7874015748031497,
          "duration": 0.08823524999999677
        },
        {
          "name": "A#2",
          "midi": 46,
          "time": 88.23524999999934,
          "velocity": 0.7874015748031497,
          "duration": 0.044117624999998384
        },
        {
          "name": "C2",
          "midi": 36,
          "time": 88.23524999999934,
          "velocity": 0.7874015748031497,
          "duration": 0.08823524999999677
        },
        {
          "name": "A#2",
          "midi": 46,
          "time": 88.58819099999934,
          "velocity": 0.7874015748031497,
          "duration": 0.044117624999998384
        },
        {
          "name": "D2",
          "midi": 38,
          "time": 88.58819099999934,
          "velocity": 0.7874015748031497,
          "duration": 0.08823524999999677
        },
        {
          "name": "D2",
          "midi": 38,
          "time": 88.94113199999934,
          "velocity": 0.7874015748031497,
          "duration": 0.08823524999999677
        },
        {
          "name": "E2",
          "midi": 40,
          "time": 88.94113199999934,
          "velocity": 0.7874015748031497,
          "duration": 0.044117624999998384
        },
        {
          "name": "C2",
          "midi": 36,
          "time": 89.12201426249933,
          "velocity": 0.7874015748031497,
          "duration": 0.044117624999998384
        },
        {
          "name": "C#3",
          "midi": 49,
          "time": 89.12201426249933,
          "velocity": 0.7874015748031497,
          "duration": 0.17647049999999354
        },
        {
          "name": "C#3",
          "midi": 49,
          "time": 89.64701399999933,
          "velocity": 0.7874015748031497,
          "duration": 0.08823524999999677
        },
        {
          "name": "C2",
          "midi": 36,
          "time": 89.64701399999933,
          "velocity": 0.7874015748031497,
          "duration": 0.17647049999999354
        },
        {
          "name": "D2",
          "midi": 38,
          "time": 89.99995499999932,
          "velocity": 0.7874015748031497,
          "duration": 0.08823524999999677
        },
        {
          "name": "E2",
          "midi": 40,
          "time": 89.99995499999932,
          "velocity": 0.7874015748031497,
          "duration": 0.08823524999999677
        },
        {
          "name": "C2",
          "midi": 36,
          "time": 90.35289599999932,
          "velocity": 0.7874015748031497,
          "duration": 0.08823525000001098
        },
        {
          "name": "C#3",
          "midi": 49,
          "time": 90.37127834374932,
          "velocity": 0.7874015748031497,
          "duration": 0.33455865625001024
        },
        {
          "name": "A#2",
          "midi": 46,
          "time": 90.70583699999933,
          "velocity": 0.7874015748031497,
          "duration": 0.044117624999998384
        },
        {
          "name": "D2",
          "midi": 38,
          "time": 90.70583699999933,
          "velocity": 0.7874015748031497,
          "duration": 0.08823524999999677
        },
        {
          "name": "A#2",
          "midi": 46,
          "time": 91.05877799999934,
          "velocity": 0.7874015748031497,
          "duration": 0.044117624999998384
        },
        {
          "name": "C2",
          "midi": 36,
          "time": 91.05877799999934,
          "velocity": 0.7874015748031497,
          "duration": 0.08823524999999677
        },
        {
          "name": "A#2",
          "midi": 46,
          "time": 91.41171899999934,
          "velocity": 0.7874015748031497,
          "duration": 0.044117624999998384
        },
        {
          "name": "D2",
          "midi": 38,
          "time": 91.41171899999934,
          "velocity": 0.7874015748031497,
          "duration": 0.08823524999999677
        },
        {
          "name": "A#2",
          "midi": 46,
          "time": 91.76465999999934,
          "velocity": 0.7874015748031497,
          "duration": 0.044117624999998384
        },
        {
          "name": "C2",
          "midi": 36,
          "time": 91.76465999999934,
          "velocity": 0.7874015748031497,
          "duration": 0.08823524999999677
        },
        {
          "name": "A#2",
          "midi": 46,
          "time": 92.11760099999934,
          "velocity": 0.7874015748031497,
          "duration": 0.044117624999998384
        },
        {
          "name": "D2",
          "midi": 38,
          "time": 92.11760099999934,
          "velocity": 0.7874015748031497,
          "duration": 0.08823524999999677
        },
        {
          "name": "A#2",
          "midi": 46,
          "time": 92.47054199999934,
          "velocity": 0.7874015748031497,
          "duration": 0.044117624999998384
        },
        {
          "name": "C2",
          "midi": 36,
          "time": 92.47054199999934,
          "velocity": 0.7874015748031497,
          "duration": 0.08823524999999677
        },
        {
          "name": "A#2",
          "midi": 46,
          "time": 92.82348299999934,
          "velocity": 0.7874015748031497,
          "duration": 0.044117624999998384
        },
        {
          "name": "D2",
          "midi": 38,
          "time": 92.82348299999934,
          "velocity": 0.7874015748031497,
          "duration": 0.08823524999999677
        },
        {
          "name": "A#2",
          "midi": 46,
          "time": 93.17642399999934,
          "velocity": 0.7874015748031497,
          "duration": 0.044117624999998384
        },
        {
          "name": "C2",
          "midi": 36,
          "time": 93.17642399999934,
          "velocity": 0.7874015748031497,
          "duration": 0.08823524999999677
        },
        {
          "name": "A#2",
          "midi": 46,
          "time": 93.52936499999934,
          "velocity": 0.7874015748031497,
          "duration": 0.044117624999998384
        },
        {
          "name": "D2",
          "midi": 38,
          "time": 93.52936499999934,
          "velocity": 0.7874015748031497,
          "duration": 0.08823524999999677
        },
        {
          "name": "A#2",
          "midi": 46,
          "time": 93.88230599999935,
          "velocity": 0.7874015748031497,
          "duration": 0.044117624999998384
        },
        {
          "name": "C2",
          "midi": 36,
          "time": 93.88230599999935,
          "velocity": 0.7874015748031497,
          "duration": 0.08823524999999677
        },
        {
          "name": "A#2",
          "midi": 46,
          "time": 94.23524699999935,
          "velocity": 0.7874015748031497,
          "duration": 0.044117624999998384
        },
        {
          "name": "D2",
          "midi": 38,
          "time": 94.23524699999935,
          "velocity": 0.7874015748031497,
          "duration": 0.08823524999999677
        },
        {
          "name": "D2",
          "midi": 38,
          "time": 94.58818799999935,
          "velocity": 0.7874015748031497,
          "duration": 0.08823524999999677
        },
        {
          "name": "E2",
          "midi": 40,
          "time": 94.58818799999935,
          "velocity": 0.7874015748031497,
          "duration": 0.044117624999998384
        },
        {
          "name": "C2",
          "midi": 36,
          "time": 94.76907026249934,
          "velocity": 0.7874015748031497,
          "duration": 0.044117624999998384
        },
        {
          "name": "C#3",
          "midi": 49,
          "time": 94.76907026249934,
          "velocity": 0.7874015748031497,
          "duration": 0.17647049999999354
        },
        {
          "name": "C#3",
          "midi": 49,
          "time": 95.29406999999934,
          "velocity": 0.7874015748031497,
          "duration": 0.08823524999999677
        },
        {
          "name": "C2",
          "midi": 36,
          "time": 95.29406999999934,
          "velocity": 0.7874015748031497,
          "duration": 0.17647049999999354
        },
        {
          "name": "D2",
          "midi": 38,
          "time": 95.64701099999932,
          "velocity": 0.7874015748031497,
          "duration": 0.08823524999999677
        },
        {
          "name": "E2",
          "midi": 40,
          "time": 95.64701099999932,
          "velocity": 0.7874015748031497,
          "duration": 0.08823524999999677
        },
        {
          "name": "C2",
          "midi": 36,
          "time": 95.99995199999933,
          "velocity": 0.7874015748031497,
          "duration": 0.08823524999999677
        },
        {
          "name": "C#3",
          "midi": 49,
          "time": 96.01833434374933,
          "velocity": 0.7874015748031497,
          "duration": 0.044117624999998384
        },
        {
          "name": "A#2",
          "midi": 46,
          "time": 96.35289299999933,
          "velocity": 0.7874015748031497,
          "duration": 0.044117624999998384
        },
        {
          "name": "D2",
          "midi": 38,
          "time": 96.35289299999933,
          "velocity": 0.7874015748031497,
          "duration": 0.08823524999999677
        },
        {
          "name": "A#2",
          "midi": 46,
          "time": 96.70583399999933,
          "velocity": 0.7874015748031497,
          "duration": 0.044117624999998384
        },
        {
          "name": "C2",
          "midi": 36,
          "time": 96.70583399999933,
          "velocity": 0.7874015748031497,
          "duration": 0.08823524999999677
        },
        {
          "name": "A#2",
          "midi": 46,
          "time": 97.05877499999933,
          "velocity": 0.7874015748031497,
          "duration": 0.044117624999998384
        },
        {
          "name": "D2",
          "midi": 38,
          "time": 97.05877499999933,
          "velocity": 0.7874015748031497,
          "duration": 0.08823524999999677
        },
        {
          "name": "A#2",
          "midi": 46,
          "time": 97.41171599999933,
          "velocity": 0.7874015748031497,
          "duration": 0.044117624999998384
        },
        {
          "name": "C2",
          "midi": 36,
          "time": 97.41171599999933,
          "velocity": 0.7874015748031497,
          "duration": 0.08823524999999677
        },
        {
          "name": "A#2",
          "midi": 46,
          "time": 97.76465699999933,
          "velocity": 0.7874015748031497,
          "duration": 0.044117624999998384
        },
        {
          "name": "D2",
          "midi": 38,
          "time": 97.76465699999933,
          "velocity": 0.7874015748031497,
          "duration": 0.08823524999999677
        },
        {
          "name": "A#2",
          "midi": 46,
          "time": 98.11759799999933,
          "velocity": 0.7874015748031497,
          "duration": 0.044117624999998384
        },
        {
          "name": "C2",
          "midi": 36,
          "time": 98.11759799999933,
          "velocity": 0.7874015748031497,
          "duration": 0.08823524999999677
        },
        {
          "name": "A#2",
          "midi": 46,
          "time": 98.47053899999933,
          "velocity": 0.7874015748031497,
          "duration": 0.044117624999998384
        },
        {
          "name": "D2",
          "midi": 38,
          "time": 98.47053899999933,
          "velocity": 0.7874015748031497,
          "duration": 0.08823524999999677
        },
        {
          "name": "A#2",
          "midi": 46,
          "time": 98.82347999999934,
          "velocity": 0.7874015748031497,
          "duration": 0.044117624999998384
        },
        {
          "name": "C2",
          "midi": 36,
          "time": 98.82347999999934,
          "velocity": 0.7874015748031497,
          "duration": 0.08823524999999677
        },
        {
          "name": "A#2",
          "midi": 46,
          "time": 99.17642099999934,
          "velocity": 0.7874015748031497,
          "duration": 0.044117624999998384
        },
        {
          "name": "D2",
          "midi": 38,
          "time": 99.17642099999934,
          "velocity": 0.7874015748031497,
          "duration": 0.08823524999999677
        },
        {
          "name": "A#2",
          "midi": 46,
          "time": 99.52936199999934,
          "velocity": 0.7874015748031497,
          "duration": 0.044117624999998384
        },
        {
          "name": "C2",
          "midi": 36,
          "time": 99.52936199999934,
          "velocity": 0.7874015748031497,
          "duration": 0.08823524999999677
        },
        {
          "name": "A#2",
          "midi": 46,
          "time": 99.88230299999934,
          "velocity": 0.7874015748031497,
          "duration": 0.044117624999998384
        },
        {
          "name": "D2",
          "midi": 38,
          "time": 99.88230299999934,
          "velocity": 0.7874015748031497,
          "duration": 0.08823524999999677
        },
        {
          "name": "D2",
          "midi": 38,
          "time": 100.23524399999934,
          "velocity": 0.7874015748031497,
          "duration": 0.08823524999999677
        },
        {
          "name": "E2",
          "midi": 40,
          "time": 100.23524399999934,
          "velocity": 0.7874015748031497,
          "duration": 0.044117624999998384
        },
        {
          "name": "C2",
          "midi": 36,
          "time": 100.41612626249933,
          "velocity": 0.7874015748031497,
          "duration": 0.044117624999998384
        },
        {
          "name": "C#3",
          "midi": 49,
          "time": 100.41612626249933,
          "velocity": 0.7874015748031497,
          "duration": 0.17647049999999354
        },
        {
          "name": "C#3",
          "midi": 49,
          "time": 100.94112599999933,
          "velocity": 0.7874015748031497,
          "duration": 0.08823524999999677
        },
        {
          "name": "C2",
          "midi": 36,
          "time": 100.94112599999933,
          "velocity": 0.7874015748031497,
          "duration": 0.17647049999999354
        },
        {
          "name": "D2",
          "midi": 38,
          "time": 101.29406699999932,
          "velocity": 0.7874015748031497,
          "duration": 0.08823524999999677
        },
        {
          "name": "E2",
          "midi": 40,
          "time": 101.29406699999932,
          "velocity": 0.7874015748031497,
          "duration": 0.08823524999999677
        },
        {
          "name": "C2",
          "midi": 36,
          "time": 101.64700799999932,
          "velocity": 0.7874015748031497,
          "duration": 0.08823525000001098
        },
        {
          "name": "C#3",
          "midi": 49,
          "time": 101.66539034374932,
          "velocity": 0.7874015748031497,
          "duration": 0.33455865625001024
        },
        {
          "name": "A#2",
          "midi": 46,
          "time": 101.99994899999933,
          "velocity": 0.7874015748031497,
          "duration": 0.044117624999998384
        },
        {
          "name": "D2",
          "midi": 38,
          "time": 101.99994899999933,
          "velocity": 0.7874015748031497,
          "duration": 0.08823524999999677
        },
        {
          "name": "A#2",
          "midi": 46,
          "time": 102.35288999999933,
          "velocity": 0.7874015748031497,
          "duration": 0.044117624999998384
        },
        {
          "name": "C2",
          "midi": 36,
          "time": 102.35288999999933,
          "velocity": 0.7874015748031497,
          "duration": 0.08823524999999677
        },
        {
          "name": "A#2",
          "midi": 46,
          "time": 102.70583099999934,
          "velocity": 0.7874015748031497,
          "duration": 0.044117624999998384
        },
        {
          "name": "D2",
          "midi": 38,
          "time": 102.70583099999934,
          "velocity": 0.7874015748031497,
          "duration": 0.08823524999999677
        },
        {
          "name": "A#2",
          "midi": 46,
          "time": 103.05877199999934,
          "velocity": 0.7874015748031497,
          "duration": 0.044117624999998384
        },
        {
          "name": "C2",
          "midi": 36,
          "time": 103.05877199999934,
          "velocity": 0.7874015748031497,
          "duration": 0.08823524999999677
        },
        {
          "name": "A#2",
          "midi": 46,
          "time": 103.41171299999934,
          "velocity": 0.7874015748031497,
          "duration": 0.044117624999998384
        },
        {
          "name": "D2",
          "midi": 38,
          "time": 103.41171299999934,
          "velocity": 0.7874015748031497,
          "duration": 0.08823524999999677
        },
        {
          "name": "A#2",
          "midi": 46,
          "time": 103.76465399999934,
          "velocity": 0.7874015748031497,
          "duration": 0.044117624999998384
        },
        {
          "name": "C2",
          "midi": 36,
          "time": 103.76465399999934,
          "velocity": 0.7874015748031497,
          "duration": 0.08823524999999677
        },
        {
          "name": "A#2",
          "midi": 46,
          "time": 104.11759499999934,
          "velocity": 0.7874015748031497,
          "duration": 0.044117624999998384
        },
        {
          "name": "D2",
          "midi": 38,
          "time": 104.11759499999934,
          "velocity": 0.7874015748031497,
          "duration": 0.08823524999999677
        },
        {
          "name": "A#2",
          "midi": 46,
          "time": 104.47053599999934,
          "velocity": 0.7874015748031497,
          "duration": 0.044117624999998384
        },
        {
          "name": "C2",
          "midi": 36,
          "time": 104.47053599999934,
          "velocity": 0.7874015748031497,
          "duration": 0.08823524999999677
        },
        {
          "name": "A#2",
          "midi": 46,
          "time": 104.82347699999934,
          "velocity": 0.7874015748031497,
          "duration": 0.044117624999998384
        },
        {
          "name": "D2",
          "midi": 38,
          "time": 104.82347699999934,
          "velocity": 0.7874015748031497,
          "duration": 0.08823524999999677
        },
        {
          "name": "A#2",
          "midi": 46,
          "time": 105.17641799999934,
          "velocity": 0.7874015748031497,
          "duration": 0.044117624999998384
        },
        {
          "name": "C2",
          "midi": 36,
          "time": 105.17641799999934,
          "velocity": 0.7874015748031497,
          "duration": 0.08823524999999677
        },
        {
          "name": "A#2",
          "midi": 46,
          "time": 105.52935899999935,
          "velocity": 0.7874015748031497,
          "duration": 0.044117624999998384
        },
        {
          "name": "D2",
          "midi": 38,
          "time": 105.52935899999935,
          "velocity": 0.7874015748031497,
          "duration": 0.08823524999999677
        },
        {
          "name": "D2",
          "midi": 38,
          "time": 105.88229999999935,
          "velocity": 0.7874015748031497,
          "duration": 0.08823524999999677
        },
        {
          "name": "E2",
          "midi": 40,
          "time": 105.88229999999935,
          "velocity": 0.7874015748031497,
          "duration": 0.044117624999998384
        },
        {
          "name": "C2",
          "midi": 36,
          "time": 106.06318226249934,
          "velocity": 0.7874015748031497,
          "duration": 0.044117624999998384
        },
        {
          "name": "C#3",
          "midi": 49,
          "time": 106.06318226249934,
          "velocity": 0.7874015748031497,
          "duration": 0.17647049999999354
        },
        {
          "name": "C#3",
          "midi": 49,
          "time": 106.58818199999934,
          "velocity": 0.7874015748031497,
          "duration": 0.08823524999999677
        },
        {
          "name": "C2",
          "midi": 36,
          "time": 106.58818199999934,
          "velocity": 0.7874015748031497,
          "duration": 0.17647049999999354
        },
        {
          "name": "D2",
          "midi": 38,
          "time": 106.94112299999932,
          "velocity": 0.7874015748031497,
          "duration": 0.08823524999999677
        },
        {
          "name": "E2",
          "midi": 40,
          "time": 106.94112299999932,
          "velocity": 0.7874015748031497,
          "duration": 0.08823524999999677
        },
        {
          "name": "C2",
          "midi": 36,
          "time": 107.29406399999932,
          "velocity": 0.7874015748031497,
          "duration": 0.08823524999999677
        },
        {
          "name": "C#3",
          "midi": 49,
          "time": 107.31244634374933,
          "velocity": 0.7874015748031497,
          "duration": 0.044117624999998384
        },
        {
          "name": "A#2",
          "midi": 46,
          "time": 107.64700499999933,
          "velocity": 0.7874015748031497,
          "duration": 0.044117624999998384
        },
        {
          "name": "D2",
          "midi": 38,
          "time": 107.64700499999933,
          "velocity": 0.7874015748031497,
          "duration": 0.08823524999999677
        },
        {
          "name": "A#2",
          "midi": 46,
          "time": 107.99994599999933,
          "velocity": 0.7874015748031497,
          "duration": 0.044117624999998384
        },
        {
          "name": "C2",
          "midi": 36,
          "time": 107.99994599999933,
          "velocity": 0.7874015748031497,
          "duration": 0.08823524999999677
        },
        {
          "name": "A#2",
          "midi": 46,
          "time": 108.35288699999933,
          "velocity": 0.7874015748031497,
          "duration": 0.044117624999998384
        },
        {
          "name": "D2",
          "midi": 38,
          "time": 108.35288699999933,
          "velocity": 0.7874015748031497,
          "duration": 0.08823524999999677
        },
        {
          "name": "A#2",
          "midi": 46,
          "time": 108.70582799999933,
          "velocity": 0.7874015748031497,
          "duration": 0.044117624999998384
        },
        {
          "name": "C2",
          "midi": 36,
          "time": 108.70582799999933,
          "velocity": 0.7874015748031497,
          "duration": 0.08823524999999677
        },
        {
          "name": "A#2",
          "midi": 46,
          "time": 109.05876899999933,
          "velocity": 0.7874015748031497,
          "duration": 0.044117624999998384
        },
        {
          "name": "D2",
          "midi": 38,
          "time": 109.05876899999933,
          "velocity": 0.7874015748031497,
          "duration": 0.08823524999999677
        },
        {
          "name": "A#2",
          "midi": 46,
          "time": 109.41170999999933,
          "velocity": 0.7874015748031497,
          "duration": 0.044117624999998384
        },
        {
          "name": "C2",
          "midi": 36,
          "time": 109.41170999999933,
          "velocity": 0.7874015748031497,
          "duration": 0.08823524999999677
        },
        {
          "name": "A#2",
          "midi": 46,
          "time": 109.76465099999933,
          "velocity": 0.7874015748031497,
          "duration": 0.044117624999998384
        },
        {
          "name": "D2",
          "midi": 38,
          "time": 109.76465099999933,
          "velocity": 0.7874015748031497,
          "duration": 0.08823524999999677
        },
        {
          "name": "A#2",
          "midi": 46,
          "time": 110.11759199999933,
          "velocity": 0.7874015748031497,
          "duration": 0.044117624999998384
        },
        {
          "name": "D2",
          "midi": 38,
          "time": 110.11759199999933,
          "velocity": 0.7874015748031497,
          "duration": 0.08823524999999677
        },
        {
          "name": "C2",
          "midi": 36,
          "time": 110.29406249999933,
          "velocity": 0.8661417322834646,
          "duration": 0.044117624999998384
        },
        {
          "name": "A#2",
          "midi": 46,
          "time": 110.47053299999932,
          "velocity": 0.7874015748031497,
          "duration": 0.044117624999998384
        },
        {
          "name": "D2",
          "midi": 38,
          "time": 110.47053299999932,
          "velocity": 0.7874015748031497,
          "duration": 0.08823524999999677
        },
        {
          "name": "C2",
          "midi": 36,
          "time": 110.64700349999931,
          "velocity": 0.8661417322834646,
          "duration": 0.044117624999998384
        },
        {
          "name": "A#2",
          "midi": 46,
          "time": 110.82347399999931,
          "velocity": 0.7874015748031497,
          "duration": 0.044117624999998384
        },
        {
          "name": "D2",
          "midi": 38,
          "time": 110.82347399999931,
          "velocity": 0.7874015748031497,
          "duration": 0.08823524999999677
        },
        {
          "name": "C2",
          "midi": 36,
          "time": 110.9999444999993,
          "velocity": 0.8661417322834646,
          "duration": 0.044117624999998384
        },
        {
          "name": "A#2",
          "midi": 46,
          "time": 111.1764149999993,
          "velocity": 0.7874015748031497,
          "duration": 0.044117624999998384
        },
        {
          "name": "D2",
          "midi": 38,
          "time": 111.1764149999993,
          "velocity": 0.7874015748031497,
          "duration": 0.08823524999999677
        },
        {
          "name": "C2",
          "midi": 36,
          "time": 111.35288549999929,
          "velocity": 0.8661417322834646,
          "duration": 0.044117624999998384
        },
        {
          "name": "D2",
          "midi": 38,
          "time": 111.52935599999928,
          "velocity": 0.7874015748031497,
          "duration": 0.08823524999999677
        },
        {
          "name": "E2",
          "midi": 40,
          "time": 111.52935599999928,
          "velocity": 0.7874015748031497,
          "duration": 0.044117624999998384
        },
        {
          "name": "C2",
          "midi": 36,
          "time": 111.71023826249927,
          "velocity": 0.7874015748031497,
          "duration": 0.044117624999998384
        },
        {
          "name": "C#3",
          "midi": 49,
          "time": 111.71023826249927,
          "velocity": 0.7874015748031497,
          "duration": 0.17647049999999354
        },
        {
          "name": "C#3",
          "midi": 49,
          "time": 112.23523799999927,
          "velocity": 0.7874015748031497,
          "duration": 0.08823524999999677
        },
        {
          "name": "C2",
          "midi": 36,
          "time": 112.23523799999927,
          "velocity": 0.7874015748031497,
          "duration": 0.17647049999999354
        },
        {
          "name": "D2",
          "midi": 38,
          "time": 112.58817899999926,
          "velocity": 0.7874015748031497,
          "duration": 0.08823524999999677
        },
        {
          "name": "E2",
          "midi": 40,
          "time": 112.58817899999926,
          "velocity": 0.7874015748031497,
          "duration": 0.08823524999999677
        },
        {
          "name": "C2",
          "midi": 36,
          "time": 112.94111999999926,
          "velocity": 0.7874015748031497,
          "duration": 0.08823525000001098
        },
        {
          "name": "C#3",
          "midi": 49,
          "time": 112.95950234374926,
          "velocity": 0.7874015748031497,
          "duration": 0.33455865625001024
        },
        {
          "name": "A#2",
          "midi": 46,
          "time": 113.29406099999927,
          "velocity": 0.7874015748031497,
          "duration": 0.044117624999998384
        },
        {
          "name": "D2",
          "midi": 38,
          "time": 113.29406099999927,
          "velocity": 0.7874015748031497,
          "duration": 0.08823524999999677
        },
        {
          "name": "A#2",
          "midi": 46,
          "time": 113.64700199999928,
          "velocity": 0.7874015748031497,
          "duration": 0.044117624999998384
        },
        {
          "name": "C2",
          "midi": 36,
          "time": 113.64700199999928,
          "velocity": 0.7874015748031497,
          "duration": 0.08823524999999677
        },
        {
          "name": "A#2",
          "midi": 46,
          "time": 113.99994299999928,
          "velocity": 0.7874015748031497,
          "duration": 0.044117624999998384
        },
        {
          "name": "D2",
          "midi": 38,
          "time": 113.99994299999928,
          "velocity": 0.7874015748031497,
          "duration": 0.08823524999999677
        },
        {
          "name": "A#2",
          "midi": 46,
          "time": 114.35288399999928,
          "velocity": 0.7874015748031497,
          "duration": 0.044117624999998384
        },
        {
          "name": "C2",
          "midi": 36,
          "time": 114.35288399999928,
          "velocity": 0.7874015748031497,
          "duration": 0.08823524999999677
        },
        {
          "name": "A#2",
          "midi": 46,
          "time": 114.70582499999928,
          "velocity": 0.7874015748031497,
          "duration": 0.044117624999998384
        },
        {
          "name": "D2",
          "midi": 38,
          "time": 114.70582499999928,
          "velocity": 0.7874015748031497,
          "duration": 0.08823524999999677
        },
        {
          "name": "A#2",
          "midi": 46,
          "time": 115.05876599999928,
          "velocity": 0.7874015748031497,
          "duration": 0.044117624999998384
        },
        {
          "name": "C2",
          "midi": 36,
          "time": 115.05876599999928,
          "velocity": 0.7874015748031497,
          "duration": 0.08823524999999677
        },
        {
          "name": "A#2",
          "midi": 46,
          "time": 115.41170699999928,
          "velocity": 0.7874015748031497,
          "duration": 0.044117624999998384
        },
        {
          "name": "D2",
          "midi": 38,
          "time": 115.41170699999928,
          "velocity": 0.7874015748031497,
          "duration": 0.08823524999999677
        },
        {
          "name": "A#2",
          "midi": 46,
          "time": 115.76464799999928,
          "velocity": 0.7874015748031497,
          "duration": 0.044117624999998384
        },
        {
          "name": "C2",
          "midi": 36,
          "time": 115.76464799999928,
          "velocity": 0.7874015748031497,
          "duration": 0.08823524999999677
        },
        {
          "name": "A#2",
          "midi": 46,
          "time": 116.11758899999928,
          "velocity": 0.7874015748031497,
          "duration": 0.044117624999998384
        },
        {
          "name": "D2",
          "midi": 38,
          "time": 116.11758899999928,
          "velocity": 0.7874015748031497,
          "duration": 0.08823524999999677
        },
        {
          "name": "A#2",
          "midi": 46,
          "time": 116.47052999999929,
          "velocity": 0.7874015748031497,
          "duration": 0.044117624999998384
        },
        {
          "name": "C2",
          "midi": 36,
          "time": 116.47052999999929,
          "velocity": 0.7874015748031497,
          "duration": 0.08823524999999677
        },
        {
          "name": "A#2",
          "midi": 46,
          "time": 116.82347099999929,
          "velocity": 0.7874015748031497,
          "duration": 0.044117624999998384
        },
        {
          "name": "D2",
          "midi": 38,
          "time": 116.82347099999929,
          "velocity": 0.7874015748031497,
          "duration": 0.08823524999999677
        },
        {
          "name": "D2",
          "midi": 38,
          "time": 117.17641199999929,
          "velocity": 0.7874015748031497,
          "duration": 0.08823524999999677
        },
        {
          "name": "E2",
          "midi": 40,
          "time": 117.17641199999929,
          "velocity": 0.7874015748031497,
          "duration": 0.044117624999998384
        },
        {
          "name": "C2",
          "midi": 36,
          "time": 117.35729426249928,
          "velocity": 0.7874015748031497,
          "duration": 0.044117624999998384
        },
        {
          "name": "C#3",
          "midi": 49,
          "time": 117.35729426249928,
          "velocity": 0.7874015748031497,
          "duration": 0.17647049999999354
        },
        {
          "name": "C#3",
          "midi": 49,
          "time": 117.88229399999928,
          "velocity": 0.7874015748031497,
          "duration": 0.08823524999999677
        },
        {
          "name": "C2",
          "midi": 36,
          "time": 117.88229399999928,
          "velocity": 0.7874015748031497,
          "duration": 0.17647049999999354
        },
        {
          "name": "D2",
          "midi": 38,
          "time": 118.23523499999926,
          "velocity": 0.7874015748031497,
          "duration": 0.08823524999999677
        },
        {
          "name": "E2",
          "midi": 40,
          "time": 118.23523499999926,
          "velocity": 0.7874015748031497,
          "duration": 0.08823524999999677
        },
        {
          "name": "C2",
          "midi": 36,
          "time": 118.58817599999927,
          "velocity": 0.7874015748031497,
          "duration": 0.08823524999999677
        },
        {
          "name": "C#3",
          "midi": 49,
          "time": 118.60655834374927,
          "velocity": 0.7874015748031497,
          "duration": 0.044117624999998384
        },
        {
          "name": "A#2",
          "midi": 46,
          "time": 118.94111699999927,
          "velocity": 0.7874015748031497,
          "duration": 0.044117624999998384
        },
        {
          "name": "D2",
          "midi": 38,
          "time": 118.94111699999927,
          "velocity": 0.7874015748031497,
          "duration": 0.08823524999999677
        },
        {
          "name": "A#2",
          "midi": 46,
          "time": 119.29405799999927,
          "velocity": 0.7874015748031497,
          "duration": 0.044117624999998384
        },
        {
          "name": "C2",
          "midi": 36,
          "time": 119.29405799999927,
          "velocity": 0.7874015748031497,
          "duration": 0.08823524999999677
        },
        {
          "name": "A#2",
          "midi": 46,
          "time": 119.64699899999927,
          "velocity": 0.7874015748031497,
          "duration": 0.044117624999998384
        },
        {
          "name": "D2",
          "midi": 38,
          "time": 119.64699899999927,
          "velocity": 0.7874015748031497,
          "duration": 0.08823524999999677
        },
        {
          "name": "A#2",
          "midi": 46,
          "time": 119.99993999999927,
          "velocity": 0.7874015748031497,
          "duration": 0.044117624999998384
        },
        {
          "name": "C2",
          "midi": 36,
          "time": 119.99993999999927,
          "velocity": 0.7874015748031497,
          "duration": 0.08823524999999677
        },
        {
          "name": "A#2",
          "midi": 46,
          "time": 120.35288099999927,
          "velocity": 0.7874015748031497,
          "duration": 0.044117624999998384
        },
        {
          "name": "D2",
          "midi": 38,
          "time": 120.35288099999927,
          "velocity": 0.7874015748031497,
          "duration": 0.08823524999999677
        },
        {
          "name": "A#2",
          "midi": 46,
          "time": 120.70582199999927,
          "velocity": 0.7874015748031497,
          "duration": 0.044117624999998384
        },
        {
          "name": "C2",
          "midi": 36,
          "time": 120.70582199999927,
          "velocity": 0.7874015748031497,
          "duration": 0.08823524999999677
        },
        {
          "name": "A#2",
          "midi": 46,
          "time": 121.05876299999927,
          "velocity": 0.7874015748031497,
          "duration": 0.044117624999998384
        },
        {
          "name": "D2",
          "midi": 38,
          "time": 121.05876299999927,
          "velocity": 0.7874015748031497,
          "duration": 0.08823524999999677
        },
        {
          "name": "A#2",
          "midi": 46,
          "time": 121.41170399999928,
          "velocity": 0.7874015748031497,
          "duration": 0.044117624999998384
        },
        {
          "name": "C2",
          "midi": 36,
          "time": 121.41170399999928,
          "velocity": 0.7874015748031497,
          "duration": 0.08823524999999677
        },
        {
          "name": "A#2",
          "midi": 46,
          "time": 121.76464499999928,
          "velocity": 0.7874015748031497,
          "duration": 0.044117624999998384
        },
        {
          "name": "D2",
          "midi": 38,
          "time": 121.76464499999928,
          "velocity": 0.7874015748031497,
          "duration": 0.08823524999999677
        },
        {
          "name": "A#2",
          "midi": 46,
          "time": 122.11758599999928,
          "velocity": 0.7874015748031497,
          "duration": 0.044117624999998384
        },
        {
          "name": "C2",
          "midi": 36,
          "time": 122.11758599999928,
          "velocity": 0.7874015748031497,
          "duration": 0.08823524999999677
        },
        {
          "name": "A#2",
          "midi": 46,
          "time": 122.47052699999928,
          "velocity": 0.7874015748031497,
          "duration": 0.044117624999998384
        },
        {
          "name": "D2",
          "midi": 38,
          "time": 122.47052699999928,
          "velocity": 0.7874015748031497,
          "duration": 0.08823524999999677
        },
        {
          "name": "D2",
          "midi": 38,
          "time": 122.82346799999928,
          "velocity": 0.7874015748031497,
          "duration": 0.08823524999999677
        },
        {
          "name": "E2",
          "midi": 40,
          "time": 122.82346799999928,
          "velocity": 0.7874015748031497,
          "duration": 0.044117624999998384
        },
        {
          "name": "C2",
          "midi": 36,
          "time": 123.00435026249927,
          "velocity": 0.7874015748031497,
          "duration": 0.044117624999998384
        },
        {
          "name": "C#3",
          "midi": 49,
          "time": 123.00435026249927,
          "velocity": 0.7874015748031497,
          "duration": 0.17647049999999354
        },
        {
          "name": "C#3",
          "midi": 49,
          "time": 123.52934999999927,
          "velocity": 0.7874015748031497,
          "duration": 0.08823524999999677
        },
        {
          "name": "C2",
          "midi": 36,
          "time": 123.52934999999927,
          "velocity": 0.7874015748031497,
          "duration": 0.17647049999999354
        },
        {
          "name": "D2",
          "midi": 38,
          "time": 123.88229099999926,
          "velocity": 0.7874015748031497,
          "duration": 0.08823524999999677
        },
        {
          "name": "E2",
          "midi": 40,
          "time": 123.88229099999926,
          "velocity": 0.7874015748031497,
          "duration": 0.08823524999999677
        },
        {
          "name": "C2",
          "midi": 36,
          "time": 124.23523199999926,
          "velocity": 0.8661417322834646,
          "duration": 0.08823524999999677
        },
        {
          "name": "C#3",
          "midi": 49,
          "time": 124.24405552499925,
          "velocity": 0.8661417322834646,
          "duration": 0.044117624999998384
        },
        {
          "name": "A#2",
          "midi": 46,
          "time": 124.58817299999926,
          "velocity": 0.7874015748031497,
          "duration": 0.044117624999998384
        },
        {
          "name": "D2",
          "midi": 38,
          "time": 124.58817299999926,
          "velocity": 0.8661417322834646,
          "duration": 0.08823524999999677
        },
        {
          "name": "A#2",
          "midi": 46,
          "time": 124.94111399999926,
          "velocity": 0.7874015748031497,
          "duration": 0.044117624999998384
        },
        {
          "name": "C2",
          "midi": 36,
          "time": 124.94111399999926,
          "velocity": 0.7874015748031497,
          "duration": 0.08823524999999677
        },
        {
          "name": "A#2",
          "midi": 46,
          "time": 125.29405499999926,
          "velocity": 0.7874015748031497,
          "duration": 0.044117624999998384
        },
        {
          "name": "D2",
          "midi": 38,
          "time": 125.29405499999926,
          "velocity": 0.7874015748031497,
          "duration": 0.08823524999999677
        },
        {
          "name": "A#2",
          "midi": 46,
          "time": 125.64699599999926,
          "velocity": 0.8661417322834646,
          "duration": 0.044117624999998384
        },
        {
          "name": "C2",
          "midi": 36,
          "time": 125.64699599999926,
          "velocity": 0.8661417322834646,
          "duration": 0.08823524999999677
        },
        {
          "name": "A#2",
          "midi": 46,
          "time": 125.99993699999926,
          "velocity": 0.7874015748031497,
          "duration": 0.044117624999998384
        },
        {
          "name": "D2",
          "midi": 38,
          "time": 125.99993699999926,
          "velocity": 0.8661417322834646,
          "duration": 0.08823524999999677
        },
        {
          "name": "A#2",
          "midi": 46,
          "time": 126.35287799999927,
          "velocity": 0.7874015748031497,
          "duration": 0.044117624999998384
        },
        {
          "name": "C2",
          "midi": 36,
          "time": 126.35287799999927,
          "velocity": 0.7874015748031497,
          "duration": 0.08823524999999677
        },
        {
          "name": "A#2",
          "midi": 46,
          "time": 126.70581899999927,
          "velocity": 0.7874015748031497,
          "duration": 0.044117624999998384
        },
        {
          "name": "D2",
          "midi": 38,
          "time": 126.70581899999927,
          "velocity": 0.7874015748031497,
          "duration": 0.08823524999999677
        },
        {
          "name": "A#2",
          "midi": 46,
          "time": 127.05875999999927,
          "velocity": 0.8661417322834646,
          "duration": 0.044117624999998384
        },
        {
          "name": "C2",
          "midi": 36,
          "time": 127.05875999999927,
          "velocity": 0.8661417322834646,
          "duration": 0.08823524999999677
        },
        {
          "name": "A#2",
          "midi": 46,
          "time": 127.41170099999927,
          "velocity": 0.7874015748031497,
          "duration": 0.044117624999998384
        },
        {
          "name": "D2",
          "midi": 38,
          "time": 127.41170099999927,
          "velocity": 0.8661417322834646,
          "duration": 0.08823524999999677
        },
        {
          "name": "A#2",
          "midi": 46,
          "time": 127.76464199999927,
          "velocity": 0.7874015748031497,
          "duration": 0.044117624999998384
        },
        {
          "name": "C2",
          "midi": 36,
          "time": 127.76464199999927,
          "velocity": 0.7874015748031497,
          "duration": 0.08823524999999677
        },
        {
          "name": "A#2",
          "midi": 46,
          "time": 128.11758299999926,
          "velocity": 0.7874015748031497,
          "duration": 0.044117625000012595
        },
        {
          "name": "D2",
          "midi": 38,
          "time": 128.11758299999926,
          "velocity": 0.7874015748031497,
          "duration": 0.08823525000002519
        },
        {
          "name": "C2",
          "midi": 36,
          "time": 128.47052399999927,
          "velocity": 0.8661417322834646,
          "duration": 0.08823525000002519
        },
        {
          "name": "A#2",
          "midi": 46,
          "time": 128.47052399999927,
          "velocity": 0.8661417322834646,
          "duration": 0.044117625000012595
        },
        {
          "name": "A#2",
          "midi": 46,
          "time": 128.8146414749993,
          "velocity": 0.7874015748031497,
          "duration": 0.04411762499998417
        },
        {
          "name": "D2",
          "midi": 38,
          "time": 128.8234649999993,
          "velocity": 0.8661417322834646,
          "duration": 0.08823524999999677
        },
        {
          "name": "A#2",
          "midi": 46,
          "time": 129.16758247499928,
          "velocity": 0.7874015748031497,
          "duration": 0.04411762499998417
        },
        {
          "name": "C2",
          "midi": 36,
          "time": 129.17640599999928,
          "velocity": 0.7874015748031497,
          "duration": 0.08823524999999677
        },
        {
          "name": "A#2",
          "midi": 46,
          "time": 129.52052347499927,
          "velocity": 0.7874015748031497,
          "duration": 0.04411762499998417
        },
        {
          "name": "D2",
          "midi": 38,
          "time": 129.52934699999926,
          "velocity": 0.7874015748031497,
          "duration": 0.08823524999999677
        },
        {
          "name": "C2",
          "midi": 36,
          "time": 129.88228799999925,
          "velocity": 0.8661417322834646,
          "duration": 0.08823524999999677
        },
        {
          "name": "C#3",
          "midi": 49,
          "time": 129.89111152499925,
          "velocity": 0.8661417322834646,
          "duration": 0.044117625000012595
        },
        {
          "name": "A#2",
          "midi": 46,
          "time": 130.23522899999924,
          "velocity": 0.7874015748031497,
          "duration": 0.044117625000012595
        },
        {
          "name": "D2",
          "midi": 38,
          "time": 130.23522899999924,
          "velocity": 0.8661417322834646,
          "duration": 0.08823525000002519
        },
        {
          "name": "A#2",
          "midi": 46,
          "time": 130.58816999999925,
          "velocity": 0.7874015748031497,
          "duration": 0.044117625000012595
        },
        {
          "name": "C2",
          "midi": 36,
          "time": 130.58816999999925,
          "velocity": 0.7874015748031497,
          "duration": 0.08823525000002519
        },
        {
          "name": "A#2",
          "midi": 46,
          "time": 130.94111099999927,
          "velocity": 0.7874015748031497,
          "duration": 0.044117625000012595
        },
        {
          "name": "D2",
          "midi": 38,
          "time": 130.94111099999927,
          "velocity": 0.7874015748031497,
          "duration": 0.08823525000002519
        },
        {
          "name": "A#2",
          "midi": 46,
          "time": 131.29405199999928,
          "velocity": 0.8661417322834646,
          "duration": 0.044117625000012595
        },
        {
          "name": "C2",
          "midi": 36,
          "time": 131.29405199999928,
          "velocity": 0.8661417322834646,
          "duration": 0.08823525000002519
        },
        {
          "name": "A#2",
          "midi": 46,
          "time": 131.6469929999993,
          "velocity": 0.7874015748031497,
          "duration": 0.044117625000012595
        },
        {
          "name": "D2",
          "midi": 38,
          "time": 131.6469929999993,
          "velocity": 0.8661417322834646,
          "duration": 0.08823525000002519
        },
        {
          "name": "A#2",
          "midi": 46,
          "time": 131.9999339999993,
          "velocity": 0.7874015748031497,
          "duration": 0.044117625000012595
        },
        {
          "name": "C2",
          "midi": 36,
          "time": 131.9999339999993,
          "velocity": 0.7874015748031497,
          "duration": 0.08823525000002519
        },
        {
          "name": "A#2",
          "midi": 46,
          "time": 132.35287499999933,
          "velocity": 0.7874015748031497,
          "duration": 0.044117625000012595
        },
        {
          "name": "D2",
          "midi": 38,
          "time": 132.35287499999933,
          "velocity": 0.7874015748031497,
          "duration": 0.08823525000002519
        },
        {
          "name": "A#2",
          "midi": 46,
          "time": 132.70581599999934,
          "velocity": 0.8661417322834646,
          "duration": 0.044117625000012595
        },
        {
          "name": "C2",
          "midi": 36,
          "time": 132.70581599999934,
          "velocity": 0.8661417322834646,
          "duration": 0.08823525000002519
        },
        {
          "name": "A#2",
          "midi": 46,
          "time": 133.05875699999936,
          "velocity": 0.7874015748031497,
          "duration": 0.044117625000012595
        },
        {
          "name": "D2",
          "midi": 38,
          "time": 133.05875699999936,
          "velocity": 0.8661417322834646,
          "duration": 0.08823525000002519
        },
        {
          "name": "A#2",
          "midi": 46,
          "time": 133.41169799999938,
          "velocity": 0.7874015748031497,
          "duration": 0.044117625000012595
        },
        {
          "name": "C2",
          "midi": 36,
          "time": 133.41169799999938,
          "velocity": 0.7874015748031497,
          "duration": 0.08823525000002519
        },
        {
          "name": "A#2",
          "midi": 46,
          "time": 133.7646389999994,
          "velocity": 0.7874015748031497,
          "duration": 0.044117625000012595
        },
        {
          "name": "D2",
          "midi": 38,
          "time": 133.7646389999994,
          "velocity": 0.7874015748031497,
          "duration": 0.08823525000002519
        },
        {
          "name": "A2",
          "midi": 45,
          "time": 134.1175799999994,
          "velocity": 0.8661417322834646,
          "duration": 0.044117625000012595
        },
        {
          "name": "A2",
          "midi": 45,
          "time": 134.20581524999943,
          "velocity": 0.8661417322834646,
          "duration": 0.044117625000012595
        },
        {
          "name": "A2",
          "midi": 45,
          "time": 134.29405049999946,
          "velocity": 0.8661417322834646,
          "duration": 0.044117625000012595
        },
        {
          "name": "A2",
          "midi": 45,
          "time": 134.38228574999948,
          "velocity": 0.8661417322834646,
          "duration": 0.044117625000012595
        },
        {
          "name": "G2",
          "midi": 43,
          "time": 134.4705209999995,
          "velocity": 0.8661417322834646,
          "duration": 0.044117625000012595
        },
        {
          "name": "G2",
          "midi": 43,
          "time": 134.55875624999953,
          "velocity": 0.8661417322834646,
          "duration": 0.044117625000012595
        },
        {
          "name": "G2",
          "midi": 43,
          "time": 134.64699149999956,
          "velocity": 0.8661417322834646,
          "duration": 0.044117625000012595
        },
        {
          "name": "G2",
          "midi": 43,
          "time": 134.73522674999958,
          "velocity": 0.8661417322834646,
          "duration": 0.044117625000012595
        },
        {
          "name": "F2",
          "midi": 41,
          "time": 134.8234619999996,
          "velocity": 0.8661417322834646,
          "duration": 0.044117625000012595
        },
        {
          "name": "F2",
          "midi": 41,
          "time": 134.91169724999963,
          "velocity": 0.8661417322834646,
          "duration": 0.044117625000012595
        },
        {
          "name": "F2",
          "midi": 41,
          "time": 134.99993249999966,
          "velocity": 0.8661417322834646,
          "duration": 0.044117625000012595
        },
        {
          "name": "F2",
          "midi": 41,
          "time": 135.08816774999968,
          "velocity": 0.8661417322834646,
          "duration": 0.044117625000012595
        },
        {
          "name": "D2",
          "midi": 38,
          "time": 135.1764029999997,
          "velocity": 0.8661417322834646,
          "duration": 0.044117625000012595
        },
        {
          "name": "D2",
          "midi": 38,
          "time": 135.26463824999973,
          "velocity": 0.8661417322834646,
          "duration": 0.044117625000012595
        },
        {
          "name": "D2",
          "midi": 38,
          "time": 135.35287349999976,
          "velocity": 0.8661417322834646,
          "duration": 0.044117625000012595
        },
        {
          "name": "D2",
          "midi": 38,
          "time": 135.44110874999978,
          "velocity": 0.8661417322834646,
          "duration": 0.044117625000012595
        },
        {
          "name": "C2",
          "midi": 36,
          "time": 135.5293439999998,
          "velocity": 0.7874015748031497,
          "duration": 0.08823524999999677
        },
        {
          "name": "C#3",
          "midi": 49,
          "time": 135.54772634374982,
          "velocity": 0.7874015748031497,
          "duration": 0.3345586562499818
        },
        {
          "name": "A#2",
          "midi": 46,
          "time": 135.8822849999998,
          "velocity": 0.7874015748031497,
          "duration": 0.044117625000012595
        },
        {
          "name": "D2",
          "midi": 38,
          "time": 135.8822849999998,
          "velocity": 0.7874015748031497,
          "duration": 0.08823525000002519
        },
        {
          "name": "A#2",
          "midi": 46,
          "time": 136.2352259999998,
          "velocity": 0.7874015748031497,
          "duration": 0.044117625000012595
        },
        {
          "name": "C2",
          "midi": 36,
          "time": 136.2352259999998,
          "velocity": 0.7874015748031497,
          "duration": 0.08823525000002519
        },
        {
          "name": "A#2",
          "midi": 46,
          "time": 136.58816699999983,
          "velocity": 0.7874015748031497,
          "duration": 0.044117625000012595
        },
        {
          "name": "D2",
          "midi": 38,
          "time": 136.58816699999983,
          "velocity": 0.7874015748031497,
          "duration": 0.08823525000002519
        },
        {
          "name": "A#2",
          "midi": 46,
          "time": 136.94110799999984,
          "velocity": 0.7874015748031497,
          "duration": 0.044117625000012595
        },
        {
          "name": "C2",
          "midi": 36,
          "time": 136.94110799999984,
          "velocity": 0.7874015748031497,
          "duration": 0.08823525000002519
        },
        {
          "name": "A#2",
          "midi": 46,
          "time": 137.29404899999986,
          "velocity": 0.7874015748031497,
          "duration": 0.044117625000012595
        },
        {
          "name": "D2",
          "midi": 38,
          "time": 137.29404899999986,
          "velocity": 0.7874015748031497,
          "duration": 0.08823525000002519
        },
        {
          "name": "A#2",
          "midi": 46,
          "time": 137.64698999999987,
          "velocity": 0.7874015748031497,
          "duration": 0.044117625000012595
        },
        {
          "name": "C2",
          "midi": 36,
          "time": 137.64698999999987,
          "velocity": 0.7874015748031497,
          "duration": 0.08823525000002519
        },
        {
          "name": "A#2",
          "midi": 46,
          "time": 137.9999309999999,
          "velocity": 0.7874015748031497,
          "duration": 0.044117625000012595
        },
        {
          "name": "D2",
          "midi": 38,
          "time": 137.9999309999999,
          "velocity": 0.7874015748031497,
          "duration": 0.08823525000002519
        },
        {
          "name": "A#2",
          "midi": 46,
          "time": 138.3528719999999,
          "velocity": 0.7874015748031497,
          "duration": 0.044117625000012595
        },
        {
          "name": "C2",
          "midi": 36,
          "time": 138.3528719999999,
          "velocity": 0.7874015748031497,
          "duration": 0.08823525000002519
        },
        {
          "name": "A#2",
          "midi": 46,
          "time": 138.70581299999992,
          "velocity": 0.7874015748031497,
          "duration": 0.044117625000012595
        },
        {
          "name": "D2",
          "midi": 38,
          "time": 138.70581299999992,
          "velocity": 0.7874015748031497,
          "duration": 0.08823525000002519
        },
        {
          "name": "A#2",
          "midi": 46,
          "time": 139.05875399999994,
          "velocity": 0.7874015748031497,
          "duration": 0.044117625000012595
        },
        {
          "name": "C2",
          "midi": 36,
          "time": 139.05875399999994,
          "velocity": 0.7874015748031497,
          "duration": 0.08823525000002519
        },
        {
          "name": "A#2",
          "midi": 46,
          "time": 139.41169499999995,
          "velocity": 0.7874015748031497,
          "duration": 0.044117625000012595
        },
        {
          "name": "D2",
          "midi": 38,
          "time": 139.41169499999995,
          "velocity": 0.7874015748031497,
          "duration": 0.08823525000002519
        },
        {
          "name": "D2",
          "midi": 38,
          "time": 139.76463599999997,
          "velocity": 0.7874015748031497,
          "duration": 0.08823525000002519
        },
        {
          "name": "E2",
          "midi": 40,
          "time": 139.76463599999997,
          "velocity": 0.7874015748031497,
          "duration": 0.044117625000012595
        },
        {
          "name": "C2",
          "midi": 36,
          "time": 139.9455182625,
          "velocity": 0.7874015748031497,
          "duration": 0.044117625000012595
        },
        {
          "name": "C#3",
          "midi": 49,
          "time": 139.9455182625,
          "velocity": 0.7874015748031497,
          "duration": 0.17647050000002196
        },
        {
          "name": "C#3",
          "midi": 49,
          "time": 140.47051800000003,
          "velocity": 0.7874015748031497,
          "duration": 0.08823524999999677
        },
        {
          "name": "C2",
          "midi": 36,
          "time": 140.47051800000003,
          "velocity": 0.7874015748031497,
          "duration": 0.17647049999999354
        },
        {
          "name": "D2",
          "midi": 38,
          "time": 140.823459,
          "velocity": 0.7874015748031497,
          "duration": 0.08823524999999677
        },
        {
          "name": "E2",
          "midi": 40,
          "time": 140.823459,
          "velocity": 0.7874015748031497,
          "duration": 0.08823524999999677
        },
        {
          "name": "C2",
          "midi": 36,
          "time": 141.1764,
          "velocity": 0.7874015748031497,
          "duration": 0.08823525000002519
        },
        {
          "name": "C#3",
          "midi": 49,
          "time": 141.19478234375,
          "velocity": 0.7874015748031497,
          "duration": 0.044117625000012595
        },
        {
          "name": "A#2",
          "midi": 46,
          "time": 141.52934100000002,
          "velocity": 0.7874015748031497,
          "duration": 0.044117625000012595
        },
        {
          "name": "D2",
          "midi": 38,
          "time": 141.52934100000002,
          "velocity": 0.7874015748031497,
          "duration": 0.08823525000002519
        },
        {
          "name": "A#2",
          "midi": 46,
          "time": 141.88228200000003,
          "velocity": 0.7874015748031497,
          "duration": 0.044117625000012595
        },
        {
          "name": "C2",
          "midi": 36,
          "time": 141.88228200000003,
          "velocity": 0.7874015748031497,
          "duration": 0.08823525000002519
        },
        {
          "name": "A#2",
          "midi": 46,
          "time": 142.23522300000005,
          "velocity": 0.7874015748031497,
          "duration": 0.044117625000012595
        },
        {
          "name": "D2",
          "midi": 38,
          "time": 142.23522300000005,
          "velocity": 0.7874015748031497,
          "duration": 0.08823525000002519
        },
        {
          "name": "A#2",
          "midi": 46,
          "time": 142.58816400000006,
          "velocity": 0.7874015748031497,
          "duration": 0.044117625000012595
        },
        {
          "name": "C2",
          "midi": 36,
          "time": 142.58816400000006,
          "velocity": 0.7874015748031497,
          "duration": 0.08823525000002519
        },
        {
          "name": "A#2",
          "midi": 46,
          "time": 142.94110500000008,
          "velocity": 0.7874015748031497,
          "duration": 0.044117625000012595
        },
        {
          "name": "D2",
          "midi": 38,
          "time": 142.94110500000008,
          "velocity": 0.7874015748031497,
          "duration": 0.08823525000002519
        },
        {
          "name": "A#2",
          "midi": 46,
          "time": 143.2940460000001,
          "velocity": 0.7874015748031497,
          "duration": 0.044117625000012595
        },
        {
          "name": "C2",
          "midi": 36,
          "time": 143.2940460000001,
          "velocity": 0.7874015748031497,
          "duration": 0.08823525000002519
        },
        {
          "name": "A#2",
          "midi": 46,
          "time": 143.6469870000001,
          "velocity": 0.7874015748031497,
          "duration": 0.044117625000012595
        },
        {
          "name": "D2",
          "midi": 38,
          "time": 143.6469870000001,
          "velocity": 0.7874015748031497,
          "duration": 0.08823525000002519
        },
        {
          "name": "A#2",
          "midi": 46,
          "time": 143.99992800000012,
          "velocity": 0.7874015748031497,
          "duration": 0.044117625000012595
        },
        {
          "name": "C2",
          "midi": 36,
          "time": 143.99992800000012,
          "velocity": 0.7874015748031497,
          "duration": 0.08823525000002519
        },
        {
          "name": "A#2",
          "midi": 46,
          "time": 144.35286900000014,
          "velocity": 0.7874015748031497,
          "duration": 0.044117625000012595
        },
        {
          "name": "D2",
          "midi": 38,
          "time": 144.35286900000014,
          "velocity": 0.7874015748031497,
          "duration": 0.08823525000002519
        },
        {
          "name": "A#2",
          "midi": 46,
          "time": 144.70581000000016,
          "velocity": 0.7874015748031497,
          "duration": 0.044117625000012595
        },
        {
          "name": "C2",
          "midi": 36,
          "time": 144.70581000000016,
          "velocity": 0.7874015748031497,
          "duration": 0.08823525000002519
        },
        {
          "name": "A#2",
          "midi": 46,
          "time": 145.05875100000017,
          "velocity": 0.7874015748031497,
          "duration": 0.044117625000012595
        },
        {
          "name": "D2",
          "midi": 38,
          "time": 145.05875100000017,
          "velocity": 0.7874015748031497,
          "duration": 0.08823525000002519
        },
        {
          "name": "D2",
          "midi": 38,
          "time": 145.4116920000002,
          "velocity": 0.7874015748031497,
          "duration": 0.08823525000002519
        },
        {
          "name": "E2",
          "midi": 40,
          "time": 145.4116920000002,
          "velocity": 0.7874015748031497,
          "duration": 0.044117625000012595
        },
        {
          "name": "C2",
          "midi": 36,
          "time": 145.59257426250022,
          "velocity": 0.7874015748031497,
          "duration": 0.044117625000012595
        },
        {
          "name": "C#3",
          "midi": 49,
          "time": 145.59257426250022,
          "velocity": 0.7874015748031497,
          "duration": 0.17647050000002196
        },
        {
          "name": "C#3",
          "midi": 49,
          "time": 146.11757400000025,
          "velocity": 0.7874015748031497,
          "duration": 0.08823524999999677
        },
        {
          "name": "C2",
          "midi": 36,
          "time": 146.11757400000025,
          "velocity": 0.7874015748031497,
          "duration": 0.17647049999999354
        },
        {
          "name": "D2",
          "midi": 38,
          "time": 146.47051500000023,
          "velocity": 0.7874015748031497,
          "duration": 0.08823524999999677
        },
        {
          "name": "E2",
          "midi": 40,
          "time": 146.47051500000023,
          "velocity": 0.7874015748031497,
          "duration": 0.08823524999999677
        },
        {
          "name": "C2",
          "midi": 36,
          "time": 146.82345600000022,
          "velocity": 0.7874015748031497,
          "duration": 0.08823524999999677
        },
        {
          "name": "C#3",
          "midi": 49,
          "time": 146.84183834375023,
          "velocity": 0.7874015748031497,
          "duration": 0.3345586562499818
        },
        {
          "name": "A#2",
          "midi": 46,
          "time": 147.1763970000002,
          "velocity": 0.7874015748031497,
          "duration": 0.044117625000012595
        },
        {
          "name": "D2",
          "midi": 38,
          "time": 147.1763970000002,
          "velocity": 0.7874015748031497,
          "duration": 0.08823525000002519
        },
        {
          "name": "A#2",
          "midi": 46,
          "time": 147.52933800000022,
          "velocity": 0.7874015748031497,
          "duration": 0.044117625000012595
        },
        {
          "name": "C2",
          "midi": 36,
          "time": 147.52933800000022,
          "velocity": 0.7874015748031497,
          "duration": 0.08823525000002519
        },
        {
          "name": "A#2",
          "midi": 46,
          "time": 147.88227900000024,
          "velocity": 0.7874015748031497,
          "duration": 0.044117625000012595
        },
        {
          "name": "D2",
          "midi": 38,
          "time": 147.88227900000024,
          "velocity": 0.7874015748031497,
          "duration": 0.08823525000002519
        },
        {
          "name": "A#2",
          "midi": 46,
          "time": 148.23522000000025,
          "velocity": 0.7874015748031497,
          "duration": 0.044117625000012595
        },
        {
          "name": "C2",
          "midi": 36,
          "time": 148.23522000000025,
          "velocity": 0.7874015748031497,
          "duration": 0.08823525000002519
        },
        {
          "name": "A#2",
          "midi": 46,
          "time": 148.58816100000027,
          "velocity": 0.7874015748031497,
          "duration": 0.044117625000012595
        },
        {
          "name": "D2",
          "midi": 38,
          "time": 148.58816100000027,
          "velocity": 0.7874015748031497,
          "duration": 0.08823525000002519
        },
        {
          "name": "A#2",
          "midi": 46,
          "time": 148.94110200000028,
          "velocity": 0.7874015748031497,
          "duration": 0.044117625000012595
        },
        {
          "name": "C2",
          "midi": 36,
          "time": 148.94110200000028,
          "velocity": 0.7874015748031497,
          "duration": 0.08823525000002519
        },
        {
          "name": "A#2",
          "midi": 46,
          "time": 149.2940430000003,
          "velocity": 0.7874015748031497,
          "duration": 0.044117625000012595
        },
        {
          "name": "D2",
          "midi": 38,
          "time": 149.2940430000003,
          "velocity": 0.7874015748031497,
          "duration": 0.08823525000002519
        },
        {
          "name": "A#2",
          "midi": 46,
          "time": 149.64698400000032,
          "velocity": 0.7874015748031497,
          "duration": 0.044117625000012595
        },
        {
          "name": "C2",
          "midi": 36,
          "time": 149.64698400000032,
          "velocity": 0.7874015748031497,
          "duration": 0.08823525000002519
        },
        {
          "name": "A#2",
          "midi": 46,
          "time": 149.99992500000033,
          "velocity": 0.7874015748031497,
          "duration": 0.044117625000012595
        },
        {
          "name": "D2",
          "midi": 38,
          "time": 149.99992500000033,
          "velocity": 0.7874015748031497,
          "duration": 0.08823525000002519
        },
        {
          "name": "A#2",
          "midi": 46,
          "time": 150.35286600000035,
          "velocity": 0.7874015748031497,
          "duration": 0.044117625000012595
        },
        {
          "name": "C2",
          "midi": 36,
          "time": 150.35286600000035,
          "velocity": 0.7874015748031497,
          "duration": 0.08823525000002519
        },
        {
          "name": "A#2",
          "midi": 46,
          "time": 150.70580700000036,
          "velocity": 0.7874015748031497,
          "duration": 0.044117625000012595
        },
        {
          "name": "D2",
          "midi": 38,
          "time": 150.70580700000036,
          "velocity": 0.7874015748031497,
          "duration": 0.08823525000002519
        },
        {
          "name": "D2",
          "midi": 38,
          "time": 151.05874800000038,
          "velocity": 0.7874015748031497,
          "duration": 0.08823525000002519
        },
        {
          "name": "E2",
          "midi": 40,
          "time": 151.05874800000038,
          "velocity": 0.7874015748031497,
          "duration": 0.044117625000012595
        },
        {
          "name": "C2",
          "midi": 36,
          "time": 151.2396302625004,
          "velocity": 0.7874015748031497,
          "duration": 0.044117625000012595
        },
        {
          "name": "C#3",
          "midi": 49,
          "time": 151.2396302625004,
          "velocity": 0.7874015748031497,
          "duration": 0.17647050000002196
        },
        {
          "name": "C#3",
          "midi": 49,
          "time": 151.76463000000044,
          "velocity": 0.7874015748031497,
          "duration": 0.08823524999999677
        },
        {
          "name": "C2",
          "midi": 36,
          "time": 151.76463000000044,
          "velocity": 0.7874015748031497,
          "duration": 0.17647049999999354
        },
        {
          "name": "D2",
          "midi": 38,
          "time": 152.11757100000042,
          "velocity": 0.7874015748031497,
          "duration": 0.08823524999999677
        },
        {
          "name": "E2",
          "midi": 40,
          "time": 152.11757100000042,
          "velocity": 0.7874015748031497,
          "duration": 0.08823524999999677
        },
        {
          "name": "C2",
          "midi": 36,
          "time": 152.4705120000004,
          "velocity": 0.7874015748031497,
          "duration": 0.08823525000002519
        },
        {
          "name": "C#3",
          "midi": 49,
          "time": 152.48889434375042,
          "velocity": 0.7874015748031497,
          "duration": 0.044117625000012595
        },
        {
          "name": "A#2",
          "midi": 46,
          "time": 152.82345300000043,
          "velocity": 0.7874015748031497,
          "duration": 0.044117625000012595
        },
        {
          "name": "D2",
          "midi": 38,
          "time": 152.82345300000043,
          "velocity": 0.7874015748031497,
          "duration": 0.08823525000002519
        },
        {
          "name": "A#2",
          "midi": 46,
          "time": 153.17639400000044,
          "velocity": 0.7874015748031497,
          "duration": 0.044117625000012595
        },
        {
          "name": "C2",
          "midi": 36,
          "time": 153.17639400000044,
          "velocity": 0.7874015748031497,
          "duration": 0.08823525000002519
        },
        {
          "name": "A#2",
          "midi": 46,
          "time": 153.52933500000046,
          "velocity": 0.7874015748031497,
          "duration": 0.044117625000012595
        },
        {
          "name": "D2",
          "midi": 38,
          "time": 153.52933500000046,
          "velocity": 0.7874015748031497,
          "duration": 0.08823525000002519
        },
        {
          "name": "A#2",
          "midi": 46,
          "time": 153.88227600000047,
          "velocity": 0.7874015748031497,
          "duration": 0.044117625000012595
        },
        {
          "name": "C2",
          "midi": 36,
          "time": 153.88227600000047,
          "velocity": 0.7874015748031497,
          "duration": 0.08823525000002519
        },
        {
          "name": "A#2",
          "midi": 46,
          "time": 154.2352170000005,
          "velocity": 0.7874015748031497,
          "duration": 0.044117625000012595
        },
        {
          "name": "D2",
          "midi": 38,
          "time": 154.2352170000005,
          "velocity": 0.7874015748031497,
          "duration": 0.08823525000002519
        },
        {
          "name": "A#2",
          "midi": 46,
          "time": 154.5881580000005,
          "velocity": 0.7874015748031497,
          "duration": 0.044117625000012595
        },
        {
          "name": "C2",
          "midi": 36,
          "time": 154.5881580000005,
          "velocity": 0.7874015748031497,
          "duration": 0.08823525000002519
        },
        {
          "name": "A#2",
          "midi": 46,
          "time": 154.94109900000052,
          "velocity": 0.7874015748031497,
          "duration": 0.044117625000012595
        },
        {
          "name": "D2",
          "midi": 38,
          "time": 154.94109900000052,
          "velocity": 0.7874015748031497,
          "duration": 0.08823525000002519
        },
        {
          "name": "A#2",
          "midi": 46,
          "time": 155.29404000000054,
          "velocity": 0.7874015748031497,
          "duration": 0.044117625000012595
        },
        {
          "name": "D2",
          "midi": 38,
          "time": 155.29404000000054,
          "velocity": 0.7874015748031497,
          "duration": 0.08823525000002519
        },
        {
          "name": "C2",
          "midi": 36,
          "time": 155.47051050000056,
          "velocity": 0.8661417322834646,
          "duration": 0.044117625000012595
        },
        {
          "name": "A#2",
          "midi": 46,
          "time": 155.64698100000058,
          "velocity": 0.7874015748031497,
          "duration": 0.044117625000012595
        },
        {
          "name": "D2",
          "midi": 38,
          "time": 155.64698100000058,
          "velocity": 0.7874015748031497,
          "duration": 0.08823525000002519
        },
        {
          "name": "C2",
          "midi": 36,
          "time": 155.8234515000006,
          "velocity": 0.8661417322834646,
          "duration": 0.044117625000012595
        },
        {
          "name": "A#2",
          "midi": 46,
          "time": 155.99992200000062,
          "velocity": 0.7874015748031497,
          "duration": 0.044117625000012595
        },
        {
          "name": "D2",
          "midi": 38,
          "time": 155.99992200000062,
          "velocity": 0.7874015748031497,
          "duration": 0.08823525000002519
        },
        {
          "name": "C2",
          "midi": 36,
          "time": 156.17639250000065,
          "velocity": 0.8661417322834646,
          "duration": 0.044117625000012595
        },
        {
          "name": "A#2",
          "midi": 46,
          "time": 156.35286300000067,
          "velocity": 0.7874015748031497,
          "duration": 0.044117625000012595
        },
        {
          "name": "D2",
          "midi": 38,
          "time": 156.35286300000067,
          "velocity": 0.7874015748031497,
          "duration": 0.08823525000002519
        },
        {
          "name": "C2",
          "midi": 36,
          "time": 156.5293335000007,
          "velocity": 0.8661417322834646,
          "duration": 0.044117625000012595
        },
        {
          "name": "D2",
          "midi": 38,
          "time": 156.7058040000007,
          "velocity": 0.7874015748031497,
          "duration": 0.08823525000002519
        },
        {
          "name": "E2",
          "midi": 40,
          "time": 156.7058040000007,
          "velocity": 0.7874015748031497,
          "duration": 0.044117625000012595
        },
        {
          "name": "C2",
          "midi": 36,
          "time": 156.88668626250075,
          "velocity": 0.7874015748031497,
          "duration": 0.044117625000012595
        },
        {
          "name": "C#3",
          "midi": 49,
          "time": 156.88668626250075,
          "velocity": 0.7874015748031497,
          "duration": 0.17647050000002196
        },
        {
          "name": "C#3",
          "midi": 49,
          "time": 157.41168600000077,
          "velocity": 0.7874015748031497,
          "duration": 0.08823524999999677
        },
        {
          "name": "C2",
          "midi": 36,
          "time": 157.41168600000077,
          "velocity": 0.7874015748031497,
          "duration": 0.17647049999999354
        }
      ],
      "controlChanges": {
        "7": [
          {
            "number": 7,
            "time": 0,
            "value": 1
          }
        ],
        "10": [
          {
            "number": 10,
            "time": 0,
            "value": 0.5039370078740157
          }
        ],
        "11": [
          {
            "number": 11,
            "time": 0,
            "value": 1
          }
        ],
        "91": [
          {
            "number": 91,
            "time": 0,
            "value": 1
          }
        ]
      },
      "id": 3,
      "name": "bATERA",
      "instrumentNumber": 17,
      "instrumentFamily": "drums",
      "channelNumber": 9,
      "isPercussion": true
    },
    {
      "startTime": 5.647056,
      "duration": 157.72639172499927,
      "length": 794,
      "notes": [
        {
          "name": "E2",
          "midi": 40,
          "time": 5.647056,
          "velocity": 0.7874015748031497,
          "duration": 0.5147056250000004
        },
        {
          "name": "E2",
          "midi": 40,
          "time": 6.1808792625,
          "velocity": 0.7874015748031497,
          "duration": 0.5154409187499995
        },
        {
          "name": "E2",
          "midi": 40,
          "time": 6.714702525,
          "velocity": 0.7874015748031497,
          "duration": 0.30514690625000007
        },
        {
          "name": "A2",
          "midi": 45,
          "time": 7.05882,
          "velocity": 0.7874015748031497,
          "duration": 0.17647049999999975
        },
        {
          "name": "B2",
          "midi": 47,
          "time": 7.2397022625,
          "velocity": 0.7874015748031497,
          "duration": 0.17647050000000064
        },
        {
          "name": "D3",
          "midi": 50,
          "time": 7.411761,
          "velocity": 0.7874015748031497,
          "duration": 0.17647050000000064
        },
        {
          "name": "E3",
          "midi": 52,
          "time": 7.592643262500001,
          "velocity": 0.7874015748031497,
          "duration": 0.17647050000000064
        },
        {
          "name": "A2",
          "midi": 45,
          "time": 7.7647020000000015,
          "velocity": 0.7874015748031497,
          "duration": 0.17647050000000064
        },
        {
          "name": "B2",
          "midi": 47,
          "time": 7.945584262500002,
          "velocity": 0.7874015748031497,
          "duration": 0.17647050000000064
        },
        {
          "name": "D3",
          "midi": 50,
          "time": 8.117643000000003,
          "velocity": 0.7874015748031497,
          "duration": 0.17647050000000064
        },
        {
          "name": "B2",
          "midi": 47,
          "time": 8.298525262500004,
          "velocity": 0.7874015748031497,
          "duration": 0.17647050000000064
        },
        {
          "name": "E2",
          "midi": 40,
          "time": 8.470584000000004,
          "velocity": 0.7874015748031497,
          "duration": 0.5147056249999995
        },
        {
          "name": "E2",
          "midi": 40,
          "time": 9.004407262500004,
          "velocity": 0.7874015748031497,
          "duration": 0.5154409187500004
        },
        {
          "name": "E2",
          "midi": 40,
          "time": 9.538230525000005,
          "velocity": 0.7874015748031497,
          "duration": 0.33382336250000044
        },
        {
          "name": "A2",
          "midi": 45,
          "time": 9.882348000000006,
          "velocity": 0.7874015748031497,
          "duration": 0.17647050000000064
        },
        {
          "name": "B2",
          "midi": 47,
          "time": 10.063230262500007,
          "velocity": 0.7874015748031497,
          "duration": 0.17647050000000064
        },
        {
          "name": "D3",
          "midi": 50,
          "time": 10.235289000000007,
          "velocity": 0.7874015748031497,
          "duration": 0.17647050000000064
        },
        {
          "name": "E3",
          "midi": 52,
          "time": 10.416171262500008,
          "velocity": 0.7874015748031497,
          "duration": 0.17647050000000064
        },
        {
          "name": "A2",
          "midi": 45,
          "time": 10.588230000000008,
          "velocity": 0.7874015748031497,
          "duration": 0.17647050000000064
        },
        {
          "name": "B2",
          "midi": 47,
          "time": 10.769112262500009,
          "velocity": 0.7874015748031497,
          "duration": 0.17647050000000064
        },
        {
          "name": "D3",
          "midi": 50,
          "time": 10.94117100000001,
          "velocity": 0.7874015748031497,
          "duration": 0.17647050000000064
        },
        {
          "name": "B2",
          "midi": 47,
          "time": 11.12205326250001,
          "velocity": 0.7874015748031497,
          "duration": 0.17647050000000064
        },
        {
          "name": "E2",
          "midi": 40,
          "time": 11.29411200000001,
          "velocity": 0.7874015748031497,
          "duration": 0.161764625
        },
        {
          "name": "E2",
          "midi": 40,
          "time": 11.474994262500012,
          "velocity": 0.7874015748031497,
          "duration": 0.17205873750000045
        },
        {
          "name": "E2",
          "midi": 40,
          "time": 11.647053000000012,
          "velocity": 0.7874015748031497,
          "duration": 0.161764625
        },
        {
          "name": "E2",
          "midi": 40,
          "time": 11.827935262500013,
          "velocity": 0.7874015748031497,
          "duration": 0.16249991874999914
        },
        {
          "name": "E2",
          "midi": 40,
          "time": 11.999994000000012,
          "velocity": 0.7874015748031497,
          "duration": 0.161764625
        },
        {
          "name": "E2",
          "midi": 40,
          "time": 12.180876262500012,
          "velocity": 0.7874015748031497,
          "duration": 0.17205873750000045
        },
        {
          "name": "E2",
          "midi": 40,
          "time": 12.352935000000013,
          "velocity": 0.7874015748031497,
          "duration": 0.161764625
        },
        {
          "name": "E2",
          "midi": 40,
          "time": 12.533817262500014,
          "velocity": 0.7874015748031497,
          "duration": 0.1529410999999996
        },
        {
          "name": "E2",
          "midi": 40,
          "time": 12.705876000000014,
          "velocity": 0.7874015748031497,
          "duration": 0.161764625
        },
        {
          "name": "E2",
          "midi": 40,
          "time": 12.886758262500015,
          "velocity": 0.7874015748031497,
          "duration": 0.17205873750000045
        },
        {
          "name": "E2",
          "midi": 40,
          "time": 13.058817000000015,
          "velocity": 0.7874015748031497,
          "duration": 0.161764625
        },
        {
          "name": "E2",
          "midi": 40,
          "time": 13.239699262500016,
          "velocity": 0.7874015748031497,
          "duration": 0.16249991874999914
        },
        {
          "name": "D2",
          "midi": 38,
          "time": 13.411758000000015,
          "velocity": 0.7874015748031497,
          "duration": 0.161764625
        },
        {
          "name": "E2",
          "midi": 40,
          "time": 13.592640262500016,
          "velocity": 0.7874015748031497,
          "duration": 0.17205873750000045
        },
        {
          "name": "G2",
          "midi": 43,
          "time": 13.764699000000016,
          "velocity": 0.7874015748031497,
          "duration": 0.161764625
        },
        {
          "name": "A2",
          "midi": 45,
          "time": 13.945581262500017,
          "velocity": 0.7874015748031497,
          "duration": 0.16249991874999914
        },
        {
          "name": "D2",
          "midi": 38,
          "time": 14.117640000000016,
          "velocity": 0.7874015748031497,
          "duration": 0.161764625
        },
        {
          "name": "D2",
          "midi": 38,
          "time": 14.298522262500017,
          "velocity": 0.7874015748031497,
          "duration": 0.17205873750000045
        },
        {
          "name": "D2",
          "midi": 38,
          "time": 14.470581000000017,
          "velocity": 0.7874015748031497,
          "duration": 0.161764625
        },
        {
          "name": "D2",
          "midi": 38,
          "time": 14.651463262500018,
          "velocity": 0.7874015748031497,
          "duration": 0.16249991874999914
        },
        {
          "name": "D2",
          "midi": 38,
          "time": 14.823522000000017,
          "velocity": 0.7874015748031497,
          "duration": 0.161764625
        },
        {
          "name": "D2",
          "midi": 38,
          "time": 15.004404262500017,
          "velocity": 0.7874015748031497,
          "duration": 0.17205873750000045
        },
        {
          "name": "D2",
          "midi": 38,
          "time": 15.176463000000018,
          "velocity": 0.7874015748031497,
          "duration": 0.161764625
        },
        {
          "name": "D2",
          "midi": 38,
          "time": 15.357345262500019,
          "velocity": 0.7874015748031497,
          "duration": 0.1529410999999996
        },
        {
          "name": "G2",
          "midi": 43,
          "time": 15.529404000000019,
          "velocity": 0.7874015748031497,
          "duration": 0.17647050000000064
        },
        {
          "name": "D2",
          "midi": 38,
          "time": 15.71028626250002,
          "velocity": 0.7874015748031497,
          "duration": 0.5058821000000009
        },
        {
          "name": "E2",
          "midi": 40,
          "time": 16.23528600000002,
          "velocity": 0.7874015748031497,
          "duration": 0.3147057249999996
        },
        {
          "name": "D2",
          "midi": 38,
          "time": 16.58822700000002,
          "velocity": 0.7874015748031497,
          "duration": 0.17647050000000064
        },
        {
          "name": "E2",
          "midi": 40,
          "time": 16.76910926250002,
          "velocity": 0.7874015748031497,
          "duration": 0.13382346250000055
        },
        {
          "name": "E2",
          "midi": 40,
          "time": 16.941168000000022,
          "velocity": 0.7874015748031497,
          "duration": 0.161764625
        },
        {
          "name": "E2",
          "midi": 40,
          "time": 17.12205026250002,
          "velocity": 0.7874015748031497,
          "duration": 0.17205873749999867
        },
        {
          "name": "E2",
          "midi": 40,
          "time": 17.29410900000002,
          "velocity": 0.7874015748031497,
          "duration": 0.161764625
        },
        {
          "name": "E2",
          "midi": 40,
          "time": 17.47499126250002,
          "velocity": 0.7874015748031497,
          "duration": 0.16249991875000092
        },
        {
          "name": "E2",
          "midi": 40,
          "time": 17.64705000000002,
          "velocity": 0.7874015748031497,
          "duration": 0.161764625
        },
        {
          "name": "E2",
          "midi": 40,
          "time": 17.82793226250002,
          "velocity": 0.7874015748031497,
          "duration": 0.17205873749999867
        },
        {
          "name": "E2",
          "midi": 40,
          "time": 17.99999100000002,
          "velocity": 0.7874015748031497,
          "duration": 0.161764625
        },
        {
          "name": "E2",
          "midi": 40,
          "time": 18.18087326250002,
          "velocity": 0.7874015748031497,
          "duration": 0.1529410999999996
        },
        {
          "name": "E2",
          "midi": 40,
          "time": 18.352932000000017,
          "velocity": 0.7874015748031497,
          "duration": 0.161764625
        },
        {
          "name": "E2",
          "midi": 40,
          "time": 18.533814262500016,
          "velocity": 0.7874015748031497,
          "duration": 0.17205873749999867
        },
        {
          "name": "E2",
          "midi": 40,
          "time": 18.705873000000015,
          "velocity": 0.7874015748031497,
          "duration": 0.161764625
        },
        {
          "name": "E2",
          "midi": 40,
          "time": 18.886755262500014,
          "velocity": 0.7874015748031497,
          "duration": 0.16249991875000092
        },
        {
          "name": "D2",
          "midi": 38,
          "time": 19.058814000000016,
          "velocity": 0.7874015748031497,
          "duration": 0.161764625
        },
        {
          "name": "E2",
          "midi": 40,
          "time": 19.239696262500015,
          "velocity": 0.7874015748031497,
          "duration": 0.17205873749999867
        },
        {
          "name": "G2",
          "midi": 43,
          "time": 19.411755000000014,
          "velocity": 0.7874015748031497,
          "duration": 0.161764625
        },
        {
          "name": "A2",
          "midi": 45,
          "time": 19.592637262500013,
          "velocity": 0.7874015748031497,
          "duration": 0.16249991875000092
        },
        {
          "name": "D2",
          "midi": 38,
          "time": 19.764696000000015,
          "velocity": 0.7874015748031497,
          "duration": 0.161764625
        },
        {
          "name": "D2",
          "midi": 38,
          "time": 19.945578262500014,
          "velocity": 0.7874015748031497,
          "duration": 0.17205873749999867
        },
        {
          "name": "D2",
          "midi": 38,
          "time": 20.117637000000013,
          "velocity": 0.7874015748031497,
          "duration": 0.161764625
        },
        {
          "name": "D2",
          "midi": 38,
          "time": 20.29851926250001,
          "velocity": 0.7874015748031497,
          "duration": 0.16249991875000092
        },
        {
          "name": "D2",
          "midi": 38,
          "time": 20.470578000000014,
          "velocity": 0.7874015748031497,
          "duration": 0.161764625
        },
        {
          "name": "D2",
          "midi": 38,
          "time": 20.651460262500013,
          "velocity": 0.7874015748031497,
          "duration": 0.17205873749999867
        },
        {
          "name": "D2",
          "midi": 38,
          "time": 20.82351900000001,
          "velocity": 0.7874015748031497,
          "duration": 0.161764625
        },
        {
          "name": "D2",
          "midi": 38,
          "time": 21.00440126250001,
          "velocity": 0.7874015748031497,
          "duration": 0.1529410999999996
        },
        {
          "name": "G2",
          "midi": 43,
          "time": 21.17646000000001,
          "velocity": 0.7874015748031497,
          "duration": 0.17647050000000064
        },
        {
          "name": "D2",
          "midi": 38,
          "time": 21.35734226250001,
          "velocity": 0.7874015748031497,
          "duration": 0.5058821000000009
        },
        {
          "name": "E2",
          "midi": 40,
          "time": 21.88234200000001,
          "velocity": 0.7874015748031497,
          "duration": 0.3147057249999996
        },
        {
          "name": "D2",
          "midi": 38,
          "time": 22.23528300000001,
          "velocity": 0.7874015748031497,
          "duration": 0.17647050000000064
        },
        {
          "name": "E2",
          "midi": 40,
          "time": 22.41616526250001,
          "velocity": 0.7874015748031497,
          "duration": 0.13382346250000055
        },
        {
          "name": "E2",
          "midi": 40,
          "time": 22.58822400000001,
          "velocity": 0.8661417322834646,
          "duration": 0.17647050000000064
        },
        {
          "name": "E2",
          "midi": 40,
          "time": 22.76469450000001,
          "velocity": 0.8661417322834646,
          "duration": 0.17647050000000064
        },
        {
          "name": "E2",
          "midi": 40,
          "time": 22.941165000000012,
          "velocity": 0.8661417322834646,
          "duration": 0.17647050000000064
        },
        {
          "name": "E2",
          "midi": 40,
          "time": 23.117635500000013,
          "velocity": 0.8661417322834646,
          "duration": 0.17647050000000064
        },
        {
          "name": "E2",
          "midi": 40,
          "time": 23.294106000000014,
          "velocity": 0.8661417322834646,
          "duration": 0.17647050000000064
        },
        {
          "name": "E2",
          "midi": 40,
          "time": 23.470576500000014,
          "velocity": 0.8661417322834646,
          "duration": 0.17647050000000064
        },
        {
          "name": "E2",
          "midi": 40,
          "time": 23.647047000000015,
          "velocity": 0.8661417322834646,
          "duration": 0.17647050000000064
        },
        {
          "name": "E2",
          "midi": 40,
          "time": 23.823517500000015,
          "velocity": 0.8661417322834646,
          "duration": 0.17647050000000064
        },
        {
          "name": "C2",
          "midi": 36,
          "time": 23.999988000000016,
          "velocity": 0.8661417322834646,
          "duration": 0.17647050000000064
        },
        {
          "name": "C2",
          "midi": 36,
          "time": 24.176458500000017,
          "velocity": 0.8661417322834646,
          "duration": 0.17647050000000064
        },
        {
          "name": "C2",
          "midi": 36,
          "time": 24.352929000000017,
          "velocity": 0.8661417322834646,
          "duration": 0.17647050000000064
        },
        {
          "name": "C2",
          "midi": 36,
          "time": 24.529399500000018,
          "velocity": 0.8661417322834646,
          "duration": 0.17647050000000064
        },
        {
          "name": "D2",
          "midi": 38,
          "time": 24.70587000000002,
          "velocity": 0.8661417322834646,
          "duration": 0.17647050000000064
        },
        {
          "name": "D2",
          "midi": 38,
          "time": 24.88234050000002,
          "velocity": 0.8661417322834646,
          "duration": 0.17647050000000064
        },
        {
          "name": "D2",
          "midi": 38,
          "time": 25.05881100000002,
          "velocity": 0.8661417322834646,
          "duration": 0.17647050000000064
        },
        {
          "name": "D2",
          "midi": 38,
          "time": 25.23528150000002,
          "velocity": 0.8661417322834646,
          "duration": 0.17647050000000064
        },
        {
          "name": "E2",
          "midi": 40,
          "time": 25.41175200000002,
          "velocity": 0.7874015748031497,
          "duration": 0.161764625
        },
        {
          "name": "E2",
          "midi": 40,
          "time": 25.59263426250002,
          "velocity": 0.7874015748031497,
          "duration": 0.17205873749999867
        },
        {
          "name": "E2",
          "midi": 40,
          "time": 25.76469300000002,
          "velocity": 0.7874015748031497,
          "duration": 0.161764625
        },
        {
          "name": "E2",
          "midi": 40,
          "time": 25.945575262500018,
          "velocity": 0.7874015748031497,
          "duration": 0.16249991875000092
        },
        {
          "name": "E2",
          "midi": 40,
          "time": 26.11763400000002,
          "velocity": 0.7874015748031497,
          "duration": 0.161764625
        },
        {
          "name": "E2",
          "midi": 40,
          "time": 26.29851626250002,
          "velocity": 0.7874015748031497,
          "duration": 0.17205873749999867
        },
        {
          "name": "E2",
          "midi": 40,
          "time": 26.470575000000018,
          "velocity": 0.7874015748031497,
          "duration": 0.161764625
        },
        {
          "name": "E2",
          "midi": 40,
          "time": 26.651457262500017,
          "velocity": 0.7874015748031497,
          "duration": 0.1529410999999996
        },
        {
          "name": "E2",
          "midi": 40,
          "time": 26.823516000000016,
          "velocity": 0.7874015748031497,
          "duration": 0.161764625
        },
        {
          "name": "E2",
          "midi": 40,
          "time": 27.004398262500015,
          "velocity": 0.7874015748031497,
          "duration": 0.17205873749999867
        },
        {
          "name": "E2",
          "midi": 40,
          "time": 27.176457000000013,
          "velocity": 0.7874015748031497,
          "duration": 0.161764625
        },
        {
          "name": "E2",
          "midi": 40,
          "time": 27.357339262500012,
          "velocity": 0.7874015748031497,
          "duration": 0.16249991875000092
        },
        {
          "name": "E2",
          "midi": 40,
          "time": 27.529398000000015,
          "velocity": 0.7874015748031497,
          "duration": 0.161764625
        },
        {
          "name": "E2",
          "midi": 40,
          "time": 27.710280262500014,
          "velocity": 0.7874015748031497,
          "duration": 0.17205873749999867
        },
        {
          "name": "E2",
          "midi": 40,
          "time": 27.882339000000012,
          "velocity": 0.7874015748031497,
          "duration": 0.161764625
        },
        {
          "name": "D2",
          "midi": 38,
          "time": 28.06322126250001,
          "velocity": 0.7874015748031497,
          "duration": 0.1529410999999996
        },
        {
          "name": "E2",
          "midi": 40,
          "time": 28.23528000000001,
          "velocity": 0.8661417322834646,
          "duration": 0.17647050000000064
        },
        {
          "name": "E2",
          "midi": 40,
          "time": 28.41175050000001,
          "velocity": 0.8661417322834646,
          "duration": 0.17647050000000064
        },
        {
          "name": "E2",
          "midi": 40,
          "time": 28.58822100000001,
          "velocity": 0.8661417322834646,
          "duration": 0.17647050000000064
        },
        {
          "name": "E2",
          "midi": 40,
          "time": 28.764691500000012,
          "velocity": 0.8661417322834646,
          "duration": 0.17647050000000064
        },
        {
          "name": "E2",
          "midi": 40,
          "time": 28.941162000000013,
          "velocity": 0.8661417322834646,
          "duration": 0.17647050000000064
        },
        {
          "name": "E2",
          "midi": 40,
          "time": 29.117632500000013,
          "velocity": 0.8661417322834646,
          "duration": 0.17647050000000064
        },
        {
          "name": "E2",
          "midi": 40,
          "time": 29.294103000000014,
          "velocity": 0.8661417322834646,
          "duration": 0.17647050000000064
        },
        {
          "name": "E2",
          "midi": 40,
          "time": 29.470573500000015,
          "velocity": 0.8661417322834646,
          "duration": 0.17647050000000064
        },
        {
          "name": "C2",
          "midi": 36,
          "time": 29.647044000000015,
          "velocity": 0.8661417322834646,
          "duration": 0.17647050000000064
        },
        {
          "name": "C2",
          "midi": 36,
          "time": 29.823514500000016,
          "velocity": 0.8661417322834646,
          "duration": 0.17647050000000064
        },
        {
          "name": "C2",
          "midi": 36,
          "time": 29.999985000000017,
          "velocity": 0.8661417322834646,
          "duration": 0.17647050000000064
        },
        {
          "name": "C2",
          "midi": 36,
          "time": 30.176455500000017,
          "velocity": 0.8661417322834646,
          "duration": 0.17647050000000064
        },
        {
          "name": "D2",
          "midi": 38,
          "time": 30.352926000000018,
          "velocity": 0.8661417322834646,
          "duration": 0.17647050000000064
        },
        {
          "name": "D2",
          "midi": 38,
          "time": 30.52939650000002,
          "velocity": 0.8661417322834646,
          "duration": 0.17647050000000064
        },
        {
          "name": "D2",
          "midi": 38,
          "time": 30.70586700000002,
          "velocity": 0.8661417322834646,
          "duration": 0.17647050000000064
        },
        {
          "name": "D2",
          "midi": 38,
          "time": 30.88233750000002,
          "velocity": 0.8661417322834646,
          "duration": 0.17647050000000064
        },
        {
          "name": "E2",
          "midi": 40,
          "time": 31.05880800000002,
          "velocity": 0.7874015748031497,
          "duration": 0.161764625
        },
        {
          "name": "E2",
          "midi": 40,
          "time": 31.05880800000002,
          "velocity": 0.7874015748031497,
          "duration": 0.161764625
        },
        {
          "name": "E2",
          "midi": 40,
          "time": 31.23969026250002,
          "velocity": 0.7874015748031497,
          "duration": 0.17205873749999867
        },
        {
          "name": "E2",
          "midi": 40,
          "time": 31.411749000000018,
          "velocity": 0.7874015748031497,
          "duration": 0.161764625
        },
        {
          "name": "E2",
          "midi": 40,
          "time": 31.592631262500017,
          "velocity": 0.7874015748031497,
          "duration": 0.16249991875000092
        },
        {
          "name": "E2",
          "midi": 40,
          "time": 31.76469000000002,
          "velocity": 0.7874015748031497,
          "duration": 0.161764625
        },
        {
          "name": "E2",
          "midi": 40,
          "time": 31.94557226250002,
          "velocity": 0.7874015748031497,
          "duration": 0.17205873749999867
        },
        {
          "name": "E2",
          "midi": 40,
          "time": 32.11763100000002,
          "velocity": 0.7874015748031497,
          "duration": 0.16176462500000355
        },
        {
          "name": "E2",
          "midi": 40,
          "time": 32.29851326250002,
          "velocity": 0.7874015748031497,
          "duration": 0.1529410999999996
        },
        {
          "name": "E2",
          "midi": 40,
          "time": 32.470572000000026,
          "velocity": 0.7874015748031497,
          "duration": 0.16176462499999644
        },
        {
          "name": "E2",
          "midi": 40,
          "time": 32.651454262500025,
          "velocity": 0.7874015748031497,
          "duration": 0.17205873750000222
        },
        {
          "name": "E2",
          "midi": 40,
          "time": 32.82351300000003,
          "velocity": 0.7874015748031497,
          "duration": 0.16176462499999644
        },
        {
          "name": "E2",
          "midi": 40,
          "time": 33.004395262500026,
          "velocity": 0.7874015748031497,
          "duration": 0.16249991875000092
        },
        {
          "name": "E2",
          "midi": 40,
          "time": 33.17645400000003,
          "velocity": 0.7874015748031497,
          "duration": 0.16176462499999644
        },
        {
          "name": "E2",
          "midi": 40,
          "time": 33.35733626250003,
          "velocity": 0.7874015748031497,
          "duration": 0.17205873750000222
        },
        {
          "name": "E2",
          "midi": 40,
          "time": 33.52939500000003,
          "velocity": 0.7874015748031497,
          "duration": 0.16176462499999644
        },
        {
          "name": "D2",
          "midi": 38,
          "time": 33.71027726250003,
          "velocity": 0.7874015748031497,
          "duration": 0.1529410999999996
        },
        {
          "name": "E2",
          "midi": 40,
          "time": 33.88233600000003,
          "velocity": 0.7874015748031497,
          "duration": 0.16176462499999644
        },
        {
          "name": "E2",
          "midi": 40,
          "time": 34.06321826250003,
          "velocity": 0.7874015748031497,
          "duration": 0.17205873750000222
        },
        {
          "name": "E2",
          "midi": 40,
          "time": 34.23527700000003,
          "velocity": 0.7874015748031497,
          "duration": 0.16176462499999644
        },
        {
          "name": "E2",
          "midi": 40,
          "time": 34.41615926250003,
          "velocity": 0.7874015748031497,
          "duration": 0.16249991875000092
        },
        {
          "name": "E2",
          "midi": 40,
          "time": 34.58821800000003,
          "velocity": 0.7874015748031497,
          "duration": 0.16176462499999644
        },
        {
          "name": "E2",
          "midi": 40,
          "time": 34.76910026250003,
          "velocity": 0.7874015748031497,
          "duration": 0.17205873750000222
        },
        {
          "name": "E2",
          "midi": 40,
          "time": 34.941159000000034,
          "velocity": 0.7874015748031497,
          "duration": 0.16176462499999644
        },
        {
          "name": "E2",
          "midi": 40,
          "time": 35.122041262500034,
          "velocity": 0.7874015748031497,
          "duration": 0.1529410999999996
        },
        {
          "name": "E2",
          "midi": 40,
          "time": 35.294100000000036,
          "velocity": 0.7874015748031497,
          "duration": 0.16176462499999644
        },
        {
          "name": "E2",
          "midi": 40,
          "time": 35.474982262500035,
          "velocity": 0.7874015748031497,
          "duration": 0.17205873750000222
        },
        {
          "name": "E2",
          "midi": 40,
          "time": 35.64704100000004,
          "velocity": 0.7874015748031497,
          "duration": 0.16176462499999644
        },
        {
          "name": "E2",
          "midi": 40,
          "time": 35.827923262500036,
          "velocity": 0.7874015748031497,
          "duration": 0.16249991875000092
        },
        {
          "name": "D2",
          "midi": 38,
          "time": 35.99998200000004,
          "velocity": 0.7874015748031497,
          "duration": 0.16176462499999644
        },
        {
          "name": "E2",
          "midi": 40,
          "time": 36.18086426250004,
          "velocity": 0.7874015748031497,
          "duration": 0.17205873750000222
        },
        {
          "name": "G2",
          "midi": 43,
          "time": 36.35292300000004,
          "velocity": 0.7874015748031497,
          "duration": 0.16176462499999644
        },
        {
          "name": "A2",
          "midi": 45,
          "time": 36.53380526250004,
          "velocity": 0.7874015748031497,
          "duration": 0.16249991875000092
        },
        {
          "name": "D2",
          "midi": 38,
          "time": 36.70586400000004,
          "velocity": 0.7874015748031497,
          "duration": 0.16176462499999644
        },
        {
          "name": "D2",
          "midi": 38,
          "time": 36.88674626250004,
          "velocity": 0.7874015748031497,
          "duration": 0.17205873750000222
        },
        {
          "name": "D2",
          "midi": 38,
          "time": 37.05880500000004,
          "velocity": 0.7874015748031497,
          "duration": 0.16176462499999644
        },
        {
          "name": "D2",
          "midi": 38,
          "time": 37.23968726250004,
          "velocity": 0.7874015748031497,
          "duration": 0.16249991875000092
        },
        {
          "name": "D2",
          "midi": 38,
          "time": 37.41174600000004,
          "velocity": 0.7874015748031497,
          "duration": 0.16176462499999644
        },
        {
          "name": "D2",
          "midi": 38,
          "time": 37.59262826250004,
          "velocity": 0.7874015748031497,
          "duration": 0.17205873750000222
        },
        {
          "name": "D2",
          "midi": 38,
          "time": 37.764687000000045,
          "velocity": 0.7874015748031497,
          "duration": 0.16176462499999644
        },
        {
          "name": "D2",
          "midi": 38,
          "time": 37.945569262500044,
          "velocity": 0.7874015748031497,
          "duration": 0.1529410999999996
        },
        {
          "name": "G2",
          "midi": 43,
          "time": 38.117628000000046,
          "velocity": 0.7874015748031497,
          "duration": 0.17647050000000064
        },
        {
          "name": "D2",
          "midi": 38,
          "time": 38.298510262500045,
          "velocity": 0.7874015748031497,
          "duration": 0.5058821000000009
        },
        {
          "name": "E2",
          "midi": 40,
          "time": 38.82351000000005,
          "velocity": 0.7874015748031497,
          "duration": 0.31470572500000316
        },
        {
          "name": "D2",
          "midi": 38,
          "time": 39.17645100000005,
          "velocity": 0.7874015748031497,
          "duration": 0.17647050000000064
        },
        {
          "name": "E2",
          "midi": 40,
          "time": 39.35733326250005,
          "velocity": 0.7874015748031497,
          "duration": 0.133823462499997
        },
        {
          "name": "E2",
          "midi": 40,
          "time": 39.529392000000044,
          "velocity": 0.7874015748031497,
          "duration": 0.16176462500000355
        },
        {
          "name": "E2",
          "midi": 40,
          "time": 39.71027426250005,
          "velocity": 0.7874015748031497,
          "duration": 0.17205873750000222
        },
        {
          "name": "E2",
          "midi": 40,
          "time": 39.88233300000005,
          "velocity": 0.7874015748031497,
          "duration": 0.16176462499999644
        },
        {
          "name": "E2",
          "midi": 40,
          "time": 40.06321526250005,
          "velocity": 0.7874015748031497,
          "duration": 0.16249991875000092
        },
        {
          "name": "E2",
          "midi": 40,
          "time": 40.235274000000054,
          "velocity": 0.7874015748031497,
          "duration": 0.16176462499999644
        },
        {
          "name": "E2",
          "midi": 40,
          "time": 40.41615626250005,
          "velocity": 0.7874015748031497,
          "duration": 0.17205873750000222
        },
        {
          "name": "E2",
          "midi": 40,
          "time": 40.588215000000055,
          "velocity": 0.7874015748031497,
          "duration": 0.16176462499999644
        },
        {
          "name": "E2",
          "midi": 40,
          "time": 40.769097262500054,
          "velocity": 0.7874015748031497,
          "duration": 0.1529410999999996
        },
        {
          "name": "E2",
          "midi": 40,
          "time": 40.941156000000056,
          "velocity": 0.7874015748031497,
          "duration": 0.16176462499999644
        },
        {
          "name": "E2",
          "midi": 40,
          "time": 41.122038262500055,
          "velocity": 0.7874015748031497,
          "duration": 0.17205873750000222
        },
        {
          "name": "E2",
          "midi": 40,
          "time": 41.29409700000006,
          "velocity": 0.7874015748031497,
          "duration": 0.16176462499999644
        },
        {
          "name": "E2",
          "midi": 40,
          "time": 41.47497926250006,
          "velocity": 0.7874015748031497,
          "duration": 0.16249991875000092
        },
        {
          "name": "D2",
          "midi": 38,
          "time": 41.64703800000006,
          "velocity": 0.7874015748031497,
          "duration": 0.16176462499999644
        },
        {
          "name": "E2",
          "midi": 40,
          "time": 41.82792026250006,
          "velocity": 0.7874015748031497,
          "duration": 0.17205873750000222
        },
        {
          "name": "G2",
          "midi": 43,
          "time": 41.99997900000006,
          "velocity": 0.7874015748031497,
          "duration": 0.16176462499999644
        },
        {
          "name": "A2",
          "midi": 45,
          "time": 42.18086126250006,
          "velocity": 0.7874015748031497,
          "duration": 0.16249991875000092
        },
        {
          "name": "D2",
          "midi": 38,
          "time": 42.35292000000006,
          "velocity": 0.7874015748031497,
          "duration": 0.16176462499999644
        },
        {
          "name": "D2",
          "midi": 38,
          "time": 42.53380226250006,
          "velocity": 0.7874015748031497,
          "duration": 0.17205873750000222
        },
        {
          "name": "D2",
          "midi": 38,
          "time": 42.70586100000006,
          "velocity": 0.7874015748031497,
          "duration": 0.16176462499999644
        },
        {
          "name": "D2",
          "midi": 38,
          "time": 42.88674326250006,
          "velocity": 0.7874015748031497,
          "duration": 0.16249991875000092
        },
        {
          "name": "D2",
          "midi": 38,
          "time": 43.058802000000064,
          "velocity": 0.7874015748031497,
          "duration": 0.16176462499999644
        },
        {
          "name": "D2",
          "midi": 38,
          "time": 43.23968426250006,
          "velocity": 0.7874015748031497,
          "duration": 0.17205873750000222
        },
        {
          "name": "D2",
          "midi": 38,
          "time": 43.411743000000065,
          "velocity": 0.7874015748031497,
          "duration": 0.16176462499999644
        },
        {
          "name": "D2",
          "midi": 38,
          "time": 43.592625262500064,
          "velocity": 0.7874015748031497,
          "duration": 0.1529410999999996
        },
        {
          "name": "G2",
          "midi": 43,
          "time": 43.76468400000007,
          "velocity": 0.7874015748031497,
          "duration": 0.17647050000000064
        },
        {
          "name": "D2",
          "midi": 38,
          "time": 43.945566262500066,
          "velocity": 0.7874015748031497,
          "duration": 0.5058821000000009
        },
        {
          "name": "E2",
          "midi": 40,
          "time": 44.47056600000007,
          "velocity": 0.7874015748031497,
          "duration": 0.31470572500000316
        },
        {
          "name": "D2",
          "midi": 38,
          "time": 44.82350700000007,
          "velocity": 0.7874015748031497,
          "duration": 0.17647050000000064
        },
        {
          "name": "E2",
          "midi": 40,
          "time": 45.00438926250007,
          "velocity": 0.7874015748031497,
          "duration": 0.133823462499997
        },
        {
          "name": "E2",
          "midi": 40,
          "time": 45.176448000000065,
          "velocity": 0.8661417322834646,
          "duration": 0.17647050000000064
        },
        {
          "name": "E3",
          "midi": 52,
          "time": 45.352918500000065,
          "velocity": 0.8661417322834646,
          "duration": 0.17647050000000064
        },
        {
          "name": "E2",
          "midi": 40,
          "time": 45.529389000000066,
          "velocity": 0.8661417322834646,
          "duration": 0.17647050000000064
        },
        {
          "name": "E3",
          "midi": 52,
          "time": 45.70585950000007,
          "velocity": 0.8661417322834646,
          "duration": 0.17647050000000064
        },
        {
          "name": "E2",
          "midi": 40,
          "time": 45.88233000000007,
          "velocity": 0.8661417322834646,
          "duration": 0.17647050000000064
        },
        {
          "name": "E3",
          "midi": 52,
          "time": 46.05880050000007,
          "velocity": 0.8661417322834646,
          "duration": 0.17647050000000064
        },
        {
          "name": "E2",
          "midi": 40,
          "time": 46.23527100000007,
          "velocity": 0.8661417322834646,
          "duration": 0.17647050000000064
        },
        {
          "name": "E3",
          "midi": 52,
          "time": 46.41174150000007,
          "velocity": 0.8661417322834646,
          "duration": 0.17647050000000064
        },
        {
          "name": "E2",
          "midi": 40,
          "time": 46.58821200000007,
          "velocity": 0.8661417322834646,
          "duration": 0.17647050000000064
        },
        {
          "name": "E3",
          "midi": 52,
          "time": 46.76468250000007,
          "velocity": 0.8661417322834646,
          "duration": 0.17647050000000064
        },
        {
          "name": "E2",
          "midi": 40,
          "time": 46.94115300000007,
          "velocity": 0.8661417322834646,
          "duration": 0.17647050000000064
        },
        {
          "name": "E3",
          "midi": 52,
          "time": 47.11762350000007,
          "velocity": 0.8661417322834646,
          "duration": 0.17647050000000064
        },
        {
          "name": "E2",
          "midi": 40,
          "time": 47.29409400000007,
          "velocity": 0.8661417322834646,
          "duration": 0.17647050000000064
        },
        {
          "name": "E3",
          "midi": 52,
          "time": 47.47056450000007,
          "velocity": 0.8661417322834646,
          "duration": 0.17647050000000064
        },
        {
          "name": "E2",
          "midi": 40,
          "time": 47.64703500000007,
          "velocity": 0.8661417322834646,
          "duration": 0.17647050000000064
        },
        {
          "name": "E3",
          "midi": 52,
          "time": 47.823505500000074,
          "velocity": 0.8661417322834646,
          "duration": 0.17647050000000064
        },
        {
          "name": "D2",
          "midi": 38,
          "time": 47.999976000000075,
          "velocity": 0.8661417322834646,
          "duration": 0.17647050000000064
        },
        {
          "name": "D3",
          "midi": 50,
          "time": 48.176446500000075,
          "velocity": 0.8661417322834646,
          "duration": 0.17647050000000064
        },
        {
          "name": "D2",
          "midi": 38,
          "time": 48.352917000000076,
          "velocity": 0.8661417322834646,
          "duration": 0.17647050000000064
        },
        {
          "name": "D3",
          "midi": 50,
          "time": 48.52938750000008,
          "velocity": 0.8661417322834646,
          "duration": 0.17647050000000064
        },
        {
          "name": "D2",
          "midi": 38,
          "time": 48.70585800000008,
          "velocity": 0.8661417322834646,
          "duration": 0.17647050000000064
        },
        {
          "name": "D3",
          "midi": 50,
          "time": 48.88232850000008,
          "velocity": 0.8661417322834646,
          "duration": 0.17647050000000064
        },
        {
          "name": "D2",
          "midi": 38,
          "time": 49.05879900000008,
          "velocity": 0.8661417322834646,
          "duration": 0.17647050000000064
        },
        {
          "name": "D3",
          "midi": 50,
          "time": 49.23526950000008,
          "velocity": 0.8661417322834646,
          "duration": 0.17647050000000064
        },
        {
          "name": "D2",
          "midi": 38,
          "time": 49.41174000000008,
          "velocity": 0.8661417322834646,
          "duration": 0.17647050000000064
        },
        {
          "name": "D3",
          "midi": 50,
          "time": 49.58821050000008,
          "velocity": 0.8661417322834646,
          "duration": 0.17647050000000064
        },
        {
          "name": "D2",
          "midi": 38,
          "time": 49.76468100000008,
          "velocity": 0.8661417322834646,
          "duration": 0.17647050000000064
        },
        {
          "name": "D3",
          "midi": 50,
          "time": 49.94115150000008,
          "velocity": 0.8661417322834646,
          "duration": 0.17647050000000064
        },
        {
          "name": "D2",
          "midi": 38,
          "time": 50.11762200000008,
          "velocity": 0.8661417322834646,
          "duration": 0.17647050000000064
        },
        {
          "name": "D3",
          "midi": 50,
          "time": 50.29409250000008,
          "velocity": 0.8661417322834646,
          "duration": 0.17647050000000064
        },
        {
          "name": "D2",
          "midi": 38,
          "time": 50.470563000000084,
          "velocity": 0.8661417322834646,
          "duration": 0.17647050000000064
        },
        {
          "name": "D3",
          "midi": 50,
          "time": 50.647033500000084,
          "velocity": 0.8661417322834646,
          "duration": 0.17647050000000064
        },
        {
          "name": "E2",
          "midi": 40,
          "time": 50.823504000000085,
          "velocity": 0.8661417322834646,
          "duration": 0.17647050000000064
        },
        {
          "name": "E3",
          "midi": 52,
          "time": 50.999974500000086,
          "velocity": 0.8661417322834646,
          "duration": 0.17647050000000064
        },
        {
          "name": "E2",
          "midi": 40,
          "time": 51.176445000000086,
          "velocity": 0.8661417322834646,
          "duration": 0.17647050000000064
        },
        {
          "name": "E3",
          "midi": 52,
          "time": 51.35291550000009,
          "velocity": 0.8661417322834646,
          "duration": 0.17647050000000064
        },
        {
          "name": "E2",
          "midi": 40,
          "time": 51.52938600000009,
          "velocity": 0.8661417322834646,
          "duration": 0.17647050000000064
        },
        {
          "name": "E3",
          "midi": 52,
          "time": 51.70585650000009,
          "velocity": 0.8661417322834646,
          "duration": 0.17647050000000064
        },
        {
          "name": "E2",
          "midi": 40,
          "time": 51.88232700000009,
          "velocity": 0.8661417322834646,
          "duration": 0.17647050000000064
        },
        {
          "name": "E3",
          "midi": 52,
          "time": 52.05879750000009,
          "velocity": 0.8661417322834646,
          "duration": 0.17647050000000064
        },
        {
          "name": "E2",
          "midi": 40,
          "time": 52.23526800000009,
          "velocity": 0.8661417322834646,
          "duration": 0.17647050000000064
        },
        {
          "name": "E3",
          "midi": 52,
          "time": 52.41173850000009,
          "velocity": 0.8661417322834646,
          "duration": 0.17647050000000064
        },
        {
          "name": "E2",
          "midi": 40,
          "time": 52.58820900000009,
          "velocity": 0.8661417322834646,
          "duration": 0.17647050000000064
        },
        {
          "name": "E3",
          "midi": 52,
          "time": 52.76467950000009,
          "velocity": 0.8661417322834646,
          "duration": 0.17647050000000064
        },
        {
          "name": "E2",
          "midi": 40,
          "time": 52.94115000000009,
          "velocity": 0.8661417322834646,
          "duration": 0.17647050000000064
        },
        {
          "name": "E3",
          "midi": 52,
          "time": 53.11762050000009,
          "velocity": 0.8661417322834646,
          "duration": 0.17647050000000064
        },
        {
          "name": "E2",
          "midi": 40,
          "time": 53.294091000000094,
          "velocity": 0.8661417322834646,
          "duration": 0.17647050000000064
        },
        {
          "name": "E3",
          "midi": 52,
          "time": 53.470561500000095,
          "velocity": 0.8661417322834646,
          "duration": 0.17647050000000064
        },
        {
          "name": "D2",
          "midi": 38,
          "time": 53.647032000000095,
          "velocity": 0.8661417322834646,
          "duration": 0.17647050000000064
        },
        {
          "name": "D3",
          "midi": 50,
          "time": 53.823502500000096,
          "velocity": 0.8661417322834646,
          "duration": 0.17647050000000064
        },
        {
          "name": "D2",
          "midi": 38,
          "time": 53.9999730000001,
          "velocity": 0.8661417322834646,
          "duration": 0.17647050000000064
        },
        {
          "name": "D3",
          "midi": 50,
          "time": 54.1764435000001,
          "velocity": 0.8661417322834646,
          "duration": 0.17647050000000064
        },
        {
          "name": "D2",
          "midi": 38,
          "time": 54.3529140000001,
          "velocity": 0.8661417322834646,
          "duration": 0.17647050000000064
        },
        {
          "name": "D3",
          "midi": 50,
          "time": 54.5293845000001,
          "velocity": 0.8661417322834646,
          "duration": 0.17647050000000064
        },
        {
          "name": "D2",
          "midi": 38,
          "time": 54.7058550000001,
          "velocity": 0.8661417322834646,
          "duration": 0.17647050000000064
        },
        {
          "name": "D3",
          "midi": 50,
          "time": 54.8823255000001,
          "velocity": 0.8661417322834646,
          "duration": 0.17647050000000064
        },
        {
          "name": "D2",
          "midi": 38,
          "time": 55.0587960000001,
          "velocity": 0.8661417322834646,
          "duration": 0.17647050000000064
        },
        {
          "name": "D3",
          "midi": 50,
          "time": 55.2352665000001,
          "velocity": 0.8661417322834646,
          "duration": 0.17647050000000064
        },
        {
          "name": "D2",
          "midi": 38,
          "time": 55.4117370000001,
          "velocity": 0.8661417322834646,
          "duration": 0.17647050000000064
        },
        {
          "name": "D3",
          "midi": 50,
          "time": 55.5882075000001,
          "velocity": 0.8661417322834646,
          "duration": 0.17647050000000064
        },
        {
          "name": "D2",
          "midi": 38,
          "time": 55.7646780000001,
          "velocity": 0.8661417322834646,
          "duration": 0.17647050000000064
        },
        {
          "name": "D3",
          "midi": 50,
          "time": 55.941148500000104,
          "velocity": 0.8661417322834646,
          "duration": 0.17647050000000064
        },
        {
          "name": "D2",
          "midi": 38,
          "time": 56.117619000000104,
          "velocity": 0.8661417322834646,
          "duration": 0.17647050000000064
        },
        {
          "name": "D3",
          "midi": 50,
          "time": 56.294089500000105,
          "velocity": 0.8661417322834646,
          "duration": 0.17647050000000064
        },
        {
          "name": "E2",
          "midi": 40,
          "time": 56.470560000000106,
          "velocity": 0.7874015748031497,
          "duration": 0.16176462500000355
        },
        {
          "name": "E2",
          "midi": 40,
          "time": 56.65144226250011,
          "velocity": 0.7874015748031497,
          "duration": 0.17205873750000222
        },
        {
          "name": "E2",
          "midi": 40,
          "time": 56.823501000000114,
          "velocity": 0.7874015748031497,
          "duration": 0.16176462499999644
        },
        {
          "name": "E2",
          "midi": 40,
          "time": 57.00438326250011,
          "velocity": 0.7874015748031497,
          "duration": 0.16249991875000092
        },
        {
          "name": "E2",
          "midi": 40,
          "time": 57.176442000000115,
          "velocity": 0.7874015748031497,
          "duration": 0.16176462499999644
        },
        {
          "name": "E2",
          "midi": 40,
          "time": 57.357324262500114,
          "velocity": 0.7874015748031497,
          "duration": 0.17205873750000222
        },
        {
          "name": "E2",
          "midi": 40,
          "time": 57.52938300000012,
          "velocity": 0.7874015748031497,
          "duration": 0.16176462499999644
        },
        {
          "name": "E2",
          "midi": 40,
          "time": 57.710265262500116,
          "velocity": 0.7874015748031497,
          "duration": 0.1529410999999996
        },
        {
          "name": "E2",
          "midi": 40,
          "time": 57.88232400000012,
          "velocity": 0.7874015748031497,
          "duration": 0.16176462499999644
        },
        {
          "name": "E2",
          "midi": 40,
          "time": 58.06320626250012,
          "velocity": 0.7874015748031497,
          "duration": 0.17205873750000222
        },
        {
          "name": "E2",
          "midi": 40,
          "time": 58.23526500000012,
          "velocity": 0.7874015748031497,
          "duration": 0.16176462499999644
        },
        {
          "name": "E2",
          "midi": 40,
          "time": 58.41614726250012,
          "velocity": 0.7874015748031497,
          "duration": 0.16249991875000092
        },
        {
          "name": "D2",
          "midi": 38,
          "time": 58.58820600000012,
          "velocity": 0.7874015748031497,
          "duration": 0.16176462499999644
        },
        {
          "name": "E2",
          "midi": 40,
          "time": 58.76908826250012,
          "velocity": 0.7874015748031497,
          "duration": 0.17205873750000222
        },
        {
          "name": "G2",
          "midi": 43,
          "time": 58.94114700000012,
          "velocity": 0.7874015748031497,
          "duration": 0.16176462499999644
        },
        {
          "name": "A2",
          "midi": 45,
          "time": 59.12202926250012,
          "velocity": 0.7874015748031497,
          "duration": 0.16249991875000092
        },
        {
          "name": "D2",
          "midi": 38,
          "time": 59.29408800000012,
          "velocity": 0.7874015748031497,
          "duration": 0.16176462499999644
        },
        {
          "name": "D2",
          "midi": 38,
          "time": 59.47497026250012,
          "velocity": 0.7874015748031497,
          "duration": 0.17205873750000222
        },
        {
          "name": "D2",
          "midi": 38,
          "time": 59.647029000000124,
          "velocity": 0.7874015748031497,
          "duration": 0.16176462499999644
        },
        {
          "name": "D2",
          "midi": 38,
          "time": 59.82791126250012,
          "velocity": 0.7874015748031497,
          "duration": 0.16249991875000092
        },
        {
          "name": "D2",
          "midi": 38,
          "time": 59.999970000000125,
          "velocity": 0.7874015748031497,
          "duration": 0.16176462499999644
        },
        {
          "name": "D2",
          "midi": 38,
          "time": 60.180852262500125,
          "velocity": 0.7874015748031497,
          "duration": 0.17205873750000222
        },
        {
          "name": "D2",
          "midi": 38,
          "time": 60.35291100000013,
          "velocity": 0.7874015748031497,
          "duration": 0.16176462499999644
        },
        {
          "name": "D2",
          "midi": 38,
          "time": 60.533793262500126,
          "velocity": 0.7874015748031497,
          "duration": 0.1529410999999996
        },
        {
          "name": "G2",
          "midi": 43,
          "time": 60.70585200000013,
          "velocity": 0.7874015748031497,
          "duration": 0.17647050000000064
        },
        {
          "name": "D2",
          "midi": 38,
          "time": 60.88673426250013,
          "velocity": 0.7874015748031497,
          "duration": 0.5058821000000009
        },
        {
          "name": "E2",
          "midi": 40,
          "time": 61.41173400000013,
          "velocity": 0.7874015748031497,
          "duration": 0.31470572500000316
        },
        {
          "name": "D2",
          "midi": 38,
          "time": 61.76467500000013,
          "velocity": 0.7874015748031497,
          "duration": 0.17647050000000064
        },
        {
          "name": "E2",
          "midi": 40,
          "time": 61.94555726250013,
          "velocity": 0.7874015748031497,
          "duration": 0.133823462499997
        },
        {
          "name": "E2",
          "midi": 40,
          "time": 62.117616000000126,
          "velocity": 0.7874015748031497,
          "duration": 0.16176462500000355
        },
        {
          "name": "E2",
          "midi": 40,
          "time": 62.29849826250013,
          "velocity": 0.7874015748031497,
          "duration": 0.17205873750000222
        },
        {
          "name": "E2",
          "midi": 40,
          "time": 62.470557000000134,
          "velocity": 0.7874015748031497,
          "duration": 0.16176462499999644
        },
        {
          "name": "E2",
          "midi": 40,
          "time": 62.65143926250013,
          "velocity": 0.7874015748031497,
          "duration": 0.16249991875000092
        },
        {
          "name": "E2",
          "midi": 40,
          "time": 62.823498000000136,
          "velocity": 0.7874015748031497,
          "duration": 0.16176462499999644
        },
        {
          "name": "E2",
          "midi": 40,
          "time": 63.004380262500135,
          "velocity": 0.7874015748031497,
          "duration": 0.17205873750000222
        },
        {
          "name": "E2",
          "midi": 40,
          "time": 63.17643900000014,
          "velocity": 0.7874015748031497,
          "duration": 0.16176462499999644
        },
        {
          "name": "E2",
          "midi": 40,
          "time": 63.357321262500136,
          "velocity": 0.7874015748031497,
          "duration": 0.1529410999999996
        },
        {
          "name": "E2",
          "midi": 40,
          "time": 63.52938000000014,
          "velocity": 0.7874015748031497,
          "duration": 0.16176462499999644
        },
        {
          "name": "E2",
          "midi": 40,
          "time": 63.71026226250014,
          "velocity": 0.7874015748031497,
          "duration": 0.17205873750000222
        },
        {
          "name": "E2",
          "midi": 40,
          "time": 63.88232100000014,
          "velocity": 0.7874015748031497,
          "duration": 0.16176462499999644
        },
        {
          "name": "E2",
          "midi": 40,
          "time": 64.06320326250014,
          "velocity": 0.7874015748031497,
          "duration": 0.16249991875000092
        },
        {
          "name": "D2",
          "midi": 38,
          "time": 64.23526200000013,
          "velocity": 0.7874015748031497,
          "duration": 0.16176462500000355
        },
        {
          "name": "E2",
          "midi": 40,
          "time": 64.41614426250014,
          "velocity": 0.7874015748031497,
          "duration": 0.17205873749999512
        },
        {
          "name": "G2",
          "midi": 43,
          "time": 64.58820300000014,
          "velocity": 0.7874015748031497,
          "duration": 0.16176462500000355
        },
        {
          "name": "A2",
          "midi": 45,
          "time": 64.76908526250014,
          "velocity": 0.7874015748031497,
          "duration": 0.16249991875000092
        },
        {
          "name": "D2",
          "midi": 38,
          "time": 64.94114400000014,
          "velocity": 0.7874015748031497,
          "duration": 0.16176462500000355
        },
        {
          "name": "D2",
          "midi": 38,
          "time": 65.12202626250014,
          "velocity": 0.7874015748031497,
          "duration": 0.17205873749999512
        },
        {
          "name": "D2",
          "midi": 38,
          "time": 65.29408500000014,
          "velocity": 0.7874015748031497,
          "duration": 0.16176462500000355
        },
        {
          "name": "D2",
          "midi": 38,
          "time": 65.47496726250014,
          "velocity": 0.7874015748031497,
          "duration": 0.16249991875000092
        },
        {
          "name": "D2",
          "midi": 38,
          "time": 65.64702600000014,
          "velocity": 0.7874015748031497,
          "duration": 0.16176462500000355
        },
        {
          "name": "D2",
          "midi": 38,
          "time": 65.82790826250015,
          "velocity": 0.7874015748031497,
          "duration": 0.17205873749999512
        },
        {
          "name": "D2",
          "midi": 38,
          "time": 65.99996700000014,
          "velocity": 0.7874015748031497,
          "duration": 0.16176462500000355
        },
        {
          "name": "D2",
          "midi": 38,
          "time": 66.18084926250015,
          "velocity": 0.7874015748031497,
          "duration": 0.1529411000000067
        },
        {
          "name": "G2",
          "midi": 43,
          "time": 66.35290800000016,
          "velocity": 0.7874015748031497,
          "duration": 0.17647049999999354
        },
        {
          "name": "D2",
          "midi": 38,
          "time": 66.53379026250015,
          "velocity": 0.7874015748031497,
          "duration": 0.5058820999999938
        },
        {
          "name": "E2",
          "midi": 40,
          "time": 67.05879000000014,
          "velocity": 0.7874015748031497,
          "duration": 0.31470572499999605
        },
        {
          "name": "D2",
          "midi": 38,
          "time": 67.41173100000015,
          "velocity": 0.7874015748031497,
          "duration": 0.17647049999999354
        },
        {
          "name": "E2",
          "midi": 40,
          "time": 67.59261326250014,
          "velocity": 0.7874015748031497,
          "duration": 0.1338234625000041
        },
        {
          "name": "E2",
          "midi": 40,
          "time": 67.76467200000015,
          "velocity": 0.7874015748031497,
          "duration": 0.16176462500000355
        },
        {
          "name": "E2",
          "midi": 40,
          "time": 67.94555426250015,
          "velocity": 0.7874015748031497,
          "duration": 0.17205873749999512
        },
        {
          "name": "E2",
          "midi": 40,
          "time": 68.11761300000015,
          "velocity": 0.7874015748031497,
          "duration": 0.16176462500000355
        },
        {
          "name": "E2",
          "midi": 40,
          "time": 68.29849526250015,
          "velocity": 0.7874015748031497,
          "duration": 0.16249991875000092
        },
        {
          "name": "E2",
          "midi": 40,
          "time": 68.47055400000015,
          "velocity": 0.7874015748031497,
          "duration": 0.16176462500000355
        },
        {
          "name": "E2",
          "midi": 40,
          "time": 68.65143626250016,
          "velocity": 0.7874015748031497,
          "duration": 0.17205873749999512
        },
        {
          "name": "E2",
          "midi": 40,
          "time": 68.82349500000015,
          "velocity": 0.7874015748031497,
          "duration": 0.16176462500000355
        },
        {
          "name": "E2",
          "midi": 40,
          "time": 69.00437726250016,
          "velocity": 0.7874015748031497,
          "duration": 0.1529411000000067
        },
        {
          "name": "E2",
          "midi": 40,
          "time": 69.17643600000017,
          "velocity": 0.7874015748031497,
          "duration": 0.16176462500000355
        },
        {
          "name": "E2",
          "midi": 40,
          "time": 69.35731826250017,
          "velocity": 0.7874015748031497,
          "duration": 0.17205873749999512
        },
        {
          "name": "E2",
          "midi": 40,
          "time": 69.52937700000017,
          "velocity": 0.7874015748031497,
          "duration": 0.16176462500000355
        },
        {
          "name": "E2",
          "midi": 40,
          "time": 69.71025926250017,
          "velocity": 0.7874015748031497,
          "duration": 0.16249991875000092
        },
        {
          "name": "D2",
          "midi": 38,
          "time": 69.88231800000017,
          "velocity": 0.7874015748031497,
          "duration": 0.16176462500000355
        },
        {
          "name": "E2",
          "midi": 40,
          "time": 70.06320026250017,
          "velocity": 0.7874015748031497,
          "duration": 0.17205873749999512
        },
        {
          "name": "G2",
          "midi": 43,
          "time": 70.23525900000017,
          "velocity": 0.7874015748031497,
          "duration": 0.16176462500000355
        },
        {
          "name": "A2",
          "midi": 45,
          "time": 70.41614126250018,
          "velocity": 0.7874015748031497,
          "duration": 0.16249991875000092
        },
        {
          "name": "D2",
          "midi": 38,
          "time": 70.58820000000017,
          "velocity": 0.7874015748031497,
          "duration": 0.16176462500000355
        },
        {
          "name": "D2",
          "midi": 38,
          "time": 70.76908226250018,
          "velocity": 0.7874015748031497,
          "duration": 0.17205873749999512
        },
        {
          "name": "D2",
          "midi": 38,
          "time": 70.94114100000017,
          "velocity": 0.7874015748031497,
          "duration": 0.16176462500000355
        },
        {
          "name": "D2",
          "midi": 38,
          "time": 71.12202326250018,
          "velocity": 0.7874015748031497,
          "duration": 0.16249991875000092
        },
        {
          "name": "D2",
          "midi": 38,
          "time": 71.29408200000017,
          "velocity": 0.7874015748031497,
          "duration": 0.16176462500000355
        },
        {
          "name": "D2",
          "midi": 38,
          "time": 71.47496426250018,
          "velocity": 0.7874015748031497,
          "duration": 0.17205873749999512
        },
        {
          "name": "D2",
          "midi": 38,
          "time": 71.64702300000017,
          "velocity": 0.7874015748031497,
          "duration": 0.16176462500000355
        },
        {
          "name": "D2",
          "midi": 38,
          "time": 71.82790526250018,
          "velocity": 0.7874015748031497,
          "duration": 0.1529411000000067
        },
        {
          "name": "G2",
          "midi": 43,
          "time": 71.99996400000019,
          "velocity": 0.7874015748031497,
          "duration": 0.17647049999999354
        },
        {
          "name": "D2",
          "midi": 38,
          "time": 72.18084626250018,
          "velocity": 0.7874015748031497,
          "duration": 0.5058820999999938
        },
        {
          "name": "E2",
          "midi": 40,
          "time": 72.70584600000018,
          "velocity": 0.7874015748031497,
          "duration": 0.31470572499999605
        },
        {
          "name": "D2",
          "midi": 38,
          "time": 73.05878700000018,
          "velocity": 0.7874015748031497,
          "duration": 0.17647049999999354
        },
        {
          "name": "E2",
          "midi": 40,
          "time": 73.23966926250017,
          "velocity": 0.7874015748031497,
          "duration": 0.1338234625000041
        },
        {
          "name": "E2",
          "midi": 40,
          "time": 73.41172800000018,
          "velocity": 0.7874015748031497,
          "duration": 0.16176462500000355
        },
        {
          "name": "E2",
          "midi": 40,
          "time": 73.59261026250019,
          "velocity": 0.7874015748031497,
          "duration": 0.17205873749999512
        },
        {
          "name": "E2",
          "midi": 40,
          "time": 73.76466900000018,
          "velocity": 0.7874015748031497,
          "duration": 0.16176462500000355
        },
        {
          "name": "E2",
          "midi": 40,
          "time": 73.94555126250019,
          "velocity": 0.7874015748031497,
          "duration": 0.16249991875000092
        },
        {
          "name": "E2",
          "midi": 40,
          "time": 74.11761000000018,
          "velocity": 0.7874015748031497,
          "duration": 0.16176462500000355
        },
        {
          "name": "E2",
          "midi": 40,
          "time": 74.29849226250019,
          "velocity": 0.7874015748031497,
          "duration": 0.17205873749999512
        },
        {
          "name": "E2",
          "midi": 40,
          "time": 74.47055100000019,
          "velocity": 0.7874015748031497,
          "duration": 0.16176462500000355
        },
        {
          "name": "E2",
          "midi": 40,
          "time": 74.65143326250019,
          "velocity": 0.7874015748031497,
          "duration": 0.1529411000000067
        },
        {
          "name": "E2",
          "midi": 40,
          "time": 74.8234920000002,
          "velocity": 0.7874015748031497,
          "duration": 0.16176462500000355
        },
        {
          "name": "E2",
          "midi": 40,
          "time": 75.0043742625002,
          "velocity": 0.7874015748031497,
          "duration": 0.17205873749999512
        },
        {
          "name": "E2",
          "midi": 40,
          "time": 75.1764330000002,
          "velocity": 0.7874015748031497,
          "duration": 0.16176462500000355
        },
        {
          "name": "E2",
          "midi": 40,
          "time": 75.35731526250021,
          "velocity": 0.7874015748031497,
          "duration": 0.16249991875000092
        },
        {
          "name": "D2",
          "midi": 38,
          "time": 75.5293740000002,
          "velocity": 0.7874015748031497,
          "duration": 0.16176462500000355
        },
        {
          "name": "E2",
          "midi": 40,
          "time": 75.71025626250021,
          "velocity": 0.7874015748031497,
          "duration": 0.17205873749999512
        },
        {
          "name": "G2",
          "midi": 43,
          "time": 75.8823150000002,
          "velocity": 0.7874015748031497,
          "duration": 0.16176462500000355
        },
        {
          "name": "A2",
          "midi": 45,
          "time": 76.06319726250021,
          "velocity": 0.7874015748031497,
          "duration": 0.16249991875000092
        },
        {
          "name": "D2",
          "midi": 38,
          "time": 76.2352560000002,
          "velocity": 0.7874015748031497,
          "duration": 0.16176462500000355
        },
        {
          "name": "D2",
          "midi": 38,
          "time": 76.41613826250021,
          "velocity": 0.7874015748031497,
          "duration": 0.17205873749999512
        },
        {
          "name": "D2",
          "midi": 38,
          "time": 76.5881970000002,
          "velocity": 0.7874015748031497,
          "duration": 0.16176462500000355
        },
        {
          "name": "D2",
          "midi": 38,
          "time": 76.76907926250021,
          "velocity": 0.7874015748031497,
          "duration": 0.16249991875000092
        },
        {
          "name": "D2",
          "midi": 38,
          "time": 76.94113800000021,
          "velocity": 0.7874015748031497,
          "duration": 0.16176462500000355
        },
        {
          "name": "D2",
          "midi": 38,
          "time": 77.12202026250021,
          "velocity": 0.7874015748031497,
          "duration": 0.17205873749999512
        },
        {
          "name": "D2",
          "midi": 38,
          "time": 77.29407900000021,
          "velocity": 0.7874015748031497,
          "duration": 0.16176462500000355
        },
        {
          "name": "D2",
          "midi": 38,
          "time": 77.47496126250022,
          "velocity": 0.7874015748031497,
          "duration": 0.1529411000000067
        },
        {
          "name": "G2",
          "midi": 43,
          "time": 77.64702000000023,
          "velocity": 0.7874015748031497,
          "duration": 0.17647049999999354
        },
        {
          "name": "D2",
          "midi": 38,
          "time": 77.82790226250022,
          "velocity": 0.7874015748031497,
          "duration": 0.5058820999999938
        },
        {
          "name": "E2",
          "midi": 40,
          "time": 78.35290200000021,
          "velocity": 0.7874015748031497,
          "duration": 0.31470572499999605
        },
        {
          "name": "D2",
          "midi": 38,
          "time": 78.70584300000021,
          "velocity": 0.7874015748031497,
          "duration": 0.17647049999999354
        },
        {
          "name": "E2",
          "midi": 40,
          "time": 78.8867252625002,
          "velocity": 0.7874015748031497,
          "duration": 0.1338234625000041
        },
        {
          "name": "E2",
          "midi": 40,
          "time": 79.05878400000022,
          "velocity": 0.7874015748031497,
          "duration": 0.16176462500000355
        },
        {
          "name": "E2",
          "midi": 40,
          "time": 79.23966626250022,
          "velocity": 0.7874015748031497,
          "duration": 0.17205873749999512
        },
        {
          "name": "E2",
          "midi": 40,
          "time": 79.41172500000022,
          "velocity": 0.7874015748031497,
          "duration": 0.16176462500000355
        },
        {
          "name": "E2",
          "midi": 40,
          "time": 79.59260726250022,
          "velocity": 0.7874015748031497,
          "duration": 0.16249991875000092
        },
        {
          "name": "E2",
          "midi": 40,
          "time": 79.76466600000022,
          "velocity": 0.7874015748031497,
          "duration": 0.16176462500000355
        },
        {
          "name": "E2",
          "midi": 40,
          "time": 79.94554826250022,
          "velocity": 0.7874015748031497,
          "duration": 0.17205873749999512
        },
        {
          "name": "E2",
          "midi": 40,
          "time": 80.11760700000022,
          "velocity": 0.7874015748031497,
          "duration": 0.16176462500000355
        },
        {
          "name": "E2",
          "midi": 40,
          "time": 80.29848926250023,
          "velocity": 0.7874015748031497,
          "duration": 0.1529411000000067
        },
        {
          "name": "E2",
          "midi": 40,
          "time": 80.47054800000024,
          "velocity": 0.7874015748031497,
          "duration": 0.16176462500000355
        },
        {
          "name": "E2",
          "midi": 40,
          "time": 80.65143026250024,
          "velocity": 0.7874015748031497,
          "duration": 0.17205873749999512
        },
        {
          "name": "E2",
          "midi": 40,
          "time": 80.82348900000024,
          "velocity": 0.7874015748031497,
          "duration": 0.16176462500000355
        },
        {
          "name": "E2",
          "midi": 40,
          "time": 81.00437126250024,
          "velocity": 0.7874015748031497,
          "duration": 0.16249991875000092
        },
        {
          "name": "D2",
          "midi": 38,
          "time": 81.17643000000024,
          "velocity": 0.7874015748031497,
          "duration": 0.16176462500000355
        },
        {
          "name": "E2",
          "midi": 40,
          "time": 81.35731226250024,
          "velocity": 0.7874015748031497,
          "duration": 0.17205873749999512
        },
        {
          "name": "G2",
          "midi": 43,
          "time": 81.52937100000024,
          "velocity": 0.7874015748031497,
          "duration": 0.16176462500000355
        },
        {
          "name": "A2",
          "midi": 45,
          "time": 81.71025326250025,
          "velocity": 0.7874015748031497,
          "duration": 0.16249991875000092
        },
        {
          "name": "D2",
          "midi": 38,
          "time": 81.88231200000024,
          "velocity": 0.7874015748031497,
          "duration": 0.16176462500000355
        },
        {
          "name": "D2",
          "midi": 38,
          "time": 82.06319426250025,
          "velocity": 0.7874015748031497,
          "duration": 0.17205873749999512
        },
        {
          "name": "D2",
          "midi": 38,
          "time": 82.23525300000024,
          "velocity": 0.7874015748031497,
          "duration": 0.16176462500000355
        },
        {
          "name": "D2",
          "midi": 38,
          "time": 82.41613526250025,
          "velocity": 0.7874015748031497,
          "duration": 0.16249991875000092
        },
        {
          "name": "D2",
          "midi": 38,
          "time": 82.58819400000024,
          "velocity": 0.7874015748031497,
          "duration": 0.16176462500000355
        },
        {
          "name": "D2",
          "midi": 38,
          "time": 82.76907626250025,
          "velocity": 0.7874015748031497,
          "duration": 0.17205873749999512
        },
        {
          "name": "D2",
          "midi": 38,
          "time": 82.94113500000024,
          "velocity": 0.7874015748031497,
          "duration": 0.16176462500000355
        },
        {
          "name": "D2",
          "midi": 38,
          "time": 83.12201726250025,
          "velocity": 0.7874015748031497,
          "duration": 0.1529411000000067
        },
        {
          "name": "G2",
          "midi": 43,
          "time": 83.29407600000026,
          "velocity": 0.7874015748031497,
          "duration": 0.17647049999999354
        },
        {
          "name": "D2",
          "midi": 38,
          "time": 83.47495826250025,
          "velocity": 0.7874015748031497,
          "duration": 0.5058820999999938
        },
        {
          "name": "E2",
          "midi": 40,
          "time": 83.99995800000025,
          "velocity": 0.7874015748031497,
          "duration": 0.31470572499999605
        },
        {
          "name": "D2",
          "midi": 38,
          "time": 84.35289900000025,
          "velocity": 0.7874015748031497,
          "duration": 0.17647049999999354
        },
        {
          "name": "E2",
          "midi": 40,
          "time": 84.53378126250024,
          "velocity": 0.7874015748031497,
          "duration": 0.1338234625000041
        },
        {
          "name": "E2",
          "midi": 40,
          "time": 84.70584000000025,
          "velocity": 0.7874015748031497,
          "duration": 0.16176462500000355
        },
        {
          "name": "E2",
          "midi": 40,
          "time": 84.88672226250026,
          "velocity": 0.7874015748031497,
          "duration": 0.17205873749999512
        },
        {
          "name": "E2",
          "midi": 40,
          "time": 85.05878100000025,
          "velocity": 0.7874015748031497,
          "duration": 0.16176462500000355
        },
        {
          "name": "E2",
          "midi": 40,
          "time": 85.23966326250026,
          "velocity": 0.7874015748031497,
          "duration": 0.16249991875000092
        },
        {
          "name": "E2",
          "midi": 40,
          "time": 85.41172200000025,
          "velocity": 0.7874015748031497,
          "duration": 0.16176462500000355
        },
        {
          "name": "E2",
          "midi": 40,
          "time": 85.59260426250026,
          "velocity": 0.7874015748031497,
          "duration": 0.17205873749999512
        },
        {
          "name": "E2",
          "midi": 40,
          "time": 85.76466300000025,
          "velocity": 0.7874015748031497,
          "duration": 0.16176462500000355
        },
        {
          "name": "E2",
          "midi": 40,
          "time": 85.94554526250026,
          "velocity": 0.7874015748031497,
          "duration": 0.1529411000000067
        },
        {
          "name": "E2",
          "midi": 40,
          "time": 86.11760400000027,
          "velocity": 0.7874015748031497,
          "duration": 0.16176462500000355
        },
        {
          "name": "E2",
          "midi": 40,
          "time": 86.29848626250028,
          "velocity": 0.7874015748031497,
          "duration": 0.17205873749999512
        },
        {
          "name": "E2",
          "midi": 40,
          "time": 86.47054500000027,
          "velocity": 0.7874015748031497,
          "duration": 0.16176462500000355
        },
        {
          "name": "E2",
          "midi": 40,
          "time": 86.65142726250028,
          "velocity": 0.7874015748031497,
          "duration": 0.16249991875000092
        },
        {
          "name": "D2",
          "midi": 38,
          "time": 86.82348600000027,
          "velocity": 0.7874015748031497,
          "duration": 0.16176462500000355
        },
        {
          "name": "E2",
          "midi": 40,
          "time": 87.00436826250028,
          "velocity": 0.7874015748031497,
          "duration": 0.17205873749999512
        },
        {
          "name": "G2",
          "midi": 43,
          "time": 87.17642700000027,
          "velocity": 0.7874015748031497,
          "duration": 0.16176462500000355
        },
        {
          "name": "A2",
          "midi": 45,
          "time": 87.35730926250028,
          "velocity": 0.7874015748031497,
          "duration": 0.16249991875000092
        },
        {
          "name": "D2",
          "midi": 38,
          "time": 87.52936800000028,
          "velocity": 0.7874015748031497,
          "duration": 0.16176462500000355
        },
        {
          "name": "D2",
          "midi": 38,
          "time": 87.71025026250028,
          "velocity": 0.7874015748031497,
          "duration": 0.17205873749999512
        },
        {
          "name": "D2",
          "midi": 38,
          "time": 87.88230900000028,
          "velocity": 0.7874015748031497,
          "duration": 0.16176462500000355
        },
        {
          "name": "D2",
          "midi": 38,
          "time": 88.06319126250028,
          "velocity": 0.7874015748031497,
          "duration": 0.16249991875000092
        },
        {
          "name": "D2",
          "midi": 38,
          "time": 88.23525000000028,
          "velocity": 0.7874015748031497,
          "duration": 0.16176462500000355
        },
        {
          "name": "D2",
          "midi": 38,
          "time": 88.41613226250028,
          "velocity": 0.7874015748031497,
          "duration": 0.17205873749999512
        },
        {
          "name": "D2",
          "midi": 38,
          "time": 88.58819100000028,
          "velocity": 0.7874015748031497,
          "duration": 0.16176462500000355
        },
        {
          "name": "D2",
          "midi": 38,
          "time": 88.76907326250029,
          "velocity": 0.7874015748031497,
          "duration": 0.1529411000000067
        },
        {
          "name": "G2",
          "midi": 43,
          "time": 88.9411320000003,
          "velocity": 0.7874015748031497,
          "duration": 0.17647049999999354
        },
        {
          "name": "D2",
          "midi": 38,
          "time": 89.12201426250029,
          "velocity": 0.7874015748031497,
          "duration": 0.5058820999999938
        },
        {
          "name": "E2",
          "midi": 40,
          "time": 89.64701400000028,
          "velocity": 0.7874015748031497,
          "duration": 0.31470572499999605
        },
        {
          "name": "D2",
          "midi": 38,
          "time": 89.99995500000028,
          "velocity": 0.7874015748031497,
          "duration": 0.17647049999999354
        },
        {
          "name": "E2",
          "midi": 40,
          "time": 90.18083726250028,
          "velocity": 0.7874015748031497,
          "duration": 0.1338234625000041
        },
        {
          "name": "E2",
          "midi": 40,
          "time": 90.35289600000029,
          "velocity": 0.7874015748031497,
          "duration": 0.16176462500000355
        },
        {
          "name": "E2",
          "midi": 40,
          "time": 90.53377826250029,
          "velocity": 0.7874015748031497,
          "duration": 0.17205873749999512
        },
        {
          "name": "E2",
          "midi": 40,
          "time": 90.70583700000029,
          "velocity": 0.7874015748031497,
          "duration": 0.16176462500000355
        },
        {
          "name": "E2",
          "midi": 40,
          "time": 90.88671926250029,
          "velocity": 0.7874015748031497,
          "duration": 0.16249991875000092
        },
        {
          "name": "E2",
          "midi": 40,
          "time": 91.05877800000029,
          "velocity": 0.7874015748031497,
          "duration": 0.16176462500000355
        },
        {
          "name": "E2",
          "midi": 40,
          "time": 91.2396602625003,
          "velocity": 0.7874015748031497,
          "duration": 0.17205873749999512
        },
        {
          "name": "E2",
          "midi": 40,
          "time": 91.41171900000029,
          "velocity": 0.7874015748031497,
          "duration": 0.16176462500000355
        },
        {
          "name": "E2",
          "midi": 40,
          "time": 91.5926012625003,
          "velocity": 0.7874015748031497,
          "duration": 0.1529411000000067
        },
        {
          "name": "E2",
          "midi": 40,
          "time": 91.7646600000003,
          "velocity": 0.7874015748031497,
          "duration": 0.16176462500000355
        },
        {
          "name": "E2",
          "midi": 40,
          "time": 91.94554226250031,
          "velocity": 0.7874015748031497,
          "duration": 0.17205873749999512
        },
        {
          "name": "E2",
          "midi": 40,
          "time": 92.1176010000003,
          "velocity": 0.7874015748031497,
          "duration": 0.16176462500000355
        },
        {
          "name": "E2",
          "midi": 40,
          "time": 92.29848326250031,
          "velocity": 0.7874015748031497,
          "duration": 0.16249991875000092
        },
        {
          "name": "D2",
          "midi": 38,
          "time": 92.47054200000031,
          "velocity": 0.7874015748031497,
          "duration": 0.16176462500000355
        },
        {
          "name": "E2",
          "midi": 40,
          "time": 92.65142426250031,
          "velocity": 0.7874015748031497,
          "duration": 0.17205873749999512
        },
        {
          "name": "G2",
          "midi": 43,
          "time": 92.82348300000031,
          "velocity": 0.7874015748031497,
          "duration": 0.16176462500000355
        },
        {
          "name": "A2",
          "midi": 45,
          "time": 93.00436526250031,
          "velocity": 0.7874015748031497,
          "duration": 0.16249991875000092
        },
        {
          "name": "D2",
          "midi": 38,
          "time": 93.17642400000031,
          "velocity": 0.7874015748031497,
          "duration": 0.16176462500000355
        },
        {
          "name": "D2",
          "midi": 38,
          "time": 93.35730626250032,
          "velocity": 0.7874015748031497,
          "duration": 0.17205873749999512
        },
        {
          "name": "D2",
          "midi": 38,
          "time": 93.52936500000031,
          "velocity": 0.7874015748031497,
          "duration": 0.16176462500000355
        },
        {
          "name": "D2",
          "midi": 38,
          "time": 93.71024726250032,
          "velocity": 0.7874015748031497,
          "duration": 0.16249991875000092
        },
        {
          "name": "D2",
          "midi": 38,
          "time": 93.88230600000031,
          "velocity": 0.7874015748031497,
          "duration": 0.16176462500000355
        },
        {
          "name": "D2",
          "midi": 38,
          "time": 94.06318826250032,
          "velocity": 0.7874015748031497,
          "duration": 0.17205873749999512
        },
        {
          "name": "D2",
          "midi": 38,
          "time": 94.23524700000031,
          "velocity": 0.7874015748031497,
          "duration": 0.16176462500000355
        },
        {
          "name": "D2",
          "midi": 38,
          "time": 94.41612926250032,
          "velocity": 0.7874015748031497,
          "duration": 0.1529411000000067
        },
        {
          "name": "G2",
          "midi": 43,
          "time": 94.58818800000033,
          "velocity": 0.7874015748031497,
          "duration": 0.17647049999999354
        },
        {
          "name": "D2",
          "midi": 38,
          "time": 94.76907026250032,
          "velocity": 0.7874015748031497,
          "duration": 0.5058820999999938
        },
        {
          "name": "E2",
          "midi": 40,
          "time": 95.29407000000032,
          "velocity": 0.7874015748031497,
          "duration": 0.31470572499999605
        },
        {
          "name": "D2",
          "midi": 38,
          "time": 95.64701100000032,
          "velocity": 0.7874015748031497,
          "duration": 0.17647049999999354
        },
        {
          "name": "E2",
          "midi": 40,
          "time": 95.82789326250031,
          "velocity": 0.7874015748031497,
          "duration": 0.1338234625000041
        },
        {
          "name": "E2",
          "midi": 40,
          "time": 95.99995200000032,
          "velocity": 0.7874015748031497,
          "duration": 0.16176462500000355
        },
        {
          "name": "E2",
          "midi": 40,
          "time": 96.18083426250033,
          "velocity": 0.7874015748031497,
          "duration": 0.17205873749999512
        },
        {
          "name": "E2",
          "midi": 40,
          "time": 96.35289300000032,
          "velocity": 0.7874015748031497,
          "duration": 0.16176462500000355
        },
        {
          "name": "E2",
          "midi": 40,
          "time": 96.53377526250033,
          "velocity": 0.7874015748031497,
          "duration": 0.16249991875000092
        },
        {
          "name": "E2",
          "midi": 40,
          "time": 96.70583400000032,
          "velocity": 0.7874015748031497,
          "duration": 0.16176462500000355
        },
        {
          "name": "E2",
          "midi": 40,
          "time": 96.88671626250033,
          "velocity": 0.7874015748031497,
          "duration": 0.17205873749999512
        },
        {
          "name": "E2",
          "midi": 40,
          "time": 97.05877500000032,
          "velocity": 0.7874015748031497,
          "duration": 0.16176462500000355
        },
        {
          "name": "E2",
          "midi": 40,
          "time": 97.23965726250033,
          "velocity": 0.7874015748031497,
          "duration": 0.1529411000000067
        },
        {
          "name": "E2",
          "midi": 40,
          "time": 97.41171600000034,
          "velocity": 0.7874015748031497,
          "duration": 0.16176462500000355
        },
        {
          "name": "E2",
          "midi": 40,
          "time": 97.59259826250035,
          "velocity": 0.7874015748031497,
          "duration": 0.17205873749999512
        },
        {
          "name": "E2",
          "midi": 40,
          "time": 97.76465700000034,
          "velocity": 0.7874015748031497,
          "duration": 0.16176462500000355
        },
        {
          "name": "E2",
          "midi": 40,
          "time": 97.94553926250035,
          "velocity": 0.7874015748031497,
          "duration": 0.16249991875000092
        },
        {
          "name": "D2",
          "midi": 38,
          "time": 98.11759800000034,
          "velocity": 0.7874015748031497,
          "duration": 0.16176462500000355
        },
        {
          "name": "E2",
          "midi": 40,
          "time": 98.29848026250035,
          "velocity": 0.7874015748031497,
          "duration": 0.17205873749999512
        },
        {
          "name": "G2",
          "midi": 43,
          "time": 98.47053900000034,
          "velocity": 0.7874015748031497,
          "duration": 0.16176462500000355
        },
        {
          "name": "A2",
          "midi": 45,
          "time": 98.65142126250035,
          "velocity": 0.7874015748031497,
          "duration": 0.16249991875000092
        },
        {
          "name": "D2",
          "midi": 38,
          "time": 98.82348000000034,
          "velocity": 0.7874015748031497,
          "duration": 0.16176462500000355
        },
        {
          "name": "D2",
          "midi": 38,
          "time": 99.00436226250035,
          "velocity": 0.7874015748031497,
          "duration": 0.17205873749999512
        },
        {
          "name": "D2",
          "midi": 38,
          "time": 99.17642100000035,
          "velocity": 0.7874015748031497,
          "duration": 0.16176462500000355
        },
        {
          "name": "D2",
          "midi": 38,
          "time": 99.35730326250035,
          "velocity": 0.7874015748031497,
          "duration": 0.16249991875000092
        },
        {
          "name": "D2",
          "midi": 38,
          "time": 99.52936200000035,
          "velocity": 0.7874015748031497,
          "duration": 0.16176462500000355
        },
        {
          "name": "D2",
          "midi": 38,
          "time": 99.71024426250035,
          "velocity": 0.7874015748031497,
          "duration": 0.17205873749999512
        },
        {
          "name": "D2",
          "midi": 38,
          "time": 99.88230300000035,
          "velocity": 0.7874015748031497,
          "duration": 0.16176462500000355
        },
        {
          "name": "D2",
          "midi": 38,
          "time": 100.06318526250035,
          "velocity": 0.7874015748031497,
          "duration": 0.1529411000000067
        },
        {
          "name": "G2",
          "midi": 43,
          "time": 100.23524400000036,
          "velocity": 0.7874015748031497,
          "duration": 0.17647049999999354
        },
        {
          "name": "D2",
          "midi": 38,
          "time": 100.41612626250036,
          "velocity": 0.7874015748031497,
          "duration": 0.5058820999999938
        },
        {
          "name": "E2",
          "midi": 40,
          "time": 100.94112600000035,
          "velocity": 0.7874015748031497,
          "duration": 0.31470572499999605
        },
        {
          "name": "D2",
          "midi": 38,
          "time": 101.29406700000035,
          "velocity": 0.7874015748031497,
          "duration": 0.17647049999999354
        },
        {
          "name": "E2",
          "midi": 40,
          "time": 101.47494926250035,
          "velocity": 0.7874015748031497,
          "duration": 0.1338234625000041
        },
        {
          "name": "E2",
          "midi": 40,
          "time": 101.64700800000035,
          "velocity": 0.7874015748031497,
          "duration": 0.16176462500000355
        },
        {
          "name": "E2",
          "midi": 40,
          "time": 101.82789026250036,
          "velocity": 0.7874015748031497,
          "duration": 0.17205873749999512
        },
        {
          "name": "E2",
          "midi": 40,
          "time": 101.99994900000036,
          "velocity": 0.7874015748031497,
          "duration": 0.16176462500000355
        },
        {
          "name": "E2",
          "midi": 40,
          "time": 102.18083126250036,
          "velocity": 0.7874015748031497,
          "duration": 0.16249991875000092
        },
        {
          "name": "E2",
          "midi": 40,
          "time": 102.35289000000036,
          "velocity": 0.7874015748031497,
          "duration": 0.16176462500000355
        },
        {
          "name": "E2",
          "midi": 40,
          "time": 102.53377226250036,
          "velocity": 0.7874015748031497,
          "duration": 0.17205873749999512
        },
        {
          "name": "E2",
          "midi": 40,
          "time": 102.70583100000036,
          "velocity": 0.7874015748031497,
          "duration": 0.16176462500000355
        },
        {
          "name": "E2",
          "midi": 40,
          "time": 102.88671326250036,
          "velocity": 0.7874015748031497,
          "duration": 0.1529411000000067
        },
        {
          "name": "E2",
          "midi": 40,
          "time": 103.05877200000037,
          "velocity": 0.7874015748031497,
          "duration": 0.16176462500000355
        },
        {
          "name": "E2",
          "midi": 40,
          "time": 103.23965426250038,
          "velocity": 0.7874015748031497,
          "duration": 0.17205873749999512
        },
        {
          "name": "E2",
          "midi": 40,
          "time": 103.41171300000038,
          "velocity": 0.7874015748031497,
          "duration": 0.16176462500000355
        },
        {
          "name": "E2",
          "midi": 40,
          "time": 103.59259526250038,
          "velocity": 0.7874015748031497,
          "duration": 0.16249991875000092
        },
        {
          "name": "D2",
          "midi": 38,
          "time": 103.76465400000038,
          "velocity": 0.7874015748031497,
          "duration": 0.16176462500000355
        },
        {
          "name": "E2",
          "midi": 40,
          "time": 103.94553626250038,
          "velocity": 0.7874015748031497,
          "duration": 0.17205873749999512
        },
        {
          "name": "G2",
          "midi": 43,
          "time": 104.11759500000038,
          "velocity": 0.7874015748031497,
          "duration": 0.16176462500000355
        },
        {
          "name": "A2",
          "midi": 45,
          "time": 104.29847726250038,
          "velocity": 0.7874015748031497,
          "duration": 0.16249991875000092
        },
        {
          "name": "D2",
          "midi": 38,
          "time": 104.47053600000038,
          "velocity": 0.7874015748031497,
          "duration": 0.16176462500000355
        },
        {
          "name": "D2",
          "midi": 38,
          "time": 104.65141826250039,
          "velocity": 0.7874015748031497,
          "duration": 0.17205873749999512
        },
        {
          "name": "D2",
          "midi": 38,
          "time": 104.82347700000038,
          "velocity": 0.7874015748031497,
          "duration": 0.16176462500000355
        },
        {
          "name": "D2",
          "midi": 38,
          "time": 105.00435926250039,
          "velocity": 0.7874015748031497,
          "duration": 0.16249991875000092
        },
        {
          "name": "D2",
          "midi": 38,
          "time": 105.17641800000038,
          "velocity": 0.7874015748031497,
          "duration": 0.16176462500000355
        },
        {
          "name": "D2",
          "midi": 38,
          "time": 105.35730026250039,
          "velocity": 0.7874015748031497,
          "duration": 0.17205873749999512
        },
        {
          "name": "D2",
          "midi": 38,
          "time": 105.52935900000038,
          "velocity": 0.7874015748031497,
          "duration": 0.16176462500000355
        },
        {
          "name": "D2",
          "midi": 38,
          "time": 105.71024126250039,
          "velocity": 0.7874015748031497,
          "duration": 0.1529411000000067
        },
        {
          "name": "G2",
          "midi": 43,
          "time": 105.8823000000004,
          "velocity": 0.7874015748031497,
          "duration": 0.17647049999999354
        },
        {
          "name": "D2",
          "midi": 38,
          "time": 106.06318226250039,
          "velocity": 0.7874015748031497,
          "duration": 0.5058820999999938
        },
        {
          "name": "E2",
          "midi": 40,
          "time": 106.58818200000039,
          "velocity": 0.7874015748031497,
          "duration": 0.31470572499999605
        },
        {
          "name": "D2",
          "midi": 38,
          "time": 106.94112300000039,
          "velocity": 0.7874015748031497,
          "duration": 0.17647049999999354
        },
        {
          "name": "E2",
          "midi": 40,
          "time": 107.12200526250038,
          "velocity": 0.7874015748031497,
          "duration": 0.1338234625000041
        },
        {
          "name": "E2",
          "midi": 40,
          "time": 107.29406400000039,
          "velocity": 0.7874015748031497,
          "duration": 0.16176462500000355
        },
        {
          "name": "E2",
          "midi": 40,
          "time": 107.4749462625004,
          "velocity": 0.7874015748031497,
          "duration": 0.17205873749999512
        },
        {
          "name": "E2",
          "midi": 40,
          "time": 107.64700500000039,
          "velocity": 0.7874015748031497,
          "duration": 0.16176462500000355
        },
        {
          "name": "E2",
          "midi": 40,
          "time": 107.8278872625004,
          "velocity": 0.7874015748031497,
          "duration": 0.16249991875000092
        },
        {
          "name": "E2",
          "midi": 40,
          "time": 107.99994600000039,
          "velocity": 0.7874015748031497,
          "duration": 0.16176462500000355
        },
        {
          "name": "E2",
          "midi": 40,
          "time": 108.1808282625004,
          "velocity": 0.7874015748031497,
          "duration": 0.17205873749999512
        },
        {
          "name": "E2",
          "midi": 40,
          "time": 108.3528870000004,
          "velocity": 0.7874015748031497,
          "duration": 0.16176462500000355
        },
        {
          "name": "E2",
          "midi": 40,
          "time": 108.5337692625004,
          "velocity": 0.7874015748031497,
          "duration": 0.1529411000000067
        },
        {
          "name": "E2",
          "midi": 40,
          "time": 108.70582800000041,
          "velocity": 0.7874015748031497,
          "duration": 0.16176462500000355
        },
        {
          "name": "E2",
          "midi": 40,
          "time": 108.88671026250042,
          "velocity": 0.7874015748031497,
          "duration": 0.17205873749999512
        },
        {
          "name": "E2",
          "midi": 40,
          "time": 109.05876900000041,
          "velocity": 0.7874015748031497,
          "duration": 0.16176462500000355
        },
        {
          "name": "E2",
          "midi": 40,
          "time": 109.23965126250042,
          "velocity": 0.7874015748031497,
          "duration": 0.16249991875000092
        },
        {
          "name": "D2",
          "midi": 38,
          "time": 109.41171000000041,
          "velocity": 0.7874015748031497,
          "duration": 0.16176462500000355
        },
        {
          "name": "E2",
          "midi": 40,
          "time": 109.59259226250042,
          "velocity": 0.7874015748031497,
          "duration": 0.17205873749999512
        },
        {
          "name": "G2",
          "midi": 43,
          "time": 109.76465100000041,
          "velocity": 0.7874015748031497,
          "duration": 0.16176462500000355
        },
        {
          "name": "A2",
          "midi": 45,
          "time": 109.94553326250042,
          "velocity": 0.7874015748031497,
          "duration": 0.16249991875000092
        },
        {
          "name": "D2",
          "midi": 38,
          "time": 110.11759200000041,
          "velocity": 0.7874015748031497,
          "duration": 0.16176462500000355
        },
        {
          "name": "D2",
          "midi": 38,
          "time": 110.29847426250042,
          "velocity": 0.7874015748031497,
          "duration": 0.17205873749999512
        },
        {
          "name": "D2",
          "midi": 38,
          "time": 110.47053300000042,
          "velocity": 0.7874015748031497,
          "duration": 0.16176462500000355
        },
        {
          "name": "D2",
          "midi": 38,
          "time": 110.65141526250042,
          "velocity": 0.7874015748031497,
          "duration": 0.16249991875000092
        },
        {
          "name": "D2",
          "midi": 38,
          "time": 110.82347400000042,
          "velocity": 0.7874015748031497,
          "duration": 0.16176462500000355
        },
        {
          "name": "D2",
          "midi": 38,
          "time": 111.00435626250042,
          "velocity": 0.7874015748031497,
          "duration": 0.17205873749999512
        },
        {
          "name": "D2",
          "midi": 38,
          "time": 111.17641500000042,
          "velocity": 0.7874015748031497,
          "duration": 0.16176462500000355
        },
        {
          "name": "D2",
          "midi": 38,
          "time": 111.35729726250042,
          "velocity": 0.7874015748031497,
          "duration": 0.1529411000000067
        },
        {
          "name": "G2",
          "midi": 43,
          "time": 111.52935600000043,
          "velocity": 0.7874015748031497,
          "duration": 0.17647049999999354
        },
        {
          "name": "D2",
          "midi": 38,
          "time": 111.71023826250043,
          "velocity": 0.7874015748031497,
          "duration": 0.5058820999999938
        },
        {
          "name": "E2",
          "midi": 40,
          "time": 112.23523800000042,
          "velocity": 0.7874015748031497,
          "duration": 0.31470572499999605
        },
        {
          "name": "D2",
          "midi": 38,
          "time": 112.58817900000042,
          "velocity": 0.7874015748031497,
          "duration": 0.17647049999999354
        },
        {
          "name": "E2",
          "midi": 40,
          "time": 112.76906126250041,
          "velocity": 0.7874015748031497,
          "duration": 0.1338234625000041
        },
        {
          "name": "E2",
          "midi": 40,
          "time": 112.94112000000042,
          "velocity": 0.7874015748031497,
          "duration": 0.16176462500000355
        },
        {
          "name": "E2",
          "midi": 40,
          "time": 113.12200226250043,
          "velocity": 0.7874015748031497,
          "duration": 0.17205873749999512
        },
        {
          "name": "E2",
          "midi": 40,
          "time": 113.29406100000043,
          "velocity": 0.7874015748031497,
          "duration": 0.16176462500000355
        },
        {
          "name": "E2",
          "midi": 40,
          "time": 113.47494326250043,
          "velocity": 0.7874015748031497,
          "duration": 0.16249991875000092
        },
        {
          "name": "E2",
          "midi": 40,
          "time": 113.64700200000043,
          "velocity": 0.7874015748031497,
          "duration": 0.16176462500000355
        },
        {
          "name": "E2",
          "midi": 40,
          "time": 113.82788426250043,
          "velocity": 0.7874015748031497,
          "duration": 0.17205873749999512
        },
        {
          "name": "E2",
          "midi": 40,
          "time": 113.99994300000043,
          "velocity": 0.7874015748031497,
          "duration": 0.16176462500000355
        },
        {
          "name": "E2",
          "midi": 40,
          "time": 114.18082526250043,
          "velocity": 0.7874015748031497,
          "duration": 0.1529411000000067
        },
        {
          "name": "E2",
          "midi": 40,
          "time": 114.35288400000044,
          "velocity": 0.7874015748031497,
          "duration": 0.16176462500000355
        },
        {
          "name": "E2",
          "midi": 40,
          "time": 114.53376626250045,
          "velocity": 0.7874015748031497,
          "duration": 0.17205873749999512
        },
        {
          "name": "E2",
          "midi": 40,
          "time": 114.70582500000044,
          "velocity": 0.7874015748031497,
          "duration": 0.16176462500000355
        },
        {
          "name": "E2",
          "midi": 40,
          "time": 114.88670726250045,
          "velocity": 0.7874015748031497,
          "duration": 0.16249991875000092
        },
        {
          "name": "D2",
          "midi": 38,
          "time": 115.05876600000045,
          "velocity": 0.7874015748031497,
          "duration": 0.16176462500000355
        },
        {
          "name": "E2",
          "midi": 40,
          "time": 115.23964826250045,
          "velocity": 0.7874015748031497,
          "duration": 0.17205873749999512
        },
        {
          "name": "G2",
          "midi": 43,
          "time": 115.41170700000045,
          "velocity": 0.7874015748031497,
          "duration": 0.16176462500000355
        },
        {
          "name": "A2",
          "midi": 45,
          "time": 115.59258926250045,
          "velocity": 0.7874015748031497,
          "duration": 0.16249991875000092
        },
        {
          "name": "D2",
          "midi": 38,
          "time": 115.76464800000045,
          "velocity": 0.7874015748031497,
          "duration": 0.16176462500000355
        },
        {
          "name": "D2",
          "midi": 38,
          "time": 115.94553026250045,
          "velocity": 0.7874015748031497,
          "duration": 0.17205873749999512
        },
        {
          "name": "D2",
          "midi": 38,
          "time": 116.11758900000045,
          "velocity": 0.7874015748031497,
          "duration": 0.16176462500000355
        },
        {
          "name": "D2",
          "midi": 38,
          "time": 116.29847126250046,
          "velocity": 0.7874015748031497,
          "duration": 0.16249991875000092
        },
        {
          "name": "D2",
          "midi": 38,
          "time": 116.47053000000045,
          "velocity": 0.7874015748031497,
          "duration": 0.16176462500000355
        },
        {
          "name": "D2",
          "midi": 38,
          "time": 116.65141226250046,
          "velocity": 0.7874015748031497,
          "duration": 0.17205873749999512
        },
        {
          "name": "D2",
          "midi": 38,
          "time": 116.82347100000045,
          "velocity": 0.7874015748031497,
          "duration": 0.16176462500000355
        },
        {
          "name": "D2",
          "midi": 38,
          "time": 117.00435326250046,
          "velocity": 0.7874015748031497,
          "duration": 0.1529411000000067
        },
        {
          "name": "G2",
          "midi": 43,
          "time": 117.17641200000047,
          "velocity": 0.7874015748031497,
          "duration": 0.17647049999999354
        },
        {
          "name": "D2",
          "midi": 38,
          "time": 117.35729426250046,
          "velocity": 0.7874015748031497,
          "duration": 0.5058820999999938
        },
        {
          "name": "E2",
          "midi": 40,
          "time": 117.88229400000046,
          "velocity": 0.7874015748031497,
          "duration": 0.31470572499999605
        },
        {
          "name": "D2",
          "midi": 38,
          "time": 118.23523500000046,
          "velocity": 0.7874015748031497,
          "duration": 0.17647049999999354
        },
        {
          "name": "E2",
          "midi": 40,
          "time": 118.41611726250045,
          "velocity": 0.7874015748031497,
          "duration": 0.1338234625000041
        },
        {
          "name": "E2",
          "midi": 40,
          "time": 118.58817600000046,
          "velocity": 0.7874015748031497,
          "duration": 0.16176462500000355
        },
        {
          "name": "E2",
          "midi": 40,
          "time": 118.76905826250047,
          "velocity": 0.7874015748031497,
          "duration": 0.17205873749999512
        },
        {
          "name": "E2",
          "midi": 40,
          "time": 118.94111700000046,
          "velocity": 0.7874015748031497,
          "duration": 0.16176462500000355
        },
        {
          "name": "E2",
          "midi": 40,
          "time": 119.12199926250047,
          "velocity": 0.7874015748031497,
          "duration": 0.16249991875000092
        },
        {
          "name": "E2",
          "midi": 40,
          "time": 119.29405800000046,
          "velocity": 0.7874015748031497,
          "duration": 0.16176462500000355
        },
        {
          "name": "E2",
          "midi": 40,
          "time": 119.47494026250047,
          "velocity": 0.7874015748031497,
          "duration": 0.17205873749999512
        },
        {
          "name": "E2",
          "midi": 40,
          "time": 119.64699900000046,
          "velocity": 0.7874015748031497,
          "duration": 0.16176462500000355
        },
        {
          "name": "E2",
          "midi": 40,
          "time": 119.82788126250047,
          "velocity": 0.7874015748031497,
          "duration": 0.1529411000000067
        },
        {
          "name": "E2",
          "midi": 40,
          "time": 119.99994000000048,
          "velocity": 0.7874015748031497,
          "duration": 0.16176462500000355
        },
        {
          "name": "E2",
          "midi": 40,
          "time": 120.18082226250048,
          "velocity": 0.7874015748031497,
          "duration": 0.17205873749999512
        },
        {
          "name": "E2",
          "midi": 40,
          "time": 120.35288100000048,
          "velocity": 0.7874015748031497,
          "duration": 0.16176462500000355
        },
        {
          "name": "E2",
          "midi": 40,
          "time": 120.53376326250049,
          "velocity": 0.7874015748031497,
          "duration": 0.16249991875000092
        },
        {
          "name": "D2",
          "midi": 38,
          "time": 120.70582200000048,
          "velocity": 0.7874015748031497,
          "duration": 0.16176462500000355
        },
        {
          "name": "E2",
          "midi": 40,
          "time": 120.88670426250049,
          "velocity": 0.7874015748031497,
          "duration": 0.17205873749999512
        },
        {
          "name": "G2",
          "midi": 43,
          "time": 121.05876300000048,
          "velocity": 0.7874015748031497,
          "duration": 0.16176462500000355
        },
        {
          "name": "A2",
          "midi": 45,
          "time": 121.23964526250049,
          "velocity": 0.7874015748031497,
          "duration": 0.16249991875000092
        },
        {
          "name": "D2",
          "midi": 38,
          "time": 121.41170400000048,
          "velocity": 0.7874015748031497,
          "duration": 0.16176462500000355
        },
        {
          "name": "D2",
          "midi": 38,
          "time": 121.59258626250049,
          "velocity": 0.7874015748031497,
          "duration": 0.17205873749999512
        },
        {
          "name": "D2",
          "midi": 38,
          "time": 121.76464500000048,
          "velocity": 0.7874015748031497,
          "duration": 0.16176462500000355
        },
        {
          "name": "D2",
          "midi": 38,
          "time": 121.94552726250049,
          "velocity": 0.7874015748031497,
          "duration": 0.16249991875000092
        },
        {
          "name": "D2",
          "midi": 38,
          "time": 122.11758600000049,
          "velocity": 0.7874015748031497,
          "duration": 0.16176462500000355
        },
        {
          "name": "D2",
          "midi": 38,
          "time": 122.29846826250049,
          "velocity": 0.7874015748031497,
          "duration": 0.17205873749999512
        },
        {
          "name": "D2",
          "midi": 38,
          "time": 122.47052700000049,
          "velocity": 0.7874015748031497,
          "duration": 0.16176462500000355
        },
        {
          "name": "D2",
          "midi": 38,
          "time": 122.6514092625005,
          "velocity": 0.7874015748031497,
          "duration": 0.1529411000000067
        },
        {
          "name": "G2",
          "midi": 43,
          "time": 122.8234680000005,
          "velocity": 0.7874015748031497,
          "duration": 0.17647049999999354
        },
        {
          "name": "D2",
          "midi": 38,
          "time": 123.0043502625005,
          "velocity": 0.7874015748031497,
          "duration": 0.5058820999999938
        },
        {
          "name": "E2",
          "midi": 40,
          "time": 123.52935000000049,
          "velocity": 0.7874015748031497,
          "duration": 0.31470572499999605
        },
        {
          "name": "D2",
          "midi": 38,
          "time": 123.88229100000049,
          "velocity": 0.7874015748031497,
          "duration": 0.17647049999999354
        },
        {
          "name": "E2",
          "midi": 40,
          "time": 124.06317326250048,
          "velocity": 0.7874015748031497,
          "duration": 0.1338234625000041
        },
        {
          "name": "E2",
          "midi": 40,
          "time": 124.2352320000005,
          "velocity": 0.8661417322834646,
          "duration": 0.17647049999999354
        },
        {
          "name": "E2",
          "midi": 40,
          "time": 124.41170250000049,
          "velocity": 0.8661417322834646,
          "duration": 0.17647049999999354
        },
        {
          "name": "E2",
          "midi": 40,
          "time": 124.58817300000048,
          "velocity": 0.8661417322834646,
          "duration": 0.17647049999999354
        },
        {
          "name": "E2",
          "midi": 40,
          "time": 124.76464350000047,
          "velocity": 0.8661417322834646,
          "duration": 0.17647049999999354
        },
        {
          "name": "E2",
          "midi": 40,
          "time": 124.94111400000047,
          "velocity": 0.8661417322834646,
          "duration": 0.17647049999999354
        },
        {
          "name": "E2",
          "midi": 40,
          "time": 125.11758450000046,
          "velocity": 0.8661417322834646,
          "duration": 0.17647049999999354
        },
        {
          "name": "E2",
          "midi": 40,
          "time": 125.29405500000045,
          "velocity": 0.8661417322834646,
          "duration": 0.17647049999999354
        },
        {
          "name": "E2",
          "midi": 40,
          "time": 125.47052550000045,
          "velocity": 0.8661417322834646,
          "duration": 0.17647049999999354
        },
        {
          "name": "C2",
          "midi": 36,
          "time": 125.64699600000044,
          "velocity": 0.8661417322834646,
          "duration": 0.17647049999999354
        },
        {
          "name": "C2",
          "midi": 36,
          "time": 125.82346650000044,
          "velocity": 0.8661417322834646,
          "duration": 0.17647049999999354
        },
        {
          "name": "C2",
          "midi": 36,
          "time": 125.99993700000043,
          "velocity": 0.8661417322834646,
          "duration": 0.17647049999999354
        },
        {
          "name": "C2",
          "midi": 36,
          "time": 126.17640750000042,
          "velocity": 0.8661417322834646,
          "duration": 0.17647049999999354
        },
        {
          "name": "D2",
          "midi": 38,
          "time": 126.35287800000042,
          "velocity": 0.8661417322834646,
          "duration": 0.17647049999999354
        },
        {
          "name": "D2",
          "midi": 38,
          "time": 126.52934850000041,
          "velocity": 0.8661417322834646,
          "duration": 0.17647049999999354
        },
        {
          "name": "D2",
          "midi": 38,
          "time": 126.7058190000004,
          "velocity": 0.8661417322834646,
          "duration": 0.17647049999999354
        },
        {
          "name": "D2",
          "midi": 38,
          "time": 126.8822895000004,
          "velocity": 0.8661417322834646,
          "duration": 0.17647049999999354
        },
        {
          "name": "E2",
          "midi": 40,
          "time": 127.05876000000039,
          "velocity": 0.7874015748031497,
          "duration": 0.16176462500000355
        },
        {
          "name": "E2",
          "midi": 40,
          "time": 127.2396422625004,
          "velocity": 0.7874015748031497,
          "duration": 0.17205873749999512
        },
        {
          "name": "E2",
          "midi": 40,
          "time": 127.41170100000039,
          "velocity": 0.7874015748031497,
          "duration": 0.16176462500000355
        },
        {
          "name": "E2",
          "midi": 40,
          "time": 127.5925832625004,
          "velocity": 0.7874015748031497,
          "duration": 0.16249991875000092
        },
        {
          "name": "E2",
          "midi": 40,
          "time": 127.76464200000039,
          "velocity": 0.7874015748031497,
          "duration": 0.16176462500000355
        },
        {
          "name": "E2",
          "midi": 40,
          "time": 127.9455242625004,
          "velocity": 0.7874015748031497,
          "duration": 0.17205873749999512
        },
        {
          "name": "E2",
          "midi": 40,
          "time": 128.1175830000004,
          "velocity": 0.7874015748031497,
          "duration": 0.16176462499998934
        },
        {
          "name": "E2",
          "midi": 40,
          "time": 128.29846526250037,
          "velocity": 0.7874015748031497,
          "duration": 0.1529410999999925
        },
        {
          "name": "E2",
          "midi": 40,
          "time": 128.47052400000035,
          "velocity": 0.7874015748031497,
          "duration": 0.16176462499998934
        },
        {
          "name": "E2",
          "midi": 40,
          "time": 128.65140626250033,
          "velocity": 0.7874015748031497,
          "duration": 0.17205873750000933
        },
        {
          "name": "E2",
          "midi": 40,
          "time": 128.82346500000034,
          "velocity": 0.7874015748031497,
          "duration": 0.16176462499998934
        },
        {
          "name": "E2",
          "midi": 40,
          "time": 129.00434726250032,
          "velocity": 0.7874015748031497,
          "duration": 0.16249991875000092
        },
        {
          "name": "E2",
          "midi": 40,
          "time": 129.17640600000033,
          "velocity": 0.7874015748031497,
          "duration": 0.16176462499998934
        },
        {
          "name": "E2",
          "midi": 40,
          "time": 129.3572882625003,
          "velocity": 0.7874015748031497,
          "duration": 0.17205873750000933
        },
        {
          "name": "E2",
          "midi": 40,
          "time": 129.5293470000003,
          "velocity": 0.7874015748031497,
          "duration": 0.16176462499998934
        },
        {
          "name": "D2",
          "midi": 38,
          "time": 129.7102292625003,
          "velocity": 0.7874015748031497,
          "duration": 0.1529410999999925
        },
        {
          "name": "E2",
          "midi": 40,
          "time": 129.88228800000027,
          "velocity": 0.8661417322834646,
          "duration": 0.17647049999999354
        },
        {
          "name": "E2",
          "midi": 40,
          "time": 130.05875850000027,
          "velocity": 0.8661417322834646,
          "duration": 0.17647049999999354
        },
        {
          "name": "E2",
          "midi": 40,
          "time": 130.23522900000026,
          "velocity": 0.8661417322834646,
          "duration": 0.17647049999999354
        },
        {
          "name": "E2",
          "midi": 40,
          "time": 130.41169950000025,
          "velocity": 0.8661417322834646,
          "duration": 0.17647049999999354
        },
        {
          "name": "E2",
          "midi": 40,
          "time": 130.58817000000025,
          "velocity": 0.8661417322834646,
          "duration": 0.17647049999999354
        },
        {
          "name": "E2",
          "midi": 40,
          "time": 130.76464050000024,
          "velocity": 0.8661417322834646,
          "duration": 0.17647049999999354
        },
        {
          "name": "E2",
          "midi": 40,
          "time": 130.94111100000023,
          "velocity": 0.8661417322834646,
          "duration": 0.17647049999999354
        },
        {
          "name": "E2",
          "midi": 40,
          "time": 131.11758150000023,
          "velocity": 0.8661417322834646,
          "duration": 0.17647049999999354
        },
        {
          "name": "C2",
          "midi": 36,
          "time": 131.29405200000022,
          "velocity": 0.8661417322834646,
          "duration": 0.17647049999999354
        },
        {
          "name": "C2",
          "midi": 36,
          "time": 131.47052250000021,
          "velocity": 0.8661417322834646,
          "duration": 0.17647049999999354
        },
        {
          "name": "C2",
          "midi": 36,
          "time": 131.6469930000002,
          "velocity": 0.8661417322834646,
          "duration": 0.17647049999999354
        },
        {
          "name": "C2",
          "midi": 36,
          "time": 131.8234635000002,
          "velocity": 0.8661417322834646,
          "duration": 0.17647049999999354
        },
        {
          "name": "D2",
          "midi": 38,
          "time": 131.9999340000002,
          "velocity": 0.8661417322834646,
          "duration": 0.17647049999999354
        },
        {
          "name": "D2",
          "midi": 38,
          "time": 132.1764045000002,
          "velocity": 0.8661417322834646,
          "duration": 0.17647049999999354
        },
        {
          "name": "D2",
          "midi": 38,
          "time": 132.35287500000018,
          "velocity": 0.8661417322834646,
          "duration": 0.17647049999999354
        },
        {
          "name": "D2",
          "midi": 38,
          "time": 132.52934550000018,
          "velocity": 0.8661417322834646,
          "duration": 0.17647049999999354
        },
        {
          "name": "E2",
          "midi": 40,
          "time": 132.70581600000017,
          "velocity": 0.7874015748031497,
          "duration": 0.16176462499998934
        },
        {
          "name": "E2",
          "midi": 40,
          "time": 132.70581600000017,
          "velocity": 0.7874015748031497,
          "duration": 0.16176462499998934
        },
        {
          "name": "E2",
          "midi": 40,
          "time": 132.88669826250015,
          "velocity": 0.7874015748031497,
          "duration": 0.17205873750000933
        },
        {
          "name": "E2",
          "midi": 40,
          "time": 133.05875700000016,
          "velocity": 0.7874015748031497,
          "duration": 0.16176462499998934
        },
        {
          "name": "E2",
          "midi": 40,
          "time": 133.23963926250013,
          "velocity": 0.7874015748031497,
          "duration": 0.16249991875000092
        },
        {
          "name": "E2",
          "midi": 40,
          "time": 133.41169800000014,
          "velocity": 0.7874015748031497,
          "duration": 0.16176462499998934
        },
        {
          "name": "E2",
          "midi": 40,
          "time": 133.59258026250012,
          "velocity": 0.7874015748031497,
          "duration": 0.17205873750000933
        },
        {
          "name": "E2",
          "midi": 40,
          "time": 133.76463900000013,
          "velocity": 0.7874015748031497,
          "duration": 0.16176462499998934
        },
        {
          "name": "E2",
          "midi": 40,
          "time": 133.9455212625001,
          "velocity": 0.7874015748031497,
          "duration": 0.1529410999999925
        },
        {
          "name": "E2",
          "midi": 40,
          "time": 134.1175800000001,
          "velocity": 0.7874015748031497,
          "duration": 0.16176462499998934
        },
        {
          "name": "E2",
          "midi": 40,
          "time": 134.29846226250007,
          "velocity": 0.7874015748031497,
          "duration": 0.17205873750000933
        },
        {
          "name": "E2",
          "midi": 40,
          "time": 134.47052100000008,
          "velocity": 0.7874015748031497,
          "duration": 0.16176462499998934
        },
        {
          "name": "E2",
          "midi": 40,
          "time": 134.65140326250005,
          "velocity": 0.7874015748031497,
          "duration": 0.16249991875000092
        },
        {
          "name": "E2",
          "midi": 40,
          "time": 134.82346200000006,
          "velocity": 0.7874015748031497,
          "duration": 0.16176462499998934
        },
        {
          "name": "E2",
          "midi": 40,
          "time": 135.00434426250004,
          "velocity": 0.7874015748031497,
          "duration": 0.17205873750000933
        },
        {
          "name": "E2",
          "midi": 40,
          "time": 135.17640300000005,
          "velocity": 0.7874015748031497,
          "duration": 0.16176462499998934
        },
        {
          "name": "D2",
          "midi": 38,
          "time": 135.35728526250003,
          "velocity": 0.7874015748031497,
          "duration": 0.1529410999999925
        },
        {
          "name": "E2",
          "midi": 40,
          "time": 135.529344,
          "velocity": 0.7874015748031497,
          "duration": 0.16176462499998934
        },
        {
          "name": "E2",
          "midi": 40,
          "time": 135.7102262625,
          "velocity": 0.7874015748031497,
          "duration": 0.17205873750000933
        },
        {
          "name": "E2",
          "midi": 40,
          "time": 135.882285,
          "velocity": 0.7874015748031497,
          "duration": 0.16176462499998934
        },
        {
          "name": "E2",
          "midi": 40,
          "time": 136.06316726249997,
          "velocity": 0.7874015748031497,
          "duration": 0.16249991875000092
        },
        {
          "name": "E2",
          "midi": 40,
          "time": 136.23522599999998,
          "velocity": 0.7874015748031497,
          "duration": 0.16176462499998934
        },
        {
          "name": "E2",
          "midi": 40,
          "time": 136.41610826249996,
          "velocity": 0.7874015748031497,
          "duration": 0.17205873750000933
        },
        {
          "name": "E2",
          "midi": 40,
          "time": 136.58816699999997,
          "velocity": 0.7874015748031497,
          "duration": 0.16176462499998934
        },
        {
          "name": "E2",
          "midi": 40,
          "time": 136.76904926249995,
          "velocity": 0.7874015748031497,
          "duration": 0.1529410999999925
        },
        {
          "name": "E2",
          "midi": 40,
          "time": 136.94110799999993,
          "velocity": 0.7874015748031497,
          "duration": 0.16176462499998934
        },
        {
          "name": "E2",
          "midi": 40,
          "time": 137.1219902624999,
          "velocity": 0.7874015748031497,
          "duration": 0.17205873750000933
        },
        {
          "name": "E2",
          "midi": 40,
          "time": 137.29404899999992,
          "velocity": 0.7874015748031497,
          "duration": 0.16176462499998934
        },
        {
          "name": "E2",
          "midi": 40,
          "time": 137.4749312624999,
          "velocity": 0.7874015748031497,
          "duration": 0.16249991875000092
        },
        {
          "name": "D2",
          "midi": 38,
          "time": 137.6469899999999,
          "velocity": 0.7874015748031497,
          "duration": 0.16176462499998934
        },
        {
          "name": "E2",
          "midi": 40,
          "time": 137.82787226249988,
          "velocity": 0.7874015748031497,
          "duration": 0.17205873750000933
        },
        {
          "name": "G2",
          "midi": 43,
          "time": 137.9999309999999,
          "velocity": 0.7874015748031497,
          "duration": 0.16176462499998934
        },
        {
          "name": "A2",
          "midi": 45,
          "time": 138.18081326249987,
          "velocity": 0.7874015748031497,
          "duration": 0.16249991875000092
        },
        {
          "name": "D2",
          "midi": 38,
          "time": 138.35287199999988,
          "velocity": 0.7874015748031497,
          "duration": 0.16176462499998934
        },
        {
          "name": "D2",
          "midi": 38,
          "time": 138.53375426249985,
          "velocity": 0.7874015748031497,
          "duration": 0.17205873750000933
        },
        {
          "name": "D2",
          "midi": 38,
          "time": 138.70581299999986,
          "velocity": 0.7874015748031497,
          "duration": 0.16176462499998934
        },
        {
          "name": "D2",
          "midi": 38,
          "time": 138.88669526249984,
          "velocity": 0.7874015748031497,
          "duration": 0.16249991875000092
        },
        {
          "name": "D2",
          "midi": 38,
          "time": 139.05875399999985,
          "velocity": 0.7874015748031497,
          "duration": 0.16176462499998934
        },
        {
          "name": "D2",
          "midi": 38,
          "time": 139.23963626249983,
          "velocity": 0.7874015748031497,
          "duration": 0.17205873750000933
        },
        {
          "name": "D2",
          "midi": 38,
          "time": 139.41169499999984,
          "velocity": 0.7874015748031497,
          "duration": 0.16176462499998934
        },
        {
          "name": "D2",
          "midi": 38,
          "time": 139.59257726249982,
          "velocity": 0.7874015748031497,
          "duration": 0.1529410999999925
        },
        {
          "name": "G2",
          "midi": 43,
          "time": 139.7646359999998,
          "velocity": 0.7874015748031497,
          "duration": 0.17647049999999354
        },
        {
          "name": "D2",
          "midi": 38,
          "time": 139.9455182624998,
          "velocity": 0.7874015748031497,
          "duration": 0.505882100000008
        },
        {
          "name": "E2",
          "midi": 40,
          "time": 140.4705179999998,
          "velocity": 0.7874015748031497,
          "duration": 0.31470572500001026
        },
        {
          "name": "D2",
          "midi": 38,
          "time": 140.82345899999981,
          "velocity": 0.7874015748031497,
          "duration": 0.17647049999999354
        },
        {
          "name": "E2",
          "midi": 40,
          "time": 141.00434126249982,
          "velocity": 0.7874015748031497,
          "duration": 0.1338234625000041
        },
        {
          "name": "E2",
          "midi": 40,
          "time": 141.17639999999983,
          "velocity": 0.7874015748031497,
          "duration": 0.16176462499998934
        },
        {
          "name": "E2",
          "midi": 40,
          "time": 141.3572822624998,
          "velocity": 0.7874015748031497,
          "duration": 0.17205873750000933
        },
        {
          "name": "E2",
          "midi": 40,
          "time": 141.52934099999982,
          "velocity": 0.7874015748031497,
          "duration": 0.16176462499998934
        },
        {
          "name": "E2",
          "midi": 40,
          "time": 141.7102232624998,
          "velocity": 0.7874015748031497,
          "duration": 0.16249991875000092
        },
        {
          "name": "E2",
          "midi": 40,
          "time": 141.8822819999998,
          "velocity": 0.7874015748031497,
          "duration": 0.16176462499998934
        },
        {
          "name": "E2",
          "midi": 40,
          "time": 142.06316426249978,
          "velocity": 0.7874015748031497,
          "duration": 0.17205873750000933
        },
        {
          "name": "E2",
          "midi": 40,
          "time": 142.2352229999998,
          "velocity": 0.7874015748031497,
          "duration": 0.16176462499998934
        },
        {
          "name": "E2",
          "midi": 40,
          "time": 142.41610526249977,
          "velocity": 0.7874015748031497,
          "duration": 0.1529410999999925
        },
        {
          "name": "E2",
          "midi": 40,
          "time": 142.58816399999975,
          "velocity": 0.7874015748031497,
          "duration": 0.16176462499998934
        },
        {
          "name": "E2",
          "midi": 40,
          "time": 142.76904626249973,
          "velocity": 0.7874015748031497,
          "duration": 0.17205873750000933
        },
        {
          "name": "E2",
          "midi": 40,
          "time": 142.94110499999974,
          "velocity": 0.7874015748031497,
          "duration": 0.16176462499998934
        },
        {
          "name": "E2",
          "midi": 40,
          "time": 143.12198726249972,
          "velocity": 0.7874015748031497,
          "duration": 0.16249991875000092
        },
        {
          "name": "D2",
          "midi": 38,
          "time": 143.29404599999972,
          "velocity": 0.7874015748031497,
          "duration": 0.16176462499998934
        },
        {
          "name": "E2",
          "midi": 40,
          "time": 143.4749282624997,
          "velocity": 0.7874015748031497,
          "duration": 0.17205873750000933
        },
        {
          "name": "G2",
          "midi": 43,
          "time": 143.6469869999997,
          "velocity": 0.7874015748031497,
          "duration": 0.16176462499998934
        },
        {
          "name": "A2",
          "midi": 45,
          "time": 143.8278692624997,
          "velocity": 0.7874015748031497,
          "duration": 0.16249991875000092
        },
        {
          "name": "D2",
          "midi": 38,
          "time": 143.9999279999997,
          "velocity": 0.7874015748031497,
          "duration": 0.16176462499998934
        },
        {
          "name": "D2",
          "midi": 38,
          "time": 144.18081026249968,
          "velocity": 0.7874015748031497,
          "duration": 0.17205873750000933
        },
        {
          "name": "D2",
          "midi": 38,
          "time": 144.35286899999969,
          "velocity": 0.7874015748031497,
          "duration": 0.16176462499998934
        },
        {
          "name": "D2",
          "midi": 38,
          "time": 144.53375126249966,
          "velocity": 0.7874015748031497,
          "duration": 0.16249991875000092
        },
        {
          "name": "D2",
          "midi": 38,
          "time": 144.70580999999967,
          "velocity": 0.7874015748031497,
          "duration": 0.16176462499998934
        },
        {
          "name": "D2",
          "midi": 38,
          "time": 144.88669226249965,
          "velocity": 0.7874015748031497,
          "duration": 0.17205873750000933
        },
        {
          "name": "D2",
          "midi": 38,
          "time": 145.05875099999966,
          "velocity": 0.7874015748031497,
          "duration": 0.16176462499998934
        },
        {
          "name": "D2",
          "midi": 38,
          "time": 145.23963326249964,
          "velocity": 0.7874015748031497,
          "duration": 0.1529410999999925
        },
        {
          "name": "G2",
          "midi": 43,
          "time": 145.41169199999962,
          "velocity": 0.7874015748031497,
          "duration": 0.17647049999999354
        },
        {
          "name": "D2",
          "midi": 38,
          "time": 145.59257426249962,
          "velocity": 0.7874015748031497,
          "duration": 0.505882100000008
        },
        {
          "name": "E2",
          "midi": 40,
          "time": 146.11757399999962,
          "velocity": 0.7874015748031497,
          "duration": 0.31470572500001026
        },
        {
          "name": "D2",
          "midi": 38,
          "time": 146.47051499999964,
          "velocity": 0.7874015748031497,
          "duration": 0.17647049999999354
        },
        {
          "name": "E2",
          "midi": 40,
          "time": 146.65139726249964,
          "velocity": 0.7874015748031497,
          "duration": 0.1338234625000041
        },
        {
          "name": "E2",
          "midi": 40,
          "time": 146.82345599999965,
          "velocity": 0.7874015748031497,
          "duration": 0.16176462499998934
        },
        {
          "name": "E2",
          "midi": 40,
          "time": 147.00433826249963,
          "velocity": 0.7874015748031497,
          "duration": 0.17205873750000933
        },
        {
          "name": "E2",
          "midi": 40,
          "time": 147.17639699999964,
          "velocity": 0.7874015748031497,
          "duration": 0.16176462499998934
        },
        {
          "name": "E2",
          "midi": 40,
          "time": 147.35727926249962,
          "velocity": 0.7874015748031497,
          "duration": 0.16249991875000092
        },
        {
          "name": "E2",
          "midi": 40,
          "time": 147.52933799999963,
          "velocity": 0.7874015748031497,
          "duration": 0.16176462499998934
        },
        {
          "name": "E2",
          "midi": 40,
          "time": 147.7102202624996,
          "velocity": 0.7874015748031497,
          "duration": 0.17205873750000933
        },
        {
          "name": "E2",
          "midi": 40,
          "time": 147.8822789999996,
          "velocity": 0.7874015748031497,
          "duration": 0.16176462499998934
        },
        {
          "name": "E2",
          "midi": 40,
          "time": 148.0631612624996,
          "velocity": 0.7874015748031497,
          "duration": 0.1529410999999925
        },
        {
          "name": "E2",
          "midi": 40,
          "time": 148.23521999999957,
          "velocity": 0.7874015748031497,
          "duration": 0.16176462499998934
        },
        {
          "name": "E2",
          "midi": 40,
          "time": 148.41610226249955,
          "velocity": 0.7874015748031497,
          "duration": 0.17205873750000933
        },
        {
          "name": "E2",
          "midi": 40,
          "time": 148.58816099999956,
          "velocity": 0.7874015748031497,
          "duration": 0.16176462499998934
        },
        {
          "name": "E2",
          "midi": 40,
          "time": 148.76904326249954,
          "velocity": 0.7874015748031497,
          "duration": 0.16249991875000092
        },
        {
          "name": "D2",
          "midi": 38,
          "time": 148.94110199999955,
          "velocity": 0.7874015748031497,
          "duration": 0.16176462499998934
        },
        {
          "name": "E2",
          "midi": 40,
          "time": 149.12198426249952,
          "velocity": 0.7874015748031497,
          "duration": 0.17205873750000933
        },
        {
          "name": "G2",
          "midi": 43,
          "time": 149.29404299999953,
          "velocity": 0.7874015748031497,
          "duration": 0.16176462499998934
        },
        {
          "name": "A2",
          "midi": 45,
          "time": 149.4749252624995,
          "velocity": 0.7874015748031497,
          "duration": 0.16249991875000092
        },
        {
          "name": "D2",
          "midi": 38,
          "time": 149.64698399999952,
          "velocity": 0.7874015748031497,
          "duration": 0.16176462499998934
        },
        {
          "name": "D2",
          "midi": 38,
          "time": 149.8278662624995,
          "velocity": 0.7874015748031497,
          "duration": 0.17205873750000933
        },
        {
          "name": "D2",
          "midi": 38,
          "time": 149.9999249999995,
          "velocity": 0.7874015748031497,
          "duration": 0.16176462499998934
        },
        {
          "name": "D2",
          "midi": 38,
          "time": 150.18080726249948,
          "velocity": 0.7874015748031497,
          "duration": 0.16249991875000092
        },
        {
          "name": "D2",
          "midi": 38,
          "time": 150.3528659999995,
          "velocity": 0.7874015748031497,
          "duration": 0.16176462499998934
        },
        {
          "name": "D2",
          "midi": 38,
          "time": 150.53374826249947,
          "velocity": 0.7874015748031497,
          "duration": 0.17205873750000933
        },
        {
          "name": "D2",
          "midi": 38,
          "time": 150.70580699999948,
          "velocity": 0.7874015748031497,
          "duration": 0.16176462499998934
        },
        {
          "name": "D2",
          "midi": 38,
          "time": 150.88668926249946,
          "velocity": 0.7874015748031497,
          "duration": 0.1529410999999925
        },
        {
          "name": "G2",
          "midi": 43,
          "time": 151.05874799999944,
          "velocity": 0.7874015748031497,
          "duration": 0.17647049999999354
        },
        {
          "name": "D2",
          "midi": 38,
          "time": 151.23963026249945,
          "velocity": 0.7874015748031497,
          "duration": 0.505882100000008
        },
        {
          "name": "E2",
          "midi": 40,
          "time": 151.76462999999944,
          "velocity": 0.7874015748031497,
          "duration": 0.31470572500001026
        },
        {
          "name": "D2",
          "midi": 38,
          "time": 152.11757099999946,
          "velocity": 0.7874015748031497,
          "duration": 0.17647049999999354
        },
        {
          "name": "E2",
          "midi": 40,
          "time": 152.29845326249946,
          "velocity": 0.7874015748031497,
          "duration": 0.1338234625000041
        },
        {
          "name": "E2",
          "midi": 40,
          "time": 152.47051199999947,
          "velocity": 0.7874015748031497,
          "duration": 0.16176462499998934
        },
        {
          "name": "E2",
          "midi": 40,
          "time": 152.65139426249945,
          "velocity": 0.7874015748031497,
          "duration": 0.17205873750000933
        },
        {
          "name": "E2",
          "midi": 40,
          "time": 152.82345299999946,
          "velocity": 0.7874015748031497,
          "duration": 0.16176462499998934
        },
        {
          "name": "E2",
          "midi": 40,
          "time": 153.00433526249944,
          "velocity": 0.7874015748031497,
          "duration": 0.16249991875000092
        },
        {
          "name": "E2",
          "midi": 40,
          "time": 153.17639399999945,
          "velocity": 0.7874015748031497,
          "duration": 0.16176462499998934
        },
        {
          "name": "E2",
          "midi": 40,
          "time": 153.35727626249943,
          "velocity": 0.7874015748031497,
          "duration": 0.17205873750000933
        },
        {
          "name": "E2",
          "midi": 40,
          "time": 153.52933499999943,
          "velocity": 0.7874015748031497,
          "duration": 0.16176462499998934
        },
        {
          "name": "E2",
          "midi": 40,
          "time": 153.7102172624994,
          "velocity": 0.7874015748031497,
          "duration": 0.1529410999999925
        },
        {
          "name": "E2",
          "midi": 40,
          "time": 153.8822759999994,
          "velocity": 0.7874015748031497,
          "duration": 0.16176462499998934
        },
        {
          "name": "E2",
          "midi": 40,
          "time": 154.06315826249937,
          "velocity": 0.7874015748031497,
          "duration": 0.17205873750000933
        },
        {
          "name": "E2",
          "midi": 40,
          "time": 154.23521699999938,
          "velocity": 0.7874015748031497,
          "duration": 0.16176462499998934
        },
        {
          "name": "E2",
          "midi": 40,
          "time": 154.41609926249936,
          "velocity": 0.7874015748031497,
          "duration": 0.16249991875000092
        },
        {
          "name": "D2",
          "midi": 38,
          "time": 154.58815799999937,
          "velocity": 0.7874015748031497,
          "duration": 0.16176462499998934
        },
        {
          "name": "E2",
          "midi": 40,
          "time": 154.76904026249935,
          "velocity": 0.7874015748031497,
          "duration": 0.17205873750000933
        },
        {
          "name": "G2",
          "midi": 43,
          "time": 154.94109899999935,
          "velocity": 0.7874015748031497,
          "duration": 0.16176462499998934
        },
        {
          "name": "A2",
          "midi": 45,
          "time": 155.12198126249933,
          "velocity": 0.7874015748031497,
          "duration": 0.16249991875000092
        },
        {
          "name": "D2",
          "midi": 38,
          "time": 155.29403999999934,
          "velocity": 0.7874015748031497,
          "duration": 0.16176462499998934
        },
        {
          "name": "D2",
          "midi": 38,
          "time": 155.47492226249932,
          "velocity": 0.7874015748031497,
          "duration": 0.17205873750000933
        },
        {
          "name": "D2",
          "midi": 38,
          "time": 155.64698099999933,
          "velocity": 0.7874015748031497,
          "duration": 0.16176462499998934
        },
        {
          "name": "D2",
          "midi": 38,
          "time": 155.8278632624993,
          "velocity": 0.7874015748031497,
          "duration": 0.16249991875000092
        },
        {
          "name": "D2",
          "midi": 38,
          "time": 155.99992199999932,
          "velocity": 0.7874015748031497,
          "duration": 0.16176462499998934
        },
        {
          "name": "D2",
          "midi": 38,
          "time": 156.1808042624993,
          "velocity": 0.7874015748031497,
          "duration": 0.17205873750000933
        },
        {
          "name": "D2",
          "midi": 38,
          "time": 156.3528629999993,
          "velocity": 0.7874015748031497,
          "duration": 0.16176462499998934
        },
        {
          "name": "D2",
          "midi": 38,
          "time": 156.53374526249928,
          "velocity": 0.7874015748031497,
          "duration": 0.1529410999999925
        },
        {
          "name": "G2",
          "midi": 43,
          "time": 156.70580399999926,
          "velocity": 0.7874015748031497,
          "duration": 0.17647049999999354
        },
        {
          "name": "D2",
          "midi": 38,
          "time": 156.88668626249927,
          "velocity": 0.7874015748031497,
          "duration": 0.505882100000008
        },
        {
          "name": "E2",
          "midi": 40,
          "time": 157.41168599999926,
          "velocity": 0.7874015748031497,
          "duration": 0.31470572500001026
        }
      ],
      "controlChanges": {
        "7": [
          {
            "number": 7,
            "time": 0,
            "value": 1
          }
        ],
        "10": [
          {
            "number": 10,
            "time": 0,
            "value": 0.5039370078740157
          }
        ]
      },
      "id": 4,
      "name": "bAIXO",
      "instrumentNumber": 35,
      "instrument": "fretless bass",
      "instrumentFamily": "bass",
      "channelNumber": 2,
      "isPercussion": false
    },
    {
      "startTime": 79.058784,
      "duration": 101.46539044374961,
      "length": 106,
      "notes": [
        {
          "name": "G4",
          "midi": 67,
          "time": 79.058784,
          "velocity": 0.7874015748031497,
          "duration": 0.17647050000000775
        },
        {
          "name": "E4",
          "midi": 64,
          "time": 79.22790156250001,
          "velocity": 0.5905511811023622,
          "duration": 0.17647050000000775
        },
        {
          "name": "D4",
          "midi": 62,
          "time": 79.40437206250002,
          "velocity": 0.7874015748031497,
          "duration": 0.17647049999999354
        },
        {
          "name": "E4",
          "midi": 64,
          "time": 79.58819550000001,
          "velocity": 0.7874015748031497,
          "duration": 1.2213229187500048
        },
        {
          "name": "E4",
          "midi": 64,
          "time": 80.82348900000002,
          "velocity": 0.7874015748031497,
          "duration": 0.17647050000000775
        },
        {
          "name": "D4",
          "midi": 62,
          "time": 80.99260656250003,
          "velocity": 0.7874015748031497,
          "duration": 0.17647050000000775
        },
        {
          "name": "E4",
          "midi": 64,
          "time": 81.16907706250004,
          "velocity": 0.7874015748031497,
          "duration": 0.17647049999999354
        },
        {
          "name": "D4",
          "midi": 62,
          "time": 81.34554756250003,
          "velocity": 0.7874015748031497,
          "duration": 0.17647049999999354
        },
        {
          "name": "B3",
          "midi": 59,
          "time": 81.52937100000003,
          "velocity": 0.7874015748031497,
          "duration": 0.3529410000000013
        },
        {
          "name": "G3",
          "midi": 55,
          "time": 81.88231200000003,
          "velocity": 0.905511811023622,
          "duration": 0.17132344374999775
        },
        {
          "name": "A3",
          "midi": 57,
          "time": 82.05878250000002,
          "velocity": 0.7637795275590551,
          "duration": 0.17647049999999354
        },
        {
          "name": "G3",
          "midi": 55,
          "time": 82.23525300000001,
          "velocity": 0.905511811023622,
          "duration": 0.17647049999999354
        },
        {
          "name": "A3",
          "midi": 57,
          "time": 82.41172350000001,
          "velocity": 0.7637795275590551,
          "duration": 0.17647049999999354
        },
        {
          "name": "G3",
          "midi": 55,
          "time": 82.588194,
          "velocity": 0.905511811023622,
          "duration": 0.17132344374999775
        },
        {
          "name": "F#3",
          "midi": 54,
          "time": 82.7646645,
          "velocity": 0.6062992125984252,
          "duration": 0.09999994999999728
        },
        {
          "name": "F3",
          "midi": 53,
          "time": 82.85289974999999,
          "velocity": 0.6062992125984252,
          "duration": 0.0970587749999936
        },
        {
          "name": "E3",
          "midi": 52,
          "time": 82.94113499999999,
          "velocity": 0.905511811023622,
          "duration": 0.3529410000000013
        },
        {
          "name": "G3",
          "midi": 55,
          "time": 83.29407599999999,
          "velocity": 0.905511811023622,
          "duration": 0.17132344374999775
        },
        {
          "name": "E3",
          "midi": 52,
          "time": 83.46539944374999,
          "velocity": 0.905511811023622,
          "duration": 0.3529410000000013
        },
        {
          "name": "E3",
          "midi": 52,
          "time": 83.81834044374999,
          "velocity": 0.905511811023622,
          "duration": 0.7058820000000026
        },
        {
          "name": "E3",
          "midi": 52,
          "time": 84.52422244374999,
          "velocity": 0.905511811023622,
          "duration": 0.17132344374999775
        },
        {
          "name": "G3",
          "midi": 55,
          "time": 84.70069294374998,
          "velocity": 0.905511811023622,
          "duration": 0.3529410000000013
        },
        {
          "name": "A3",
          "midi": 57,
          "time": 85.05363394374999,
          "velocity": 0.905511811023622,
          "duration": 0.18161755624998932
        },
        {
          "name": "B3",
          "midi": 59,
          "time": 85.23010444374998,
          "velocity": 0.905511811023622,
          "duration": 0.17132344374999775
        },
        {
          "name": "D4",
          "midi": 62,
          "time": 85.40657494374997,
          "velocity": 0.905511811023622,
          "duration": 0.17132344374999775
        },
        {
          "name": "E4",
          "midi": 64,
          "time": 85.58304544374997,
          "velocity": 0.905511811023622,
          "duration": 0.17647049999999354
        },
        {
          "name": "E4",
          "midi": 64,
          "time": 85.75951594374996,
          "velocity": 0.905511811023622,
          "duration": 0.17647049999999354
        },
        {
          "name": "D4",
          "midi": 62,
          "time": 85.93598644374995,
          "velocity": 0.7874015748031497,
          "duration": 0.17132344374999775
        },
        {
          "name": "E4",
          "midi": 64,
          "time": 86.11245694374995,
          "velocity": 0.905511811023622,
          "duration": 0.17647049999999354
        },
        {
          "name": "G4",
          "midi": 67,
          "time": 86.28892744374994,
          "velocity": 0.905511811023622,
          "duration": 0.17647049999999354
        },
        {
          "name": "A4",
          "midi": 69,
          "time": 86.46539794374993,
          "velocity": 0.905511811023622,
          "duration": 0.43897036874999174
        },
        {
          "name": "G4",
          "midi": 67,
          "time": 86.90657419374993,
          "velocity": 0.84251968503937,
          "duration": 0.26691163125001083
        },
        {
          "name": "A4",
          "midi": 69,
          "time": 87.17127994374994,
          "velocity": 0.905511811023622,
          "duration": 0.43897036874999174
        },
        {
          "name": "G4",
          "midi": 67,
          "time": 87.61245619374994,
          "velocity": 0.84251968503937,
          "duration": 0.09558818749999887
        },
        {
          "name": "A4",
          "midi": 69,
          "time": 87.70069144374993,
          "velocity": 0.905511811023622,
          "duration": 0.3529410000000013
        },
        {
          "name": "G4",
          "midi": 67,
          "time": 88.05363244374993,
          "velocity": 0.905511811023622,
          "duration": 0.18161755624998932
        },
        {
          "name": "F#4",
          "midi": 66,
          "time": 88.23010294374993,
          "velocity": 0.905511811023622,
          "duration": 0.17647049999999354
        },
        {
          "name": "F#4",
          "midi": 66,
          "time": 88.40657344374992,
          "velocity": 0.905511811023622,
          "duration": 0.17647049999999354
        },
        {
          "name": "F#4",
          "midi": 66,
          "time": 88.58304394374991,
          "velocity": 0.905511811023622,
          "duration": 0.3529410000000013
        },
        {
          "name": "E4",
          "midi": 64,
          "time": 88.94113199999991,
          "velocity": 0.905511811023622,
          "duration": 0.17647049999999354
        },
        {
          "name": "F#4",
          "midi": 66,
          "time": 89.11245544374991,
          "velocity": 0.905511811023622,
          "duration": 0.17647049999999354
        },
        {
          "name": "F#4",
          "midi": 66,
          "time": 89.2889259437499,
          "velocity": 0.905511811023622,
          "duration": 0.17647049999999354
        },
        {
          "name": "F#4",
          "midi": 66,
          "time": 89.4653964437499,
          "velocity": 0.905511811023622,
          "duration": 0.17647049999999354
        },
        {
          "name": "F#4",
          "midi": 66,
          "time": 89.64186694374989,
          "velocity": 0.905511811023622,
          "duration": 0.2669116312499966
        },
        {
          "name": "G4",
          "midi": 67,
          "time": 89.90142563749988,
          "velocity": 0.905511811023622,
          "duration": 0.04779409374999943
        },
        {
          "name": "A4",
          "midi": 69,
          "time": 89.91319033749988,
          "velocity": 0.905511811023622,
          "duration": 0.044117624999998384
        },
        {
          "name": "B4",
          "midi": 71,
          "time": 89.92274915624988,
          "velocity": 0.905511811023622,
          "duration": 0.044117624999998384
        },
        {
          "name": "C5",
          "midi": 72,
          "time": 89.95142561249989,
          "velocity": 0.905511811023622,
          "duration": 0.04411762499998417
        },
        {
          "name": "C#5",
          "midi": 73,
          "time": 89.99995499999987,
          "velocity": 0.905511811023622,
          "duration": 0.17647049999999354
        },
        {
          "name": "E5",
          "midi": 76,
          "time": 90.17642549999987,
          "velocity": 0.905511811023622,
          "duration": 0.08823524999999677
        },
        {
          "name": "E5",
          "midi": 76,
          "time": 90.26466074999986,
          "velocity": 0.905511811023622,
          "duration": 0.09558818749999887
        },
        {
          "name": "F#5",
          "midi": 78,
          "time": 90.35289599999986,
          "velocity": 0.905511811023622,
          "duration": 0.524264443749999
        },
        {
          "name": "F#5",
          "midi": 78,
          "time": 90.88230749999985,
          "velocity": 0.905511811023622,
          "duration": 0.5286762062499974
        },
        {
          "name": "F#5",
          "midi": 78,
          "time": 91.41171899999985,
          "velocity": 0.905511811023622,
          "duration": 0.17647049999999354
        },
        {
          "name": "E5",
          "midi": 76,
          "time": 91.58818949999984,
          "velocity": 0.905511811023622,
          "duration": 0.17647049999999354
        },
        {
          "name": "A5",
          "midi": 81,
          "time": 91.76465999999984,
          "velocity": 0.905511811023622,
          "duration": 0.3529410000000013
        },
        {
          "name": "A5",
          "midi": 81,
          "time": 92.11760099999984,
          "velocity": 0.905511811023622,
          "duration": 0.35294099999998707
        },
        {
          "name": "A5",
          "midi": 81,
          "time": 92.47054199999982,
          "velocity": 0.905511811023622,
          "duration": 0.35294099999998707
        },
        {
          "name": "G5",
          "midi": 79,
          "time": 92.82348299999981,
          "velocity": 0.84251968503937,
          "duration": 0.08823524999999677
        },
        {
          "name": "A5",
          "midi": 81,
          "time": 92.91171824999981,
          "velocity": 0.905511811023622,
          "duration": 0.08823524999999677
        },
        {
          "name": "G5",
          "midi": 79,
          "time": 92.9999534999998,
          "velocity": 0.84251968503937,
          "duration": 0.08823524999999677
        },
        {
          "name": "F#5",
          "midi": 78,
          "time": 93.0881887499998,
          "velocity": 0.905511811023622,
          "duration": 0.08823524999999677
        },
        {
          "name": "G5",
          "midi": 79,
          "time": 93.1764239999998,
          "velocity": 0.905511811023622,
          "duration": 0.17647049999999354
        },
        {
          "name": "E5",
          "midi": 76,
          "time": 93.35289449999979,
          "velocity": 0.7874015748031497,
          "duration": 0.17647049999999354
        },
        {
          "name": "E5",
          "midi": 76,
          "time": 93.52936499999979,
          "velocity": 0.905511811023622,
          "duration": 0.17647049999999354
        },
        {
          "name": "E5",
          "midi": 76,
          "time": 93.70583549999978,
          "velocity": 0.905511811023622,
          "duration": 0.08823524999999677
        },
        {
          "name": "C#5",
          "midi": 73,
          "time": 93.79407074999978,
          "velocity": 0.7874015748031497,
          "duration": 0.08823524999999677
        },
        {
          "name": "B4",
          "midi": 71,
          "time": 93.88230599999977,
          "velocity": 0.905511811023622,
          "duration": 0.17647049999999354
        },
        {
          "name": "A4",
          "midi": 69,
          "time": 94.05877649999977,
          "velocity": 0.905511811023622,
          "duration": 0.17647049999999354
        },
        {
          "name": "B4",
          "midi": 71,
          "time": 94.23524699999976,
          "velocity": 0.905511811023622,
          "duration": 0.08823524999999677
        },
        {
          "name": "B4",
          "midi": 71,
          "time": 94.32348224999976,
          "velocity": 0.905511811023622,
          "duration": 0.08823524999999677
        },
        {
          "name": "A4",
          "midi": 69,
          "time": 94.41171749999975,
          "velocity": 0.7874015748031497,
          "duration": 0.08823524999999677
        },
        {
          "name": "E4",
          "midi": 64,
          "time": 94.49995274999975,
          "velocity": 0.905511811023622,
          "duration": 0.09558818749999887
        },
        {
          "name": "G4",
          "midi": 67,
          "time": 94.58818799999975,
          "velocity": 0.905511811023622,
          "duration": 0.3529410000000013
        },
        {
          "name": "E4",
          "midi": 64,
          "time": 94.93598194374975,
          "velocity": 0.905511811023622,
          "duration": 0.17647049999999354
        },
        {
          "name": "G4",
          "midi": 67,
          "time": 95.11245244374975,
          "velocity": 0.905511811023622,
          "duration": 0.17647049999999354
        },
        {
          "name": "A4",
          "midi": 69,
          "time": 95.28892294374974,
          "velocity": 0.905511811023622,
          "duration": 0.3624998187499955
        },
        {
          "name": "G4",
          "midi": 67,
          "time": 95.64701099999974,
          "velocity": 0.905511811023622,
          "duration": 0.3529410000000013
        },
        {
          "name": "A4",
          "midi": 69,
          "time": 95.99995199999974,
          "velocity": 0.905511811023622,
          "duration": 0.3529410000000013
        },
        {
          "name": "G4",
          "midi": 67,
          "time": 96.35289299999974,
          "velocity": 0.905511811023622,
          "duration": 0.17132344374999775
        },
        {
          "name": "A4",
          "midi": 69,
          "time": 96.52936349999973,
          "velocity": 0.7637795275590551,
          "duration": 0.18161755624998932
        },
        {
          "name": "G4",
          "midi": 67,
          "time": 96.70583399999973,
          "velocity": 0.7637795275590551,
          "duration": 0.17647049999999354
        },
        {
          "name": "E4",
          "midi": 64,
          "time": 96.88230449999972,
          "velocity": 0.905511811023622,
          "duration": 0.08823524999999677
        },
        {
          "name": "G4",
          "midi": 67,
          "time": 96.97053974999972,
          "velocity": 0.905511811023622,
          "duration": 0.08823524999999677
        },
        {
          "name": "E4",
          "midi": 64,
          "time": 97.05877499999971,
          "velocity": 0.905511811023622,
          "duration": 0.08823524999999677
        },
        {
          "name": "A3",
          "midi": 57,
          "time": 97.14701024999971,
          "velocity": 0.905511811023622,
          "duration": 0.08823524999999677
        },
        {
          "name": "B3",
          "midi": 59,
          "time": 97.2352454999997,
          "velocity": 0.7637795275590551,
          "duration": 0.08823524999999677
        },
        {
          "name": "C4",
          "midi": 60,
          "time": 97.3234807499997,
          "velocity": 0.7637795275590551,
          "duration": 0.08823524999999677
        },
        {
          "name": "D4",
          "midi": 62,
          "time": 97.4117159999997,
          "velocity": 0.905511811023622,
          "duration": 0.5294114999999948
        },
        {
          "name": "B3",
          "midi": 59,
          "time": 97.9411274999997,
          "velocity": 0.905511811023622,
          "duration": 0.17647049999999354
        },
        {
          "name": "A3",
          "midi": 57,
          "time": 98.11759799999969,
          "velocity": 0.905511811023622,
          "duration": 0.17647049999999354
        },
        {
          "name": "B3",
          "midi": 59,
          "time": 98.29406849999968,
          "velocity": 0.905511811023622,
          "duration": 0.08823524999999677
        },
        {
          "name": "A3",
          "midi": 57,
          "time": 98.38230374999968,
          "velocity": 0.905511811023622,
          "duration": 0.09558818749999887
        },
        {
          "name": "G3",
          "midi": 55,
          "time": 98.47053899999968,
          "velocity": 0.905511811023622,
          "duration": 0.08823524999999677
        },
        {
          "name": "A3",
          "midi": 57,
          "time": 98.55877424999967,
          "velocity": 0.905511811023622,
          "duration": 0.08823524999999677
        },
        {
          "name": "B3",
          "midi": 59,
          "time": 98.64700949999967,
          "velocity": 0.7637795275590551,
          "duration": 0.08823524999999677
        },
        {
          "name": "C4",
          "midi": 60,
          "time": 98.73524474999967,
          "velocity": 0.7637795275590551,
          "duration": 0.08823524999999677
        },
        {
          "name": "D4",
          "midi": 62,
          "time": 98.82347999999966,
          "velocity": 0.905511811023622,
          "duration": 0.524264443749999
        },
        {
          "name": "D4",
          "midi": 62,
          "time": 99.35289149999966,
          "velocity": 0.905511811023622,
          "duration": 0.17647049999999354
        },
        {
          "name": "E4",
          "midi": 64,
          "time": 99.52936199999965,
          "velocity": 0.905511811023622,
          "duration": 0.17647049999999354
        },
        {
          "name": "G4",
          "midi": 67,
          "time": 99.70583249999964,
          "velocity": 0.905511811023622,
          "duration": 0.17647049999999354
        },
        {
          "name": "E4",
          "midi": 64,
          "time": 99.88230299999964,
          "velocity": 0.905511811023622,
          "duration": 0.17647049999999354
        },
        {
          "name": "D4",
          "midi": 62,
          "time": 100.05877349999963,
          "velocity": 0.905511811023622,
          "duration": 0.17647049999999354
        },
        {
          "name": "E4",
          "midi": 64,
          "time": 100.23524399999962,
          "velocity": 0.905511811023622,
          "duration": 0.17132344374999775
        },
        {
          "name": "D4",
          "midi": 62,
          "time": 100.41171449999962,
          "velocity": 0.905511811023622,
          "duration": 0.5345585562499906
        },
        {
          "name": "E4",
          "midi": 64,
          "time": 100.94112599999961,
          "velocity": 0.905511811023622,
          "duration": 0.524264443749999
        }
      ],
      "controlChanges": {
        "7": [
          {
            "number": 7,
            "time": 0,
            "value": 0.9133858267716536
          }
        ],
        "10": [
          {
            "number": 10,
            "time": 0,
            "value": 0.007874015748031496
          }
        ],
        "91": [
          {
            "number": 91,
            "time": 79.058784,
            "value": 1
          }
        ],
        "93": [
          {
            "number": 93,
            "time": 79.058784,
            "value": 1
          }
        ]
      },
      "id": 5,
      "name": "sOLO (eSQ)",
      "instrumentNumber": 29,
      "instrument": "overdriven guitar",
      "instrumentFamily": "guitar",
      "channelNumber": 3,
      "isPercussion": false
    },
    {
      "startTime": 5.647056,
      "duration": 157.697715268749,
      "length": 1352,
      "notes": [
        {
          "name": "E3",
          "midi": 52,
          "time": 5.647056,
          "velocity": 0.7874015748031497,
          "duration": 0.49558798749999955
        },
        {
          "name": "A3",
          "midi": 57,
          "time": 5.647056,
          "velocity": 0.7874015748031497,
          "duration": 0.17647049999999975
        },
        {
          "name": "B3",
          "midi": 59,
          "time": 5.8279382625,
          "velocity": 0.7874015748031497,
          "duration": 0.3911762749999994
        },
        {
          "name": "A3",
          "midi": 57,
          "time": 6.1808792624999995,
          "velocity": 0.7874015748031497,
          "duration": 0.17647049999999975
        },
        {
          "name": "E3",
          "midi": 52,
          "time": 6.1808792624999995,
          "velocity": 0.7874015748031497,
          "duration": 0.5154409187499995
        },
        {
          "name": "B3",
          "midi": 59,
          "time": 6.3617615249999995,
          "velocity": 0.7874015748031497,
          "duration": 0.41911743749999975
        },
        {
          "name": "A3",
          "midi": 57,
          "time": 6.714702524999999,
          "velocity": 0.7874015748031497,
          "duration": 0.17647050000000064
        },
        {
          "name": "E3",
          "midi": 52,
          "time": 6.714702524999999,
          "velocity": 0.7874015748031497,
          "duration": 0.44852918750000104
        },
        {
          "name": "B3",
          "midi": 59,
          "time": 6.8955847875,
          "velocity": 0.7874015748031497,
          "duration": 0.2860292687500001
        },
        {
          "name": "A3",
          "midi": 57,
          "time": 7.05882,
          "velocity": 0.7874015748031497,
          "duration": 0.17647049999999975
        },
        {
          "name": "B3",
          "midi": 59,
          "time": 7.2397022625,
          "velocity": 0.7874015748031497,
          "duration": 0.17647050000000064
        },
        {
          "name": "D4",
          "midi": 62,
          "time": 7.411761,
          "velocity": 0.7874015748031497,
          "duration": 0.17647050000000064
        },
        {
          "name": "E4",
          "midi": 64,
          "time": 7.592643262500001,
          "velocity": 0.7874015748031497,
          "duration": 0.17647050000000064
        },
        {
          "name": "A3",
          "midi": 57,
          "time": 7.7647020000000015,
          "velocity": 0.7874015748031497,
          "duration": 0.17647050000000064
        },
        {
          "name": "B3",
          "midi": 59,
          "time": 7.945584262500002,
          "velocity": 0.7874015748031497,
          "duration": 0.17647050000000064
        },
        {
          "name": "D4",
          "midi": 62,
          "time": 8.117643000000003,
          "velocity": 0.7874015748031497,
          "duration": 0.17647050000000064
        },
        {
          "name": "B3",
          "midi": 59,
          "time": 8.298525262500004,
          "velocity": 0.7874015748031497,
          "duration": 0.17647050000000064
        },
        {
          "name": "A3",
          "midi": 57,
          "time": 8.470584000000004,
          "velocity": 0.7874015748031497,
          "duration": 0.17647050000000064
        },
        {
          "name": "E3",
          "midi": 52,
          "time": 8.470584000000004,
          "velocity": 0.7874015748031497,
          "duration": 0.49558798750000044
        },
        {
          "name": "B3",
          "midi": 59,
          "time": 8.651466262500005,
          "velocity": 0.7874015748031497,
          "duration": 0.3911762749999994
        },
        {
          "name": "A3",
          "midi": 57,
          "time": 9.004407262500004,
          "velocity": 0.7874015748031497,
          "duration": 0.17647050000000064
        },
        {
          "name": "E3",
          "midi": 52,
          "time": 9.004407262500004,
          "velocity": 0.7874015748031497,
          "duration": 0.5154409187500004
        },
        {
          "name": "B3",
          "midi": 59,
          "time": 9.185289525000005,
          "velocity": 0.7874015748031497,
          "duration": 0.41911743749999886
        },
        {
          "name": "A3",
          "midi": 57,
          "time": 9.538230525000005,
          "velocity": 0.7874015748031497,
          "duration": 0.17647049999999886
        },
        {
          "name": "E3",
          "midi": 52,
          "time": 9.538230525000005,
          "velocity": 0.7874015748031497,
          "duration": 0.44852918749999837
        },
        {
          "name": "B3",
          "midi": 59,
          "time": 9.719112787500004,
          "velocity": 0.7874015748031497,
          "duration": 0.28602926874999923
        },
        {
          "name": "A3",
          "midi": 57,
          "time": 9.882348000000004,
          "velocity": 0.7874015748031497,
          "duration": 0.17647049999999886
        },
        {
          "name": "B3",
          "midi": 59,
          "time": 10.063230262500003,
          "velocity": 0.7874015748031497,
          "duration": 0.17647050000000064
        },
        {
          "name": "D4",
          "midi": 62,
          "time": 10.235289000000003,
          "velocity": 0.7874015748031497,
          "duration": 0.17647050000000064
        },
        {
          "name": "E4",
          "midi": 64,
          "time": 10.416171262500004,
          "velocity": 0.7874015748031497,
          "duration": 0.17647050000000064
        },
        {
          "name": "A3",
          "midi": 57,
          "time": 10.588230000000005,
          "velocity": 0.7874015748031497,
          "duration": 0.17647050000000064
        },
        {
          "name": "B3",
          "midi": 59,
          "time": 10.769112262500006,
          "velocity": 0.7874015748031497,
          "duration": 0.17647050000000064
        },
        {
          "name": "D4",
          "midi": 62,
          "time": 10.941171000000006,
          "velocity": 0.7874015748031497,
          "duration": 0.17647050000000064
        },
        {
          "name": "B3",
          "midi": 59,
          "time": 11.122053262500007,
          "velocity": 0.7874015748031497,
          "duration": 0.17647050000000064
        },
        {
          "name": "E4",
          "midi": 64,
          "time": 11.294112000000007,
          "velocity": 0.7874015748031497,
          "duration": 0.161764625
        },
        {
          "name": "E3",
          "midi": 52,
          "time": 11.294112000000007,
          "velocity": 0.7874015748031497,
          "duration": 0.13308816874999962
        },
        {
          "name": "E4",
          "midi": 64,
          "time": 11.474994262500008,
          "velocity": 0.7874015748031497,
          "duration": 0.17205873750000045
        },
        {
          "name": "E3",
          "midi": 52,
          "time": 11.474994262500008,
          "velocity": 0.7874015748031497,
          "duration": 0.1529410999999996
        },
        {
          "name": "E4",
          "midi": 64,
          "time": 11.647053000000009,
          "velocity": 0.7874015748031497,
          "duration": 0.161764625
        },
        {
          "name": "E3",
          "midi": 52,
          "time": 11.647053000000009,
          "velocity": 0.7874015748031497,
          "duration": 0.13308816874999962
        },
        {
          "name": "E4",
          "midi": 64,
          "time": 11.82793526250001,
          "velocity": 0.7874015748031497,
          "duration": 0.16249991875000092
        },
        {
          "name": "E3",
          "midi": 52,
          "time": 11.82793526250001,
          "velocity": 0.7874015748031497,
          "duration": 0.13382346250000055
        },
        {
          "name": "E4",
          "midi": 64,
          "time": 11.99999400000001,
          "velocity": 0.7874015748031497,
          "duration": 0.161764625
        },
        {
          "name": "E3",
          "midi": 52,
          "time": 11.99999400000001,
          "velocity": 0.7874015748031497,
          "duration": 0.13308816874999962
        },
        {
          "name": "E4",
          "midi": 64,
          "time": 12.18087626250001,
          "velocity": 0.7874015748031497,
          "duration": 0.17205873750000045
        },
        {
          "name": "E3",
          "midi": 52,
          "time": 12.18087626250001,
          "velocity": 0.7874015748031497,
          "duration": 0.1529410999999996
        },
        {
          "name": "E4",
          "midi": 64,
          "time": 12.352935000000011,
          "velocity": 0.7874015748031497,
          "duration": 0.161764625
        },
        {
          "name": "E3",
          "midi": 52,
          "time": 12.352935000000011,
          "velocity": 0.7874015748031497,
          "duration": 0.13308816874999962
        },
        {
          "name": "E4",
          "midi": 64,
          "time": 12.533817262500012,
          "velocity": 0.7874015748031497,
          "duration": 0.1529410999999996
        },
        {
          "name": "E3",
          "midi": 52,
          "time": 12.533817262500012,
          "velocity": 0.7874015748031497,
          "duration": 0.12426464374999924
        },
        {
          "name": "E4",
          "midi": 64,
          "time": 12.705876000000012,
          "velocity": 0.7874015748031497,
          "duration": 0.161764625
        },
        {
          "name": "E3",
          "midi": 52,
          "time": 12.705876000000012,
          "velocity": 0.7874015748031497,
          "duration": 0.13308816874999962
        },
        {
          "name": "E4",
          "midi": 64,
          "time": 12.886758262500013,
          "velocity": 0.7874015748031497,
          "duration": 0.17205873750000045
        },
        {
          "name": "E3",
          "midi": 52,
          "time": 12.886758262500013,
          "velocity": 0.7874015748031497,
          "duration": 0.1529410999999996
        },
        {
          "name": "E4",
          "midi": 64,
          "time": 13.058817000000014,
          "velocity": 0.7874015748031497,
          "duration": 0.161764625
        },
        {
          "name": "E3",
          "midi": 52,
          "time": 13.058817000000014,
          "velocity": 0.7874015748031497,
          "duration": 0.13308816874999962
        },
        {
          "name": "E4",
          "midi": 64,
          "time": 13.239699262500014,
          "velocity": 0.7874015748031497,
          "duration": 0.16249991875000092
        },
        {
          "name": "E3",
          "midi": 52,
          "time": 13.239699262500014,
          "velocity": 0.7874015748031497,
          "duration": 0.13382346250000055
        },
        {
          "name": "E4",
          "midi": 64,
          "time": 13.411758000000015,
          "velocity": 0.7874015748031497,
          "duration": 0.161764625
        },
        {
          "name": "E3",
          "midi": 52,
          "time": 13.411758000000015,
          "velocity": 0.7874015748031497,
          "duration": 0.13308816874999962
        },
        {
          "name": "E4",
          "midi": 64,
          "time": 13.592640262500016,
          "velocity": 0.7874015748031497,
          "duration": 0.17205873750000045
        },
        {
          "name": "E3",
          "midi": 52,
          "time": 13.592640262500016,
          "velocity": 0.7874015748031497,
          "duration": 0.1529410999999996
        },
        {
          "name": "E4",
          "midi": 64,
          "time": 13.764699000000016,
          "velocity": 0.7874015748031497,
          "duration": 0.161764625
        },
        {
          "name": "E3",
          "midi": 52,
          "time": 13.764699000000016,
          "velocity": 0.7874015748031497,
          "duration": 0.13308816874999962
        },
        {
          "name": "E4",
          "midi": 64,
          "time": 13.945581262500017,
          "velocity": 0.7874015748031497,
          "duration": 0.16249991875000092
        },
        {
          "name": "E3",
          "midi": 52,
          "time": 13.945581262500017,
          "velocity": 0.7874015748031497,
          "duration": 0.13382346250000055
        },
        {
          "name": "D4",
          "midi": 62,
          "time": 14.117640000000018,
          "velocity": 0.7874015748031497,
          "duration": 0.161764625
        },
        {
          "name": "D3",
          "midi": 50,
          "time": 14.117640000000018,
          "velocity": 0.7874015748031497,
          "duration": 0.161764625
        },
        {
          "name": "D4",
          "midi": 62,
          "time": 14.298522262500018,
          "velocity": 0.7874015748031497,
          "duration": 0.17205873750000045
        },
        {
          "name": "D3",
          "midi": 50,
          "time": 14.298522262500018,
          "velocity": 0.7874015748031497,
          "duration": 0.17205873750000045
        },
        {
          "name": "D4",
          "midi": 62,
          "time": 14.470581000000019,
          "velocity": 0.7874015748031497,
          "duration": 0.161764625
        },
        {
          "name": "D3",
          "midi": 50,
          "time": 14.470581000000019,
          "velocity": 0.7874015748031497,
          "duration": 0.161764625
        },
        {
          "name": "D4",
          "midi": 62,
          "time": 14.65146326250002,
          "velocity": 0.7874015748031497,
          "duration": 0.16249991874999914
        },
        {
          "name": "D3",
          "midi": 50,
          "time": 14.65146326250002,
          "velocity": 0.7874015748031497,
          "duration": 0.16249991874999914
        },
        {
          "name": "D4",
          "midi": 62,
          "time": 14.823522000000018,
          "velocity": 0.7874015748031497,
          "duration": 0.161764625
        },
        {
          "name": "D3",
          "midi": 50,
          "time": 14.823522000000018,
          "velocity": 0.7874015748031497,
          "duration": 0.161764625
        },
        {
          "name": "D4",
          "midi": 62,
          "time": 15.00440426250002,
          "velocity": 0.7874015748031497,
          "duration": 0.17205873750000045
        },
        {
          "name": "D3",
          "midi": 50,
          "time": 15.00440426250002,
          "velocity": 0.7874015748031497,
          "duration": 0.17205873750000045
        },
        {
          "name": "D4",
          "midi": 62,
          "time": 15.17646300000002,
          "velocity": 0.7874015748031497,
          "duration": 0.161764625
        },
        {
          "name": "D3",
          "midi": 50,
          "time": 15.17646300000002,
          "velocity": 0.7874015748031497,
          "duration": 0.161764625
        },
        {
          "name": "D4",
          "midi": 62,
          "time": 15.35734526250002,
          "velocity": 0.7874015748031497,
          "duration": 0.1529410999999996
        },
        {
          "name": "D3",
          "midi": 50,
          "time": 15.35734526250002,
          "velocity": 0.7874015748031497,
          "duration": 0.1529410999999996
        },
        {
          "name": "G4",
          "midi": 67,
          "time": 15.52940400000002,
          "velocity": 0.7874015748031497,
          "duration": 0.17647050000000064
        },
        {
          "name": "G3",
          "midi": 55,
          "time": 15.52940400000002,
          "velocity": 0.7874015748031497,
          "duration": 0.17647050000000064
        },
        {
          "name": "D4",
          "midi": 62,
          "time": 15.710286262500022,
          "velocity": 0.7874015748031497,
          "duration": 0.5058820999999991
        },
        {
          "name": "D3",
          "midi": 50,
          "time": 15.710286262500022,
          "velocity": 0.7874015748031497,
          "duration": 0.5058820999999991
        },
        {
          "name": "E4",
          "midi": 64,
          "time": 16.23528600000002,
          "velocity": 0.7874015748031497,
          "duration": 0.3147057249999996
        },
        {
          "name": "E3",
          "midi": 52,
          "time": 16.23528600000002,
          "velocity": 0.7874015748031497,
          "duration": 0.28602926874999923
        },
        {
          "name": "D4",
          "midi": 62,
          "time": 16.58822700000002,
          "velocity": 0.7874015748031497,
          "duration": 0.17647050000000064
        },
        {
          "name": "D3",
          "midi": 50,
          "time": 16.58822700000002,
          "velocity": 0.7874015748031497,
          "duration": 0.17647050000000064
        },
        {
          "name": "E4",
          "midi": 64,
          "time": 16.76910926250002,
          "velocity": 0.7874015748031497,
          "duration": 0.13382346250000055
        },
        {
          "name": "E3",
          "midi": 52,
          "time": 16.76910926250002,
          "velocity": 0.7874015748031497,
          "duration": 0.10514700625000017
        },
        {
          "name": "E4",
          "midi": 64,
          "time": 16.941168000000022,
          "velocity": 0.7874015748031497,
          "duration": 0.161764625
        },
        {
          "name": "E3",
          "midi": 52,
          "time": 16.941168000000022,
          "velocity": 0.7874015748031497,
          "duration": 0.13308816874999962
        },
        {
          "name": "E4",
          "midi": 64,
          "time": 17.12205026250002,
          "velocity": 0.7874015748031497,
          "duration": 0.17205873749999867
        },
        {
          "name": "E3",
          "midi": 52,
          "time": 17.12205026250002,
          "velocity": 0.7874015748031497,
          "duration": 0.1529410999999996
        },
        {
          "name": "E4",
          "midi": 64,
          "time": 17.29410900000002,
          "velocity": 0.7874015748031497,
          "duration": 0.161764625
        },
        {
          "name": "E3",
          "midi": 52,
          "time": 17.29410900000002,
          "velocity": 0.7874015748031497,
          "duration": 0.13308816874999962
        },
        {
          "name": "E4",
          "midi": 64,
          "time": 17.47499126250002,
          "velocity": 0.7874015748031497,
          "duration": 0.16249991875000092
        },
        {
          "name": "E3",
          "midi": 52,
          "time": 17.47499126250002,
          "velocity": 0.7874015748031497,
          "duration": 0.13382346250000055
        },
        {
          "name": "E4",
          "midi": 64,
          "time": 17.64705000000002,
          "velocity": 0.7874015748031497,
          "duration": 0.161764625
        },
        {
          "name": "E3",
          "midi": 52,
          "time": 17.64705000000002,
          "velocity": 0.7874015748031497,
          "duration": 0.13308816874999962
        },
        {
          "name": "E4",
          "midi": 64,
          "time": 17.82793226250002,
          "velocity": 0.7874015748031497,
          "duration": 0.17205873749999867
        },
        {
          "name": "E3",
          "midi": 52,
          "time": 17.82793226250002,
          "velocity": 0.7874015748031497,
          "duration": 0.1529410999999996
        },
        {
          "name": "E4",
          "midi": 64,
          "time": 17.99999100000002,
          "velocity": 0.7874015748031497,
          "duration": 0.161764625
        },
        {
          "name": "E3",
          "midi": 52,
          "time": 17.99999100000002,
          "velocity": 0.7874015748031497,
          "duration": 0.13308816874999962
        },
        {
          "name": "E4",
          "midi": 64,
          "time": 18.18087326250002,
          "velocity": 0.7874015748031497,
          "duration": 0.1529410999999996
        },
        {
          "name": "E3",
          "midi": 52,
          "time": 18.18087326250002,
          "velocity": 0.7874015748031497,
          "duration": 0.12426464374999924
        },
        {
          "name": "E4",
          "midi": 64,
          "time": 18.352932000000017,
          "velocity": 0.7874015748031497,
          "duration": 0.161764625
        },
        {
          "name": "E3",
          "midi": 52,
          "time": 18.352932000000017,
          "velocity": 0.7874015748031497,
          "duration": 0.13308816874999962
        },
        {
          "name": "E4",
          "midi": 64,
          "time": 18.533814262500016,
          "velocity": 0.7874015748031497,
          "duration": 0.17205873749999867
        },
        {
          "name": "E3",
          "midi": 52,
          "time": 18.533814262500016,
          "velocity": 0.7874015748031497,
          "duration": 0.1529410999999996
        },
        {
          "name": "E4",
          "midi": 64,
          "time": 18.705873000000015,
          "velocity": 0.7874015748031497,
          "duration": 0.161764625
        },
        {
          "name": "E3",
          "midi": 52,
          "time": 18.705873000000015,
          "velocity": 0.7874015748031497,
          "duration": 0.13308816874999962
        },
        {
          "name": "E4",
          "midi": 64,
          "time": 18.886755262500014,
          "velocity": 0.7874015748031497,
          "duration": 0.16249991875000092
        },
        {
          "name": "E3",
          "midi": 52,
          "time": 18.886755262500014,
          "velocity": 0.7874015748031497,
          "duration": 0.13382346250000055
        },
        {
          "name": "E4",
          "midi": 64,
          "time": 19.058814000000016,
          "velocity": 0.7874015748031497,
          "duration": 0.161764625
        },
        {
          "name": "E3",
          "midi": 52,
          "time": 19.058814000000016,
          "velocity": 0.7874015748031497,
          "duration": 0.13308816874999962
        },
        {
          "name": "E4",
          "midi": 64,
          "time": 19.239696262500015,
          "velocity": 0.7874015748031497,
          "duration": 0.17205873749999867
        },
        {
          "name": "E3",
          "midi": 52,
          "time": 19.239696262500015,
          "velocity": 0.7874015748031497,
          "duration": 0.1529410999999996
        },
        {
          "name": "E4",
          "midi": 64,
          "time": 19.411755000000014,
          "velocity": 0.7874015748031497,
          "duration": 0.161764625
        },
        {
          "name": "E3",
          "midi": 52,
          "time": 19.411755000000014,
          "velocity": 0.7874015748031497,
          "duration": 0.13308816874999962
        },
        {
          "name": "E4",
          "midi": 64,
          "time": 19.592637262500013,
          "velocity": 0.7874015748031497,
          "duration": 0.16249991875000092
        },
        {
          "name": "E3",
          "midi": 52,
          "time": 19.592637262500013,
          "velocity": 0.7874015748031497,
          "duration": 0.13382346250000055
        },
        {
          "name": "D4",
          "midi": 62,
          "time": 19.764696000000015,
          "velocity": 0.7874015748031497,
          "duration": 0.161764625
        },
        {
          "name": "D3",
          "midi": 50,
          "time": 19.764696000000015,
          "velocity": 0.7874015748031497,
          "duration": 0.161764625
        },
        {
          "name": "D4",
          "midi": 62,
          "time": 19.945578262500014,
          "velocity": 0.7874015748031497,
          "duration": 0.17205873749999867
        },
        {
          "name": "D3",
          "midi": 50,
          "time": 19.945578262500014,
          "velocity": 0.7874015748031497,
          "duration": 0.17205873749999867
        },
        {
          "name": "D4",
          "midi": 62,
          "time": 20.117637000000013,
          "velocity": 0.7874015748031497,
          "duration": 0.161764625
        },
        {
          "name": "D3",
          "midi": 50,
          "time": 20.117637000000013,
          "velocity": 0.7874015748031497,
          "duration": 0.161764625
        },
        {
          "name": "D4",
          "midi": 62,
          "time": 20.29851926250001,
          "velocity": 0.7874015748031497,
          "duration": 0.16249991875000092
        },
        {
          "name": "D3",
          "midi": 50,
          "time": 20.29851926250001,
          "velocity": 0.7874015748031497,
          "duration": 0.16249991875000092
        },
        {
          "name": "D4",
          "midi": 62,
          "time": 20.470578000000014,
          "velocity": 0.7874015748031497,
          "duration": 0.161764625
        },
        {
          "name": "D3",
          "midi": 50,
          "time": 20.470578000000014,
          "velocity": 0.7874015748031497,
          "duration": 0.161764625
        },
        {
          "name": "D4",
          "midi": 62,
          "time": 20.651460262500013,
          "velocity": 0.7874015748031497,
          "duration": 0.17205873749999867
        },
        {
          "name": "D3",
          "midi": 50,
          "time": 20.651460262500013,
          "velocity": 0.7874015748031497,
          "duration": 0.17205873749999867
        },
        {
          "name": "D4",
          "midi": 62,
          "time": 20.82351900000001,
          "velocity": 0.7874015748031497,
          "duration": 0.161764625
        },
        {
          "name": "D3",
          "midi": 50,
          "time": 20.82351900000001,
          "velocity": 0.7874015748031497,
          "duration": 0.161764625
        },
        {
          "name": "D4",
          "midi": 62,
          "time": 21.00440126250001,
          "velocity": 0.7874015748031497,
          "duration": 0.1529410999999996
        },
        {
          "name": "D3",
          "midi": 50,
          "time": 21.00440126250001,
          "velocity": 0.7874015748031497,
          "duration": 0.1529410999999996
        },
        {
          "name": "G4",
          "midi": 67,
          "time": 21.17646000000001,
          "velocity": 0.7874015748031497,
          "duration": 0.17647050000000064
        },
        {
          "name": "G3",
          "midi": 55,
          "time": 21.17646000000001,
          "velocity": 0.7874015748031497,
          "duration": 0.17647050000000064
        },
        {
          "name": "D4",
          "midi": 62,
          "time": 21.35734226250001,
          "velocity": 0.7874015748031497,
          "duration": 0.5058821000000009
        },
        {
          "name": "D3",
          "midi": 50,
          "time": 21.35734226250001,
          "velocity": 0.7874015748031497,
          "duration": 0.5058821000000009
        },
        {
          "name": "E4",
          "midi": 64,
          "time": 21.88234200000001,
          "velocity": 0.7874015748031497,
          "duration": 0.3147057249999996
        },
        {
          "name": "E3",
          "midi": 52,
          "time": 21.88234200000001,
          "velocity": 0.7874015748031497,
          "duration": 0.28602926874999923
        },
        {
          "name": "D4",
          "midi": 62,
          "time": 22.23528300000001,
          "velocity": 0.7874015748031497,
          "duration": 0.17647050000000064
        },
        {
          "name": "D3",
          "midi": 50,
          "time": 22.23528300000001,
          "velocity": 0.7874015748031497,
          "duration": 0.17647050000000064
        },
        {
          "name": "E4",
          "midi": 64,
          "time": 22.41616526250001,
          "velocity": 0.7874015748031497,
          "duration": 0.13382346250000055
        },
        {
          "name": "E3",
          "midi": 52,
          "time": 22.41616526250001,
          "velocity": 0.7874015748031497,
          "duration": 0.10514700625000017
        },
        {
          "name": "E4",
          "midi": 64,
          "time": 22.597047525000008,
          "velocity": 0.8661417322834646,
          "duration": 1.411763999999998
        },
        {
          "name": "E3",
          "midi": 52,
          "time": 22.597047525000008,
          "velocity": 0.8661417322834646,
          "duration": 1.3838228374999986
        },
        {
          "name": "C3",
          "midi": 48,
          "time": 23.999988000000005,
          "velocity": 0.8661417322834646,
          "duration": 0.705881999999999
        },
        {
          "name": "C4",
          "midi": 60,
          "time": 23.999988000000005,
          "velocity": 0.8661417322834646,
          "duration": 0.705881999999999
        },
        {
          "name": "D3",
          "midi": 50,
          "time": 24.705870000000004,
          "velocity": 0.8661417322834646,
          "duration": 0.705881999999999
        },
        {
          "name": "D4",
          "midi": 62,
          "time": 24.705870000000004,
          "velocity": 0.8661417322834646,
          "duration": 0.705881999999999
        },
        {
          "name": "E4",
          "midi": 64,
          "time": 25.411752000000003,
          "velocity": 0.7874015748031497,
          "duration": 0.161764625
        },
        {
          "name": "E3",
          "midi": 52,
          "time": 25.411752000000003,
          "velocity": 0.7874015748031497,
          "duration": 0.13308816874999962
        },
        {
          "name": "E4",
          "midi": 64,
          "time": 25.592634262500003,
          "velocity": 0.7874015748031497,
          "duration": 0.17205873749999867
        },
        {
          "name": "E3",
          "midi": 52,
          "time": 25.592634262500003,
          "velocity": 0.7874015748031497,
          "duration": 0.1529410999999996
        },
        {
          "name": "E4",
          "midi": 64,
          "time": 25.764693,
          "velocity": 0.7874015748031497,
          "duration": 0.161764625
        },
        {
          "name": "E3",
          "midi": 52,
          "time": 25.764693,
          "velocity": 0.7874015748031497,
          "duration": 0.13308816874999962
        },
        {
          "name": "E4",
          "midi": 64,
          "time": 25.9455752625,
          "velocity": 0.7874015748031497,
          "duration": 0.16249991875000092
        },
        {
          "name": "E3",
          "midi": 52,
          "time": 25.9455752625,
          "velocity": 0.7874015748031497,
          "duration": 0.13382346250000055
        },
        {
          "name": "E4",
          "midi": 64,
          "time": 26.117634000000002,
          "velocity": 0.7874015748031497,
          "duration": 0.161764625
        },
        {
          "name": "E3",
          "midi": 52,
          "time": 26.117634000000002,
          "velocity": 0.7874015748031497,
          "duration": 0.13308816874999962
        },
        {
          "name": "E4",
          "midi": 64,
          "time": 26.2985162625,
          "velocity": 0.7874015748031497,
          "duration": 0.17205873749999867
        },
        {
          "name": "E3",
          "midi": 52,
          "time": 26.2985162625,
          "velocity": 0.7874015748031497,
          "duration": 0.1529410999999996
        },
        {
          "name": "E4",
          "midi": 64,
          "time": 26.470575,
          "velocity": 0.7874015748031497,
          "duration": 0.161764625
        },
        {
          "name": "E3",
          "midi": 52,
          "time": 26.470575,
          "velocity": 0.7874015748031497,
          "duration": 0.13308816874999962
        },
        {
          "name": "E4",
          "midi": 64,
          "time": 26.6514572625,
          "velocity": 0.7874015748031497,
          "duration": 0.1529410999999996
        },
        {
          "name": "E3",
          "midi": 52,
          "time": 26.6514572625,
          "velocity": 0.7874015748031497,
          "duration": 0.12426464374999924
        },
        {
          "name": "E4",
          "midi": 64,
          "time": 26.823515999999998,
          "velocity": 0.7874015748031497,
          "duration": 0.161764625
        },
        {
          "name": "E3",
          "midi": 52,
          "time": 26.823515999999998,
          "velocity": 0.7874015748031497,
          "duration": 0.13308816874999962
        },
        {
          "name": "E4",
          "midi": 64,
          "time": 27.004398262499997,
          "velocity": 0.7874015748031497,
          "duration": 0.17205873749999867
        },
        {
          "name": "E3",
          "midi": 52,
          "time": 27.004398262499997,
          "velocity": 0.7874015748031497,
          "duration": 0.1529410999999996
        },
        {
          "name": "E4",
          "midi": 64,
          "time": 27.176456999999996,
          "velocity": 0.7874015748031497,
          "duration": 0.161764625
        },
        {
          "name": "E3",
          "midi": 52,
          "time": 27.176456999999996,
          "velocity": 0.7874015748031497,
          "duration": 0.13308816874999962
        },
        {
          "name": "E4",
          "midi": 64,
          "time": 27.357339262499995,
          "velocity": 0.7874015748031497,
          "duration": 0.16249991875000092
        },
        {
          "name": "E3",
          "midi": 52,
          "time": 27.357339262499995,
          "velocity": 0.7874015748031497,
          "duration": 0.13382346250000055
        },
        {
          "name": "E4",
          "midi": 64,
          "time": 27.529397999999997,
          "velocity": 0.7874015748031497,
          "duration": 0.161764625
        },
        {
          "name": "E3",
          "midi": 52,
          "time": 27.529397999999997,
          "velocity": 0.7874015748031497,
          "duration": 0.13308816874999962
        },
        {
          "name": "E4",
          "midi": 64,
          "time": 27.710280262499996,
          "velocity": 0.7874015748031497,
          "duration": 0.17205873749999867
        },
        {
          "name": "E3",
          "midi": 52,
          "time": 27.710280262499996,
          "velocity": 0.7874015748031497,
          "duration": 0.1529410999999996
        },
        {
          "name": "E4",
          "midi": 64,
          "time": 27.882338999999995,
          "velocity": 0.7874015748031497,
          "duration": 0.161764625
        },
        {
          "name": "E3",
          "midi": 52,
          "time": 27.882338999999995,
          "velocity": 0.7874015748031497,
          "duration": 0.13308816874999962
        },
        {
          "name": "D3",
          "midi": 50,
          "time": 28.063221262499994,
          "velocity": 0.7874015748031497,
          "duration": 0.1529410999999996
        },
        {
          "name": "D4",
          "midi": 62,
          "time": 28.063221262499994,
          "velocity": 0.7874015748031497,
          "duration": 0.1529410999999996
        },
        {
          "name": "E4",
          "midi": 64,
          "time": 28.244103524999993,
          "velocity": 0.8661417322834646,
          "duration": 1.411763999999998
        },
        {
          "name": "E3",
          "midi": 52,
          "time": 28.244103524999993,
          "velocity": 0.8661417322834646,
          "duration": 1.3838228374999986
        },
        {
          "name": "C3",
          "midi": 48,
          "time": 29.64704399999999,
          "velocity": 0.8661417322834646,
          "duration": 0.705881999999999
        },
        {
          "name": "C4",
          "midi": 60,
          "time": 29.64704399999999,
          "velocity": 0.8661417322834646,
          "duration": 0.705881999999999
        },
        {
          "name": "D3",
          "midi": 50,
          "time": 30.35292599999999,
          "velocity": 0.8661417322834646,
          "duration": 0.705881999999999
        },
        {
          "name": "D4",
          "midi": 62,
          "time": 30.35292599999999,
          "velocity": 0.8661417322834646,
          "duration": 0.705881999999999
        },
        {
          "name": "E4",
          "midi": 64,
          "time": 31.05880799999999,
          "velocity": 0.7874015748031497,
          "duration": 0.161764625
        },
        {
          "name": "E3",
          "midi": 52,
          "time": 31.05880799999999,
          "velocity": 0.7874015748031497,
          "duration": 0.13308816874999962
        },
        {
          "name": "E4",
          "midi": 64,
          "time": 31.239690262499987,
          "velocity": 0.7874015748031497,
          "duration": 0.17205873749999867
        },
        {
          "name": "E3",
          "midi": 52,
          "time": 31.239690262499987,
          "velocity": 0.7874015748031497,
          "duration": 0.1529410999999996
        },
        {
          "name": "E4",
          "midi": 64,
          "time": 31.411748999999986,
          "velocity": 0.7874015748031497,
          "duration": 0.161764625
        },
        {
          "name": "E3",
          "midi": 52,
          "time": 31.411748999999986,
          "velocity": 0.7874015748031497,
          "duration": 0.13308816874999962
        },
        {
          "name": "E4",
          "midi": 64,
          "time": 31.592631262499985,
          "velocity": 0.7874015748031497,
          "duration": 0.16249991875000092
        },
        {
          "name": "E3",
          "midi": 52,
          "time": 31.592631262499985,
          "velocity": 0.7874015748031497,
          "duration": 0.13382346250000055
        },
        {
          "name": "E4",
          "midi": 64,
          "time": 31.764689999999987,
          "velocity": 0.7874015748031497,
          "duration": 0.161764625
        },
        {
          "name": "E3",
          "midi": 52,
          "time": 31.764689999999987,
          "velocity": 0.7874015748031497,
          "duration": 0.13308816874999962
        },
        {
          "name": "E4",
          "midi": 64,
          "time": 31.945572262499986,
          "velocity": 0.7874015748031497,
          "duration": 0.17205873750000222
        },
        {
          "name": "E3",
          "midi": 52,
          "time": 31.945572262499986,
          "velocity": 0.7874015748031497,
          "duration": 0.1529410999999996
        },
        {
          "name": "E4",
          "midi": 64,
          "time": 32.11763099999999,
          "velocity": 0.7874015748031497,
          "duration": 0.16176462499999644
        },
        {
          "name": "E3",
          "midi": 52,
          "time": 32.11763099999999,
          "velocity": 0.7874015748031497,
          "duration": 0.13308816874999962
        },
        {
          "name": "E4",
          "midi": 64,
          "time": 32.29851326249999,
          "velocity": 0.7874015748031497,
          "duration": 0.1529410999999996
        },
        {
          "name": "E3",
          "midi": 52,
          "time": 32.29851326249999,
          "velocity": 0.7874015748031497,
          "duration": 0.12426464375000279
        },
        {
          "name": "E4",
          "midi": 64,
          "time": 32.47057199999999,
          "velocity": 0.7874015748031497,
          "duration": 0.16176462499999644
        },
        {
          "name": "E3",
          "midi": 52,
          "time": 32.47057199999999,
          "velocity": 0.7874015748031497,
          "duration": 0.13308816874999962
        },
        {
          "name": "E4",
          "midi": 64,
          "time": 32.65145426249999,
          "velocity": 0.7874015748031497,
          "duration": 0.17205873750000222
        },
        {
          "name": "E3",
          "midi": 52,
          "time": 32.65145426249999,
          "velocity": 0.7874015748031497,
          "duration": 0.1529410999999996
        },
        {
          "name": "E4",
          "midi": 64,
          "time": 32.82351299999999,
          "velocity": 0.7874015748031497,
          "duration": 0.16176462499999644
        },
        {
          "name": "E3",
          "midi": 52,
          "time": 32.82351299999999,
          "velocity": 0.7874015748031497,
          "duration": 0.13308816874999962
        },
        {
          "name": "E4",
          "midi": 64,
          "time": 33.00439526249999,
          "velocity": 0.7874015748031497,
          "duration": 0.1624999187499938
        },
        {
          "name": "E3",
          "midi": 52,
          "time": 33.00439526249999,
          "velocity": 0.7874015748031497,
          "duration": 0.133823462499997
        },
        {
          "name": "E4",
          "midi": 64,
          "time": 33.176453999999985,
          "velocity": 0.7874015748031497,
          "duration": 0.16176462499999644
        },
        {
          "name": "E3",
          "midi": 52,
          "time": 33.176453999999985,
          "velocity": 0.7874015748031497,
          "duration": 0.13308816874999962
        },
        {
          "name": "E4",
          "midi": 64,
          "time": 33.357336262499985,
          "velocity": 0.7874015748031497,
          "duration": 0.17205873750000222
        },
        {
          "name": "E3",
          "midi": 52,
          "time": 33.357336262499985,
          "velocity": 0.7874015748031497,
          "duration": 0.1529410999999996
        },
        {
          "name": "E4",
          "midi": 64,
          "time": 33.52939499999999,
          "velocity": 0.7874015748031497,
          "duration": 0.16176462499999644
        },
        {
          "name": "E3",
          "midi": 52,
          "time": 33.52939499999999,
          "velocity": 0.7874015748031497,
          "duration": 0.13308816874999962
        },
        {
          "name": "D3",
          "midi": 50,
          "time": 33.710277262499986,
          "velocity": 0.7874015748031497,
          "duration": 0.1529410999999996
        },
        {
          "name": "D4",
          "midi": 62,
          "time": 33.710277262499986,
          "velocity": 0.7874015748031497,
          "duration": 0.1529410999999996
        },
        {
          "name": "E4",
          "midi": 64,
          "time": 33.88233599999999,
          "velocity": 0.7874015748031497,
          "duration": 0.16176462499999644
        },
        {
          "name": "E3",
          "midi": 52,
          "time": 33.88233599999999,
          "velocity": 0.7874015748031497,
          "duration": 0.13308816874999962
        },
        {
          "name": "E4",
          "midi": 64,
          "time": 34.06321826249999,
          "velocity": 0.7874015748031497,
          "duration": 0.17205873750000222
        },
        {
          "name": "E3",
          "midi": 52,
          "time": 34.06321826249999,
          "velocity": 0.7874015748031497,
          "duration": 0.1529410999999996
        },
        {
          "name": "E4",
          "midi": 64,
          "time": 34.23527699999999,
          "velocity": 0.7874015748031497,
          "duration": 0.16176462499999644
        },
        {
          "name": "E3",
          "midi": 52,
          "time": 34.23527699999999,
          "velocity": 0.7874015748031497,
          "duration": 0.13308816874999962
        },
        {
          "name": "E4",
          "midi": 64,
          "time": 34.41615926249999,
          "velocity": 0.7874015748031497,
          "duration": 0.1624999187499938
        },
        {
          "name": "E3",
          "midi": 52,
          "time": 34.41615926249999,
          "velocity": 0.7874015748031497,
          "duration": 0.133823462499997
        },
        {
          "name": "E4",
          "midi": 64,
          "time": 34.58821799999998,
          "velocity": 0.7874015748031497,
          "duration": 0.16176462499999644
        },
        {
          "name": "E3",
          "midi": 52,
          "time": 34.58821799999998,
          "velocity": 0.7874015748031497,
          "duration": 0.13308816874999962
        },
        {
          "name": "E4",
          "midi": 64,
          "time": 34.76910026249998,
          "velocity": 0.7874015748031497,
          "duration": 0.17205873750000222
        },
        {
          "name": "E3",
          "midi": 52,
          "time": 34.76910026249998,
          "velocity": 0.7874015748031497,
          "duration": 0.1529410999999996
        },
        {
          "name": "E4",
          "midi": 64,
          "time": 34.941158999999985,
          "velocity": 0.7874015748031497,
          "duration": 0.16176462499999644
        },
        {
          "name": "E3",
          "midi": 52,
          "time": 34.941158999999985,
          "velocity": 0.7874015748031497,
          "duration": 0.13308816874999962
        },
        {
          "name": "E4",
          "midi": 64,
          "time": 35.122041262499984,
          "velocity": 0.7874015748031497,
          "duration": 0.1529410999999996
        },
        {
          "name": "E3",
          "midi": 52,
          "time": 35.122041262499984,
          "velocity": 0.7874015748031497,
          "duration": 0.12426464375000279
        },
        {
          "name": "E4",
          "midi": 64,
          "time": 35.294099999999986,
          "velocity": 0.7874015748031497,
          "duration": 0.16176462499999644
        },
        {
          "name": "E3",
          "midi": 52,
          "time": 35.294099999999986,
          "velocity": 0.7874015748031497,
          "duration": 0.13308816874999962
        },
        {
          "name": "E4",
          "midi": 64,
          "time": 35.474982262499985,
          "velocity": 0.7874015748031497,
          "duration": 0.17205873750000222
        },
        {
          "name": "E3",
          "midi": 52,
          "time": 35.474982262499985,
          "velocity": 0.7874015748031497,
          "duration": 0.1529410999999996
        },
        {
          "name": "E4",
          "midi": 64,
          "time": 35.64704099999999,
          "velocity": 0.7874015748031497,
          "duration": 0.16176462499999644
        },
        {
          "name": "E3",
          "midi": 52,
          "time": 35.64704099999999,
          "velocity": 0.7874015748031497,
          "duration": 0.13308816874999962
        },
        {
          "name": "E4",
          "midi": 64,
          "time": 35.827923262499986,
          "velocity": 0.7874015748031497,
          "duration": 0.1624999187499938
        },
        {
          "name": "E3",
          "midi": 52,
          "time": 35.827923262499986,
          "velocity": 0.7874015748031497,
          "duration": 0.133823462499997
        },
        {
          "name": "E4",
          "midi": 64,
          "time": 35.99998199999998,
          "velocity": 0.7874015748031497,
          "duration": 0.16176462499999644
        },
        {
          "name": "E3",
          "midi": 52,
          "time": 35.99998199999998,
          "velocity": 0.7874015748031497,
          "duration": 0.13308816874999962
        },
        {
          "name": "E4",
          "midi": 64,
          "time": 36.18086426249998,
          "velocity": 0.7874015748031497,
          "duration": 0.17205873750000222
        },
        {
          "name": "E3",
          "midi": 52,
          "time": 36.18086426249998,
          "velocity": 0.7874015748031497,
          "duration": 0.1529410999999996
        },
        {
          "name": "E4",
          "midi": 64,
          "time": 36.35292299999998,
          "velocity": 0.7874015748031497,
          "duration": 0.16176462499999644
        },
        {
          "name": "E3",
          "midi": 52,
          "time": 36.35292299999998,
          "velocity": 0.7874015748031497,
          "duration": 0.13308816874999962
        },
        {
          "name": "E4",
          "midi": 64,
          "time": 36.53380526249998,
          "velocity": 0.7874015748031497,
          "duration": 0.1624999187499938
        },
        {
          "name": "E3",
          "midi": 52,
          "time": 36.53380526249998,
          "velocity": 0.7874015748031497,
          "duration": 0.133823462499997
        },
        {
          "name": "D4",
          "midi": 62,
          "time": 36.70586399999998,
          "velocity": 0.7874015748031497,
          "duration": 0.16176462500000355
        },
        {
          "name": "D3",
          "midi": 50,
          "time": 36.70586399999998,
          "velocity": 0.7874015748031497,
          "duration": 0.16176462500000355
        },
        {
          "name": "D4",
          "midi": 62,
          "time": 36.88674626249998,
          "velocity": 0.7874015748031497,
          "duration": 0.17205873750000222
        },
        {
          "name": "D3",
          "midi": 50,
          "time": 36.88674626249998,
          "velocity": 0.7874015748031497,
          "duration": 0.17205873750000222
        },
        {
          "name": "D4",
          "midi": 62,
          "time": 37.058804999999985,
          "velocity": 0.7874015748031497,
          "duration": 0.16176462499999644
        },
        {
          "name": "D3",
          "midi": 50,
          "time": 37.058804999999985,
          "velocity": 0.7874015748031497,
          "duration": 0.16176462499999644
        },
        {
          "name": "D4",
          "midi": 62,
          "time": 37.239687262499984,
          "velocity": 0.7874015748031497,
          "duration": 0.16249991875000092
        },
        {
          "name": "D3",
          "midi": 50,
          "time": 37.239687262499984,
          "velocity": 0.7874015748031497,
          "duration": 0.16249991875000092
        },
        {
          "name": "D4",
          "midi": 62,
          "time": 37.41174599999999,
          "velocity": 0.7874015748031497,
          "duration": 0.16176462499999644
        },
        {
          "name": "D3",
          "midi": 50,
          "time": 37.41174599999999,
          "velocity": 0.7874015748031497,
          "duration": 0.16176462499999644
        },
        {
          "name": "D4",
          "midi": 62,
          "time": 37.592628262499986,
          "velocity": 0.7874015748031497,
          "duration": 0.17205873750000222
        },
        {
          "name": "D3",
          "midi": 50,
          "time": 37.592628262499986,
          "velocity": 0.7874015748031497,
          "duration": 0.17205873750000222
        },
        {
          "name": "D4",
          "midi": 62,
          "time": 37.76468699999999,
          "velocity": 0.7874015748031497,
          "duration": 0.16176462499999644
        },
        {
          "name": "D3",
          "midi": 50,
          "time": 37.76468699999999,
          "velocity": 0.7874015748031497,
          "duration": 0.16176462499999644
        },
        {
          "name": "D4",
          "midi": 62,
          "time": 37.94556926249999,
          "velocity": 0.7874015748031497,
          "duration": 0.1529410999999996
        },
        {
          "name": "D3",
          "midi": 50,
          "time": 37.94556926249999,
          "velocity": 0.7874015748031497,
          "duration": 0.1529410999999996
        },
        {
          "name": "G4",
          "midi": 67,
          "time": 38.11762799999999,
          "velocity": 0.7874015748031497,
          "duration": 0.17647050000000064
        },
        {
          "name": "G3",
          "midi": 55,
          "time": 38.11762799999999,
          "velocity": 0.7874015748031497,
          "duration": 0.17647050000000064
        },
        {
          "name": "D4",
          "midi": 62,
          "time": 38.29851026249999,
          "velocity": 0.7874015748031497,
          "duration": 0.5058821000000009
        },
        {
          "name": "D3",
          "midi": 50,
          "time": 38.29851026249999,
          "velocity": 0.7874015748031497,
          "duration": 0.5058821000000009
        },
        {
          "name": "E4",
          "midi": 64,
          "time": 38.82350999999999,
          "velocity": 0.7874015748031497,
          "duration": 0.31470572499999605
        },
        {
          "name": "E3",
          "midi": 52,
          "time": 38.82350999999999,
          "velocity": 0.7874015748031497,
          "duration": 0.28602926874999923
        },
        {
          "name": "D4",
          "midi": 62,
          "time": 39.176450999999986,
          "velocity": 0.7874015748031497,
          "duration": 0.17647050000000064
        },
        {
          "name": "D3",
          "midi": 50,
          "time": 39.176450999999986,
          "velocity": 0.7874015748031497,
          "duration": 0.17647050000000064
        },
        {
          "name": "E4",
          "midi": 64,
          "time": 39.357333262499985,
          "velocity": 0.7874015748031497,
          "duration": 0.133823462499997
        },
        {
          "name": "E3",
          "midi": 52,
          "time": 39.357333262499985,
          "velocity": 0.7874015748031497,
          "duration": 0.10514700625000017
        },
        {
          "name": "E4",
          "midi": 64,
          "time": 39.52939199999998,
          "velocity": 0.7874015748031497,
          "duration": 0.16176462499999644
        },
        {
          "name": "E3",
          "midi": 52,
          "time": 39.52939199999998,
          "velocity": 0.7874015748031497,
          "duration": 0.13308816874999962
        },
        {
          "name": "E4",
          "midi": 64,
          "time": 39.71027426249998,
          "velocity": 0.7874015748031497,
          "duration": 0.17205873750000222
        },
        {
          "name": "E3",
          "midi": 52,
          "time": 39.71027426249998,
          "velocity": 0.7874015748031497,
          "duration": 0.1529410999999996
        },
        {
          "name": "E4",
          "midi": 64,
          "time": 39.88233299999998,
          "velocity": 0.7874015748031497,
          "duration": 0.16176462499999644
        },
        {
          "name": "E3",
          "midi": 52,
          "time": 39.88233299999998,
          "velocity": 0.7874015748031497,
          "duration": 0.13308816874999962
        },
        {
          "name": "E4",
          "midi": 64,
          "time": 40.06321526249998,
          "velocity": 0.7874015748031497,
          "duration": 0.1624999187499938
        },
        {
          "name": "E3",
          "midi": 52,
          "time": 40.06321526249998,
          "velocity": 0.7874015748031497,
          "duration": 0.133823462499997
        },
        {
          "name": "E4",
          "midi": 64,
          "time": 40.235273999999976,
          "velocity": 0.7874015748031497,
          "duration": 0.16176462499999644
        },
        {
          "name": "E3",
          "midi": 52,
          "time": 40.235273999999976,
          "velocity": 0.7874015748031497,
          "duration": 0.13308816874999962
        },
        {
          "name": "E4",
          "midi": 64,
          "time": 40.416156262499975,
          "velocity": 0.7874015748031497,
          "duration": 0.17205873750000222
        },
        {
          "name": "E3",
          "midi": 52,
          "time": 40.416156262499975,
          "velocity": 0.7874015748031497,
          "duration": 0.1529410999999996
        },
        {
          "name": "E4",
          "midi": 64,
          "time": 40.58821499999998,
          "velocity": 0.7874015748031497,
          "duration": 0.16176462499999644
        },
        {
          "name": "E3",
          "midi": 52,
          "time": 40.58821499999998,
          "velocity": 0.7874015748031497,
          "duration": 0.13308816874999962
        },
        {
          "name": "E4",
          "midi": 64,
          "time": 40.769097262499976,
          "velocity": 0.7874015748031497,
          "duration": 0.1529410999999996
        },
        {
          "name": "E3",
          "midi": 52,
          "time": 40.769097262499976,
          "velocity": 0.7874015748031497,
          "duration": 0.12426464375000279
        },
        {
          "name": "E4",
          "midi": 64,
          "time": 40.94115599999998,
          "velocity": 0.7874015748031497,
          "duration": 0.16176462499999644
        },
        {
          "name": "E3",
          "midi": 52,
          "time": 40.94115599999998,
          "velocity": 0.7874015748031497,
          "duration": 0.13308816874999962
        },
        {
          "name": "E4",
          "midi": 64,
          "time": 41.12203826249998,
          "velocity": 0.7874015748031497,
          "duration": 0.17205873750000222
        },
        {
          "name": "E3",
          "midi": 52,
          "time": 41.12203826249998,
          "velocity": 0.7874015748031497,
          "duration": 0.1529410999999996
        },
        {
          "name": "E4",
          "midi": 64,
          "time": 41.29409699999998,
          "velocity": 0.7874015748031497,
          "duration": 0.16176462499999644
        },
        {
          "name": "E3",
          "midi": 52,
          "time": 41.29409699999998,
          "velocity": 0.7874015748031497,
          "duration": 0.13308816874999962
        },
        {
          "name": "E4",
          "midi": 64,
          "time": 41.47497926249998,
          "velocity": 0.7874015748031497,
          "duration": 0.1624999187499938
        },
        {
          "name": "E3",
          "midi": 52,
          "time": 41.47497926249998,
          "velocity": 0.7874015748031497,
          "duration": 0.133823462499997
        },
        {
          "name": "E4",
          "midi": 64,
          "time": 41.647037999999974,
          "velocity": 0.7874015748031497,
          "duration": 0.16176462499999644
        },
        {
          "name": "E3",
          "midi": 52,
          "time": 41.647037999999974,
          "velocity": 0.7874015748031497,
          "duration": 0.13308816874999962
        },
        {
          "name": "E4",
          "midi": 64,
          "time": 41.82792026249997,
          "velocity": 0.7874015748031497,
          "duration": 0.17205873750000222
        },
        {
          "name": "E3",
          "midi": 52,
          "time": 41.82792026249997,
          "velocity": 0.7874015748031497,
          "duration": 0.1529410999999996
        },
        {
          "name": "E4",
          "midi": 64,
          "time": 41.999978999999975,
          "velocity": 0.7874015748031497,
          "duration": 0.16176462499999644
        },
        {
          "name": "E3",
          "midi": 52,
          "time": 41.999978999999975,
          "velocity": 0.7874015748031497,
          "duration": 0.13308816874999962
        },
        {
          "name": "E4",
          "midi": 64,
          "time": 42.180861262499974,
          "velocity": 0.7874015748031497,
          "duration": 0.1624999187499938
        },
        {
          "name": "E3",
          "midi": 52,
          "time": 42.180861262499974,
          "velocity": 0.7874015748031497,
          "duration": 0.133823462499997
        },
        {
          "name": "D4",
          "midi": 62,
          "time": 42.35291999999997,
          "velocity": 0.7874015748031497,
          "duration": 0.16176462500000355
        },
        {
          "name": "D3",
          "midi": 50,
          "time": 42.35291999999997,
          "velocity": 0.7874015748031497,
          "duration": 0.16176462500000355
        },
        {
          "name": "D4",
          "midi": 62,
          "time": 42.533802262499975,
          "velocity": 0.7874015748031497,
          "duration": 0.17205873750000222
        },
        {
          "name": "D3",
          "midi": 50,
          "time": 42.533802262499975,
          "velocity": 0.7874015748031497,
          "duration": 0.17205873750000222
        },
        {
          "name": "D4",
          "midi": 62,
          "time": 42.70586099999998,
          "velocity": 0.7874015748031497,
          "duration": 0.16176462499999644
        },
        {
          "name": "D3",
          "midi": 50,
          "time": 42.70586099999998,
          "velocity": 0.7874015748031497,
          "duration": 0.16176462499999644
        },
        {
          "name": "D4",
          "midi": 62,
          "time": 42.88674326249998,
          "velocity": 0.7874015748031497,
          "duration": 0.16249991875000092
        },
        {
          "name": "D3",
          "midi": 50,
          "time": 42.88674326249998,
          "velocity": 0.7874015748031497,
          "duration": 0.16249991875000092
        },
        {
          "name": "D4",
          "midi": 62,
          "time": 43.05880199999998,
          "velocity": 0.7874015748031497,
          "duration": 0.16176462499999644
        },
        {
          "name": "D3",
          "midi": 50,
          "time": 43.05880199999998,
          "velocity": 0.7874015748031497,
          "duration": 0.16176462499999644
        },
        {
          "name": "D4",
          "midi": 62,
          "time": 43.23968426249998,
          "velocity": 0.7874015748031497,
          "duration": 0.17205873750000222
        },
        {
          "name": "D3",
          "midi": 50,
          "time": 43.23968426249998,
          "velocity": 0.7874015748031497,
          "duration": 0.17205873750000222
        },
        {
          "name": "D4",
          "midi": 62,
          "time": 43.41174299999998,
          "velocity": 0.7874015748031497,
          "duration": 0.16176462499999644
        },
        {
          "name": "D3",
          "midi": 50,
          "time": 43.41174299999998,
          "velocity": 0.7874015748031497,
          "duration": 0.16176462499999644
        },
        {
          "name": "D4",
          "midi": 62,
          "time": 43.59262526249998,
          "velocity": 0.7874015748031497,
          "duration": 0.1529410999999996
        },
        {
          "name": "D3",
          "midi": 50,
          "time": 43.59262526249998,
          "velocity": 0.7874015748031497,
          "duration": 0.1529410999999996
        },
        {
          "name": "G4",
          "midi": 67,
          "time": 43.76468399999998,
          "velocity": 0.7874015748031497,
          "duration": 0.17647050000000064
        },
        {
          "name": "G3",
          "midi": 55,
          "time": 43.76468399999998,
          "velocity": 0.7874015748031497,
          "duration": 0.17647050000000064
        },
        {
          "name": "D4",
          "midi": 62,
          "time": 43.94556626249998,
          "velocity": 0.7874015748031497,
          "duration": 0.5058821000000009
        },
        {
          "name": "D3",
          "midi": 50,
          "time": 43.94556626249998,
          "velocity": 0.7874015748031497,
          "duration": 0.5058821000000009
        },
        {
          "name": "E4",
          "midi": 64,
          "time": 44.470565999999984,
          "velocity": 0.7874015748031497,
          "duration": 0.31470572499999605
        },
        {
          "name": "E3",
          "midi": 52,
          "time": 44.470565999999984,
          "velocity": 0.7874015748031497,
          "duration": 0.28602926874999923
        },
        {
          "name": "D4",
          "midi": 62,
          "time": 44.82350699999998,
          "velocity": 0.7874015748031497,
          "duration": 0.17647050000000064
        },
        {
          "name": "D3",
          "midi": 50,
          "time": 44.82350699999998,
          "velocity": 0.7874015748031497,
          "duration": 0.17647050000000064
        },
        {
          "name": "E4",
          "midi": 64,
          "time": 45.00438926249998,
          "velocity": 0.7874015748031497,
          "duration": 0.133823462499997
        },
        {
          "name": "E3",
          "midi": 52,
          "time": 45.00438926249998,
          "velocity": 0.7874015748031497,
          "duration": 0.10514700625000017
        },
        {
          "name": "E4",
          "midi": 64,
          "time": 45.17644799999997,
          "velocity": 0.8661417322834646,
          "duration": 2.832351525
        },
        {
          "name": "E3",
          "midi": 52,
          "time": 45.17644799999997,
          "velocity": 0.8661417322834646,
          "duration": 2.8044103625000005
        },
        {
          "name": "D3",
          "midi": 50,
          "time": 47.999975999999975,
          "velocity": 0.8661417322834646,
          "duration": 2.823527999999996
        },
        {
          "name": "D4",
          "midi": 62,
          "time": 47.999975999999975,
          "velocity": 0.8661417322834646,
          "duration": 2.832351524999993
        },
        {
          "name": "E4",
          "midi": 64,
          "time": 50.82350399999997,
          "velocity": 0.8661417322834646,
          "duration": 2.832351524999993
        },
        {
          "name": "E3",
          "midi": 52,
          "time": 50.82350399999997,
          "velocity": 0.8661417322834646,
          "duration": 2.8044103624999934
        },
        {
          "name": "D4",
          "midi": 62,
          "time": 53.64703199999997,
          "velocity": 0.8661417322834646,
          "duration": 2.1176459999999935
        },
        {
          "name": "D3",
          "midi": 50,
          "time": 53.64703199999997,
          "velocity": 0.8661417322834646,
          "duration": 2.1176459999999935
        },
        {
          "name": "D3",
          "midi": 50,
          "time": 55.76467799999996,
          "velocity": 0.8661417322834646,
          "duration": 0.7058820000000026
        },
        {
          "name": "D4",
          "midi": 62,
          "time": 55.76467799999996,
          "velocity": 0.8661417322834646,
          "duration": 0.7058820000000026
        },
        {
          "name": "E4",
          "midi": 64,
          "time": 56.47055999999996,
          "velocity": 0.7874015748031497,
          "duration": 0.16176462499999644
        },
        {
          "name": "E3",
          "midi": 52,
          "time": 56.47055999999996,
          "velocity": 0.7874015748031497,
          "duration": 0.13308816874999962
        },
        {
          "name": "E4",
          "midi": 64,
          "time": 56.65144226249996,
          "velocity": 0.7874015748031497,
          "duration": 0.17205873750000222
        },
        {
          "name": "E3",
          "midi": 52,
          "time": 56.65144226249996,
          "velocity": 0.7874015748031497,
          "duration": 0.1529410999999996
        },
        {
          "name": "E4",
          "midi": 64,
          "time": 56.823500999999965,
          "velocity": 0.7874015748031497,
          "duration": 0.16176462499999644
        },
        {
          "name": "E3",
          "midi": 52,
          "time": 56.823500999999965,
          "velocity": 0.7874015748031497,
          "duration": 0.13308816874999962
        },
        {
          "name": "E4",
          "midi": 64,
          "time": 57.004383262499964,
          "velocity": 0.7874015748031497,
          "duration": 0.1624999187499938
        },
        {
          "name": "E3",
          "midi": 52,
          "time": 57.004383262499964,
          "velocity": 0.7874015748031497,
          "duration": 0.133823462499997
        },
        {
          "name": "E4",
          "midi": 64,
          "time": 57.17644199999996,
          "velocity": 0.7874015748031497,
          "duration": 0.16176462499999644
        },
        {
          "name": "E3",
          "midi": 52,
          "time": 57.17644199999996,
          "velocity": 0.7874015748031497,
          "duration": 0.13308816874999962
        },
        {
          "name": "E4",
          "midi": 64,
          "time": 57.35732426249996,
          "velocity": 0.7874015748031497,
          "duration": 0.17205873750000222
        },
        {
          "name": "E3",
          "midi": 52,
          "time": 57.35732426249996,
          "velocity": 0.7874015748031497,
          "duration": 0.1529410999999996
        },
        {
          "name": "E4",
          "midi": 64,
          "time": 57.52938299999996,
          "velocity": 0.7874015748031497,
          "duration": 0.16176462499999644
        },
        {
          "name": "E3",
          "midi": 52,
          "time": 57.52938299999996,
          "velocity": 0.7874015748031497,
          "duration": 0.13308816874999962
        },
        {
          "name": "E4",
          "midi": 64,
          "time": 57.71026526249996,
          "velocity": 0.7874015748031497,
          "duration": 0.1529410999999996
        },
        {
          "name": "E3",
          "midi": 52,
          "time": 57.71026526249996,
          "velocity": 0.7874015748031497,
          "duration": 0.12426464375000279
        },
        {
          "name": "E4",
          "midi": 64,
          "time": 57.88232399999996,
          "velocity": 0.7874015748031497,
          "duration": 0.16176462499999644
        },
        {
          "name": "E3",
          "midi": 52,
          "time": 57.88232399999996,
          "velocity": 0.7874015748031497,
          "duration": 0.13308816874999962
        },
        {
          "name": "E4",
          "midi": 64,
          "time": 58.06320626249996,
          "velocity": 0.7874015748031497,
          "duration": 0.17205873750000222
        },
        {
          "name": "E3",
          "midi": 52,
          "time": 58.06320626249996,
          "velocity": 0.7874015748031497,
          "duration": 0.1529410999999996
        },
        {
          "name": "E4",
          "midi": 64,
          "time": 58.23526499999996,
          "velocity": 0.7874015748031497,
          "duration": 0.16176462499999644
        },
        {
          "name": "E3",
          "midi": 52,
          "time": 58.23526499999996,
          "velocity": 0.7874015748031497,
          "duration": 0.13308816874999962
        },
        {
          "name": "E4",
          "midi": 64,
          "time": 58.41614726249996,
          "velocity": 0.7874015748031497,
          "duration": 0.1624999187499938
        },
        {
          "name": "E3",
          "midi": 52,
          "time": 58.41614726249996,
          "velocity": 0.7874015748031497,
          "duration": 0.133823462499997
        },
        {
          "name": "E4",
          "midi": 64,
          "time": 58.58820599999996,
          "velocity": 0.7874015748031497,
          "duration": 0.16176462499999644
        },
        {
          "name": "E3",
          "midi": 52,
          "time": 58.58820599999996,
          "velocity": 0.7874015748031497,
          "duration": 0.13308816874999962
        },
        {
          "name": "E4",
          "midi": 64,
          "time": 58.769088262499956,
          "velocity": 0.7874015748031497,
          "duration": 0.17205873750000222
        },
        {
          "name": "E3",
          "midi": 52,
          "time": 58.769088262499956,
          "velocity": 0.7874015748031497,
          "duration": 0.1529410999999996
        },
        {
          "name": "E4",
          "midi": 64,
          "time": 58.94114699999996,
          "velocity": 0.7874015748031497,
          "duration": 0.16176462499999644
        },
        {
          "name": "E3",
          "midi": 52,
          "time": 58.94114699999996,
          "velocity": 0.7874015748031497,
          "duration": 0.13308816874999962
        },
        {
          "name": "E4",
          "midi": 64,
          "time": 59.12202926249996,
          "velocity": 0.7874015748031497,
          "duration": 0.1624999187499938
        },
        {
          "name": "E3",
          "midi": 52,
          "time": 59.12202926249996,
          "velocity": 0.7874015748031497,
          "duration": 0.133823462499997
        },
        {
          "name": "D4",
          "midi": 62,
          "time": 59.29408799999995,
          "velocity": 0.7874015748031497,
          "duration": 0.16176462499999644
        },
        {
          "name": "D3",
          "midi": 50,
          "time": 59.29408799999995,
          "velocity": 0.7874015748031497,
          "duration": 0.16176462499999644
        },
        {
          "name": "D4",
          "midi": 62,
          "time": 59.47497026249995,
          "velocity": 0.7874015748031497,
          "duration": 0.17205873750000222
        },
        {
          "name": "D3",
          "midi": 50,
          "time": 59.47497026249995,
          "velocity": 0.7874015748031497,
          "duration": 0.17205873750000222
        },
        {
          "name": "D4",
          "midi": 62,
          "time": 59.647028999999954,
          "velocity": 0.7874015748031497,
          "duration": 0.16176462499999644
        },
        {
          "name": "D3",
          "midi": 50,
          "time": 59.647028999999954,
          "velocity": 0.7874015748031497,
          "duration": 0.16176462499999644
        },
        {
          "name": "D4",
          "midi": 62,
          "time": 59.82791126249995,
          "velocity": 0.7874015748031497,
          "duration": 0.16249991875000092
        },
        {
          "name": "D3",
          "midi": 50,
          "time": 59.82791126249995,
          "velocity": 0.7874015748031497,
          "duration": 0.16249991875000092
        },
        {
          "name": "D4",
          "midi": 62,
          "time": 59.999969999999955,
          "velocity": 0.7874015748031497,
          "duration": 0.16176462499999644
        },
        {
          "name": "D3",
          "midi": 50,
          "time": 59.999969999999955,
          "velocity": 0.7874015748031497,
          "duration": 0.16176462499999644
        },
        {
          "name": "D4",
          "midi": 62,
          "time": 60.180852262499954,
          "velocity": 0.7874015748031497,
          "duration": 0.17205873750000222
        },
        {
          "name": "D3",
          "midi": 50,
          "time": 60.180852262499954,
          "velocity": 0.7874015748031497,
          "duration": 0.17205873750000222
        },
        {
          "name": "D4",
          "midi": 62,
          "time": 60.352910999999956,
          "velocity": 0.7874015748031497,
          "duration": 0.16176462499999644
        },
        {
          "name": "D3",
          "midi": 50,
          "time": 60.352910999999956,
          "velocity": 0.7874015748031497,
          "duration": 0.16176462499999644
        },
        {
          "name": "D4",
          "midi": 62,
          "time": 60.533793262499955,
          "velocity": 0.7874015748031497,
          "duration": 0.1529410999999996
        },
        {
          "name": "D3",
          "midi": 50,
          "time": 60.533793262499955,
          "velocity": 0.7874015748031497,
          "duration": 0.1529410999999996
        },
        {
          "name": "G4",
          "midi": 67,
          "time": 60.70585199999996,
          "velocity": 0.7874015748031497,
          "duration": 0.17647050000000064
        },
        {
          "name": "G3",
          "midi": 55,
          "time": 60.70585199999996,
          "velocity": 0.7874015748031497,
          "duration": 0.17647050000000064
        },
        {
          "name": "D4",
          "midi": 62,
          "time": 60.88673426249996,
          "velocity": 0.7874015748031497,
          "duration": 0.5058821000000009
        },
        {
          "name": "D3",
          "midi": 50,
          "time": 60.88673426249996,
          "velocity": 0.7874015748031497,
          "duration": 0.5058821000000009
        },
        {
          "name": "E4",
          "midi": 64,
          "time": 61.41173399999996,
          "velocity": 0.7874015748031497,
          "duration": 0.31470572499999605
        },
        {
          "name": "E3",
          "midi": 52,
          "time": 61.41173399999996,
          "velocity": 0.7874015748031497,
          "duration": 0.28602926874999923
        },
        {
          "name": "D4",
          "midi": 62,
          "time": 61.764674999999954,
          "velocity": 0.7874015748031497,
          "duration": 0.17647050000000064
        },
        {
          "name": "D3",
          "midi": 50,
          "time": 61.764674999999954,
          "velocity": 0.7874015748031497,
          "duration": 0.17647050000000064
        },
        {
          "name": "E4",
          "midi": 64,
          "time": 61.94555726249995,
          "velocity": 0.7874015748031497,
          "duration": 0.133823462499997
        },
        {
          "name": "E3",
          "midi": 52,
          "time": 61.94555726249995,
          "velocity": 0.7874015748031497,
          "duration": 0.10514700625000017
        },
        {
          "name": "E4",
          "midi": 64,
          "time": 62.11761599999995,
          "velocity": 0.7874015748031497,
          "duration": 0.16176462499999644
        },
        {
          "name": "E3",
          "midi": 52,
          "time": 62.11761599999995,
          "velocity": 0.7874015748031497,
          "duration": 0.13308816874999962
        },
        {
          "name": "E4",
          "midi": 64,
          "time": 62.29849826249995,
          "velocity": 0.7874015748031497,
          "duration": 0.17205873750000222
        },
        {
          "name": "E3",
          "midi": 52,
          "time": 62.29849826249995,
          "velocity": 0.7874015748031497,
          "duration": 0.1529410999999996
        },
        {
          "name": "E4",
          "midi": 64,
          "time": 62.47055699999995,
          "velocity": 0.7874015748031497,
          "duration": 0.16176462499999644
        },
        {
          "name": "E3",
          "midi": 52,
          "time": 62.47055699999995,
          "velocity": 0.7874015748031497,
          "duration": 0.13308816874999962
        },
        {
          "name": "E4",
          "midi": 64,
          "time": 62.65143926249995,
          "velocity": 0.7874015748031497,
          "duration": 0.1624999187499938
        },
        {
          "name": "E3",
          "midi": 52,
          "time": 62.65143926249995,
          "velocity": 0.7874015748031497,
          "duration": 0.133823462499997
        },
        {
          "name": "E4",
          "midi": 64,
          "time": 62.823497999999944,
          "velocity": 0.7874015748031497,
          "duration": 0.16176462499999644
        },
        {
          "name": "E3",
          "midi": 52,
          "time": 62.823497999999944,
          "velocity": 0.7874015748031497,
          "duration": 0.13308816874999962
        },
        {
          "name": "E4",
          "midi": 64,
          "time": 63.00438026249994,
          "velocity": 0.7874015748031497,
          "duration": 0.17205873750000222
        },
        {
          "name": "E3",
          "midi": 52,
          "time": 63.00438026249994,
          "velocity": 0.7874015748031497,
          "duration": 0.1529410999999996
        },
        {
          "name": "E4",
          "midi": 64,
          "time": 63.176438999999945,
          "velocity": 0.7874015748031497,
          "duration": 0.16176462499999644
        },
        {
          "name": "E3",
          "midi": 52,
          "time": 63.176438999999945,
          "velocity": 0.7874015748031497,
          "duration": 0.13308816874999962
        },
        {
          "name": "E4",
          "midi": 64,
          "time": 63.357321262499944,
          "velocity": 0.7874015748031497,
          "duration": 0.1529410999999996
        },
        {
          "name": "E3",
          "midi": 52,
          "time": 63.357321262499944,
          "velocity": 0.7874015748031497,
          "duration": 0.12426464375000279
        },
        {
          "name": "E4",
          "midi": 64,
          "time": 63.52937999999995,
          "velocity": 0.7874015748031497,
          "duration": 0.16176462499999644
        },
        {
          "name": "E3",
          "midi": 52,
          "time": 63.52937999999995,
          "velocity": 0.7874015748031497,
          "duration": 0.13308816874999962
        },
        {
          "name": "E4",
          "midi": 64,
          "time": 63.710262262499946,
          "velocity": 0.7874015748031497,
          "duration": 0.17205873750000222
        },
        {
          "name": "E3",
          "midi": 52,
          "time": 63.710262262499946,
          "velocity": 0.7874015748031497,
          "duration": 0.1529410999999996
        },
        {
          "name": "E4",
          "midi": 64,
          "time": 63.88232099999995,
          "velocity": 0.7874015748031497,
          "duration": 0.16176462500000355
        },
        {
          "name": "E3",
          "midi": 52,
          "time": 63.88232099999995,
          "velocity": 0.7874015748031497,
          "duration": 0.13308816875000673
        },
        {
          "name": "E4",
          "midi": 64,
          "time": 64.06320326249995,
          "velocity": 0.7874015748031497,
          "duration": 0.16249991875000092
        },
        {
          "name": "E3",
          "midi": 52,
          "time": 64.06320326249995,
          "velocity": 0.7874015748031497,
          "duration": 0.1338234625000041
        },
        {
          "name": "E4",
          "midi": 64,
          "time": 64.23526199999995,
          "velocity": 0.7874015748031497,
          "duration": 0.16176462500000355
        },
        {
          "name": "E3",
          "midi": 52,
          "time": 64.23526199999995,
          "velocity": 0.7874015748031497,
          "duration": 0.13308816875000673
        },
        {
          "name": "E4",
          "midi": 64,
          "time": 64.41614426249996,
          "velocity": 0.7874015748031497,
          "duration": 0.17205873750000933
        },
        {
          "name": "E3",
          "midi": 52,
          "time": 64.41614426249996,
          "velocity": 0.7874015748031497,
          "duration": 0.1529411000000067
        },
        {
          "name": "E4",
          "midi": 64,
          "time": 64.58820299999996,
          "velocity": 0.7874015748031497,
          "duration": 0.16176462500000355
        },
        {
          "name": "E3",
          "midi": 52,
          "time": 64.58820299999996,
          "velocity": 0.7874015748031497,
          "duration": 0.13308816875000673
        },
        {
          "name": "E4",
          "midi": 64,
          "time": 64.76908526249997,
          "velocity": 0.7874015748031497,
          "duration": 0.16249991875000092
        },
        {
          "name": "E3",
          "midi": 52,
          "time": 64.76908526249997,
          "velocity": 0.7874015748031497,
          "duration": 0.1338234625000041
        },
        {
          "name": "D4",
          "midi": 62,
          "time": 64.94114399999997,
          "velocity": 0.7874015748031497,
          "duration": 0.16176462500000355
        },
        {
          "name": "D3",
          "midi": 50,
          "time": 64.94114399999997,
          "velocity": 0.7874015748031497,
          "duration": 0.16176462500000355
        },
        {
          "name": "D4",
          "midi": 62,
          "time": 65.12202626249997,
          "velocity": 0.7874015748031497,
          "duration": 0.17205873749999512
        },
        {
          "name": "D3",
          "midi": 50,
          "time": 65.12202626249997,
          "velocity": 0.7874015748031497,
          "duration": 0.17205873749999512
        },
        {
          "name": "D4",
          "midi": 62,
          "time": 65.29408499999997,
          "velocity": 0.7874015748031497,
          "duration": 0.16176462500000355
        },
        {
          "name": "D3",
          "midi": 50,
          "time": 65.29408499999997,
          "velocity": 0.7874015748031497,
          "duration": 0.16176462500000355
        },
        {
          "name": "D4",
          "midi": 62,
          "time": 65.47496726249997,
          "velocity": 0.7874015748031497,
          "duration": 0.16249991875000092
        },
        {
          "name": "D3",
          "midi": 50,
          "time": 65.47496726249997,
          "velocity": 0.7874015748031497,
          "duration": 0.16249991875000092
        },
        {
          "name": "D4",
          "midi": 62,
          "time": 65.64702599999997,
          "velocity": 0.7874015748031497,
          "duration": 0.16176462500000355
        },
        {
          "name": "D3",
          "midi": 50,
          "time": 65.64702599999997,
          "velocity": 0.7874015748031497,
          "duration": 0.16176462500000355
        },
        {
          "name": "D4",
          "midi": 62,
          "time": 65.82790826249997,
          "velocity": 0.7874015748031497,
          "duration": 0.17205873749999512
        },
        {
          "name": "D3",
          "midi": 50,
          "time": 65.82790826249997,
          "velocity": 0.7874015748031497,
          "duration": 0.17205873749999512
        },
        {
          "name": "D4",
          "midi": 62,
          "time": 65.99996699999997,
          "velocity": 0.7874015748031497,
          "duration": 0.16176462500000355
        },
        {
          "name": "D3",
          "midi": 50,
          "time": 65.99996699999997,
          "velocity": 0.7874015748031497,
          "duration": 0.16176462500000355
        },
        {
          "name": "D4",
          "midi": 62,
          "time": 66.18084926249998,
          "velocity": 0.7874015748031497,
          "duration": 0.1529411000000067
        },
        {
          "name": "D3",
          "midi": 50,
          "time": 66.18084926249998,
          "velocity": 0.7874015748031497,
          "duration": 0.1529411000000067
        },
        {
          "name": "G4",
          "midi": 67,
          "time": 66.35290799999999,
          "velocity": 0.7874015748031497,
          "duration": 0.17647049999999354
        },
        {
          "name": "G3",
          "midi": 55,
          "time": 66.35290799999999,
          "velocity": 0.7874015748031497,
          "duration": 0.17647049999999354
        },
        {
          "name": "D4",
          "midi": 62,
          "time": 66.53379026249998,
          "velocity": 0.7874015748031497,
          "duration": 0.5058820999999938
        },
        {
          "name": "D3",
          "midi": 50,
          "time": 66.53379026249998,
          "velocity": 0.7874015748031497,
          "duration": 0.5058820999999938
        },
        {
          "name": "E4",
          "midi": 64,
          "time": 67.05878999999997,
          "velocity": 0.7874015748031497,
          "duration": 0.31470572499999605
        },
        {
          "name": "E3",
          "midi": 52,
          "time": 67.05878999999997,
          "velocity": 0.7874015748031497,
          "duration": 0.28602926874999923
        },
        {
          "name": "D4",
          "midi": 62,
          "time": 67.41173099999997,
          "velocity": 0.7874015748031497,
          "duration": 0.17647049999999354
        },
        {
          "name": "D3",
          "midi": 50,
          "time": 67.41173099999997,
          "velocity": 0.7874015748031497,
          "duration": 0.17647049999999354
        },
        {
          "name": "E4",
          "midi": 64,
          "time": 67.59261326249997,
          "velocity": 0.7874015748031497,
          "duration": 0.1338234624999899
        },
        {
          "name": "E3",
          "midi": 52,
          "time": 67.59261326249997,
          "velocity": 0.7874015748031497,
          "duration": 0.10514700624999307
        },
        {
          "name": "E4",
          "midi": 64,
          "time": 67.76467199999996,
          "velocity": 0.7874015748031497,
          "duration": 0.16176462500000355
        },
        {
          "name": "E3",
          "midi": 52,
          "time": 67.76467199999996,
          "velocity": 0.7874015748031497,
          "duration": 0.13308816875000673
        },
        {
          "name": "E4",
          "midi": 64,
          "time": 67.94555426249997,
          "velocity": 0.7874015748031497,
          "duration": 0.17205873750000933
        },
        {
          "name": "E3",
          "midi": 52,
          "time": 67.94555426249997,
          "velocity": 0.7874015748031497,
          "duration": 0.1529411000000067
        },
        {
          "name": "E4",
          "midi": 64,
          "time": 68.11761299999998,
          "velocity": 0.7874015748031497,
          "duration": 0.16176462500000355
        },
        {
          "name": "E3",
          "midi": 52,
          "time": 68.11761299999998,
          "velocity": 0.7874015748031497,
          "duration": 0.13308816875000673
        },
        {
          "name": "E4",
          "midi": 64,
          "time": 68.29849526249998,
          "velocity": 0.7874015748031497,
          "duration": 0.16249991875000092
        },
        {
          "name": "E3",
          "midi": 52,
          "time": 68.29849526249998,
          "velocity": 0.7874015748031497,
          "duration": 0.1338234625000041
        },
        {
          "name": "E4",
          "midi": 64,
          "time": 68.47055399999998,
          "velocity": 0.7874015748031497,
          "duration": 0.16176462500000355
        },
        {
          "name": "E3",
          "midi": 52,
          "time": 68.47055399999998,
          "velocity": 0.7874015748031497,
          "duration": 0.13308816875000673
        },
        {
          "name": "E4",
          "midi": 64,
          "time": 68.65143626249998,
          "velocity": 0.7874015748031497,
          "duration": 0.17205873750000933
        },
        {
          "name": "E3",
          "midi": 52,
          "time": 68.65143626249998,
          "velocity": 0.7874015748031497,
          "duration": 0.1529411000000067
        },
        {
          "name": "E4",
          "midi": 64,
          "time": 68.823495,
          "velocity": 0.7874015748031497,
          "duration": 0.16176462500000355
        },
        {
          "name": "E3",
          "midi": 52,
          "time": 68.823495,
          "velocity": 0.7874015748031497,
          "duration": 0.13308816875000673
        },
        {
          "name": "E4",
          "midi": 64,
          "time": 69.0043772625,
          "velocity": 0.7874015748031497,
          "duration": 0.1529410999999925
        },
        {
          "name": "E3",
          "midi": 52,
          "time": 69.0043772625,
          "velocity": 0.7874015748031497,
          "duration": 0.12426464374999568
        },
        {
          "name": "E4",
          "midi": 64,
          "time": 69.176436,
          "velocity": 0.7874015748031497,
          "duration": 0.16176462500000355
        },
        {
          "name": "E3",
          "midi": 52,
          "time": 69.176436,
          "velocity": 0.7874015748031497,
          "duration": 0.13308816875000673
        },
        {
          "name": "E4",
          "midi": 64,
          "time": 69.3573182625,
          "velocity": 0.7874015748031497,
          "duration": 0.17205873750000933
        },
        {
          "name": "E3",
          "midi": 52,
          "time": 69.3573182625,
          "velocity": 0.7874015748031497,
          "duration": 0.1529411000000067
        },
        {
          "name": "E4",
          "midi": 64,
          "time": 69.52937700000001,
          "velocity": 0.7874015748031497,
          "duration": 0.16176462500000355
        },
        {
          "name": "E3",
          "midi": 52,
          "time": 69.52937700000001,
          "velocity": 0.7874015748031497,
          "duration": 0.13308816875000673
        },
        {
          "name": "E4",
          "midi": 64,
          "time": 69.71025926250002,
          "velocity": 0.7874015748031497,
          "duration": 0.16249991875000092
        },
        {
          "name": "E3",
          "midi": 52,
          "time": 69.71025926250002,
          "velocity": 0.7874015748031497,
          "duration": 0.1338234625000041
        },
        {
          "name": "E4",
          "midi": 64,
          "time": 69.88231800000001,
          "velocity": 0.7874015748031497,
          "duration": 0.16176462500000355
        },
        {
          "name": "E3",
          "midi": 52,
          "time": 69.88231800000001,
          "velocity": 0.7874015748031497,
          "duration": 0.13308816875000673
        },
        {
          "name": "E4",
          "midi": 64,
          "time": 70.06320026250002,
          "velocity": 0.7874015748031497,
          "duration": 0.17205873750000933
        },
        {
          "name": "E3",
          "midi": 52,
          "time": 70.06320026250002,
          "velocity": 0.7874015748031497,
          "duration": 0.1529411000000067
        },
        {
          "name": "E4",
          "midi": 64,
          "time": 70.23525900000003,
          "velocity": 0.7874015748031497,
          "duration": 0.16176462500000355
        },
        {
          "name": "E3",
          "midi": 52,
          "time": 70.23525900000003,
          "velocity": 0.7874015748031497,
          "duration": 0.13308816875000673
        },
        {
          "name": "E4",
          "midi": 64,
          "time": 70.41614126250003,
          "velocity": 0.7874015748031497,
          "duration": 0.16249991875000092
        },
        {
          "name": "E3",
          "midi": 52,
          "time": 70.41614126250003,
          "velocity": 0.7874015748031497,
          "duration": 0.1338234625000041
        },
        {
          "name": "D4",
          "midi": 62,
          "time": 70.58820000000003,
          "velocity": 0.7874015748031497,
          "duration": 0.16176462500000355
        },
        {
          "name": "D3",
          "midi": 50,
          "time": 70.58820000000003,
          "velocity": 0.7874015748031497,
          "duration": 0.16176462500000355
        },
        {
          "name": "D4",
          "midi": 62,
          "time": 70.76908226250004,
          "velocity": 0.7874015748031497,
          "duration": 0.17205873749999512
        },
        {
          "name": "D3",
          "midi": 50,
          "time": 70.76908226250004,
          "velocity": 0.7874015748031497,
          "duration": 0.17205873749999512
        },
        {
          "name": "D4",
          "midi": 62,
          "time": 70.94114100000003,
          "velocity": 0.7874015748031497,
          "duration": 0.16176462500000355
        },
        {
          "name": "D3",
          "midi": 50,
          "time": 70.94114100000003,
          "velocity": 0.7874015748031497,
          "duration": 0.16176462500000355
        },
        {
          "name": "D4",
          "midi": 62,
          "time": 71.12202326250004,
          "velocity": 0.7874015748031497,
          "duration": 0.16249991875000092
        },
        {
          "name": "D3",
          "midi": 50,
          "time": 71.12202326250004,
          "velocity": 0.7874015748031497,
          "duration": 0.16249991875000092
        },
        {
          "name": "D4",
          "midi": 62,
          "time": 71.29408200000003,
          "velocity": 0.7874015748031497,
          "duration": 0.16176462500000355
        },
        {
          "name": "D3",
          "midi": 50,
          "time": 71.29408200000003,
          "velocity": 0.7874015748031497,
          "duration": 0.16176462500000355
        },
        {
          "name": "D4",
          "midi": 62,
          "time": 71.47496426250004,
          "velocity": 0.7874015748031497,
          "duration": 0.17205873749999512
        },
        {
          "name": "D3",
          "midi": 50,
          "time": 71.47496426250004,
          "velocity": 0.7874015748031497,
          "duration": 0.17205873749999512
        },
        {
          "name": "D4",
          "midi": 62,
          "time": 71.64702300000003,
          "velocity": 0.7874015748031497,
          "duration": 0.16176462500000355
        },
        {
          "name": "D3",
          "midi": 50,
          "time": 71.64702300000003,
          "velocity": 0.7874015748031497,
          "duration": 0.16176462500000355
        },
        {
          "name": "D4",
          "midi": 62,
          "time": 71.82790526250004,
          "velocity": 0.7874015748031497,
          "duration": 0.1529411000000067
        },
        {
          "name": "D3",
          "midi": 50,
          "time": 71.82790526250004,
          "velocity": 0.7874015748031497,
          "duration": 0.1529411000000067
        },
        {
          "name": "G4",
          "midi": 67,
          "time": 71.99996400000005,
          "velocity": 0.7874015748031497,
          "duration": 0.17647049999999354
        },
        {
          "name": "G3",
          "midi": 55,
          "time": 71.99996400000005,
          "velocity": 0.7874015748031497,
          "duration": 0.17647049999999354
        },
        {
          "name": "D4",
          "midi": 62,
          "time": 72.18084626250004,
          "velocity": 0.7874015748031497,
          "duration": 0.5058820999999938
        },
        {
          "name": "D3",
          "midi": 50,
          "time": 72.18084626250004,
          "velocity": 0.7874015748031497,
          "duration": 0.5058820999999938
        },
        {
          "name": "E4",
          "midi": 64,
          "time": 72.70584600000004,
          "velocity": 0.7874015748031497,
          "duration": 0.31470572499999605
        },
        {
          "name": "E3",
          "midi": 52,
          "time": 72.70584600000004,
          "velocity": 0.7874015748031497,
          "duration": 0.28602926874999923
        },
        {
          "name": "D4",
          "midi": 62,
          "time": 73.05878700000004,
          "velocity": 0.7874015748031497,
          "duration": 0.17647049999999354
        },
        {
          "name": "D3",
          "midi": 50,
          "time": 73.05878700000004,
          "velocity": 0.7874015748031497,
          "duration": 0.17647049999999354
        },
        {
          "name": "E4",
          "midi": 64,
          "time": 73.23966926250003,
          "velocity": 0.7874015748031497,
          "duration": 0.1338234624999899
        },
        {
          "name": "E3",
          "midi": 52,
          "time": 73.23966926250003,
          "velocity": 0.7874015748031497,
          "duration": 0.10514700624999307
        },
        {
          "name": "E4",
          "midi": 64,
          "time": 73.41172800000002,
          "velocity": 0.7874015748031497,
          "duration": 0.16176462500000355
        },
        {
          "name": "E3",
          "midi": 52,
          "time": 73.41172800000002,
          "velocity": 0.7874015748031497,
          "duration": 0.13308816875000673
        },
        {
          "name": "E4",
          "midi": 64,
          "time": 73.59261026250003,
          "velocity": 0.7874015748031497,
          "duration": 0.17205873750000933
        },
        {
          "name": "E3",
          "midi": 52,
          "time": 73.59261026250003,
          "velocity": 0.7874015748031497,
          "duration": 0.1529411000000067
        },
        {
          "name": "E4",
          "midi": 64,
          "time": 73.76466900000004,
          "velocity": 0.7874015748031497,
          "duration": 0.16176462500000355
        },
        {
          "name": "E3",
          "midi": 52,
          "time": 73.76466900000004,
          "velocity": 0.7874015748031497,
          "duration": 0.13308816875000673
        },
        {
          "name": "E4",
          "midi": 64,
          "time": 73.94555126250005,
          "velocity": 0.7874015748031497,
          "duration": 0.16249991875000092
        },
        {
          "name": "E3",
          "midi": 52,
          "time": 73.94555126250005,
          "velocity": 0.7874015748031497,
          "duration": 0.1338234625000041
        },
        {
          "name": "E4",
          "midi": 64,
          "time": 74.11761000000004,
          "velocity": 0.7874015748031497,
          "duration": 0.16176462500000355
        },
        {
          "name": "E3",
          "midi": 52,
          "time": 74.11761000000004,
          "velocity": 0.7874015748031497,
          "duration": 0.13308816875000673
        },
        {
          "name": "E4",
          "midi": 64,
          "time": 74.29849226250005,
          "velocity": 0.7874015748031497,
          "duration": 0.17205873750000933
        },
        {
          "name": "E3",
          "midi": 52,
          "time": 74.29849226250005,
          "velocity": 0.7874015748031497,
          "duration": 0.1529411000000067
        },
        {
          "name": "E4",
          "midi": 64,
          "time": 74.47055100000006,
          "velocity": 0.7874015748031497,
          "duration": 0.16176462500000355
        },
        {
          "name": "E3",
          "midi": 52,
          "time": 74.47055100000006,
          "velocity": 0.7874015748031497,
          "duration": 0.13308816875000673
        },
        {
          "name": "E4",
          "midi": 64,
          "time": 74.65143326250006,
          "velocity": 0.7874015748031497,
          "duration": 0.1529410999999925
        },
        {
          "name": "E3",
          "midi": 52,
          "time": 74.65143326250006,
          "velocity": 0.7874015748031497,
          "duration": 0.12426464374999568
        },
        {
          "name": "E4",
          "midi": 64,
          "time": 74.82349200000006,
          "velocity": 0.7874015748031497,
          "duration": 0.16176462500000355
        },
        {
          "name": "E3",
          "midi": 52,
          "time": 74.82349200000006,
          "velocity": 0.7874015748031497,
          "duration": 0.13308816875000673
        },
        {
          "name": "E4",
          "midi": 64,
          "time": 75.00437426250006,
          "velocity": 0.7874015748031497,
          "duration": 0.17205873750000933
        },
        {
          "name": "E3",
          "midi": 52,
          "time": 75.00437426250006,
          "velocity": 0.7874015748031497,
          "duration": 0.1529411000000067
        },
        {
          "name": "E4",
          "midi": 64,
          "time": 75.17643300000007,
          "velocity": 0.7874015748031497,
          "duration": 0.16176462500000355
        },
        {
          "name": "E3",
          "midi": 52,
          "time": 75.17643300000007,
          "velocity": 0.7874015748031497,
          "duration": 0.13308816875000673
        },
        {
          "name": "E4",
          "midi": 64,
          "time": 75.35731526250008,
          "velocity": 0.7874015748031497,
          "duration": 0.16249991875000092
        },
        {
          "name": "E3",
          "midi": 52,
          "time": 75.35731526250008,
          "velocity": 0.7874015748031497,
          "duration": 0.1338234625000041
        },
        {
          "name": "E4",
          "midi": 64,
          "time": 75.52937400000008,
          "velocity": 0.7874015748031497,
          "duration": 0.16176462500000355
        },
        {
          "name": "E3",
          "midi": 52,
          "time": 75.52937400000008,
          "velocity": 0.7874015748031497,
          "duration": 0.13308816875000673
        },
        {
          "name": "E4",
          "midi": 64,
          "time": 75.71025626250008,
          "velocity": 0.7874015748031497,
          "duration": 0.17205873750000933
        },
        {
          "name": "E3",
          "midi": 52,
          "time": 75.71025626250008,
          "velocity": 0.7874015748031497,
          "duration": 0.1529411000000067
        },
        {
          "name": "E4",
          "midi": 64,
          "time": 75.88231500000009,
          "velocity": 0.7874015748031497,
          "duration": 0.16176462500000355
        },
        {
          "name": "E3",
          "midi": 52,
          "time": 75.88231500000009,
          "velocity": 0.7874015748031497,
          "duration": 0.13308816875000673
        },
        {
          "name": "E4",
          "midi": 64,
          "time": 76.0631972625001,
          "velocity": 0.7874015748031497,
          "duration": 0.16249991875000092
        },
        {
          "name": "E3",
          "midi": 52,
          "time": 76.0631972625001,
          "velocity": 0.7874015748031497,
          "duration": 0.1338234625000041
        },
        {
          "name": "D4",
          "midi": 62,
          "time": 76.23525600000009,
          "velocity": 0.7874015748031497,
          "duration": 0.16176462500000355
        },
        {
          "name": "D3",
          "midi": 50,
          "time": 76.23525600000009,
          "velocity": 0.7874015748031497,
          "duration": 0.16176462500000355
        },
        {
          "name": "D4",
          "midi": 62,
          "time": 76.4161382625001,
          "velocity": 0.7874015748031497,
          "duration": 0.17205873749999512
        },
        {
          "name": "D3",
          "midi": 50,
          "time": 76.4161382625001,
          "velocity": 0.7874015748031497,
          "duration": 0.17205873749999512
        },
        {
          "name": "D4",
          "midi": 62,
          "time": 76.5881970000001,
          "velocity": 0.7874015748031497,
          "duration": 0.16176462500000355
        },
        {
          "name": "D3",
          "midi": 50,
          "time": 76.5881970000001,
          "velocity": 0.7874015748031497,
          "duration": 0.16176462500000355
        },
        {
          "name": "D4",
          "midi": 62,
          "time": 76.7690792625001,
          "velocity": 0.7874015748031497,
          "duration": 0.16249991875000092
        },
        {
          "name": "D3",
          "midi": 50,
          "time": 76.7690792625001,
          "velocity": 0.7874015748031497,
          "duration": 0.16249991875000092
        },
        {
          "name": "D4",
          "midi": 62,
          "time": 76.9411380000001,
          "velocity": 0.7874015748031497,
          "duration": 0.16176462500000355
        },
        {
          "name": "D3",
          "midi": 50,
          "time": 76.9411380000001,
          "velocity": 0.7874015748031497,
          "duration": 0.16176462500000355
        },
        {
          "name": "D4",
          "midi": 62,
          "time": 77.1220202625001,
          "velocity": 0.7874015748031497,
          "duration": 0.17205873749999512
        },
        {
          "name": "D3",
          "midi": 50,
          "time": 77.1220202625001,
          "velocity": 0.7874015748031497,
          "duration": 0.17205873749999512
        },
        {
          "name": "D4",
          "midi": 62,
          "time": 77.2940790000001,
          "velocity": 0.7874015748031497,
          "duration": 0.16176462500000355
        },
        {
          "name": "D3",
          "midi": 50,
          "time": 77.2940790000001,
          "velocity": 0.7874015748031497,
          "duration": 0.16176462500000355
        },
        {
          "name": "D4",
          "midi": 62,
          "time": 77.4749612625001,
          "velocity": 0.7874015748031497,
          "duration": 0.1529411000000067
        },
        {
          "name": "D3",
          "midi": 50,
          "time": 77.4749612625001,
          "velocity": 0.7874015748031497,
          "duration": 0.1529411000000067
        },
        {
          "name": "G4",
          "midi": 67,
          "time": 77.64702000000011,
          "velocity": 0.7874015748031497,
          "duration": 0.17647049999999354
        },
        {
          "name": "G3",
          "midi": 55,
          "time": 77.64702000000011,
          "velocity": 0.7874015748031497,
          "duration": 0.17647049999999354
        },
        {
          "name": "D4",
          "midi": 62,
          "time": 77.8279022625001,
          "velocity": 0.7874015748031497,
          "duration": 0.5058820999999938
        },
        {
          "name": "D3",
          "midi": 50,
          "time": 77.8279022625001,
          "velocity": 0.7874015748031497,
          "duration": 0.5058820999999938
        },
        {
          "name": "E4",
          "midi": 64,
          "time": 78.3529020000001,
          "velocity": 0.7874015748031497,
          "duration": 0.31470572499999605
        },
        {
          "name": "E3",
          "midi": 52,
          "time": 78.3529020000001,
          "velocity": 0.7874015748031497,
          "duration": 0.28602926874999923
        },
        {
          "name": "D4",
          "midi": 62,
          "time": 78.7058430000001,
          "velocity": 0.7874015748031497,
          "duration": 0.17647049999999354
        },
        {
          "name": "D3",
          "midi": 50,
          "time": 78.7058430000001,
          "velocity": 0.7874015748031497,
          "duration": 0.17647049999999354
        },
        {
          "name": "E4",
          "midi": 64,
          "time": 78.8867252625001,
          "velocity": 0.7874015748031497,
          "duration": 0.1338234624999899
        },
        {
          "name": "E3",
          "midi": 52,
          "time": 78.8867252625001,
          "velocity": 0.7874015748031497,
          "duration": 0.10514700624999307
        },
        {
          "name": "E4",
          "midi": 64,
          "time": 79.05878400000009,
          "velocity": 0.7874015748031497,
          "duration": 0.16176462500000355
        },
        {
          "name": "E3",
          "midi": 52,
          "time": 79.05878400000009,
          "velocity": 0.7874015748031497,
          "duration": 0.13308816875000673
        },
        {
          "name": "E4",
          "midi": 64,
          "time": 79.2396662625001,
          "velocity": 0.7874015748031497,
          "duration": 0.17205873750000933
        },
        {
          "name": "E3",
          "midi": 52,
          "time": 79.2396662625001,
          "velocity": 0.7874015748031497,
          "duration": 0.1529411000000067
        },
        {
          "name": "E4",
          "midi": 64,
          "time": 79.4117250000001,
          "velocity": 0.7874015748031497,
          "duration": 0.16176462500000355
        },
        {
          "name": "E3",
          "midi": 52,
          "time": 79.4117250000001,
          "velocity": 0.7874015748031497,
          "duration": 0.13308816875000673
        },
        {
          "name": "E4",
          "midi": 64,
          "time": 79.59260726250011,
          "velocity": 0.7874015748031497,
          "duration": 0.16249991875000092
        },
        {
          "name": "E3",
          "midi": 52,
          "time": 79.59260726250011,
          "velocity": 0.7874015748031497,
          "duration": 0.1338234625000041
        },
        {
          "name": "E4",
          "midi": 64,
          "time": 79.7646660000001,
          "velocity": 0.7874015748031497,
          "duration": 0.16176462500000355
        },
        {
          "name": "E3",
          "midi": 52,
          "time": 79.7646660000001,
          "velocity": 0.7874015748031497,
          "duration": 0.13308816875000673
        },
        {
          "name": "E4",
          "midi": 64,
          "time": 79.94554826250011,
          "velocity": 0.7874015748031497,
          "duration": 0.17205873750000933
        },
        {
          "name": "E3",
          "midi": 52,
          "time": 79.94554826250011,
          "velocity": 0.7874015748031497,
          "duration": 0.1529411000000067
        },
        {
          "name": "E4",
          "midi": 64,
          "time": 80.11760700000012,
          "velocity": 0.7874015748031497,
          "duration": 0.16176462500000355
        },
        {
          "name": "E3",
          "midi": 52,
          "time": 80.11760700000012,
          "velocity": 0.7874015748031497,
          "duration": 0.13308816875000673
        },
        {
          "name": "E4",
          "midi": 64,
          "time": 80.29848926250013,
          "velocity": 0.7874015748031497,
          "duration": 0.1529410999999925
        },
        {
          "name": "E3",
          "midi": 52,
          "time": 80.29848926250013,
          "velocity": 0.7874015748031497,
          "duration": 0.12426464374999568
        },
        {
          "name": "E4",
          "midi": 64,
          "time": 80.47054800000012,
          "velocity": 0.7874015748031497,
          "duration": 0.16176462500000355
        },
        {
          "name": "E3",
          "midi": 52,
          "time": 80.47054800000012,
          "velocity": 0.7874015748031497,
          "duration": 0.13308816875000673
        },
        {
          "name": "E4",
          "midi": 64,
          "time": 80.65143026250013,
          "velocity": 0.7874015748031497,
          "duration": 0.17205873750000933
        },
        {
          "name": "E3",
          "midi": 52,
          "time": 80.65143026250013,
          "velocity": 0.7874015748031497,
          "duration": 0.1529411000000067
        },
        {
          "name": "E4",
          "midi": 64,
          "time": 80.82348900000014,
          "velocity": 0.7874015748031497,
          "duration": 0.16176462500000355
        },
        {
          "name": "E3",
          "midi": 52,
          "time": 80.82348900000014,
          "velocity": 0.7874015748031497,
          "duration": 0.13308816875000673
        },
        {
          "name": "E4",
          "midi": 64,
          "time": 81.00437126250014,
          "velocity": 0.7874015748031497,
          "duration": 0.16249991875000092
        },
        {
          "name": "E3",
          "midi": 52,
          "time": 81.00437126250014,
          "velocity": 0.7874015748031497,
          "duration": 0.1338234625000041
        },
        {
          "name": "E4",
          "midi": 64,
          "time": 81.17643000000014,
          "velocity": 0.7874015748031497,
          "duration": 0.16176462500000355
        },
        {
          "name": "E3",
          "midi": 52,
          "time": 81.17643000000014,
          "velocity": 0.7874015748031497,
          "duration": 0.13308816875000673
        },
        {
          "name": "E4",
          "midi": 64,
          "time": 81.35731226250014,
          "velocity": 0.7874015748031497,
          "duration": 0.17205873750000933
        },
        {
          "name": "E3",
          "midi": 52,
          "time": 81.35731226250014,
          "velocity": 0.7874015748031497,
          "duration": 0.1529411000000067
        },
        {
          "name": "E4",
          "midi": 64,
          "time": 81.52937100000015,
          "velocity": 0.7874015748031497,
          "duration": 0.16176462500000355
        },
        {
          "name": "E3",
          "midi": 52,
          "time": 81.52937100000015,
          "velocity": 0.7874015748031497,
          "duration": 0.13308816875000673
        },
        {
          "name": "E4",
          "midi": 64,
          "time": 81.71025326250016,
          "velocity": 0.7874015748031497,
          "duration": 0.16249991875000092
        },
        {
          "name": "E3",
          "midi": 52,
          "time": 81.71025326250016,
          "velocity": 0.7874015748031497,
          "duration": 0.1338234625000041
        },
        {
          "name": "D4",
          "midi": 62,
          "time": 81.88231200000016,
          "velocity": 0.7874015748031497,
          "duration": 0.16176462500000355
        },
        {
          "name": "D3",
          "midi": 50,
          "time": 81.88231200000016,
          "velocity": 0.7874015748031497,
          "duration": 0.16176462500000355
        },
        {
          "name": "D4",
          "midi": 62,
          "time": 82.06319426250016,
          "velocity": 0.7874015748031497,
          "duration": 0.17205873749999512
        },
        {
          "name": "D3",
          "midi": 50,
          "time": 82.06319426250016,
          "velocity": 0.7874015748031497,
          "duration": 0.17205873749999512
        },
        {
          "name": "D4",
          "midi": 62,
          "time": 82.23525300000016,
          "velocity": 0.7874015748031497,
          "duration": 0.16176462500000355
        },
        {
          "name": "D3",
          "midi": 50,
          "time": 82.23525300000016,
          "velocity": 0.7874015748031497,
          "duration": 0.16176462500000355
        },
        {
          "name": "D4",
          "midi": 62,
          "time": 82.41613526250016,
          "velocity": 0.7874015748031497,
          "duration": 0.16249991875000092
        },
        {
          "name": "D3",
          "midi": 50,
          "time": 82.41613526250016,
          "velocity": 0.7874015748031497,
          "duration": 0.16249991875000092
        },
        {
          "name": "D4",
          "midi": 62,
          "time": 82.58819400000016,
          "velocity": 0.7874015748031497,
          "duration": 0.16176462500000355
        },
        {
          "name": "D3",
          "midi": 50,
          "time": 82.58819400000016,
          "velocity": 0.7874015748031497,
          "duration": 0.16176462500000355
        },
        {
          "name": "D4",
          "midi": 62,
          "time": 82.76907626250016,
          "velocity": 0.7874015748031497,
          "duration": 0.17205873749999512
        },
        {
          "name": "D3",
          "midi": 50,
          "time": 82.76907626250016,
          "velocity": 0.7874015748031497,
          "duration": 0.17205873749999512
        },
        {
          "name": "D4",
          "midi": 62,
          "time": 82.94113500000016,
          "velocity": 0.7874015748031497,
          "duration": 0.16176462500000355
        },
        {
          "name": "D3",
          "midi": 50,
          "time": 82.94113500000016,
          "velocity": 0.7874015748031497,
          "duration": 0.16176462500000355
        },
        {
          "name": "D4",
          "midi": 62,
          "time": 83.12201726250017,
          "velocity": 0.7874015748031497,
          "duration": 0.1529411000000067
        },
        {
          "name": "D3",
          "midi": 50,
          "time": 83.12201726250017,
          "velocity": 0.7874015748031497,
          "duration": 0.1529411000000067
        },
        {
          "name": "G4",
          "midi": 67,
          "time": 83.29407600000017,
          "velocity": 0.7874015748031497,
          "duration": 0.17647049999999354
        },
        {
          "name": "G3",
          "midi": 55,
          "time": 83.29407600000017,
          "velocity": 0.7874015748031497,
          "duration": 0.17647049999999354
        },
        {
          "name": "D4",
          "midi": 62,
          "time": 83.47495826250017,
          "velocity": 0.7874015748031497,
          "duration": 0.5058820999999938
        },
        {
          "name": "D3",
          "midi": 50,
          "time": 83.47495826250017,
          "velocity": 0.7874015748031497,
          "duration": 0.5058820999999938
        },
        {
          "name": "E4",
          "midi": 64,
          "time": 83.99995800000016,
          "velocity": 0.7874015748031497,
          "duration": 0.31470572499999605
        },
        {
          "name": "E3",
          "midi": 52,
          "time": 83.99995800000016,
          "velocity": 0.7874015748031497,
          "duration": 0.28602926874999923
        },
        {
          "name": "D4",
          "midi": 62,
          "time": 84.35289900000016,
          "velocity": 0.7874015748031497,
          "duration": 0.17647049999999354
        },
        {
          "name": "D3",
          "midi": 50,
          "time": 84.35289900000016,
          "velocity": 0.7874015748031497,
          "duration": 0.17647049999999354
        },
        {
          "name": "E4",
          "midi": 64,
          "time": 84.53378126250016,
          "velocity": 0.7874015748031497,
          "duration": 0.1338234624999899
        },
        {
          "name": "E3",
          "midi": 52,
          "time": 84.53378126250016,
          "velocity": 0.7874015748031497,
          "duration": 0.10514700624999307
        },
        {
          "name": "E4",
          "midi": 64,
          "time": 84.70584000000015,
          "velocity": 0.7874015748031497,
          "duration": 0.16176462500000355
        },
        {
          "name": "E3",
          "midi": 52,
          "time": 84.70584000000015,
          "velocity": 0.7874015748031497,
          "duration": 0.13308816875000673
        },
        {
          "name": "E4",
          "midi": 64,
          "time": 84.88672226250016,
          "velocity": 0.7874015748031497,
          "duration": 0.17205873750000933
        },
        {
          "name": "E3",
          "midi": 52,
          "time": 84.88672226250016,
          "velocity": 0.7874015748031497,
          "duration": 0.1529411000000067
        },
        {
          "name": "E4",
          "midi": 64,
          "time": 85.05878100000017,
          "velocity": 0.7874015748031497,
          "duration": 0.16176462500000355
        },
        {
          "name": "E3",
          "midi": 52,
          "time": 85.05878100000017,
          "velocity": 0.7874015748031497,
          "duration": 0.13308816875000673
        },
        {
          "name": "E4",
          "midi": 64,
          "time": 85.23966326250017,
          "velocity": 0.7874015748031497,
          "duration": 0.16249991875000092
        },
        {
          "name": "E3",
          "midi": 52,
          "time": 85.23966326250017,
          "velocity": 0.7874015748031497,
          "duration": 0.1338234625000041
        },
        {
          "name": "E4",
          "midi": 64,
          "time": 85.41172200000017,
          "velocity": 0.7874015748031497,
          "duration": 0.16176462500000355
        },
        {
          "name": "E3",
          "midi": 52,
          "time": 85.41172200000017,
          "velocity": 0.7874015748031497,
          "duration": 0.13308816875000673
        },
        {
          "name": "E4",
          "midi": 64,
          "time": 85.59260426250017,
          "velocity": 0.7874015748031497,
          "duration": 0.17205873750000933
        },
        {
          "name": "E3",
          "midi": 52,
          "time": 85.59260426250017,
          "velocity": 0.7874015748031497,
          "duration": 0.1529411000000067
        },
        {
          "name": "E4",
          "midi": 64,
          "time": 85.76466300000018,
          "velocity": 0.7874015748031497,
          "duration": 0.16176462500000355
        },
        {
          "name": "E3",
          "midi": 52,
          "time": 85.76466300000018,
          "velocity": 0.7874015748031497,
          "duration": 0.13308816875000673
        },
        {
          "name": "E4",
          "midi": 64,
          "time": 85.94554526250019,
          "velocity": 0.7874015748031497,
          "duration": 0.1529410999999925
        },
        {
          "name": "E3",
          "midi": 52,
          "time": 85.94554526250019,
          "velocity": 0.7874015748031497,
          "duration": 0.12426464374999568
        },
        {
          "name": "E4",
          "midi": 64,
          "time": 86.11760400000018,
          "velocity": 0.7874015748031497,
          "duration": 0.16176462500000355
        },
        {
          "name": "E3",
          "midi": 52,
          "time": 86.11760400000018,
          "velocity": 0.7874015748031497,
          "duration": 0.13308816875000673
        },
        {
          "name": "E4",
          "midi": 64,
          "time": 86.29848626250019,
          "velocity": 0.7874015748031497,
          "duration": 0.17205873750000933
        },
        {
          "name": "E3",
          "midi": 52,
          "time": 86.29848626250019,
          "velocity": 0.7874015748031497,
          "duration": 0.1529411000000067
        },
        {
          "name": "E4",
          "midi": 64,
          "time": 86.4705450000002,
          "velocity": 0.7874015748031497,
          "duration": 0.16176462500000355
        },
        {
          "name": "E3",
          "midi": 52,
          "time": 86.4705450000002,
          "velocity": 0.7874015748031497,
          "duration": 0.13308816875000673
        },
        {
          "name": "E4",
          "midi": 64,
          "time": 86.6514272625002,
          "velocity": 0.7874015748031497,
          "duration": 0.16249991875000092
        },
        {
          "name": "E3",
          "midi": 52,
          "time": 86.6514272625002,
          "velocity": 0.7874015748031497,
          "duration": 0.1338234625000041
        },
        {
          "name": "E4",
          "midi": 64,
          "time": 86.8234860000002,
          "velocity": 0.7874015748031497,
          "duration": 0.16176462500000355
        },
        {
          "name": "E3",
          "midi": 52,
          "time": 86.8234860000002,
          "velocity": 0.7874015748031497,
          "duration": 0.13308816875000673
        },
        {
          "name": "E4",
          "midi": 64,
          "time": 87.00436826250021,
          "velocity": 0.7874015748031497,
          "duration": 0.17205873750000933
        },
        {
          "name": "E3",
          "midi": 52,
          "time": 87.00436826250021,
          "velocity": 0.7874015748031497,
          "duration": 0.1529411000000067
        },
        {
          "name": "E4",
          "midi": 64,
          "time": 87.17642700000022,
          "velocity": 0.7874015748031497,
          "duration": 0.16176462500000355
        },
        {
          "name": "E3",
          "midi": 52,
          "time": 87.17642700000022,
          "velocity": 0.7874015748031497,
          "duration": 0.13308816875000673
        },
        {
          "name": "E4",
          "midi": 64,
          "time": 87.35730926250022,
          "velocity": 0.7874015748031497,
          "duration": 0.16249991875000092
        },
        {
          "name": "E3",
          "midi": 52,
          "time": 87.35730926250022,
          "velocity": 0.7874015748031497,
          "duration": 0.1338234625000041
        },
        {
          "name": "D4",
          "midi": 62,
          "time": 87.52936800000022,
          "velocity": 0.7874015748031497,
          "duration": 0.16176462500000355
        },
        {
          "name": "D3",
          "midi": 50,
          "time": 87.52936800000022,
          "velocity": 0.7874015748031497,
          "duration": 0.16176462500000355
        },
        {
          "name": "D4",
          "midi": 62,
          "time": 87.71025026250022,
          "velocity": 0.7874015748031497,
          "duration": 0.17205873749999512
        },
        {
          "name": "D3",
          "midi": 50,
          "time": 87.71025026250022,
          "velocity": 0.7874015748031497,
          "duration": 0.17205873749999512
        },
        {
          "name": "D4",
          "midi": 62,
          "time": 87.88230900000022,
          "velocity": 0.7874015748031497,
          "duration": 0.16176462500000355
        },
        {
          "name": "D3",
          "midi": 50,
          "time": 87.88230900000022,
          "velocity": 0.7874015748031497,
          "duration": 0.16176462500000355
        },
        {
          "name": "D4",
          "midi": 62,
          "time": 88.06319126250023,
          "velocity": 0.7874015748031497,
          "duration": 0.16249991875000092
        },
        {
          "name": "D3",
          "midi": 50,
          "time": 88.06319126250023,
          "velocity": 0.7874015748031497,
          "duration": 0.16249991875000092
        },
        {
          "name": "D4",
          "midi": 62,
          "time": 88.23525000000022,
          "velocity": 0.7874015748031497,
          "duration": 0.16176462500000355
        },
        {
          "name": "D3",
          "midi": 50,
          "time": 88.23525000000022,
          "velocity": 0.7874015748031497,
          "duration": 0.16176462500000355
        },
        {
          "name": "D4",
          "midi": 62,
          "time": 88.41613226250023,
          "velocity": 0.7874015748031497,
          "duration": 0.17205873749999512
        },
        {
          "name": "D3",
          "midi": 50,
          "time": 88.41613226250023,
          "velocity": 0.7874015748031497,
          "duration": 0.17205873749999512
        },
        {
          "name": "D4",
          "midi": 62,
          "time": 88.58819100000022,
          "velocity": 0.7874015748031497,
          "duration": 0.16176462500000355
        },
        {
          "name": "D3",
          "midi": 50,
          "time": 88.58819100000022,
          "velocity": 0.7874015748031497,
          "duration": 0.16176462500000355
        },
        {
          "name": "D4",
          "midi": 62,
          "time": 88.76907326250023,
          "velocity": 0.7874015748031497,
          "duration": 0.1529411000000067
        },
        {
          "name": "D3",
          "midi": 50,
          "time": 88.76907326250023,
          "velocity": 0.7874015748031497,
          "duration": 0.1529411000000067
        },
        {
          "name": "G4",
          "midi": 67,
          "time": 88.94113200000024,
          "velocity": 0.7874015748031497,
          "duration": 0.17647049999999354
        },
        {
          "name": "G3",
          "midi": 55,
          "time": 88.94113200000024,
          "velocity": 0.7874015748031497,
          "duration": 0.17647049999999354
        },
        {
          "name": "D4",
          "midi": 62,
          "time": 89.12201426250023,
          "velocity": 0.7874015748031497,
          "duration": 0.5058820999999938
        },
        {
          "name": "D3",
          "midi": 50,
          "time": 89.12201426250023,
          "velocity": 0.7874015748031497,
          "duration": 0.5058820999999938
        },
        {
          "name": "E4",
          "midi": 64,
          "time": 89.64701400000023,
          "velocity": 0.7874015748031497,
          "duration": 0.31470572499999605
        },
        {
          "name": "E3",
          "midi": 52,
          "time": 89.64701400000023,
          "velocity": 0.7874015748031497,
          "duration": 0.28602926874999923
        },
        {
          "name": "D4",
          "midi": 62,
          "time": 89.99995500000023,
          "velocity": 0.7874015748031497,
          "duration": 0.17647049999999354
        },
        {
          "name": "D3",
          "midi": 50,
          "time": 89.99995500000023,
          "velocity": 0.7874015748031497,
          "duration": 0.17647049999999354
        },
        {
          "name": "E4",
          "midi": 64,
          "time": 90.18083726250022,
          "velocity": 0.7874015748031497,
          "duration": 0.1338234624999899
        },
        {
          "name": "E3",
          "midi": 52,
          "time": 90.18083726250022,
          "velocity": 0.7874015748031497,
          "duration": 0.10514700624999307
        },
        {
          "name": "E4",
          "midi": 64,
          "time": 90.35289600000021,
          "velocity": 0.7874015748031497,
          "duration": 0.16176462500000355
        },
        {
          "name": "E3",
          "midi": 52,
          "time": 90.35289600000021,
          "velocity": 0.7874015748031497,
          "duration": 0.13308816875000673
        },
        {
          "name": "E4",
          "midi": 64,
          "time": 90.53377826250022,
          "velocity": 0.7874015748031497,
          "duration": 0.17205873750000933
        },
        {
          "name": "E3",
          "midi": 52,
          "time": 90.53377826250022,
          "velocity": 0.7874015748031497,
          "duration": 0.1529411000000067
        },
        {
          "name": "E4",
          "midi": 64,
          "time": 90.70583700000023,
          "velocity": 0.7874015748031497,
          "duration": 0.16176462500000355
        },
        {
          "name": "E3",
          "midi": 52,
          "time": 90.70583700000023,
          "velocity": 0.7874015748031497,
          "duration": 0.13308816875000673
        },
        {
          "name": "E4",
          "midi": 64,
          "time": 90.88671926250024,
          "velocity": 0.7874015748031497,
          "duration": 0.16249991875000092
        },
        {
          "name": "E3",
          "midi": 52,
          "time": 90.88671926250024,
          "velocity": 0.7874015748031497,
          "duration": 0.1338234625000041
        },
        {
          "name": "E4",
          "midi": 64,
          "time": 91.05877800000023,
          "velocity": 0.7874015748031497,
          "duration": 0.16176462500000355
        },
        {
          "name": "E3",
          "midi": 52,
          "time": 91.05877800000023,
          "velocity": 0.7874015748031497,
          "duration": 0.13308816875000673
        },
        {
          "name": "E4",
          "midi": 64,
          "time": 91.23966026250024,
          "velocity": 0.7874015748031497,
          "duration": 0.17205873750000933
        },
        {
          "name": "E3",
          "midi": 52,
          "time": 91.23966026250024,
          "velocity": 0.7874015748031497,
          "duration": 0.1529411000000067
        },
        {
          "name": "E4",
          "midi": 64,
          "time": 91.41171900000025,
          "velocity": 0.7874015748031497,
          "duration": 0.16176462500000355
        },
        {
          "name": "E3",
          "midi": 52,
          "time": 91.41171900000025,
          "velocity": 0.7874015748031497,
          "duration": 0.13308816875000673
        },
        {
          "name": "E4",
          "midi": 64,
          "time": 91.59260126250025,
          "velocity": 0.7874015748031497,
          "duration": 0.1529410999999925
        },
        {
          "name": "E3",
          "midi": 52,
          "time": 91.59260126250025,
          "velocity": 0.7874015748031497,
          "duration": 0.12426464374999568
        },
        {
          "name": "E4",
          "midi": 64,
          "time": 91.76466000000025,
          "velocity": 0.7874015748031497,
          "duration": 0.16176462500000355
        },
        {
          "name": "E3",
          "midi": 52,
          "time": 91.76466000000025,
          "velocity": 0.7874015748031497,
          "duration": 0.13308816875000673
        },
        {
          "name": "E4",
          "midi": 64,
          "time": 91.94554226250025,
          "velocity": 0.7874015748031497,
          "duration": 0.17205873750000933
        },
        {
          "name": "E3",
          "midi": 52,
          "time": 91.94554226250025,
          "velocity": 0.7874015748031497,
          "duration": 0.1529411000000067
        },
        {
          "name": "E4",
          "midi": 64,
          "time": 92.11760100000026,
          "velocity": 0.7874015748031497,
          "duration": 0.16176462500000355
        },
        {
          "name": "E3",
          "midi": 52,
          "time": 92.11760100000026,
          "velocity": 0.7874015748031497,
          "duration": 0.13308816875000673
        },
        {
          "name": "E4",
          "midi": 64,
          "time": 92.29848326250027,
          "velocity": 0.7874015748031497,
          "duration": 0.16249991875000092
        },
        {
          "name": "E3",
          "midi": 52,
          "time": 92.29848326250027,
          "velocity": 0.7874015748031497,
          "duration": 0.1338234625000041
        },
        {
          "name": "E4",
          "midi": 64,
          "time": 92.47054200000026,
          "velocity": 0.7874015748031497,
          "duration": 0.16176462500000355
        },
        {
          "name": "E3",
          "midi": 52,
          "time": 92.47054200000026,
          "velocity": 0.7874015748031497,
          "duration": 0.13308816875000673
        },
        {
          "name": "E4",
          "midi": 64,
          "time": 92.65142426250027,
          "velocity": 0.7874015748031497,
          "duration": 0.17205873750000933
        },
        {
          "name": "E3",
          "midi": 52,
          "time": 92.65142426250027,
          "velocity": 0.7874015748031497,
          "duration": 0.1529411000000067
        },
        {
          "name": "E4",
          "midi": 64,
          "time": 92.82348300000028,
          "velocity": 0.7874015748031497,
          "duration": 0.16176462500000355
        },
        {
          "name": "E3",
          "midi": 52,
          "time": 92.82348300000028,
          "velocity": 0.7874015748031497,
          "duration": 0.13308816875000673
        },
        {
          "name": "E4",
          "midi": 64,
          "time": 93.00436526250029,
          "velocity": 0.7874015748031497,
          "duration": 0.16249991875000092
        },
        {
          "name": "E3",
          "midi": 52,
          "time": 93.00436526250029,
          "velocity": 0.7874015748031497,
          "duration": 0.1338234625000041
        },
        {
          "name": "D4",
          "midi": 62,
          "time": 93.17642400000028,
          "velocity": 0.7874015748031497,
          "duration": 0.16176462500000355
        },
        {
          "name": "D3",
          "midi": 50,
          "time": 93.17642400000028,
          "velocity": 0.7874015748031497,
          "duration": 0.16176462500000355
        },
        {
          "name": "D4",
          "midi": 62,
          "time": 93.35730626250029,
          "velocity": 0.7874015748031497,
          "duration": 0.17205873749999512
        },
        {
          "name": "D3",
          "midi": 50,
          "time": 93.35730626250029,
          "velocity": 0.7874015748031497,
          "duration": 0.17205873749999512
        },
        {
          "name": "D4",
          "midi": 62,
          "time": 93.52936500000028,
          "velocity": 0.7874015748031497,
          "duration": 0.16176462500000355
        },
        {
          "name": "D3",
          "midi": 50,
          "time": 93.52936500000028,
          "velocity": 0.7874015748031497,
          "duration": 0.16176462500000355
        },
        {
          "name": "D4",
          "midi": 62,
          "time": 93.71024726250029,
          "velocity": 0.7874015748031497,
          "duration": 0.16249991875000092
        },
        {
          "name": "D3",
          "midi": 50,
          "time": 93.71024726250029,
          "velocity": 0.7874015748031497,
          "duration": 0.16249991875000092
        },
        {
          "name": "D4",
          "midi": 62,
          "time": 93.88230600000028,
          "velocity": 0.7874015748031497,
          "duration": 0.16176462500000355
        },
        {
          "name": "D3",
          "midi": 50,
          "time": 93.88230600000028,
          "velocity": 0.7874015748031497,
          "duration": 0.16176462500000355
        },
        {
          "name": "D4",
          "midi": 62,
          "time": 94.06318826250029,
          "velocity": 0.7874015748031497,
          "duration": 0.17205873749999512
        },
        {
          "name": "D3",
          "midi": 50,
          "time": 94.06318826250029,
          "velocity": 0.7874015748031497,
          "duration": 0.17205873749999512
        },
        {
          "name": "D4",
          "midi": 62,
          "time": 94.23524700000029,
          "velocity": 0.7874015748031497,
          "duration": 0.16176462500000355
        },
        {
          "name": "D3",
          "midi": 50,
          "time": 94.23524700000029,
          "velocity": 0.7874015748031497,
          "duration": 0.16176462500000355
        },
        {
          "name": "D4",
          "midi": 62,
          "time": 94.41612926250029,
          "velocity": 0.7874015748031497,
          "duration": 0.1529411000000067
        },
        {
          "name": "D3",
          "midi": 50,
          "time": 94.41612926250029,
          "velocity": 0.7874015748031497,
          "duration": 0.1529411000000067
        },
        {
          "name": "G4",
          "midi": 67,
          "time": 94.5881880000003,
          "velocity": 0.7874015748031497,
          "duration": 0.17647049999999354
        },
        {
          "name": "G3",
          "midi": 55,
          "time": 94.5881880000003,
          "velocity": 0.7874015748031497,
          "duration": 0.17647049999999354
        },
        {
          "name": "D4",
          "midi": 62,
          "time": 94.76907026250029,
          "velocity": 0.7874015748031497,
          "duration": 0.5058820999999938
        },
        {
          "name": "D3",
          "midi": 50,
          "time": 94.76907026250029,
          "velocity": 0.7874015748031497,
          "duration": 0.5058820999999938
        },
        {
          "name": "E4",
          "midi": 64,
          "time": 95.29407000000029,
          "velocity": 0.7874015748031497,
          "duration": 0.31470572499999605
        },
        {
          "name": "E3",
          "midi": 52,
          "time": 95.29407000000029,
          "velocity": 0.7874015748031497,
          "duration": 0.28602926874999923
        },
        {
          "name": "D4",
          "midi": 62,
          "time": 95.64701100000029,
          "velocity": 0.7874015748031497,
          "duration": 0.17647049999999354
        },
        {
          "name": "D3",
          "midi": 50,
          "time": 95.64701100000029,
          "velocity": 0.7874015748031497,
          "duration": 0.17647049999999354
        },
        {
          "name": "E4",
          "midi": 64,
          "time": 95.82789326250028,
          "velocity": 0.7874015748031497,
          "duration": 0.1338234624999899
        },
        {
          "name": "E3",
          "midi": 52,
          "time": 95.82789326250028,
          "velocity": 0.7874015748031497,
          "duration": 0.10514700624999307
        },
        {
          "name": "E4",
          "midi": 64,
          "time": 95.99995200000028,
          "velocity": 0.7874015748031497,
          "duration": 0.16176462500000355
        },
        {
          "name": "E3",
          "midi": 52,
          "time": 95.99995200000028,
          "velocity": 0.7874015748031497,
          "duration": 0.13308816875000673
        },
        {
          "name": "E4",
          "midi": 64,
          "time": 96.18083426250028,
          "velocity": 0.7874015748031497,
          "duration": 0.17205873750000933
        },
        {
          "name": "E3",
          "midi": 52,
          "time": 96.18083426250028,
          "velocity": 0.7874015748031497,
          "duration": 0.1529411000000067
        },
        {
          "name": "E4",
          "midi": 64,
          "time": 96.3528930000003,
          "velocity": 0.7874015748031497,
          "duration": 0.16176462500000355
        },
        {
          "name": "E3",
          "midi": 52,
          "time": 96.3528930000003,
          "velocity": 0.7874015748031497,
          "duration": 0.13308816875000673
        },
        {
          "name": "E4",
          "midi": 64,
          "time": 96.5337752625003,
          "velocity": 0.7874015748031497,
          "duration": 0.16249991875000092
        },
        {
          "name": "E3",
          "midi": 52,
          "time": 96.5337752625003,
          "velocity": 0.7874015748031497,
          "duration": 0.1338234625000041
        },
        {
          "name": "E4",
          "midi": 64,
          "time": 96.7058340000003,
          "velocity": 0.7874015748031497,
          "duration": 0.16176462500000355
        },
        {
          "name": "E3",
          "midi": 52,
          "time": 96.7058340000003,
          "velocity": 0.7874015748031497,
          "duration": 0.13308816875000673
        },
        {
          "name": "E4",
          "midi": 64,
          "time": 96.8867162625003,
          "velocity": 0.7874015748031497,
          "duration": 0.17205873750000933
        },
        {
          "name": "E3",
          "midi": 52,
          "time": 96.8867162625003,
          "velocity": 0.7874015748031497,
          "duration": 0.1529411000000067
        },
        {
          "name": "E4",
          "midi": 64,
          "time": 97.05877500000031,
          "velocity": 0.7874015748031497,
          "duration": 0.16176462500000355
        },
        {
          "name": "E3",
          "midi": 52,
          "time": 97.05877500000031,
          "velocity": 0.7874015748031497,
          "duration": 0.13308816875000673
        },
        {
          "name": "E4",
          "midi": 64,
          "time": 97.23965726250032,
          "velocity": 0.7874015748031497,
          "duration": 0.1529410999999925
        },
        {
          "name": "E3",
          "midi": 52,
          "time": 97.23965726250032,
          "velocity": 0.7874015748031497,
          "duration": 0.12426464374999568
        },
        {
          "name": "E4",
          "midi": 64,
          "time": 97.41171600000031,
          "velocity": 0.7874015748031497,
          "duration": 0.16176462500000355
        },
        {
          "name": "E3",
          "midi": 52,
          "time": 97.41171600000031,
          "velocity": 0.7874015748031497,
          "duration": 0.13308816875000673
        },
        {
          "name": "E4",
          "midi": 64,
          "time": 97.59259826250032,
          "velocity": 0.7874015748031497,
          "duration": 0.17205873750000933
        },
        {
          "name": "E3",
          "midi": 52,
          "time": 97.59259826250032,
          "velocity": 0.7874015748031497,
          "duration": 0.1529411000000067
        },
        {
          "name": "E4",
          "midi": 64,
          "time": 97.76465700000033,
          "velocity": 0.7874015748031497,
          "duration": 0.16176462500000355
        },
        {
          "name": "E3",
          "midi": 52,
          "time": 97.76465700000033,
          "velocity": 0.7874015748031497,
          "duration": 0.13308816875000673
        },
        {
          "name": "E4",
          "midi": 64,
          "time": 97.94553926250033,
          "velocity": 0.7874015748031497,
          "duration": 0.16249991875000092
        },
        {
          "name": "E3",
          "midi": 52,
          "time": 97.94553926250033,
          "velocity": 0.7874015748031497,
          "duration": 0.1338234625000041
        },
        {
          "name": "E4",
          "midi": 64,
          "time": 98.11759800000033,
          "velocity": 0.7874015748031497,
          "duration": 0.16176462500000355
        },
        {
          "name": "E3",
          "midi": 52,
          "time": 98.11759800000033,
          "velocity": 0.7874015748031497,
          "duration": 0.13308816875000673
        },
        {
          "name": "E4",
          "midi": 64,
          "time": 98.29848026250033,
          "velocity": 0.7874015748031497,
          "duration": 0.17205873750000933
        },
        {
          "name": "E3",
          "midi": 52,
          "time": 98.29848026250033,
          "velocity": 0.7874015748031497,
          "duration": 0.1529411000000067
        },
        {
          "name": "E4",
          "midi": 64,
          "time": 98.47053900000034,
          "velocity": 0.7874015748031497,
          "duration": 0.16176462500000355
        },
        {
          "name": "E3",
          "midi": 52,
          "time": 98.47053900000034,
          "velocity": 0.7874015748031497,
          "duration": 0.13308816875000673
        },
        {
          "name": "E4",
          "midi": 64,
          "time": 98.65142126250035,
          "velocity": 0.7874015748031497,
          "duration": 0.16249991875000092
        },
        {
          "name": "E3",
          "midi": 52,
          "time": 98.65142126250035,
          "velocity": 0.7874015748031497,
          "duration": 0.1338234625000041
        },
        {
          "name": "D4",
          "midi": 62,
          "time": 98.82348000000034,
          "velocity": 0.7874015748031497,
          "duration": 0.16176462500000355
        },
        {
          "name": "D3",
          "midi": 50,
          "time": 98.82348000000034,
          "velocity": 0.7874015748031497,
          "duration": 0.16176462500000355
        },
        {
          "name": "D4",
          "midi": 62,
          "time": 99.00436226250035,
          "velocity": 0.7874015748031497,
          "duration": 0.17205873749999512
        },
        {
          "name": "D3",
          "midi": 50,
          "time": 99.00436226250035,
          "velocity": 0.7874015748031497,
          "duration": 0.17205873749999512
        },
        {
          "name": "D4",
          "midi": 62,
          "time": 99.17642100000035,
          "velocity": 0.7874015748031497,
          "duration": 0.16176462500000355
        },
        {
          "name": "D3",
          "midi": 50,
          "time": 99.17642100000035,
          "velocity": 0.7874015748031497,
          "duration": 0.16176462500000355
        },
        {
          "name": "D4",
          "midi": 62,
          "time": 99.35730326250035,
          "velocity": 0.7874015748031497,
          "duration": 0.16249991875000092
        },
        {
          "name": "D3",
          "midi": 50,
          "time": 99.35730326250035,
          "velocity": 0.7874015748031497,
          "duration": 0.16249991875000092
        },
        {
          "name": "D4",
          "midi": 62,
          "time": 99.52936200000035,
          "velocity": 0.7874015748031497,
          "duration": 0.16176462500000355
        },
        {
          "name": "D3",
          "midi": 50,
          "time": 99.52936200000035,
          "velocity": 0.7874015748031497,
          "duration": 0.16176462500000355
        },
        {
          "name": "D4",
          "midi": 62,
          "time": 99.71024426250035,
          "velocity": 0.7874015748031497,
          "duration": 0.17205873749999512
        },
        {
          "name": "D3",
          "midi": 50,
          "time": 99.71024426250035,
          "velocity": 0.7874015748031497,
          "duration": 0.17205873749999512
        },
        {
          "name": "D4",
          "midi": 62,
          "time": 99.88230300000035,
          "velocity": 0.7874015748031497,
          "duration": 0.16176462500000355
        },
        {
          "name": "D3",
          "midi": 50,
          "time": 99.88230300000035,
          "velocity": 0.7874015748031497,
          "duration": 0.16176462500000355
        },
        {
          "name": "D4",
          "midi": 62,
          "time": 100.06318526250035,
          "velocity": 0.7874015748031497,
          "duration": 0.1529411000000067
        },
        {
          "name": "D3",
          "midi": 50,
          "time": 100.06318526250035,
          "velocity": 0.7874015748031497,
          "duration": 0.1529411000000067
        },
        {
          "name": "G4",
          "midi": 67,
          "time": 100.23524400000036,
          "velocity": 0.7874015748031497,
          "duration": 0.17647049999999354
        },
        {
          "name": "G3",
          "midi": 55,
          "time": 100.23524400000036,
          "velocity": 0.7874015748031497,
          "duration": 0.17647049999999354
        },
        {
          "name": "D4",
          "midi": 62,
          "time": 100.41612626250036,
          "velocity": 0.7874015748031497,
          "duration": 0.5058820999999938
        },
        {
          "name": "D3",
          "midi": 50,
          "time": 100.41612626250036,
          "velocity": 0.7874015748031497,
          "duration": 0.5058820999999938
        },
        {
          "name": "E4",
          "midi": 64,
          "time": 100.94112600000035,
          "velocity": 0.7874015748031497,
          "duration": 0.31470572499999605
        },
        {
          "name": "E3",
          "midi": 52,
          "time": 100.94112600000035,
          "velocity": 0.7874015748031497,
          "duration": 0.28602926874999923
        },
        {
          "name": "D4",
          "midi": 62,
          "time": 101.29406700000035,
          "velocity": 0.7874015748031497,
          "duration": 0.17647049999999354
        },
        {
          "name": "D3",
          "midi": 50,
          "time": 101.29406700000035,
          "velocity": 0.7874015748031497,
          "duration": 0.17647049999999354
        },
        {
          "name": "E4",
          "midi": 64,
          "time": 101.47494926250035,
          "velocity": 0.7874015748031497,
          "duration": 0.1338234624999899
        },
        {
          "name": "E3",
          "midi": 52,
          "time": 101.47494926250035,
          "velocity": 0.7874015748031497,
          "duration": 0.10514700624999307
        },
        {
          "name": "E4",
          "midi": 64,
          "time": 101.64700800000034,
          "velocity": 0.7874015748031497,
          "duration": 0.16176462500000355
        },
        {
          "name": "E3",
          "midi": 52,
          "time": 101.64700800000034,
          "velocity": 0.7874015748031497,
          "duration": 0.13308816875000673
        },
        {
          "name": "E4",
          "midi": 64,
          "time": 101.82789026250035,
          "velocity": 0.7874015748031497,
          "duration": 0.17205873750000933
        },
        {
          "name": "E3",
          "midi": 52,
          "time": 101.82789026250035,
          "velocity": 0.7874015748031497,
          "duration": 0.1529411000000067
        },
        {
          "name": "E4",
          "midi": 64,
          "time": 101.99994900000036,
          "velocity": 0.7874015748031497,
          "duration": 0.16176462500000355
        },
        {
          "name": "E3",
          "midi": 52,
          "time": 101.99994900000036,
          "velocity": 0.7874015748031497,
          "duration": 0.13308816875000673
        },
        {
          "name": "E4",
          "midi": 64,
          "time": 102.18083126250036,
          "velocity": 0.7874015748031497,
          "duration": 0.16249991875000092
        },
        {
          "name": "E3",
          "midi": 52,
          "time": 102.18083126250036,
          "velocity": 0.7874015748031497,
          "duration": 0.1338234625000041
        },
        {
          "name": "E4",
          "midi": 64,
          "time": 102.35289000000036,
          "velocity": 0.7874015748031497,
          "duration": 0.16176462500000355
        },
        {
          "name": "E3",
          "midi": 52,
          "time": 102.35289000000036,
          "velocity": 0.7874015748031497,
          "duration": 0.13308816875000673
        },
        {
          "name": "E4",
          "midi": 64,
          "time": 102.53377226250036,
          "velocity": 0.7874015748031497,
          "duration": 0.17205873750000933
        },
        {
          "name": "E3",
          "midi": 52,
          "time": 102.53377226250036,
          "velocity": 0.7874015748031497,
          "duration": 0.1529411000000067
        },
        {
          "name": "E4",
          "midi": 64,
          "time": 102.70583100000037,
          "velocity": 0.7874015748031497,
          "duration": 0.16176462500000355
        },
        {
          "name": "E3",
          "midi": 52,
          "time": 102.70583100000037,
          "velocity": 0.7874015748031497,
          "duration": 0.13308816875000673
        },
        {
          "name": "E4",
          "midi": 64,
          "time": 102.88671326250038,
          "velocity": 0.7874015748031497,
          "duration": 0.1529410999999925
        },
        {
          "name": "E3",
          "midi": 52,
          "time": 102.88671326250038,
          "velocity": 0.7874015748031497,
          "duration": 0.12426464374999568
        },
        {
          "name": "E4",
          "midi": 64,
          "time": 103.05877200000037,
          "velocity": 0.7874015748031497,
          "duration": 0.16176462500000355
        },
        {
          "name": "E3",
          "midi": 52,
          "time": 103.05877200000037,
          "velocity": 0.7874015748031497,
          "duration": 0.13308816875000673
        },
        {
          "name": "E4",
          "midi": 64,
          "time": 103.23965426250038,
          "velocity": 0.7874015748031497,
          "duration": 0.17205873750000933
        },
        {
          "name": "E3",
          "midi": 52,
          "time": 103.23965426250038,
          "velocity": 0.7874015748031497,
          "duration": 0.1529411000000067
        },
        {
          "name": "E4",
          "midi": 64,
          "time": 103.41171300000039,
          "velocity": 0.7874015748031497,
          "duration": 0.16176462500000355
        },
        {
          "name": "E3",
          "midi": 52,
          "time": 103.41171300000039,
          "velocity": 0.7874015748031497,
          "duration": 0.13308816875000673
        },
        {
          "name": "E4",
          "midi": 64,
          "time": 103.5925952625004,
          "velocity": 0.7874015748031497,
          "duration": 0.16249991875000092
        },
        {
          "name": "E3",
          "midi": 52,
          "time": 103.5925952625004,
          "velocity": 0.7874015748031497,
          "duration": 0.1338234625000041
        },
        {
          "name": "E4",
          "midi": 64,
          "time": 103.76465400000039,
          "velocity": 0.7874015748031497,
          "duration": 0.16176462500000355
        },
        {
          "name": "E3",
          "midi": 52,
          "time": 103.76465400000039,
          "velocity": 0.7874015748031497,
          "duration": 0.13308816875000673
        },
        {
          "name": "E4",
          "midi": 64,
          "time": 103.9455362625004,
          "velocity": 0.7874015748031497,
          "duration": 0.17205873750000933
        },
        {
          "name": "E3",
          "midi": 52,
          "time": 103.9455362625004,
          "velocity": 0.7874015748031497,
          "duration": 0.1529411000000067
        },
        {
          "name": "E4",
          "midi": 64,
          "time": 104.1175950000004,
          "velocity": 0.7874015748031497,
          "duration": 0.16176462500000355
        },
        {
          "name": "E3",
          "midi": 52,
          "time": 104.1175950000004,
          "velocity": 0.7874015748031497,
          "duration": 0.13308816875000673
        },
        {
          "name": "E4",
          "midi": 64,
          "time": 104.29847726250041,
          "velocity": 0.7874015748031497,
          "duration": 0.16249991875000092
        },
        {
          "name": "E3",
          "midi": 52,
          "time": 104.29847726250041,
          "velocity": 0.7874015748031497,
          "duration": 0.1338234625000041
        },
        {
          "name": "D4",
          "midi": 62,
          "time": 104.47053600000041,
          "velocity": 0.7874015748031497,
          "duration": 0.16176462500000355
        },
        {
          "name": "D3",
          "midi": 50,
          "time": 104.47053600000041,
          "velocity": 0.7874015748031497,
          "duration": 0.16176462500000355
        },
        {
          "name": "D4",
          "midi": 62,
          "time": 104.65141826250041,
          "velocity": 0.7874015748031497,
          "duration": 0.17205873749999512
        },
        {
          "name": "D3",
          "midi": 50,
          "time": 104.65141826250041,
          "velocity": 0.7874015748031497,
          "duration": 0.17205873749999512
        },
        {
          "name": "D4",
          "midi": 62,
          "time": 104.82347700000041,
          "velocity": 0.7874015748031497,
          "duration": 0.16176462500000355
        },
        {
          "name": "D3",
          "midi": 50,
          "time": 104.82347700000041,
          "velocity": 0.7874015748031497,
          "duration": 0.16176462500000355
        },
        {
          "name": "D4",
          "midi": 62,
          "time": 105.00435926250042,
          "velocity": 0.7874015748031497,
          "duration": 0.16249991875000092
        },
        {
          "name": "D3",
          "midi": 50,
          "time": 105.00435926250042,
          "velocity": 0.7874015748031497,
          "duration": 0.16249991875000092
        },
        {
          "name": "D4",
          "midi": 62,
          "time": 105.17641800000041,
          "velocity": 0.7874015748031497,
          "duration": 0.16176462500000355
        },
        {
          "name": "D3",
          "midi": 50,
          "time": 105.17641800000041,
          "velocity": 0.7874015748031497,
          "duration": 0.16176462500000355
        },
        {
          "name": "D4",
          "midi": 62,
          "time": 105.35730026250042,
          "velocity": 0.7874015748031497,
          "duration": 0.17205873749999512
        },
        {
          "name": "D3",
          "midi": 50,
          "time": 105.35730026250042,
          "velocity": 0.7874015748031497,
          "duration": 0.17205873749999512
        },
        {
          "name": "D4",
          "midi": 62,
          "time": 105.52935900000041,
          "velocity": 0.7874015748031497,
          "duration": 0.16176462500000355
        },
        {
          "name": "D3",
          "midi": 50,
          "time": 105.52935900000041,
          "velocity": 0.7874015748031497,
          "duration": 0.16176462500000355
        },
        {
          "name": "D4",
          "midi": 62,
          "time": 105.71024126250042,
          "velocity": 0.7874015748031497,
          "duration": 0.1529411000000067
        },
        {
          "name": "D3",
          "midi": 50,
          "time": 105.71024126250042,
          "velocity": 0.7874015748031497,
          "duration": 0.1529411000000067
        },
        {
          "name": "G4",
          "midi": 67,
          "time": 105.88230000000043,
          "velocity": 0.7874015748031497,
          "duration": 0.17647049999999354
        },
        {
          "name": "G3",
          "midi": 55,
          "time": 105.88230000000043,
          "velocity": 0.7874015748031497,
          "duration": 0.17647049999999354
        },
        {
          "name": "D4",
          "midi": 62,
          "time": 106.06318226250042,
          "velocity": 0.7874015748031497,
          "duration": 0.5058820999999938
        },
        {
          "name": "D3",
          "midi": 50,
          "time": 106.06318226250042,
          "velocity": 0.7874015748031497,
          "duration": 0.5058820999999938
        },
        {
          "name": "E4",
          "midi": 64,
          "time": 106.58818200000042,
          "velocity": 0.7874015748031497,
          "duration": 0.31470572499999605
        },
        {
          "name": "E3",
          "midi": 52,
          "time": 106.58818200000042,
          "velocity": 0.7874015748031497,
          "duration": 0.28602926874999923
        },
        {
          "name": "D4",
          "midi": 62,
          "time": 106.94112300000042,
          "velocity": 0.7874015748031497,
          "duration": 0.17647049999999354
        },
        {
          "name": "D3",
          "midi": 50,
          "time": 106.94112300000042,
          "velocity": 0.7874015748031497,
          "duration": 0.17647049999999354
        },
        {
          "name": "E4",
          "midi": 64,
          "time": 107.12200526250041,
          "velocity": 0.7874015748031497,
          "duration": 0.1338234624999899
        },
        {
          "name": "E3",
          "midi": 52,
          "time": 107.12200526250041,
          "velocity": 0.7874015748031497,
          "duration": 0.10514700624999307
        },
        {
          "name": "E4",
          "midi": 64,
          "time": 107.2940640000004,
          "velocity": 0.7874015748031497,
          "duration": 0.16176462500000355
        },
        {
          "name": "E3",
          "midi": 52,
          "time": 107.2940640000004,
          "velocity": 0.7874015748031497,
          "duration": 0.13308816875000673
        },
        {
          "name": "E4",
          "midi": 64,
          "time": 107.47494626250041,
          "velocity": 0.7874015748031497,
          "duration": 0.17205873750000933
        },
        {
          "name": "E3",
          "midi": 52,
          "time": 107.47494626250041,
          "velocity": 0.7874015748031497,
          "duration": 0.1529411000000067
        },
        {
          "name": "E4",
          "midi": 64,
          "time": 107.64700500000042,
          "velocity": 0.7874015748031497,
          "duration": 0.16176462500000355
        },
        {
          "name": "E3",
          "midi": 52,
          "time": 107.64700500000042,
          "velocity": 0.7874015748031497,
          "duration": 0.13308816875000673
        },
        {
          "name": "E4",
          "midi": 64,
          "time": 107.82788726250043,
          "velocity": 0.7874015748031497,
          "duration": 0.16249991875000092
        },
        {
          "name": "E3",
          "midi": 52,
          "time": 107.82788726250043,
          "velocity": 0.7874015748031497,
          "duration": 0.1338234625000041
        },
        {
          "name": "E4",
          "midi": 64,
          "time": 107.99994600000042,
          "velocity": 0.7874015748031497,
          "duration": 0.16176462500000355
        },
        {
          "name": "E3",
          "midi": 52,
          "time": 107.99994600000042,
          "velocity": 0.7874015748031497,
          "duration": 0.13308816875000673
        },
        {
          "name": "E4",
          "midi": 64,
          "time": 108.18082826250043,
          "velocity": 0.7874015748031497,
          "duration": 0.17205873750000933
        },
        {
          "name": "E3",
          "midi": 52,
          "time": 108.18082826250043,
          "velocity": 0.7874015748031497,
          "duration": 0.1529411000000067
        },
        {
          "name": "E4",
          "midi": 64,
          "time": 108.35288700000044,
          "velocity": 0.7874015748031497,
          "duration": 0.16176462500000355
        },
        {
          "name": "E3",
          "midi": 52,
          "time": 108.35288700000044,
          "velocity": 0.7874015748031497,
          "duration": 0.13308816875000673
        },
        {
          "name": "E4",
          "midi": 64,
          "time": 108.53376926250044,
          "velocity": 0.7874015748031497,
          "duration": 0.1529410999999925
        },
        {
          "name": "E3",
          "midi": 52,
          "time": 108.53376926250044,
          "velocity": 0.7874015748031497,
          "duration": 0.12426464374999568
        },
        {
          "name": "E4",
          "midi": 64,
          "time": 108.70582800000044,
          "velocity": 0.7874015748031497,
          "duration": 0.16176462500000355
        },
        {
          "name": "E3",
          "midi": 52,
          "time": 108.70582800000044,
          "velocity": 0.7874015748031497,
          "duration": 0.13308816875000673
        },
        {
          "name": "E4",
          "midi": 64,
          "time": 108.88671026250044,
          "velocity": 0.7874015748031497,
          "duration": 0.17205873750000933
        },
        {
          "name": "E3",
          "midi": 52,
          "time": 108.88671026250044,
          "velocity": 0.7874015748031497,
          "duration": 0.1529411000000067
        },
        {
          "name": "E4",
          "midi": 64,
          "time": 109.05876900000045,
          "velocity": 0.7874015748031497,
          "duration": 0.16176462500000355
        },
        {
          "name": "E3",
          "midi": 52,
          "time": 109.05876900000045,
          "velocity": 0.7874015748031497,
          "duration": 0.13308816875000673
        },
        {
          "name": "E4",
          "midi": 64,
          "time": 109.23965126250046,
          "velocity": 0.7874015748031497,
          "duration": 0.16249991875000092
        },
        {
          "name": "E3",
          "midi": 52,
          "time": 109.23965126250046,
          "velocity": 0.7874015748031497,
          "duration": 0.1338234625000041
        },
        {
          "name": "E4",
          "midi": 64,
          "time": 109.41171000000045,
          "velocity": 0.7874015748031497,
          "duration": 0.16176462500000355
        },
        {
          "name": "E3",
          "midi": 52,
          "time": 109.41171000000045,
          "velocity": 0.7874015748031497,
          "duration": 0.13308816875000673
        },
        {
          "name": "E4",
          "midi": 64,
          "time": 109.59259226250046,
          "velocity": 0.7874015748031497,
          "duration": 0.17205873750000933
        },
        {
          "name": "E3",
          "midi": 52,
          "time": 109.59259226250046,
          "velocity": 0.7874015748031497,
          "duration": 0.1529411000000067
        },
        {
          "name": "E4",
          "midi": 64,
          "time": 109.76465100000047,
          "velocity": 0.7874015748031497,
          "duration": 0.16176462500000355
        },
        {
          "name": "E3",
          "midi": 52,
          "time": 109.76465100000047,
          "velocity": 0.7874015748031497,
          "duration": 0.13308816875000673
        },
        {
          "name": "E4",
          "midi": 64,
          "time": 109.94553326250048,
          "velocity": 0.7874015748031497,
          "duration": 0.16249991875000092
        },
        {
          "name": "E3",
          "midi": 52,
          "time": 109.94553326250048,
          "velocity": 0.7874015748031497,
          "duration": 0.1338234625000041
        },
        {
          "name": "D4",
          "midi": 62,
          "time": 110.11759200000047,
          "velocity": 0.7874015748031497,
          "duration": 0.16176462500000355
        },
        {
          "name": "D3",
          "midi": 50,
          "time": 110.11759200000047,
          "velocity": 0.7874015748031497,
          "duration": 0.16176462500000355
        },
        {
          "name": "D4",
          "midi": 62,
          "time": 110.29847426250048,
          "velocity": 0.7874015748031497,
          "duration": 0.17205873749999512
        },
        {
          "name": "D3",
          "midi": 50,
          "time": 110.29847426250048,
          "velocity": 0.7874015748031497,
          "duration": 0.17205873749999512
        },
        {
          "name": "D4",
          "midi": 62,
          "time": 110.47053300000047,
          "velocity": 0.7874015748031497,
          "duration": 0.16176462500000355
        },
        {
          "name": "D3",
          "midi": 50,
          "time": 110.47053300000047,
          "velocity": 0.7874015748031497,
          "duration": 0.16176462500000355
        },
        {
          "name": "D4",
          "midi": 62,
          "time": 110.65141526250048,
          "velocity": 0.7874015748031497,
          "duration": 0.16249991875000092
        },
        {
          "name": "D3",
          "midi": 50,
          "time": 110.65141526250048,
          "velocity": 0.7874015748031497,
          "duration": 0.16249991875000092
        },
        {
          "name": "D4",
          "midi": 62,
          "time": 110.82347400000047,
          "velocity": 0.7874015748031497,
          "duration": 0.16176462500000355
        },
        {
          "name": "D3",
          "midi": 50,
          "time": 110.82347400000047,
          "velocity": 0.7874015748031497,
          "duration": 0.16176462500000355
        },
        {
          "name": "D4",
          "midi": 62,
          "time": 111.00435626250048,
          "velocity": 0.7874015748031497,
          "duration": 0.17205873749999512
        },
        {
          "name": "D3",
          "midi": 50,
          "time": 111.00435626250048,
          "velocity": 0.7874015748031497,
          "duration": 0.17205873749999512
        },
        {
          "name": "D4",
          "midi": 62,
          "time": 111.17641500000047,
          "velocity": 0.7874015748031497,
          "duration": 0.16176462500000355
        },
        {
          "name": "D3",
          "midi": 50,
          "time": 111.17641500000047,
          "velocity": 0.7874015748031497,
          "duration": 0.16176462500000355
        },
        {
          "name": "D4",
          "midi": 62,
          "time": 111.35729726250048,
          "velocity": 0.7874015748031497,
          "duration": 0.1529411000000067
        },
        {
          "name": "D3",
          "midi": 50,
          "time": 111.35729726250048,
          "velocity": 0.7874015748031497,
          "duration": 0.1529411000000067
        },
        {
          "name": "G4",
          "midi": 67,
          "time": 111.52935600000049,
          "velocity": 0.7874015748031497,
          "duration": 0.17647049999999354
        },
        {
          "name": "G3",
          "midi": 55,
          "time": 111.52935600000049,
          "velocity": 0.7874015748031497,
          "duration": 0.17647049999999354
        },
        {
          "name": "D4",
          "midi": 62,
          "time": 111.71023826250048,
          "velocity": 0.7874015748031497,
          "duration": 0.5058820999999938
        },
        {
          "name": "D3",
          "midi": 50,
          "time": 111.71023826250048,
          "velocity": 0.7874015748031497,
          "duration": 0.5058820999999938
        },
        {
          "name": "E4",
          "midi": 64,
          "time": 112.23523800000048,
          "velocity": 0.7874015748031497,
          "duration": 0.31470572499999605
        },
        {
          "name": "E3",
          "midi": 52,
          "time": 112.23523800000048,
          "velocity": 0.7874015748031497,
          "duration": 0.28602926874999923
        },
        {
          "name": "D4",
          "midi": 62,
          "time": 112.58817900000048,
          "velocity": 0.7874015748031497,
          "duration": 0.17647049999999354
        },
        {
          "name": "D3",
          "midi": 50,
          "time": 112.58817900000048,
          "velocity": 0.7874015748031497,
          "duration": 0.17647049999999354
        },
        {
          "name": "E4",
          "midi": 64,
          "time": 112.76906126250047,
          "velocity": 0.7874015748031497,
          "duration": 0.1338234624999899
        },
        {
          "name": "E3",
          "midi": 52,
          "time": 112.76906126250047,
          "velocity": 0.7874015748031497,
          "duration": 0.10514700624999307
        },
        {
          "name": "E4",
          "midi": 64,
          "time": 112.94112000000047,
          "velocity": 0.7874015748031497,
          "duration": 0.16176462500000355
        },
        {
          "name": "E3",
          "midi": 52,
          "time": 112.94112000000047,
          "velocity": 0.7874015748031497,
          "duration": 0.13308816875000673
        },
        {
          "name": "E4",
          "midi": 64,
          "time": 113.12200226250047,
          "velocity": 0.7874015748031497,
          "duration": 0.17205873750000933
        },
        {
          "name": "E3",
          "midi": 52,
          "time": 113.12200226250047,
          "velocity": 0.7874015748031497,
          "duration": 0.1529411000000067
        },
        {
          "name": "E4",
          "midi": 64,
          "time": 113.29406100000048,
          "velocity": 0.7874015748031497,
          "duration": 0.16176462500000355
        },
        {
          "name": "E3",
          "midi": 52,
          "time": 113.29406100000048,
          "velocity": 0.7874015748031497,
          "duration": 0.13308816875000673
        },
        {
          "name": "E4",
          "midi": 64,
          "time": 113.47494326250049,
          "velocity": 0.7874015748031497,
          "duration": 0.16249991875000092
        },
        {
          "name": "E3",
          "midi": 52,
          "time": 113.47494326250049,
          "velocity": 0.7874015748031497,
          "duration": 0.1338234625000041
        },
        {
          "name": "E4",
          "midi": 64,
          "time": 113.64700200000048,
          "velocity": 0.7874015748031497,
          "duration": 0.16176462500000355
        },
        {
          "name": "E3",
          "midi": 52,
          "time": 113.64700200000048,
          "velocity": 0.7874015748031497,
          "duration": 0.13308816875000673
        },
        {
          "name": "E4",
          "midi": 64,
          "time": 113.82788426250049,
          "velocity": 0.7874015748031497,
          "duration": 0.17205873750000933
        },
        {
          "name": "E3",
          "midi": 52,
          "time": 113.82788426250049,
          "velocity": 0.7874015748031497,
          "duration": 0.1529411000000067
        },
        {
          "name": "E4",
          "midi": 64,
          "time": 113.9999430000005,
          "velocity": 0.7874015748031497,
          "duration": 0.16176462500000355
        },
        {
          "name": "E3",
          "midi": 52,
          "time": 113.9999430000005,
          "velocity": 0.7874015748031497,
          "duration": 0.13308816875000673
        },
        {
          "name": "E4",
          "midi": 64,
          "time": 114.1808252625005,
          "velocity": 0.7874015748031497,
          "duration": 0.1529410999999925
        },
        {
          "name": "E3",
          "midi": 52,
          "time": 114.1808252625005,
          "velocity": 0.7874015748031497,
          "duration": 0.12426464374999568
        },
        {
          "name": "E4",
          "midi": 64,
          "time": 114.3528840000005,
          "velocity": 0.7874015748031497,
          "duration": 0.16176462500000355
        },
        {
          "name": "E3",
          "midi": 52,
          "time": 114.3528840000005,
          "velocity": 0.7874015748031497,
          "duration": 0.13308816875000673
        },
        {
          "name": "E4",
          "midi": 64,
          "time": 114.5337662625005,
          "velocity": 0.7874015748031497,
          "duration": 0.17205873750000933
        },
        {
          "name": "E3",
          "midi": 52,
          "time": 114.5337662625005,
          "velocity": 0.7874015748031497,
          "duration": 0.1529411000000067
        },
        {
          "name": "E4",
          "midi": 64,
          "time": 114.70582500000052,
          "velocity": 0.7874015748031497,
          "duration": 0.16176462500000355
        },
        {
          "name": "E3",
          "midi": 52,
          "time": 114.70582500000052,
          "velocity": 0.7874015748031497,
          "duration": 0.13308816875000673
        },
        {
          "name": "E4",
          "midi": 64,
          "time": 114.88670726250052,
          "velocity": 0.7874015748031497,
          "duration": 0.16249991875000092
        },
        {
          "name": "E3",
          "midi": 52,
          "time": 114.88670726250052,
          "velocity": 0.7874015748031497,
          "duration": 0.1338234625000041
        },
        {
          "name": "E4",
          "midi": 64,
          "time": 115.05876600000052,
          "velocity": 0.7874015748031497,
          "duration": 0.16176462500000355
        },
        {
          "name": "E3",
          "midi": 52,
          "time": 115.05876600000052,
          "velocity": 0.7874015748031497,
          "duration": 0.13308816875000673
        },
        {
          "name": "E4",
          "midi": 64,
          "time": 115.23964826250052,
          "velocity": 0.7874015748031497,
          "duration": 0.17205873750000933
        },
        {
          "name": "E3",
          "midi": 52,
          "time": 115.23964826250052,
          "velocity": 0.7874015748031497,
          "duration": 0.1529411000000067
        },
        {
          "name": "E4",
          "midi": 64,
          "time": 115.41170700000053,
          "velocity": 0.7874015748031497,
          "duration": 0.16176462500000355
        },
        {
          "name": "E3",
          "midi": 52,
          "time": 115.41170700000053,
          "velocity": 0.7874015748031497,
          "duration": 0.13308816875000673
        },
        {
          "name": "E4",
          "midi": 64,
          "time": 115.59258926250054,
          "velocity": 0.7874015748031497,
          "duration": 0.16249991875000092
        },
        {
          "name": "E3",
          "midi": 52,
          "time": 115.59258926250054,
          "velocity": 0.7874015748031497,
          "duration": 0.1338234625000041
        },
        {
          "name": "D4",
          "midi": 62,
          "time": 115.76464800000053,
          "velocity": 0.7874015748031497,
          "duration": 0.16176462500000355
        },
        {
          "name": "D3",
          "midi": 50,
          "time": 115.76464800000053,
          "velocity": 0.7874015748031497,
          "duration": 0.16176462500000355
        },
        {
          "name": "D4",
          "midi": 62,
          "time": 115.94553026250054,
          "velocity": 0.7874015748031497,
          "duration": 0.17205873749999512
        },
        {
          "name": "D3",
          "midi": 50,
          "time": 115.94553026250054,
          "velocity": 0.7874015748031497,
          "duration": 0.17205873749999512
        },
        {
          "name": "D4",
          "midi": 62,
          "time": 116.11758900000054,
          "velocity": 0.7874015748031497,
          "duration": 0.16176462500000355
        },
        {
          "name": "D3",
          "midi": 50,
          "time": 116.11758900000054,
          "velocity": 0.7874015748031497,
          "duration": 0.16176462500000355
        },
        {
          "name": "D4",
          "midi": 62,
          "time": 116.29847126250054,
          "velocity": 0.7874015748031497,
          "duration": 0.16249991875000092
        },
        {
          "name": "D3",
          "midi": 50,
          "time": 116.29847126250054,
          "velocity": 0.7874015748031497,
          "duration": 0.16249991875000092
        },
        {
          "name": "D4",
          "midi": 62,
          "time": 116.47053000000054,
          "velocity": 0.7874015748031497,
          "duration": 0.16176462500000355
        },
        {
          "name": "D3",
          "midi": 50,
          "time": 116.47053000000054,
          "velocity": 0.7874015748031497,
          "duration": 0.16176462500000355
        },
        {
          "name": "D4",
          "midi": 62,
          "time": 116.65141226250054,
          "velocity": 0.7874015748031497,
          "duration": 0.17205873749999512
        },
        {
          "name": "D3",
          "midi": 50,
          "time": 116.65141226250054,
          "velocity": 0.7874015748031497,
          "duration": 0.17205873749999512
        },
        {
          "name": "D4",
          "midi": 62,
          "time": 116.82347100000054,
          "velocity": 0.7874015748031497,
          "duration": 0.16176462500000355
        },
        {
          "name": "D3",
          "midi": 50,
          "time": 116.82347100000054,
          "velocity": 0.7874015748031497,
          "duration": 0.16176462500000355
        },
        {
          "name": "D4",
          "midi": 62,
          "time": 117.00435326250054,
          "velocity": 0.7874015748031497,
          "duration": 0.1529411000000067
        },
        {
          "name": "D3",
          "midi": 50,
          "time": 117.00435326250054,
          "velocity": 0.7874015748031497,
          "duration": 0.1529411000000067
        },
        {
          "name": "G4",
          "midi": 67,
          "time": 117.17641200000055,
          "velocity": 0.7874015748031497,
          "duration": 0.17647049999999354
        },
        {
          "name": "G3",
          "midi": 55,
          "time": 117.17641200000055,
          "velocity": 0.7874015748031497,
          "duration": 0.17647049999999354
        },
        {
          "name": "D4",
          "midi": 62,
          "time": 117.35729426250055,
          "velocity": 0.7874015748031497,
          "duration": 0.5058820999999938
        },
        {
          "name": "D3",
          "midi": 50,
          "time": 117.35729426250055,
          "velocity": 0.7874015748031497,
          "duration": 0.5058820999999938
        },
        {
          "name": "E4",
          "midi": 64,
          "time": 117.88229400000054,
          "velocity": 0.7874015748031497,
          "duration": 0.31470572499999605
        },
        {
          "name": "E3",
          "midi": 52,
          "time": 117.88229400000054,
          "velocity": 0.7874015748031497,
          "duration": 0.28602926874999923
        },
        {
          "name": "D4",
          "midi": 62,
          "time": 118.23523500000054,
          "velocity": 0.7874015748031497,
          "duration": 0.17647049999999354
        },
        {
          "name": "D3",
          "midi": 50,
          "time": 118.23523500000054,
          "velocity": 0.7874015748031497,
          "duration": 0.17647049999999354
        },
        {
          "name": "E4",
          "midi": 64,
          "time": 118.41611726250053,
          "velocity": 0.7874015748031497,
          "duration": 0.1338234624999899
        },
        {
          "name": "E3",
          "midi": 52,
          "time": 118.41611726250053,
          "velocity": 0.7874015748031497,
          "duration": 0.10514700624999307
        },
        {
          "name": "E4",
          "midi": 64,
          "time": 118.58817600000053,
          "velocity": 0.7874015748031497,
          "duration": 0.16176462500000355
        },
        {
          "name": "E3",
          "midi": 52,
          "time": 118.58817600000053,
          "velocity": 0.7874015748031497,
          "duration": 0.13308816875000673
        },
        {
          "name": "E4",
          "midi": 64,
          "time": 118.76905826250054,
          "velocity": 0.7874015748031497,
          "duration": 0.17205873750000933
        },
        {
          "name": "E3",
          "midi": 52,
          "time": 118.76905826250054,
          "velocity": 0.7874015748031497,
          "duration": 0.1529411000000067
        },
        {
          "name": "E4",
          "midi": 64,
          "time": 118.94111700000055,
          "velocity": 0.7874015748031497,
          "duration": 0.16176462500000355
        },
        {
          "name": "E3",
          "midi": 52,
          "time": 118.94111700000055,
          "velocity": 0.7874015748031497,
          "duration": 0.13308816875000673
        },
        {
          "name": "E4",
          "midi": 64,
          "time": 119.12199926250055,
          "velocity": 0.7874015748031497,
          "duration": 0.16249991875000092
        },
        {
          "name": "E3",
          "midi": 52,
          "time": 119.12199926250055,
          "velocity": 0.7874015748031497,
          "duration": 0.1338234625000041
        },
        {
          "name": "E4",
          "midi": 64,
          "time": 119.29405800000055,
          "velocity": 0.7874015748031497,
          "duration": 0.16176462500000355
        },
        {
          "name": "E3",
          "midi": 52,
          "time": 119.29405800000055,
          "velocity": 0.7874015748031497,
          "duration": 0.13308816875000673
        },
        {
          "name": "E4",
          "midi": 64,
          "time": 119.47494026250055,
          "velocity": 0.7874015748031497,
          "duration": 0.17205873750000933
        },
        {
          "name": "E3",
          "midi": 52,
          "time": 119.47494026250055,
          "velocity": 0.7874015748031497,
          "duration": 0.1529411000000067
        },
        {
          "name": "E4",
          "midi": 64,
          "time": 119.64699900000056,
          "velocity": 0.7874015748031497,
          "duration": 0.16176462500000355
        },
        {
          "name": "E3",
          "midi": 52,
          "time": 119.64699900000056,
          "velocity": 0.7874015748031497,
          "duration": 0.13308816875000673
        },
        {
          "name": "E4",
          "midi": 64,
          "time": 119.82788126250057,
          "velocity": 0.7874015748031497,
          "duration": 0.1529410999999925
        },
        {
          "name": "E3",
          "midi": 52,
          "time": 119.82788126250057,
          "velocity": 0.7874015748031497,
          "duration": 0.12426464374999568
        },
        {
          "name": "E4",
          "midi": 64,
          "time": 119.99994000000056,
          "velocity": 0.7874015748031497,
          "duration": 0.16176462500000355
        },
        {
          "name": "E3",
          "midi": 52,
          "time": 119.99994000000056,
          "velocity": 0.7874015748031497,
          "duration": 0.13308816875000673
        },
        {
          "name": "E4",
          "midi": 64,
          "time": 120.18082226250057,
          "velocity": 0.7874015748031497,
          "duration": 0.17205873750000933
        },
        {
          "name": "E3",
          "midi": 52,
          "time": 120.18082226250057,
          "velocity": 0.7874015748031497,
          "duration": 0.1529411000000067
        },
        {
          "name": "E4",
          "midi": 64,
          "time": 120.35288100000058,
          "velocity": 0.7874015748031497,
          "duration": 0.16176462500000355
        },
        {
          "name": "E3",
          "midi": 52,
          "time": 120.35288100000058,
          "velocity": 0.7874015748031497,
          "duration": 0.13308816875000673
        },
        {
          "name": "E4",
          "midi": 64,
          "time": 120.53376326250059,
          "velocity": 0.7874015748031497,
          "duration": 0.16249991875000092
        },
        {
          "name": "E3",
          "midi": 52,
          "time": 120.53376326250059,
          "velocity": 0.7874015748031497,
          "duration": 0.1338234625000041
        },
        {
          "name": "E4",
          "midi": 64,
          "time": 120.70582200000058,
          "velocity": 0.7874015748031497,
          "duration": 0.16176462500000355
        },
        {
          "name": "E3",
          "midi": 52,
          "time": 120.70582200000058,
          "velocity": 0.7874015748031497,
          "duration": 0.13308816875000673
        },
        {
          "name": "E4",
          "midi": 64,
          "time": 120.88670426250059,
          "velocity": 0.7874015748031497,
          "duration": 0.17205873750000933
        },
        {
          "name": "E3",
          "midi": 52,
          "time": 120.88670426250059,
          "velocity": 0.7874015748031497,
          "duration": 0.1529411000000067
        },
        {
          "name": "E4",
          "midi": 64,
          "time": 121.0587630000006,
          "velocity": 0.7874015748031497,
          "duration": 0.16176462500000355
        },
        {
          "name": "E3",
          "midi": 52,
          "time": 121.0587630000006,
          "velocity": 0.7874015748031497,
          "duration": 0.13308816875000673
        },
        {
          "name": "E4",
          "midi": 64,
          "time": 121.2396452625006,
          "velocity": 0.7874015748031497,
          "duration": 0.16249991875000092
        },
        {
          "name": "E3",
          "midi": 52,
          "time": 121.2396452625006,
          "velocity": 0.7874015748031497,
          "duration": 0.1338234625000041
        },
        {
          "name": "D4",
          "midi": 62,
          "time": 121.4117040000006,
          "velocity": 0.7874015748031497,
          "duration": 0.16176462500000355
        },
        {
          "name": "D3",
          "midi": 50,
          "time": 121.4117040000006,
          "velocity": 0.7874015748031497,
          "duration": 0.16176462500000355
        },
        {
          "name": "D4",
          "midi": 62,
          "time": 121.5925862625006,
          "velocity": 0.7874015748031497,
          "duration": 0.17205873749999512
        },
        {
          "name": "D3",
          "midi": 50,
          "time": 121.5925862625006,
          "velocity": 0.7874015748031497,
          "duration": 0.17205873749999512
        },
        {
          "name": "D4",
          "midi": 62,
          "time": 121.7646450000006,
          "velocity": 0.7874015748031497,
          "duration": 0.16176462500000355
        },
        {
          "name": "D3",
          "midi": 50,
          "time": 121.7646450000006,
          "velocity": 0.7874015748031497,
          "duration": 0.16176462500000355
        },
        {
          "name": "D4",
          "midi": 62,
          "time": 121.9455272625006,
          "velocity": 0.7874015748031497,
          "duration": 0.16249991875000092
        },
        {
          "name": "D3",
          "midi": 50,
          "time": 121.9455272625006,
          "velocity": 0.7874015748031497,
          "duration": 0.16249991875000092
        },
        {
          "name": "D4",
          "midi": 62,
          "time": 122.1175860000006,
          "velocity": 0.7874015748031497,
          "duration": 0.16176462500000355
        },
        {
          "name": "D3",
          "midi": 50,
          "time": 122.1175860000006,
          "velocity": 0.7874015748031497,
          "duration": 0.16176462500000355
        },
        {
          "name": "D4",
          "midi": 62,
          "time": 122.2984682625006,
          "velocity": 0.7874015748031497,
          "duration": 0.17205873749999512
        },
        {
          "name": "D3",
          "midi": 50,
          "time": 122.2984682625006,
          "velocity": 0.7874015748031497,
          "duration": 0.17205873749999512
        },
        {
          "name": "D4",
          "midi": 62,
          "time": 122.4705270000006,
          "velocity": 0.7874015748031497,
          "duration": 0.16176462500000355
        },
        {
          "name": "D3",
          "midi": 50,
          "time": 122.4705270000006,
          "velocity": 0.7874015748031497,
          "duration": 0.16176462500000355
        },
        {
          "name": "D4",
          "midi": 62,
          "time": 122.65140926250061,
          "velocity": 0.7874015748031497,
          "duration": 0.1529411000000067
        },
        {
          "name": "D3",
          "midi": 50,
          "time": 122.65140926250061,
          "velocity": 0.7874015748031497,
          "duration": 0.1529411000000067
        },
        {
          "name": "G4",
          "midi": 67,
          "time": 122.82346800000062,
          "velocity": 0.7874015748031497,
          "duration": 0.17647049999999354
        },
        {
          "name": "G3",
          "midi": 55,
          "time": 122.82346800000062,
          "velocity": 0.7874015748031497,
          "duration": 0.17647049999999354
        },
        {
          "name": "D4",
          "midi": 62,
          "time": 123.00435026250061,
          "velocity": 0.7874015748031497,
          "duration": 0.5058820999999938
        },
        {
          "name": "D3",
          "midi": 50,
          "time": 123.00435026250061,
          "velocity": 0.7874015748031497,
          "duration": 0.5058820999999938
        },
        {
          "name": "E4",
          "midi": 64,
          "time": 123.5293500000006,
          "velocity": 0.7874015748031497,
          "duration": 0.31470572499999605
        },
        {
          "name": "E3",
          "midi": 52,
          "time": 123.5293500000006,
          "velocity": 0.7874015748031497,
          "duration": 0.28602926874999923
        },
        {
          "name": "D4",
          "midi": 62,
          "time": 123.8822910000006,
          "velocity": 0.7874015748031497,
          "duration": 0.17647049999999354
        },
        {
          "name": "D3",
          "midi": 50,
          "time": 123.8822910000006,
          "velocity": 0.7874015748031497,
          "duration": 0.17647049999999354
        },
        {
          "name": "E4",
          "midi": 64,
          "time": 124.0631732625006,
          "velocity": 0.7874015748031497,
          "duration": 0.1338234624999899
        },
        {
          "name": "E3",
          "midi": 52,
          "time": 124.0631732625006,
          "velocity": 0.7874015748031497,
          "duration": 0.10514700624999307
        },
        {
          "name": "E4",
          "midi": 64,
          "time": 124.24405552500059,
          "velocity": 0.8661417322834646,
          "duration": 1.4117640000000051
        },
        {
          "name": "E3",
          "midi": 52,
          "time": 124.24405552500059,
          "velocity": 0.8661417322834646,
          "duration": 1.3838228375000057
        },
        {
          "name": "C3",
          "midi": 48,
          "time": 125.6469960000006,
          "velocity": 0.8661417322834646,
          "duration": 0.7058820000000026
        },
        {
          "name": "C4",
          "midi": 60,
          "time": 125.6469960000006,
          "velocity": 0.8661417322834646,
          "duration": 0.7058820000000026
        },
        {
          "name": "D3",
          "midi": 50,
          "time": 126.3528780000006,
          "velocity": 0.8661417322834646,
          "duration": 0.7058820000000026
        },
        {
          "name": "D4",
          "midi": 62,
          "time": 126.3528780000006,
          "velocity": 0.8661417322834646,
          "duration": 0.7058820000000026
        },
        {
          "name": "E4",
          "midi": 64,
          "time": 127.0587600000006,
          "velocity": 0.7874015748031497,
          "duration": 0.16176462500000355
        },
        {
          "name": "E3",
          "midi": 52,
          "time": 127.0587600000006,
          "velocity": 0.7874015748031497,
          "duration": 0.13308816875000673
        },
        {
          "name": "E4",
          "midi": 64,
          "time": 127.23964226250061,
          "velocity": 0.7874015748031497,
          "duration": 0.17205873750000933
        },
        {
          "name": "E3",
          "midi": 52,
          "time": 127.23964226250061,
          "velocity": 0.7874015748031497,
          "duration": 0.1529411000000067
        },
        {
          "name": "E4",
          "midi": 64,
          "time": 127.41170100000062,
          "velocity": 0.7874015748031497,
          "duration": 0.16176462500000355
        },
        {
          "name": "E3",
          "midi": 52,
          "time": 127.41170100000062,
          "velocity": 0.7874015748031497,
          "duration": 0.13308816875000673
        },
        {
          "name": "E4",
          "midi": 64,
          "time": 127.59258326250063,
          "velocity": 0.7874015748031497,
          "duration": 0.16249991875000092
        },
        {
          "name": "E3",
          "midi": 52,
          "time": 127.59258326250063,
          "velocity": 0.7874015748031497,
          "duration": 0.1338234625000041
        },
        {
          "name": "E4",
          "midi": 64,
          "time": 127.76464200000062,
          "velocity": 0.7874015748031497,
          "duration": 0.16176462500000355
        },
        {
          "name": "E3",
          "midi": 52,
          "time": 127.76464200000062,
          "velocity": 0.7874015748031497,
          "duration": 0.13308816875000673
        },
        {
          "name": "E4",
          "midi": 64,
          "time": 127.94552426250063,
          "velocity": 0.7874015748031497,
          "duration": 0.17205873749999512
        },
        {
          "name": "E3",
          "midi": 52,
          "time": 127.94552426250063,
          "velocity": 0.7874015748031497,
          "duration": 0.1529411000000067
        },
        {
          "name": "E4",
          "midi": 64,
          "time": 128.11758300000062,
          "velocity": 0.7874015748031497,
          "duration": 0.16176462499998934
        },
        {
          "name": "E3",
          "midi": 52,
          "time": 128.11758300000062,
          "velocity": 0.7874015748031497,
          "duration": 0.13308816874999252
        },
        {
          "name": "E4",
          "midi": 64,
          "time": 128.2984652625006,
          "velocity": 0.7874015748031497,
          "duration": 0.1529410999999925
        },
        {
          "name": "E3",
          "midi": 52,
          "time": 128.2984652625006,
          "velocity": 0.7874015748031497,
          "duration": 0.12426464374999568
        },
        {
          "name": "E4",
          "midi": 64,
          "time": 128.47052400000058,
          "velocity": 0.7874015748031497,
          "duration": 0.16176462499998934
        },
        {
          "name": "E3",
          "midi": 52,
          "time": 128.47052400000058,
          "velocity": 0.7874015748031497,
          "duration": 0.13308816874999252
        },
        {
          "name": "E4",
          "midi": 64,
          "time": 128.65140626250056,
          "velocity": 0.7874015748031497,
          "duration": 0.1720587374999809
        },
        {
          "name": "E3",
          "midi": 52,
          "time": 128.65140626250056,
          "velocity": 0.7874015748031497,
          "duration": 0.1529410999999925
        },
        {
          "name": "E4",
          "midi": 64,
          "time": 128.82346500000054,
          "velocity": 0.7874015748031497,
          "duration": 0.16176462499998934
        },
        {
          "name": "E3",
          "midi": 52,
          "time": 128.82346500000054,
          "velocity": 0.7874015748031497,
          "duration": 0.13308816874999252
        },
        {
          "name": "E4",
          "midi": 64,
          "time": 129.00434726250052,
          "velocity": 0.7874015748031497,
          "duration": 0.16249991875000092
        },
        {
          "name": "E3",
          "midi": 52,
          "time": 129.00434726250052,
          "velocity": 0.7874015748031497,
          "duration": 0.1338234625000041
        },
        {
          "name": "E4",
          "midi": 64,
          "time": 129.17640600000053,
          "velocity": 0.7874015748031497,
          "duration": 0.16176462499998934
        },
        {
          "name": "E3",
          "midi": 52,
          "time": 129.17640600000053,
          "velocity": 0.7874015748031497,
          "duration": 0.13308816874999252
        },
        {
          "name": "E4",
          "midi": 64,
          "time": 129.3572882625005,
          "velocity": 0.7874015748031497,
          "duration": 0.1720587374999809
        },
        {
          "name": "E3",
          "midi": 52,
          "time": 129.3572882625005,
          "velocity": 0.7874015748031497,
          "duration": 0.1529410999999925
        },
        {
          "name": "E4",
          "midi": 64,
          "time": 129.52934700000048,
          "velocity": 0.7874015748031497,
          "duration": 0.16176462499998934
        },
        {
          "name": "E3",
          "midi": 52,
          "time": 129.52934700000048,
          "velocity": 0.7874015748031497,
          "duration": 0.13308816874999252
        },
        {
          "name": "D3",
          "midi": 50,
          "time": 129.71022926250046,
          "velocity": 0.7874015748031497,
          "duration": 0.1529410999999925
        },
        {
          "name": "D4",
          "midi": 62,
          "time": 129.71022926250046,
          "velocity": 0.7874015748031497,
          "duration": 0.1529410999999925
        },
        {
          "name": "E4",
          "midi": 64,
          "time": 129.89111152500047,
          "velocity": 0.8661417322834646,
          "duration": 1.4117639999999767
        },
        {
          "name": "E3",
          "midi": 52,
          "time": 129.89111152500047,
          "velocity": 0.8661417322834646,
          "duration": 1.3838228374999915
        },
        {
          "name": "C3",
          "midi": 48,
          "time": 131.29405200000045,
          "velocity": 0.8661417322834646,
          "duration": 0.7058820000000026
        },
        {
          "name": "C4",
          "midi": 60,
          "time": 131.29405200000045,
          "velocity": 0.8661417322834646,
          "duration": 0.7058820000000026
        },
        {
          "name": "D3",
          "midi": 50,
          "time": 131.99993400000045,
          "velocity": 0.8661417322834646,
          "duration": 0.7058820000000026
        },
        {
          "name": "D4",
          "midi": 62,
          "time": 131.99993400000045,
          "velocity": 0.8661417322834646,
          "duration": 0.7058820000000026
        },
        {
          "name": "E4",
          "midi": 64,
          "time": 132.70581600000045,
          "velocity": 0.7874015748031497,
          "duration": 0.16176462499998934
        },
        {
          "name": "E3",
          "midi": 52,
          "time": 132.70581600000045,
          "velocity": 0.7874015748031497,
          "duration": 0.13308816874999252
        },
        {
          "name": "E4",
          "midi": 64,
          "time": 132.88669826250043,
          "velocity": 0.7874015748031497,
          "duration": 0.1720587374999809
        },
        {
          "name": "E3",
          "midi": 52,
          "time": 132.88669826250043,
          "velocity": 0.7874015748031497,
          "duration": 0.1529410999999925
        },
        {
          "name": "E4",
          "midi": 64,
          "time": 133.0587570000004,
          "velocity": 0.7874015748031497,
          "duration": 0.16176462499998934
        },
        {
          "name": "E3",
          "midi": 52,
          "time": 133.0587570000004,
          "velocity": 0.7874015748031497,
          "duration": 0.13308816874999252
        },
        {
          "name": "E4",
          "midi": 64,
          "time": 133.2396392625004,
          "velocity": 0.7874015748031497,
          "duration": 0.16249991875000092
        },
        {
          "name": "E3",
          "midi": 52,
          "time": 133.2396392625004,
          "velocity": 0.7874015748031497,
          "duration": 0.1338234625000041
        },
        {
          "name": "E4",
          "midi": 64,
          "time": 133.4116980000004,
          "velocity": 0.7874015748031497,
          "duration": 0.16176462499998934
        },
        {
          "name": "E3",
          "midi": 52,
          "time": 133.4116980000004,
          "velocity": 0.7874015748031497,
          "duration": 0.13308816874999252
        },
        {
          "name": "E4",
          "midi": 64,
          "time": 133.59258026250038,
          "velocity": 0.7874015748031497,
          "duration": 0.1720587374999809
        },
        {
          "name": "E3",
          "midi": 52,
          "time": 133.59258026250038,
          "velocity": 0.7874015748031497,
          "duration": 0.1529410999999925
        },
        {
          "name": "E4",
          "midi": 64,
          "time": 133.76463900000036,
          "velocity": 0.7874015748031497,
          "duration": 0.16176462499998934
        },
        {
          "name": "E3",
          "midi": 52,
          "time": 133.76463900000036,
          "velocity": 0.7874015748031497,
          "duration": 0.13308816874999252
        },
        {
          "name": "E4",
          "midi": 64,
          "time": 133.94552126250034,
          "velocity": 0.7874015748031497,
          "duration": 0.1529410999999925
        },
        {
          "name": "E3",
          "midi": 52,
          "time": 133.94552126250034,
          "velocity": 0.7874015748031497,
          "duration": 0.12426464374999568
        },
        {
          "name": "E4",
          "midi": 64,
          "time": 134.11758000000032,
          "velocity": 0.7874015748031497,
          "duration": 0.16176462499998934
        },
        {
          "name": "E3",
          "midi": 52,
          "time": 134.11758000000032,
          "velocity": 0.7874015748031497,
          "duration": 0.13308816874999252
        },
        {
          "name": "E4",
          "midi": 64,
          "time": 134.2984622625003,
          "velocity": 0.7874015748031497,
          "duration": 0.1720587374999809
        },
        {
          "name": "E3",
          "midi": 52,
          "time": 134.2984622625003,
          "velocity": 0.7874015748031497,
          "duration": 0.1529410999999925
        },
        {
          "name": "E4",
          "midi": 64,
          "time": 134.47052100000028,
          "velocity": 0.7874015748031497,
          "duration": 0.16176462499998934
        },
        {
          "name": "E3",
          "midi": 52,
          "time": 134.47052100000028,
          "velocity": 0.7874015748031497,
          "duration": 0.13308816874999252
        },
        {
          "name": "E4",
          "midi": 64,
          "time": 134.65140326250025,
          "velocity": 0.7874015748031497,
          "duration": 0.16249991875000092
        },
        {
          "name": "E3",
          "midi": 52,
          "time": 134.65140326250025,
          "velocity": 0.7874015748031497,
          "duration": 0.1338234625000041
        },
        {
          "name": "E4",
          "midi": 64,
          "time": 134.82346200000026,
          "velocity": 0.7874015748031497,
          "duration": 0.16176462499998934
        },
        {
          "name": "E3",
          "midi": 52,
          "time": 134.82346200000026,
          "velocity": 0.7874015748031497,
          "duration": 0.13308816874999252
        },
        {
          "name": "E4",
          "midi": 64,
          "time": 135.00434426250024,
          "velocity": 0.7874015748031497,
          "duration": 0.1720587374999809
        },
        {
          "name": "E3",
          "midi": 52,
          "time": 135.00434426250024,
          "velocity": 0.7874015748031497,
          "duration": 0.1529410999999925
        },
        {
          "name": "E4",
          "midi": 64,
          "time": 135.17640300000022,
          "velocity": 0.7874015748031497,
          "duration": 0.16176462499998934
        },
        {
          "name": "E3",
          "midi": 52,
          "time": 135.17640300000022,
          "velocity": 0.7874015748031497,
          "duration": 0.13308816874999252
        },
        {
          "name": "D3",
          "midi": 50,
          "time": 135.3572852625002,
          "velocity": 0.7874015748031497,
          "duration": 0.1529410999999925
        },
        {
          "name": "D4",
          "midi": 62,
          "time": 135.3572852625002,
          "velocity": 0.7874015748031497,
          "duration": 0.1529410999999925
        },
        {
          "name": "E4",
          "midi": 64,
          "time": 135.52934400000018,
          "velocity": 0.7874015748031497,
          "duration": 0.16176462499998934
        },
        {
          "name": "E3",
          "midi": 52,
          "time": 135.52934400000018,
          "velocity": 0.7874015748031497,
          "duration": 0.13308816874999252
        },
        {
          "name": "E4",
          "midi": 64,
          "time": 135.71022626250016,
          "velocity": 0.7874015748031497,
          "duration": 0.1720587374999809
        },
        {
          "name": "E3",
          "midi": 52,
          "time": 135.71022626250016,
          "velocity": 0.7874015748031497,
          "duration": 0.1529410999999925
        },
        {
          "name": "E4",
          "midi": 64,
          "time": 135.88228500000014,
          "velocity": 0.7874015748031497,
          "duration": 0.16176462499998934
        },
        {
          "name": "E3",
          "midi": 52,
          "time": 135.88228500000014,
          "velocity": 0.7874015748031497,
          "duration": 0.13308816874999252
        },
        {
          "name": "E4",
          "midi": 64,
          "time": 136.06316726250012,
          "velocity": 0.7874015748031497,
          "duration": 0.16249991875000092
        },
        {
          "name": "E3",
          "midi": 52,
          "time": 136.06316726250012,
          "velocity": 0.7874015748031497,
          "duration": 0.1338234625000041
        },
        {
          "name": "E4",
          "midi": 64,
          "time": 136.23522600000013,
          "velocity": 0.7874015748031497,
          "duration": 0.16176462499998934
        },
        {
          "name": "E3",
          "midi": 52,
          "time": 136.23522600000013,
          "velocity": 0.7874015748031497,
          "duration": 0.13308816874999252
        },
        {
          "name": "E4",
          "midi": 64,
          "time": 136.4161082625001,
          "velocity": 0.7874015748031497,
          "duration": 0.1720587374999809
        },
        {
          "name": "E3",
          "midi": 52,
          "time": 136.4161082625001,
          "velocity": 0.7874015748031497,
          "duration": 0.1529410999999925
        },
        {
          "name": "E4",
          "midi": 64,
          "time": 136.58816700000008,
          "velocity": 0.7874015748031497,
          "duration": 0.16176462499998934
        },
        {
          "name": "E3",
          "midi": 52,
          "time": 136.58816700000008,
          "velocity": 0.7874015748031497,
          "duration": 0.13308816874999252
        },
        {
          "name": "E4",
          "midi": 64,
          "time": 136.76904926250006,
          "velocity": 0.7874015748031497,
          "duration": 0.1529410999999925
        },
        {
          "name": "E3",
          "midi": 52,
          "time": 136.76904926250006,
          "velocity": 0.7874015748031497,
          "duration": 0.12426464374999568
        },
        {
          "name": "E4",
          "midi": 64,
          "time": 136.94110800000004,
          "velocity": 0.7874015748031497,
          "duration": 0.16176462499998934
        },
        {
          "name": "E3",
          "midi": 52,
          "time": 136.94110800000004,
          "velocity": 0.7874015748031497,
          "duration": 0.13308816874999252
        },
        {
          "name": "E4",
          "midi": 64,
          "time": 137.12199026250002,
          "velocity": 0.7874015748031497,
          "duration": 0.1720587374999809
        },
        {
          "name": "E3",
          "midi": 52,
          "time": 137.12199026250002,
          "velocity": 0.7874015748031497,
          "duration": 0.1529410999999925
        },
        {
          "name": "E4",
          "midi": 64,
          "time": 137.294049,
          "velocity": 0.7874015748031497,
          "duration": 0.16176462499998934
        },
        {
          "name": "E3",
          "midi": 52,
          "time": 137.294049,
          "velocity": 0.7874015748031497,
          "duration": 0.13308816874999252
        },
        {
          "name": "E4",
          "midi": 64,
          "time": 137.47493126249998,
          "velocity": 0.7874015748031497,
          "duration": 0.16249991875000092
        },
        {
          "name": "E3",
          "midi": 52,
          "time": 137.47493126249998,
          "velocity": 0.7874015748031497,
          "duration": 0.1338234625000041
        },
        {
          "name": "E4",
          "midi": 64,
          "time": 137.64699,
          "velocity": 0.7874015748031497,
          "duration": 0.16176462499998934
        },
        {
          "name": "E3",
          "midi": 52,
          "time": 137.64699,
          "velocity": 0.7874015748031497,
          "duration": 0.13308816874999252
        },
        {
          "name": "E4",
          "midi": 64,
          "time": 137.82787226249997,
          "velocity": 0.7874015748031497,
          "duration": 0.1720587374999809
        },
        {
          "name": "E3",
          "midi": 52,
          "time": 137.82787226249997,
          "velocity": 0.7874015748031497,
          "duration": 0.1529410999999925
        },
        {
          "name": "E4",
          "midi": 64,
          "time": 137.99993099999995,
          "velocity": 0.7874015748031497,
          "duration": 0.16176462499998934
        },
        {
          "name": "E3",
          "midi": 52,
          "time": 137.99993099999995,
          "velocity": 0.7874015748031497,
          "duration": 0.13308816874999252
        },
        {
          "name": "E4",
          "midi": 64,
          "time": 138.18081326249992,
          "velocity": 0.7874015748031497,
          "duration": 0.16249991875000092
        },
        {
          "name": "E3",
          "midi": 52,
          "time": 138.18081326249992,
          "velocity": 0.7874015748031497,
          "duration": 0.1338234625000041
        },
        {
          "name": "D4",
          "midi": 62,
          "time": 138.35287199999993,
          "velocity": 0.7874015748031497,
          "duration": 0.16176462499998934
        },
        {
          "name": "D3",
          "midi": 50,
          "time": 138.35287199999993,
          "velocity": 0.7874015748031497,
          "duration": 0.16176462499998934
        },
        {
          "name": "D4",
          "midi": 62,
          "time": 138.5337542624999,
          "velocity": 0.7874015748031497,
          "duration": 0.17205873750000933
        },
        {
          "name": "D3",
          "midi": 50,
          "time": 138.5337542624999,
          "velocity": 0.7874015748031497,
          "duration": 0.17205873750000933
        },
        {
          "name": "D4",
          "midi": 62,
          "time": 138.70581299999992,
          "velocity": 0.7874015748031497,
          "duration": 0.16176462499998934
        },
        {
          "name": "D3",
          "midi": 50,
          "time": 138.70581299999992,
          "velocity": 0.7874015748031497,
          "duration": 0.16176462499998934
        },
        {
          "name": "D4",
          "midi": 62,
          "time": 138.8866952624999,
          "velocity": 0.7874015748031497,
          "duration": 0.16249991875000092
        },
        {
          "name": "D3",
          "midi": 50,
          "time": 138.8866952624999,
          "velocity": 0.7874015748031497,
          "duration": 0.16249991875000092
        },
        {
          "name": "D4",
          "midi": 62,
          "time": 139.0587539999999,
          "velocity": 0.7874015748031497,
          "duration": 0.16176462499998934
        },
        {
          "name": "D3",
          "midi": 50,
          "time": 139.0587539999999,
          "velocity": 0.7874015748031497,
          "duration": 0.16176462499998934
        },
        {
          "name": "D4",
          "midi": 62,
          "time": 139.23963626249989,
          "velocity": 0.7874015748031497,
          "duration": 0.17205873750000933
        },
        {
          "name": "D3",
          "midi": 50,
          "time": 139.23963626249989,
          "velocity": 0.7874015748031497,
          "duration": 0.17205873750000933
        },
        {
          "name": "D4",
          "midi": 62,
          "time": 139.4116949999999,
          "velocity": 0.7874015748031497,
          "duration": 0.16176462499998934
        },
        {
          "name": "D3",
          "midi": 50,
          "time": 139.4116949999999,
          "velocity": 0.7874015748031497,
          "duration": 0.16176462499998934
        },
        {
          "name": "D4",
          "midi": 62,
          "time": 139.59257726249987,
          "velocity": 0.7874015748031497,
          "duration": 0.1529410999999925
        },
        {
          "name": "D3",
          "midi": 50,
          "time": 139.59257726249987,
          "velocity": 0.7874015748031497,
          "duration": 0.1529410999999925
        },
        {
          "name": "G4",
          "midi": 67,
          "time": 139.76463599999985,
          "velocity": 0.7874015748031497,
          "duration": 0.17647049999999354
        },
        {
          "name": "G3",
          "midi": 55,
          "time": 139.76463599999985,
          "velocity": 0.7874015748031497,
          "duration": 0.17647049999999354
        },
        {
          "name": "D4",
          "midi": 62,
          "time": 139.94551826249986,
          "velocity": 0.7874015748031497,
          "duration": 0.505882100000008
        },
        {
          "name": "D3",
          "midi": 50,
          "time": 139.94551826249986,
          "velocity": 0.7874015748031497,
          "duration": 0.505882100000008
        },
        {
          "name": "E4",
          "midi": 64,
          "time": 140.47051799999986,
          "velocity": 0.7874015748031497,
          "duration": 0.31470572500001026
        },
        {
          "name": "E3",
          "midi": 52,
          "time": 140.47051799999986,
          "velocity": 0.7874015748031497,
          "duration": 0.28602926875001344
        },
        {
          "name": "D4",
          "midi": 62,
          "time": 140.82345899999987,
          "velocity": 0.7874015748031497,
          "duration": 0.17647049999999354
        },
        {
          "name": "D3",
          "midi": 50,
          "time": 140.82345899999987,
          "velocity": 0.7874015748031497,
          "duration": 0.17647049999999354
        },
        {
          "name": "E4",
          "midi": 64,
          "time": 141.00434126249988,
          "velocity": 0.7874015748031497,
          "duration": 0.1338234625000041
        },
        {
          "name": "E3",
          "midi": 52,
          "time": 141.00434126249988,
          "velocity": 0.7874015748031497,
          "duration": 0.10514700625000728
        },
        {
          "name": "E4",
          "midi": 64,
          "time": 141.1763999999999,
          "velocity": 0.7874015748031497,
          "duration": 0.16176462499998934
        },
        {
          "name": "E3",
          "midi": 52,
          "time": 141.1763999999999,
          "velocity": 0.7874015748031497,
          "duration": 0.13308816874999252
        },
        {
          "name": "E4",
          "midi": 64,
          "time": 141.35728226249987,
          "velocity": 0.7874015748031497,
          "duration": 0.1720587374999809
        },
        {
          "name": "E3",
          "midi": 52,
          "time": 141.35728226249987,
          "velocity": 0.7874015748031497,
          "duration": 0.1529410999999925
        },
        {
          "name": "E4",
          "midi": 64,
          "time": 141.52934099999985,
          "velocity": 0.7874015748031497,
          "duration": 0.16176462499998934
        },
        {
          "name": "E3",
          "midi": 52,
          "time": 141.52934099999985,
          "velocity": 0.7874015748031497,
          "duration": 0.13308816874999252
        },
        {
          "name": "E4",
          "midi": 64,
          "time": 141.71022326249982,
          "velocity": 0.7874015748031497,
          "duration": 0.16249991875000092
        },
        {
          "name": "E3",
          "midi": 52,
          "time": 141.71022326249982,
          "velocity": 0.7874015748031497,
          "duration": 0.1338234625000041
        },
        {
          "name": "E4",
          "midi": 64,
          "time": 141.88228199999983,
          "velocity": 0.7874015748031497,
          "duration": 0.16176462499998934
        },
        {
          "name": "E3",
          "midi": 52,
          "time": 141.88228199999983,
          "velocity": 0.7874015748031497,
          "duration": 0.13308816874999252
        },
        {
          "name": "E4",
          "midi": 64,
          "time": 142.0631642624998,
          "velocity": 0.7874015748031497,
          "duration": 0.1720587374999809
        },
        {
          "name": "E3",
          "midi": 52,
          "time": 142.0631642624998,
          "velocity": 0.7874015748031497,
          "duration": 0.1529410999999925
        },
        {
          "name": "E4",
          "midi": 64,
          "time": 142.2352229999998,
          "velocity": 0.7874015748031497,
          "duration": 0.16176462499998934
        },
        {
          "name": "E3",
          "midi": 52,
          "time": 142.2352229999998,
          "velocity": 0.7874015748031497,
          "duration": 0.13308816874999252
        },
        {
          "name": "E4",
          "midi": 64,
          "time": 142.41610526249977,
          "velocity": 0.7874015748031497,
          "duration": 0.1529410999999925
        },
        {
          "name": "E3",
          "midi": 52,
          "time": 142.41610526249977,
          "velocity": 0.7874015748031497,
          "duration": 0.12426464374999568
        },
        {
          "name": "E4",
          "midi": 64,
          "time": 142.58816399999975,
          "velocity": 0.7874015748031497,
          "duration": 0.16176462499998934
        },
        {
          "name": "E3",
          "midi": 52,
          "time": 142.58816399999975,
          "velocity": 0.7874015748031497,
          "duration": 0.13308816874999252
        },
        {
          "name": "E4",
          "midi": 64,
          "time": 142.76904626249973,
          "velocity": 0.7874015748031497,
          "duration": 0.1720587374999809
        },
        {
          "name": "E3",
          "midi": 52,
          "time": 142.76904626249973,
          "velocity": 0.7874015748031497,
          "duration": 0.1529410999999925
        },
        {
          "name": "E4",
          "midi": 64,
          "time": 142.9411049999997,
          "velocity": 0.7874015748031497,
          "duration": 0.16176462499998934
        },
        {
          "name": "E3",
          "midi": 52,
          "time": 142.9411049999997,
          "velocity": 0.7874015748031497,
          "duration": 0.13308816874999252
        },
        {
          "name": "E4",
          "midi": 64,
          "time": 143.1219872624997,
          "velocity": 0.7874015748031497,
          "duration": 0.16249991875000092
        },
        {
          "name": "E3",
          "midi": 52,
          "time": 143.1219872624997,
          "velocity": 0.7874015748031497,
          "duration": 0.1338234625000041
        },
        {
          "name": "E4",
          "midi": 64,
          "time": 143.2940459999997,
          "velocity": 0.7874015748031497,
          "duration": 0.16176462499998934
        },
        {
          "name": "E3",
          "midi": 52,
          "time": 143.2940459999997,
          "velocity": 0.7874015748031497,
          "duration": 0.13308816874999252
        },
        {
          "name": "E4",
          "midi": 64,
          "time": 143.47492826249967,
          "velocity": 0.7874015748031497,
          "duration": 0.1720587374999809
        },
        {
          "name": "E3",
          "midi": 52,
          "time": 143.47492826249967,
          "velocity": 0.7874015748031497,
          "duration": 0.1529410999999925
        },
        {
          "name": "E4",
          "midi": 64,
          "time": 143.64698699999965,
          "velocity": 0.7874015748031497,
          "duration": 0.16176462499998934
        },
        {
          "name": "E3",
          "midi": 52,
          "time": 143.64698699999965,
          "velocity": 0.7874015748031497,
          "duration": 0.13308816874999252
        },
        {
          "name": "E4",
          "midi": 64,
          "time": 143.82786926249963,
          "velocity": 0.7874015748031497,
          "duration": 0.16249991875000092
        },
        {
          "name": "E3",
          "midi": 52,
          "time": 143.82786926249963,
          "velocity": 0.7874015748031497,
          "duration": 0.1338234625000041
        },
        {
          "name": "D4",
          "midi": 62,
          "time": 143.99992799999964,
          "velocity": 0.7874015748031497,
          "duration": 0.16176462499998934
        },
        {
          "name": "D3",
          "midi": 50,
          "time": 143.99992799999964,
          "velocity": 0.7874015748031497,
          "duration": 0.16176462499998934
        },
        {
          "name": "D4",
          "midi": 62,
          "time": 144.18081026249962,
          "velocity": 0.7874015748031497,
          "duration": 0.17205873750000933
        },
        {
          "name": "D3",
          "midi": 50,
          "time": 144.18081026249962,
          "velocity": 0.7874015748031497,
          "duration": 0.17205873750000933
        },
        {
          "name": "D4",
          "midi": 62,
          "time": 144.35286899999963,
          "velocity": 0.7874015748031497,
          "duration": 0.16176462499998934
        },
        {
          "name": "D3",
          "midi": 50,
          "time": 144.35286899999963,
          "velocity": 0.7874015748031497,
          "duration": 0.16176462499998934
        },
        {
          "name": "D4",
          "midi": 62,
          "time": 144.5337512624996,
          "velocity": 0.7874015748031497,
          "duration": 0.16249991875000092
        },
        {
          "name": "D3",
          "midi": 50,
          "time": 144.5337512624996,
          "velocity": 0.7874015748031497,
          "duration": 0.16249991875000092
        },
        {
          "name": "D4",
          "midi": 62,
          "time": 144.70580999999962,
          "velocity": 0.7874015748031497,
          "duration": 0.16176462499998934
        },
        {
          "name": "D3",
          "midi": 50,
          "time": 144.70580999999962,
          "velocity": 0.7874015748031497,
          "duration": 0.16176462499998934
        },
        {
          "name": "D4",
          "midi": 62,
          "time": 144.8866922624996,
          "velocity": 0.7874015748031497,
          "duration": 0.17205873750000933
        },
        {
          "name": "D3",
          "midi": 50,
          "time": 144.8866922624996,
          "velocity": 0.7874015748031497,
          "duration": 0.17205873750000933
        },
        {
          "name": "D4",
          "midi": 62,
          "time": 145.0587509999996,
          "velocity": 0.7874015748031497,
          "duration": 0.16176462499998934
        },
        {
          "name": "D3",
          "midi": 50,
          "time": 145.0587509999996,
          "velocity": 0.7874015748031497,
          "duration": 0.16176462499998934
        },
        {
          "name": "D4",
          "midi": 62,
          "time": 145.23963326249958,
          "velocity": 0.7874015748031497,
          "duration": 0.1529410999999925
        },
        {
          "name": "D3",
          "midi": 50,
          "time": 145.23963326249958,
          "velocity": 0.7874015748031497,
          "duration": 0.1529410999999925
        },
        {
          "name": "G4",
          "midi": 67,
          "time": 145.41169199999956,
          "velocity": 0.7874015748031497,
          "duration": 0.17647049999999354
        },
        {
          "name": "G3",
          "midi": 55,
          "time": 145.41169199999956,
          "velocity": 0.7874015748031497,
          "duration": 0.17647049999999354
        },
        {
          "name": "D4",
          "midi": 62,
          "time": 145.59257426249957,
          "velocity": 0.7874015748031497,
          "duration": 0.505882100000008
        },
        {
          "name": "D3",
          "midi": 50,
          "time": 145.59257426249957,
          "velocity": 0.7874015748031497,
          "duration": 0.505882100000008
        },
        {
          "name": "E4",
          "midi": 64,
          "time": 146.11757399999956,
          "velocity": 0.7874015748031497,
          "duration": 0.31470572500001026
        },
        {
          "name": "E3",
          "midi": 52,
          "time": 146.11757399999956,
          "velocity": 0.7874015748031497,
          "duration": 0.28602926875001344
        },
        {
          "name": "D4",
          "midi": 62,
          "time": 146.47051499999958,
          "velocity": 0.7874015748031497,
          "duration": 0.17647049999999354
        },
        {
          "name": "D3",
          "midi": 50,
          "time": 146.47051499999958,
          "velocity": 0.7874015748031497,
          "duration": 0.17647049999999354
        },
        {
          "name": "E4",
          "midi": 64,
          "time": 146.6513972624996,
          "velocity": 0.7874015748031497,
          "duration": 0.1338234625000041
        },
        {
          "name": "E3",
          "midi": 52,
          "time": 146.6513972624996,
          "velocity": 0.7874015748031497,
          "duration": 0.10514700625000728
        },
        {
          "name": "E4",
          "midi": 64,
          "time": 146.8234559999996,
          "velocity": 0.7874015748031497,
          "duration": 0.16176462499998934
        },
        {
          "name": "E3",
          "midi": 52,
          "time": 146.8234559999996,
          "velocity": 0.7874015748031497,
          "duration": 0.13308816874999252
        },
        {
          "name": "E4",
          "midi": 64,
          "time": 147.00433826249957,
          "velocity": 0.7874015748031497,
          "duration": 0.1720587374999809
        },
        {
          "name": "E3",
          "midi": 52,
          "time": 147.00433826249957,
          "velocity": 0.7874015748031497,
          "duration": 0.1529410999999925
        },
        {
          "name": "E4",
          "midi": 64,
          "time": 147.17639699999955,
          "velocity": 0.7874015748031497,
          "duration": 0.16176462499998934
        },
        {
          "name": "E3",
          "midi": 52,
          "time": 147.17639699999955,
          "velocity": 0.7874015748031497,
          "duration": 0.13308816874999252
        },
        {
          "name": "E4",
          "midi": 64,
          "time": 147.35727926249953,
          "velocity": 0.7874015748031497,
          "duration": 0.16249991875000092
        },
        {
          "name": "E3",
          "midi": 52,
          "time": 147.35727926249953,
          "velocity": 0.7874015748031497,
          "duration": 0.1338234625000041
        },
        {
          "name": "E4",
          "midi": 64,
          "time": 147.52933799999954,
          "velocity": 0.7874015748031497,
          "duration": 0.16176462499998934
        },
        {
          "name": "E3",
          "midi": 52,
          "time": 147.52933799999954,
          "velocity": 0.7874015748031497,
          "duration": 0.13308816874999252
        },
        {
          "name": "E4",
          "midi": 64,
          "time": 147.71022026249952,
          "velocity": 0.7874015748031497,
          "duration": 0.1720587374999809
        },
        {
          "name": "E3",
          "midi": 52,
          "time": 147.71022026249952,
          "velocity": 0.7874015748031497,
          "duration": 0.1529410999999925
        },
        {
          "name": "E4",
          "midi": 64,
          "time": 147.8822789999995,
          "velocity": 0.7874015748031497,
          "duration": 0.16176462499998934
        },
        {
          "name": "E3",
          "midi": 52,
          "time": 147.8822789999995,
          "velocity": 0.7874015748031497,
          "duration": 0.13308816874999252
        },
        {
          "name": "E4",
          "midi": 64,
          "time": 148.06316126249948,
          "velocity": 0.7874015748031497,
          "duration": 0.1529410999999925
        },
        {
          "name": "E3",
          "midi": 52,
          "time": 148.06316126249948,
          "velocity": 0.7874015748031497,
          "duration": 0.12426464374999568
        },
        {
          "name": "E4",
          "midi": 64,
          "time": 148.23521999999946,
          "velocity": 0.7874015748031497,
          "duration": 0.16176462499998934
        },
        {
          "name": "E3",
          "midi": 52,
          "time": 148.23521999999946,
          "velocity": 0.7874015748031497,
          "duration": 0.13308816874999252
        },
        {
          "name": "E4",
          "midi": 64,
          "time": 148.41610226249944,
          "velocity": 0.7874015748031497,
          "duration": 0.1720587374999809
        },
        {
          "name": "E3",
          "midi": 52,
          "time": 148.41610226249944,
          "velocity": 0.7874015748031497,
          "duration": 0.1529410999999925
        },
        {
          "name": "E4",
          "midi": 64,
          "time": 148.58816099999942,
          "velocity": 0.7874015748031497,
          "duration": 0.16176462499998934
        },
        {
          "name": "E3",
          "midi": 52,
          "time": 148.58816099999942,
          "velocity": 0.7874015748031497,
          "duration": 0.13308816874999252
        },
        {
          "name": "E4",
          "midi": 64,
          "time": 148.7690432624994,
          "velocity": 0.7874015748031497,
          "duration": 0.16249991875000092
        },
        {
          "name": "E3",
          "midi": 52,
          "time": 148.7690432624994,
          "velocity": 0.7874015748031497,
          "duration": 0.1338234625000041
        },
        {
          "name": "E4",
          "midi": 64,
          "time": 148.9411019999994,
          "velocity": 0.7874015748031497,
          "duration": 0.16176462499998934
        },
        {
          "name": "E3",
          "midi": 52,
          "time": 148.9411019999994,
          "velocity": 0.7874015748031497,
          "duration": 0.13308816874999252
        },
        {
          "name": "E4",
          "midi": 64,
          "time": 149.12198426249938,
          "velocity": 0.7874015748031497,
          "duration": 0.1720587374999809
        },
        {
          "name": "E3",
          "midi": 52,
          "time": 149.12198426249938,
          "velocity": 0.7874015748031497,
          "duration": 0.1529410999999925
        },
        {
          "name": "E4",
          "midi": 64,
          "time": 149.29404299999936,
          "velocity": 0.7874015748031497,
          "duration": 0.16176462499998934
        },
        {
          "name": "E3",
          "midi": 52,
          "time": 149.29404299999936,
          "velocity": 0.7874015748031497,
          "duration": 0.13308816874999252
        },
        {
          "name": "E4",
          "midi": 64,
          "time": 149.47492526249934,
          "velocity": 0.7874015748031497,
          "duration": 0.16249991875000092
        },
        {
          "name": "E3",
          "midi": 52,
          "time": 149.47492526249934,
          "velocity": 0.7874015748031497,
          "duration": 0.1338234625000041
        },
        {
          "name": "D4",
          "midi": 62,
          "time": 149.64698399999935,
          "velocity": 0.7874015748031497,
          "duration": 0.16176462499998934
        },
        {
          "name": "D3",
          "midi": 50,
          "time": 149.64698399999935,
          "velocity": 0.7874015748031497,
          "duration": 0.16176462499998934
        },
        {
          "name": "D4",
          "midi": 62,
          "time": 149.82786626249933,
          "velocity": 0.7874015748031497,
          "duration": 0.17205873750000933
        },
        {
          "name": "D3",
          "midi": 50,
          "time": 149.82786626249933,
          "velocity": 0.7874015748031497,
          "duration": 0.17205873750000933
        },
        {
          "name": "D4",
          "midi": 62,
          "time": 149.99992499999934,
          "velocity": 0.7874015748031497,
          "duration": 0.16176462499998934
        },
        {
          "name": "D3",
          "midi": 50,
          "time": 149.99992499999934,
          "velocity": 0.7874015748031497,
          "duration": 0.16176462499998934
        },
        {
          "name": "D4",
          "midi": 62,
          "time": 150.18080726249931,
          "velocity": 0.7874015748031497,
          "duration": 0.16249991875000092
        },
        {
          "name": "D3",
          "midi": 50,
          "time": 150.18080726249931,
          "velocity": 0.7874015748031497,
          "duration": 0.16249991875000092
        },
        {
          "name": "D4",
          "midi": 62,
          "time": 150.35286599999932,
          "velocity": 0.7874015748031497,
          "duration": 0.16176462499998934
        },
        {
          "name": "D3",
          "midi": 50,
          "time": 150.35286599999932,
          "velocity": 0.7874015748031497,
          "duration": 0.16176462499998934
        },
        {
          "name": "D4",
          "midi": 62,
          "time": 150.5337482624993,
          "velocity": 0.7874015748031497,
          "duration": 0.17205873750000933
        },
        {
          "name": "D3",
          "midi": 50,
          "time": 150.5337482624993,
          "velocity": 0.7874015748031497,
          "duration": 0.17205873750000933
        },
        {
          "name": "D4",
          "midi": 62,
          "time": 150.7058069999993,
          "velocity": 0.7874015748031497,
          "duration": 0.16176462499998934
        },
        {
          "name": "D3",
          "midi": 50,
          "time": 150.7058069999993,
          "velocity": 0.7874015748031497,
          "duration": 0.16176462499998934
        },
        {
          "name": "D4",
          "midi": 62,
          "time": 150.8866892624993,
          "velocity": 0.7874015748031497,
          "duration": 0.1529410999999925
        },
        {
          "name": "D3",
          "midi": 50,
          "time": 150.8866892624993,
          "velocity": 0.7874015748031497,
          "duration": 0.1529410999999925
        },
        {
          "name": "G4",
          "midi": 67,
          "time": 151.05874799999927,
          "velocity": 0.7874015748031497,
          "duration": 0.17647049999999354
        },
        {
          "name": "G3",
          "midi": 55,
          "time": 151.05874799999927,
          "velocity": 0.7874015748031497,
          "duration": 0.17647049999999354
        },
        {
          "name": "D4",
          "midi": 62,
          "time": 151.23963026249928,
          "velocity": 0.7874015748031497,
          "duration": 0.505882100000008
        },
        {
          "name": "D3",
          "midi": 50,
          "time": 151.23963026249928,
          "velocity": 0.7874015748031497,
          "duration": 0.505882100000008
        },
        {
          "name": "E4",
          "midi": 64,
          "time": 151.76462999999927,
          "velocity": 0.7874015748031497,
          "duration": 0.31470572500001026
        },
        {
          "name": "E3",
          "midi": 52,
          "time": 151.76462999999927,
          "velocity": 0.7874015748031497,
          "duration": 0.28602926875001344
        },
        {
          "name": "D4",
          "midi": 62,
          "time": 152.1175709999993,
          "velocity": 0.7874015748031497,
          "duration": 0.17647049999999354
        },
        {
          "name": "D3",
          "midi": 50,
          "time": 152.1175709999993,
          "velocity": 0.7874015748031497,
          "duration": 0.17647049999999354
        },
        {
          "name": "E4",
          "midi": 64,
          "time": 152.2984532624993,
          "velocity": 0.7874015748031497,
          "duration": 0.1338234625000041
        },
        {
          "name": "E3",
          "midi": 52,
          "time": 152.2984532624993,
          "velocity": 0.7874015748031497,
          "duration": 0.10514700625000728
        },
        {
          "name": "E4",
          "midi": 64,
          "time": 152.4705119999993,
          "velocity": 0.7874015748031497,
          "duration": 0.16176462499998934
        },
        {
          "name": "E3",
          "midi": 52,
          "time": 152.4705119999993,
          "velocity": 0.7874015748031497,
          "duration": 0.13308816874999252
        },
        {
          "name": "E4",
          "midi": 64,
          "time": 152.65139426249928,
          "velocity": 0.7874015748031497,
          "duration": 0.1720587374999809
        },
        {
          "name": "E3",
          "midi": 52,
          "time": 152.65139426249928,
          "velocity": 0.7874015748031497,
          "duration": 0.1529410999999925
        },
        {
          "name": "E4",
          "midi": 64,
          "time": 152.82345299999926,
          "velocity": 0.7874015748031497,
          "duration": 0.16176462499998934
        },
        {
          "name": "E3",
          "midi": 52,
          "time": 152.82345299999926,
          "velocity": 0.7874015748031497,
          "duration": 0.13308816874999252
        },
        {
          "name": "E4",
          "midi": 64,
          "time": 153.00433526249924,
          "velocity": 0.7874015748031497,
          "duration": 0.16249991875000092
        },
        {
          "name": "E3",
          "midi": 52,
          "time": 153.00433526249924,
          "velocity": 0.7874015748031497,
          "duration": 0.1338234625000041
        },
        {
          "name": "E4",
          "midi": 64,
          "time": 153.17639399999925,
          "velocity": 0.7874015748031497,
          "duration": 0.16176462499998934
        },
        {
          "name": "E3",
          "midi": 52,
          "time": 153.17639399999925,
          "velocity": 0.7874015748031497,
          "duration": 0.13308816874999252
        },
        {
          "name": "E4",
          "midi": 64,
          "time": 153.35727626249923,
          "velocity": 0.7874015748031497,
          "duration": 0.1720587374999809
        },
        {
          "name": "E3",
          "midi": 52,
          "time": 153.35727626249923,
          "velocity": 0.7874015748031497,
          "duration": 0.1529410999999925
        },
        {
          "name": "E4",
          "midi": 64,
          "time": 153.5293349999992,
          "velocity": 0.7874015748031497,
          "duration": 0.16176462499998934
        },
        {
          "name": "E3",
          "midi": 52,
          "time": 153.5293349999992,
          "velocity": 0.7874015748031497,
          "duration": 0.13308816874999252
        },
        {
          "name": "E4",
          "midi": 64,
          "time": 153.71021726249919,
          "velocity": 0.7874015748031497,
          "duration": 0.1529410999999925
        },
        {
          "name": "E3",
          "midi": 52,
          "time": 153.71021726249919,
          "velocity": 0.7874015748031497,
          "duration": 0.12426464374999568
        },
        {
          "name": "E4",
          "midi": 64,
          "time": 153.88227599999917,
          "velocity": 0.7874015748031497,
          "duration": 0.16176462499998934
        },
        {
          "name": "E3",
          "midi": 52,
          "time": 153.88227599999917,
          "velocity": 0.7874015748031497,
          "duration": 0.13308816874999252
        },
        {
          "name": "E4",
          "midi": 64,
          "time": 154.06315826249914,
          "velocity": 0.7874015748031497,
          "duration": 0.1720587374999809
        },
        {
          "name": "E3",
          "midi": 52,
          "time": 154.06315826249914,
          "velocity": 0.7874015748031497,
          "duration": 0.1529410999999925
        },
        {
          "name": "E4",
          "midi": 64,
          "time": 154.23521699999912,
          "velocity": 0.7874015748031497,
          "duration": 0.16176462499998934
        },
        {
          "name": "E3",
          "midi": 52,
          "time": 154.23521699999912,
          "velocity": 0.7874015748031497,
          "duration": 0.13308816874999252
        },
        {
          "name": "E4",
          "midi": 64,
          "time": 154.4160992624991,
          "velocity": 0.7874015748031497,
          "duration": 0.16249991875000092
        },
        {
          "name": "E3",
          "midi": 52,
          "time": 154.4160992624991,
          "velocity": 0.7874015748031497,
          "duration": 0.1338234625000041
        },
        {
          "name": "E4",
          "midi": 64,
          "time": 154.5881579999991,
          "velocity": 0.7874015748031497,
          "duration": 0.16176462499998934
        },
        {
          "name": "E3",
          "midi": 52,
          "time": 154.5881579999991,
          "velocity": 0.7874015748031497,
          "duration": 0.13308816874999252
        },
        {
          "name": "E4",
          "midi": 64,
          "time": 154.7690402624991,
          "velocity": 0.7874015748031497,
          "duration": 0.1720587374999809
        },
        {
          "name": "E3",
          "midi": 52,
          "time": 154.7690402624991,
          "velocity": 0.7874015748031497,
          "duration": 0.1529410999999925
        },
        {
          "name": "E4",
          "midi": 64,
          "time": 154.94109899999907,
          "velocity": 0.7874015748031497,
          "duration": 0.16176462499998934
        },
        {
          "name": "E3",
          "midi": 52,
          "time": 154.94109899999907,
          "velocity": 0.7874015748031497,
          "duration": 0.13308816874999252
        },
        {
          "name": "E4",
          "midi": 64,
          "time": 155.12198126249905,
          "velocity": 0.7874015748031497,
          "duration": 0.16249991875000092
        },
        {
          "name": "E3",
          "midi": 52,
          "time": 155.12198126249905,
          "velocity": 0.7874015748031497,
          "duration": 0.1338234625000041
        },
        {
          "name": "D4",
          "midi": 62,
          "time": 155.29403999999906,
          "velocity": 0.7874015748031497,
          "duration": 0.16176462499998934
        },
        {
          "name": "D3",
          "midi": 50,
          "time": 155.29403999999906,
          "velocity": 0.7874015748031497,
          "duration": 0.16176462499998934
        },
        {
          "name": "D4",
          "midi": 62,
          "time": 155.47492226249904,
          "velocity": 0.7874015748031497,
          "duration": 0.17205873750000933
        },
        {
          "name": "D3",
          "midi": 50,
          "time": 155.47492226249904,
          "velocity": 0.7874015748031497,
          "duration": 0.17205873750000933
        },
        {
          "name": "D4",
          "midi": 62,
          "time": 155.64698099999904,
          "velocity": 0.7874015748031497,
          "duration": 0.16176462499998934
        },
        {
          "name": "D3",
          "midi": 50,
          "time": 155.64698099999904,
          "velocity": 0.7874015748031497,
          "duration": 0.16176462499998934
        },
        {
          "name": "D4",
          "midi": 62,
          "time": 155.82786326249902,
          "velocity": 0.7874015748031497,
          "duration": 0.16249991875000092
        },
        {
          "name": "D3",
          "midi": 50,
          "time": 155.82786326249902,
          "velocity": 0.7874015748031497,
          "duration": 0.16249991875000092
        },
        {
          "name": "D4",
          "midi": 62,
          "time": 155.99992199999903,
          "velocity": 0.7874015748031497,
          "duration": 0.16176462499998934
        },
        {
          "name": "D3",
          "midi": 50,
          "time": 155.99992199999903,
          "velocity": 0.7874015748031497,
          "duration": 0.16176462499998934
        },
        {
          "name": "D4",
          "midi": 62,
          "time": 156.180804262499,
          "velocity": 0.7874015748031497,
          "duration": 0.17205873750000933
        },
        {
          "name": "D3",
          "midi": 50,
          "time": 156.180804262499,
          "velocity": 0.7874015748031497,
          "duration": 0.17205873750000933
        },
        {
          "name": "D4",
          "midi": 62,
          "time": 156.35286299999902,
          "velocity": 0.7874015748031497,
          "duration": 0.16176462499998934
        },
        {
          "name": "D3",
          "midi": 50,
          "time": 156.35286299999902,
          "velocity": 0.7874015748031497,
          "duration": 0.16176462499998934
        },
        {
          "name": "D4",
          "midi": 62,
          "time": 156.533745262499,
          "velocity": 0.7874015748031497,
          "duration": 0.1529410999999925
        },
        {
          "name": "D3",
          "midi": 50,
          "time": 156.533745262499,
          "velocity": 0.7874015748031497,
          "duration": 0.1529410999999925
        },
        {
          "name": "G4",
          "midi": 67,
          "time": 156.70580399999898,
          "velocity": 0.7874015748031497,
          "duration": 0.17647049999999354
        },
        {
          "name": "G3",
          "midi": 55,
          "time": 156.70580399999898,
          "velocity": 0.7874015748031497,
          "duration": 0.17647049999999354
        },
        {
          "name": "D4",
          "midi": 62,
          "time": 156.88668626249898,
          "velocity": 0.7874015748031497,
          "duration": 0.505882100000008
        },
        {
          "name": "D3",
          "midi": 50,
          "time": 156.88668626249898,
          "velocity": 0.7874015748031497,
          "duration": 0.505882100000008
        },
        {
          "name": "E4",
          "midi": 64,
          "time": 157.41168599999898,
          "velocity": 0.7874015748031497,
          "duration": 0.31470572500001026
        },
        {
          "name": "E3",
          "midi": 52,
          "time": 157.41168599999898,
          "velocity": 0.7874015748031497,
          "duration": 0.28602926875001344
        }
      ],
      "controlChanges": {
        "7": [
          {
            "number": 7,
            "time": 0,
            "value": 0.5433070866141733
          }
        ],
        "10": [
          {
            "number": 10,
            "time": 0,
            "value": 0.007874015748031496
          }
        ],
        "91": [
          {
            "number": 91,
            "time": 0,
            "value": 1
          }
        ],
        "93": [
          {
            "number": 93,
            "time": 0,
            "value": 0.7007874015748031
          }
        ]
      },
      "id": 6,
      "name": "gUITARRA",
      "instrumentNumber": 30,
      "instrument": "distortion guitar",
      "instrumentFamily": "guitar",
      "channelNumber": 4,
      "isPercussion": false
    },
    {
      "startTime": 79.07128399375,
      "duration": 101.47789043749961,
      "length": 106,
      "notes": [
        {
          "name": "G4",
          "midi": 67,
          "time": 79.07128399375,
          "velocity": 0.7874015748031497,
          "duration": 0.17647050000000775
        },
        {
          "name": "E4",
          "midi": 64,
          "time": 79.24040155625,
          "velocity": 0.5905511811023622,
          "duration": 0.17647050000000775
        },
        {
          "name": "D4",
          "midi": 62,
          "time": 79.41687205625001,
          "velocity": 0.7874015748031497,
          "duration": 0.17647049999999354
        },
        {
          "name": "E4",
          "midi": 64,
          "time": 79.60069549375001,
          "velocity": 0.7874015748031497,
          "duration": 1.2213229187500048
        },
        {
          "name": "E4",
          "midi": 64,
          "time": 80.83598899375002,
          "velocity": 0.7874015748031497,
          "duration": 0.17647050000000775
        },
        {
          "name": "D4",
          "midi": 62,
          "time": 81.00510655625003,
          "velocity": 0.7874015748031497,
          "duration": 0.17647050000000775
        },
        {
          "name": "E4",
          "midi": 64,
          "time": 81.18157705625003,
          "velocity": 0.7874015748031497,
          "duration": 0.17647049999999354
        },
        {
          "name": "D4",
          "midi": 62,
          "time": 81.35804755625003,
          "velocity": 0.7874015748031497,
          "duration": 0.17647049999999354
        },
        {
          "name": "B3",
          "midi": 59,
          "time": 81.54187099375002,
          "velocity": 0.7874015748031497,
          "duration": 0.3529410000000013
        },
        {
          "name": "G3",
          "midi": 55,
          "time": 81.89481199375003,
          "velocity": 0.905511811023622,
          "duration": 0.17132344374999775
        },
        {
          "name": "A3",
          "midi": 57,
          "time": 82.07128249375002,
          "velocity": 0.7637795275590551,
          "duration": 0.17647049999999354
        },
        {
          "name": "G3",
          "midi": 55,
          "time": 82.24775299375001,
          "velocity": 0.905511811023622,
          "duration": 0.17647049999999354
        },
        {
          "name": "A3",
          "midi": 57,
          "time": 82.42422349375,
          "velocity": 0.7637795275590551,
          "duration": 0.17647049999999354
        },
        {
          "name": "G3",
          "midi": 55,
          "time": 82.60069399375,
          "velocity": 0.905511811023622,
          "duration": 0.17132344374999775
        },
        {
          "name": "F#3",
          "midi": 54,
          "time": 82.77716449374999,
          "velocity": 0.6062992125984252,
          "duration": 0.09999994999999728
        },
        {
          "name": "F3",
          "midi": 53,
          "time": 82.86539974374999,
          "velocity": 0.6062992125984252,
          "duration": 0.0970587749999936
        },
        {
          "name": "E3",
          "midi": 52,
          "time": 82.95363499374999,
          "velocity": 0.905511811023622,
          "duration": 0.3529410000000013
        },
        {
          "name": "G3",
          "midi": 55,
          "time": 83.30657599374999,
          "velocity": 0.905511811023622,
          "duration": 0.17132344374999775
        },
        {
          "name": "E3",
          "midi": 52,
          "time": 83.47789943749999,
          "velocity": 0.905511811023622,
          "duration": 0.3529410000000013
        },
        {
          "name": "E3",
          "midi": 52,
          "time": 83.83084043749999,
          "velocity": 0.905511811023622,
          "duration": 0.7058820000000026
        },
        {
          "name": "E3",
          "midi": 52,
          "time": 84.53672243749999,
          "velocity": 0.905511811023622,
          "duration": 0.17132344374999775
        },
        {
          "name": "G3",
          "midi": 55,
          "time": 84.71319293749998,
          "velocity": 0.905511811023622,
          "duration": 0.3529410000000013
        },
        {
          "name": "A3",
          "midi": 57,
          "time": 85.06613393749998,
          "velocity": 0.905511811023622,
          "duration": 0.18161755624998932
        },
        {
          "name": "B3",
          "midi": 59,
          "time": 85.24260443749998,
          "velocity": 0.905511811023622,
          "duration": 0.17132344374999775
        },
        {
          "name": "D4",
          "midi": 62,
          "time": 85.41907493749997,
          "velocity": 0.905511811023622,
          "duration": 0.17132344374999775
        },
        {
          "name": "E4",
          "midi": 64,
          "time": 85.59554543749996,
          "velocity": 0.905511811023622,
          "duration": 0.17647049999999354
        },
        {
          "name": "E4",
          "midi": 64,
          "time": 85.77201593749996,
          "velocity": 0.905511811023622,
          "duration": 0.17647049999999354
        },
        {
          "name": "D4",
          "midi": 62,
          "time": 85.94848643749995,
          "velocity": 0.7874015748031497,
          "duration": 0.17132344374999775
        },
        {
          "name": "E4",
          "midi": 64,
          "time": 86.12495693749995,
          "velocity": 0.905511811023622,
          "duration": 0.17647049999999354
        },
        {
          "name": "G4",
          "midi": 67,
          "time": 86.30142743749994,
          "velocity": 0.905511811023622,
          "duration": 0.17647049999999354
        },
        {
          "name": "A4",
          "midi": 69,
          "time": 86.47789793749993,
          "velocity": 0.905511811023622,
          "duration": 0.43897036874999174
        },
        {
          "name": "G4",
          "midi": 67,
          "time": 86.91907418749993,
          "velocity": 0.84251968503937,
          "duration": 0.26691163125001083
        },
        {
          "name": "A4",
          "midi": 69,
          "time": 87.18377993749993,
          "velocity": 0.905511811023622,
          "duration": 0.43897036875000595
        },
        {
          "name": "G4",
          "midi": 67,
          "time": 87.62495618749995,
          "velocity": 0.84251968503937,
          "duration": 0.09558818749999887
        },
        {
          "name": "A4",
          "midi": 69,
          "time": 87.71319143749994,
          "velocity": 0.905511811023622,
          "duration": 0.3529410000000013
        },
        {
          "name": "G4",
          "midi": 67,
          "time": 88.06613243749995,
          "velocity": 0.905511811023622,
          "duration": 0.18161755624998932
        },
        {
          "name": "F#4",
          "midi": 66,
          "time": 88.24260293749994,
          "velocity": 0.905511811023622,
          "duration": 0.17647049999999354
        },
        {
          "name": "F#4",
          "midi": 66,
          "time": 88.41907343749993,
          "velocity": 0.905511811023622,
          "duration": 0.17647049999999354
        },
        {
          "name": "F#4",
          "midi": 66,
          "time": 88.59554393749993,
          "velocity": 0.905511811023622,
          "duration": 0.3529410000000013
        },
        {
          "name": "E4",
          "midi": 64,
          "time": 88.95363199374992,
          "velocity": 0.905511811023622,
          "duration": 0.17647049999999354
        },
        {
          "name": "F#4",
          "midi": 66,
          "time": 89.12495543749992,
          "velocity": 0.905511811023622,
          "duration": 0.17647049999999354
        },
        {
          "name": "F#4",
          "midi": 66,
          "time": 89.30142593749991,
          "velocity": 0.905511811023622,
          "duration": 0.17647049999999354
        },
        {
          "name": "F#4",
          "midi": 66,
          "time": 89.47789643749991,
          "velocity": 0.905511811023622,
          "duration": 0.17647049999999354
        },
        {
          "name": "F#4",
          "midi": 66,
          "time": 89.6543669374999,
          "velocity": 0.905511811023622,
          "duration": 0.2669116312499966
        },
        {
          "name": "G4",
          "midi": 67,
          "time": 89.9139256312499,
          "velocity": 0.905511811023622,
          "duration": 0.04779409374999943
        },
        {
          "name": "A4",
          "midi": 69,
          "time": 89.9256903312499,
          "velocity": 0.905511811023622,
          "duration": 0.044117624999998384
        },
        {
          "name": "B4",
          "midi": 71,
          "time": 89.93524914999989,
          "velocity": 0.905511811023622,
          "duration": 0.044117624999998384
        },
        {
          "name": "C5",
          "midi": 72,
          "time": 89.9639256062499,
          "velocity": 0.905511811023622,
          "duration": 0.04411762499998417
        },
        {
          "name": "C#5",
          "midi": 73,
          "time": 90.01245499374988,
          "velocity": 0.905511811023622,
          "duration": 0.17647049999999354
        },
        {
          "name": "E5",
          "midi": 76,
          "time": 90.18892549374988,
          "velocity": 0.905511811023622,
          "duration": 0.08823524999999677
        },
        {
          "name": "E5",
          "midi": 76,
          "time": 90.27716074374987,
          "velocity": 0.905511811023622,
          "duration": 0.09558818749999887
        },
        {
          "name": "F#5",
          "midi": 78,
          "time": 90.36539599374987,
          "velocity": 0.905511811023622,
          "duration": 0.524264443749999
        },
        {
          "name": "F#5",
          "midi": 78,
          "time": 90.89480749374987,
          "velocity": 0.905511811023622,
          "duration": 0.5286762062499974
        },
        {
          "name": "F#5",
          "midi": 78,
          "time": 91.42421899374986,
          "velocity": 0.905511811023622,
          "duration": 0.17647049999999354
        },
        {
          "name": "E5",
          "midi": 76,
          "time": 91.60068949374985,
          "velocity": 0.905511811023622,
          "duration": 0.17647049999999354
        },
        {
          "name": "A5",
          "midi": 81,
          "time": 91.77715999374985,
          "velocity": 0.905511811023622,
          "duration": 0.35294099999998707
        },
        {
          "name": "A5",
          "midi": 81,
          "time": 92.13010099374983,
          "velocity": 0.905511811023622,
          "duration": 0.35294099999998707
        },
        {
          "name": "A5",
          "midi": 81,
          "time": 92.48304199374982,
          "velocity": 0.905511811023622,
          "duration": 0.35294099999998707
        },
        {
          "name": "G5",
          "midi": 79,
          "time": 92.83598299374981,
          "velocity": 0.84251968503937,
          "duration": 0.08823524999999677
        },
        {
          "name": "A5",
          "midi": 81,
          "time": 92.9242182437498,
          "velocity": 0.905511811023622,
          "duration": 0.08823524999999677
        },
        {
          "name": "G5",
          "midi": 79,
          "time": 93.0124534937498,
          "velocity": 0.84251968503937,
          "duration": 0.08823524999999677
        },
        {
          "name": "F#5",
          "midi": 78,
          "time": 93.1006887437498,
          "velocity": 0.905511811023622,
          "duration": 0.08823524999999677
        },
        {
          "name": "G5",
          "midi": 79,
          "time": 93.1889239937498,
          "velocity": 0.905511811023622,
          "duration": 0.17647049999999354
        },
        {
          "name": "E5",
          "midi": 76,
          "time": 93.36539449374979,
          "velocity": 0.7874015748031497,
          "duration": 0.17647049999999354
        },
        {
          "name": "E5",
          "midi": 76,
          "time": 93.54186499374978,
          "velocity": 0.905511811023622,
          "duration": 0.17647049999999354
        },
        {
          "name": "E5",
          "midi": 76,
          "time": 93.71833549374978,
          "velocity": 0.905511811023622,
          "duration": 0.08823524999999677
        },
        {
          "name": "C#5",
          "midi": 73,
          "time": 93.80657074374977,
          "velocity": 0.7874015748031497,
          "duration": 0.08823524999999677
        },
        {
          "name": "B4",
          "midi": 71,
          "time": 93.89480599374977,
          "velocity": 0.905511811023622,
          "duration": 0.17647049999999354
        },
        {
          "name": "A4",
          "midi": 69,
          "time": 94.07127649374976,
          "velocity": 0.905511811023622,
          "duration": 0.17647049999999354
        },
        {
          "name": "B4",
          "midi": 71,
          "time": 94.24774699374976,
          "velocity": 0.905511811023622,
          "duration": 0.08823524999999677
        },
        {
          "name": "B4",
          "midi": 71,
          "time": 94.33598224374975,
          "velocity": 0.905511811023622,
          "duration": 0.08823524999999677
        },
        {
          "name": "A4",
          "midi": 69,
          "time": 94.42421749374975,
          "velocity": 0.7874015748031497,
          "duration": 0.08823524999999677
        },
        {
          "name": "E4",
          "midi": 64,
          "time": 94.51245274374975,
          "velocity": 0.905511811023622,
          "duration": 0.09558818749999887
        },
        {
          "name": "G4",
          "midi": 67,
          "time": 94.60068799374974,
          "velocity": 0.905511811023622,
          "duration": 0.3529410000000013
        },
        {
          "name": "E4",
          "midi": 64,
          "time": 94.94848193749975,
          "velocity": 0.905511811023622,
          "duration": 0.17647049999999354
        },
        {
          "name": "G4",
          "midi": 67,
          "time": 95.12495243749974,
          "velocity": 0.905511811023622,
          "duration": 0.17647049999999354
        },
        {
          "name": "A4",
          "midi": 69,
          "time": 95.30142293749974,
          "velocity": 0.905511811023622,
          "duration": 0.3624998187499955
        },
        {
          "name": "G4",
          "midi": 67,
          "time": 95.65951099374973,
          "velocity": 0.905511811023622,
          "duration": 0.3529410000000013
        },
        {
          "name": "A4",
          "midi": 69,
          "time": 96.01245199374974,
          "velocity": 0.905511811023622,
          "duration": 0.3529410000000013
        },
        {
          "name": "G4",
          "midi": 67,
          "time": 96.36539299374974,
          "velocity": 0.905511811023622,
          "duration": 0.17132344374999775
        },
        {
          "name": "A4",
          "midi": 69,
          "time": 96.54186349374973,
          "velocity": 0.7637795275590551,
          "duration": 0.18161755624998932
        },
        {
          "name": "G4",
          "midi": 67,
          "time": 96.71833399374972,
          "velocity": 0.7637795275590551,
          "duration": 0.17647049999999354
        },
        {
          "name": "E4",
          "midi": 64,
          "time": 96.89480449374972,
          "velocity": 0.905511811023622,
          "duration": 0.08823524999999677
        },
        {
          "name": "G4",
          "midi": 67,
          "time": 96.98303974374971,
          "velocity": 0.905511811023622,
          "duration": 0.08823524999999677
        },
        {
          "name": "E4",
          "midi": 64,
          "time": 97.07127499374971,
          "velocity": 0.905511811023622,
          "duration": 0.08823524999999677
        },
        {
          "name": "A3",
          "midi": 57,
          "time": 97.15951024374971,
          "velocity": 0.905511811023622,
          "duration": 0.08823524999999677
        },
        {
          "name": "B3",
          "midi": 59,
          "time": 97.2477454937497,
          "velocity": 0.7637795275590551,
          "duration": 0.08823524999999677
        },
        {
          "name": "C4",
          "midi": 60,
          "time": 97.3359807437497,
          "velocity": 0.7637795275590551,
          "duration": 0.08823524999999677
        },
        {
          "name": "D4",
          "midi": 62,
          "time": 97.4242159937497,
          "velocity": 0.905511811023622,
          "duration": 0.5294114999999948
        },
        {
          "name": "B3",
          "midi": 59,
          "time": 97.95362749374969,
          "velocity": 0.905511811023622,
          "duration": 0.17647049999999354
        },
        {
          "name": "A3",
          "midi": 57,
          "time": 98.13009799374969,
          "velocity": 0.905511811023622,
          "duration": 0.17647049999999354
        },
        {
          "name": "B3",
          "midi": 59,
          "time": 98.30656849374968,
          "velocity": 0.905511811023622,
          "duration": 0.08823524999999677
        },
        {
          "name": "A3",
          "midi": 57,
          "time": 98.39480374374968,
          "velocity": 0.905511811023622,
          "duration": 0.09558818749999887
        },
        {
          "name": "G3",
          "midi": 55,
          "time": 98.48303899374967,
          "velocity": 0.905511811023622,
          "duration": 0.08823524999999677
        },
        {
          "name": "A3",
          "midi": 57,
          "time": 98.57127424374967,
          "velocity": 0.905511811023622,
          "duration": 0.08823524999999677
        },
        {
          "name": "B3",
          "midi": 59,
          "time": 98.65950949374967,
          "velocity": 0.7637795275590551,
          "duration": 0.08823524999999677
        },
        {
          "name": "C4",
          "midi": 60,
          "time": 98.74774474374966,
          "velocity": 0.7637795275590551,
          "duration": 0.08823524999999677
        },
        {
          "name": "D4",
          "midi": 62,
          "time": 98.83597999374966,
          "velocity": 0.905511811023622,
          "duration": 0.524264443749999
        },
        {
          "name": "D4",
          "midi": 62,
          "time": 99.36539149374966,
          "velocity": 0.905511811023622,
          "duration": 0.17647049999999354
        },
        {
          "name": "E4",
          "midi": 64,
          "time": 99.54186199374965,
          "velocity": 0.905511811023622,
          "duration": 0.17647049999999354
        },
        {
          "name": "G4",
          "midi": 67,
          "time": 99.71833249374964,
          "velocity": 0.905511811023622,
          "duration": 0.17647049999999354
        },
        {
          "name": "E4",
          "midi": 64,
          "time": 99.89480299374964,
          "velocity": 0.905511811023622,
          "duration": 0.17647049999999354
        },
        {
          "name": "D4",
          "midi": 62,
          "time": 100.07127349374963,
          "velocity": 0.905511811023622,
          "duration": 0.17647049999999354
        },
        {
          "name": "E4",
          "midi": 64,
          "time": 100.24774399374962,
          "velocity": 0.905511811023622,
          "duration": 0.17132344374999775
        },
        {
          "name": "D4",
          "midi": 62,
          "time": 100.42421449374962,
          "velocity": 0.905511811023622,
          "duration": 0.5345585562499906
        },
        {
          "name": "E4",
          "midi": 64,
          "time": 100.95362599374961,
          "velocity": 0.905511811023622,
          "duration": 0.524264443749999
        }
      ],
      "controlChanges": {
        "7": [
          {
            "number": 7,
            "time": 0,
            "value": 0.8267716535433071
          }
        ],
        "10": [
          {
            "number": 10,
            "time": 0,
            "value": 1
          }
        ],
        "91": [
          {
            "number": 91,
            "time": 79.0661369375,
            "value": 1
          }
        ],
        "93": [
          {
            "number": 93,
            "time": 79.0661369375,
            "value": 1
          }
        ]
      },
      "id": 7,
      "name": "sOLO (dER)",
      "instrumentNumber": 29,
      "instrument": "overdriven guitar",
      "instrumentFamily": "guitar",
      "channelNumber": 5,
      "isPercussion": false
    },
    {
      "startTime": 0,
      "duration": 0,
      "length": 0,
      "notes": [],
      "controlChanges": {},
      "id": 8,
      "name": "      'Paranoid'"
    },
    {
      "startTime": 0,
      "duration": 0,
      "length": 0,
      "notes": [],
      "controlChanges": {},
      "id": 9,
      "name": "by Black Sabbath"
    },
    {
      "startTime": 0,
      "duration": 0,
      "length": 0,
      "notes": [],
      "controlChanges": {},
      "id": 10,
      "name": "jULIO LeMA '97"
    },
    {
      "startTime": 0,
      "duration": 0,
      "length": 0,
      "notes": [],
      "controlChanges": {},
      "id": 11,
      "name": "jlema@tsc.uvigo.es"
    }
  ]
}