{
  "header": {
    "PPQ": 384,
    "timeSignature": [
      4,
      4
    ],
    "bpm": 120,
    "name": "untitled"
  },
  "startTime": 0,
  "duration": 461.99999999999994,
  "tracks": [
    {
      "startTime": 0,
      "duration": 0,
      "length": 0,
      "notes": [],
      "controlChanges": {},
      "id": 0,
      "name": "untitled"
    },
    {
      "startTime": 1.9895833333333333,
      "duration": 461.99999999999943,
      "length": 3315,
      "notes": [
        {
          "name": "A3",
          "midi": 57,
          "time": 1.9895833333333333,
          "velocity": 0.8818897637795275,
          "duration": 1.7135416666666667
        },
        {
          "name": "B1",
          "midi": 35,
          "time": 2,
          "velocity": 0.5511811023622047,
          "duration": 0.125
        },
        {
          "name": "F#2",
          "midi": 42,
          "time": 2,
          "velocity": 0.6299212598425197,
          "duration": 0.125
        },
        {
          "name": "A3",
          "midi": 57,
          "time": 3.9947916666666665,
          "velocity": 0.8976377952755905,
          "duration": 1.6250000000000004
        },
        {
          "name": "B1",
          "midi": 35,
          "time": 4,
          "velocity": 0.5511811023622047,
          "duration": 0.125
        },
        {
          "name": "F#2",
          "midi": 42,
          "time": 4,
          "velocity": 0.6299212598425197,
          "duration": 0.125
        },
        {
          "name": "B1",
          "midi": 35,
          "time": 6,
          "velocity": 0.5511811023622047,
          "duration": 0.125
        },
        {
          "name": "F#2",
          "midi": 42,
          "time": 6,
          "velocity": 0.6299212598425197,
          "duration": 0.125
        },
        {
          "name": "A3",
          "midi": 57,
          "time": 6.005208333333333,
          "velocity": 1,
          "duration": 1.729166666666667
        },
        {
          "name": "A3",
          "midi": 57,
          "time": 7.979166666666667,
          "velocity": 0.9763779527559056,
          "duration": 1.6562499999999991
        },
        {
          "name": "B1",
          "midi": 35,
          "time": 8,
          "velocity": 0.5511811023622047,
          "duration": 0.125
        },
        {
          "name": "F#2",
          "midi": 42,
          "time": 8,
          "velocity": 0.6299212598425197,
          "duration": 0.125
        },
        {
          "name": "A3",
          "midi": 57,
          "time": 9.963541666666666,
          "velocity": 0.984251968503937,
          "duration": 1.734375
        },
        {
          "name": "B1",
          "midi": 35,
          "time": 10,
          "velocity": 0.5511811023622047,
          "duration": 0.125
        },
        {
          "name": "F#2",
          "midi": 42,
          "time": 10,
          "velocity": 0.6299212598425197,
          "duration": 0.125
        },
        {
          "name": "A3",
          "midi": 57,
          "time": 11.947916666666666,
          "velocity": 0.9763779527559056,
          "duration": 1.755208333333334
        },
        {
          "name": "B1",
          "midi": 35,
          "time": 12,
          "velocity": 0.5511811023622047,
          "duration": 0.125
        },
        {
          "name": "F#2",
          "midi": 42,
          "time": 12,
          "velocity": 0.6299212598425197,
          "duration": 0.125
        },
        {
          "name": "A3",
          "midi": 57,
          "time": 13.963541666666666,
          "velocity": 0.9763779527559056,
          "duration": 0.859375
        },
        {
          "name": "B1",
          "midi": 35,
          "time": 14,
          "velocity": 0.5511811023622047,
          "duration": 0.125
        },
        {
          "name": "F#2",
          "midi": 42,
          "time": 14,
          "velocity": 0.6299212598425197,
          "duration": 0.125
        },
        {
          "name": "A3",
          "midi": 57,
          "time": 15.041666666666666,
          "velocity": 0.9763779527559056,
          "duration": 0.7395833333333339
        },
        {
          "name": "B1",
          "midi": 35,
          "time": 16,
          "velocity": 0.5511811023622047,
          "duration": 0.125
        },
        {
          "name": "F#2",
          "midi": 42,
          "time": 16,
          "velocity": 0.6299212598425197,
          "duration": 0.125
        },
        {
          "name": "A3",
          "midi": 57,
          "time": 16.036458333333332,
          "velocity": 0.9763779527559056,
          "duration": 0.6927083333333357
        },
        {
          "name": "A3",
          "midi": 57,
          "time": 17.020833333333336,
          "velocity": 0.9763779527559056,
          "duration": 0.5260416666666679
        },
        {
          "name": "D2",
          "midi": 38,
          "time": 17.500000000000004,
          "velocity": 0.7874015748031497,
          "duration": 0.125
        },
        {
          "name": "F#2",
          "midi": 42,
          "time": 17.500000000000004,
          "velocity": 0.6299212598425197,
          "duration": 0.125
        },
        {
          "name": "D2",
          "midi": 38,
          "time": 17.625000000000004,
          "velocity": 0.905511811023622,
          "duration": 0.125
        },
        {
          "name": "F#2",
          "midi": 42,
          "time": 17.625000000000004,
          "velocity": 0.7874015748031497,
          "duration": 0.125
        },
        {
          "name": "B1",
          "midi": 35,
          "time": 17.750000000000004,
          "velocity": 0.6299212598425197,
          "duration": 0.125
        },
        {
          "name": "D2",
          "midi": 38,
          "time": 17.750000000000004,
          "velocity": 1,
          "duration": 0.125
        },
        {
          "name": "A#2",
          "midi": 46,
          "time": 17.750000000000004,
          "velocity": 0.7874015748031497,
          "duration": 0.125
        },
        {
          "name": "D2",
          "midi": 38,
          "time": 17.875000000000004,
          "velocity": 0.905511811023622,
          "duration": 0.125
        },
        {
          "name": "F#2",
          "midi": 42,
          "time": 17.875000000000004,
          "velocity": 0.7874015748031497,
          "duration": 0.125
        },
        {
          "name": "B1",
          "midi": 35,
          "time": 18.000000000000004,
          "velocity": 0.5511811023622047,
          "duration": 0.125
        },
        {
          "name": "F#2",
          "midi": 42,
          "time": 18.000000000000004,
          "velocity": 0.6299212598425197,
          "duration": 0.125
        },
        {
          "name": "F#2",
          "midi": 42,
          "time": 18.250000000000004,
          "velocity": 0.6299212598425197,
          "duration": 0.125
        },
        {
          "name": "F#2",
          "midi": 42,
          "time": 18.500000000000004,
          "velocity": 0.6299212598425197,
          "duration": 0.125
        },
        {
          "name": "C#2",
          "midi": 37,
          "time": 18.500000000000004,
          "velocity": 0.7874015748031497,
          "duration": 0.125
        },
        {
          "name": "B1",
          "midi": 35,
          "time": 18.750000000000004,
          "velocity": 0.6299212598425197,
          "duration": 0.125
        },
        {
          "name": "F#2",
          "midi": 42,
          "time": 18.750000000000004,
          "velocity": 0.6299212598425197,
          "duration": 0.125
        },
        {
          "name": "B1",
          "midi": 35,
          "time": 19.000000000000004,
          "velocity": 0.6299212598425197,
          "duration": 0.125
        },
        {
          "name": "F#2",
          "midi": 42,
          "time": 19.000000000000004,
          "velocity": 0.6299212598425197,
          "duration": 0.125
        },
        {
          "name": "F#2",
          "midi": 42,
          "time": 19.250000000000004,
          "velocity": 0.6299212598425197,
          "duration": 0.125
        },
        {
          "name": "F#2",
          "midi": 42,
          "time": 19.500000000000004,
          "velocity": 0.6299212598425197,
          "duration": 0.125
        },
        {
          "name": "C#2",
          "midi": 37,
          "time": 19.500000000000004,
          "velocity": 0.7874015748031497,
          "duration": 0.125
        },
        {
          "name": "B1",
          "midi": 35,
          "time": 19.750000000000004,
          "velocity": 0.6299212598425197,
          "duration": 0.125
        },
        {
          "name": "F#2",
          "midi": 42,
          "time": 19.750000000000004,
          "velocity": 0.6299212598425197,
          "duration": 0.125
        },
        {
          "name": "B1",
          "midi": 35,
          "time": 20.000000000000004,
          "velocity": 0.5511811023622047,
          "duration": 0.125
        },
        {
          "name": "F#2",
          "midi": 42,
          "time": 20.000000000000004,
          "velocity": 0.6299212598425197,
          "duration": 0.125
        },
        {
          "name": "F#2",
          "midi": 42,
          "time": 20.250000000000004,
          "velocity": 0.6299212598425197,
          "duration": 0.125
        },
        {
          "name": "F#2",
          "midi": 42,
          "time": 20.500000000000004,
          "velocity": 0.6299212598425197,
          "duration": 0.125
        },
        {
          "name": "C#2",
          "midi": 37,
          "time": 20.500000000000004,
          "velocity": 0.7874015748031497,
          "duration": 0.125
        },
        {
          "name": "B1",
          "midi": 35,
          "time": 20.750000000000004,
          "velocity": 0.6299212598425197,
          "duration": 0.125
        },
        {
          "name": "F#2",
          "midi": 42,
          "time": 20.750000000000004,
          "velocity": 0.6299212598425197,
          "duration": 0.125
        },
        {
          "name": "B1",
          "midi": 35,
          "time": 21.000000000000004,
          "velocity": 0.6299212598425197,
          "duration": 0.125
        },
        {
          "name": "F#2",
          "midi": 42,
          "time": 21.000000000000004,
          "velocity": 0.6299212598425197,
          "duration": 0.125
        },
        {
          "name": "F#2",
          "midi": 42,
          "time": 21.250000000000004,
          "velocity": 0.6299212598425197,
          "duration": 0.125
        },
        {
          "name": "F#2",
          "midi": 42,
          "time": 21.500000000000004,
          "velocity": 0.6299212598425197,
          "duration": 0.125
        },
        {
          "name": "C#2",
          "midi": 37,
          "time": 21.500000000000004,
          "velocity": 0.7874015748031497,
          "duration": 0.125
        },
        {
          "name": "B1",
          "midi": 35,
          "time": 21.750000000000004,
          "velocity": 0.6299212598425197,
          "duration": 0.125
        },
        {
          "name": "F#2",
          "midi": 42,
          "time": 21.750000000000004,
          "velocity": 0.6299212598425197,
          "duration": 0.125
        },
        {
          "name": "A#2",
          "midi": 46,
          "time": 21.875000000000004,
          "velocity": 0.7086614173228346,
          "duration": 0.125
        },
        {
          "name": "B1",
          "midi": 35,
          "time": 22.000000000000004,
          "velocity": 0.5511811023622047,
          "duration": 0.125
        },
        {
          "name": "F#2",
          "midi": 42,
          "time": 22.000000000000004,
          "velocity": 0.6299212598425197,
          "duration": 0.125
        },
        {
          "name": "F#2",
          "midi": 42,
          "time": 22.250000000000004,
          "velocity": 0.6299212598425197,
          "duration": 0.125
        },
        {
          "name": "F#2",
          "midi": 42,
          "time": 22.500000000000004,
          "velocity": 0.6299212598425197,
          "duration": 0.125
        },
        {
          "name": "C#2",
          "midi": 37,
          "time": 22.500000000000004,
          "velocity": 0.7874015748031497,
          "duration": 0.125
        },
        {
          "name": "B1",
          "midi": 35,
          "time": 22.750000000000004,
          "velocity": 0.6299212598425197,
          "duration": 0.125
        },
        {
          "name": "F#2",
          "midi": 42,
          "time": 22.750000000000004,
          "velocity": 0.6299212598425197,
          "duration": 0.125
        },
        {
          "name": "B1",
          "midi": 35,
          "time": 23.000000000000004,
          "velocity": 0.6299212598425197,
          "duration": 0.125
        },
        {
          "name": "F#2",
          "midi": 42,
          "time": 23.000000000000004,
          "velocity": 0.6299212598425197,
          "duration": 0.125
        },
        {
          "name": "F#2",
          "midi": 42,
          "time": 23.250000000000004,
          "velocity": 0.6299212598425197,
          "duration": 0.125
        },
        {
          "name": "F#2",
          "midi": 42,
          "time": 23.500000000000004,
          "velocity": 0.6299212598425197,
          "duration": 0.125
        },
        {
          "name": "C#2",
          "midi": 37,
          "time": 23.500000000000004,
          "velocity": 0.7874015748031497,
          "duration": 0.125
        },
        {
          "name": "B1",
          "midi": 35,
          "time": 23.750000000000004,
          "velocity": 0.6299212598425197,
          "duration": 0.125
        },
        {
          "name": "F#2",
          "midi": 42,
          "time": 23.750000000000004,
          "velocity": 0.6299212598425197,
          "duration": 0.125
        },
        {
          "name": "B1",
          "midi": 35,
          "time": 24.000000000000004,
          "velocity": 0.5511811023622047,
          "duration": 0.125
        },
        {
          "name": "F#2",
          "midi": 42,
          "time": 24.000000000000004,
          "velocity": 0.6299212598425197,
          "duration": 0.125
        },
        {
          "name": "F#2",
          "midi": 42,
          "time": 24.250000000000004,
          "velocity": 0.6299212598425197,
          "duration": 0.125
        },
        {
          "name": "F#2",
          "midi": 42,
          "time": 24.500000000000004,
          "velocity": 0.6299212598425197,
          "duration": 0.125
        },
        {
          "name": "C#2",
          "midi": 37,
          "time": 24.500000000000004,
          "velocity": 0.7874015748031497,
          "duration": 0.125
        },
        {
          "name": "B1",
          "midi": 35,
          "time": 24.750000000000004,
          "velocity": 0.6299212598425197,
          "duration": 0.125
        },
        {
          "name": "F#2",
          "midi": 42,
          "time": 24.750000000000004,
          "velocity": 0.6299212598425197,
          "duration": 0.125
        },
        {
          "name": "B1",
          "midi": 35,
          "time": 25.000000000000004,
          "velocity": 0.6299212598425197,
          "duration": 0.125
        },
        {
          "name": "F#2",
          "midi": 42,
          "time": 25.000000000000004,
          "velocity": 0.6299212598425197,
          "duration": 0.125
        },
        {
          "name": "F#2",
          "midi": 42,
          "time": 25.250000000000004,
          "velocity": 0.6299212598425197,
          "duration": 0.125
        },
        {
          "name": "F#2",
          "midi": 42,
          "time": 25.500000000000004,
          "velocity": 0.6299212598425197,
          "duration": 0.125
        },
        {
          "name": "C#2",
          "midi": 37,
          "time": 25.500000000000004,
          "velocity": 0.7874015748031497,
          "duration": 0.125
        },
        {
          "name": "B1",
          "midi": 35,
          "time": 25.750000000000004,
          "velocity": 0.6299212598425197,
          "duration": 0.125
        },
        {
          "name": "F#2",
          "midi": 42,
          "time": 25.750000000000004,
          "velocity": 0.6299212598425197,
          "duration": 0.125
        },
        {
          "name": "A#2",
          "midi": 46,
          "time": 25.875000000000004,
          "velocity": 0.7086614173228346,
          "duration": 0.125
        },
        {
          "name": "B1",
          "midi": 35,
          "time": 26.000000000000004,
          "velocity": 0.5511811023622047,
          "duration": 0.125
        },
        {
          "name": "F#2",
          "midi": 42,
          "time": 26.000000000000004,
          "velocity": 0.6299212598425197,
          "duration": 0.125
        },
        {
          "name": "F#2",
          "midi": 42,
          "time": 26.250000000000004,
          "velocity": 0.6299212598425197,
          "duration": 0.125
        },
        {
          "name": "F#2",
          "midi": 42,
          "time": 26.500000000000004,
          "velocity": 0.6299212598425197,
          "duration": 0.125
        },
        {
          "name": "C#2",
          "midi": 37,
          "time": 26.500000000000004,
          "velocity": 0.7874015748031497,
          "duration": 0.125
        },
        {
          "name": "B1",
          "midi": 35,
          "time": 26.750000000000004,
          "velocity": 0.6299212598425197,
          "duration": 0.125
        },
        {
          "name": "F#2",
          "midi": 42,
          "time": 26.750000000000004,
          "velocity": 0.6299212598425197,
          "duration": 0.125
        },
        {
          "name": "B1",
          "midi": 35,
          "time": 27.000000000000004,
          "velocity": 0.6299212598425197,
          "duration": 0.125
        },
        {
          "name": "F#2",
          "midi": 42,
          "time": 27.000000000000004,
          "velocity": 0.6299212598425197,
          "duration": 0.125
        },
        {
          "name": "F#2",
          "midi": 42,
          "time": 27.250000000000004,
          "velocity": 0.6299212598425197,
          "duration": 0.125
        },
        {
          "name": "F#2",
          "midi": 42,
          "time": 27.500000000000004,
          "velocity": 0.6299212598425197,
          "duration": 0.125
        },
        {
          "name": "C#2",
          "midi": 37,
          "time": 27.500000000000004,
          "velocity": 0.7874015748031497,
          "duration": 0.125
        },
        {
          "name": "B1",
          "midi": 35,
          "time": 27.750000000000004,
          "velocity": 0.6299212598425197,
          "duration": 0.125
        },
        {
          "name": "F#2",
          "midi": 42,
          "time": 27.750000000000004,
          "velocity": 0.6299212598425197,
          "duration": 0.125
        },
        {
          "name": "A#2",
          "midi": 46,
          "time": 27.875000000000004,
          "velocity": 0.7086614173228346,
          "duration": 0.125
        },
        {
          "name": "B1",
          "midi": 35,
          "time": 28.000000000000004,
          "velocity": 0.5511811023622047,
          "duration": 0.125
        },
        {
          "name": "F#2",
          "midi": 42,
          "time": 28.000000000000004,
          "velocity": 0.6299212598425197,
          "duration": 0.125
        },
        {
          "name": "F#2",
          "midi": 42,
          "time": 28.250000000000004,
          "velocity": 0.6299212598425197,
          "duration": 0.125
        },
        {
          "name": "F#2",
          "midi": 42,
          "time": 28.500000000000004,
          "velocity": 0.6299212598425197,
          "duration": 0.125
        },
        {
          "name": "C#2",
          "midi": 37,
          "time": 28.500000000000004,
          "velocity": 0.7874015748031497,
          "duration": 0.125
        },
        {
          "name": "B1",
          "midi": 35,
          "time": 28.750000000000004,
          "velocity": 0.6299212598425197,
          "duration": 0.125
        },
        {
          "name": "F#2",
          "midi": 42,
          "time": 28.750000000000004,
          "velocity": 0.6299212598425197,
          "duration": 0.125
        },
        {
          "name": "B1",
          "midi": 35,
          "time": 29.000000000000004,
          "velocity": 0.6299212598425197,
          "duration": 0.125
        },
        {
          "name": "F#2",
          "midi": 42,
          "time": 29.000000000000004,
          "velocity": 0.6299212598425197,
          "duration": 0.125
        },
        {
          "name": "F#2",
          "midi": 42,
          "time": 29.250000000000004,
          "velocity": 0.6299212598425197,
          "duration": 0.125
        },
        {
          "name": "F#2",
          "midi": 42,
          "time": 29.500000000000004,
          "velocity": 0.6299212598425197,
          "duration": 0.125
        },
        {
          "name": "C#2",
          "midi": 37,
          "time": 29.500000000000004,
          "velocity": 0.7874015748031497,
          "duration": 0.125
        },
        {
          "name": "B1",
          "midi": 35,
          "time": 29.750000000000004,
          "velocity": 0.6299212598425197,
          "duration": 0.125
        },
        {
          "name": "F#2",
          "midi": 42,
          "time": 29.750000000000004,
          "velocity": 0.6299212598425197,
          "duration": 0.125
        },
        {
          "name": "A#2",
          "midi": 46,
          "time": 29.875000000000004,
          "velocity": 0.7086614173228346,
          "duration": 0.125
        },
        {
          "name": "B1",
          "midi": 35,
          "time": 30.000000000000004,
          "velocity": 0.5511811023622047,
          "duration": 0.125
        },
        {
          "name": "F#2",
          "midi": 42,
          "time": 30.000000000000004,
          "velocity": 0.6299212598425197,
          "duration": 0.125
        },
        {
          "name": "F#2",
          "midi": 42,
          "time": 30.250000000000004,
          "velocity": 0.6299212598425197,
          "duration": 0.125
        },
        {
          "name": "F#2",
          "midi": 42,
          "time": 30.500000000000004,
          "velocity": 0.6299212598425197,
          "duration": 0.125
        },
        {
          "name": "C#2",
          "midi": 37,
          "time": 30.500000000000004,
          "velocity": 0.7874015748031497,
          "duration": 0.125
        },
        {
          "name": "B1",
          "midi": 35,
          "time": 30.750000000000004,
          "velocity": 0.6299212598425197,
          "duration": 0.125
        },
        {
          "name": "F#2",
          "midi": 42,
          "time": 30.750000000000004,
          "velocity": 0.6299212598425197,
          "duration": 0.125
        },
        {
          "name": "B1",
          "midi": 35,
          "time": 31.000000000000004,
          "velocity": 0.6299212598425197,
          "duration": 0.125
        },
        {
          "name": "F#2",
          "midi": 42,
          "time": 31.000000000000004,
          "velocity": 0.6299212598425197,
          "duration": 0.125
        },
        {
          "name": "F#2",
          "midi": 42,
          "time": 31.250000000000004,
          "velocity": 0.6299212598425197,
          "duration": 0.125
        },
        {
          "name": "F#2",
          "midi": 42,
          "time": 31.500000000000004,
          "velocity": 0.6299212598425197,
          "duration": 0.125
        },
        {
          "name": "C#2",
          "midi": 37,
          "time": 31.500000000000004,
          "velocity": 0.7874015748031497,
          "duration": 0.125
        },
        {
          "name": "B1",
          "midi": 35,
          "time": 31.750000000000004,
          "velocity": 0.6299212598425197,
          "duration": 0.125
        },
        {
          "name": "F#2",
          "midi": 42,
          "time": 31.750000000000004,
          "velocity": 0.6299212598425197,
          "duration": 0.125
        },
        {
          "name": "B1",
          "midi": 35,
          "time": 32,
          "velocity": 0.5511811023622047,
          "duration": 0.125
        },
        {
          "name": "F#2",
          "midi": 42,
          "time": 32,
          "velocity": 0.6299212598425197,
          "duration": 0.125
        },
        {
          "name": "F#2",
          "midi": 42,
          "time": 32.25,
          "velocity": 0.6299212598425197,
          "duration": 0.125
        },
        {
          "name": "F#2",
          "midi": 42,
          "time": 32.5,
          "velocity": 0.6299212598425197,
          "duration": 0.125
        },
        {
          "name": "C#2",
          "midi": 37,
          "time": 32.5,
          "velocity": 0.7874015748031497,
          "duration": 0.125
        },
        {
          "name": "B1",
          "midi": 35,
          "time": 32.75,
          "velocity": 0.6299212598425197,
          "duration": 0.125
        },
        {
          "name": "F#2",
          "midi": 42,
          "time": 32.75,
          "velocity": 0.6299212598425197,
          "duration": 0.125
        },
        {
          "name": "B1",
          "midi": 35,
          "time": 33,
          "velocity": 0.6299212598425197,
          "duration": 0.125
        },
        {
          "name": "F#2",
          "midi": 42,
          "time": 33,
          "velocity": 0.6299212598425197,
          "duration": 0.125
        },
        {
          "name": "F#2",
          "midi": 42,
          "time": 33.25,
          "velocity": 0.6299212598425197,
          "duration": 0.125
        },
        {
          "name": "F#2",
          "midi": 42,
          "time": 33.5,
          "velocity": 0.6299212598425197,
          "duration": 0.125
        },
        {
          "name": "C#2",
          "midi": 37,
          "time": 33.5,
          "velocity": 0.7874015748031497,
          "duration": 0.125
        },
        {
          "name": "B1",
          "midi": 35,
          "time": 33.75,
          "velocity": 0.6299212598425197,
          "duration": 0.125
        },
        {
          "name": "F#2",
          "midi": 42,
          "time": 33.75,
          "velocity": 0.6299212598425197,
          "duration": 0.125
        },
        {
          "name": "A#2",
          "midi": 46,
          "time": 33.875,
          "velocity": 0.7086614173228346,
          "duration": 0.125
        },
        {
          "name": "B1",
          "midi": 35,
          "time": 34,
          "velocity": 0.5511811023622047,
          "duration": 0.125
        },
        {
          "name": "F#2",
          "midi": 42,
          "time": 34,
          "velocity": 0.6299212598425197,
          "duration": 0.125
        },
        {
          "name": "F#2",
          "midi": 42,
          "time": 34.25,
          "velocity": 0.6299212598425197,
          "duration": 0.125
        },
        {
          "name": "F#2",
          "midi": 42,
          "time": 34.5,
          "velocity": 0.6299212598425197,
          "duration": 0.125
        },
        {
          "name": "C#2",
          "midi": 37,
          "time": 34.5,
          "velocity": 0.7874015748031497,
          "duration": 0.125
        },
        {
          "name": "B1",
          "midi": 35,
          "time": 34.75,
          "velocity": 0.6299212598425197,
          "duration": 0.125
        },
        {
          "name": "F#2",
          "midi": 42,
          "time": 34.75,
          "velocity": 0.6299212598425197,
          "duration": 0.125
        },
        {
          "name": "B1",
          "midi": 35,
          "time": 35,
          "velocity": 0.6299212598425197,
          "duration": 0.125
        },
        {
          "name": "F#2",
          "midi": 42,
          "time": 35,
          "velocity": 0.6299212598425197,
          "duration": 0.125
        },
        {
          "name": "F#2",
          "midi": 42,
          "time": 35.25,
          "velocity": 0.6299212598425197,
          "duration": 0.125
        },
        {
          "name": "F#2",
          "midi": 42,
          "time": 35.5,
          "velocity": 0.6299212598425197,
          "duration": 0.125
        },
        {
          "name": "C#2",
          "midi": 37,
          "time": 35.5,
          "velocity": 0.7874015748031497,
          "duration": 0.125
        },
        {
          "name": "B1",
          "midi": 35,
          "time": 35.75,
          "velocity": 0.6299212598425197,
          "duration": 0.125
        },
        {
          "name": "F#2",
          "midi": 42,
          "time": 35.75,
          "velocity": 0.6299212598425197,
          "duration": 0.125
        },
        {
          "name": "A#2",
          "midi": 46,
          "time": 35.875,
          "velocity": 0.7086614173228346,
          "duration": 0.125
        },
        {
          "name": "B1",
          "midi": 35,
          "time": 36,
          "velocity": 0.5511811023622047,
          "duration": 0.125
        },
        {
          "name": "F#2",
          "midi": 42,
          "time": 36,
          "velocity": 0.6299212598425197,
          "duration": 0.125
        },
        {
          "name": "F#2",
          "midi": 42,
          "time": 36.25,
          "velocity": 0.6299212598425197,
          "duration": 0.125
        },
        {
          "name": "F#2",
          "midi": 42,
          "time": 36.5,
          "velocity": 0.6299212598425197,
          "duration": 0.125
        },
        {
          "name": "C#2",
          "midi": 37,
          "time": 36.5,
          "velocity": 0.7874015748031497,
          "duration": 0.125
        },
        {
          "name": "B1",
          "midi": 35,
          "time": 36.75,
          "velocity": 0.6299212598425197,
          "duration": 0.125
        },
        {
          "name": "F#2",
          "midi": 42,
          "time": 36.75,
          "velocity": 0.6299212598425197,
          "duration": 0.125
        },
        {
          "name": "B1",
          "midi": 35,
          "time": 37,
          "velocity": 0.6299212598425197,
          "duration": 0.125
        },
        {
          "name": "F#2",
          "midi": 42,
          "time": 37,
          "velocity": 0.6299212598425197,
          "duration": 0.125
        },
        {
          "name": "F#2",
          "midi": 42,
          "time": 37.25,
          "velocity": 0.6299212598425197,
          "duration": 0.125
        },
        {
          "name": "F#2",
          "midi": 42,
          "time": 37.5,
          "velocity": 0.6299212598425197,
          "duration": 0.125
        },
        {
          "name": "C#2",
          "midi": 37,
          "time": 37.5,
          "velocity": 0.7874015748031497,
          "duration": 0.125
        },
        {
          "name": "B1",
          "midi": 35,
          "time": 37.75,
          "velocity": 0.6299212598425197,
          "duration": 0.125
        },
        {
          "name": "F#2",
          "midi": 42,
          "time": 37.75,
          "velocity": 0.6299212598425197,
          "duration": 0.125
        },
        {
          "name": "B1",
          "midi": 35,
          "time": 38,
          "velocity": 0.5511811023622047,
          "duration": 0.125
        },
        {
          "name": "F#2",
          "midi": 42,
          "time": 38,
          "velocity": 0.6299212598425197,
          "duration": 0.125
        },
        {
          "name": "F#2",
          "midi": 42,
          "time": 38.25,
          "velocity": 0.6299212598425197,
          "duration": 0.125
        },
        {
          "name": "F#2",
          "midi": 42,
          "time": 38.5,
          "velocity": 0.6299212598425197,
          "duration": 0.125
        },
        {
          "name": "C#2",
          "midi": 37,
          "time": 38.5,
          "velocity": 0.7874015748031497,
          "duration": 0.125
        },
        {
          "name": "B1",
          "midi": 35,
          "time": 38.75,
          "velocity": 0.6299212598425197,
          "duration": 0.125
        },
        {
          "name": "F#2",
          "midi": 42,
          "time": 38.75,
          "velocity": 0.6299212598425197,
          "duration": 0.125
        },
        {
          "name": "B1",
          "midi": 35,
          "time": 39,
          "velocity": 0.6299212598425197,
          "duration": 0.125
        },
        {
          "name": "F#2",
          "midi": 42,
          "time": 39,
          "velocity": 0.6299212598425197,
          "duration": 0.125
        },
        {
          "name": "F#2",
          "midi": 42,
          "time": 39.25,
          "velocity": 0.6299212598425197,
          "duration": 0.125
        },
        {
          "name": "F#2",
          "midi": 42,
          "time": 39.5,
          "velocity": 0.6299212598425197,
          "duration": 0.125
        },
        {
          "name": "C#2",
          "midi": 37,
          "time": 39.5,
          "velocity": 0.7874015748031497,
          "duration": 0.125
        },
        {
          "name": "B1",
          "midi": 35,
          "time": 39.75,
          "velocity": 0.6299212598425197,
          "duration": 0.125
        },
        {
          "name": "F#2",
          "midi": 42,
          "time": 39.75,
          "velocity": 0.6299212598425197,
          "duration": 0.125
        },
        {
          "name": "B1",
          "midi": 35,
          "time": 40,
          "velocity": 0.5511811023622047,
          "duration": 0.125
        },
        {
          "name": "F#2",
          "midi": 42,
          "time": 40,
          "velocity": 0.6299212598425197,
          "duration": 0.125
        },
        {
          "name": "F#2",
          "midi": 42,
          "time": 40.25,
          "velocity": 0.6299212598425197,
          "duration": 0.125
        },
        {
          "name": "F#2",
          "midi": 42,
          "time": 40.5,
          "velocity": 0.6299212598425197,
          "duration": 0.125
        },
        {
          "name": "C#2",
          "midi": 37,
          "time": 40.5,
          "velocity": 0.7874015748031497,
          "duration": 0.125
        },
        {
          "name": "B1",
          "midi": 35,
          "time": 40.75,
          "velocity": 0.6299212598425197,
          "duration": 0.125
        },
        {
          "name": "F#2",
          "midi": 42,
          "time": 40.75,
          "velocity": 0.6299212598425197,
          "duration": 0.125
        },
        {
          "name": "B1",
          "midi": 35,
          "time": 41,
          "velocity": 0.6299212598425197,
          "duration": 0.125
        },
        {
          "name": "F#2",
          "midi": 42,
          "time": 41,
          "velocity": 0.6299212598425197,
          "duration": 0.125
        },
        {
          "name": "F#2",
          "midi": 42,
          "time": 41.25,
          "velocity": 0.6299212598425197,
          "duration": 0.125
        },
        {
          "name": "F#2",
          "midi": 42,
          "time": 41.5,
          "velocity": 0.6299212598425197,
          "duration": 0.125
        },
        {
          "name": "C#2",
          "midi": 37,
          "time": 41.5,
          "velocity": 0.7874015748031497,
          "duration": 0.125
        },
        {
          "name": "B1",
          "midi": 35,
          "time": 41.75,
          "velocity": 0.6299212598425197,
          "duration": 0.125
        },
        {
          "name": "F#2",
          "midi": 42,
          "time": 41.75,
          "velocity": 0.6299212598425197,
          "duration": 0.125
        },
        {
          "name": "A#2",
          "midi": 46,
          "time": 41.875,
          "velocity": 0.7086614173228346,
          "duration": 0.125
        },
        {
          "name": "B1",
          "midi": 35,
          "time": 42,
          "velocity": 0.5511811023622047,
          "duration": 0.125
        },
        {
          "name": "F#2",
          "midi": 42,
          "time": 42,
          "velocity": 0.6299212598425197,
          "duration": 0.125
        },
        {
          "name": "F#2",
          "midi": 42,
          "time": 42.25,
          "velocity": 0.6299212598425197,
          "duration": 0.125
        },
        {
          "name": "F#2",
          "midi": 42,
          "time": 42.5,
          "velocity": 0.6299212598425197,
          "duration": 0.125
        },
        {
          "name": "C#2",
          "midi": 37,
          "time": 42.5,
          "velocity": 0.7874015748031497,
          "duration": 0.125
        },
        {
          "name": "B1",
          "midi": 35,
          "time": 42.75,
          "velocity": 0.6299212598425197,
          "duration": 0.125
        },
        {
          "name": "F#2",
          "midi": 42,
          "time": 42.75,
          "velocity": 0.6299212598425197,
          "duration": 0.125
        },
        {
          "name": "B1",
          "midi": 35,
          "time": 43,
          "velocity": 0.6299212598425197,
          "duration": 0.125
        },
        {
          "name": "F#2",
          "midi": 42,
          "time": 43,
          "velocity": 0.6299212598425197,
          "duration": 0.125
        },
        {
          "name": "F#2",
          "midi": 42,
          "time": 43.25,
          "velocity": 0.6299212598425197,
          "duration": 0.125
        },
        {
          "name": "F#2",
          "midi": 42,
          "time": 43.5,
          "velocity": 0.6299212598425197,
          "duration": 0.125
        },
        {
          "name": "C#2",
          "midi": 37,
          "time": 43.5,
          "velocity": 0.7874015748031497,
          "duration": 0.125
        },
        {
          "name": "B1",
          "midi": 35,
          "time": 43.75,
          "velocity": 0.6299212598425197,
          "duration": 0.125
        },
        {
          "name": "F#2",
          "midi": 42,
          "time": 43.75,
          "velocity": 0.6299212598425197,
          "duration": 0.125
        },
        {
          "name": "B1",
          "midi": 35,
          "time": 44,
          "velocity": 0.5511811023622047,
          "duration": 0.125
        },
        {
          "name": "F#2",
          "midi": 42,
          "time": 44,
          "velocity": 0.6299212598425197,
          "duration": 0.125
        },
        {
          "name": "F#2",
          "midi": 42,
          "time": 44.25,
          "velocity": 0.6299212598425197,
          "duration": 0.125
        },
        {
          "name": "F#2",
          "midi": 42,
          "time": 44.5,
          "velocity": 0.6299212598425197,
          "duration": 0.125
        },
        {
          "name": "C#2",
          "midi": 37,
          "time": 44.5,
          "velocity": 0.7874015748031497,
          "duration": 0.125
        },
        {
          "name": "B1",
          "midi": 35,
          "time": 44.75,
          "velocity": 0.6299212598425197,
          "duration": 0.125
        },
        {
          "name": "F#2",
          "midi": 42,
          "time": 44.75,
          "velocity": 0.6299212598425197,
          "duration": 0.125
        },
        {
          "name": "B1",
          "midi": 35,
          "time": 45,
          "velocity": 0.6299212598425197,
          "duration": 0.125
        },
        {
          "name": "F#2",
          "midi": 42,
          "time": 45,
          "velocity": 0.6299212598425197,
          "duration": 0.125
        },
        {
          "name": "F#2",
          "midi": 42,
          "time": 45.25,
          "velocity": 0.6299212598425197,
          "duration": 0.125
        },
        {
          "name": "F#2",
          "midi": 42,
          "time": 45.5,
          "velocity": 0.6299212598425197,
          "duration": 0.125
        },
        {
          "name": "C#2",
          "midi": 37,
          "time": 45.5,
          "velocity": 0.7874015748031497,
          "duration": 0.125
        },
        {
          "name": "B1",
          "midi": 35,
          "time": 45.75,
          "velocity": 0.6299212598425197,
          "duration": 0.125
        },
        {
          "name": "F#2",
          "midi": 42,
          "time": 45.75,
          "velocity": 0.6299212598425197,
          "duration": 0.125
        },
        {
          "name": "B1",
          "midi": 35,
          "time": 46,
          "velocity": 0.5511811023622047,
          "duration": 0.125
        },
        {
          "name": "F#2",
          "midi": 42,
          "time": 46,
          "velocity": 0.6299212598425197,
          "duration": 0.125
        },
        {
          "name": "F#2",
          "midi": 42,
          "time": 46.25,
          "velocity": 0.6299212598425197,
          "duration": 0.125
        },
        {
          "name": "F#2",
          "midi": 42,
          "time": 46.5,
          "velocity": 0.6299212598425197,
          "duration": 0.125
        },
        {
          "name": "C#2",
          "midi": 37,
          "time": 46.5,
          "velocity": 0.7874015748031497,
          "duration": 0.125
        },
        {
          "name": "B1",
          "midi": 35,
          "time": 46.75,
          "velocity": 0.6299212598425197,
          "duration": 0.125
        },
        {
          "name": "F#2",
          "midi": 42,
          "time": 46.75,
          "velocity": 0.6299212598425197,
          "duration": 0.125
        },
        {
          "name": "B1",
          "midi": 35,
          "time": 47,
          "velocity": 0.6299212598425197,
          "duration": 0.125
        },
        {
          "name": "F#2",
          "midi": 42,
          "time": 47,
          "velocity": 0.6299212598425197,
          "duration": 0.125
        },
        {
          "name": "F#2",
          "midi": 42,
          "time": 47.25,
          "velocity": 0.6299212598425197,
          "duration": 0.125
        },
        {
          "name": "F#2",
          "midi": 42,
          "time": 47.5,
          "velocity": 0.6299212598425197,
          "duration": 0.125
        },
        {
          "name": "C#2",
          "midi": 37,
          "time": 47.5,
          "velocity": 0.7874015748031497,
          "duration": 0.125
        },
        {
          "name": "B1",
          "midi": 35,
          "time": 47.75,
          "velocity": 0.6299212598425197,
          "duration": 0.125
        },
        {
          "name": "F#2",
          "midi": 42,
          "time": 47.75,
          "velocity": 0.6299212598425197,
          "duration": 0.125
        },
        {
          "name": "B1",
          "midi": 35,
          "time": 48,
          "velocity": 0.5511811023622047,
          "duration": 0.125
        },
        {
          "name": "F#2",
          "midi": 42,
          "time": 48,
          "velocity": 0.6299212598425197,
          "duration": 0.125
        },
        {
          "name": "F#2",
          "midi": 42,
          "time": 48.25,
          "velocity": 0.6299212598425197,
          "duration": 0.125
        },
        {
          "name": "F#2",
          "midi": 42,
          "time": 48.5,
          "velocity": 0.6299212598425197,
          "duration": 0.125
        },
        {
          "name": "C#2",
          "midi": 37,
          "time": 48.5,
          "velocity": 0.7874015748031497,
          "duration": 0.125
        },
        {
          "name": "B1",
          "midi": 35,
          "time": 48.75,
          "velocity": 0.6299212598425197,
          "duration": 0.125
        },
        {
          "name": "F#2",
          "midi": 42,
          "time": 48.75,
          "velocity": 0.6299212598425197,
          "duration": 0.125
        },
        {
          "name": "B1",
          "midi": 35,
          "time": 49,
          "velocity": 0.6299212598425197,
          "duration": 0.125
        },
        {
          "name": "F#2",
          "midi": 42,
          "time": 49,
          "velocity": 0.6299212598425197,
          "duration": 0.125
        },
        {
          "name": "F#2",
          "midi": 42,
          "time": 49.25,
          "velocity": 0.6299212598425197,
          "duration": 0.125
        },
        {
          "name": "F#2",
          "midi": 42,
          "time": 49.5,
          "velocity": 0.6299212598425197,
          "duration": 0.125
        },
        {
          "name": "C#2",
          "midi": 37,
          "time": 49.5,
          "velocity": 0.7874015748031497,
          "duration": 0.125
        },
        {
          "name": "B1",
          "midi": 35,
          "time": 49.75,
          "velocity": 0.6299212598425197,
          "duration": 0.125
        },
        {
          "name": "F#2",
          "midi": 42,
          "time": 49.75,
          "velocity": 0.6299212598425197,
          "duration": 0.125
        },
        {
          "name": "A#2",
          "midi": 46,
          "time": 49.875,
          "velocity": 0.7086614173228346,
          "duration": 0.125
        },
        {
          "name": "B1",
          "midi": 35,
          "time": 50,
          "velocity": 0.5511811023622047,
          "duration": 0.125
        },
        {
          "name": "F#2",
          "midi": 42,
          "time": 50,
          "velocity": 0.6299212598425197,
          "duration": 0.125
        },
        {
          "name": "F#2",
          "midi": 42,
          "time": 50.25,
          "velocity": 0.6299212598425197,
          "duration": 0.125
        },
        {
          "name": "F#2",
          "midi": 42,
          "time": 50.5,
          "velocity": 0.6299212598425197,
          "duration": 0.125
        },
        {
          "name": "C#2",
          "midi": 37,
          "time": 50.5,
          "velocity": 0.7874015748031497,
          "duration": 0.125
        },
        {
          "name": "B1",
          "midi": 35,
          "time": 50.75,
          "velocity": 0.6299212598425197,
          "duration": 0.125
        },
        {
          "name": "F#2",
          "midi": 42,
          "time": 50.75,
          "velocity": 0.6299212598425197,
          "duration": 0.125
        },
        {
          "name": "B1",
          "midi": 35,
          "time": 51,
          "velocity": 0.6299212598425197,
          "duration": 0.125
        },
        {
          "name": "F#2",
          "midi": 42,
          "time": 51,
          "velocity": 0.6299212598425197,
          "duration": 0.125
        },
        {
          "name": "F#2",
          "midi": 42,
          "time": 51.25,
          "velocity": 0.6299212598425197,
          "duration": 0.125
        },
        {
          "name": "F#2",
          "midi": 42,
          "time": 51.5,
          "velocity": 0.6299212598425197,
          "duration": 0.125
        },
        {
          "name": "C#2",
          "midi": 37,
          "time": 51.5,
          "velocity": 0.7874015748031497,
          "duration": 0.125
        },
        {
          "name": "B1",
          "midi": 35,
          "time": 51.75,
          "velocity": 0.6299212598425197,
          "duration": 0.125
        },
        {
          "name": "F#2",
          "midi": 42,
          "time": 51.75,
          "velocity": 0.6299212598425197,
          "duration": 0.125
        },
        {
          "name": "B1",
          "midi": 35,
          "time": 52,
          "velocity": 0.5511811023622047,
          "duration": 0.125
        },
        {
          "name": "F#2",
          "midi": 42,
          "time": 52,
          "velocity": 0.6299212598425197,
          "duration": 0.125
        },
        {
          "name": "F#2",
          "midi": 42,
          "time": 52.25,
          "velocity": 0.6299212598425197,
          "duration": 0.125
        },
        {
          "name": "F#2",
          "midi": 42,
          "time": 52.5,
          "velocity": 0.6299212598425197,
          "duration": 0.125
        },
        {
          "name": "C#2",
          "midi": 37,
          "time": 52.5,
          "velocity": 0.7874015748031497,
          "duration": 0.125
        },
        {
          "name": "B1",
          "midi": 35,
          "time": 52.75,
          "velocity": 0.6299212598425197,
          "duration": 0.125
        },
        {
          "name": "F#2",
          "midi": 42,
          "time": 52.75,
          "velocity": 0.6299212598425197,
          "duration": 0.125
        },
        {
          "name": "B1",
          "midi": 35,
          "time": 53,
          "velocity": 0.6299212598425197,
          "duration": 0.125
        },
        {
          "name": "F#2",
          "midi": 42,
          "time": 53,
          "velocity": 0.6299212598425197,
          "duration": 0.125
        },
        {
          "name": "F#2",
          "midi": 42,
          "time": 53.25,
          "velocity": 0.6299212598425197,
          "duration": 0.125
        },
        {
          "name": "F#2",
          "midi": 42,
          "time": 53.5,
          "velocity": 0.6299212598425197,
          "duration": 0.125
        },
        {
          "name": "C#2",
          "midi": 37,
          "time": 53.5,
          "velocity": 0.7874015748031497,
          "duration": 0.125
        },
        {
          "name": "B1",
          "midi": 35,
          "time": 53.75,
          "velocity": 0.6299212598425197,
          "duration": 0.125
        },
        {
          "name": "F#2",
          "midi": 42,
          "time": 53.75,
          "velocity": 0.6299212598425197,
          "duration": 0.125
        },
        {
          "name": "A#2",
          "midi": 46,
          "time": 53.875,
          "velocity": 0.7086614173228346,
          "duration": 0.125
        },
        {
          "name": "B1",
          "midi": 35,
          "time": 54,
          "velocity": 0.5511811023622047,
          "duration": 0.125
        },
        {
          "name": "F#2",
          "midi": 42,
          "time": 54,
          "velocity": 0.6299212598425197,
          "duration": 0.125
        },
        {
          "name": "F#2",
          "midi": 42,
          "time": 54.25,
          "velocity": 0.6299212598425197,
          "duration": 0.125
        },
        {
          "name": "F#2",
          "midi": 42,
          "time": 54.5,
          "velocity": 0.6299212598425197,
          "duration": 0.125
        },
        {
          "name": "C#2",
          "midi": 37,
          "time": 54.5,
          "velocity": 0.7874015748031497,
          "duration": 0.125
        },
        {
          "name": "B1",
          "midi": 35,
          "time": 54.75,
          "velocity": 0.6299212598425197,
          "duration": 0.125
        },
        {
          "name": "F#2",
          "midi": 42,
          "time": 54.75,
          "velocity": 0.6299212598425197,
          "duration": 0.125
        },
        {
          "name": "B1",
          "midi": 35,
          "time": 55,
          "velocity": 0.6299212598425197,
          "duration": 0.125
        },
        {
          "name": "F#2",
          "midi": 42,
          "time": 55,
          "velocity": 0.6299212598425197,
          "duration": 0.125
        },
        {
          "name": "F#2",
          "midi": 42,
          "time": 55.25,
          "velocity": 0.6299212598425197,
          "duration": 0.125
        },
        {
          "name": "F#2",
          "midi": 42,
          "time": 55.5,
          "velocity": 0.6299212598425197,
          "duration": 0.125
        },
        {
          "name": "C#2",
          "midi": 37,
          "time": 55.5,
          "velocity": 0.7874015748031497,
          "duration": 0.125
        },
        {
          "name": "B1",
          "midi": 35,
          "time": 55.75,
          "velocity": 0.6299212598425197,
          "duration": 0.125
        },
        {
          "name": "F#2",
          "midi": 42,
          "time": 55.75,
          "velocity": 0.6299212598425197,
          "duration": 0.125
        },
        {
          "name": "B1",
          "midi": 35,
          "time": 56,
          "velocity": 0.5511811023622047,
          "duration": 0.125
        },
        {
          "name": "F#2",
          "midi": 42,
          "time": 56,
          "velocity": 0.6299212598425197,
          "duration": 0.125
        },
        {
          "name": "F#2",
          "midi": 42,
          "time": 56.25,
          "velocity": 0.6299212598425197,
          "duration": 0.125
        },
        {
          "name": "D2",
          "midi": 38,
          "time": 56.5,
          "velocity": 0.7874015748031497,
          "duration": 0.125
        },
        {
          "name": "F#2",
          "midi": 42,
          "time": 56.5,
          "velocity": 0.6299212598425197,
          "duration": 0.125
        },
        {
          "name": "B1",
          "midi": 35,
          "time": 56.75,
          "velocity": 0.6299212598425197,
          "duration": 0.125
        },
        {
          "name": "F#2",
          "midi": 42,
          "time": 56.75,
          "velocity": 0.6299212598425197,
          "duration": 0.125
        },
        {
          "name": "B1",
          "midi": 35,
          "time": 57,
          "velocity": 0.6299212598425197,
          "duration": 0.125
        },
        {
          "name": "F#2",
          "midi": 42,
          "time": 57,
          "velocity": 0.6299212598425197,
          "duration": 0.125
        },
        {
          "name": "D2",
          "midi": 38,
          "time": 57.25,
          "velocity": 0.7086614173228346,
          "duration": 0.125
        },
        {
          "name": "F#2",
          "midi": 42,
          "time": 57.25,
          "velocity": 0.6299212598425197,
          "duration": 0.125
        },
        {
          "name": "D2",
          "midi": 38,
          "time": 57.5,
          "velocity": 0.7874015748031497,
          "duration": 0.125
        },
        {
          "name": "F#2",
          "midi": 42,
          "time": 57.5,
          "velocity": 0.6299212598425197,
          "duration": 0.125
        },
        {
          "name": "B1",
          "midi": 35,
          "time": 57.75,
          "velocity": 0.6299212598425197,
          "duration": 0.125
        },
        {
          "name": "D2",
          "midi": 38,
          "time": 57.75,
          "velocity": 0.7874015748031497,
          "duration": 0.125
        },
        {
          "name": "F#2",
          "midi": 42,
          "time": 57.75,
          "velocity": 0.6299212598425197,
          "duration": 0.125
        },
        {
          "name": "A#2",
          "midi": 46,
          "time": 57.875,
          "velocity": 0.7086614173228346,
          "duration": 0.125
        },
        {
          "name": "B1",
          "midi": 35,
          "time": 58,
          "velocity": 0.5511811023622047,
          "duration": 0.125
        },
        {
          "name": "F#2",
          "midi": 42,
          "time": 58,
          "velocity": 0.6299212598425197,
          "duration": 0.125
        },
        {
          "name": "F#2",
          "midi": 42,
          "time": 58.25,
          "velocity": 0.6299212598425197,
          "duration": 0.125
        },
        {
          "name": "F#2",
          "midi": 42,
          "time": 58.5,
          "velocity": 0.6299212598425197,
          "duration": 0.125
        },
        {
          "name": "C#2",
          "midi": 37,
          "time": 58.5,
          "velocity": 0.7874015748031497,
          "duration": 0.125
        },
        {
          "name": "B1",
          "midi": 35,
          "time": 58.75,
          "velocity": 0.6299212598425197,
          "duration": 0.125
        },
        {
          "name": "F#2",
          "midi": 42,
          "time": 58.75,
          "velocity": 0.6299212598425197,
          "duration": 0.125
        },
        {
          "name": "B1",
          "midi": 35,
          "time": 59,
          "velocity": 0.6299212598425197,
          "duration": 0.125
        },
        {
          "name": "F#2",
          "midi": 42,
          "time": 59,
          "velocity": 0.6299212598425197,
          "duration": 0.125
        },
        {
          "name": "F#2",
          "midi": 42,
          "time": 59.25,
          "velocity": 0.6299212598425197,
          "duration": 0.125
        },
        {
          "name": "F#2",
          "midi": 42,
          "time": 59.5,
          "velocity": 0.6299212598425197,
          "duration": 0.125
        },
        {
          "name": "C#2",
          "midi": 37,
          "time": 59.5,
          "velocity": 0.7874015748031497,
          "duration": 0.125
        },
        {
          "name": "B1",
          "midi": 35,
          "time": 59.75,
          "velocity": 0.6299212598425197,
          "duration": 0.125
        },
        {
          "name": "F#2",
          "midi": 42,
          "time": 59.75,
          "velocity": 0.6299212598425197,
          "duration": 0.125
        },
        {
          "name": "A#2",
          "midi": 46,
          "time": 59.875,
          "velocity": 0.7086614173228346,
          "duration": 0.125
        },
        {
          "name": "B1",
          "midi": 35,
          "time": 60,
          "velocity": 0.5511811023622047,
          "duration": 0.125
        },
        {
          "name": "F#2",
          "midi": 42,
          "time": 60,
          "velocity": 0.6299212598425197,
          "duration": 0.125
        },
        {
          "name": "F#2",
          "midi": 42,
          "time": 60.25,
          "velocity": 0.6299212598425197,
          "duration": 0.125
        },
        {
          "name": "F#2",
          "midi": 42,
          "time": 60.5,
          "velocity": 0.6299212598425197,
          "duration": 0.125
        },
        {
          "name": "C#2",
          "midi": 37,
          "time": 60.5,
          "velocity": 0.7874015748031497,
          "duration": 0.125
        },
        {
          "name": "B1",
          "midi": 35,
          "time": 60.75,
          "velocity": 0.6299212598425197,
          "duration": 0.125
        },
        {
          "name": "F#2",
          "midi": 42,
          "time": 60.75,
          "velocity": 0.6299212598425197,
          "duration": 0.125
        },
        {
          "name": "B1",
          "midi": 35,
          "time": 61,
          "velocity": 0.6299212598425197,
          "duration": 0.125
        },
        {
          "name": "F#2",
          "midi": 42,
          "time": 61,
          "velocity": 0.6299212598425197,
          "duration": 0.125
        },
        {
          "name": "F#2",
          "midi": 42,
          "time": 61.25,
          "velocity": 0.6299212598425197,
          "duration": 0.125
        },
        {
          "name": "F#2",
          "midi": 42,
          "time": 61.5,
          "velocity": 0.6299212598425197,
          "duration": 0.125
        },
        {
          "name": "C#2",
          "midi": 37,
          "time": 61.5,
          "velocity": 0.7874015748031497,
          "duration": 0.125
        },
        {
          "name": "B1",
          "midi": 35,
          "time": 61.75,
          "velocity": 0.6299212598425197,
          "duration": 0.125
        },
        {
          "name": "F#2",
          "midi": 42,
          "time": 61.75,
          "velocity": 0.6299212598425197,
          "duration": 0.125
        },
        {
          "name": "A#2",
          "midi": 46,
          "time": 61.875,
          "velocity": 0.7086614173228346,
          "duration": 0.125
        },
        {
          "name": "B1",
          "midi": 35,
          "time": 62,
          "velocity": 0.5511811023622047,
          "duration": 0.125
        },
        {
          "name": "F#2",
          "midi": 42,
          "time": 62,
          "velocity": 0.6299212598425197,
          "duration": 0.125
        },
        {
          "name": "F#2",
          "midi": 42,
          "time": 62.25,
          "velocity": 0.6299212598425197,
          "duration": 0.125
        },
        {
          "name": "D2",
          "midi": 38,
          "time": 62.5,
          "velocity": 0.7874015748031497,
          "duration": 0.125
        },
        {
          "name": "F#2",
          "midi": 42,
          "time": 62.5,
          "velocity": 0.6299212598425197,
          "duration": 0.125
        },
        {
          "name": "B1",
          "midi": 35,
          "time": 62.75,
          "velocity": 0.6299212598425197,
          "duration": 0.125
        },
        {
          "name": "F#2",
          "midi": 42,
          "time": 62.75,
          "velocity": 0.6299212598425197,
          "duration": 0.125
        },
        {
          "name": "B1",
          "midi": 35,
          "time": 63,
          "velocity": 0.6299212598425197,
          "duration": 0.125
        },
        {
          "name": "F#2",
          "midi": 42,
          "time": 63,
          "velocity": 0.6299212598425197,
          "duration": 0.125
        },
        {
          "name": "F#2",
          "midi": 42,
          "time": 63.25,
          "velocity": 0.6299212598425197,
          "duration": 0.125
        },
        {
          "name": "B1",
          "midi": 35,
          "time": 63.375,
          "velocity": 0.7874015748031497,
          "duration": 0.125
        },
        {
          "name": "D2",
          "midi": 38,
          "time": 63.5,
          "velocity": 0.7874015748031497,
          "duration": 0.125
        },
        {
          "name": "F#2",
          "midi": 42,
          "time": 63.5,
          "velocity": 0.6299212598425197,
          "duration": 0.125
        },
        {
          "name": "B1",
          "midi": 35,
          "time": 63.75,
          "velocity": 0.6299212598425197,
          "duration": 0.125
        },
        {
          "name": "D2",
          "midi": 38,
          "time": 63.75,
          "velocity": 0.7086614173228346,
          "duration": 0.125
        },
        {
          "name": "F#2",
          "midi": 42,
          "time": 63.75,
          "velocity": 0.6299212598425197,
          "duration": 0.125
        },
        {
          "name": "D2",
          "midi": 38,
          "time": 63.875,
          "velocity": 0.7086614173228346,
          "duration": 0.125
        },
        {
          "name": "A#2",
          "midi": 46,
          "time": 63.875,
          "velocity": 0.7086614173228346,
          "duration": 0.125
        },
        {
          "name": "B1",
          "midi": 35,
          "time": 64,
          "velocity": 0.5511811023622047,
          "duration": 0.125
        },
        {
          "name": "F#2",
          "midi": 42,
          "time": 64,
          "velocity": 0.6299212598425197,
          "duration": 0.125
        },
        {
          "name": "F#2",
          "midi": 42,
          "time": 64.25,
          "velocity": 0.6299212598425197,
          "duration": 0.125
        },
        {
          "name": "D2",
          "midi": 38,
          "time": 64.5,
          "velocity": 0.7874015748031497,
          "duration": 0.125
        },
        {
          "name": "F#2",
          "midi": 42,
          "time": 64.5,
          "velocity": 0.6299212598425197,
          "duration": 0.125
        },
        {
          "name": "B1",
          "midi": 35,
          "time": 64.75,
          "velocity": 0.6299212598425197,
          "duration": 0.125
        },
        {
          "name": "F#2",
          "midi": 42,
          "time": 64.75,
          "velocity": 0.6299212598425197,
          "duration": 0.125
        },
        {
          "name": "B1",
          "midi": 35,
          "time": 65,
          "velocity": 0.6299212598425197,
          "duration": 0.125
        },
        {
          "name": "F#2",
          "midi": 42,
          "time": 65,
          "velocity": 0.6299212598425197,
          "duration": 0.125
        },
        {
          "name": "F#2",
          "midi": 42,
          "time": 65.25,
          "velocity": 0.6299212598425197,
          "duration": 0.125
        },
        {
          "name": "D2",
          "midi": 38,
          "time": 65.5,
          "velocity": 0.7874015748031497,
          "duration": 0.125
        },
        {
          "name": "F#2",
          "midi": 42,
          "time": 65.5,
          "velocity": 0.6299212598425197,
          "duration": 0.125
        },
        {
          "name": "D2",
          "midi": 38,
          "time": 65.625,
          "velocity": 0.905511811023622,
          "duration": 0.125
        },
        {
          "name": "F#2",
          "midi": 42,
          "time": 65.625,
          "velocity": 0.7874015748031497,
          "duration": 0.125
        },
        {
          "name": "B1",
          "midi": 35,
          "time": 65.75,
          "velocity": 0.6299212598425197,
          "duration": 0.125
        },
        {
          "name": "D2",
          "midi": 38,
          "time": 65.75,
          "velocity": 1,
          "duration": 0.125
        },
        {
          "name": "A#2",
          "midi": 46,
          "time": 65.75,
          "velocity": 0.7874015748031497,
          "duration": 0.125
        },
        {
          "name": "D2",
          "midi": 38,
          "time": 65.875,
          "velocity": 0.905511811023622,
          "duration": 0.125
        },
        {
          "name": "F#2",
          "midi": 42,
          "time": 65.875,
          "velocity": 0.7874015748031497,
          "duration": 0.125
        },
        {
          "name": "B1",
          "midi": 35,
          "time": 66,
          "velocity": 0.5511811023622047,
          "duration": 0.125
        },
        {
          "name": "F#2",
          "midi": 42,
          "time": 66,
          "velocity": 0.6299212598425197,
          "duration": 0.125
        },
        {
          "name": "F#2",
          "midi": 42,
          "time": 66.25,
          "velocity": 0.6299212598425197,
          "duration": 0.125
        },
        {
          "name": "F#2",
          "midi": 42,
          "time": 66.5,
          "velocity": 0.6299212598425197,
          "duration": 0.125
        },
        {
          "name": "C#2",
          "midi": 37,
          "time": 66.5,
          "velocity": 0.7874015748031497,
          "duration": 0.125
        },
        {
          "name": "B1",
          "midi": 35,
          "time": 66.75,
          "velocity": 0.6299212598425197,
          "duration": 0.125
        },
        {
          "name": "F#2",
          "midi": 42,
          "time": 66.75,
          "velocity": 0.6299212598425197,
          "duration": 0.125
        },
        {
          "name": "B1",
          "midi": 35,
          "time": 67,
          "velocity": 0.6299212598425197,
          "duration": 0.125
        },
        {
          "name": "F#2",
          "midi": 42,
          "time": 67,
          "velocity": 0.6299212598425197,
          "duration": 0.125
        },
        {
          "name": "F#2",
          "midi": 42,
          "time": 67.25,
          "velocity": 0.6299212598425197,
          "duration": 0.125
        },
        {
          "name": "F#2",
          "midi": 42,
          "time": 67.5,
          "velocity": 0.6299212598425197,
          "duration": 0.125
        },
        {
          "name": "C#2",
          "midi": 37,
          "time": 67.5,
          "velocity": 0.7874015748031497,
          "duration": 0.125
        },
        {
          "name": "B1",
          "midi": 35,
          "time": 67.75,
          "velocity": 0.6299212598425197,
          "duration": 0.125
        },
        {
          "name": "F#2",
          "midi": 42,
          "time": 67.75,
          "velocity": 0.6299212598425197,
          "duration": 0.125
        },
        {
          "name": "A#2",
          "midi": 46,
          "time": 67.875,
          "velocity": 0.7086614173228346,
          "duration": 0.125
        },
        {
          "name": "B1",
          "midi": 35,
          "time": 68,
          "velocity": 0.5511811023622047,
          "duration": 0.125
        },
        {
          "name": "F#2",
          "midi": 42,
          "time": 68,
          "velocity": 0.6299212598425197,
          "duration": 0.125
        },
        {
          "name": "F#2",
          "midi": 42,
          "time": 68.25,
          "velocity": 0.6299212598425197,
          "duration": 0.125
        },
        {
          "name": "F#2",
          "midi": 42,
          "time": 68.5,
          "velocity": 0.6299212598425197,
          "duration": 0.125
        },
        {
          "name": "C#2",
          "midi": 37,
          "time": 68.5,
          "velocity": 0.7874015748031497,
          "duration": 0.125
        },
        {
          "name": "B1",
          "midi": 35,
          "time": 68.75,
          "velocity": 0.6299212598425197,
          "duration": 0.125
        },
        {
          "name": "F#2",
          "midi": 42,
          "time": 68.75,
          "velocity": 0.6299212598425197,
          "duration": 0.125
        },
        {
          "name": "B1",
          "midi": 35,
          "time": 69,
          "velocity": 0.6299212598425197,
          "duration": 0.125
        },
        {
          "name": "F#2",
          "midi": 42,
          "time": 69,
          "velocity": 0.6299212598425197,
          "duration": 0.125
        },
        {
          "name": "F#2",
          "midi": 42,
          "time": 69.25,
          "velocity": 0.6299212598425197,
          "duration": 0.125
        },
        {
          "name": "F#2",
          "midi": 42,
          "time": 69.5,
          "velocity": 0.6299212598425197,
          "duration": 0.125
        },
        {
          "name": "C#2",
          "midi": 37,
          "time": 69.5,
          "velocity": 0.7874015748031497,
          "duration": 0.125
        },
        {
          "name": "B1",
          "midi": 35,
          "time": 69.75,
          "velocity": 0.6299212598425197,
          "duration": 0.125
        },
        {
          "name": "F#2",
          "midi": 42,
          "time": 69.75,
          "velocity": 0.6299212598425197,
          "duration": 0.125
        },
        {
          "name": "B1",
          "midi": 35,
          "time": 70,
          "velocity": 0.5511811023622047,
          "duration": 0.125
        },
        {
          "name": "F#2",
          "midi": 42,
          "time": 70,
          "velocity": 0.6299212598425197,
          "duration": 0.125
        },
        {
          "name": "F#2",
          "midi": 42,
          "time": 70.25,
          "velocity": 0.6299212598425197,
          "duration": 0.125
        },
        {
          "name": "F#2",
          "midi": 42,
          "time": 70.5,
          "velocity": 0.6299212598425197,
          "duration": 0.125
        },
        {
          "name": "C#2",
          "midi": 37,
          "time": 70.5,
          "velocity": 0.7874015748031497,
          "duration": 0.125
        },
        {
          "name": "B1",
          "midi": 35,
          "time": 70.75,
          "velocity": 0.6299212598425197,
          "duration": 0.125
        },
        {
          "name": "F#2",
          "midi": 42,
          "time": 70.75,
          "velocity": 0.6299212598425197,
          "duration": 0.125
        },
        {
          "name": "B1",
          "midi": 35,
          "time": 71,
          "velocity": 0.6299212598425197,
          "duration": 0.125
        },
        {
          "name": "F#2",
          "midi": 42,
          "time": 71,
          "velocity": 0.6299212598425197,
          "duration": 0.125
        },
        {
          "name": "F#2",
          "midi": 42,
          "time": 71.25,
          "velocity": 0.6299212598425197,
          "duration": 0.125
        },
        {
          "name": "F#2",
          "midi": 42,
          "time": 71.5,
          "velocity": 0.6299212598425197,
          "duration": 0.125
        },
        {
          "name": "C#2",
          "midi": 37,
          "time": 71.5,
          "velocity": 0.7874015748031497,
          "duration": 0.125
        },
        {
          "name": "B1",
          "midi": 35,
          "time": 71.75,
          "velocity": 0.6299212598425197,
          "duration": 0.125
        },
        {
          "name": "F#2",
          "midi": 42,
          "time": 71.75,
          "velocity": 0.6299212598425197,
          "duration": 0.125
        },
        {
          "name": "B1",
          "midi": 35,
          "time": 72,
          "velocity": 0.5511811023622047,
          "duration": 0.125
        },
        {
          "name": "F#2",
          "midi": 42,
          "time": 72,
          "velocity": 0.6299212598425197,
          "duration": 0.125
        },
        {
          "name": "F#2",
          "midi": 42,
          "time": 72.25,
          "velocity": 0.6299212598425197,
          "duration": 0.125
        },
        {
          "name": "F#2",
          "midi": 42,
          "time": 72.5,
          "velocity": 0.6299212598425197,
          "duration": 0.125
        },
        {
          "name": "C#2",
          "midi": 37,
          "time": 72.5,
          "velocity": 0.7874015748031497,
          "duration": 0.125
        },
        {
          "name": "B1",
          "midi": 35,
          "time": 72.75,
          "velocity": 0.6299212598425197,
          "duration": 0.125
        },
        {
          "name": "F#2",
          "midi": 42,
          "time": 72.75,
          "velocity": 0.6299212598425197,
          "duration": 0.125
        },
        {
          "name": "B1",
          "midi": 35,
          "time": 73,
          "velocity": 0.6299212598425197,
          "duration": 0.125
        },
        {
          "name": "F#2",
          "midi": 42,
          "time": 73,
          "velocity": 0.6299212598425197,
          "duration": 0.125
        },
        {
          "name": "F#2",
          "midi": 42,
          "time": 73.25,
          "velocity": 0.6299212598425197,
          "duration": 0.125
        },
        {
          "name": "F#2",
          "midi": 42,
          "time": 73.5,
          "velocity": 0.6299212598425197,
          "duration": 0.125
        },
        {
          "name": "C#2",
          "midi": 37,
          "time": 73.5,
          "velocity": 0.7874015748031497,
          "duration": 0.125
        },
        {
          "name": "B1",
          "midi": 35,
          "time": 73.75,
          "velocity": 0.6299212598425197,
          "duration": 0.125
        },
        {
          "name": "F#2",
          "midi": 42,
          "time": 73.75,
          "velocity": 0.6299212598425197,
          "duration": 0.125
        },
        {
          "name": "B1",
          "midi": 35,
          "time": 74,
          "velocity": 0.5511811023622047,
          "duration": 0.125
        },
        {
          "name": "F#2",
          "midi": 42,
          "time": 74,
          "velocity": 0.6299212598425197,
          "duration": 0.125
        },
        {
          "name": "F#2",
          "midi": 42,
          "time": 74.25,
          "velocity": 0.6299212598425197,
          "duration": 0.125
        },
        {
          "name": "F#2",
          "midi": 42,
          "time": 74.5,
          "velocity": 0.6299212598425197,
          "duration": 0.125
        },
        {
          "name": "C#2",
          "midi": 37,
          "time": 74.5,
          "velocity": 0.7874015748031497,
          "duration": 0.125
        },
        {
          "name": "B1",
          "midi": 35,
          "time": 74.75,
          "velocity": 0.6299212598425197,
          "duration": 0.125
        },
        {
          "name": "F#2",
          "midi": 42,
          "time": 74.75,
          "velocity": 0.6299212598425197,
          "duration": 0.125
        },
        {
          "name": "B1",
          "midi": 35,
          "time": 75,
          "velocity": 0.6299212598425197,
          "duration": 0.125
        },
        {
          "name": "F#2",
          "midi": 42,
          "time": 75,
          "velocity": 0.6299212598425197,
          "duration": 0.125
        },
        {
          "name": "F#2",
          "midi": 42,
          "time": 75.25,
          "velocity": 0.6299212598425197,
          "duration": 0.125
        },
        {
          "name": "F#2",
          "midi": 42,
          "time": 75.5,
          "velocity": 0.6299212598425197,
          "duration": 0.125
        },
        {
          "name": "C#2",
          "midi": 37,
          "time": 75.5,
          "velocity": 0.7874015748031497,
          "duration": 0.125
        },
        {
          "name": "B1",
          "midi": 35,
          "time": 75.75,
          "velocity": 0.6299212598425197,
          "duration": 0.125
        },
        {
          "name": "F#2",
          "midi": 42,
          "time": 75.75,
          "velocity": 0.6299212598425197,
          "duration": 0.125
        },
        {
          "name": "A#2",
          "midi": 46,
          "time": 75.875,
          "velocity": 0.7086614173228346,
          "duration": 0.125
        },
        {
          "name": "B1",
          "midi": 35,
          "time": 76,
          "velocity": 0.5511811023622047,
          "duration": 0.125
        },
        {
          "name": "F#2",
          "midi": 42,
          "time": 76,
          "velocity": 0.6299212598425197,
          "duration": 0.125
        },
        {
          "name": "F#2",
          "midi": 42,
          "time": 76.25,
          "velocity": 0.6299212598425197,
          "duration": 0.125
        },
        {
          "name": "F#2",
          "midi": 42,
          "time": 76.5,
          "velocity": 0.6299212598425197,
          "duration": 0.125
        },
        {
          "name": "C#2",
          "midi": 37,
          "time": 76.5,
          "velocity": 0.7874015748031497,
          "duration": 0.125
        },
        {
          "name": "B1",
          "midi": 35,
          "time": 76.75,
          "velocity": 0.6299212598425197,
          "duration": 0.125
        },
        {
          "name": "F#2",
          "midi": 42,
          "time": 76.75,
          "velocity": 0.6299212598425197,
          "duration": 0.125
        },
        {
          "name": "B1",
          "midi": 35,
          "time": 77,
          "velocity": 0.6299212598425197,
          "duration": 0.125
        },
        {
          "name": "F#2",
          "midi": 42,
          "time": 77,
          "velocity": 0.6299212598425197,
          "duration": 0.125
        },
        {
          "name": "F#2",
          "midi": 42,
          "time": 77.25,
          "velocity": 0.6299212598425197,
          "duration": 0.125
        },
        {
          "name": "F#2",
          "midi": 42,
          "time": 77.5,
          "velocity": 0.6299212598425197,
          "duration": 0.125
        },
        {
          "name": "C#2",
          "midi": 37,
          "time": 77.5,
          "velocity": 0.7874015748031497,
          "duration": 0.125
        },
        {
          "name": "B1",
          "midi": 35,
          "time": 77.75,
          "velocity": 0.6299212598425197,
          "duration": 0.125
        },
        {
          "name": "F#2",
          "midi": 42,
          "time": 77.75,
          "velocity": 0.6299212598425197,
          "duration": 0.125
        },
        {
          "name": "B1",
          "midi": 35,
          "time": 78,
          "velocity": 0.5511811023622047,
          "duration": 0.125
        },
        {
          "name": "F#2",
          "midi": 42,
          "time": 78,
          "velocity": 0.6299212598425197,
          "duration": 0.125
        },
        {
          "name": "F#2",
          "midi": 42,
          "time": 78.25,
          "velocity": 0.6299212598425197,
          "duration": 0.125
        },
        {
          "name": "F#2",
          "midi": 42,
          "time": 78.5,
          "velocity": 0.6299212598425197,
          "duration": 0.125
        },
        {
          "name": "C#2",
          "midi": 37,
          "time": 78.5,
          "velocity": 0.7874015748031497,
          "duration": 0.125
        },
        {
          "name": "B1",
          "midi": 35,
          "time": 78.75,
          "velocity": 0.6299212598425197,
          "duration": 0.125
        },
        {
          "name": "F#2",
          "midi": 42,
          "time": 78.75,
          "velocity": 0.6299212598425197,
          "duration": 0.125
        },
        {
          "name": "B1",
          "midi": 35,
          "time": 79,
          "velocity": 0.6299212598425197,
          "duration": 0.125
        },
        {
          "name": "F#2",
          "midi": 42,
          "time": 79,
          "velocity": 0.6299212598425197,
          "duration": 0.125
        },
        {
          "name": "F#2",
          "midi": 42,
          "time": 79.25,
          "velocity": 0.6299212598425197,
          "duration": 0.125
        },
        {
          "name": "F#2",
          "midi": 42,
          "time": 79.5,
          "velocity": 0.6299212598425197,
          "duration": 0.125
        },
        {
          "name": "C#2",
          "midi": 37,
          "time": 79.5,
          "velocity": 0.7874015748031497,
          "duration": 0.125
        },
        {
          "name": "B1",
          "midi": 35,
          "time": 79.75,
          "velocity": 0.6299212598425197,
          "duration": 0.125
        },
        {
          "name": "F#2",
          "midi": 42,
          "time": 79.75,
          "velocity": 0.6299212598425197,
          "duration": 0.125
        },
        {
          "name": "B1",
          "midi": 35,
          "time": 80,
          "velocity": 0.5511811023622047,
          "duration": 0.125
        },
        {
          "name": "F#2",
          "midi": 42,
          "time": 80,
          "velocity": 0.6299212598425197,
          "duration": 0.125
        },
        {
          "name": "F#2",
          "midi": 42,
          "time": 80.25,
          "velocity": 0.6299212598425197,
          "duration": 0.125
        },
        {
          "name": "F#2",
          "midi": 42,
          "time": 80.5,
          "velocity": 0.6299212598425197,
          "duration": 0.125
        },
        {
          "name": "C#2",
          "midi": 37,
          "time": 80.5,
          "velocity": 0.7874015748031497,
          "duration": 0.125
        },
        {
          "name": "B1",
          "midi": 35,
          "time": 80.75,
          "velocity": 0.6299212598425197,
          "duration": 0.125
        },
        {
          "name": "F#2",
          "midi": 42,
          "time": 80.75,
          "velocity": 0.6299212598425197,
          "duration": 0.125
        },
        {
          "name": "B1",
          "midi": 35,
          "time": 81,
          "velocity": 0.6299212598425197,
          "duration": 0.125
        },
        {
          "name": "F#2",
          "midi": 42,
          "time": 81,
          "velocity": 0.6299212598425197,
          "duration": 0.125
        },
        {
          "name": "F#2",
          "midi": 42,
          "time": 81.25,
          "velocity": 0.6299212598425197,
          "duration": 0.125
        },
        {
          "name": "F#2",
          "midi": 42,
          "time": 81.5,
          "velocity": 0.6299212598425197,
          "duration": 0.125
        },
        {
          "name": "C#2",
          "midi": 37,
          "time": 81.5,
          "velocity": 0.7874015748031497,
          "duration": 0.125
        },
        {
          "name": "B1",
          "midi": 35,
          "time": 81.75,
          "velocity": 0.6299212598425197,
          "duration": 0.125
        },
        {
          "name": "F#2",
          "midi": 42,
          "time": 81.75,
          "velocity": 0.6299212598425197,
          "duration": 0.125
        },
        {
          "name": "B1",
          "midi": 35,
          "time": 82,
          "velocity": 0.5511811023622047,
          "duration": 0.125
        },
        {
          "name": "F#2",
          "midi": 42,
          "time": 82,
          "velocity": 0.6299212598425197,
          "duration": 0.125
        },
        {
          "name": "F#2",
          "midi": 42,
          "time": 82.25,
          "velocity": 0.6299212598425197,
          "duration": 0.125
        },
        {
          "name": "F#2",
          "midi": 42,
          "time": 82.5,
          "velocity": 0.6299212598425197,
          "duration": 0.125
        },
        {
          "name": "C#2",
          "midi": 37,
          "time": 82.5,
          "velocity": 0.7874015748031497,
          "duration": 0.125
        },
        {
          "name": "B1",
          "midi": 35,
          "time": 82.75,
          "velocity": 0.6299212598425197,
          "duration": 0.125
        },
        {
          "name": "F#2",
          "midi": 42,
          "time": 82.75,
          "velocity": 0.6299212598425197,
          "duration": 0.125
        },
        {
          "name": "B1",
          "midi": 35,
          "time": 83,
          "velocity": 0.6299212598425197,
          "duration": 0.125
        },
        {
          "name": "F#2",
          "midi": 42,
          "time": 83,
          "velocity": 0.6299212598425197,
          "duration": 0.125
        },
        {
          "name": "F#2",
          "midi": 42,
          "time": 83.25,
          "velocity": 0.6299212598425197,
          "duration": 0.125
        },
        {
          "name": "F#2",
          "midi": 42,
          "time": 83.5,
          "velocity": 0.6299212598425197,
          "duration": 0.125
        },
        {
          "name": "C#2",
          "midi": 37,
          "time": 83.5,
          "velocity": 0.7874015748031497,
          "duration": 0.125
        },
        {
          "name": "B1",
          "midi": 35,
          "time": 83.75,
          "velocity": 0.6299212598425197,
          "duration": 0.125
        },
        {
          "name": "F#2",
          "midi": 42,
          "time": 83.75,
          "velocity": 0.6299212598425197,
          "duration": 0.125
        },
        {
          "name": "A#2",
          "midi": 46,
          "time": 83.875,
          "velocity": 0.7086614173228346,
          "duration": 0.125
        },
        {
          "name": "B1",
          "midi": 35,
          "time": 84,
          "velocity": 0.5511811023622047,
          "duration": 0.125
        },
        {
          "name": "F#2",
          "midi": 42,
          "time": 84,
          "velocity": 0.6299212598425197,
          "duration": 0.125
        },
        {
          "name": "F#2",
          "midi": 42,
          "time": 84.25,
          "velocity": 0.6299212598425197,
          "duration": 0.125
        },
        {
          "name": "F#2",
          "midi": 42,
          "time": 84.5,
          "velocity": 0.6299212598425197,
          "duration": 0.125
        },
        {
          "name": "C#2",
          "midi": 37,
          "time": 84.5,
          "velocity": 0.7874015748031497,
          "duration": 0.125
        },
        {
          "name": "B1",
          "midi": 35,
          "time": 84.75,
          "velocity": 0.6299212598425197,
          "duration": 0.125
        },
        {
          "name": "F#2",
          "midi": 42,
          "time": 84.75,
          "velocity": 0.6299212598425197,
          "duration": 0.125
        },
        {
          "name": "B1",
          "midi": 35,
          "time": 85,
          "velocity": 0.6299212598425197,
          "duration": 0.125
        },
        {
          "name": "F#2",
          "midi": 42,
          "time": 85,
          "velocity": 0.6299212598425197,
          "duration": 0.125
        },
        {
          "name": "F#2",
          "midi": 42,
          "time": 85.25,
          "velocity": 0.6299212598425197,
          "duration": 0.125
        },
        {
          "name": "F#2",
          "midi": 42,
          "time": 85.5,
          "velocity": 0.6299212598425197,
          "duration": 0.125
        },
        {
          "name": "C#2",
          "midi": 37,
          "time": 85.5,
          "velocity": 0.7874015748031497,
          "duration": 0.125
        },
        {
          "name": "B1",
          "midi": 35,
          "time": 85.75,
          "velocity": 0.6299212598425197,
          "duration": 0.125
        },
        {
          "name": "F#2",
          "midi": 42,
          "time": 85.75,
          "velocity": 0.6299212598425197,
          "duration": 0.125
        },
        {
          "name": "A#2",
          "midi": 46,
          "time": 85.875,
          "velocity": 0.7086614173228346,
          "duration": 0.125
        },
        {
          "name": "B1",
          "midi": 35,
          "time": 86,
          "velocity": 0.5511811023622047,
          "duration": 0.125
        },
        {
          "name": "F#2",
          "midi": 42,
          "time": 86,
          "velocity": 0.6299212598425197,
          "duration": 0.125
        },
        {
          "name": "F#2",
          "midi": 42,
          "time": 86.25,
          "velocity": 0.6299212598425197,
          "duration": 0.125
        },
        {
          "name": "F#2",
          "midi": 42,
          "time": 86.5,
          "velocity": 0.6299212598425197,
          "duration": 0.125
        },
        {
          "name": "C#2",
          "midi": 37,
          "time": 86.5,
          "velocity": 0.7874015748031497,
          "duration": 0.125
        },
        {
          "name": "B1",
          "midi": 35,
          "time": 86.75,
          "velocity": 0.6299212598425197,
          "duration": 0.125
        },
        {
          "name": "F#2",
          "midi": 42,
          "time": 86.75,
          "velocity": 0.6299212598425197,
          "duration": 0.125
        },
        {
          "name": "B1",
          "midi": 35,
          "time": 87,
          "velocity": 0.6299212598425197,
          "duration": 0.125
        },
        {
          "name": "F#2",
          "midi": 42,
          "time": 87,
          "velocity": 0.6299212598425197,
          "duration": 0.125
        },
        {
          "name": "F#2",
          "midi": 42,
          "time": 87.25,
          "velocity": 0.6299212598425197,
          "duration": 0.125
        },
        {
          "name": "F#2",
          "midi": 42,
          "time": 87.5,
          "velocity": 0.6299212598425197,
          "duration": 0.125
        },
        {
          "name": "C#2",
          "midi": 37,
          "time": 87.5,
          "velocity": 0.7874015748031497,
          "duration": 0.125
        },
        {
          "name": "B1",
          "midi": 35,
          "time": 87.75,
          "velocity": 0.6299212598425197,
          "duration": 0.125
        },
        {
          "name": "F#2",
          "midi": 42,
          "time": 87.75,
          "velocity": 0.6299212598425197,
          "duration": 0.125
        },
        {
          "name": "A#2",
          "midi": 46,
          "time": 87.875,
          "velocity": 0.7086614173228346,
          "duration": 0.125
        },
        {
          "name": "B1",
          "midi": 35,
          "time": 88,
          "velocity": 0.5511811023622047,
          "duration": 0.125
        },
        {
          "name": "F#2",
          "midi": 42,
          "time": 88,
          "velocity": 0.6299212598425197,
          "duration": 0.125
        },
        {
          "name": "F#2",
          "midi": 42,
          "time": 88.25,
          "velocity": 0.6299212598425197,
          "duration": 0.125
        },
        {
          "name": "F#2",
          "midi": 42,
          "time": 88.5,
          "velocity": 0.6299212598425197,
          "duration": 0.125
        },
        {
          "name": "C#2",
          "midi": 37,
          "time": 88.5,
          "velocity": 0.7874015748031497,
          "duration": 0.125
        },
        {
          "name": "B1",
          "midi": 35,
          "time": 88.75,
          "velocity": 0.6299212598425197,
          "duration": 0.125
        },
        {
          "name": "F#2",
          "midi": 42,
          "time": 88.75,
          "velocity": 0.6299212598425197,
          "duration": 0.125
        },
        {
          "name": "B1",
          "midi": 35,
          "time": 89,
          "velocity": 0.6299212598425197,
          "duration": 0.125
        },
        {
          "name": "F#2",
          "midi": 42,
          "time": 89,
          "velocity": 0.6299212598425197,
          "duration": 0.125
        },
        {
          "name": "F#2",
          "midi": 42,
          "time": 89.25,
          "velocity": 0.6299212598425197,
          "duration": 0.125
        },
        {
          "name": "F#2",
          "midi": 42,
          "time": 89.5,
          "velocity": 0.6299212598425197,
          "duration": 0.125
        },
        {
          "name": "C#2",
          "midi": 37,
          "time": 89.5,
          "velocity": 0.7874015748031497,
          "duration": 0.125
        },
        {
          "name": "B1",
          "midi": 35,
          "time": 89.75,
          "velocity": 0.6299212598425197,
          "duration": 0.125
        },
        {
          "name": "F#2",
          "midi": 42,
          "time": 89.75,
          "velocity": 0.6299212598425197,
          "duration": 0.125
        },
        {
          "name": "B1",
          "midi": 35,
          "time": 90,
          "velocity": 0.5511811023622047,
          "duration": 0.125
        },
        {
          "name": "F#2",
          "midi": 42,
          "time": 90,
          "velocity": 0.6299212598425197,
          "duration": 0.125
        },
        {
          "name": "F#2",
          "midi": 42,
          "time": 90.25,
          "velocity": 0.6299212598425197,
          "duration": 0.125
        },
        {
          "name": "F#2",
          "midi": 42,
          "time": 90.5,
          "velocity": 0.6299212598425197,
          "duration": 0.125
        },
        {
          "name": "C#2",
          "midi": 37,
          "time": 90.5,
          "velocity": 0.7874015748031497,
          "duration": 0.125
        },
        {
          "name": "B1",
          "midi": 35,
          "time": 90.75,
          "velocity": 0.6299212598425197,
          "duration": 0.125
        },
        {
          "name": "F#2",
          "midi": 42,
          "time": 90.75,
          "velocity": 0.6299212598425197,
          "duration": 0.125
        },
        {
          "name": "B1",
          "midi": 35,
          "time": 91,
          "velocity": 0.6299212598425197,
          "duration": 0.125
        },
        {
          "name": "F#2",
          "midi": 42,
          "time": 91,
          "velocity": 0.6299212598425197,
          "duration": 0.125
        },
        {
          "name": "F#2",
          "midi": 42,
          "time": 91.25,
          "velocity": 0.6299212598425197,
          "duration": 0.125
        },
        {
          "name": "F#2",
          "midi": 42,
          "time": 91.5,
          "velocity": 0.6299212598425197,
          "duration": 0.125
        },
        {
          "name": "C#2",
          "midi": 37,
          "time": 91.5,
          "velocity": 0.7874015748031497,
          "duration": 0.125
        },
        {
          "name": "B1",
          "midi": 35,
          "time": 91.75,
          "velocity": 0.6299212598425197,
          "duration": 0.125
        },
        {
          "name": "F#2",
          "midi": 42,
          "time": 91.75,
          "velocity": 0.6299212598425197,
          "duration": 0.125
        },
        {
          "name": "B1",
          "midi": 35,
          "time": 92,
          "velocity": 0.5511811023622047,
          "duration": 0.125
        },
        {
          "name": "F#2",
          "midi": 42,
          "time": 92,
          "velocity": 0.6299212598425197,
          "duration": 0.125
        },
        {
          "name": "F#2",
          "midi": 42,
          "time": 92.25,
          "velocity": 0.6299212598425197,
          "duration": 0.125
        },
        {
          "name": "F#2",
          "midi": 42,
          "time": 92.5,
          "velocity": 0.6299212598425197,
          "duration": 0.125
        },
        {
          "name": "C#2",
          "midi": 37,
          "time": 92.5,
          "velocity": 0.7874015748031497,
          "duration": 0.125
        },
        {
          "name": "B1",
          "midi": 35,
          "time": 92.75,
          "velocity": 0.6299212598425197,
          "duration": 0.125
        },
        {
          "name": "F#2",
          "midi": 42,
          "time": 92.75,
          "velocity": 0.6299212598425197,
          "duration": 0.125
        },
        {
          "name": "B1",
          "midi": 35,
          "time": 93,
          "velocity": 0.6299212598425197,
          "duration": 0.125
        },
        {
          "name": "F#2",
          "midi": 42,
          "time": 93,
          "velocity": 0.6299212598425197,
          "duration": 0.125
        },
        {
          "name": "F#2",
          "midi": 42,
          "time": 93.25,
          "velocity": 0.6299212598425197,
          "duration": 0.125
        },
        {
          "name": "F#2",
          "midi": 42,
          "time": 93.5,
          "velocity": 0.6299212598425197,
          "duration": 0.125
        },
        {
          "name": "C#2",
          "midi": 37,
          "time": 93.5,
          "velocity": 0.7874015748031497,
          "duration": 0.125
        },
        {
          "name": "B1",
          "midi": 35,
          "time": 93.75,
          "velocity": 0.6299212598425197,
          "duration": 0.125
        },
        {
          "name": "F#2",
          "midi": 42,
          "time": 93.75,
          "velocity": 0.6299212598425197,
          "duration": 0.125
        },
        {
          "name": "A#2",
          "midi": 46,
          "time": 93.875,
          "velocity": 0.7086614173228346,
          "duration": 0.125
        },
        {
          "name": "B1",
          "midi": 35,
          "time": 94,
          "velocity": 0.5511811023622047,
          "duration": 0.125
        },
        {
          "name": "F#2",
          "midi": 42,
          "time": 94,
          "velocity": 0.6299212598425197,
          "duration": 0.125
        },
        {
          "name": "F#2",
          "midi": 42,
          "time": 94.25,
          "velocity": 0.6299212598425197,
          "duration": 0.125
        },
        {
          "name": "F#2",
          "midi": 42,
          "time": 94.5,
          "velocity": 0.6299212598425197,
          "duration": 0.125
        },
        {
          "name": "C#2",
          "midi": 37,
          "time": 94.5,
          "velocity": 0.7874015748031497,
          "duration": 0.125
        },
        {
          "name": "B1",
          "midi": 35,
          "time": 94.75,
          "velocity": 0.6299212598425197,
          "duration": 0.125
        },
        {
          "name": "F#2",
          "midi": 42,
          "time": 94.75,
          "velocity": 0.6299212598425197,
          "duration": 0.125
        },
        {
          "name": "B1",
          "midi": 35,
          "time": 95,
          "velocity": 0.6299212598425197,
          "duration": 0.125
        },
        {
          "name": "F#2",
          "midi": 42,
          "time": 95,
          "velocity": 0.6299212598425197,
          "duration": 0.125
        },
        {
          "name": "F#2",
          "midi": 42,
          "time": 95.25,
          "velocity": 0.6299212598425197,
          "duration": 0.125
        },
        {
          "name": "F#2",
          "midi": 42,
          "time": 95.5,
          "velocity": 0.6299212598425197,
          "duration": 0.125
        },
        {
          "name": "C#2",
          "midi": 37,
          "time": 95.5,
          "velocity": 0.7874015748031497,
          "duration": 0.125
        },
        {
          "name": "B1",
          "midi": 35,
          "time": 95.75,
          "velocity": 0.6299212598425197,
          "duration": 0.125
        },
        {
          "name": "F#2",
          "midi": 42,
          "time": 95.75,
          "velocity": 0.6299212598425197,
          "duration": 0.125
        },
        {
          "name": "A#2",
          "midi": 46,
          "time": 95.875,
          "velocity": 0.7086614173228346,
          "duration": 0.125
        },
        {
          "name": "B1",
          "midi": 35,
          "time": 96,
          "velocity": 0.5511811023622047,
          "duration": 0.125
        },
        {
          "name": "F#2",
          "midi": 42,
          "time": 96,
          "velocity": 0.6299212598425197,
          "duration": 0.125
        },
        {
          "name": "F#2",
          "midi": 42,
          "time": 96.25,
          "velocity": 0.6299212598425197,
          "duration": 0.125
        },
        {
          "name": "F#2",
          "midi": 42,
          "time": 96.5,
          "velocity": 0.6299212598425197,
          "duration": 0.125
        },
        {
          "name": "C#2",
          "midi": 37,
          "time": 96.5,
          "velocity": 0.7874015748031497,
          "duration": 0.125
        },
        {
          "name": "B1",
          "midi": 35,
          "time": 96.75,
          "velocity": 0.6299212598425197,
          "duration": 0.125
        },
        {
          "name": "F#2",
          "midi": 42,
          "time": 96.75,
          "velocity": 0.6299212598425197,
          "duration": 0.125
        },
        {
          "name": "B1",
          "midi": 35,
          "time": 97,
          "velocity": 0.6299212598425197,
          "duration": 0.125
        },
        {
          "name": "F#2",
          "midi": 42,
          "time": 97,
          "velocity": 0.6299212598425197,
          "duration": 0.125
        },
        {
          "name": "F#2",
          "midi": 42,
          "time": 97.25,
          "velocity": 0.6299212598425197,
          "duration": 0.125
        },
        {
          "name": "F#2",
          "midi": 42,
          "time": 97.5,
          "velocity": 0.6299212598425197,
          "duration": 0.125
        },
        {
          "name": "C#2",
          "midi": 37,
          "time": 97.5,
          "velocity": 0.7874015748031497,
          "duration": 0.125
        },
        {
          "name": "B1",
          "midi": 35,
          "time": 97.75,
          "velocity": 0.6299212598425197,
          "duration": 0.125
        },
        {
          "name": "F#2",
          "midi": 42,
          "time": 97.75,
          "velocity": 0.6299212598425197,
          "duration": 0.125
        },
        {
          "name": "A#2",
          "midi": 46,
          "time": 97.875,
          "velocity": 0.7086614173228346,
          "duration": 0.125
        },
        {
          "name": "B1",
          "midi": 35,
          "time": 98,
          "velocity": 0.5511811023622047,
          "duration": 0.125
        },
        {
          "name": "F#2",
          "midi": 42,
          "time": 98,
          "velocity": 0.6299212598425197,
          "duration": 0.125
        },
        {
          "name": "F#2",
          "midi": 42,
          "time": 98.25,
          "velocity": 0.6299212598425197,
          "duration": 0.125
        },
        {
          "name": "F#2",
          "midi": 42,
          "time": 98.5,
          "velocity": 0.6299212598425197,
          "duration": 0.125
        },
        {
          "name": "C#2",
          "midi": 37,
          "time": 98.5,
          "velocity": 0.7874015748031497,
          "duration": 0.125
        },
        {
          "name": "B1",
          "midi": 35,
          "time": 98.75,
          "velocity": 0.6299212598425197,
          "duration": 0.125
        },
        {
          "name": "F#2",
          "midi": 42,
          "time": 98.75,
          "velocity": 0.6299212598425197,
          "duration": 0.125
        },
        {
          "name": "B1",
          "midi": 35,
          "time": 99,
          "velocity": 0.6299212598425197,
          "duration": 0.125
        },
        {
          "name": "F#2",
          "midi": 42,
          "time": 99,
          "velocity": 0.6299212598425197,
          "duration": 0.125
        },
        {
          "name": "F#2",
          "midi": 42,
          "time": 99.25,
          "velocity": 0.6299212598425197,
          "duration": 0.125
        },
        {
          "name": "F#2",
          "midi": 42,
          "time": 99.5,
          "velocity": 0.6299212598425197,
          "duration": 0.125
        },
        {
          "name": "C#2",
          "midi": 37,
          "time": 99.5,
          "velocity": 0.7874015748031497,
          "duration": 0.125
        },
        {
          "name": "B1",
          "midi": 35,
          "time": 99.75,
          "velocity": 0.6299212598425197,
          "duration": 0.125
        },
        {
          "name": "F#2",
          "midi": 42,
          "time": 99.75,
          "velocity": 0.6299212598425197,
          "duration": 0.125
        },
        {
          "name": "B1",
          "midi": 35,
          "time": 100,
          "velocity": 0.5511811023622047,
          "duration": 0.125
        },
        {
          "name": "F#2",
          "midi": 42,
          "time": 100,
          "velocity": 0.6299212598425197,
          "duration": 0.125
        },
        {
          "name": "F#2",
          "midi": 42,
          "time": 100.25,
          "velocity": 0.6299212598425197,
          "duration": 0.125
        },
        {
          "name": "F#2",
          "midi": 42,
          "time": 100.5,
          "velocity": 0.6299212598425197,
          "duration": 0.125
        },
        {
          "name": "C#2",
          "midi": 37,
          "time": 100.5,
          "velocity": 0.7874015748031497,
          "duration": 0.125
        },
        {
          "name": "B1",
          "midi": 35,
          "time": 100.75,
          "velocity": 0.6299212598425197,
          "duration": 0.125
        },
        {
          "name": "F#2",
          "midi": 42,
          "time": 100.75,
          "velocity": 0.6299212598425197,
          "duration": 0.125
        },
        {
          "name": "B1",
          "midi": 35,
          "time": 101,
          "velocity": 0.6299212598425197,
          "duration": 0.125
        },
        {
          "name": "F#2",
          "midi": 42,
          "time": 101,
          "velocity": 0.6299212598425197,
          "duration": 0.125
        },
        {
          "name": "F#2",
          "midi": 42,
          "time": 101.25,
          "velocity": 0.6299212598425197,
          "duration": 0.125
        },
        {
          "name": "F#2",
          "midi": 42,
          "time": 101.5,
          "velocity": 0.6299212598425197,
          "duration": 0.125
        },
        {
          "name": "C#2",
          "midi": 37,
          "time": 101.5,
          "velocity": 0.7874015748031497,
          "duration": 0.125
        },
        {
          "name": "B1",
          "midi": 35,
          "time": 101.75,
          "velocity": 0.6299212598425197,
          "duration": 0.125
        },
        {
          "name": "F#2",
          "midi": 42,
          "time": 101.75,
          "velocity": 0.6299212598425197,
          "duration": 0.125
        },
        {
          "name": "A#2",
          "midi": 46,
          "time": 101.875,
          "velocity": 0.7086614173228346,
          "duration": 0.125
        },
        {
          "name": "B1",
          "midi": 35,
          "time": 102,
          "velocity": 0.5511811023622047,
          "duration": 0.125
        },
        {
          "name": "F#2",
          "midi": 42,
          "time": 102,
          "velocity": 0.6299212598425197,
          "duration": 0.125
        },
        {
          "name": "F#2",
          "midi": 42,
          "time": 102.25,
          "velocity": 0.6299212598425197,
          "duration": 0.125
        },
        {
          "name": "F#2",
          "midi": 42,
          "time": 102.5,
          "velocity": 0.6299212598425197,
          "duration": 0.125
        },
        {
          "name": "C#2",
          "midi": 37,
          "time": 102.5,
          "velocity": 0.7874015748031497,
          "duration": 0.125
        },
        {
          "name": "B1",
          "midi": 35,
          "time": 102.75,
          "velocity": 0.6299212598425197,
          "duration": 0.125
        },
        {
          "name": "F#2",
          "midi": 42,
          "time": 102.75,
          "velocity": 0.6299212598425197,
          "duration": 0.125
        },
        {
          "name": "B1",
          "midi": 35,
          "time": 103,
          "velocity": 0.6299212598425197,
          "duration": 0.125
        },
        {
          "name": "F#2",
          "midi": 42,
          "time": 103,
          "velocity": 0.6299212598425197,
          "duration": 0.125
        },
        {
          "name": "F#2",
          "midi": 42,
          "time": 103.25,
          "velocity": 0.6299212598425197,
          "duration": 0.125
        },
        {
          "name": "F#2",
          "midi": 42,
          "time": 103.5,
          "velocity": 0.6299212598425197,
          "duration": 0.125
        },
        {
          "name": "C#2",
          "midi": 37,
          "time": 103.5,
          "velocity": 0.7874015748031497,
          "duration": 0.125
        },
        {
          "name": "B1",
          "midi": 35,
          "time": 103.75,
          "velocity": 0.6299212598425197,
          "duration": 0.125
        },
        {
          "name": "F#2",
          "midi": 42,
          "time": 103.75,
          "velocity": 0.6299212598425197,
          "duration": 0.125
        },
        {
          "name": "B1",
          "midi": 35,
          "time": 104,
          "velocity": 0.5511811023622047,
          "duration": 0.125
        },
        {
          "name": "F#2",
          "midi": 42,
          "time": 104,
          "velocity": 0.6299212598425197,
          "duration": 0.125
        },
        {
          "name": "F#2",
          "midi": 42,
          "time": 104.25,
          "velocity": 0.6299212598425197,
          "duration": 0.125
        },
        {
          "name": "D2",
          "midi": 38,
          "time": 104.5,
          "velocity": 0.7874015748031497,
          "duration": 0.125
        },
        {
          "name": "F#2",
          "midi": 42,
          "time": 104.5,
          "velocity": 0.6299212598425197,
          "duration": 0.125
        },
        {
          "name": "B1",
          "midi": 35,
          "time": 104.75,
          "velocity": 0.6299212598425197,
          "duration": 0.125
        },
        {
          "name": "F#2",
          "midi": 42,
          "time": 104.75,
          "velocity": 0.6299212598425197,
          "duration": 0.125
        },
        {
          "name": "B1",
          "midi": 35,
          "time": 105,
          "velocity": 0.6299212598425197,
          "duration": 0.125
        },
        {
          "name": "F#2",
          "midi": 42,
          "time": 105,
          "velocity": 0.6299212598425197,
          "duration": 0.125
        },
        {
          "name": "D2",
          "midi": 38,
          "time": 105.25,
          "velocity": 0.7086614173228346,
          "duration": 0.125
        },
        {
          "name": "F#2",
          "midi": 42,
          "time": 105.25,
          "velocity": 0.6299212598425197,
          "duration": 0.125
        },
        {
          "name": "D2",
          "midi": 38,
          "time": 105.5,
          "velocity": 0.7874015748031497,
          "duration": 0.125
        },
        {
          "name": "F#2",
          "midi": 42,
          "time": 105.5,
          "velocity": 0.6299212598425197,
          "duration": 0.125
        },
        {
          "name": "C#3",
          "midi": 49,
          "time": 105.5,
          "velocity": 0.7874015748031497,
          "duration": 0.125
        },
        {
          "name": "B1",
          "midi": 35,
          "time": 105.75,
          "velocity": 0.6299212598425197,
          "duration": 0.125
        },
        {
          "name": "D2",
          "midi": 38,
          "time": 105.75,
          "velocity": 0.7874015748031497,
          "duration": 0.125
        },
        {
          "name": "F#2",
          "midi": 42,
          "time": 105.75,
          "velocity": 0.6299212598425197,
          "duration": 0.125
        },
        {
          "name": "B1",
          "midi": 35,
          "time": 106,
          "velocity": 0.5511811023622047,
          "duration": 0.125
        },
        {
          "name": "F#2",
          "midi": 42,
          "time": 106,
          "velocity": 0.6299212598425197,
          "duration": 0.125
        },
        {
          "name": "F#2",
          "midi": 42,
          "time": 106.25,
          "velocity": 0.6299212598425197,
          "duration": 0.125
        },
        {
          "name": "D2",
          "midi": 38,
          "time": 106.5,
          "velocity": 0.7874015748031497,
          "duration": 0.125
        },
        {
          "name": "F#2",
          "midi": 42,
          "time": 106.5,
          "velocity": 0.6299212598425197,
          "duration": 0.125
        },
        {
          "name": "B1",
          "midi": 35,
          "time": 106.75,
          "velocity": 0.6299212598425197,
          "duration": 0.125
        },
        {
          "name": "F#2",
          "midi": 42,
          "time": 106.75,
          "velocity": 0.6299212598425197,
          "duration": 0.125
        },
        {
          "name": "B1",
          "midi": 35,
          "time": 107,
          "velocity": 0.6299212598425197,
          "duration": 0.125
        },
        {
          "name": "F#2",
          "midi": 42,
          "time": 107,
          "velocity": 0.6299212598425197,
          "duration": 0.125
        },
        {
          "name": "F#2",
          "midi": 42,
          "time": 107.25,
          "velocity": 0.6299212598425197,
          "duration": 0.125
        },
        {
          "name": "D2",
          "midi": 38,
          "time": 107.5,
          "velocity": 0.7874015748031497,
          "duration": 0.125
        },
        {
          "name": "F#2",
          "midi": 42,
          "time": 107.5,
          "velocity": 0.6299212598425197,
          "duration": 0.125
        },
        {
          "name": "B1",
          "midi": 35,
          "time": 107.75,
          "velocity": 0.6299212598425197,
          "duration": 0.125
        },
        {
          "name": "F#2",
          "midi": 42,
          "time": 107.75,
          "velocity": 0.6299212598425197,
          "duration": 0.125
        },
        {
          "name": "A#2",
          "midi": 46,
          "time": 107.875,
          "velocity": 0.7086614173228346,
          "duration": 0.125
        },
        {
          "name": "B1",
          "midi": 35,
          "time": 108,
          "velocity": 0.5511811023622047,
          "duration": 0.125
        },
        {
          "name": "F#2",
          "midi": 42,
          "time": 108,
          "velocity": 0.6299212598425197,
          "duration": 0.125
        },
        {
          "name": "F#2",
          "midi": 42,
          "time": 108.25,
          "velocity": 0.6299212598425197,
          "duration": 0.125
        },
        {
          "name": "D2",
          "midi": 38,
          "time": 108.5,
          "velocity": 0.7874015748031497,
          "duration": 0.125
        },
        {
          "name": "F#2",
          "midi": 42,
          "time": 108.5,
          "velocity": 0.6299212598425197,
          "duration": 0.125
        },
        {
          "name": "B1",
          "midi": 35,
          "time": 108.75,
          "velocity": 0.6299212598425197,
          "duration": 0.125
        },
        {
          "name": "F#2",
          "midi": 42,
          "time": 108.75,
          "velocity": 0.6299212598425197,
          "duration": 0.125
        },
        {
          "name": "B1",
          "midi": 35,
          "time": 109,
          "velocity": 0.6299212598425197,
          "duration": 0.125
        },
        {
          "name": "F#2",
          "midi": 42,
          "time": 109,
          "velocity": 0.6299212598425197,
          "duration": 0.125
        },
        {
          "name": "F#2",
          "midi": 42,
          "time": 109.25,
          "velocity": 0.6299212598425197,
          "duration": 0.125
        },
        {
          "name": "D2",
          "midi": 38,
          "time": 109.5,
          "velocity": 0.7874015748031497,
          "duration": 0.125
        },
        {
          "name": "F#2",
          "midi": 42,
          "time": 109.5,
          "velocity": 0.6299212598425197,
          "duration": 0.125
        },
        {
          "name": "B1",
          "midi": 35,
          "time": 109.75,
          "velocity": 0.6299212598425197,
          "duration": 0.125
        },
        {
          "name": "F#2",
          "midi": 42,
          "time": 109.75,
          "velocity": 0.6299212598425197,
          "duration": 0.125
        },
        {
          "name": "B1",
          "midi": 35,
          "time": 110,
          "velocity": 0.5511811023622047,
          "duration": 0.125
        },
        {
          "name": "F#2",
          "midi": 42,
          "time": 110,
          "velocity": 0.6299212598425197,
          "duration": 0.125
        },
        {
          "name": "F#2",
          "midi": 42,
          "time": 110.25,
          "velocity": 0.6299212598425197,
          "duration": 0.125
        },
        {
          "name": "D2",
          "midi": 38,
          "time": 110.5,
          "velocity": 0.7874015748031497,
          "duration": 0.125
        },
        {
          "name": "F#2",
          "midi": 42,
          "time": 110.5,
          "velocity": 0.6299212598425197,
          "duration": 0.125
        },
        {
          "name": "B1",
          "midi": 35,
          "time": 110.75,
          "velocity": 0.6299212598425197,
          "duration": 0.125
        },
        {
          "name": "F#2",
          "midi": 42,
          "time": 110.75,
          "velocity": 0.6299212598425197,
          "duration": 0.125
        },
        {
          "name": "B1",
          "midi": 35,
          "time": 111,
          "velocity": 0.6299212598425197,
          "duration": 0.125
        },
        {
          "name": "F#2",
          "midi": 42,
          "time": 111,
          "velocity": 0.6299212598425197,
          "duration": 0.125
        },
        {
          "name": "F#2",
          "midi": 42,
          "time": 111.25,
          "velocity": 0.6299212598425197,
          "duration": 0.125
        },
        {
          "name": "D2",
          "midi": 38,
          "time": 111.5,
          "velocity": 0.7874015748031497,
          "duration": 0.125
        },
        {
          "name": "F#2",
          "midi": 42,
          "time": 111.5,
          "velocity": 0.6299212598425197,
          "duration": 0.125
        },
        {
          "name": "B1",
          "midi": 35,
          "time": 111.75,
          "velocity": 0.6299212598425197,
          "duration": 0.125
        },
        {
          "name": "F#2",
          "midi": 42,
          "time": 111.75,
          "velocity": 0.6299212598425197,
          "duration": 0.125
        },
        {
          "name": "A#2",
          "midi": 46,
          "time": 111.875,
          "velocity": 0.7086614173228346,
          "duration": 0.125
        },
        {
          "name": "B1",
          "midi": 35,
          "time": 112,
          "velocity": 0.5511811023622047,
          "duration": 0.125
        },
        {
          "name": "F#2",
          "midi": 42,
          "time": 112,
          "velocity": 0.6299212598425197,
          "duration": 0.125
        },
        {
          "name": "F#2",
          "midi": 42,
          "time": 112.25,
          "velocity": 0.6299212598425197,
          "duration": 0.125
        },
        {
          "name": "D2",
          "midi": 38,
          "time": 112.5,
          "velocity": 0.7874015748031497,
          "duration": 0.125
        },
        {
          "name": "F#2",
          "midi": 42,
          "time": 112.5,
          "velocity": 0.6299212598425197,
          "duration": 0.125
        },
        {
          "name": "B1",
          "midi": 35,
          "time": 112.75,
          "velocity": 0.6299212598425197,
          "duration": 0.125
        },
        {
          "name": "F#2",
          "midi": 42,
          "time": 112.75,
          "velocity": 0.6299212598425197,
          "duration": 0.125
        },
        {
          "name": "B1",
          "midi": 35,
          "time": 113,
          "velocity": 0.6299212598425197,
          "duration": 0.125
        },
        {
          "name": "F#2",
          "midi": 42,
          "time": 113,
          "velocity": 0.6299212598425197,
          "duration": 0.125
        },
        {
          "name": "F#2",
          "midi": 42,
          "time": 113.25,
          "velocity": 0.6299212598425197,
          "duration": 0.125
        },
        {
          "name": "D2",
          "midi": 38,
          "time": 113.5,
          "velocity": 0.7874015748031497,
          "duration": 0.125
        },
        {
          "name": "F#2",
          "midi": 42,
          "time": 113.5,
          "velocity": 0.6299212598425197,
          "duration": 0.125
        },
        {
          "name": "B1",
          "midi": 35,
          "time": 113.75,
          "velocity": 0.6299212598425197,
          "duration": 0.125
        },
        {
          "name": "F#2",
          "midi": 42,
          "time": 113.75,
          "velocity": 0.6299212598425197,
          "duration": 0.125
        },
        {
          "name": "B1",
          "midi": 35,
          "time": 114,
          "velocity": 0.5511811023622047,
          "duration": 0.125
        },
        {
          "name": "F#2",
          "midi": 42,
          "time": 114,
          "velocity": 0.6299212598425197,
          "duration": 0.125
        },
        {
          "name": "F#2",
          "midi": 42,
          "time": 114.25,
          "velocity": 0.6299212598425197,
          "duration": 0.125
        },
        {
          "name": "D2",
          "midi": 38,
          "time": 114.5,
          "velocity": 0.7874015748031497,
          "duration": 0.125
        },
        {
          "name": "F#2",
          "midi": 42,
          "time": 114.5,
          "velocity": 0.6299212598425197,
          "duration": 0.125
        },
        {
          "name": "B1",
          "midi": 35,
          "time": 114.75,
          "velocity": 0.6299212598425197,
          "duration": 0.125
        },
        {
          "name": "F#2",
          "midi": 42,
          "time": 114.75,
          "velocity": 0.6299212598425197,
          "duration": 0.125
        },
        {
          "name": "B1",
          "midi": 35,
          "time": 115,
          "velocity": 0.6299212598425197,
          "duration": 0.125
        },
        {
          "name": "F#2",
          "midi": 42,
          "time": 115,
          "velocity": 0.6299212598425197,
          "duration": 0.125
        },
        {
          "name": "F#2",
          "midi": 42,
          "time": 115.25,
          "velocity": 0.6299212598425197,
          "duration": 0.125
        },
        {
          "name": "D2",
          "midi": 38,
          "time": 115.5,
          "velocity": 0.7874015748031497,
          "duration": 0.125
        },
        {
          "name": "F#2",
          "midi": 42,
          "time": 115.5,
          "velocity": 0.6299212598425197,
          "duration": 0.125
        },
        {
          "name": "B1",
          "midi": 35,
          "time": 115.75,
          "velocity": 0.6299212598425197,
          "duration": 0.125
        },
        {
          "name": "F#2",
          "midi": 42,
          "time": 115.75,
          "velocity": 0.6299212598425197,
          "duration": 0.125
        },
        {
          "name": "B1",
          "midi": 35,
          "time": 116,
          "velocity": 0.5511811023622047,
          "duration": 0.125
        },
        {
          "name": "F#2",
          "midi": 42,
          "time": 116,
          "velocity": 0.6299212598425197,
          "duration": 0.125
        },
        {
          "name": "F#2",
          "midi": 42,
          "time": 116.25,
          "velocity": 0.6299212598425197,
          "duration": 0.125
        },
        {
          "name": "D2",
          "midi": 38,
          "time": 116.5,
          "velocity": 0.7874015748031497,
          "duration": 0.125
        },
        {
          "name": "F#2",
          "midi": 42,
          "time": 116.5,
          "velocity": 0.6299212598425197,
          "duration": 0.125
        },
        {
          "name": "B1",
          "midi": 35,
          "time": 116.75,
          "velocity": 0.6299212598425197,
          "duration": 0.125
        },
        {
          "name": "F#2",
          "midi": 42,
          "time": 116.75,
          "velocity": 0.6299212598425197,
          "duration": 0.125
        },
        {
          "name": "B1",
          "midi": 35,
          "time": 117,
          "velocity": 0.6299212598425197,
          "duration": 0.125
        },
        {
          "name": "F#2",
          "midi": 42,
          "time": 117,
          "velocity": 0.6299212598425197,
          "duration": 0.125
        },
        {
          "name": "F#2",
          "midi": 42,
          "time": 117.25,
          "velocity": 0.6299212598425197,
          "duration": 0.125
        },
        {
          "name": "D2",
          "midi": 38,
          "time": 117.5,
          "velocity": 0.7874015748031497,
          "duration": 0.125
        },
        {
          "name": "F#2",
          "midi": 42,
          "time": 117.5,
          "velocity": 0.6299212598425197,
          "duration": 0.125
        },
        {
          "name": "B1",
          "midi": 35,
          "time": 117.75,
          "velocity": 0.6299212598425197,
          "duration": 0.125
        },
        {
          "name": "F#2",
          "midi": 42,
          "time": 117.75,
          "velocity": 0.6299212598425197,
          "duration": 0.125
        },
        {
          "name": "B1",
          "midi": 35,
          "time": 118,
          "velocity": 0.5511811023622047,
          "duration": 0.125
        },
        {
          "name": "F#2",
          "midi": 42,
          "time": 118,
          "velocity": 0.6299212598425197,
          "duration": 0.125
        },
        {
          "name": "F#2",
          "midi": 42,
          "time": 118.25,
          "velocity": 0.6299212598425197,
          "duration": 0.125
        },
        {
          "name": "D2",
          "midi": 38,
          "time": 118.5,
          "velocity": 0.7874015748031497,
          "duration": 0.125
        },
        {
          "name": "F#2",
          "midi": 42,
          "time": 118.5,
          "velocity": 0.6299212598425197,
          "duration": 0.125
        },
        {
          "name": "B1",
          "midi": 35,
          "time": 118.75,
          "velocity": 0.6299212598425197,
          "duration": 0.125
        },
        {
          "name": "F#2",
          "midi": 42,
          "time": 118.75,
          "velocity": 0.6299212598425197,
          "duration": 0.125
        },
        {
          "name": "B1",
          "midi": 35,
          "time": 119,
          "velocity": 0.6299212598425197,
          "duration": 0.125
        },
        {
          "name": "F#2",
          "midi": 42,
          "time": 119,
          "velocity": 0.6299212598425197,
          "duration": 0.125
        },
        {
          "name": "F#2",
          "midi": 42,
          "time": 119.25,
          "velocity": 0.6299212598425197,
          "duration": 0.125
        },
        {
          "name": "D2",
          "midi": 38,
          "time": 119.5,
          "velocity": 0.7874015748031497,
          "duration": 0.125
        },
        {
          "name": "F#2",
          "midi": 42,
          "time": 119.5,
          "velocity": 0.6299212598425197,
          "duration": 0.125
        },
        {
          "name": "B1",
          "midi": 35,
          "time": 119.75,
          "velocity": 0.6299212598425197,
          "duration": 0.125
        },
        {
          "name": "F#2",
          "midi": 42,
          "time": 119.75,
          "velocity": 0.6299212598425197,
          "duration": 0.125
        },
        {
          "name": "A#2",
          "midi": 46,
          "time": 119.875,
          "velocity": 0.7086614173228346,
          "duration": 0.125
        },
        {
          "name": "B1",
          "midi": 35,
          "time": 120,
          "velocity": 0.5511811023622047,
          "duration": 0.125
        },
        {
          "name": "F#2",
          "midi": 42,
          "time": 120,
          "velocity": 0.6299212598425197,
          "duration": 0.125
        },
        {
          "name": "F#2",
          "midi": 42,
          "time": 120.25,
          "velocity": 0.6299212598425197,
          "duration": 0.125
        },
        {
          "name": "D2",
          "midi": 38,
          "time": 120.5,
          "velocity": 0.7874015748031497,
          "duration": 0.125
        },
        {
          "name": "F#2",
          "midi": 42,
          "time": 120.5,
          "velocity": 0.6299212598425197,
          "duration": 0.125
        },
        {
          "name": "B1",
          "midi": 35,
          "time": 120.75,
          "velocity": 0.6299212598425197,
          "duration": 0.125
        },
        {
          "name": "F#2",
          "midi": 42,
          "time": 120.75,
          "velocity": 0.6299212598425197,
          "duration": 0.125
        },
        {
          "name": "B1",
          "midi": 35,
          "time": 121,
          "velocity": 0.6299212598425197,
          "duration": 0.125
        },
        {
          "name": "F#2",
          "midi": 42,
          "time": 121,
          "velocity": 0.6299212598425197,
          "duration": 0.125
        },
        {
          "name": "D2",
          "midi": 38,
          "time": 121.25,
          "velocity": 0.7086614173228346,
          "duration": 0.125
        },
        {
          "name": "F#2",
          "midi": 42,
          "time": 121.25,
          "velocity": 0.6299212598425197,
          "duration": 0.125
        },
        {
          "name": "D2",
          "midi": 38,
          "time": 121.5,
          "velocity": 0.7874015748031497,
          "duration": 0.125
        },
        {
          "name": "F#2",
          "midi": 42,
          "time": 121.5,
          "velocity": 0.6299212598425197,
          "duration": 0.125
        },
        {
          "name": "C#3",
          "midi": 49,
          "time": 121.5,
          "velocity": 0.7874015748031497,
          "duration": 0.125
        },
        {
          "name": "B1",
          "midi": 35,
          "time": 121.75,
          "velocity": 0.6299212598425197,
          "duration": 0.125
        },
        {
          "name": "D2",
          "midi": 38,
          "time": 121.75,
          "velocity": 0.7874015748031497,
          "duration": 0.125
        },
        {
          "name": "F#2",
          "midi": 42,
          "time": 121.75,
          "velocity": 0.6299212598425197,
          "duration": 0.125
        },
        {
          "name": "A#2",
          "midi": 46,
          "time": 121.875,
          "velocity": 0.7086614173228346,
          "duration": 0.125
        },
        {
          "name": "B1",
          "midi": 35,
          "time": 122,
          "velocity": 0.5511811023622047,
          "duration": 0.125
        },
        {
          "name": "F#2",
          "midi": 42,
          "time": 122,
          "velocity": 0.6299212598425197,
          "duration": 0.125
        },
        {
          "name": "F#2",
          "midi": 42,
          "time": 122.25,
          "velocity": 0.6299212598425197,
          "duration": 0.125
        },
        {
          "name": "D2",
          "midi": 38,
          "time": 122.5,
          "velocity": 0.7874015748031497,
          "duration": 0.125
        },
        {
          "name": "F#2",
          "midi": 42,
          "time": 122.5,
          "velocity": 0.6299212598425197,
          "duration": 0.125
        },
        {
          "name": "B1",
          "midi": 35,
          "time": 122.75,
          "velocity": 0.6299212598425197,
          "duration": 0.125
        },
        {
          "name": "F#2",
          "midi": 42,
          "time": 122.75,
          "velocity": 0.6299212598425197,
          "duration": 0.125
        },
        {
          "name": "B1",
          "midi": 35,
          "time": 123,
          "velocity": 0.6299212598425197,
          "duration": 0.125
        },
        {
          "name": "F#2",
          "midi": 42,
          "time": 123,
          "velocity": 0.6299212598425197,
          "duration": 0.125
        },
        {
          "name": "F#2",
          "midi": 42,
          "time": 123.25,
          "velocity": 0.6299212598425197,
          "duration": 0.125
        },
        {
          "name": "D2",
          "midi": 38,
          "time": 123.5,
          "velocity": 0.7874015748031497,
          "duration": 0.125
        },
        {
          "name": "F#2",
          "midi": 42,
          "time": 123.5,
          "velocity": 0.6299212598425197,
          "duration": 0.125
        },
        {
          "name": "B1",
          "midi": 35,
          "time": 123.75,
          "velocity": 0.6299212598425197,
          "duration": 0.125
        },
        {
          "name": "F#2",
          "midi": 42,
          "time": 123.75,
          "velocity": 0.6299212598425197,
          "duration": 0.125
        },
        {
          "name": "A#2",
          "midi": 46,
          "time": 123.875,
          "velocity": 0.7086614173228346,
          "duration": 0.125
        },
        {
          "name": "B1",
          "midi": 35,
          "time": 124,
          "velocity": 0.5511811023622047,
          "duration": 0.125
        },
        {
          "name": "F#2",
          "midi": 42,
          "time": 124,
          "velocity": 0.6299212598425197,
          "duration": 0.125
        },
        {
          "name": "F#2",
          "midi": 42,
          "time": 124.25,
          "velocity": 0.6299212598425197,
          "duration": 0.125
        },
        {
          "name": "D2",
          "midi": 38,
          "time": 124.5,
          "velocity": 0.7874015748031497,
          "duration": 0.125
        },
        {
          "name": "F#2",
          "midi": 42,
          "time": 124.5,
          "velocity": 0.6299212598425197,
          "duration": 0.125
        },
        {
          "name": "B1",
          "midi": 35,
          "time": 124.75,
          "velocity": 0.6299212598425197,
          "duration": 0.125
        },
        {
          "name": "F#2",
          "midi": 42,
          "time": 124.75,
          "velocity": 0.6299212598425197,
          "duration": 0.125
        },
        {
          "name": "B1",
          "midi": 35,
          "time": 125,
          "velocity": 0.6299212598425197,
          "duration": 0.125
        },
        {
          "name": "F#2",
          "midi": 42,
          "time": 125,
          "velocity": 0.6299212598425197,
          "duration": 0.125
        },
        {
          "name": "F#2",
          "midi": 42,
          "time": 125.25,
          "velocity": 0.6299212598425197,
          "duration": 0.125
        },
        {
          "name": "D2",
          "midi": 38,
          "time": 125.5,
          "velocity": 0.7874015748031497,
          "duration": 0.125
        },
        {
          "name": "F#2",
          "midi": 42,
          "time": 125.5,
          "velocity": 0.6299212598425197,
          "duration": 0.125
        },
        {
          "name": "B1",
          "midi": 35,
          "time": 125.75,
          "velocity": 0.6299212598425197,
          "duration": 0.125
        },
        {
          "name": "F#2",
          "midi": 42,
          "time": 125.75,
          "velocity": 0.6299212598425197,
          "duration": 0.125
        },
        {
          "name": "B1",
          "midi": 35,
          "time": 126,
          "velocity": 0.5511811023622047,
          "duration": 0.125
        },
        {
          "name": "F#2",
          "midi": 42,
          "time": 126,
          "velocity": 0.6299212598425197,
          "duration": 0.125
        },
        {
          "name": "F#2",
          "midi": 42,
          "time": 126.25,
          "velocity": 0.6299212598425197,
          "duration": 0.125
        },
        {
          "name": "D2",
          "midi": 38,
          "time": 126.5,
          "velocity": 0.7874015748031497,
          "duration": 0.125
        },
        {
          "name": "F#2",
          "midi": 42,
          "time": 126.5,
          "velocity": 0.6299212598425197,
          "duration": 0.125
        },
        {
          "name": "B1",
          "midi": 35,
          "time": 126.75,
          "velocity": 0.6299212598425197,
          "duration": 0.125
        },
        {
          "name": "F#2",
          "midi": 42,
          "time": 126.75,
          "velocity": 0.6299212598425197,
          "duration": 0.125
        },
        {
          "name": "B1",
          "midi": 35,
          "time": 127,
          "velocity": 0.6299212598425197,
          "duration": 0.125
        },
        {
          "name": "F#2",
          "midi": 42,
          "time": 127,
          "velocity": 0.6299212598425197,
          "duration": 0.125
        },
        {
          "name": "F#2",
          "midi": 42,
          "time": 127.25,
          "velocity": 0.6299212598425197,
          "duration": 0.125
        },
        {
          "name": "D2",
          "midi": 38,
          "time": 127.5,
          "velocity": 0.7874015748031497,
          "duration": 0.125
        },
        {
          "name": "F#2",
          "midi": 42,
          "time": 127.5,
          "velocity": 0.6299212598425197,
          "duration": 0.125
        },
        {
          "name": "B1",
          "midi": 35,
          "time": 127.75,
          "velocity": 0.6299212598425197,
          "duration": 0.125
        },
        {
          "name": "F#2",
          "midi": 42,
          "time": 127.75,
          "velocity": 0.6299212598425197,
          "duration": 0.125
        },
        {
          "name": "B1",
          "midi": 35,
          "time": 128,
          "velocity": 0.5511811023622047,
          "duration": 0.125
        },
        {
          "name": "F#2",
          "midi": 42,
          "time": 128,
          "velocity": 0.6299212598425197,
          "duration": 0.125
        },
        {
          "name": "F#2",
          "midi": 42,
          "time": 128.25,
          "velocity": 0.6299212598425197,
          "duration": 0.125
        },
        {
          "name": "D2",
          "midi": 38,
          "time": 128.5,
          "velocity": 0.7874015748031497,
          "duration": 0.125
        },
        {
          "name": "F#2",
          "midi": 42,
          "time": 128.5,
          "velocity": 0.6299212598425197,
          "duration": 0.125
        },
        {
          "name": "B1",
          "midi": 35,
          "time": 128.75,
          "velocity": 0.6299212598425197,
          "duration": 0.125
        },
        {
          "name": "F#2",
          "midi": 42,
          "time": 128.75,
          "velocity": 0.6299212598425197,
          "duration": 0.125
        },
        {
          "name": "B1",
          "midi": 35,
          "time": 129,
          "velocity": 0.6299212598425197,
          "duration": 0.125
        },
        {
          "name": "F#2",
          "midi": 42,
          "time": 129,
          "velocity": 0.6299212598425197,
          "duration": 0.125
        },
        {
          "name": "F#2",
          "midi": 42,
          "time": 129.25,
          "velocity": 0.6299212598425197,
          "duration": 0.125
        },
        {
          "name": "D2",
          "midi": 38,
          "time": 129.5,
          "velocity": 0.7874015748031497,
          "duration": 0.125
        },
        {
          "name": "F#2",
          "midi": 42,
          "time": 129.5,
          "velocity": 0.6299212598425197,
          "duration": 0.125
        },
        {
          "name": "B1",
          "midi": 35,
          "time": 129.75,
          "velocity": 0.6299212598425197,
          "duration": 0.125
        },
        {
          "name": "F#2",
          "midi": 42,
          "time": 129.75,
          "velocity": 0.6299212598425197,
          "duration": 0.125
        },
        {
          "name": "B1",
          "midi": 35,
          "time": 130,
          "velocity": 0.5511811023622047,
          "duration": 0.125
        },
        {
          "name": "F#2",
          "midi": 42,
          "time": 130,
          "velocity": 0.6299212598425197,
          "duration": 0.125
        },
        {
          "name": "F#2",
          "midi": 42,
          "time": 130.25,
          "velocity": 0.6299212598425197,
          "duration": 0.125
        },
        {
          "name": "D2",
          "midi": 38,
          "time": 130.5,
          "velocity": 0.7874015748031497,
          "duration": 0.125
        },
        {
          "name": "F#2",
          "midi": 42,
          "time": 130.5,
          "velocity": 0.6299212598425197,
          "duration": 0.125
        },
        {
          "name": "B1",
          "midi": 35,
          "time": 130.75,
          "velocity": 0.6299212598425197,
          "duration": 0.125
        },
        {
          "name": "F#2",
          "midi": 42,
          "time": 130.75,
          "velocity": 0.6299212598425197,
          "duration": 0.125
        },
        {
          "name": "B1",
          "midi": 35,
          "time": 131,
          "velocity": 0.6299212598425197,
          "duration": 0.125
        },
        {
          "name": "F#2",
          "midi": 42,
          "time": 131,
          "velocity": 0.6299212598425197,
          "duration": 0.125
        },
        {
          "name": "F#2",
          "midi": 42,
          "time": 131.25,
          "velocity": 0.6299212598425197,
          "duration": 0.125
        },
        {
          "name": "D2",
          "midi": 38,
          "time": 131.5,
          "velocity": 0.7874015748031497,
          "duration": 0.125
        },
        {
          "name": "F#2",
          "midi": 42,
          "time": 131.5,
          "velocity": 0.6299212598425197,
          "duration": 0.125
        },
        {
          "name": "B1",
          "midi": 35,
          "time": 131.75,
          "velocity": 0.6299212598425197,
          "duration": 0.125
        },
        {
          "name": "F#2",
          "midi": 42,
          "time": 131.75,
          "velocity": 0.6299212598425197,
          "duration": 0.125
        },
        {
          "name": "B1",
          "midi": 35,
          "time": 132,
          "velocity": 0.5511811023622047,
          "duration": 0.125
        },
        {
          "name": "F#2",
          "midi": 42,
          "time": 132,
          "velocity": 0.6299212598425197,
          "duration": 0.125
        },
        {
          "name": "F#2",
          "midi": 42,
          "time": 132.25,
          "velocity": 0.6299212598425197,
          "duration": 0.125
        },
        {
          "name": "D2",
          "midi": 38,
          "time": 132.5,
          "velocity": 0.7874015748031497,
          "duration": 0.125
        },
        {
          "name": "F#2",
          "midi": 42,
          "time": 132.5,
          "velocity": 0.6299212598425197,
          "duration": 0.125
        },
        {
          "name": "B1",
          "midi": 35,
          "time": 132.75,
          "velocity": 0.6299212598425197,
          "duration": 0.125
        },
        {
          "name": "F#2",
          "midi": 42,
          "time": 132.75,
          "velocity": 0.6299212598425197,
          "duration": 0.125
        },
        {
          "name": "B1",
          "midi": 35,
          "time": 133,
          "velocity": 0.6299212598425197,
          "duration": 0.125
        },
        {
          "name": "F#2",
          "midi": 42,
          "time": 133,
          "velocity": 0.6299212598425197,
          "duration": 0.125
        },
        {
          "name": "F#2",
          "midi": 42,
          "time": 133.25,
          "velocity": 0.6299212598425197,
          "duration": 0.125
        },
        {
          "name": "D2",
          "midi": 38,
          "time": 133.5,
          "velocity": 0.7874015748031497,
          "duration": 0.125
        },
        {
          "name": "F#2",
          "midi": 42,
          "time": 133.5,
          "velocity": 0.6299212598425197,
          "duration": 0.125
        },
        {
          "name": "B1",
          "midi": 35,
          "time": 133.75,
          "velocity": 0.6299212598425197,
          "duration": 0.125
        },
        {
          "name": "F#2",
          "midi": 42,
          "time": 133.75,
          "velocity": 0.6299212598425197,
          "duration": 0.125
        },
        {
          "name": "A#2",
          "midi": 46,
          "time": 133.875,
          "velocity": 0.7086614173228346,
          "duration": 0.125
        },
        {
          "name": "B1",
          "midi": 35,
          "time": 134,
          "velocity": 0.5511811023622047,
          "duration": 0.125
        },
        {
          "name": "F#2",
          "midi": 42,
          "time": 134,
          "velocity": 0.6299212598425197,
          "duration": 0.125
        },
        {
          "name": "F#2",
          "midi": 42,
          "time": 134.25,
          "velocity": 0.6299212598425197,
          "duration": 0.125
        },
        {
          "name": "D2",
          "midi": 38,
          "time": 134.5,
          "velocity": 0.7874015748031497,
          "duration": 0.125
        },
        {
          "name": "F#2",
          "midi": 42,
          "time": 134.5,
          "velocity": 0.6299212598425197,
          "duration": 0.125
        },
        {
          "name": "B1",
          "midi": 35,
          "time": 134.75,
          "velocity": 0.6299212598425197,
          "duration": 0.125
        },
        {
          "name": "F#2",
          "midi": 42,
          "time": 134.75,
          "velocity": 0.6299212598425197,
          "duration": 0.125
        },
        {
          "name": "B1",
          "midi": 35,
          "time": 135,
          "velocity": 0.6299212598425197,
          "duration": 0.125
        },
        {
          "name": "F#2",
          "midi": 42,
          "time": 135,
          "velocity": 0.6299212598425197,
          "duration": 0.125
        },
        {
          "name": "F#2",
          "midi": 42,
          "time": 135.25,
          "velocity": 0.6299212598425197,
          "duration": 0.125
        },
        {
          "name": "D2",
          "midi": 38,
          "time": 135.5,
          "velocity": 0.7874015748031497,
          "duration": 0.125
        },
        {
          "name": "F#2",
          "midi": 42,
          "time": 135.5,
          "velocity": 0.6299212598425197,
          "duration": 0.125
        },
        {
          "name": "B1",
          "midi": 35,
          "time": 135.75,
          "velocity": 0.6299212598425197,
          "duration": 0.125
        },
        {
          "name": "F#2",
          "midi": 42,
          "time": 135.75,
          "velocity": 0.6299212598425197,
          "duration": 0.125
        },
        {
          "name": "B1",
          "midi": 35,
          "time": 136,
          "velocity": 0.5511811023622047,
          "duration": 0.125
        },
        {
          "name": "F#2",
          "midi": 42,
          "time": 136,
          "velocity": 0.6299212598425197,
          "duration": 0.125
        },
        {
          "name": "F#2",
          "midi": 42,
          "time": 136.25,
          "velocity": 0.6299212598425197,
          "duration": 0.125
        },
        {
          "name": "D2",
          "midi": 38,
          "time": 136.5,
          "velocity": 0.7874015748031497,
          "duration": 0.125
        },
        {
          "name": "F#2",
          "midi": 42,
          "time": 136.5,
          "velocity": 0.6299212598425197,
          "duration": 0.125
        },
        {
          "name": "B1",
          "midi": 35,
          "time": 136.75,
          "velocity": 0.6299212598425197,
          "duration": 0.125
        },
        {
          "name": "F#2",
          "midi": 42,
          "time": 136.75,
          "velocity": 0.6299212598425197,
          "duration": 0.125
        },
        {
          "name": "B1",
          "midi": 35,
          "time": 137,
          "velocity": 0.6299212598425197,
          "duration": 0.125
        },
        {
          "name": "F#2",
          "midi": 42,
          "time": 137,
          "velocity": 0.6299212598425197,
          "duration": 0.125
        },
        {
          "name": "F#2",
          "midi": 42,
          "time": 137.25,
          "velocity": 0.6299212598425197,
          "duration": 0.125
        },
        {
          "name": "D2",
          "midi": 38,
          "time": 137.5,
          "velocity": 0.7874015748031497,
          "duration": 0.125
        },
        {
          "name": "F#2",
          "midi": 42,
          "time": 137.5,
          "velocity": 0.6299212598425197,
          "duration": 0.125
        },
        {
          "name": "B1",
          "midi": 35,
          "time": 137.75,
          "velocity": 0.6299212598425197,
          "duration": 0.125
        },
        {
          "name": "F#2",
          "midi": 42,
          "time": 137.75,
          "velocity": 0.6299212598425197,
          "duration": 0.125
        },
        {
          "name": "B1",
          "midi": 35,
          "time": 138,
          "velocity": 0.5511811023622047,
          "duration": 0.125
        },
        {
          "name": "F#2",
          "midi": 42,
          "time": 138,
          "velocity": 0.6299212598425197,
          "duration": 0.125
        },
        {
          "name": "F#2",
          "midi": 42,
          "time": 138.25,
          "velocity": 0.6299212598425197,
          "duration": 0.125
        },
        {
          "name": "D2",
          "midi": 38,
          "time": 138.5,
          "velocity": 0.7874015748031497,
          "duration": 0.125
        },
        {
          "name": "F#2",
          "midi": 42,
          "time": 138.5,
          "velocity": 0.6299212598425197,
          "duration": 0.125
        },
        {
          "name": "B1",
          "midi": 35,
          "time": 138.75,
          "velocity": 0.6299212598425197,
          "duration": 0.125
        },
        {
          "name": "F#2",
          "midi": 42,
          "time": 138.75,
          "velocity": 0.6299212598425197,
          "duration": 0.125
        },
        {
          "name": "B1",
          "midi": 35,
          "time": 139,
          "velocity": 0.6299212598425197,
          "duration": 0.125
        },
        {
          "name": "F#2",
          "midi": 42,
          "time": 139,
          "velocity": 0.6299212598425197,
          "duration": 0.125
        },
        {
          "name": "F#2",
          "midi": 42,
          "time": 139.25,
          "velocity": 0.6299212598425197,
          "duration": 0.125
        },
        {
          "name": "D2",
          "midi": 38,
          "time": 139.5,
          "velocity": 0.7874015748031497,
          "duration": 0.125
        },
        {
          "name": "F#2",
          "midi": 42,
          "time": 139.5,
          "velocity": 0.6299212598425197,
          "duration": 0.125
        },
        {
          "name": "B1",
          "midi": 35,
          "time": 139.75,
          "velocity": 0.6299212598425197,
          "duration": 0.125
        },
        {
          "name": "F#2",
          "midi": 42,
          "time": 139.75,
          "velocity": 0.6299212598425197,
          "duration": 0.125
        },
        {
          "name": "B1",
          "midi": 35,
          "time": 140,
          "velocity": 0.5511811023622047,
          "duration": 0.125
        },
        {
          "name": "F#2",
          "midi": 42,
          "time": 140,
          "velocity": 0.6299212598425197,
          "duration": 0.125
        },
        {
          "name": "F#2",
          "midi": 42,
          "time": 140.25,
          "velocity": 0.6299212598425197,
          "duration": 0.125
        },
        {
          "name": "D2",
          "midi": 38,
          "time": 140.5,
          "velocity": 0.7874015748031497,
          "duration": 0.125
        },
        {
          "name": "F#2",
          "midi": 42,
          "time": 140.5,
          "velocity": 0.6299212598425197,
          "duration": 0.125
        },
        {
          "name": "B1",
          "midi": 35,
          "time": 140.75,
          "velocity": 0.6299212598425197,
          "duration": 0.125
        },
        {
          "name": "F#2",
          "midi": 42,
          "time": 140.75,
          "velocity": 0.6299212598425197,
          "duration": 0.125
        },
        {
          "name": "B1",
          "midi": 35,
          "time": 141,
          "velocity": 0.6299212598425197,
          "duration": 0.125
        },
        {
          "name": "F#2",
          "midi": 42,
          "time": 141,
          "velocity": 0.6299212598425197,
          "duration": 0.125
        },
        {
          "name": "F#2",
          "midi": 42,
          "time": 141.25,
          "velocity": 0.6299212598425197,
          "duration": 0.125
        },
        {
          "name": "D2",
          "midi": 38,
          "time": 141.5,
          "velocity": 0.7874015748031497,
          "duration": 0.125
        },
        {
          "name": "F#2",
          "midi": 42,
          "time": 141.5,
          "velocity": 0.6299212598425197,
          "duration": 0.125
        },
        {
          "name": "B1",
          "midi": 35,
          "time": 141.75,
          "velocity": 0.6299212598425197,
          "duration": 0.125
        },
        {
          "name": "F#2",
          "midi": 42,
          "time": 141.75,
          "velocity": 0.6299212598425197,
          "duration": 0.125
        },
        {
          "name": "A#2",
          "midi": 46,
          "time": 141.875,
          "velocity": 0.7086614173228346,
          "duration": 0.125
        },
        {
          "name": "B1",
          "midi": 35,
          "time": 142,
          "velocity": 0.5511811023622047,
          "duration": 0.125
        },
        {
          "name": "F#2",
          "midi": 42,
          "time": 142,
          "velocity": 0.6299212598425197,
          "duration": 0.125
        },
        {
          "name": "F#2",
          "midi": 42,
          "time": 142.25,
          "velocity": 0.6299212598425197,
          "duration": 0.125
        },
        {
          "name": "D2",
          "midi": 38,
          "time": 142.5,
          "velocity": 0.7874015748031497,
          "duration": 0.125
        },
        {
          "name": "F#2",
          "midi": 42,
          "time": 142.5,
          "velocity": 0.6299212598425197,
          "duration": 0.125
        },
        {
          "name": "B1",
          "midi": 35,
          "time": 142.75,
          "velocity": 0.6299212598425197,
          "duration": 0.125
        },
        {
          "name": "F#2",
          "midi": 42,
          "time": 142.75,
          "velocity": 0.6299212598425197,
          "duration": 0.125
        },
        {
          "name": "B1",
          "midi": 35,
          "time": 143,
          "velocity": 0.6299212598425197,
          "duration": 0.125
        },
        {
          "name": "F#2",
          "midi": 42,
          "time": 143,
          "velocity": 0.6299212598425197,
          "duration": 0.125
        },
        {
          "name": "F#2",
          "midi": 42,
          "time": 143.25,
          "velocity": 0.6299212598425197,
          "duration": 0.125
        },
        {
          "name": "D2",
          "midi": 38,
          "time": 143.5,
          "velocity": 0.7874015748031497,
          "duration": 0.125
        },
        {
          "name": "F#2",
          "midi": 42,
          "time": 143.5,
          "velocity": 0.6299212598425197,
          "duration": 0.125
        },
        {
          "name": "B1",
          "midi": 35,
          "time": 143.75,
          "velocity": 0.6299212598425197,
          "duration": 0.125
        },
        {
          "name": "F#2",
          "midi": 42,
          "time": 143.75,
          "velocity": 0.6299212598425197,
          "duration": 0.125
        },
        {
          "name": "B1",
          "midi": 35,
          "time": 144,
          "velocity": 0.5511811023622047,
          "duration": 0.125
        },
        {
          "name": "F#2",
          "midi": 42,
          "time": 144,
          "velocity": 0.6299212598425197,
          "duration": 0.125
        },
        {
          "name": "F#2",
          "midi": 42,
          "time": 144.25,
          "velocity": 0.6299212598425197,
          "duration": 0.125
        },
        {
          "name": "D2",
          "midi": 38,
          "time": 144.5,
          "velocity": 0.7874015748031497,
          "duration": 0.125
        },
        {
          "name": "F#2",
          "midi": 42,
          "time": 144.5,
          "velocity": 0.6299212598425197,
          "duration": 0.125
        },
        {
          "name": "B1",
          "midi": 35,
          "time": 144.75,
          "velocity": 0.6299212598425197,
          "duration": 0.125
        },
        {
          "name": "F#2",
          "midi": 42,
          "time": 144.75,
          "velocity": 0.6299212598425197,
          "duration": 0.125
        },
        {
          "name": "B1",
          "midi": 35,
          "time": 145,
          "velocity": 0.6299212598425197,
          "duration": 0.125
        },
        {
          "name": "F#2",
          "midi": 42,
          "time": 145,
          "velocity": 0.6299212598425197,
          "duration": 0.125
        },
        {
          "name": "F#2",
          "midi": 42,
          "time": 145.25,
          "velocity": 0.6299212598425197,
          "duration": 0.125
        },
        {
          "name": "D2",
          "midi": 38,
          "time": 145.5,
          "velocity": 0.7874015748031497,
          "duration": 0.125
        },
        {
          "name": "F#2",
          "midi": 42,
          "time": 145.5,
          "velocity": 0.6299212598425197,
          "duration": 0.125
        },
        {
          "name": "B1",
          "midi": 35,
          "time": 145.75,
          "velocity": 0.6299212598425197,
          "duration": 0.125
        },
        {
          "name": "F#2",
          "midi": 42,
          "time": 145.75,
          "velocity": 0.6299212598425197,
          "duration": 0.125
        },
        {
          "name": "A#2",
          "midi": 46,
          "time": 145.875,
          "velocity": 0.7086614173228346,
          "duration": 0.125
        },
        {
          "name": "B1",
          "midi": 35,
          "time": 146,
          "velocity": 0.5511811023622047,
          "duration": 0.125
        },
        {
          "name": "F#2",
          "midi": 42,
          "time": 146,
          "velocity": 0.6299212598425197,
          "duration": 0.125
        },
        {
          "name": "F#2",
          "midi": 42,
          "time": 146.25,
          "velocity": 0.6299212598425197,
          "duration": 0.125
        },
        {
          "name": "D2",
          "midi": 38,
          "time": 146.5,
          "velocity": 0.7874015748031497,
          "duration": 0.125
        },
        {
          "name": "F#2",
          "midi": 42,
          "time": 146.5,
          "velocity": 0.6299212598425197,
          "duration": 0.125
        },
        {
          "name": "B1",
          "midi": 35,
          "time": 146.75,
          "velocity": 0.6299212598425197,
          "duration": 0.125
        },
        {
          "name": "F#2",
          "midi": 42,
          "time": 146.75,
          "velocity": 0.6299212598425197,
          "duration": 0.125
        },
        {
          "name": "B1",
          "midi": 35,
          "time": 147,
          "velocity": 0.6299212598425197,
          "duration": 0.125
        },
        {
          "name": "F#2",
          "midi": 42,
          "time": 147,
          "velocity": 0.6299212598425197,
          "duration": 0.125
        },
        {
          "name": "F#2",
          "midi": 42,
          "time": 147.25,
          "velocity": 0.6299212598425197,
          "duration": 0.125
        },
        {
          "name": "D2",
          "midi": 38,
          "time": 147.5,
          "velocity": 0.7874015748031497,
          "duration": 0.125
        },
        {
          "name": "F#2",
          "midi": 42,
          "time": 147.5,
          "velocity": 0.6299212598425197,
          "duration": 0.125
        },
        {
          "name": "B1",
          "midi": 35,
          "time": 147.75,
          "velocity": 0.6299212598425197,
          "duration": 0.125
        },
        {
          "name": "F#2",
          "midi": 42,
          "time": 147.75,
          "velocity": 0.6299212598425197,
          "duration": 0.125
        },
        {
          "name": "B1",
          "midi": 35,
          "time": 148,
          "velocity": 0.5511811023622047,
          "duration": 0.125
        },
        {
          "name": "F#2",
          "midi": 42,
          "time": 148,
          "velocity": 0.6299212598425197,
          "duration": 0.125
        },
        {
          "name": "F#2",
          "midi": 42,
          "time": 148.25,
          "velocity": 0.6299212598425197,
          "duration": 0.125
        },
        {
          "name": "D2",
          "midi": 38,
          "time": 148.5,
          "velocity": 0.7874015748031497,
          "duration": 0.125
        },
        {
          "name": "F#2",
          "midi": 42,
          "time": 148.5,
          "velocity": 0.6299212598425197,
          "duration": 0.125
        },
        {
          "name": "B1",
          "midi": 35,
          "time": 148.75,
          "velocity": 0.6299212598425197,
          "duration": 0.125
        },
        {
          "name": "F#2",
          "midi": 42,
          "time": 148.75,
          "velocity": 0.6299212598425197,
          "duration": 0.125
        },
        {
          "name": "B1",
          "midi": 35,
          "time": 149,
          "velocity": 0.6299212598425197,
          "duration": 0.125
        },
        {
          "name": "F#2",
          "midi": 42,
          "time": 149,
          "velocity": 0.6299212598425197,
          "duration": 0.125
        },
        {
          "name": "F#2",
          "midi": 42,
          "time": 149.25,
          "velocity": 0.6299212598425197,
          "duration": 0.125
        },
        {
          "name": "D2",
          "midi": 38,
          "time": 149.5,
          "velocity": 0.7874015748031497,
          "duration": 0.125
        },
        {
          "name": "F#2",
          "midi": 42,
          "time": 149.5,
          "velocity": 0.6299212598425197,
          "duration": 0.125
        },
        {
          "name": "B1",
          "midi": 35,
          "time": 149.75,
          "velocity": 0.6299212598425197,
          "duration": 0.125
        },
        {
          "name": "F#2",
          "midi": 42,
          "time": 149.75,
          "velocity": 0.6299212598425197,
          "duration": 0.125
        },
        {
          "name": "A#2",
          "midi": 46,
          "time": 149.875,
          "velocity": 0.7086614173228346,
          "duration": 0.125
        },
        {
          "name": "B1",
          "midi": 35,
          "time": 150,
          "velocity": 0.5511811023622047,
          "duration": 0.125
        },
        {
          "name": "F#2",
          "midi": 42,
          "time": 150,
          "velocity": 0.6299212598425197,
          "duration": 0.125
        },
        {
          "name": "F#2",
          "midi": 42,
          "time": 150.25,
          "velocity": 0.6299212598425197,
          "duration": 0.125
        },
        {
          "name": "D2",
          "midi": 38,
          "time": 150.5,
          "velocity": 0.7874015748031497,
          "duration": 0.125
        },
        {
          "name": "F#2",
          "midi": 42,
          "time": 150.5,
          "velocity": 0.6299212598425197,
          "duration": 0.125
        },
        {
          "name": "B1",
          "midi": 35,
          "time": 150.75,
          "velocity": 0.6299212598425197,
          "duration": 0.125
        },
        {
          "name": "F#2",
          "midi": 42,
          "time": 150.75,
          "velocity": 0.6299212598425197,
          "duration": 0.125
        },
        {
          "name": "B1",
          "midi": 35,
          "time": 151,
          "velocity": 0.6299212598425197,
          "duration": 0.125
        },
        {
          "name": "F#2",
          "midi": 42,
          "time": 151,
          "velocity": 0.6299212598425197,
          "duration": 0.125
        },
        {
          "name": "F#2",
          "midi": 42,
          "time": 151.25,
          "velocity": 0.6299212598425197,
          "duration": 0.125
        },
        {
          "name": "D2",
          "midi": 38,
          "time": 151.5,
          "velocity": 0.7874015748031497,
          "duration": 0.125
        },
        {
          "name": "F#2",
          "midi": 42,
          "time": 151.5,
          "velocity": 0.6299212598425197,
          "duration": 0.125
        },
        {
          "name": "B1",
          "midi": 35,
          "time": 151.75,
          "velocity": 0.6299212598425197,
          "duration": 0.125
        },
        {
          "name": "F#2",
          "midi": 42,
          "time": 151.75,
          "velocity": 0.6299212598425197,
          "duration": 0.125
        },
        {
          "name": "B1",
          "midi": 35,
          "time": 152,
          "velocity": 0.5511811023622047,
          "duration": 0.125
        },
        {
          "name": "F#2",
          "midi": 42,
          "time": 152,
          "velocity": 0.6299212598425197,
          "duration": 0.125
        },
        {
          "name": "F#2",
          "midi": 42,
          "time": 152.25,
          "velocity": 0.6299212598425197,
          "duration": 0.125
        },
        {
          "name": "D2",
          "midi": 38,
          "time": 152.5,
          "velocity": 0.7874015748031497,
          "duration": 0.125
        },
        {
          "name": "F#2",
          "midi": 42,
          "time": 152.5,
          "velocity": 0.6299212598425197,
          "duration": 0.125
        },
        {
          "name": "B1",
          "midi": 35,
          "time": 152.75,
          "velocity": 0.6299212598425197,
          "duration": 0.125
        },
        {
          "name": "F#2",
          "midi": 42,
          "time": 152.75,
          "velocity": 0.6299212598425197,
          "duration": 0.125
        },
        {
          "name": "B1",
          "midi": 35,
          "time": 153,
          "velocity": 0.6299212598425197,
          "duration": 0.125
        },
        {
          "name": "F#2",
          "midi": 42,
          "time": 153,
          "velocity": 0.6299212598425197,
          "duration": 0.125
        },
        {
          "name": "F#2",
          "midi": 42,
          "time": 153.25,
          "velocity": 0.6299212598425197,
          "duration": 0.125
        },
        {
          "name": "B1",
          "midi": 35,
          "time": 153.375,
          "velocity": 0.7874015748031497,
          "duration": 0.125
        },
        {
          "name": "D2",
          "midi": 38,
          "time": 153.5,
          "velocity": 0.7874015748031497,
          "duration": 0.125
        },
        {
          "name": "F#2",
          "midi": 42,
          "time": 153.5,
          "velocity": 0.6299212598425197,
          "duration": 0.125
        },
        {
          "name": "B1",
          "midi": 35,
          "time": 153.75,
          "velocity": 0.6299212598425197,
          "duration": 0.125
        },
        {
          "name": "D2",
          "midi": 38,
          "time": 153.75,
          "velocity": 0.7086614173228346,
          "duration": 0.125
        },
        {
          "name": "F#2",
          "midi": 42,
          "time": 153.75,
          "velocity": 0.6299212598425197,
          "duration": 0.125
        },
        {
          "name": "D2",
          "midi": 38,
          "time": 153.875,
          "velocity": 0.7086614173228346,
          "duration": 0.125
        },
        {
          "name": "A#2",
          "midi": 46,
          "time": 153.875,
          "velocity": 0.7086614173228346,
          "duration": 0.125
        },
        {
          "name": "B1",
          "midi": 35,
          "time": 154,
          "velocity": 0.5511811023622047,
          "duration": 0.125
        },
        {
          "name": "F#2",
          "midi": 42,
          "time": 154,
          "velocity": 0.6299212598425197,
          "duration": 0.125
        },
        {
          "name": "F#2",
          "midi": 42,
          "time": 154.25,
          "velocity": 0.6299212598425197,
          "duration": 0.125
        },
        {
          "name": "F#2",
          "midi": 42,
          "time": 154.5,
          "velocity": 0.6299212598425197,
          "duration": 0.125
        },
        {
          "name": "C#2",
          "midi": 37,
          "time": 154.5,
          "velocity": 0.7874015748031497,
          "duration": 0.125
        },
        {
          "name": "B1",
          "midi": 35,
          "time": 154.75,
          "velocity": 0.6299212598425197,
          "duration": 0.125
        },
        {
          "name": "F#2",
          "midi": 42,
          "time": 154.75,
          "velocity": 0.6299212598425197,
          "duration": 0.125
        },
        {
          "name": "B1",
          "midi": 35,
          "time": 155,
          "velocity": 0.6299212598425197,
          "duration": 0.125
        },
        {
          "name": "F#2",
          "midi": 42,
          "time": 155,
          "velocity": 0.6299212598425197,
          "duration": 0.125
        },
        {
          "name": "F#2",
          "midi": 42,
          "time": 155.25,
          "velocity": 0.6299212598425197,
          "duration": 0.125
        },
        {
          "name": "F#2",
          "midi": 42,
          "time": 155.5,
          "velocity": 0.6299212598425197,
          "duration": 0.125
        },
        {
          "name": "C#2",
          "midi": 37,
          "time": 155.5,
          "velocity": 0.7874015748031497,
          "duration": 0.125
        },
        {
          "name": "B1",
          "midi": 35,
          "time": 155.75,
          "velocity": 0.6299212598425197,
          "duration": 0.125
        },
        {
          "name": "F#2",
          "midi": 42,
          "time": 155.75,
          "velocity": 0.6299212598425197,
          "duration": 0.125
        },
        {
          "name": "A#2",
          "midi": 46,
          "time": 155.875,
          "velocity": 0.7086614173228346,
          "duration": 0.125
        },
        {
          "name": "B1",
          "midi": 35,
          "time": 156,
          "velocity": 0.5511811023622047,
          "duration": 0.125
        },
        {
          "name": "F#2",
          "midi": 42,
          "time": 156,
          "velocity": 0.6299212598425197,
          "duration": 0.125
        },
        {
          "name": "F#2",
          "midi": 42,
          "time": 156.25,
          "velocity": 0.6299212598425197,
          "duration": 0.125
        },
        {
          "name": "F#2",
          "midi": 42,
          "time": 156.5,
          "velocity": 0.6299212598425197,
          "duration": 0.125
        },
        {
          "name": "C#2",
          "midi": 37,
          "time": 156.5,
          "velocity": 0.7874015748031497,
          "duration": 0.125
        },
        {
          "name": "B1",
          "midi": 35,
          "time": 156.75,
          "velocity": 0.6299212598425197,
          "duration": 0.125
        },
        {
          "name": "F#2",
          "midi": 42,
          "time": 156.75,
          "velocity": 0.6299212598425197,
          "duration": 0.125
        },
        {
          "name": "B1",
          "midi": 35,
          "time": 157,
          "velocity": 0.6299212598425197,
          "duration": 0.125
        },
        {
          "name": "F#2",
          "midi": 42,
          "time": 157,
          "velocity": 0.6299212598425197,
          "duration": 0.125
        },
        {
          "name": "F#2",
          "midi": 42,
          "time": 157.25,
          "velocity": 0.6299212598425197,
          "duration": 0.125
        },
        {
          "name": "F#2",
          "midi": 42,
          "time": 157.5,
          "velocity": 0.6299212598425197,
          "duration": 0.125
        },
        {
          "name": "C#2",
          "midi": 37,
          "time": 157.5,
          "velocity": 0.7874015748031497,
          "duration": 0.125
        },
        {
          "name": "B1",
          "midi": 35,
          "time": 157.75,
          "velocity": 0.6299212598425197,
          "duration": 0.125
        },
        {
          "name": "F#2",
          "midi": 42,
          "time": 157.75,
          "velocity": 0.6299212598425197,
          "duration": 0.125
        },
        {
          "name": "B1",
          "midi": 35,
          "time": 158,
          "velocity": 0.5511811023622047,
          "duration": 0.125
        },
        {
          "name": "F#2",
          "midi": 42,
          "time": 158,
          "velocity": 0.6299212598425197,
          "duration": 0.125
        },
        {
          "name": "F#2",
          "midi": 42,
          "time": 158.25,
          "velocity": 0.6299212598425197,
          "duration": 0.125
        },
        {
          "name": "F#2",
          "midi": 42,
          "time": 158.5,
          "velocity": 0.6299212598425197,
          "duration": 0.125
        },
        {
          "name": "C#2",
          "midi": 37,
          "time": 158.5,
          "velocity": 0.7874015748031497,
          "duration": 0.125
        },
        {
          "name": "B1",
          "midi": 35,
          "time": 158.75,
          "velocity": 0.6299212598425197,
          "duration": 0.125
        },
        {
          "name": "F#2",
          "midi": 42,
          "time": 158.75,
          "velocity": 0.6299212598425197,
          "duration": 0.125
        },
        {
          "name": "B1",
          "midi": 35,
          "time": 159,
          "velocity": 0.6299212598425197,
          "duration": 0.125
        },
        {
          "name": "F#2",
          "midi": 42,
          "time": 159,
          "velocity": 0.6299212598425197,
          "duration": 0.125
        },
        {
          "name": "F#2",
          "midi": 42,
          "time": 159.25,
          "velocity": 0.6299212598425197,
          "duration": 0.125
        },
        {
          "name": "F#2",
          "midi": 42,
          "time": 159.5,
          "velocity": 0.6299212598425197,
          "duration": 0.125
        },
        {
          "name": "C#2",
          "midi": 37,
          "time": 159.5,
          "velocity": 0.7874015748031497,
          "duration": 0.125
        },
        {
          "name": "B1",
          "midi": 35,
          "time": 159.75,
          "velocity": 0.6299212598425197,
          "duration": 0.125
        },
        {
          "name": "F#2",
          "midi": 42,
          "time": 159.75,
          "velocity": 0.6299212598425197,
          "duration": 0.125
        },
        {
          "name": "B1",
          "midi": 35,
          "time": 160,
          "velocity": 0.5511811023622047,
          "duration": 0.125
        },
        {
          "name": "F#2",
          "midi": 42,
          "time": 160,
          "velocity": 0.6299212598425197,
          "duration": 0.125
        },
        {
          "name": "F#2",
          "midi": 42,
          "time": 160.25,
          "velocity": 0.6299212598425197,
          "duration": 0.125
        },
        {
          "name": "F#2",
          "midi": 42,
          "time": 160.5,
          "velocity": 0.6299212598425197,
          "duration": 0.125
        },
        {
          "name": "C#2",
          "midi": 37,
          "time": 160.5,
          "velocity": 0.7874015748031497,
          "duration": 0.125
        },
        {
          "name": "B1",
          "midi": 35,
          "time": 160.75,
          "velocity": 0.6299212598425197,
          "duration": 0.125
        },
        {
          "name": "F#2",
          "midi": 42,
          "time": 160.75,
          "velocity": 0.6299212598425197,
          "duration": 0.125
        },
        {
          "name": "B1",
          "midi": 35,
          "time": 161,
          "velocity": 0.6299212598425197,
          "duration": 0.125
        },
        {
          "name": "F#2",
          "midi": 42,
          "time": 161,
          "velocity": 0.6299212598425197,
          "duration": 0.125
        },
        {
          "name": "F#2",
          "midi": 42,
          "time": 161.25,
          "velocity": 0.6299212598425197,
          "duration": 0.125
        },
        {
          "name": "F#2",
          "midi": 42,
          "time": 161.5,
          "velocity": 0.6299212598425197,
          "duration": 0.125
        },
        {
          "name": "C#2",
          "midi": 37,
          "time": 161.5,
          "velocity": 0.7874015748031497,
          "duration": 0.125
        },
        {
          "name": "B1",
          "midi": 35,
          "time": 161.75,
          "velocity": 0.6299212598425197,
          "duration": 0.125
        },
        {
          "name": "F#2",
          "midi": 42,
          "time": 161.75,
          "velocity": 0.6299212598425197,
          "duration": 0.125
        },
        {
          "name": "A#2",
          "midi": 46,
          "time": 161.875,
          "velocity": 0.7086614173228346,
          "duration": 0.125
        },
        {
          "name": "B1",
          "midi": 35,
          "time": 162,
          "velocity": 0.5511811023622047,
          "duration": 0.125
        },
        {
          "name": "F#2",
          "midi": 42,
          "time": 162,
          "velocity": 0.6299212598425197,
          "duration": 0.125
        },
        {
          "name": "F#2",
          "midi": 42,
          "time": 162.25,
          "velocity": 0.6299212598425197,
          "duration": 0.125
        },
        {
          "name": "F#2",
          "midi": 42,
          "time": 162.5,
          "velocity": 0.6299212598425197,
          "duration": 0.125
        },
        {
          "name": "C#2",
          "midi": 37,
          "time": 162.5,
          "velocity": 0.7874015748031497,
          "duration": 0.125
        },
        {
          "name": "B1",
          "midi": 35,
          "time": 162.75,
          "velocity": 0.6299212598425197,
          "duration": 0.125
        },
        {
          "name": "F#2",
          "midi": 42,
          "time": 162.75,
          "velocity": 0.6299212598425197,
          "duration": 0.125
        },
        {
          "name": "B1",
          "midi": 35,
          "time": 163,
          "velocity": 0.6299212598425197,
          "duration": 0.125
        },
        {
          "name": "F#2",
          "midi": 42,
          "time": 163,
          "velocity": 0.6299212598425197,
          "duration": 0.125
        },
        {
          "name": "F#2",
          "midi": 42,
          "time": 163.25,
          "velocity": 0.6299212598425197,
          "duration": 0.125
        },
        {
          "name": "F#2",
          "midi": 42,
          "time": 163.5,
          "velocity": 0.6299212598425197,
          "duration": 0.125
        },
        {
          "name": "C#2",
          "midi": 37,
          "time": 163.5,
          "velocity": 0.7874015748031497,
          "duration": 0.125
        },
        {
          "name": "B1",
          "midi": 35,
          "time": 163.75,
          "velocity": 0.6299212598425197,
          "duration": 0.125
        },
        {
          "name": "F#2",
          "midi": 42,
          "time": 163.75,
          "velocity": 0.6299212598425197,
          "duration": 0.125
        },
        {
          "name": "A#2",
          "midi": 46,
          "time": 163.875,
          "velocity": 0.7086614173228346,
          "duration": 0.125
        },
        {
          "name": "B1",
          "midi": 35,
          "time": 164,
          "velocity": 0.5511811023622047,
          "duration": 0.125
        },
        {
          "name": "F#2",
          "midi": 42,
          "time": 164,
          "velocity": 0.6299212598425197,
          "duration": 0.125
        },
        {
          "name": "F#2",
          "midi": 42,
          "time": 164.25,
          "velocity": 0.6299212598425197,
          "duration": 0.125
        },
        {
          "name": "F#2",
          "midi": 42,
          "time": 164.5,
          "velocity": 0.6299212598425197,
          "duration": 0.125
        },
        {
          "name": "C#2",
          "midi": 37,
          "time": 164.5,
          "velocity": 0.7874015748031497,
          "duration": 0.125
        },
        {
          "name": "B1",
          "midi": 35,
          "time": 164.75,
          "velocity": 0.6299212598425197,
          "duration": 0.125
        },
        {
          "name": "F#2",
          "midi": 42,
          "time": 164.75,
          "velocity": 0.6299212598425197,
          "duration": 0.125
        },
        {
          "name": "B1",
          "midi": 35,
          "time": 165,
          "velocity": 0.6299212598425197,
          "duration": 0.125
        },
        {
          "name": "F#2",
          "midi": 42,
          "time": 165,
          "velocity": 0.6299212598425197,
          "duration": 0.125
        },
        {
          "name": "F#2",
          "midi": 42,
          "time": 165.25,
          "velocity": 0.6299212598425197,
          "duration": 0.125
        },
        {
          "name": "F#2",
          "midi": 42,
          "time": 165.5,
          "velocity": 0.6299212598425197,
          "duration": 0.125
        },
        {
          "name": "C#2",
          "midi": 37,
          "time": 165.5,
          "velocity": 0.7874015748031497,
          "duration": 0.125
        },
        {
          "name": "B1",
          "midi": 35,
          "time": 165.75,
          "velocity": 0.6299212598425197,
          "duration": 0.125
        },
        {
          "name": "F#2",
          "midi": 42,
          "time": 165.75,
          "velocity": 0.6299212598425197,
          "duration": 0.125
        },
        {
          "name": "B1",
          "midi": 35,
          "time": 166,
          "velocity": 0.5511811023622047,
          "duration": 0.125
        },
        {
          "name": "F#2",
          "midi": 42,
          "time": 166,
          "velocity": 0.6299212598425197,
          "duration": 0.125
        },
        {
          "name": "F#2",
          "midi": 42,
          "time": 166.25,
          "velocity": 0.6299212598425197,
          "duration": 0.125
        },
        {
          "name": "F#2",
          "midi": 42,
          "time": 166.5,
          "velocity": 0.6299212598425197,
          "duration": 0.125
        },
        {
          "name": "C#2",
          "midi": 37,
          "time": 166.5,
          "velocity": 0.7874015748031497,
          "duration": 0.125
        },
        {
          "name": "B1",
          "midi": 35,
          "time": 166.75,
          "velocity": 0.6299212598425197,
          "duration": 0.125
        },
        {
          "name": "F#2",
          "midi": 42,
          "time": 166.75,
          "velocity": 0.6299212598425197,
          "duration": 0.125
        },
        {
          "name": "B1",
          "midi": 35,
          "time": 167,
          "velocity": 0.6299212598425197,
          "duration": 0.125
        },
        {
          "name": "F#2",
          "midi": 42,
          "time": 167,
          "velocity": 0.6299212598425197,
          "duration": 0.125
        },
        {
          "name": "F#2",
          "midi": 42,
          "time": 167.25,
          "velocity": 0.6299212598425197,
          "duration": 0.125
        },
        {
          "name": "F#2",
          "midi": 42,
          "time": 167.5,
          "velocity": 0.6299212598425197,
          "duration": 0.125
        },
        {
          "name": "C#2",
          "midi": 37,
          "time": 167.5,
          "velocity": 0.7874015748031497,
          "duration": 0.125
        },
        {
          "name": "B1",
          "midi": 35,
          "time": 167.75,
          "velocity": 0.6299212598425197,
          "duration": 0.125
        },
        {
          "name": "F#2",
          "midi": 42,
          "time": 167.75,
          "velocity": 0.6299212598425197,
          "duration": 0.125
        },
        {
          "name": "B1",
          "midi": 35,
          "time": 168,
          "velocity": 0.5511811023622047,
          "duration": 0.125
        },
        {
          "name": "F#2",
          "midi": 42,
          "time": 168,
          "velocity": 0.6299212598425197,
          "duration": 0.125
        },
        {
          "name": "F#2",
          "midi": 42,
          "time": 168.25,
          "velocity": 0.6299212598425197,
          "duration": 0.125
        },
        {
          "name": "D2",
          "midi": 38,
          "time": 168.5,
          "velocity": 0.7874015748031497,
          "duration": 0.125
        },
        {
          "name": "F#2",
          "midi": 42,
          "time": 168.5,
          "velocity": 0.6299212598425197,
          "duration": 0.125
        },
        {
          "name": "B1",
          "midi": 35,
          "time": 168.75,
          "velocity": 0.6299212598425197,
          "duration": 0.125
        },
        {
          "name": "F#2",
          "midi": 42,
          "time": 168.75,
          "velocity": 0.6299212598425197,
          "duration": 0.125
        },
        {
          "name": "B1",
          "midi": 35,
          "time": 169,
          "velocity": 0.6299212598425197,
          "duration": 0.125
        },
        {
          "name": "F#2",
          "midi": 42,
          "time": 169,
          "velocity": 0.6299212598425197,
          "duration": 0.125
        },
        {
          "name": "F#2",
          "midi": 42,
          "time": 169.25,
          "velocity": 0.6299212598425197,
          "duration": 0.125
        },
        {
          "name": "B1",
          "midi": 35,
          "time": 169.375,
          "velocity": 0.7874015748031497,
          "duration": 0.125
        },
        {
          "name": "D2",
          "midi": 38,
          "time": 169.5,
          "velocity": 0.7874015748031497,
          "duration": 0.125
        },
        {
          "name": "F#2",
          "midi": 42,
          "time": 169.5,
          "velocity": 0.6299212598425197,
          "duration": 0.125
        },
        {
          "name": "B1",
          "midi": 35,
          "time": 169.75,
          "velocity": 0.6299212598425197,
          "duration": 0.125
        },
        {
          "name": "D2",
          "midi": 38,
          "time": 169.75,
          "velocity": 0.7086614173228346,
          "duration": 0.125
        },
        {
          "name": "F#2",
          "midi": 42,
          "time": 169.75,
          "velocity": 0.6299212598425197,
          "duration": 0.125
        },
        {
          "name": "D2",
          "midi": 38,
          "time": 169.875,
          "velocity": 0.7086614173228346,
          "duration": 0.125
        },
        {
          "name": "A#2",
          "midi": 46,
          "time": 169.875,
          "velocity": 0.7086614173228346,
          "duration": 0.125
        },
        {
          "name": "B1",
          "midi": 35,
          "time": 170,
          "velocity": 0.5511811023622047,
          "duration": 0.125
        },
        {
          "name": "F#2",
          "midi": 42,
          "time": 170,
          "velocity": 0.6299212598425197,
          "duration": 0.125
        },
        {
          "name": "F#2",
          "midi": 42,
          "time": 170.25,
          "velocity": 0.6299212598425197,
          "duration": 0.125
        },
        {
          "name": "F#2",
          "midi": 42,
          "time": 170.5,
          "velocity": 0.6299212598425197,
          "duration": 0.125
        },
        {
          "name": "C#2",
          "midi": 37,
          "time": 170.5,
          "velocity": 0.7874015748031497,
          "duration": 0.125
        },
        {
          "name": "B1",
          "midi": 35,
          "time": 170.75,
          "velocity": 0.6299212598425197,
          "duration": 0.125
        },
        {
          "name": "F#2",
          "midi": 42,
          "time": 170.75,
          "velocity": 0.6299212598425197,
          "duration": 0.125
        },
        {
          "name": "B1",
          "midi": 35,
          "time": 171,
          "velocity": 0.6299212598425197,
          "duration": 0.125
        },
        {
          "name": "F#2",
          "midi": 42,
          "time": 171,
          "velocity": 0.6299212598425197,
          "duration": 0.125
        },
        {
          "name": "F#2",
          "midi": 42,
          "time": 171.25,
          "velocity": 0.6299212598425197,
          "duration": 0.125
        },
        {
          "name": "F#2",
          "midi": 42,
          "time": 171.5,
          "velocity": 0.6299212598425197,
          "duration": 0.125
        },
        {
          "name": "C#2",
          "midi": 37,
          "time": 171.5,
          "velocity": 0.7874015748031497,
          "duration": 0.125
        },
        {
          "name": "B1",
          "midi": 35,
          "time": 171.75,
          "velocity": 0.6299212598425197,
          "duration": 0.125
        },
        {
          "name": "F#2",
          "midi": 42,
          "time": 171.75,
          "velocity": 0.6299212598425197,
          "duration": 0.125
        },
        {
          "name": "B1",
          "midi": 35,
          "time": 172,
          "velocity": 0.5511811023622047,
          "duration": 0.125
        },
        {
          "name": "F#2",
          "midi": 42,
          "time": 172,
          "velocity": 0.6299212598425197,
          "duration": 0.125
        },
        {
          "name": "F#2",
          "midi": 42,
          "time": 172.25,
          "velocity": 0.6299212598425197,
          "duration": 0.125
        },
        {
          "name": "F#2",
          "midi": 42,
          "time": 172.5,
          "velocity": 0.6299212598425197,
          "duration": 0.125
        },
        {
          "name": "C#2",
          "midi": 37,
          "time": 172.5,
          "velocity": 0.7874015748031497,
          "duration": 0.125
        },
        {
          "name": "B1",
          "midi": 35,
          "time": 172.75,
          "velocity": 0.6299212598425197,
          "duration": 0.125
        },
        {
          "name": "F#2",
          "midi": 42,
          "time": 172.75,
          "velocity": 0.6299212598425197,
          "duration": 0.125
        },
        {
          "name": "B1",
          "midi": 35,
          "time": 173,
          "velocity": 0.6299212598425197,
          "duration": 0.125
        },
        {
          "name": "F#2",
          "midi": 42,
          "time": 173,
          "velocity": 0.6299212598425197,
          "duration": 0.125
        },
        {
          "name": "F#2",
          "midi": 42,
          "time": 173.25,
          "velocity": 0.6299212598425197,
          "duration": 0.125
        },
        {
          "name": "F#2",
          "midi": 42,
          "time": 173.5,
          "velocity": 0.6299212598425197,
          "duration": 0.125
        },
        {
          "name": "C#2",
          "midi": 37,
          "time": 173.5,
          "velocity": 0.7874015748031497,
          "duration": 0.125
        },
        {
          "name": "B1",
          "midi": 35,
          "time": 173.75,
          "velocity": 0.6299212598425197,
          "duration": 0.125
        },
        {
          "name": "F#2",
          "midi": 42,
          "time": 173.75,
          "velocity": 0.6299212598425197,
          "duration": 0.125
        },
        {
          "name": "B1",
          "midi": 35,
          "time": 174,
          "velocity": 0.5511811023622047,
          "duration": 0.125
        },
        {
          "name": "F#2",
          "midi": 42,
          "time": 174,
          "velocity": 0.6299212598425197,
          "duration": 0.125
        },
        {
          "name": "F#2",
          "midi": 42,
          "time": 174.25,
          "velocity": 0.6299212598425197,
          "duration": 0.125
        },
        {
          "name": "F#2",
          "midi": 42,
          "time": 174.5,
          "velocity": 0.6299212598425197,
          "duration": 0.125
        },
        {
          "name": "C#2",
          "midi": 37,
          "time": 174.5,
          "velocity": 0.7874015748031497,
          "duration": 0.125
        },
        {
          "name": "B1",
          "midi": 35,
          "time": 174.75,
          "velocity": 0.6299212598425197,
          "duration": 0.125
        },
        {
          "name": "F#2",
          "midi": 42,
          "time": 174.75,
          "velocity": 0.6299212598425197,
          "duration": 0.125
        },
        {
          "name": "B1",
          "midi": 35,
          "time": 175,
          "velocity": 0.6299212598425197,
          "duration": 0.125
        },
        {
          "name": "F#2",
          "midi": 42,
          "time": 175,
          "velocity": 0.6299212598425197,
          "duration": 0.125
        },
        {
          "name": "F#2",
          "midi": 42,
          "time": 175.25,
          "velocity": 0.6299212598425197,
          "duration": 0.125
        },
        {
          "name": "F#2",
          "midi": 42,
          "time": 175.5,
          "velocity": 0.6299212598425197,
          "duration": 0.125
        },
        {
          "name": "C#2",
          "midi": 37,
          "time": 175.5,
          "velocity": 0.7874015748031497,
          "duration": 0.125
        },
        {
          "name": "B1",
          "midi": 35,
          "time": 175.75,
          "velocity": 0.6299212598425197,
          "duration": 0.125
        },
        {
          "name": "F#2",
          "midi": 42,
          "time": 175.75,
          "velocity": 0.6299212598425197,
          "duration": 0.125
        },
        {
          "name": "A#2",
          "midi": 46,
          "time": 175.875,
          "velocity": 0.7086614173228346,
          "duration": 0.125
        },
        {
          "name": "B1",
          "midi": 35,
          "time": 176,
          "velocity": 0.5511811023622047,
          "duration": 0.125
        },
        {
          "name": "F#2",
          "midi": 42,
          "time": 176,
          "velocity": 0.6299212598425197,
          "duration": 0.125
        },
        {
          "name": "F#2",
          "midi": 42,
          "time": 176.25,
          "velocity": 0.6299212598425197,
          "duration": 0.125
        },
        {
          "name": "F#2",
          "midi": 42,
          "time": 176.5,
          "velocity": 0.6299212598425197,
          "duration": 0.125
        },
        {
          "name": "C#2",
          "midi": 37,
          "time": 176.5,
          "velocity": 0.7874015748031497,
          "duration": 0.125
        },
        {
          "name": "B1",
          "midi": 35,
          "time": 176.75,
          "velocity": 0.6299212598425197,
          "duration": 0.125
        },
        {
          "name": "F#2",
          "midi": 42,
          "time": 176.75,
          "velocity": 0.6299212598425197,
          "duration": 0.125
        },
        {
          "name": "B1",
          "midi": 35,
          "time": 177,
          "velocity": 0.6299212598425197,
          "duration": 0.125
        },
        {
          "name": "F#2",
          "midi": 42,
          "time": 177,
          "velocity": 0.6299212598425197,
          "duration": 0.125
        },
        {
          "name": "F#2",
          "midi": 42,
          "time": 177.25,
          "velocity": 0.6299212598425197,
          "duration": 0.125
        },
        {
          "name": "F#2",
          "midi": 42,
          "time": 177.5,
          "velocity": 0.6299212598425197,
          "duration": 0.125
        },
        {
          "name": "C#2",
          "midi": 37,
          "time": 177.5,
          "velocity": 0.7874015748031497,
          "duration": 0.125
        },
        {
          "name": "B1",
          "midi": 35,
          "time": 177.75,
          "velocity": 0.6299212598425197,
          "duration": 0.125
        },
        {
          "name": "F#2",
          "midi": 42,
          "time": 177.75,
          "velocity": 0.6299212598425197,
          "duration": 0.125
        },
        {
          "name": "A#2",
          "midi": 46,
          "time": 177.875,
          "velocity": 0.7086614173228346,
          "duration": 0.125
        },
        {
          "name": "B1",
          "midi": 35,
          "time": 178,
          "velocity": 0.5511811023622047,
          "duration": 0.125
        },
        {
          "name": "F#2",
          "midi": 42,
          "time": 178,
          "velocity": 0.6299212598425197,
          "duration": 0.125
        },
        {
          "name": "F#2",
          "midi": 42,
          "time": 178.25,
          "velocity": 0.6299212598425197,
          "duration": 0.125
        },
        {
          "name": "F#2",
          "midi": 42,
          "time": 178.5,
          "velocity": 0.6299212598425197,
          "duration": 0.125
        },
        {
          "name": "C#2",
          "midi": 37,
          "time": 178.5,
          "velocity": 0.7874015748031497,
          "duration": 0.125
        },
        {
          "name": "B1",
          "midi": 35,
          "time": 178.75,
          "velocity": 0.6299212598425197,
          "duration": 0.125
        },
        {
          "name": "F#2",
          "midi": 42,
          "time": 178.75,
          "velocity": 0.6299212598425197,
          "duration": 0.125
        },
        {
          "name": "B1",
          "midi": 35,
          "time": 179,
          "velocity": 0.6299212598425197,
          "duration": 0.125
        },
        {
          "name": "F#2",
          "midi": 42,
          "time": 179,
          "velocity": 0.6299212598425197,
          "duration": 0.125
        },
        {
          "name": "F#2",
          "midi": 42,
          "time": 179.25,
          "velocity": 0.6299212598425197,
          "duration": 0.125
        },
        {
          "name": "F#2",
          "midi": 42,
          "time": 179.5,
          "velocity": 0.6299212598425197,
          "duration": 0.125
        },
        {
          "name": "C#2",
          "midi": 37,
          "time": 179.5,
          "velocity": 0.7874015748031497,
          "duration": 0.125
        },
        {
          "name": "B1",
          "midi": 35,
          "time": 179.75,
          "velocity": 0.6299212598425197,
          "duration": 0.125
        },
        {
          "name": "F#2",
          "midi": 42,
          "time": 179.75,
          "velocity": 0.6299212598425197,
          "duration": 0.125
        },
        {
          "name": "B1",
          "midi": 35,
          "time": 180,
          "velocity": 0.5511811023622047,
          "duration": 0.125
        },
        {
          "name": "F#2",
          "midi": 42,
          "time": 180,
          "velocity": 0.6299212598425197,
          "duration": 0.125
        },
        {
          "name": "F#2",
          "midi": 42,
          "time": 180.25,
          "velocity": 0.6299212598425197,
          "duration": 0.125
        },
        {
          "name": "F#2",
          "midi": 42,
          "time": 180.5,
          "velocity": 0.6299212598425197,
          "duration": 0.125
        },
        {
          "name": "C#2",
          "midi": 37,
          "time": 180.5,
          "velocity": 0.7874015748031497,
          "duration": 0.125
        },
        {
          "name": "B1",
          "midi": 35,
          "time": 180.75,
          "velocity": 0.6299212598425197,
          "duration": 0.125
        },
        {
          "name": "F#2",
          "midi": 42,
          "time": 180.75,
          "velocity": 0.6299212598425197,
          "duration": 0.125
        },
        {
          "name": "B1",
          "midi": 35,
          "time": 181,
          "velocity": 0.6299212598425197,
          "duration": 0.125
        },
        {
          "name": "F#2",
          "midi": 42,
          "time": 181,
          "velocity": 0.6299212598425197,
          "duration": 0.125
        },
        {
          "name": "F#2",
          "midi": 42,
          "time": 181.25,
          "velocity": 0.6299212598425197,
          "duration": 0.125
        },
        {
          "name": "F#2",
          "midi": 42,
          "time": 181.5,
          "velocity": 0.6299212598425197,
          "duration": 0.125
        },
        {
          "name": "C#2",
          "midi": 37,
          "time": 181.5,
          "velocity": 0.7874015748031497,
          "duration": 0.125
        },
        {
          "name": "B1",
          "midi": 35,
          "time": 181.75,
          "velocity": 0.6299212598425197,
          "duration": 0.125
        },
        {
          "name": "F#2",
          "midi": 42,
          "time": 181.75,
          "velocity": 0.6299212598425197,
          "duration": 0.125
        },
        {
          "name": "B1",
          "midi": 35,
          "time": 182,
          "velocity": 0.5511811023622047,
          "duration": 0.125
        },
        {
          "name": "F#2",
          "midi": 42,
          "time": 182,
          "velocity": 0.6299212598425197,
          "duration": 0.125
        },
        {
          "name": "F#2",
          "midi": 42,
          "time": 182.25,
          "velocity": 0.6299212598425197,
          "duration": 0.125
        },
        {
          "name": "F#2",
          "midi": 42,
          "time": 182.5,
          "velocity": 0.6299212598425197,
          "duration": 0.125
        },
        {
          "name": "C#2",
          "midi": 37,
          "time": 182.5,
          "velocity": 0.7874015748031497,
          "duration": 0.125
        },
        {
          "name": "B1",
          "midi": 35,
          "time": 182.75,
          "velocity": 0.6299212598425197,
          "duration": 0.125
        },
        {
          "name": "F#2",
          "midi": 42,
          "time": 182.75,
          "velocity": 0.6299212598425197,
          "duration": 0.125
        },
        {
          "name": "B1",
          "midi": 35,
          "time": 183,
          "velocity": 0.6299212598425197,
          "duration": 0.125
        },
        {
          "name": "F#2",
          "midi": 42,
          "time": 183,
          "velocity": 0.6299212598425197,
          "duration": 0.125
        },
        {
          "name": "F#2",
          "midi": 42,
          "time": 183.25,
          "velocity": 0.6299212598425197,
          "duration": 0.125
        },
        {
          "name": "F#2",
          "midi": 42,
          "time": 183.5,
          "velocity": 0.6299212598425197,
          "duration": 0.125
        },
        {
          "name": "C#2",
          "midi": 37,
          "time": 183.5,
          "velocity": 0.7874015748031497,
          "duration": 0.125
        },
        {
          "name": "B1",
          "midi": 35,
          "time": 183.75,
          "velocity": 0.6299212598425197,
          "duration": 0.125
        },
        {
          "name": "F#2",
          "midi": 42,
          "time": 183.75,
          "velocity": 0.6299212598425197,
          "duration": 0.125
        },
        {
          "name": "B1",
          "midi": 35,
          "time": 184,
          "velocity": 0.5511811023622047,
          "duration": 0.125
        },
        {
          "name": "F#2",
          "midi": 42,
          "time": 184,
          "velocity": 0.6299212598425197,
          "duration": 0.125
        },
        {
          "name": "F#2",
          "midi": 42,
          "time": 184.25,
          "velocity": 0.6299212598425197,
          "duration": 0.125
        },
        {
          "name": "F#2",
          "midi": 42,
          "time": 184.5,
          "velocity": 0.6299212598425197,
          "duration": 0.125
        },
        {
          "name": "C#2",
          "midi": 37,
          "time": 184.5,
          "velocity": 0.7874015748031497,
          "duration": 0.125
        },
        {
          "name": "B1",
          "midi": 35,
          "time": 184.75,
          "velocity": 0.6299212598425197,
          "duration": 0.125
        },
        {
          "name": "F#2",
          "midi": 42,
          "time": 184.75,
          "velocity": 0.6299212598425197,
          "duration": 0.125
        },
        {
          "name": "B1",
          "midi": 35,
          "time": 185,
          "velocity": 0.6299212598425197,
          "duration": 0.125
        },
        {
          "name": "F#2",
          "midi": 42,
          "time": 185,
          "velocity": 0.6299212598425197,
          "duration": 0.125
        },
        {
          "name": "F#2",
          "midi": 42,
          "time": 185.25,
          "velocity": 0.6299212598425197,
          "duration": 0.125
        },
        {
          "name": "F#2",
          "midi": 42,
          "time": 185.5,
          "velocity": 0.6299212598425197,
          "duration": 0.125
        },
        {
          "name": "C#2",
          "midi": 37,
          "time": 185.5,
          "velocity": 0.7874015748031497,
          "duration": 0.125
        },
        {
          "name": "B1",
          "midi": 35,
          "time": 185.75,
          "velocity": 0.6299212598425197,
          "duration": 0.125
        },
        {
          "name": "F#2",
          "midi": 42,
          "time": 185.75,
          "velocity": 0.6299212598425197,
          "duration": 0.125
        },
        {
          "name": "A#2",
          "midi": 46,
          "time": 185.875,
          "velocity": 0.7086614173228346,
          "duration": 0.125
        },
        {
          "name": "B1",
          "midi": 35,
          "time": 186,
          "velocity": 0.5511811023622047,
          "duration": 0.125
        },
        {
          "name": "F#2",
          "midi": 42,
          "time": 186,
          "velocity": 0.6299212598425197,
          "duration": 0.125
        },
        {
          "name": "F#2",
          "midi": 42,
          "time": 186.25,
          "velocity": 0.6299212598425197,
          "duration": 0.125
        },
        {
          "name": "F#2",
          "midi": 42,
          "time": 186.5,
          "velocity": 0.6299212598425197,
          "duration": 0.125
        },
        {
          "name": "C#2",
          "midi": 37,
          "time": 186.5,
          "velocity": 0.7874015748031497,
          "duration": 0.125
        },
        {
          "name": "B1",
          "midi": 35,
          "time": 186.75,
          "velocity": 0.6299212598425197,
          "duration": 0.125
        },
        {
          "name": "F#2",
          "midi": 42,
          "time": 186.75,
          "velocity": 0.6299212598425197,
          "duration": 0.125
        },
        {
          "name": "B1",
          "midi": 35,
          "time": 187,
          "velocity": 0.6299212598425197,
          "duration": 0.125
        },
        {
          "name": "F#2",
          "midi": 42,
          "time": 187,
          "velocity": 0.6299212598425197,
          "duration": 0.125
        },
        {
          "name": "F#2",
          "midi": 42,
          "time": 187.25,
          "velocity": 0.6299212598425197,
          "duration": 0.125
        },
        {
          "name": "F#2",
          "midi": 42,
          "time": 187.5,
          "velocity": 0.6299212598425197,
          "duration": 0.125
        },
        {
          "name": "C#2",
          "midi": 37,
          "time": 187.5,
          "velocity": 0.7874015748031497,
          "duration": 0.125
        },
        {
          "name": "B1",
          "midi": 35,
          "time": 187.75,
          "velocity": 0.6299212598425197,
          "duration": 0.125
        },
        {
          "name": "F#2",
          "midi": 42,
          "time": 187.75,
          "velocity": 0.6299212598425197,
          "duration": 0.125
        },
        {
          "name": "A#2",
          "midi": 46,
          "time": 187.875,
          "velocity": 0.7086614173228346,
          "duration": 0.125
        },
        {
          "name": "B1",
          "midi": 35,
          "time": 188,
          "velocity": 0.5511811023622047,
          "duration": 0.125
        },
        {
          "name": "F#2",
          "midi": 42,
          "time": 188,
          "velocity": 0.6299212598425197,
          "duration": 0.125
        },
        {
          "name": "F#2",
          "midi": 42,
          "time": 188.25,
          "velocity": 0.6299212598425197,
          "duration": 0.125
        },
        {
          "name": "F#2",
          "midi": 42,
          "time": 188.5,
          "velocity": 0.6299212598425197,
          "duration": 0.125
        },
        {
          "name": "C#2",
          "midi": 37,
          "time": 188.5,
          "velocity": 0.7874015748031497,
          "duration": 0.125
        },
        {
          "name": "B1",
          "midi": 35,
          "time": 188.75,
          "velocity": 0.6299212598425197,
          "duration": 0.125
        },
        {
          "name": "F#2",
          "midi": 42,
          "time": 188.75,
          "velocity": 0.6299212598425197,
          "duration": 0.125
        },
        {
          "name": "B1",
          "midi": 35,
          "time": 189,
          "velocity": 0.6299212598425197,
          "duration": 0.125
        },
        {
          "name": "F#2",
          "midi": 42,
          "time": 189,
          "velocity": 0.6299212598425197,
          "duration": 0.125
        },
        {
          "name": "F#2",
          "midi": 42,
          "time": 189.25,
          "velocity": 0.6299212598425197,
          "duration": 0.125
        },
        {
          "name": "F#2",
          "midi": 42,
          "time": 189.5,
          "velocity": 0.6299212598425197,
          "duration": 0.125
        },
        {
          "name": "C#2",
          "midi": 37,
          "time": 189.5,
          "velocity": 0.7874015748031497,
          "duration": 0.125
        },
        {
          "name": "B1",
          "midi": 35,
          "time": 189.75,
          "velocity": 0.6299212598425197,
          "duration": 0.125
        },
        {
          "name": "F#2",
          "midi": 42,
          "time": 189.75,
          "velocity": 0.6299212598425197,
          "duration": 0.125
        },
        {
          "name": "A#2",
          "midi": 46,
          "time": 189.875,
          "velocity": 0.7086614173228346,
          "duration": 0.125
        },
        {
          "name": "B1",
          "midi": 35,
          "time": 190,
          "velocity": 0.5511811023622047,
          "duration": 0.125
        },
        {
          "name": "F#2",
          "midi": 42,
          "time": 190,
          "velocity": 0.6299212598425197,
          "duration": 0.125
        },
        {
          "name": "F#2",
          "midi": 42,
          "time": 190.25,
          "velocity": 0.6299212598425197,
          "duration": 0.125
        },
        {
          "name": "F#2",
          "midi": 42,
          "time": 190.5,
          "velocity": 0.6299212598425197,
          "duration": 0.125
        },
        {
          "name": "C#2",
          "midi": 37,
          "time": 190.5,
          "velocity": 0.7874015748031497,
          "duration": 0.125
        },
        {
          "name": "B1",
          "midi": 35,
          "time": 190.75,
          "velocity": 0.6299212598425197,
          "duration": 0.125
        },
        {
          "name": "F#2",
          "midi": 42,
          "time": 190.75,
          "velocity": 0.6299212598425197,
          "duration": 0.125
        },
        {
          "name": "B1",
          "midi": 35,
          "time": 191,
          "velocity": 0.6299212598425197,
          "duration": 0.125
        },
        {
          "name": "F#2",
          "midi": 42,
          "time": 191,
          "velocity": 0.6299212598425197,
          "duration": 0.125
        },
        {
          "name": "F#2",
          "midi": 42,
          "time": 191.25,
          "velocity": 0.6299212598425197,
          "duration": 0.125
        },
        {
          "name": "F#2",
          "midi": 42,
          "time": 191.5,
          "velocity": 0.6299212598425197,
          "duration": 0.125
        },
        {
          "name": "C#2",
          "midi": 37,
          "time": 191.5,
          "velocity": 0.7874015748031497,
          "duration": 0.125
        },
        {
          "name": "B1",
          "midi": 35,
          "time": 191.75,
          "velocity": 0.6299212598425197,
          "duration": 0.125
        },
        {
          "name": "F#2",
          "midi": 42,
          "time": 191.75,
          "velocity": 0.6299212598425197,
          "duration": 0.125
        },
        {
          "name": "A#2",
          "midi": 46,
          "time": 191.875,
          "velocity": 0.7086614173228346,
          "duration": 0.125
        },
        {
          "name": "B1",
          "midi": 35,
          "time": 192,
          "velocity": 0.5511811023622047,
          "duration": 0.125
        },
        {
          "name": "F#2",
          "midi": 42,
          "time": 192,
          "velocity": 0.6299212598425197,
          "duration": 0.125
        },
        {
          "name": "F#2",
          "midi": 42,
          "time": 192.25,
          "velocity": 0.6299212598425197,
          "duration": 0.125
        },
        {
          "name": "F#2",
          "midi": 42,
          "time": 192.5,
          "velocity": 0.6299212598425197,
          "duration": 0.125
        },
        {
          "name": "C#2",
          "midi": 37,
          "time": 192.5,
          "velocity": 0.7874015748031497,
          "duration": 0.125
        },
        {
          "name": "B1",
          "midi": 35,
          "time": 192.75,
          "velocity": 0.6299212598425197,
          "duration": 0.125
        },
        {
          "name": "F#2",
          "midi": 42,
          "time": 192.75,
          "velocity": 0.6299212598425197,
          "duration": 0.125
        },
        {
          "name": "B1",
          "midi": 35,
          "time": 193,
          "velocity": 0.6299212598425197,
          "duration": 0.125
        },
        {
          "name": "F#2",
          "midi": 42,
          "time": 193,
          "velocity": 0.6299212598425197,
          "duration": 0.125
        },
        {
          "name": "F#2",
          "midi": 42,
          "time": 193.25,
          "velocity": 0.6299212598425197,
          "duration": 0.125
        },
        {
          "name": "F#2",
          "midi": 42,
          "time": 193.5,
          "velocity": 0.6299212598425197,
          "duration": 0.125
        },
        {
          "name": "C#2",
          "midi": 37,
          "time": 193.5,
          "velocity": 0.7874015748031497,
          "duration": 0.125
        },
        {
          "name": "B1",
          "midi": 35,
          "time": 193.75,
          "velocity": 0.6299212598425197,
          "duration": 0.125
        },
        {
          "name": "F#2",
          "midi": 42,
          "time": 193.75,
          "velocity": 0.6299212598425197,
          "duration": 0.125
        },
        {
          "name": "A#2",
          "midi": 46,
          "time": 193.875,
          "velocity": 0.7086614173228346,
          "duration": 0.125
        },
        {
          "name": "B1",
          "midi": 35,
          "time": 194,
          "velocity": 0.5511811023622047,
          "duration": 0.125
        },
        {
          "name": "F#2",
          "midi": 42,
          "time": 194,
          "velocity": 0.6299212598425197,
          "duration": 0.125
        },
        {
          "name": "F#2",
          "midi": 42,
          "time": 194.25,
          "velocity": 0.6299212598425197,
          "duration": 0.125
        },
        {
          "name": "F#2",
          "midi": 42,
          "time": 194.5,
          "velocity": 0.6299212598425197,
          "duration": 0.125
        },
        {
          "name": "C#2",
          "midi": 37,
          "time": 194.5,
          "velocity": 0.7874015748031497,
          "duration": 0.125
        },
        {
          "name": "B1",
          "midi": 35,
          "time": 194.75,
          "velocity": 0.6299212598425197,
          "duration": 0.125
        },
        {
          "name": "F#2",
          "midi": 42,
          "time": 194.75,
          "velocity": 0.6299212598425197,
          "duration": 0.125
        },
        {
          "name": "B1",
          "midi": 35,
          "time": 195,
          "velocity": 0.6299212598425197,
          "duration": 0.125
        },
        {
          "name": "F#2",
          "midi": 42,
          "time": 195,
          "velocity": 0.6299212598425197,
          "duration": 0.125
        },
        {
          "name": "F#2",
          "midi": 42,
          "time": 195.25,
          "velocity": 0.6299212598425197,
          "duration": 0.125
        },
        {
          "name": "F#2",
          "midi": 42,
          "time": 195.5,
          "velocity": 0.6299212598425197,
          "duration": 0.125
        },
        {
          "name": "C#2",
          "midi": 37,
          "time": 195.5,
          "velocity": 0.7874015748031497,
          "duration": 0.125
        },
        {
          "name": "B1",
          "midi": 35,
          "time": 195.75,
          "velocity": 0.6299212598425197,
          "duration": 0.125
        },
        {
          "name": "F#2",
          "midi": 42,
          "time": 195.75,
          "velocity": 0.6299212598425197,
          "duration": 0.125
        },
        {
          "name": "A#2",
          "midi": 46,
          "time": 195.875,
          "velocity": 0.7086614173228346,
          "duration": 0.125
        },
        {
          "name": "B1",
          "midi": 35,
          "time": 196,
          "velocity": 0.5511811023622047,
          "duration": 0.125
        },
        {
          "name": "F#2",
          "midi": 42,
          "time": 196,
          "velocity": 0.6299212598425197,
          "duration": 0.125
        },
        {
          "name": "F#2",
          "midi": 42,
          "time": 196.25,
          "velocity": 0.6299212598425197,
          "duration": 0.125
        },
        {
          "name": "F#2",
          "midi": 42,
          "time": 196.5,
          "velocity": 0.6299212598425197,
          "duration": 0.125
        },
        {
          "name": "C#2",
          "midi": 37,
          "time": 196.5,
          "velocity": 0.7874015748031497,
          "duration": 0.125
        },
        {
          "name": "B1",
          "midi": 35,
          "time": 196.75,
          "velocity": 0.6299212598425197,
          "duration": 0.125
        },
        {
          "name": "F#2",
          "midi": 42,
          "time": 196.75,
          "velocity": 0.6299212598425197,
          "duration": 0.125
        },
        {
          "name": "B1",
          "midi": 35,
          "time": 197,
          "velocity": 0.6299212598425197,
          "duration": 0.125
        },
        {
          "name": "F#2",
          "midi": 42,
          "time": 197,
          "velocity": 0.6299212598425197,
          "duration": 0.125
        },
        {
          "name": "F#2",
          "midi": 42,
          "time": 197.25,
          "velocity": 0.6299212598425197,
          "duration": 0.125
        },
        {
          "name": "F#2",
          "midi": 42,
          "time": 197.5,
          "velocity": 0.6299212598425197,
          "duration": 0.125
        },
        {
          "name": "C#2",
          "midi": 37,
          "time": 197.5,
          "velocity": 0.7874015748031497,
          "duration": 0.125
        },
        {
          "name": "B1",
          "midi": 35,
          "time": 197.75,
          "velocity": 0.6299212598425197,
          "duration": 0.125
        },
        {
          "name": "F#2",
          "midi": 42,
          "time": 197.75,
          "velocity": 0.6299212598425197,
          "duration": 0.125
        },
        {
          "name": "B1",
          "midi": 35,
          "time": 198,
          "velocity": 0.5511811023622047,
          "duration": 0.125
        },
        {
          "name": "F#2",
          "midi": 42,
          "time": 198,
          "velocity": 0.6299212598425197,
          "duration": 0.125
        },
        {
          "name": "F#2",
          "midi": 42,
          "time": 198.25,
          "velocity": 0.6299212598425197,
          "duration": 0.125
        },
        {
          "name": "F#2",
          "midi": 42,
          "time": 198.5,
          "velocity": 0.6299212598425197,
          "duration": 0.125
        },
        {
          "name": "C#2",
          "midi": 37,
          "time": 198.5,
          "velocity": 0.7874015748031497,
          "duration": 0.125
        },
        {
          "name": "B1",
          "midi": 35,
          "time": 198.75,
          "velocity": 0.6299212598425197,
          "duration": 0.125
        },
        {
          "name": "F#2",
          "midi": 42,
          "time": 198.75,
          "velocity": 0.6299212598425197,
          "duration": 0.125
        },
        {
          "name": "B1",
          "midi": 35,
          "time": 199,
          "velocity": 0.6299212598425197,
          "duration": 0.125
        },
        {
          "name": "F#2",
          "midi": 42,
          "time": 199,
          "velocity": 0.6299212598425197,
          "duration": 0.125
        },
        {
          "name": "F#2",
          "midi": 42,
          "time": 199.25,
          "velocity": 0.6299212598425197,
          "duration": 0.125
        },
        {
          "name": "F#2",
          "midi": 42,
          "time": 199.5,
          "velocity": 0.6299212598425197,
          "duration": 0.125
        },
        {
          "name": "C#2",
          "midi": 37,
          "time": 199.5,
          "velocity": 0.7874015748031497,
          "duration": 0.125
        },
        {
          "name": "B1",
          "midi": 35,
          "time": 199.75,
          "velocity": 0.6299212598425197,
          "duration": 0.125
        },
        {
          "name": "F#2",
          "midi": 42,
          "time": 199.75,
          "velocity": 0.6299212598425197,
          "duration": 0.125
        },
        {
          "name": "A#2",
          "midi": 46,
          "time": 199.875,
          "velocity": 0.7086614173228346,
          "duration": 0.125
        },
        {
          "name": "B1",
          "midi": 35,
          "time": 200,
          "velocity": 0.5511811023622047,
          "duration": 0.125
        },
        {
          "name": "F#2",
          "midi": 42,
          "time": 200,
          "velocity": 0.6299212598425197,
          "duration": 0.125
        },
        {
          "name": "F#2",
          "midi": 42,
          "time": 200.25,
          "velocity": 0.6299212598425197,
          "duration": 0.125
        },
        {
          "name": "F#2",
          "midi": 42,
          "time": 200.5,
          "velocity": 0.6299212598425197,
          "duration": 0.125
        },
        {
          "name": "C#2",
          "midi": 37,
          "time": 200.5,
          "velocity": 0.7874015748031497,
          "duration": 0.125
        },
        {
          "name": "B1",
          "midi": 35,
          "time": 200.75,
          "velocity": 0.6299212598425197,
          "duration": 0.125
        },
        {
          "name": "F#2",
          "midi": 42,
          "time": 200.75,
          "velocity": 0.6299212598425197,
          "duration": 0.125
        },
        {
          "name": "B1",
          "midi": 35,
          "time": 201,
          "velocity": 0.6299212598425197,
          "duration": 0.125
        },
        {
          "name": "F#2",
          "midi": 42,
          "time": 201,
          "velocity": 0.6299212598425197,
          "duration": 0.125
        },
        {
          "name": "F#2",
          "midi": 42,
          "time": 201.25,
          "velocity": 0.6299212598425197,
          "duration": 0.125
        },
        {
          "name": "F#2",
          "midi": 42,
          "time": 201.5,
          "velocity": 0.6299212598425197,
          "duration": 0.125
        },
        {
          "name": "C#2",
          "midi": 37,
          "time": 201.5,
          "velocity": 0.7874015748031497,
          "duration": 0.125
        },
        {
          "name": "B1",
          "midi": 35,
          "time": 201.75,
          "velocity": 0.6299212598425197,
          "duration": 0.125
        },
        {
          "name": "F#2",
          "midi": 42,
          "time": 201.75,
          "velocity": 0.6299212598425197,
          "duration": 0.125
        },
        {
          "name": "A#2",
          "midi": 46,
          "time": 201.875,
          "velocity": 0.7086614173228346,
          "duration": 0.125
        },
        {
          "name": "B1",
          "midi": 35,
          "time": 202,
          "velocity": 0.5511811023622047,
          "duration": 0.125
        },
        {
          "name": "F#2",
          "midi": 42,
          "time": 202,
          "velocity": 0.6299212598425197,
          "duration": 0.125
        },
        {
          "name": "F#2",
          "midi": 42,
          "time": 202.25,
          "velocity": 0.6299212598425197,
          "duration": 0.125
        },
        {
          "name": "F#2",
          "midi": 42,
          "time": 202.5,
          "velocity": 0.6299212598425197,
          "duration": 0.125
        },
        {
          "name": "C#2",
          "midi": 37,
          "time": 202.5,
          "velocity": 0.7874015748031497,
          "duration": 0.125
        },
        {
          "name": "B1",
          "midi": 35,
          "time": 202.75,
          "velocity": 0.6299212598425197,
          "duration": 0.125
        },
        {
          "name": "F#2",
          "midi": 42,
          "time": 202.75,
          "velocity": 0.6299212598425197,
          "duration": 0.125
        },
        {
          "name": "B1",
          "midi": 35,
          "time": 203,
          "velocity": 0.6299212598425197,
          "duration": 0.125
        },
        {
          "name": "F#2",
          "midi": 42,
          "time": 203,
          "velocity": 0.6299212598425197,
          "duration": 0.125
        },
        {
          "name": "F#2",
          "midi": 42,
          "time": 203.25,
          "velocity": 0.6299212598425197,
          "duration": 0.125
        },
        {
          "name": "F#2",
          "midi": 42,
          "time": 203.5,
          "velocity": 0.6299212598425197,
          "duration": 0.125
        },
        {
          "name": "C#2",
          "midi": 37,
          "time": 203.5,
          "velocity": 0.7874015748031497,
          "duration": 0.125
        },
        {
          "name": "B1",
          "midi": 35,
          "time": 203.75,
          "velocity": 0.6299212598425197,
          "duration": 0.125
        },
        {
          "name": "F#2",
          "midi": 42,
          "time": 203.75,
          "velocity": 0.6299212598425197,
          "duration": 0.125
        },
        {
          "name": "A#2",
          "midi": 46,
          "time": 203.875,
          "velocity": 0.7086614173228346,
          "duration": 0.125
        },
        {
          "name": "B1",
          "midi": 35,
          "time": 204,
          "velocity": 0.5511811023622047,
          "duration": 0.125
        },
        {
          "name": "F#2",
          "midi": 42,
          "time": 204,
          "velocity": 0.6299212598425197,
          "duration": 0.125
        },
        {
          "name": "F#2",
          "midi": 42,
          "time": 204.25,
          "velocity": 0.6299212598425197,
          "duration": 0.125
        },
        {
          "name": "F#2",
          "midi": 42,
          "time": 204.5,
          "velocity": 0.6299212598425197,
          "duration": 0.125
        },
        {
          "name": "C#2",
          "midi": 37,
          "time": 204.5,
          "velocity": 0.7874015748031497,
          "duration": 0.125
        },
        {
          "name": "B1",
          "midi": 35,
          "time": 204.75,
          "velocity": 0.6299212598425197,
          "duration": 0.125
        },
        {
          "name": "F#2",
          "midi": 42,
          "time": 204.75,
          "velocity": 0.6299212598425197,
          "duration": 0.125
        },
        {
          "name": "B1",
          "midi": 35,
          "time": 205,
          "velocity": 0.6299212598425197,
          "duration": 0.125
        },
        {
          "name": "F#2",
          "midi": 42,
          "time": 205,
          "velocity": 0.6299212598425197,
          "duration": 0.125
        },
        {
          "name": "F#2",
          "midi": 42,
          "time": 205.25,
          "velocity": 0.6299212598425197,
          "duration": 0.125
        },
        {
          "name": "F#2",
          "midi": 42,
          "time": 205.5,
          "velocity": 0.6299212598425197,
          "duration": 0.125
        },
        {
          "name": "C#2",
          "midi": 37,
          "time": 205.5,
          "velocity": 0.7874015748031497,
          "duration": 0.125
        },
        {
          "name": "B1",
          "midi": 35,
          "time": 205.75,
          "velocity": 0.6299212598425197,
          "duration": 0.125
        },
        {
          "name": "F#2",
          "midi": 42,
          "time": 205.75,
          "velocity": 0.6299212598425197,
          "duration": 0.125
        },
        {
          "name": "A#2",
          "midi": 46,
          "time": 205.875,
          "velocity": 0.7086614173228346,
          "duration": 0.125
        },
        {
          "name": "B1",
          "midi": 35,
          "time": 206,
          "velocity": 0.5511811023622047,
          "duration": 0.125
        },
        {
          "name": "F#2",
          "midi": 42,
          "time": 206,
          "velocity": 0.6299212598425197,
          "duration": 0.125
        },
        {
          "name": "F#2",
          "midi": 42,
          "time": 206.25,
          "velocity": 0.6299212598425197,
          "duration": 0.125
        },
        {
          "name": "F#2",
          "midi": 42,
          "time": 206.5,
          "velocity": 0.6299212598425197,
          "duration": 0.125
        },
        {
          "name": "C#2",
          "midi": 37,
          "time": 206.5,
          "velocity": 0.7874015748031497,
          "duration": 0.125
        },
        {
          "name": "B1",
          "midi": 35,
          "time": 206.75,
          "velocity": 0.6299212598425197,
          "duration": 0.125
        },
        {
          "name": "F#2",
          "midi": 42,
          "time": 206.75,
          "velocity": 0.6299212598425197,
          "duration": 0.125
        },
        {
          "name": "B1",
          "midi": 35,
          "time": 207,
          "velocity": 0.6299212598425197,
          "duration": 0.125
        },
        {
          "name": "F#2",
          "midi": 42,
          "time": 207,
          "velocity": 0.6299212598425197,
          "duration": 0.125
        },
        {
          "name": "F#2",
          "midi": 42,
          "time": 207.25,
          "velocity": 0.6299212598425197,
          "duration": 0.125
        },
        {
          "name": "F#2",
          "midi": 42,
          "time": 207.5,
          "velocity": 0.6299212598425197,
          "duration": 0.125
        },
        {
          "name": "C#2",
          "midi": 37,
          "time": 207.5,
          "velocity": 0.7874015748031497,
          "duration": 0.125
        },
        {
          "name": "B1",
          "midi": 35,
          "time": 207.75,
          "velocity": 0.6299212598425197,
          "duration": 0.125
        },
        {
          "name": "F#2",
          "midi": 42,
          "time": 207.75,
          "velocity": 0.6299212598425197,
          "duration": 0.125
        },
        {
          "name": "B1",
          "midi": 35,
          "time": 208,
          "velocity": 0.5511811023622047,
          "duration": 0.125
        },
        {
          "name": "F#2",
          "midi": 42,
          "time": 208,
          "velocity": 0.6299212598425197,
          "duration": 0.125
        },
        {
          "name": "F#2",
          "midi": 42,
          "time": 208.25,
          "velocity": 0.6299212598425197,
          "duration": 0.125
        },
        {
          "name": "D2",
          "midi": 38,
          "time": 208.5,
          "velocity": 0.7874015748031497,
          "duration": 0.125
        },
        {
          "name": "F#2",
          "midi": 42,
          "time": 208.5,
          "velocity": 0.6299212598425197,
          "duration": 0.125
        },
        {
          "name": "B1",
          "midi": 35,
          "time": 208.75,
          "velocity": 0.6299212598425197,
          "duration": 0.125
        },
        {
          "name": "F#2",
          "midi": 42,
          "time": 208.75,
          "velocity": 0.6299212598425197,
          "duration": 0.125
        },
        {
          "name": "B1",
          "midi": 35,
          "time": 209,
          "velocity": 0.6299212598425197,
          "duration": 0.125
        },
        {
          "name": "F#2",
          "midi": 42,
          "time": 209,
          "velocity": 0.6299212598425197,
          "duration": 0.125
        },
        {
          "name": "D2",
          "midi": 38,
          "time": 209.25,
          "velocity": 0.7086614173228346,
          "duration": 0.125
        },
        {
          "name": "F#2",
          "midi": 42,
          "time": 209.25,
          "velocity": 0.6299212598425197,
          "duration": 0.125
        },
        {
          "name": "D2",
          "midi": 38,
          "time": 209.5,
          "velocity": 0.7874015748031497,
          "duration": 0.125
        },
        {
          "name": "F#2",
          "midi": 42,
          "time": 209.5,
          "velocity": 0.6299212598425197,
          "duration": 0.125
        },
        {
          "name": "B1",
          "midi": 35,
          "time": 209.75,
          "velocity": 0.6299212598425197,
          "duration": 0.125
        },
        {
          "name": "D2",
          "midi": 38,
          "time": 209.75,
          "velocity": 0.7874015748031497,
          "duration": 0.125
        },
        {
          "name": "F#2",
          "midi": 42,
          "time": 209.75,
          "velocity": 0.6299212598425197,
          "duration": 0.125
        },
        {
          "name": "A#2",
          "midi": 46,
          "time": 209.875,
          "velocity": 0.7086614173228346,
          "duration": 0.125
        },
        {
          "name": "B1",
          "midi": 35,
          "time": 210,
          "velocity": 0.5511811023622047,
          "duration": 0.125
        },
        {
          "name": "F#2",
          "midi": 42,
          "time": 210,
          "velocity": 0.6299212598425197,
          "duration": 0.125
        },
        {
          "name": "F#2",
          "midi": 42,
          "time": 210.25,
          "velocity": 0.6299212598425197,
          "duration": 0.125
        },
        {
          "name": "F#2",
          "midi": 42,
          "time": 210.5,
          "velocity": 0.6299212598425197,
          "duration": 0.125
        },
        {
          "name": "C#2",
          "midi": 37,
          "time": 210.5,
          "velocity": 0.7874015748031497,
          "duration": 0.125
        },
        {
          "name": "B1",
          "midi": 35,
          "time": 210.75,
          "velocity": 0.6299212598425197,
          "duration": 0.125
        },
        {
          "name": "F#2",
          "midi": 42,
          "time": 210.75,
          "velocity": 0.6299212598425197,
          "duration": 0.125
        },
        {
          "name": "B1",
          "midi": 35,
          "time": 211,
          "velocity": 0.6299212598425197,
          "duration": 0.125
        },
        {
          "name": "F#2",
          "midi": 42,
          "time": 211,
          "velocity": 0.6299212598425197,
          "duration": 0.125
        },
        {
          "name": "F#2",
          "midi": 42,
          "time": 211.25,
          "velocity": 0.6299212598425197,
          "duration": 0.125
        },
        {
          "name": "F#2",
          "midi": 42,
          "time": 211.5,
          "velocity": 0.6299212598425197,
          "duration": 0.125
        },
        {
          "name": "C#2",
          "midi": 37,
          "time": 211.5,
          "velocity": 0.7874015748031497,
          "duration": 0.125
        },
        {
          "name": "B1",
          "midi": 35,
          "time": 211.75,
          "velocity": 0.6299212598425197,
          "duration": 0.125
        },
        {
          "name": "F#2",
          "midi": 42,
          "time": 211.75,
          "velocity": 0.6299212598425197,
          "duration": 0.125
        },
        {
          "name": "B1",
          "midi": 35,
          "time": 212,
          "velocity": 0.5511811023622047,
          "duration": 0.125
        },
        {
          "name": "F#2",
          "midi": 42,
          "time": 212,
          "velocity": 0.6299212598425197,
          "duration": 0.125
        },
        {
          "name": "F#2",
          "midi": 42,
          "time": 212.25,
          "velocity": 0.6299212598425197,
          "duration": 0.125
        },
        {
          "name": "F#2",
          "midi": 42,
          "time": 212.5,
          "velocity": 0.6299212598425197,
          "duration": 0.125
        },
        {
          "name": "C#2",
          "midi": 37,
          "time": 212.5,
          "velocity": 0.7874015748031497,
          "duration": 0.125
        },
        {
          "name": "B1",
          "midi": 35,
          "time": 212.75,
          "velocity": 0.6299212598425197,
          "duration": 0.125
        },
        {
          "name": "F#2",
          "midi": 42,
          "time": 212.75,
          "velocity": 0.6299212598425197,
          "duration": 0.125
        },
        {
          "name": "B1",
          "midi": 35,
          "time": 213,
          "velocity": 0.6299212598425197,
          "duration": 0.125
        },
        {
          "name": "F#2",
          "midi": 42,
          "time": 213,
          "velocity": 0.6299212598425197,
          "duration": 0.125
        },
        {
          "name": "F#2",
          "midi": 42,
          "time": 213.25,
          "velocity": 0.6299212598425197,
          "duration": 0.125
        },
        {
          "name": "F#2",
          "midi": 42,
          "time": 213.5,
          "velocity": 0.6299212598425197,
          "duration": 0.125
        },
        {
          "name": "C#2",
          "midi": 37,
          "time": 213.5,
          "velocity": 0.7874015748031497,
          "duration": 0.125
        },
        {
          "name": "B1",
          "midi": 35,
          "time": 213.75,
          "velocity": 0.6299212598425197,
          "duration": 0.125
        },
        {
          "name": "F#2",
          "midi": 42,
          "time": 213.75,
          "velocity": 0.6299212598425197,
          "duration": 0.125
        },
        {
          "name": "A#2",
          "midi": 46,
          "time": 213.875,
          "velocity": 0.7086614173228346,
          "duration": 0.125
        },
        {
          "name": "B1",
          "midi": 35,
          "time": 214,
          "velocity": 0.5511811023622047,
          "duration": 0.125
        },
        {
          "name": "F#2",
          "midi": 42,
          "time": 214,
          "velocity": 0.6299212598425197,
          "duration": 0.125
        },
        {
          "name": "F#2",
          "midi": 42,
          "time": 214.25,
          "velocity": 0.6299212598425197,
          "duration": 0.125
        },
        {
          "name": "D2",
          "midi": 38,
          "time": 214.5,
          "velocity": 0.7874015748031497,
          "duration": 0.125
        },
        {
          "name": "F#2",
          "midi": 42,
          "time": 214.5,
          "velocity": 0.6299212598425197,
          "duration": 0.125
        },
        {
          "name": "B1",
          "midi": 35,
          "time": 214.75,
          "velocity": 0.6299212598425197,
          "duration": 0.125
        },
        {
          "name": "F#2",
          "midi": 42,
          "time": 214.75,
          "velocity": 0.6299212598425197,
          "duration": 0.125
        },
        {
          "name": "B1",
          "midi": 35,
          "time": 215,
          "velocity": 0.6299212598425197,
          "duration": 0.125
        },
        {
          "name": "F#2",
          "midi": 42,
          "time": 215,
          "velocity": 0.6299212598425197,
          "duration": 0.125
        },
        {
          "name": "D2",
          "midi": 38,
          "time": 215.25,
          "velocity": 0.7086614173228346,
          "duration": 0.125
        },
        {
          "name": "F#2",
          "midi": 42,
          "time": 215.25,
          "velocity": 0.6299212598425197,
          "duration": 0.125
        },
        {
          "name": "D2",
          "midi": 38,
          "time": 215.5,
          "velocity": 0.7874015748031497,
          "duration": 0.125
        },
        {
          "name": "F#2",
          "midi": 42,
          "time": 215.5,
          "velocity": 0.6299212598425197,
          "duration": 0.125
        },
        {
          "name": "B1",
          "midi": 35,
          "time": 215.75,
          "velocity": 0.6299212598425197,
          "duration": 0.125
        },
        {
          "name": "D2",
          "midi": 38,
          "time": 215.75,
          "velocity": 0.7874015748031497,
          "duration": 0.125
        },
        {
          "name": "F#2",
          "midi": 42,
          "time": 215.75,
          "velocity": 0.6299212598425197,
          "duration": 0.125
        },
        {
          "name": "A#2",
          "midi": 46,
          "time": 215.875,
          "velocity": 0.7086614173228346,
          "duration": 0.125
        },
        {
          "name": "B1",
          "midi": 35,
          "time": 216,
          "velocity": 0.5511811023622047,
          "duration": 0.125
        },
        {
          "name": "F#2",
          "midi": 42,
          "time": 216,
          "velocity": 0.6299212598425197,
          "duration": 0.125
        },
        {
          "name": "F#2",
          "midi": 42,
          "time": 216.25,
          "velocity": 0.6299212598425197,
          "duration": 0.125
        },
        {
          "name": "D2",
          "midi": 38,
          "time": 216.5,
          "velocity": 0.7874015748031497,
          "duration": 0.125
        },
        {
          "name": "F#2",
          "midi": 42,
          "time": 216.5,
          "velocity": 0.6299212598425197,
          "duration": 0.125
        },
        {
          "name": "B1",
          "midi": 35,
          "time": 216.75,
          "velocity": 0.6299212598425197,
          "duration": 0.125
        },
        {
          "name": "F#2",
          "midi": 42,
          "time": 216.75,
          "velocity": 0.6299212598425197,
          "duration": 0.125
        },
        {
          "name": "B1",
          "midi": 35,
          "time": 217,
          "velocity": 0.6299212598425197,
          "duration": 0.125
        },
        {
          "name": "F#2",
          "midi": 42,
          "time": 217,
          "velocity": 0.6299212598425197,
          "duration": 0.125
        },
        {
          "name": "D2",
          "midi": 38,
          "time": 217.25,
          "velocity": 0.7086614173228346,
          "duration": 0.125
        },
        {
          "name": "F#2",
          "midi": 42,
          "time": 217.25,
          "velocity": 0.6299212598425197,
          "duration": 0.125
        },
        {
          "name": "D2",
          "midi": 38,
          "time": 217.5,
          "velocity": 0.7874015748031497,
          "duration": 0.125
        },
        {
          "name": "F#2",
          "midi": 42,
          "time": 217.5,
          "velocity": 0.6299212598425197,
          "duration": 0.125
        },
        {
          "name": "C#3",
          "midi": 49,
          "time": 217.5,
          "velocity": 0.7874015748031497,
          "duration": 0.125
        },
        {
          "name": "B1",
          "midi": 35,
          "time": 217.75,
          "velocity": 0.6299212598425197,
          "duration": 0.125
        },
        {
          "name": "D2",
          "midi": 38,
          "time": 217.75,
          "velocity": 0.7874015748031497,
          "duration": 0.125
        },
        {
          "name": "F#2",
          "midi": 42,
          "time": 217.75,
          "velocity": 0.6299212598425197,
          "duration": 0.125
        },
        {
          "name": "A#2",
          "midi": 46,
          "time": 217.875,
          "velocity": 0.7086614173228346,
          "duration": 0.125
        },
        {
          "name": "B1",
          "midi": 35,
          "time": 218,
          "velocity": 0.5511811023622047,
          "duration": 0.125
        },
        {
          "name": "F#2",
          "midi": 42,
          "time": 218,
          "velocity": 0.6299212598425197,
          "duration": 0.125
        },
        {
          "name": "F#2",
          "midi": 42,
          "time": 218.25,
          "velocity": 0.6299212598425197,
          "duration": 0.125
        },
        {
          "name": "F#2",
          "midi": 42,
          "time": 218.5,
          "velocity": 0.6299212598425197,
          "duration": 0.125
        },
        {
          "name": "C#2",
          "midi": 37,
          "time": 218.5,
          "velocity": 0.7874015748031497,
          "duration": 0.125
        },
        {
          "name": "B1",
          "midi": 35,
          "time": 218.75,
          "velocity": 0.6299212598425197,
          "duration": 0.125
        },
        {
          "name": "F#2",
          "midi": 42,
          "time": 218.75,
          "velocity": 0.6299212598425197,
          "duration": 0.125
        },
        {
          "name": "B1",
          "midi": 35,
          "time": 219,
          "velocity": 0.6299212598425197,
          "duration": 0.125
        },
        {
          "name": "F#2",
          "midi": 42,
          "time": 219,
          "velocity": 0.6299212598425197,
          "duration": 0.125
        },
        {
          "name": "F#2",
          "midi": 42,
          "time": 219.25,
          "velocity": 0.6299212598425197,
          "duration": 0.125
        },
        {
          "name": "F#2",
          "midi": 42,
          "time": 219.5,
          "velocity": 0.6299212598425197,
          "duration": 0.125
        },
        {
          "name": "C#2",
          "midi": 37,
          "time": 219.5,
          "velocity": 0.7874015748031497,
          "duration": 0.125
        },
        {
          "name": "B1",
          "midi": 35,
          "time": 219.75,
          "velocity": 0.6299212598425197,
          "duration": 0.125
        },
        {
          "name": "F#2",
          "midi": 42,
          "time": 219.75,
          "velocity": 0.6299212598425197,
          "duration": 0.125
        },
        {
          "name": "A#2",
          "midi": 46,
          "time": 219.875,
          "velocity": 0.7086614173228346,
          "duration": 0.125
        },
        {
          "name": "B1",
          "midi": 35,
          "time": 220,
          "velocity": 0.5511811023622047,
          "duration": 0.125
        },
        {
          "name": "F#2",
          "midi": 42,
          "time": 220,
          "velocity": 0.6299212598425197,
          "duration": 0.125
        },
        {
          "name": "F#2",
          "midi": 42,
          "time": 220.25,
          "velocity": 0.6299212598425197,
          "duration": 0.125
        },
        {
          "name": "F#2",
          "midi": 42,
          "time": 220.5,
          "velocity": 0.6299212598425197,
          "duration": 0.125
        },
        {
          "name": "C#2",
          "midi": 37,
          "time": 220.5,
          "velocity": 0.7874015748031497,
          "duration": 0.125
        },
        {
          "name": "B1",
          "midi": 35,
          "time": 220.75,
          "velocity": 0.6299212598425197,
          "duration": 0.125
        },
        {
          "name": "F#2",
          "midi": 42,
          "time": 220.75,
          "velocity": 0.6299212598425197,
          "duration": 0.125
        },
        {
          "name": "B1",
          "midi": 35,
          "time": 221,
          "velocity": 0.6299212598425197,
          "duration": 0.125
        },
        {
          "name": "F#2",
          "midi": 42,
          "time": 221,
          "velocity": 0.6299212598425197,
          "duration": 0.125
        },
        {
          "name": "F#2",
          "midi": 42,
          "time": 221.25,
          "velocity": 0.6299212598425197,
          "duration": 0.125
        },
        {
          "name": "F#2",
          "midi": 42,
          "time": 221.5,
          "velocity": 0.6299212598425197,
          "duration": 0.125
        },
        {
          "name": "C#2",
          "midi": 37,
          "time": 221.5,
          "velocity": 0.7874015748031497,
          "duration": 0.125
        },
        {
          "name": "B1",
          "midi": 35,
          "time": 221.75,
          "velocity": 0.6299212598425197,
          "duration": 0.125
        },
        {
          "name": "F#2",
          "midi": 42,
          "time": 221.75,
          "velocity": 0.6299212598425197,
          "duration": 0.125
        },
        {
          "name": "A#2",
          "midi": 46,
          "time": 221.875,
          "velocity": 0.7086614173228346,
          "duration": 0.125
        },
        {
          "name": "B1",
          "midi": 35,
          "time": 222,
          "velocity": 0.5511811023622047,
          "duration": 0.125
        },
        {
          "name": "F#2",
          "midi": 42,
          "time": 222,
          "velocity": 0.6299212598425197,
          "duration": 0.125
        },
        {
          "name": "F#2",
          "midi": 42,
          "time": 222.25,
          "velocity": 0.6299212598425197,
          "duration": 0.125
        },
        {
          "name": "F#2",
          "midi": 42,
          "time": 222.5,
          "velocity": 0.6299212598425197,
          "duration": 0.125
        },
        {
          "name": "C#2",
          "midi": 37,
          "time": 222.5,
          "velocity": 0.7874015748031497,
          "duration": 0.125
        },
        {
          "name": "B1",
          "midi": 35,
          "time": 222.75,
          "velocity": 0.6299212598425197,
          "duration": 0.125
        },
        {
          "name": "F#2",
          "midi": 42,
          "time": 222.75,
          "velocity": 0.6299212598425197,
          "duration": 0.125
        },
        {
          "name": "B1",
          "midi": 35,
          "time": 223,
          "velocity": 0.6299212598425197,
          "duration": 0.125
        },
        {
          "name": "F#2",
          "midi": 42,
          "time": 223,
          "velocity": 0.6299212598425197,
          "duration": 0.125
        },
        {
          "name": "F#2",
          "midi": 42,
          "time": 223.25,
          "velocity": 0.6299212598425197,
          "duration": 0.125
        },
        {
          "name": "F#2",
          "midi": 42,
          "time": 223.5,
          "velocity": 0.6299212598425197,
          "duration": 0.125
        },
        {
          "name": "C#2",
          "midi": 37,
          "time": 223.5,
          "velocity": 0.7874015748031497,
          "duration": 0.125
        },
        {
          "name": "B1",
          "midi": 35,
          "time": 223.75,
          "velocity": 0.6299212598425197,
          "duration": 0.125
        },
        {
          "name": "F#2",
          "midi": 42,
          "time": 223.75,
          "velocity": 0.6299212598425197,
          "duration": 0.125
        },
        {
          "name": "A#2",
          "midi": 46,
          "time": 223.875,
          "velocity": 0.7086614173228346,
          "duration": 0.125
        },
        {
          "name": "B1",
          "midi": 35,
          "time": 224,
          "velocity": 0.5511811023622047,
          "duration": 0.125
        },
        {
          "name": "F#2",
          "midi": 42,
          "time": 224,
          "velocity": 0.6299212598425197,
          "duration": 0.125
        },
        {
          "name": "F#2",
          "midi": 42,
          "time": 224.25,
          "velocity": 0.6299212598425197,
          "duration": 0.125
        },
        {
          "name": "F#2",
          "midi": 42,
          "time": 224.5,
          "velocity": 0.6299212598425197,
          "duration": 0.125
        },
        {
          "name": "C#2",
          "midi": 37,
          "time": 224.5,
          "velocity": 0.7874015748031497,
          "duration": 0.125
        },
        {
          "name": "B1",
          "midi": 35,
          "time": 224.75,
          "velocity": 0.6299212598425197,
          "duration": 0.125
        },
        {
          "name": "F#2",
          "midi": 42,
          "time": 224.75,
          "velocity": 0.6299212598425197,
          "duration": 0.125
        },
        {
          "name": "B1",
          "midi": 35,
          "time": 225,
          "velocity": 0.6299212598425197,
          "duration": 0.125
        },
        {
          "name": "F#2",
          "midi": 42,
          "time": 225,
          "velocity": 0.6299212598425197,
          "duration": 0.125
        },
        {
          "name": "F#2",
          "midi": 42,
          "time": 225.25,
          "velocity": 0.6299212598425197,
          "duration": 0.125
        },
        {
          "name": "F#2",
          "midi": 42,
          "time": 225.5,
          "velocity": 0.6299212598425197,
          "duration": 0.125
        },
        {
          "name": "C#2",
          "midi": 37,
          "time": 225.5,
          "velocity": 0.7874015748031497,
          "duration": 0.125
        },
        {
          "name": "B1",
          "midi": 35,
          "time": 225.75,
          "velocity": 0.6299212598425197,
          "duration": 0.125
        },
        {
          "name": "F#2",
          "midi": 42,
          "time": 225.75,
          "velocity": 0.6299212598425197,
          "duration": 0.125
        },
        {
          "name": "B1",
          "midi": 35,
          "time": 226,
          "velocity": 0.5511811023622047,
          "duration": 0.125
        },
        {
          "name": "F#2",
          "midi": 42,
          "time": 226,
          "velocity": 0.6299212598425197,
          "duration": 0.125
        },
        {
          "name": "F#2",
          "midi": 42,
          "time": 226.25,
          "velocity": 0.6299212598425197,
          "duration": 0.125
        },
        {
          "name": "F#2",
          "midi": 42,
          "time": 226.5,
          "velocity": 0.6299212598425197,
          "duration": 0.125
        },
        {
          "name": "C#2",
          "midi": 37,
          "time": 226.5,
          "velocity": 0.7874015748031497,
          "duration": 0.125
        },
        {
          "name": "B1",
          "midi": 35,
          "time": 226.75,
          "velocity": 0.6299212598425197,
          "duration": 0.125
        },
        {
          "name": "F#2",
          "midi": 42,
          "time": 226.75,
          "velocity": 0.6299212598425197,
          "duration": 0.125
        },
        {
          "name": "B1",
          "midi": 35,
          "time": 227,
          "velocity": 0.6299212598425197,
          "duration": 0.125
        },
        {
          "name": "F#2",
          "midi": 42,
          "time": 227,
          "velocity": 0.6299212598425197,
          "duration": 0.125
        },
        {
          "name": "F#2",
          "midi": 42,
          "time": 227.25,
          "velocity": 0.6299212598425197,
          "duration": 0.125
        },
        {
          "name": "F#2",
          "midi": 42,
          "time": 227.5,
          "velocity": 0.6299212598425197,
          "duration": 0.125
        },
        {
          "name": "C#2",
          "midi": 37,
          "time": 227.5,
          "velocity": 0.7874015748031497,
          "duration": 0.125
        },
        {
          "name": "B1",
          "midi": 35,
          "time": 227.75,
          "velocity": 0.6299212598425197,
          "duration": 0.125
        },
        {
          "name": "F#2",
          "midi": 42,
          "time": 227.75,
          "velocity": 0.6299212598425197,
          "duration": 0.125
        },
        {
          "name": "A#2",
          "midi": 46,
          "time": 227.875,
          "velocity": 0.7086614173228346,
          "duration": 0.125
        },
        {
          "name": "B1",
          "midi": 35,
          "time": 228,
          "velocity": 0.5511811023622047,
          "duration": 0.125
        },
        {
          "name": "F#2",
          "midi": 42,
          "time": 228,
          "velocity": 0.6299212598425197,
          "duration": 0.125
        },
        {
          "name": "F#2",
          "midi": 42,
          "time": 228.25,
          "velocity": 0.6299212598425197,
          "duration": 0.125
        },
        {
          "name": "F#2",
          "midi": 42,
          "time": 228.5,
          "velocity": 0.6299212598425197,
          "duration": 0.125
        },
        {
          "name": "C#2",
          "midi": 37,
          "time": 228.5,
          "velocity": 0.7874015748031497,
          "duration": 0.125
        },
        {
          "name": "B1",
          "midi": 35,
          "time": 228.75,
          "velocity": 0.6299212598425197,
          "duration": 0.125
        },
        {
          "name": "F#2",
          "midi": 42,
          "time": 228.75,
          "velocity": 0.6299212598425197,
          "duration": 0.125
        },
        {
          "name": "B1",
          "midi": 35,
          "time": 229,
          "velocity": 0.6299212598425197,
          "duration": 0.125
        },
        {
          "name": "F#2",
          "midi": 42,
          "time": 229,
          "velocity": 0.6299212598425197,
          "duration": 0.125
        },
        {
          "name": "F#2",
          "midi": 42,
          "time": 229.25,
          "velocity": 0.6299212598425197,
          "duration": 0.125
        },
        {
          "name": "F#2",
          "midi": 42,
          "time": 229.5,
          "velocity": 0.6299212598425197,
          "duration": 0.125
        },
        {
          "name": "C#2",
          "midi": 37,
          "time": 229.5,
          "velocity": 0.7874015748031497,
          "duration": 0.125
        },
        {
          "name": "B1",
          "midi": 35,
          "time": 229.75,
          "velocity": 0.6299212598425197,
          "duration": 0.125
        },
        {
          "name": "F#2",
          "midi": 42,
          "time": 229.75,
          "velocity": 0.6299212598425197,
          "duration": 0.125
        },
        {
          "name": "A#2",
          "midi": 46,
          "time": 229.875,
          "velocity": 0.7086614173228346,
          "duration": 0.125
        },
        {
          "name": "B1",
          "midi": 35,
          "time": 230,
          "velocity": 0.5511811023622047,
          "duration": 0.125
        },
        {
          "name": "F#2",
          "midi": 42,
          "time": 230,
          "velocity": 0.6299212598425197,
          "duration": 0.125
        },
        {
          "name": "F#2",
          "midi": 42,
          "time": 230.25,
          "velocity": 0.6299212598425197,
          "duration": 0.125
        },
        {
          "name": "F#2",
          "midi": 42,
          "time": 230.5,
          "velocity": 0.6299212598425197,
          "duration": 0.125
        },
        {
          "name": "C#2",
          "midi": 37,
          "time": 230.5,
          "velocity": 0.7874015748031497,
          "duration": 0.125
        },
        {
          "name": "B1",
          "midi": 35,
          "time": 230.75,
          "velocity": 0.6299212598425197,
          "duration": 0.125
        },
        {
          "name": "F#2",
          "midi": 42,
          "time": 230.75,
          "velocity": 0.6299212598425197,
          "duration": 0.125
        },
        {
          "name": "B1",
          "midi": 35,
          "time": 231,
          "velocity": 0.6299212598425197,
          "duration": 0.125
        },
        {
          "name": "F#2",
          "midi": 42,
          "time": 231,
          "velocity": 0.6299212598425197,
          "duration": 0.125
        },
        {
          "name": "F#2",
          "midi": 42,
          "time": 231.25,
          "velocity": 0.6299212598425197,
          "duration": 0.125
        },
        {
          "name": "F#2",
          "midi": 42,
          "time": 231.5,
          "velocity": 0.6299212598425197,
          "duration": 0.125
        },
        {
          "name": "C#2",
          "midi": 37,
          "time": 231.5,
          "velocity": 0.7874015748031497,
          "duration": 0.125
        },
        {
          "name": "B1",
          "midi": 35,
          "time": 231.75,
          "velocity": 0.6299212598425197,
          "duration": 0.125
        },
        {
          "name": "F#2",
          "midi": 42,
          "time": 231.75,
          "velocity": 0.6299212598425197,
          "duration": 0.125
        },
        {
          "name": "A#2",
          "midi": 46,
          "time": 231.875,
          "velocity": 0.7086614173228346,
          "duration": 0.125
        },
        {
          "name": "B1",
          "midi": 35,
          "time": 232,
          "velocity": 0.5511811023622047,
          "duration": 0.125
        },
        {
          "name": "F#2",
          "midi": 42,
          "time": 232,
          "velocity": 0.6299212598425197,
          "duration": 0.125
        },
        {
          "name": "F#2",
          "midi": 42,
          "time": 232.25,
          "velocity": 0.6299212598425197,
          "duration": 0.125
        },
        {
          "name": "F#2",
          "midi": 42,
          "time": 232.5,
          "velocity": 0.6299212598425197,
          "duration": 0.125
        },
        {
          "name": "C#2",
          "midi": 37,
          "time": 232.5,
          "velocity": 0.7874015748031497,
          "duration": 0.125
        },
        {
          "name": "B1",
          "midi": 35,
          "time": 232.75,
          "velocity": 0.6299212598425197,
          "duration": 0.125
        },
        {
          "name": "F#2",
          "midi": 42,
          "time": 232.75,
          "velocity": 0.6299212598425197,
          "duration": 0.125
        },
        {
          "name": "B1",
          "midi": 35,
          "time": 233,
          "velocity": 0.6299212598425197,
          "duration": 0.125
        },
        {
          "name": "F#2",
          "midi": 42,
          "time": 233,
          "velocity": 0.6299212598425197,
          "duration": 0.125
        },
        {
          "name": "F#2",
          "midi": 42,
          "time": 233.25,
          "velocity": 0.6299212598425197,
          "duration": 0.125
        },
        {
          "name": "F#2",
          "midi": 42,
          "time": 233.5,
          "velocity": 0.6299212598425197,
          "duration": 0.125
        },
        {
          "name": "C#2",
          "midi": 37,
          "time": 233.5,
          "velocity": 0.7874015748031497,
          "duration": 0.125
        },
        {
          "name": "B1",
          "midi": 35,
          "time": 233.75,
          "velocity": 0.6299212598425197,
          "duration": 0.125
        },
        {
          "name": "F#2",
          "midi": 42,
          "time": 233.75,
          "velocity": 0.6299212598425197,
          "duration": 0.125
        },
        {
          "name": "B1",
          "midi": 35,
          "time": 234,
          "velocity": 0.5511811023622047,
          "duration": 0.125
        },
        {
          "name": "F#2",
          "midi": 42,
          "time": 234,
          "velocity": 0.6299212598425197,
          "duration": 0.125
        },
        {
          "name": "F#2",
          "midi": 42,
          "time": 234.25,
          "velocity": 0.6299212598425197,
          "duration": 0.125
        },
        {
          "name": "F#2",
          "midi": 42,
          "time": 234.5,
          "velocity": 0.6299212598425197,
          "duration": 0.125
        },
        {
          "name": "C#2",
          "midi": 37,
          "time": 234.5,
          "velocity": 0.7874015748031497,
          "duration": 0.125
        },
        {
          "name": "B1",
          "midi": 35,
          "time": 234.75,
          "velocity": 0.6299212598425197,
          "duration": 0.125
        },
        {
          "name": "F#2",
          "midi": 42,
          "time": 234.75,
          "velocity": 0.6299212598425197,
          "duration": 0.125
        },
        {
          "name": "B1",
          "midi": 35,
          "time": 235,
          "velocity": 0.6299212598425197,
          "duration": 0.125
        },
        {
          "name": "F#2",
          "midi": 42,
          "time": 235,
          "velocity": 0.6299212598425197,
          "duration": 0.125
        },
        {
          "name": "F#2",
          "midi": 42,
          "time": 235.25,
          "velocity": 0.6299212598425197,
          "duration": 0.125
        },
        {
          "name": "F#2",
          "midi": 42,
          "time": 235.5,
          "velocity": 0.6299212598425197,
          "duration": 0.125
        },
        {
          "name": "C#2",
          "midi": 37,
          "time": 235.5,
          "velocity": 0.7874015748031497,
          "duration": 0.125
        },
        {
          "name": "B1",
          "midi": 35,
          "time": 235.75,
          "velocity": 0.6299212598425197,
          "duration": 0.125
        },
        {
          "name": "F#2",
          "midi": 42,
          "time": 235.75,
          "velocity": 0.6299212598425197,
          "duration": 0.125
        },
        {
          "name": "B1",
          "midi": 35,
          "time": 236,
          "velocity": 0.5511811023622047,
          "duration": 0.125
        },
        {
          "name": "F#2",
          "midi": 42,
          "time": 236,
          "velocity": 0.6299212598425197,
          "duration": 0.125
        },
        {
          "name": "F#2",
          "midi": 42,
          "time": 236.25,
          "velocity": 0.6299212598425197,
          "duration": 0.125
        },
        {
          "name": "F#2",
          "midi": 42,
          "time": 236.5,
          "velocity": 0.6299212598425197,
          "duration": 0.125
        },
        {
          "name": "C#2",
          "midi": 37,
          "time": 236.5,
          "velocity": 0.7874015748031497,
          "duration": 0.125
        },
        {
          "name": "B1",
          "midi": 35,
          "time": 236.75,
          "velocity": 0.6299212598425197,
          "duration": 0.125
        },
        {
          "name": "F#2",
          "midi": 42,
          "time": 236.75,
          "velocity": 0.6299212598425197,
          "duration": 0.125
        },
        {
          "name": "B1",
          "midi": 35,
          "time": 237,
          "velocity": 0.6299212598425197,
          "duration": 0.125
        },
        {
          "name": "F#2",
          "midi": 42,
          "time": 237,
          "velocity": 0.6299212598425197,
          "duration": 0.125
        },
        {
          "name": "F#2",
          "midi": 42,
          "time": 237.25,
          "velocity": 0.6299212598425197,
          "duration": 0.125
        },
        {
          "name": "F#2",
          "midi": 42,
          "time": 237.5,
          "velocity": 0.6299212598425197,
          "duration": 0.125
        },
        {
          "name": "C#2",
          "midi": 37,
          "time": 237.5,
          "velocity": 0.7874015748031497,
          "duration": 0.125
        },
        {
          "name": "B1",
          "midi": 35,
          "time": 237.75,
          "velocity": 0.6299212598425197,
          "duration": 0.125
        },
        {
          "name": "F#2",
          "midi": 42,
          "time": 237.75,
          "velocity": 0.6299212598425197,
          "duration": 0.125
        },
        {
          "name": "B1",
          "midi": 35,
          "time": 238,
          "velocity": 0.5511811023622047,
          "duration": 0.125
        },
        {
          "name": "F#2",
          "midi": 42,
          "time": 238,
          "velocity": 0.6299212598425197,
          "duration": 0.125
        },
        {
          "name": "F#2",
          "midi": 42,
          "time": 238.25,
          "velocity": 0.6299212598425197,
          "duration": 0.125
        },
        {
          "name": "F#2",
          "midi": 42,
          "time": 238.5,
          "velocity": 0.6299212598425197,
          "duration": 0.125
        },
        {
          "name": "C#2",
          "midi": 37,
          "time": 238.5,
          "velocity": 0.7874015748031497,
          "duration": 0.125
        },
        {
          "name": "B1",
          "midi": 35,
          "time": 238.75,
          "velocity": 0.6299212598425197,
          "duration": 0.125
        },
        {
          "name": "F#2",
          "midi": 42,
          "time": 238.75,
          "velocity": 0.6299212598425197,
          "duration": 0.125
        },
        {
          "name": "B1",
          "midi": 35,
          "time": 239,
          "velocity": 0.6299212598425197,
          "duration": 0.125
        },
        {
          "name": "F#2",
          "midi": 42,
          "time": 239,
          "velocity": 0.6299212598425197,
          "duration": 0.125
        },
        {
          "name": "F#2",
          "midi": 42,
          "time": 239.25,
          "velocity": 0.6299212598425197,
          "duration": 0.125
        },
        {
          "name": "F#2",
          "midi": 42,
          "time": 239.5,
          "velocity": 0.6299212598425197,
          "duration": 0.125
        },
        {
          "name": "C#2",
          "midi": 37,
          "time": 239.5,
          "velocity": 0.7874015748031497,
          "duration": 0.125
        },
        {
          "name": "B1",
          "midi": 35,
          "time": 239.75,
          "velocity": 0.6299212598425197,
          "duration": 0.125
        },
        {
          "name": "F#2",
          "midi": 42,
          "time": 239.75,
          "velocity": 0.6299212598425197,
          "duration": 0.125
        },
        {
          "name": "A#2",
          "midi": 46,
          "time": 239.875,
          "velocity": 0.7086614173228346,
          "duration": 0.125
        },
        {
          "name": "B1",
          "midi": 35,
          "time": 240,
          "velocity": 0.5511811023622047,
          "duration": 0.125
        },
        {
          "name": "F#2",
          "midi": 42,
          "time": 240,
          "velocity": 0.6299212598425197,
          "duration": 0.125
        },
        {
          "name": "F#2",
          "midi": 42,
          "time": 240.25,
          "velocity": 0.6299212598425197,
          "duration": 0.125
        },
        {
          "name": "F#2",
          "midi": 42,
          "time": 240.5,
          "velocity": 0.6299212598425197,
          "duration": 0.125
        },
        {
          "name": "C#2",
          "midi": 37,
          "time": 240.5,
          "velocity": 0.7874015748031497,
          "duration": 0.125
        },
        {
          "name": "B1",
          "midi": 35,
          "time": 240.75,
          "velocity": 0.6299212598425197,
          "duration": 0.125
        },
        {
          "name": "F#2",
          "midi": 42,
          "time": 240.75,
          "velocity": 0.6299212598425197,
          "duration": 0.125
        },
        {
          "name": "B1",
          "midi": 35,
          "time": 241,
          "velocity": 0.6299212598425197,
          "duration": 0.125
        },
        {
          "name": "F#2",
          "midi": 42,
          "time": 241,
          "velocity": 0.6299212598425197,
          "duration": 0.125
        },
        {
          "name": "F#2",
          "midi": 42,
          "time": 241.25,
          "velocity": 0.6299212598425197,
          "duration": 0.125
        },
        {
          "name": "F#2",
          "midi": 42,
          "time": 241.5,
          "velocity": 0.6299212598425197,
          "duration": 0.125
        },
        {
          "name": "C#2",
          "midi": 37,
          "time": 241.5,
          "velocity": 0.7874015748031497,
          "duration": 0.125
        },
        {
          "name": "B1",
          "midi": 35,
          "time": 241.75,
          "velocity": 0.6299212598425197,
          "duration": 0.125
        },
        {
          "name": "F#2",
          "midi": 42,
          "time": 241.75,
          "velocity": 0.6299212598425197,
          "duration": 0.125
        },
        {
          "name": "B1",
          "midi": 35,
          "time": 242,
          "velocity": 0.5511811023622047,
          "duration": 0.125
        },
        {
          "name": "F#2",
          "midi": 42,
          "time": 242,
          "velocity": 0.6299212598425197,
          "duration": 0.125
        },
        {
          "name": "F#2",
          "midi": 42,
          "time": 242.25,
          "velocity": 0.6299212598425197,
          "duration": 0.125
        },
        {
          "name": "F#2",
          "midi": 42,
          "time": 242.5,
          "velocity": 0.6299212598425197,
          "duration": 0.125
        },
        {
          "name": "C#2",
          "midi": 37,
          "time": 242.5,
          "velocity": 0.7874015748031497,
          "duration": 0.125
        },
        {
          "name": "B1",
          "midi": 35,
          "time": 242.75,
          "velocity": 0.6299212598425197,
          "duration": 0.125
        },
        {
          "name": "F#2",
          "midi": 42,
          "time": 242.75,
          "velocity": 0.6299212598425197,
          "duration": 0.125
        },
        {
          "name": "B1",
          "midi": 35,
          "time": 243,
          "velocity": 0.6299212598425197,
          "duration": 0.125
        },
        {
          "name": "F#2",
          "midi": 42,
          "time": 243,
          "velocity": 0.6299212598425197,
          "duration": 0.125
        },
        {
          "name": "F#2",
          "midi": 42,
          "time": 243.25,
          "velocity": 0.6299212598425197,
          "duration": 0.125
        },
        {
          "name": "F#2",
          "midi": 42,
          "time": 243.5,
          "velocity": 0.6299212598425197,
          "duration": 0.125
        },
        {
          "name": "C#2",
          "midi": 37,
          "time": 243.5,
          "velocity": 0.7874015748031497,
          "duration": 0.125
        },
        {
          "name": "B1",
          "midi": 35,
          "time": 243.75,
          "velocity": 0.6299212598425197,
          "duration": 0.125
        },
        {
          "name": "F#2",
          "midi": 42,
          "time": 243.75,
          "velocity": 0.6299212598425197,
          "duration": 0.125
        },
        {
          "name": "A#2",
          "midi": 46,
          "time": 243.875,
          "velocity": 0.7086614173228346,
          "duration": 0.125
        },
        {
          "name": "B1",
          "midi": 35,
          "time": 244,
          "velocity": 0.5511811023622047,
          "duration": 0.125
        },
        {
          "name": "F#2",
          "midi": 42,
          "time": 244,
          "velocity": 0.6299212598425197,
          "duration": 0.125
        },
        {
          "name": "F#2",
          "midi": 42,
          "time": 244.25,
          "velocity": 0.6299212598425197,
          "duration": 0.125
        },
        {
          "name": "F#2",
          "midi": 42,
          "time": 244.5,
          "velocity": 0.6299212598425197,
          "duration": 0.125
        },
        {
          "name": "C#2",
          "midi": 37,
          "time": 244.5,
          "velocity": 0.7874015748031497,
          "duration": 0.125
        },
        {
          "name": "B1",
          "midi": 35,
          "time": 244.75,
          "velocity": 0.6299212598425197,
          "duration": 0.125
        },
        {
          "name": "F#2",
          "midi": 42,
          "time": 244.75,
          "velocity": 0.6299212598425197,
          "duration": 0.125
        },
        {
          "name": "B1",
          "midi": 35,
          "time": 245,
          "velocity": 0.6299212598425197,
          "duration": 0.125
        },
        {
          "name": "F#2",
          "midi": 42,
          "time": 245,
          "velocity": 0.6299212598425197,
          "duration": 0.125
        },
        {
          "name": "F#2",
          "midi": 42,
          "time": 245.25,
          "velocity": 0.6299212598425197,
          "duration": 0.125
        },
        {
          "name": "F#2",
          "midi": 42,
          "time": 245.5,
          "velocity": 0.6299212598425197,
          "duration": 0.125
        },
        {
          "name": "C#2",
          "midi": 37,
          "time": 245.5,
          "velocity": 0.7874015748031497,
          "duration": 0.125
        },
        {
          "name": "B1",
          "midi": 35,
          "time": 245.75,
          "velocity": 0.6299212598425197,
          "duration": 0.125
        },
        {
          "name": "F#2",
          "midi": 42,
          "time": 245.75,
          "velocity": 0.6299212598425197,
          "duration": 0.125
        },
        {
          "name": "B1",
          "midi": 35,
          "time": 246,
          "velocity": 0.5511811023622047,
          "duration": 0.125
        },
        {
          "name": "F#2",
          "midi": 42,
          "time": 246,
          "velocity": 0.6299212598425197,
          "duration": 0.125
        },
        {
          "name": "F#2",
          "midi": 42,
          "time": 246.25,
          "velocity": 0.6299212598425197,
          "duration": 0.125
        },
        {
          "name": "F#2",
          "midi": 42,
          "time": 246.5,
          "velocity": 0.6299212598425197,
          "duration": 0.125
        },
        {
          "name": "C#2",
          "midi": 37,
          "time": 246.5,
          "velocity": 0.7874015748031497,
          "duration": 0.125
        },
        {
          "name": "B1",
          "midi": 35,
          "time": 246.75,
          "velocity": 0.6299212598425197,
          "duration": 0.125
        },
        {
          "name": "F#2",
          "midi": 42,
          "time": 246.75,
          "velocity": 0.6299212598425197,
          "duration": 0.125
        },
        {
          "name": "B1",
          "midi": 35,
          "time": 247,
          "velocity": 0.6299212598425197,
          "duration": 0.125
        },
        {
          "name": "F#2",
          "midi": 42,
          "time": 247,
          "velocity": 0.6299212598425197,
          "duration": 0.125
        },
        {
          "name": "F#2",
          "midi": 42,
          "time": 247.25,
          "velocity": 0.6299212598425197,
          "duration": 0.125
        },
        {
          "name": "F#2",
          "midi": 42,
          "time": 247.5,
          "velocity": 0.6299212598425197,
          "duration": 0.125
        },
        {
          "name": "C#2",
          "midi": 37,
          "time": 247.5,
          "velocity": 0.7874015748031497,
          "duration": 0.125
        },
        {
          "name": "B1",
          "midi": 35,
          "time": 247.75,
          "velocity": 0.6299212598425197,
          "duration": 0.125
        },
        {
          "name": "F#2",
          "midi": 42,
          "time": 247.75,
          "velocity": 0.6299212598425197,
          "duration": 0.125
        },
        {
          "name": "B1",
          "midi": 35,
          "time": 248,
          "velocity": 0.5511811023622047,
          "duration": 0.125
        },
        {
          "name": "F#2",
          "midi": 42,
          "time": 248,
          "velocity": 0.6299212598425197,
          "duration": 0.125
        },
        {
          "name": "F#2",
          "midi": 42,
          "time": 248.25,
          "velocity": 0.6299212598425197,
          "duration": 0.125
        },
        {
          "name": "F#2",
          "midi": 42,
          "time": 248.5,
          "velocity": 0.6299212598425197,
          "duration": 0.125
        },
        {
          "name": "C#2",
          "midi": 37,
          "time": 248.5,
          "velocity": 0.7874015748031497,
          "duration": 0.125
        },
        {
          "name": "B1",
          "midi": 35,
          "time": 248.75,
          "velocity": 0.6299212598425197,
          "duration": 0.125
        },
        {
          "name": "F#2",
          "midi": 42,
          "time": 248.75,
          "velocity": 0.6299212598425197,
          "duration": 0.125
        },
        {
          "name": "B1",
          "midi": 35,
          "time": 249,
          "velocity": 0.6299212598425197,
          "duration": 0.125
        },
        {
          "name": "F#2",
          "midi": 42,
          "time": 249,
          "velocity": 0.6299212598425197,
          "duration": 0.125
        },
        {
          "name": "F#2",
          "midi": 42,
          "time": 249.25,
          "velocity": 0.6299212598425197,
          "duration": 0.125
        },
        {
          "name": "F#2",
          "midi": 42,
          "time": 249.5,
          "velocity": 0.6299212598425197,
          "duration": 0.125
        },
        {
          "name": "C#2",
          "midi": 37,
          "time": 249.5,
          "velocity": 0.7874015748031497,
          "duration": 0.125
        },
        {
          "name": "B1",
          "midi": 35,
          "time": 249.75,
          "velocity": 0.6299212598425197,
          "duration": 0.125
        },
        {
          "name": "F#2",
          "midi": 42,
          "time": 249.75,
          "velocity": 0.6299212598425197,
          "duration": 0.125
        },
        {
          "name": "A#2",
          "midi": 46,
          "time": 249.875,
          "velocity": 0.7086614173228346,
          "duration": 0.125
        },
        {
          "name": "B1",
          "midi": 35,
          "time": 250,
          "velocity": 0.5511811023622047,
          "duration": 0.125
        },
        {
          "name": "F#2",
          "midi": 42,
          "time": 250,
          "velocity": 0.6299212598425197,
          "duration": 0.125
        },
        {
          "name": "F#2",
          "midi": 42,
          "time": 250.25,
          "velocity": 0.6299212598425197,
          "duration": 0.125
        },
        {
          "name": "F#2",
          "midi": 42,
          "time": 250.5,
          "velocity": 0.6299212598425197,
          "duration": 0.125
        },
        {
          "name": "C#2",
          "midi": 37,
          "time": 250.5,
          "velocity": 0.7874015748031497,
          "duration": 0.125
        },
        {
          "name": "B1",
          "midi": 35,
          "time": 250.75,
          "velocity": 0.6299212598425197,
          "duration": 0.125
        },
        {
          "name": "F#2",
          "midi": 42,
          "time": 250.75,
          "velocity": 0.6299212598425197,
          "duration": 0.125
        },
        {
          "name": "B1",
          "midi": 35,
          "time": 251,
          "velocity": 0.6299212598425197,
          "duration": 0.125
        },
        {
          "name": "F#2",
          "midi": 42,
          "time": 251,
          "velocity": 0.6299212598425197,
          "duration": 0.125
        },
        {
          "name": "F#2",
          "midi": 42,
          "time": 251.25,
          "velocity": 0.6299212598425197,
          "duration": 0.125
        },
        {
          "name": "F#2",
          "midi": 42,
          "time": 251.5,
          "velocity": 0.6299212598425197,
          "duration": 0.125
        },
        {
          "name": "C#2",
          "midi": 37,
          "time": 251.5,
          "velocity": 0.7874015748031497,
          "duration": 0.125
        },
        {
          "name": "B1",
          "midi": 35,
          "time": 251.75,
          "velocity": 0.6299212598425197,
          "duration": 0.125
        },
        {
          "name": "F#2",
          "midi": 42,
          "time": 251.75,
          "velocity": 0.6299212598425197,
          "duration": 0.125
        },
        {
          "name": "B1",
          "midi": 35,
          "time": 252,
          "velocity": 0.5511811023622047,
          "duration": 0.125
        },
        {
          "name": "F#2",
          "midi": 42,
          "time": 252,
          "velocity": 0.6299212598425197,
          "duration": 0.125
        },
        {
          "name": "F#2",
          "midi": 42,
          "time": 252.25,
          "velocity": 0.6299212598425197,
          "duration": 0.125
        },
        {
          "name": "F#2",
          "midi": 42,
          "time": 252.5,
          "velocity": 0.6299212598425197,
          "duration": 0.125
        },
        {
          "name": "C#2",
          "midi": 37,
          "time": 252.5,
          "velocity": 0.7874015748031497,
          "duration": 0.125
        },
        {
          "name": "B1",
          "midi": 35,
          "time": 252.75,
          "velocity": 0.6299212598425197,
          "duration": 0.125
        },
        {
          "name": "F#2",
          "midi": 42,
          "time": 252.75,
          "velocity": 0.6299212598425197,
          "duration": 0.125
        },
        {
          "name": "B1",
          "midi": 35,
          "time": 253,
          "velocity": 0.6299212598425197,
          "duration": 0.125
        },
        {
          "name": "F#2",
          "midi": 42,
          "time": 253,
          "velocity": 0.6299212598425197,
          "duration": 0.125
        },
        {
          "name": "F#2",
          "midi": 42,
          "time": 253.25,
          "velocity": 0.6299212598425197,
          "duration": 0.125
        },
        {
          "name": "F#2",
          "midi": 42,
          "time": 253.5,
          "velocity": 0.6299212598425197,
          "duration": 0.125
        },
        {
          "name": "C#2",
          "midi": 37,
          "time": 253.5,
          "velocity": 0.7874015748031497,
          "duration": 0.125
        },
        {
          "name": "B1",
          "midi": 35,
          "time": 253.75,
          "velocity": 0.6299212598425197,
          "duration": 0.125
        },
        {
          "name": "F#2",
          "midi": 42,
          "time": 253.75,
          "velocity": 0.6299212598425197,
          "duration": 0.125
        },
        {
          "name": "A#2",
          "midi": 46,
          "time": 253.875,
          "velocity": 0.7086614173228346,
          "duration": 0.125
        },
        {
          "name": "B1",
          "midi": 35,
          "time": 254,
          "velocity": 0.5511811023622047,
          "duration": 0.125
        },
        {
          "name": "F#2",
          "midi": 42,
          "time": 254,
          "velocity": 0.6299212598425197,
          "duration": 0.125
        },
        {
          "name": "F#2",
          "midi": 42,
          "time": 254.25,
          "velocity": 0.6299212598425197,
          "duration": 0.125
        },
        {
          "name": "F#2",
          "midi": 42,
          "time": 254.5,
          "velocity": 0.6299212598425197,
          "duration": 0.125
        },
        {
          "name": "C#2",
          "midi": 37,
          "time": 254.5,
          "velocity": 0.7874015748031497,
          "duration": 0.125
        },
        {
          "name": "B1",
          "midi": 35,
          "time": 254.75,
          "velocity": 0.6299212598425197,
          "duration": 0.125
        },
        {
          "name": "F#2",
          "midi": 42,
          "time": 254.75,
          "velocity": 0.6299212598425197,
          "duration": 0.125
        },
        {
          "name": "B1",
          "midi": 35,
          "time": 255,
          "velocity": 0.6299212598425197,
          "duration": 0.125
        },
        {
          "name": "F#2",
          "midi": 42,
          "time": 255,
          "velocity": 0.6299212598425197,
          "duration": 0.125
        },
        {
          "name": "F#2",
          "midi": 42,
          "time": 255.25,
          "velocity": 0.6299212598425197,
          "duration": 0.125
        },
        {
          "name": "F#2",
          "midi": 42,
          "time": 255.5,
          "velocity": 0.6299212598425197,
          "duration": 0.125
        },
        {
          "name": "C#2",
          "midi": 37,
          "time": 255.5,
          "velocity": 0.7874015748031497,
          "duration": 0.125
        },
        {
          "name": "B1",
          "midi": 35,
          "time": 255.75,
          "velocity": 0.6299212598425197,
          "duration": 0.125
        },
        {
          "name": "F#2",
          "midi": 42,
          "time": 255.75,
          "velocity": 0.6299212598425197,
          "duration": 0.125
        },
        {
          "name": "B1",
          "midi": 35,
          "time": 256,
          "velocity": 0.5511811023622047,
          "duration": 0.125
        },
        {
          "name": "F#2",
          "midi": 42,
          "time": 256,
          "velocity": 0.6299212598425197,
          "duration": 0.125
        },
        {
          "name": "F#2",
          "midi": 42,
          "time": 256.25,
          "velocity": 0.6299212598425197,
          "duration": 0.125
        },
        {
          "name": "D2",
          "midi": 38,
          "time": 256.5,
          "velocity": 0.7874015748031497,
          "duration": 0.125
        },
        {
          "name": "F#2",
          "midi": 42,
          "time": 256.5,
          "velocity": 0.6299212598425197,
          "duration": 0.125
        },
        {
          "name": "B1",
          "midi": 35,
          "time": 256.75,
          "velocity": 0.6299212598425197,
          "duration": 0.125
        },
        {
          "name": "F#2",
          "midi": 42,
          "time": 256.75,
          "velocity": 0.6299212598425197,
          "duration": 0.125
        },
        {
          "name": "B1",
          "midi": 35,
          "time": 257,
          "velocity": 0.6299212598425197,
          "duration": 0.125
        },
        {
          "name": "F#2",
          "midi": 42,
          "time": 257,
          "velocity": 0.6299212598425197,
          "duration": 0.125
        },
        {
          "name": "D2",
          "midi": 38,
          "time": 257.25,
          "velocity": 0.7086614173228346,
          "duration": 0.125
        },
        {
          "name": "F#2",
          "midi": 42,
          "time": 257.25,
          "velocity": 0.6299212598425197,
          "duration": 0.125
        },
        {
          "name": "D2",
          "midi": 38,
          "time": 257.5,
          "velocity": 0.7874015748031497,
          "duration": 0.125
        },
        {
          "name": "F#2",
          "midi": 42,
          "time": 257.5,
          "velocity": 0.6299212598425197,
          "duration": 0.125
        },
        {
          "name": "B1",
          "midi": 35,
          "time": 257.75,
          "velocity": 0.6299212598425197,
          "duration": 0.125
        },
        {
          "name": "D2",
          "midi": 38,
          "time": 257.75,
          "velocity": 0.7874015748031497,
          "duration": 0.125
        },
        {
          "name": "F#2",
          "midi": 42,
          "time": 257.75,
          "velocity": 0.6299212598425197,
          "duration": 0.125
        },
        {
          "name": "B1",
          "midi": 35,
          "time": 258,
          "velocity": 0.5511811023622047,
          "duration": 0.125
        },
        {
          "name": "F#2",
          "midi": 42,
          "time": 258,
          "velocity": 0.6299212598425197,
          "duration": 0.125
        },
        {
          "name": "F#2",
          "midi": 42,
          "time": 258.25,
          "velocity": 0.6299212598425197,
          "duration": 0.125
        },
        {
          "name": "F#2",
          "midi": 42,
          "time": 258.5,
          "velocity": 0.6299212598425197,
          "duration": 0.125
        },
        {
          "name": "C#2",
          "midi": 37,
          "time": 258.5,
          "velocity": 0.7874015748031497,
          "duration": 0.125
        },
        {
          "name": "B1",
          "midi": 35,
          "time": 258.75,
          "velocity": 0.6299212598425197,
          "duration": 0.125
        },
        {
          "name": "F#2",
          "midi": 42,
          "time": 258.75,
          "velocity": 0.6299212598425197,
          "duration": 0.125
        },
        {
          "name": "B1",
          "midi": 35,
          "time": 259,
          "velocity": 0.6299212598425197,
          "duration": 0.125
        },
        {
          "name": "F#2",
          "midi": 42,
          "time": 259,
          "velocity": 0.6299212598425197,
          "duration": 0.125
        },
        {
          "name": "F#2",
          "midi": 42,
          "time": 259.25,
          "velocity": 0.6299212598425197,
          "duration": 0.125
        },
        {
          "name": "F#2",
          "midi": 42,
          "time": 259.5,
          "velocity": 0.6299212598425197,
          "duration": 0.125
        },
        {
          "name": "C#2",
          "midi": 37,
          "time": 259.5,
          "velocity": 0.7874015748031497,
          "duration": 0.125
        },
        {
          "name": "B1",
          "midi": 35,
          "time": 259.75,
          "velocity": 0.6299212598425197,
          "duration": 0.125
        },
        {
          "name": "F#2",
          "midi": 42,
          "time": 259.75,
          "velocity": 0.6299212598425197,
          "duration": 0.125
        },
        {
          "name": "A#2",
          "midi": 46,
          "time": 259.875,
          "velocity": 0.7086614173228346,
          "duration": 0.125
        },
        {
          "name": "B1",
          "midi": 35,
          "time": 260,
          "velocity": 0.5511811023622047,
          "duration": 0.125
        },
        {
          "name": "F#2",
          "midi": 42,
          "time": 260,
          "velocity": 0.6299212598425197,
          "duration": 0.125
        },
        {
          "name": "F#2",
          "midi": 42,
          "time": 260.25,
          "velocity": 0.6299212598425197,
          "duration": 0.125
        },
        {
          "name": "F#2",
          "midi": 42,
          "time": 260.5,
          "velocity": 0.6299212598425197,
          "duration": 0.125
        },
        {
          "name": "C#2",
          "midi": 37,
          "time": 260.5,
          "velocity": 0.7874015748031497,
          "duration": 0.125
        },
        {
          "name": "B1",
          "midi": 35,
          "time": 260.75,
          "velocity": 0.6299212598425197,
          "duration": 0.125
        },
        {
          "name": "F#2",
          "midi": 42,
          "time": 260.75,
          "velocity": 0.6299212598425197,
          "duration": 0.125
        },
        {
          "name": "B1",
          "midi": 35,
          "time": 261,
          "velocity": 0.6299212598425197,
          "duration": 0.125
        },
        {
          "name": "F#2",
          "midi": 42,
          "time": 261,
          "velocity": 0.6299212598425197,
          "duration": 0.125
        },
        {
          "name": "F#2",
          "midi": 42,
          "time": 261.25,
          "velocity": 0.6299212598425197,
          "duration": 0.125
        },
        {
          "name": "F#2",
          "midi": 42,
          "time": 261.5,
          "velocity": 0.6299212598425197,
          "duration": 0.125
        },
        {
          "name": "C#2",
          "midi": 37,
          "time": 261.5,
          "velocity": 0.7874015748031497,
          "duration": 0.125
        },
        {
          "name": "B1",
          "midi": 35,
          "time": 261.75,
          "velocity": 0.6299212598425197,
          "duration": 0.125
        },
        {
          "name": "F#2",
          "midi": 42,
          "time": 261.75,
          "velocity": 0.6299212598425197,
          "duration": 0.125
        },
        {
          "name": "A#2",
          "midi": 46,
          "time": 261.875,
          "velocity": 0.7086614173228346,
          "duration": 0.125
        },
        {
          "name": "B1",
          "midi": 35,
          "time": 262,
          "velocity": 0.5511811023622047,
          "duration": 0.125
        },
        {
          "name": "F#2",
          "midi": 42,
          "time": 262,
          "velocity": 0.6299212598425197,
          "duration": 0.125
        },
        {
          "name": "F#2",
          "midi": 42,
          "time": 262.25,
          "velocity": 0.6299212598425197,
          "duration": 0.125
        },
        {
          "name": "F#2",
          "midi": 42,
          "time": 262.5,
          "velocity": 0.6299212598425197,
          "duration": 0.125
        },
        {
          "name": "C#2",
          "midi": 37,
          "time": 262.5,
          "velocity": 0.7874015748031497,
          "duration": 0.125
        },
        {
          "name": "B1",
          "midi": 35,
          "time": 262.75,
          "velocity": 0.6299212598425197,
          "duration": 0.125
        },
        {
          "name": "F#2",
          "midi": 42,
          "time": 262.75,
          "velocity": 0.6299212598425197,
          "duration": 0.125
        },
        {
          "name": "B1",
          "midi": 35,
          "time": 263,
          "velocity": 0.6299212598425197,
          "duration": 0.125
        },
        {
          "name": "F#2",
          "midi": 42,
          "time": 263,
          "velocity": 0.6299212598425197,
          "duration": 0.125
        },
        {
          "name": "F#2",
          "midi": 42,
          "time": 263.25,
          "velocity": 0.6299212598425197,
          "duration": 0.125
        },
        {
          "name": "F#2",
          "midi": 42,
          "time": 263.5,
          "velocity": 0.6299212598425197,
          "duration": 0.125
        },
        {
          "name": "C#2",
          "midi": 37,
          "time": 263.5,
          "velocity": 0.7874015748031497,
          "duration": 0.125
        },
        {
          "name": "B1",
          "midi": 35,
          "time": 263.75,
          "velocity": 0.6299212598425197,
          "duration": 0.125
        },
        {
          "name": "F#2",
          "midi": 42,
          "time": 263.75,
          "velocity": 0.6299212598425197,
          "duration": 0.125
        },
        {
          "name": "A#2",
          "midi": 46,
          "time": 263.875,
          "velocity": 0.7086614173228346,
          "duration": 0.125
        },
        {
          "name": "B1",
          "midi": 35,
          "time": 264,
          "velocity": 0.5511811023622047,
          "duration": 0.125
        },
        {
          "name": "F#2",
          "midi": 42,
          "time": 264,
          "velocity": 0.6299212598425197,
          "duration": 0.125
        },
        {
          "name": "F#2",
          "midi": 42,
          "time": 264.25,
          "velocity": 0.6299212598425197,
          "duration": 0.125
        },
        {
          "name": "F#2",
          "midi": 42,
          "time": 264.5,
          "velocity": 0.6299212598425197,
          "duration": 0.125
        },
        {
          "name": "C#2",
          "midi": 37,
          "time": 264.5,
          "velocity": 0.7874015748031497,
          "duration": 0.125
        },
        {
          "name": "B1",
          "midi": 35,
          "time": 264.75,
          "velocity": 0.6299212598425197,
          "duration": 0.125
        },
        {
          "name": "F#2",
          "midi": 42,
          "time": 264.75,
          "velocity": 0.6299212598425197,
          "duration": 0.125
        },
        {
          "name": "B1",
          "midi": 35,
          "time": 265,
          "velocity": 0.6299212598425197,
          "duration": 0.125
        },
        {
          "name": "F#2",
          "midi": 42,
          "time": 265,
          "velocity": 0.6299212598425197,
          "duration": 0.125
        },
        {
          "name": "F#2",
          "midi": 42,
          "time": 265.25,
          "velocity": 0.6299212598425197,
          "duration": 0.125
        },
        {
          "name": "F#2",
          "midi": 42,
          "time": 265.5,
          "velocity": 0.6299212598425197,
          "duration": 0.125
        },
        {
          "name": "C#2",
          "midi": 37,
          "time": 265.5,
          "velocity": 0.7874015748031497,
          "duration": 0.125
        },
        {
          "name": "B1",
          "midi": 35,
          "time": 265.75,
          "velocity": 0.6299212598425197,
          "duration": 0.125
        },
        {
          "name": "F#2",
          "midi": 42,
          "time": 265.75,
          "velocity": 0.6299212598425197,
          "duration": 0.125
        },
        {
          "name": "A#2",
          "midi": 46,
          "time": 265.875,
          "velocity": 0.7086614173228346,
          "duration": 0.125
        },
        {
          "name": "B1",
          "midi": 35,
          "time": 266,
          "velocity": 0.5511811023622047,
          "duration": 0.125
        },
        {
          "name": "F#2",
          "midi": 42,
          "time": 266,
          "velocity": 0.6299212598425197,
          "duration": 0.125
        },
        {
          "name": "F#2",
          "midi": 42,
          "time": 266.25,
          "velocity": 0.6299212598425197,
          "duration": 0.125
        },
        {
          "name": "F#2",
          "midi": 42,
          "time": 266.5,
          "velocity": 0.6299212598425197,
          "duration": 0.125
        },
        {
          "name": "C#2",
          "midi": 37,
          "time": 266.5,
          "velocity": 0.7874015748031497,
          "duration": 0.125
        },
        {
          "name": "B1",
          "midi": 35,
          "time": 266.75,
          "velocity": 0.6299212598425197,
          "duration": 0.125
        },
        {
          "name": "F#2",
          "midi": 42,
          "time": 266.75,
          "velocity": 0.6299212598425197,
          "duration": 0.125
        },
        {
          "name": "B1",
          "midi": 35,
          "time": 267,
          "velocity": 0.6299212598425197,
          "duration": 0.125
        },
        {
          "name": "F#2",
          "midi": 42,
          "time": 267,
          "velocity": 0.6299212598425197,
          "duration": 0.125
        },
        {
          "name": "F#2",
          "midi": 42,
          "time": 267.25,
          "velocity": 0.6299212598425197,
          "duration": 0.125
        },
        {
          "name": "F#2",
          "midi": 42,
          "time": 267.5,
          "velocity": 0.6299212598425197,
          "duration": 0.125
        },
        {
          "name": "C#2",
          "midi": 37,
          "time": 267.5,
          "velocity": 0.7874015748031497,
          "duration": 0.125
        },
        {
          "name": "B1",
          "midi": 35,
          "time": 267.75,
          "velocity": 0.6299212598425197,
          "duration": 0.125
        },
        {
          "name": "F#2",
          "midi": 42,
          "time": 267.75,
          "velocity": 0.6299212598425197,
          "duration": 0.125
        },
        {
          "name": "B1",
          "midi": 35,
          "time": 268,
          "velocity": 0.5511811023622047,
          "duration": 0.125
        },
        {
          "name": "F#2",
          "midi": 42,
          "time": 268,
          "velocity": 0.6299212598425197,
          "duration": 0.125
        },
        {
          "name": "F#2",
          "midi": 42,
          "time": 268.25,
          "velocity": 0.6299212598425197,
          "duration": 0.125
        },
        {
          "name": "F#2",
          "midi": 42,
          "time": 268.5,
          "velocity": 0.6299212598425197,
          "duration": 0.125
        },
        {
          "name": "C#2",
          "midi": 37,
          "time": 268.5,
          "velocity": 0.7874015748031497,
          "duration": 0.125
        },
        {
          "name": "B1",
          "midi": 35,
          "time": 268.75,
          "velocity": 0.6299212598425197,
          "duration": 0.125
        },
        {
          "name": "F#2",
          "midi": 42,
          "time": 268.75,
          "velocity": 0.6299212598425197,
          "duration": 0.125
        },
        {
          "name": "B1",
          "midi": 35,
          "time": 269,
          "velocity": 0.6299212598425197,
          "duration": 0.125
        },
        {
          "name": "F#2",
          "midi": 42,
          "time": 269,
          "velocity": 0.6299212598425197,
          "duration": 0.125
        },
        {
          "name": "F#2",
          "midi": 42,
          "time": 269.25,
          "velocity": 0.6299212598425197,
          "duration": 0.125
        },
        {
          "name": "F#2",
          "midi": 42,
          "time": 269.5,
          "velocity": 0.6299212598425197,
          "duration": 0.125
        },
        {
          "name": "C#2",
          "midi": 37,
          "time": 269.5,
          "velocity": 0.7874015748031497,
          "duration": 0.125
        },
        {
          "name": "B1",
          "midi": 35,
          "time": 269.75,
          "velocity": 0.6299212598425197,
          "duration": 0.125
        },
        {
          "name": "F#2",
          "midi": 42,
          "time": 269.75,
          "velocity": 0.6299212598425197,
          "duration": 0.125
        },
        {
          "name": "B1",
          "midi": 35,
          "time": 270,
          "velocity": 0.5511811023622047,
          "duration": 0.125
        },
        {
          "name": "F#2",
          "midi": 42,
          "time": 270,
          "velocity": 0.6299212598425197,
          "duration": 0.125
        },
        {
          "name": "F#2",
          "midi": 42,
          "time": 270.25,
          "velocity": 0.6299212598425197,
          "duration": 0.125
        },
        {
          "name": "F#2",
          "midi": 42,
          "time": 270.5,
          "velocity": 0.6299212598425197,
          "duration": 0.125
        },
        {
          "name": "C#2",
          "midi": 37,
          "time": 270.5,
          "velocity": 0.7874015748031497,
          "duration": 0.125
        },
        {
          "name": "B1",
          "midi": 35,
          "time": 270.75,
          "velocity": 0.6299212598425197,
          "duration": 0.125
        },
        {
          "name": "F#2",
          "midi": 42,
          "time": 270.75,
          "velocity": 0.6299212598425197,
          "duration": 0.125
        },
        {
          "name": "B1",
          "midi": 35,
          "time": 271,
          "velocity": 0.6299212598425197,
          "duration": 0.125
        },
        {
          "name": "F#2",
          "midi": 42,
          "time": 271,
          "velocity": 0.6299212598425197,
          "duration": 0.125
        },
        {
          "name": "F#2",
          "midi": 42,
          "time": 271.25,
          "velocity": 0.6299212598425197,
          "duration": 0.125
        },
        {
          "name": "F#2",
          "midi": 42,
          "time": 271.5,
          "velocity": 0.6299212598425197,
          "duration": 0.125
        },
        {
          "name": "C#2",
          "midi": 37,
          "time": 271.5,
          "velocity": 0.7874015748031497,
          "duration": 0.125
        },
        {
          "name": "B1",
          "midi": 35,
          "time": 271.75,
          "velocity": 0.6299212598425197,
          "duration": 0.125
        },
        {
          "name": "F#2",
          "midi": 42,
          "time": 271.75,
          "velocity": 0.6299212598425197,
          "duration": 0.125
        },
        {
          "name": "A#2",
          "midi": 46,
          "time": 271.875,
          "velocity": 0.7086614173228346,
          "duration": 0.125
        },
        {
          "name": "B1",
          "midi": 35,
          "time": 272,
          "velocity": 0.5511811023622047,
          "duration": 0.125
        },
        {
          "name": "F#2",
          "midi": 42,
          "time": 272,
          "velocity": 0.6299212598425197,
          "duration": 0.125
        },
        {
          "name": "F#2",
          "midi": 42,
          "time": 272.25,
          "velocity": 0.6299212598425197,
          "duration": 0.125
        },
        {
          "name": "F#2",
          "midi": 42,
          "time": 272.5,
          "velocity": 0.6299212598425197,
          "duration": 0.125
        },
        {
          "name": "C#2",
          "midi": 37,
          "time": 272.5,
          "velocity": 0.7874015748031497,
          "duration": 0.125
        },
        {
          "name": "B1",
          "midi": 35,
          "time": 272.75,
          "velocity": 0.6299212598425197,
          "duration": 0.125
        },
        {
          "name": "F#2",
          "midi": 42,
          "time": 272.75,
          "velocity": 0.6299212598425197,
          "duration": 0.125
        },
        {
          "name": "B1",
          "midi": 35,
          "time": 273,
          "velocity": 0.6299212598425197,
          "duration": 0.125
        },
        {
          "name": "F#2",
          "midi": 42,
          "time": 273,
          "velocity": 0.6299212598425197,
          "duration": 0.125
        },
        {
          "name": "F#2",
          "midi": 42,
          "time": 273.25,
          "velocity": 0.6299212598425197,
          "duration": 0.125
        },
        {
          "name": "F#2",
          "midi": 42,
          "time": 273.5,
          "velocity": 0.6299212598425197,
          "duration": 0.125
        },
        {
          "name": "C#2",
          "midi": 37,
          "time": 273.5,
          "velocity": 0.7874015748031497,
          "duration": 0.125
        },
        {
          "name": "B1",
          "midi": 35,
          "time": 273.75,
          "velocity": 0.6299212598425197,
          "duration": 0.125
        },
        {
          "name": "F#2",
          "midi": 42,
          "time": 273.75,
          "velocity": 0.6299212598425197,
          "duration": 0.125
        },
        {
          "name": "A#2",
          "midi": 46,
          "time": 273.875,
          "velocity": 0.7086614173228346,
          "duration": 0.125
        },
        {
          "name": "B1",
          "midi": 35,
          "time": 274,
          "velocity": 0.5511811023622047,
          "duration": 0.125
        },
        {
          "name": "F#2",
          "midi": 42,
          "time": 274,
          "velocity": 0.6299212598425197,
          "duration": 0.125
        },
        {
          "name": "F#2",
          "midi": 42,
          "time": 274.25,
          "velocity": 0.6299212598425197,
          "duration": 0.125
        },
        {
          "name": "F#2",
          "midi": 42,
          "time": 274.5,
          "velocity": 0.6299212598425197,
          "duration": 0.125
        },
        {
          "name": "C#2",
          "midi": 37,
          "time": 274.5,
          "velocity": 0.7874015748031497,
          "duration": 0.125
        },
        {
          "name": "B1",
          "midi": 35,
          "time": 274.75,
          "velocity": 0.6299212598425197,
          "duration": 0.125
        },
        {
          "name": "F#2",
          "midi": 42,
          "time": 274.75,
          "velocity": 0.6299212598425197,
          "duration": 0.125
        },
        {
          "name": "B1",
          "midi": 35,
          "time": 275,
          "velocity": 0.6299212598425197,
          "duration": 0.125
        },
        {
          "name": "F#2",
          "midi": 42,
          "time": 275,
          "velocity": 0.6299212598425197,
          "duration": 0.125
        },
        {
          "name": "F#2",
          "midi": 42,
          "time": 275.25,
          "velocity": 0.6299212598425197,
          "duration": 0.125
        },
        {
          "name": "F#2",
          "midi": 42,
          "time": 275.5,
          "velocity": 0.6299212598425197,
          "duration": 0.125
        },
        {
          "name": "C#2",
          "midi": 37,
          "time": 275.5,
          "velocity": 0.7874015748031497,
          "duration": 0.125
        },
        {
          "name": "B1",
          "midi": 35,
          "time": 275.75,
          "velocity": 0.6299212598425197,
          "duration": 0.125
        },
        {
          "name": "F#2",
          "midi": 42,
          "time": 275.75,
          "velocity": 0.6299212598425197,
          "duration": 0.125
        },
        {
          "name": "B1",
          "midi": 35,
          "time": 276,
          "velocity": 0.5511811023622047,
          "duration": 0.125
        },
        {
          "name": "F#2",
          "midi": 42,
          "time": 276,
          "velocity": 0.6299212598425197,
          "duration": 0.125
        },
        {
          "name": "F#2",
          "midi": 42,
          "time": 276.25,
          "velocity": 0.6299212598425197,
          "duration": 0.125
        },
        {
          "name": "F#2",
          "midi": 42,
          "time": 276.5,
          "velocity": 0.6299212598425197,
          "duration": 0.125
        },
        {
          "name": "C#2",
          "midi": 37,
          "time": 276.5,
          "velocity": 0.7874015748031497,
          "duration": 0.125
        },
        {
          "name": "B1",
          "midi": 35,
          "time": 276.75,
          "velocity": 0.6299212598425197,
          "duration": 0.125
        },
        {
          "name": "F#2",
          "midi": 42,
          "time": 276.75,
          "velocity": 0.6299212598425197,
          "duration": 0.125
        },
        {
          "name": "B1",
          "midi": 35,
          "time": 277,
          "velocity": 0.6299212598425197,
          "duration": 0.125
        },
        {
          "name": "F#2",
          "midi": 42,
          "time": 277,
          "velocity": 0.6299212598425197,
          "duration": 0.125
        },
        {
          "name": "F#2",
          "midi": 42,
          "time": 277.25,
          "velocity": 0.6299212598425197,
          "duration": 0.125
        },
        {
          "name": "F#2",
          "midi": 42,
          "time": 277.5,
          "velocity": 0.6299212598425197,
          "duration": 0.125
        },
        {
          "name": "C#2",
          "midi": 37,
          "time": 277.5,
          "velocity": 0.7874015748031497,
          "duration": 0.125
        },
        {
          "name": "B1",
          "midi": 35,
          "time": 277.75,
          "velocity": 0.6299212598425197,
          "duration": 0.125
        },
        {
          "name": "F#2",
          "midi": 42,
          "time": 277.75,
          "velocity": 0.6299212598425197,
          "duration": 0.125
        },
        {
          "name": "A#2",
          "midi": 46,
          "time": 277.875,
          "velocity": 0.7086614173228346,
          "duration": 0.125
        },
        {
          "name": "B1",
          "midi": 35,
          "time": 278,
          "velocity": 0.5511811023622047,
          "duration": 0.125
        },
        {
          "name": "F#2",
          "midi": 42,
          "time": 278,
          "velocity": 0.6299212598425197,
          "duration": 0.125
        },
        {
          "name": "F#2",
          "midi": 42,
          "time": 278.25,
          "velocity": 0.6299212598425197,
          "duration": 0.125
        },
        {
          "name": "F#2",
          "midi": 42,
          "time": 278.5,
          "velocity": 0.6299212598425197,
          "duration": 0.125
        },
        {
          "name": "C#2",
          "midi": 37,
          "time": 278.5,
          "velocity": 0.7874015748031497,
          "duration": 0.125
        },
        {
          "name": "B1",
          "midi": 35,
          "time": 278.75,
          "velocity": 0.6299212598425197,
          "duration": 0.125
        },
        {
          "name": "F#2",
          "midi": 42,
          "time": 278.75,
          "velocity": 0.6299212598425197,
          "duration": 0.125
        },
        {
          "name": "B1",
          "midi": 35,
          "time": 279,
          "velocity": 0.6299212598425197,
          "duration": 0.125
        },
        {
          "name": "F#2",
          "midi": 42,
          "time": 279,
          "velocity": 0.6299212598425197,
          "duration": 0.125
        },
        {
          "name": "F#2",
          "midi": 42,
          "time": 279.25,
          "velocity": 0.6299212598425197,
          "duration": 0.125
        },
        {
          "name": "F#2",
          "midi": 42,
          "time": 279.5,
          "velocity": 0.6299212598425197,
          "duration": 0.125
        },
        {
          "name": "C#2",
          "midi": 37,
          "time": 279.5,
          "velocity": 0.7874015748031497,
          "duration": 0.125
        },
        {
          "name": "B1",
          "midi": 35,
          "time": 279.75,
          "velocity": 0.6299212598425197,
          "duration": 0.125
        },
        {
          "name": "F#2",
          "midi": 42,
          "time": 279.75,
          "velocity": 0.6299212598425197,
          "duration": 0.125
        },
        {
          "name": "B1",
          "midi": 35,
          "time": 280,
          "velocity": 0.5511811023622047,
          "duration": 0.125
        },
        {
          "name": "F#2",
          "midi": 42,
          "time": 280,
          "velocity": 0.6299212598425197,
          "duration": 0.125
        },
        {
          "name": "F#2",
          "midi": 42,
          "time": 280.25,
          "velocity": 0.6299212598425197,
          "duration": 0.125
        },
        {
          "name": "F#2",
          "midi": 42,
          "time": 280.5,
          "velocity": 0.6299212598425197,
          "duration": 0.125
        },
        {
          "name": "C#2",
          "midi": 37,
          "time": 280.5,
          "velocity": 0.7874015748031497,
          "duration": 0.125
        },
        {
          "name": "B1",
          "midi": 35,
          "time": 280.75,
          "velocity": 0.6299212598425197,
          "duration": 0.125
        },
        {
          "name": "F#2",
          "midi": 42,
          "time": 280.75,
          "velocity": 0.6299212598425197,
          "duration": 0.125
        },
        {
          "name": "B1",
          "midi": 35,
          "time": 281,
          "velocity": 0.6299212598425197,
          "duration": 0.125
        },
        {
          "name": "F#2",
          "midi": 42,
          "time": 281,
          "velocity": 0.6299212598425197,
          "duration": 0.125
        },
        {
          "name": "F#2",
          "midi": 42,
          "time": 281.25,
          "velocity": 0.6299212598425197,
          "duration": 0.125
        },
        {
          "name": "F#2",
          "midi": 42,
          "time": 281.5,
          "velocity": 0.6299212598425197,
          "duration": 0.125
        },
        {
          "name": "C#2",
          "midi": 37,
          "time": 281.5,
          "velocity": 0.7874015748031497,
          "duration": 0.125
        },
        {
          "name": "B1",
          "midi": 35,
          "time": 281.75,
          "velocity": 0.6299212598425197,
          "duration": 0.125
        },
        {
          "name": "F#2",
          "midi": 42,
          "time": 281.75,
          "velocity": 0.6299212598425197,
          "duration": 0.125
        },
        {
          "name": "B1",
          "midi": 35,
          "time": 282,
          "velocity": 0.5511811023622047,
          "duration": 0.125
        },
        {
          "name": "F#2",
          "midi": 42,
          "time": 282,
          "velocity": 0.6299212598425197,
          "duration": 0.125
        },
        {
          "name": "F#2",
          "midi": 42,
          "time": 282.25,
          "velocity": 0.6299212598425197,
          "duration": 0.125
        },
        {
          "name": "F#2",
          "midi": 42,
          "time": 282.5,
          "velocity": 0.6299212598425197,
          "duration": 0.125
        },
        {
          "name": "C#2",
          "midi": 37,
          "time": 282.5,
          "velocity": 0.7874015748031497,
          "duration": 0.125
        },
        {
          "name": "B1",
          "midi": 35,
          "time": 282.75,
          "velocity": 0.6299212598425197,
          "duration": 0.125
        },
        {
          "name": "F#2",
          "midi": 42,
          "time": 282.75,
          "velocity": 0.6299212598425197,
          "duration": 0.125
        },
        {
          "name": "B1",
          "midi": 35,
          "time": 283,
          "velocity": 0.6299212598425197,
          "duration": 0.125
        },
        {
          "name": "F#2",
          "midi": 42,
          "time": 283,
          "velocity": 0.6299212598425197,
          "duration": 0.125
        },
        {
          "name": "F#2",
          "midi": 42,
          "time": 283.25,
          "velocity": 0.6299212598425197,
          "duration": 0.125
        },
        {
          "name": "F#2",
          "midi": 42,
          "time": 283.5,
          "velocity": 0.6299212598425197,
          "duration": 0.125
        },
        {
          "name": "C#2",
          "midi": 37,
          "time": 283.5,
          "velocity": 0.7874015748031497,
          "duration": 0.125
        },
        {
          "name": "B1",
          "midi": 35,
          "time": 283.75,
          "velocity": 0.6299212598425197,
          "duration": 0.125
        },
        {
          "name": "F#2",
          "midi": 42,
          "time": 283.75,
          "velocity": 0.6299212598425197,
          "duration": 0.125
        },
        {
          "name": "A#2",
          "midi": 46,
          "time": 283.875,
          "velocity": 0.7086614173228346,
          "duration": 0.125
        },
        {
          "name": "B1",
          "midi": 35,
          "time": 284,
          "velocity": 0.5511811023622047,
          "duration": 0.125
        },
        {
          "name": "F#2",
          "midi": 42,
          "time": 284,
          "velocity": 0.6299212598425197,
          "duration": 0.125
        },
        {
          "name": "F#2",
          "midi": 42,
          "time": 284.25,
          "velocity": 0.6299212598425197,
          "duration": 0.125
        },
        {
          "name": "F#2",
          "midi": 42,
          "time": 284.5,
          "velocity": 0.6299212598425197,
          "duration": 0.125
        },
        {
          "name": "C#2",
          "midi": 37,
          "time": 284.5,
          "velocity": 0.7874015748031497,
          "duration": 0.125
        },
        {
          "name": "B1",
          "midi": 35,
          "time": 284.75,
          "velocity": 0.6299212598425197,
          "duration": 0.125
        },
        {
          "name": "F#2",
          "midi": 42,
          "time": 284.75,
          "velocity": 0.6299212598425197,
          "duration": 0.125
        },
        {
          "name": "B1",
          "midi": 35,
          "time": 285,
          "velocity": 0.6299212598425197,
          "duration": 0.125
        },
        {
          "name": "F#2",
          "midi": 42,
          "time": 285,
          "velocity": 0.6299212598425197,
          "duration": 0.125
        },
        {
          "name": "F#2",
          "midi": 42,
          "time": 285.25,
          "velocity": 0.6299212598425197,
          "duration": 0.125
        },
        {
          "name": "F#2",
          "midi": 42,
          "time": 285.5,
          "velocity": 0.6299212598425197,
          "duration": 0.125
        },
        {
          "name": "C#2",
          "midi": 37,
          "time": 285.5,
          "velocity": 0.7874015748031497,
          "duration": 0.125
        },
        {
          "name": "B1",
          "midi": 35,
          "time": 285.75,
          "velocity": 0.6299212598425197,
          "duration": 0.125
        },
        {
          "name": "F#2",
          "midi": 42,
          "time": 285.75,
          "velocity": 0.6299212598425197,
          "duration": 0.125
        },
        {
          "name": "B1",
          "midi": 35,
          "time": 286,
          "velocity": 0.5511811023622047,
          "duration": 0.125
        },
        {
          "name": "F#2",
          "midi": 42,
          "time": 286,
          "velocity": 0.6299212598425197,
          "duration": 0.125
        },
        {
          "name": "F#2",
          "midi": 42,
          "time": 286.25,
          "velocity": 0.6299212598425197,
          "duration": 0.125
        },
        {
          "name": "F#2",
          "midi": 42,
          "time": 286.5,
          "velocity": 0.6299212598425197,
          "duration": 0.125
        },
        {
          "name": "C#2",
          "midi": 37,
          "time": 286.5,
          "velocity": 0.7874015748031497,
          "duration": 0.125
        },
        {
          "name": "B1",
          "midi": 35,
          "time": 286.75,
          "velocity": 0.6299212598425197,
          "duration": 0.125
        },
        {
          "name": "F#2",
          "midi": 42,
          "time": 286.75,
          "velocity": 0.6299212598425197,
          "duration": 0.125
        },
        {
          "name": "B1",
          "midi": 35,
          "time": 287,
          "velocity": 0.6299212598425197,
          "duration": 0.125
        },
        {
          "name": "F#2",
          "midi": 42,
          "time": 287,
          "velocity": 0.6299212598425197,
          "duration": 0.125
        },
        {
          "name": "F#2",
          "midi": 42,
          "time": 287.25,
          "velocity": 0.6299212598425197,
          "duration": 0.125
        },
        {
          "name": "F#2",
          "midi": 42,
          "time": 287.5,
          "velocity": 0.6299212598425197,
          "duration": 0.125
        },
        {
          "name": "C#2",
          "midi": 37,
          "time": 287.5,
          "velocity": 0.7874015748031497,
          "duration": 0.125
        },
        {
          "name": "B1",
          "midi": 35,
          "time": 287.75,
          "velocity": 0.6299212598425197,
          "duration": 0.125
        },
        {
          "name": "F#2",
          "midi": 42,
          "time": 287.75,
          "velocity": 0.6299212598425197,
          "duration": 0.125
        },
        {
          "name": "B1",
          "midi": 35,
          "time": 288,
          "velocity": 0.5511811023622047,
          "duration": 0.125
        },
        {
          "name": "F#2",
          "midi": 42,
          "time": 288,
          "velocity": 0.6299212598425197,
          "duration": 0.125
        },
        {
          "name": "F#2",
          "midi": 42,
          "time": 288.25,
          "velocity": 0.6299212598425197,
          "duration": 0.125
        },
        {
          "name": "F#2",
          "midi": 42,
          "time": 288.5,
          "velocity": 0.6299212598425197,
          "duration": 0.125
        },
        {
          "name": "C#2",
          "midi": 37,
          "time": 288.5,
          "velocity": 0.7874015748031497,
          "duration": 0.125
        },
        {
          "name": "B1",
          "midi": 35,
          "time": 288.75,
          "velocity": 0.6299212598425197,
          "duration": 0.125
        },
        {
          "name": "F#2",
          "midi": 42,
          "time": 288.75,
          "velocity": 0.6299212598425197,
          "duration": 0.125
        },
        {
          "name": "B1",
          "midi": 35,
          "time": 289,
          "velocity": 0.6299212598425197,
          "duration": 0.125
        },
        {
          "name": "F#2",
          "midi": 42,
          "time": 289,
          "velocity": 0.6299212598425197,
          "duration": 0.125
        },
        {
          "name": "F#2",
          "midi": 42,
          "time": 289.25,
          "velocity": 0.6299212598425197,
          "duration": 0.125
        },
        {
          "name": "F#2",
          "midi": 42,
          "time": 289.5,
          "velocity": 0.6299212598425197,
          "duration": 0.125
        },
        {
          "name": "C#2",
          "midi": 37,
          "time": 289.5,
          "velocity": 0.7874015748031497,
          "duration": 0.125
        },
        {
          "name": "B1",
          "midi": 35,
          "time": 289.75,
          "velocity": 0.6299212598425197,
          "duration": 0.125
        },
        {
          "name": "F#2",
          "midi": 42,
          "time": 289.75,
          "velocity": 0.6299212598425197,
          "duration": 0.125
        },
        {
          "name": "B1",
          "midi": 35,
          "time": 290,
          "velocity": 0.5511811023622047,
          "duration": 0.125
        },
        {
          "name": "F#2",
          "midi": 42,
          "time": 290,
          "velocity": 0.6299212598425197,
          "duration": 0.125
        },
        {
          "name": "F#2",
          "midi": 42,
          "time": 290.25,
          "velocity": 0.6299212598425197,
          "duration": 0.125
        },
        {
          "name": "F#2",
          "midi": 42,
          "time": 290.5,
          "velocity": 0.6299212598425197,
          "duration": 0.125
        },
        {
          "name": "C#2",
          "midi": 37,
          "time": 290.5,
          "velocity": 0.7874015748031497,
          "duration": 0.125
        },
        {
          "name": "B1",
          "midi": 35,
          "time": 290.75,
          "velocity": 0.6299212598425197,
          "duration": 0.125
        },
        {
          "name": "F#2",
          "midi": 42,
          "time": 290.75,
          "velocity": 0.6299212598425197,
          "duration": 0.125
        },
        {
          "name": "B1",
          "midi": 35,
          "time": 291,
          "velocity": 0.6299212598425197,
          "duration": 0.125
        },
        {
          "name": "F#2",
          "midi": 42,
          "time": 291,
          "velocity": 0.6299212598425197,
          "duration": 0.125
        },
        {
          "name": "F#2",
          "midi": 42,
          "time": 291.25,
          "velocity": 0.6299212598425197,
          "duration": 0.125
        },
        {
          "name": "F#2",
          "midi": 42,
          "time": 291.5,
          "velocity": 0.6299212598425197,
          "duration": 0.125
        },
        {
          "name": "C#2",
          "midi": 37,
          "time": 291.5,
          "velocity": 0.7874015748031497,
          "duration": 0.125
        },
        {
          "name": "B1",
          "midi": 35,
          "time": 291.75,
          "velocity": 0.6299212598425197,
          "duration": 0.125
        },
        {
          "name": "F#2",
          "midi": 42,
          "time": 291.75,
          "velocity": 0.6299212598425197,
          "duration": 0.125
        },
        {
          "name": "B1",
          "midi": 35,
          "time": 292,
          "velocity": 0.5511811023622047,
          "duration": 0.125
        },
        {
          "name": "F#2",
          "midi": 42,
          "time": 292,
          "velocity": 0.6299212598425197,
          "duration": 0.125
        },
        {
          "name": "F#2",
          "midi": 42,
          "time": 292.25,
          "velocity": 0.6299212598425197,
          "duration": 0.125
        },
        {
          "name": "F#2",
          "midi": 42,
          "time": 292.5,
          "velocity": 0.6299212598425197,
          "duration": 0.125
        },
        {
          "name": "C#2",
          "midi": 37,
          "time": 292.5,
          "velocity": 0.7874015748031497,
          "duration": 0.125
        },
        {
          "name": "B1",
          "midi": 35,
          "time": 292.75,
          "velocity": 0.6299212598425197,
          "duration": 0.125
        },
        {
          "name": "F#2",
          "midi": 42,
          "time": 292.75,
          "velocity": 0.6299212598425197,
          "duration": 0.125
        },
        {
          "name": "B1",
          "midi": 35,
          "time": 293,
          "velocity": 0.6299212598425197,
          "duration": 0.125
        },
        {
          "name": "F#2",
          "midi": 42,
          "time": 293,
          "velocity": 0.6299212598425197,
          "duration": 0.125
        },
        {
          "name": "F#2",
          "midi": 42,
          "time": 293.25,
          "velocity": 0.6299212598425197,
          "duration": 0.125
        },
        {
          "name": "F#2",
          "midi": 42,
          "time": 293.5,
          "velocity": 0.6299212598425197,
          "duration": 0.125
        },
        {
          "name": "C#2",
          "midi": 37,
          "time": 293.5,
          "velocity": 0.7874015748031497,
          "duration": 0.125
        },
        {
          "name": "B1",
          "midi": 35,
          "time": 293.75,
          "velocity": 0.6299212598425197,
          "duration": 0.125
        },
        {
          "name": "F#2",
          "midi": 42,
          "time": 293.75,
          "velocity": 0.6299212598425197,
          "duration": 0.125
        },
        {
          "name": "A#2",
          "midi": 46,
          "time": 293.875,
          "velocity": 0.7086614173228346,
          "duration": 0.125
        },
        {
          "name": "B1",
          "midi": 35,
          "time": 294,
          "velocity": 0.5511811023622047,
          "duration": 0.125
        },
        {
          "name": "F#2",
          "midi": 42,
          "time": 294,
          "velocity": 0.6299212598425197,
          "duration": 0.125
        },
        {
          "name": "F#2",
          "midi": 42,
          "time": 294.25,
          "velocity": 0.6299212598425197,
          "duration": 0.125
        },
        {
          "name": "F#2",
          "midi": 42,
          "time": 294.5,
          "velocity": 0.6299212598425197,
          "duration": 0.125
        },
        {
          "name": "C#2",
          "midi": 37,
          "time": 294.5,
          "velocity": 0.7874015748031497,
          "duration": 0.125
        },
        {
          "name": "B1",
          "midi": 35,
          "time": 294.75,
          "velocity": 0.6299212598425197,
          "duration": 0.125
        },
        {
          "name": "F#2",
          "midi": 42,
          "time": 294.75,
          "velocity": 0.6299212598425197,
          "duration": 0.125
        },
        {
          "name": "B1",
          "midi": 35,
          "time": 295,
          "velocity": 0.6299212598425197,
          "duration": 0.125
        },
        {
          "name": "F#2",
          "midi": 42,
          "time": 295,
          "velocity": 0.6299212598425197,
          "duration": 0.125
        },
        {
          "name": "F#2",
          "midi": 42,
          "time": 295.25,
          "velocity": 0.6299212598425197,
          "duration": 0.125
        },
        {
          "name": "F#2",
          "midi": 42,
          "time": 295.5,
          "velocity": 0.6299212598425197,
          "duration": 0.125
        },
        {
          "name": "C#2",
          "midi": 37,
          "time": 295.5,
          "velocity": 0.7874015748031497,
          "duration": 0.125
        },
        {
          "name": "B1",
          "midi": 35,
          "time": 295.75,
          "velocity": 0.6299212598425197,
          "duration": 0.125
        },
        {
          "name": "F#2",
          "midi": 42,
          "time": 295.75,
          "velocity": 0.6299212598425197,
          "duration": 0.125
        },
        {
          "name": "A#2",
          "midi": 46,
          "time": 295.875,
          "velocity": 0.7086614173228346,
          "duration": 0.125
        },
        {
          "name": "B1",
          "midi": 35,
          "time": 296,
          "velocity": 0.5511811023622047,
          "duration": 0.125
        },
        {
          "name": "F#2",
          "midi": 42,
          "time": 296,
          "velocity": 0.6299212598425197,
          "duration": 0.125
        },
        {
          "name": "F#2",
          "midi": 42,
          "time": 296.25,
          "velocity": 0.6299212598425197,
          "duration": 0.125
        },
        {
          "name": "F#2",
          "midi": 42,
          "time": 296.5,
          "velocity": 0.6299212598425197,
          "duration": 0.125
        },
        {
          "name": "C#2",
          "midi": 37,
          "time": 296.5,
          "velocity": 0.7874015748031497,
          "duration": 0.125
        },
        {
          "name": "B1",
          "midi": 35,
          "time": 296.75,
          "velocity": 0.6299212598425197,
          "duration": 0.125
        },
        {
          "name": "F#2",
          "midi": 42,
          "time": 296.75,
          "velocity": 0.6299212598425197,
          "duration": 0.125
        },
        {
          "name": "B1",
          "midi": 35,
          "time": 297,
          "velocity": 0.6299212598425197,
          "duration": 0.125
        },
        {
          "name": "F#2",
          "midi": 42,
          "time": 297,
          "velocity": 0.6299212598425197,
          "duration": 0.125
        },
        {
          "name": "F#2",
          "midi": 42,
          "time": 297.25,
          "velocity": 0.6299212598425197,
          "duration": 0.125
        },
        {
          "name": "F#2",
          "midi": 42,
          "time": 297.5,
          "velocity": 0.6299212598425197,
          "duration": 0.125
        },
        {
          "name": "C#2",
          "midi": 37,
          "time": 297.5,
          "velocity": 0.7874015748031497,
          "duration": 0.125
        },
        {
          "name": "B1",
          "midi": 35,
          "time": 297.75,
          "velocity": 0.6299212598425197,
          "duration": 0.125
        },
        {
          "name": "F#2",
          "midi": 42,
          "time": 297.75,
          "velocity": 0.6299212598425197,
          "duration": 0.125
        },
        {
          "name": "B1",
          "midi": 35,
          "time": 298,
          "velocity": 0.5511811023622047,
          "duration": 0.125
        },
        {
          "name": "F#2",
          "midi": 42,
          "time": 298,
          "velocity": 0.6299212598425197,
          "duration": 0.125
        },
        {
          "name": "F#2",
          "midi": 42,
          "time": 298.25,
          "velocity": 0.6299212598425197,
          "duration": 0.125
        },
        {
          "name": "F#2",
          "midi": 42,
          "time": 298.5,
          "velocity": 0.6299212598425197,
          "duration": 0.125
        },
        {
          "name": "C#2",
          "midi": 37,
          "time": 298.5,
          "velocity": 0.7874015748031497,
          "duration": 0.125
        },
        {
          "name": "B1",
          "midi": 35,
          "time": 298.75,
          "velocity": 0.6299212598425197,
          "duration": 0.125
        },
        {
          "name": "F#2",
          "midi": 42,
          "time": 298.75,
          "velocity": 0.6299212598425197,
          "duration": 0.125
        },
        {
          "name": "B1",
          "midi": 35,
          "time": 299,
          "velocity": 0.6299212598425197,
          "duration": 0.125
        },
        {
          "name": "F#2",
          "midi": 42,
          "time": 299,
          "velocity": 0.6299212598425197,
          "duration": 0.125
        },
        {
          "name": "F#2",
          "midi": 42,
          "time": 299.25,
          "velocity": 0.6299212598425197,
          "duration": 0.125
        },
        {
          "name": "F#2",
          "midi": 42,
          "time": 299.5,
          "velocity": 0.6299212598425197,
          "duration": 0.125
        },
        {
          "name": "C#2",
          "midi": 37,
          "time": 299.5,
          "velocity": 0.7874015748031497,
          "duration": 0.125
        },
        {
          "name": "B1",
          "midi": 35,
          "time": 299.75,
          "velocity": 0.6299212598425197,
          "duration": 0.125
        },
        {
          "name": "F#2",
          "midi": 42,
          "time": 299.75,
          "velocity": 0.6299212598425197,
          "duration": 0.125
        },
        {
          "name": "B1",
          "midi": 35,
          "time": 300,
          "velocity": 0.5511811023622047,
          "duration": 0.125
        },
        {
          "name": "F#2",
          "midi": 42,
          "time": 300,
          "velocity": 0.6299212598425197,
          "duration": 0.125
        },
        {
          "name": "F#2",
          "midi": 42,
          "time": 300.25,
          "velocity": 0.6299212598425197,
          "duration": 0.125
        },
        {
          "name": "F#2",
          "midi": 42,
          "time": 300.5,
          "velocity": 0.6299212598425197,
          "duration": 0.125
        },
        {
          "name": "C#2",
          "midi": 37,
          "time": 300.5,
          "velocity": 0.7874015748031497,
          "duration": 0.125
        },
        {
          "name": "B1",
          "midi": 35,
          "time": 300.75,
          "velocity": 0.6299212598425197,
          "duration": 0.125
        },
        {
          "name": "F#2",
          "midi": 42,
          "time": 300.75,
          "velocity": 0.6299212598425197,
          "duration": 0.125
        },
        {
          "name": "B1",
          "midi": 35,
          "time": 301,
          "velocity": 0.6299212598425197,
          "duration": 0.125
        },
        {
          "name": "F#2",
          "midi": 42,
          "time": 301,
          "velocity": 0.6299212598425197,
          "duration": 0.125
        },
        {
          "name": "F#2",
          "midi": 42,
          "time": 301.25,
          "velocity": 0.6299212598425197,
          "duration": 0.125
        },
        {
          "name": "F#2",
          "midi": 42,
          "time": 301.5,
          "velocity": 0.6299212598425197,
          "duration": 0.125
        },
        {
          "name": "C#2",
          "midi": 37,
          "time": 301.5,
          "velocity": 0.7874015748031497,
          "duration": 0.125
        },
        {
          "name": "B1",
          "midi": 35,
          "time": 301.75,
          "velocity": 0.6299212598425197,
          "duration": 0.125
        },
        {
          "name": "F#2",
          "midi": 42,
          "time": 301.75,
          "velocity": 0.6299212598425197,
          "duration": 0.125
        },
        {
          "name": "A#2",
          "midi": 46,
          "time": 301.875,
          "velocity": 0.7086614173228346,
          "duration": 0.125
        },
        {
          "name": "B1",
          "midi": 35,
          "time": 302,
          "velocity": 0.5511811023622047,
          "duration": 0.125
        },
        {
          "name": "F#2",
          "midi": 42,
          "time": 302,
          "velocity": 0.6299212598425197,
          "duration": 0.125
        },
        {
          "name": "F#2",
          "midi": 42,
          "time": 302.25,
          "velocity": 0.6299212598425197,
          "duration": 0.125
        },
        {
          "name": "F#2",
          "midi": 42,
          "time": 302.5,
          "velocity": 0.6299212598425197,
          "duration": 0.125
        },
        {
          "name": "C#2",
          "midi": 37,
          "time": 302.5,
          "velocity": 0.7874015748031497,
          "duration": 0.125
        },
        {
          "name": "B1",
          "midi": 35,
          "time": 302.75,
          "velocity": 0.6299212598425197,
          "duration": 0.125
        },
        {
          "name": "F#2",
          "midi": 42,
          "time": 302.75,
          "velocity": 0.6299212598425197,
          "duration": 0.125
        },
        {
          "name": "B1",
          "midi": 35,
          "time": 303,
          "velocity": 0.6299212598425197,
          "duration": 0.125
        },
        {
          "name": "F#2",
          "midi": 42,
          "time": 303,
          "velocity": 0.6299212598425197,
          "duration": 0.125
        },
        {
          "name": "F#2",
          "midi": 42,
          "time": 303.25,
          "velocity": 0.6299212598425197,
          "duration": 0.125
        },
        {
          "name": "F#2",
          "midi": 42,
          "time": 303.5,
          "velocity": 0.6299212598425197,
          "duration": 0.125
        },
        {
          "name": "C#2",
          "midi": 37,
          "time": 303.5,
          "velocity": 0.7874015748031497,
          "duration": 0.125
        },
        {
          "name": "B1",
          "midi": 35,
          "time": 303.75,
          "velocity": 0.6299212598425197,
          "duration": 0.125
        },
        {
          "name": "F#2",
          "midi": 42,
          "time": 303.75,
          "velocity": 0.6299212598425197,
          "duration": 0.125
        },
        {
          "name": "B1",
          "midi": 35,
          "time": 304,
          "velocity": 0.5511811023622047,
          "duration": 0.125
        },
        {
          "name": "F#2",
          "midi": 42,
          "time": 304,
          "velocity": 0.6299212598425197,
          "duration": 0.125
        },
        {
          "name": "F#2",
          "midi": 42,
          "time": 304.25,
          "velocity": 0.6299212598425197,
          "duration": 0.125
        },
        {
          "name": "F#2",
          "midi": 42,
          "time": 304.5,
          "velocity": 0.6299212598425197,
          "duration": 0.125
        },
        {
          "name": "C#2",
          "midi": 37,
          "time": 304.5,
          "velocity": 0.7874015748031497,
          "duration": 0.125
        },
        {
          "name": "B1",
          "midi": 35,
          "time": 304.75,
          "velocity": 0.6299212598425197,
          "duration": 0.125
        },
        {
          "name": "F#2",
          "midi": 42,
          "time": 304.75,
          "velocity": 0.6299212598425197,
          "duration": 0.125
        },
        {
          "name": "B1",
          "midi": 35,
          "time": 305,
          "velocity": 0.6299212598425197,
          "duration": 0.125
        },
        {
          "name": "F#2",
          "midi": 42,
          "time": 305,
          "velocity": 0.6299212598425197,
          "duration": 0.125
        },
        {
          "name": "F#2",
          "midi": 42,
          "time": 305.25,
          "velocity": 0.6299212598425197,
          "duration": 0.125
        },
        {
          "name": "F#2",
          "midi": 42,
          "time": 305.5,
          "velocity": 0.6299212598425197,
          "duration": 0.125
        },
        {
          "name": "C#2",
          "midi": 37,
          "time": 305.5,
          "velocity": 0.7874015748031497,
          "duration": 0.125
        },
        {
          "name": "B1",
          "midi": 35,
          "time": 305.75,
          "velocity": 0.6299212598425197,
          "duration": 0.125
        },
        {
          "name": "F#2",
          "midi": 42,
          "time": 305.75,
          "velocity": 0.6299212598425197,
          "duration": 0.125
        },
        {
          "name": "B1",
          "midi": 35,
          "time": 306,
          "velocity": 0.5511811023622047,
          "duration": 0.125
        },
        {
          "name": "F#2",
          "midi": 42,
          "time": 306,
          "velocity": 0.6299212598425197,
          "duration": 0.125
        },
        {
          "name": "F#2",
          "midi": 42,
          "time": 306.25,
          "velocity": 0.6299212598425197,
          "duration": 0.125
        },
        {
          "name": "F#2",
          "midi": 42,
          "time": 306.5,
          "velocity": 0.6299212598425197,
          "duration": 0.125
        },
        {
          "name": "C#2",
          "midi": 37,
          "time": 306.5,
          "velocity": 0.7874015748031497,
          "duration": 0.125
        },
        {
          "name": "B1",
          "midi": 35,
          "time": 306.75,
          "velocity": 0.6299212598425197,
          "duration": 0.125
        },
        {
          "name": "F#2",
          "midi": 42,
          "time": 306.75,
          "velocity": 0.6299212598425197,
          "duration": 0.125
        },
        {
          "name": "B1",
          "midi": 35,
          "time": 307,
          "velocity": 0.6299212598425197,
          "duration": 0.125
        },
        {
          "name": "F#2",
          "midi": 42,
          "time": 307,
          "velocity": 0.6299212598425197,
          "duration": 0.125
        },
        {
          "name": "F#2",
          "midi": 42,
          "time": 307.25,
          "velocity": 0.6299212598425197,
          "duration": 0.125
        },
        {
          "name": "F#2",
          "midi": 42,
          "time": 307.5,
          "velocity": 0.6299212598425197,
          "duration": 0.125
        },
        {
          "name": "C#2",
          "midi": 37,
          "time": 307.5,
          "velocity": 0.7874015748031497,
          "duration": 0.125
        },
        {
          "name": "B1",
          "midi": 35,
          "time": 307.75,
          "velocity": 0.6299212598425197,
          "duration": 0.125
        },
        {
          "name": "F#2",
          "midi": 42,
          "time": 307.75,
          "velocity": 0.6299212598425197,
          "duration": 0.125
        },
        {
          "name": "A#2",
          "midi": 46,
          "time": 307.875,
          "velocity": 0.7086614173228346,
          "duration": 0.125
        },
        {
          "name": "B1",
          "midi": 35,
          "time": 308,
          "velocity": 0.5511811023622047,
          "duration": 0.125
        },
        {
          "name": "F#2",
          "midi": 42,
          "time": 308,
          "velocity": 0.6299212598425197,
          "duration": 0.125
        },
        {
          "name": "F#2",
          "midi": 42,
          "time": 308.25,
          "velocity": 0.6299212598425197,
          "duration": 0.125
        },
        {
          "name": "F#2",
          "midi": 42,
          "time": 308.5,
          "velocity": 0.6299212598425197,
          "duration": 0.125
        },
        {
          "name": "C#2",
          "midi": 37,
          "time": 308.5,
          "velocity": 0.7874015748031497,
          "duration": 0.125
        },
        {
          "name": "B1",
          "midi": 35,
          "time": 308.75,
          "velocity": 0.6299212598425197,
          "duration": 0.125
        },
        {
          "name": "F#2",
          "midi": 42,
          "time": 308.75,
          "velocity": 0.6299212598425197,
          "duration": 0.125
        },
        {
          "name": "B1",
          "midi": 35,
          "time": 309,
          "velocity": 0.6299212598425197,
          "duration": 0.125
        },
        {
          "name": "F#2",
          "midi": 42,
          "time": 309,
          "velocity": 0.6299212598425197,
          "duration": 0.125
        },
        {
          "name": "F#2",
          "midi": 42,
          "time": 309.25,
          "velocity": 0.6299212598425197,
          "duration": 0.125
        },
        {
          "name": "F#2",
          "midi": 42,
          "time": 309.5,
          "velocity": 0.6299212598425197,
          "duration": 0.125
        },
        {
          "name": "C#2",
          "midi": 37,
          "time": 309.5,
          "velocity": 0.7874015748031497,
          "duration": 0.125
        },
        {
          "name": "B1",
          "midi": 35,
          "time": 309.75,
          "velocity": 0.6299212598425197,
          "duration": 0.125
        },
        {
          "name": "F#2",
          "midi": 42,
          "time": 309.75,
          "velocity": 0.6299212598425197,
          "duration": 0.125
        },
        {
          "name": "A#2",
          "midi": 46,
          "time": 309.875,
          "velocity": 0.7086614173228346,
          "duration": 0.125
        },
        {
          "name": "B1",
          "midi": 35,
          "time": 310,
          "velocity": 0.5511811023622047,
          "duration": 0.125
        },
        {
          "name": "F#2",
          "midi": 42,
          "time": 310,
          "velocity": 0.6299212598425197,
          "duration": 0.125
        },
        {
          "name": "F#2",
          "midi": 42,
          "time": 310.25,
          "velocity": 0.6299212598425197,
          "duration": 0.125
        },
        {
          "name": "F#2",
          "midi": 42,
          "time": 310.5,
          "velocity": 0.6299212598425197,
          "duration": 0.125
        },
        {
          "name": "C#2",
          "midi": 37,
          "time": 310.5,
          "velocity": 0.7874015748031497,
          "duration": 0.125
        },
        {
          "name": "B1",
          "midi": 35,
          "time": 310.75,
          "velocity": 0.6299212598425197,
          "duration": 0.125
        },
        {
          "name": "F#2",
          "midi": 42,
          "time": 310.75,
          "velocity": 0.6299212598425197,
          "duration": 0.125
        },
        {
          "name": "B1",
          "midi": 35,
          "time": 311,
          "velocity": 0.6299212598425197,
          "duration": 0.125
        },
        {
          "name": "F#2",
          "midi": 42,
          "time": 311,
          "velocity": 0.6299212598425197,
          "duration": 0.125
        },
        {
          "name": "F#2",
          "midi": 42,
          "time": 311.25,
          "velocity": 0.6299212598425197,
          "duration": 0.125
        },
        {
          "name": "F#2",
          "midi": 42,
          "time": 311.5,
          "velocity": 0.6299212598425197,
          "duration": 0.125
        },
        {
          "name": "C#2",
          "midi": 37,
          "time": 311.5,
          "velocity": 0.7874015748031497,
          "duration": 0.125
        },
        {
          "name": "B1",
          "midi": 35,
          "time": 311.75,
          "velocity": 0.6299212598425197,
          "duration": 0.125
        },
        {
          "name": "F#2",
          "midi": 42,
          "time": 311.75,
          "velocity": 0.6299212598425197,
          "duration": 0.125
        },
        {
          "name": "A#2",
          "midi": 46,
          "time": 311.875,
          "velocity": 0.7086614173228346,
          "duration": 0.125
        },
        {
          "name": "B1",
          "midi": 35,
          "time": 312,
          "velocity": 0.5511811023622047,
          "duration": 0.125
        },
        {
          "name": "F#2",
          "midi": 42,
          "time": 312,
          "velocity": 0.6299212598425197,
          "duration": 0.125
        },
        {
          "name": "F#2",
          "midi": 42,
          "time": 312.25,
          "velocity": 0.6299212598425197,
          "duration": 0.125
        },
        {
          "name": "F#2",
          "midi": 42,
          "time": 312.5,
          "velocity": 0.6299212598425197,
          "duration": 0.125
        },
        {
          "name": "C#2",
          "midi": 37,
          "time": 312.5,
          "velocity": 0.7874015748031497,
          "duration": 0.125
        },
        {
          "name": "B1",
          "midi": 35,
          "time": 312.75,
          "velocity": 0.6299212598425197,
          "duration": 0.125
        },
        {
          "name": "F#2",
          "midi": 42,
          "time": 312.75,
          "velocity": 0.6299212598425197,
          "duration": 0.125
        },
        {
          "name": "B1",
          "midi": 35,
          "time": 313,
          "velocity": 0.6299212598425197,
          "duration": 0.125
        },
        {
          "name": "F#2",
          "midi": 42,
          "time": 313,
          "velocity": 0.6299212598425197,
          "duration": 0.125
        },
        {
          "name": "F#2",
          "midi": 42,
          "time": 313.25,
          "velocity": 0.6299212598425197,
          "duration": 0.125
        },
        {
          "name": "F#2",
          "midi": 42,
          "time": 313.5,
          "velocity": 0.6299212598425197,
          "duration": 0.125
        },
        {
          "name": "C#2",
          "midi": 37,
          "time": 313.5,
          "velocity": 0.7874015748031497,
          "duration": 0.125
        },
        {
          "name": "B1",
          "midi": 35,
          "time": 313.75,
          "velocity": 0.6299212598425197,
          "duration": 0.125
        },
        {
          "name": "F#2",
          "midi": 42,
          "time": 313.75,
          "velocity": 0.6299212598425197,
          "duration": 0.125
        },
        {
          "name": "A#2",
          "midi": 46,
          "time": 313.875,
          "velocity": 0.7086614173228346,
          "duration": 0.125
        },
        {
          "name": "B1",
          "midi": 35,
          "time": 314,
          "velocity": 0.5511811023622047,
          "duration": 0.125
        },
        {
          "name": "F#2",
          "midi": 42,
          "time": 314,
          "velocity": 0.6299212598425197,
          "duration": 0.125
        },
        {
          "name": "F#2",
          "midi": 42,
          "time": 314.25,
          "velocity": 0.6299212598425197,
          "duration": 0.125
        },
        {
          "name": "F#2",
          "midi": 42,
          "time": 314.5,
          "velocity": 0.6299212598425197,
          "duration": 0.125
        },
        {
          "name": "C#2",
          "midi": 37,
          "time": 314.5,
          "velocity": 0.7874015748031497,
          "duration": 0.125
        },
        {
          "name": "B1",
          "midi": 35,
          "time": 314.75,
          "velocity": 0.6299212598425197,
          "duration": 0.125
        },
        {
          "name": "F#2",
          "midi": 42,
          "time": 314.75,
          "velocity": 0.6299212598425197,
          "duration": 0.125
        },
        {
          "name": "B1",
          "midi": 35,
          "time": 315,
          "velocity": 0.6299212598425197,
          "duration": 0.125
        },
        {
          "name": "F#2",
          "midi": 42,
          "time": 315,
          "velocity": 0.6299212598425197,
          "duration": 0.125
        },
        {
          "name": "F#2",
          "midi": 42,
          "time": 315.25,
          "velocity": 0.6299212598425197,
          "duration": 0.125
        },
        {
          "name": "F#2",
          "midi": 42,
          "time": 315.5,
          "velocity": 0.6299212598425197,
          "duration": 0.125
        },
        {
          "name": "C#2",
          "midi": 37,
          "time": 315.5,
          "velocity": 0.7874015748031497,
          "duration": 0.125
        },
        {
          "name": "B1",
          "midi": 35,
          "time": 315.75,
          "velocity": 0.6299212598425197,
          "duration": 0.125
        },
        {
          "name": "F#2",
          "midi": 42,
          "time": 315.75,
          "velocity": 0.6299212598425197,
          "duration": 0.125
        },
        {
          "name": "A#2",
          "midi": 46,
          "time": 315.875,
          "velocity": 0.7086614173228346,
          "duration": 0.125
        },
        {
          "name": "B1",
          "midi": 35,
          "time": 316,
          "velocity": 0.5511811023622047,
          "duration": 0.125
        },
        {
          "name": "F#2",
          "midi": 42,
          "time": 316,
          "velocity": 0.6299212598425197,
          "duration": 0.125
        },
        {
          "name": "F#2",
          "midi": 42,
          "time": 316.25,
          "velocity": 0.6299212598425197,
          "duration": 0.125
        },
        {
          "name": "F#2",
          "midi": 42,
          "time": 316.5,
          "velocity": 0.6299212598425197,
          "duration": 0.125
        },
        {
          "name": "C#2",
          "midi": 37,
          "time": 316.5,
          "velocity": 0.7874015748031497,
          "duration": 0.125
        },
        {
          "name": "B1",
          "midi": 35,
          "time": 316.75,
          "velocity": 0.6299212598425197,
          "duration": 0.125
        },
        {
          "name": "F#2",
          "midi": 42,
          "time": 316.75,
          "velocity": 0.6299212598425197,
          "duration": 0.125
        },
        {
          "name": "B1",
          "midi": 35,
          "time": 317,
          "velocity": 0.6299212598425197,
          "duration": 0.125
        },
        {
          "name": "F#2",
          "midi": 42,
          "time": 317,
          "velocity": 0.6299212598425197,
          "duration": 0.125
        },
        {
          "name": "F#2",
          "midi": 42,
          "time": 317.25,
          "velocity": 0.6299212598425197,
          "duration": 0.125
        },
        {
          "name": "F#2",
          "midi": 42,
          "time": 317.5,
          "velocity": 0.6299212598425197,
          "duration": 0.125
        },
        {
          "name": "C#2",
          "midi": 37,
          "time": 317.5,
          "velocity": 0.7874015748031497,
          "duration": 0.125
        },
        {
          "name": "B1",
          "midi": 35,
          "time": 317.75,
          "velocity": 0.6299212598425197,
          "duration": 0.125
        },
        {
          "name": "F#2",
          "midi": 42,
          "time": 317.75,
          "velocity": 0.6299212598425197,
          "duration": 0.125
        },
        {
          "name": "A#2",
          "midi": 46,
          "time": 317.875,
          "velocity": 0.7086614173228346,
          "duration": 0.125
        },
        {
          "name": "B1",
          "midi": 35,
          "time": 318,
          "velocity": 0.5511811023622047,
          "duration": 0.125
        },
        {
          "name": "F#2",
          "midi": 42,
          "time": 318,
          "velocity": 0.6299212598425197,
          "duration": 0.125
        },
        {
          "name": "F#2",
          "midi": 42,
          "time": 318.25,
          "velocity": 0.6299212598425197,
          "duration": 0.125
        },
        {
          "name": "F#2",
          "midi": 42,
          "time": 318.5,
          "velocity": 0.6299212598425197,
          "duration": 0.125
        },
        {
          "name": "C#2",
          "midi": 37,
          "time": 318.5,
          "velocity": 0.7874015748031497,
          "duration": 0.125
        },
        {
          "name": "B1",
          "midi": 35,
          "time": 318.75,
          "velocity": 0.6299212598425197,
          "duration": 0.125
        },
        {
          "name": "F#2",
          "midi": 42,
          "time": 318.75,
          "velocity": 0.6299212598425197,
          "duration": 0.125
        },
        {
          "name": "B1",
          "midi": 35,
          "time": 319,
          "velocity": 0.6299212598425197,
          "duration": 0.125
        },
        {
          "name": "F#2",
          "midi": 42,
          "time": 319,
          "velocity": 0.6299212598425197,
          "duration": 0.125
        },
        {
          "name": "F#2",
          "midi": 42,
          "time": 319.25,
          "velocity": 0.6299212598425197,
          "duration": 0.125
        },
        {
          "name": "F#2",
          "midi": 42,
          "time": 319.5,
          "velocity": 0.6299212598425197,
          "duration": 0.125
        },
        {
          "name": "C#2",
          "midi": 37,
          "time": 319.5,
          "velocity": 0.7874015748031497,
          "duration": 0.125
        },
        {
          "name": "B1",
          "midi": 35,
          "time": 319.75,
          "velocity": 0.6299212598425197,
          "duration": 0.125
        },
        {
          "name": "F#2",
          "midi": 42,
          "time": 319.75,
          "velocity": 0.6299212598425197,
          "duration": 0.125
        },
        {
          "name": "A#2",
          "midi": 46,
          "time": 319.875,
          "velocity": 0.7086614173228346,
          "duration": 0.125
        },
        {
          "name": "B1",
          "midi": 35,
          "time": 320,
          "velocity": 0.5511811023622047,
          "duration": 0.125
        },
        {
          "name": "F#2",
          "midi": 42,
          "time": 320,
          "velocity": 0.6299212598425197,
          "duration": 0.125
        },
        {
          "name": "F#2",
          "midi": 42,
          "time": 320.25,
          "velocity": 0.6299212598425197,
          "duration": 0.125
        },
        {
          "name": "F#2",
          "midi": 42,
          "time": 320.5,
          "velocity": 0.6299212598425197,
          "duration": 0.125
        },
        {
          "name": "C#2",
          "midi": 37,
          "time": 320.5,
          "velocity": 0.7874015748031497,
          "duration": 0.125
        },
        {
          "name": "B1",
          "midi": 35,
          "time": 320.75,
          "velocity": 0.6299212598425197,
          "duration": 0.125
        },
        {
          "name": "F#2",
          "midi": 42,
          "time": 320.75,
          "velocity": 0.6299212598425197,
          "duration": 0.125
        },
        {
          "name": "B1",
          "midi": 35,
          "time": 321,
          "velocity": 0.6299212598425197,
          "duration": 0.125
        },
        {
          "name": "F#2",
          "midi": 42,
          "time": 321,
          "velocity": 0.6299212598425197,
          "duration": 0.125
        },
        {
          "name": "F#2",
          "midi": 42,
          "time": 321.25,
          "velocity": 0.6299212598425197,
          "duration": 0.125
        },
        {
          "name": "F#2",
          "midi": 42,
          "time": 321.5,
          "velocity": 0.6299212598425197,
          "duration": 0.125
        },
        {
          "name": "C#2",
          "midi": 37,
          "time": 321.5,
          "velocity": 0.7874015748031497,
          "duration": 0.125
        },
        {
          "name": "B1",
          "midi": 35,
          "time": 321.75,
          "velocity": 0.6299212598425197,
          "duration": 0.125
        },
        {
          "name": "F#2",
          "midi": 42,
          "time": 321.75,
          "velocity": 0.6299212598425197,
          "duration": 0.125
        },
        {
          "name": "B1",
          "midi": 35,
          "time": 322,
          "velocity": 0.5511811023622047,
          "duration": 0.125
        },
        {
          "name": "F#2",
          "midi": 42,
          "time": 322,
          "velocity": 0.6299212598425197,
          "duration": 0.125
        },
        {
          "name": "F#2",
          "midi": 42,
          "time": 322.25,
          "velocity": 0.6299212598425197,
          "duration": 0.125
        },
        {
          "name": "F#2",
          "midi": 42,
          "time": 322.5,
          "velocity": 0.6299212598425197,
          "duration": 0.125
        },
        {
          "name": "C#2",
          "midi": 37,
          "time": 322.5,
          "velocity": 0.7874015748031497,
          "duration": 0.125
        },
        {
          "name": "B1",
          "midi": 35,
          "time": 322.75,
          "velocity": 0.6299212598425197,
          "duration": 0.125
        },
        {
          "name": "F#2",
          "midi": 42,
          "time": 322.75,
          "velocity": 0.6299212598425197,
          "duration": 0.125
        },
        {
          "name": "B1",
          "midi": 35,
          "time": 323,
          "velocity": 0.6299212598425197,
          "duration": 0.125
        },
        {
          "name": "F#2",
          "midi": 42,
          "time": 323,
          "velocity": 0.6299212598425197,
          "duration": 0.125
        },
        {
          "name": "F#2",
          "midi": 42,
          "time": 323.25,
          "velocity": 0.6299212598425197,
          "duration": 0.125
        },
        {
          "name": "F#2",
          "midi": 42,
          "time": 323.5,
          "velocity": 0.6299212598425197,
          "duration": 0.125
        },
        {
          "name": "C#2",
          "midi": 37,
          "time": 323.5,
          "velocity": 0.7874015748031497,
          "duration": 0.125
        },
        {
          "name": "B1",
          "midi": 35,
          "time": 323.75,
          "velocity": 0.6299212598425197,
          "duration": 0.125
        },
        {
          "name": "F#2",
          "midi": 42,
          "time": 323.75,
          "velocity": 0.6299212598425197,
          "duration": 0.125
        },
        {
          "name": "A#2",
          "midi": 46,
          "time": 323.875,
          "velocity": 0.7086614173228346,
          "duration": 0.125
        },
        {
          "name": "B1",
          "midi": 35,
          "time": 324,
          "velocity": 0.5511811023622047,
          "duration": 0.125
        },
        {
          "name": "F#2",
          "midi": 42,
          "time": 324,
          "velocity": 0.6299212598425197,
          "duration": 0.125
        },
        {
          "name": "F#2",
          "midi": 42,
          "time": 324.25,
          "velocity": 0.6299212598425197,
          "duration": 0.125
        },
        {
          "name": "D2",
          "midi": 38,
          "time": 324.5,
          "velocity": 0.7874015748031497,
          "duration": 0.125
        },
        {
          "name": "F#2",
          "midi": 42,
          "time": 324.5,
          "velocity": 0.6299212598425197,
          "duration": 0.125
        },
        {
          "name": "B1",
          "midi": 35,
          "time": 324.75,
          "velocity": 0.6299212598425197,
          "duration": 0.125
        },
        {
          "name": "F#2",
          "midi": 42,
          "time": 324.75,
          "velocity": 0.6299212598425197,
          "duration": 0.125
        },
        {
          "name": "B1",
          "midi": 35,
          "time": 325,
          "velocity": 0.6299212598425197,
          "duration": 0.125
        },
        {
          "name": "F#2",
          "midi": 42,
          "time": 325,
          "velocity": 0.6299212598425197,
          "duration": 0.125
        },
        {
          "name": "F#2",
          "midi": 42,
          "time": 325.25,
          "velocity": 0.6299212598425197,
          "duration": 0.125
        },
        {
          "name": "B1",
          "midi": 35,
          "time": 325.375,
          "velocity": 0.7874015748031497,
          "duration": 0.125
        },
        {
          "name": "D2",
          "midi": 38,
          "time": 325.5,
          "velocity": 0.7874015748031497,
          "duration": 0.125
        },
        {
          "name": "F#2",
          "midi": 42,
          "time": 325.5,
          "velocity": 0.6299212598425197,
          "duration": 0.125
        },
        {
          "name": "B1",
          "midi": 35,
          "time": 325.75,
          "velocity": 0.6299212598425197,
          "duration": 0.125
        },
        {
          "name": "D2",
          "midi": 38,
          "time": 325.75,
          "velocity": 0.7086614173228346,
          "duration": 0.125
        },
        {
          "name": "F#2",
          "midi": 42,
          "time": 325.75,
          "velocity": 0.6299212598425197,
          "duration": 0.125
        },
        {
          "name": "D2",
          "midi": 38,
          "time": 325.875,
          "velocity": 0.7086614173228346,
          "duration": 0.125
        },
        {
          "name": "B1",
          "midi": 35,
          "time": 326,
          "velocity": 0.5511811023622047,
          "duration": 0.125
        },
        {
          "name": "F#2",
          "midi": 42,
          "time": 326,
          "velocity": 0.6299212598425197,
          "duration": 0.125
        },
        {
          "name": "F#2",
          "midi": 42,
          "time": 326.25,
          "velocity": 0.6299212598425197,
          "duration": 0.125
        },
        {
          "name": "F#2",
          "midi": 42,
          "time": 326.5,
          "velocity": 0.6299212598425197,
          "duration": 0.125
        },
        {
          "name": "C#2",
          "midi": 37,
          "time": 326.5,
          "velocity": 0.7874015748031497,
          "duration": 0.125
        },
        {
          "name": "B1",
          "midi": 35,
          "time": 326.75,
          "velocity": 0.6299212598425197,
          "duration": 0.125
        },
        {
          "name": "F#2",
          "midi": 42,
          "time": 326.75,
          "velocity": 0.6299212598425197,
          "duration": 0.125
        },
        {
          "name": "B1",
          "midi": 35,
          "time": 327,
          "velocity": 0.6299212598425197,
          "duration": 0.125
        },
        {
          "name": "F#2",
          "midi": 42,
          "time": 327,
          "velocity": 0.6299212598425197,
          "duration": 0.125
        },
        {
          "name": "F#2",
          "midi": 42,
          "time": 327.25,
          "velocity": 0.6299212598425197,
          "duration": 0.125
        },
        {
          "name": "F#2",
          "midi": 42,
          "time": 327.5,
          "velocity": 0.6299212598425197,
          "duration": 0.125
        },
        {
          "name": "C#2",
          "midi": 37,
          "time": 327.5,
          "velocity": 0.7874015748031497,
          "duration": 0.125
        },
        {
          "name": "B1",
          "midi": 35,
          "time": 327.75,
          "velocity": 0.6299212598425197,
          "duration": 0.125
        },
        {
          "name": "F#2",
          "midi": 42,
          "time": 327.75,
          "velocity": 0.6299212598425197,
          "duration": 0.125
        },
        {
          "name": "B1",
          "midi": 35,
          "time": 328,
          "velocity": 0.5511811023622047,
          "duration": 0.125
        },
        {
          "name": "F#2",
          "midi": 42,
          "time": 328,
          "velocity": 0.6299212598425197,
          "duration": 0.125
        },
        {
          "name": "F#2",
          "midi": 42,
          "time": 328.25,
          "velocity": 0.6299212598425197,
          "duration": 0.125
        },
        {
          "name": "F#2",
          "midi": 42,
          "time": 328.5,
          "velocity": 0.6299212598425197,
          "duration": 0.125
        },
        {
          "name": "C#2",
          "midi": 37,
          "time": 328.5,
          "velocity": 0.7874015748031497,
          "duration": 0.125
        },
        {
          "name": "B1",
          "midi": 35,
          "time": 328.75,
          "velocity": 0.6299212598425197,
          "duration": 0.125
        },
        {
          "name": "F#2",
          "midi": 42,
          "time": 328.75,
          "velocity": 0.6299212598425197,
          "duration": 0.125
        },
        {
          "name": "B1",
          "midi": 35,
          "time": 329,
          "velocity": 0.6299212598425197,
          "duration": 0.125
        },
        {
          "name": "F#2",
          "midi": 42,
          "time": 329,
          "velocity": 0.6299212598425197,
          "duration": 0.125
        },
        {
          "name": "F#2",
          "midi": 42,
          "time": 329.25,
          "velocity": 0.6299212598425197,
          "duration": 0.125
        },
        {
          "name": "F#2",
          "midi": 42,
          "time": 329.5,
          "velocity": 0.6299212598425197,
          "duration": 0.125
        },
        {
          "name": "C#2",
          "midi": 37,
          "time": 329.5,
          "velocity": 0.7874015748031497,
          "duration": 0.125
        },
        {
          "name": "B1",
          "midi": 35,
          "time": 329.75,
          "velocity": 0.6299212598425197,
          "duration": 0.125
        },
        {
          "name": "F#2",
          "midi": 42,
          "time": 329.75,
          "velocity": 0.6299212598425197,
          "duration": 0.125
        },
        {
          "name": "A#2",
          "midi": 46,
          "time": 329.875,
          "velocity": 0.7086614173228346,
          "duration": 0.125
        },
        {
          "name": "B1",
          "midi": 35,
          "time": 330,
          "velocity": 0.5511811023622047,
          "duration": 0.125
        },
        {
          "name": "F#2",
          "midi": 42,
          "time": 330,
          "velocity": 0.6299212598425197,
          "duration": 0.125
        },
        {
          "name": "F#2",
          "midi": 42,
          "time": 330.25,
          "velocity": 0.6299212598425197,
          "duration": 0.125
        },
        {
          "name": "F#2",
          "midi": 42,
          "time": 330.5,
          "velocity": 0.6299212598425197,
          "duration": 0.125
        },
        {
          "name": "C#2",
          "midi": 37,
          "time": 330.5,
          "velocity": 0.7874015748031497,
          "duration": 0.125
        },
        {
          "name": "B1",
          "midi": 35,
          "time": 330.75,
          "velocity": 0.6299212598425197,
          "duration": 0.125
        },
        {
          "name": "F#2",
          "midi": 42,
          "time": 330.75,
          "velocity": 0.6299212598425197,
          "duration": 0.125
        },
        {
          "name": "B1",
          "midi": 35,
          "time": 331,
          "velocity": 0.6299212598425197,
          "duration": 0.125
        },
        {
          "name": "F#2",
          "midi": 42,
          "time": 331,
          "velocity": 0.6299212598425197,
          "duration": 0.125
        },
        {
          "name": "F#2",
          "midi": 42,
          "time": 331.25,
          "velocity": 0.6299212598425197,
          "duration": 0.125
        },
        {
          "name": "F#2",
          "midi": 42,
          "time": 331.5,
          "velocity": 0.6299212598425197,
          "duration": 0.125
        },
        {
          "name": "C#2",
          "midi": 37,
          "time": 331.5,
          "velocity": 0.7874015748031497,
          "duration": 0.125
        },
        {
          "name": "B1",
          "midi": 35,
          "time": 331.75,
          "velocity": 0.6299212598425197,
          "duration": 0.125
        },
        {
          "name": "F#2",
          "midi": 42,
          "time": 331.75,
          "velocity": 0.6299212598425197,
          "duration": 0.125
        },
        {
          "name": "B1",
          "midi": 35,
          "time": 332,
          "velocity": 0.5511811023622047,
          "duration": 0.125
        },
        {
          "name": "F#2",
          "midi": 42,
          "time": 332,
          "velocity": 0.6299212598425197,
          "duration": 0.125
        },
        {
          "name": "F#2",
          "midi": 42,
          "time": 332.25,
          "velocity": 0.6299212598425197,
          "duration": 0.125
        },
        {
          "name": "F#2",
          "midi": 42,
          "time": 332.5,
          "velocity": 0.6299212598425197,
          "duration": 0.125
        },
        {
          "name": "C#2",
          "midi": 37,
          "time": 332.5,
          "velocity": 0.7874015748031497,
          "duration": 0.125
        },
        {
          "name": "B1",
          "midi": 35,
          "time": 332.75,
          "velocity": 0.6299212598425197,
          "duration": 0.125
        },
        {
          "name": "F#2",
          "midi": 42,
          "time": 332.75,
          "velocity": 0.6299212598425197,
          "duration": 0.125
        },
        {
          "name": "B1",
          "midi": 35,
          "time": 333,
          "velocity": 0.6299212598425197,
          "duration": 0.125
        },
        {
          "name": "F#2",
          "midi": 42,
          "time": 333,
          "velocity": 0.6299212598425197,
          "duration": 0.125
        },
        {
          "name": "F#2",
          "midi": 42,
          "time": 333.25,
          "velocity": 0.6299212598425197,
          "duration": 0.125
        },
        {
          "name": "F#2",
          "midi": 42,
          "time": 333.5,
          "velocity": 0.6299212598425197,
          "duration": 0.125
        },
        {
          "name": "C#2",
          "midi": 37,
          "time": 333.5,
          "velocity": 0.7874015748031497,
          "duration": 0.125
        },
        {
          "name": "B1",
          "midi": 35,
          "time": 333.75,
          "velocity": 0.6299212598425197,
          "duration": 0.125
        },
        {
          "name": "F#2",
          "midi": 42,
          "time": 333.75,
          "velocity": 0.6299212598425197,
          "duration": 0.125
        },
        {
          "name": "B1",
          "midi": 35,
          "time": 334,
          "velocity": 0.5511811023622047,
          "duration": 0.125
        },
        {
          "name": "F#2",
          "midi": 42,
          "time": 334,
          "velocity": 0.6299212598425197,
          "duration": 0.125
        },
        {
          "name": "F#2",
          "midi": 42,
          "time": 334.25,
          "velocity": 0.6299212598425197,
          "duration": 0.125
        },
        {
          "name": "F#2",
          "midi": 42,
          "time": 334.5,
          "velocity": 0.6299212598425197,
          "duration": 0.125
        },
        {
          "name": "C#2",
          "midi": 37,
          "time": 334.5,
          "velocity": 0.7874015748031497,
          "duration": 0.125
        },
        {
          "name": "B1",
          "midi": 35,
          "time": 334.75,
          "velocity": 0.6299212598425197,
          "duration": 0.125
        },
        {
          "name": "F#2",
          "midi": 42,
          "time": 334.75,
          "velocity": 0.6299212598425197,
          "duration": 0.125
        },
        {
          "name": "B1",
          "midi": 35,
          "time": 335,
          "velocity": 0.6299212598425197,
          "duration": 0.125
        },
        {
          "name": "F#2",
          "midi": 42,
          "time": 335,
          "velocity": 0.6299212598425197,
          "duration": 0.125
        },
        {
          "name": "F#2",
          "midi": 42,
          "time": 335.25,
          "velocity": 0.6299212598425197,
          "duration": 0.125
        },
        {
          "name": "F#2",
          "midi": 42,
          "time": 335.5,
          "velocity": 0.6299212598425197,
          "duration": 0.125
        },
        {
          "name": "C#2",
          "midi": 37,
          "time": 335.5,
          "velocity": 0.7874015748031497,
          "duration": 0.125
        },
        {
          "name": "B1",
          "midi": 35,
          "time": 335.75,
          "velocity": 0.6299212598425197,
          "duration": 0.125
        },
        {
          "name": "F#2",
          "midi": 42,
          "time": 335.75,
          "velocity": 0.6299212598425197,
          "duration": 0.125
        },
        {
          "name": "A#2",
          "midi": 46,
          "time": 335.875,
          "velocity": 0.7086614173228346,
          "duration": 0.125
        },
        {
          "name": "B1",
          "midi": 35,
          "time": 336,
          "velocity": 0.5511811023622047,
          "duration": 0.125
        },
        {
          "name": "F#2",
          "midi": 42,
          "time": 336,
          "velocity": 0.6299212598425197,
          "duration": 0.125
        },
        {
          "name": "F#2",
          "midi": 42,
          "time": 336.25,
          "velocity": 0.6299212598425197,
          "duration": 0.125
        },
        {
          "name": "F#2",
          "midi": 42,
          "time": 336.5,
          "velocity": 0.6299212598425197,
          "duration": 0.125
        },
        {
          "name": "C#2",
          "midi": 37,
          "time": 336.5,
          "velocity": 0.7874015748031497,
          "duration": 0.125
        },
        {
          "name": "B1",
          "midi": 35,
          "time": 336.75,
          "velocity": 0.6299212598425197,
          "duration": 0.125
        },
        {
          "name": "F#2",
          "midi": 42,
          "time": 336.75,
          "velocity": 0.6299212598425197,
          "duration": 0.125
        },
        {
          "name": "B1",
          "midi": 35,
          "time": 337,
          "velocity": 0.6299212598425197,
          "duration": 0.125
        },
        {
          "name": "F#2",
          "midi": 42,
          "time": 337,
          "velocity": 0.6299212598425197,
          "duration": 0.125
        },
        {
          "name": "F#2",
          "midi": 42,
          "time": 337.25,
          "velocity": 0.6299212598425197,
          "duration": 0.125
        },
        {
          "name": "F#2",
          "midi": 42,
          "time": 337.5,
          "velocity": 0.6299212598425197,
          "duration": 0.125
        },
        {
          "name": "C#2",
          "midi": 37,
          "time": 337.5,
          "velocity": 0.7874015748031497,
          "duration": 0.125
        },
        {
          "name": "B1",
          "midi": 35,
          "time": 337.75,
          "velocity": 0.6299212598425197,
          "duration": 0.125
        },
        {
          "name": "F#2",
          "midi": 42,
          "time": 337.75,
          "velocity": 0.6299212598425197,
          "duration": 0.125
        },
        {
          "name": "A#2",
          "midi": 46,
          "time": 337.875,
          "velocity": 0.7086614173228346,
          "duration": 0.125
        },
        {
          "name": "B1",
          "midi": 35,
          "time": 338,
          "velocity": 0.5511811023622047,
          "duration": 0.125
        },
        {
          "name": "F#2",
          "midi": 42,
          "time": 338,
          "velocity": 0.6299212598425197,
          "duration": 0.125
        },
        {
          "name": "F#2",
          "midi": 42,
          "time": 338.25,
          "velocity": 0.6299212598425197,
          "duration": 0.125
        },
        {
          "name": "F#2",
          "midi": 42,
          "time": 338.5,
          "velocity": 0.6299212598425197,
          "duration": 0.125
        },
        {
          "name": "C#2",
          "midi": 37,
          "time": 338.5,
          "velocity": 0.7874015748031497,
          "duration": 0.125
        },
        {
          "name": "B1",
          "midi": 35,
          "time": 338.75,
          "velocity": 0.6299212598425197,
          "duration": 0.125
        },
        {
          "name": "F#2",
          "midi": 42,
          "time": 338.75,
          "velocity": 0.6299212598425197,
          "duration": 0.125
        },
        {
          "name": "B1",
          "midi": 35,
          "time": 339,
          "velocity": 0.6299212598425197,
          "duration": 0.125
        },
        {
          "name": "F#2",
          "midi": 42,
          "time": 339,
          "velocity": 0.6299212598425197,
          "duration": 0.125
        },
        {
          "name": "F#2",
          "midi": 42,
          "time": 339.25,
          "velocity": 0.6299212598425197,
          "duration": 0.125
        },
        {
          "name": "F#2",
          "midi": 42,
          "time": 339.5,
          "velocity": 0.6299212598425197,
          "duration": 0.125
        },
        {
          "name": "C#2",
          "midi": 37,
          "time": 339.5,
          "velocity": 0.7874015748031497,
          "duration": 0.125
        },
        {
          "name": "B1",
          "midi": 35,
          "time": 339.75,
          "velocity": 0.6299212598425197,
          "duration": 0.125
        },
        {
          "name": "F#2",
          "midi": 42,
          "time": 339.75,
          "velocity": 0.6299212598425197,
          "duration": 0.125
        },
        {
          "name": "A#2",
          "midi": 46,
          "time": 339.875,
          "velocity": 0.7086614173228346,
          "duration": 0.125
        },
        {
          "name": "B1",
          "midi": 35,
          "time": 340,
          "velocity": 0.5511811023622047,
          "duration": 0.125
        },
        {
          "name": "F#2",
          "midi": 42,
          "time": 340,
          "velocity": 0.6299212598425197,
          "duration": 0.125
        },
        {
          "name": "F#2",
          "midi": 42,
          "time": 340.25,
          "velocity": 0.6299212598425197,
          "duration": 0.125
        },
        {
          "name": "F#2",
          "midi": 42,
          "time": 340.5,
          "velocity": 0.6299212598425197,
          "duration": 0.125
        },
        {
          "name": "C#2",
          "midi": 37,
          "time": 340.5,
          "velocity": 0.7874015748031497,
          "duration": 0.125
        },
        {
          "name": "B1",
          "midi": 35,
          "time": 340.75,
          "velocity": 0.6299212598425197,
          "duration": 0.125
        },
        {
          "name": "F#2",
          "midi": 42,
          "time": 340.75,
          "velocity": 0.6299212598425197,
          "duration": 0.125
        },
        {
          "name": "B1",
          "midi": 35,
          "time": 341,
          "velocity": 0.6299212598425197,
          "duration": 0.125
        },
        {
          "name": "F#2",
          "midi": 42,
          "time": 341,
          "velocity": 0.6299212598425197,
          "duration": 0.125
        },
        {
          "name": "F#2",
          "midi": 42,
          "time": 341.25,
          "velocity": 0.6299212598425197,
          "duration": 0.125
        },
        {
          "name": "F#2",
          "midi": 42,
          "time": 341.5,
          "velocity": 0.6299212598425197,
          "duration": 0.125
        },
        {
          "name": "C#2",
          "midi": 37,
          "time": 341.5,
          "velocity": 0.7874015748031497,
          "duration": 0.125
        },
        {
          "name": "B1",
          "midi": 35,
          "time": 341.75,
          "velocity": 0.6299212598425197,
          "duration": 0.125
        },
        {
          "name": "F#2",
          "midi": 42,
          "time": 341.75,
          "velocity": 0.6299212598425197,
          "duration": 0.125
        },
        {
          "name": "A#2",
          "midi": 46,
          "time": 341.875,
          "velocity": 0.7086614173228346,
          "duration": 0.125
        },
        {
          "name": "B1",
          "midi": 35,
          "time": 342,
          "velocity": 0.5511811023622047,
          "duration": 0.125
        },
        {
          "name": "F#2",
          "midi": 42,
          "time": 342,
          "velocity": 0.6299212598425197,
          "duration": 0.125
        },
        {
          "name": "F#2",
          "midi": 42,
          "time": 342.25,
          "velocity": 0.6299212598425197,
          "duration": 0.125
        },
        {
          "name": "F#2",
          "midi": 42,
          "time": 342.5,
          "velocity": 0.6299212598425197,
          "duration": 0.125
        },
        {
          "name": "C#2",
          "midi": 37,
          "time": 342.5,
          "velocity": 0.7874015748031497,
          "duration": 0.125
        },
        {
          "name": "B1",
          "midi": 35,
          "time": 342.75,
          "velocity": 0.6299212598425197,
          "duration": 0.125
        },
        {
          "name": "F#2",
          "midi": 42,
          "time": 342.75,
          "velocity": 0.6299212598425197,
          "duration": 0.125
        },
        {
          "name": "B1",
          "midi": 35,
          "time": 343,
          "velocity": 0.6299212598425197,
          "duration": 0.125
        },
        {
          "name": "F#2",
          "midi": 42,
          "time": 343,
          "velocity": 0.6299212598425197,
          "duration": 0.125
        },
        {
          "name": "F#2",
          "midi": 42,
          "time": 343.25,
          "velocity": 0.6299212598425197,
          "duration": 0.125
        },
        {
          "name": "F#2",
          "midi": 42,
          "time": 343.5,
          "velocity": 0.6299212598425197,
          "duration": 0.125
        },
        {
          "name": "C#2",
          "midi": 37,
          "time": 343.5,
          "velocity": 0.7874015748031497,
          "duration": 0.125
        },
        {
          "name": "B1",
          "midi": 35,
          "time": 343.75,
          "velocity": 0.6299212598425197,
          "duration": 0.125
        },
        {
          "name": "F#2",
          "midi": 42,
          "time": 343.75,
          "velocity": 0.6299212598425197,
          "duration": 0.125
        },
        {
          "name": "A#2",
          "midi": 46,
          "time": 343.875,
          "velocity": 0.7086614173228346,
          "duration": 0.125
        },
        {
          "name": "B1",
          "midi": 35,
          "time": 344,
          "velocity": 0.5511811023622047,
          "duration": 0.125
        },
        {
          "name": "F#2",
          "midi": 42,
          "time": 344,
          "velocity": 0.6299212598425197,
          "duration": 0.125
        },
        {
          "name": "F#2",
          "midi": 42,
          "time": 344.25,
          "velocity": 0.6299212598425197,
          "duration": 0.125
        },
        {
          "name": "F#2",
          "midi": 42,
          "time": 344.5,
          "velocity": 0.6299212598425197,
          "duration": 0.125
        },
        {
          "name": "C#2",
          "midi": 37,
          "time": 344.5,
          "velocity": 0.7874015748031497,
          "duration": 0.125
        },
        {
          "name": "B1",
          "midi": 35,
          "time": 344.75,
          "velocity": 0.6299212598425197,
          "duration": 0.125
        },
        {
          "name": "F#2",
          "midi": 42,
          "time": 344.75,
          "velocity": 0.6299212598425197,
          "duration": 0.125
        },
        {
          "name": "B1",
          "midi": 35,
          "time": 345,
          "velocity": 0.6299212598425197,
          "duration": 0.125
        },
        {
          "name": "F#2",
          "midi": 42,
          "time": 345,
          "velocity": 0.6299212598425197,
          "duration": 0.125
        },
        {
          "name": "F#2",
          "midi": 42,
          "time": 345.25,
          "velocity": 0.6299212598425197,
          "duration": 0.125
        },
        {
          "name": "F#2",
          "midi": 42,
          "time": 345.5,
          "velocity": 0.6299212598425197,
          "duration": 0.125
        },
        {
          "name": "C#2",
          "midi": 37,
          "time": 345.5,
          "velocity": 0.7874015748031497,
          "duration": 0.125
        },
        {
          "name": "B1",
          "midi": 35,
          "time": 345.75,
          "velocity": 0.6299212598425197,
          "duration": 0.125
        },
        {
          "name": "F#2",
          "midi": 42,
          "time": 345.75,
          "velocity": 0.6299212598425197,
          "duration": 0.125
        },
        {
          "name": "A#2",
          "midi": 46,
          "time": 345.875,
          "velocity": 0.7086614173228346,
          "duration": 0.125
        },
        {
          "name": "B1",
          "midi": 35,
          "time": 346,
          "velocity": 0.5511811023622047,
          "duration": 0.125
        },
        {
          "name": "F#2",
          "midi": 42,
          "time": 346,
          "velocity": 0.6299212598425197,
          "duration": 0.125
        },
        {
          "name": "F#2",
          "midi": 42,
          "time": 346.25,
          "velocity": 0.6299212598425197,
          "duration": 0.125
        },
        {
          "name": "F#2",
          "midi": 42,
          "time": 346.5,
          "velocity": 0.6299212598425197,
          "duration": 0.125
        },
        {
          "name": "C#2",
          "midi": 37,
          "time": 346.5,
          "velocity": 0.7874015748031497,
          "duration": 0.125
        },
        {
          "name": "B1",
          "midi": 35,
          "time": 346.75,
          "velocity": 0.6299212598425197,
          "duration": 0.125
        },
        {
          "name": "F#2",
          "midi": 42,
          "time": 346.75,
          "velocity": 0.6299212598425197,
          "duration": 0.125
        },
        {
          "name": "B1",
          "midi": 35,
          "time": 347,
          "velocity": 0.6299212598425197,
          "duration": 0.125
        },
        {
          "name": "F#2",
          "midi": 42,
          "time": 347,
          "velocity": 0.6299212598425197,
          "duration": 0.125
        },
        {
          "name": "F#2",
          "midi": 42,
          "time": 347.25,
          "velocity": 0.6299212598425197,
          "duration": 0.125
        },
        {
          "name": "F#2",
          "midi": 42,
          "time": 347.5,
          "velocity": 0.6299212598425197,
          "duration": 0.125
        },
        {
          "name": "C#2",
          "midi": 37,
          "time": 347.5,
          "velocity": 0.7874015748031497,
          "duration": 0.125
        },
        {
          "name": "B1",
          "midi": 35,
          "time": 347.75,
          "velocity": 0.6299212598425197,
          "duration": 0.125
        },
        {
          "name": "F#2",
          "midi": 42,
          "time": 347.75,
          "velocity": 0.6299212598425197,
          "duration": 0.125
        },
        {
          "name": "A#2",
          "midi": 46,
          "time": 347.875,
          "velocity": 0.7086614173228346,
          "duration": 0.125
        },
        {
          "name": "B1",
          "midi": 35,
          "time": 348,
          "velocity": 0.5511811023622047,
          "duration": 0.125
        },
        {
          "name": "F#2",
          "midi": 42,
          "time": 348,
          "velocity": 0.6299212598425197,
          "duration": 0.125
        },
        {
          "name": "F#2",
          "midi": 42,
          "time": 348.25,
          "velocity": 0.6299212598425197,
          "duration": 0.125
        },
        {
          "name": "F#2",
          "midi": 42,
          "time": 348.5,
          "velocity": 0.6299212598425197,
          "duration": 0.125
        },
        {
          "name": "C#2",
          "midi": 37,
          "time": 348.5,
          "velocity": 0.7874015748031497,
          "duration": 0.125
        },
        {
          "name": "B1",
          "midi": 35,
          "time": 348.75,
          "velocity": 0.6299212598425197,
          "duration": 0.125
        },
        {
          "name": "F#2",
          "midi": 42,
          "time": 348.75,
          "velocity": 0.6299212598425197,
          "duration": 0.125
        },
        {
          "name": "B1",
          "midi": 35,
          "time": 349,
          "velocity": 0.6299212598425197,
          "duration": 0.125
        },
        {
          "name": "F#2",
          "midi": 42,
          "time": 349,
          "velocity": 0.6299212598425197,
          "duration": 0.125
        },
        {
          "name": "F#2",
          "midi": 42,
          "time": 349.25,
          "velocity": 0.6299212598425197,
          "duration": 0.125
        },
        {
          "name": "F#2",
          "midi": 42,
          "time": 349.5,
          "velocity": 0.6299212598425197,
          "duration": 0.125
        },
        {
          "name": "C#2",
          "midi": 37,
          "time": 349.5,
          "velocity": 0.7874015748031497,
          "duration": 0.125
        },
        {
          "name": "B1",
          "midi": 35,
          "time": 349.75,
          "velocity": 0.6299212598425197,
          "duration": 0.125
        },
        {
          "name": "F#2",
          "midi": 42,
          "time": 349.75,
          "velocity": 0.6299212598425197,
          "duration": 0.125
        },
        {
          "name": "B1",
          "midi": 35,
          "time": 350,
          "velocity": 0.5511811023622047,
          "duration": 0.125
        },
        {
          "name": "F#2",
          "midi": 42,
          "time": 350,
          "velocity": 0.6299212598425197,
          "duration": 0.125
        },
        {
          "name": "F#2",
          "midi": 42,
          "time": 350.25,
          "velocity": 0.6299212598425197,
          "duration": 0.125
        },
        {
          "name": "F#2",
          "midi": 42,
          "time": 350.5,
          "velocity": 0.6299212598425197,
          "duration": 0.125
        },
        {
          "name": "C#2",
          "midi": 37,
          "time": 350.5,
          "velocity": 0.7874015748031497,
          "duration": 0.125
        },
        {
          "name": "B1",
          "midi": 35,
          "time": 350.75,
          "velocity": 0.6299212598425197,
          "duration": 0.125
        },
        {
          "name": "F#2",
          "midi": 42,
          "time": 350.75,
          "velocity": 0.6299212598425197,
          "duration": 0.125
        },
        {
          "name": "B1",
          "midi": 35,
          "time": 351,
          "velocity": 0.6299212598425197,
          "duration": 0.125
        },
        {
          "name": "F#2",
          "midi": 42,
          "time": 351,
          "velocity": 0.6299212598425197,
          "duration": 0.125
        },
        {
          "name": "F#2",
          "midi": 42,
          "time": 351.25,
          "velocity": 0.6299212598425197,
          "duration": 0.125
        },
        {
          "name": "F#2",
          "midi": 42,
          "time": 351.5,
          "velocity": 0.6299212598425197,
          "duration": 0.125
        },
        {
          "name": "C#2",
          "midi": 37,
          "time": 351.5,
          "velocity": 0.7874015748031497,
          "duration": 0.125
        },
        {
          "name": "B1",
          "midi": 35,
          "time": 351.75,
          "velocity": 0.6299212598425197,
          "duration": 0.125
        },
        {
          "name": "F#2",
          "midi": 42,
          "time": 351.75,
          "velocity": 0.6299212598425197,
          "duration": 0.125
        },
        {
          "name": "A#2",
          "midi": 46,
          "time": 351.875,
          "velocity": 0.7086614173228346,
          "duration": 0.125
        },
        {
          "name": "B1",
          "midi": 35,
          "time": 352,
          "velocity": 0.5511811023622047,
          "duration": 0.125
        },
        {
          "name": "F#2",
          "midi": 42,
          "time": 352,
          "velocity": 0.6299212598425197,
          "duration": 0.125
        },
        {
          "name": "F#2",
          "midi": 42,
          "time": 352.25,
          "velocity": 0.6299212598425197,
          "duration": 0.125
        },
        {
          "name": "D2",
          "midi": 38,
          "time": 352.5,
          "velocity": 0.7874015748031497,
          "duration": 0.125
        },
        {
          "name": "F#2",
          "midi": 42,
          "time": 352.5,
          "velocity": 0.6299212598425197,
          "duration": 0.125
        },
        {
          "name": "B1",
          "midi": 35,
          "time": 352.75,
          "velocity": 0.6299212598425197,
          "duration": 0.125
        },
        {
          "name": "F#2",
          "midi": 42,
          "time": 352.75,
          "velocity": 0.6299212598425197,
          "duration": 0.125
        },
        {
          "name": "B1",
          "midi": 35,
          "time": 353,
          "velocity": 0.6299212598425197,
          "duration": 0.125
        },
        {
          "name": "F#2",
          "midi": 42,
          "time": 353,
          "velocity": 0.6299212598425197,
          "duration": 0.125
        },
        {
          "name": "F#2",
          "midi": 42,
          "time": 353.25,
          "velocity": 0.6299212598425197,
          "duration": 0.125
        },
        {
          "name": "B1",
          "midi": 35,
          "time": 353.375,
          "velocity": 0.7874015748031497,
          "duration": 0.125
        },
        {
          "name": "D2",
          "midi": 38,
          "time": 353.5,
          "velocity": 0.7874015748031497,
          "duration": 0.125
        },
        {
          "name": "F#2",
          "midi": 42,
          "time": 353.5,
          "velocity": 0.6299212598425197,
          "duration": 0.125
        },
        {
          "name": "B1",
          "midi": 35,
          "time": 353.75,
          "velocity": 0.6299212598425197,
          "duration": 0.125
        },
        {
          "name": "D2",
          "midi": 38,
          "time": 353.75,
          "velocity": 0.7086614173228346,
          "duration": 0.125
        },
        {
          "name": "F#2",
          "midi": 42,
          "time": 353.75,
          "velocity": 0.6299212598425197,
          "duration": 0.125
        },
        {
          "name": "D2",
          "midi": 38,
          "time": 353.875,
          "velocity": 0.7086614173228346,
          "duration": 0.125
        },
        {
          "name": "B1",
          "midi": 35,
          "time": 354,
          "velocity": 0.5511811023622047,
          "duration": 0.125
        },
        {
          "name": "F#2",
          "midi": 42,
          "time": 354,
          "velocity": 0.6299212598425197,
          "duration": 0.125
        },
        {
          "name": "F#2",
          "midi": 42,
          "time": 354.25,
          "velocity": 0.6299212598425197,
          "duration": 0.125
        },
        {
          "name": "F#2",
          "midi": 42,
          "time": 354.5,
          "velocity": 0.6299212598425197,
          "duration": 0.125
        },
        {
          "name": "C#2",
          "midi": 37,
          "time": 354.5,
          "velocity": 0.7874015748031497,
          "duration": 0.125
        },
        {
          "name": "B1",
          "midi": 35,
          "time": 354.75,
          "velocity": 0.6299212598425197,
          "duration": 0.125
        },
        {
          "name": "F#2",
          "midi": 42,
          "time": 354.75,
          "velocity": 0.6299212598425197,
          "duration": 0.125
        },
        {
          "name": "B1",
          "midi": 35,
          "time": 355,
          "velocity": 0.6299212598425197,
          "duration": 0.125
        },
        {
          "name": "F#2",
          "midi": 42,
          "time": 355,
          "velocity": 0.6299212598425197,
          "duration": 0.125
        },
        {
          "name": "F#2",
          "midi": 42,
          "time": 355.25,
          "velocity": 0.6299212598425197,
          "duration": 0.125
        },
        {
          "name": "F#2",
          "midi": 42,
          "time": 355.5,
          "velocity": 0.6299212598425197,
          "duration": 0.125
        },
        {
          "name": "C#2",
          "midi": 37,
          "time": 355.5,
          "velocity": 0.7874015748031497,
          "duration": 0.125
        },
        {
          "name": "B1",
          "midi": 35,
          "time": 355.75,
          "velocity": 0.6299212598425197,
          "duration": 0.125
        },
        {
          "name": "F#2",
          "midi": 42,
          "time": 355.75,
          "velocity": 0.6299212598425197,
          "duration": 0.125
        },
        {
          "name": "B1",
          "midi": 35,
          "time": 356,
          "velocity": 0.5511811023622047,
          "duration": 0.125
        },
        {
          "name": "F#2",
          "midi": 42,
          "time": 356,
          "velocity": 0.6299212598425197,
          "duration": 0.125
        },
        {
          "name": "F#2",
          "midi": 42,
          "time": 356.25,
          "velocity": 0.6299212598425197,
          "duration": 0.125
        },
        {
          "name": "F#2",
          "midi": 42,
          "time": 356.5,
          "velocity": 0.6299212598425197,
          "duration": 0.125
        },
        {
          "name": "C#2",
          "midi": 37,
          "time": 356.5,
          "velocity": 0.7874015748031497,
          "duration": 0.125
        },
        {
          "name": "B1",
          "midi": 35,
          "time": 356.75,
          "velocity": 0.6299212598425197,
          "duration": 0.125
        },
        {
          "name": "F#2",
          "midi": 42,
          "time": 356.75,
          "velocity": 0.6299212598425197,
          "duration": 0.125
        },
        {
          "name": "B1",
          "midi": 35,
          "time": 357,
          "velocity": 0.6299212598425197,
          "duration": 0.125
        },
        {
          "name": "F#2",
          "midi": 42,
          "time": 357,
          "velocity": 0.6299212598425197,
          "duration": 0.125
        },
        {
          "name": "F#2",
          "midi": 42,
          "time": 357.25,
          "velocity": 0.6299212598425197,
          "duration": 0.125
        },
        {
          "name": "F#2",
          "midi": 42,
          "time": 357.5,
          "velocity": 0.6299212598425197,
          "duration": 0.125
        },
        {
          "name": "C#2",
          "midi": 37,
          "time": 357.5,
          "velocity": 0.7874015748031497,
          "duration": 0.125
        },
        {
          "name": "B1",
          "midi": 35,
          "time": 357.75,
          "velocity": 0.6299212598425197,
          "duration": 0.125
        },
        {
          "name": "F#2",
          "midi": 42,
          "time": 357.75,
          "velocity": 0.6299212598425197,
          "duration": 0.125
        },
        {
          "name": "A#2",
          "midi": 46,
          "time": 357.875,
          "velocity": 0.7086614173228346,
          "duration": 0.125
        },
        {
          "name": "A3",
          "midi": 57,
          "time": 358.03125,
          "velocity": 0.9606299212598425,
          "duration": 0.21354166666662877
        },
        {
          "name": "D2",
          "midi": 38,
          "time": 358.0572916666667,
          "velocity": 0.9606299212598425,
          "duration": 0.16145833333331439
        },
        {
          "name": "C2",
          "midi": 36,
          "time": 358.0572916666667,
          "velocity": 0.9448818897637795,
          "duration": 0.16666666666662877
        },
        {
          "name": "A3",
          "midi": 57,
          "time": 358.49479166666663,
          "velocity": 0.984251968503937,
          "duration": 0.41666666666662877
        },
        {
          "name": "B3",
          "midi": 59,
          "time": 358.49999999999994,
          "velocity": 0.9448818897637795,
          "duration": 0.03125
        },
        {
          "name": "D2",
          "midi": 38,
          "time": 358.55729166666663,
          "velocity": 0.9763779527559056,
          "duration": 0.32812499999994316
        },
        {
          "name": "C2",
          "midi": 36,
          "time": 358.55729166666663,
          "velocity": 0.9606299212598425,
          "duration": 0.32291666666662877
        },
        {
          "name": "E2",
          "midi": 40,
          "time": 358.56249999999994,
          "velocity": 0.9606299212598425,
          "duration": 0.015625
        },
        {
          "name": "A3",
          "midi": 57,
          "time": 359.9791666666666,
          "velocity": 0.984251968503937,
          "duration": 0.28125
        },
        {
          "name": "D2",
          "midi": 38,
          "time": 360.0260416666666,
          "velocity": 0.984251968503937,
          "duration": 0.2916666666666856
        },
        {
          "name": "C2",
          "midi": 36,
          "time": 360.0260416666666,
          "velocity": 0.9606299212598425,
          "duration": 0.2916666666666856
        },
        {
          "name": "A3",
          "midi": 57,
          "time": 360.47395833333326,
          "velocity": 1,
          "duration": 0.3072916666666856
        },
        {
          "name": "D2",
          "midi": 38,
          "time": 360.53124999999994,
          "velocity": 0.984251968503937,
          "duration": 0.2604166666666856
        },
        {
          "name": "C2",
          "midi": 36,
          "time": 360.53124999999994,
          "velocity": 0.9606299212598425,
          "duration": 0.25
        },
        {
          "name": "A3",
          "midi": 57,
          "time": 361.96354166666663,
          "velocity": 0.9763779527559056,
          "duration": 0.28645833333325754
        },
        {
          "name": "D2",
          "midi": 38,
          "time": 361.98437499999994,
          "velocity": 0.9763779527559056,
          "duration": 0.26041666666662877
        },
        {
          "name": "C2",
          "midi": 36,
          "time": 361.98437499999994,
          "velocity": 0.9606299212598425,
          "duration": 0.2552083333333144
        },
        {
          "name": "E2",
          "midi": 40,
          "time": 361.98958333333326,
          "velocity": 0.9763779527559056,
          "duration": 0.13541666666668561
        },
        {
          "name": "A3",
          "midi": 57,
          "time": 362.4791666666666,
          "velocity": 0.984251968503937,
          "duration": 0.28125
        },
        {
          "name": "C2",
          "midi": 36,
          "time": 362.4843749999999,
          "velocity": 1,
          "duration": 0.3072916666666856
        },
        {
          "name": "D2",
          "midi": 38,
          "time": 362.4843749999999,
          "velocity": 0.984251968503937,
          "duration": 0.3072916666666856
        },
        {
          "name": "A3",
          "midi": 57,
          "time": 363.9947916666666,
          "velocity": 0.984251968503937,
          "duration": 0.265625
        },
        {
          "name": "D2",
          "midi": 38,
          "time": 364.0312499999999,
          "velocity": 0.9763779527559056,
          "duration": 0.25520833333337123
        },
        {
          "name": "C2",
          "midi": 36,
          "time": 364.0312499999999,
          "velocity": 0.984251968503937,
          "duration": 0.25520833333337123
        },
        {
          "name": "E2",
          "midi": 40,
          "time": 364.0312499999999,
          "velocity": 0.9763779527559056,
          "duration": 0.10416666666668561
        },
        {
          "name": "A3",
          "midi": 57,
          "time": 364.4791666666666,
          "velocity": 0.9763779527559056,
          "duration": 0.265625
        },
        {
          "name": "C2",
          "midi": 36,
          "time": 364.5260416666666,
          "velocity": 1,
          "duration": 0.28125
        },
        {
          "name": "D2",
          "midi": 38,
          "time": 364.5260416666666,
          "velocity": 0.984251968503937,
          "duration": 0.2916666666666856
        },
        {
          "name": "D2",
          "midi": 38,
          "time": 365.97395833333326,
          "velocity": 0.9763779527559056,
          "duration": 0.265625
        },
        {
          "name": "C2",
          "midi": 36,
          "time": 365.97395833333326,
          "velocity": 0.9606299212598425,
          "duration": 0.265625
        },
        {
          "name": "A3",
          "midi": 57,
          "time": 365.98958333333326,
          "velocity": 0.9763779527559056,
          "duration": 0.234375
        },
        {
          "name": "A3",
          "midi": 57,
          "time": 366.4947916666666,
          "velocity": 0.984251968503937,
          "duration": 0.2604166666666856
        },
        {
          "name": "D2",
          "midi": 38,
          "time": 366.50520833333326,
          "velocity": 0.984251968503937,
          "duration": 0.24479166666668561
        },
        {
          "name": "C2",
          "midi": 36,
          "time": 366.50520833333326,
          "velocity": 0.9606299212598425,
          "duration": 0.2552083333333144
        },
        {
          "name": "A3",
          "midi": 57,
          "time": 367.9843749999999,
          "velocity": 0.984251968503937,
          "duration": 0.25
        },
        {
          "name": "C2",
          "midi": 36,
          "time": 367.9895833333332,
          "velocity": 0.9763779527559056,
          "duration": 0.2708333333333144
        },
        {
          "name": "D2",
          "midi": 38,
          "time": 367.9895833333332,
          "velocity": 0.9763779527559056,
          "duration": 0.265625
        },
        {
          "name": "A3",
          "midi": 57,
          "time": 368.49999999999983,
          "velocity": 0.984251968503937,
          "duration": 0.2760416666666856
        },
        {
          "name": "D2",
          "midi": 38,
          "time": 368.5104166666665,
          "velocity": 0.984251968503937,
          "duration": 0.22916666666668561
        },
        {
          "name": "C2",
          "midi": 36,
          "time": 368.5104166666665,
          "velocity": 1,
          "duration": 0.22916666666668561
        },
        {
          "name": "D2",
          "midi": 38,
          "time": 369.9739583333332,
          "velocity": 0.9763779527559056,
          "duration": 0.203125
        },
        {
          "name": "C2",
          "midi": 36,
          "time": 369.9739583333332,
          "velocity": 0.984251968503937,
          "duration": 0.22395833333331439
        },
        {
          "name": "A3",
          "midi": 57,
          "time": 369.9895833333332,
          "velocity": 0.984251968503937,
          "duration": 0.234375
        },
        {
          "name": "D2",
          "midi": 38,
          "time": 370.4687499999999,
          "velocity": 0.984251968503937,
          "duration": 0.24479166666668561
        },
        {
          "name": "C2",
          "midi": 36,
          "time": 370.4687499999999,
          "velocity": 0.984251968503937,
          "duration": 0.24479166666668561
        },
        {
          "name": "A3",
          "midi": 57,
          "time": 370.4791666666666,
          "velocity": 1,
          "duration": 0.28125
        },
        {
          "name": "D2",
          "midi": 38,
          "time": 371.91145833333326,
          "velocity": 0.984251968503937,
          "duration": 0.265625
        },
        {
          "name": "C2",
          "midi": 36,
          "time": 371.91145833333326,
          "velocity": 0.9763779527559056,
          "duration": 0.265625
        },
        {
          "name": "E2",
          "midi": 40,
          "time": 371.92187499999994,
          "velocity": 0.9606299212598425,
          "duration": 0.010416666666685614
        },
        {
          "name": "A3",
          "midi": 57,
          "time": 371.93749999999994,
          "velocity": 0.984251968503937,
          "duration": 0.2708333333333144
        },
        {
          "name": "C2",
          "midi": 36,
          "time": 372.4322916666666,
          "velocity": 1,
          "duration": 0.24479166666662877
        },
        {
          "name": "D2",
          "midi": 38,
          "time": 372.4322916666666,
          "velocity": 0.984251968503937,
          "duration": 0.24999999999994316
        },
        {
          "name": "A3",
          "midi": 57,
          "time": 372.4322916666666,
          "velocity": 0.984251968503937,
          "duration": 0.24999999999994316
        },
        {
          "name": "B3",
          "midi": 59,
          "time": 372.4374999999999,
          "velocity": 0.9763779527559056,
          "duration": 0.125
        },
        {
          "name": "C2",
          "midi": 36,
          "time": 373.9791666666665,
          "velocity": 0.9763779527559056,
          "duration": 0.23958333333331439
        },
        {
          "name": "D2",
          "midi": 38,
          "time": 373.9791666666665,
          "velocity": 0.984251968503937,
          "duration": 0.23958333333331439
        },
        {
          "name": "A3",
          "midi": 57,
          "time": 373.9791666666665,
          "velocity": 0.9763779527559056,
          "duration": 0.1875
        },
        {
          "name": "A3",
          "midi": 57,
          "time": 374.47395833333314,
          "velocity": 0.984251968503937,
          "duration": 0.21875
        },
        {
          "name": "D2",
          "midi": 38,
          "time": 374.48437499999983,
          "velocity": 0.9763779527559056,
          "duration": 0.28125
        },
        {
          "name": "C2",
          "midi": 36,
          "time": 374.48437499999983,
          "velocity": 0.9606299212598425,
          "duration": 0.28125
        },
        {
          "name": "A3",
          "midi": 57,
          "time": 375.97395833333314,
          "velocity": 0.984251968503937,
          "duration": 0.22395833333331439
        },
        {
          "name": "C2",
          "midi": 36,
          "time": 376.03645833333314,
          "velocity": 0.9763779527559056,
          "duration": 0.22916666666662877
        },
        {
          "name": "D2",
          "midi": 38,
          "time": 376.03645833333314,
          "velocity": 0.984251968503937,
          "duration": 0.22916666666662877
        },
        {
          "name": "A3",
          "midi": 57,
          "time": 376.4843749999998,
          "velocity": 1,
          "duration": 0.24479166666668561
        },
        {
          "name": "C2",
          "midi": 36,
          "time": 376.4999999999998,
          "velocity": 1,
          "duration": 0.24479166666668561
        },
        {
          "name": "D2",
          "midi": 38,
          "time": 376.4999999999998,
          "velocity": 0.984251968503937,
          "duration": 0.25
        },
        {
          "name": "A3",
          "midi": 57,
          "time": 377.9062499999998,
          "velocity": 0.9763779527559056,
          "duration": 0.2916666666666856
        },
        {
          "name": "D2",
          "midi": 38,
          "time": 377.9531249999998,
          "velocity": 0.984251968503937,
          "duration": 0.28125
        },
        {
          "name": "C2",
          "midi": 36,
          "time": 377.9531249999998,
          "velocity": 1,
          "duration": 0.2760416666666856
        },
        {
          "name": "A3",
          "midi": 57,
          "time": 378.4531249999998,
          "velocity": 0.984251968503937,
          "duration": 0.2708333333333144
        },
        {
          "name": "D2",
          "midi": 38,
          "time": 378.4843749999998,
          "velocity": 0.984251968503937,
          "duration": 0.22395833333331439
        },
        {
          "name": "C2",
          "midi": 36,
          "time": 378.4843749999998,
          "velocity": 0.9606299212598425,
          "duration": 0.22916666666662877
        },
        {
          "name": "D2",
          "midi": 38,
          "time": 380.0104166666664,
          "velocity": 0.9763779527559056,
          "duration": 0.22395833333331439
        },
        {
          "name": "C2",
          "midi": 36,
          "time": 380.0104166666664,
          "velocity": 0.9763779527559056,
          "duration": 0.21875
        },
        {
          "name": "A3",
          "midi": 57,
          "time": 380.0104166666664,
          "velocity": 0.9763779527559056,
          "duration": 0.171875
        },
        {
          "name": "C2",
          "midi": 36,
          "time": 380.4999999999997,
          "velocity": 1,
          "duration": 0.26041666666662877
        },
        {
          "name": "D2",
          "midi": 38,
          "time": 380.4999999999997,
          "velocity": 0.9763779527559056,
          "duration": 0.2552083333333144
        },
        {
          "name": "A3",
          "midi": 57,
          "time": 380.4999999999997,
          "velocity": 0.984251968503937,
          "duration": 0.26041666666662877
        },
        {
          "name": "A3",
          "midi": 57,
          "time": 382.01562499999966,
          "velocity": 0.9763779527559056,
          "duration": 0.25
        },
        {
          "name": "C2",
          "midi": 36,
          "time": 382.02604166666634,
          "velocity": 0.984251968503937,
          "duration": 0.234375
        },
        {
          "name": "D2",
          "midi": 38,
          "time": 382.02604166666634,
          "velocity": 0.984251968503937,
          "duration": 0.234375
        },
        {
          "name": "D2",
          "midi": 38,
          "time": 382.52604166666634,
          "velocity": 0.984251968503937,
          "duration": 0.2552083333333144
        },
        {
          "name": "C2",
          "midi": 36,
          "time": 382.52604166666634,
          "velocity": 0.9763779527559056,
          "duration": 0.26041666666662877
        },
        {
          "name": "A3",
          "midi": 57,
          "time": 382.52604166666634,
          "velocity": 0.9763779527559056,
          "duration": 0.234375
        },
        {
          "name": "C2",
          "midi": 36,
          "time": 384.03124999999966,
          "velocity": 1,
          "duration": 0.2604166666666856
        },
        {
          "name": "D2",
          "midi": 38,
          "time": 384.03124999999966,
          "velocity": 0.9763779527559056,
          "duration": 0.265625
        },
        {
          "name": "A3",
          "midi": 57,
          "time": 384.03124999999966,
          "velocity": 0.9763779527559056,
          "duration": 0.21354166666668561
        },
        {
          "name": "A3",
          "midi": 57,
          "time": 384.536458333333,
          "velocity": 0.984251968503937,
          "duration": 0.2708333333333144
        },
        {
          "name": "C2",
          "midi": 36,
          "time": 384.5416666666663,
          "velocity": 1,
          "duration": 0.28125
        },
        {
          "name": "D2",
          "midi": 38,
          "time": 384.5416666666663,
          "velocity": 0.9763779527559056,
          "duration": 0.28125
        },
        {
          "name": "C2",
          "midi": 36,
          "time": 385.9843749999996,
          "velocity": 0.9763779527559056,
          "duration": 0.2604166666666856
        },
        {
          "name": "D2",
          "midi": 38,
          "time": 385.9843749999996,
          "velocity": 0.984251968503937,
          "duration": 0.25
        },
        {
          "name": "A3",
          "midi": 57,
          "time": 386.0260416666663,
          "velocity": 0.9606299212598425,
          "duration": 0.22395833333331439
        },
        {
          "name": "C2",
          "midi": 36,
          "time": 386.5208333333329,
          "velocity": 1,
          "duration": 0.265625
        },
        {
          "name": "D2",
          "midi": 38,
          "time": 386.5208333333329,
          "velocity": 0.984251968503937,
          "duration": 0.2916666666666856
        },
        {
          "name": "A3",
          "midi": 57,
          "time": 386.5208333333329,
          "velocity": 0.9763779527559056,
          "duration": 0.2916666666666856
        },
        {
          "name": "E2",
          "midi": 40,
          "time": 386.5520833333329,
          "velocity": 0.8346456692913385,
          "duration": 0.020833333333314386
        },
        {
          "name": "B1",
          "midi": 35,
          "time": 387.9999999999996,
          "velocity": 0.5511811023622047,
          "duration": 0.125
        },
        {
          "name": "F#2",
          "midi": 42,
          "time": 387.9999999999996,
          "velocity": 0.6299212598425197,
          "duration": 0.125
        },
        {
          "name": "A3",
          "midi": 57,
          "time": 388.0052083333329,
          "velocity": 0.9763779527559056,
          "duration": 0.24479166666668561
        },
        {
          "name": "C2",
          "midi": 36,
          "time": 388.0312499999996,
          "velocity": 1,
          "duration": 0.20833333333331439
        },
        {
          "name": "D2",
          "midi": 38,
          "time": 388.0312499999996,
          "velocity": 0.9763779527559056,
          "duration": 0.20833333333331439
        },
        {
          "name": "F#2",
          "midi": 42,
          "time": 388.2499999999996,
          "velocity": 0.6299212598425197,
          "duration": 0.125
        },
        {
          "name": "F#2",
          "midi": 42,
          "time": 388.4999999999996,
          "velocity": 0.6299212598425197,
          "duration": 0.12499999999994316
        },
        {
          "name": "C#2",
          "midi": 37,
          "time": 388.4999999999996,
          "velocity": 0.7874015748031497,
          "duration": 0.12499999999994316
        },
        {
          "name": "A3",
          "midi": 57,
          "time": 388.5052083333329,
          "velocity": 0.9763779527559056,
          "duration": 0.23437499999994316
        },
        {
          "name": "C2",
          "midi": 36,
          "time": 388.52604166666623,
          "velocity": 0.984251968503937,
          "duration": 0.30729166666662877
        },
        {
          "name": "D2",
          "midi": 38,
          "time": 388.52604166666623,
          "velocity": 0.9763779527559056,
          "duration": 0.31249999999994316
        },
        {
          "name": "B1",
          "midi": 35,
          "time": 388.74999999999955,
          "velocity": 0.6299212598425197,
          "duration": 0.12499999999994316
        },
        {
          "name": "F#2",
          "midi": 42,
          "time": 388.74999999999955,
          "velocity": 0.6299212598425197,
          "duration": 0.12499999999994316
        },
        {
          "name": "B1",
          "midi": 35,
          "time": 388.9999999999995,
          "velocity": 0.6299212598425197,
          "duration": 0.125
        },
        {
          "name": "F#2",
          "midi": 42,
          "time": 388.9999999999995,
          "velocity": 0.6299212598425197,
          "duration": 0.125
        },
        {
          "name": "F#2",
          "midi": 42,
          "time": 389.2499999999995,
          "velocity": 0.6299212598425197,
          "duration": 0.125
        },
        {
          "name": "F#2",
          "midi": 42,
          "time": 389.4999999999995,
          "velocity": 0.6299212598425197,
          "duration": 0.125
        },
        {
          "name": "C#2",
          "midi": 37,
          "time": 389.4999999999995,
          "velocity": 0.7874015748031497,
          "duration": 0.125
        },
        {
          "name": "B1",
          "midi": 35,
          "time": 389.7499999999995,
          "velocity": 0.6299212598425197,
          "duration": 0.125
        },
        {
          "name": "F#2",
          "midi": 42,
          "time": 389.7499999999995,
          "velocity": 0.6299212598425197,
          "duration": 0.125
        },
        {
          "name": "A#2",
          "midi": 46,
          "time": 389.8749999999995,
          "velocity": 0.7086614173228346,
          "duration": 0.12499999999994316
        },
        {
          "name": "D2",
          "midi": 38,
          "time": 389.9739583333328,
          "velocity": 0.9763779527559056,
          "duration": 0.27604166666662877
        },
        {
          "name": "C2",
          "midi": 36,
          "time": 389.9739583333328,
          "velocity": 0.9606299212598425,
          "duration": 0.2708333333333144
        },
        {
          "name": "E2",
          "midi": 40,
          "time": 389.9791666666661,
          "velocity": 0.9606299212598425,
          "duration": 0.010416666666628771
        },
        {
          "name": "A3",
          "midi": 57,
          "time": 389.98437499999943,
          "velocity": 0.9606299212598425,
          "duration": 0.25
        },
        {
          "name": "B1",
          "midi": 35,
          "time": 389.99999999999943,
          "velocity": 0.5511811023622047,
          "duration": 0.125
        },
        {
          "name": "F#2",
          "midi": 42,
          "time": 389.99999999999943,
          "velocity": 0.6299212598425197,
          "duration": 0.125
        },
        {
          "name": "F#2",
          "midi": 42,
          "time": 390.24999999999943,
          "velocity": 0.6299212598425197,
          "duration": 0.125
        },
        {
          "name": "F#2",
          "midi": 42,
          "time": 390.49999999999943,
          "velocity": 0.6299212598425197,
          "duration": 0.125
        },
        {
          "name": "C#2",
          "midi": 37,
          "time": 390.49999999999943,
          "velocity": 0.7874015748031497,
          "duration": 0.125
        },
        {
          "name": "A3",
          "midi": 57,
          "time": 390.49999999999943,
          "velocity": 0.9606299212598425,
          "duration": 0.2760416666666856
        },
        {
          "name": "C2",
          "midi": 36,
          "time": 390.50520833333275,
          "velocity": 0.984251968503937,
          "duration": 0.203125
        },
        {
          "name": "D2",
          "midi": 38,
          "time": 390.50520833333275,
          "velocity": 0.9763779527559056,
          "duration": 0.203125
        },
        {
          "name": "B1",
          "midi": 35,
          "time": 390.74999999999943,
          "velocity": 0.6299212598425197,
          "duration": 0.125
        },
        {
          "name": "F#2",
          "midi": 42,
          "time": 390.74999999999943,
          "velocity": 0.6299212598425197,
          "duration": 0.125
        },
        {
          "name": "B1",
          "midi": 35,
          "time": 390.99999999999943,
          "velocity": 0.6299212598425197,
          "duration": 0.125
        },
        {
          "name": "F#2",
          "midi": 42,
          "time": 390.99999999999943,
          "velocity": 0.6299212598425197,
          "duration": 0.125
        },
        {
          "name": "F#2",
          "midi": 42,
          "time": 391.24999999999943,
          "velocity": 0.6299212598425197,
          "duration": 0.125
        },
        {
          "name": "F#2",
          "midi": 42,
          "time": 391.49999999999943,
          "velocity": 0.6299212598425197,
          "duration": 0.125
        },
        {
          "name": "C#2",
          "midi": 37,
          "time": 391.49999999999943,
          "velocity": 0.7874015748031497,
          "duration": 0.125
        },
        {
          "name": "B1",
          "midi": 35,
          "time": 391.74999999999943,
          "velocity": 0.6299212598425197,
          "duration": 0.125
        },
        {
          "name": "F#2",
          "midi": 42,
          "time": 391.74999999999943,
          "velocity": 0.6299212598425197,
          "duration": 0.125
        },
        {
          "name": "A#2",
          "midi": 46,
          "time": 391.87499999999943,
          "velocity": 0.7086614173228346,
          "duration": 0.125
        },
        {
          "name": "A3",
          "midi": 57,
          "time": 391.9791666666661,
          "velocity": 0.9763779527559056,
          "duration": 0.3020833333333144
        },
        {
          "name": "B1",
          "midi": 35,
          "time": 391.99999999999943,
          "velocity": 0.5511811023622047,
          "duration": 0.125
        },
        {
          "name": "F#2",
          "midi": 42,
          "time": 391.99999999999943,
          "velocity": 0.6299212598425197,
          "duration": 0.125
        },
        {
          "name": "F#2",
          "midi": 42,
          "time": 392.24999999999943,
          "velocity": 0.6299212598425197,
          "duration": 0.125
        },
        {
          "name": "F#2",
          "midi": 42,
          "time": 392.49999999999943,
          "velocity": 0.6299212598425197,
          "duration": 0.125
        },
        {
          "name": "C#2",
          "midi": 37,
          "time": 392.49999999999943,
          "velocity": 0.7874015748031497,
          "duration": 0.125
        },
        {
          "name": "A3",
          "midi": 57,
          "time": 392.5104166666661,
          "velocity": 0.9763779527559056,
          "duration": 0.296875
        },
        {
          "name": "B1",
          "midi": 35,
          "time": 392.74999999999943,
          "velocity": 0.6299212598425197,
          "duration": 0.125
        },
        {
          "name": "F#2",
          "midi": 42,
          "time": 392.74999999999943,
          "velocity": 0.6299212598425197,
          "duration": 0.125
        },
        {
          "name": "B1",
          "midi": 35,
          "time": 392.99999999999943,
          "velocity": 0.6299212598425197,
          "duration": 0.125
        },
        {
          "name": "F#2",
          "midi": 42,
          "time": 392.99999999999943,
          "velocity": 0.6299212598425197,
          "duration": 0.125
        },
        {
          "name": "F#2",
          "midi": 42,
          "time": 393.24999999999943,
          "velocity": 0.6299212598425197,
          "duration": 0.125
        },
        {
          "name": "F#2",
          "midi": 42,
          "time": 393.49999999999943,
          "velocity": 0.6299212598425197,
          "duration": 0.125
        },
        {
          "name": "C#2",
          "midi": 37,
          "time": 393.49999999999943,
          "velocity": 0.7874015748031497,
          "duration": 0.125
        },
        {
          "name": "B1",
          "midi": 35,
          "time": 393.74999999999943,
          "velocity": 0.6299212598425197,
          "duration": 0.125
        },
        {
          "name": "F#2",
          "midi": 42,
          "time": 393.74999999999943,
          "velocity": 0.6299212598425197,
          "duration": 0.125
        },
        {
          "name": "A#2",
          "midi": 46,
          "time": 393.87499999999943,
          "velocity": 0.7086614173228346,
          "duration": 0.125
        },
        {
          "name": "A3",
          "midi": 57,
          "time": 393.97395833333275,
          "velocity": 0.9606299212598425,
          "duration": 0.21875
        },
        {
          "name": "B1",
          "midi": 35,
          "time": 393.99999999999943,
          "velocity": 0.5511811023622047,
          "duration": 0.125
        },
        {
          "name": "F#2",
          "midi": 42,
          "time": 393.99999999999943,
          "velocity": 0.6299212598425197,
          "duration": 0.125
        },
        {
          "name": "F#2",
          "midi": 42,
          "time": 394.24999999999943,
          "velocity": 0.6299212598425197,
          "duration": 0.125
        },
        {
          "name": "F#2",
          "midi": 42,
          "time": 394.49999999999943,
          "velocity": 0.6299212598425197,
          "duration": 0.125
        },
        {
          "name": "C#2",
          "midi": 37,
          "time": 394.49999999999943,
          "velocity": 0.7874015748031497,
          "duration": 0.125
        },
        {
          "name": "A3",
          "midi": 57,
          "time": 394.51562499999943,
          "velocity": 0.937007874015748,
          "duration": 0.21875
        },
        {
          "name": "B1",
          "midi": 35,
          "time": 394.74999999999943,
          "velocity": 0.6299212598425197,
          "duration": 0.125
        },
        {
          "name": "F#2",
          "midi": 42,
          "time": 394.74999999999943,
          "velocity": 0.6299212598425197,
          "duration": 0.125
        },
        {
          "name": "B1",
          "midi": 35,
          "time": 394.99999999999943,
          "velocity": 0.6299212598425197,
          "duration": 0.125
        },
        {
          "name": "F#2",
          "midi": 42,
          "time": 394.99999999999943,
          "velocity": 0.6299212598425197,
          "duration": 0.125
        },
        {
          "name": "F#2",
          "midi": 42,
          "time": 395.24999999999943,
          "velocity": 0.6299212598425197,
          "duration": 0.125
        },
        {
          "name": "F#2",
          "midi": 42,
          "time": 395.49999999999943,
          "velocity": 0.6299212598425197,
          "duration": 0.125
        },
        {
          "name": "C#2",
          "midi": 37,
          "time": 395.49999999999943,
          "velocity": 0.7874015748031497,
          "duration": 0.125
        },
        {
          "name": "B1",
          "midi": 35,
          "time": 395.74999999999943,
          "velocity": 0.6299212598425197,
          "duration": 0.125
        },
        {
          "name": "F#2",
          "midi": 42,
          "time": 395.74999999999943,
          "velocity": 0.6299212598425197,
          "duration": 0.125
        },
        {
          "name": "A#2",
          "midi": 46,
          "time": 395.87499999999943,
          "velocity": 0.7086614173228346,
          "duration": 0.125
        },
        {
          "name": "B1",
          "midi": 35,
          "time": 395.99999999999943,
          "velocity": 0.5511811023622047,
          "duration": 0.125
        },
        {
          "name": "F#2",
          "midi": 42,
          "time": 395.99999999999943,
          "velocity": 0.6299212598425197,
          "duration": 0.125
        },
        {
          "name": "A3",
          "midi": 57,
          "time": 396.0729166666661,
          "velocity": 0.9448818897637795,
          "duration": 0.17708333333331439
        },
        {
          "name": "F#2",
          "midi": 42,
          "time": 396.24999999999943,
          "velocity": 0.6299212598425197,
          "duration": 0.125
        },
        {
          "name": "F#2",
          "midi": 42,
          "time": 396.49999999999943,
          "velocity": 0.6299212598425197,
          "duration": 0.125
        },
        {
          "name": "C#2",
          "midi": 37,
          "time": 396.49999999999943,
          "velocity": 0.7874015748031497,
          "duration": 0.125
        },
        {
          "name": "A3",
          "midi": 57,
          "time": 396.50520833333275,
          "velocity": 0.9448818897637795,
          "duration": 0.30208333333337123
        },
        {
          "name": "B1",
          "midi": 35,
          "time": 396.74999999999943,
          "velocity": 0.6299212598425197,
          "duration": 0.125
        },
        {
          "name": "F#2",
          "midi": 42,
          "time": 396.74999999999943,
          "velocity": 0.6299212598425197,
          "duration": 0.125
        },
        {
          "name": "B1",
          "midi": 35,
          "time": 396.99999999999943,
          "velocity": 0.6299212598425197,
          "duration": 0.125
        },
        {
          "name": "F#2",
          "midi": 42,
          "time": 396.99999999999943,
          "velocity": 0.6299212598425197,
          "duration": 0.125
        },
        {
          "name": "F#2",
          "midi": 42,
          "time": 397.24999999999943,
          "velocity": 0.6299212598425197,
          "duration": 0.125
        },
        {
          "name": "F#2",
          "midi": 42,
          "time": 397.49999999999943,
          "velocity": 0.6299212598425197,
          "duration": 0.125
        },
        {
          "name": "C#2",
          "midi": 37,
          "time": 397.49999999999943,
          "velocity": 0.7874015748031497,
          "duration": 0.125
        },
        {
          "name": "B1",
          "midi": 35,
          "time": 397.74999999999943,
          "velocity": 0.6299212598425197,
          "duration": 0.125
        },
        {
          "name": "F#2",
          "midi": 42,
          "time": 397.74999999999943,
          "velocity": 0.6299212598425197,
          "duration": 0.125
        },
        {
          "name": "A#2",
          "midi": 46,
          "time": 397.87499999999943,
          "velocity": 0.7086614173228346,
          "duration": 0.125
        },
        {
          "name": "B1",
          "midi": 35,
          "time": 397.99999999999943,
          "velocity": 0.5511811023622047,
          "duration": 0.125
        },
        {
          "name": "F#2",
          "midi": 42,
          "time": 397.99999999999943,
          "velocity": 0.6299212598425197,
          "duration": 0.125
        },
        {
          "name": "A3",
          "midi": 57,
          "time": 398.00520833333275,
          "velocity": 0.8818897637795275,
          "duration": 0.234375
        },
        {
          "name": "F#2",
          "midi": 42,
          "time": 398.24999999999943,
          "velocity": 0.6299212598425197,
          "duration": 0.125
        },
        {
          "name": "F#2",
          "midi": 42,
          "time": 398.49999999999943,
          "velocity": 0.6299212598425197,
          "duration": 0.125
        },
        {
          "name": "C#2",
          "midi": 37,
          "time": 398.49999999999943,
          "velocity": 0.7874015748031497,
          "duration": 0.125
        },
        {
          "name": "A3",
          "midi": 57,
          "time": 398.53124999999943,
          "velocity": 0.9448818897637795,
          "duration": 0.2864583333333144
        },
        {
          "name": "B1",
          "midi": 35,
          "time": 398.74999999999943,
          "velocity": 0.6299212598425197,
          "duration": 0.125
        },
        {
          "name": "F#2",
          "midi": 42,
          "time": 398.74999999999943,
          "velocity": 0.6299212598425197,
          "duration": 0.125
        },
        {
          "name": "B1",
          "midi": 35,
          "time": 398.99999999999943,
          "velocity": 0.6299212598425197,
          "duration": 0.125
        },
        {
          "name": "F#2",
          "midi": 42,
          "time": 398.99999999999943,
          "velocity": 0.6299212598425197,
          "duration": 0.125
        },
        {
          "name": "F#2",
          "midi": 42,
          "time": 399.24999999999943,
          "velocity": 0.6299212598425197,
          "duration": 0.125
        },
        {
          "name": "F#2",
          "midi": 42,
          "time": 399.49999999999943,
          "velocity": 0.6299212598425197,
          "duration": 0.125
        },
        {
          "name": "C#2",
          "midi": 37,
          "time": 399.49999999999943,
          "velocity": 0.7874015748031497,
          "duration": 0.125
        },
        {
          "name": "B1",
          "midi": 35,
          "time": 399.74999999999943,
          "velocity": 0.6299212598425197,
          "duration": 0.125
        },
        {
          "name": "F#2",
          "midi": 42,
          "time": 399.74999999999943,
          "velocity": 0.6299212598425197,
          "duration": 0.125
        },
        {
          "name": "A#2",
          "midi": 46,
          "time": 399.87499999999943,
          "velocity": 0.7086614173228346,
          "duration": 0.125
        },
        {
          "name": "B1",
          "midi": 35,
          "time": 399.99999999999943,
          "velocity": 0.5511811023622047,
          "duration": 0.125
        },
        {
          "name": "F#2",
          "midi": 42,
          "time": 399.99999999999943,
          "velocity": 0.6299212598425197,
          "duration": 0.125
        },
        {
          "name": "A3",
          "midi": 57,
          "time": 400.03645833333275,
          "velocity": 0.8976377952755905,
          "duration": 0.234375
        },
        {
          "name": "G3",
          "midi": 55,
          "time": 400.03645833333275,
          "velocity": 0.937007874015748,
          "duration": 0.13541666666668561
        },
        {
          "name": "F#2",
          "midi": 42,
          "time": 400.24999999999943,
          "velocity": 0.6299212598425197,
          "duration": 0.125
        },
        {
          "name": "F#2",
          "midi": 42,
          "time": 400.49999999999943,
          "velocity": 0.6299212598425197,
          "duration": 0.125
        },
        {
          "name": "C#2",
          "midi": 37,
          "time": 400.49999999999943,
          "velocity": 0.7874015748031497,
          "duration": 0.125
        },
        {
          "name": "A3",
          "midi": 57,
          "time": 400.50520833333275,
          "velocity": 0.937007874015748,
          "duration": 0.2916666666666856
        },
        {
          "name": "B1",
          "midi": 35,
          "time": 400.74999999999943,
          "velocity": 0.6299212598425197,
          "duration": 0.125
        },
        {
          "name": "F#2",
          "midi": 42,
          "time": 400.74999999999943,
          "velocity": 0.6299212598425197,
          "duration": 0.125
        },
        {
          "name": "B1",
          "midi": 35,
          "time": 400.99999999999943,
          "velocity": 0.6299212598425197,
          "duration": 0.125
        },
        {
          "name": "F#2",
          "midi": 42,
          "time": 400.99999999999943,
          "velocity": 0.6299212598425197,
          "duration": 0.125
        },
        {
          "name": "F#2",
          "midi": 42,
          "time": 401.24999999999943,
          "velocity": 0.6299212598425197,
          "duration": 0.125
        },
        {
          "name": "F#2",
          "midi": 42,
          "time": 401.49999999999943,
          "velocity": 0.6299212598425197,
          "duration": 0.125
        },
        {
          "name": "C#2",
          "midi": 37,
          "time": 401.49999999999943,
          "velocity": 0.7874015748031497,
          "duration": 0.125
        },
        {
          "name": "B1",
          "midi": 35,
          "time": 401.74999999999943,
          "velocity": 0.6299212598425197,
          "duration": 0.125
        },
        {
          "name": "F#2",
          "midi": 42,
          "time": 401.74999999999943,
          "velocity": 0.6299212598425197,
          "duration": 0.125
        },
        {
          "name": "B3",
          "midi": 59,
          "time": 401.9479166666661,
          "velocity": 0.8976377952755905,
          "duration": 0.2708333333333144
        },
        {
          "name": "A3",
          "midi": 57,
          "time": 401.95312499999943,
          "velocity": 0.8818897637795275,
          "duration": 0.265625
        },
        {
          "name": "B1",
          "midi": 35,
          "time": 401.99999999999943,
          "velocity": 0.5511811023622047,
          "duration": 0.125
        },
        {
          "name": "F#2",
          "midi": 42,
          "time": 401.99999999999943,
          "velocity": 0.6299212598425197,
          "duration": 0.125
        },
        {
          "name": "F#2",
          "midi": 42,
          "time": 402.24999999999943,
          "velocity": 0.6299212598425197,
          "duration": 0.125
        },
        {
          "name": "A3",
          "midi": 57,
          "time": 402.48437499999943,
          "velocity": 0.9606299212598425,
          "duration": 0.328125
        },
        {
          "name": "F#2",
          "midi": 42,
          "time": 402.49999999999943,
          "velocity": 0.6299212598425197,
          "duration": 0.125
        },
        {
          "name": "C#2",
          "midi": 37,
          "time": 402.49999999999943,
          "velocity": 0.7874015748031497,
          "duration": 0.125
        },
        {
          "name": "B1",
          "midi": 35,
          "time": 402.74999999999943,
          "velocity": 0.6299212598425197,
          "duration": 0.125
        },
        {
          "name": "F#2",
          "midi": 42,
          "time": 402.74999999999943,
          "velocity": 0.6299212598425197,
          "duration": 0.125
        },
        {
          "name": "B1",
          "midi": 35,
          "time": 402.99999999999943,
          "velocity": 0.6299212598425197,
          "duration": 0.125
        },
        {
          "name": "F#2",
          "midi": 42,
          "time": 402.99999999999943,
          "velocity": 0.6299212598425197,
          "duration": 0.125
        },
        {
          "name": "F#2",
          "midi": 42,
          "time": 403.24999999999943,
          "velocity": 0.6299212598425197,
          "duration": 0.125
        },
        {
          "name": "F#2",
          "midi": 42,
          "time": 403.49999999999943,
          "velocity": 0.6299212598425197,
          "duration": 0.125
        },
        {
          "name": "C#2",
          "midi": 37,
          "time": 403.49999999999943,
          "velocity": 0.7874015748031497,
          "duration": 0.125
        },
        {
          "name": "B1",
          "midi": 35,
          "time": 403.74999999999943,
          "velocity": 0.6299212598425197,
          "duration": 0.125
        },
        {
          "name": "F#2",
          "midi": 42,
          "time": 403.74999999999943,
          "velocity": 0.6299212598425197,
          "duration": 0.125
        },
        {
          "name": "A#2",
          "midi": 46,
          "time": 403.87499999999943,
          "velocity": 0.7086614173228346,
          "duration": 0.125
        },
        {
          "name": "A3",
          "midi": 57,
          "time": 403.9947916666661,
          "velocity": 0.9763779527559056,
          "duration": 0.26041666666662877
        },
        {
          "name": "B1",
          "midi": 35,
          "time": 403.99999999999943,
          "velocity": 0.5511811023622047,
          "duration": 0.125
        },
        {
          "name": "F#2",
          "midi": 42,
          "time": 403.99999999999943,
          "velocity": 0.6299212598425197,
          "duration": 0.125
        },
        {
          "name": "F#2",
          "midi": 42,
          "time": 404.24999999999943,
          "velocity": 0.6299212598425197,
          "duration": 0.125
        },
        {
          "name": "A3",
          "midi": 57,
          "time": 404.48958333333275,
          "velocity": 0.9763779527559056,
          "duration": 0.22916666666668561
        },
        {
          "name": "D2",
          "midi": 38,
          "time": 404.49999999999943,
          "velocity": 0.7874015748031497,
          "duration": 0.125
        },
        {
          "name": "F#2",
          "midi": 42,
          "time": 404.49999999999943,
          "velocity": 0.6299212598425197,
          "duration": 0.125
        },
        {
          "name": "B1",
          "midi": 35,
          "time": 404.74999999999943,
          "velocity": 0.6299212598425197,
          "duration": 0.125
        },
        {
          "name": "F#2",
          "midi": 42,
          "time": 404.74999999999943,
          "velocity": 0.6299212598425197,
          "duration": 0.125
        },
        {
          "name": "B1",
          "midi": 35,
          "time": 404.99999999999943,
          "velocity": 0.6299212598425197,
          "duration": 0.125
        },
        {
          "name": "F#2",
          "midi": 42,
          "time": 404.99999999999943,
          "velocity": 0.6299212598425197,
          "duration": 0.125
        },
        {
          "name": "F#2",
          "midi": 42,
          "time": 405.24999999999943,
          "velocity": 0.6299212598425197,
          "duration": 0.125
        },
        {
          "name": "B1",
          "midi": 35,
          "time": 405.37499999999943,
          "velocity": 0.7874015748031497,
          "duration": 0.125
        },
        {
          "name": "D2",
          "midi": 38,
          "time": 405.49999999999943,
          "velocity": 0.7874015748031497,
          "duration": 0.125
        },
        {
          "name": "F#2",
          "midi": 42,
          "time": 405.49999999999943,
          "velocity": 0.6299212598425197,
          "duration": 0.125
        },
        {
          "name": "B1",
          "midi": 35,
          "time": 405.74999999999943,
          "velocity": 0.6299212598425197,
          "duration": 0.125
        },
        {
          "name": "D2",
          "midi": 38,
          "time": 405.74999999999943,
          "velocity": 0.7086614173228346,
          "duration": 0.125
        },
        {
          "name": "F#2",
          "midi": 42,
          "time": 405.74999999999943,
          "velocity": 0.6299212598425197,
          "duration": 0.125
        },
        {
          "name": "D2",
          "midi": 38,
          "time": 405.87499999999943,
          "velocity": 0.7086614173228346,
          "duration": 0.125
        },
        {
          "name": "A3",
          "midi": 57,
          "time": 405.98958333333275,
          "velocity": 0.905511811023622,
          "duration": 0.25
        },
        {
          "name": "B1",
          "midi": 35,
          "time": 405.99999999999943,
          "velocity": 0.5511811023622047,
          "duration": 0.125
        },
        {
          "name": "F#2",
          "midi": 42,
          "time": 405.99999999999943,
          "velocity": 0.6299212598425197,
          "duration": 0.125
        },
        {
          "name": "F#2",
          "midi": 42,
          "time": 406.24999999999943,
          "velocity": 0.6299212598425197,
          "duration": 0.125
        },
        {
          "name": "F#2",
          "midi": 42,
          "time": 406.49999999999943,
          "velocity": 0.6299212598425197,
          "duration": 0.125
        },
        {
          "name": "C#2",
          "midi": 37,
          "time": 406.49999999999943,
          "velocity": 0.7874015748031497,
          "duration": 0.125
        },
        {
          "name": "A3",
          "midi": 57,
          "time": 406.5260416666661,
          "velocity": 0.937007874015748,
          "duration": 0.27604166666662877
        },
        {
          "name": "B1",
          "midi": 35,
          "time": 406.74999999999943,
          "velocity": 0.6299212598425197,
          "duration": 0.125
        },
        {
          "name": "F#2",
          "midi": 42,
          "time": 406.74999999999943,
          "velocity": 0.6299212598425197,
          "duration": 0.125
        },
        {
          "name": "B1",
          "midi": 35,
          "time": 406.99999999999943,
          "velocity": 0.6299212598425197,
          "duration": 0.125
        },
        {
          "name": "F#2",
          "midi": 42,
          "time": 406.99999999999943,
          "velocity": 0.6299212598425197,
          "duration": 0.125
        },
        {
          "name": "F#2",
          "midi": 42,
          "time": 407.24999999999943,
          "velocity": 0.6299212598425197,
          "duration": 0.125
        },
        {
          "name": "F#2",
          "midi": 42,
          "time": 407.49999999999943,
          "velocity": 0.6299212598425197,
          "duration": 0.125
        },
        {
          "name": "C#2",
          "midi": 37,
          "time": 407.49999999999943,
          "velocity": 0.7874015748031497,
          "duration": 0.125
        },
        {
          "name": "B1",
          "midi": 35,
          "time": 407.74999999999943,
          "velocity": 0.6299212598425197,
          "duration": 0.125
        },
        {
          "name": "F#2",
          "midi": 42,
          "time": 407.74999999999943,
          "velocity": 0.6299212598425197,
          "duration": 0.125
        },
        {
          "name": "B1",
          "midi": 35,
          "time": 407.99999999999943,
          "velocity": 0.5511811023622047,
          "duration": 0.125
        },
        {
          "name": "F#2",
          "midi": 42,
          "time": 407.99999999999943,
          "velocity": 0.6299212598425197,
          "duration": 0.125
        },
        {
          "name": "F#2",
          "midi": 42,
          "time": 408.24999999999943,
          "velocity": 0.6299212598425197,
          "duration": 0.125
        },
        {
          "name": "F#2",
          "midi": 42,
          "time": 408.49999999999943,
          "velocity": 0.6299212598425197,
          "duration": 0.125
        },
        {
          "name": "C#2",
          "midi": 37,
          "time": 408.49999999999943,
          "velocity": 0.7874015748031497,
          "duration": 0.125
        },
        {
          "name": "B1",
          "midi": 35,
          "time": 408.74999999999943,
          "velocity": 0.6299212598425197,
          "duration": 0.125
        },
        {
          "name": "F#2",
          "midi": 42,
          "time": 408.74999999999943,
          "velocity": 0.6299212598425197,
          "duration": 0.125
        },
        {
          "name": "B1",
          "midi": 35,
          "time": 408.99999999999943,
          "velocity": 0.6299212598425197,
          "duration": 0.125
        },
        {
          "name": "F#2",
          "midi": 42,
          "time": 408.99999999999943,
          "velocity": 0.6299212598425197,
          "duration": 0.125
        },
        {
          "name": "F#2",
          "midi": 42,
          "time": 409.24999999999943,
          "velocity": 0.6299212598425197,
          "duration": 0.125
        },
        {
          "name": "F#2",
          "midi": 42,
          "time": 409.49999999999943,
          "velocity": 0.6299212598425197,
          "duration": 0.125
        },
        {
          "name": "C#2",
          "midi": 37,
          "time": 409.49999999999943,
          "velocity": 0.7874015748031497,
          "duration": 0.125
        },
        {
          "name": "B1",
          "midi": 35,
          "time": 409.74999999999943,
          "velocity": 0.6299212598425197,
          "duration": 0.125
        },
        {
          "name": "F#2",
          "midi": 42,
          "time": 409.74999999999943,
          "velocity": 0.6299212598425197,
          "duration": 0.125
        },
        {
          "name": "A#2",
          "midi": 46,
          "time": 409.87499999999943,
          "velocity": 0.7086614173228346,
          "duration": 0.125
        },
        {
          "name": "B1",
          "midi": 35,
          "time": 409.99999999999943,
          "velocity": 0.5511811023622047,
          "duration": 0.125
        },
        {
          "name": "F#2",
          "midi": 42,
          "time": 409.99999999999943,
          "velocity": 0.6299212598425197,
          "duration": 0.125
        },
        {
          "name": "F#2",
          "midi": 42,
          "time": 410.24999999999943,
          "velocity": 0.6299212598425197,
          "duration": 0.125
        },
        {
          "name": "F#2",
          "midi": 42,
          "time": 410.49999999999943,
          "velocity": 0.6299212598425197,
          "duration": 0.125
        },
        {
          "name": "C#2",
          "midi": 37,
          "time": 410.49999999999943,
          "velocity": 0.7874015748031497,
          "duration": 0.125
        },
        {
          "name": "B1",
          "midi": 35,
          "time": 410.74999999999943,
          "velocity": 0.6299212598425197,
          "duration": 0.125
        },
        {
          "name": "F#2",
          "midi": 42,
          "time": 410.74999999999943,
          "velocity": 0.6299212598425197,
          "duration": 0.125
        },
        {
          "name": "B1",
          "midi": 35,
          "time": 410.99999999999943,
          "velocity": 0.6299212598425197,
          "duration": 0.125
        },
        {
          "name": "F#2",
          "midi": 42,
          "time": 410.99999999999943,
          "velocity": 0.6299212598425197,
          "duration": 0.125
        },
        {
          "name": "F#2",
          "midi": 42,
          "time": 411.24999999999943,
          "velocity": 0.6299212598425197,
          "duration": 0.125
        },
        {
          "name": "F#2",
          "midi": 42,
          "time": 411.49999999999943,
          "velocity": 0.6299212598425197,
          "duration": 0.125
        },
        {
          "name": "C#2",
          "midi": 37,
          "time": 411.49999999999943,
          "velocity": 0.7874015748031497,
          "duration": 0.125
        },
        {
          "name": "B1",
          "midi": 35,
          "time": 411.74999999999943,
          "velocity": 0.6299212598425197,
          "duration": 0.125
        },
        {
          "name": "F#2",
          "midi": 42,
          "time": 411.74999999999943,
          "velocity": 0.6299212598425197,
          "duration": 0.125
        },
        {
          "name": "B1",
          "midi": 35,
          "time": 411.99999999999943,
          "velocity": 0.5511811023622047,
          "duration": 0.125
        },
        {
          "name": "F#2",
          "midi": 42,
          "time": 411.99999999999943,
          "velocity": 0.6299212598425197,
          "duration": 0.125
        },
        {
          "name": "F#2",
          "midi": 42,
          "time": 412.24999999999943,
          "velocity": 0.6299212598425197,
          "duration": 0.125
        },
        {
          "name": "F#2",
          "midi": 42,
          "time": 412.49999999999943,
          "velocity": 0.6299212598425197,
          "duration": 0.125
        },
        {
          "name": "C#2",
          "midi": 37,
          "time": 412.49999999999943,
          "velocity": 0.7874015748031497,
          "duration": 0.125
        },
        {
          "name": "B1",
          "midi": 35,
          "time": 412.74999999999943,
          "velocity": 0.6299212598425197,
          "duration": 0.125
        },
        {
          "name": "F#2",
          "midi": 42,
          "time": 412.74999999999943,
          "velocity": 0.6299212598425197,
          "duration": 0.125
        },
        {
          "name": "B1",
          "midi": 35,
          "time": 412.99999999999943,
          "velocity": 0.6299212598425197,
          "duration": 0.125
        },
        {
          "name": "F#2",
          "midi": 42,
          "time": 412.99999999999943,
          "velocity": 0.6299212598425197,
          "duration": 0.125
        },
        {
          "name": "F#2",
          "midi": 42,
          "time": 413.24999999999943,
          "velocity": 0.6299212598425197,
          "duration": 0.125
        },
        {
          "name": "F#2",
          "midi": 42,
          "time": 413.49999999999943,
          "velocity": 0.6299212598425197,
          "duration": 0.125
        },
        {
          "name": "C#2",
          "midi": 37,
          "time": 413.49999999999943,
          "velocity": 0.7874015748031497,
          "duration": 0.125
        },
        {
          "name": "B1",
          "midi": 35,
          "time": 413.74999999999943,
          "velocity": 0.6299212598425197,
          "duration": 0.125
        },
        {
          "name": "F#2",
          "midi": 42,
          "time": 413.74999999999943,
          "velocity": 0.6299212598425197,
          "duration": 0.125
        },
        {
          "name": "B1",
          "midi": 35,
          "time": 413.99999999999943,
          "velocity": 0.5511811023622047,
          "duration": 0.125
        },
        {
          "name": "F#2",
          "midi": 42,
          "time": 413.99999999999943,
          "velocity": 0.6299212598425197,
          "duration": 0.125
        },
        {
          "name": "F#2",
          "midi": 42,
          "time": 414.24999999999943,
          "velocity": 0.6299212598425197,
          "duration": 0.125
        },
        {
          "name": "F#2",
          "midi": 42,
          "time": 414.49999999999943,
          "velocity": 0.6299212598425197,
          "duration": 0.125
        },
        {
          "name": "C#2",
          "midi": 37,
          "time": 414.49999999999943,
          "velocity": 0.7874015748031497,
          "duration": 0.125
        },
        {
          "name": "B1",
          "midi": 35,
          "time": 414.74999999999943,
          "velocity": 0.6299212598425197,
          "duration": 0.125
        },
        {
          "name": "F#2",
          "midi": 42,
          "time": 414.74999999999943,
          "velocity": 0.6299212598425197,
          "duration": 0.125
        },
        {
          "name": "B1",
          "midi": 35,
          "time": 414.99999999999943,
          "velocity": 0.6299212598425197,
          "duration": 0.125
        },
        {
          "name": "F#2",
          "midi": 42,
          "time": 414.99999999999943,
          "velocity": 0.6299212598425197,
          "duration": 0.125
        },
        {
          "name": "F#2",
          "midi": 42,
          "time": 415.24999999999943,
          "velocity": 0.6299212598425197,
          "duration": 0.125
        },
        {
          "name": "F#2",
          "midi": 42,
          "time": 415.49999999999943,
          "velocity": 0.6299212598425197,
          "duration": 0.125
        },
        {
          "name": "C#2",
          "midi": 37,
          "time": 415.49999999999943,
          "velocity": 0.7874015748031497,
          "duration": 0.125
        },
        {
          "name": "B1",
          "midi": 35,
          "time": 415.74999999999943,
          "velocity": 0.6299212598425197,
          "duration": 0.125
        },
        {
          "name": "F#2",
          "midi": 42,
          "time": 415.74999999999943,
          "velocity": 0.6299212598425197,
          "duration": 0.125
        },
        {
          "name": "A#2",
          "midi": 46,
          "time": 415.87499999999943,
          "velocity": 0.7086614173228346,
          "duration": 0.125
        },
        {
          "name": "G3",
          "midi": 55,
          "time": 415.95312499999943,
          "velocity": 0.8976377952755905,
          "duration": 0.265625
        },
        {
          "name": "B1",
          "midi": 35,
          "time": 415.99999999999943,
          "velocity": 0.5511811023622047,
          "duration": 0.125
        },
        {
          "name": "F#2",
          "midi": 42,
          "time": 415.99999999999943,
          "velocity": 0.6299212598425197,
          "duration": 0.125
        },
        {
          "name": "F#2",
          "midi": 42,
          "time": 416.24999999999943,
          "velocity": 0.6299212598425197,
          "duration": 0.125
        },
        {
          "name": "G3",
          "midi": 55,
          "time": 416.44270833333275,
          "velocity": 0.905511811023622,
          "duration": 0.328125
        },
        {
          "name": "F#2",
          "midi": 42,
          "time": 416.49999999999943,
          "velocity": 0.6299212598425197,
          "duration": 0.125
        },
        {
          "name": "C#2",
          "midi": 37,
          "time": 416.49999999999943,
          "velocity": 0.7874015748031497,
          "duration": 0.125
        },
        {
          "name": "B1",
          "midi": 35,
          "time": 416.74999999999943,
          "velocity": 0.6299212598425197,
          "duration": 0.125
        },
        {
          "name": "F#2",
          "midi": 42,
          "time": 416.74999999999943,
          "velocity": 0.6299212598425197,
          "duration": 0.125
        },
        {
          "name": "G3",
          "midi": 55,
          "time": 416.9635416666661,
          "velocity": 0.9212598425196851,
          "duration": 0.3020833333333144
        },
        {
          "name": "B1",
          "midi": 35,
          "time": 416.99999999999943,
          "velocity": 0.6299212598425197,
          "duration": 0.125
        },
        {
          "name": "F#2",
          "midi": 42,
          "time": 416.99999999999943,
          "velocity": 0.6299212598425197,
          "duration": 0.125
        },
        {
          "name": "F#2",
          "midi": 42,
          "time": 417.24999999999943,
          "velocity": 0.6299212598425197,
          "duration": 0.125
        },
        {
          "name": "F#2",
          "midi": 42,
          "time": 417.49999999999943,
          "velocity": 0.6299212598425197,
          "duration": 0.125
        },
        {
          "name": "C#2",
          "midi": 37,
          "time": 417.49999999999943,
          "velocity": 0.7874015748031497,
          "duration": 0.125
        },
        {
          "name": "G3",
          "midi": 55,
          "time": 417.50520833333275,
          "velocity": 0.937007874015748,
          "duration": 0.30208333333337123
        },
        {
          "name": "B1",
          "midi": 35,
          "time": 417.74999999999943,
          "velocity": 0.6299212598425197,
          "duration": 0.125
        },
        {
          "name": "F#2",
          "midi": 42,
          "time": 417.74999999999943,
          "velocity": 0.6299212598425197,
          "duration": 0.125
        },
        {
          "name": "A#2",
          "midi": 46,
          "time": 417.87499999999943,
          "velocity": 0.7086614173228346,
          "duration": 0.125
        },
        {
          "name": "B1",
          "midi": 35,
          "time": 417.99999999999943,
          "velocity": 0.5511811023622047,
          "duration": 0.125
        },
        {
          "name": "F#2",
          "midi": 42,
          "time": 417.99999999999943,
          "velocity": 0.6299212598425197,
          "duration": 0.125
        },
        {
          "name": "G3",
          "midi": 55,
          "time": 418.01562499999943,
          "velocity": 0.937007874015748,
          "duration": 0.2760416666666856
        },
        {
          "name": "F#2",
          "midi": 42,
          "time": 418.24999999999943,
          "velocity": 0.6299212598425197,
          "duration": 0.125
        },
        {
          "name": "F#2",
          "midi": 42,
          "time": 418.49999999999943,
          "velocity": 0.6299212598425197,
          "duration": 0.125
        },
        {
          "name": "C#2",
          "midi": 37,
          "time": 418.49999999999943,
          "velocity": 0.7874015748031497,
          "duration": 0.125
        },
        {
          "name": "G3",
          "midi": 55,
          "time": 418.51562499999943,
          "velocity": 0.937007874015748,
          "duration": 0.2916666666666856
        },
        {
          "name": "B1",
          "midi": 35,
          "time": 418.74999999999943,
          "velocity": 0.6299212598425197,
          "duration": 0.125
        },
        {
          "name": "F#2",
          "midi": 42,
          "time": 418.74999999999943,
          "velocity": 0.6299212598425197,
          "duration": 0.125
        },
        {
          "name": "B1",
          "midi": 35,
          "time": 418.99999999999943,
          "velocity": 0.6299212598425197,
          "duration": 0.125
        },
        {
          "name": "F#2",
          "midi": 42,
          "time": 418.99999999999943,
          "velocity": 0.6299212598425197,
          "duration": 0.125
        },
        {
          "name": "G3",
          "midi": 55,
          "time": 419.00520833333275,
          "velocity": 0.9448818897637795,
          "duration": 0.28645833333337123
        },
        {
          "name": "F#2",
          "midi": 42,
          "time": 419.24999999999943,
          "velocity": 0.6299212598425197,
          "duration": 0.125
        },
        {
          "name": "F#2",
          "midi": 42,
          "time": 419.49999999999943,
          "velocity": 0.6299212598425197,
          "duration": 0.125
        },
        {
          "name": "C#2",
          "midi": 37,
          "time": 419.49999999999943,
          "velocity": 0.7874015748031497,
          "duration": 0.125
        },
        {
          "name": "G3",
          "midi": 55,
          "time": 419.49999999999943,
          "velocity": 0.9448818897637795,
          "duration": 0.2864583333333144
        },
        {
          "name": "B1",
          "midi": 35,
          "time": 419.74999999999943,
          "velocity": 0.6299212598425197,
          "duration": 0.125
        },
        {
          "name": "F#2",
          "midi": 42,
          "time": 419.74999999999943,
          "velocity": 0.6299212598425197,
          "duration": 0.125
        },
        {
          "name": "A#2",
          "midi": 46,
          "time": 419.87499999999943,
          "velocity": 0.7086614173228346,
          "duration": 0.125
        },
        {
          "name": "G3",
          "midi": 55,
          "time": 419.98437499999943,
          "velocity": 0.9448818897637795,
          "duration": 0.2864583333333144
        },
        {
          "name": "B1",
          "midi": 35,
          "time": 419.99999999999943,
          "velocity": 0.5511811023622047,
          "duration": 0.125
        },
        {
          "name": "F#2",
          "midi": 42,
          "time": 419.99999999999943,
          "velocity": 0.6299212598425197,
          "duration": 0.125
        },
        {
          "name": "F#2",
          "midi": 42,
          "time": 420.24999999999943,
          "velocity": 0.6299212598425197,
          "duration": 0.125
        },
        {
          "name": "G3",
          "midi": 55,
          "time": 420.48958333333275,
          "velocity": 0.9448818897637795,
          "duration": 0.28125
        },
        {
          "name": "F#2",
          "midi": 42,
          "time": 420.49999999999943,
          "velocity": 0.6299212598425197,
          "duration": 0.125
        },
        {
          "name": "C#2",
          "midi": 37,
          "time": 420.49999999999943,
          "velocity": 0.7874015748031497,
          "duration": 0.125
        },
        {
          "name": "B1",
          "midi": 35,
          "time": 420.74999999999943,
          "velocity": 0.6299212598425197,
          "duration": 0.125
        },
        {
          "name": "F#2",
          "midi": 42,
          "time": 420.74999999999943,
          "velocity": 0.6299212598425197,
          "duration": 0.125
        },
        {
          "name": "G3",
          "midi": 55,
          "time": 420.98437499999943,
          "velocity": 0.9448818897637795,
          "duration": 0.3229166666666856
        },
        {
          "name": "B1",
          "midi": 35,
          "time": 420.99999999999943,
          "velocity": 0.6299212598425197,
          "duration": 0.125
        },
        {
          "name": "F#2",
          "midi": 42,
          "time": 420.99999999999943,
          "velocity": 0.6299212598425197,
          "duration": 0.125
        },
        {
          "name": "F#2",
          "midi": 42,
          "time": 421.24999999999943,
          "velocity": 0.6299212598425197,
          "duration": 0.125
        },
        {
          "name": "F#2",
          "midi": 42,
          "time": 421.49999999999943,
          "velocity": 0.6299212598425197,
          "duration": 0.125
        },
        {
          "name": "C#2",
          "midi": 37,
          "time": 421.49999999999943,
          "velocity": 0.7874015748031497,
          "duration": 0.125
        },
        {
          "name": "G3",
          "midi": 55,
          "time": 421.49999999999943,
          "velocity": 0.937007874015748,
          "duration": 0.28125
        },
        {
          "name": "B1",
          "midi": 35,
          "time": 421.74999999999943,
          "velocity": 0.6299212598425197,
          "duration": 0.125
        },
        {
          "name": "F#2",
          "midi": 42,
          "time": 421.74999999999943,
          "velocity": 0.6299212598425197,
          "duration": 0.125
        },
        {
          "name": "A#2",
          "midi": 46,
          "time": 421.87499999999943,
          "velocity": 0.7086614173228346,
          "duration": 0.125
        },
        {
          "name": "G3",
          "midi": 55,
          "time": 421.96874999999943,
          "velocity": 0.9448818897637795,
          "duration": 0.34375
        },
        {
          "name": "B1",
          "midi": 35,
          "time": 421.99999999999943,
          "velocity": 0.5511811023622047,
          "duration": 0.125
        },
        {
          "name": "F#2",
          "midi": 42,
          "time": 421.99999999999943,
          "velocity": 0.6299212598425197,
          "duration": 0.125
        },
        {
          "name": "F#2",
          "midi": 42,
          "time": 422.24999999999943,
          "velocity": 0.6299212598425197,
          "duration": 0.125
        },
        {
          "name": "G3",
          "midi": 55,
          "time": 422.4947916666661,
          "velocity": 0.937007874015748,
          "duration": 0.30729166666662877
        },
        {
          "name": "F#2",
          "midi": 42,
          "time": 422.49999999999943,
          "velocity": 0.6299212598425197,
          "duration": 0.125
        },
        {
          "name": "C#2",
          "midi": 37,
          "time": 422.49999999999943,
          "velocity": 0.7874015748031497,
          "duration": 0.125
        },
        {
          "name": "B1",
          "midi": 35,
          "time": 422.74999999999943,
          "velocity": 0.6299212598425197,
          "duration": 0.125
        },
        {
          "name": "F#2",
          "midi": 42,
          "time": 422.74999999999943,
          "velocity": 0.6299212598425197,
          "duration": 0.125
        },
        {
          "name": "B1",
          "midi": 35,
          "time": 422.99999999999943,
          "velocity": 0.6299212598425197,
          "duration": 0.125
        },
        {
          "name": "F#2",
          "midi": 42,
          "time": 422.99999999999943,
          "velocity": 0.6299212598425197,
          "duration": 0.125
        },
        {
          "name": "G3",
          "midi": 55,
          "time": 422.99999999999943,
          "velocity": 0.9448818897637795,
          "duration": 0.3229166666666856
        },
        {
          "name": "F#2",
          "midi": 42,
          "time": 423.24999999999943,
          "velocity": 0.6299212598425197,
          "duration": 0.125
        },
        {
          "name": "F#2",
          "midi": 42,
          "time": 423.49999999999943,
          "velocity": 0.6299212598425197,
          "duration": 0.125
        },
        {
          "name": "C#2",
          "midi": 37,
          "time": 423.49999999999943,
          "velocity": 0.7874015748031497,
          "duration": 0.125
        },
        {
          "name": "G3",
          "midi": 55,
          "time": 423.52083333333275,
          "velocity": 0.937007874015748,
          "duration": 0.2916666666666856
        },
        {
          "name": "B1",
          "midi": 35,
          "time": 423.74999999999943,
          "velocity": 0.6299212598425197,
          "duration": 0.125
        },
        {
          "name": "F#2",
          "midi": 42,
          "time": 423.74999999999943,
          "velocity": 0.6299212598425197,
          "duration": 0.125
        },
        {
          "name": "A#2",
          "midi": 46,
          "time": 423.87499999999943,
          "velocity": 0.7086614173228346,
          "duration": 0.125
        },
        {
          "name": "B1",
          "midi": 35,
          "time": 423.99999999999943,
          "velocity": 0.5511811023622047,
          "duration": 0.125
        },
        {
          "name": "F#2",
          "midi": 42,
          "time": 423.99999999999943,
          "velocity": 0.6299212598425197,
          "duration": 0.125
        },
        {
          "name": "G3",
          "midi": 55,
          "time": 423.99999999999943,
          "velocity": 0.9448818897637795,
          "duration": 0.3229166666666856
        },
        {
          "name": "F#2",
          "midi": 42,
          "time": 424.24999999999943,
          "velocity": 0.6299212598425197,
          "duration": 0.125
        },
        {
          "name": "F#2",
          "midi": 42,
          "time": 424.49999999999943,
          "velocity": 0.6299212598425197,
          "duration": 0.125
        },
        {
          "name": "C#2",
          "midi": 37,
          "time": 424.49999999999943,
          "velocity": 0.7874015748031497,
          "duration": 0.125
        },
        {
          "name": "G3",
          "midi": 55,
          "time": 424.53124999999943,
          "velocity": 0.9212598425196851,
          "duration": 0.265625
        },
        {
          "name": "B1",
          "midi": 35,
          "time": 424.74999999999943,
          "velocity": 0.6299212598425197,
          "duration": 0.125
        },
        {
          "name": "F#2",
          "midi": 42,
          "time": 424.74999999999943,
          "velocity": 0.6299212598425197,
          "duration": 0.125
        },
        {
          "name": "G3",
          "midi": 55,
          "time": 424.9791666666661,
          "velocity": 0.9212598425196851,
          "duration": 0.3125
        },
        {
          "name": "B1",
          "midi": 35,
          "time": 424.99999999999943,
          "velocity": 0.6299212598425197,
          "duration": 0.125
        },
        {
          "name": "F#2",
          "midi": 42,
          "time": 424.99999999999943,
          "velocity": 0.6299212598425197,
          "duration": 0.125
        },
        {
          "name": "F#2",
          "midi": 42,
          "time": 425.24999999999943,
          "velocity": 0.6299212598425197,
          "duration": 0.125
        },
        {
          "name": "G3",
          "midi": 55,
          "time": 425.48958333333275,
          "velocity": 0.937007874015748,
          "duration": 0.28125
        },
        {
          "name": "F#2",
          "midi": 42,
          "time": 425.49999999999943,
          "velocity": 0.6299212598425197,
          "duration": 0.125
        },
        {
          "name": "C#2",
          "midi": 37,
          "time": 425.49999999999943,
          "velocity": 0.7874015748031497,
          "duration": 0.125
        },
        {
          "name": "B1",
          "midi": 35,
          "time": 425.74999999999943,
          "velocity": 0.6299212598425197,
          "duration": 0.125
        },
        {
          "name": "F#2",
          "midi": 42,
          "time": 425.74999999999943,
          "velocity": 0.6299212598425197,
          "duration": 0.125
        },
        {
          "name": "A#2",
          "midi": 46,
          "time": 425.87499999999943,
          "velocity": 0.7086614173228346,
          "duration": 0.125
        },
        {
          "name": "G3",
          "midi": 55,
          "time": 425.9947916666661,
          "velocity": 0.937007874015748,
          "duration": 0.28125
        },
        {
          "name": "B1",
          "midi": 35,
          "time": 425.99999999999943,
          "velocity": 0.5511811023622047,
          "duration": 0.125
        },
        {
          "name": "F#2",
          "midi": 42,
          "time": 425.99999999999943,
          "velocity": 0.6299212598425197,
          "duration": 0.125
        },
        {
          "name": "F#2",
          "midi": 42,
          "time": 426.24999999999943,
          "velocity": 0.6299212598425197,
          "duration": 0.125
        },
        {
          "name": "G3",
          "midi": 55,
          "time": 426.4947916666661,
          "velocity": 0.937007874015748,
          "duration": 0.3125
        },
        {
          "name": "F#2",
          "midi": 42,
          "time": 426.49999999999943,
          "velocity": 0.6299212598425197,
          "duration": 0.125
        },
        {
          "name": "C#2",
          "midi": 37,
          "time": 426.49999999999943,
          "velocity": 0.7874015748031497,
          "duration": 0.125
        },
        {
          "name": "B1",
          "midi": 35,
          "time": 426.74999999999943,
          "velocity": 0.6299212598425197,
          "duration": 0.125
        },
        {
          "name": "F#2",
          "midi": 42,
          "time": 426.74999999999943,
          "velocity": 0.6299212598425197,
          "duration": 0.125
        },
        {
          "name": "B1",
          "midi": 35,
          "time": 426.99999999999943,
          "velocity": 0.6299212598425197,
          "duration": 0.125
        },
        {
          "name": "F#2",
          "midi": 42,
          "time": 426.99999999999943,
          "velocity": 0.6299212598425197,
          "duration": 0.125
        },
        {
          "name": "G3",
          "midi": 55,
          "time": 427.00520833333275,
          "velocity": 0.937007874015748,
          "duration": 0.2760416666666856
        },
        {
          "name": "F#2",
          "midi": 42,
          "time": 427.24999999999943,
          "velocity": 0.6299212598425197,
          "duration": 0.125
        },
        {
          "name": "F#2",
          "midi": 42,
          "time": 427.49999999999943,
          "velocity": 0.6299212598425197,
          "duration": 0.125
        },
        {
          "name": "C#2",
          "midi": 37,
          "time": 427.49999999999943,
          "velocity": 0.7874015748031497,
          "duration": 0.125
        },
        {
          "name": "G3",
          "midi": 55,
          "time": 427.51562499999943,
          "velocity": 0.9763779527559056,
          "duration": 0.23958333333331439
        },
        {
          "name": "B1",
          "midi": 35,
          "time": 427.74999999999943,
          "velocity": 0.6299212598425197,
          "duration": 0.125
        },
        {
          "name": "F#2",
          "midi": 42,
          "time": 427.74999999999943,
          "velocity": 0.6299212598425197,
          "duration": 0.125
        },
        {
          "name": "A#2",
          "midi": 46,
          "time": 427.87499999999943,
          "velocity": 0.7086614173228346,
          "duration": 0.125
        },
        {
          "name": "G3",
          "midi": 55,
          "time": 427.97395833333275,
          "velocity": 0.9763779527559056,
          "duration": 0.31770833333337123
        },
        {
          "name": "B1",
          "midi": 35,
          "time": 427.99999999999943,
          "velocity": 0.5511811023622047,
          "duration": 0.125
        },
        {
          "name": "F#2",
          "midi": 42,
          "time": 427.99999999999943,
          "velocity": 0.6299212598425197,
          "duration": 0.125
        },
        {
          "name": "F#2",
          "midi": 42,
          "time": 428.24999999999943,
          "velocity": 0.6299212598425197,
          "duration": 0.125
        },
        {
          "name": "F#2",
          "midi": 42,
          "time": 428.49999999999943,
          "velocity": 0.6299212598425197,
          "duration": 0.125
        },
        {
          "name": "C#2",
          "midi": 37,
          "time": 428.49999999999943,
          "velocity": 0.7874015748031497,
          "duration": 0.125
        },
        {
          "name": "G3",
          "midi": 55,
          "time": 428.49999999999943,
          "velocity": 0.9448818897637795,
          "duration": 0.3125
        },
        {
          "name": "B1",
          "midi": 35,
          "time": 428.74999999999943,
          "velocity": 0.6299212598425197,
          "duration": 0.125
        },
        {
          "name": "F#2",
          "midi": 42,
          "time": 428.74999999999943,
          "velocity": 0.6299212598425197,
          "duration": 0.125
        },
        {
          "name": "B1",
          "midi": 35,
          "time": 428.99999999999943,
          "velocity": 0.6299212598425197,
          "duration": 0.125
        },
        {
          "name": "F#2",
          "midi": 42,
          "time": 428.99999999999943,
          "velocity": 0.6299212598425197,
          "duration": 0.125
        },
        {
          "name": "G3",
          "midi": 55,
          "time": 429.0104166666661,
          "velocity": 0.9448818897637795,
          "duration": 0.28125
        },
        {
          "name": "F#2",
          "midi": 42,
          "time": 429.24999999999943,
          "velocity": 0.6299212598425197,
          "duration": 0.125
        },
        {
          "name": "F#2",
          "midi": 42,
          "time": 429.49999999999943,
          "velocity": 0.6299212598425197,
          "duration": 0.125
        },
        {
          "name": "C#2",
          "midi": 37,
          "time": 429.49999999999943,
          "velocity": 0.7874015748031497,
          "duration": 0.125
        },
        {
          "name": "G3",
          "midi": 55,
          "time": 429.49999999999943,
          "velocity": 0.9448818897637795,
          "duration": 0.265625
        },
        {
          "name": "B1",
          "midi": 35,
          "time": 429.74999999999943,
          "velocity": 0.6299212598425197,
          "duration": 0.125
        },
        {
          "name": "F#2",
          "midi": 42,
          "time": 429.74999999999943,
          "velocity": 0.6299212598425197,
          "duration": 0.125
        },
        {
          "name": "G3",
          "midi": 55,
          "time": 429.9635416666661,
          "velocity": 0.9448818897637795,
          "duration": 0.3489583333333144
        },
        {
          "name": "B1",
          "midi": 35,
          "time": 429.99999999999943,
          "velocity": 0.5511811023622047,
          "duration": 0.125
        },
        {
          "name": "F#2",
          "midi": 42,
          "time": 429.99999999999943,
          "velocity": 0.6299212598425197,
          "duration": 0.125
        },
        {
          "name": "F#2",
          "midi": 42,
          "time": 430.24999999999943,
          "velocity": 0.6299212598425197,
          "duration": 0.125
        },
        {
          "name": "G3",
          "midi": 55,
          "time": 430.48958333333275,
          "velocity": 0.9212598425196851,
          "duration": 0.27083333333337123
        },
        {
          "name": "F#2",
          "midi": 42,
          "time": 430.49999999999943,
          "velocity": 0.6299212598425197,
          "duration": 0.125
        },
        {
          "name": "C#2",
          "midi": 37,
          "time": 430.49999999999943,
          "velocity": 0.7874015748031497,
          "duration": 0.125
        },
        {
          "name": "B1",
          "midi": 35,
          "time": 430.74999999999943,
          "velocity": 0.6299212598425197,
          "duration": 0.125
        },
        {
          "name": "F#2",
          "midi": 42,
          "time": 430.74999999999943,
          "velocity": 0.6299212598425197,
          "duration": 0.125
        },
        {
          "name": "G3",
          "midi": 55,
          "time": 430.97395833333275,
          "velocity": 0.9448818897637795,
          "duration": 0.2916666666666856
        },
        {
          "name": "B1",
          "midi": 35,
          "time": 430.99999999999943,
          "velocity": 0.6299212598425197,
          "duration": 0.125
        },
        {
          "name": "F#2",
          "midi": 42,
          "time": 430.99999999999943,
          "velocity": 0.6299212598425197,
          "duration": 0.125
        },
        {
          "name": "F#2",
          "midi": 42,
          "time": 431.24999999999943,
          "velocity": 0.6299212598425197,
          "duration": 0.125
        },
        {
          "name": "G3",
          "midi": 55,
          "time": 431.48958333333275,
          "velocity": 0.937007874015748,
          "duration": 0.30208333333337123
        },
        {
          "name": "F#2",
          "midi": 42,
          "time": 431.49999999999943,
          "velocity": 0.6299212598425197,
          "duration": 0.125
        },
        {
          "name": "C#2",
          "midi": 37,
          "time": 431.49999999999943,
          "velocity": 0.7874015748031497,
          "duration": 0.125
        },
        {
          "name": "B1",
          "midi": 35,
          "time": 431.74999999999943,
          "velocity": 0.6299212598425197,
          "duration": 0.125
        },
        {
          "name": "F#2",
          "midi": 42,
          "time": 431.74999999999943,
          "velocity": 0.6299212598425197,
          "duration": 0.125
        },
        {
          "name": "A#2",
          "midi": 46,
          "time": 431.87499999999943,
          "velocity": 0.7086614173228346,
          "duration": 0.125
        },
        {
          "name": "G3",
          "midi": 55,
          "time": 431.9791666666661,
          "velocity": 0.937007874015748,
          "duration": 0.29166666666662877
        },
        {
          "name": "B1",
          "midi": 35,
          "time": 431.99999999999943,
          "velocity": 0.5511811023622047,
          "duration": 0.125
        },
        {
          "name": "F#2",
          "midi": 42,
          "time": 431.99999999999943,
          "velocity": 0.6299212598425197,
          "duration": 0.125
        },
        {
          "name": "F#2",
          "midi": 42,
          "time": 432.24999999999943,
          "velocity": 0.6299212598425197,
          "duration": 0.125
        },
        {
          "name": "D2",
          "midi": 38,
          "time": 432.49999999999943,
          "velocity": 0.7874015748031497,
          "duration": 0.125
        },
        {
          "name": "F#2",
          "midi": 42,
          "time": 432.49999999999943,
          "velocity": 0.6299212598425197,
          "duration": 0.125
        },
        {
          "name": "G3",
          "midi": 55,
          "time": 432.50520833333275,
          "velocity": 0.9448818897637795,
          "duration": 0.2760416666666856
        },
        {
          "name": "B1",
          "midi": 35,
          "time": 432.74999999999943,
          "velocity": 0.6299212598425197,
          "duration": 0.125
        },
        {
          "name": "F#2",
          "midi": 42,
          "time": 432.74999999999943,
          "velocity": 0.6299212598425197,
          "duration": 0.125
        },
        {
          "name": "B1",
          "midi": 35,
          "time": 432.99999999999943,
          "velocity": 0.6299212598425197,
          "duration": 0.125
        },
        {
          "name": "F#2",
          "midi": 42,
          "time": 432.99999999999943,
          "velocity": 0.6299212598425197,
          "duration": 0.125
        },
        {
          "name": "G3",
          "midi": 55,
          "time": 432.99999999999943,
          "velocity": 0.937007874015748,
          "duration": 0.22916666666668561
        },
        {
          "name": "F#2",
          "midi": 42,
          "time": 433.24999999999943,
          "velocity": 0.6299212598425197,
          "duration": 0.125
        },
        {
          "name": "B1",
          "midi": 35,
          "time": 433.37499999999943,
          "velocity": 0.7874015748031497,
          "duration": 0.125
        },
        {
          "name": "G3",
          "midi": 55,
          "time": 433.4635416666661,
          "velocity": 0.9212598425196851,
          "duration": 0.3020833333333144
        },
        {
          "name": "D2",
          "midi": 38,
          "time": 433.49999999999943,
          "velocity": 0.7874015748031497,
          "duration": 0.125
        },
        {
          "name": "F#2",
          "midi": 42,
          "time": 433.49999999999943,
          "velocity": 0.6299212598425197,
          "duration": 0.125
        },
        {
          "name": "B1",
          "midi": 35,
          "time": 433.74999999999943,
          "velocity": 0.6299212598425197,
          "duration": 0.125
        },
        {
          "name": "D2",
          "midi": 38,
          "time": 433.74999999999943,
          "velocity": 0.7086614173228346,
          "duration": 0.125
        },
        {
          "name": "F#2",
          "midi": 42,
          "time": 433.74999999999943,
          "velocity": 0.6299212598425197,
          "duration": 0.125
        },
        {
          "name": "D2",
          "midi": 38,
          "time": 433.87499999999943,
          "velocity": 0.7086614173228346,
          "duration": 0.125
        },
        {
          "name": "A3",
          "midi": 57,
          "time": 433.9635416666661,
          "velocity": 0.9448818897637795,
          "duration": 0.32291666666662877
        },
        {
          "name": "B1",
          "midi": 35,
          "time": 433.99999999999943,
          "velocity": 0.5511811023622047,
          "duration": 0.125
        },
        {
          "name": "F#2",
          "midi": 42,
          "time": 433.99999999999943,
          "velocity": 0.6299212598425197,
          "duration": 0.125
        },
        {
          "name": "F#2",
          "midi": 42,
          "time": 434.24999999999943,
          "velocity": 0.6299212598425197,
          "duration": 0.125
        },
        {
          "name": "G3",
          "midi": 55,
          "time": 434.48437499999943,
          "velocity": 0.9212598425196851,
          "duration": 0.3229166666666856
        },
        {
          "name": "F#2",
          "midi": 42,
          "time": 434.49999999999943,
          "velocity": 0.6299212598425197,
          "duration": 0.125
        },
        {
          "name": "C#2",
          "midi": 37,
          "time": 434.49999999999943,
          "velocity": 0.7874015748031497,
          "duration": 0.125
        },
        {
          "name": "B1",
          "midi": 35,
          "time": 434.74999999999943,
          "velocity": 0.6299212598425197,
          "duration": 0.125
        },
        {
          "name": "F#2",
          "midi": 42,
          "time": 434.74999999999943,
          "velocity": 0.6299212598425197,
          "duration": 0.125
        },
        {
          "name": "G3",
          "midi": 55,
          "time": 434.9947916666661,
          "velocity": 0.937007874015748,
          "duration": 0.2864583333333144
        },
        {
          "name": "B1",
          "midi": 35,
          "time": 434.99999999999943,
          "velocity": 0.6299212598425197,
          "duration": 0.125
        },
        {
          "name": "F#2",
          "midi": 42,
          "time": 434.99999999999943,
          "velocity": 0.6299212598425197,
          "duration": 0.125
        },
        {
          "name": "F#2",
          "midi": 42,
          "time": 435.24999999999943,
          "velocity": 0.6299212598425197,
          "duration": 0.125
        },
        {
          "name": "F#2",
          "midi": 42,
          "time": 435.49999999999943,
          "velocity": 0.6299212598425197,
          "duration": 0.125
        },
        {
          "name": "C#2",
          "midi": 37,
          "time": 435.49999999999943,
          "velocity": 0.7874015748031497,
          "duration": 0.125
        },
        {
          "name": "G3",
          "midi": 55,
          "time": 435.49999999999943,
          "velocity": 0.937007874015748,
          "duration": 0.2916666666666856
        },
        {
          "name": "B1",
          "midi": 35,
          "time": 435.74999999999943,
          "velocity": 0.6299212598425197,
          "duration": 0.125
        },
        {
          "name": "F#2",
          "midi": 42,
          "time": 435.74999999999943,
          "velocity": 0.6299212598425197,
          "duration": 0.125
        },
        {
          "name": "B1",
          "midi": 35,
          "time": 435.99999999999943,
          "velocity": 0.5511811023622047,
          "duration": 0.125
        },
        {
          "name": "F#2",
          "midi": 42,
          "time": 435.99999999999943,
          "velocity": 0.6299212598425197,
          "duration": 0.125
        },
        {
          "name": "G3",
          "midi": 55,
          "time": 436.01562499999943,
          "velocity": 0.9448818897637795,
          "duration": 0.3229166666666856
        },
        {
          "name": "F#2",
          "midi": 42,
          "time": 436.24999999999943,
          "velocity": 0.6299212598425197,
          "duration": 0.125
        },
        {
          "name": "F#2",
          "midi": 42,
          "time": 436.49999999999943,
          "velocity": 0.6299212598425197,
          "duration": 0.125
        },
        {
          "name": "C#2",
          "midi": 37,
          "time": 436.49999999999943,
          "velocity": 0.7874015748031497,
          "duration": 0.125
        },
        {
          "name": "G3",
          "midi": 55,
          "time": 436.52083333333275,
          "velocity": 0.937007874015748,
          "duration": 0.2604166666666856
        },
        {
          "name": "B1",
          "midi": 35,
          "time": 436.74999999999943,
          "velocity": 0.6299212598425197,
          "duration": 0.125
        },
        {
          "name": "F#2",
          "midi": 42,
          "time": 436.74999999999943,
          "velocity": 0.6299212598425197,
          "duration": 0.125
        },
        {
          "name": "G3",
          "midi": 55,
          "time": 436.9947916666661,
          "velocity": 0.9448818897637795,
          "duration": 0.30729166666662877
        },
        {
          "name": "B1",
          "midi": 35,
          "time": 436.99999999999943,
          "velocity": 0.6299212598425197,
          "duration": 0.125
        },
        {
          "name": "F#2",
          "midi": 42,
          "time": 436.99999999999943,
          "velocity": 0.6299212598425197,
          "duration": 0.125
        },
        {
          "name": "F#2",
          "midi": 42,
          "time": 437.24999999999943,
          "velocity": 0.6299212598425197,
          "duration": 0.125
        },
        {
          "name": "F#2",
          "midi": 42,
          "time": 437.49999999999943,
          "velocity": 0.6299212598425197,
          "duration": 0.125
        },
        {
          "name": "C#2",
          "midi": 37,
          "time": 437.49999999999943,
          "velocity": 0.7874015748031497,
          "duration": 0.125
        },
        {
          "name": "G3",
          "midi": 55,
          "time": 437.50520833333275,
          "velocity": 0.9448818897637795,
          "duration": 0.28125
        },
        {
          "name": "B1",
          "midi": 35,
          "time": 437.74999999999943,
          "velocity": 0.6299212598425197,
          "duration": 0.125
        },
        {
          "name": "F#2",
          "midi": 42,
          "time": 437.74999999999943,
          "velocity": 0.6299212598425197,
          "duration": 0.125
        },
        {
          "name": "A#2",
          "midi": 46,
          "time": 437.87499999999943,
          "velocity": 0.7086614173228346,
          "duration": 0.125
        },
        {
          "name": "B1",
          "midi": 35,
          "time": 437.99999999999943,
          "velocity": 0.5511811023622047,
          "duration": 0.125
        },
        {
          "name": "F#2",
          "midi": 42,
          "time": 437.99999999999943,
          "velocity": 0.6299212598425197,
          "duration": 0.125
        },
        {
          "name": "A3",
          "midi": 57,
          "time": 438.0104166666661,
          "velocity": 0.9448818897637795,
          "duration": 0.25
        },
        {
          "name": "F#2",
          "midi": 42,
          "time": 438.24999999999943,
          "velocity": 0.6299212598425197,
          "duration": 0.125
        },
        {
          "name": "F#2",
          "midi": 42,
          "time": 438.49999999999943,
          "velocity": 0.6299212598425197,
          "duration": 0.125
        },
        {
          "name": "C#2",
          "midi": 37,
          "time": 438.49999999999943,
          "velocity": 0.7874015748031497,
          "duration": 0.125
        },
        {
          "name": "G3",
          "midi": 55,
          "time": 438.52083333333275,
          "velocity": 0.9448818897637795,
          "duration": 0.27083333333337123
        },
        {
          "name": "B1",
          "midi": 35,
          "time": 438.74999999999943,
          "velocity": 0.6299212598425197,
          "duration": 0.125
        },
        {
          "name": "F#2",
          "midi": 42,
          "time": 438.74999999999943,
          "velocity": 0.6299212598425197,
          "duration": 0.125
        },
        {
          "name": "G3",
          "midi": 55,
          "time": 438.9947916666661,
          "velocity": 0.9448818897637795,
          "duration": 0.21875
        },
        {
          "name": "B1",
          "midi": 35,
          "time": 438.99999999999943,
          "velocity": 0.6299212598425197,
          "duration": 0.125
        },
        {
          "name": "F#2",
          "midi": 42,
          "time": 438.99999999999943,
          "velocity": 0.6299212598425197,
          "duration": 0.125
        },
        {
          "name": "F#2",
          "midi": 42,
          "time": 439.24999999999943,
          "velocity": 0.6299212598425197,
          "duration": 0.125
        },
        {
          "name": "G3",
          "midi": 55,
          "time": 439.46874999999943,
          "velocity": 0.9606299212598425,
          "duration": 0.234375
        },
        {
          "name": "F#2",
          "midi": 42,
          "time": 439.49999999999943,
          "velocity": 0.6299212598425197,
          "duration": 0.125
        },
        {
          "name": "C#2",
          "midi": 37,
          "time": 439.49999999999943,
          "velocity": 0.7874015748031497,
          "duration": 0.125
        },
        {
          "name": "B1",
          "midi": 35,
          "time": 439.74999999999943,
          "velocity": 0.6299212598425197,
          "duration": 0.125
        },
        {
          "name": "F#2",
          "midi": 42,
          "time": 439.74999999999943,
          "velocity": 0.6299212598425197,
          "duration": 0.125
        },
        {
          "name": "A3",
          "midi": 57,
          "time": 439.9791666666661,
          "velocity": 0.9606299212598425,
          "duration": 0.24479166666662877
        },
        {
          "name": "B1",
          "midi": 35,
          "time": 439.99999999999943,
          "velocity": 0.5511811023622047,
          "duration": 0.125
        },
        {
          "name": "F#2",
          "midi": 42,
          "time": 439.99999999999943,
          "velocity": 0.6299212598425197,
          "duration": 0.125
        },
        {
          "name": "F#2",
          "midi": 42,
          "time": 440.24999999999943,
          "velocity": 0.6299212598425197,
          "duration": 0.125
        },
        {
          "name": "G3",
          "midi": 55,
          "time": 440.45833333333275,
          "velocity": 0.9448818897637795,
          "duration": 0.24479166666668561
        },
        {
          "name": "F#2",
          "midi": 42,
          "time": 440.49999999999943,
          "velocity": 0.6299212598425197,
          "duration": 0.125
        },
        {
          "name": "C#2",
          "midi": 37,
          "time": 440.49999999999943,
          "velocity": 0.7874015748031497,
          "duration": 0.125
        },
        {
          "name": "B1",
          "midi": 35,
          "time": 440.74999999999943,
          "velocity": 0.6299212598425197,
          "duration": 0.125
        },
        {
          "name": "F#2",
          "midi": 42,
          "time": 440.74999999999943,
          "velocity": 0.6299212598425197,
          "duration": 0.125
        },
        {
          "name": "G3",
          "midi": 55,
          "time": 440.9635416666661,
          "velocity": 0.9448818897637795,
          "duration": 0.23958333333331439
        },
        {
          "name": "B1",
          "midi": 35,
          "time": 440.99999999999943,
          "velocity": 0.6299212598425197,
          "duration": 0.125
        },
        {
          "name": "F#2",
          "midi": 42,
          "time": 440.99999999999943,
          "velocity": 0.6299212598425197,
          "duration": 0.125
        },
        {
          "name": "F#2",
          "midi": 42,
          "time": 441.24999999999943,
          "velocity": 0.6299212598425197,
          "duration": 0.125
        },
        {
          "name": "G3",
          "midi": 55,
          "time": 441.4479166666661,
          "velocity": 0.937007874015748,
          "duration": 0.265625
        },
        {
          "name": "F#2",
          "midi": 42,
          "time": 441.49999999999943,
          "velocity": 0.6299212598425197,
          "duration": 0.125
        },
        {
          "name": "C#2",
          "midi": 37,
          "time": 441.49999999999943,
          "velocity": 0.7874015748031497,
          "duration": 0.125
        },
        {
          "name": "B1",
          "midi": 35,
          "time": 441.74999999999943,
          "velocity": 0.6299212598425197,
          "duration": 0.125
        },
        {
          "name": "F#2",
          "midi": 42,
          "time": 441.74999999999943,
          "velocity": 0.6299212598425197,
          "duration": 0.125
        },
        {
          "name": "A3",
          "midi": 57,
          "time": 441.95833333333275,
          "velocity": 0.9448818897637795,
          "duration": 0.234375
        },
        {
          "name": "B1",
          "midi": 35,
          "time": 441.99999999999943,
          "velocity": 0.5511811023622047,
          "duration": 0.125
        },
        {
          "name": "F#2",
          "midi": 42,
          "time": 441.99999999999943,
          "velocity": 0.6299212598425197,
          "duration": 0.125
        },
        {
          "name": "F#2",
          "midi": 42,
          "time": 442.24999999999943,
          "velocity": 0.6299212598425197,
          "duration": 0.125
        },
        {
          "name": "G3",
          "midi": 55,
          "time": 442.4791666666661,
          "velocity": 0.9212598425196851,
          "duration": 0.28125
        },
        {
          "name": "F#2",
          "midi": 42,
          "time": 442.49999999999943,
          "velocity": 0.6299212598425197,
          "duration": 0.125
        },
        {
          "name": "C#2",
          "midi": 37,
          "time": 442.49999999999943,
          "velocity": 0.7874015748031497,
          "duration": 0.125
        },
        {
          "name": "B1",
          "midi": 35,
          "time": 442.74999999999943,
          "velocity": 0.6299212598425197,
          "duration": 0.125
        },
        {
          "name": "F#2",
          "midi": 42,
          "time": 442.74999999999943,
          "velocity": 0.6299212598425197,
          "duration": 0.125
        },
        {
          "name": "G3",
          "midi": 55,
          "time": 442.98958333333275,
          "velocity": 0.937007874015748,
          "duration": 0.265625
        },
        {
          "name": "B1",
          "midi": 35,
          "time": 442.99999999999943,
          "velocity": 0.6299212598425197,
          "duration": 0.125
        },
        {
          "name": "F#2",
          "midi": 42,
          "time": 442.99999999999943,
          "velocity": 0.6299212598425197,
          "duration": 0.125
        },
        {
          "name": "F#2",
          "midi": 42,
          "time": 443.24999999999943,
          "velocity": 0.6299212598425197,
          "duration": 0.125
        },
        {
          "name": "F#2",
          "midi": 42,
          "time": 443.49999999999943,
          "velocity": 0.6299212598425197,
          "duration": 0.125
        },
        {
          "name": "C#2",
          "midi": 37,
          "time": 443.49999999999943,
          "velocity": 0.7874015748031497,
          "duration": 0.125
        },
        {
          "name": "G3",
          "midi": 55,
          "time": 443.49999999999943,
          "velocity": 0.937007874015748,
          "duration": 0.2552083333333144
        },
        {
          "name": "B1",
          "midi": 35,
          "time": 443.74999999999943,
          "velocity": 0.6299212598425197,
          "duration": 0.125
        },
        {
          "name": "F#2",
          "midi": 42,
          "time": 443.74999999999943,
          "velocity": 0.6299212598425197,
          "duration": 0.125
        },
        {
          "name": "A#2",
          "midi": 46,
          "time": 443.87499999999943,
          "velocity": 0.7086614173228346,
          "duration": 0.125
        },
        {
          "name": "A3",
          "midi": 57,
          "time": 443.98958333333275,
          "velocity": 0.9448818897637795,
          "duration": 0.27083333333337123
        },
        {
          "name": "B1",
          "midi": 35,
          "time": 443.99999999999943,
          "velocity": 0.5511811023622047,
          "duration": 0.125
        },
        {
          "name": "F#2",
          "midi": 42,
          "time": 443.99999999999943,
          "velocity": 0.6299212598425197,
          "duration": 0.125
        },
        {
          "name": "F#2",
          "midi": 42,
          "time": 444.24999999999943,
          "velocity": 0.6299212598425197,
          "duration": 0.125
        },
        {
          "name": "F#2",
          "midi": 42,
          "time": 444.49999999999943,
          "velocity": 0.6299212598425197,
          "duration": 0.125
        },
        {
          "name": "C#2",
          "midi": 37,
          "time": 444.49999999999943,
          "velocity": 0.7874015748031497,
          "duration": 0.125
        },
        {
          "name": "G3",
          "midi": 55,
          "time": 444.52083333333275,
          "velocity": 0.9448818897637795,
          "duration": 0.28125
        },
        {
          "name": "B1",
          "midi": 35,
          "time": 444.74999999999943,
          "velocity": 0.6299212598425197,
          "duration": 0.125
        },
        {
          "name": "F#2",
          "midi": 42,
          "time": 444.74999999999943,
          "velocity": 0.6299212598425197,
          "duration": 0.125
        },
        {
          "name": "B1",
          "midi": 35,
          "time": 444.99999999999943,
          "velocity": 0.6299212598425197,
          "duration": 0.125
        },
        {
          "name": "F#2",
          "midi": 42,
          "time": 444.99999999999943,
          "velocity": 0.6299212598425197,
          "duration": 0.125
        },
        {
          "name": "G3",
          "midi": 55,
          "time": 445.03124999999943,
          "velocity": 0.937007874015748,
          "duration": 0.22916666666668561
        },
        {
          "name": "F#2",
          "midi": 42,
          "time": 445.24999999999943,
          "velocity": 0.6299212598425197,
          "duration": 0.125
        },
        {
          "name": "F#2",
          "midi": 42,
          "time": 445.49999999999943,
          "velocity": 0.6299212598425197,
          "duration": 0.125
        },
        {
          "name": "C#2",
          "midi": 37,
          "time": 445.49999999999943,
          "velocity": 0.7874015748031497,
          "duration": 0.125
        },
        {
          "name": "G3",
          "midi": 55,
          "time": 445.50520833333275,
          "velocity": 0.9448818897637795,
          "duration": 0.2604166666666856
        },
        {
          "name": "B1",
          "midi": 35,
          "time": 445.74999999999943,
          "velocity": 0.6299212598425197,
          "duration": 0.125
        },
        {
          "name": "F#2",
          "midi": 42,
          "time": 445.74999999999943,
          "velocity": 0.6299212598425197,
          "duration": 0.125
        },
        {
          "name": "A#2",
          "midi": 46,
          "time": 445.87499999999943,
          "velocity": 0.7086614173228346,
          "duration": 0.125
        },
        {
          "name": "B1",
          "midi": 35,
          "time": 445.99999999999943,
          "velocity": 0.5511811023622047,
          "duration": 0.125
        },
        {
          "name": "F#2",
          "midi": 42,
          "time": 445.99999999999943,
          "velocity": 0.6299212598425197,
          "duration": 0.125
        },
        {
          "name": "A3",
          "midi": 57,
          "time": 445.99999999999943,
          "velocity": 0.984251968503937,
          "duration": 0.2552083333333144
        },
        {
          "name": "F#2",
          "midi": 42,
          "time": 446.24999999999943,
          "velocity": 0.6299212598425197,
          "duration": 0.125
        },
        {
          "name": "F#2",
          "midi": 42,
          "time": 446.49999999999943,
          "velocity": 0.6299212598425197,
          "duration": 0.125
        },
        {
          "name": "C#2",
          "midi": 37,
          "time": 446.49999999999943,
          "velocity": 0.7874015748031497,
          "duration": 0.125
        },
        {
          "name": "G3",
          "midi": 55,
          "time": 446.5260416666661,
          "velocity": 0.984251968503937,
          "duration": 0.26041666666662877
        },
        {
          "name": "B1",
          "midi": 35,
          "time": 446.74999999999943,
          "velocity": 0.6299212598425197,
          "duration": 0.125
        },
        {
          "name": "F#2",
          "midi": 42,
          "time": 446.74999999999943,
          "velocity": 0.6299212598425197,
          "duration": 0.125
        },
        {
          "name": "B1",
          "midi": 35,
          "time": 446.99999999999943,
          "velocity": 0.6299212598425197,
          "duration": 0.125
        },
        {
          "name": "F#2",
          "midi": 42,
          "time": 446.99999999999943,
          "velocity": 0.6299212598425197,
          "duration": 0.125
        },
        {
          "name": "G3",
          "midi": 55,
          "time": 447.02083333333275,
          "velocity": 0.9448818897637795,
          "duration": 0.22395833333337123
        },
        {
          "name": "F#2",
          "midi": 42,
          "time": 447.24999999999943,
          "velocity": 0.6299212598425197,
          "duration": 0.125
        },
        {
          "name": "G3",
          "midi": 55,
          "time": 447.4947916666661,
          "velocity": 0.9606299212598425,
          "duration": 0.265625
        },
        {
          "name": "F#2",
          "midi": 42,
          "time": 447.49999999999943,
          "velocity": 0.6299212598425197,
          "duration": 0.125
        },
        {
          "name": "C#2",
          "midi": 37,
          "time": 447.49999999999943,
          "velocity": 0.7874015748031497,
          "duration": 0.125
        },
        {
          "name": "B1",
          "midi": 35,
          "time": 447.74999999999943,
          "velocity": 0.6299212598425197,
          "duration": 0.125
        },
        {
          "name": "F#2",
          "midi": 42,
          "time": 447.74999999999943,
          "velocity": 0.6299212598425197,
          "duration": 0.125
        },
        {
          "name": "A#2",
          "midi": 46,
          "time": 447.87499999999943,
          "velocity": 0.7086614173228346,
          "duration": 0.125
        },
        {
          "name": "B1",
          "midi": 35,
          "time": 447.99999999999943,
          "velocity": 0.7874015748031497,
          "duration": 0.125
        },
        {
          "name": "F#2",
          "midi": 42,
          "time": 447.99999999999943,
          "velocity": 0.7874015748031497,
          "duration": 0.125
        },
        {
          "name": "A3",
          "midi": 57,
          "time": 448.0104166666661,
          "velocity": 0.7874015748031497,
          "duration": 0.296875
        },
        {
          "name": "F#2",
          "midi": 42,
          "time": 448.24999999999943,
          "velocity": 0.7795275590551181,
          "duration": 0.125
        },
        {
          "name": "F#2",
          "midi": 42,
          "time": 448.49999999999943,
          "velocity": 0.7716535433070866,
          "duration": 0.125
        },
        {
          "name": "C#2",
          "midi": 37,
          "time": 448.49999999999943,
          "velocity": 0.7716535433070866,
          "duration": 0.125
        },
        {
          "name": "G3",
          "midi": 55,
          "time": 448.53124999999943,
          "velocity": 0.7716535433070866,
          "duration": 0.234375
        },
        {
          "name": "B1",
          "midi": 35,
          "time": 448.74999999999943,
          "velocity": 0.7637795275590551,
          "duration": 0.125
        },
        {
          "name": "F#2",
          "midi": 42,
          "time": 448.74999999999943,
          "velocity": 0.7637795275590551,
          "duration": 0.125
        },
        {
          "name": "B1",
          "midi": 35,
          "time": 448.99999999999943,
          "velocity": 0.7480314960629921,
          "duration": 0.125
        },
        {
          "name": "F#2",
          "midi": 42,
          "time": 448.99999999999943,
          "velocity": 0.7480314960629921,
          "duration": 0.125
        },
        {
          "name": "G3",
          "midi": 55,
          "time": 449.02083333333275,
          "velocity": 0.7480314960629921,
          "duration": 0.25
        },
        {
          "name": "F#2",
          "midi": 42,
          "time": 449.24999999999943,
          "velocity": 0.7401574803149606,
          "duration": 0.125
        },
        {
          "name": "F#2",
          "midi": 42,
          "time": 449.49999999999943,
          "velocity": 0.7322834645669292,
          "duration": 0.125
        },
        {
          "name": "C#2",
          "midi": 37,
          "time": 449.49999999999943,
          "velocity": 0.7322834645669292,
          "duration": 0.125
        },
        {
          "name": "G3",
          "midi": 55,
          "time": 449.5104166666661,
          "velocity": 0.7322834645669292,
          "duration": 0.21875
        },
        {
          "name": "B1",
          "midi": 35,
          "time": 449.74999999999943,
          "velocity": 0.7244094488188977,
          "duration": 0.125
        },
        {
          "name": "F#2",
          "midi": 42,
          "time": 449.74999999999943,
          "velocity": 0.7244094488188977,
          "duration": 0.125
        },
        {
          "name": "A#2",
          "midi": 46,
          "time": 449.87499999999943,
          "velocity": 0.7165354330708661,
          "duration": 0.125
        },
        {
          "name": "A3",
          "midi": 57,
          "time": 449.9947916666661,
          "velocity": 0.7165354330708661,
          "duration": 0.265625
        },
        {
          "name": "B1",
          "midi": 35,
          "time": 449.99999999999943,
          "velocity": 0.7086614173228346,
          "duration": 0.125
        },
        {
          "name": "F#2",
          "midi": 42,
          "time": 449.99999999999943,
          "velocity": 0.7086614173228346,
          "duration": 0.125
        },
        {
          "name": "F#2",
          "midi": 42,
          "time": 450.24999999999943,
          "velocity": 0.7007874015748031,
          "duration": 0.125
        },
        {
          "name": "F#2",
          "midi": 42,
          "time": 450.49999999999943,
          "velocity": 0.6929133858267716,
          "duration": 0.125
        },
        {
          "name": "C#2",
          "midi": 37,
          "time": 450.49999999999943,
          "velocity": 0.6929133858267716,
          "duration": 0.125
        },
        {
          "name": "G3",
          "midi": 55,
          "time": 450.5104166666661,
          "velocity": 0.6929133858267716,
          "duration": 0.265625
        },
        {
          "name": "B1",
          "midi": 35,
          "time": 450.74999999999943,
          "velocity": 0.6850393700787402,
          "duration": 0.125
        },
        {
          "name": "F#2",
          "midi": 42,
          "time": 450.74999999999943,
          "velocity": 0.6850393700787402,
          "duration": 0.125
        },
        {
          "name": "B1",
          "midi": 35,
          "time": 450.99999999999943,
          "velocity": 0.6692913385826772,
          "duration": 0.125
        },
        {
          "name": "F#2",
          "midi": 42,
          "time": 450.99999999999943,
          "velocity": 0.6692913385826772,
          "duration": 0.125
        },
        {
          "name": "G3",
          "midi": 55,
          "time": 451.0260416666661,
          "velocity": 0.6692913385826772,
          "duration": 0.234375
        },
        {
          "name": "F#2",
          "midi": 42,
          "time": 451.24999999999943,
          "velocity": 0.6614173228346457,
          "duration": 0.125
        },
        {
          "name": "F#2",
          "midi": 42,
          "time": 451.49999999999943,
          "velocity": 0.6535433070866141,
          "duration": 0.125
        },
        {
          "name": "C#2",
          "midi": 37,
          "time": 451.49999999999943,
          "velocity": 0.6535433070866141,
          "duration": 0.125
        },
        {
          "name": "G3",
          "midi": 55,
          "time": 451.53124999999943,
          "velocity": 0.6535433070866141,
          "duration": 0.2552083333333144
        },
        {
          "name": "B1",
          "midi": 35,
          "time": 451.74999999999943,
          "velocity": 0.6456692913385826,
          "duration": 0.125
        },
        {
          "name": "F#2",
          "midi": 42,
          "time": 451.74999999999943,
          "velocity": 0.6456692913385826,
          "duration": 0.125
        },
        {
          "name": "A#2",
          "midi": 46,
          "time": 451.87499999999943,
          "velocity": 0.6377952755905512,
          "duration": 0.125
        },
        {
          "name": "B1",
          "midi": 35,
          "time": 451.99999999999943,
          "velocity": 0.6299212598425197,
          "duration": 0.125
        },
        {
          "name": "F#2",
          "midi": 42,
          "time": 451.99999999999943,
          "velocity": 0.6299212598425197,
          "duration": 0.125
        },
        {
          "name": "A3",
          "midi": 57,
          "time": 452.02083333333275,
          "velocity": 0.6299212598425197,
          "duration": 0.21875
        },
        {
          "name": "F#2",
          "midi": 42,
          "time": 452.24999999999943,
          "velocity": 0.6220472440944882,
          "duration": 0.125
        },
        {
          "name": "F#2",
          "midi": 42,
          "time": 452.49999999999943,
          "velocity": 0.6141732283464567,
          "duration": 0.125
        },
        {
          "name": "C#2",
          "midi": 37,
          "time": 452.49999999999943,
          "velocity": 0.6141732283464567,
          "duration": 0.125
        },
        {
          "name": "G3",
          "midi": 55,
          "time": 452.51562499999943,
          "velocity": 0.6141732283464567,
          "duration": 0.234375
        },
        {
          "name": "B1",
          "midi": 35,
          "time": 452.74999999999943,
          "velocity": 0.6062992125984252,
          "duration": 0.125
        },
        {
          "name": "F#2",
          "midi": 42,
          "time": 452.74999999999943,
          "velocity": 0.6062992125984252,
          "duration": 0.125
        },
        {
          "name": "G3",
          "midi": 55,
          "time": 452.9947916666661,
          "velocity": 0.5984251968503937,
          "duration": 0.21354166666662877
        },
        {
          "name": "B1",
          "midi": 35,
          "time": 452.99999999999943,
          "velocity": 0.5905511811023622,
          "duration": 0.125
        },
        {
          "name": "F#2",
          "midi": 42,
          "time": 452.99999999999943,
          "velocity": 0.5905511811023622,
          "duration": 0.125
        },
        {
          "name": "F#2",
          "midi": 42,
          "time": 453.24999999999943,
          "velocity": 0.5826771653543307,
          "duration": 0.125
        },
        {
          "name": "G3",
          "midi": 55,
          "time": 453.4791666666661,
          "velocity": 0.5748031496062992,
          "duration": 0.234375
        },
        {
          "name": "F#2",
          "midi": 42,
          "time": 453.49999999999943,
          "velocity": 0.5748031496062992,
          "duration": 0.125
        },
        {
          "name": "C#2",
          "midi": 37,
          "time": 453.49999999999943,
          "velocity": 0.5748031496062992,
          "duration": 0.125
        },
        {
          "name": "B1",
          "midi": 35,
          "time": 453.74999999999943,
          "velocity": 0.5669291338582677,
          "duration": 0.125
        },
        {
          "name": "F#2",
          "midi": 42,
          "time": 453.74999999999943,
          "velocity": 0.5669291338582677,
          "duration": 0.125
        },
        {
          "name": "A#2",
          "midi": 46,
          "time": 453.87499999999943,
          "velocity": 0.5590551181102362,
          "duration": 0.125
        },
        {
          "name": "A3",
          "midi": 57,
          "time": 453.9791666666661,
          "velocity": 0.5590551181102362,
          "duration": 0.22916666666662877
        },
        {
          "name": "B1",
          "midi": 35,
          "time": 453.99999999999943,
          "velocity": 0.5511811023622047,
          "duration": 0.125
        },
        {
          "name": "F#2",
          "midi": 42,
          "time": 453.99999999999943,
          "velocity": 0.5511811023622047,
          "duration": 0.125
        },
        {
          "name": "F#2",
          "midi": 42,
          "time": 454.24999999999943,
          "velocity": 0.5433070866141733,
          "duration": 0.125
        },
        {
          "name": "F#2",
          "midi": 42,
          "time": 454.49999999999943,
          "velocity": 0.5354330708661418,
          "duration": 0.125
        },
        {
          "name": "C#2",
          "midi": 37,
          "time": 454.49999999999943,
          "velocity": 0.5354330708661418,
          "duration": 0.125
        },
        {
          "name": "G3",
          "midi": 55,
          "time": 454.49999999999943,
          "velocity": 0.5354330708661418,
          "duration": 0.23958333333331439
        },
        {
          "name": "B1",
          "midi": 35,
          "time": 454.74999999999943,
          "velocity": 0.5275590551181102,
          "duration": 0.125
        },
        {
          "name": "F#2",
          "midi": 42,
          "time": 454.74999999999943,
          "velocity": 0.5275590551181102,
          "duration": 0.125
        },
        {
          "name": "G3",
          "midi": 55,
          "time": 454.9947916666661,
          "velocity": 0.5196850393700787,
          "duration": 0.22395833333331439
        },
        {
          "name": "B1",
          "midi": 35,
          "time": 454.99999999999943,
          "velocity": 0.5118110236220472,
          "duration": 0.125
        },
        {
          "name": "F#2",
          "midi": 42,
          "time": 454.99999999999943,
          "velocity": 0.5118110236220472,
          "duration": 0.125
        },
        {
          "name": "F#2",
          "midi": 42,
          "time": 455.24999999999943,
          "velocity": 0.5039370078740157,
          "duration": 0.125
        },
        {
          "name": "G3",
          "midi": 55,
          "time": 455.4947916666661,
          "velocity": 0.49606299212598426,
          "duration": 0.22395833333331439
        },
        {
          "name": "F#2",
          "midi": 42,
          "time": 455.49999999999943,
          "velocity": 0.49606299212598426,
          "duration": 0.125
        },
        {
          "name": "C#2",
          "midi": 37,
          "time": 455.49999999999943,
          "velocity": 0.49606299212598426,
          "duration": 0.125
        },
        {
          "name": "B1",
          "midi": 35,
          "time": 455.74999999999943,
          "velocity": 0.4881889763779528,
          "duration": 0.125
        },
        {
          "name": "F#2",
          "midi": 42,
          "time": 455.74999999999943,
          "velocity": 0.4881889763779528,
          "duration": 0.125
        },
        {
          "name": "A#2",
          "midi": 46,
          "time": 455.87499999999943,
          "velocity": 0.48031496062992124,
          "duration": 0.125
        },
        {
          "name": "A3",
          "midi": 57,
          "time": 455.98958333333275,
          "velocity": 0.48031496062992124,
          "duration": 0.234375
        },
        {
          "name": "B1",
          "midi": 35,
          "time": 455.99999999999943,
          "velocity": 0.47244094488188976,
          "duration": 0.125
        },
        {
          "name": "F#2",
          "midi": 42,
          "time": 455.99999999999943,
          "velocity": 0.47244094488188976,
          "duration": 0.125
        },
        {
          "name": "F#2",
          "midi": 42,
          "time": 456.24999999999943,
          "velocity": 0.4645669291338583,
          "duration": 0.125
        },
        {
          "name": "F#2",
          "midi": 42,
          "time": 456.49999999999943,
          "velocity": 0.4566929133858268,
          "duration": 0.125
        },
        {
          "name": "C#2",
          "midi": 37,
          "time": 456.49999999999943,
          "velocity": 0.4566929133858268,
          "duration": 0.125
        },
        {
          "name": "G3",
          "midi": 55,
          "time": 456.49999999999943,
          "velocity": 0.4566929133858268,
          "duration": 0.234375
        },
        {
          "name": "B1",
          "midi": 35,
          "time": 456.74999999999943,
          "velocity": 0.44881889763779526,
          "duration": 0.125
        },
        {
          "name": "F#2",
          "midi": 42,
          "time": 456.74999999999943,
          "velocity": 0.44881889763779526,
          "duration": 0.125
        },
        {
          "name": "B1",
          "midi": 35,
          "time": 456.99999999999943,
          "velocity": 0.4330708661417323,
          "duration": 0.125
        },
        {
          "name": "F#2",
          "midi": 42,
          "time": 456.99999999999943,
          "velocity": 0.4330708661417323,
          "duration": 0.125
        },
        {
          "name": "G3",
          "midi": 55,
          "time": 457.01562499999943,
          "velocity": 0.4330708661417323,
          "duration": 0.21354166666668561
        },
        {
          "name": "F#2",
          "midi": 42,
          "time": 457.24999999999943,
          "velocity": 0.4251968503937008,
          "duration": 0.125
        },
        {
          "name": "G3",
          "midi": 55,
          "time": 457.48958333333275,
          "velocity": 0.41732283464566927,
          "duration": 0.21875
        },
        {
          "name": "F#2",
          "midi": 42,
          "time": 457.49999999999943,
          "velocity": 0.41732283464566927,
          "duration": 0.125
        },
        {
          "name": "C#2",
          "midi": 37,
          "time": 457.49999999999943,
          "velocity": 0.41732283464566927,
          "duration": 0.125
        },
        {
          "name": "B1",
          "midi": 35,
          "time": 457.74999999999943,
          "velocity": 0.4094488188976378,
          "duration": 0.125
        },
        {
          "name": "F#2",
          "midi": 42,
          "time": 457.74999999999943,
          "velocity": 0.4094488188976378,
          "duration": 0.125
        },
        {
          "name": "A3",
          "midi": 57,
          "time": 457.95833333333275,
          "velocity": 0.4015748031496063,
          "duration": 0.2604166666666856
        },
        {
          "name": "B1",
          "midi": 35,
          "time": 457.99999999999943,
          "velocity": 0.3937007874015748,
          "duration": 0.125
        },
        {
          "name": "F#2",
          "midi": 42,
          "time": 457.99999999999943,
          "velocity": 0.3937007874015748,
          "duration": 0.125
        },
        {
          "name": "F#2",
          "midi": 42,
          "time": 458.24999999999943,
          "velocity": 0.3858267716535433,
          "duration": 0.125
        },
        {
          "name": "G3",
          "midi": 55,
          "time": 458.48958333333275,
          "velocity": 0.3779527559055118,
          "duration": 0.25
        },
        {
          "name": "F#2",
          "midi": 42,
          "time": 458.49999999999943,
          "velocity": 0.3779527559055118,
          "duration": 0.125
        },
        {
          "name": "C#2",
          "midi": 37,
          "time": 458.49999999999943,
          "velocity": 0.3779527559055118,
          "duration": 0.125
        },
        {
          "name": "B1",
          "midi": 35,
          "time": 458.74999999999943,
          "velocity": 0.3700787401574803,
          "duration": 0.125
        },
        {
          "name": "F#2",
          "midi": 42,
          "time": 458.74999999999943,
          "velocity": 0.3700787401574803,
          "duration": 0.125
        },
        {
          "name": "G3",
          "midi": 55,
          "time": 458.9947916666661,
          "velocity": 0.36220472440944884,
          "duration": 0.21875
        },
        {
          "name": "B1",
          "midi": 35,
          "time": 458.99999999999943,
          "velocity": 0.3543307086614173,
          "duration": 0.125
        },
        {
          "name": "F#2",
          "midi": 42,
          "time": 458.99999999999943,
          "velocity": 0.3543307086614173,
          "duration": 0.125
        },
        {
          "name": "F#2",
          "midi": 42,
          "time": 459.24999999999943,
          "velocity": 0.3464566929133858,
          "duration": 0.125
        },
        {
          "name": "G3",
          "midi": 55,
          "time": 459.4791666666661,
          "velocity": 0.33858267716535434,
          "duration": 0.27604166666662877
        },
        {
          "name": "F#2",
          "midi": 42,
          "time": 459.49999999999943,
          "velocity": 0.33858267716535434,
          "duration": 0.125
        },
        {
          "name": "C#2",
          "midi": 37,
          "time": 459.49999999999943,
          "velocity": 0.33858267716535434,
          "duration": 0.125
        },
        {
          "name": "B1",
          "midi": 35,
          "time": 459.74999999999943,
          "velocity": 0.33070866141732286,
          "duration": 0.125
        },
        {
          "name": "F#2",
          "midi": 42,
          "time": 459.74999999999943,
          "velocity": 0.33070866141732286,
          "duration": 0.125
        },
        {
          "name": "A#2",
          "midi": 46,
          "time": 459.87499999999943,
          "velocity": 0.3228346456692913,
          "duration": 0.125
        },
        {
          "name": "A3",
          "midi": 57,
          "time": 459.97395833333275,
          "velocity": 0.3228346456692913,
          "duration": 0.2604166666666856
        },
        {
          "name": "B1",
          "midi": 35,
          "time": 459.99999999999943,
          "velocity": 0.31496062992125984,
          "duration": 0.125
        },
        {
          "name": "F#2",
          "midi": 42,
          "time": 459.99999999999943,
          "velocity": 0.31496062992125984,
          "duration": 0.125
        },
        {
          "name": "F#2",
          "midi": 42,
          "time": 460.24999999999943,
          "velocity": 0.30708661417322836,
          "duration": 0.125
        },
        {
          "name": "G3",
          "midi": 55,
          "time": 460.4791666666661,
          "velocity": 0.2992125984251969,
          "duration": 0.26041666666662877
        },
        {
          "name": "D2",
          "midi": 38,
          "time": 460.49999999999943,
          "velocity": 0.2992125984251969,
          "duration": 0.125
        },
        {
          "name": "F#2",
          "midi": 42,
          "time": 460.49999999999943,
          "velocity": 0.2992125984251969,
          "duration": 0.125
        },
        {
          "name": "B1",
          "midi": 35,
          "time": 460.74999999999943,
          "velocity": 0.29133858267716534,
          "duration": 0.125
        },
        {
          "name": "F#2",
          "midi": 42,
          "time": 460.74999999999943,
          "velocity": 0.29133858267716534,
          "duration": 0.125
        },
        {
          "name": "G3",
          "midi": 55,
          "time": 460.9947916666661,
          "velocity": 0.28346456692913385,
          "duration": 0.23958333333331439
        },
        {
          "name": "B1",
          "midi": 35,
          "time": 460.99999999999943,
          "velocity": 0.2755905511811024,
          "duration": 0.125
        },
        {
          "name": "F#2",
          "midi": 42,
          "time": 460.99999999999943,
          "velocity": 0.2755905511811024,
          "duration": 0.125
        },
        {
          "name": "F#2",
          "midi": 42,
          "time": 461.24999999999943,
          "velocity": 0.2677165354330709,
          "duration": 0.125
        },
        {
          "name": "B1",
          "midi": 35,
          "time": 461.37499999999943,
          "velocity": 0.2677165354330709,
          "duration": 0.125
        },
        {
          "name": "D2",
          "midi": 38,
          "time": 461.49999999999943,
          "velocity": 0.25984251968503935,
          "duration": 0.125
        },
        {
          "name": "F#2",
          "midi": 42,
          "time": 461.49999999999943,
          "velocity": 0.25984251968503935,
          "duration": 0.125
        },
        {
          "name": "G3",
          "midi": 55,
          "time": 461.53124999999943,
          "velocity": 0.25984251968503935,
          "duration": 0.234375
        },
        {
          "name": "B1",
          "midi": 35,
          "time": 461.74999999999943,
          "velocity": 0.25196850393700787,
          "duration": 0.125
        },
        {
          "name": "D2",
          "midi": 38,
          "time": 461.74999999999943,
          "velocity": 0.25196850393700787,
          "duration": 0.125
        },
        {
          "name": "F#2",
          "midi": 42,
          "time": 461.74999999999943,
          "velocity": 0.25196850393700787,
          "duration": 0.125
        },
        {
          "name": "D2",
          "midi": 38,
          "time": 461.87499999999943,
          "velocity": 0.2440944881889764,
          "duration": 0.125
        }
      ],
      "controlChanges": {
        "32": [
          {
            "number": 32,
            "time": 0,
            "value": 0
          }
        ]
      },
      "id": 1,
      "instrumentNumber": 0,
      "instrument": "standard kit",
      "instrumentFamily": "drums",
      "channelNumber": 9,
      "isPercussion": true
    },
    {
      "startTime": 2.0208333333333335,
      "duration": 461.8854166666652,
      "length": 2871,
      "notes": [
        {
          "name": "G5",
          "midi": 79,
          "time": 2.0208333333333335,
          "velocity": 0.5984251968503937,
          "duration": 0.3645833333333335
        },
        {
          "name": "D5",
          "midi": 74,
          "time": 2.0208333333333335,
          "velocity": 0.7637795275590551,
          "duration": 0.8750000000000004
        },
        {
          "name": "G2",
          "midi": 43,
          "time": 2.0208333333333335,
          "velocity": 0.5748031496062992,
          "duration": 1.7500000000000009
        },
        {
          "name": "B4",
          "midi": 71,
          "time": 2.026041666666667,
          "velocity": 0.5433070866141733,
          "duration": 0.8125000000000004
        },
        {
          "name": "G4",
          "midi": 67,
          "time": 2.026041666666667,
          "velocity": 0.4566929133858268,
          "duration": 0.5677083333333335
        },
        {
          "name": "G5",
          "midi": 79,
          "time": 2.244791666666667,
          "velocity": 0.7086614173228346,
          "duration": 0.6718750000000004
        },
        {
          "name": "G4",
          "midi": 67,
          "time": 2.2552083333333335,
          "velocity": 0.5748031496062992,
          "duration": 0.6458333333333339
        },
        {
          "name": "A5",
          "midi": 81,
          "time": 2.3593750000000004,
          "velocity": 0.8110236220472441,
          "duration": 0.140625
        },
        {
          "name": "B5",
          "midi": 83,
          "time": 2.479166666666667,
          "velocity": 0.8503937007874016,
          "duration": 0.29687500000000044
        },
        {
          "name": "B4",
          "midi": 71,
          "time": 2.520833333333334,
          "velocity": 0.7952755905511811,
          "duration": 0.7343750000000004
        },
        {
          "name": "G5",
          "midi": 79,
          "time": 2.723958333333334,
          "velocity": 0.7244094488188977,
          "duration": 0.21354166666666696
        },
        {
          "name": "D5",
          "midi": 74,
          "time": 2.7447916666666674,
          "velocity": 0.7795275590551181,
          "duration": 0.26041666666666696
        },
        {
          "name": "G4",
          "midi": 67,
          "time": 2.750000000000001,
          "velocity": 0.7480314960629921,
          "duration": 1.0052083333333335
        },
        {
          "name": "D6",
          "midi": 86,
          "time": 2.9583333333333344,
          "velocity": 0.8503937007874016,
          "duration": 0.2552083333333335
        },
        {
          "name": "G5",
          "midi": 79,
          "time": 2.9739583333333344,
          "velocity": 0.7401574803149606,
          "duration": 0.7239583333333339
        },
        {
          "name": "B5",
          "midi": 83,
          "time": 3.197916666666668,
          "velocity": 0.8346456692913385,
          "duration": 0.24479166666666652
        },
        {
          "name": "D5",
          "midi": 74,
          "time": 3.2239583333333344,
          "velocity": 0.8110236220472441,
          "duration": 0.48437500000000044
        },
        {
          "name": "B4",
          "midi": 71,
          "time": 3.244791666666668,
          "velocity": 0.5039370078740157,
          "duration": 0.46354166666666696
        },
        {
          "name": "A5",
          "midi": 81,
          "time": 3.437500000000001,
          "velocity": 0.7401574803149606,
          "duration": 0.07812500000000044
        },
        {
          "name": "B4",
          "midi": 71,
          "time": 3.4583333333333344,
          "velocity": 0.8267716535433071,
          "duration": 0.46875000000000044
        },
        {
          "name": "G5",
          "midi": 79,
          "time": 3.479166666666668,
          "velocity": 1,
          "duration": 0.22916666666666696
        },
        {
          "name": "D5",
          "midi": 74,
          "time": 3.4843750000000013,
          "velocity": 0.7401574803149606,
          "duration": 0.4375
        },
        {
          "name": "B5",
          "midi": 83,
          "time": 3.5156250000000013,
          "velocity": 0.8503937007874016,
          "duration": 0.06770833333333348
        },
        {
          "name": "A5",
          "midi": 81,
          "time": 3.583333333333335,
          "velocity": 0.7559055118110236,
          "duration": 0.13541666666666652
        },
        {
          "name": "G5",
          "midi": 79,
          "time": 3.708333333333335,
          "velocity": 0.7952755905511811,
          "duration": 0.234375
        },
        {
          "name": "G4",
          "midi": 67,
          "time": 3.7187500000000013,
          "velocity": 0.7795275590551181,
          "duration": 0.234375
        },
        {
          "name": "A3",
          "midi": 57,
          "time": 4.000000000000002,
          "velocity": 0.7480314960629921,
          "duration": 0.3749999999999991
        },
        {
          "name": "D4",
          "midi": 62,
          "time": 4.005208333333335,
          "velocity": 0.8818897637795275,
          "duration": 0.4010416666666661
        },
        {
          "name": "F#2",
          "midi": 42,
          "time": 4.010416666666668,
          "velocity": 0.5039370078740157,
          "duration": 1.838541666666667
        },
        {
          "name": "F#3",
          "midi": 54,
          "time": 4.010416666666668,
          "velocity": 0.6535433070866141,
          "duration": 0.17708333333333304
        },
        {
          "name": "B3",
          "midi": 59,
          "time": 4.015625000000001,
          "velocity": 0.8582677165354331,
          "duration": 0.41666666666666696
        },
        {
          "name": "F#4",
          "midi": 66,
          "time": 4.015625000000001,
          "velocity": 0.7401574803149606,
          "duration": 0.40625
        },
        {
          "name": "F#5",
          "midi": 78,
          "time": 4.234375000000001,
          "velocity": 0.6456692913385826,
          "duration": 0.109375
        },
        {
          "name": "D4",
          "midi": 62,
          "time": 4.239583333333334,
          "velocity": 0.7165354330708661,
          "duration": 1.052083333333334
        },
        {
          "name": "F#3",
          "midi": 54,
          "time": 4.255208333333334,
          "velocity": 0.5905511811023622,
          "duration": 0.6562500000000009
        },
        {
          "name": "G5",
          "midi": 79,
          "time": 4.328125000000001,
          "velocity": 0.6377952755905512,
          "duration": 0.1875
        },
        {
          "name": "F#4",
          "midi": 66,
          "time": 4.473958333333335,
          "velocity": 0.7086614173228346,
          "duration": 0.770833333333333
        },
        {
          "name": "A5",
          "midi": 81,
          "time": 4.494791666666668,
          "velocity": 0.8110236220472441,
          "duration": 0.234375
        },
        {
          "name": "A3",
          "midi": 57,
          "time": 4.510416666666668,
          "velocity": 0.7244094488188977,
          "duration": 0.760416666666667
        },
        {
          "name": "F#5",
          "midi": 78,
          "time": 4.729166666666668,
          "velocity": 0.7244094488188977,
          "duration": 0.30729166666666696
        },
        {
          "name": "A4",
          "midi": 69,
          "time": 4.729166666666668,
          "velocity": 0.7244094488188977,
          "duration": 0.25
        },
        {
          "name": "D4",
          "midi": 62,
          "time": 4.734375000000001,
          "velocity": 0.7480314960629921,
          "duration": 0.59375
        },
        {
          "name": "B3",
          "midi": 59,
          "time": 4.744791666666668,
          "velocity": 0.6771653543307087,
          "duration": 0.567708333333333
        },
        {
          "name": "F#4",
          "midi": 66,
          "time": 4.755208333333335,
          "velocity": 0.7086614173228346,
          "duration": 0.5572916666666661
        },
        {
          "name": "D5",
          "midi": 74,
          "time": 4.963541666666668,
          "velocity": 0.7165354330708661,
          "duration": 0.583333333333333
        },
        {
          "name": "C6",
          "midi": 84,
          "time": 4.994791666666668,
          "velocity": 0.6062992125984252,
          "duration": 0.1875
        },
        {
          "name": "A5",
          "midi": 81,
          "time": 5.187500000000001,
          "velocity": 0.7716535433070866,
          "duration": 0.27604166666666696
        },
        {
          "name": "A4",
          "midi": 69,
          "time": 5.203125000000001,
          "velocity": 0.7716535433070866,
          "duration": 0.661458333333333
        },
        {
          "name": "F#3",
          "midi": 54,
          "time": 5.244791666666668,
          "velocity": 1,
          "duration": 0.614583333333333
        },
        {
          "name": "A3",
          "midi": 57,
          "time": 5.369791666666668,
          "velocity": 0.9763779527559056,
          "duration": 0.5104166666666661
        },
        {
          "name": "G5",
          "midi": 79,
          "time": 5.447916666666668,
          "velocity": 0.8740157480314961,
          "duration": 0.20833333333333304
        },
        {
          "name": "F#4",
          "midi": 66,
          "time": 5.479166666666668,
          "velocity": 0.8188976377952756,
          "duration": 0.3854166666666661
        },
        {
          "name": "B3",
          "midi": 59,
          "time": 5.500000000000001,
          "velocity": 0.7637795275590551,
          "duration": 0.38020833333333304
        },
        {
          "name": "D4",
          "midi": 62,
          "time": 5.625000000000001,
          "velocity": 0.8818897637795275,
          "duration": 0.22916666666666696
        },
        {
          "name": "F#5",
          "midi": 78,
          "time": 5.703125000000001,
          "velocity": 0.7401574803149606,
          "duration": 0.296875
        },
        {
          "name": "D4",
          "midi": 62,
          "time": 5.729166666666668,
          "velocity": 0.8976377952755905,
          "duration": 0.27083333333333304
        },
        {
          "name": "F#4",
          "midi": 66,
          "time": 5.760416666666668,
          "velocity": 1,
          "duration": 0.11979166666666607
        },
        {
          "name": "G4",
          "midi": 67,
          "time": 6.005208333333334,
          "velocity": 0.6614173228346457,
          "duration": 0.5468749999999991
        },
        {
          "name": "E4",
          "midi": 64,
          "time": 6.005208333333334,
          "velocity": 0.8582677165354331,
          "duration": 0.5104166666666661
        },
        {
          "name": "E3",
          "midi": 52,
          "time": 6.010416666666667,
          "velocity": 0.6535433070866141,
          "duration": 1.916666666666666
        },
        {
          "name": "B3",
          "midi": 59,
          "time": 6.010416666666667,
          "velocity": 0.6614173228346457,
          "duration": 0.4375
        },
        {
          "name": "E4",
          "midi": 64,
          "time": 6.229166666666667,
          "velocity": 0.7559055118110236,
          "duration": 1.1927083333333321
        },
        {
          "name": "E5",
          "midi": 76,
          "time": 6.239583333333334,
          "velocity": 0.7795275590551181,
          "duration": 0.140625
        },
        {
          "name": "E2",
          "midi": 40,
          "time": 6.276041666666667,
          "velocity": 0.6614173228346457,
          "duration": 3.3072916666666687
        },
        {
          "name": "F#5",
          "midi": 78,
          "time": 6.348958333333334,
          "velocity": 0.7716535433070866,
          "duration": 0.13020833333333304
        },
        {
          "name": "G5",
          "midi": 79,
          "time": 6.463541666666667,
          "velocity": 0.8267716535433071,
          "duration": 0.23958333333333304
        },
        {
          "name": "G4",
          "midi": 67,
          "time": 6.494791666666667,
          "velocity": 0.6535433070866141,
          "duration": 0.7552083333333321
        },
        {
          "name": "B3",
          "midi": 59,
          "time": 6.515625,
          "velocity": 0.6535433070866141,
          "duration": 0.958333333333333
        },
        {
          "name": "E5",
          "midi": 76,
          "time": 6.708333333333333,
          "velocity": 0.7480314960629921,
          "duration": 0.21354166666666696
        },
        {
          "name": "B4",
          "midi": 71,
          "time": 6.723958333333333,
          "velocity": 0.7559055118110236,
          "duration": 0.27083333333333304
        },
        {
          "name": "E4",
          "midi": 64,
          "time": 6.760416666666666,
          "velocity": 0.8582677165354331,
          "duration": 0.744791666666667
        },
        {
          "name": "G4",
          "midi": 67,
          "time": 6.770833333333333,
          "velocity": 0.6850393700787402,
          "duration": 0.645833333333333
        },
        {
          "name": "B5",
          "midi": 83,
          "time": 6.958333333333333,
          "velocity": 0.8110236220472441,
          "duration": 0.25520833333333304
        },
        {
          "name": "E5",
          "midi": 76,
          "time": 6.973958333333333,
          "velocity": 0.6929133858267716,
          "duration": 0.880208333333333
        },
        {
          "name": "G5",
          "midi": 79,
          "time": 7.192708333333333,
          "velocity": 0.7795275590551181,
          "duration": 0.25520833333333304
        },
        {
          "name": "B4",
          "midi": 71,
          "time": 7.218749999999999,
          "velocity": 0.8346456692913385,
          "duration": 0.5468750000000009
        },
        {
          "name": "F#5",
          "midi": 78,
          "time": 7.437499999999999,
          "velocity": 0.6929133858267716,
          "duration": 0.06770833333333393
        },
        {
          "name": "G4",
          "midi": 67,
          "time": 7.473958333333333,
          "velocity": 0.7952755905511811,
          "duration": 0.29166666666666696
        },
        {
          "name": "G5",
          "midi": 79,
          "time": 7.5,
          "velocity": 0.7480314960629921,
          "duration": 0.08333333333333304
        },
        {
          "name": "F#5",
          "midi": 78,
          "time": 7.567708333333333,
          "velocity": 0.8188976377952756,
          "duration": 0.15625
        },
        {
          "name": "B3",
          "midi": 59,
          "time": 7.645833333333333,
          "velocity": 0.7952755905511811,
          "duration": 1.5156250000000027
        },
        {
          "name": "E4",
          "midi": 64,
          "time": 7.713541666666666,
          "velocity": 0.8503937007874016,
          "duration": 0.5937500000000018
        },
        {
          "name": "E5",
          "midi": 76,
          "time": 7.723958333333333,
          "velocity": 0.8976377952755905,
          "duration": 0.40104166666666696
        },
        {
          "name": "E4",
          "midi": 64,
          "time": 7.770833333333333,
          "velocity": 0.8267716535433071,
          "duration": 1.2447916666666687
        },
        {
          "name": "G4",
          "midi": 67,
          "time": 8.015625,
          "velocity": 0.7952755905511811,
          "duration": 0.2864583333333339
        },
        {
          "name": "E3",
          "midi": 52,
          "time": 8.020833333333334,
          "velocity": 0.6850393700787402,
          "duration": 1.020833333333334
        },
        {
          "name": "G4",
          "midi": 67,
          "time": 8.223958333333334,
          "velocity": 0.7952755905511811,
          "duration": 0.7708333333333339
        },
        {
          "name": "E5",
          "midi": 76,
          "time": 8.255208333333334,
          "velocity": 0.8818897637795275,
          "duration": 0.25
        },
        {
          "name": "F#5",
          "midi": 78,
          "time": 8.463541666666668,
          "velocity": 0.8346456692913385,
          "duration": 0.2708333333333339
        },
        {
          "name": "B4",
          "midi": 71,
          "time": 8.473958333333334,
          "velocity": 0.7952755905511811,
          "duration": 0.23958333333333393
        },
        {
          "name": "E4",
          "midi": 64,
          "time": 8.473958333333334,
          "velocity": 0.6377952755905512,
          "duration": 0.6666666666666679
        },
        {
          "name": "E5",
          "midi": 76,
          "time": 8.697916666666668,
          "velocity": 0.7952755905511811,
          "duration": 0.328125
        },
        {
          "name": "G5",
          "midi": 79,
          "time": 8.708333333333334,
          "velocity": 0.7716535433070866,
          "duration": 0.27604166666666785
        },
        {
          "name": "G4",
          "midi": 67,
          "time": 8.744791666666668,
          "velocity": 0.7874015748031497,
          "duration": 0.375
        },
        {
          "name": "A5",
          "midi": 81,
          "time": 8.963541666666668,
          "velocity": 0.8503937007874016,
          "duration": 0.27604166666666785
        },
        {
          "name": "B4",
          "midi": 71,
          "time": 8.968750000000002,
          "velocity": 0.8582677165354331,
          "duration": 0.48958333333333215
        },
        {
          "name": "G4",
          "midi": 67,
          "time": 9.208333333333336,
          "velocity": 0.8110236220472441,
          "duration": 0.2812499999999982
        },
        {
          "name": "G5",
          "midi": 79,
          "time": 9.21354166666667,
          "velocity": 0.8582677165354331,
          "duration": 0.2447916666666643
        },
        {
          "name": "E3",
          "midi": 52,
          "time": 9.250000000000002,
          "velocity": 1,
          "duration": 0.35416666666666785
        },
        {
          "name": "F#5",
          "midi": 78,
          "time": 9.447916666666668,
          "velocity": 0.7559055118110236,
          "duration": 0.0625
        },
        {
          "name": "E4",
          "midi": 64,
          "time": 9.463541666666668,
          "velocity": 0.8740157480314961,
          "duration": 0.3177083333333357
        },
        {
          "name": "E5",
          "midi": 76,
          "time": 9.479166666666668,
          "velocity": 0.5748031496062992,
          "duration": 0.05729166666666785
        },
        {
          "name": "E4",
          "midi": 64,
          "time": 9.505208333333334,
          "velocity": 0.905511811023622,
          "duration": 0.32812500000000355
        },
        {
          "name": "G5",
          "midi": 79,
          "time": 9.510416666666668,
          "velocity": 0.7165354330708661,
          "duration": 0.07812500000000178
        },
        {
          "name": "B3",
          "midi": 59,
          "time": 9.510416666666668,
          "velocity": 0.7480314960629921,
          "duration": 0.3333333333333375
        },
        {
          "name": "G4",
          "midi": 67,
          "time": 9.515625000000002,
          "velocity": 0.7244094488188977,
          "duration": 0.3229166666666696
        },
        {
          "name": "F#5",
          "midi": 78,
          "time": 9.57291666666667,
          "velocity": 0.8346456692913385,
          "duration": 0.13541666666666785
        },
        {
          "name": "E5",
          "midi": 76,
          "time": 9.703125000000004,
          "velocity": 0.905511811023622,
          "duration": 0.24479166666666963
        },
        {
          "name": "G4",
          "midi": 67,
          "time": 9.734375000000004,
          "velocity": 0.8110236220472441,
          "duration": 0.2395833333333357
        },
        {
          "name": "F4",
          "midi": 65,
          "time": 10.000000000000005,
          "velocity": 0.48031496062992124,
          "duration": 0.16145833333333393
        },
        {
          "name": "C5",
          "midi": 72,
          "time": 10.000000000000005,
          "velocity": 0.7716535433070866,
          "duration": 0.3177083333333357
        },
        {
          "name": "A4",
          "midi": 69,
          "time": 10.000000000000005,
          "velocity": 0.5905511811023622,
          "duration": 0.2864583333333357
        },
        {
          "name": "F5",
          "midi": 77,
          "time": 10.000000000000005,
          "velocity": 0.7244094488188977,
          "duration": 0.3281250000000018
        },
        {
          "name": "A3",
          "midi": 57,
          "time": 10.00520833333334,
          "velocity": 0.6535433070866141,
          "duration": 1.6145833333333393
        },
        {
          "name": "F3",
          "midi": 53,
          "time": 10.02083333333334,
          "velocity": 0.6299212598425197,
          "duration": 1.7500000000000053
        },
        {
          "name": "F5",
          "midi": 77,
          "time": 10.234375000000007,
          "velocity": 0.8110236220472441,
          "duration": 0.15104166666666607
        },
        {
          "name": "F4",
          "midi": 65,
          "time": 10.234375000000007,
          "velocity": 0.7480314960629921,
          "duration": 0.6197916666666696
        },
        {
          "name": "F4",
          "midi": 65,
          "time": 10.255208333333341,
          "velocity": 0.3228346456692913,
          "duration": 1.2552083333333375
        },
        {
          "name": "G5",
          "midi": 79,
          "time": 10.359375000000007,
          "velocity": 0.7559055118110236,
          "duration": 0.13541666666666785
        },
        {
          "name": "A5",
          "midi": 81,
          "time": 10.484375000000007,
          "velocity": 0.8110236220472441,
          "duration": 0.26041666666666785
        },
        {
          "name": "A4",
          "midi": 69,
          "time": 10.489583333333341,
          "velocity": 0.7480314960629921,
          "duration": 0.21875000000000178
        },
        {
          "name": "A4",
          "midi": 69,
          "time": 10.500000000000009,
          "velocity": 0.5905511811023622,
          "duration": 0.7395833333333339
        },
        {
          "name": "F5",
          "midi": 77,
          "time": 10.718750000000009,
          "velocity": 0.7559055118110236,
          "duration": 0.26041666666666785
        },
        {
          "name": "C5",
          "midi": 72,
          "time": 10.750000000000009,
          "velocity": 0.7716535433070866,
          "duration": 0.10416666666666785
        },
        {
          "name": "C5",
          "midi": 72,
          "time": 10.770833333333343,
          "velocity": 0.31496062992125984,
          "duration": 0.21875
        },
        {
          "name": "F5",
          "midi": 77,
          "time": 10.96875000000001,
          "velocity": 0.7559055118110236,
          "duration": 0.09375
        },
        {
          "name": "F5",
          "midi": 77,
          "time": 10.989583333333343,
          "velocity": 0.6771653543307087,
          "duration": 0.5000000000000018
        },
        {
          "name": "C6",
          "midi": 84,
          "time": 10.994791666666677,
          "velocity": 0.8267716535433071,
          "duration": 0.234375
        },
        {
          "name": "C5",
          "midi": 72,
          "time": 11.213541666666677,
          "velocity": 0.7795275590551181,
          "duration": 0.7083333333333357
        },
        {
          "name": "A5",
          "midi": 81,
          "time": 11.21875000000001,
          "velocity": 0.8110236220472441,
          "duration": 0.23958333333333393
        },
        {
          "name": "A5",
          "midi": 81,
          "time": 11.260416666666677,
          "velocity": 0.7480314960629921,
          "duration": 0.22395833333333393
        },
        {
          "name": "G5",
          "midi": 79,
          "time": 11.43750000000001,
          "velocity": 0.8267716535433071,
          "duration": 0.2708333333333339
        },
        {
          "name": "F4",
          "midi": 65,
          "time": 11.43750000000001,
          "velocity": 0.5511811023622047,
          "duration": 0.13020833333333393
        },
        {
          "name": "A4",
          "midi": 69,
          "time": 11.473958333333345,
          "velocity": 0.7559055118110236,
          "duration": 0.41666666666666785
        },
        {
          "name": "C6",
          "midi": 84,
          "time": 11.494791666666679,
          "velocity": 1,
          "duration": 0.09895833333333215
        },
        {
          "name": "A5",
          "midi": 81,
          "time": 11.614583333333345,
          "velocity": 0.8818897637795275,
          "duration": 0.11458333333333215
        },
        {
          "name": "F5",
          "midi": 77,
          "time": 11.692708333333345,
          "velocity": 0.8503937007874016,
          "duration": 0.15625
        },
        {
          "name": "F4",
          "midi": 65,
          "time": 11.71875000000001,
          "velocity": 0.8503937007874016,
          "duration": 0.24479166666666963
        },
        {
          "name": "F5",
          "midi": 77,
          "time": 11.75000000000001,
          "velocity": 0.7244094488188977,
          "duration": 0.17187500000000178
        },
        {
          "name": "C5",
          "midi": 72,
          "time": 11.895833333333346,
          "velocity": 0.44881889763779526,
          "duration": 0.03125
        },
        {
          "name": "C4",
          "midi": 60,
          "time": 12.000000000000012,
          "velocity": 0.5905511811023622,
          "duration": 0.7291666666666696
        },
        {
          "name": "G4",
          "midi": 67,
          "time": 12.000000000000012,
          "velocity": 0.6377952755905512,
          "duration": 0.7447916666666696
        },
        {
          "name": "C3",
          "midi": 48,
          "time": 12.000000000000012,
          "velocity": 0.4566929133858268,
          "duration": 0.6406250000000018
        },
        {
          "name": "E4",
          "midi": 64,
          "time": 12.000000000000012,
          "velocity": 0.7244094488188977,
          "duration": 0.7031250000000018
        },
        {
          "name": "G3",
          "midi": 55,
          "time": 12.000000000000012,
          "velocity": 0.5433070866141733,
          "duration": 0.7656250000000018
        },
        {
          "name": "C2",
          "midi": 36,
          "time": 12.005208333333346,
          "velocity": 0.2992125984251969,
          "duration": 1.536458333333341
        },
        {
          "name": "C5",
          "midi": 72,
          "time": 12.218750000000012,
          "velocity": 0.7401574803149606,
          "duration": 0.14583333333333393
        },
        {
          "name": "C4",
          "midi": 60,
          "time": 12.239583333333346,
          "velocity": 0.7716535433070866,
          "duration": 1.0052083333333357
        },
        {
          "name": "D5",
          "midi": 74,
          "time": 12.33854166666668,
          "velocity": 0.7952755905511811,
          "duration": 0.140625
        },
        {
          "name": "E5",
          "midi": 76,
          "time": 12.46354166666668,
          "velocity": 0.8267716535433071,
          "duration": 0.26041666666666785
        },
        {
          "name": "E4",
          "midi": 64,
          "time": 12.484375000000014,
          "velocity": 0.7952755905511811,
          "duration": 0.7500000000000018
        },
        {
          "name": "C5",
          "midi": 72,
          "time": 12.69791666666668,
          "velocity": 0.7244094488188977,
          "duration": 0.26041666666666785
        },
        {
          "name": "G4",
          "midi": 67,
          "time": 12.729166666666682,
          "velocity": 0.6929133858267716,
          "duration": 0.27083333333333215
        },
        {
          "name": "C3",
          "midi": 48,
          "time": 12.755208333333348,
          "velocity": 0.6850393700787402,
          "duration": 0.390625
        },
        {
          "name": "G5",
          "midi": 79,
          "time": 12.947916666666682,
          "velocity": 0.8267716535433071,
          "duration": 0.2708333333333339
        },
        {
          "name": "C5",
          "midi": 72,
          "time": 12.984375000000014,
          "velocity": 0.7480314960629921,
          "duration": 0.5260416666666732
        },
        {
          "name": "G4",
          "midi": 67,
          "time": 12.989583333333348,
          "velocity": 0.7480314960629921,
          "duration": 0.24479166666666785
        },
        {
          "name": "G3",
          "midi": 55,
          "time": 12.989583333333348,
          "velocity": 0.6535433070866141,
          "duration": 0.26041666666666785
        },
        {
          "name": "C4",
          "midi": 60,
          "time": 13.000000000000014,
          "velocity": 0.8582677165354331,
          "duration": 0.4635416666666714
        },
        {
          "name": "E4",
          "midi": 64,
          "time": 13.000000000000014,
          "velocity": 0.7480314960629921,
          "duration": 0.2500000000000018
        },
        {
          "name": "E5",
          "midi": 76,
          "time": 13.197916666666682,
          "velocity": 0.8267716535433071,
          "duration": 0.24479166666666963
        },
        {
          "name": "G4",
          "midi": 67,
          "time": 13.22395833333335,
          "velocity": 0.8110236220472441,
          "duration": 0.4635416666666714
        },
        {
          "name": "C3",
          "midi": 48,
          "time": 13.401041666666684,
          "velocity": 0.5039370078740157,
          "duration": 0.04166666666666785
        },
        {
          "name": "D5",
          "midi": 74,
          "time": 13.437500000000018,
          "velocity": 0.7244094488188977,
          "duration": 0.0677083333333357
        },
        {
          "name": "G4",
          "midi": 67,
          "time": 13.479166666666686,
          "velocity": 1,
          "duration": 0.4010416666666714
        },
        {
          "name": "E4",
          "midi": 64,
          "time": 13.479166666666686,
          "velocity": 1,
          "duration": 0.21354166666666963
        },
        {
          "name": "E4",
          "midi": 64,
          "time": 13.48437500000002,
          "velocity": 0.8267716535433071,
          "duration": 0.39062500000000355
        },
        {
          "name": "C4",
          "midi": 60,
          "time": 13.48437500000002,
          "velocity": 1,
          "duration": 0.2239583333333357
        },
        {
          "name": "G3",
          "midi": 55,
          "time": 13.48437500000002,
          "velocity": 0.8582677165354331,
          "duration": 0.2239583333333357
        },
        {
          "name": "E5",
          "midi": 76,
          "time": 13.505208333333353,
          "velocity": 0.8818897637795275,
          "duration": 0.06770833333333393
        },
        {
          "name": "D5",
          "midi": 74,
          "time": 13.567708333333353,
          "velocity": 0.8503937007874016,
          "duration": 0.13541666666666785
        },
        {
          "name": "C5",
          "midi": 72,
          "time": 13.708333333333355,
          "velocity": 0.8976377952755905,
          "duration": 0.19791666666666785
        },
        {
          "name": "C4",
          "midi": 60,
          "time": 13.72916666666669,
          "velocity": 0.8503937007874016,
          "duration": 0.140625
        },
        {
          "name": "G5",
          "midi": 79,
          "time": 13.99479166666669,
          "velocity": 0.7795275590551181,
          "duration": 0.7343750000000018
        },
        {
          "name": "G4",
          "midi": 67,
          "time": 13.99479166666669,
          "velocity": 0.7795275590551181,
          "duration": 0.7343750000000018
        },
        {
          "name": "B5",
          "midi": 83,
          "time": 14.000000000000023,
          "velocity": 0.8976377952755905,
          "duration": 0.8125000000000018
        },
        {
          "name": "D6",
          "midi": 86,
          "time": 14.000000000000023,
          "velocity": 0.8818897637795275,
          "duration": 0.8229166666666679
        },
        {
          "name": "C7",
          "midi": 96,
          "time": 14.000000000000023,
          "velocity": 0.33858267716535434,
          "duration": 0.9583333333333339
        },
        {
          "name": "B4",
          "midi": 71,
          "time": 14.000000000000023,
          "velocity": 0.8976377952755905,
          "duration": 0.8125000000000018
        },
        {
          "name": "D5",
          "midi": 74,
          "time": 14.000000000000023,
          "velocity": 0.8818897637795275,
          "duration": 0.8229166666666679
        },
        {
          "name": "C6",
          "midi": 84,
          "time": 14.000000000000023,
          "velocity": 0.33858267716535434,
          "duration": 0.9583333333333339
        },
        {
          "name": "G4",
          "midi": 67,
          "time": 14.005208333333357,
          "velocity": 0.7480314960629921,
          "duration": 0.9583333333333339
        },
        {
          "name": "B4",
          "midi": 71,
          "time": 14.010416666666691,
          "velocity": 0.7007874015748031,
          "duration": 0.9322916666666661
        },
        {
          "name": "D4",
          "midi": 62,
          "time": 14.015625000000025,
          "velocity": 0.7480314960629921,
          "duration": 0.9374999999999982
        },
        {
          "name": "F#5",
          "midi": 78,
          "time": 14.984375000000025,
          "velocity": 0.7086614173228346,
          "duration": 0.7708333333333357
        },
        {
          "name": "F#4",
          "midi": 66,
          "time": 14.984375000000025,
          "velocity": 0.7086614173228346,
          "duration": 0.2656250000000018
        },
        {
          "name": "F#5",
          "midi": 78,
          "time": 14.989583333333359,
          "velocity": 0.6771653543307087,
          "duration": 0.9322916666666679
        },
        {
          "name": "F#4",
          "midi": 66,
          "time": 14.989583333333359,
          "velocity": 0.6771653543307087,
          "duration": 0.7656250000000018
        },
        {
          "name": "B5",
          "midi": 83,
          "time": 14.994791666666693,
          "velocity": 0.7559055118110236,
          "duration": 0.7031250000000018
        },
        {
          "name": "B5",
          "midi": 83,
          "time": 14.994791666666693,
          "velocity": 0.905511811023622,
          "duration": 0.9270833333333339
        },
        {
          "name": "B4",
          "midi": 71,
          "time": 14.994791666666693,
          "velocity": 0.7559055118110236,
          "duration": 0.7031250000000018
        },
        {
          "name": "B4",
          "midi": 71,
          "time": 14.994791666666693,
          "velocity": 0.905511811023622,
          "duration": 0.9270833333333339
        },
        {
          "name": "D6",
          "midi": 86,
          "time": 15.000000000000027,
          "velocity": 0.8110236220472441,
          "duration": 0.6927083333333339
        },
        {
          "name": "D6",
          "midi": 86,
          "time": 15.000000000000027,
          "velocity": 0.8976377952755905,
          "duration": 0.9166666666666661
        },
        {
          "name": "D5",
          "midi": 74,
          "time": 15.000000000000027,
          "velocity": 0.8110236220472441,
          "duration": 0.6927083333333339
        },
        {
          "name": "D5",
          "midi": 74,
          "time": 15.000000000000027,
          "velocity": 0.8976377952755905,
          "duration": 0.9166666666666661
        },
        {
          "name": "F#3",
          "midi": 54,
          "time": 15.010416666666693,
          "velocity": 0.8267716535433071,
          "duration": 0.84375
        },
        {
          "name": "D4",
          "midi": 62,
          "time": 15.010416666666693,
          "velocity": 0.8582677165354331,
          "duration": 0.2552083333333339
        },
        {
          "name": "B3",
          "midi": 59,
          "time": 15.015625000000027,
          "velocity": 0.6535433070866141,
          "duration": 0.24479166666666607
        },
        {
          "name": "A4",
          "midi": 69,
          "time": 15.015625000000027,
          "velocity": 0.7007874015748031,
          "duration": 0.2552083333333339
        },
        {
          "name": "F#4",
          "midi": 66,
          "time": 15.02083333333336,
          "velocity": 0.7716535433070866,
          "duration": 0.8125
        },
        {
          "name": "A3",
          "midi": 57,
          "time": 15.281250000000027,
          "velocity": 0.6377952755905512,
          "duration": 0.5729166666666661
        },
        {
          "name": "A4",
          "midi": 69,
          "time": 15.50520833333336,
          "velocity": 0.7244094488188977,
          "duration": 0.3385416666666661
        },
        {
          "name": "B3",
          "midi": 59,
          "time": 15.510416666666694,
          "velocity": 0.5748031496062992,
          "duration": 0.3437499999999982
        },
        {
          "name": "D4",
          "midi": 62,
          "time": 15.52083333333336,
          "velocity": 0.8582677165354331,
          "duration": 0.3229166666666661
        },
        {
          "name": "F#4",
          "midi": 66,
          "time": 15.52083333333336,
          "velocity": 0.7716535433070866,
          "duration": 0.4010416666666661
        },
        {
          "name": "E5",
          "midi": 76,
          "time": 15.994791666666694,
          "velocity": 0.8110236220472441,
          "duration": 0.7239583333333304
        },
        {
          "name": "E4",
          "midi": 64,
          "time": 15.994791666666694,
          "velocity": 0.8110236220472441,
          "duration": 0.7291666666666625
        },
        {
          "name": "G5",
          "midi": 79,
          "time": 16.00000000000003,
          "velocity": 0.7952755905511811,
          "duration": 0.7447916666666607
        },
        {
          "name": "G4",
          "midi": 67,
          "time": 16.00000000000003,
          "velocity": 0.7952755905511811,
          "duration": 0.7447916666666607
        },
        {
          "name": "E2",
          "midi": 40,
          "time": 16.00000000000003,
          "velocity": 0.4251968503937008,
          "duration": 0.9322916666666607
        },
        {
          "name": "E2",
          "midi": 40,
          "time": 16.00000000000003,
          "velocity": 0.6614173228346457,
          "duration": 0.9322916666666607
        },
        {
          "name": "B5",
          "midi": 83,
          "time": 16.00520833333336,
          "velocity": 0.7716535433070866,
          "duration": 0.7656249999999964
        },
        {
          "name": "B4",
          "midi": 71,
          "time": 16.00520833333336,
          "velocity": 0.7716535433070866,
          "duration": 0.7656249999999964
        },
        {
          "name": "G3",
          "midi": 55,
          "time": 16.36458333333336,
          "velocity": 0.6614173228346457,
          "duration": 0.15624999999999645
        },
        {
          "name": "E4",
          "midi": 64,
          "time": 16.494791666666693,
          "velocity": 0.6850393700787402,
          "duration": 0.2916666666666643
        },
        {
          "name": "G4",
          "midi": 67,
          "time": 16.500000000000025,
          "velocity": 0.7244094488188977,
          "duration": 0.28125
        },
        {
          "name": "G3",
          "midi": 55,
          "time": 16.770833333333357,
          "velocity": 0.4566929133858268,
          "duration": 0.078125
        },
        {
          "name": "F#5",
          "midi": 78,
          "time": 16.973958333333357,
          "velocity": 0.7086614173228346,
          "duration": 0.7031249999999964
        },
        {
          "name": "F#4",
          "midi": 66,
          "time": 16.973958333333357,
          "velocity": 0.7086614173228346,
          "duration": 0.2760416666666643
        },
        {
          "name": "B5",
          "midi": 83,
          "time": 16.97916666666669,
          "velocity": 0.7401574803149606,
          "duration": 0.7135416666666643
        },
        {
          "name": "B4",
          "midi": 71,
          "time": 16.97916666666669,
          "velocity": 0.7401574803149606,
          "duration": 0.7135416666666643
        },
        {
          "name": "D6",
          "midi": 86,
          "time": 16.98437500000002,
          "velocity": 0.7716535433070866,
          "duration": 0.71875
        },
        {
          "name": "D5",
          "midi": 74,
          "time": 16.98437500000002,
          "velocity": 0.7716535433070866,
          "duration": 0.71875
        },
        {
          "name": "F#3",
          "midi": 54,
          "time": 17.01041666666669,
          "velocity": 0.8267716535433071,
          "duration": 0.84375
        },
        {
          "name": "D4",
          "midi": 62,
          "time": 17.01041666666669,
          "velocity": 0.8582677165354331,
          "duration": 0.25520833333333215
        },
        {
          "name": "B3",
          "midi": 59,
          "time": 17.01562500000002,
          "velocity": 0.6535433070866141,
          "duration": 0.24479166666666785
        },
        {
          "name": "A4",
          "midi": 69,
          "time": 17.01562500000002,
          "velocity": 0.7007874015748031,
          "duration": 0.25520833333333215
        },
        {
          "name": "F#4",
          "midi": 66,
          "time": 17.020833333333353,
          "velocity": 0.7716535433070866,
          "duration": 0.65625
        },
        {
          "name": "A3",
          "midi": 57,
          "time": 17.28125000000002,
          "velocity": 0.6377952755905512,
          "duration": 0.5729166666666679
        },
        {
          "name": "A4",
          "midi": 69,
          "time": 17.505208333333353,
          "velocity": 0.7244094488188977,
          "duration": 0.33854166666666785
        },
        {
          "name": "B3",
          "midi": 59,
          "time": 17.510416666666686,
          "velocity": 0.5748031496062992,
          "duration": 0.34375000000000355
        },
        {
          "name": "D4",
          "midi": 62,
          "time": 17.520833333333353,
          "velocity": 0.8582677165354331,
          "duration": 0.32291666666666785
        },
        {
          "name": "F#4",
          "midi": 66,
          "time": 17.520833333333353,
          "velocity": 0.7716535433070866,
          "duration": 0.3125
        },
        {
          "name": "G4",
          "midi": 67,
          "time": 18.000000000000025,
          "velocity": 0.7244094488188977,
          "duration": 0.7031249999999964
        },
        {
          "name": "G4",
          "midi": 67,
          "time": 18.000000000000025,
          "velocity": 0.7244094488188977,
          "duration": 1.0416666666666679
        },
        {
          "name": "G2",
          "midi": 43,
          "time": 18.000000000000025,
          "velocity": 0.2992125984251969,
          "duration": 0.6406249999999964
        },
        {
          "name": "D4",
          "midi": 62,
          "time": 18.000000000000025,
          "velocity": 0.5905511811023622,
          "duration": 0.7291666666666643
        },
        {
          "name": "B4",
          "midi": 71,
          "time": 18.000000000000025,
          "velocity": 0.6377952755905512,
          "duration": 0.7447916666666643
        },
        {
          "name": "G2",
          "midi": 43,
          "time": 18.000000000000025,
          "velocity": 0.4566929133858268,
          "duration": 0.6406249999999964
        },
        {
          "name": "G4",
          "midi": 67,
          "time": 18.000000000000025,
          "velocity": 0.7244094488188977,
          "duration": 1.0416666666666679
        },
        {
          "name": "B3",
          "midi": 59,
          "time": 18.000000000000025,
          "velocity": 0.5433070866141733,
          "duration": 0.765625
        },
        {
          "name": "B4",
          "midi": 71,
          "time": 18.005208333333357,
          "velocity": 0.8740157480314961,
          "duration": 1.0468750000000036
        },
        {
          "name": "B4",
          "midi": 71,
          "time": 18.005208333333357,
          "velocity": 0.8740157480314961,
          "duration": 1.0468750000000036
        },
        {
          "name": "D5",
          "midi": 74,
          "time": 18.01041666666669,
          "velocity": 0.8818897637795275,
          "duration": 1.0520833333333393
        },
        {
          "name": "D5",
          "midi": 74,
          "time": 18.01041666666669,
          "velocity": 0.8818897637795275,
          "duration": 1.0520833333333393
        },
        {
          "name": "G2",
          "midi": 43,
          "time": 18.755208333333357,
          "velocity": 0.6850393700787402,
          "duration": 0.39062500000000355
        },
        {
          "name": "B4",
          "midi": 71,
          "time": 18.989583333333357,
          "velocity": 0.7480314960629921,
          "duration": 0.2447916666666714
        },
        {
          "name": "B3",
          "midi": 59,
          "time": 18.989583333333357,
          "velocity": 0.6535433070866141,
          "duration": 0.2604166666666714
        },
        {
          "name": "D4",
          "midi": 62,
          "time": 19.000000000000025,
          "velocity": 0.8582677165354331,
          "duration": 0.2447916666666714
        },
        {
          "name": "G4",
          "midi": 67,
          "time": 19.000000000000025,
          "velocity": 0.7480314960629921,
          "duration": 0.23437500000000355
        },
        {
          "name": "G2",
          "midi": 43,
          "time": 19.401041666666696,
          "velocity": 0.5039370078740157,
          "duration": 0.04166666666666785
        },
        {
          "name": "B4",
          "midi": 71,
          "time": 19.479166666666696,
          "velocity": 1,
          "duration": 0.20833333333333215
        },
        {
          "name": "G4",
          "midi": 67,
          "time": 19.479166666666696,
          "velocity": 1,
          "duration": 0.2135416666666643
        },
        {
          "name": "D4",
          "midi": 62,
          "time": 19.48437500000003,
          "velocity": 1,
          "duration": 0.22395833333333215
        },
        {
          "name": "B3",
          "midi": 59,
          "time": 19.48437500000003,
          "velocity": 0.8582677165354331,
          "duration": 0.22395833333333215
        },
        {
          "name": "D5",
          "midi": 74,
          "time": 20.02083333333336,
          "velocity": 0.5984251968503937,
          "duration": 0.8958333333333321
        },
        {
          "name": "A4",
          "midi": 69,
          "time": 20.02083333333336,
          "velocity": 0.7637795275590551,
          "duration": 0.875
        },
        {
          "name": "F#3",
          "midi": 54,
          "time": 20.02083333333336,
          "velocity": 0.5748031496062992,
          "duration": 1.75
        },
        {
          "name": "F#4",
          "midi": 66,
          "time": 20.026041666666693,
          "velocity": 0.5433070866141733,
          "duration": 0.8125
        },
        {
          "name": "B3",
          "midi": 59,
          "time": 20.026041666666693,
          "velocity": 0.4566929133858268,
          "duration": 0.5677083333333321
        },
        {
          "name": "B3",
          "midi": 59,
          "time": 20.750000000000025,
          "velocity": 0.7480314960629921,
          "duration": 1.0052083333333357
        },
        {
          "name": "F#4",
          "midi": 66,
          "time": 21.244791666666693,
          "velocity": 0.5039370078740157,
          "duration": 0.46354166666666785
        },
        {
          "name": "D5",
          "midi": 74,
          "time": 21.479166666666693,
          "velocity": 1,
          "duration": 0.21875
        },
        {
          "name": "A4",
          "midi": 69,
          "time": 21.484375000000025,
          "velocity": 0.7401574803149606,
          "duration": 0.2239583333333357
        },
        {
          "name": "E5",
          "midi": 76,
          "time": 22.00000000000003,
          "velocity": 0.7086614173228346,
          "duration": 0.5104166666666679
        },
        {
          "name": "E3",
          "midi": 52,
          "time": 22.00520833333336,
          "velocity": 0.7716535433070866,
          "duration": 1.9270833333333357
        },
        {
          "name": "B4",
          "midi": 71,
          "time": 22.010416666666693,
          "velocity": 0.7401574803149606,
          "duration": 0.4583333333333357
        },
        {
          "name": "G4",
          "midi": 67,
          "time": 22.010416666666693,
          "velocity": 0.6535433070866141,
          "duration": 0.43229166666666785
        },
        {
          "name": "E4",
          "midi": 64,
          "time": 22.27083333333336,
          "velocity": 0.4094488188976378,
          "duration": 2.0260416666666714
        },
        {
          "name": "G4",
          "midi": 67,
          "time": 22.526041666666696,
          "velocity": 0.7401574803149606,
          "duration": 0.19791666666666785
        },
        {
          "name": "E5",
          "midi": 76,
          "time": 22.59375000000003,
          "velocity": 0.11811023622047244,
          "duration": 0.07291666666666785
        },
        {
          "name": "E5",
          "midi": 76,
          "time": 22.760416666666696,
          "velocity": 0.7086614173228346,
          "duration": 0.46875
        },
        {
          "name": "G4",
          "midi": 67,
          "time": 22.760416666666696,
          "velocity": 0.4566929133858268,
          "duration": 0.5208333333333321
        },
        {
          "name": "B4",
          "midi": 71,
          "time": 22.770833333333364,
          "velocity": 0.8582677165354331,
          "duration": 0.4947916666666643
        },
        {
          "name": "B3",
          "midi": 59,
          "time": 23.52083333333336,
          "velocity": 0.7637795275590551,
          "duration": 0.48437500000000355
        },
        {
          "name": "E5",
          "midi": 76,
          "time": 23.84375000000003,
          "velocity": 0.3464566929133858,
          "duration": 0.3177083333333357
        },
        {
          "name": "B4",
          "midi": 71,
          "time": 23.93750000000003,
          "velocity": 0.7401574803149606,
          "duration": 0.3177083333333357
        },
        {
          "name": "E3",
          "midi": 52,
          "time": 23.994791666666696,
          "velocity": 0.7874015748031497,
          "duration": 1.546875
        },
        {
          "name": "G4",
          "midi": 67,
          "time": 24.010416666666696,
          "velocity": 0.9763779527559056,
          "duration": 0.3489583333333357
        },
        {
          "name": "B3",
          "midi": 59,
          "time": 24.255208333333364,
          "velocity": 0.7716535433070866,
          "duration": 0.5052083333333321
        },
        {
          "name": "E4",
          "midi": 64,
          "time": 24.505208333333364,
          "velocity": 0.5433070866141733,
          "duration": 0.08854166666666785
        },
        {
          "name": "G4",
          "midi": 67,
          "time": 24.750000000000032,
          "velocity": 0.7716535433070866,
          "duration": 0.4635416666666643
        },
        {
          "name": "E4",
          "midi": 64,
          "time": 24.755208333333364,
          "velocity": 0.7244094488188977,
          "duration": 0.453125
        },
        {
          "name": "B3",
          "midi": 59,
          "time": 25.255208333333364,
          "velocity": 0.8582677165354331,
          "duration": 0.28645833333333215
        },
        {
          "name": "G4",
          "midi": 67,
          "time": 25.505208333333364,
          "velocity": 0.905511811023622,
          "duration": 0.23437499999999645
        },
        {
          "name": "B4",
          "midi": 71,
          "time": 25.505208333333364,
          "velocity": 0.9763779527559056,
          "duration": 0.2395833333333286
        },
        {
          "name": "E4",
          "midi": 64,
          "time": 25.510416666666696,
          "velocity": 0.7480314960629921,
          "duration": 0.2291666666666643
        },
        {
          "name": "A3",
          "midi": 57,
          "time": 26.000000000000025,
          "velocity": 0.7480314960629921,
          "duration": 0.37499999999999645
        },
        {
          "name": "F4",
          "midi": 65,
          "time": 26.005208333333357,
          "velocity": 0.8818897637795275,
          "duration": 0.4010416666666643
        },
        {
          "name": "F2",
          "midi": 41,
          "time": 26.01041666666669,
          "velocity": 0.5039370078740157,
          "duration": 0.17708333333333215
        },
        {
          "name": "C4",
          "midi": 60,
          "time": 26.01562500000002,
          "velocity": 0.8582677165354331,
          "duration": 0.41666666666666785
        },
        {
          "name": "A4",
          "midi": 69,
          "time": 26.01562500000002,
          "velocity": 0.7401574803149606,
          "duration": 0.40625
        },
        {
          "name": "F2",
          "midi": 41,
          "time": 26.255208333333353,
          "velocity": 0.5905511811023622,
          "duration": 0.6562500000000036
        },
        {
          "name": "A3",
          "midi": 57,
          "time": 26.51041666666669,
          "velocity": 0.7244094488188977,
          "duration": 0.7604166666666679
        },
        {
          "name": "F4",
          "midi": 65,
          "time": 26.73437500000002,
          "velocity": 0.7480314960629921,
          "duration": 0.5572916666666679
        },
        {
          "name": "C4",
          "midi": 60,
          "time": 26.74479166666669,
          "velocity": 0.6771653543307087,
          "duration": 0.5677083333333321
        },
        {
          "name": "A4",
          "midi": 69,
          "time": 26.755208333333357,
          "velocity": 0.7086614173228346,
          "duration": 0.5572916666666643
        },
        {
          "name": "F2",
          "midi": 41,
          "time": 27.24479166666669,
          "velocity": 1,
          "duration": 0.6041666666666679
        },
        {
          "name": "A3",
          "midi": 57,
          "time": 27.36979166666669,
          "velocity": 0.9763779527559056,
          "duration": 0.5104166666666679
        },
        {
          "name": "C4",
          "midi": 60,
          "time": 27.50000000000002,
          "velocity": 0.7637795275590551,
          "duration": 0.3802083333333357
        },
        {
          "name": "F4",
          "midi": 65,
          "time": 27.62500000000002,
          "velocity": 0.8818897637795275,
          "duration": 0.22916666666666785
        },
        {
          "name": "A4",
          "midi": 69,
          "time": 27.76041666666669,
          "velocity": 1,
          "duration": 0.11979166666666785
        },
        {
          "name": "C4",
          "midi": 60,
          "time": 28.000000000000025,
          "velocity": 0.48031496062992124,
          "duration": 0.16145833333333215
        },
        {
          "name": "G4",
          "midi": 67,
          "time": 28.000000000000025,
          "velocity": 0.7716535433070866,
          "duration": 0.31770833333333215
        },
        {
          "name": "E4",
          "midi": 64,
          "time": 28.000000000000025,
          "velocity": 0.5905511811023622,
          "duration": 0.28645833333333215
        },
        {
          "name": "C5",
          "midi": 72,
          "time": 28.000000000000025,
          "velocity": 0.7244094488188977,
          "duration": 0.328125
        },
        {
          "name": "E3",
          "midi": 52,
          "time": 28.005208333333357,
          "velocity": 0.6535433070866141,
          "duration": 1.6145833333333357
        },
        {
          "name": "C3",
          "midi": 48,
          "time": 28.020833333333357,
          "velocity": 0.6299212598425197,
          "duration": 1.75
        },
        {
          "name": "C4",
          "midi": 60,
          "time": 28.255208333333357,
          "velocity": 0.3228346456692913,
          "duration": 0.5989583333333321
        },
        {
          "name": "E4",
          "midi": 64,
          "time": 28.500000000000025,
          "velocity": 0.5905511811023622,
          "duration": 0.20833333333333215
        },
        {
          "name": "G4",
          "midi": 67,
          "time": 28.770833333333357,
          "velocity": 0.31496062992125984,
          "duration": 0.08333333333333215
        },
        {
          "name": "C5",
          "midi": 72,
          "time": 28.989583333333357,
          "velocity": 0.6771653543307087,
          "duration": 0.07291666666666785
        },
        {
          "name": "E5",
          "midi": 76,
          "time": 29.260416666666693,
          "velocity": 0.7480314960629921,
          "duration": 0.22395833333333215
        },
        {
          "name": "C4",
          "midi": 60,
          "time": 29.437500000000025,
          "velocity": 0.5511811023622047,
          "duration": 0.1302083333333357
        },
        {
          "name": "G5",
          "midi": 79,
          "time": 29.494791666666693,
          "velocity": 1,
          "duration": 0.0989583333333357
        },
        {
          "name": "E5",
          "midi": 76,
          "time": 29.61458333333336,
          "velocity": 0.8818897637795275,
          "duration": 0.11458333333333215
        },
        {
          "name": "C5",
          "midi": 72,
          "time": 29.750000000000025,
          "velocity": 0.7244094488188977,
          "duration": 0.09895833333333215
        },
        {
          "name": "G4",
          "midi": 67,
          "time": 29.895833333333357,
          "velocity": 0.44881889763779526,
          "duration": 0.02604166666666785
        },
        {
          "name": "G2",
          "midi": 43,
          "time": 30.000000000000025,
          "velocity": 0.6614173228346457,
          "duration": 0.9322916666666643
        },
        {
          "name": "B3",
          "midi": 59,
          "time": 30.364583333333357,
          "velocity": 0.6614173228346457,
          "duration": 0.15625
        },
        {
          "name": "G4",
          "midi": 67,
          "time": 30.49479166666669,
          "velocity": 0.6850393700787402,
          "duration": 0.29166666666666785
        },
        {
          "name": "B4",
          "midi": 71,
          "time": 30.50000000000002,
          "velocity": 0.7244094488188977,
          "duration": 0.28125000000000355
        },
        {
          "name": "D4",
          "midi": 62,
          "time": 30.51041666666669,
          "velocity": 0.5748031496062992,
          "duration": 0.21875
        },
        {
          "name": "B3",
          "midi": 59,
          "time": 30.770833333333357,
          "velocity": 0.4566929133858268,
          "duration": 0.078125
        },
        {
          "name": "D2",
          "midi": 38,
          "time": 31.00000000000002,
          "velocity": 0.5196850393700787,
          "duration": 0.9583333333333321
        },
        {
          "name": "D3",
          "midi": 50,
          "time": 31.005208333333353,
          "velocity": 0.5748031496062992,
          "duration": 0.953125
        },
        {
          "name": "D4",
          "midi": 62,
          "time": 31.005208333333353,
          "velocity": 0.7480314960629921,
          "duration": 0.9583333333333321
        },
        {
          "name": "F#4",
          "midi": 66,
          "time": 31.010416666666686,
          "velocity": 0.7007874015748031,
          "duration": 0.9322916666666679
        },
        {
          "name": "A3",
          "midi": 57,
          "time": 31.015625000000018,
          "velocity": 0.7480314960629921,
          "duration": 0.9375000000000036
        },
        {
          "name": "E3",
          "midi": 52,
          "time": 32.00000000000002,
          "velocity": 0.5905511811023622,
          "duration": 0.1875
        },
        {
          "name": "E4",
          "midi": 64,
          "time": 32.00000000000002,
          "velocity": 0.8582677165354331,
          "duration": 0.4062500000000071
        },
        {
          "name": "B3",
          "midi": 59,
          "time": 32.00000000000002,
          "velocity": 0.7086614173228346,
          "duration": 0.3854166666666714
        },
        {
          "name": "E2",
          "midi": 40,
          "time": 32.00000000000002,
          "velocity": 0.5905511811023622,
          "duration": 0.7447916666666785
        },
        {
          "name": "G4",
          "midi": 67,
          "time": 32.00000000000002,
          "velocity": 0.6850393700787402,
          "duration": 0.4062500000000071
        },
        {
          "name": "E3",
          "midi": 52,
          "time": 32.27083333333336,
          "velocity": 0.7637795275590551,
          "duration": 0.4947916666666785
        },
        {
          "name": "B3",
          "midi": 59,
          "time": 32.505208333333364,
          "velocity": 1,
          "duration": 0.3802083333333428
        },
        {
          "name": "E4",
          "midi": 64,
          "time": 32.750000000000036,
          "velocity": 0.9291338582677166,
          "duration": 0.1510416666666714
        },
        {
          "name": "G4",
          "midi": 67,
          "time": 32.750000000000036,
          "velocity": 0.8267716535433071,
          "duration": 0.1458333333333357
        },
        {
          "name": "D2",
          "midi": 38,
          "time": 33.00000000000004,
          "velocity": 0.5196850393700787,
          "duration": 0.9583333333333357
        },
        {
          "name": "D3",
          "midi": 50,
          "time": 33.00520833333338,
          "velocity": 0.5748031496062992,
          "duration": 0.953125
        },
        {
          "name": "D4",
          "midi": 62,
          "time": 33.00520833333338,
          "velocity": 0.7480314960629921,
          "duration": 0.9583333333333357
        },
        {
          "name": "F#4",
          "midi": 66,
          "time": 33.010416666666714,
          "velocity": 0.7007874015748031,
          "duration": 0.9322916666666643
        },
        {
          "name": "A3",
          "midi": 57,
          "time": 33.01562500000005,
          "velocity": 0.7480314960629921,
          "duration": 0.9374999999999929
        },
        {
          "name": "B3",
          "midi": 59,
          "time": 33.01562500000005,
          "velocity": 0.7480314960629921,
          "duration": 0.9479166666666643
        },
        {
          "name": "D4",
          "midi": 62,
          "time": 34.00000000000005,
          "velocity": 0.5905511811023622,
          "duration": 0.7291666666666643
        },
        {
          "name": "B4",
          "midi": 71,
          "time": 34.00000000000005,
          "velocity": 0.6377952755905512,
          "duration": 0.7447916666666643
        },
        {
          "name": "G2",
          "midi": 43,
          "time": 34.00000000000005,
          "velocity": 0.4566929133858268,
          "duration": 0.640625
        },
        {
          "name": "G4",
          "midi": 67,
          "time": 34.00000000000005,
          "velocity": 0.7244094488188977,
          "duration": 0.703125
        },
        {
          "name": "B3",
          "midi": 59,
          "time": 34.00000000000005,
          "velocity": 0.5433070866141733,
          "duration": 0.7656249999999929
        },
        {
          "name": "G2",
          "midi": 43,
          "time": 34.75520833333338,
          "velocity": 0.6850393700787402,
          "duration": 0.390625
        },
        {
          "name": "B4",
          "midi": 71,
          "time": 34.98958333333338,
          "velocity": 0.7480314960629921,
          "duration": 0.2447916666666643
        },
        {
          "name": "B3",
          "midi": 59,
          "time": 34.98958333333338,
          "velocity": 0.6535433070866141,
          "duration": 0.2604166666666643
        },
        {
          "name": "D4",
          "midi": 62,
          "time": 35.00000000000004,
          "velocity": 0.8582677165354331,
          "duration": 0.2447916666666643
        },
        {
          "name": "G4",
          "midi": 67,
          "time": 35.00000000000004,
          "velocity": 0.7480314960629921,
          "duration": 0.234375
        },
        {
          "name": "G2",
          "midi": 43,
          "time": 35.40104166666671,
          "velocity": 0.5039370078740157,
          "duration": 0.0416666666666643
        },
        {
          "name": "B4",
          "midi": 71,
          "time": 35.47916666666671,
          "velocity": 1,
          "duration": 0.2083333333333357
        },
        {
          "name": "G4",
          "midi": 67,
          "time": 35.47916666666671,
          "velocity": 1,
          "duration": 0.2135416666666714
        },
        {
          "name": "D4",
          "midi": 62,
          "time": 35.48437500000004,
          "velocity": 1,
          "duration": 0.2239583333333357
        },
        {
          "name": "B3",
          "midi": 59,
          "time": 35.48437500000004,
          "velocity": 0.8582677165354331,
          "duration": 0.2239583333333357
        },
        {
          "name": "A3",
          "midi": 57,
          "time": 36.00000000000004,
          "velocity": 0.7480314960629921,
          "duration": 0.3750000000000071
        },
        {
          "name": "D4",
          "midi": 62,
          "time": 36.00520833333338,
          "velocity": 0.8818897637795275,
          "duration": 0.4010416666666714
        },
        {
          "name": "F#2",
          "midi": 42,
          "time": 36.010416666666714,
          "velocity": 0.5039370078740157,
          "duration": 1.8385416666666643
        },
        {
          "name": "F#3",
          "midi": 54,
          "time": 36.010416666666714,
          "velocity": 0.6535433070866141,
          "duration": 0.1770833333333357
        },
        {
          "name": "B3",
          "midi": 59,
          "time": 36.01562500000005,
          "velocity": 0.8582677165354331,
          "duration": 0.4166666666666643
        },
        {
          "name": "F#4",
          "midi": 66,
          "time": 36.01562500000005,
          "velocity": 0.7401574803149606,
          "duration": 0.40625
        },
        {
          "name": "F#3",
          "midi": 54,
          "time": 36.255208333333385,
          "velocity": 0.5905511811023622,
          "duration": 0.6562499999999929
        },
        {
          "name": "A3",
          "midi": 57,
          "time": 36.510416666666714,
          "velocity": 0.7244094488188977,
          "duration": 0.7604166666666643
        },
        {
          "name": "D4",
          "midi": 62,
          "time": 36.73437500000005,
          "velocity": 0.7480314960629921,
          "duration": 0.5572916666666643
        },
        {
          "name": "B3",
          "midi": 59,
          "time": 36.744791666666714,
          "velocity": 0.6771653543307087,
          "duration": 0.5677083333333357
        },
        {
          "name": "F#4",
          "midi": 66,
          "time": 36.75520833333338,
          "velocity": 0.7086614173228346,
          "duration": 0.5572916666666714
        },
        {
          "name": "F#3",
          "midi": 54,
          "time": 37.244791666666714,
          "velocity": 1,
          "duration": 0.6145833333333357
        },
        {
          "name": "A3",
          "midi": 57,
          "time": 37.369791666666714,
          "velocity": 0.9763779527559056,
          "duration": 0.5104166666666714
        },
        {
          "name": "B3",
          "midi": 59,
          "time": 37.50000000000005,
          "velocity": 0.7637795275590551,
          "duration": 0.3802083333333357
        },
        {
          "name": "D4",
          "midi": 62,
          "time": 37.62500000000005,
          "velocity": 0.8818897637795275,
          "duration": 0.2291666666666643
        },
        {
          "name": "F#4",
          "midi": 66,
          "time": 37.760416666666714,
          "velocity": 1,
          "duration": 0.1197916666666714
        },
        {
          "name": "B4",
          "midi": 71,
          "time": 38.01041666666672,
          "velocity": 0.5905511811023622,
          "duration": 0.2968750000000071
        },
        {
          "name": "E3",
          "midi": 52,
          "time": 38.01041666666672,
          "velocity": 0.44881889763779526,
          "duration": 1.5260416666666714
        },
        {
          "name": "E4",
          "midi": 64,
          "time": 38.01562500000006,
          "velocity": 0.7086614173228346,
          "duration": 0.2916666666666714
        },
        {
          "name": "E2",
          "midi": 40,
          "time": 38.01562500000006,
          "velocity": 0.5196850393700787,
          "duration": 3.781250000000007
        },
        {
          "name": "G4",
          "midi": 67,
          "time": 38.02083333333339,
          "velocity": 0.7716535433070866,
          "duration": 0.2708333333333357
        },
        {
          "name": "B5",
          "midi": 83,
          "time": 38.88541666666673,
          "velocity": 0.6299212598425197,
          "duration": 0.1927083333333286
        },
        {
          "name": "G5",
          "midi": 79,
          "time": 38.93229166666673,
          "velocity": 0.6377952755905512,
          "duration": 0.1874999999999929
        },
        {
          "name": "E5",
          "midi": 76,
          "time": 38.95833333333339,
          "velocity": 0.7952755905511811,
          "duration": 0.1979166666666643
        },
        {
          "name": "B4",
          "midi": 71,
          "time": 39.81250000000006,
          "velocity": 0.33858267716535434,
          "duration": 0.5677083333333357
        },
        {
          "name": "G4",
          "midi": 67,
          "time": 39.84375000000006,
          "velocity": 0.5669291338582677,
          "duration": 0.5520833333333357
        },
        {
          "name": "E4",
          "midi": 64,
          "time": 39.91145833333339,
          "velocity": 0.6377952755905512,
          "duration": 0.5
        },
        {
          "name": "E3",
          "midi": 52,
          "time": 40.00520833333339,
          "velocity": 0.5039370078740157,
          "duration": 0.453125
        },
        {
          "name": "E3",
          "midi": 52,
          "time": 40.75520833333339,
          "velocity": 0.8267716535433071,
          "duration": 0.4166666666666714
        },
        {
          "name": "B3",
          "midi": 59,
          "time": 41.00000000000006,
          "velocity": 0.7480314960629921,
          "duration": 0.3281250000000071
        },
        {
          "name": "E4",
          "midi": 64,
          "time": 41.00520833333339,
          "velocity": 0.7716535433070866,
          "duration": 0.5052083333333428
        },
        {
          "name": "G4",
          "midi": 67,
          "time": 41.01041666666673,
          "velocity": 0.7480314960629921,
          "duration": 0.4947916666666714
        },
        {
          "name": "E3",
          "midi": 52,
          "time": 41.250000000000064,
          "velocity": 1,
          "duration": 0.5625
        },
        {
          "name": "B3",
          "midi": 59,
          "time": 41.510416666666735,
          "velocity": 1,
          "duration": 0.3020833333333286
        },
        {
          "name": "E4",
          "midi": 64,
          "time": 41.7708333333334,
          "velocity": 0.7716535433070866,
          "duration": 0.062499999999992895
        },
        {
          "name": "C4",
          "midi": 60,
          "time": 42.00000000000006,
          "velocity": 0.5905511811023622,
          "duration": 0.7291666666666643
        },
        {
          "name": "A4",
          "midi": 69,
          "time": 42.00000000000006,
          "velocity": 0.6377952755905512,
          "duration": 0.7447916666666643
        },
        {
          "name": "F2",
          "midi": 41,
          "time": 42.00000000000006,
          "velocity": 0.4566929133858268,
          "duration": 0.640625
        },
        {
          "name": "F4",
          "midi": 65,
          "time": 42.00000000000006,
          "velocity": 0.7244094488188977,
          "duration": 0.703125
        },
        {
          "name": "A3",
          "midi": 57,
          "time": 42.00000000000006,
          "velocity": 0.5433070866141733,
          "duration": 0.7656249999999929
        },
        {
          "name": "F2",
          "midi": 41,
          "time": 42.755208333333385,
          "velocity": 0.6850393700787402,
          "duration": 0.390625
        },
        {
          "name": "A4",
          "midi": 69,
          "time": 42.989583333333385,
          "velocity": 0.7480314960629921,
          "duration": 0.2447916666666643
        },
        {
          "name": "A3",
          "midi": 57,
          "time": 42.989583333333385,
          "velocity": 0.6535433070866141,
          "duration": 0.2604166666666643
        },
        {
          "name": "C4",
          "midi": 60,
          "time": 43.00000000000005,
          "velocity": 0.8582677165354331,
          "duration": 0.2447916666666643
        },
        {
          "name": "F4",
          "midi": 65,
          "time": 43.00000000000005,
          "velocity": 0.7480314960629921,
          "duration": 0.234375
        },
        {
          "name": "F2",
          "midi": 41,
          "time": 43.401041666666714,
          "velocity": 0.5039370078740157,
          "duration": 0.0416666666666643
        },
        {
          "name": "A4",
          "midi": 69,
          "time": 43.479166666666714,
          "velocity": 1,
          "duration": 0.2083333333333357
        },
        {
          "name": "F4",
          "midi": 65,
          "time": 43.479166666666714,
          "velocity": 1,
          "duration": 0.2135416666666714
        },
        {
          "name": "C4",
          "midi": 60,
          "time": 43.48437500000005,
          "velocity": 1,
          "duration": 0.2239583333333357
        },
        {
          "name": "A3",
          "midi": 57,
          "time": 43.48437500000005,
          "velocity": 0.8582677165354331,
          "duration": 0.2239583333333357
        },
        {
          "name": "C4",
          "midi": 60,
          "time": 44.00000000000005,
          "velocity": 0.5905511811023622,
          "duration": 0.7291666666666643
        },
        {
          "name": "G4",
          "midi": 67,
          "time": 44.00000000000005,
          "velocity": 0.6377952755905512,
          "duration": 0.7447916666666643
        },
        {
          "name": "C3",
          "midi": 48,
          "time": 44.00000000000005,
          "velocity": 0.4566929133858268,
          "duration": 0.640625
        },
        {
          "name": "E4",
          "midi": 64,
          "time": 44.00000000000005,
          "velocity": 0.7244094488188977,
          "duration": 0.703125
        },
        {
          "name": "G3",
          "midi": 55,
          "time": 44.00000000000005,
          "velocity": 0.5433070866141733,
          "duration": 0.7656249999999929
        },
        {
          "name": "C2",
          "midi": 36,
          "time": 44.005208333333385,
          "velocity": 0.2992125984251969,
          "duration": 1.5364583333333215
        },
        {
          "name": "C3",
          "midi": 48,
          "time": 44.75520833333338,
          "velocity": 0.6850393700787402,
          "duration": 0.390625
        },
        {
          "name": "G4",
          "midi": 67,
          "time": 44.98958333333338,
          "velocity": 0.7480314960629921,
          "duration": 0.2447916666666643
        },
        {
          "name": "G3",
          "midi": 55,
          "time": 44.98958333333338,
          "velocity": 0.6535433070866141,
          "duration": 0.2604166666666643
        },
        {
          "name": "C4",
          "midi": 60,
          "time": 45.00000000000004,
          "velocity": 0.8582677165354331,
          "duration": 0.2447916666666643
        },
        {
          "name": "E4",
          "midi": 64,
          "time": 45.00000000000004,
          "velocity": 0.7480314960629921,
          "duration": 0.234375
        },
        {
          "name": "C3",
          "midi": 48,
          "time": 45.40104166666671,
          "velocity": 0.5039370078740157,
          "duration": 0.0416666666666643
        },
        {
          "name": "G4",
          "midi": 67,
          "time": 45.47916666666671,
          "velocity": 1,
          "duration": 0.2083333333333357
        },
        {
          "name": "E4",
          "midi": 64,
          "time": 45.47916666666671,
          "velocity": 1,
          "duration": 0.2135416666666714
        },
        {
          "name": "C4",
          "midi": 60,
          "time": 45.48437500000004,
          "velocity": 1,
          "duration": 0.2239583333333357
        },
        {
          "name": "G3",
          "midi": 55,
          "time": 45.48437500000004,
          "velocity": 0.8582677165354331,
          "duration": 0.2239583333333357
        },
        {
          "name": "G2",
          "midi": 43,
          "time": 46.00000000000004,
          "velocity": 0.5905511811023622,
          "duration": 0.1875
        },
        {
          "name": "G4",
          "midi": 67,
          "time": 46.00000000000004,
          "velocity": 0.8582677165354331,
          "duration": 0.4062500000000071
        },
        {
          "name": "D4",
          "midi": 62,
          "time": 46.00000000000004,
          "velocity": 0.7086614173228346,
          "duration": 0.3854166666666714
        },
        {
          "name": "B4",
          "midi": 71,
          "time": 46.00000000000004,
          "velocity": 0.6850393700787402,
          "duration": 0.4062500000000071
        },
        {
          "name": "G2",
          "midi": 43,
          "time": 46.27083333333338,
          "velocity": 0.7637795275590551,
          "duration": 0.4739583333333428
        },
        {
          "name": "D4",
          "midi": 62,
          "time": 46.505208333333385,
          "velocity": 1,
          "duration": 0.3802083333333428
        },
        {
          "name": "G4",
          "midi": 67,
          "time": 46.75000000000006,
          "velocity": 0.9291338582677166,
          "duration": 0.1510416666666714
        },
        {
          "name": "B4",
          "midi": 71,
          "time": 46.75000000000006,
          "velocity": 0.8267716535433071,
          "duration": 0.1458333333333357
        },
        {
          "name": "F#3",
          "midi": 54,
          "time": 47.01041666666673,
          "velocity": 0.8267716535433071,
          "duration": 0.84375
        },
        {
          "name": "D4",
          "midi": 62,
          "time": 47.01041666666673,
          "velocity": 0.8582677165354331,
          "duration": 0.2552083333333357
        },
        {
          "name": "B3",
          "midi": 59,
          "time": 47.015625000000064,
          "velocity": 0.6535433070866141,
          "duration": 0.2447916666666643
        },
        {
          "name": "A4",
          "midi": 69,
          "time": 47.015625000000064,
          "velocity": 0.7007874015748031,
          "duration": 0.2552083333333357
        },
        {
          "name": "F#4",
          "midi": 66,
          "time": 47.0208333333334,
          "velocity": 0.7716535433070866,
          "duration": 0.2291666666666643
        },
        {
          "name": "A3",
          "midi": 57,
          "time": 47.281250000000064,
          "velocity": 0.6377952755905512,
          "duration": 0.5729166666666643
        },
        {
          "name": "A4",
          "midi": 69,
          "time": 47.5052083333334,
          "velocity": 0.7244094488188977,
          "duration": 0.3385416666666643
        },
        {
          "name": "B3",
          "midi": 59,
          "time": 47.510416666666735,
          "velocity": 0.5748031496062992,
          "duration": 0.3437499999999929
        },
        {
          "name": "D4",
          "midi": 62,
          "time": 47.5208333333334,
          "velocity": 0.8582677165354331,
          "duration": 0.3229166666666643
        },
        {
          "name": "F#4",
          "midi": 66,
          "time": 47.5208333333334,
          "velocity": 0.7716535433070866,
          "duration": 0.3125
        },
        {
          "name": "E3",
          "midi": 52,
          "time": 48.01041666666672,
          "velocity": 0.8267716535433071,
          "duration": 0.8437499999999929
        },
        {
          "name": "E4",
          "midi": 64,
          "time": 48.01041666666672,
          "velocity": 0.8582677165354331,
          "duration": 0.25
        },
        {
          "name": "B4",
          "midi": 71,
          "time": 48.01562500000006,
          "velocity": 0.7007874015748031,
          "duration": 0.2552083333333286
        },
        {
          "name": "G4",
          "midi": 67,
          "time": 48.02083333333339,
          "velocity": 0.7716535433070866,
          "duration": 0.2291666666666643
        },
        {
          "name": "B3",
          "midi": 59,
          "time": 48.28125000000005,
          "velocity": 0.6377952755905512,
          "duration": 0.5729166666666643
        },
        {
          "name": "B4",
          "midi": 71,
          "time": 48.505208333333385,
          "velocity": 0.7244094488188977,
          "duration": 0.3385416666666643
        },
        {
          "name": "E4",
          "midi": 64,
          "time": 48.51041666666672,
          "velocity": 0.5748031496062992,
          "duration": 0.3333333333333286
        },
        {
          "name": "G4",
          "midi": 67,
          "time": 48.520833333333385,
          "velocity": 0.7716535433070866,
          "duration": 0.3125
        },
        {
          "name": "F#3",
          "midi": 54,
          "time": 49.00000000000004,
          "velocity": 0.6614173228346457,
          "duration": 0.9322916666666785
        },
        {
          "name": "A3",
          "midi": 57,
          "time": 49.36458333333338,
          "velocity": 0.6614173228346457,
          "duration": 0.1562500000000071
        },
        {
          "name": "D4",
          "midi": 62,
          "time": 49.494791666666714,
          "velocity": 0.6850393700787402,
          "duration": 0.2916666666666714
        },
        {
          "name": "A4",
          "midi": 69,
          "time": 49.50000000000005,
          "velocity": 0.7244094488188977,
          "duration": 0.2864583333333357
        },
        {
          "name": "F#4",
          "midi": 66,
          "time": 49.505208333333385,
          "velocity": 0.7401574803149606,
          "duration": 0.2760416666666643
        },
        {
          "name": "B3",
          "midi": 59,
          "time": 49.51041666666672,
          "velocity": 0.5748031496062992,
          "duration": 0.21875
        },
        {
          "name": "A3",
          "midi": 57,
          "time": 49.770833333333385,
          "velocity": 0.4566929133858268,
          "duration": 0.078125
        },
        {
          "name": "D4",
          "midi": 62,
          "time": 50.00000000000006,
          "velocity": 0.5905511811023622,
          "duration": 0.7291666666666643
        },
        {
          "name": "B4",
          "midi": 71,
          "time": 50.00000000000006,
          "velocity": 0.6377952755905512,
          "duration": 0.7447916666666643
        },
        {
          "name": "G2",
          "midi": 43,
          "time": 50.00000000000006,
          "velocity": 0.4566929133858268,
          "duration": 0.640625
        },
        {
          "name": "G4",
          "midi": 67,
          "time": 50.00000000000006,
          "velocity": 0.7244094488188977,
          "duration": 0.703125
        },
        {
          "name": "B3",
          "midi": 59,
          "time": 50.00000000000006,
          "velocity": 0.5433070866141733,
          "duration": 0.7656249999999929
        },
        {
          "name": "G2",
          "midi": 43,
          "time": 50.755208333333385,
          "velocity": 0.6850393700787402,
          "duration": 0.390625
        },
        {
          "name": "B4",
          "midi": 71,
          "time": 50.989583333333385,
          "velocity": 0.7480314960629921,
          "duration": 0.2447916666666643
        },
        {
          "name": "B3",
          "midi": 59,
          "time": 50.989583333333385,
          "velocity": 0.6535433070866141,
          "duration": 0.2604166666666643
        },
        {
          "name": "D4",
          "midi": 62,
          "time": 51.00000000000005,
          "velocity": 0.8582677165354331,
          "duration": 0.2447916666666643
        },
        {
          "name": "G4",
          "midi": 67,
          "time": 51.00000000000005,
          "velocity": 0.7480314960629921,
          "duration": 0.234375
        },
        {
          "name": "G2",
          "midi": 43,
          "time": 51.401041666666714,
          "velocity": 0.5039370078740157,
          "duration": 0.0416666666666643
        },
        {
          "name": "B4",
          "midi": 71,
          "time": 51.479166666666714,
          "velocity": 1,
          "duration": 0.2083333333333357
        },
        {
          "name": "G4",
          "midi": 67,
          "time": 51.479166666666714,
          "velocity": 1,
          "duration": 0.2135416666666714
        },
        {
          "name": "D4",
          "midi": 62,
          "time": 51.48437500000005,
          "velocity": 1,
          "duration": 0.2239583333333357
        },
        {
          "name": "B3",
          "midi": 59,
          "time": 51.48437500000005,
          "velocity": 0.8582677165354331,
          "duration": 0.2239583333333357
        },
        {
          "name": "D4",
          "midi": 62,
          "time": 52.00000000000005,
          "velocity": 0.5905511811023622,
          "duration": 0.7291666666666643
        },
        {
          "name": "A4",
          "midi": 69,
          "time": 52.00000000000005,
          "velocity": 0.6377952755905512,
          "duration": 0.7447916666666643
        },
        {
          "name": "F#3",
          "midi": 54,
          "time": 52.00000000000005,
          "velocity": 0.4566929133858268,
          "duration": 0.640625
        },
        {
          "name": "F#4",
          "midi": 66,
          "time": 52.00000000000005,
          "velocity": 0.7244094488188977,
          "duration": 0.703125
        },
        {
          "name": "B3",
          "midi": 59,
          "time": 52.00000000000005,
          "velocity": 0.5433070866141733,
          "duration": 0.7656249999999929
        },
        {
          "name": "F#2",
          "midi": 42,
          "time": 52.005208333333385,
          "velocity": 0.2992125984251969,
          "duration": 1.5364583333333215
        },
        {
          "name": "F#3",
          "midi": 54,
          "time": 52.75520833333338,
          "velocity": 0.6850393700787402,
          "duration": 0.390625
        },
        {
          "name": "A4",
          "midi": 69,
          "time": 52.98958333333338,
          "velocity": 0.7480314960629921,
          "duration": 0.2447916666666643
        },
        {
          "name": "B3",
          "midi": 59,
          "time": 52.98958333333338,
          "velocity": 0.6535433070866141,
          "duration": 0.2604166666666643
        },
        {
          "name": "D4",
          "midi": 62,
          "time": 53.00000000000004,
          "velocity": 0.8582677165354331,
          "duration": 0.2447916666666643
        },
        {
          "name": "F#4",
          "midi": 66,
          "time": 53.00000000000004,
          "velocity": 0.7480314960629921,
          "duration": 0.234375
        },
        {
          "name": "F#3",
          "midi": 54,
          "time": 53.40104166666671,
          "velocity": 0.5039370078740157,
          "duration": 0.0416666666666643
        },
        {
          "name": "A4",
          "midi": 69,
          "time": 53.47916666666671,
          "velocity": 1,
          "duration": 0.2083333333333357
        },
        {
          "name": "F#4",
          "midi": 66,
          "time": 53.47916666666671,
          "velocity": 1,
          "duration": 0.2135416666666714
        },
        {
          "name": "D4",
          "midi": 62,
          "time": 53.48437500000004,
          "velocity": 1,
          "duration": 0.2239583333333357
        },
        {
          "name": "B3",
          "midi": 59,
          "time": 53.48437500000004,
          "velocity": 0.8582677165354331,
          "duration": 0.2239583333333357
        },
        {
          "name": "G4",
          "midi": 67,
          "time": 54.00520833333338,
          "velocity": 0.6614173228346457,
          "duration": 0.5468750000000071
        },
        {
          "name": "E4",
          "midi": 64,
          "time": 54.00520833333338,
          "velocity": 0.8582677165354331,
          "duration": 0.5104166666666714
        },
        {
          "name": "E3",
          "midi": 52,
          "time": 54.010416666666714,
          "velocity": 0.6535433070866141,
          "duration": 1.9166666666666785
        },
        {
          "name": "B3",
          "midi": 59,
          "time": 54.010416666666714,
          "velocity": 0.6614173228346457,
          "duration": 0.4375
        },
        {
          "name": "E2",
          "midi": 40,
          "time": 54.276041666666714,
          "velocity": 0.6614173228346457,
          "duration": 3.3072916666666927
        },
        {
          "name": "B3",
          "midi": 59,
          "time": 54.51562500000005,
          "velocity": 0.6535433070866141,
          "duration": 0.9583333333333428
        },
        {
          "name": "E4",
          "midi": 64,
          "time": 54.76041666666672,
          "velocity": 0.8582677165354331,
          "duration": 0.6614583333333357
        },
        {
          "name": "G4",
          "midi": 67,
          "time": 54.770833333333385,
          "velocity": 0.6850393700787402,
          "duration": 0.6458333333333357
        },
        {
          "name": "B3",
          "midi": 59,
          "time": 55.64583333333339,
          "velocity": 0.7952755905511811,
          "duration": 1.515625000000007
        },
        {
          "name": "E4",
          "midi": 64,
          "time": 55.77083333333339,
          "velocity": 0.8267716535433071,
          "duration": 0.5364583333333357
        },
        {
          "name": "G4",
          "midi": 67,
          "time": 56.01562500000006,
          "velocity": 0.7952755905511811,
          "duration": 0.2864583333333357
        },
        {
          "name": "E3",
          "midi": 52,
          "time": 56.02083333333339,
          "velocity": 0.6850393700787402,
          "duration": 1.0208333333333357
        },
        {
          "name": "E4",
          "midi": 64,
          "time": 56.47395833333339,
          "velocity": 0.6377952755905512,
          "duration": 0.6666666666666714
        },
        {
          "name": "G4",
          "midi": 67,
          "time": 56.74479166666673,
          "velocity": 0.7874015748031497,
          "duration": 0.375
        },
        {
          "name": "E3",
          "midi": 52,
          "time": 57.250000000000064,
          "velocity": 1,
          "duration": 0.3541666666666785
        },
        {
          "name": "E4",
          "midi": 64,
          "time": 57.5052083333334,
          "velocity": 0.905511811023622,
          "duration": 0.3281250000000071
        },
        {
          "name": "B3",
          "midi": 59,
          "time": 57.510416666666735,
          "velocity": 0.7480314960629921,
          "duration": 0.3333333333333428
        },
        {
          "name": "G4",
          "midi": 67,
          "time": 57.51562500000007,
          "velocity": 0.7244094488188977,
          "duration": 0.3229166666666714
        },
        {
          "name": "A3",
          "midi": 57,
          "time": 58.00000000000008,
          "velocity": 0.7480314960629921,
          "duration": 0.3750000000000071
        },
        {
          "name": "F4",
          "midi": 65,
          "time": 58.005208333333414,
          "velocity": 0.8818897637795275,
          "duration": 0.4010416666666714
        },
        {
          "name": "F2",
          "midi": 41,
          "time": 58.01041666666675,
          "velocity": 0.5039370078740157,
          "duration": 0.1770833333333357
        },
        {
          "name": "C4",
          "midi": 60,
          "time": 58.015625000000085,
          "velocity": 0.8582677165354331,
          "duration": 0.4166666666666643
        },
        {
          "name": "A4",
          "midi": 69,
          "time": 58.015625000000085,
          "velocity": 0.7401574803149606,
          "duration": 0.40625
        },
        {
          "name": "F2",
          "midi": 41,
          "time": 58.25520833333342,
          "velocity": 0.5905511811023622,
          "duration": 0.6562499999999929
        },
        {
          "name": "A3",
          "midi": 57,
          "time": 58.51041666666675,
          "velocity": 0.7244094488188977,
          "duration": 0.7604166666666643
        },
        {
          "name": "F4",
          "midi": 65,
          "time": 58.734375000000085,
          "velocity": 0.7480314960629921,
          "duration": 0.5572916666666643
        },
        {
          "name": "C4",
          "midi": 60,
          "time": 58.74479166666675,
          "velocity": 0.6771653543307087,
          "duration": 0.5677083333333357
        },
        {
          "name": "A4",
          "midi": 69,
          "time": 58.755208333333414,
          "velocity": 0.7086614173228346,
          "duration": 0.5572916666666714
        },
        {
          "name": "F2",
          "midi": 41,
          "time": 59.24479166666675,
          "velocity": 1,
          "duration": 0.6041666666666643
        },
        {
          "name": "A3",
          "midi": 57,
          "time": 59.36979166666675,
          "velocity": 0.9763779527559056,
          "duration": 0.5104166666666643
        },
        {
          "name": "C4",
          "midi": 60,
          "time": 59.500000000000085,
          "velocity": 0.7637795275590551,
          "duration": 0.3802083333333286
        },
        {
          "name": "F4",
          "midi": 65,
          "time": 59.625000000000085,
          "velocity": 0.8818897637795275,
          "duration": 0.2291666666666643
        },
        {
          "name": "A4",
          "midi": 69,
          "time": 59.76041666666675,
          "velocity": 1,
          "duration": 0.1197916666666643
        },
        {
          "name": "C5",
          "midi": 72,
          "time": 60.020833333333414,
          "velocity": 0.5984251968503937,
          "duration": 0.8958333333333357
        },
        {
          "name": "G4",
          "midi": 67,
          "time": 60.020833333333414,
          "velocity": 0.7637795275590551,
          "duration": 0.875
        },
        {
          "name": "C3",
          "midi": 48,
          "time": 60.020833333333414,
          "velocity": 0.5748031496062992,
          "duration": 1.75
        },
        {
          "name": "E4",
          "midi": 64,
          "time": 60.02604166666675,
          "velocity": 0.5433070866141733,
          "duration": 0.8125
        },
        {
          "name": "C4",
          "midi": 60,
          "time": 60.02604166666675,
          "velocity": 0.4566929133858268,
          "duration": 0.5677083333333357
        },
        {
          "name": "C4",
          "midi": 60,
          "time": 60.750000000000085,
          "velocity": 0.7480314960629921,
          "duration": 1.0052083333333286
        },
        {
          "name": "E4",
          "midi": 64,
          "time": 61.24479166666675,
          "velocity": 0.5039370078740157,
          "duration": 0.4635416666666643
        },
        {
          "name": "C5",
          "midi": 72,
          "time": 61.47916666666675,
          "velocity": 1,
          "duration": 0.21875
        },
        {
          "name": "G4",
          "midi": 67,
          "time": 61.484375000000085,
          "velocity": 0.7401574803149606,
          "duration": 0.2239583333333286
        },
        {
          "name": "G5",
          "midi": 79,
          "time": 62.00000000000008,
          "velocity": 0.7480314960629921,
          "duration": 0.3333333333333357
        },
        {
          "name": "D5",
          "midi": 74,
          "time": 62.005208333333414,
          "velocity": 0.8267716535433071,
          "duration": 0.328125
        },
        {
          "name": "B4",
          "midi": 71,
          "time": 62.005208333333414,
          "velocity": 0.6377952755905512,
          "duration": 0.2552083333333357
        },
        {
          "name": "G4",
          "midi": 67,
          "time": 62.01041666666675,
          "velocity": 0.4566929133858268,
          "duration": 0.1458333333333357
        },
        {
          "name": "B3",
          "midi": 59,
          "time": 62.01041666666675,
          "velocity": 0.6299212598425197,
          "duration": 0.609375
        },
        {
          "name": "G2",
          "midi": 43,
          "time": 62.015625000000085,
          "velocity": 0.3700787401574803,
          "duration": 0.7604166666666714
        },
        {
          "name": "G4",
          "midi": 67,
          "time": 62.24479166666675,
          "velocity": 0.6535433070866141,
          "duration": 0.4895833333333357
        },
        {
          "name": "B4",
          "midi": 71,
          "time": 62.380208333333414,
          "velocity": 0.7086614173228346,
          "duration": 0.4531250000000071
        },
        {
          "name": "D5",
          "midi": 74,
          "time": 62.505208333333414,
          "velocity": 0.952755905511811,
          "duration": 0.3177083333333428
        },
        {
          "name": "G5",
          "midi": 79,
          "time": 62.77083333333342,
          "velocity": 0.7401574803149606,
          "duration": 0.078125
        },
        {
          "name": "D5",
          "midi": 74,
          "time": 63.000000000000085,
          "velocity": 0.7480314960629921,
          "duration": 0.3333333333333357
        },
        {
          "name": "A4",
          "midi": 69,
          "time": 63.00520833333342,
          "velocity": 0.8267716535433071,
          "duration": 0.328125
        },
        {
          "name": "F#4",
          "midi": 66,
          "time": 63.00520833333342,
          "velocity": 0.6377952755905512,
          "duration": 0.2552083333333357
        },
        {
          "name": "B3",
          "midi": 59,
          "time": 63.01041666666676,
          "velocity": 0.4566929133858268,
          "duration": 0.1458333333333357
        },
        {
          "name": "F#3",
          "midi": 54,
          "time": 63.01041666666676,
          "velocity": 0.6299212598425197,
          "duration": 0.609375
        },
        {
          "name": "B3",
          "midi": 59,
          "time": 63.24479166666676,
          "velocity": 0.6535433070866141,
          "duration": 0.4895833333333357
        },
        {
          "name": "F#4",
          "midi": 66,
          "time": 63.38020833333342,
          "velocity": 0.7086614173228346,
          "duration": 0.4531250000000071
        },
        {
          "name": "A4",
          "midi": 69,
          "time": 63.50520833333342,
          "velocity": 0.952755905511811,
          "duration": 0.3177083333333428
        },
        {
          "name": "D5",
          "midi": 74,
          "time": 63.77083333333343,
          "velocity": 0.7401574803149606,
          "duration": 0.078125
        },
        {
          "name": "E3",
          "midi": 52,
          "time": 64.0000000000001,
          "velocity": 0.5905511811023622,
          "duration": 0.1875
        },
        {
          "name": "E4",
          "midi": 64,
          "time": 64.0000000000001,
          "velocity": 0.8582677165354331,
          "duration": 0.4062499999999858
        },
        {
          "name": "B3",
          "midi": 59,
          "time": 64.0000000000001,
          "velocity": 0.7086614173228346,
          "duration": 0.3854166666666572
        },
        {
          "name": "E2",
          "midi": 40,
          "time": 64.0000000000001,
          "velocity": 0.5905511811023622,
          "duration": 0.744791666666643
        },
        {
          "name": "G4",
          "midi": 67,
          "time": 64.0000000000001,
          "velocity": 0.6850393700787402,
          "duration": 0.4062499999999858
        },
        {
          "name": "E3",
          "midi": 52,
          "time": 64.27083333333343,
          "velocity": 0.7637795275590551,
          "duration": 0.494791666666643
        },
        {
          "name": "B3",
          "midi": 59,
          "time": 64.50520833333341,
          "velocity": 1,
          "duration": 0.3802083333333144
        },
        {
          "name": "E4",
          "midi": 64,
          "time": 64.75000000000007,
          "velocity": 0.9291338582677166,
          "duration": 0.1510416666666572
        },
        {
          "name": "G4",
          "midi": 67,
          "time": 64.75000000000007,
          "velocity": 0.8267716535433071,
          "duration": 0.1458333333333286
        },
        {
          "name": "D5",
          "midi": 74,
          "time": 65.00000000000006,
          "velocity": 0.7480314960629921,
          "duration": 0.3333333333333286
        },
        {
          "name": "A4",
          "midi": 69,
          "time": 65.00520833333339,
          "velocity": 0.8267716535433071,
          "duration": 0.328125
        },
        {
          "name": "F#4",
          "midi": 66,
          "time": 65.00520833333339,
          "velocity": 0.6377952755905512,
          "duration": 0.2552083333333286
        },
        {
          "name": "B3",
          "midi": 59,
          "time": 65.01041666666671,
          "velocity": 0.4566929133858268,
          "duration": 0.1458333333333286
        },
        {
          "name": "F#3",
          "midi": 54,
          "time": 65.01041666666671,
          "velocity": 0.6299212598425197,
          "duration": 0.609375
        },
        {
          "name": "B3",
          "midi": 59,
          "time": 65.24479166666671,
          "velocity": 0.6535433070866141,
          "duration": 0.4895833333333286
        },
        {
          "name": "F#4",
          "midi": 66,
          "time": 65.38020833333339,
          "velocity": 0.7086614173228346,
          "duration": 0.4531249999999858
        },
        {
          "name": "A4",
          "midi": 69,
          "time": 65.50520833333339,
          "velocity": 0.952755905511811,
          "duration": 0.3177083333333144
        },
        {
          "name": "D5",
          "midi": 74,
          "time": 65.77083333333337,
          "velocity": 0.7401574803149606,
          "duration": 0.078125
        },
        {
          "name": "G4",
          "midi": 67,
          "time": 66.00000000000004,
          "velocity": 0.48031496062992124,
          "duration": 0.1614583333333286
        },
        {
          "name": "D5",
          "midi": 74,
          "time": 66.00000000000004,
          "velocity": 0.7716535433070866,
          "duration": 0.3177083333333286
        },
        {
          "name": "B4",
          "midi": 71,
          "time": 66.00000000000004,
          "velocity": 0.5905511811023622,
          "duration": 0.2864583333333286
        },
        {
          "name": "G5",
          "midi": 79,
          "time": 66.00000000000004,
          "velocity": 0.7244094488188977,
          "duration": 0.328125
        },
        {
          "name": "B3",
          "midi": 59,
          "time": 66.00520833333337,
          "velocity": 0.6535433070866141,
          "duration": 1.6145833333333428
        },
        {
          "name": "G2",
          "midi": 43,
          "time": 66.02083333333337,
          "velocity": 0.6299212598425197,
          "duration": 1.75
        },
        {
          "name": "G4",
          "midi": 67,
          "time": 66.25520833333337,
          "velocity": 0.3228346456692913,
          "duration": 0.5989583333333286
        },
        {
          "name": "B4",
          "midi": 71,
          "time": 66.50000000000004,
          "velocity": 0.5905511811023622,
          "duration": 0.2083333333333286
        },
        {
          "name": "D5",
          "midi": 74,
          "time": 66.77083333333337,
          "velocity": 0.31496062992125984,
          "duration": 0.0833333333333286
        },
        {
          "name": "G5",
          "midi": 79,
          "time": 66.98958333333337,
          "velocity": 0.6771653543307087,
          "duration": 0.0729166666666714
        },
        {
          "name": "B5",
          "midi": 83,
          "time": 67.26041666666671,
          "velocity": 0.7480314960629921,
          "duration": 0.2239583333333286
        },
        {
          "name": "G4",
          "midi": 67,
          "time": 67.43750000000004,
          "velocity": 0.5511811023622047,
          "duration": 0.1302083333333428
        },
        {
          "name": "D6",
          "midi": 86,
          "time": 67.49479166666671,
          "velocity": 1,
          "duration": 0.09895833333334281
        },
        {
          "name": "B5",
          "midi": 83,
          "time": 67.61458333333339,
          "velocity": 0.8818897637795275,
          "duration": 0.1145833333333286
        },
        {
          "name": "G5",
          "midi": 79,
          "time": 67.75000000000004,
          "velocity": 0.7244094488188977,
          "duration": 0.0989583333333286
        },
        {
          "name": "D5",
          "midi": 74,
          "time": 67.89583333333337,
          "velocity": 0.44881889763779526,
          "duration": 0.026041666666671404
        },
        {
          "name": "F#3",
          "midi": 54,
          "time": 68.00000000000004,
          "velocity": 0.5748031496062992,
          "duration": 1.8958333333333428
        },
        {
          "name": "B3",
          "midi": 59,
          "time": 68.00000000000004,
          "velocity": 0.6614173228346457,
          "duration": 1.8958333333333428
        },
        {
          "name": "A4",
          "midi": 69,
          "time": 68.00000000000004,
          "velocity": 0.6614173228346457,
          "duration": 1.8854166666666714
        },
        {
          "name": "D4",
          "midi": 62,
          "time": 68.00000000000004,
          "velocity": 0.5905511811023622,
          "duration": 1.875
        },
        {
          "name": "D5",
          "midi": 74,
          "time": 68.00000000000004,
          "velocity": 0.6614173228346457,
          "duration": 1.8854166666666714
        },
        {
          "name": "F#5",
          "midi": 78,
          "time": 68.04166666666671,
          "velocity": 0.7401574803149606,
          "duration": 1.84375
        },
        {
          "name": "B4",
          "midi": 71,
          "time": 70.01041666666671,
          "velocity": 0.5905511811023622,
          "duration": 0.2968749999999858
        },
        {
          "name": "E3",
          "midi": 52,
          "time": 70.01041666666671,
          "velocity": 0.44881889763779526,
          "duration": 1.5260416666666572
        },
        {
          "name": "E4",
          "midi": 64,
          "time": 70.01562500000004,
          "velocity": 0.7086614173228346,
          "duration": 0.2916666666666572
        },
        {
          "name": "E2",
          "midi": 40,
          "time": 70.01562500000004,
          "velocity": 0.5196850393700787,
          "duration": 3.781249999999986
        },
        {
          "name": "G4",
          "midi": 67,
          "time": 70.02083333333337,
          "velocity": 0.7716535433070866,
          "duration": 0.2708333333333286
        },
        {
          "name": "B5",
          "midi": 83,
          "time": 70.8854166666667,
          "velocity": 0.6299212598425197,
          "duration": 0.1927083333333428
        },
        {
          "name": "G5",
          "midi": 79,
          "time": 70.9322916666667,
          "velocity": 0.6377952755905512,
          "duration": 0.1875000000000142
        },
        {
          "name": "E5",
          "midi": 76,
          "time": 70.95833333333337,
          "velocity": 0.7952755905511811,
          "duration": 0.1979166666666714
        },
        {
          "name": "B4",
          "midi": 71,
          "time": 71.81250000000004,
          "velocity": 0.33858267716535434,
          "duration": 0.5677083333333286
        },
        {
          "name": "G4",
          "midi": 67,
          "time": 71.84375000000004,
          "velocity": 0.5669291338582677,
          "duration": 0.5520833333333286
        },
        {
          "name": "E4",
          "midi": 64,
          "time": 71.91145833333337,
          "velocity": 0.6377952755905512,
          "duration": 0.5
        },
        {
          "name": "E3",
          "midi": 52,
          "time": 72.00520833333337,
          "velocity": 0.5039370078740157,
          "duration": 0.453125
        },
        {
          "name": "E3",
          "midi": 52,
          "time": 72.75520833333337,
          "velocity": 0.8267716535433071,
          "duration": 0.4166666666666572
        },
        {
          "name": "B3",
          "midi": 59,
          "time": 73.00000000000004,
          "velocity": 0.7480314960629921,
          "duration": 0.3281249999999858
        },
        {
          "name": "E4",
          "midi": 64,
          "time": 73.00520833333337,
          "velocity": 0.7716535433070866,
          "duration": 0.5052083333333144
        },
        {
          "name": "G4",
          "midi": 67,
          "time": 73.0104166666667,
          "velocity": 0.7480314960629921,
          "duration": 0.4947916666666572
        },
        {
          "name": "E3",
          "midi": 52,
          "time": 73.25000000000003,
          "velocity": 1,
          "duration": 0.5625
        },
        {
          "name": "B3",
          "midi": 59,
          "time": 73.51041666666669,
          "velocity": 1,
          "duration": 0.3020833333333428
        },
        {
          "name": "E4",
          "midi": 64,
          "time": 73.77083333333336,
          "velocity": 0.7716535433070866,
          "duration": 0.06250000000001421
        },
        {
          "name": "F4",
          "midi": 65,
          "time": 74.00000000000004,
          "velocity": 0.48031496062992124,
          "duration": 0.1614583333333286
        },
        {
          "name": "C5",
          "midi": 72,
          "time": 74.00000000000004,
          "velocity": 0.7716535433070866,
          "duration": 0.3177083333333286
        },
        {
          "name": "A4",
          "midi": 69,
          "time": 74.00000000000004,
          "velocity": 0.5905511811023622,
          "duration": 0.2864583333333286
        },
        {
          "name": "F5",
          "midi": 77,
          "time": 74.00000000000004,
          "velocity": 0.7244094488188977,
          "duration": 0.328125
        },
        {
          "name": "A3",
          "midi": 57,
          "time": 74.00520833333337,
          "velocity": 0.6535433070866141,
          "duration": 1.6145833333333428
        },
        {
          "name": "F3",
          "midi": 53,
          "time": 74.02083333333337,
          "velocity": 0.6299212598425197,
          "duration": 1.75
        },
        {
          "name": "F4",
          "midi": 65,
          "time": 74.25520833333337,
          "velocity": 0.3228346456692913,
          "duration": 0.5989583333333286
        },
        {
          "name": "A4",
          "midi": 69,
          "time": 74.50000000000004,
          "velocity": 0.5905511811023622,
          "duration": 0.2083333333333286
        },
        {
          "name": "C5",
          "midi": 72,
          "time": 74.77083333333337,
          "velocity": 0.31496062992125984,
          "duration": 0.0833333333333286
        },
        {
          "name": "F5",
          "midi": 77,
          "time": 74.98958333333337,
          "velocity": 0.6771653543307087,
          "duration": 0.0729166666666714
        },
        {
          "name": "A5",
          "midi": 81,
          "time": 75.26041666666671,
          "velocity": 0.7480314960629921,
          "duration": 0.2239583333333286
        },
        {
          "name": "F4",
          "midi": 65,
          "time": 75.43750000000004,
          "velocity": 0.5511811023622047,
          "duration": 0.1302083333333428
        },
        {
          "name": "C6",
          "midi": 84,
          "time": 75.49479166666671,
          "velocity": 1,
          "duration": 0.09895833333334281
        },
        {
          "name": "A5",
          "midi": 81,
          "time": 75.61458333333339,
          "velocity": 0.8818897637795275,
          "duration": 0.1145833333333286
        },
        {
          "name": "F5",
          "midi": 77,
          "time": 75.75000000000004,
          "velocity": 0.7244094488188977,
          "duration": 0.0989583333333286
        },
        {
          "name": "C5",
          "midi": 72,
          "time": 75.89583333333337,
          "velocity": 0.44881889763779526,
          "duration": 0.026041666666671404
        },
        {
          "name": "G3",
          "midi": 55,
          "time": 76.00000000000004,
          "velocity": 0.7480314960629921,
          "duration": 0.3749999999999858
        },
        {
          "name": "E4",
          "midi": 64,
          "time": 76.00520833333337,
          "velocity": 0.8818897637795275,
          "duration": 0.4010416666666572
        },
        {
          "name": "C2",
          "midi": 36,
          "time": 76.0104166666667,
          "velocity": 0.5039370078740157,
          "duration": 1.8385416666666714
        },
        {
          "name": "C3",
          "midi": 48,
          "time": 76.0104166666667,
          "velocity": 0.6535433070866141,
          "duration": 0.1770833333333286
        },
        {
          "name": "C4",
          "midi": 60,
          "time": 76.01562500000003,
          "velocity": 0.8582677165354331,
          "duration": 0.4166666666666714
        },
        {
          "name": "G4",
          "midi": 67,
          "time": 76.01562500000003,
          "velocity": 0.7401574803149606,
          "duration": 0.40625
        },
        {
          "name": "C3",
          "midi": 48,
          "time": 76.25520833333336,
          "velocity": 0.5905511811023622,
          "duration": 0.6562500000000142
        },
        {
          "name": "G3",
          "midi": 55,
          "time": 76.5104166666667,
          "velocity": 0.7244094488188977,
          "duration": 0.7604166666666714
        },
        {
          "name": "E4",
          "midi": 64,
          "time": 76.73437500000003,
          "velocity": 0.7480314960629921,
          "duration": 0.5572916666666714
        },
        {
          "name": "C4",
          "midi": 60,
          "time": 76.7447916666667,
          "velocity": 0.6771653543307087,
          "duration": 0.5677083333333286
        },
        {
          "name": "G4",
          "midi": 67,
          "time": 76.75520833333337,
          "velocity": 0.7086614173228346,
          "duration": 0.5572916666666572
        },
        {
          "name": "C3",
          "midi": 48,
          "time": 77.2447916666667,
          "velocity": 1,
          "duration": 0.6145833333333286
        },
        {
          "name": "G3",
          "midi": 55,
          "time": 77.3697916666667,
          "velocity": 0.9763779527559056,
          "duration": 0.5104166666666572
        },
        {
          "name": "C4",
          "midi": 60,
          "time": 77.50000000000003,
          "velocity": 0.7637795275590551,
          "duration": 0.3802083333333286
        },
        {
          "name": "E4",
          "midi": 64,
          "time": 77.62500000000003,
          "velocity": 0.8818897637795275,
          "duration": 0.2291666666666714
        },
        {
          "name": "G4",
          "midi": 67,
          "time": 77.7604166666667,
          "velocity": 1,
          "duration": 0.11979166666665719
        },
        {
          "name": "G2",
          "midi": 43,
          "time": 78.00000000000003,
          "velocity": 0.5196850393700787,
          "duration": 0.9583333333333286
        },
        {
          "name": "G4",
          "midi": 67,
          "time": 78.00520833333336,
          "velocity": 0.7480314960629921,
          "duration": 0.9583333333333286
        },
        {
          "name": "B4",
          "midi": 71,
          "time": 78.01041666666669,
          "velocity": 0.7007874015748031,
          "duration": 0.9322916666666714
        },
        {
          "name": "D4",
          "midi": 62,
          "time": 78.01562500000001,
          "velocity": 0.7480314960629921,
          "duration": 0.9375000000000142
        },
        {
          "name": "D3",
          "midi": 50,
          "time": 79.01041666666669,
          "velocity": 0.8267716535433071,
          "duration": 0.8437500000000142
        },
        {
          "name": "D4",
          "midi": 62,
          "time": 79.01041666666669,
          "velocity": 0.8582677165354331,
          "duration": 0.25
        },
        {
          "name": "A4",
          "midi": 69,
          "time": 79.01562500000001,
          "velocity": 0.7007874015748031,
          "duration": 0.2552083333333428
        },
        {
          "name": "F#4",
          "midi": 66,
          "time": 79.02083333333334,
          "velocity": 0.7716535433070866,
          "duration": 0.2291666666666714
        },
        {
          "name": "A3",
          "midi": 57,
          "time": 79.28125000000003,
          "velocity": 0.6377952755905512,
          "duration": 0.5729166666666714
        },
        {
          "name": "A4",
          "midi": 69,
          "time": 79.50520833333336,
          "velocity": 0.7244094488188977,
          "duration": 0.3385416666666714
        },
        {
          "name": "D4",
          "midi": 62,
          "time": 79.51041666666669,
          "velocity": 0.5748031496062992,
          "duration": 0.3333333333333428
        },
        {
          "name": "F#4",
          "midi": 66,
          "time": 79.52083333333336,
          "velocity": 0.7716535433070866,
          "duration": 0.3125
        },
        {
          "name": "E3",
          "midi": 52,
          "time": 80.00000000000004,
          "velocity": 0.5905511811023622,
          "duration": 0.1875
        },
        {
          "name": "E4",
          "midi": 64,
          "time": 80.00000000000004,
          "velocity": 0.8582677165354331,
          "duration": 0.4062499999999858
        },
        {
          "name": "B3",
          "midi": 59,
          "time": 80.00000000000004,
          "velocity": 0.7086614173228346,
          "duration": 0.3854166666666572
        },
        {
          "name": "E2",
          "midi": 40,
          "time": 80.00000000000004,
          "velocity": 0.5905511811023622,
          "duration": 0.744791666666643
        },
        {
          "name": "G4",
          "midi": 67,
          "time": 80.00000000000004,
          "velocity": 0.6850393700787402,
          "duration": 0.4062499999999858
        },
        {
          "name": "E3",
          "midi": 52,
          "time": 80.27083333333337,
          "velocity": 0.7637795275590551,
          "duration": 0.494791666666643
        },
        {
          "name": "B3",
          "midi": 59,
          "time": 80.50520833333336,
          "velocity": 1,
          "duration": 0.3802083333333144
        },
        {
          "name": "E4",
          "midi": 64,
          "time": 80.75000000000001,
          "velocity": 0.9291338582677166,
          "duration": 0.1510416666666572
        },
        {
          "name": "G4",
          "midi": 67,
          "time": 80.75000000000001,
          "velocity": 0.8267716535433071,
          "duration": 0.1458333333333286
        },
        {
          "name": "D3",
          "midi": 50,
          "time": 81.01041666666667,
          "velocity": 0.8267716535433071,
          "duration": 0.84375
        },
        {
          "name": "D4",
          "midi": 62,
          "time": 81.01041666666667,
          "velocity": 0.8582677165354331,
          "duration": 0.2552083333333286
        },
        {
          "name": "B3",
          "midi": 59,
          "time": 81.015625,
          "velocity": 0.6535433070866141,
          "duration": 0.2447916666666714
        },
        {
          "name": "A4",
          "midi": 69,
          "time": 81.015625,
          "velocity": 0.7007874015748031,
          "duration": 0.2552083333333286
        },
        {
          "name": "F#4",
          "midi": 66,
          "time": 81.02083333333333,
          "velocity": 0.7716535433070866,
          "duration": 0.2291666666666714
        },
        {
          "name": "A3",
          "midi": 57,
          "time": 81.28125,
          "velocity": 0.6377952755905512,
          "duration": 0.5729166666666714
        },
        {
          "name": "A4",
          "midi": 69,
          "time": 81.50520833333333,
          "velocity": 0.7244094488188977,
          "duration": 0.3385416666666714
        },
        {
          "name": "B3",
          "midi": 59,
          "time": 81.51041666666666,
          "velocity": 0.5748031496062992,
          "duration": 0.3437500000000142
        },
        {
          "name": "D4",
          "midi": 62,
          "time": 81.52083333333333,
          "velocity": 0.8582677165354331,
          "duration": 0.3229166666666714
        },
        {
          "name": "F#4",
          "midi": 66,
          "time": 81.52083333333333,
          "velocity": 0.7716535433070866,
          "duration": 0.3125
        },
        {
          "name": "G4",
          "midi": 67,
          "time": 82.00000000000001,
          "velocity": 0.48031496062992124,
          "duration": 0.1614583333333286
        },
        {
          "name": "D5",
          "midi": 74,
          "time": 82.00000000000001,
          "velocity": 0.7716535433070866,
          "duration": 0.3177083333333286
        },
        {
          "name": "B4",
          "midi": 71,
          "time": 82.00000000000001,
          "velocity": 0.5905511811023622,
          "duration": 0.2864583333333286
        },
        {
          "name": "G5",
          "midi": 79,
          "time": 82.00000000000001,
          "velocity": 0.7244094488188977,
          "duration": 0.328125
        },
        {
          "name": "B3",
          "midi": 59,
          "time": 82.00520833333334,
          "velocity": 0.6535433070866141,
          "duration": 1.6145833333333428
        },
        {
          "name": "G2",
          "midi": 43,
          "time": 82.02083333333334,
          "velocity": 0.6299212598425197,
          "duration": 1.75
        },
        {
          "name": "G4",
          "midi": 67,
          "time": 82.25520833333334,
          "velocity": 0.3228346456692913,
          "duration": 0.5989583333333286
        },
        {
          "name": "B4",
          "midi": 71,
          "time": 82.50000000000001,
          "velocity": 0.5905511811023622,
          "duration": 0.2083333333333286
        },
        {
          "name": "D5",
          "midi": 74,
          "time": 82.77083333333334,
          "velocity": 0.31496062992125984,
          "duration": 0.0833333333333286
        },
        {
          "name": "G5",
          "midi": 79,
          "time": 82.98958333333334,
          "velocity": 0.6771653543307087,
          "duration": 0.0729166666666714
        },
        {
          "name": "B5",
          "midi": 83,
          "time": 83.26041666666669,
          "velocity": 0.7480314960629921,
          "duration": 0.2239583333333286
        },
        {
          "name": "G4",
          "midi": 67,
          "time": 83.43750000000001,
          "velocity": 0.5511811023622047,
          "duration": 0.1302083333333428
        },
        {
          "name": "D6",
          "midi": 86,
          "time": 83.49479166666669,
          "velocity": 1,
          "duration": 0.09895833333334281
        },
        {
          "name": "B5",
          "midi": 83,
          "time": 83.61458333333336,
          "velocity": 0.8818897637795275,
          "duration": 0.1145833333333286
        },
        {
          "name": "G5",
          "midi": 79,
          "time": 83.75000000000001,
          "velocity": 0.7244094488188977,
          "duration": 0.0989583333333286
        },
        {
          "name": "D5",
          "midi": 74,
          "time": 83.89583333333334,
          "velocity": 0.44881889763779526,
          "duration": 0.026041666666671404
        },
        {
          "name": "A3",
          "midi": 57,
          "time": 84.00000000000001,
          "velocity": 0.7480314960629921,
          "duration": 0.3749999999999858
        },
        {
          "name": "D4",
          "midi": 62,
          "time": 84.00520833333334,
          "velocity": 0.8818897637795275,
          "duration": 0.4010416666666572
        },
        {
          "name": "F#2",
          "midi": 42,
          "time": 84.01041666666667,
          "velocity": 0.5039370078740157,
          "duration": 1.8385416666666714
        },
        {
          "name": "F#3",
          "midi": 54,
          "time": 84.01041666666667,
          "velocity": 0.6535433070866141,
          "duration": 0.1770833333333286
        },
        {
          "name": "B3",
          "midi": 59,
          "time": 84.015625,
          "velocity": 0.8582677165354331,
          "duration": 0.4166666666666714
        },
        {
          "name": "F#4",
          "midi": 66,
          "time": 84.015625,
          "velocity": 0.7401574803149606,
          "duration": 0.40625
        },
        {
          "name": "F#3",
          "midi": 54,
          "time": 84.25520833333333,
          "velocity": 0.5905511811023622,
          "duration": 0.6562500000000142
        },
        {
          "name": "A3",
          "midi": 57,
          "time": 84.51041666666667,
          "velocity": 0.7244094488188977,
          "duration": 0.7604166666666714
        },
        {
          "name": "D4",
          "midi": 62,
          "time": 84.734375,
          "velocity": 0.7480314960629921,
          "duration": 0.5572916666666714
        },
        {
          "name": "B3",
          "midi": 59,
          "time": 84.74479166666667,
          "velocity": 0.6771653543307087,
          "duration": 0.5677083333333286
        },
        {
          "name": "F#4",
          "midi": 66,
          "time": 84.75520833333334,
          "velocity": 0.7086614173228346,
          "duration": 0.5572916666666572
        },
        {
          "name": "F#3",
          "midi": 54,
          "time": 85.24479166666667,
          "velocity": 1,
          "duration": 0.6145833333333286
        },
        {
          "name": "A3",
          "midi": 57,
          "time": 85.36979166666667,
          "velocity": 0.9763779527559056,
          "duration": 0.5104166666666572
        },
        {
          "name": "B3",
          "midi": 59,
          "time": 85.5,
          "velocity": 0.7637795275590551,
          "duration": 0.3802083333333286
        },
        {
          "name": "D4",
          "midi": 62,
          "time": 85.625,
          "velocity": 0.8818897637795275,
          "duration": 0.2291666666666714
        },
        {
          "name": "F#4",
          "midi": 66,
          "time": 85.76041666666667,
          "velocity": 1,
          "duration": 0.11979166666665719
        },
        {
          "name": "E5",
          "midi": 76,
          "time": 86,
          "velocity": 0.7086614173228346,
          "duration": 0.5104166666666714
        },
        {
          "name": "E3",
          "midi": 52,
          "time": 86.00520833333333,
          "velocity": 0.7716535433070866,
          "duration": 1.9270833333333428
        },
        {
          "name": "B4",
          "midi": 71,
          "time": 86.01041666666666,
          "velocity": 0.7401574803149606,
          "duration": 0.4583333333333428
        },
        {
          "name": "G4",
          "midi": 67,
          "time": 86.01041666666666,
          "velocity": 0.6535433070866141,
          "duration": 0.4322916666666714
        },
        {
          "name": "E4",
          "midi": 64,
          "time": 86.27083333333333,
          "velocity": 0.4094488188976378,
          "duration": 2.0260416666666856
        },
        {
          "name": "G4",
          "midi": 67,
          "time": 86.52604166666667,
          "velocity": 0.7401574803149606,
          "duration": 0.1979166666666714
        },
        {
          "name": "E5",
          "midi": 76,
          "time": 86.59375,
          "velocity": 0.11811023622047244,
          "duration": 0.0729166666666714
        },
        {
          "name": "E5",
          "midi": 76,
          "time": 86.76041666666667,
          "velocity": 0.7086614173228346,
          "duration": 0.46875
        },
        {
          "name": "G4",
          "midi": 67,
          "time": 86.76041666666667,
          "velocity": 0.4566929133858268,
          "duration": 0.5208333333333286
        },
        {
          "name": "B4",
          "midi": 71,
          "time": 86.77083333333334,
          "velocity": 0.8582677165354331,
          "duration": 0.4947916666666572
        },
        {
          "name": "B3",
          "midi": 59,
          "time": 87.52083333333333,
          "velocity": 0.7637795275590551,
          "duration": 0.4843750000000142
        },
        {
          "name": "E5",
          "midi": 76,
          "time": 87.84375,
          "velocity": 0.3464566929133858,
          "duration": 0.3177083333333428
        },
        {
          "name": "B4",
          "midi": 71,
          "time": 87.9375,
          "velocity": 0.7401574803149606,
          "duration": 0.3177083333333428
        },
        {
          "name": "E3",
          "midi": 52,
          "time": 87.99479166666667,
          "velocity": 0.7874015748031497,
          "duration": 1.546875
        },
        {
          "name": "G4",
          "midi": 67,
          "time": 88.01041666666667,
          "velocity": 0.9763779527559056,
          "duration": 0.3489583333333428
        },
        {
          "name": "B3",
          "midi": 59,
          "time": 88.25520833333334,
          "velocity": 0.7716535433070866,
          "duration": 0.5052083333333286
        },
        {
          "name": "E4",
          "midi": 64,
          "time": 88.50520833333334,
          "velocity": 0.5433070866141733,
          "duration": 0.0885416666666714
        },
        {
          "name": "G4",
          "midi": 67,
          "time": 88.75000000000001,
          "velocity": 0.7716535433070866,
          "duration": 0.4635416666666572
        },
        {
          "name": "E4",
          "midi": 64,
          "time": 88.75520833333334,
          "velocity": 0.7244094488188977,
          "duration": 0.453125
        },
        {
          "name": "B3",
          "midi": 59,
          "time": 89.25520833333334,
          "velocity": 0.8582677165354331,
          "duration": 0.2864583333333286
        },
        {
          "name": "G4",
          "midi": 67,
          "time": 89.50520833333334,
          "velocity": 0.905511811023622,
          "duration": 0.2343749999999858
        },
        {
          "name": "B4",
          "midi": 71,
          "time": 89.50520833333334,
          "velocity": 0.9763779527559056,
          "duration": 0.23958333333331439
        },
        {
          "name": "E4",
          "midi": 64,
          "time": 89.51041666666667,
          "velocity": 0.7480314960629921,
          "duration": 0.2291666666666572
        },
        {
          "name": "F3",
          "midi": 53,
          "time": 90.01041666666666,
          "velocity": 0.5511811023622047,
          "duration": 0.9739583333333428
        },
        {
          "name": "F4",
          "midi": 65,
          "time": 90.02083333333333,
          "velocity": 0.4566929133858268,
          "duration": 0.375
        },
        {
          "name": "C5",
          "midi": 72,
          "time": 90.02083333333333,
          "velocity": 0.5196850393700787,
          "duration": 0.4166666666666714
        },
        {
          "name": "A4",
          "midi": 69,
          "time": 90.02604166666666,
          "velocity": 0.6141732283464567,
          "duration": 0.3958333333333428
        },
        {
          "name": "F2",
          "midi": 41,
          "time": 90.265625,
          "velocity": 0.4566929133858268,
          "duration": 1.3229166666666572
        },
        {
          "name": "F4",
          "midi": 65,
          "time": 90.52083333333333,
          "velocity": 0.6535433070866141,
          "duration": 0.6458333333333428
        },
        {
          "name": "F3",
          "midi": 53,
          "time": 91.24479166666667,
          "velocity": 1,
          "duration": 0.4791666666666572
        },
        {
          "name": "F4",
          "midi": 65,
          "time": 91.484375,
          "velocity": 0.5984251968503937,
          "duration": 0.3333333333333286
        },
        {
          "name": "C5",
          "midi": 72,
          "time": 91.48958333333333,
          "velocity": 0.6299212598425197,
          "duration": 0.3229166666666714
        },
        {
          "name": "A4",
          "midi": 69,
          "time": 91.48958333333333,
          "velocity": 0.7401574803149606,
          "duration": 0.3229166666666714
        },
        {
          "name": "C3",
          "midi": 48,
          "time": 92.01041666666666,
          "velocity": 0.5511811023622047,
          "duration": 0.9739583333333428
        },
        {
          "name": "C4",
          "midi": 60,
          "time": 92.02083333333333,
          "velocity": 0.4566929133858268,
          "duration": 0.375
        },
        {
          "name": "G4",
          "midi": 67,
          "time": 92.02083333333333,
          "velocity": 0.5196850393700787,
          "duration": 0.4166666666666714
        },
        {
          "name": "E4",
          "midi": 64,
          "time": 92.02604166666666,
          "velocity": 0.6141732283464567,
          "duration": 0.3958333333333428
        },
        {
          "name": "C2",
          "midi": 36,
          "time": 92.265625,
          "velocity": 0.4566929133858268,
          "duration": 1.3229166666666572
        },
        {
          "name": "C4",
          "midi": 60,
          "time": 92.52083333333333,
          "velocity": 0.6535433070866141,
          "duration": 0.6458333333333428
        },
        {
          "name": "C3",
          "midi": 48,
          "time": 93.24479166666667,
          "velocity": 1,
          "duration": 0.4791666666666572
        },
        {
          "name": "C4",
          "midi": 60,
          "time": 93.484375,
          "velocity": 0.5984251968503937,
          "duration": 0.3333333333333286
        },
        {
          "name": "G4",
          "midi": 67,
          "time": 93.48958333333333,
          "velocity": 0.6299212598425197,
          "duration": 0.3229166666666714
        },
        {
          "name": "E4",
          "midi": 64,
          "time": 93.48958333333333,
          "velocity": 0.7401574803149606,
          "duration": 0.3229166666666714
        },
        {
          "name": "D5",
          "midi": 74,
          "time": 94.01041666666666,
          "velocity": 0.5905511811023622,
          "duration": 0.2968749999999858
        },
        {
          "name": "G2",
          "midi": 43,
          "time": 94.01041666666666,
          "velocity": 0.44881889763779526,
          "duration": 1.5260416666666572
        },
        {
          "name": "G4",
          "midi": 67,
          "time": 94.01562499999999,
          "velocity": 0.7086614173228346,
          "duration": 0.2916666666666572
        },
        {
          "name": "B4",
          "midi": 71,
          "time": 94.02083333333331,
          "velocity": 0.7716535433070866,
          "duration": 0.2708333333333286
        },
        {
          "name": "D6",
          "midi": 86,
          "time": 94.88541666666664,
          "velocity": 0.6299212598425197,
          "duration": 0.1927083333333428
        },
        {
          "name": "B5",
          "midi": 83,
          "time": 94.93229166666664,
          "velocity": 0.6377952755905512,
          "duration": 0.1875000000000142
        },
        {
          "name": "G5",
          "midi": 79,
          "time": 94.95833333333331,
          "velocity": 0.7952755905511811,
          "duration": 0.1979166666666714
        },
        {
          "name": "D5",
          "midi": 74,
          "time": 95.81249999999999,
          "velocity": 0.33858267716535434,
          "duration": 0.5677083333333286
        },
        {
          "name": "B4",
          "midi": 71,
          "time": 95.84374999999999,
          "velocity": 0.5669291338582677,
          "duration": 0.5520833333333286
        },
        {
          "name": "G4",
          "midi": 67,
          "time": 95.91145833333331,
          "velocity": 0.6377952755905512,
          "duration": 0.5
        },
        {
          "name": "G2",
          "midi": 43,
          "time": 96.00520833333331,
          "velocity": 0.5039370078740157,
          "duration": 0.453125
        },
        {
          "name": "G2",
          "midi": 43,
          "time": 96.75520833333331,
          "velocity": 0.8267716535433071,
          "duration": 0.4166666666666572
        },
        {
          "name": "D4",
          "midi": 62,
          "time": 96.99999999999999,
          "velocity": 0.7480314960629921,
          "duration": 0.3281249999999858
        },
        {
          "name": "G4",
          "midi": 67,
          "time": 97.00520833333331,
          "velocity": 0.7716535433070866,
          "duration": 0.5052083333333144
        },
        {
          "name": "B4",
          "midi": 71,
          "time": 97.01041666666664,
          "velocity": 0.7480314960629921,
          "duration": 0.4947916666666572
        },
        {
          "name": "G2",
          "midi": 43,
          "time": 97.24999999999997,
          "velocity": 1,
          "duration": 0.546875
        },
        {
          "name": "D4",
          "midi": 62,
          "time": 97.51041666666663,
          "velocity": 1,
          "duration": 0.3020833333333428
        },
        {
          "name": "G4",
          "midi": 67,
          "time": 97.7708333333333,
          "velocity": 0.7716535433070866,
          "duration": 0.06250000000001421
        },
        {
          "name": "C4",
          "midi": 60,
          "time": 97.99999999999999,
          "velocity": 0.5905511811023622,
          "duration": 0.7291666666666714
        },
        {
          "name": "A4",
          "midi": 69,
          "time": 97.99999999999999,
          "velocity": 0.6377952755905512,
          "duration": 0.7447916666666714
        },
        {
          "name": "F2",
          "midi": 41,
          "time": 97.99999999999999,
          "velocity": 0.4566929133858268,
          "duration": 0.640625
        },
        {
          "name": "F4",
          "midi": 65,
          "time": 97.99999999999999,
          "velocity": 0.7244094488188977,
          "duration": 0.703125
        },
        {
          "name": "A3",
          "midi": 57,
          "time": 97.99999999999999,
          "velocity": 0.5433070866141733,
          "duration": 0.7656250000000142
        },
        {
          "name": "F2",
          "midi": 41,
          "time": 98.75520833333333,
          "velocity": 0.6850393700787402,
          "duration": 0.390625
        },
        {
          "name": "A4",
          "midi": 69,
          "time": 98.98958333333333,
          "velocity": 0.7480314960629921,
          "duration": 0.2447916666666714
        },
        {
          "name": "A3",
          "midi": 57,
          "time": 98.98958333333333,
          "velocity": 0.6535433070866141,
          "duration": 0.2604166666666714
        },
        {
          "name": "C4",
          "midi": 60,
          "time": 99,
          "velocity": 0.8582677165354331,
          "duration": 0.2447916666666714
        },
        {
          "name": "F4",
          "midi": 65,
          "time": 99,
          "velocity": 0.7480314960629921,
          "duration": 0.234375
        },
        {
          "name": "F2",
          "midi": 41,
          "time": 99.40104166666667,
          "velocity": 0.5039370078740157,
          "duration": 0.041666666666671404
        },
        {
          "name": "A4",
          "midi": 69,
          "time": 99.47916666666667,
          "velocity": 1,
          "duration": 0.2083333333333286
        },
        {
          "name": "F4",
          "midi": 65,
          "time": 99.47916666666667,
          "velocity": 1,
          "duration": 0.2135416666666572
        },
        {
          "name": "C4",
          "midi": 60,
          "time": 99.484375,
          "velocity": 1,
          "duration": 0.2239583333333286
        },
        {
          "name": "A3",
          "midi": 57,
          "time": 99.484375,
          "velocity": 0.8582677165354331,
          "duration": 0.2239583333333286
        },
        {
          "name": "G3",
          "midi": 55,
          "time": 100,
          "velocity": 0.7480314960629921,
          "duration": 0.3749999999999858
        },
        {
          "name": "E4",
          "midi": 64,
          "time": 100.00520833333333,
          "velocity": 0.8818897637795275,
          "duration": 0.4010416666666572
        },
        {
          "name": "C2",
          "midi": 36,
          "time": 100.01041666666666,
          "velocity": 0.5039370078740157,
          "duration": 1.8385416666666714
        },
        {
          "name": "C3",
          "midi": 48,
          "time": 100.01041666666666,
          "velocity": 0.6535433070866141,
          "duration": 0.1770833333333286
        },
        {
          "name": "C4",
          "midi": 60,
          "time": 100.01562499999999,
          "velocity": 0.8582677165354331,
          "duration": 0.4166666666666714
        },
        {
          "name": "G4",
          "midi": 67,
          "time": 100.01562499999999,
          "velocity": 0.7401574803149606,
          "duration": 0.40625
        },
        {
          "name": "C3",
          "midi": 48,
          "time": 100.25520833333331,
          "velocity": 0.5905511811023622,
          "duration": 0.6562500000000142
        },
        {
          "name": "G3",
          "midi": 55,
          "time": 100.51041666666666,
          "velocity": 0.7244094488188977,
          "duration": 0.7604166666666714
        },
        {
          "name": "E4",
          "midi": 64,
          "time": 100.73437499999999,
          "velocity": 0.7480314960629921,
          "duration": 0.5572916666666714
        },
        {
          "name": "C4",
          "midi": 60,
          "time": 100.74479166666666,
          "velocity": 0.6771653543307087,
          "duration": 0.5677083333333286
        },
        {
          "name": "G4",
          "midi": 67,
          "time": 100.75520833333333,
          "velocity": 0.7086614173228346,
          "duration": 0.5572916666666572
        },
        {
          "name": "C3",
          "midi": 48,
          "time": 101.24479166666666,
          "velocity": 1,
          "duration": 0.6145833333333286
        },
        {
          "name": "G3",
          "midi": 55,
          "time": 101.36979166666666,
          "velocity": 0.9763779527559056,
          "duration": 0.5104166666666572
        },
        {
          "name": "C4",
          "midi": 60,
          "time": 101.49999999999999,
          "velocity": 0.7637795275590551,
          "duration": 0.3802083333333286
        },
        {
          "name": "E4",
          "midi": 64,
          "time": 101.62499999999999,
          "velocity": 0.8818897637795275,
          "duration": 0.2291666666666714
        },
        {
          "name": "G4",
          "midi": 67,
          "time": 101.76041666666666,
          "velocity": 1,
          "duration": 0.11979166666665719
        },
        {
          "name": "G2",
          "midi": 43,
          "time": 102.01041666666666,
          "velocity": 0.8267716535433071,
          "duration": 0.8437500000000142
        },
        {
          "name": "G3",
          "midi": 55,
          "time": 102.01041666666666,
          "velocity": 0.8582677165354331,
          "duration": 0.25
        },
        {
          "name": "D4",
          "midi": 62,
          "time": 102.01562499999999,
          "velocity": 0.7007874015748031,
          "duration": 0.2552083333333428
        },
        {
          "name": "B3",
          "midi": 59,
          "time": 102.02083333333331,
          "velocity": 0.7716535433070866,
          "duration": 0.2291666666666714
        },
        {
          "name": "D3",
          "midi": 50,
          "time": 102.28125,
          "velocity": 0.6377952755905512,
          "duration": 0.5729166666666714
        },
        {
          "name": "D4",
          "midi": 62,
          "time": 102.50520833333333,
          "velocity": 0.7244094488188977,
          "duration": 0.3385416666666714
        },
        {
          "name": "G3",
          "midi": 55,
          "time": 102.51041666666666,
          "velocity": 0.5748031496062992,
          "duration": 0.3333333333333428
        },
        {
          "name": "B3",
          "midi": 59,
          "time": 102.52083333333333,
          "velocity": 0.7716535433070866,
          "duration": 0.3125
        },
        {
          "name": "F#3",
          "midi": 54,
          "time": 103.01041666666669,
          "velocity": 0.8267716535433071,
          "duration": 0.84375
        },
        {
          "name": "D4",
          "midi": 62,
          "time": 103.01041666666669,
          "velocity": 0.8582677165354331,
          "duration": 0.2552083333333286
        },
        {
          "name": "B3",
          "midi": 59,
          "time": 103.01562500000001,
          "velocity": 0.6535433070866141,
          "duration": 0.2447916666666714
        },
        {
          "name": "A4",
          "midi": 69,
          "time": 103.01562500000001,
          "velocity": 0.7007874015748031,
          "duration": 0.2552083333333286
        },
        {
          "name": "F#4",
          "midi": 66,
          "time": 103.02083333333334,
          "velocity": 0.7716535433070866,
          "duration": 0.2291666666666714
        },
        {
          "name": "A3",
          "midi": 57,
          "time": 103.28125000000001,
          "velocity": 0.6377952755905512,
          "duration": 0.5729166666666714
        },
        {
          "name": "A4",
          "midi": 69,
          "time": 103.50520833333334,
          "velocity": 0.7244094488188977,
          "duration": 0.3385416666666714
        },
        {
          "name": "B3",
          "midi": 59,
          "time": 103.51041666666667,
          "velocity": 0.5748031496062992,
          "duration": 0.3437500000000142
        },
        {
          "name": "D4",
          "midi": 62,
          "time": 103.52083333333334,
          "velocity": 0.8582677165354331,
          "duration": 0.3229166666666714
        },
        {
          "name": "F#4",
          "midi": 66,
          "time": 103.52083333333334,
          "velocity": 0.7716535433070866,
          "duration": 0.3125
        },
        {
          "name": "E3",
          "midi": 52,
          "time": 104.00000000000003,
          "velocity": 0.5905511811023622,
          "duration": 0.1875
        },
        {
          "name": "E4",
          "midi": 64,
          "time": 104.00000000000003,
          "velocity": 0.8582677165354331,
          "duration": 0.4062499999999858
        },
        {
          "name": "B3",
          "midi": 59,
          "time": 104.00000000000003,
          "velocity": 0.7086614173228346,
          "duration": 0.3854166666666572
        },
        {
          "name": "E2",
          "midi": 40,
          "time": 104.00000000000003,
          "velocity": 0.5905511811023622,
          "duration": 0.744791666666643
        },
        {
          "name": "G4",
          "midi": 67,
          "time": 104.00000000000003,
          "velocity": 0.6850393700787402,
          "duration": 0.4062499999999858
        },
        {
          "name": "E3",
          "midi": 52,
          "time": 104.27083333333336,
          "velocity": 0.7637795275590551,
          "duration": 0.494791666666643
        },
        {
          "name": "B3",
          "midi": 59,
          "time": 104.50520833333334,
          "velocity": 1,
          "duration": 0.3802083333333144
        },
        {
          "name": "E4",
          "midi": 64,
          "time": 104.75,
          "velocity": 0.9291338582677166,
          "duration": 0.1510416666666572
        },
        {
          "name": "G4",
          "midi": 67,
          "time": 104.75,
          "velocity": 0.8267716535433071,
          "duration": 0.1458333333333286
        },
        {
          "name": "F#3",
          "midi": 54,
          "time": 104.99999999999999,
          "velocity": 0.6614173228346457,
          "duration": 0.932291666666643
        },
        {
          "name": "A3",
          "midi": 57,
          "time": 105.36458333333331,
          "velocity": 0.6614173228346457,
          "duration": 0.1562499999999858
        },
        {
          "name": "D4",
          "midi": 62,
          "time": 105.49479166666664,
          "velocity": 0.6850393700787402,
          "duration": 0.2916666666666572
        },
        {
          "name": "A4",
          "midi": 69,
          "time": 105.49999999999997,
          "velocity": 0.7244094488188977,
          "duration": 0.2864583333333286
        },
        {
          "name": "F#4",
          "midi": 66,
          "time": 105.5052083333333,
          "velocity": 0.7401574803149606,
          "duration": 0.2760416666666714
        },
        {
          "name": "B3",
          "midi": 59,
          "time": 105.51041666666663,
          "velocity": 0.5748031496062992,
          "duration": 0.21875
        },
        {
          "name": "A3",
          "midi": 57,
          "time": 105.7708333333333,
          "velocity": 0.4566929133858268,
          "duration": 0.078125
        },
        {
          "name": "B3",
          "midi": 59,
          "time": 105.99999999999996,
          "velocity": 0.7480314960629921,
          "duration": 0.3749999999999858
        },
        {
          "name": "G4",
          "midi": 67,
          "time": 106.00520833333329,
          "velocity": 0.8818897637795275,
          "duration": 0.4010416666666572
        },
        {
          "name": "G2",
          "midi": 43,
          "time": 106.01041666666661,
          "velocity": 0.5039370078740157,
          "duration": 0.1770833333333286
        },
        {
          "name": "D4",
          "midi": 62,
          "time": 106.01562499999994,
          "velocity": 0.8582677165354331,
          "duration": 0.4166666666666714
        },
        {
          "name": "B4",
          "midi": 71,
          "time": 106.01562499999994,
          "velocity": 0.7401574803149606,
          "duration": 0.40625
        },
        {
          "name": "G2",
          "midi": 43,
          "time": 106.25520833333327,
          "velocity": 0.5905511811023622,
          "duration": 0.6562500000000142
        },
        {
          "name": "B3",
          "midi": 59,
          "time": 106.51041666666661,
          "velocity": 0.7244094488188977,
          "duration": 0.7604166666666714
        },
        {
          "name": "G4",
          "midi": 67,
          "time": 106.73437499999994,
          "velocity": 0.7480314960629921,
          "duration": 0.5572916666666714
        },
        {
          "name": "D4",
          "midi": 62,
          "time": 106.74479166666661,
          "velocity": 0.6771653543307087,
          "duration": 0.5677083333333286
        },
        {
          "name": "B4",
          "midi": 71,
          "time": 106.75520833333329,
          "velocity": 0.7086614173228346,
          "duration": 0.5572916666666572
        },
        {
          "name": "G2",
          "midi": 43,
          "time": 107.24479166666661,
          "velocity": 1,
          "duration": 0.6041666666666714
        },
        {
          "name": "B3",
          "midi": 59,
          "time": 107.36979166666661,
          "velocity": 0.9763779527559056,
          "duration": 0.5104166666666714
        },
        {
          "name": "D4",
          "midi": 62,
          "time": 107.49999999999994,
          "velocity": 0.7637795275590551,
          "duration": 0.3802083333333428
        },
        {
          "name": "G4",
          "midi": 67,
          "time": 107.62499999999994,
          "velocity": 0.8818897637795275,
          "duration": 0.2291666666666714
        },
        {
          "name": "B4",
          "midi": 71,
          "time": 107.76041666666661,
          "velocity": 1,
          "duration": 0.1197916666666714
        },
        {
          "name": "F#3",
          "midi": 54,
          "time": 108.01041666666661,
          "velocity": 0.5511811023622047,
          "duration": 0.9739583333333286
        },
        {
          "name": "B3",
          "midi": 59,
          "time": 108.02083333333329,
          "velocity": 0.4566929133858268,
          "duration": 0.375
        },
        {
          "name": "D4",
          "midi": 62,
          "time": 108.02083333333329,
          "velocity": 0.6614173228346457,
          "duration": 0.40625
        },
        {
          "name": "A4",
          "midi": 69,
          "time": 108.02083333333329,
          "velocity": 0.5196850393700787,
          "duration": 0.4166666666666714
        },
        {
          "name": "F#4",
          "midi": 66,
          "time": 108.02604166666661,
          "velocity": 0.6141732283464567,
          "duration": 0.3958333333333428
        },
        {
          "name": "F#2",
          "midi": 42,
          "time": 108.26562499999996,
          "velocity": 0.4566929133858268,
          "duration": 1.322916666666643
        },
        {
          "name": "B3",
          "midi": 59,
          "time": 108.52083333333329,
          "velocity": 0.6535433070866141,
          "duration": 0.6875
        },
        {
          "name": "D4",
          "midi": 62,
          "time": 108.74479166666661,
          "velocity": 0.6850393700787402,
          "duration": 0.421875
        },
        {
          "name": "F#3",
          "midi": 54,
          "time": 109.24479166666661,
          "velocity": 1,
          "duration": 0.4791666666666572
        },
        {
          "name": "B3",
          "midi": 59,
          "time": 109.48437499999994,
          "velocity": 0.5984251968503937,
          "duration": 0.3333333333333286
        },
        {
          "name": "D4",
          "midi": 62,
          "time": 109.48437499999994,
          "velocity": 0.905511811023622,
          "duration": 0.3385416666666572
        },
        {
          "name": "A4",
          "midi": 69,
          "time": 109.48958333333327,
          "velocity": 0.6299212598425197,
          "duration": 0.3229166666666714
        },
        {
          "name": "F#4",
          "midi": 66,
          "time": 109.48958333333327,
          "velocity": 0.7401574803149606,
          "duration": 0.3229166666666714
        },
        {
          "name": "G4",
          "midi": 67,
          "time": 110.00520833333327,
          "velocity": 0.6614173228346457,
          "duration": 0.5468749999999858
        },
        {
          "name": "E4",
          "midi": 64,
          "time": 110.00520833333327,
          "velocity": 0.8582677165354331,
          "duration": 0.5104166666666572
        },
        {
          "name": "E3",
          "midi": 52,
          "time": 110.0104166666666,
          "velocity": 0.6535433070866141,
          "duration": 1.916666666666643
        },
        {
          "name": "B3",
          "midi": 59,
          "time": 110.0104166666666,
          "velocity": 0.6614173228346457,
          "duration": 0.4375
        },
        {
          "name": "E2",
          "midi": 40,
          "time": 110.2760416666666,
          "velocity": 0.6614173228346457,
          "duration": 3.3072916666666146
        },
        {
          "name": "B3",
          "midi": 59,
          "time": 110.51562499999993,
          "velocity": 0.6535433070866141,
          "duration": 0.9583333333333144
        },
        {
          "name": "E4",
          "midi": 64,
          "time": 110.76041666666659,
          "velocity": 0.8582677165354331,
          "duration": 0.6614583333333286
        },
        {
          "name": "G4",
          "midi": 67,
          "time": 110.77083333333326,
          "velocity": 0.6850393700787402,
          "duration": 0.6458333333333286
        },
        {
          "name": "B3",
          "midi": 59,
          "time": 111.64583333333324,
          "velocity": 0.7952755905511811,
          "duration": 1.5156249999999858
        },
        {
          "name": "E4",
          "midi": 64,
          "time": 111.77083333333324,
          "velocity": 0.8267716535433071,
          "duration": 0.5364583333333286
        },
        {
          "name": "G4",
          "midi": 67,
          "time": 112.01562499999991,
          "velocity": 0.7952755905511811,
          "duration": 0.2864583333333286
        },
        {
          "name": "E3",
          "midi": 52,
          "time": 112.02083333333324,
          "velocity": 0.6850393700787402,
          "duration": 1.0208333333333286
        },
        {
          "name": "E4",
          "midi": 64,
          "time": 112.47395833333324,
          "velocity": 0.6377952755905512,
          "duration": 0.6666666666666572
        },
        {
          "name": "G4",
          "midi": 67,
          "time": 112.74479166666657,
          "velocity": 0.7874015748031497,
          "duration": 0.375
        },
        {
          "name": "E3",
          "midi": 52,
          "time": 113.2499999999999,
          "velocity": 1,
          "duration": 0.354166666666643
        },
        {
          "name": "E4",
          "midi": 64,
          "time": 113.50520833333323,
          "velocity": 0.905511811023622,
          "duration": 0.3281249999999858
        },
        {
          "name": "B3",
          "midi": 59,
          "time": 113.51041666666656,
          "velocity": 0.7480314960629921,
          "duration": 0.3333333333333144
        },
        {
          "name": "G4",
          "midi": 67,
          "time": 113.51562499999989,
          "velocity": 0.7244094488188977,
          "duration": 0.3229166666666572
        },
        {
          "name": "A3",
          "midi": 57,
          "time": 113.99999999999987,
          "velocity": 0.7480314960629921,
          "duration": 0.3749999999999858
        },
        {
          "name": "F4",
          "midi": 65,
          "time": 114.0052083333332,
          "velocity": 0.8818897637795275,
          "duration": 0.4010416666666572
        },
        {
          "name": "F2",
          "midi": 41,
          "time": 114.01041666666653,
          "velocity": 0.5039370078740157,
          "duration": 0.1770833333333286
        },
        {
          "name": "C4",
          "midi": 60,
          "time": 114.01562499999986,
          "velocity": 0.8582677165354331,
          "duration": 0.4166666666666714
        },
        {
          "name": "A4",
          "midi": 69,
          "time": 114.01562499999986,
          "velocity": 0.7401574803149606,
          "duration": 0.40625
        },
        {
          "name": "F2",
          "midi": 41,
          "time": 114.25520833333319,
          "velocity": 0.5905511811023622,
          "duration": 0.6562500000000142
        },
        {
          "name": "A3",
          "midi": 57,
          "time": 114.51041666666653,
          "velocity": 0.7244094488188977,
          "duration": 0.7604166666666714
        },
        {
          "name": "F4",
          "midi": 65,
          "time": 114.73437499999986,
          "velocity": 0.7480314960629921,
          "duration": 0.5572916666666714
        },
        {
          "name": "C4",
          "midi": 60,
          "time": 114.74479166666653,
          "velocity": 0.6771653543307087,
          "duration": 0.5677083333333286
        },
        {
          "name": "A4",
          "midi": 69,
          "time": 114.7552083333332,
          "velocity": 0.7086614173228346,
          "duration": 0.5572916666666572
        },
        {
          "name": "F2",
          "midi": 41,
          "time": 115.24479166666653,
          "velocity": 1,
          "duration": 0.6041666666666714
        },
        {
          "name": "A3",
          "midi": 57,
          "time": 115.36979166666653,
          "velocity": 0.9763779527559056,
          "duration": 0.5104166666666714
        },
        {
          "name": "C4",
          "midi": 60,
          "time": 115.49999999999986,
          "velocity": 0.7637795275590551,
          "duration": 0.3802083333333428
        },
        {
          "name": "F4",
          "midi": 65,
          "time": 115.62499999999986,
          "velocity": 0.8818897637795275,
          "duration": 0.2291666666666714
        },
        {
          "name": "A4",
          "midi": 69,
          "time": 115.76041666666653,
          "velocity": 1,
          "duration": 0.1197916666666714
        },
        {
          "name": "G4",
          "midi": 67,
          "time": 115.99999999999987,
          "velocity": 0.8582677165354331,
          "duration": 0.9166666666666856
        },
        {
          "name": "C4",
          "midi": 60,
          "time": 115.99999999999987,
          "velocity": 0.8582677165354331,
          "duration": 0.8697916666666856
        },
        {
          "name": "C3",
          "midi": 48,
          "time": 115.99999999999987,
          "velocity": 0.5748031496062992,
          "duration": 0.6197916666666714
        },
        {
          "name": "C2",
          "midi": 36,
          "time": 115.99999999999987,
          "velocity": 0.5905511811023622,
          "duration": 1.7916666666666714
        },
        {
          "name": "E4",
          "midi": 64,
          "time": 116.0052083333332,
          "velocity": 0.952755905511811,
          "duration": 0.8541666666666856
        },
        {
          "name": "C3",
          "midi": 48,
          "time": 116.73958333333321,
          "velocity": 0.6535433070866141,
          "duration": 1.0520833333333286
        },
        {
          "name": "C4",
          "midi": 60,
          "time": 117.26562499999989,
          "velocity": 0.7952755905511811,
          "duration": 0.4635416666666572
        },
        {
          "name": "G4",
          "midi": 67,
          "time": 117.50520833333321,
          "velocity": 0.905511811023622,
          "duration": 0.2291666666666572
        },
        {
          "name": "E4",
          "midi": 64,
          "time": 117.51041666666654,
          "velocity": 0.9291338582677166,
          "duration": 0.234375
        },
        {
          "name": "G2",
          "midi": 43,
          "time": 117.99999999999987,
          "velocity": 0.5905511811023622,
          "duration": 0.1875
        },
        {
          "name": "G4",
          "midi": 67,
          "time": 117.99999999999987,
          "velocity": 0.8582677165354331,
          "duration": 0.4062499999999858
        },
        {
          "name": "D4",
          "midi": 62,
          "time": 117.99999999999987,
          "velocity": 0.7086614173228346,
          "duration": 0.3854166666666572
        },
        {
          "name": "B4",
          "midi": 71,
          "time": 117.99999999999987,
          "velocity": 0.6850393700787402,
          "duration": 0.4062499999999858
        },
        {
          "name": "G2",
          "midi": 43,
          "time": 118.2708333333332,
          "velocity": 0.7637795275590551,
          "duration": 0.4739583333333144
        },
        {
          "name": "D4",
          "midi": 62,
          "time": 118.50520833333319,
          "velocity": 1,
          "duration": 0.3802083333333144
        },
        {
          "name": "G4",
          "midi": 67,
          "time": 118.74999999999984,
          "velocity": 0.9291338582677166,
          "duration": 0.1510416666666572
        },
        {
          "name": "B4",
          "midi": 71,
          "time": 118.74999999999984,
          "velocity": 0.8267716535433071,
          "duration": 0.1458333333333286
        },
        {
          "name": "F#2",
          "midi": 42,
          "time": 118.99999999999983,
          "velocity": 0.5196850393700787,
          "duration": 0.9583333333333286
        },
        {
          "name": "F#3",
          "midi": 54,
          "time": 119.00520833333316,
          "velocity": 0.5748031496062992,
          "duration": 0.953125
        },
        {
          "name": "D4",
          "midi": 62,
          "time": 119.00520833333316,
          "velocity": 0.7480314960629921,
          "duration": 0.9583333333333286
        },
        {
          "name": "F#4",
          "midi": 66,
          "time": 119.01041666666649,
          "velocity": 0.7007874015748031,
          "duration": 0.9322916666666714
        },
        {
          "name": "A3",
          "midi": 57,
          "time": 119.01562499999982,
          "velocity": 0.7480314960629921,
          "duration": 0.9375000000000142
        },
        {
          "name": "B3",
          "midi": 59,
          "time": 119.01562499999982,
          "velocity": 0.7480314960629921,
          "duration": 0.9479166666666714
        },
        {
          "name": "E2",
          "midi": 40,
          "time": 119.99999999999982,
          "velocity": 0.6614173228346457,
          "duration": 0.9322916666666572
        },
        {
          "name": "G3",
          "midi": 55,
          "time": 120.36458333333314,
          "velocity": 0.6614173228346457,
          "duration": 0.15625
        },
        {
          "name": "E4",
          "midi": 64,
          "time": 120.49479166666647,
          "velocity": 0.6850393700787402,
          "duration": 0.2916666666666714
        },
        {
          "name": "G4",
          "midi": 67,
          "time": 120.4999999999998,
          "velocity": 0.7244094488188977,
          "duration": 0.2812500000000142
        },
        {
          "name": "B3",
          "midi": 59,
          "time": 120.51041666666647,
          "velocity": 0.5748031496062992,
          "duration": 0.21875
        },
        {
          "name": "G3",
          "midi": 55,
          "time": 120.77083333333314,
          "velocity": 0.4566929133858268,
          "duration": 0.078125
        },
        {
          "name": "F#3",
          "midi": 54,
          "time": 120.9999999999998,
          "velocity": 0.5905511811023622,
          "duration": 0.1875
        },
        {
          "name": "D4",
          "midi": 62,
          "time": 120.9999999999998,
          "velocity": 0.8582677165354331,
          "duration": 0.4062499999999858
        },
        {
          "name": "A3",
          "midi": 57,
          "time": 120.9999999999998,
          "velocity": 0.7086614173228346,
          "duration": 0.3854166666666572
        },
        {
          "name": "F#2",
          "midi": 42,
          "time": 120.9999999999998,
          "velocity": 0.5905511811023622,
          "duration": 0.744791666666643
        },
        {
          "name": "B3",
          "midi": 59,
          "time": 120.9999999999998,
          "velocity": 0.7244094488188977,
          "duration": 0.4374999999999858
        },
        {
          "name": "F#4",
          "midi": 66,
          "time": 120.9999999999998,
          "velocity": 0.6850393700787402,
          "duration": 0.4062499999999858
        },
        {
          "name": "F#3",
          "midi": 54,
          "time": 121.27083333333313,
          "velocity": 0.7637795275590551,
          "duration": 0.494791666666643
        },
        {
          "name": "A3",
          "midi": 57,
          "time": 121.50520833333312,
          "velocity": 1,
          "duration": 0.3802083333333144
        },
        {
          "name": "D4",
          "midi": 62,
          "time": 121.74999999999977,
          "velocity": 0.9291338582677166,
          "duration": 0.1510416666666572
        },
        {
          "name": "B3",
          "midi": 59,
          "time": 121.74999999999977,
          "velocity": 0.8267716535433071,
          "duration": 0.1510416666666572
        },
        {
          "name": "F#4",
          "midi": 66,
          "time": 121.74999999999977,
          "velocity": 0.8267716535433071,
          "duration": 0.1458333333333286
        },
        {
          "name": "G2",
          "midi": 43,
          "time": 122.01041666666643,
          "velocity": 0.5511811023622047,
          "duration": 0.9739583333333428
        },
        {
          "name": "G4",
          "midi": 67,
          "time": 122.0208333333331,
          "velocity": 0.4566929133858268,
          "duration": 0.375
        },
        {
          "name": "D5",
          "midi": 74,
          "time": 122.0208333333331,
          "velocity": 0.5196850393700787,
          "duration": 0.4166666666666714
        },
        {
          "name": "B4",
          "midi": 71,
          "time": 122.02604166666643,
          "velocity": 0.6141732283464567,
          "duration": 0.3958333333333428
        },
        {
          "name": "G4",
          "midi": 67,
          "time": 122.5208333333331,
          "velocity": 0.6535433070866141,
          "duration": 0.6458333333333428
        },
        {
          "name": "G2",
          "midi": 43,
          "time": 123.24479166666644,
          "velocity": 1,
          "duration": 0.3437499999999858
        },
        {
          "name": "G4",
          "midi": 67,
          "time": 123.48437499999977,
          "velocity": 0.5984251968503937,
          "duration": 0.3333333333333144
        },
        {
          "name": "D5",
          "midi": 74,
          "time": 123.4895833333331,
          "velocity": 0.6299212598425197,
          "duration": 0.3229166666666572
        },
        {
          "name": "B4",
          "midi": 71,
          "time": 123.4895833333331,
          "velocity": 0.7401574803149606,
          "duration": 0.3229166666666572
        },
        {
          "name": "A4",
          "midi": 69,
          "time": 123.99999999999974,
          "velocity": 0.8582677165354331,
          "duration": 0.9166666666666856
        },
        {
          "name": "D4",
          "midi": 62,
          "time": 123.99999999999974,
          "velocity": 0.8582677165354331,
          "duration": 0.8750000000000142
        },
        {
          "name": "F#3",
          "midi": 54,
          "time": 123.99999999999974,
          "velocity": 0.5748031496062992,
          "duration": 0.6197916666666714
        },
        {
          "name": "F#2",
          "midi": 42,
          "time": 123.99999999999974,
          "velocity": 0.5905511811023622,
          "duration": 1.7916666666666714
        },
        {
          "name": "B3",
          "midi": 59,
          "time": 124.00520833333307,
          "velocity": 0.6850393700787402,
          "duration": 0.864583333333357
        },
        {
          "name": "F#4",
          "midi": 66,
          "time": 124.00520833333307,
          "velocity": 0.952755905511811,
          "duration": 0.8541666666666856
        },
        {
          "name": "F#3",
          "midi": 54,
          "time": 124.73958333333309,
          "velocity": 0.6535433070866141,
          "duration": 1.0520833333333286
        },
        {
          "name": "B3",
          "midi": 59,
          "time": 125.26562499999976,
          "velocity": 0.7952755905511811,
          "duration": 0.4635416666666572
        },
        {
          "name": "A4",
          "midi": 69,
          "time": 125.50520833333309,
          "velocity": 0.905511811023622,
          "duration": 0.2291666666666572
        },
        {
          "name": "D4",
          "midi": 62,
          "time": 125.50520833333309,
          "velocity": 0.905511811023622,
          "duration": 0.2447916666666572
        },
        {
          "name": "F#4",
          "midi": 66,
          "time": 125.51041666666642,
          "velocity": 0.9291338582677166,
          "duration": 0.234375
        },
        {
          "name": "G4",
          "midi": 67,
          "time": 126.00520833333307,
          "velocity": 0.6614173228346457,
          "duration": 0.5468749999999858
        },
        {
          "name": "E4",
          "midi": 64,
          "time": 126.00520833333307,
          "velocity": 0.8582677165354331,
          "duration": 0.5104166666666572
        },
        {
          "name": "E3",
          "midi": 52,
          "time": 126.0104166666664,
          "velocity": 0.6535433070866141,
          "duration": 1.916666666666643
        },
        {
          "name": "B3",
          "midi": 59,
          "time": 126.0104166666664,
          "velocity": 0.6614173228346457,
          "duration": 0.4375
        },
        {
          "name": "E2",
          "midi": 40,
          "time": 126.2760416666664,
          "velocity": 0.6614173228346457,
          "duration": 3.307291666666714
        },
        {
          "name": "B3",
          "midi": 59,
          "time": 126.51562499999973,
          "velocity": 0.6535433070866141,
          "duration": 0.9583333333333144
        },
        {
          "name": "E4",
          "midi": 64,
          "time": 126.76041666666639,
          "velocity": 0.8582677165354331,
          "duration": 0.6614583333333286
        },
        {
          "name": "G4",
          "midi": 67,
          "time": 126.77083333333306,
          "velocity": 0.6850393700787402,
          "duration": 0.6458333333333286
        },
        {
          "name": "B3",
          "midi": 59,
          "time": 127.64583333333304,
          "velocity": 0.7952755905511811,
          "duration": 1.5156250000000426
        },
        {
          "name": "E4",
          "midi": 64,
          "time": 127.77083333333304,
          "velocity": 0.8267716535433071,
          "duration": 0.536458333333357
        },
        {
          "name": "G4",
          "midi": 67,
          "time": 128.01562499999972,
          "velocity": 0.7952755905511811,
          "duration": 0.2864583333333428
        },
        {
          "name": "E3",
          "midi": 52,
          "time": 128.02083333333306,
          "velocity": 0.6850393700787402,
          "duration": 1.0208333333333428
        },
        {
          "name": "E4",
          "midi": 64,
          "time": 128.47395833333306,
          "velocity": 0.6377952755905512,
          "duration": 0.6666666666666856
        },
        {
          "name": "G4",
          "midi": 67,
          "time": 128.7447916666664,
          "velocity": 0.7874015748031497,
          "duration": 0.375
        },
        {
          "name": "E3",
          "midi": 52,
          "time": 129.24999999999974,
          "velocity": 1,
          "duration": 0.35416666666671404
        },
        {
          "name": "E4",
          "midi": 64,
          "time": 129.5052083333331,
          "velocity": 0.905511811023622,
          "duration": 0.3281250000000284
        },
        {
          "name": "B3",
          "midi": 59,
          "time": 129.51041666666643,
          "velocity": 0.7480314960629921,
          "duration": 0.33333333333337123
        },
        {
          "name": "G4",
          "midi": 67,
          "time": 129.51562499999977,
          "velocity": 0.7244094488188977,
          "duration": 0.3229166666666856
        },
        {
          "name": "F3",
          "midi": 53,
          "time": 130.0104166666665,
          "velocity": 0.5511811023622047,
          "duration": 0.9739583333333144
        },
        {
          "name": "F4",
          "midi": 65,
          "time": 130.02083333333314,
          "velocity": 0.4566929133858268,
          "duration": 0.375
        },
        {
          "name": "C5",
          "midi": 72,
          "time": 130.02083333333314,
          "velocity": 0.5196850393700787,
          "duration": 0.4166666666666572
        },
        {
          "name": "A4",
          "midi": 69,
          "time": 130.0260416666665,
          "velocity": 0.6141732283464567,
          "duration": 0.3958333333333144
        },
        {
          "name": "F2",
          "midi": 41,
          "time": 130.2656249999998,
          "velocity": 0.4566929133858268,
          "duration": 1.3229166666666856
        },
        {
          "name": "F4",
          "midi": 65,
          "time": 130.52083333333314,
          "velocity": 0.6535433070866141,
          "duration": 0.6458333333333144
        },
        {
          "name": "F3",
          "midi": 53,
          "time": 131.24479166666646,
          "velocity": 1,
          "duration": 0.4791666666666856
        },
        {
          "name": "F4",
          "midi": 65,
          "time": 131.4843749999998,
          "velocity": 0.5984251968503937,
          "duration": 0.3333333333333428
        },
        {
          "name": "C5",
          "midi": 72,
          "time": 131.48958333333314,
          "velocity": 0.6299212598425197,
          "duration": 0.3229166666666572
        },
        {
          "name": "A4",
          "midi": 69,
          "time": 131.48958333333314,
          "velocity": 0.7401574803149606,
          "duration": 0.3229166666666572
        },
        {
          "name": "C3",
          "midi": 48,
          "time": 132.0104166666665,
          "velocity": 0.5511811023622047,
          "duration": 0.9739583333333144
        },
        {
          "name": "C4",
          "midi": 60,
          "time": 132.02083333333314,
          "velocity": 0.4566929133858268,
          "duration": 0.375
        },
        {
          "name": "G4",
          "midi": 67,
          "time": 132.02083333333314,
          "velocity": 0.5196850393700787,
          "duration": 0.4166666666666572
        },
        {
          "name": "E4",
          "midi": 64,
          "time": 132.0260416666665,
          "velocity": 0.6141732283464567,
          "duration": 0.3958333333333144
        },
        {
          "name": "C2",
          "midi": 36,
          "time": 132.2656249999998,
          "velocity": 0.4566929133858268,
          "duration": 1.3229166666666856
        },
        {
          "name": "C4",
          "midi": 60,
          "time": 132.52083333333314,
          "velocity": 0.6535433070866141,
          "duration": 0.6458333333333144
        },
        {
          "name": "C3",
          "midi": 48,
          "time": 133.24479166666646,
          "velocity": 1,
          "duration": 0.4791666666666856
        },
        {
          "name": "C4",
          "midi": 60,
          "time": 133.4843749999998,
          "velocity": 0.5984251968503937,
          "duration": 0.3333333333333428
        },
        {
          "name": "G4",
          "midi": 67,
          "time": 133.48958333333314,
          "velocity": 0.6299212598425197,
          "duration": 0.3229166666666572
        },
        {
          "name": "E4",
          "midi": 64,
          "time": 133.48958333333314,
          "velocity": 0.7401574803149606,
          "duration": 0.3229166666666572
        },
        {
          "name": "G2",
          "midi": 43,
          "time": 133.99999999999983,
          "velocity": 0.5905511811023622,
          "duration": 0.1875
        },
        {
          "name": "G4",
          "midi": 67,
          "time": 133.99999999999983,
          "velocity": 0.8582677165354331,
          "duration": 0.4062500000000284
        },
        {
          "name": "D4",
          "midi": 62,
          "time": 133.99999999999983,
          "velocity": 0.7086614173228346,
          "duration": 0.3854166666666856
        },
        {
          "name": "B4",
          "midi": 71,
          "time": 133.99999999999983,
          "velocity": 0.6850393700787402,
          "duration": 0.4062500000000284
        },
        {
          "name": "G2",
          "midi": 43,
          "time": 134.27083333333317,
          "velocity": 0.7637795275590551,
          "duration": 0.47395833333337123
        },
        {
          "name": "D4",
          "midi": 62,
          "time": 134.5052083333332,
          "velocity": 1,
          "duration": 0.38020833333337123
        },
        {
          "name": "G4",
          "midi": 67,
          "time": 134.7499999999999,
          "velocity": 0.9291338582677166,
          "duration": 0.15104166666668561
        },
        {
          "name": "B4",
          "midi": 71,
          "time": 134.7499999999999,
          "velocity": 0.8267716535433071,
          "duration": 0.1458333333333428
        },
        {
          "name": "D3",
          "midi": 50,
          "time": 134.99999999999991,
          "velocity": 0.6614173228346457,
          "duration": 0.9322916666666856
        },
        {
          "name": "A3",
          "midi": 57,
          "time": 135.36458333333326,
          "velocity": 0.6614173228346457,
          "duration": 0.15625
        },
        {
          "name": "F#4",
          "midi": 66,
          "time": 135.4947916666666,
          "velocity": 0.6850393700787402,
          "duration": 0.2916666666666572
        },
        {
          "name": "A4",
          "midi": 69,
          "time": 135.49999999999994,
          "velocity": 0.7244094488188977,
          "duration": 0.2812499999999716
        },
        {
          "name": "D4",
          "midi": 62,
          "time": 135.5104166666666,
          "velocity": 0.5748031496062992,
          "duration": 0.21875
        },
        {
          "name": "A3",
          "midi": 57,
          "time": 135.77083333333326,
          "velocity": 0.4566929133858268,
          "duration": 0.078125
        },
        {
          "name": "E3",
          "midi": 52,
          "time": 135.99999999999994,
          "velocity": 0.5905511811023622,
          "duration": 0.1875
        },
        {
          "name": "E4",
          "midi": 64,
          "time": 135.99999999999994,
          "velocity": 0.8582677165354331,
          "duration": 0.4062500000000284
        },
        {
          "name": "B3",
          "midi": 59,
          "time": 135.99999999999994,
          "velocity": 0.7086614173228346,
          "duration": 0.3854166666666856
        },
        {
          "name": "E2",
          "midi": 40,
          "time": 135.99999999999994,
          "velocity": 0.5905511811023622,
          "duration": 0.744791666666714
        },
        {
          "name": "G4",
          "midi": 67,
          "time": 135.99999999999994,
          "velocity": 0.6850393700787402,
          "duration": 0.4062500000000284
        },
        {
          "name": "E3",
          "midi": 52,
          "time": 136.2708333333333,
          "velocity": 0.7637795275590551,
          "duration": 0.49479166666671404
        },
        {
          "name": "B3",
          "midi": 59,
          "time": 136.50520833333331,
          "velocity": 1,
          "duration": 0.38020833333337123
        },
        {
          "name": "E4",
          "midi": 64,
          "time": 136.75,
          "velocity": 0.9291338582677166,
          "duration": 0.15104166666668561
        },
        {
          "name": "G4",
          "midi": 67,
          "time": 136.75,
          "velocity": 0.8267716535433071,
          "duration": 0.1458333333333428
        },
        {
          "name": "D3",
          "midi": 50,
          "time": 137.00000000000003,
          "velocity": 0.6614173228346457,
          "duration": 0.932291666666714
        },
        {
          "name": "A3",
          "midi": 57,
          "time": 137.36458333333337,
          "velocity": 0.6614173228346457,
          "duration": 0.15625000000002842
        },
        {
          "name": "D4",
          "midi": 62,
          "time": 137.4947916666667,
          "velocity": 0.6850393700787402,
          "duration": 0.2916666666666856
        },
        {
          "name": "A4",
          "midi": 69,
          "time": 137.50000000000006,
          "velocity": 0.7244094488188977,
          "duration": 0.2864583333333428
        },
        {
          "name": "F#4",
          "midi": 66,
          "time": 137.5052083333334,
          "velocity": 0.7401574803149606,
          "duration": 0.2760416666666572
        },
        {
          "name": "B3",
          "midi": 59,
          "time": 137.51041666666674,
          "velocity": 0.5748031496062992,
          "duration": 0.21875
        },
        {
          "name": "A3",
          "midi": 57,
          "time": 137.7708333333334,
          "velocity": 0.4566929133858268,
          "duration": 0.078125
        },
        {
          "name": "G2",
          "midi": 43,
          "time": 138.01041666666674,
          "velocity": 0.5511811023622047,
          "duration": 0.9739583333333144
        },
        {
          "name": "G4",
          "midi": 67,
          "time": 138.0208333333334,
          "velocity": 0.4566929133858268,
          "duration": 0.375
        },
        {
          "name": "D5",
          "midi": 74,
          "time": 138.0208333333334,
          "velocity": 0.5196850393700787,
          "duration": 0.4166666666666572
        },
        {
          "name": "B4",
          "midi": 71,
          "time": 138.02604166666674,
          "velocity": 0.6141732283464567,
          "duration": 0.3958333333333144
        },
        {
          "name": "G4",
          "midi": 67,
          "time": 138.5208333333334,
          "velocity": 0.6535433070866141,
          "duration": 0.6458333333333144
        },
        {
          "name": "G2",
          "midi": 43,
          "time": 139.2447916666667,
          "velocity": 1,
          "duration": 0.3437500000000284
        },
        {
          "name": "G4",
          "midi": 67,
          "time": 139.48437500000006,
          "velocity": 0.5984251968503937,
          "duration": 0.33333333333337123
        },
        {
          "name": "D5",
          "midi": 74,
          "time": 139.4895833333334,
          "velocity": 0.6299212598425197,
          "duration": 0.3229166666666856
        },
        {
          "name": "B4",
          "midi": 71,
          "time": 139.4895833333334,
          "velocity": 0.7401574803149606,
          "duration": 0.3229166666666856
        },
        {
          "name": "A4",
          "midi": 69,
          "time": 140.0000000000001,
          "velocity": 0.8582677165354331,
          "duration": 0.9166666666666288
        },
        {
          "name": "D4",
          "midi": 62,
          "time": 140.0000000000001,
          "velocity": 0.8582677165354331,
          "duration": 0.8749999999999716
        },
        {
          "name": "F#3",
          "midi": 54,
          "time": 140.0000000000001,
          "velocity": 0.5748031496062992,
          "duration": 0.6197916666666572
        },
        {
          "name": "F#2",
          "midi": 42,
          "time": 140.0000000000001,
          "velocity": 0.5905511811023622,
          "duration": 1.7916666666666572
        },
        {
          "name": "B3",
          "midi": 59,
          "time": 140.00520833333346,
          "velocity": 0.6850393700787402,
          "duration": 0.864583333333286
        },
        {
          "name": "F#4",
          "midi": 66,
          "time": 140.00520833333346,
          "velocity": 0.952755905511811,
          "duration": 0.8541666666666288
        },
        {
          "name": "F#3",
          "midi": 54,
          "time": 140.73958333333343,
          "velocity": 0.6535433070866141,
          "duration": 1.0520833333333428
        },
        {
          "name": "B3",
          "midi": 59,
          "time": 141.26562500000009,
          "velocity": 0.7952755905511811,
          "duration": 0.4635416666666856
        },
        {
          "name": "A4",
          "midi": 69,
          "time": 141.50520833333343,
          "velocity": 0.905511811023622,
          "duration": 0.22916666666668561
        },
        {
          "name": "D4",
          "midi": 62,
          "time": 141.50520833333343,
          "velocity": 0.905511811023622,
          "duration": 0.24479166666668561
        },
        {
          "name": "F#4",
          "midi": 66,
          "time": 141.51041666666677,
          "velocity": 0.9291338582677166,
          "duration": 0.234375
        },
        {
          "name": "G4",
          "midi": 67,
          "time": 142.00520833333346,
          "velocity": 0.6614173228346457,
          "duration": 0.5468750000000284
        },
        {
          "name": "E4",
          "midi": 64,
          "time": 142.00520833333346,
          "velocity": 0.8582677165354331,
          "duration": 0.5104166666666856
        },
        {
          "name": "E3",
          "midi": 52,
          "time": 142.0104166666668,
          "velocity": 0.6535433070866141,
          "duration": 1.916666666666714
        },
        {
          "name": "B3",
          "midi": 59,
          "time": 142.0104166666668,
          "velocity": 0.6614173228346457,
          "duration": 0.4375
        },
        {
          "name": "E2",
          "midi": 40,
          "time": 142.2760416666668,
          "velocity": 0.6614173228346457,
          "duration": 3.307291666666771
        },
        {
          "name": "B3",
          "midi": 59,
          "time": 142.51562500000014,
          "velocity": 0.6535433070866141,
          "duration": 0.9583333333333712
        },
        {
          "name": "E4",
          "midi": 64,
          "time": 142.76041666666683,
          "velocity": 0.8582677165354331,
          "duration": 0.6614583333333428
        },
        {
          "name": "G4",
          "midi": 67,
          "time": 142.77083333333348,
          "velocity": 0.6850393700787402,
          "duration": 0.6458333333333428
        },
        {
          "name": "B3",
          "midi": 59,
          "time": 143.6458333333335,
          "velocity": 0.7952755905511811,
          "duration": 1.5156250000000284
        },
        {
          "name": "E4",
          "midi": 64,
          "time": 143.7708333333335,
          "velocity": 0.8267716535433071,
          "duration": 0.5364583333333428
        },
        {
          "name": "G4",
          "midi": 67,
          "time": 144.01562500000017,
          "velocity": 0.7952755905511811,
          "duration": 0.2864583333333428
        },
        {
          "name": "E3",
          "midi": 52,
          "time": 144.0208333333335,
          "velocity": 0.6850393700787402,
          "duration": 1.0208333333333428
        },
        {
          "name": "E4",
          "midi": 64,
          "time": 144.4739583333335,
          "velocity": 0.6377952755905512,
          "duration": 0.6666666666666856
        },
        {
          "name": "G4",
          "midi": 67,
          "time": 144.74479166666686,
          "velocity": 0.7874015748031497,
          "duration": 0.375
        },
        {
          "name": "E3",
          "midi": 52,
          "time": 145.2500000000002,
          "velocity": 1,
          "duration": 0.35416666666671404
        },
        {
          "name": "E4",
          "midi": 64,
          "time": 145.50520833333354,
          "velocity": 0.905511811023622,
          "duration": 0.3281250000000284
        },
        {
          "name": "B3",
          "midi": 59,
          "time": 145.51041666666688,
          "velocity": 0.7480314960629921,
          "duration": 0.33333333333337123
        },
        {
          "name": "G4",
          "midi": 67,
          "time": 145.51562500000023,
          "velocity": 0.7244094488188977,
          "duration": 0.3229166666666856
        },
        {
          "name": "C5",
          "midi": 72,
          "time": 146.00000000000026,
          "velocity": 0.8582677165354331,
          "duration": 0.9166666666666288
        },
        {
          "name": "F4",
          "midi": 65,
          "time": 146.00000000000026,
          "velocity": 0.8582677165354331,
          "duration": 0.8697916666666288
        },
        {
          "name": "F3",
          "midi": 53,
          "time": 146.00000000000026,
          "velocity": 0.5748031496062992,
          "duration": 0.6197916666666572
        },
        {
          "name": "F2",
          "midi": 41,
          "time": 146.00000000000026,
          "velocity": 0.5905511811023622,
          "duration": 1.7916666666666572
        },
        {
          "name": "A4",
          "midi": 69,
          "time": 146.0052083333336,
          "velocity": 0.952755905511811,
          "duration": 0.8541666666666288
        },
        {
          "name": "F3",
          "midi": 53,
          "time": 146.73958333333357,
          "velocity": 0.6535433070866141,
          "duration": 1.0520833333333428
        },
        {
          "name": "F4",
          "midi": 65,
          "time": 147.26562500000023,
          "velocity": 0.7952755905511811,
          "duration": 0.4635416666666856
        },
        {
          "name": "C5",
          "midi": 72,
          "time": 147.50520833333357,
          "velocity": 0.905511811023622,
          "duration": 0.22916666666668561
        },
        {
          "name": "A4",
          "midi": 69,
          "time": 147.5104166666669,
          "velocity": 0.9291338582677166,
          "duration": 0.234375
        },
        {
          "name": "G4",
          "midi": 67,
          "time": 148.00000000000026,
          "velocity": 0.8582677165354331,
          "duration": 0.9166666666666288
        },
        {
          "name": "C4",
          "midi": 60,
          "time": 148.00000000000026,
          "velocity": 0.8582677165354331,
          "duration": 0.8697916666666288
        },
        {
          "name": "C3",
          "midi": 48,
          "time": 148.00000000000026,
          "velocity": 0.5748031496062992,
          "duration": 0.6197916666666572
        },
        {
          "name": "C2",
          "midi": 36,
          "time": 148.00000000000026,
          "velocity": 0.5905511811023622,
          "duration": 1.7916666666666572
        },
        {
          "name": "E4",
          "midi": 64,
          "time": 148.0052083333336,
          "velocity": 0.952755905511811,
          "duration": 0.8541666666666288
        },
        {
          "name": "C3",
          "midi": 48,
          "time": 148.73958333333357,
          "velocity": 0.6535433070866141,
          "duration": 1.0520833333333428
        },
        {
          "name": "C4",
          "midi": 60,
          "time": 149.26562500000023,
          "velocity": 0.7952755905511811,
          "duration": 0.4635416666666856
        },
        {
          "name": "G4",
          "midi": 67,
          "time": 149.50520833333357,
          "velocity": 0.905511811023622,
          "duration": 0.22916666666668561
        },
        {
          "name": "E4",
          "midi": 64,
          "time": 149.5104166666669,
          "velocity": 0.9291338582677166,
          "duration": 0.234375
        },
        {
          "name": "G2",
          "midi": 43,
          "time": 150.00000000000026,
          "velocity": 0.5905511811023622,
          "duration": 0.1875
        },
        {
          "name": "G4",
          "midi": 67,
          "time": 150.00000000000026,
          "velocity": 0.8582677165354331,
          "duration": 0.4062500000000284
        },
        {
          "name": "D4",
          "midi": 62,
          "time": 150.00000000000026,
          "velocity": 0.7086614173228346,
          "duration": 0.3854166666666856
        },
        {
          "name": "B4",
          "midi": 71,
          "time": 150.00000000000026,
          "velocity": 0.6850393700787402,
          "duration": 0.4062500000000284
        },
        {
          "name": "G2",
          "midi": 43,
          "time": 150.2708333333336,
          "velocity": 0.7637795275590551,
          "duration": 0.47395833333337123
        },
        {
          "name": "D4",
          "midi": 62,
          "time": 150.50520833333363,
          "velocity": 1,
          "duration": 0.38020833333337123
        },
        {
          "name": "G4",
          "midi": 67,
          "time": 150.7500000000003,
          "velocity": 0.9291338582677166,
          "duration": 0.15104166666668561
        },
        {
          "name": "B4",
          "midi": 71,
          "time": 150.7500000000003,
          "velocity": 0.8267716535433071,
          "duration": 0.1458333333333428
        },
        {
          "name": "F#3",
          "midi": 54,
          "time": 151.00000000000034,
          "velocity": 0.6614173228346457,
          "duration": 0.932291666666714
        },
        {
          "name": "A3",
          "midi": 57,
          "time": 151.36458333333368,
          "velocity": 0.6614173228346457,
          "duration": 0.15625000000002842
        },
        {
          "name": "D4",
          "midi": 62,
          "time": 151.49479166666703,
          "velocity": 0.6850393700787402,
          "duration": 0.2916666666666856
        },
        {
          "name": "A4",
          "midi": 69,
          "time": 151.50000000000037,
          "velocity": 0.7244094488188977,
          "duration": 0.2864583333333428
        },
        {
          "name": "F#4",
          "midi": 66,
          "time": 151.5052083333337,
          "velocity": 0.7401574803149606,
          "duration": 0.2760416666666572
        },
        {
          "name": "B3",
          "midi": 59,
          "time": 151.51041666666706,
          "velocity": 0.5748031496062992,
          "duration": 0.21875
        },
        {
          "name": "A3",
          "midi": 57,
          "time": 151.7708333333337,
          "velocity": 0.4566929133858268,
          "duration": 0.078125
        },
        {
          "name": "E2",
          "midi": 40,
          "time": 152.0000000000004,
          "velocity": 0.5196850393700787,
          "duration": 0.9583333333333428
        },
        {
          "name": "E3",
          "midi": 52,
          "time": 152.00520833333374,
          "velocity": 0.5748031496062992,
          "duration": 0.953125
        },
        {
          "name": "E4",
          "midi": 64,
          "time": 152.00520833333374,
          "velocity": 0.7480314960629921,
          "duration": 0.9583333333333428
        },
        {
          "name": "G4",
          "midi": 67,
          "time": 152.01041666666708,
          "velocity": 0.7007874015748031,
          "duration": 0.9322916666666572
        },
        {
          "name": "B3",
          "midi": 59,
          "time": 152.01562500000043,
          "velocity": 0.7480314960629921,
          "duration": 0.9374999999999716
        },
        {
          "name": "F#2",
          "midi": 42,
          "time": 153.00000000000043,
          "velocity": 0.5196850393700787,
          "duration": 0.9583333333333428
        },
        {
          "name": "F#3",
          "midi": 54,
          "time": 153.00520833333377,
          "velocity": 0.5748031496062992,
          "duration": 0.953125
        },
        {
          "name": "D4",
          "midi": 62,
          "time": 153.00520833333377,
          "velocity": 0.7480314960629921,
          "duration": 0.9583333333333428
        },
        {
          "name": "F#4",
          "midi": 66,
          "time": 153.0104166666671,
          "velocity": 0.7007874015748031,
          "duration": 0.9322916666666572
        },
        {
          "name": "A3",
          "midi": 57,
          "time": 153.01562500000045,
          "velocity": 0.7480314960629921,
          "duration": 0.9374999999999716
        },
        {
          "name": "B3",
          "midi": 59,
          "time": 153.01562500000045,
          "velocity": 0.7480314960629921,
          "duration": 0.9479166666666572
        },
        {
          "name": "G5",
          "midi": 79,
          "time": 154.02083333333377,
          "velocity": 0.5984251968503937,
          "duration": 0.8958333333333428
        },
        {
          "name": "D5",
          "midi": 74,
          "time": 154.02083333333377,
          "velocity": 0.7637795275590551,
          "duration": 0.875
        },
        {
          "name": "G2",
          "midi": 43,
          "time": 154.02083333333377,
          "velocity": 0.5748031496062992,
          "duration": 1.75
        },
        {
          "name": "B4",
          "midi": 71,
          "time": 154.0260416666671,
          "velocity": 0.5433070866141733,
          "duration": 0.8125
        },
        {
          "name": "G4",
          "midi": 67,
          "time": 154.0260416666671,
          "velocity": 0.4566929133858268,
          "duration": 0.5677083333333428
        },
        {
          "name": "G4",
          "midi": 67,
          "time": 154.75000000000045,
          "velocity": 0.7480314960629921,
          "duration": 1.0052083333333144
        },
        {
          "name": "B4",
          "midi": 71,
          "time": 155.2447916666671,
          "velocity": 0.5039370078740157,
          "duration": 0.4635416666666572
        },
        {
          "name": "G5",
          "midi": 79,
          "time": 155.4791666666671,
          "velocity": 1,
          "duration": 0.21875
        },
        {
          "name": "D5",
          "midi": 74,
          "time": 155.48437500000045,
          "velocity": 0.7401574803149606,
          "duration": 0.22395833333331439
        },
        {
          "name": "F#3",
          "midi": 54,
          "time": 156.0104166666671,
          "velocity": 0.5511811023622047,
          "duration": 0.9739583333333428
        },
        {
          "name": "B3",
          "midi": 59,
          "time": 156.02083333333377,
          "velocity": 0.4566929133858268,
          "duration": 0.375
        },
        {
          "name": "D4",
          "midi": 62,
          "time": 156.02083333333377,
          "velocity": 0.6614173228346457,
          "duration": 0.40625
        },
        {
          "name": "A4",
          "midi": 69,
          "time": 156.02083333333377,
          "velocity": 0.5196850393700787,
          "duration": 0.4166666666666572
        },
        {
          "name": "F#4",
          "midi": 66,
          "time": 156.0260416666671,
          "velocity": 0.6141732283464567,
          "duration": 0.3958333333333144
        },
        {
          "name": "F#2",
          "midi": 42,
          "time": 156.26562500000043,
          "velocity": 0.4566929133858268,
          "duration": 1.322916666666714
        },
        {
          "name": "B3",
          "midi": 59,
          "time": 156.52083333333377,
          "velocity": 0.6535433070866141,
          "duration": 0.6875
        },
        {
          "name": "D4",
          "midi": 62,
          "time": 156.7447916666671,
          "velocity": 0.6850393700787402,
          "duration": 0.421875
        },
        {
          "name": "F#3",
          "midi": 54,
          "time": 157.2447916666671,
          "velocity": 1,
          "duration": 0.4791666666666856
        },
        {
          "name": "B3",
          "midi": 59,
          "time": 157.48437500000045,
          "velocity": 0.5984251968503937,
          "duration": 0.3333333333333428
        },
        {
          "name": "D4",
          "midi": 62,
          "time": 157.48437500000045,
          "velocity": 0.905511811023622,
          "duration": 0.3385416666666856
        },
        {
          "name": "A4",
          "midi": 69,
          "time": 157.4895833333338,
          "velocity": 0.6299212598425197,
          "duration": 0.3229166666666572
        },
        {
          "name": "F#4",
          "midi": 66,
          "time": 157.4895833333338,
          "velocity": 0.7401574803149606,
          "duration": 0.3229166666666572
        },
        {
          "name": "G4",
          "midi": 67,
          "time": 158.0052083333338,
          "velocity": 0.6614173228346457,
          "duration": 0.5468750000000284
        },
        {
          "name": "E4",
          "midi": 64,
          "time": 158.0052083333338,
          "velocity": 0.8582677165354331,
          "duration": 0.5104166666666856
        },
        {
          "name": "E3",
          "midi": 52,
          "time": 158.01041666666714,
          "velocity": 0.6535433070866141,
          "duration": 1.916666666666714
        },
        {
          "name": "B3",
          "midi": 59,
          "time": 158.01041666666714,
          "velocity": 0.6614173228346457,
          "duration": 0.4375
        },
        {
          "name": "E2",
          "midi": 40,
          "time": 158.27604166666714,
          "velocity": 0.6614173228346457,
          "duration": 3.307291666666771
        },
        {
          "name": "B3",
          "midi": 59,
          "time": 158.51562500000048,
          "velocity": 0.6535433070866141,
          "duration": 0.9583333333333712
        },
        {
          "name": "E4",
          "midi": 64,
          "time": 158.76041666666717,
          "velocity": 0.8582677165354331,
          "duration": 0.6614583333333428
        },
        {
          "name": "G4",
          "midi": 67,
          "time": 158.77083333333383,
          "velocity": 0.6850393700787402,
          "duration": 0.6458333333333428
        },
        {
          "name": "B3",
          "midi": 59,
          "time": 159.64583333333385,
          "velocity": 0.7952755905511811,
          "duration": 1.5156250000000284
        },
        {
          "name": "E4",
          "midi": 64,
          "time": 159.77083333333385,
          "velocity": 0.8267716535433071,
          "duration": 0.5364583333333428
        },
        {
          "name": "G4",
          "midi": 67,
          "time": 160.0156250000005,
          "velocity": 0.7952755905511811,
          "duration": 0.2864583333333428
        },
        {
          "name": "E3",
          "midi": 52,
          "time": 160.02083333333385,
          "velocity": 0.6850393700787402,
          "duration": 1.0208333333333428
        },
        {
          "name": "E4",
          "midi": 64,
          "time": 160.47395833333385,
          "velocity": 0.6377952755905512,
          "duration": 0.6666666666666856
        },
        {
          "name": "G4",
          "midi": 67,
          "time": 160.7447916666672,
          "velocity": 0.7874015748031497,
          "duration": 0.375
        },
        {
          "name": "E3",
          "midi": 52,
          "time": 161.25000000000054,
          "velocity": 1,
          "duration": 0.35416666666671404
        },
        {
          "name": "E4",
          "midi": 64,
          "time": 161.50520833333388,
          "velocity": 0.905511811023622,
          "duration": 0.3281250000000284
        },
        {
          "name": "B3",
          "midi": 59,
          "time": 161.51041666666723,
          "velocity": 0.7480314960629921,
          "duration": 0.33333333333337123
        },
        {
          "name": "G4",
          "midi": 67,
          "time": 161.51562500000057,
          "velocity": 0.7244094488188977,
          "duration": 0.3229166666666856
        },
        {
          "name": "A3",
          "midi": 57,
          "time": 162.0000000000006,
          "velocity": 0.5748031496062992,
          "duration": 1.8958333333333144
        },
        {
          "name": "F4",
          "midi": 65,
          "time": 162.0000000000006,
          "velocity": 0.6614173228346457,
          "duration": 1.875
        },
        {
          "name": "C5",
          "midi": 72,
          "time": 162.0000000000006,
          "velocity": 0.6614173228346457,
          "duration": 1.8854166666666572
        },
        {
          "name": "F5",
          "midi": 77,
          "time": 162.0000000000006,
          "velocity": 0.6614173228346457,
          "duration": 1.8854166666666572
        },
        {
          "name": "A5",
          "midi": 81,
          "time": 162.04166666666725,
          "velocity": 0.7401574803149606,
          "duration": 1.84375
        },
        {
          "name": "G3",
          "midi": 55,
          "time": 164.00000000000057,
          "velocity": 0.7480314960629921,
          "duration": 0.3750000000000284
        },
        {
          "name": "E4",
          "midi": 64,
          "time": 164.0052083333339,
          "velocity": 0.8818897637795275,
          "duration": 0.4010416666666856
        },
        {
          "name": "C2",
          "midi": 36,
          "time": 164.01041666666725,
          "velocity": 0.5039370078740157,
          "duration": 1.8385416666666572
        },
        {
          "name": "C3",
          "midi": 48,
          "time": 164.01041666666725,
          "velocity": 0.6535433070866141,
          "duration": 0.1770833333333428
        },
        {
          "name": "C4",
          "midi": 60,
          "time": 164.0156250000006,
          "velocity": 0.8582677165354331,
          "duration": 0.4166666666666572
        },
        {
          "name": "G4",
          "midi": 67,
          "time": 164.0156250000006,
          "velocity": 0.7401574803149606,
          "duration": 0.40625
        },
        {
          "name": "C3",
          "midi": 48,
          "time": 164.25520833333394,
          "velocity": 0.5905511811023622,
          "duration": 0.6562499999999716
        },
        {
          "name": "G3",
          "midi": 55,
          "time": 164.51041666666725,
          "velocity": 0.7244094488188977,
          "duration": 0.7604166666666572
        },
        {
          "name": "E4",
          "midi": 64,
          "time": 164.7343750000006,
          "velocity": 0.7480314960629921,
          "duration": 0.5572916666666572
        },
        {
          "name": "C4",
          "midi": 60,
          "time": 164.74479166666725,
          "velocity": 0.6771653543307087,
          "duration": 0.5677083333333428
        },
        {
          "name": "G4",
          "midi": 67,
          "time": 164.7552083333339,
          "velocity": 0.7086614173228346,
          "duration": 0.5572916666666856
        },
        {
          "name": "C3",
          "midi": 48,
          "time": 165.24479166666725,
          "velocity": 1,
          "duration": 0.6145833333333428
        },
        {
          "name": "G3",
          "midi": 55,
          "time": 165.36979166666725,
          "velocity": 0.9763779527559056,
          "duration": 0.5104166666666856
        },
        {
          "name": "C4",
          "midi": 60,
          "time": 165.5000000000006,
          "velocity": 0.7637795275590551,
          "duration": 0.3802083333333428
        },
        {
          "name": "E4",
          "midi": 64,
          "time": 165.6250000000006,
          "velocity": 0.8818897637795275,
          "duration": 0.2291666666666572
        },
        {
          "name": "G4",
          "midi": 67,
          "time": 165.76041666666725,
          "velocity": 1,
          "duration": 0.11979166666668561
        },
        {
          "name": "G2",
          "midi": 43,
          "time": 166.01041666666725,
          "velocity": 0.8267716535433071,
          "duration": 0.8437499999999716
        },
        {
          "name": "G3",
          "midi": 55,
          "time": 166.01041666666725,
          "velocity": 0.8582677165354331,
          "duration": 0.25
        },
        {
          "name": "D4",
          "midi": 62,
          "time": 166.0156250000006,
          "velocity": 0.7007874015748031,
          "duration": 0.2552083333333144
        },
        {
          "name": "B3",
          "midi": 59,
          "time": 166.02083333333394,
          "velocity": 0.7716535433070866,
          "duration": 0.2291666666666572
        },
        {
          "name": "D3",
          "midi": 50,
          "time": 166.28125000000057,
          "velocity": 0.6377952755905512,
          "duration": 0.5729166666666572
        },
        {
          "name": "D4",
          "midi": 62,
          "time": 166.5052083333339,
          "velocity": 0.7244094488188977,
          "duration": 0.3385416666666572
        },
        {
          "name": "G3",
          "midi": 55,
          "time": 166.51041666666725,
          "velocity": 0.5748031496062992,
          "duration": 0.3333333333333144
        },
        {
          "name": "B3",
          "midi": 59,
          "time": 166.5208333333339,
          "velocity": 0.7716535433070866,
          "duration": 0.3125
        },
        {
          "name": "D5",
          "midi": 74,
          "time": 167.00000000000054,
          "velocity": 0.7480314960629921,
          "duration": 0.3333333333333428
        },
        {
          "name": "A4",
          "midi": 69,
          "time": 167.00520833333388,
          "velocity": 0.8267716535433071,
          "duration": 0.328125
        },
        {
          "name": "F#4",
          "midi": 66,
          "time": 167.00520833333388,
          "velocity": 0.6377952755905512,
          "duration": 0.2552083333333428
        },
        {
          "name": "B3",
          "midi": 59,
          "time": 167.01041666666723,
          "velocity": 0.4566929133858268,
          "duration": 0.1458333333333428
        },
        {
          "name": "F#3",
          "midi": 54,
          "time": 167.01041666666723,
          "velocity": 0.6299212598425197,
          "duration": 0.609375
        },
        {
          "name": "B3",
          "midi": 59,
          "time": 167.24479166666723,
          "velocity": 0.6535433070866141,
          "duration": 0.4895833333333428
        },
        {
          "name": "F#4",
          "midi": 66,
          "time": 167.38020833333388,
          "velocity": 0.7086614173228346,
          "duration": 0.4531250000000284
        },
        {
          "name": "A4",
          "midi": 69,
          "time": 167.50520833333388,
          "velocity": 0.952755905511811,
          "duration": 0.31770833333337123
        },
        {
          "name": "D5",
          "midi": 74,
          "time": 167.7708333333339,
          "velocity": 0.7401574803149606,
          "duration": 0.078125
        },
        {
          "name": "E3",
          "midi": 52,
          "time": 168.01041666666723,
          "velocity": 0.8267716535433071,
          "duration": 0.8437499999999716
        },
        {
          "name": "E4",
          "midi": 64,
          "time": 168.01041666666723,
          "velocity": 0.8582677165354331,
          "duration": 0.25
        },
        {
          "name": "B4",
          "midi": 71,
          "time": 168.01562500000057,
          "velocity": 0.7007874015748031,
          "duration": 0.2552083333333144
        },
        {
          "name": "G4",
          "midi": 67,
          "time": 168.0208333333339,
          "velocity": 0.7716535433070866,
          "duration": 0.2291666666666572
        },
        {
          "name": "B3",
          "midi": 59,
          "time": 168.28125000000054,
          "velocity": 0.6377952755905512,
          "duration": 0.5729166666666572
        },
        {
          "name": "B4",
          "midi": 71,
          "time": 168.50520833333388,
          "velocity": 0.7244094488188977,
          "duration": 0.3385416666666572
        },
        {
          "name": "E4",
          "midi": 64,
          "time": 168.51041666666723,
          "velocity": 0.5748031496062992,
          "duration": 0.3333333333333144
        },
        {
          "name": "G4",
          "midi": 67,
          "time": 168.52083333333388,
          "velocity": 0.7716535433070866,
          "duration": 0.3125
        },
        {
          "name": "F#2",
          "midi": 42,
          "time": 169.0000000000005,
          "velocity": 0.5196850393700787,
          "duration": 0.9583333333333428
        },
        {
          "name": "F#3",
          "midi": 54,
          "time": 169.00520833333385,
          "velocity": 0.5748031496062992,
          "duration": 0.953125
        },
        {
          "name": "D4",
          "midi": 62,
          "time": 169.00520833333385,
          "velocity": 0.7480314960629921,
          "duration": 0.9583333333333428
        },
        {
          "name": "F#4",
          "midi": 66,
          "time": 169.0104166666672,
          "velocity": 0.7007874015748031,
          "duration": 0.9322916666666572
        },
        {
          "name": "A3",
          "midi": 57,
          "time": 169.01562500000054,
          "velocity": 0.7480314960629921,
          "duration": 0.9374999999999716
        },
        {
          "name": "B3",
          "midi": 59,
          "time": 169.01562500000054,
          "velocity": 0.7480314960629921,
          "duration": 0.9479166666666572
        },
        {
          "name": "G4",
          "midi": 67,
          "time": 170.00000000000054,
          "velocity": 0.48031496062992124,
          "duration": 0.1614583333333428
        },
        {
          "name": "D5",
          "midi": 74,
          "time": 170.00000000000054,
          "velocity": 0.7716535433070866,
          "duration": 0.3177083333333428
        },
        {
          "name": "B4",
          "midi": 71,
          "time": 170.00000000000054,
          "velocity": 0.5905511811023622,
          "duration": 0.2864583333333428
        },
        {
          "name": "G5",
          "midi": 79,
          "time": 170.00000000000054,
          "velocity": 0.7244094488188977,
          "duration": 0.328125
        },
        {
          "name": "B3",
          "midi": 59,
          "time": 170.00520833333388,
          "velocity": 0.6535433070866141,
          "duration": 1.6145833333333144
        },
        {
          "name": "G2",
          "midi": 43,
          "time": 170.02083333333388,
          "velocity": 0.6299212598425197,
          "duration": 1.75
        },
        {
          "name": "G4",
          "midi": 67,
          "time": 170.25520833333388,
          "velocity": 0.3228346456692913,
          "duration": 0.5989583333333428
        },
        {
          "name": "B4",
          "midi": 71,
          "time": 170.50000000000054,
          "velocity": 0.5905511811023622,
          "duration": 0.2083333333333428
        },
        {
          "name": "D5",
          "midi": 74,
          "time": 170.77083333333388,
          "velocity": 0.31496062992125984,
          "duration": 0.08333333333334281
        },
        {
          "name": "G5",
          "midi": 79,
          "time": 170.98958333333388,
          "velocity": 0.6771653543307087,
          "duration": 0.07291666666665719
        },
        {
          "name": "B5",
          "midi": 83,
          "time": 171.2604166666672,
          "velocity": 0.7480314960629921,
          "duration": 0.2239583333333428
        },
        {
          "name": "G4",
          "midi": 67,
          "time": 171.43750000000054,
          "velocity": 0.5511811023622047,
          "duration": 0.13020833333331439
        },
        {
          "name": "D6",
          "midi": 86,
          "time": 171.4947916666672,
          "velocity": 1,
          "duration": 0.09895833333331439
        },
        {
          "name": "B5",
          "midi": 83,
          "time": 171.61458333333385,
          "velocity": 0.8818897637795275,
          "duration": 0.11458333333334281
        },
        {
          "name": "G5",
          "midi": 79,
          "time": 171.75000000000054,
          "velocity": 0.7244094488188977,
          "duration": 0.09895833333334281
        },
        {
          "name": "D5",
          "midi": 74,
          "time": 171.89583333333388,
          "velocity": 0.44881889763779526,
          "duration": 0.026041666666657193
        },
        {
          "name": "F#3",
          "midi": 54,
          "time": 172.0104166666672,
          "velocity": 0.5511811023622047,
          "duration": 0.9739583333333428
        },
        {
          "name": "B3",
          "midi": 59,
          "time": 172.02083333333385,
          "velocity": 0.4566929133858268,
          "duration": 0.375
        },
        {
          "name": "D4",
          "midi": 62,
          "time": 172.02083333333385,
          "velocity": 0.6614173228346457,
          "duration": 0.40625
        },
        {
          "name": "A4",
          "midi": 69,
          "time": 172.02083333333385,
          "velocity": 0.5196850393700787,
          "duration": 0.4166666666666572
        },
        {
          "name": "F#4",
          "midi": 66,
          "time": 172.0260416666672,
          "velocity": 0.6141732283464567,
          "duration": 0.3958333333333144
        },
        {
          "name": "F#2",
          "midi": 42,
          "time": 172.2656250000005,
          "velocity": 0.4566929133858268,
          "duration": 1.322916666666714
        },
        {
          "name": "B3",
          "midi": 59,
          "time": 172.52083333333385,
          "velocity": 0.6535433070866141,
          "duration": 0.6875
        },
        {
          "name": "D4",
          "midi": 62,
          "time": 172.7447916666672,
          "velocity": 0.6850393700787402,
          "duration": 0.421875
        },
        {
          "name": "F#3",
          "midi": 54,
          "time": 173.2447916666672,
          "velocity": 1,
          "duration": 0.4791666666666856
        },
        {
          "name": "B3",
          "midi": 59,
          "time": 173.48437500000054,
          "velocity": 0.5984251968503937,
          "duration": 0.3333333333333428
        },
        {
          "name": "D4",
          "midi": 62,
          "time": 173.48437500000054,
          "velocity": 0.905511811023622,
          "duration": 0.3385416666666856
        },
        {
          "name": "A4",
          "midi": 69,
          "time": 173.48958333333388,
          "velocity": 0.6299212598425197,
          "duration": 0.3229166666666572
        },
        {
          "name": "F#4",
          "midi": 66,
          "time": 173.48958333333388,
          "velocity": 0.7401574803149606,
          "duration": 0.3229166666666572
        },
        {
          "name": "G4",
          "midi": 67,
          "time": 174.00520833333388,
          "velocity": 0.6614173228346457,
          "duration": 0.5468750000000284
        },
        {
          "name": "E4",
          "midi": 64,
          "time": 174.00520833333388,
          "velocity": 0.8582677165354331,
          "duration": 0.5104166666666856
        },
        {
          "name": "E3",
          "midi": 52,
          "time": 174.01041666666723,
          "velocity": 0.6535433070866141,
          "duration": 1.916666666666714
        },
        {
          "name": "B3",
          "midi": 59,
          "time": 174.01041666666723,
          "velocity": 0.6614173228346457,
          "duration": 0.4375
        },
        {
          "name": "E2",
          "midi": 40,
          "time": 174.27604166666723,
          "velocity": 0.6614173228346457,
          "duration": 3.307291666666771
        },
        {
          "name": "B3",
          "midi": 59,
          "time": 174.51562500000057,
          "velocity": 0.6535433070866141,
          "duration": 0.9583333333333712
        },
        {
          "name": "E4",
          "midi": 64,
          "time": 174.76041666666725,
          "velocity": 0.8582677165354331,
          "duration": 0.6614583333333428
        },
        {
          "name": "G4",
          "midi": 67,
          "time": 174.7708333333339,
          "velocity": 0.6850393700787402,
          "duration": 0.6458333333333428
        },
        {
          "name": "B3",
          "midi": 59,
          "time": 175.64583333333394,
          "velocity": 0.7952755905511811,
          "duration": 1.5156250000000284
        },
        {
          "name": "E4",
          "midi": 64,
          "time": 175.77083333333394,
          "velocity": 0.8267716535433071,
          "duration": 0.5364583333333428
        },
        {
          "name": "G4",
          "midi": 67,
          "time": 176.0156250000006,
          "velocity": 0.7952755905511811,
          "duration": 0.2864583333333428
        },
        {
          "name": "E3",
          "midi": 52,
          "time": 176.02083333333394,
          "velocity": 0.6850393700787402,
          "duration": 1.0208333333333428
        },
        {
          "name": "E4",
          "midi": 64,
          "time": 176.47395833333394,
          "velocity": 0.6377952755905512,
          "duration": 0.6666666666666856
        },
        {
          "name": "G4",
          "midi": 67,
          "time": 176.74479166666728,
          "velocity": 0.7874015748031497,
          "duration": 0.375
        },
        {
          "name": "E3",
          "midi": 52,
          "time": 177.25000000000063,
          "velocity": 1,
          "duration": 0.35416666666671404
        },
        {
          "name": "E4",
          "midi": 64,
          "time": 177.50520833333397,
          "velocity": 0.905511811023622,
          "duration": 0.3281250000000284
        },
        {
          "name": "B3",
          "midi": 59,
          "time": 177.5104166666673,
          "velocity": 0.7480314960629921,
          "duration": 0.33333333333337123
        },
        {
          "name": "G4",
          "midi": 67,
          "time": 177.51562500000065,
          "velocity": 0.7244094488188977,
          "duration": 0.3229166666666856
        },
        {
          "name": "A3",
          "midi": 57,
          "time": 178.00000000000068,
          "velocity": 0.5748031496062992,
          "duration": 1.8958333333333144
        },
        {
          "name": "F4",
          "midi": 65,
          "time": 178.00000000000068,
          "velocity": 0.6614173228346457,
          "duration": 1.875
        },
        {
          "name": "C5",
          "midi": 72,
          "time": 178.00000000000068,
          "velocity": 0.6614173228346457,
          "duration": 1.8854166666666572
        },
        {
          "name": "F5",
          "midi": 77,
          "time": 178.00000000000068,
          "velocity": 0.6614173228346457,
          "duration": 1.8854166666666572
        },
        {
          "name": "A5",
          "midi": 81,
          "time": 178.04166666666734,
          "velocity": 0.7401574803149606,
          "duration": 1.84375
        },
        {
          "name": "C3",
          "midi": 48,
          "time": 180.01041666666734,
          "velocity": 0.5511811023622047,
          "duration": 0.9739583333333144
        },
        {
          "name": "C4",
          "midi": 60,
          "time": 180.020833333334,
          "velocity": 0.4566929133858268,
          "duration": 0.375
        },
        {
          "name": "G4",
          "midi": 67,
          "time": 180.020833333334,
          "velocity": 0.5196850393700787,
          "duration": 0.4166666666666572
        },
        {
          "name": "E4",
          "midi": 64,
          "time": 180.02604166666734,
          "velocity": 0.6141732283464567,
          "duration": 0.3958333333333144
        },
        {
          "name": "C2",
          "midi": 36,
          "time": 180.26562500000065,
          "velocity": 0.4566929133858268,
          "duration": 1.3229166666666856
        },
        {
          "name": "C4",
          "midi": 60,
          "time": 180.520833333334,
          "velocity": 0.6535433070866141,
          "duration": 0.6458333333333144
        },
        {
          "name": "C3",
          "midi": 48,
          "time": 181.2447916666673,
          "velocity": 1,
          "duration": 0.4791666666666856
        },
        {
          "name": "C4",
          "midi": 60,
          "time": 181.48437500000065,
          "velocity": 0.5984251968503937,
          "duration": 0.3333333333333428
        },
        {
          "name": "G4",
          "midi": 67,
          "time": 181.489583333334,
          "velocity": 0.6299212598425197,
          "duration": 0.3229166666666572
        },
        {
          "name": "E4",
          "midi": 64,
          "time": 181.489583333334,
          "velocity": 0.7401574803149606,
          "duration": 0.3229166666666572
        },
        {
          "name": "G2",
          "midi": 43,
          "time": 182.00000000000068,
          "velocity": 0.6614173228346457,
          "duration": 0.9322916666666856
        },
        {
          "name": "B3",
          "midi": 59,
          "time": 182.36458333333402,
          "velocity": 0.6614173228346457,
          "duration": 0.15625
        },
        {
          "name": "G4",
          "midi": 67,
          "time": 182.49479166666737,
          "velocity": 0.6850393700787402,
          "duration": 0.2916666666666572
        },
        {
          "name": "B4",
          "midi": 71,
          "time": 182.5000000000007,
          "velocity": 0.7244094488188977,
          "duration": 0.2812499999999716
        },
        {
          "name": "D4",
          "midi": 62,
          "time": 182.51041666666737,
          "velocity": 0.5748031496062992,
          "duration": 0.21875
        },
        {
          "name": "B3",
          "midi": 59,
          "time": 182.77083333333402,
          "velocity": 0.4566929133858268,
          "duration": 0.078125
        },
        {
          "name": "D3",
          "midi": 50,
          "time": 183.0000000000007,
          "velocity": 0.6614173228346457,
          "duration": 0.9322916666666856
        },
        {
          "name": "A3",
          "midi": 57,
          "time": 183.36458333333405,
          "velocity": 0.6614173228346457,
          "duration": 0.15625
        },
        {
          "name": "F#4",
          "midi": 66,
          "time": 183.4947916666674,
          "velocity": 0.6850393700787402,
          "duration": 0.2916666666666572
        },
        {
          "name": "A4",
          "midi": 69,
          "time": 183.50000000000074,
          "velocity": 0.7244094488188977,
          "duration": 0.2812499999999716
        },
        {
          "name": "D4",
          "midi": 62,
          "time": 183.5104166666674,
          "velocity": 0.5748031496062992,
          "duration": 0.21875
        },
        {
          "name": "A3",
          "midi": 57,
          "time": 183.77083333333405,
          "velocity": 0.4566929133858268,
          "duration": 0.078125
        },
        {
          "name": "E2",
          "midi": 40,
          "time": 184.00000000000074,
          "velocity": 0.5196850393700787,
          "duration": 0.9583333333333428
        },
        {
          "name": "E3",
          "midi": 52,
          "time": 184.00520833333408,
          "velocity": 0.5748031496062992,
          "duration": 0.953125
        },
        {
          "name": "E4",
          "midi": 64,
          "time": 184.00520833333408,
          "velocity": 0.7480314960629921,
          "duration": 0.9583333333333428
        },
        {
          "name": "G4",
          "midi": 67,
          "time": 184.01041666666742,
          "velocity": 0.7007874015748031,
          "duration": 0.9322916666666572
        },
        {
          "name": "B3",
          "midi": 59,
          "time": 184.01562500000077,
          "velocity": 0.7480314960629921,
          "duration": 0.9374999999999716
        },
        {
          "name": "D3",
          "midi": 50,
          "time": 185.01041666666742,
          "velocity": 0.8267716535433071,
          "duration": 0.84375
        },
        {
          "name": "D4",
          "midi": 62,
          "time": 185.01041666666742,
          "velocity": 0.8582677165354331,
          "duration": 0.2552083333333428
        },
        {
          "name": "B3",
          "midi": 59,
          "time": 185.01562500000077,
          "velocity": 0.6535433070866141,
          "duration": 0.2447916666666572
        },
        {
          "name": "A4",
          "midi": 69,
          "time": 185.01562500000077,
          "velocity": 0.7007874015748031,
          "duration": 0.2552083333333428
        },
        {
          "name": "F#4",
          "midi": 66,
          "time": 185.0208333333341,
          "velocity": 0.7716535433070866,
          "duration": 0.2291666666666572
        },
        {
          "name": "A3",
          "midi": 57,
          "time": 185.28125000000077,
          "velocity": 0.6377952755905512,
          "duration": 0.5729166666666572
        },
        {
          "name": "A4",
          "midi": 69,
          "time": 185.5052083333341,
          "velocity": 0.7244094488188977,
          "duration": 0.3385416666666572
        },
        {
          "name": "B3",
          "midi": 59,
          "time": 185.51041666666745,
          "velocity": 0.5748031496062992,
          "duration": 0.3437499999999716
        },
        {
          "name": "D4",
          "midi": 62,
          "time": 185.5208333333341,
          "velocity": 0.8582677165354331,
          "duration": 0.3229166666666572
        },
        {
          "name": "F#4",
          "midi": 66,
          "time": 185.5208333333341,
          "velocity": 0.7716535433070866,
          "duration": 0.3125
        },
        {
          "name": "B3",
          "midi": 59,
          "time": 186.00000000000074,
          "velocity": 0.5748031496062992,
          "duration": 1.8958333333333144
        },
        {
          "name": "G4",
          "midi": 67,
          "time": 186.00000000000074,
          "velocity": 0.6614173228346457,
          "duration": 1.875
        },
        {
          "name": "D5",
          "midi": 74,
          "time": 186.00000000000074,
          "velocity": 0.6614173228346457,
          "duration": 1.8854166666666572
        },
        {
          "name": "G5",
          "midi": 79,
          "time": 186.00000000000074,
          "velocity": 0.6614173228346457,
          "duration": 1.8854166666666572
        },
        {
          "name": "B5",
          "midi": 83,
          "time": 186.0416666666674,
          "velocity": 0.7401574803149606,
          "duration": 1.84375
        },
        {
          "name": "F#3",
          "midi": 54,
          "time": 188.0104166666674,
          "velocity": 0.5511811023622047,
          "duration": 0.9739583333333428
        },
        {
          "name": "B3",
          "midi": 59,
          "time": 188.02083333333405,
          "velocity": 0.4566929133858268,
          "duration": 0.375
        },
        {
          "name": "D4",
          "midi": 62,
          "time": 188.02083333333405,
          "velocity": 0.6614173228346457,
          "duration": 0.40625
        },
        {
          "name": "A4",
          "midi": 69,
          "time": 188.02083333333405,
          "velocity": 0.5196850393700787,
          "duration": 0.4166666666666572
        },
        {
          "name": "F#4",
          "midi": 66,
          "time": 188.0260416666674,
          "velocity": 0.6141732283464567,
          "duration": 0.3958333333333144
        },
        {
          "name": "F#2",
          "midi": 42,
          "time": 188.2656250000007,
          "velocity": 0.4566929133858268,
          "duration": 1.322916666666714
        },
        {
          "name": "B3",
          "midi": 59,
          "time": 188.52083333333405,
          "velocity": 0.6535433070866141,
          "duration": 0.6875
        },
        {
          "name": "D4",
          "midi": 62,
          "time": 188.7447916666674,
          "velocity": 0.6850393700787402,
          "duration": 0.421875
        },
        {
          "name": "F#3",
          "midi": 54,
          "time": 189.2447916666674,
          "velocity": 1,
          "duration": 0.4791666666666856
        },
        {
          "name": "B3",
          "midi": 59,
          "time": 189.48437500000074,
          "velocity": 0.5984251968503937,
          "duration": 0.3333333333333428
        },
        {
          "name": "D4",
          "midi": 62,
          "time": 189.48437500000074,
          "velocity": 0.905511811023622,
          "duration": 0.3385416666666856
        },
        {
          "name": "A4",
          "midi": 69,
          "time": 189.48958333333408,
          "velocity": 0.6299212598425197,
          "duration": 0.3229166666666572
        },
        {
          "name": "F#4",
          "midi": 66,
          "time": 189.48958333333408,
          "velocity": 0.7401574803149606,
          "duration": 0.3229166666666572
        },
        {
          "name": "E5",
          "midi": 76,
          "time": 190.00000000000077,
          "velocity": 0.7086614173228346,
          "duration": 0.5104166666666572
        },
        {
          "name": "E3",
          "midi": 52,
          "time": 190.0052083333341,
          "velocity": 0.7716535433070866,
          "duration": 1.9270833333333144
        },
        {
          "name": "B4",
          "midi": 71,
          "time": 190.01041666666745,
          "velocity": 0.7401574803149606,
          "duration": 0.4583333333333144
        },
        {
          "name": "G4",
          "midi": 67,
          "time": 190.01041666666745,
          "velocity": 0.6535433070866141,
          "duration": 0.4322916666666572
        },
        {
          "name": "E4",
          "midi": 64,
          "time": 190.2708333333341,
          "velocity": 0.4094488188976378,
          "duration": 2.0260416666666288
        },
        {
          "name": "G4",
          "midi": 67,
          "time": 190.52604166666742,
          "velocity": 0.7401574803149606,
          "duration": 0.1979166666666572
        },
        {
          "name": "E5",
          "midi": 76,
          "time": 190.59375000000077,
          "velocity": 0.11811023622047244,
          "duration": 0.07291666666665719
        },
        {
          "name": "E5",
          "midi": 76,
          "time": 190.76041666666742,
          "velocity": 0.7086614173228346,
          "duration": 0.46875
        },
        {
          "name": "G4",
          "midi": 67,
          "time": 190.76041666666742,
          "velocity": 0.4566929133858268,
          "duration": 0.5208333333333428
        },
        {
          "name": "B4",
          "midi": 71,
          "time": 190.77083333333408,
          "velocity": 0.8582677165354331,
          "duration": 0.4947916666666856
        },
        {
          "name": "B3",
          "midi": 59,
          "time": 191.5208333333341,
          "velocity": 0.7637795275590551,
          "duration": 0.4843749999999716
        },
        {
          "name": "E5",
          "midi": 76,
          "time": 191.84375000000077,
          "velocity": 0.3464566929133858,
          "duration": 0.3177083333333144
        },
        {
          "name": "B4",
          "midi": 71,
          "time": 191.93750000000077,
          "velocity": 0.7401574803149606,
          "duration": 0.3177083333333144
        },
        {
          "name": "E3",
          "midi": 52,
          "time": 191.99479166666742,
          "velocity": 0.7874015748031497,
          "duration": 1.546875
        },
        {
          "name": "G4",
          "midi": 67,
          "time": 192.01041666666742,
          "velocity": 0.9763779527559056,
          "duration": 0.3489583333333144
        },
        {
          "name": "B3",
          "midi": 59,
          "time": 192.25520833333408,
          "velocity": 0.7716535433070866,
          "duration": 0.5052083333333428
        },
        {
          "name": "E4",
          "midi": 64,
          "time": 192.50520833333408,
          "velocity": 0.5433070866141733,
          "duration": 0.08854166666665719
        },
        {
          "name": "G4",
          "midi": 67,
          "time": 192.75000000000074,
          "velocity": 0.7716535433070866,
          "duration": 0.4635416666666856
        },
        {
          "name": "E4",
          "midi": 64,
          "time": 192.75520833333408,
          "velocity": 0.7244094488188977,
          "duration": 0.453125
        },
        {
          "name": "B3",
          "midi": 59,
          "time": 193.25520833333408,
          "velocity": 0.8582677165354331,
          "duration": 0.2864583333333428
        },
        {
          "name": "G4",
          "midi": 67,
          "time": 193.50520833333408,
          "velocity": 0.905511811023622,
          "duration": 0.23437500000002842
        },
        {
          "name": "B4",
          "midi": 71,
          "time": 193.50520833333408,
          "velocity": 0.9763779527559056,
          "duration": 0.23958333333337123
        },
        {
          "name": "E4",
          "midi": 64,
          "time": 193.51041666666742,
          "velocity": 0.7480314960629921,
          "duration": 0.22916666666668561
        },
        {
          "name": "A3",
          "midi": 57,
          "time": 194.0000000000008,
          "velocity": 0.5748031496062992,
          "duration": 1.8958333333333144
        },
        {
          "name": "F4",
          "midi": 65,
          "time": 194.0000000000008,
          "velocity": 0.6614173228346457,
          "duration": 1.875
        },
        {
          "name": "C5",
          "midi": 72,
          "time": 194.0000000000008,
          "velocity": 0.6614173228346457,
          "duration": 1.8854166666666572
        },
        {
          "name": "F5",
          "midi": 77,
          "time": 194.0000000000008,
          "velocity": 0.6614173228346457,
          "duration": 1.8854166666666572
        },
        {
          "name": "A5",
          "midi": 81,
          "time": 194.04166666666745,
          "velocity": 0.7401574803149606,
          "duration": 1.84375
        },
        {
          "name": "C3",
          "midi": 48,
          "time": 196.01041666666745,
          "velocity": 0.5511811023622047,
          "duration": 0.9739583333333144
        },
        {
          "name": "C4",
          "midi": 60,
          "time": 196.0208333333341,
          "velocity": 0.4566929133858268,
          "duration": 0.375
        },
        {
          "name": "G4",
          "midi": 67,
          "time": 196.0208333333341,
          "velocity": 0.5196850393700787,
          "duration": 0.4166666666666572
        },
        {
          "name": "E4",
          "midi": 64,
          "time": 196.02604166666745,
          "velocity": 0.6141732283464567,
          "duration": 0.3958333333333144
        },
        {
          "name": "C2",
          "midi": 36,
          "time": 196.26562500000077,
          "velocity": 0.4566929133858268,
          "duration": 1.3229166666666856
        },
        {
          "name": "C4",
          "midi": 60,
          "time": 196.5208333333341,
          "velocity": 0.6535433070866141,
          "duration": 0.6458333333333144
        },
        {
          "name": "C3",
          "midi": 48,
          "time": 197.24479166666742,
          "velocity": 1,
          "duration": 0.4791666666666856
        },
        {
          "name": "C4",
          "midi": 60,
          "time": 197.48437500000077,
          "velocity": 0.5984251968503937,
          "duration": 0.3333333333333428
        },
        {
          "name": "G4",
          "midi": 67,
          "time": 197.4895833333341,
          "velocity": 0.6299212598425197,
          "duration": 0.3229166666666572
        },
        {
          "name": "E4",
          "midi": 64,
          "time": 197.4895833333341,
          "velocity": 0.7401574803149606,
          "duration": 0.3229166666666572
        },
        {
          "name": "G2",
          "midi": 43,
          "time": 198.01041666666745,
          "velocity": 0.8267716535433071,
          "duration": 0.8437499999999716
        },
        {
          "name": "G3",
          "midi": 55,
          "time": 198.01041666666745,
          "velocity": 0.8582677165354331,
          "duration": 0.25
        },
        {
          "name": "D4",
          "midi": 62,
          "time": 198.0156250000008,
          "velocity": 0.7007874015748031,
          "duration": 0.2552083333333144
        },
        {
          "name": "B3",
          "midi": 59,
          "time": 198.02083333333414,
          "velocity": 0.7716535433070866,
          "duration": 0.2291666666666572
        },
        {
          "name": "D3",
          "midi": 50,
          "time": 198.28125000000077,
          "velocity": 0.6377952755905512,
          "duration": 0.5729166666666572
        },
        {
          "name": "D4",
          "midi": 62,
          "time": 198.5052083333341,
          "velocity": 0.7244094488188977,
          "duration": 0.3385416666666572
        },
        {
          "name": "G3",
          "midi": 55,
          "time": 198.51041666666745,
          "velocity": 0.5748031496062992,
          "duration": 0.3333333333333144
        },
        {
          "name": "B3",
          "midi": 59,
          "time": 198.5208333333341,
          "velocity": 0.7716535433070866,
          "duration": 0.3125
        },
        {
          "name": "F#3",
          "midi": 54,
          "time": 199.00000000000074,
          "velocity": 0.5905511811023622,
          "duration": 0.1875
        },
        {
          "name": "D4",
          "midi": 62,
          "time": 199.00000000000074,
          "velocity": 0.8582677165354331,
          "duration": 0.4062500000000284
        },
        {
          "name": "A3",
          "midi": 57,
          "time": 199.00000000000074,
          "velocity": 0.7086614173228346,
          "duration": 0.3854166666666856
        },
        {
          "name": "F#2",
          "midi": 42,
          "time": 199.00000000000074,
          "velocity": 0.5905511811023622,
          "duration": 0.744791666666714
        },
        {
          "name": "B3",
          "midi": 59,
          "time": 199.00000000000074,
          "velocity": 0.7244094488188977,
          "duration": 0.4375000000000284
        },
        {
          "name": "F#4",
          "midi": 66,
          "time": 199.00000000000074,
          "velocity": 0.6850393700787402,
          "duration": 0.4062500000000284
        },
        {
          "name": "F#3",
          "midi": 54,
          "time": 199.27083333333408,
          "velocity": 0.7637795275590551,
          "duration": 0.49479166666671404
        },
        {
          "name": "A3",
          "midi": 57,
          "time": 199.5052083333341,
          "velocity": 1,
          "duration": 0.38020833333337123
        },
        {
          "name": "D4",
          "midi": 62,
          "time": 199.7500000000008,
          "velocity": 0.9291338582677166,
          "duration": 0.15104166666668561
        },
        {
          "name": "B3",
          "midi": 59,
          "time": 199.7500000000008,
          "velocity": 0.8267716535433071,
          "duration": 0.15104166666668561
        },
        {
          "name": "F#4",
          "midi": 66,
          "time": 199.7500000000008,
          "velocity": 0.8267716535433071,
          "duration": 0.1458333333333428
        },
        {
          "name": "E3",
          "midi": 52,
          "time": 200.00000000000082,
          "velocity": 0.5905511811023622,
          "duration": 0.1875
        },
        {
          "name": "E4",
          "midi": 64,
          "time": 200.00000000000082,
          "velocity": 0.8582677165354331,
          "duration": 0.4062500000000284
        },
        {
          "name": "B3",
          "midi": 59,
          "time": 200.00000000000082,
          "velocity": 0.7086614173228346,
          "duration": 0.3854166666666856
        },
        {
          "name": "E2",
          "midi": 40,
          "time": 200.00000000000082,
          "velocity": 0.5905511811023622,
          "duration": 0.744791666666714
        },
        {
          "name": "G4",
          "midi": 67,
          "time": 200.00000000000082,
          "velocity": 0.6850393700787402,
          "duration": 0.4062500000000284
        },
        {
          "name": "E3",
          "midi": 52,
          "time": 200.27083333333417,
          "velocity": 0.7637795275590551,
          "duration": 0.49479166666671404
        },
        {
          "name": "B3",
          "midi": 59,
          "time": 200.5052083333342,
          "velocity": 1,
          "duration": 0.38020833333337123
        },
        {
          "name": "E4",
          "midi": 64,
          "time": 200.75000000000088,
          "velocity": 0.9291338582677166,
          "duration": 0.15104166666668561
        },
        {
          "name": "G4",
          "midi": 67,
          "time": 200.75000000000088,
          "velocity": 0.8267716535433071,
          "duration": 0.1458333333333428
        },
        {
          "name": "F#3",
          "midi": 54,
          "time": 201.01041666666757,
          "velocity": 0.8267716535433071,
          "duration": 0.84375
        },
        {
          "name": "D4",
          "midi": 62,
          "time": 201.01041666666757,
          "velocity": 0.8582677165354331,
          "duration": 0.2552083333333428
        },
        {
          "name": "B3",
          "midi": 59,
          "time": 201.0156250000009,
          "velocity": 0.6535433070866141,
          "duration": 0.2447916666666572
        },
        {
          "name": "A4",
          "midi": 69,
          "time": 201.0156250000009,
          "velocity": 0.7007874015748031,
          "duration": 0.2552083333333428
        },
        {
          "name": "F#4",
          "midi": 66,
          "time": 201.02083333333425,
          "velocity": 0.7716535433070866,
          "duration": 0.2291666666666572
        },
        {
          "name": "A3",
          "midi": 57,
          "time": 201.2812500000009,
          "velocity": 0.6377952755905512,
          "duration": 0.5729166666666572
        },
        {
          "name": "A4",
          "midi": 69,
          "time": 201.50520833333425,
          "velocity": 0.7244094488188977,
          "duration": 0.3385416666666572
        },
        {
          "name": "B3",
          "midi": 59,
          "time": 201.5104166666676,
          "velocity": 0.5748031496062992,
          "duration": 0.3437499999999716
        },
        {
          "name": "D4",
          "midi": 62,
          "time": 201.52083333333425,
          "velocity": 0.8582677165354331,
          "duration": 0.3229166666666572
        },
        {
          "name": "F#4",
          "midi": 66,
          "time": 201.52083333333425,
          "velocity": 0.7716535433070866,
          "duration": 0.3125
        },
        {
          "name": "G4",
          "midi": 67,
          "time": 202.00000000000088,
          "velocity": 0.48031496062992124,
          "duration": 0.1614583333333428
        },
        {
          "name": "D5",
          "midi": 74,
          "time": 202.00000000000088,
          "velocity": 0.7716535433070866,
          "duration": 0.3177083333333428
        },
        {
          "name": "B4",
          "midi": 71,
          "time": 202.00000000000088,
          "velocity": 0.5905511811023622,
          "duration": 0.2864583333333428
        },
        {
          "name": "G5",
          "midi": 79,
          "time": 202.00000000000088,
          "velocity": 0.7244094488188977,
          "duration": 0.328125
        },
        {
          "name": "B3",
          "midi": 59,
          "time": 202.00520833333422,
          "velocity": 0.6535433070866141,
          "duration": 1.6145833333333144
        },
        {
          "name": "G2",
          "midi": 43,
          "time": 202.02083333333422,
          "velocity": 0.6299212598425197,
          "duration": 1.75
        },
        {
          "name": "G4",
          "midi": 67,
          "time": 202.25520833333422,
          "velocity": 0.3228346456692913,
          "duration": 0.5989583333333428
        },
        {
          "name": "B4",
          "midi": 71,
          "time": 202.50000000000088,
          "velocity": 0.5905511811023622,
          "duration": 0.2083333333333428
        },
        {
          "name": "D5",
          "midi": 74,
          "time": 202.77083333333422,
          "velocity": 0.31496062992125984,
          "duration": 0.08333333333334281
        },
        {
          "name": "G5",
          "midi": 79,
          "time": 202.98958333333422,
          "velocity": 0.6771653543307087,
          "duration": 0.07291666666665719
        },
        {
          "name": "B5",
          "midi": 83,
          "time": 203.26041666666754,
          "velocity": 0.7480314960629921,
          "duration": 0.2239583333333428
        },
        {
          "name": "G4",
          "midi": 67,
          "time": 203.43750000000088,
          "velocity": 0.5511811023622047,
          "duration": 0.13020833333331439
        },
        {
          "name": "D6",
          "midi": 86,
          "time": 203.49479166666754,
          "velocity": 1,
          "duration": 0.09895833333331439
        },
        {
          "name": "B5",
          "midi": 83,
          "time": 203.6145833333342,
          "velocity": 0.8818897637795275,
          "duration": 0.11458333333334281
        },
        {
          "name": "G5",
          "midi": 79,
          "time": 203.75000000000088,
          "velocity": 0.7244094488188977,
          "duration": 0.09895833333334281
        },
        {
          "name": "D5",
          "midi": 74,
          "time": 203.89583333333422,
          "velocity": 0.44881889763779526,
          "duration": 0.026041666666657193
        },
        {
          "name": "F#3",
          "midi": 54,
          "time": 204.00000000000088,
          "velocity": 0.5748031496062992,
          "duration": 1.8958333333333144
        },
        {
          "name": "B3",
          "midi": 59,
          "time": 204.00000000000088,
          "velocity": 0.6614173228346457,
          "duration": 1.8958333333333144
        },
        {
          "name": "A4",
          "midi": 69,
          "time": 204.00000000000088,
          "velocity": 0.6614173228346457,
          "duration": 1.8854166666666572
        },
        {
          "name": "D4",
          "midi": 62,
          "time": 204.00000000000088,
          "velocity": 0.5905511811023622,
          "duration": 1.875
        },
        {
          "name": "D5",
          "midi": 74,
          "time": 204.00000000000088,
          "velocity": 0.6614173228346457,
          "duration": 1.8854166666666572
        },
        {
          "name": "F#5",
          "midi": 78,
          "time": 204.04166666666754,
          "velocity": 0.7401574803149606,
          "duration": 1.84375
        },
        {
          "name": "G4",
          "midi": 67,
          "time": 206.0052083333342,
          "velocity": 0.6614173228346457,
          "duration": 0.5468750000000284
        },
        {
          "name": "E4",
          "midi": 64,
          "time": 206.0052083333342,
          "velocity": 0.8582677165354331,
          "duration": 0.5104166666666856
        },
        {
          "name": "E3",
          "midi": 52,
          "time": 206.01041666666754,
          "velocity": 0.6535433070866141,
          "duration": 1.916666666666714
        },
        {
          "name": "B3",
          "midi": 59,
          "time": 206.01041666666754,
          "velocity": 0.6614173228346457,
          "duration": 0.4375
        },
        {
          "name": "E2",
          "midi": 40,
          "time": 206.27604166666754,
          "velocity": 0.6614173228346457,
          "duration": 3.307291666666771
        },
        {
          "name": "B3",
          "midi": 59,
          "time": 206.51562500000088,
          "velocity": 0.6535433070866141,
          "duration": 0.9583333333333712
        },
        {
          "name": "E4",
          "midi": 64,
          "time": 206.76041666666757,
          "velocity": 0.8582677165354331,
          "duration": 0.6614583333333428
        },
        {
          "name": "G4",
          "midi": 67,
          "time": 206.77083333333422,
          "velocity": 0.6850393700787402,
          "duration": 0.6458333333333428
        },
        {
          "name": "B3",
          "midi": 59,
          "time": 207.64583333333425,
          "velocity": 0.7952755905511811,
          "duration": 1.5156250000000284
        },
        {
          "name": "E4",
          "midi": 64,
          "time": 207.77083333333425,
          "velocity": 0.8267716535433071,
          "duration": 0.5364583333333428
        },
        {
          "name": "G4",
          "midi": 67,
          "time": 208.0156250000009,
          "velocity": 0.7952755905511811,
          "duration": 0.2864583333333428
        },
        {
          "name": "E3",
          "midi": 52,
          "time": 208.02083333333425,
          "velocity": 0.6850393700787402,
          "duration": 1.0208333333333428
        },
        {
          "name": "E4",
          "midi": 64,
          "time": 208.47395833333425,
          "velocity": 0.6377952755905512,
          "duration": 0.6666666666666856
        },
        {
          "name": "G4",
          "midi": 67,
          "time": 208.7447916666676,
          "velocity": 0.7874015748031497,
          "duration": 0.375
        },
        {
          "name": "E3",
          "midi": 52,
          "time": 209.25000000000094,
          "velocity": 1,
          "duration": 0.35416666666671404
        },
        {
          "name": "E4",
          "midi": 64,
          "time": 209.50520833333428,
          "velocity": 0.905511811023622,
          "duration": 0.3281250000000284
        },
        {
          "name": "B3",
          "midi": 59,
          "time": 209.51041666666762,
          "velocity": 0.7480314960629921,
          "duration": 0.33333333333337123
        },
        {
          "name": "G4",
          "midi": 67,
          "time": 209.51562500000097,
          "velocity": 0.7244094488188977,
          "duration": 0.3229166666666856
        },
        {
          "name": "F5",
          "midi": 77,
          "time": 210.02083333333434,
          "velocity": 0.5984251968503937,
          "duration": 0.8958333333333428
        },
        {
          "name": "C5",
          "midi": 72,
          "time": 210.02083333333434,
          "velocity": 0.7637795275590551,
          "duration": 0.875
        },
        {
          "name": "F3",
          "midi": 53,
          "time": 210.02083333333434,
          "velocity": 0.5748031496062992,
          "duration": 1.75
        },
        {
          "name": "A4",
          "midi": 69,
          "time": 210.02604166666768,
          "velocity": 0.5433070866141733,
          "duration": 0.8125
        },
        {
          "name": "F4",
          "midi": 65,
          "time": 210.02604166666768,
          "velocity": 0.4566929133858268,
          "duration": 0.5677083333333428
        },
        {
          "name": "F4",
          "midi": 65,
          "time": 210.75000000000102,
          "velocity": 0.7480314960629921,
          "duration": 1.0052083333333144
        },
        {
          "name": "A4",
          "midi": 69,
          "time": 211.24479166666768,
          "velocity": 0.5039370078740157,
          "duration": 0.4635416666666572
        },
        {
          "name": "F5",
          "midi": 77,
          "time": 211.47916666666768,
          "velocity": 1,
          "duration": 0.21875
        },
        {
          "name": "C5",
          "midi": 72,
          "time": 211.48437500000102,
          "velocity": 0.7401574803149606,
          "duration": 0.22395833333331439
        },
        {
          "name": "E3",
          "midi": 52,
          "time": 212.000000000001,
          "velocity": 0.5748031496062992,
          "duration": 1.8958333333333144
        },
        {
          "name": "C4",
          "midi": 60,
          "time": 212.000000000001,
          "velocity": 0.6614173228346457,
          "duration": 1.875
        },
        {
          "name": "G4",
          "midi": 67,
          "time": 212.000000000001,
          "velocity": 0.6614173228346457,
          "duration": 1.8854166666666572
        },
        {
          "name": "C5",
          "midi": 72,
          "time": 212.000000000001,
          "velocity": 0.6614173228346457,
          "duration": 1.8854166666666572
        },
        {
          "name": "E5",
          "midi": 76,
          "time": 212.04166666666765,
          "velocity": 0.7401574803149606,
          "duration": 1.84375
        },
        {
          "name": "G2",
          "midi": 43,
          "time": 214.00000000000097,
          "velocity": 0.5905511811023622,
          "duration": 0.1875
        },
        {
          "name": "G4",
          "midi": 67,
          "time": 214.00000000000097,
          "velocity": 0.8582677165354331,
          "duration": 0.4062500000000284
        },
        {
          "name": "D4",
          "midi": 62,
          "time": 214.00000000000097,
          "velocity": 0.7086614173228346,
          "duration": 0.3854166666666856
        },
        {
          "name": "B4",
          "midi": 71,
          "time": 214.00000000000097,
          "velocity": 0.6850393700787402,
          "duration": 0.4062500000000284
        },
        {
          "name": "G2",
          "midi": 43,
          "time": 214.2708333333343,
          "velocity": 0.7637795275590551,
          "duration": 0.47395833333337123
        },
        {
          "name": "D4",
          "midi": 62,
          "time": 214.50520833333434,
          "velocity": 1,
          "duration": 0.38020833333337123
        },
        {
          "name": "G4",
          "midi": 67,
          "time": 214.75000000000102,
          "velocity": 0.9291338582677166,
          "duration": 0.15104166666668561
        },
        {
          "name": "B4",
          "midi": 71,
          "time": 214.75000000000102,
          "velocity": 0.8267716535433071,
          "duration": 0.1458333333333428
        },
        {
          "name": "F#3",
          "midi": 54,
          "time": 215.00000000000105,
          "velocity": 0.6614173228346457,
          "duration": 0.932291666666714
        },
        {
          "name": "A3",
          "midi": 57,
          "time": 215.3645833333344,
          "velocity": 0.6614173228346457,
          "duration": 0.15625000000002842
        },
        {
          "name": "D4",
          "midi": 62,
          "time": 215.49479166666774,
          "velocity": 0.6850393700787402,
          "duration": 0.2916666666666856
        },
        {
          "name": "A4",
          "midi": 69,
          "time": 215.50000000000108,
          "velocity": 0.7244094488188977,
          "duration": 0.2864583333333428
        },
        {
          "name": "F#4",
          "midi": 66,
          "time": 215.50520833333442,
          "velocity": 0.7401574803149606,
          "duration": 0.2760416666666572
        },
        {
          "name": "B3",
          "midi": 59,
          "time": 215.51041666666777,
          "velocity": 0.5748031496062992,
          "duration": 0.21875
        },
        {
          "name": "A3",
          "midi": 57,
          "time": 215.77083333333442,
          "velocity": 0.4566929133858268,
          "duration": 0.078125
        },
        {
          "name": "E2",
          "midi": 40,
          "time": 216.0000000000011,
          "velocity": 0.5196850393700787,
          "duration": 0.9583333333333428
        },
        {
          "name": "E3",
          "midi": 52,
          "time": 216.00520833333445,
          "velocity": 0.5748031496062992,
          "duration": 0.953125
        },
        {
          "name": "E4",
          "midi": 64,
          "time": 216.00520833333445,
          "velocity": 0.7480314960629921,
          "duration": 0.9583333333333428
        },
        {
          "name": "G4",
          "midi": 67,
          "time": 216.0104166666678,
          "velocity": 0.7007874015748031,
          "duration": 0.9322916666666572
        },
        {
          "name": "B3",
          "midi": 59,
          "time": 216.01562500000114,
          "velocity": 0.7480314960629921,
          "duration": 0.9374999999999716
        },
        {
          "name": "F#3",
          "midi": 54,
          "time": 217.00000000000114,
          "velocity": 0.5905511811023622,
          "duration": 0.1875
        },
        {
          "name": "D4",
          "midi": 62,
          "time": 217.00000000000114,
          "velocity": 0.8582677165354331,
          "duration": 0.4062500000000284
        },
        {
          "name": "A3",
          "midi": 57,
          "time": 217.00000000000114,
          "velocity": 0.7086614173228346,
          "duration": 0.3854166666666856
        },
        {
          "name": "F#2",
          "midi": 42,
          "time": 217.00000000000114,
          "velocity": 0.5905511811023622,
          "duration": 0.744791666666714
        },
        {
          "name": "B3",
          "midi": 59,
          "time": 217.00000000000114,
          "velocity": 0.7244094488188977,
          "duration": 0.4375000000000284
        },
        {
          "name": "F#4",
          "midi": 66,
          "time": 217.00000000000114,
          "velocity": 0.6850393700787402,
          "duration": 0.4062500000000284
        },
        {
          "name": "F#3",
          "midi": 54,
          "time": 217.27083333333448,
          "velocity": 0.7637795275590551,
          "duration": 0.49479166666671404
        },
        {
          "name": "A3",
          "midi": 57,
          "time": 217.5052083333345,
          "velocity": 1,
          "duration": 0.38020833333337123
        },
        {
          "name": "D4",
          "midi": 62,
          "time": 217.7500000000012,
          "velocity": 0.9291338582677166,
          "duration": 0.15104166666668561
        },
        {
          "name": "B3",
          "midi": 59,
          "time": 217.7500000000012,
          "velocity": 0.8267716535433071,
          "duration": 0.15104166666668561
        },
        {
          "name": "F#4",
          "midi": 66,
          "time": 217.7500000000012,
          "velocity": 0.8267716535433071,
          "duration": 0.1458333333333428
        },
        {
          "name": "B3",
          "midi": 59,
          "time": 218.00000000000122,
          "velocity": 0.7480314960629921,
          "duration": 0.3750000000000284
        },
        {
          "name": "G4",
          "midi": 67,
          "time": 218.00520833333456,
          "velocity": 0.8818897637795275,
          "duration": 0.4010416666666856
        },
        {
          "name": "G2",
          "midi": 43,
          "time": 218.0104166666679,
          "velocity": 0.5039370078740157,
          "duration": 0.1770833333333428
        },
        {
          "name": "D4",
          "midi": 62,
          "time": 218.01562500000125,
          "velocity": 0.8582677165354331,
          "duration": 0.4166666666666572
        },
        {
          "name": "B4",
          "midi": 71,
          "time": 218.01562500000125,
          "velocity": 0.7401574803149606,
          "duration": 0.40625
        },
        {
          "name": "G2",
          "midi": 43,
          "time": 218.2552083333346,
          "velocity": 0.5905511811023622,
          "duration": 0.6562499999999716
        },
        {
          "name": "B3",
          "midi": 59,
          "time": 218.5104166666679,
          "velocity": 0.7244094488188977,
          "duration": 0.7604166666666572
        },
        {
          "name": "G4",
          "midi": 67,
          "time": 218.73437500000125,
          "velocity": 0.7480314960629921,
          "duration": 0.5572916666666572
        },
        {
          "name": "D4",
          "midi": 62,
          "time": 218.7447916666679,
          "velocity": 0.6771653543307087,
          "duration": 0.5677083333333428
        },
        {
          "name": "B4",
          "midi": 71,
          "time": 218.75520833333456,
          "velocity": 0.7086614173228346,
          "duration": 0.5572916666666856
        },
        {
          "name": "G2",
          "midi": 43,
          "time": 219.2447916666679,
          "velocity": 1,
          "duration": 0.6041666666666572
        },
        {
          "name": "B3",
          "midi": 59,
          "time": 219.3697916666679,
          "velocity": 0.9763779527559056,
          "duration": 0.5104166666666572
        },
        {
          "name": "D4",
          "midi": 62,
          "time": 219.50000000000125,
          "velocity": 0.7637795275590551,
          "duration": 0.3802083333333144
        },
        {
          "name": "G4",
          "midi": 67,
          "time": 219.62500000000125,
          "velocity": 0.8818897637795275,
          "duration": 0.2291666666666572
        },
        {
          "name": "B4",
          "midi": 71,
          "time": 219.7604166666679,
          "velocity": 1,
          "duration": 0.11979166666665719
        },
        {
          "name": "A3",
          "midi": 57,
          "time": 220.00000000000122,
          "velocity": 0.7480314960629921,
          "duration": 0.3750000000000284
        },
        {
          "name": "D4",
          "midi": 62,
          "time": 220.00520833333456,
          "velocity": 0.8818897637795275,
          "duration": 0.4010416666666856
        },
        {
          "name": "F#2",
          "midi": 42,
          "time": 220.0104166666679,
          "velocity": 0.5039370078740157,
          "duration": 1.8385416666666572
        },
        {
          "name": "F#3",
          "midi": 54,
          "time": 220.0104166666679,
          "velocity": 0.6535433070866141,
          "duration": 0.1770833333333428
        },
        {
          "name": "B3",
          "midi": 59,
          "time": 220.01562500000125,
          "velocity": 0.8582677165354331,
          "duration": 0.4166666666666572
        },
        {
          "name": "F#4",
          "midi": 66,
          "time": 220.01562500000125,
          "velocity": 0.7401574803149606,
          "duration": 0.40625
        },
        {
          "name": "F#3",
          "midi": 54,
          "time": 220.2552083333346,
          "velocity": 0.5905511811023622,
          "duration": 0.6562499999999716
        },
        {
          "name": "A3",
          "midi": 57,
          "time": 220.5104166666679,
          "velocity": 0.7244094488188977,
          "duration": 0.7604166666666572
        },
        {
          "name": "D4",
          "midi": 62,
          "time": 220.73437500000125,
          "velocity": 0.7480314960629921,
          "duration": 0.5572916666666572
        },
        {
          "name": "B3",
          "midi": 59,
          "time": 220.7447916666679,
          "velocity": 0.6771653543307087,
          "duration": 0.5677083333333428
        },
        {
          "name": "F#4",
          "midi": 66,
          "time": 220.75520833333456,
          "velocity": 0.7086614173228346,
          "duration": 0.5572916666666856
        },
        {
          "name": "F#3",
          "midi": 54,
          "time": 221.2447916666679,
          "velocity": 1,
          "duration": 0.6145833333333428
        },
        {
          "name": "A3",
          "midi": 57,
          "time": 221.3697916666679,
          "velocity": 0.9763779527559056,
          "duration": 0.5104166666666856
        },
        {
          "name": "B3",
          "midi": 59,
          "time": 221.50000000000125,
          "velocity": 0.7637795275590551,
          "duration": 0.3802083333333428
        },
        {
          "name": "D4",
          "midi": 62,
          "time": 221.62500000000125,
          "velocity": 0.8818897637795275,
          "duration": 0.2291666666666572
        },
        {
          "name": "F#4",
          "midi": 66,
          "time": 221.7604166666679,
          "velocity": 1,
          "duration": 0.11979166666668561
        },
        {
          "name": "E5",
          "midi": 76,
          "time": 222.00000000000125,
          "velocity": 0.7086614173228346,
          "duration": 0.5104166666666572
        },
        {
          "name": "E3",
          "midi": 52,
          "time": 222.0052083333346,
          "velocity": 0.7716535433070866,
          "duration": 1.9270833333333144
        },
        {
          "name": "B4",
          "midi": 71,
          "time": 222.01041666666794,
          "velocity": 0.7401574803149606,
          "duration": 0.4583333333333144
        },
        {
          "name": "G4",
          "midi": 67,
          "time": 222.01041666666794,
          "velocity": 0.6535433070866141,
          "duration": 0.4322916666666572
        },
        {
          "name": "E4",
          "midi": 64,
          "time": 222.2708333333346,
          "velocity": 0.4094488188976378,
          "duration": 2.0260416666666288
        },
        {
          "name": "G4",
          "midi": 67,
          "time": 222.5260416666679,
          "velocity": 0.7401574803149606,
          "duration": 0.1979166666666572
        },
        {
          "name": "E5",
          "midi": 76,
          "time": 222.59375000000125,
          "velocity": 0.11811023622047244,
          "duration": 0.07291666666665719
        },
        {
          "name": "E5",
          "midi": 76,
          "time": 222.7604166666679,
          "velocity": 0.7086614173228346,
          "duration": 0.46875
        },
        {
          "name": "G4",
          "midi": 67,
          "time": 222.7604166666679,
          "velocity": 0.4566929133858268,
          "duration": 0.5208333333333428
        },
        {
          "name": "B4",
          "midi": 71,
          "time": 222.77083333333456,
          "velocity": 0.8582677165354331,
          "duration": 0.4947916666666856
        },
        {
          "name": "B3",
          "midi": 59,
          "time": 223.5208333333346,
          "velocity": 0.7637795275590551,
          "duration": 0.4843749999999716
        },
        {
          "name": "E5",
          "midi": 76,
          "time": 223.84375000000125,
          "velocity": 0.3464566929133858,
          "duration": 0.3177083333333144
        },
        {
          "name": "B4",
          "midi": 71,
          "time": 223.93750000000125,
          "velocity": 0.7401574803149606,
          "duration": 0.3177083333333144
        },
        {
          "name": "E3",
          "midi": 52,
          "time": 223.9947916666679,
          "velocity": 0.7874015748031497,
          "duration": 1.546875
        },
        {
          "name": "G4",
          "midi": 67,
          "time": 224.0104166666679,
          "velocity": 0.9763779527559056,
          "duration": 0.3489583333333144
        },
        {
          "name": "B3",
          "midi": 59,
          "time": 224.25520833333456,
          "velocity": 0.7716535433070866,
          "duration": 0.5052083333333428
        },
        {
          "name": "E4",
          "midi": 64,
          "time": 224.50520833333456,
          "velocity": 0.5433070866141733,
          "duration": 0.08854166666665719
        },
        {
          "name": "G4",
          "midi": 67,
          "time": 224.75000000000122,
          "velocity": 0.7716535433070866,
          "duration": 0.4635416666666856
        },
        {
          "name": "E4",
          "midi": 64,
          "time": 224.75520833333456,
          "velocity": 0.7244094488188977,
          "duration": 0.453125
        },
        {
          "name": "B3",
          "midi": 59,
          "time": 225.25520833333456,
          "velocity": 0.8582677165354331,
          "duration": 0.2864583333333428
        },
        {
          "name": "G4",
          "midi": 67,
          "time": 225.50520833333456,
          "velocity": 0.905511811023622,
          "duration": 0.23437500000002842
        },
        {
          "name": "B4",
          "midi": 71,
          "time": 225.50520833333456,
          "velocity": 0.9763779527559056,
          "duration": 0.23958333333337123
        },
        {
          "name": "E4",
          "midi": 64,
          "time": 225.5104166666679,
          "velocity": 0.7480314960629921,
          "duration": 0.22916666666668561
        },
        {
          "name": "A3",
          "midi": 57,
          "time": 226.00000000000128,
          "velocity": 0.7480314960629921,
          "duration": 0.3750000000000284
        },
        {
          "name": "F4",
          "midi": 65,
          "time": 226.00520833333462,
          "velocity": 0.8818897637795275,
          "duration": 0.4010416666666856
        },
        {
          "name": "F2",
          "midi": 41,
          "time": 226.01041666666796,
          "velocity": 0.5039370078740157,
          "duration": 0.1770833333333428
        },
        {
          "name": "C4",
          "midi": 60,
          "time": 226.0156250000013,
          "velocity": 0.8582677165354331,
          "duration": 0.4166666666666572
        },
        {
          "name": "A4",
          "midi": 69,
          "time": 226.0156250000013,
          "velocity": 0.7401574803149606,
          "duration": 0.40625
        },
        {
          "name": "F2",
          "midi": 41,
          "time": 226.25520833333465,
          "velocity": 0.5905511811023622,
          "duration": 0.6562499999999716
        },
        {
          "name": "A3",
          "midi": 57,
          "time": 226.51041666666796,
          "velocity": 0.7244094488188977,
          "duration": 0.7604166666666572
        },
        {
          "name": "F4",
          "midi": 65,
          "time": 226.7343750000013,
          "velocity": 0.7480314960629921,
          "duration": 0.5572916666666572
        },
        {
          "name": "C4",
          "midi": 60,
          "time": 226.74479166666796,
          "velocity": 0.6771653543307087,
          "duration": 0.5677083333333428
        },
        {
          "name": "A4",
          "midi": 69,
          "time": 226.75520833333462,
          "velocity": 0.7086614173228346,
          "duration": 0.5572916666666856
        },
        {
          "name": "F2",
          "midi": 41,
          "time": 227.24479166666796,
          "velocity": 1,
          "duration": 0.6041666666666572
        },
        {
          "name": "A3",
          "midi": 57,
          "time": 227.36979166666796,
          "velocity": 0.9763779527559056,
          "duration": 0.5104166666666572
        },
        {
          "name": "C4",
          "midi": 60,
          "time": 227.5000000000013,
          "velocity": 0.7637795275590551,
          "duration": 0.3802083333333144
        },
        {
          "name": "F4",
          "midi": 65,
          "time": 227.6250000000013,
          "velocity": 0.8818897637795275,
          "duration": 0.2291666666666572
        },
        {
          "name": "A4",
          "midi": 69,
          "time": 227.76041666666796,
          "velocity": 1,
          "duration": 0.11979166666665719
        },
        {
          "name": "C4",
          "midi": 60,
          "time": 228.00000000000128,
          "velocity": 0.48031496062992124,
          "duration": 0.1614583333333428
        },
        {
          "name": "G4",
          "midi": 67,
          "time": 228.00000000000128,
          "velocity": 0.7716535433070866,
          "duration": 0.3177083333333428
        },
        {
          "name": "E4",
          "midi": 64,
          "time": 228.00000000000128,
          "velocity": 0.5905511811023622,
          "duration": 0.2864583333333428
        },
        {
          "name": "C5",
          "midi": 72,
          "time": 228.00000000000128,
          "velocity": 0.7244094488188977,
          "duration": 0.328125
        },
        {
          "name": "E3",
          "midi": 52,
          "time": 228.00520833333462,
          "velocity": 0.6535433070866141,
          "duration": 1.6145833333333144
        },
        {
          "name": "C3",
          "midi": 48,
          "time": 228.02083333333462,
          "velocity": 0.6299212598425197,
          "duration": 1.75
        },
        {
          "name": "C4",
          "midi": 60,
          "time": 228.25520833333462,
          "velocity": 0.3228346456692913,
          "duration": 0.5989583333333428
        },
        {
          "name": "E4",
          "midi": 64,
          "time": 228.50000000000128,
          "velocity": 0.5905511811023622,
          "duration": 0.2083333333333428
        },
        {
          "name": "G4",
          "midi": 67,
          "time": 228.77083333333462,
          "velocity": 0.31496062992125984,
          "duration": 0.08333333333334281
        },
        {
          "name": "C5",
          "midi": 72,
          "time": 228.98958333333462,
          "velocity": 0.6771653543307087,
          "duration": 0.07291666666665719
        },
        {
          "name": "E5",
          "midi": 76,
          "time": 229.26041666666794,
          "velocity": 0.7480314960629921,
          "duration": 0.2239583333333428
        },
        {
          "name": "C4",
          "midi": 60,
          "time": 229.43750000000128,
          "velocity": 0.5511811023622047,
          "duration": 0.13020833333331439
        },
        {
          "name": "G5",
          "midi": 79,
          "time": 229.49479166666794,
          "velocity": 1,
          "duration": 0.09895833333331439
        },
        {
          "name": "E5",
          "midi": 76,
          "time": 229.6145833333346,
          "velocity": 0.8818897637795275,
          "duration": 0.11458333333334281
        },
        {
          "name": "C5",
          "midi": 72,
          "time": 229.75000000000128,
          "velocity": 0.7244094488188977,
          "duration": 0.09895833333334281
        },
        {
          "name": "G4",
          "midi": 67,
          "time": 229.89583333333462,
          "velocity": 0.44881889763779526,
          "duration": 0.026041666666657193
        },
        {
          "name": "G2",
          "midi": 43,
          "time": 230.00000000000128,
          "velocity": 0.5196850393700787,
          "duration": 0.9583333333333428
        },
        {
          "name": "G4",
          "midi": 67,
          "time": 230.00520833333462,
          "velocity": 0.7480314960629921,
          "duration": 0.9583333333333428
        },
        {
          "name": "B4",
          "midi": 71,
          "time": 230.01041666666796,
          "velocity": 0.7007874015748031,
          "duration": 0.9322916666666572
        },
        {
          "name": "D4",
          "midi": 62,
          "time": 230.0156250000013,
          "velocity": 0.7480314960629921,
          "duration": 0.9374999999999716
        },
        {
          "name": "D3",
          "midi": 50,
          "time": 231.0000000000013,
          "velocity": 0.6614173228346457,
          "duration": 0.9322916666666856
        },
        {
          "name": "A3",
          "midi": 57,
          "time": 231.36458333333465,
          "velocity": 0.6614173228346457,
          "duration": 0.15625
        },
        {
          "name": "F#4",
          "midi": 66,
          "time": 231.494791666668,
          "velocity": 0.6850393700787402,
          "duration": 0.2916666666666572
        },
        {
          "name": "A4",
          "midi": 69,
          "time": 231.50000000000134,
          "velocity": 0.7244094488188977,
          "duration": 0.2812499999999716
        },
        {
          "name": "D4",
          "midi": 62,
          "time": 231.510416666668,
          "velocity": 0.5748031496062992,
          "duration": 0.21875
        },
        {
          "name": "A3",
          "midi": 57,
          "time": 231.77083333333465,
          "velocity": 0.4566929133858268,
          "duration": 0.078125
        },
        {
          "name": "E3",
          "midi": 52,
          "time": 232.00000000000134,
          "velocity": 0.5905511811023622,
          "duration": 0.1875
        },
        {
          "name": "E4",
          "midi": 64,
          "time": 232.00000000000134,
          "velocity": 0.8582677165354331,
          "duration": 0.4062500000000284
        },
        {
          "name": "B3",
          "midi": 59,
          "time": 232.00000000000134,
          "velocity": 0.7086614173228346,
          "duration": 0.3854166666666856
        },
        {
          "name": "E2",
          "midi": 40,
          "time": 232.00000000000134,
          "velocity": 0.5905511811023622,
          "duration": 0.744791666666714
        },
        {
          "name": "G4",
          "midi": 67,
          "time": 232.00000000000134,
          "velocity": 0.6850393700787402,
          "duration": 0.4062500000000284
        },
        {
          "name": "E3",
          "midi": 52,
          "time": 232.27083333333468,
          "velocity": 0.7637795275590551,
          "duration": 0.49479166666671404
        },
        {
          "name": "B3",
          "midi": 59,
          "time": 232.5052083333347,
          "velocity": 1,
          "duration": 0.38020833333337123
        },
        {
          "name": "E4",
          "midi": 64,
          "time": 232.7500000000014,
          "velocity": 0.9291338582677166,
          "duration": 0.15104166666668561
        },
        {
          "name": "G4",
          "midi": 67,
          "time": 232.7500000000014,
          "velocity": 0.8267716535433071,
          "duration": 0.1458333333333428
        },
        {
          "name": "D3",
          "midi": 50,
          "time": 233.00000000000142,
          "velocity": 0.5905511811023622,
          "duration": 0.1875
        },
        {
          "name": "D4",
          "midi": 62,
          "time": 233.00000000000142,
          "velocity": 0.8582677165354331,
          "duration": 0.4062500000000284
        },
        {
          "name": "A3",
          "midi": 57,
          "time": 233.00000000000142,
          "velocity": 0.7086614173228346,
          "duration": 0.3854166666666856
        },
        {
          "name": "D2",
          "midi": 38,
          "time": 233.00000000000142,
          "velocity": 0.5905511811023622,
          "duration": 0.744791666666714
        },
        {
          "name": "B3",
          "midi": 59,
          "time": 233.00000000000142,
          "velocity": 0.7244094488188977,
          "duration": 0.4375000000000284
        },
        {
          "name": "F#4",
          "midi": 66,
          "time": 233.00000000000142,
          "velocity": 0.6850393700787402,
          "duration": 0.4062500000000284
        },
        {
          "name": "D3",
          "midi": 50,
          "time": 233.27083333333476,
          "velocity": 0.7637795275590551,
          "duration": 0.49479166666671404
        },
        {
          "name": "A3",
          "midi": 57,
          "time": 233.5052083333348,
          "velocity": 1,
          "duration": 0.38020833333337123
        },
        {
          "name": "D4",
          "midi": 62,
          "time": 233.75000000000148,
          "velocity": 0.9291338582677166,
          "duration": 0.15104166666668561
        },
        {
          "name": "B3",
          "midi": 59,
          "time": 233.75000000000148,
          "velocity": 0.8267716535433071,
          "duration": 0.15104166666668561
        },
        {
          "name": "F#4",
          "midi": 66,
          "time": 233.75000000000148,
          "velocity": 0.8267716535433071,
          "duration": 0.1458333333333428
        },
        {
          "name": "G4",
          "midi": 67,
          "time": 234.0000000000015,
          "velocity": 0.48031496062992124,
          "duration": 0.1614583333333428
        },
        {
          "name": "D5",
          "midi": 74,
          "time": 234.0000000000015,
          "velocity": 0.7716535433070866,
          "duration": 0.3177083333333428
        },
        {
          "name": "B4",
          "midi": 71,
          "time": 234.0000000000015,
          "velocity": 0.5905511811023622,
          "duration": 0.2864583333333428
        },
        {
          "name": "G5",
          "midi": 79,
          "time": 234.0000000000015,
          "velocity": 0.7244094488188977,
          "duration": 0.328125
        },
        {
          "name": "B3",
          "midi": 59,
          "time": 234.00520833333485,
          "velocity": 0.6535433070866141,
          "duration": 1.6145833333333144
        },
        {
          "name": "G2",
          "midi": 43,
          "time": 234.02083333333485,
          "velocity": 0.6299212598425197,
          "duration": 1.75
        },
        {
          "name": "G4",
          "midi": 67,
          "time": 234.25520833333485,
          "velocity": 0.3228346456692913,
          "duration": 0.5989583333333428
        },
        {
          "name": "B4",
          "midi": 71,
          "time": 234.5000000000015,
          "velocity": 0.5905511811023622,
          "duration": 0.2083333333333428
        },
        {
          "name": "D5",
          "midi": 74,
          "time": 234.77083333333485,
          "velocity": 0.31496062992125984,
          "duration": 0.08333333333334281
        },
        {
          "name": "G5",
          "midi": 79,
          "time": 234.98958333333485,
          "velocity": 0.6771653543307087,
          "duration": 0.07291666666665719
        },
        {
          "name": "B5",
          "midi": 83,
          "time": 235.26041666666816,
          "velocity": 0.7480314960629921,
          "duration": 0.2239583333333428
        },
        {
          "name": "G4",
          "midi": 67,
          "time": 235.4375000000015,
          "velocity": 0.5511811023622047,
          "duration": 0.13020833333331439
        },
        {
          "name": "D6",
          "midi": 86,
          "time": 235.49479166666816,
          "velocity": 1,
          "duration": 0.09895833333331439
        },
        {
          "name": "B5",
          "midi": 83,
          "time": 235.61458333333482,
          "velocity": 0.8818897637795275,
          "duration": 0.11458333333334281
        },
        {
          "name": "G5",
          "midi": 79,
          "time": 235.7500000000015,
          "velocity": 0.7244094488188977,
          "duration": 0.09895833333334281
        },
        {
          "name": "D5",
          "midi": 74,
          "time": 235.89583333333485,
          "velocity": 0.44881889763779526,
          "duration": 0.026041666666657193
        },
        {
          "name": "D4",
          "midi": 62,
          "time": 236.0000000000015,
          "velocity": 0.5905511811023622,
          "duration": 0.7291666666666572
        },
        {
          "name": "A4",
          "midi": 69,
          "time": 236.0000000000015,
          "velocity": 0.6377952755905512,
          "duration": 0.7447916666666572
        },
        {
          "name": "F#3",
          "midi": 54,
          "time": 236.0000000000015,
          "velocity": 0.4566929133858268,
          "duration": 0.640625
        },
        {
          "name": "F#4",
          "midi": 66,
          "time": 236.0000000000015,
          "velocity": 0.7244094488188977,
          "duration": 0.703125
        },
        {
          "name": "B3",
          "midi": 59,
          "time": 236.0000000000015,
          "velocity": 0.5433070866141733,
          "duration": 0.7656249999999716
        },
        {
          "name": "F#2",
          "midi": 42,
          "time": 236.00520833333485,
          "velocity": 0.2992125984251969,
          "duration": 1.536458333333286
        },
        {
          "name": "F#3",
          "midi": 54,
          "time": 236.75520833333482,
          "velocity": 0.6850393700787402,
          "duration": 0.390625
        },
        {
          "name": "A4",
          "midi": 69,
          "time": 236.98958333333482,
          "velocity": 0.7480314960629921,
          "duration": 0.2447916666666572
        },
        {
          "name": "B3",
          "midi": 59,
          "time": 236.98958333333482,
          "velocity": 0.6535433070866141,
          "duration": 0.2604166666666572
        },
        {
          "name": "D4",
          "midi": 62,
          "time": 237.00000000000148,
          "velocity": 0.8582677165354331,
          "duration": 0.2447916666666572
        },
        {
          "name": "F#4",
          "midi": 66,
          "time": 237.00000000000148,
          "velocity": 0.7480314960629921,
          "duration": 0.234375
        },
        {
          "name": "F#3",
          "midi": 54,
          "time": 237.40104166666814,
          "velocity": 0.5039370078740157,
          "duration": 0.04166666666665719
        },
        {
          "name": "A4",
          "midi": 69,
          "time": 237.47916666666814,
          "velocity": 1,
          "duration": 0.2083333333333428
        },
        {
          "name": "F#4",
          "midi": 66,
          "time": 237.47916666666814,
          "velocity": 1,
          "duration": 0.21354166666668561
        },
        {
          "name": "D4",
          "midi": 62,
          "time": 237.48437500000148,
          "velocity": 1,
          "duration": 0.2239583333333428
        },
        {
          "name": "B3",
          "midi": 59,
          "time": 237.48437500000148,
          "velocity": 0.8582677165354331,
          "duration": 0.2239583333333428
        },
        {
          "name": "E5",
          "midi": 76,
          "time": 238.00000000000148,
          "velocity": 0.7086614173228346,
          "duration": 0.5104166666666572
        },
        {
          "name": "E3",
          "midi": 52,
          "time": 238.00520833333482,
          "velocity": 0.7716535433070866,
          "duration": 1.9270833333333144
        },
        {
          "name": "B4",
          "midi": 71,
          "time": 238.01041666666816,
          "velocity": 0.7401574803149606,
          "duration": 0.4583333333333144
        },
        {
          "name": "G4",
          "midi": 67,
          "time": 238.01041666666816,
          "velocity": 0.6535433070866141,
          "duration": 0.4322916666666572
        },
        {
          "name": "E4",
          "midi": 64,
          "time": 238.27083333333482,
          "velocity": 0.4094488188976378,
          "duration": 2.0260416666666288
        },
        {
          "name": "G4",
          "midi": 67,
          "time": 238.52604166666814,
          "velocity": 0.7401574803149606,
          "duration": 0.1979166666666572
        },
        {
          "name": "E5",
          "midi": 76,
          "time": 238.59375000000148,
          "velocity": 0.11811023622047244,
          "duration": 0.07291666666665719
        },
        {
          "name": "E5",
          "midi": 76,
          "time": 238.76041666666814,
          "velocity": 0.7086614173228346,
          "duration": 0.46875
        },
        {
          "name": "G4",
          "midi": 67,
          "time": 238.76041666666814,
          "velocity": 0.4566929133858268,
          "duration": 0.5208333333333428
        },
        {
          "name": "B4",
          "midi": 71,
          "time": 238.7708333333348,
          "velocity": 0.8582677165354331,
          "duration": 0.4947916666666856
        },
        {
          "name": "B3",
          "midi": 59,
          "time": 239.52083333333482,
          "velocity": 0.7637795275590551,
          "duration": 0.4843749999999716
        },
        {
          "name": "E5",
          "midi": 76,
          "time": 239.84375000000148,
          "velocity": 0.3464566929133858,
          "duration": 0.3177083333333144
        },
        {
          "name": "B4",
          "midi": 71,
          "time": 239.93750000000148,
          "velocity": 0.7401574803149606,
          "duration": 0.3177083333333144
        },
        {
          "name": "E3",
          "midi": 52,
          "time": 239.99479166666814,
          "velocity": 0.7874015748031497,
          "duration": 1.546875
        },
        {
          "name": "G4",
          "midi": 67,
          "time": 240.01041666666814,
          "velocity": 0.9763779527559056,
          "duration": 0.3489583333333144
        },
        {
          "name": "B3",
          "midi": 59,
          "time": 240.2552083333348,
          "velocity": 0.7716535433070866,
          "duration": 0.5052083333333428
        },
        {
          "name": "E4",
          "midi": 64,
          "time": 240.5052083333348,
          "velocity": 0.5433070866141733,
          "duration": 0.08854166666665719
        },
        {
          "name": "G4",
          "midi": 67,
          "time": 240.75000000000145,
          "velocity": 0.7716535433070866,
          "duration": 0.4635416666666856
        },
        {
          "name": "E4",
          "midi": 64,
          "time": 240.7552083333348,
          "velocity": 0.7244094488188977,
          "duration": 0.453125
        },
        {
          "name": "B3",
          "midi": 59,
          "time": 241.2552083333348,
          "velocity": 0.8582677165354331,
          "duration": 0.2864583333333428
        },
        {
          "name": "G4",
          "midi": 67,
          "time": 241.5052083333348,
          "velocity": 0.905511811023622,
          "duration": 0.23437500000002842
        },
        {
          "name": "B4",
          "midi": 71,
          "time": 241.5052083333348,
          "velocity": 0.9763779527559056,
          "duration": 0.23958333333337123
        },
        {
          "name": "E4",
          "midi": 64,
          "time": 241.51041666666814,
          "velocity": 0.7480314960629921,
          "duration": 0.22916666666668561
        },
        {
          "name": "A3",
          "midi": 57,
          "time": 242.0000000000015,
          "velocity": 0.7480314960629921,
          "duration": 0.3750000000000284
        },
        {
          "name": "F4",
          "midi": 65,
          "time": 242.00520833333485,
          "velocity": 0.8818897637795275,
          "duration": 0.4010416666666856
        },
        {
          "name": "F2",
          "midi": 41,
          "time": 242.0104166666682,
          "velocity": 0.5039370078740157,
          "duration": 0.1770833333333428
        },
        {
          "name": "C4",
          "midi": 60,
          "time": 242.01562500000153,
          "velocity": 0.8582677165354331,
          "duration": 0.4166666666666572
        },
        {
          "name": "A4",
          "midi": 69,
          "time": 242.01562500000153,
          "velocity": 0.7401574803149606,
          "duration": 0.40625
        },
        {
          "name": "F2",
          "midi": 41,
          "time": 242.25520833333488,
          "velocity": 0.5905511811023622,
          "duration": 0.6562499999999716
        },
        {
          "name": "A3",
          "midi": 57,
          "time": 242.5104166666682,
          "velocity": 0.7244094488188977,
          "duration": 0.7604166666666572
        },
        {
          "name": "F4",
          "midi": 65,
          "time": 242.73437500000153,
          "velocity": 0.7480314960629921,
          "duration": 0.5572916666666572
        },
        {
          "name": "C4",
          "midi": 60,
          "time": 242.7447916666682,
          "velocity": 0.6771653543307087,
          "duration": 0.5677083333333428
        },
        {
          "name": "A4",
          "midi": 69,
          "time": 242.75520833333485,
          "velocity": 0.7086614173228346,
          "duration": 0.5572916666666856
        },
        {
          "name": "F2",
          "midi": 41,
          "time": 243.2447916666682,
          "velocity": 1,
          "duration": 0.6041666666666572
        },
        {
          "name": "A3",
          "midi": 57,
          "time": 243.3697916666682,
          "velocity": 0.9763779527559056,
          "duration": 0.5104166666666572
        },
        {
          "name": "C4",
          "midi": 60,
          "time": 243.50000000000153,
          "velocity": 0.7637795275590551,
          "duration": 0.3802083333333144
        },
        {
          "name": "F4",
          "midi": 65,
          "time": 243.62500000000153,
          "velocity": 0.8818897637795275,
          "duration": 0.2291666666666572
        },
        {
          "name": "A4",
          "midi": 69,
          "time": 243.7604166666682,
          "velocity": 1,
          "duration": 0.11979166666665719
        },
        {
          "name": "E3",
          "midi": 52,
          "time": 244.0000000000015,
          "velocity": 0.5748031496062992,
          "duration": 1.8958333333333144
        },
        {
          "name": "C4",
          "midi": 60,
          "time": 244.0000000000015,
          "velocity": 0.6614173228346457,
          "duration": 1.875
        },
        {
          "name": "G4",
          "midi": 67,
          "time": 244.0000000000015,
          "velocity": 0.6614173228346457,
          "duration": 1.8854166666666572
        },
        {
          "name": "C5",
          "midi": 72,
          "time": 244.0000000000015,
          "velocity": 0.6614173228346457,
          "duration": 1.8854166666666572
        },
        {
          "name": "E5",
          "midi": 76,
          "time": 244.04166666666816,
          "velocity": 0.7401574803149606,
          "duration": 1.84375
        },
        {
          "name": "G5",
          "midi": 79,
          "time": 246.00000000000148,
          "velocity": 0.7086614173228346,
          "duration": 0.5104166666666572
        },
        {
          "name": "G2",
          "midi": 43,
          "time": 246.00520833333482,
          "velocity": 0.7716535433070866,
          "duration": 1.9270833333333144
        },
        {
          "name": "D5",
          "midi": 74,
          "time": 246.01041666666816,
          "velocity": 0.7401574803149606,
          "duration": 0.4583333333333144
        },
        {
          "name": "B4",
          "midi": 71,
          "time": 246.01041666666816,
          "velocity": 0.6535433070866141,
          "duration": 0.4322916666666572
        },
        {
          "name": "G4",
          "midi": 67,
          "time": 246.27083333333482,
          "velocity": 0.4094488188976378,
          "duration": 2.0260416666666288
        },
        {
          "name": "B4",
          "midi": 71,
          "time": 246.52604166666814,
          "velocity": 0.7401574803149606,
          "duration": 0.1979166666666572
        },
        {
          "name": "G5",
          "midi": 79,
          "time": 246.59375000000148,
          "velocity": 0.11811023622047244,
          "duration": 0.07291666666665719
        },
        {
          "name": "G5",
          "midi": 79,
          "time": 246.76041666666814,
          "velocity": 0.7086614173228346,
          "duration": 0.46875
        },
        {
          "name": "B4",
          "midi": 71,
          "time": 246.76041666666814,
          "velocity": 0.4566929133858268,
          "duration": 0.5208333333333428
        },
        {
          "name": "D5",
          "midi": 74,
          "time": 246.7708333333348,
          "velocity": 0.8582677165354331,
          "duration": 0.4947916666666856
        },
        {
          "name": "D4",
          "midi": 62,
          "time": 247.52083333333482,
          "velocity": 0.7637795275590551,
          "duration": 0.4843749999999716
        },
        {
          "name": "G5",
          "midi": 79,
          "time": 247.84375000000148,
          "velocity": 0.3464566929133858,
          "duration": 0.3177083333333144
        },
        {
          "name": "D5",
          "midi": 74,
          "time": 247.93750000000148,
          "velocity": 0.7401574803149606,
          "duration": 0.3177083333333144
        },
        {
          "name": "G2",
          "midi": 43,
          "time": 247.99479166666814,
          "velocity": 0.7874015748031497,
          "duration": 1.546875
        },
        {
          "name": "B4",
          "midi": 71,
          "time": 248.01041666666814,
          "velocity": 0.9763779527559056,
          "duration": 0.3489583333333144
        },
        {
          "name": "D4",
          "midi": 62,
          "time": 248.2552083333348,
          "velocity": 0.7716535433070866,
          "duration": 0.5052083333333428
        },
        {
          "name": "G4",
          "midi": 67,
          "time": 248.5052083333348,
          "velocity": 0.5433070866141733,
          "duration": 0.08854166666665719
        },
        {
          "name": "B4",
          "midi": 71,
          "time": 248.75000000000145,
          "velocity": 0.7716535433070866,
          "duration": 0.4635416666666856
        },
        {
          "name": "G4",
          "midi": 67,
          "time": 248.7552083333348,
          "velocity": 0.7244094488188977,
          "duration": 0.453125
        },
        {
          "name": "D4",
          "midi": 62,
          "time": 249.2552083333348,
          "velocity": 0.8582677165354331,
          "duration": 0.2864583333333428
        },
        {
          "name": "B4",
          "midi": 71,
          "time": 249.5052083333348,
          "velocity": 0.905511811023622,
          "duration": 0.23437500000002842
        },
        {
          "name": "D5",
          "midi": 74,
          "time": 249.5052083333348,
          "velocity": 0.9763779527559056,
          "duration": 0.23958333333337123
        },
        {
          "name": "G4",
          "midi": 67,
          "time": 249.51041666666814,
          "velocity": 0.7480314960629921,
          "duration": 0.22916666666668561
        },
        {
          "name": "A3",
          "midi": 57,
          "time": 250.0000000000015,
          "velocity": 0.7480314960629921,
          "duration": 0.3750000000000284
        },
        {
          "name": "F4",
          "midi": 65,
          "time": 250.00520833333485,
          "velocity": 0.8818897637795275,
          "duration": 0.4010416666666856
        },
        {
          "name": "F2",
          "midi": 41,
          "time": 250.0104166666682,
          "velocity": 0.5039370078740157,
          "duration": 0.1770833333333428
        },
        {
          "name": "C4",
          "midi": 60,
          "time": 250.01562500000153,
          "velocity": 0.8582677165354331,
          "duration": 0.4166666666666572
        },
        {
          "name": "A4",
          "midi": 69,
          "time": 250.01562500000153,
          "velocity": 0.7401574803149606,
          "duration": 0.40625
        },
        {
          "name": "F2",
          "midi": 41,
          "time": 250.25520833333488,
          "velocity": 0.5905511811023622,
          "duration": 0.6562499999999716
        },
        {
          "name": "A3",
          "midi": 57,
          "time": 250.5104166666682,
          "velocity": 0.7244094488188977,
          "duration": 0.7604166666666572
        },
        {
          "name": "F4",
          "midi": 65,
          "time": 250.73437500000153,
          "velocity": 0.7480314960629921,
          "duration": 0.5572916666666572
        },
        {
          "name": "C4",
          "midi": 60,
          "time": 250.7447916666682,
          "velocity": 0.6771653543307087,
          "duration": 0.5677083333333428
        },
        {
          "name": "A4",
          "midi": 69,
          "time": 250.75520833333485,
          "velocity": 0.7086614173228346,
          "duration": 0.5572916666666856
        },
        {
          "name": "F2",
          "midi": 41,
          "time": 251.2447916666682,
          "velocity": 1,
          "duration": 0.6041666666666572
        },
        {
          "name": "A3",
          "midi": 57,
          "time": 251.3697916666682,
          "velocity": 0.9763779527559056,
          "duration": 0.5104166666666572
        },
        {
          "name": "C4",
          "midi": 60,
          "time": 251.50000000000153,
          "velocity": 0.7637795275590551,
          "duration": 0.3802083333333144
        },
        {
          "name": "F4",
          "midi": 65,
          "time": 251.62500000000153,
          "velocity": 0.8818897637795275,
          "duration": 0.2291666666666572
        },
        {
          "name": "A4",
          "midi": 69,
          "time": 251.7604166666682,
          "velocity": 1,
          "duration": 0.11979166666665719
        },
        {
          "name": "C4",
          "midi": 60,
          "time": 252.0000000000015,
          "velocity": 0.5905511811023622,
          "duration": 0.7291666666666572
        },
        {
          "name": "G4",
          "midi": 67,
          "time": 252.0000000000015,
          "velocity": 0.6377952755905512,
          "duration": 0.7447916666666572
        },
        {
          "name": "C3",
          "midi": 48,
          "time": 252.0000000000015,
          "velocity": 0.4566929133858268,
          "duration": 0.640625
        },
        {
          "name": "E4",
          "midi": 64,
          "time": 252.0000000000015,
          "velocity": 0.7244094488188977,
          "duration": 0.703125
        },
        {
          "name": "G3",
          "midi": 55,
          "time": 252.0000000000015,
          "velocity": 0.5433070866141733,
          "duration": 0.7656249999999716
        },
        {
          "name": "C2",
          "midi": 36,
          "time": 252.00520833333485,
          "velocity": 0.2992125984251969,
          "duration": 1.536458333333286
        },
        {
          "name": "C3",
          "midi": 48,
          "time": 252.75520833333482,
          "velocity": 0.6850393700787402,
          "duration": 0.390625
        },
        {
          "name": "G4",
          "midi": 67,
          "time": 252.98958333333482,
          "velocity": 0.7480314960629921,
          "duration": 0.2447916666666572
        },
        {
          "name": "G3",
          "midi": 55,
          "time": 252.98958333333482,
          "velocity": 0.6535433070866141,
          "duration": 0.2604166666666572
        },
        {
          "name": "C4",
          "midi": 60,
          "time": 253.00000000000148,
          "velocity": 0.8582677165354331,
          "duration": 0.2447916666666572
        },
        {
          "name": "E4",
          "midi": 64,
          "time": 253.00000000000148,
          "velocity": 0.7480314960629921,
          "duration": 0.234375
        },
        {
          "name": "C3",
          "midi": 48,
          "time": 253.40104166666814,
          "velocity": 0.5039370078740157,
          "duration": 0.04166666666665719
        },
        {
          "name": "G4",
          "midi": 67,
          "time": 253.47916666666814,
          "velocity": 1,
          "duration": 0.2083333333333428
        },
        {
          "name": "E4",
          "midi": 64,
          "time": 253.47916666666814,
          "velocity": 1,
          "duration": 0.21354166666668561
        },
        {
          "name": "C4",
          "midi": 60,
          "time": 253.48437500000148,
          "velocity": 1,
          "duration": 0.2239583333333428
        },
        {
          "name": "G3",
          "midi": 55,
          "time": 253.48437500000148,
          "velocity": 0.8582677165354331,
          "duration": 0.2239583333333428
        },
        {
          "name": "G2",
          "midi": 43,
          "time": 254.00000000000148,
          "velocity": 0.6614173228346457,
          "duration": 0.9322916666666856
        },
        {
          "name": "B3",
          "midi": 59,
          "time": 254.36458333333482,
          "velocity": 0.6614173228346457,
          "duration": 0.15625
        },
        {
          "name": "G4",
          "midi": 67,
          "time": 254.49479166666816,
          "velocity": 0.6850393700787402,
          "duration": 0.2916666666666572
        },
        {
          "name": "B4",
          "midi": 71,
          "time": 254.5000000000015,
          "velocity": 0.7244094488188977,
          "duration": 0.2812499999999716
        },
        {
          "name": "D4",
          "midi": 62,
          "time": 254.51041666666816,
          "velocity": 0.5748031496062992,
          "duration": 0.21875
        },
        {
          "name": "B3",
          "midi": 59,
          "time": 254.77083333333482,
          "velocity": 0.4566929133858268,
          "duration": 0.078125
        },
        {
          "name": "F#3",
          "midi": 54,
          "time": 255.01041666666816,
          "velocity": 0.8267716535433071,
          "duration": 0.84375
        },
        {
          "name": "D4",
          "midi": 62,
          "time": 255.01041666666816,
          "velocity": 0.8582677165354331,
          "duration": 0.2552083333333428
        },
        {
          "name": "B3",
          "midi": 59,
          "time": 255.0156250000015,
          "velocity": 0.6535433070866141,
          "duration": 0.2447916666666572
        },
        {
          "name": "A4",
          "midi": 69,
          "time": 255.0156250000015,
          "velocity": 0.7007874015748031,
          "duration": 0.2552083333333428
        },
        {
          "name": "F#4",
          "midi": 66,
          "time": 255.02083333333485,
          "velocity": 0.7716535433070866,
          "duration": 0.2291666666666572
        },
        {
          "name": "A3",
          "midi": 57,
          "time": 255.2812500000015,
          "velocity": 0.6377952755905512,
          "duration": 0.5729166666666572
        },
        {
          "name": "A4",
          "midi": 69,
          "time": 255.50520833333485,
          "velocity": 0.7244094488188977,
          "duration": 0.3385416666666572
        },
        {
          "name": "B3",
          "midi": 59,
          "time": 255.5104166666682,
          "velocity": 0.5748031496062992,
          "duration": 0.3437499999999716
        },
        {
          "name": "D4",
          "midi": 62,
          "time": 255.52083333333485,
          "velocity": 0.8582677165354331,
          "duration": 0.3229166666666572
        },
        {
          "name": "F#4",
          "midi": 66,
          "time": 255.52083333333485,
          "velocity": 0.7716535433070866,
          "duration": 0.3125
        },
        {
          "name": "E3",
          "midi": 52,
          "time": 256.01041666666816,
          "velocity": 0.8267716535433071,
          "duration": 0.8437500000000568
        },
        {
          "name": "E4",
          "midi": 64,
          "time": 256.01041666666816,
          "velocity": 0.8582677165354331,
          "duration": 0.25
        },
        {
          "name": "B4",
          "midi": 71,
          "time": 256.0156250000015,
          "velocity": 0.7007874015748031,
          "duration": 0.25520833333337123
        },
        {
          "name": "G4",
          "midi": 67,
          "time": 256.0208333333348,
          "velocity": 0.7716535433070866,
          "duration": 0.22916666666668561
        },
        {
          "name": "B3",
          "midi": 59,
          "time": 256.28125000000153,
          "velocity": 0.6377952755905512,
          "duration": 0.5729166666666856
        },
        {
          "name": "B4",
          "midi": 71,
          "time": 256.50520833333485,
          "velocity": 0.7244094488188977,
          "duration": 0.3385416666666856
        },
        {
          "name": "E4",
          "midi": 64,
          "time": 256.51041666666816,
          "velocity": 0.5748031496062992,
          "duration": 0.33333333333337123
        },
        {
          "name": "G4",
          "midi": 67,
          "time": 256.52083333333485,
          "velocity": 0.7716535433070866,
          "duration": 0.3125
        },
        {
          "name": "F#3",
          "midi": 54,
          "time": 257.0000000000016,
          "velocity": 0.6614173228346457,
          "duration": 0.9322916666665719
        },
        {
          "name": "A3",
          "midi": 57,
          "time": 257.3645833333349,
          "velocity": 0.6614173228346457,
          "duration": 0.15624999999994316
        },
        {
          "name": "D4",
          "midi": 62,
          "time": 257.4947916666682,
          "velocity": 0.6850393700787402,
          "duration": 0.29166666666662877
        },
        {
          "name": "A4",
          "midi": 69,
          "time": 257.50000000000153,
          "velocity": 0.7244094488188977,
          "duration": 0.2864583333333144
        },
        {
          "name": "F#4",
          "midi": 66,
          "time": 257.50520833333485,
          "velocity": 0.7401574803149606,
          "duration": 0.2760416666666856
        },
        {
          "name": "B3",
          "midi": 59,
          "time": 257.51041666666816,
          "velocity": 0.5748031496062992,
          "duration": 0.21875
        },
        {
          "name": "A3",
          "midi": 57,
          "time": 257.77083333333485,
          "velocity": 0.4566929133858268,
          "duration": 0.078125
        },
        {
          "name": "D3",
          "midi": 50,
          "time": 258.0000000000015,
          "velocity": 0.5748031496062992,
          "duration": 1.8958333333333712
        },
        {
          "name": "A#3",
          "midi": 58,
          "time": 258.0000000000015,
          "velocity": 0.6614173228346457,
          "duration": 1.875
        },
        {
          "name": "F4",
          "midi": 65,
          "time": 258.0000000000015,
          "velocity": 0.6614173228346457,
          "duration": 1.8854166666666856
        },
        {
          "name": "A#4",
          "midi": 70,
          "time": 258.0000000000015,
          "velocity": 0.6614173228346457,
          "duration": 1.8854166666666856
        },
        {
          "name": "D5",
          "midi": 74,
          "time": 258.04166666666816,
          "velocity": 0.7401574803149606,
          "duration": 1.84375
        },
        {
          "name": "G4",
          "midi": 67,
          "time": 260.01041666666816,
          "velocity": 0.5905511811023622,
          "duration": 0.29687499999994316
        },
        {
          "name": "C3",
          "midi": 48,
          "time": 260.01041666666816,
          "velocity": 0.44881889763779526,
          "duration": 1.5260416666666288
        },
        {
          "name": "C4",
          "midi": 60,
          "time": 260.0156250000015,
          "velocity": 0.7086614173228346,
          "duration": 0.29166666666662877
        },
        {
          "name": "C2",
          "midi": 36,
          "time": 260.0156250000015,
          "velocity": 0.5196850393700787,
          "duration": 1.984375
        },
        {
          "name": "E4",
          "midi": 64,
          "time": 260.0208333333348,
          "velocity": 0.7716535433070866,
          "duration": 0.2708333333333144
        },
        {
          "name": "G5",
          "midi": 79,
          "time": 260.8854166666681,
          "velocity": 0.6299212598425197,
          "duration": 0.19270833333337123
        },
        {
          "name": "E5",
          "midi": 76,
          "time": 260.9322916666681,
          "velocity": 0.6377952755905512,
          "duration": 0.18750000000005684
        },
        {
          "name": "C5",
          "midi": 72,
          "time": 260.9583333333348,
          "velocity": 0.7952755905511811,
          "duration": 0.19791666666668561
        },
        {
          "name": "G4",
          "midi": 67,
          "time": 261.8125000000015,
          "velocity": 0.33858267716535434,
          "duration": 0.1875
        },
        {
          "name": "E4",
          "midi": 64,
          "time": 261.8437500000015,
          "velocity": 0.5669291338582677,
          "duration": 0.15625
        },
        {
          "name": "C4",
          "midi": 60,
          "time": 261.9114583333348,
          "velocity": 0.6377952755905512,
          "duration": 0.08854166666668561
        },
        {
          "name": "G2",
          "midi": 43,
          "time": 262.01041666666816,
          "velocity": 0.5511811023622047,
          "duration": 0.9739583333333712
        },
        {
          "name": "G4",
          "midi": 67,
          "time": 262.02083333333485,
          "velocity": 0.4566929133858268,
          "duration": 0.375
        },
        {
          "name": "D5",
          "midi": 74,
          "time": 262.02083333333485,
          "velocity": 0.5196850393700787,
          "duration": 0.4166666666666856
        },
        {
          "name": "B4",
          "midi": 71,
          "time": 262.02604166666816,
          "velocity": 0.6141732283464567,
          "duration": 0.39583333333337123
        },
        {
          "name": "G4",
          "midi": 67,
          "time": 262.52083333333485,
          "velocity": 0.6535433070866141,
          "duration": 0.6458333333333712
        },
        {
          "name": "G2",
          "midi": 43,
          "time": 263.2447916666682,
          "velocity": 1,
          "duration": 0.34374999999994316
        },
        {
          "name": "G4",
          "midi": 67,
          "time": 263.48437500000153,
          "velocity": 0.5984251968503937,
          "duration": 0.33333333333325754
        },
        {
          "name": "D5",
          "midi": 74,
          "time": 263.48958333333485,
          "velocity": 0.6299212598425197,
          "duration": 0.32291666666662877
        },
        {
          "name": "B4",
          "midi": 71,
          "time": 263.48958333333485,
          "velocity": 0.7401574803149606,
          "duration": 0.32291666666662877
        },
        {
          "name": "A#4",
          "midi": 70,
          "time": 264.0208333333348,
          "velocity": 0.5984251968503937,
          "duration": 0.8958333333333144
        },
        {
          "name": "F4",
          "midi": 65,
          "time": 264.0208333333348,
          "velocity": 0.7637795275590551,
          "duration": 0.875
        },
        {
          "name": "A#2",
          "midi": 46,
          "time": 264.0208333333348,
          "velocity": 0.5748031496062992,
          "duration": 1.75
        },
        {
          "name": "D4",
          "midi": 62,
          "time": 264.0260416666681,
          "velocity": 0.5433070866141733,
          "duration": 0.8125
        },
        {
          "name": "A#3",
          "midi": 58,
          "time": 264.0260416666681,
          "velocity": 0.4566929133858268,
          "duration": 0.5677083333333144
        },
        {
          "name": "A#3",
          "midi": 58,
          "time": 264.7500000000014,
          "velocity": 0.7480314960629921,
          "duration": 1.0052083333333712
        },
        {
          "name": "D4",
          "midi": 62,
          "time": 265.2447916666681,
          "velocity": 0.5039370078740157,
          "duration": 0.4635416666666856
        },
        {
          "name": "A#4",
          "midi": 70,
          "time": 265.4791666666681,
          "velocity": 1,
          "duration": 0.21875
        },
        {
          "name": "F4",
          "midi": 65,
          "time": 265.4843750000014,
          "velocity": 0.7401574803149606,
          "duration": 0.22395833333337123
        },
        {
          "name": "C5",
          "midi": 72,
          "time": 266.0000000000015,
          "velocity": 0.7086614173228346,
          "duration": 0.5104166666666856
        },
        {
          "name": "C3",
          "midi": 48,
          "time": 266.0052083333348,
          "velocity": 0.7716535433070866,
          "duration": 1.9270833333333712
        },
        {
          "name": "G4",
          "midi": 67,
          "time": 266.0104166666681,
          "velocity": 0.7401574803149606,
          "duration": 0.45833333333337123
        },
        {
          "name": "E4",
          "midi": 64,
          "time": 266.0104166666681,
          "velocity": 0.6535433070866141,
          "duration": 0.4322916666666856
        },
        {
          "name": "C4",
          "midi": 60,
          "time": 266.2708333333348,
          "velocity": 0.4094488188976378,
          "duration": 1.7291666666666856
        },
        {
          "name": "E4",
          "midi": 64,
          "time": 266.52604166666816,
          "velocity": 0.7401574803149606,
          "duration": 0.19791666666668561
        },
        {
          "name": "C5",
          "midi": 72,
          "time": 266.5937500000015,
          "velocity": 0.11811023622047244,
          "duration": 0.07291666666668561
        },
        {
          "name": "C5",
          "midi": 72,
          "time": 266.76041666666816,
          "velocity": 0.7086614173228346,
          "duration": 0.46875
        },
        {
          "name": "E4",
          "midi": 64,
          "time": 266.76041666666816,
          "velocity": 0.4566929133858268,
          "duration": 0.5208333333333144
        },
        {
          "name": "G4",
          "midi": 67,
          "time": 266.77083333333485,
          "velocity": 0.8582677165354331,
          "duration": 0.49479166666662877
        },
        {
          "name": "G3",
          "midi": 55,
          "time": 267.5208333333348,
          "velocity": 0.7637795275590551,
          "duration": 0.4791666666666856
        },
        {
          "name": "C5",
          "midi": 72,
          "time": 267.8437500000015,
          "velocity": 0.3464566929133858,
          "duration": 0.15625
        },
        {
          "name": "G4",
          "midi": 67,
          "time": 267.9375000000015,
          "velocity": 0.7401574803149606,
          "duration": 0.0625
        },
        {
          "name": "C3",
          "midi": 48,
          "time": 267.99479166666816,
          "velocity": 0.7874015748031497,
          "duration": 0.0052083333333143855
        },
        {
          "name": "B3",
          "midi": 59,
          "time": 268.0000000000015,
          "velocity": 0.7480314960629921,
          "duration": 0.37499999999994316
        },
        {
          "name": "G4",
          "midi": 67,
          "time": 268.0052083333348,
          "velocity": 0.8818897637795275,
          "duration": 0.40104166666662877
        },
        {
          "name": "G2",
          "midi": 43,
          "time": 268.0104166666681,
          "velocity": 0.5039370078740157,
          "duration": 0.17708333333331439
        },
        {
          "name": "D4",
          "midi": 62,
          "time": 268.0156250000014,
          "velocity": 0.8582677165354331,
          "duration": 0.4166666666666856
        },
        {
          "name": "B4",
          "midi": 71,
          "time": 268.0156250000014,
          "velocity": 0.7401574803149606,
          "duration": 0.40625
        },
        {
          "name": "G2",
          "midi": 43,
          "time": 268.25520833333474,
          "velocity": 0.5905511811023622,
          "duration": 0.6562500000000568
        },
        {
          "name": "B3",
          "midi": 59,
          "time": 268.5104166666681,
          "velocity": 0.7244094488188977,
          "duration": 0.7604166666666856
        },
        {
          "name": "G4",
          "midi": 67,
          "time": 268.7343750000014,
          "velocity": 0.7480314960629921,
          "duration": 0.5572916666666856
        },
        {
          "name": "D4",
          "midi": 62,
          "time": 268.7447916666681,
          "velocity": 0.6771653543307087,
          "duration": 0.5677083333333144
        },
        {
          "name": "B4",
          "midi": 71,
          "time": 268.7552083333348,
          "velocity": 0.7086614173228346,
          "duration": 0.5572916666666288
        },
        {
          "name": "G2",
          "midi": 43,
          "time": 269.2447916666681,
          "velocity": 1,
          "duration": 0.6041666666666856
        },
        {
          "name": "B3",
          "midi": 59,
          "time": 269.3697916666681,
          "velocity": 0.9763779527559056,
          "duration": 0.5104166666666856
        },
        {
          "name": "D4",
          "midi": 62,
          "time": 269.5000000000014,
          "velocity": 0.7637795275590551,
          "duration": 0.38020833333337123
        },
        {
          "name": "G4",
          "midi": 67,
          "time": 269.6250000000014,
          "velocity": 0.8818897637795275,
          "duration": 0.22916666666668561
        },
        {
          "name": "B4",
          "midi": 71,
          "time": 269.7604166666681,
          "velocity": 1,
          "duration": 0.11979166666668561
        },
        {
          "name": "F4",
          "midi": 65,
          "time": 270.0000000000015,
          "velocity": 0.5905511811023622,
          "duration": 0.7291666666666856
        },
        {
          "name": "D5",
          "midi": 74,
          "time": 270.0000000000015,
          "velocity": 0.6377952755905512,
          "duration": 0.7447916666666856
        },
        {
          "name": "A#2",
          "midi": 46,
          "time": 270.0000000000015,
          "velocity": 0.4566929133858268,
          "duration": 0.640625
        },
        {
          "name": "A#4",
          "midi": 70,
          "time": 270.0000000000015,
          "velocity": 0.7244094488188977,
          "duration": 0.703125
        },
        {
          "name": "D4",
          "midi": 62,
          "time": 270.0000000000015,
          "velocity": 0.5433070866141733,
          "duration": 0.7656250000000568
        },
        {
          "name": "A#1",
          "midi": 34,
          "time": 270.0052083333348,
          "velocity": 0.2992125984251969,
          "duration": 1.536458333333428
        },
        {
          "name": "A#2",
          "midi": 46,
          "time": 270.75520833333485,
          "velocity": 0.6850393700787402,
          "duration": 0.390625
        },
        {
          "name": "D5",
          "midi": 74,
          "time": 270.98958333333485,
          "velocity": 0.7480314960629921,
          "duration": 0.24479166666668561
        },
        {
          "name": "D4",
          "midi": 62,
          "time": 270.98958333333485,
          "velocity": 0.6535433070866141,
          "duration": 0.2604166666666856
        },
        {
          "name": "F4",
          "midi": 65,
          "time": 271.00000000000153,
          "velocity": 0.8582677165354331,
          "duration": 0.24479166666668561
        },
        {
          "name": "A#4",
          "midi": 70,
          "time": 271.00000000000153,
          "velocity": 0.7480314960629921,
          "duration": 0.234375
        },
        {
          "name": "A#2",
          "midi": 46,
          "time": 271.4010416666682,
          "velocity": 0.5039370078740157,
          "duration": 0.041666666666685614
        },
        {
          "name": "D5",
          "midi": 74,
          "time": 271.4791666666682,
          "velocity": 1,
          "duration": 0.20833333333331439
        },
        {
          "name": "A#4",
          "midi": 70,
          "time": 271.4791666666682,
          "velocity": 1,
          "duration": 0.21354166666662877
        },
        {
          "name": "F4",
          "midi": 65,
          "time": 271.48437500000153,
          "velocity": 1,
          "duration": 0.22395833333331439
        },
        {
          "name": "D4",
          "midi": 62,
          "time": 271.48437500000153,
          "velocity": 0.8582677165354331,
          "duration": 0.22395833333331439
        },
        {
          "name": "E4",
          "midi": 64,
          "time": 272.00520833333485,
          "velocity": 0.6614173228346457,
          "duration": 0.5468749999999432
        },
        {
          "name": "C4",
          "midi": 60,
          "time": 272.00520833333485,
          "velocity": 0.8582677165354331,
          "duration": 0.5104166666666288
        },
        {
          "name": "C3",
          "midi": 48,
          "time": 272.01041666666816,
          "velocity": 0.6535433070866141,
          "duration": 1.916666666666572
        },
        {
          "name": "G3",
          "midi": 55,
          "time": 272.01041666666816,
          "velocity": 0.6614173228346457,
          "duration": 0.4375
        },
        {
          "name": "C2",
          "midi": 36,
          "time": 272.27604166666816,
          "velocity": 0.6614173228346457,
          "duration": 3.3072916666664582
        },
        {
          "name": "G3",
          "midi": 55,
          "time": 272.5156250000015,
          "velocity": 0.6535433070866141,
          "duration": 0.9583333333332575
        },
        {
          "name": "C4",
          "midi": 60,
          "time": 272.7604166666681,
          "velocity": 0.8582677165354331,
          "duration": 0.6614583333333144
        },
        {
          "name": "E4",
          "midi": 64,
          "time": 272.7708333333348,
          "velocity": 0.6850393700787402,
          "duration": 0.6458333333333144
        },
        {
          "name": "G3",
          "midi": 55,
          "time": 273.64583333333474,
          "velocity": 0.7952755905511811,
          "duration": 1.5156249999999432
        },
        {
          "name": "C4",
          "midi": 60,
          "time": 273.77083333333474,
          "velocity": 0.8267716535433071,
          "duration": 0.5364583333333144
        },
        {
          "name": "E4",
          "midi": 64,
          "time": 274.0156250000014,
          "velocity": 0.7952755905511811,
          "duration": 0.2864583333333144
        },
        {
          "name": "C3",
          "midi": 48,
          "time": 274.02083333333474,
          "velocity": 0.6850393700787402,
          "duration": 1.0208333333333144
        },
        {
          "name": "C4",
          "midi": 60,
          "time": 274.47395833333474,
          "velocity": 0.6377952755905512,
          "duration": 0.6666666666666288
        },
        {
          "name": "E4",
          "midi": 64,
          "time": 274.74479166666805,
          "velocity": 0.7874015748031497,
          "duration": 0.375
        },
        {
          "name": "C3",
          "midi": 48,
          "time": 275.25000000000136,
          "velocity": 1,
          "duration": 0.3541666666665719
        },
        {
          "name": "C4",
          "midi": 60,
          "time": 275.5052083333347,
          "velocity": 0.905511811023622,
          "duration": 0.32812499999994316
        },
        {
          "name": "G3",
          "midi": 55,
          "time": 275.510416666668,
          "velocity": 0.7480314960629921,
          "duration": 0.33333333333325754
        },
        {
          "name": "E4",
          "midi": 64,
          "time": 275.5156250000013,
          "velocity": 0.7244094488188977,
          "duration": 0.32291666666662877
        },
        {
          "name": "G5",
          "midi": 79,
          "time": 276.02083333333456,
          "velocity": 0.5984251968503937,
          "duration": 0.8958333333333144
        },
        {
          "name": "D5",
          "midi": 74,
          "time": 276.02083333333456,
          "velocity": 0.7637795275590551,
          "duration": 0.875
        },
        {
          "name": "G2",
          "midi": 43,
          "time": 276.02083333333456,
          "velocity": 0.5748031496062992,
          "duration": 1.75
        },
        {
          "name": "B4",
          "midi": 71,
          "time": 276.0260416666679,
          "velocity": 0.5433070866141733,
          "duration": 0.8125
        },
        {
          "name": "G4",
          "midi": 67,
          "time": 276.0260416666679,
          "velocity": 0.4566929133858268,
          "duration": 0.5677083333333144
        },
        {
          "name": "G4",
          "midi": 67,
          "time": 276.7500000000012,
          "velocity": 0.7480314960629921,
          "duration": 1.0052083333333712
        },
        {
          "name": "B4",
          "midi": 71,
          "time": 277.2447916666679,
          "velocity": 0.5039370078740157,
          "duration": 0.4635416666666856
        },
        {
          "name": "G5",
          "midi": 79,
          "time": 277.4791666666679,
          "velocity": 1,
          "duration": 0.21875
        },
        {
          "name": "D5",
          "midi": 74,
          "time": 277.4843750000012,
          "velocity": 0.7401574803149606,
          "duration": 0.22395833333337123
        },
        {
          "name": "A#4",
          "midi": 70,
          "time": 278.02083333333456,
          "velocity": 0.5984251968503937,
          "duration": 0.8958333333333144
        },
        {
          "name": "F4",
          "midi": 65,
          "time": 278.02083333333456,
          "velocity": 0.7637795275590551,
          "duration": 0.875
        },
        {
          "name": "A#2",
          "midi": 46,
          "time": 278.02083333333456,
          "velocity": 0.5748031496062992,
          "duration": 1.75
        },
        {
          "name": "D4",
          "midi": 62,
          "time": 278.0260416666679,
          "velocity": 0.5433070866141733,
          "duration": 0.8125
        },
        {
          "name": "A#3",
          "midi": 58,
          "time": 278.0260416666679,
          "velocity": 0.4566929133858268,
          "duration": 0.5677083333333144
        },
        {
          "name": "A#3",
          "midi": 58,
          "time": 278.7500000000012,
          "velocity": 0.7480314960629921,
          "duration": 1.0052083333333712
        },
        {
          "name": "D4",
          "midi": 62,
          "time": 279.2447916666679,
          "velocity": 0.5039370078740157,
          "duration": 0.4635416666666856
        },
        {
          "name": "A#4",
          "midi": 70,
          "time": 279.4791666666679,
          "velocity": 1,
          "duration": 0.21875
        },
        {
          "name": "F4",
          "midi": 65,
          "time": 279.4843750000012,
          "velocity": 0.7401574803149606,
          "duration": 0.22395833333337123
        },
        {
          "name": "E4",
          "midi": 64,
          "time": 280.00520833333456,
          "velocity": 0.6614173228346457,
          "duration": 0.5468749999999432
        },
        {
          "name": "C4",
          "midi": 60,
          "time": 280.00520833333456,
          "velocity": 0.8582677165354331,
          "duration": 0.5104166666666288
        },
        {
          "name": "C3",
          "midi": 48,
          "time": 280.0104166666679,
          "velocity": 0.6535433070866141,
          "duration": 1.916666666666572
        },
        {
          "name": "G3",
          "midi": 55,
          "time": 280.0104166666679,
          "velocity": 0.6614173228346457,
          "duration": 0.4375
        },
        {
          "name": "C2",
          "midi": 36,
          "time": 280.2760416666679,
          "velocity": 0.6614173228346457,
          "duration": 3.3072916666664582
        },
        {
          "name": "G3",
          "midi": 55,
          "time": 280.5156250000012,
          "velocity": 0.6535433070866141,
          "duration": 0.9583333333332575
        },
        {
          "name": "C4",
          "midi": 60,
          "time": 280.7604166666678,
          "velocity": 0.8582677165354331,
          "duration": 0.6614583333333144
        },
        {
          "name": "E4",
          "midi": 64,
          "time": 280.7708333333345,
          "velocity": 0.6850393700787402,
          "duration": 0.6458333333333144
        },
        {
          "name": "G3",
          "midi": 55,
          "time": 281.64583333333445,
          "velocity": 0.7952755905511811,
          "duration": 1.5156249999999432
        },
        {
          "name": "C4",
          "midi": 60,
          "time": 281.77083333333445,
          "velocity": 0.8267716535433071,
          "duration": 0.5364583333333144
        },
        {
          "name": "E4",
          "midi": 64,
          "time": 282.01562500000114,
          "velocity": 0.7952755905511811,
          "duration": 0.2864583333333144
        },
        {
          "name": "C3",
          "midi": 48,
          "time": 282.02083333333445,
          "velocity": 0.6850393700787402,
          "duration": 1.0208333333333144
        },
        {
          "name": "C4",
          "midi": 60,
          "time": 282.47395833333445,
          "velocity": 0.6377952755905512,
          "duration": 0.6666666666666288
        },
        {
          "name": "E4",
          "midi": 64,
          "time": 282.74479166666777,
          "velocity": 0.7874015748031497,
          "duration": 0.375
        },
        {
          "name": "C3",
          "midi": 48,
          "time": 283.2500000000011,
          "velocity": 1,
          "duration": 0.3541666666665719
        },
        {
          "name": "C4",
          "midi": 60,
          "time": 283.5052083333344,
          "velocity": 0.905511811023622,
          "duration": 0.32812499999994316
        },
        {
          "name": "G3",
          "midi": 55,
          "time": 283.5104166666677,
          "velocity": 0.7480314960629921,
          "duration": 0.33333333333325754
        },
        {
          "name": "E4",
          "midi": 64,
          "time": 283.515625000001,
          "velocity": 0.7244094488188977,
          "duration": 0.32291666666662877
        },
        {
          "name": "B3",
          "midi": 59,
          "time": 284.00000000000097,
          "velocity": 0.7480314960629921,
          "duration": 0.37499999999994316
        },
        {
          "name": "G4",
          "midi": 67,
          "time": 284.0052083333343,
          "velocity": 0.8818897637795275,
          "duration": 0.40104166666662877
        },
        {
          "name": "G2",
          "midi": 43,
          "time": 284.0104166666676,
          "velocity": 0.5039370078740157,
          "duration": 0.17708333333331439
        },
        {
          "name": "D4",
          "midi": 62,
          "time": 284.0156250000009,
          "velocity": 0.8582677165354331,
          "duration": 0.4166666666666856
        },
        {
          "name": "B4",
          "midi": 71,
          "time": 284.0156250000009,
          "velocity": 0.7401574803149606,
          "duration": 0.40625
        },
        {
          "name": "G2",
          "midi": 43,
          "time": 284.2552083333342,
          "velocity": 0.5905511811023622,
          "duration": 0.6562500000000568
        },
        {
          "name": "B3",
          "midi": 59,
          "time": 284.5104166666676,
          "velocity": 0.7244094488188977,
          "duration": 0.7604166666666856
        },
        {
          "name": "G4",
          "midi": 67,
          "time": 284.7343750000009,
          "velocity": 0.7480314960629921,
          "duration": 0.5572916666666856
        },
        {
          "name": "D4",
          "midi": 62,
          "time": 284.7447916666676,
          "velocity": 0.6771653543307087,
          "duration": 0.5677083333333144
        },
        {
          "name": "B4",
          "midi": 71,
          "time": 284.7552083333343,
          "velocity": 0.7086614173228346,
          "duration": 0.5572916666666288
        },
        {
          "name": "G2",
          "midi": 43,
          "time": 285.2447916666676,
          "velocity": 1,
          "duration": 0.6041666666666856
        },
        {
          "name": "B3",
          "midi": 59,
          "time": 285.3697916666676,
          "velocity": 0.9763779527559056,
          "duration": 0.5104166666666856
        },
        {
          "name": "D4",
          "midi": 62,
          "time": 285.5000000000009,
          "velocity": 0.7637795275590551,
          "duration": 0.38020833333337123
        },
        {
          "name": "G4",
          "midi": 67,
          "time": 285.6250000000009,
          "velocity": 0.8818897637795275,
          "duration": 0.22916666666668561
        },
        {
          "name": "B4",
          "midi": 71,
          "time": 285.7604166666676,
          "velocity": 1,
          "duration": 0.11979166666668561
        },
        {
          "name": "G2",
          "midi": 43,
          "time": 286.0104166666676,
          "velocity": 0.5511811023622047,
          "duration": 0.9739583333333712
        },
        {
          "name": "G4",
          "midi": 67,
          "time": 286.0208333333343,
          "velocity": 0.4566929133858268,
          "duration": 0.375
        },
        {
          "name": "D5",
          "midi": 74,
          "time": 286.0208333333343,
          "velocity": 0.5196850393700787,
          "duration": 0.4166666666666856
        },
        {
          "name": "B4",
          "midi": 71,
          "time": 286.0260416666676,
          "velocity": 0.6141732283464567,
          "duration": 0.39583333333337123
        },
        {
          "name": "G4",
          "midi": 67,
          "time": 286.5208333333343,
          "velocity": 0.6535433070866141,
          "duration": 0.6458333333333712
        },
        {
          "name": "G2",
          "midi": 43,
          "time": 287.24479166666765,
          "velocity": 1,
          "duration": 0.34374999999994316
        },
        {
          "name": "G4",
          "midi": 67,
          "time": 287.48437500000097,
          "velocity": 0.5984251968503937,
          "duration": 0.33333333333325754
        },
        {
          "name": "D5",
          "midi": 74,
          "time": 287.4895833333343,
          "velocity": 0.6299212598425197,
          "duration": 0.32291666666662877
        },
        {
          "name": "B4",
          "midi": 71,
          "time": 287.4895833333343,
          "velocity": 0.7401574803149606,
          "duration": 0.32291666666662877
        },
        {
          "name": "D3",
          "midi": 50,
          "time": 288.00000000000085,
          "velocity": 0.5748031496062992,
          "duration": 1.8958333333333712
        },
        {
          "name": "A#3",
          "midi": 58,
          "time": 288.00000000000085,
          "velocity": 0.6614173228346457,
          "duration": 1.875
        },
        {
          "name": "F4",
          "midi": 65,
          "time": 288.00000000000085,
          "velocity": 0.6614173228346457,
          "duration": 1.8854166666666856
        },
        {
          "name": "A#4",
          "midi": 70,
          "time": 288.00000000000085,
          "velocity": 0.6614173228346457,
          "duration": 1.8854166666666856
        },
        {
          "name": "D5",
          "midi": 74,
          "time": 288.04166666666754,
          "velocity": 0.7401574803149606,
          "duration": 1.84375
        },
        {
          "name": "G4",
          "midi": 67,
          "time": 290.01041666666754,
          "velocity": 0.5905511811023622,
          "duration": 0.29687499999994316
        },
        {
          "name": "C3",
          "midi": 48,
          "time": 290.01041666666754,
          "velocity": 0.44881889763779526,
          "duration": 1.5260416666666288
        },
        {
          "name": "C4",
          "midi": 60,
          "time": 290.01562500000085,
          "velocity": 0.7086614173228346,
          "duration": 0.29166666666662877
        },
        {
          "name": "C2",
          "midi": 36,
          "time": 290.01562500000085,
          "velocity": 0.5196850393700787,
          "duration": 3.781249999999943
        },
        {
          "name": "E4",
          "midi": 64,
          "time": 290.02083333333417,
          "velocity": 0.7716535433070866,
          "duration": 0.2708333333333144
        },
        {
          "name": "G5",
          "midi": 79,
          "time": 290.8854166666675,
          "velocity": 0.6299212598425197,
          "duration": 0.19270833333337123
        },
        {
          "name": "E5",
          "midi": 76,
          "time": 290.9322916666675,
          "velocity": 0.6377952755905512,
          "duration": 0.18750000000005684
        },
        {
          "name": "C5",
          "midi": 72,
          "time": 290.95833333333417,
          "velocity": 0.7952755905511811,
          "duration": 0.19791666666668561
        },
        {
          "name": "G4",
          "midi": 67,
          "time": 291.81250000000085,
          "velocity": 0.33858267716535434,
          "duration": 0.5677083333333144
        },
        {
          "name": "E4",
          "midi": 64,
          "time": 291.84375000000085,
          "velocity": 0.5669291338582677,
          "duration": 0.5520833333333144
        },
        {
          "name": "C4",
          "midi": 60,
          "time": 291.91145833333417,
          "velocity": 0.6377952755905512,
          "duration": 0.5
        },
        {
          "name": "C3",
          "midi": 48,
          "time": 292.00520833333417,
          "velocity": 0.5039370078740157,
          "duration": 0.453125
        },
        {
          "name": "C3",
          "midi": 48,
          "time": 292.75520833333417,
          "velocity": 0.8267716535433071,
          "duration": 0.41666666666662877
        },
        {
          "name": "G3",
          "midi": 55,
          "time": 293.00000000000085,
          "velocity": 0.7480314960629921,
          "duration": 0.32812499999994316
        },
        {
          "name": "C4",
          "midi": 60,
          "time": 293.00520833333417,
          "velocity": 0.7716535433070866,
          "duration": 0.5052083333332575
        },
        {
          "name": "E4",
          "midi": 64,
          "time": 293.0104166666675,
          "velocity": 0.7480314960629921,
          "duration": 0.49479166666662877
        },
        {
          "name": "C3",
          "midi": 48,
          "time": 293.2500000000008,
          "velocity": 1,
          "duration": 0.5625
        },
        {
          "name": "G3",
          "midi": 55,
          "time": 293.5104166666674,
          "velocity": 1,
          "duration": 0.30208333333337123
        },
        {
          "name": "C4",
          "midi": 60,
          "time": 293.7708333333341,
          "velocity": 0.7716535433070866,
          "duration": 0.06250000000005684
        },
        {
          "name": "G5",
          "midi": 79,
          "time": 294.02083333333417,
          "velocity": 0.5984251968503937,
          "duration": 0.8958333333333144
        },
        {
          "name": "D5",
          "midi": 74,
          "time": 294.02083333333417,
          "velocity": 0.7637795275590551,
          "duration": 0.875
        },
        {
          "name": "G2",
          "midi": 43,
          "time": 294.02083333333417,
          "velocity": 0.5748031496062992,
          "duration": 1.75
        },
        {
          "name": "B4",
          "midi": 71,
          "time": 294.0260416666675,
          "velocity": 0.5433070866141733,
          "duration": 0.8125
        },
        {
          "name": "G4",
          "midi": 67,
          "time": 294.0260416666675,
          "velocity": 0.4566929133858268,
          "duration": 0.5677083333333144
        },
        {
          "name": "G4",
          "midi": 67,
          "time": 294.7500000000008,
          "velocity": 0.7480314960629921,
          "duration": 1.0052083333333712
        },
        {
          "name": "B4",
          "midi": 71,
          "time": 295.2447916666675,
          "velocity": 0.5039370078740157,
          "duration": 0.4635416666666856
        },
        {
          "name": "G5",
          "midi": 79,
          "time": 295.4791666666675,
          "velocity": 1,
          "duration": 0.21875
        },
        {
          "name": "D5",
          "midi": 74,
          "time": 295.4843750000008,
          "velocity": 0.7401574803149606,
          "duration": 0.22395833333337123
        },
        {
          "name": "F4",
          "midi": 65,
          "time": 296.00000000000085,
          "velocity": 0.5905511811023622,
          "duration": 0.7291666666666856
        },
        {
          "name": "D5",
          "midi": 74,
          "time": 296.00000000000085,
          "velocity": 0.6377952755905512,
          "duration": 0.7447916666666856
        },
        {
          "name": "A#2",
          "midi": 46,
          "time": 296.00000000000085,
          "velocity": 0.4566929133858268,
          "duration": 0.640625
        },
        {
          "name": "A#4",
          "midi": 70,
          "time": 296.00000000000085,
          "velocity": 0.7244094488188977,
          "duration": 0.703125
        },
        {
          "name": "D4",
          "midi": 62,
          "time": 296.00000000000085,
          "velocity": 0.5433070866141733,
          "duration": 0.7656250000000568
        },
        {
          "name": "A#1",
          "midi": 34,
          "time": 296.00520833333417,
          "velocity": 0.2992125984251969,
          "duration": 1.536458333333428
        },
        {
          "name": "A#2",
          "midi": 46,
          "time": 296.7552083333342,
          "velocity": 0.6850393700787402,
          "duration": 0.390625
        },
        {
          "name": "D5",
          "midi": 74,
          "time": 296.9895833333342,
          "velocity": 0.7480314960629921,
          "duration": 0.24479166666668561
        },
        {
          "name": "D4",
          "midi": 62,
          "time": 296.9895833333342,
          "velocity": 0.6535433070866141,
          "duration": 0.2604166666666856
        },
        {
          "name": "F4",
          "midi": 65,
          "time": 297.0000000000009,
          "velocity": 0.8582677165354331,
          "duration": 0.24479166666668561
        },
        {
          "name": "A#4",
          "midi": 70,
          "time": 297.0000000000009,
          "velocity": 0.7480314960629921,
          "duration": 0.234375
        },
        {
          "name": "A#2",
          "midi": 46,
          "time": 297.4010416666676,
          "velocity": 0.5039370078740157,
          "duration": 0.041666666666685614
        },
        {
          "name": "D5",
          "midi": 74,
          "time": 297.4791666666676,
          "velocity": 1,
          "duration": 0.20833333333331439
        },
        {
          "name": "A#4",
          "midi": 70,
          "time": 297.4791666666676,
          "velocity": 1,
          "duration": 0.21354166666662877
        },
        {
          "name": "F4",
          "midi": 65,
          "time": 297.4843750000009,
          "velocity": 1,
          "duration": 0.22395833333331439
        },
        {
          "name": "D4",
          "midi": 62,
          "time": 297.4843750000009,
          "velocity": 0.8582677165354331,
          "duration": 0.22395833333331439
        },
        {
          "name": "G4",
          "midi": 67,
          "time": 298.0104166666676,
          "velocity": 1,
          "duration": 0.29687499999994316
        },
        {
          "name": "C3",
          "midi": 48,
          "time": 298.0104166666676,
          "velocity": 1,
          "duration": 1.5260416666666288
        },
        {
          "name": "C4",
          "midi": 60,
          "time": 298.0156250000009,
          "velocity": 1,
          "duration": 0.29166666666662877
        },
        {
          "name": "C2",
          "midi": 36,
          "time": 298.0156250000009,
          "velocity": 1,
          "duration": 3.781249999999943
        },
        {
          "name": "E4",
          "midi": 64,
          "time": 298.0208333333342,
          "velocity": 1,
          "duration": 0.2708333333333144
        },
        {
          "name": "G5",
          "midi": 79,
          "time": 298.88541666666754,
          "velocity": 1,
          "duration": 0.19270833333337123
        },
        {
          "name": "E5",
          "midi": 76,
          "time": 298.93229166666754,
          "velocity": 1,
          "duration": 0.18750000000005684
        },
        {
          "name": "C5",
          "midi": 72,
          "time": 298.9583333333342,
          "velocity": 1,
          "duration": 0.19791666666668561
        },
        {
          "name": "G4",
          "midi": 67,
          "time": 299.8125000000009,
          "velocity": 1,
          "duration": 0.5677083333333144
        },
        {
          "name": "E4",
          "midi": 64,
          "time": 299.8437500000009,
          "velocity": 1,
          "duration": 0.5520833333333144
        },
        {
          "name": "C4",
          "midi": 60,
          "time": 299.9114583333342,
          "velocity": 1,
          "duration": 0.5
        },
        {
          "name": "C3",
          "midi": 48,
          "time": 300.0052083333342,
          "velocity": 1,
          "duration": 0.453125
        },
        {
          "name": "C3",
          "midi": 48,
          "time": 300.7552083333342,
          "velocity": 1,
          "duration": 0.41666666666662877
        },
        {
          "name": "G3",
          "midi": 55,
          "time": 301.0000000000009,
          "velocity": 1,
          "duration": 0.32812499999994316
        },
        {
          "name": "C4",
          "midi": 60,
          "time": 301.0052083333342,
          "velocity": 1,
          "duration": 0.5052083333332575
        },
        {
          "name": "E4",
          "midi": 64,
          "time": 301.01041666666754,
          "velocity": 1,
          "duration": 0.49479166666662877
        },
        {
          "name": "C3",
          "midi": 48,
          "time": 301.25000000000085,
          "velocity": 1,
          "duration": 0.5625
        },
        {
          "name": "G3",
          "midi": 55,
          "time": 301.5104166666675,
          "velocity": 1,
          "duration": 0.30208333333337123
        },
        {
          "name": "C4",
          "midi": 60,
          "time": 301.77083333333417,
          "velocity": 1,
          "duration": 0.06250000000005684
        },
        {
          "name": "B3",
          "midi": 59,
          "time": 302.0000000000009,
          "velocity": 1,
          "duration": 0.37499999999994316
        },
        {
          "name": "G4",
          "midi": 67,
          "time": 302.0052083333342,
          "velocity": 1,
          "duration": 0.40104166666662877
        },
        {
          "name": "G2",
          "midi": 43,
          "time": 302.01041666666754,
          "velocity": 1,
          "duration": 0.17708333333331439
        },
        {
          "name": "D4",
          "midi": 62,
          "time": 302.01562500000085,
          "velocity": 1,
          "duration": 0.4166666666666856
        },
        {
          "name": "B4",
          "midi": 71,
          "time": 302.01562500000085,
          "velocity": 1,
          "duration": 0.40625
        },
        {
          "name": "G2",
          "midi": 43,
          "time": 302.25520833333417,
          "velocity": 1,
          "duration": 0.6562500000000568
        },
        {
          "name": "B3",
          "midi": 59,
          "time": 302.51041666666754,
          "velocity": 1,
          "duration": 0.7604166666666856
        },
        {
          "name": "G4",
          "midi": 67,
          "time": 302.73437500000085,
          "velocity": 1,
          "duration": 0.5572916666666856
        },
        {
          "name": "D4",
          "midi": 62,
          "time": 302.74479166666754,
          "velocity": 1,
          "duration": 0.5677083333333144
        },
        {
          "name": "B4",
          "midi": 71,
          "time": 302.7552083333342,
          "velocity": 1,
          "duration": 0.5572916666666288
        },
        {
          "name": "G2",
          "midi": 43,
          "time": 303.24479166666754,
          "velocity": 1,
          "duration": 0.6041666666666856
        },
        {
          "name": "B3",
          "midi": 59,
          "time": 303.36979166666754,
          "velocity": 1,
          "duration": 0.5104166666666856
        },
        {
          "name": "D4",
          "midi": 62,
          "time": 303.50000000000085,
          "velocity": 1,
          "duration": 0.38020833333337123
        },
        {
          "name": "G4",
          "midi": 67,
          "time": 303.62500000000085,
          "velocity": 1,
          "duration": 0.22916666666668561
        },
        {
          "name": "B4",
          "midi": 71,
          "time": 303.76041666666754,
          "velocity": 1,
          "duration": 0.11979166666668561
        },
        {
          "name": "D4",
          "midi": 62,
          "time": 304.0000000000009,
          "velocity": 1,
          "duration": 0.37499999999994316
        },
        {
          "name": "A#4",
          "midi": 70,
          "time": 304.0052083333342,
          "velocity": 1,
          "duration": 0.40104166666662877
        },
        {
          "name": "A#1",
          "midi": 34,
          "time": 304.01041666666754,
          "velocity": 1,
          "duration": 1.8385416666666856
        },
        {
          "name": "A#2",
          "midi": 46,
          "time": 304.01041666666754,
          "velocity": 1,
          "duration": 0.17708333333331439
        },
        {
          "name": "F4",
          "midi": 65,
          "time": 304.01562500000085,
          "velocity": 1,
          "duration": 0.4166666666666856
        },
        {
          "name": "D5",
          "midi": 74,
          "time": 304.01562500000085,
          "velocity": 1,
          "duration": 0.40625
        },
        {
          "name": "A#2",
          "midi": 46,
          "time": 304.25520833333417,
          "velocity": 1,
          "duration": 0.6562500000000568
        },
        {
          "name": "D4",
          "midi": 62,
          "time": 304.51041666666754,
          "velocity": 1,
          "duration": 0.7604166666666856
        },
        {
          "name": "A#4",
          "midi": 70,
          "time": 304.73437500000085,
          "velocity": 1,
          "duration": 0.5572916666666856
        },
        {
          "name": "F4",
          "midi": 65,
          "time": 304.74479166666754,
          "velocity": 1,
          "duration": 0.5677083333333144
        },
        {
          "name": "D5",
          "midi": 74,
          "time": 304.7552083333342,
          "velocity": 1,
          "duration": 0.5572916666666288
        },
        {
          "name": "A#2",
          "midi": 46,
          "time": 305.24479166666754,
          "velocity": 1,
          "duration": 0.6145833333333144
        },
        {
          "name": "D4",
          "midi": 62,
          "time": 305.36979166666754,
          "velocity": 1,
          "duration": 0.5104166666666288
        },
        {
          "name": "F4",
          "midi": 65,
          "time": 305.50000000000085,
          "velocity": 1,
          "duration": 0.3802083333333144
        },
        {
          "name": "A#4",
          "midi": 70,
          "time": 305.62500000000085,
          "velocity": 1,
          "duration": 0.22916666666668561
        },
        {
          "name": "D5",
          "midi": 74,
          "time": 305.76041666666754,
          "velocity": 1,
          "duration": 0.11979166666662877
        },
        {
          "name": "G4",
          "midi": 67,
          "time": 306.0104166666675,
          "velocity": 1,
          "duration": 0.29687499999994316
        },
        {
          "name": "C3",
          "midi": 48,
          "time": 306.0104166666675,
          "velocity": 1,
          "duration": 1.5260416666666288
        },
        {
          "name": "C4",
          "midi": 60,
          "time": 306.0156250000008,
          "velocity": 1,
          "duration": 0.29166666666662877
        },
        {
          "name": "C2",
          "midi": 36,
          "time": 306.0156250000008,
          "velocity": 1,
          "duration": 3.781249999999943
        },
        {
          "name": "E4",
          "midi": 64,
          "time": 306.0208333333341,
          "velocity": 1,
          "duration": 0.2708333333333144
        },
        {
          "name": "G5",
          "midi": 79,
          "time": 306.8854166666674,
          "velocity": 1,
          "duration": 0.19270833333337123
        },
        {
          "name": "E5",
          "midi": 76,
          "time": 306.9322916666674,
          "velocity": 1,
          "duration": 0.18750000000005684
        },
        {
          "name": "C5",
          "midi": 72,
          "time": 306.9583333333341,
          "velocity": 1,
          "duration": 0.19791666666668561
        },
        {
          "name": "G4",
          "midi": 67,
          "time": 307.8125000000008,
          "velocity": 1,
          "duration": 0.5677083333333144
        },
        {
          "name": "E4",
          "midi": 64,
          "time": 307.8437500000008,
          "velocity": 1,
          "duration": 0.5520833333333144
        },
        {
          "name": "C4",
          "midi": 60,
          "time": 307.9114583333341,
          "velocity": 1,
          "duration": 0.5
        },
        {
          "name": "C3",
          "midi": 48,
          "time": 308.0052083333341,
          "velocity": 1,
          "duration": 0.453125
        },
        {
          "name": "C3",
          "midi": 48,
          "time": 308.7552083333341,
          "velocity": 1,
          "duration": 0.41666666666662877
        },
        {
          "name": "G3",
          "midi": 55,
          "time": 309.0000000000008,
          "velocity": 1,
          "duration": 0.32812499999994316
        },
        {
          "name": "C4",
          "midi": 60,
          "time": 309.0052083333341,
          "velocity": 1,
          "duration": 0.5052083333332575
        },
        {
          "name": "E4",
          "midi": 64,
          "time": 309.0104166666674,
          "velocity": 1,
          "duration": 0.49479166666662877
        },
        {
          "name": "C3",
          "midi": 48,
          "time": 309.25000000000074,
          "velocity": 1,
          "duration": 0.5625
        },
        {
          "name": "G3",
          "midi": 55,
          "time": 309.51041666666737,
          "velocity": 1,
          "duration": 0.30208333333337123
        },
        {
          "name": "C4",
          "midi": 60,
          "time": 309.77083333333405,
          "velocity": 1,
          "duration": 0.06250000000005684
        },
        {
          "name": "G4",
          "midi": 67,
          "time": 310.0000000000008,
          "velocity": 1,
          "duration": 0.16145833333331439
        },
        {
          "name": "D5",
          "midi": 74,
          "time": 310.0000000000008,
          "velocity": 1,
          "duration": 0.3177083333333144
        },
        {
          "name": "B4",
          "midi": 71,
          "time": 310.0000000000008,
          "velocity": 1,
          "duration": 0.2864583333333144
        },
        {
          "name": "G5",
          "midi": 79,
          "time": 310.0000000000008,
          "velocity": 1,
          "duration": 0.328125
        },
        {
          "name": "B3",
          "midi": 59,
          "time": 310.0052083333341,
          "velocity": 1,
          "duration": 1.6145833333333712
        },
        {
          "name": "G2",
          "midi": 43,
          "time": 310.0208333333341,
          "velocity": 1,
          "duration": 1.75
        },
        {
          "name": "G4",
          "midi": 67,
          "time": 310.2552083333341,
          "velocity": 1,
          "duration": 0.5989583333333144
        },
        {
          "name": "B4",
          "midi": 71,
          "time": 310.5000000000008,
          "velocity": 1,
          "duration": 0.20833333333331439
        },
        {
          "name": "D5",
          "midi": 74,
          "time": 310.7708333333341,
          "velocity": 1,
          "duration": 0.08333333333331439
        },
        {
          "name": "G5",
          "midi": 79,
          "time": 310.9895833333341,
          "velocity": 1,
          "duration": 0.07291666666668561
        },
        {
          "name": "B5",
          "midi": 83,
          "time": 311.2604166666675,
          "velocity": 1,
          "duration": 0.22395833333331439
        },
        {
          "name": "G4",
          "midi": 67,
          "time": 311.4375000000008,
          "velocity": 1,
          "duration": 0.13020833333337123
        },
        {
          "name": "D6",
          "midi": 86,
          "time": 311.4947916666675,
          "velocity": 1,
          "duration": 0.09895833333337123
        },
        {
          "name": "B5",
          "midi": 83,
          "time": 311.61458333333417,
          "velocity": 1,
          "duration": 0.11458333333331439
        },
        {
          "name": "G5",
          "midi": 79,
          "time": 311.7500000000008,
          "velocity": 1,
          "duration": 0.09895833333331439
        },
        {
          "name": "D5",
          "midi": 74,
          "time": 311.8958333333341,
          "velocity": 1,
          "duration": 0.026041666666685614
        },
        {
          "name": "A#3",
          "midi": 58,
          "time": 312.0000000000008,
          "velocity": 1,
          "duration": 0.16145833333331439
        },
        {
          "name": "F4",
          "midi": 65,
          "time": 312.0000000000008,
          "velocity": 1,
          "duration": 0.3177083333333144
        },
        {
          "name": "D4",
          "midi": 62,
          "time": 312.0000000000008,
          "velocity": 1,
          "duration": 0.2864583333333144
        },
        {
          "name": "A#4",
          "midi": 70,
          "time": 312.0000000000008,
          "velocity": 1,
          "duration": 0.328125
        },
        {
          "name": "D3",
          "midi": 50,
          "time": 312.0052083333341,
          "velocity": 1,
          "duration": 1.6145833333333712
        },
        {
          "name": "A#2",
          "midi": 46,
          "time": 312.0208333333341,
          "velocity": 1,
          "duration": 1.75
        },
        {
          "name": "A#3",
          "midi": 58,
          "time": 312.2552083333341,
          "velocity": 1,
          "duration": 0.5989583333333144
        },
        {
          "name": "D4",
          "midi": 62,
          "time": 312.5000000000008,
          "velocity": 1,
          "duration": 0.20833333333331439
        },
        {
          "name": "F4",
          "midi": 65,
          "time": 312.7708333333341,
          "velocity": 1,
          "duration": 0.08333333333331439
        },
        {
          "name": "A#4",
          "midi": 70,
          "time": 312.9895833333341,
          "velocity": 1,
          "duration": 0.07291666666668561
        },
        {
          "name": "D5",
          "midi": 74,
          "time": 313.2604166666675,
          "velocity": 1,
          "duration": 0.22395833333331439
        },
        {
          "name": "A#3",
          "midi": 58,
          "time": 313.4375000000008,
          "velocity": 1,
          "duration": 0.13020833333337123
        },
        {
          "name": "F5",
          "midi": 77,
          "time": 313.4947916666675,
          "velocity": 1,
          "duration": 0.09895833333337123
        },
        {
          "name": "D5",
          "midi": 74,
          "time": 313.61458333333417,
          "velocity": 1,
          "duration": 0.11458333333331439
        },
        {
          "name": "A#4",
          "midi": 70,
          "time": 313.7500000000008,
          "velocity": 1,
          "duration": 0.09895833333331439
        },
        {
          "name": "F4",
          "midi": 65,
          "time": 313.8958333333341,
          "velocity": 1,
          "duration": 0.026041666666685614
        },
        {
          "name": "E4",
          "midi": 64,
          "time": 314.0052083333341,
          "velocity": 1,
          "duration": 0.5468749999999432
        },
        {
          "name": "C4",
          "midi": 60,
          "time": 314.0052083333341,
          "velocity": 1,
          "duration": 0.5104166666666288
        },
        {
          "name": "C3",
          "midi": 48,
          "time": 314.0104166666674,
          "velocity": 1,
          "duration": 1.916666666666572
        },
        {
          "name": "G3",
          "midi": 55,
          "time": 314.0104166666674,
          "velocity": 1,
          "duration": 0.4375
        },
        {
          "name": "C2",
          "midi": 36,
          "time": 314.2760416666674,
          "velocity": 1,
          "duration": 3.3072916666664582
        },
        {
          "name": "G3",
          "midi": 55,
          "time": 314.51562500000074,
          "velocity": 1,
          "duration": 0.9583333333332575
        },
        {
          "name": "C4",
          "midi": 60,
          "time": 314.76041666666737,
          "velocity": 1,
          "duration": 0.6614583333333144
        },
        {
          "name": "E4",
          "midi": 64,
          "time": 314.77083333333405,
          "velocity": 1,
          "duration": 0.6458333333333144
        },
        {
          "name": "G3",
          "midi": 55,
          "time": 315.645833333334,
          "velocity": 1,
          "duration": 1.5156249999999432
        },
        {
          "name": "C4",
          "midi": 60,
          "time": 315.770833333334,
          "velocity": 1,
          "duration": 0.5364583333333144
        },
        {
          "name": "E4",
          "midi": 64,
          "time": 316.0156250000007,
          "velocity": 1,
          "duration": 0.2864583333333144
        },
        {
          "name": "C3",
          "midi": 48,
          "time": 316.020833333334,
          "velocity": 1,
          "duration": 1.0208333333333144
        },
        {
          "name": "C4",
          "midi": 60,
          "time": 316.473958333334,
          "velocity": 1,
          "duration": 0.6666666666666288
        },
        {
          "name": "E4",
          "midi": 64,
          "time": 316.7447916666673,
          "velocity": 1,
          "duration": 0.375
        },
        {
          "name": "C3",
          "midi": 48,
          "time": 317.2500000000006,
          "velocity": 1,
          "duration": 0.3541666666665719
        },
        {
          "name": "C4",
          "midi": 60,
          "time": 317.50520833333394,
          "velocity": 1,
          "duration": 0.32812499999994316
        },
        {
          "name": "G3",
          "midi": 55,
          "time": 317.51041666666725,
          "velocity": 1,
          "duration": 0.33333333333325754
        },
        {
          "name": "E4",
          "midi": 64,
          "time": 317.51562500000057,
          "velocity": 1,
          "duration": 0.32291666666662877
        },
        {
          "name": "G5",
          "midi": 79,
          "time": 318.0208333333338,
          "velocity": 1,
          "duration": 0.8958333333333144
        },
        {
          "name": "D5",
          "midi": 74,
          "time": 318.0208333333338,
          "velocity": 1,
          "duration": 0.875
        },
        {
          "name": "G2",
          "midi": 43,
          "time": 318.0208333333338,
          "velocity": 1,
          "duration": 1.75
        },
        {
          "name": "B4",
          "midi": 71,
          "time": 318.02604166666714,
          "velocity": 1,
          "duration": 0.8125
        },
        {
          "name": "G4",
          "midi": 67,
          "time": 318.02604166666714,
          "velocity": 1,
          "duration": 0.5677083333333144
        },
        {
          "name": "G4",
          "midi": 67,
          "time": 318.75000000000045,
          "velocity": 1,
          "duration": 1.0052083333333712
        },
        {
          "name": "B4",
          "midi": 71,
          "time": 319.24479166666714,
          "velocity": 1,
          "duration": 0.4635416666666856
        },
        {
          "name": "G5",
          "midi": 79,
          "time": 319.47916666666714,
          "velocity": 1,
          "duration": 0.21875
        },
        {
          "name": "D5",
          "midi": 74,
          "time": 319.48437500000045,
          "velocity": 1,
          "duration": 0.22395833333337123
        },
        {
          "name": "A#3",
          "midi": 58,
          "time": 320.0000000000005,
          "velocity": 1,
          "duration": 0.16145833333331439
        },
        {
          "name": "F4",
          "midi": 65,
          "time": 320.0000000000005,
          "velocity": 1,
          "duration": 0.3177083333333144
        },
        {
          "name": "D4",
          "midi": 62,
          "time": 320.0000000000005,
          "velocity": 1,
          "duration": 0.2864583333333144
        },
        {
          "name": "A#4",
          "midi": 70,
          "time": 320.0000000000005,
          "velocity": 1,
          "duration": 0.328125
        },
        {
          "name": "D3",
          "midi": 50,
          "time": 320.0052083333338,
          "velocity": 1,
          "duration": 1.6145833333333712
        },
        {
          "name": "A#2",
          "midi": 46,
          "time": 320.0208333333338,
          "velocity": 1,
          "duration": 1.75
        },
        {
          "name": "A#3",
          "midi": 58,
          "time": 320.2552083333338,
          "velocity": 1,
          "duration": 0.5989583333333144
        },
        {
          "name": "D4",
          "midi": 62,
          "time": 320.5000000000005,
          "velocity": 1,
          "duration": 0.20833333333331439
        },
        {
          "name": "F4",
          "midi": 65,
          "time": 320.7708333333338,
          "velocity": 1,
          "duration": 0.08333333333331439
        },
        {
          "name": "A#4",
          "midi": 70,
          "time": 320.9895833333338,
          "velocity": 1,
          "duration": 0.07291666666668561
        },
        {
          "name": "D5",
          "midi": 74,
          "time": 321.2604166666672,
          "velocity": 1,
          "duration": 0.22395833333331439
        },
        {
          "name": "A#3",
          "midi": 58,
          "time": 321.4375000000005,
          "velocity": 1,
          "duration": 0.13020833333337123
        },
        {
          "name": "F5",
          "midi": 77,
          "time": 321.4947916666672,
          "velocity": 1,
          "duration": 0.09895833333337123
        },
        {
          "name": "D5",
          "midi": 74,
          "time": 321.6145833333339,
          "velocity": 1,
          "duration": 0.11458333333331439
        },
        {
          "name": "A#4",
          "midi": 70,
          "time": 321.7500000000005,
          "velocity": 1,
          "duration": 0.09895833333331439
        },
        {
          "name": "F4",
          "midi": 65,
          "time": 321.8958333333338,
          "velocity": 1,
          "duration": 0.026041666666685614
        },
        {
          "name": "C5",
          "midi": 72,
          "time": 322.0208333333338,
          "velocity": 1,
          "duration": 0.8958333333333144
        },
        {
          "name": "G4",
          "midi": 67,
          "time": 322.0208333333338,
          "velocity": 1,
          "duration": 0.875
        },
        {
          "name": "C3",
          "midi": 48,
          "time": 322.0208333333338,
          "velocity": 1,
          "duration": 1.75
        },
        {
          "name": "E4",
          "midi": 64,
          "time": 322.02604166666714,
          "velocity": 1,
          "duration": 0.8125
        },
        {
          "name": "C4",
          "midi": 60,
          "time": 322.02604166666714,
          "velocity": 1,
          "duration": 0.5677083333333144
        },
        {
          "name": "C4",
          "midi": 60,
          "time": 322.75000000000045,
          "velocity": 1,
          "duration": 1.0052083333333712
        },
        {
          "name": "E4",
          "midi": 64,
          "time": 323.24479166666714,
          "velocity": 1,
          "duration": 0.4635416666666856
        },
        {
          "name": "C5",
          "midi": 72,
          "time": 323.47916666666714,
          "velocity": 1,
          "duration": 0.21875
        },
        {
          "name": "G4",
          "midi": 67,
          "time": 323.48437500000045,
          "velocity": 1,
          "duration": 0.22395833333337123
        },
        {
          "name": "E3",
          "midi": 52,
          "time": 324.0000000000005,
          "velocity": 1,
          "duration": 1.8958333333333712
        },
        {
          "name": "C4",
          "midi": 60,
          "time": 324.0000000000005,
          "velocity": 1,
          "duration": 1.875
        },
        {
          "name": "G4",
          "midi": 67,
          "time": 324.0000000000005,
          "velocity": 1,
          "duration": 1.8854166666666856
        },
        {
          "name": "C5",
          "midi": 72,
          "time": 324.0000000000005,
          "velocity": 1,
          "duration": 1.8854166666666856
        },
        {
          "name": "E5",
          "midi": 76,
          "time": 324.0416666666672,
          "velocity": 1,
          "duration": 1.84375
        },
        {
          "name": "G4",
          "midi": 67,
          "time": 326.0104166666672,
          "velocity": 1,
          "duration": 0.29687499999994316
        },
        {
          "name": "C3",
          "midi": 48,
          "time": 326.0104166666672,
          "velocity": 1,
          "duration": 1.5260416666666288
        },
        {
          "name": "C4",
          "midi": 60,
          "time": 326.0156250000005,
          "velocity": 1,
          "duration": 0.29166666666662877
        },
        {
          "name": "C2",
          "midi": 36,
          "time": 326.0156250000005,
          "velocity": 1,
          "duration": 3.781249999999943
        },
        {
          "name": "E4",
          "midi": 64,
          "time": 326.0208333333338,
          "velocity": 1,
          "duration": 0.2708333333333144
        },
        {
          "name": "G5",
          "midi": 79,
          "time": 326.88541666666714,
          "velocity": 1,
          "duration": 0.19270833333337123
        },
        {
          "name": "E5",
          "midi": 76,
          "time": 326.93229166666714,
          "velocity": 1,
          "duration": 0.18750000000005684
        },
        {
          "name": "C5",
          "midi": 72,
          "time": 326.9583333333338,
          "velocity": 1,
          "duration": 0.19791666666668561
        },
        {
          "name": "G4",
          "midi": 67,
          "time": 327.8125000000005,
          "velocity": 1,
          "duration": 0.5677083333333144
        },
        {
          "name": "E4",
          "midi": 64,
          "time": 327.8437500000005,
          "velocity": 1,
          "duration": 0.5520833333333144
        },
        {
          "name": "C4",
          "midi": 60,
          "time": 327.9114583333338,
          "velocity": 1,
          "duration": 0.5
        },
        {
          "name": "C3",
          "midi": 48,
          "time": 328.0052083333338,
          "velocity": 1,
          "duration": 0.453125
        },
        {
          "name": "C3",
          "midi": 48,
          "time": 328.7552083333338,
          "velocity": 1,
          "duration": 0.41666666666662877
        },
        {
          "name": "G3",
          "midi": 55,
          "time": 329.0000000000005,
          "velocity": 1,
          "duration": 0.32812499999994316
        },
        {
          "name": "C4",
          "midi": 60,
          "time": 329.0052083333338,
          "velocity": 1,
          "duration": 0.5052083333332575
        },
        {
          "name": "E4",
          "midi": 64,
          "time": 329.01041666666714,
          "velocity": 1,
          "duration": 0.49479166666662877
        },
        {
          "name": "C3",
          "midi": 48,
          "time": 329.25000000000045,
          "velocity": 1,
          "duration": 0.5625
        },
        {
          "name": "G3",
          "midi": 55,
          "time": 329.5104166666671,
          "velocity": 1,
          "duration": 0.30208333333337123
        },
        {
          "name": "C4",
          "midi": 60,
          "time": 329.77083333333377,
          "velocity": 1,
          "duration": 0.06250000000005684
        },
        {
          "name": "B3",
          "midi": 59,
          "time": 330.0000000000005,
          "velocity": 1,
          "duration": 0.37499999999994316
        },
        {
          "name": "G4",
          "midi": 67,
          "time": 330.0052083333338,
          "velocity": 1,
          "duration": 0.40104166666662877
        },
        {
          "name": "G2",
          "midi": 43,
          "time": 330.01041666666714,
          "velocity": 1,
          "duration": 0.17708333333331439
        },
        {
          "name": "D4",
          "midi": 62,
          "time": 330.01562500000045,
          "velocity": 1,
          "duration": 0.4166666666666856
        },
        {
          "name": "B4",
          "midi": 71,
          "time": 330.01562500000045,
          "velocity": 1,
          "duration": 0.40625
        },
        {
          "name": "G2",
          "midi": 43,
          "time": 330.25520833333377,
          "velocity": 1,
          "duration": 0.6562500000000568
        },
        {
          "name": "B3",
          "midi": 59,
          "time": 330.51041666666714,
          "velocity": 1,
          "duration": 0.7604166666666856
        },
        {
          "name": "G4",
          "midi": 67,
          "time": 330.73437500000045,
          "velocity": 1,
          "duration": 0.5572916666666856
        },
        {
          "name": "D4",
          "midi": 62,
          "time": 330.74479166666714,
          "velocity": 1,
          "duration": 0.5677083333333144
        },
        {
          "name": "B4",
          "midi": 71,
          "time": 330.7552083333338,
          "velocity": 1,
          "duration": 0.5572916666666288
        },
        {
          "name": "G2",
          "midi": 43,
          "time": 331.24479166666714,
          "velocity": 1,
          "duration": 0.6041666666666856
        },
        {
          "name": "B3",
          "midi": 59,
          "time": 331.36979166666714,
          "velocity": 1,
          "duration": 0.5104166666666856
        },
        {
          "name": "D4",
          "midi": 62,
          "time": 331.50000000000045,
          "velocity": 1,
          "duration": 0.38020833333337123
        },
        {
          "name": "G4",
          "midi": 67,
          "time": 331.62500000000045,
          "velocity": 1,
          "duration": 0.22916666666668561
        },
        {
          "name": "B4",
          "midi": 71,
          "time": 331.76041666666714,
          "velocity": 1,
          "duration": 0.11979166666668561
        },
        {
          "name": "D4",
          "midi": 62,
          "time": 332.0000000000005,
          "velocity": 1,
          "duration": 0.37499999999994316
        },
        {
          "name": "A#4",
          "midi": 70,
          "time": 332.0052083333338,
          "velocity": 1,
          "duration": 0.40104166666662877
        },
        {
          "name": "A#1",
          "midi": 34,
          "time": 332.01041666666714,
          "velocity": 1,
          "duration": 1.8385416666666856
        },
        {
          "name": "A#2",
          "midi": 46,
          "time": 332.01041666666714,
          "velocity": 1,
          "duration": 0.17708333333331439
        },
        {
          "name": "F4",
          "midi": 65,
          "time": 332.01562500000045,
          "velocity": 1,
          "duration": 0.4166666666666856
        },
        {
          "name": "D5",
          "midi": 74,
          "time": 332.01562500000045,
          "velocity": 1,
          "duration": 0.40625
        },
        {
          "name": "A#2",
          "midi": 46,
          "time": 332.25520833333377,
          "velocity": 1,
          "duration": 0.6562500000000568
        },
        {
          "name": "D4",
          "midi": 62,
          "time": 332.51041666666714,
          "velocity": 1,
          "duration": 0.7604166666666856
        },
        {
          "name": "A#4",
          "midi": 70,
          "time": 332.73437500000045,
          "velocity": 1,
          "duration": 0.5572916666666856
        },
        {
          "name": "F4",
          "midi": 65,
          "time": 332.74479166666714,
          "velocity": 1,
          "duration": 0.5677083333333144
        },
        {
          "name": "D5",
          "midi": 74,
          "time": 332.7552083333338,
          "velocity": 1,
          "duration": 0.5572916666666288
        },
        {
          "name": "A#2",
          "midi": 46,
          "time": 333.24479166666714,
          "velocity": 1,
          "duration": 0.6145833333333144
        },
        {
          "name": "D4",
          "midi": 62,
          "time": 333.36979166666714,
          "velocity": 1,
          "duration": 0.5104166666666288
        },
        {
          "name": "F4",
          "midi": 65,
          "time": 333.50000000000045,
          "velocity": 1,
          "duration": 0.3802083333333144
        },
        {
          "name": "A#4",
          "midi": 70,
          "time": 333.62500000000045,
          "velocity": 1,
          "duration": 0.22916666666668561
        },
        {
          "name": "D5",
          "midi": 74,
          "time": 333.76041666666714,
          "velocity": 1,
          "duration": 0.11979166666662877
        },
        {
          "name": "G4",
          "midi": 67,
          "time": 334.0104166666671,
          "velocity": 1,
          "duration": 0.29687499999994316
        },
        {
          "name": "C3",
          "midi": 48,
          "time": 334.0104166666671,
          "velocity": 1,
          "duration": 1.5260416666666288
        },
        {
          "name": "C4",
          "midi": 60,
          "time": 334.0156250000004,
          "velocity": 1,
          "duration": 0.29166666666662877
        },
        {
          "name": "C2",
          "midi": 36,
          "time": 334.0156250000004,
          "velocity": 1,
          "duration": 3.781249999999943
        },
        {
          "name": "E4",
          "midi": 64,
          "time": 334.0208333333337,
          "velocity": 1,
          "duration": 0.2708333333333144
        },
        {
          "name": "G5",
          "midi": 79,
          "time": 334.885416666667,
          "velocity": 1,
          "duration": 0.19270833333337123
        },
        {
          "name": "E5",
          "midi": 76,
          "time": 334.932291666667,
          "velocity": 1,
          "duration": 0.18750000000005684
        },
        {
          "name": "C5",
          "midi": 72,
          "time": 334.9583333333337,
          "velocity": 1,
          "duration": 0.19791666666668561
        },
        {
          "name": "G4",
          "midi": 67,
          "time": 335.8125000000004,
          "velocity": 1,
          "duration": 0.5677083333333144
        },
        {
          "name": "E4",
          "midi": 64,
          "time": 335.8437500000004,
          "velocity": 1,
          "duration": 0.5520833333333144
        },
        {
          "name": "C4",
          "midi": 60,
          "time": 335.9114583333337,
          "velocity": 1,
          "duration": 0.5
        },
        {
          "name": "C3",
          "midi": 48,
          "time": 336.0052083333337,
          "velocity": 1,
          "duration": 0.453125
        },
        {
          "name": "C3",
          "midi": 48,
          "time": 336.7552083333337,
          "velocity": 1,
          "duration": 0.41666666666662877
        },
        {
          "name": "G3",
          "midi": 55,
          "time": 337.0000000000004,
          "velocity": 1,
          "duration": 0.32812499999994316
        },
        {
          "name": "C4",
          "midi": 60,
          "time": 337.0052083333337,
          "velocity": 1,
          "duration": 0.5052083333332575
        },
        {
          "name": "E4",
          "midi": 64,
          "time": 337.010416666667,
          "velocity": 1,
          "duration": 0.49479166666662877
        },
        {
          "name": "C3",
          "midi": 48,
          "time": 337.25000000000034,
          "velocity": 1,
          "duration": 0.5625
        },
        {
          "name": "G3",
          "midi": 55,
          "time": 337.51041666666697,
          "velocity": 1,
          "duration": 0.30208333333337123
        },
        {
          "name": "C4",
          "midi": 60,
          "time": 337.77083333333366,
          "velocity": 1,
          "duration": 0.06250000000005684
        },
        {
          "name": "G4",
          "midi": 67,
          "time": 338.0000000000004,
          "velocity": 1,
          "duration": 0.16145833333331439
        },
        {
          "name": "D5",
          "midi": 74,
          "time": 338.0000000000004,
          "velocity": 1,
          "duration": 0.3177083333333144
        },
        {
          "name": "B4",
          "midi": 71,
          "time": 338.0000000000004,
          "velocity": 1,
          "duration": 0.2864583333333144
        },
        {
          "name": "G5",
          "midi": 79,
          "time": 338.0000000000004,
          "velocity": 1,
          "duration": 0.328125
        },
        {
          "name": "B3",
          "midi": 59,
          "time": 338.0052083333337,
          "velocity": 1,
          "duration": 1.6145833333333712
        },
        {
          "name": "G2",
          "midi": 43,
          "time": 338.0208333333337,
          "velocity": 1,
          "duration": 1.75
        },
        {
          "name": "G4",
          "midi": 67,
          "time": 338.2552083333337,
          "velocity": 1,
          "duration": 0.5989583333333144
        },
        {
          "name": "B4",
          "midi": 71,
          "time": 338.5000000000004,
          "velocity": 1,
          "duration": 0.20833333333331439
        },
        {
          "name": "D5",
          "midi": 74,
          "time": 338.7708333333337,
          "velocity": 1,
          "duration": 0.08333333333331439
        },
        {
          "name": "G5",
          "midi": 79,
          "time": 338.9895833333337,
          "velocity": 1,
          "duration": 0.07291666666668561
        },
        {
          "name": "B5",
          "midi": 83,
          "time": 339.2604166666671,
          "velocity": 1,
          "duration": 0.22395833333331439
        },
        {
          "name": "G4",
          "midi": 67,
          "time": 339.4375000000004,
          "velocity": 1,
          "duration": 0.13020833333337123
        },
        {
          "name": "D6",
          "midi": 86,
          "time": 339.4947916666671,
          "velocity": 1,
          "duration": 0.09895833333337123
        },
        {
          "name": "B5",
          "midi": 83,
          "time": 339.61458333333377,
          "velocity": 1,
          "duration": 0.11458333333331439
        },
        {
          "name": "G5",
          "midi": 79,
          "time": 339.7500000000004,
          "velocity": 1,
          "duration": 0.09895833333331439
        },
        {
          "name": "D5",
          "midi": 74,
          "time": 339.8958333333337,
          "velocity": 1,
          "duration": 0.026041666666685614
        },
        {
          "name": "A#3",
          "midi": 58,
          "time": 340.0000000000004,
          "velocity": 1,
          "duration": 0.16145833333331439
        },
        {
          "name": "F4",
          "midi": 65,
          "time": 340.0000000000004,
          "velocity": 1,
          "duration": 0.3177083333333144
        },
        {
          "name": "D4",
          "midi": 62,
          "time": 340.0000000000004,
          "velocity": 1,
          "duration": 0.2864583333333144
        },
        {
          "name": "A#4",
          "midi": 70,
          "time": 340.0000000000004,
          "velocity": 1,
          "duration": 0.328125
        },
        {
          "name": "D3",
          "midi": 50,
          "time": 340.0052083333337,
          "velocity": 1,
          "duration": 1.6145833333333712
        },
        {
          "name": "A#2",
          "midi": 46,
          "time": 340.0208333333337,
          "velocity": 1,
          "duration": 1.75
        },
        {
          "name": "A#3",
          "midi": 58,
          "time": 340.2552083333337,
          "velocity": 1,
          "duration": 0.5989583333333144
        },
        {
          "name": "D4",
          "midi": 62,
          "time": 340.5000000000004,
          "velocity": 1,
          "duration": 0.20833333333331439
        },
        {
          "name": "F4",
          "midi": 65,
          "time": 340.7708333333337,
          "velocity": 1,
          "duration": 0.08333333333331439
        },
        {
          "name": "A#4",
          "midi": 70,
          "time": 340.9895833333337,
          "velocity": 1,
          "duration": 0.07291666666668561
        },
        {
          "name": "D5",
          "midi": 74,
          "time": 341.2604166666671,
          "velocity": 1,
          "duration": 0.22395833333331439
        },
        {
          "name": "A#3",
          "midi": 58,
          "time": 341.4375000000004,
          "velocity": 1,
          "duration": 0.13020833333337123
        },
        {
          "name": "F5",
          "midi": 77,
          "time": 341.4947916666671,
          "velocity": 1,
          "duration": 0.09895833333337123
        },
        {
          "name": "D5",
          "midi": 74,
          "time": 341.61458333333377,
          "velocity": 1,
          "duration": 0.11458333333331439
        },
        {
          "name": "A#4",
          "midi": 70,
          "time": 341.7500000000004,
          "velocity": 1,
          "duration": 0.09895833333331439
        },
        {
          "name": "F4",
          "midi": 65,
          "time": 341.8958333333337,
          "velocity": 1,
          "duration": 0.026041666666685614
        },
        {
          "name": "E4",
          "midi": 64,
          "time": 342.0052083333337,
          "velocity": 1,
          "duration": 0.5468749999999432
        },
        {
          "name": "C4",
          "midi": 60,
          "time": 342.0052083333337,
          "velocity": 1,
          "duration": 0.5104166666666288
        },
        {
          "name": "C3",
          "midi": 48,
          "time": 342.010416666667,
          "velocity": 1,
          "duration": 1.916666666666572
        },
        {
          "name": "G3",
          "midi": 55,
          "time": 342.010416666667,
          "velocity": 1,
          "duration": 0.4375
        },
        {
          "name": "C2",
          "midi": 36,
          "time": 342.276041666667,
          "velocity": 1,
          "duration": 3.3072916666664582
        },
        {
          "name": "G3",
          "midi": 55,
          "time": 342.51562500000034,
          "velocity": 1,
          "duration": 0.9583333333332575
        },
        {
          "name": "C4",
          "midi": 60,
          "time": 342.76041666666697,
          "velocity": 1,
          "duration": 0.6614583333333144
        },
        {
          "name": "E4",
          "midi": 64,
          "time": 342.77083333333366,
          "velocity": 1,
          "duration": 0.6458333333333144
        },
        {
          "name": "G3",
          "midi": 55,
          "time": 343.6458333333336,
          "velocity": 1,
          "duration": 1.5156249999999432
        },
        {
          "name": "C4",
          "midi": 60,
          "time": 343.7708333333336,
          "velocity": 1,
          "duration": 0.5364583333333144
        },
        {
          "name": "E4",
          "midi": 64,
          "time": 344.0156250000003,
          "velocity": 1,
          "duration": 0.2864583333333144
        },
        {
          "name": "C3",
          "midi": 48,
          "time": 344.0208333333336,
          "velocity": 1,
          "duration": 1.0208333333333144
        },
        {
          "name": "C4",
          "midi": 60,
          "time": 344.4739583333336,
          "velocity": 1,
          "duration": 0.6666666666666288
        },
        {
          "name": "E4",
          "midi": 64,
          "time": 344.7447916666669,
          "velocity": 1,
          "duration": 0.375
        },
        {
          "name": "C3",
          "midi": 48,
          "time": 345.2500000000002,
          "velocity": 1,
          "duration": 0.3541666666665719
        },
        {
          "name": "C4",
          "midi": 60,
          "time": 345.50520833333354,
          "velocity": 1,
          "duration": 0.32812499999994316
        },
        {
          "name": "G3",
          "midi": 55,
          "time": 345.51041666666686,
          "velocity": 1,
          "duration": 0.33333333333325754
        },
        {
          "name": "E4",
          "midi": 64,
          "time": 345.51562500000017,
          "velocity": 1,
          "duration": 0.32291666666662877
        },
        {
          "name": "G5",
          "midi": 79,
          "time": 346.0208333333334,
          "velocity": 1,
          "duration": 0.8958333333333144
        },
        {
          "name": "D5",
          "midi": 74,
          "time": 346.0208333333334,
          "velocity": 1,
          "duration": 0.875
        },
        {
          "name": "G2",
          "midi": 43,
          "time": 346.0208333333334,
          "velocity": 1,
          "duration": 1.75
        },
        {
          "name": "B4",
          "midi": 71,
          "time": 346.02604166666674,
          "velocity": 1,
          "duration": 0.8125
        },
        {
          "name": "G4",
          "midi": 67,
          "time": 346.02604166666674,
          "velocity": 1,
          "duration": 0.5677083333333144
        },
        {
          "name": "G4",
          "midi": 67,
          "time": 346.75000000000006,
          "velocity": 1,
          "duration": 1.0052083333333712
        },
        {
          "name": "B4",
          "midi": 71,
          "time": 347.24479166666674,
          "velocity": 1,
          "duration": 0.4635416666666856
        },
        {
          "name": "G5",
          "midi": 79,
          "time": 347.47916666666674,
          "velocity": 1,
          "duration": 0.21875
        },
        {
          "name": "D5",
          "midi": 74,
          "time": 347.48437500000006,
          "velocity": 1,
          "duration": 0.22395833333337123
        },
        {
          "name": "A#3",
          "midi": 58,
          "time": 348.0000000000001,
          "velocity": 1,
          "duration": 0.16145833333331439
        },
        {
          "name": "F4",
          "midi": 65,
          "time": 348.0000000000001,
          "velocity": 1,
          "duration": 0.3177083333333144
        },
        {
          "name": "D4",
          "midi": 62,
          "time": 348.0000000000001,
          "velocity": 1,
          "duration": 0.2864583333333144
        },
        {
          "name": "A#4",
          "midi": 70,
          "time": 348.0000000000001,
          "velocity": 1,
          "duration": 0.328125
        },
        {
          "name": "D3",
          "midi": 50,
          "time": 348.0052083333334,
          "velocity": 1,
          "duration": 1.6145833333333712
        },
        {
          "name": "A#2",
          "midi": 46,
          "time": 348.0208333333334,
          "velocity": 1,
          "duration": 1.75
        },
        {
          "name": "A#3",
          "midi": 58,
          "time": 348.2552083333334,
          "velocity": 1,
          "duration": 0.5989583333333144
        },
        {
          "name": "D4",
          "midi": 62,
          "time": 348.5000000000001,
          "velocity": 1,
          "duration": 0.20833333333331439
        },
        {
          "name": "F4",
          "midi": 65,
          "time": 348.7708333333334,
          "velocity": 1,
          "duration": 0.08333333333331439
        },
        {
          "name": "A#4",
          "midi": 70,
          "time": 348.9895833333334,
          "velocity": 1,
          "duration": 0.07291666666668561
        },
        {
          "name": "D5",
          "midi": 74,
          "time": 349.2604166666668,
          "velocity": 1,
          "duration": 0.22395833333331439
        },
        {
          "name": "A#3",
          "midi": 58,
          "time": 349.4375000000001,
          "velocity": 1,
          "duration": 0.13020833333337123
        },
        {
          "name": "F5",
          "midi": 77,
          "time": 349.4947916666668,
          "velocity": 1,
          "duration": 0.09895833333337123
        },
        {
          "name": "D5",
          "midi": 74,
          "time": 349.6145833333335,
          "velocity": 1,
          "duration": 0.11458333333331439
        },
        {
          "name": "A#4",
          "midi": 70,
          "time": 349.7500000000001,
          "velocity": 1,
          "duration": 0.09895833333331439
        },
        {
          "name": "F4",
          "midi": 65,
          "time": 349.8958333333334,
          "velocity": 1,
          "duration": 0.026041666666685614
        },
        {
          "name": "C5",
          "midi": 72,
          "time": 350.0208333333334,
          "velocity": 1,
          "duration": 0.8958333333333144
        },
        {
          "name": "G4",
          "midi": 67,
          "time": 350.0208333333334,
          "velocity": 1,
          "duration": 0.875
        },
        {
          "name": "C3",
          "midi": 48,
          "time": 350.0208333333334,
          "velocity": 1,
          "duration": 1.75
        },
        {
          "name": "E4",
          "midi": 64,
          "time": 350.02604166666674,
          "velocity": 1,
          "duration": 0.8125
        },
        {
          "name": "C4",
          "midi": 60,
          "time": 350.02604166666674,
          "velocity": 1,
          "duration": 0.5677083333333144
        },
        {
          "name": "C4",
          "midi": 60,
          "time": 350.75000000000006,
          "velocity": 1,
          "duration": 1.0052083333333712
        },
        {
          "name": "E4",
          "midi": 64,
          "time": 351.24479166666674,
          "velocity": 1,
          "duration": 0.4635416666666856
        },
        {
          "name": "C5",
          "midi": 72,
          "time": 351.47916666666674,
          "velocity": 1,
          "duration": 0.21875
        },
        {
          "name": "G4",
          "midi": 67,
          "time": 351.48437500000006,
          "velocity": 1,
          "duration": 0.22395833333337123
        },
        {
          "name": "E3",
          "midi": 52,
          "time": 352.0000000000001,
          "velocity": 1,
          "duration": 1.8958333333333712
        },
        {
          "name": "C4",
          "midi": 60,
          "time": 352.0000000000001,
          "velocity": 1,
          "duration": 1.875
        },
        {
          "name": "G4",
          "midi": 67,
          "time": 352.0000000000001,
          "velocity": 1,
          "duration": 1.8854166666666856
        },
        {
          "name": "C5",
          "midi": 72,
          "time": 352.0000000000001,
          "velocity": 1,
          "duration": 1.8854166666666856
        },
        {
          "name": "E5",
          "midi": 76,
          "time": 352.0416666666668,
          "velocity": 1,
          "duration": 1.84375
        },
        {
          "name": "G4",
          "midi": 67,
          "time": 354.0104166666668,
          "velocity": 1,
          "duration": 0.29687499999994316
        },
        {
          "name": "C3",
          "midi": 48,
          "time": 354.0104166666668,
          "velocity": 1,
          "duration": 1.5260416666666288
        },
        {
          "name": "C4",
          "midi": 60,
          "time": 354.0156250000001,
          "velocity": 1,
          "duration": 0.29166666666662877
        },
        {
          "name": "C2",
          "midi": 36,
          "time": 354.0156250000001,
          "velocity": 1,
          "duration": 3.781249999999943
        },
        {
          "name": "E4",
          "midi": 64,
          "time": 354.0208333333334,
          "velocity": 1,
          "duration": 0.2708333333333144
        },
        {
          "name": "G5",
          "midi": 79,
          "time": 354.88541666666674,
          "velocity": 1,
          "duration": 0.19270833333337123
        },
        {
          "name": "E5",
          "midi": 76,
          "time": 354.93229166666674,
          "velocity": 1,
          "duration": 0.18750000000005684
        },
        {
          "name": "C5",
          "midi": 72,
          "time": 354.9583333333334,
          "velocity": 1,
          "duration": 0.19791666666668561
        },
        {
          "name": "G4",
          "midi": 67,
          "time": 355.8125000000001,
          "velocity": 1,
          "duration": 0.5677083333333144
        },
        {
          "name": "E4",
          "midi": 64,
          "time": 355.8437500000001,
          "velocity": 1,
          "duration": 0.5520833333333144
        },
        {
          "name": "C4",
          "midi": 60,
          "time": 355.9114583333334,
          "velocity": 1,
          "duration": 0.5
        },
        {
          "name": "C3",
          "midi": 48,
          "time": 356.0052083333334,
          "velocity": 1,
          "duration": 0.453125
        },
        {
          "name": "C3",
          "midi": 48,
          "time": 356.7552083333334,
          "velocity": 1,
          "duration": 0.41666666666662877
        },
        {
          "name": "G3",
          "midi": 55,
          "time": 357.0000000000001,
          "velocity": 1,
          "duration": 0.32812499999994316
        },
        {
          "name": "C4",
          "midi": 60,
          "time": 357.0052083333334,
          "velocity": 1,
          "duration": 0.5052083333332575
        },
        {
          "name": "E4",
          "midi": 64,
          "time": 357.01041666666674,
          "velocity": 1,
          "duration": 0.49479166666662877
        },
        {
          "name": "C3",
          "midi": 48,
          "time": 357.25000000000006,
          "velocity": 1,
          "duration": 0.5625
        },
        {
          "name": "G3",
          "midi": 55,
          "time": 357.5104166666667,
          "velocity": 1,
          "duration": 0.30208333333337123
        },
        {
          "name": "C4",
          "midi": 60,
          "time": 357.77083333333337,
          "velocity": 1,
          "duration": 0.06250000000005684
        },
        {
          "name": "B3",
          "midi": 59,
          "time": 358.0000000000001,
          "velocity": 1,
          "duration": 0.37499999999994316
        },
        {
          "name": "G4",
          "midi": 67,
          "time": 358.0052083333334,
          "velocity": 1,
          "duration": 0.40104166666662877
        },
        {
          "name": "G2",
          "midi": 43,
          "time": 358.01041666666674,
          "velocity": 1,
          "duration": 0.17708333333331439
        },
        {
          "name": "D4",
          "midi": 62,
          "time": 358.01562500000006,
          "velocity": 1,
          "duration": 0.4166666666666856
        },
        {
          "name": "B4",
          "midi": 71,
          "time": 358.01562500000006,
          "velocity": 1,
          "duration": 0.40625
        },
        {
          "name": "G2",
          "midi": 43,
          "time": 358.25520833333337,
          "velocity": 1,
          "duration": 0.6562500000000568
        },
        {
          "name": "B3",
          "midi": 59,
          "time": 358.51041666666674,
          "velocity": 1,
          "duration": 0.7604166666666856
        },
        {
          "name": "G4",
          "midi": 67,
          "time": 358.73437500000006,
          "velocity": 1,
          "duration": 0.5572916666666856
        },
        {
          "name": "D4",
          "midi": 62,
          "time": 358.74479166666674,
          "velocity": 1,
          "duration": 0.5677083333333144
        },
        {
          "name": "B4",
          "midi": 71,
          "time": 358.7552083333334,
          "velocity": 1,
          "duration": 0.5572916666666288
        },
        {
          "name": "G2",
          "midi": 43,
          "time": 359.24479166666674,
          "velocity": 1,
          "duration": 0.6041666666666856
        },
        {
          "name": "B3",
          "midi": 59,
          "time": 359.36979166666674,
          "velocity": 1,
          "duration": 0.5104166666666856
        },
        {
          "name": "D4",
          "midi": 62,
          "time": 359.50000000000006,
          "velocity": 1,
          "duration": 0.38020833333337123
        },
        {
          "name": "G4",
          "midi": 67,
          "time": 359.62500000000006,
          "velocity": 1,
          "duration": 0.22916666666668561
        },
        {
          "name": "B4",
          "midi": 71,
          "time": 359.76041666666674,
          "velocity": 1,
          "duration": 0.11979166666668561
        },
        {
          "name": "D4",
          "midi": 62,
          "time": 360.0000000000001,
          "velocity": 1,
          "duration": 0.37499999999994316
        },
        {
          "name": "A#4",
          "midi": 70,
          "time": 360.0052083333334,
          "velocity": 1,
          "duration": 0.40104166666662877
        },
        {
          "name": "A#1",
          "midi": 34,
          "time": 360.01041666666674,
          "velocity": 1,
          "duration": 1.8385416666666856
        },
        {
          "name": "A#2",
          "midi": 46,
          "time": 360.01041666666674,
          "velocity": 1,
          "duration": 0.17708333333331439
        },
        {
          "name": "F4",
          "midi": 65,
          "time": 360.01562500000006,
          "velocity": 1,
          "duration": 0.4166666666666856
        },
        {
          "name": "D5",
          "midi": 74,
          "time": 360.01562500000006,
          "velocity": 1,
          "duration": 0.40625
        },
        {
          "name": "A#2",
          "midi": 46,
          "time": 360.25520833333337,
          "velocity": 1,
          "duration": 0.6562500000000568
        },
        {
          "name": "D4",
          "midi": 62,
          "time": 360.51041666666674,
          "velocity": 1,
          "duration": 0.7604166666666856
        },
        {
          "name": "A#4",
          "midi": 70,
          "time": 360.73437500000006,
          "velocity": 1,
          "duration": 0.5572916666666856
        },
        {
          "name": "F4",
          "midi": 65,
          "time": 360.74479166666674,
          "velocity": 1,
          "duration": 0.5677083333333144
        },
        {
          "name": "D5",
          "midi": 74,
          "time": 360.7552083333334,
          "velocity": 1,
          "duration": 0.5572916666666288
        },
        {
          "name": "A#2",
          "midi": 46,
          "time": 361.24479166666674,
          "velocity": 1,
          "duration": 0.6145833333333144
        },
        {
          "name": "D4",
          "midi": 62,
          "time": 361.36979166666674,
          "velocity": 1,
          "duration": 0.5104166666666288
        },
        {
          "name": "F4",
          "midi": 65,
          "time": 361.50000000000006,
          "velocity": 1,
          "duration": 0.3802083333333144
        },
        {
          "name": "A#4",
          "midi": 70,
          "time": 361.62500000000006,
          "velocity": 1,
          "duration": 0.22916666666668561
        },
        {
          "name": "D5",
          "midi": 74,
          "time": 361.76041666666674,
          "velocity": 1,
          "duration": 0.11979166666662877
        },
        {
          "name": "G4",
          "midi": 67,
          "time": 362.0104166666667,
          "velocity": 1,
          "duration": 0.29687499999994316
        },
        {
          "name": "C3",
          "midi": 48,
          "time": 362.0104166666667,
          "velocity": 1,
          "duration": 1.5260416666666288
        },
        {
          "name": "C4",
          "midi": 60,
          "time": 362.015625,
          "velocity": 1,
          "duration": 0.29166666666662877
        },
        {
          "name": "C2",
          "midi": 36,
          "time": 362.015625,
          "velocity": 1,
          "duration": 3.781249999999943
        },
        {
          "name": "E4",
          "midi": 64,
          "time": 362.0208333333333,
          "velocity": 1,
          "duration": 0.2708333333333144
        },
        {
          "name": "G5",
          "midi": 79,
          "time": 362.88541666666663,
          "velocity": 1,
          "duration": 0.19270833333337123
        },
        {
          "name": "E5",
          "midi": 76,
          "time": 362.93229166666663,
          "velocity": 1,
          "duration": 0.18750000000005684
        },
        {
          "name": "C5",
          "midi": 72,
          "time": 362.9583333333333,
          "velocity": 1,
          "duration": 0.19791666666668561
        },
        {
          "name": "G4",
          "midi": 67,
          "time": 363.8125,
          "velocity": 1,
          "duration": 0.5677083333333144
        },
        {
          "name": "E4",
          "midi": 64,
          "time": 363.84375,
          "velocity": 1,
          "duration": 0.5520833333333144
        },
        {
          "name": "C4",
          "midi": 60,
          "time": 363.9114583333333,
          "velocity": 1,
          "duration": 0.5
        },
        {
          "name": "C3",
          "midi": 48,
          "time": 364.0052083333333,
          "velocity": 1,
          "duration": 0.453125
        },
        {
          "name": "C3",
          "midi": 48,
          "time": 364.7552083333333,
          "velocity": 1,
          "duration": 0.41666666666662877
        },
        {
          "name": "G3",
          "midi": 55,
          "time": 365,
          "velocity": 1,
          "duration": 0.32812499999994316
        },
        {
          "name": "C4",
          "midi": 60,
          "time": 365.0052083333333,
          "velocity": 1,
          "duration": 0.5052083333332575
        },
        {
          "name": "E4",
          "midi": 64,
          "time": 365.01041666666663,
          "velocity": 1,
          "duration": 0.49479166666662877
        },
        {
          "name": "C3",
          "midi": 48,
          "time": 365.24999999999994,
          "velocity": 1,
          "duration": 0.5625
        },
        {
          "name": "G3",
          "midi": 55,
          "time": 365.5104166666666,
          "velocity": 1,
          "duration": 0.30208333333337123
        },
        {
          "name": "C4",
          "midi": 60,
          "time": 365.77083333333326,
          "velocity": 1,
          "duration": 0.06250000000005684
        },
        {
          "name": "G4",
          "midi": 67,
          "time": 366,
          "velocity": 1,
          "duration": 0.16145833333331439
        },
        {
          "name": "D5",
          "midi": 74,
          "time": 366,
          "velocity": 1,
          "duration": 0.3177083333333144
        },
        {
          "name": "B4",
          "midi": 71,
          "time": 366,
          "velocity": 1,
          "duration": 0.2864583333333144
        },
        {
          "name": "G5",
          "midi": 79,
          "time": 366,
          "velocity": 1,
          "duration": 0.328125
        },
        {
          "name": "B3",
          "midi": 59,
          "time": 366.0052083333333,
          "velocity": 1,
          "duration": 1.6145833333333144
        },
        {
          "name": "G2",
          "midi": 43,
          "time": 366.0208333333333,
          "velocity": 1,
          "duration": 1.7499999999999432
        },
        {
          "name": "G4",
          "midi": 67,
          "time": 366.2552083333333,
          "velocity": 1,
          "duration": 0.5989583333333144
        },
        {
          "name": "B4",
          "midi": 71,
          "time": 366.5,
          "velocity": 1,
          "duration": 0.20833333333331439
        },
        {
          "name": "D5",
          "midi": 74,
          "time": 366.7708333333333,
          "velocity": 1,
          "duration": 0.08333333333331439
        },
        {
          "name": "G5",
          "midi": 79,
          "time": 366.9895833333333,
          "velocity": 1,
          "duration": 0.07291666666668561
        },
        {
          "name": "B5",
          "midi": 83,
          "time": 367.2604166666667,
          "velocity": 1,
          "duration": 0.22395833333331439
        },
        {
          "name": "G4",
          "midi": 67,
          "time": 367.4375,
          "velocity": 1,
          "duration": 0.13020833333331439
        },
        {
          "name": "B5",
          "midi": 83,
          "time": 367.6145833333333,
          "velocity": 1,
          "duration": 0.11458333333331439
        },
        {
          "name": "G5",
          "midi": 79,
          "time": 367.74999999999994,
          "velocity": 1,
          "duration": 0.09895833333331439
        },
        {
          "name": "D5",
          "midi": 74,
          "time": 367.89583333333326,
          "velocity": 1,
          "duration": 0.026041666666685614
        },
        {
          "name": "A#3",
          "midi": 58,
          "time": 367.99999999999994,
          "velocity": 1,
          "duration": 0.16145833333331439
        },
        {
          "name": "F4",
          "midi": 65,
          "time": 367.99999999999994,
          "velocity": 1,
          "duration": 0.3177083333333144
        },
        {
          "name": "D4",
          "midi": 62,
          "time": 367.99999999999994,
          "velocity": 1,
          "duration": 0.2864583333333144
        },
        {
          "name": "A#4",
          "midi": 70,
          "time": 367.99999999999994,
          "velocity": 1,
          "duration": 0.328125
        },
        {
          "name": "D3",
          "midi": 50,
          "time": 368.00520833333326,
          "velocity": 1,
          "duration": 1.6145833333333712
        },
        {
          "name": "A#2",
          "midi": 46,
          "time": 368.02083333333326,
          "velocity": 1,
          "duration": 1.75
        },
        {
          "name": "A#3",
          "midi": 58,
          "time": 368.25520833333326,
          "velocity": 1,
          "duration": 0.5989583333333144
        },
        {
          "name": "D4",
          "midi": 62,
          "time": 368.49999999999994,
          "velocity": 1,
          "duration": 0.20833333333331439
        },
        {
          "name": "F4",
          "midi": 65,
          "time": 368.77083333333326,
          "velocity": 1,
          "duration": 0.08333333333331439
        },
        {
          "name": "A#4",
          "midi": 70,
          "time": 368.98958333333326,
          "velocity": 1,
          "duration": 0.07291666666668561
        },
        {
          "name": "D5",
          "midi": 74,
          "time": 369.26041666666663,
          "velocity": 1,
          "duration": 0.22395833333331439
        },
        {
          "name": "A#3",
          "midi": 58,
          "time": 369.43749999999994,
          "velocity": 1,
          "duration": 0.13020833333337123
        },
        {
          "name": "F5",
          "midi": 77,
          "time": 369.49479166666663,
          "velocity": 1,
          "duration": 0.09895833333337123
        },
        {
          "name": "D5",
          "midi": 74,
          "time": 369.6145833333333,
          "velocity": 1,
          "duration": 0.11458333333331439
        },
        {
          "name": "A#4",
          "midi": 70,
          "time": 369.74999999999994,
          "velocity": 1,
          "duration": 0.09895833333331439
        },
        {
          "name": "F4",
          "midi": 65,
          "time": 369.89583333333326,
          "velocity": 1,
          "duration": 0.026041666666685614
        },
        {
          "name": "E4",
          "midi": 64,
          "time": 370.00520833333326,
          "velocity": 1,
          "duration": 0.5468749999999432
        },
        {
          "name": "C4",
          "midi": 60,
          "time": 370.00520833333326,
          "velocity": 1,
          "duration": 0.5104166666666288
        },
        {
          "name": "C3",
          "midi": 48,
          "time": 370.0104166666666,
          "velocity": 1,
          "duration": 1.916666666666572
        },
        {
          "name": "G3",
          "midi": 55,
          "time": 370.0104166666666,
          "velocity": 1,
          "duration": 0.4375
        },
        {
          "name": "C2",
          "midi": 36,
          "time": 370.2760416666666,
          "velocity": 1,
          "duration": 3.3072916666664582
        },
        {
          "name": "G3",
          "midi": 55,
          "time": 370.5156249999999,
          "velocity": 1,
          "duration": 0.9583333333332575
        },
        {
          "name": "C4",
          "midi": 60,
          "time": 370.7604166666665,
          "velocity": 1,
          "duration": 0.6614583333333144
        },
        {
          "name": "E4",
          "midi": 64,
          "time": 370.7708333333332,
          "velocity": 1,
          "duration": 0.6458333333333144
        },
        {
          "name": "G3",
          "midi": 55,
          "time": 371.64583333333314,
          "velocity": 1,
          "duration": 1.5156249999999432
        },
        {
          "name": "C4",
          "midi": 60,
          "time": 371.77083333333314,
          "velocity": 1,
          "duration": 0.5364583333333144
        },
        {
          "name": "E4",
          "midi": 64,
          "time": 372.01562499999983,
          "velocity": 1,
          "duration": 0.2864583333333144
        },
        {
          "name": "C3",
          "midi": 48,
          "time": 372.02083333333314,
          "velocity": 1,
          "duration": 1.0208333333333144
        },
        {
          "name": "C4",
          "midi": 60,
          "time": 372.47395833333314,
          "velocity": 1,
          "duration": 0.6666666666666288
        },
        {
          "name": "E4",
          "midi": 64,
          "time": 372.74479166666646,
          "velocity": 1,
          "duration": 0.375
        },
        {
          "name": "C3",
          "midi": 48,
          "time": 373.2499999999998,
          "velocity": 1,
          "duration": 0.3541666666665719
        },
        {
          "name": "C4",
          "midi": 60,
          "time": 373.5052083333331,
          "velocity": 1,
          "duration": 0.32812499999994316
        },
        {
          "name": "G3",
          "midi": 55,
          "time": 373.5104166666664,
          "velocity": 1,
          "duration": 0.33333333333325754
        },
        {
          "name": "E4",
          "midi": 64,
          "time": 373.5156249999997,
          "velocity": 1,
          "duration": 0.32291666666662877
        },
        {
          "name": "G5",
          "midi": 79,
          "time": 374.020833333333,
          "velocity": 1,
          "duration": 0.8958333333333144
        },
        {
          "name": "D5",
          "midi": 74,
          "time": 374.020833333333,
          "velocity": 1,
          "duration": 0.875
        },
        {
          "name": "G2",
          "midi": 43,
          "time": 374.020833333333,
          "velocity": 1,
          "duration": 1.75
        },
        {
          "name": "B4",
          "midi": 71,
          "time": 374.0260416666663,
          "velocity": 1,
          "duration": 0.8125
        },
        {
          "name": "G4",
          "midi": 67,
          "time": 374.0260416666663,
          "velocity": 1,
          "duration": 0.5677083333333144
        },
        {
          "name": "G4",
          "midi": 67,
          "time": 374.7499999999996,
          "velocity": 1,
          "duration": 1.0052083333333712
        },
        {
          "name": "B4",
          "midi": 71,
          "time": 375.2447916666663,
          "velocity": 1,
          "duration": 0.4635416666666856
        },
        {
          "name": "G5",
          "midi": 79,
          "time": 375.4791666666663,
          "velocity": 1,
          "duration": 0.21875
        },
        {
          "name": "D5",
          "midi": 74,
          "time": 375.4843749999996,
          "velocity": 1,
          "duration": 0.22395833333337123
        },
        {
          "name": "A#3",
          "midi": 58,
          "time": 375.99999999999966,
          "velocity": 1,
          "duration": 0.16145833333331439
        },
        {
          "name": "F4",
          "midi": 65,
          "time": 375.99999999999966,
          "velocity": 1,
          "duration": 0.3177083333333144
        },
        {
          "name": "D4",
          "midi": 62,
          "time": 375.99999999999966,
          "velocity": 1,
          "duration": 0.2864583333333144
        },
        {
          "name": "A#4",
          "midi": 70,
          "time": 375.99999999999966,
          "velocity": 1,
          "duration": 0.328125
        },
        {
          "name": "D3",
          "midi": 50,
          "time": 376.005208333333,
          "velocity": 1,
          "duration": 1.6145833333333712
        },
        {
          "name": "A#2",
          "midi": 46,
          "time": 376.020833333333,
          "velocity": 1,
          "duration": 1.75
        },
        {
          "name": "A#3",
          "midi": 58,
          "time": 376.255208333333,
          "velocity": 1,
          "duration": 0.5989583333333144
        },
        {
          "name": "D4",
          "midi": 62,
          "time": 376.49999999999966,
          "velocity": 1,
          "duration": 0.20833333333331439
        },
        {
          "name": "F4",
          "midi": 65,
          "time": 376.770833333333,
          "velocity": 1,
          "duration": 0.08333333333331439
        },
        {
          "name": "A#4",
          "midi": 70,
          "time": 376.989583333333,
          "velocity": 1,
          "duration": 0.07291666666668561
        },
        {
          "name": "D5",
          "midi": 74,
          "time": 377.26041666666634,
          "velocity": 1,
          "duration": 0.22395833333331439
        },
        {
          "name": "A#3",
          "midi": 58,
          "time": 377.43749999999966,
          "velocity": 1,
          "duration": 0.13020833333337123
        },
        {
          "name": "F5",
          "midi": 77,
          "time": 377.49479166666634,
          "velocity": 1,
          "duration": 0.09895833333337123
        },
        {
          "name": "D5",
          "midi": 74,
          "time": 377.61458333333303,
          "velocity": 1,
          "duration": 0.11458333333331439
        },
        {
          "name": "A#4",
          "midi": 70,
          "time": 377.74999999999966,
          "velocity": 1,
          "duration": 0.09895833333331439
        },
        {
          "name": "F4",
          "midi": 65,
          "time": 377.895833333333,
          "velocity": 1,
          "duration": 0.026041666666685614
        },
        {
          "name": "C5",
          "midi": 72,
          "time": 378.020833333333,
          "velocity": 1,
          "duration": 0.8958333333333144
        },
        {
          "name": "G4",
          "midi": 67,
          "time": 378.020833333333,
          "velocity": 1,
          "duration": 0.875
        },
        {
          "name": "C3",
          "midi": 48,
          "time": 378.020833333333,
          "velocity": 1,
          "duration": 1.75
        },
        {
          "name": "E4",
          "midi": 64,
          "time": 378.0260416666663,
          "velocity": 1,
          "duration": 0.8125
        },
        {
          "name": "C4",
          "midi": 60,
          "time": 378.0260416666663,
          "velocity": 1,
          "duration": 0.5677083333333144
        },
        {
          "name": "C4",
          "midi": 60,
          "time": 378.7499999999996,
          "velocity": 1,
          "duration": 1.0052083333333712
        },
        {
          "name": "E4",
          "midi": 64,
          "time": 379.2447916666663,
          "velocity": 1,
          "duration": 0.4635416666666856
        },
        {
          "name": "C5",
          "midi": 72,
          "time": 379.4791666666663,
          "velocity": 1,
          "duration": 0.21875
        },
        {
          "name": "G4",
          "midi": 67,
          "time": 379.4843749999996,
          "velocity": 1,
          "duration": 0.22395833333337123
        },
        {
          "name": "E3",
          "midi": 52,
          "time": 379.99999999999966,
          "velocity": 1,
          "duration": 1.8958333333333712
        },
        {
          "name": "C4",
          "midi": 60,
          "time": 379.99999999999966,
          "velocity": 1,
          "duration": 1.875
        },
        {
          "name": "G4",
          "midi": 67,
          "time": 379.99999999999966,
          "velocity": 1,
          "duration": 1.8854166666666856
        },
        {
          "name": "C5",
          "midi": 72,
          "time": 379.99999999999966,
          "velocity": 1,
          "duration": 1.8854166666666856
        },
        {
          "name": "E5",
          "midi": 76,
          "time": 380.04166666666634,
          "velocity": 1,
          "duration": 1.84375
        },
        {
          "name": "B3",
          "midi": 59,
          "time": 381.9999999999997,
          "velocity": 1,
          "duration": 0.37499999999994316
        },
        {
          "name": "G4",
          "midi": 67,
          "time": 382.00520833333303,
          "velocity": 1,
          "duration": 0.40104166666662877
        },
        {
          "name": "G2",
          "midi": 43,
          "time": 382.01041666666634,
          "velocity": 1,
          "duration": 0.17708333333331439
        },
        {
          "name": "D4",
          "midi": 62,
          "time": 382.01562499999966,
          "velocity": 1,
          "duration": 0.4166666666666856
        },
        {
          "name": "B4",
          "midi": 71,
          "time": 382.01562499999966,
          "velocity": 1,
          "duration": 0.40625
        },
        {
          "name": "G2",
          "midi": 43,
          "time": 382.255208333333,
          "velocity": 1,
          "duration": 0.6562500000000568
        },
        {
          "name": "B3",
          "midi": 59,
          "time": 382.51041666666634,
          "velocity": 1,
          "duration": 0.7604166666666856
        },
        {
          "name": "G4",
          "midi": 67,
          "time": 382.73437499999966,
          "velocity": 1,
          "duration": 0.5572916666666856
        },
        {
          "name": "D4",
          "midi": 62,
          "time": 382.74479166666634,
          "velocity": 1,
          "duration": 0.5677083333333144
        },
        {
          "name": "B4",
          "midi": 71,
          "time": 382.75520833333303,
          "velocity": 1,
          "duration": 0.5572916666666288
        },
        {
          "name": "G2",
          "midi": 43,
          "time": 383.24479166666634,
          "velocity": 1,
          "duration": 0.6041666666666856
        },
        {
          "name": "B3",
          "midi": 59,
          "time": 383.36979166666634,
          "velocity": 1,
          "duration": 0.5104166666666856
        },
        {
          "name": "D4",
          "midi": 62,
          "time": 383.49999999999966,
          "velocity": 1,
          "duration": 0.38020833333337123
        },
        {
          "name": "G4",
          "midi": 67,
          "time": 383.62499999999966,
          "velocity": 1,
          "duration": 0.22916666666668561
        },
        {
          "name": "B4",
          "midi": 71,
          "time": 383.76041666666634,
          "velocity": 1,
          "duration": 0.11979166666668561
        },
        {
          "name": "D4",
          "midi": 62,
          "time": 383.9999999999997,
          "velocity": 1,
          "duration": 0.37499999999994316
        },
        {
          "name": "A#4",
          "midi": 70,
          "time": 384.00520833333303,
          "velocity": 1,
          "duration": 0.40104166666662877
        },
        {
          "name": "A#1",
          "midi": 34,
          "time": 384.01041666666634,
          "velocity": 1,
          "duration": 1.8385416666666856
        },
        {
          "name": "A#2",
          "midi": 46,
          "time": 384.01041666666634,
          "velocity": 1,
          "duration": 0.17708333333331439
        },
        {
          "name": "F4",
          "midi": 65,
          "time": 384.01562499999966,
          "velocity": 1,
          "duration": 0.4166666666666856
        },
        {
          "name": "D5",
          "midi": 74,
          "time": 384.01562499999966,
          "velocity": 1,
          "duration": 0.40625
        },
        {
          "name": "A#2",
          "midi": 46,
          "time": 384.255208333333,
          "velocity": 1,
          "duration": 0.6562500000000568
        },
        {
          "name": "D4",
          "midi": 62,
          "time": 384.51041666666634,
          "velocity": 1,
          "duration": 0.7604166666666856
        },
        {
          "name": "A#4",
          "midi": 70,
          "time": 384.73437499999966,
          "velocity": 1,
          "duration": 0.5572916666666856
        },
        {
          "name": "F4",
          "midi": 65,
          "time": 384.74479166666634,
          "velocity": 1,
          "duration": 0.5677083333333144
        },
        {
          "name": "D5",
          "midi": 74,
          "time": 384.75520833333303,
          "velocity": 1,
          "duration": 0.5572916666666288
        },
        {
          "name": "A#2",
          "midi": 46,
          "time": 385.24479166666634,
          "velocity": 1,
          "duration": 0.6145833333333144
        },
        {
          "name": "D4",
          "midi": 62,
          "time": 385.36979166666634,
          "velocity": 1,
          "duration": 0.5104166666666288
        },
        {
          "name": "F4",
          "midi": 65,
          "time": 385.49999999999966,
          "velocity": 1,
          "duration": 0.3802083333333144
        },
        {
          "name": "A#4",
          "midi": 70,
          "time": 385.62499999999966,
          "velocity": 1,
          "duration": 0.22916666666668561
        },
        {
          "name": "D5",
          "midi": 74,
          "time": 385.76041666666634,
          "velocity": 1,
          "duration": 0.11979166666662877
        },
        {
          "name": "G4",
          "midi": 67,
          "time": 386.0104166666663,
          "velocity": 1,
          "duration": 0.29687499999994316
        },
        {
          "name": "C3",
          "midi": 48,
          "time": 386.0104166666663,
          "velocity": 1,
          "duration": 1.5260416666666288
        },
        {
          "name": "C4",
          "midi": 60,
          "time": 386.0156249999996,
          "velocity": 1,
          "duration": 0.29166666666662877
        },
        {
          "name": "C2",
          "midi": 36,
          "time": 386.0156249999996,
          "velocity": 1,
          "duration": 3.781249999999943
        },
        {
          "name": "E4",
          "midi": 64,
          "time": 386.0208333333329,
          "velocity": 1,
          "duration": 0.2708333333333144
        },
        {
          "name": "G5",
          "midi": 79,
          "time": 386.88541666666623,
          "velocity": 1,
          "duration": 0.19270833333337123
        },
        {
          "name": "E5",
          "midi": 76,
          "time": 386.93229166666623,
          "velocity": 1,
          "duration": 0.18750000000005684
        },
        {
          "name": "C5",
          "midi": 72,
          "time": 386.9583333333329,
          "velocity": 1,
          "duration": 0.19791666666668561
        },
        {
          "name": "G4",
          "midi": 67,
          "time": 387.8124999999996,
          "velocity": 1,
          "duration": 0.5677083333333144
        },
        {
          "name": "E4",
          "midi": 64,
          "time": 387.8437499999996,
          "velocity": 1,
          "duration": 0.5520833333333144
        },
        {
          "name": "C4",
          "midi": 60,
          "time": 387.9114583333329,
          "velocity": 1,
          "duration": 0.5
        },
        {
          "name": "C3",
          "midi": 48,
          "time": 388.0052083333329,
          "velocity": 1,
          "duration": 0.453125
        },
        {
          "name": "C3",
          "midi": 48,
          "time": 388.7552083333329,
          "velocity": 1,
          "duration": 0.41666666666662877
        },
        {
          "name": "G3",
          "midi": 55,
          "time": 388.9999999999996,
          "velocity": 1,
          "duration": 0.32812499999994316
        },
        {
          "name": "C4",
          "midi": 60,
          "time": 389.0052083333329,
          "velocity": 1,
          "duration": 0.5052083333332575
        },
        {
          "name": "E4",
          "midi": 64,
          "time": 389.01041666666623,
          "velocity": 1,
          "duration": 0.49479166666662877
        },
        {
          "name": "C3",
          "midi": 48,
          "time": 389.24999999999955,
          "velocity": 1,
          "duration": 0.5625
        },
        {
          "name": "G3",
          "midi": 55,
          "time": 389.5104166666662,
          "velocity": 1,
          "duration": 0.30208333333337123
        },
        {
          "name": "C4",
          "midi": 60,
          "time": 389.77083333333286,
          "velocity": 1,
          "duration": 0.06250000000005684
        },
        {
          "name": "G4",
          "midi": 67,
          "time": 389.9999999999996,
          "velocity": 1,
          "duration": 0.16145833333331439
        },
        {
          "name": "D5",
          "midi": 74,
          "time": 389.9999999999996,
          "velocity": 1,
          "duration": 0.3177083333333144
        },
        {
          "name": "B4",
          "midi": 71,
          "time": 389.9999999999996,
          "velocity": 1,
          "duration": 0.2864583333333144
        },
        {
          "name": "G5",
          "midi": 79,
          "time": 389.9999999999996,
          "velocity": 1,
          "duration": 0.328125
        },
        {
          "name": "B3",
          "midi": 59,
          "time": 390.0052083333329,
          "velocity": 1,
          "duration": 1.6145833333333712
        },
        {
          "name": "G2",
          "midi": 43,
          "time": 390.0208333333329,
          "velocity": 1,
          "duration": 1.75
        },
        {
          "name": "G4",
          "midi": 67,
          "time": 390.2552083333329,
          "velocity": 1,
          "duration": 0.5989583333333144
        },
        {
          "name": "B4",
          "midi": 71,
          "time": 390.4999999999996,
          "velocity": 1,
          "duration": 0.20833333333331439
        },
        {
          "name": "D5",
          "midi": 74,
          "time": 390.7708333333329,
          "velocity": 1,
          "duration": 0.08333333333331439
        },
        {
          "name": "G5",
          "midi": 79,
          "time": 390.9895833333329,
          "velocity": 1,
          "duration": 0.07291666666668561
        },
        {
          "name": "B5",
          "midi": 83,
          "time": 391.2604166666663,
          "velocity": 1,
          "duration": 0.22395833333331439
        },
        {
          "name": "G4",
          "midi": 67,
          "time": 391.4374999999996,
          "velocity": 1,
          "duration": 0.13020833333337123
        },
        {
          "name": "D6",
          "midi": 86,
          "time": 391.4947916666663,
          "velocity": 1,
          "duration": 0.09895833333337123
        },
        {
          "name": "B5",
          "midi": 83,
          "time": 391.614583333333,
          "velocity": 1,
          "duration": 0.11458333333331439
        },
        {
          "name": "G5",
          "midi": 79,
          "time": 391.7499999999996,
          "velocity": 1,
          "duration": 0.09895833333331439
        },
        {
          "name": "D5",
          "midi": 74,
          "time": 391.8958333333329,
          "velocity": 1,
          "duration": 0.026041666666685614
        },
        {
          "name": "A#3",
          "midi": 58,
          "time": 391.9999999999996,
          "velocity": 1,
          "duration": 0.16145833333331439
        },
        {
          "name": "F4",
          "midi": 65,
          "time": 391.9999999999996,
          "velocity": 1,
          "duration": 0.3177083333333144
        },
        {
          "name": "D4",
          "midi": 62,
          "time": 391.9999999999996,
          "velocity": 1,
          "duration": 0.2864583333333144
        },
        {
          "name": "A#4",
          "midi": 70,
          "time": 391.9999999999996,
          "velocity": 1,
          "duration": 0.328125
        },
        {
          "name": "D3",
          "midi": 50,
          "time": 392.0052083333329,
          "velocity": 1,
          "duration": 1.6145833333333712
        },
        {
          "name": "A#2",
          "midi": 46,
          "time": 392.0208333333329,
          "velocity": 1,
          "duration": 1.75
        },
        {
          "name": "A#3",
          "midi": 58,
          "time": 392.2552083333329,
          "velocity": 1,
          "duration": 0.5989583333333144
        },
        {
          "name": "D4",
          "midi": 62,
          "time": 392.4999999999996,
          "velocity": 1,
          "duration": 0.20833333333331439
        },
        {
          "name": "F4",
          "midi": 65,
          "time": 392.7708333333329,
          "velocity": 1,
          "duration": 0.08333333333331439
        },
        {
          "name": "A#4",
          "midi": 70,
          "time": 392.9895833333329,
          "velocity": 1,
          "duration": 0.07291666666668561
        },
        {
          "name": "D5",
          "midi": 74,
          "time": 393.2604166666663,
          "velocity": 1,
          "duration": 0.22395833333331439
        },
        {
          "name": "A#3",
          "midi": 58,
          "time": 393.4374999999996,
          "velocity": 1,
          "duration": 0.13020833333337123
        },
        {
          "name": "F5",
          "midi": 77,
          "time": 393.4947916666663,
          "velocity": 1,
          "duration": 0.09895833333337123
        },
        {
          "name": "D5",
          "midi": 74,
          "time": 393.614583333333,
          "velocity": 1,
          "duration": 0.11458333333331439
        },
        {
          "name": "A#4",
          "midi": 70,
          "time": 393.7499999999996,
          "velocity": 1,
          "duration": 0.09895833333331439
        },
        {
          "name": "F4",
          "midi": 65,
          "time": 393.8958333333329,
          "velocity": 1,
          "duration": 0.026041666666685614
        },
        {
          "name": "E4",
          "midi": 64,
          "time": 394.0052083333329,
          "velocity": 1,
          "duration": 0.5468749999999432
        },
        {
          "name": "C4",
          "midi": 60,
          "time": 394.0052083333329,
          "velocity": 1,
          "duration": 0.5104166666666288
        },
        {
          "name": "C3",
          "midi": 48,
          "time": 394.01041666666623,
          "velocity": 1,
          "duration": 1.916666666666572
        },
        {
          "name": "G3",
          "midi": 55,
          "time": 394.01041666666623,
          "velocity": 1,
          "duration": 0.4375
        },
        {
          "name": "C2",
          "midi": 36,
          "time": 394.27604166666623,
          "velocity": 1,
          "duration": 3.3072916666664582
        },
        {
          "name": "G3",
          "midi": 55,
          "time": 394.51562499999955,
          "velocity": 1,
          "duration": 0.9583333333332575
        },
        {
          "name": "C4",
          "midi": 60,
          "time": 394.7604166666662,
          "velocity": 1,
          "duration": 0.6614583333333144
        },
        {
          "name": "E4",
          "midi": 64,
          "time": 394.77083333333286,
          "velocity": 1,
          "duration": 0.6458333333333144
        },
        {
          "name": "G3",
          "midi": 55,
          "time": 395.6458333333328,
          "velocity": 1,
          "duration": 1.5156249999999432
        },
        {
          "name": "C4",
          "midi": 60,
          "time": 395.7708333333328,
          "velocity": 1,
          "duration": 0.5364583333333144
        },
        {
          "name": "E4",
          "midi": 64,
          "time": 396.0156249999995,
          "velocity": 1,
          "duration": 0.2864583333333144
        },
        {
          "name": "C3",
          "midi": 48,
          "time": 396.0208333333328,
          "velocity": 1,
          "duration": 1.0208333333333144
        },
        {
          "name": "C4",
          "midi": 60,
          "time": 396.4739583333328,
          "velocity": 1,
          "duration": 0.6666666666666288
        },
        {
          "name": "E4",
          "midi": 64,
          "time": 396.7447916666661,
          "velocity": 1,
          "duration": 0.375
        },
        {
          "name": "C3",
          "midi": 48,
          "time": 397.24999999999943,
          "velocity": 1,
          "duration": 0.3541666666665719
        },
        {
          "name": "C4",
          "midi": 60,
          "time": 397.50520833333275,
          "velocity": 1,
          "duration": 0.32812499999994316
        },
        {
          "name": "G3",
          "midi": 55,
          "time": 397.51041666666606,
          "velocity": 1,
          "duration": 0.33333333333325754
        },
        {
          "name": "E4",
          "midi": 64,
          "time": 397.5156249999994,
          "velocity": 1,
          "duration": 0.32291666666662877
        },
        {
          "name": "G5",
          "midi": 79,
          "time": 398.02083333333263,
          "velocity": 1,
          "duration": 0.8958333333333144
        },
        {
          "name": "D5",
          "midi": 74,
          "time": 398.02083333333263,
          "velocity": 1,
          "duration": 0.875
        },
        {
          "name": "G2",
          "midi": 43,
          "time": 398.02083333333263,
          "velocity": 1,
          "duration": 1.75
        },
        {
          "name": "B4",
          "midi": 71,
          "time": 398.02604166666595,
          "velocity": 1,
          "duration": 0.8125
        },
        {
          "name": "G4",
          "midi": 67,
          "time": 398.02604166666595,
          "velocity": 1,
          "duration": 0.5677083333333144
        },
        {
          "name": "G4",
          "midi": 67,
          "time": 398.74999999999926,
          "velocity": 1,
          "duration": 1.0052083333333712
        },
        {
          "name": "B4",
          "midi": 71,
          "time": 399.24479166666595,
          "velocity": 1,
          "duration": 0.4635416666666856
        },
        {
          "name": "G5",
          "midi": 79,
          "time": 399.47916666666595,
          "velocity": 1,
          "duration": 0.21875
        },
        {
          "name": "D5",
          "midi": 74,
          "time": 399.48437499999926,
          "velocity": 1,
          "duration": 0.22395833333337123
        },
        {
          "name": "A#3",
          "midi": 58,
          "time": 399.9999999999993,
          "velocity": 1,
          "duration": 0.16145833333331439
        },
        {
          "name": "F4",
          "midi": 65,
          "time": 399.9999999999993,
          "velocity": 1,
          "duration": 0.3177083333333144
        },
        {
          "name": "D4",
          "midi": 62,
          "time": 399.9999999999993,
          "velocity": 1,
          "duration": 0.2864583333333144
        },
        {
          "name": "A#4",
          "midi": 70,
          "time": 399.9999999999993,
          "velocity": 1,
          "duration": 0.328125
        },
        {
          "name": "D3",
          "midi": 50,
          "time": 400.00520833333263,
          "velocity": 1,
          "duration": 1.6145833333333712
        },
        {
          "name": "A#2",
          "midi": 46,
          "time": 400.02083333333263,
          "velocity": 1,
          "duration": 1.75
        },
        {
          "name": "A#3",
          "midi": 58,
          "time": 400.25520833333263,
          "velocity": 1,
          "duration": 0.5989583333333144
        },
        {
          "name": "D4",
          "midi": 62,
          "time": 400.4999999999993,
          "velocity": 1,
          "duration": 0.20833333333331439
        },
        {
          "name": "F4",
          "midi": 65,
          "time": 400.77083333333263,
          "velocity": 1,
          "duration": 0.08333333333331439
        },
        {
          "name": "A#4",
          "midi": 70,
          "time": 400.98958333333263,
          "velocity": 1,
          "duration": 0.07291666666668561
        },
        {
          "name": "D5",
          "midi": 74,
          "time": 401.260416666666,
          "velocity": 1,
          "duration": 0.22395833333331439
        },
        {
          "name": "A#3",
          "midi": 58,
          "time": 401.4374999999993,
          "velocity": 1,
          "duration": 0.13020833333337123
        },
        {
          "name": "F5",
          "midi": 77,
          "time": 401.494791666666,
          "velocity": 1,
          "duration": 0.09895833333337123
        },
        {
          "name": "D5",
          "midi": 74,
          "time": 401.6145833333327,
          "velocity": 1,
          "duration": 0.11458333333331439
        },
        {
          "name": "A#4",
          "midi": 70,
          "time": 401.7499999999993,
          "velocity": 1,
          "duration": 0.09895833333331439
        },
        {
          "name": "F4",
          "midi": 65,
          "time": 401.89583333333263,
          "velocity": 1,
          "duration": 0.026041666666685614
        },
        {
          "name": "C5",
          "midi": 72,
          "time": 402.02083333333263,
          "velocity": 1,
          "duration": 0.8958333333333144
        },
        {
          "name": "G4",
          "midi": 67,
          "time": 402.02083333333263,
          "velocity": 1,
          "duration": 0.875
        },
        {
          "name": "C3",
          "midi": 48,
          "time": 402.02083333333263,
          "velocity": 1,
          "duration": 1.75
        },
        {
          "name": "E4",
          "midi": 64,
          "time": 402.02604166666595,
          "velocity": 1,
          "duration": 0.8125
        },
        {
          "name": "C4",
          "midi": 60,
          "time": 402.02604166666595,
          "velocity": 1,
          "duration": 0.5677083333333144
        },
        {
          "name": "C4",
          "midi": 60,
          "time": 402.74999999999926,
          "velocity": 1,
          "duration": 1.0052083333333712
        },
        {
          "name": "E4",
          "midi": 64,
          "time": 403.24479166666595,
          "velocity": 1,
          "duration": 0.4635416666666856
        },
        {
          "name": "C5",
          "midi": 72,
          "time": 403.47916666666595,
          "velocity": 1,
          "duration": 0.21875
        },
        {
          "name": "G4",
          "midi": 67,
          "time": 403.48437499999926,
          "velocity": 1,
          "duration": 0.22395833333337123
        },
        {
          "name": "E3",
          "midi": 52,
          "time": 403.9999999999993,
          "velocity": 1,
          "duration": 1.8958333333333712
        },
        {
          "name": "C4",
          "midi": 60,
          "time": 403.9999999999993,
          "velocity": 1,
          "duration": 1.875
        },
        {
          "name": "G4",
          "midi": 67,
          "time": 403.9999999999993,
          "velocity": 1,
          "duration": 1.8854166666666856
        },
        {
          "name": "C5",
          "midi": 72,
          "time": 403.9999999999993,
          "velocity": 1,
          "duration": 1.8854166666666856
        },
        {
          "name": "E5",
          "midi": 76,
          "time": 404.041666666666,
          "velocity": 1,
          "duration": 1.84375
        },
        {
          "name": "G4",
          "midi": 67,
          "time": 406.010416666666,
          "velocity": 1,
          "duration": 0.29687499999994316
        },
        {
          "name": "C3",
          "midi": 48,
          "time": 406.010416666666,
          "velocity": 1,
          "duration": 1.5260416666666288
        },
        {
          "name": "C4",
          "midi": 60,
          "time": 406.0156249999993,
          "velocity": 1,
          "duration": 0.29166666666662877
        },
        {
          "name": "C2",
          "midi": 36,
          "time": 406.0156249999993,
          "velocity": 1,
          "duration": 3.781249999999943
        },
        {
          "name": "E4",
          "midi": 64,
          "time": 406.02083333333263,
          "velocity": 1,
          "duration": 0.2708333333333144
        },
        {
          "name": "G5",
          "midi": 79,
          "time": 406.88541666666595,
          "velocity": 1,
          "duration": 0.19270833333337123
        },
        {
          "name": "E5",
          "midi": 76,
          "time": 406.93229166666595,
          "velocity": 1,
          "duration": 0.18750000000005684
        },
        {
          "name": "C5",
          "midi": 72,
          "time": 406.95833333333263,
          "velocity": 1,
          "duration": 0.19791666666668561
        },
        {
          "name": "G4",
          "midi": 67,
          "time": 407.8124999999993,
          "velocity": 1,
          "duration": 0.5677083333333144
        },
        {
          "name": "E4",
          "midi": 64,
          "time": 407.8437499999993,
          "velocity": 1,
          "duration": 0.5520833333333144
        },
        {
          "name": "C4",
          "midi": 60,
          "time": 407.91145833333263,
          "velocity": 1,
          "duration": 0.5
        },
        {
          "name": "C3",
          "midi": 48,
          "time": 408.00520833333263,
          "velocity": 1,
          "duration": 0.453125
        },
        {
          "name": "C3",
          "midi": 48,
          "time": 408.75520833333263,
          "velocity": 1,
          "duration": 0.41666666666662877
        },
        {
          "name": "G3",
          "midi": 55,
          "time": 408.9999999999993,
          "velocity": 1,
          "duration": 0.32812499999994316
        },
        {
          "name": "C4",
          "midi": 60,
          "time": 409.00520833333263,
          "velocity": 1,
          "duration": 0.5052083333332575
        },
        {
          "name": "E4",
          "midi": 64,
          "time": 409.01041666666595,
          "velocity": 1,
          "duration": 0.49479166666662877
        },
        {
          "name": "C3",
          "midi": 48,
          "time": 409.24999999999926,
          "velocity": 1,
          "duration": 0.5625
        },
        {
          "name": "G3",
          "midi": 55,
          "time": 409.5104166666659,
          "velocity": 1,
          "duration": 0.30208333333337123
        },
        {
          "name": "C4",
          "midi": 60,
          "time": 409.7708333333326,
          "velocity": 1,
          "duration": 0.06250000000005684
        },
        {
          "name": "B3",
          "midi": 59,
          "time": 409.9999999999993,
          "velocity": 1,
          "duration": 0.37499999999994316
        },
        {
          "name": "G4",
          "midi": 67,
          "time": 410.00520833333263,
          "velocity": 1,
          "duration": 0.40104166666662877
        },
        {
          "name": "G2",
          "midi": 43,
          "time": 410.01041666666595,
          "velocity": 1,
          "duration": 0.17708333333331439
        },
        {
          "name": "D4",
          "midi": 62,
          "time": 410.01562499999926,
          "velocity": 1,
          "duration": 0.4166666666666856
        },
        {
          "name": "B4",
          "midi": 71,
          "time": 410.01562499999926,
          "velocity": 1,
          "duration": 0.40625
        },
        {
          "name": "G2",
          "midi": 43,
          "time": 410.2552083333326,
          "velocity": 1,
          "duration": 0.6562500000000568
        },
        {
          "name": "B3",
          "midi": 59,
          "time": 410.51041666666595,
          "velocity": 1,
          "duration": 0.7604166666666856
        },
        {
          "name": "G4",
          "midi": 67,
          "time": 410.73437499999926,
          "velocity": 1,
          "duration": 0.5572916666666856
        },
        {
          "name": "D4",
          "midi": 62,
          "time": 410.74479166666595,
          "velocity": 1,
          "duration": 0.5677083333333144
        },
        {
          "name": "B4",
          "midi": 71,
          "time": 410.75520833333263,
          "velocity": 1,
          "duration": 0.5572916666666288
        },
        {
          "name": "G2",
          "midi": 43,
          "time": 411.24479166666595,
          "velocity": 1,
          "duration": 0.6041666666666856
        },
        {
          "name": "B3",
          "midi": 59,
          "time": 411.36979166666595,
          "velocity": 1,
          "duration": 0.5104166666666856
        },
        {
          "name": "D4",
          "midi": 62,
          "time": 411.49999999999926,
          "velocity": 1,
          "duration": 0.38020833333337123
        },
        {
          "name": "G4",
          "midi": 67,
          "time": 411.62499999999926,
          "velocity": 1,
          "duration": 0.22916666666668561
        },
        {
          "name": "B4",
          "midi": 71,
          "time": 411.76041666666595,
          "velocity": 1,
          "duration": 0.11979166666668561
        },
        {
          "name": "D4",
          "midi": 62,
          "time": 411.9999999999993,
          "velocity": 1,
          "duration": 0.37499999999994316
        },
        {
          "name": "A#4",
          "midi": 70,
          "time": 412.00520833333263,
          "velocity": 1,
          "duration": 0.40104166666662877
        },
        {
          "name": "A#1",
          "midi": 34,
          "time": 412.01041666666595,
          "velocity": 1,
          "duration": 1.8385416666666856
        },
        {
          "name": "A#2",
          "midi": 46,
          "time": 412.01041666666595,
          "velocity": 1,
          "duration": 0.17708333333331439
        },
        {
          "name": "F4",
          "midi": 65,
          "time": 412.01562499999926,
          "velocity": 1,
          "duration": 0.4166666666666856
        },
        {
          "name": "D5",
          "midi": 74,
          "time": 412.01562499999926,
          "velocity": 1,
          "duration": 0.40625
        },
        {
          "name": "A#2",
          "midi": 46,
          "time": 412.2552083333326,
          "velocity": 1,
          "duration": 0.6562500000000568
        },
        {
          "name": "D4",
          "midi": 62,
          "time": 412.51041666666595,
          "velocity": 1,
          "duration": 0.7604166666666856
        },
        {
          "name": "A#4",
          "midi": 70,
          "time": 412.73437499999926,
          "velocity": 1,
          "duration": 0.5572916666666856
        },
        {
          "name": "F4",
          "midi": 65,
          "time": 412.74479166666595,
          "velocity": 1,
          "duration": 0.5677083333333144
        },
        {
          "name": "D5",
          "midi": 74,
          "time": 412.75520833333263,
          "velocity": 1,
          "duration": 0.5572916666666288
        },
        {
          "name": "A#2",
          "midi": 46,
          "time": 413.24479166666595,
          "velocity": 1,
          "duration": 0.6145833333333144
        },
        {
          "name": "D4",
          "midi": 62,
          "time": 413.36979166666595,
          "velocity": 1,
          "duration": 0.5104166666666288
        },
        {
          "name": "F4",
          "midi": 65,
          "time": 413.49999999999926,
          "velocity": 1,
          "duration": 0.3802083333333144
        },
        {
          "name": "A#4",
          "midi": 70,
          "time": 413.62499999999926,
          "velocity": 1,
          "duration": 0.22916666666668561
        },
        {
          "name": "D5",
          "midi": 74,
          "time": 413.76041666666595,
          "velocity": 1,
          "duration": 0.11979166666662877
        },
        {
          "name": "G4",
          "midi": 67,
          "time": 414.0104166666659,
          "velocity": 1,
          "duration": 0.29687499999994316
        },
        {
          "name": "C3",
          "midi": 48,
          "time": 414.0104166666659,
          "velocity": 1,
          "duration": 1.5260416666666288
        },
        {
          "name": "C4",
          "midi": 60,
          "time": 414.0156249999992,
          "velocity": 1,
          "duration": 0.29166666666662877
        },
        {
          "name": "C2",
          "midi": 36,
          "time": 414.0156249999992,
          "velocity": 1,
          "duration": 3.781249999999943
        },
        {
          "name": "E4",
          "midi": 64,
          "time": 414.0208333333325,
          "velocity": 1,
          "duration": 0.2708333333333144
        },
        {
          "name": "G5",
          "midi": 79,
          "time": 414.88541666666583,
          "velocity": 1,
          "duration": 0.19270833333337123
        },
        {
          "name": "E5",
          "midi": 76,
          "time": 414.93229166666583,
          "velocity": 1,
          "duration": 0.18750000000005684
        },
        {
          "name": "C5",
          "midi": 72,
          "time": 414.9583333333325,
          "velocity": 1,
          "duration": 0.19791666666668561
        },
        {
          "name": "G4",
          "midi": 67,
          "time": 415.8124999999992,
          "velocity": 1,
          "duration": 0.5677083333333144
        },
        {
          "name": "E4",
          "midi": 64,
          "time": 415.8437499999992,
          "velocity": 1,
          "duration": 0.5520833333333144
        },
        {
          "name": "C4",
          "midi": 60,
          "time": 415.9114583333325,
          "velocity": 1,
          "duration": 0.5
        },
        {
          "name": "C3",
          "midi": 48,
          "time": 416.0052083333325,
          "velocity": 1,
          "duration": 0.453125
        },
        {
          "name": "C3",
          "midi": 48,
          "time": 416.7552083333325,
          "velocity": 1,
          "duration": 0.41666666666662877
        },
        {
          "name": "G3",
          "midi": 55,
          "time": 416.9999999999992,
          "velocity": 1,
          "duration": 0.32812499999994316
        },
        {
          "name": "C4",
          "midi": 60,
          "time": 417.0052083333325,
          "velocity": 1,
          "duration": 0.5052083333332575
        },
        {
          "name": "E4",
          "midi": 64,
          "time": 417.01041666666583,
          "velocity": 1,
          "duration": 0.49479166666662877
        },
        {
          "name": "C3",
          "midi": 48,
          "time": 417.24999999999915,
          "velocity": 1,
          "duration": 0.5625
        },
        {
          "name": "G3",
          "midi": 55,
          "time": 417.5104166666658,
          "velocity": 1,
          "duration": 0.30208333333337123
        },
        {
          "name": "C4",
          "midi": 60,
          "time": 417.77083333333246,
          "velocity": 1,
          "duration": 0.06250000000005684
        },
        {
          "name": "G4",
          "midi": 67,
          "time": 417.9999999999992,
          "velocity": 1,
          "duration": 0.16145833333331439
        },
        {
          "name": "D5",
          "midi": 74,
          "time": 417.9999999999992,
          "velocity": 1,
          "duration": 0.3177083333333144
        },
        {
          "name": "B4",
          "midi": 71,
          "time": 417.9999999999992,
          "velocity": 1,
          "duration": 0.2864583333333144
        },
        {
          "name": "G5",
          "midi": 79,
          "time": 417.9999999999992,
          "velocity": 1,
          "duration": 0.328125
        },
        {
          "name": "B3",
          "midi": 59,
          "time": 418.0052083333325,
          "velocity": 1,
          "duration": 1.6145833333333712
        },
        {
          "name": "G2",
          "midi": 43,
          "time": 418.0208333333325,
          "velocity": 1,
          "duration": 1.75
        },
        {
          "name": "G4",
          "midi": 67,
          "time": 418.2552083333325,
          "velocity": 1,
          "duration": 0.5989583333333144
        },
        {
          "name": "B4",
          "midi": 71,
          "time": 418.4999999999992,
          "velocity": 1,
          "duration": 0.20833333333331439
        },
        {
          "name": "D5",
          "midi": 74,
          "time": 418.7708333333325,
          "velocity": 1,
          "duration": 0.08333333333331439
        },
        {
          "name": "G5",
          "midi": 79,
          "time": 418.9895833333325,
          "velocity": 1,
          "duration": 0.07291666666668561
        },
        {
          "name": "B5",
          "midi": 83,
          "time": 419.2604166666659,
          "velocity": 1,
          "duration": 0.22395833333331439
        },
        {
          "name": "G4",
          "midi": 67,
          "time": 419.4374999999992,
          "velocity": 1,
          "duration": 0.13020833333337123
        },
        {
          "name": "D6",
          "midi": 86,
          "time": 419.4947916666659,
          "velocity": 1,
          "duration": 0.09895833333337123
        },
        {
          "name": "B5",
          "midi": 83,
          "time": 419.6145833333326,
          "velocity": 1,
          "duration": 0.11458333333331439
        },
        {
          "name": "G5",
          "midi": 79,
          "time": 419.7499999999992,
          "velocity": 1,
          "duration": 0.09895833333331439
        },
        {
          "name": "D5",
          "midi": 74,
          "time": 419.8958333333325,
          "velocity": 1,
          "duration": 0.026041666666685614
        },
        {
          "name": "A#3",
          "midi": 58,
          "time": 419.9999999999992,
          "velocity": 1,
          "duration": 0.16145833333331439
        },
        {
          "name": "F4",
          "midi": 65,
          "time": 419.9999999999992,
          "velocity": 1,
          "duration": 0.3177083333333144
        },
        {
          "name": "D4",
          "midi": 62,
          "time": 419.9999999999992,
          "velocity": 1,
          "duration": 0.2864583333333144
        },
        {
          "name": "A#4",
          "midi": 70,
          "time": 419.9999999999992,
          "velocity": 1,
          "duration": 0.328125
        },
        {
          "name": "D3",
          "midi": 50,
          "time": 420.0052083333325,
          "velocity": 1,
          "duration": 1.6145833333333712
        },
        {
          "name": "A#2",
          "midi": 46,
          "time": 420.0208333333325,
          "velocity": 1,
          "duration": 1.75
        },
        {
          "name": "A#3",
          "midi": 58,
          "time": 420.2552083333325,
          "velocity": 1,
          "duration": 0.5989583333333144
        },
        {
          "name": "D4",
          "midi": 62,
          "time": 420.4999999999992,
          "velocity": 1,
          "duration": 0.20833333333331439
        },
        {
          "name": "F4",
          "midi": 65,
          "time": 420.7708333333325,
          "velocity": 1,
          "duration": 0.08333333333331439
        },
        {
          "name": "A#4",
          "midi": 70,
          "time": 420.9895833333325,
          "velocity": 1,
          "duration": 0.07291666666668561
        },
        {
          "name": "D5",
          "midi": 74,
          "time": 421.2604166666659,
          "velocity": 1,
          "duration": 0.22395833333331439
        },
        {
          "name": "A#3",
          "midi": 58,
          "time": 421.4374999999992,
          "velocity": 1,
          "duration": 0.13020833333337123
        },
        {
          "name": "F5",
          "midi": 77,
          "time": 421.4947916666659,
          "velocity": 1,
          "duration": 0.09895833333337123
        },
        {
          "name": "D5",
          "midi": 74,
          "time": 421.6145833333326,
          "velocity": 1,
          "duration": 0.11458333333331439
        },
        {
          "name": "A#4",
          "midi": 70,
          "time": 421.7499999999992,
          "velocity": 1,
          "duration": 0.09895833333331439
        },
        {
          "name": "F4",
          "midi": 65,
          "time": 421.8958333333325,
          "velocity": 1,
          "duration": 0.026041666666685614
        },
        {
          "name": "E4",
          "midi": 64,
          "time": 422.0052083333325,
          "velocity": 1,
          "duration": 0.5468749999999432
        },
        {
          "name": "C4",
          "midi": 60,
          "time": 422.0052083333325,
          "velocity": 1,
          "duration": 0.5104166666666288
        },
        {
          "name": "C3",
          "midi": 48,
          "time": 422.01041666666583,
          "velocity": 1,
          "duration": 1.916666666666572
        },
        {
          "name": "G3",
          "midi": 55,
          "time": 422.01041666666583,
          "velocity": 1,
          "duration": 0.4375
        },
        {
          "name": "C2",
          "midi": 36,
          "time": 422.27604166666583,
          "velocity": 1,
          "duration": 3.3072916666664582
        },
        {
          "name": "G3",
          "midi": 55,
          "time": 422.51562499999915,
          "velocity": 1,
          "duration": 0.9583333333332575
        },
        {
          "name": "C4",
          "midi": 60,
          "time": 422.7604166666658,
          "velocity": 1,
          "duration": 0.6614583333333144
        },
        {
          "name": "E4",
          "midi": 64,
          "time": 422.77083333333246,
          "velocity": 1,
          "duration": 0.6458333333333144
        },
        {
          "name": "G3",
          "midi": 55,
          "time": 423.6458333333324,
          "velocity": 1,
          "duration": 1.5156249999999432
        },
        {
          "name": "C4",
          "midi": 60,
          "time": 423.7708333333324,
          "velocity": 1,
          "duration": 0.5364583333333144
        },
        {
          "name": "E4",
          "midi": 64,
          "time": 424.0156249999991,
          "velocity": 1,
          "duration": 0.2864583333333144
        },
        {
          "name": "C3",
          "midi": 48,
          "time": 424.0208333333324,
          "velocity": 1,
          "duration": 1.0208333333333144
        },
        {
          "name": "C4",
          "midi": 60,
          "time": 424.4739583333324,
          "velocity": 1,
          "duration": 0.6666666666666288
        },
        {
          "name": "E4",
          "midi": 64,
          "time": 424.7447916666657,
          "velocity": 1,
          "duration": 0.375
        },
        {
          "name": "C3",
          "midi": 48,
          "time": 425.24999999999903,
          "velocity": 1,
          "duration": 0.3541666666665719
        },
        {
          "name": "C4",
          "midi": 60,
          "time": 425.50520833333235,
          "velocity": 1,
          "duration": 0.32812499999994316
        },
        {
          "name": "G3",
          "midi": 55,
          "time": 425.51041666666566,
          "velocity": 1,
          "duration": 0.33333333333325754
        },
        {
          "name": "E4",
          "midi": 64,
          "time": 425.515624999999,
          "velocity": 1,
          "duration": 0.32291666666662877
        },
        {
          "name": "G5",
          "midi": 79,
          "time": 426.02083333333223,
          "velocity": 1,
          "duration": 0.8958333333333144
        },
        {
          "name": "D5",
          "midi": 74,
          "time": 426.02083333333223,
          "velocity": 1,
          "duration": 0.875
        },
        {
          "name": "G2",
          "midi": 43,
          "time": 426.02083333333223,
          "velocity": 1,
          "duration": 1.75
        },
        {
          "name": "B4",
          "midi": 71,
          "time": 426.02604166666555,
          "velocity": 1,
          "duration": 0.8125
        },
        {
          "name": "G4",
          "midi": 67,
          "time": 426.02604166666555,
          "velocity": 1,
          "duration": 0.5677083333333144
        },
        {
          "name": "G4",
          "midi": 67,
          "time": 426.74999999999886,
          "velocity": 1,
          "duration": 1.0052083333333712
        },
        {
          "name": "B4",
          "midi": 71,
          "time": 427.24479166666555,
          "velocity": 1,
          "duration": 0.4635416666666856
        },
        {
          "name": "G5",
          "midi": 79,
          "time": 427.47916666666555,
          "velocity": 1,
          "duration": 0.21875
        },
        {
          "name": "D5",
          "midi": 74,
          "time": 427.48437499999886,
          "velocity": 1,
          "duration": 0.22395833333337123
        },
        {
          "name": "A#3",
          "midi": 58,
          "time": 427.9999999999989,
          "velocity": 1,
          "duration": 0.16145833333331439
        },
        {
          "name": "F4",
          "midi": 65,
          "time": 427.9999999999989,
          "velocity": 1,
          "duration": 0.3177083333333144
        },
        {
          "name": "D4",
          "midi": 62,
          "time": 427.9999999999989,
          "velocity": 1,
          "duration": 0.2864583333333144
        },
        {
          "name": "A#4",
          "midi": 70,
          "time": 427.9999999999989,
          "velocity": 1,
          "duration": 0.328125
        },
        {
          "name": "D3",
          "midi": 50,
          "time": 428.00520833333223,
          "velocity": 1,
          "duration": 1.6145833333333712
        },
        {
          "name": "A#2",
          "midi": 46,
          "time": 428.02083333333223,
          "velocity": 1,
          "duration": 1.75
        },
        {
          "name": "A#3",
          "midi": 58,
          "time": 428.25520833333223,
          "velocity": 1,
          "duration": 0.5989583333333144
        },
        {
          "name": "D4",
          "midi": 62,
          "time": 428.4999999999989,
          "velocity": 1,
          "duration": 0.20833333333331439
        },
        {
          "name": "F4",
          "midi": 65,
          "time": 428.77083333333223,
          "velocity": 1,
          "duration": 0.08333333333331439
        },
        {
          "name": "A#4",
          "midi": 70,
          "time": 428.98958333333223,
          "velocity": 1,
          "duration": 0.07291666666668561
        },
        {
          "name": "D5",
          "midi": 74,
          "time": 429.2604166666656,
          "velocity": 1,
          "duration": 0.22395833333331439
        },
        {
          "name": "A#3",
          "midi": 58,
          "time": 429.4374999999989,
          "velocity": 1,
          "duration": 0.13020833333337123
        },
        {
          "name": "F5",
          "midi": 77,
          "time": 429.4947916666656,
          "velocity": 1,
          "duration": 0.09895833333337123
        },
        {
          "name": "D5",
          "midi": 74,
          "time": 429.6145833333323,
          "velocity": 1,
          "duration": 0.11458333333331439
        },
        {
          "name": "A#4",
          "midi": 70,
          "time": 429.7499999999989,
          "velocity": 1,
          "duration": 0.09895833333331439
        },
        {
          "name": "F4",
          "midi": 65,
          "time": 429.89583333333223,
          "velocity": 1,
          "duration": 0.026041666666685614
        },
        {
          "name": "C5",
          "midi": 72,
          "time": 430.02083333333223,
          "velocity": 1,
          "duration": 0.8958333333333144
        },
        {
          "name": "G4",
          "midi": 67,
          "time": 430.02083333333223,
          "velocity": 1,
          "duration": 0.875
        },
        {
          "name": "C3",
          "midi": 48,
          "time": 430.02083333333223,
          "velocity": 1,
          "duration": 1.75
        },
        {
          "name": "E4",
          "midi": 64,
          "time": 430.02604166666555,
          "velocity": 1,
          "duration": 0.8125
        },
        {
          "name": "C4",
          "midi": 60,
          "time": 430.02604166666555,
          "velocity": 1,
          "duration": 0.5677083333333144
        },
        {
          "name": "C4",
          "midi": 60,
          "time": 430.74999999999886,
          "velocity": 1,
          "duration": 1.0052083333333712
        },
        {
          "name": "E4",
          "midi": 64,
          "time": 431.24479166666555,
          "velocity": 1,
          "duration": 0.4635416666666856
        },
        {
          "name": "C5",
          "midi": 72,
          "time": 431.47916666666555,
          "velocity": 1,
          "duration": 0.21875
        },
        {
          "name": "G4",
          "midi": 67,
          "time": 431.48437499999886,
          "velocity": 1,
          "duration": 0.22395833333337123
        },
        {
          "name": "E3",
          "midi": 52,
          "time": 431.9999999999989,
          "velocity": 1,
          "duration": 1.8958333333333712
        },
        {
          "name": "C4",
          "midi": 60,
          "time": 431.9999999999989,
          "velocity": 1,
          "duration": 1.875
        },
        {
          "name": "G4",
          "midi": 67,
          "time": 431.9999999999989,
          "velocity": 1,
          "duration": 1.8854166666666856
        },
        {
          "name": "C5",
          "midi": 72,
          "time": 431.9999999999989,
          "velocity": 1,
          "duration": 1.8854166666666856
        },
        {
          "name": "E5",
          "midi": 76,
          "time": 432.0416666666656,
          "velocity": 1,
          "duration": 1.84375
        },
        {
          "name": "G4",
          "midi": 67,
          "time": 434.0104166666656,
          "velocity": 1,
          "duration": 0.29687499999994316
        },
        {
          "name": "C3",
          "midi": 48,
          "time": 434.0104166666656,
          "velocity": 1,
          "duration": 1.5260416666666288
        },
        {
          "name": "C4",
          "midi": 60,
          "time": 434.0156249999989,
          "velocity": 1,
          "duration": 0.29166666666662877
        },
        {
          "name": "C2",
          "midi": 36,
          "time": 434.0156249999989,
          "velocity": 1,
          "duration": 3.781249999999943
        },
        {
          "name": "E4",
          "midi": 64,
          "time": 434.02083333333223,
          "velocity": 1,
          "duration": 0.2708333333333144
        },
        {
          "name": "G5",
          "midi": 79,
          "time": 434.88541666666555,
          "velocity": 1,
          "duration": 0.19270833333337123
        },
        {
          "name": "E5",
          "midi": 76,
          "time": 434.93229166666555,
          "velocity": 1,
          "duration": 0.18750000000005684
        },
        {
          "name": "C5",
          "midi": 72,
          "time": 434.95833333333223,
          "velocity": 1,
          "duration": 0.19791666666668561
        },
        {
          "name": "G4",
          "midi": 67,
          "time": 435.8124999999989,
          "velocity": 1,
          "duration": 0.5677083333333144
        },
        {
          "name": "E4",
          "midi": 64,
          "time": 435.8437499999989,
          "velocity": 1,
          "duration": 0.5520833333333144
        },
        {
          "name": "C4",
          "midi": 60,
          "time": 435.91145833333223,
          "velocity": 1,
          "duration": 0.5
        },
        {
          "name": "C3",
          "midi": 48,
          "time": 436.00520833333223,
          "velocity": 1,
          "duration": 0.453125
        },
        {
          "name": "C3",
          "midi": 48,
          "time": 436.75520833333223,
          "velocity": 1,
          "duration": 0.41666666666662877
        },
        {
          "name": "G3",
          "midi": 55,
          "time": 436.9999999999989,
          "velocity": 1,
          "duration": 0.32812499999994316
        },
        {
          "name": "C4",
          "midi": 60,
          "time": 437.00520833333223,
          "velocity": 1,
          "duration": 0.5052083333332575
        },
        {
          "name": "E4",
          "midi": 64,
          "time": 437.01041666666555,
          "velocity": 1,
          "duration": 0.49479166666662877
        },
        {
          "name": "C3",
          "midi": 48,
          "time": 437.24999999999886,
          "velocity": 1,
          "duration": 0.5625
        },
        {
          "name": "G3",
          "midi": 55,
          "time": 437.5104166666655,
          "velocity": 1,
          "duration": 0.30208333333337123
        },
        {
          "name": "C4",
          "midi": 60,
          "time": 437.7708333333322,
          "velocity": 1,
          "duration": 0.06250000000005684
        },
        {
          "name": "B3",
          "midi": 59,
          "time": 437.9999999999989,
          "velocity": 1,
          "duration": 0.37499999999994316
        },
        {
          "name": "G4",
          "midi": 67,
          "time": 438.00520833333223,
          "velocity": 1,
          "duration": 0.40104166666662877
        },
        {
          "name": "G2",
          "midi": 43,
          "time": 438.01041666666555,
          "velocity": 1,
          "duration": 0.17708333333331439
        },
        {
          "name": "D4",
          "midi": 62,
          "time": 438.01562499999886,
          "velocity": 1,
          "duration": 0.4166666666666856
        },
        {
          "name": "B4",
          "midi": 71,
          "time": 438.01562499999886,
          "velocity": 1,
          "duration": 0.40625
        },
        {
          "name": "G2",
          "midi": 43,
          "time": 438.2552083333322,
          "velocity": 1,
          "duration": 0.6562500000000568
        },
        {
          "name": "B3",
          "midi": 59,
          "time": 438.51041666666555,
          "velocity": 1,
          "duration": 0.7604166666666856
        },
        {
          "name": "G4",
          "midi": 67,
          "time": 438.73437499999886,
          "velocity": 1,
          "duration": 0.5572916666666856
        },
        {
          "name": "D4",
          "midi": 62,
          "time": 438.74479166666555,
          "velocity": 1,
          "duration": 0.5677083333333144
        },
        {
          "name": "B4",
          "midi": 71,
          "time": 438.75520833333223,
          "velocity": 1,
          "duration": 0.5572916666666288
        },
        {
          "name": "G2",
          "midi": 43,
          "time": 439.24479166666555,
          "velocity": 1,
          "duration": 0.6041666666666856
        },
        {
          "name": "B3",
          "midi": 59,
          "time": 439.36979166666555,
          "velocity": 1,
          "duration": 0.5104166666666856
        },
        {
          "name": "D4",
          "midi": 62,
          "time": 439.49999999999886,
          "velocity": 1,
          "duration": 0.38020833333337123
        },
        {
          "name": "G4",
          "midi": 67,
          "time": 439.62499999999886,
          "velocity": 1,
          "duration": 0.22916666666668561
        },
        {
          "name": "B4",
          "midi": 71,
          "time": 439.76041666666555,
          "velocity": 1,
          "duration": 0.11979166666668561
        },
        {
          "name": "D4",
          "midi": 62,
          "time": 439.9999999999989,
          "velocity": 1,
          "duration": 0.37499999999994316
        },
        {
          "name": "A#4",
          "midi": 70,
          "time": 440.00520833333223,
          "velocity": 1,
          "duration": 0.40104166666662877
        },
        {
          "name": "A#1",
          "midi": 34,
          "time": 440.01041666666555,
          "velocity": 1,
          "duration": 1.8385416666666856
        },
        {
          "name": "A#2",
          "midi": 46,
          "time": 440.01041666666555,
          "velocity": 1,
          "duration": 0.17708333333331439
        },
        {
          "name": "F4",
          "midi": 65,
          "time": 440.01562499999886,
          "velocity": 1,
          "duration": 0.4166666666666856
        },
        {
          "name": "D5",
          "midi": 74,
          "time": 440.01562499999886,
          "velocity": 1,
          "duration": 0.40625
        },
        {
          "name": "A#2",
          "midi": 46,
          "time": 440.2552083333322,
          "velocity": 1,
          "duration": 0.6562500000000568
        },
        {
          "name": "D4",
          "midi": 62,
          "time": 440.51041666666555,
          "velocity": 1,
          "duration": 0.7604166666666856
        },
        {
          "name": "A#4",
          "midi": 70,
          "time": 440.73437499999886,
          "velocity": 1,
          "duration": 0.5572916666666856
        },
        {
          "name": "F4",
          "midi": 65,
          "time": 440.74479166666555,
          "velocity": 1,
          "duration": 0.5677083333333144
        },
        {
          "name": "D5",
          "midi": 74,
          "time": 440.75520833333223,
          "velocity": 1,
          "duration": 0.5572916666666288
        },
        {
          "name": "A#2",
          "midi": 46,
          "time": 441.24479166666555,
          "velocity": 1,
          "duration": 0.6145833333333144
        },
        {
          "name": "D4",
          "midi": 62,
          "time": 441.36979166666555,
          "velocity": 1,
          "duration": 0.5104166666666288
        },
        {
          "name": "F4",
          "midi": 65,
          "time": 441.49999999999886,
          "velocity": 1,
          "duration": 0.3802083333333144
        },
        {
          "name": "A#4",
          "midi": 70,
          "time": 441.62499999999886,
          "velocity": 1,
          "duration": 0.22916666666668561
        },
        {
          "name": "D5",
          "midi": 74,
          "time": 441.76041666666555,
          "velocity": 1,
          "duration": 0.11979166666662877
        },
        {
          "name": "G4",
          "midi": 67,
          "time": 442.0104166666655,
          "velocity": 1,
          "duration": 0.29687499999994316
        },
        {
          "name": "C3",
          "midi": 48,
          "time": 442.0104166666655,
          "velocity": 1,
          "duration": 1.5260416666666288
        },
        {
          "name": "C4",
          "midi": 60,
          "time": 442.0156249999988,
          "velocity": 1,
          "duration": 0.29166666666662877
        },
        {
          "name": "C2",
          "midi": 36,
          "time": 442.0156249999988,
          "velocity": 1,
          "duration": 3.781249999999943
        },
        {
          "name": "E4",
          "midi": 64,
          "time": 442.0208333333321,
          "velocity": 1,
          "duration": 0.2708333333333144
        },
        {
          "name": "G5",
          "midi": 79,
          "time": 442.88541666666544,
          "velocity": 1,
          "duration": 0.19270833333337123
        },
        {
          "name": "E5",
          "midi": 76,
          "time": 442.93229166666544,
          "velocity": 1,
          "duration": 0.18750000000005684
        },
        {
          "name": "C5",
          "midi": 72,
          "time": 442.9583333333321,
          "velocity": 1,
          "duration": 0.19791666666668561
        },
        {
          "name": "G4",
          "midi": 67,
          "time": 443.8124999999988,
          "velocity": 1,
          "duration": 0.5677083333333144
        },
        {
          "name": "E4",
          "midi": 64,
          "time": 443.8437499999988,
          "velocity": 1,
          "duration": 0.5520833333333144
        },
        {
          "name": "C4",
          "midi": 60,
          "time": 443.9114583333321,
          "velocity": 1,
          "duration": 0.5
        },
        {
          "name": "C3",
          "midi": 48,
          "time": 444.0052083333321,
          "velocity": 1,
          "duration": 0.453125
        },
        {
          "name": "C3",
          "midi": 48,
          "time": 444.7552083333321,
          "velocity": 1,
          "duration": 0.41666666666662877
        },
        {
          "name": "G3",
          "midi": 55,
          "time": 444.9999999999988,
          "velocity": 1,
          "duration": 0.32812499999994316
        },
        {
          "name": "C4",
          "midi": 60,
          "time": 445.0052083333321,
          "velocity": 1,
          "duration": 0.5052083333332575
        },
        {
          "name": "E4",
          "midi": 64,
          "time": 445.01041666666544,
          "velocity": 1,
          "duration": 0.49479166666662877
        },
        {
          "name": "C3",
          "midi": 48,
          "time": 445.24999999999875,
          "velocity": 1,
          "duration": 0.5625
        },
        {
          "name": "G3",
          "midi": 55,
          "time": 445.5104166666654,
          "velocity": 1,
          "duration": 0.30208333333337123
        },
        {
          "name": "C4",
          "midi": 60,
          "time": 445.77083333333206,
          "velocity": 1,
          "duration": 0.06250000000005684
        },
        {
          "name": "G4",
          "midi": 67,
          "time": 445.9999999999988,
          "velocity": 1,
          "duration": 0.16145833333331439
        },
        {
          "name": "D5",
          "midi": 74,
          "time": 445.9999999999988,
          "velocity": 1,
          "duration": 0.3177083333333144
        },
        {
          "name": "B4",
          "midi": 71,
          "time": 445.9999999999988,
          "velocity": 1,
          "duration": 0.2864583333333144
        },
        {
          "name": "G5",
          "midi": 79,
          "time": 445.9999999999988,
          "velocity": 1,
          "duration": 0.328125
        },
        {
          "name": "B3",
          "midi": 59,
          "time": 446.0052083333321,
          "velocity": 1,
          "duration": 1.6145833333333712
        },
        {
          "name": "G2",
          "midi": 43,
          "time": 446.0208333333321,
          "velocity": 1,
          "duration": 1.75
        },
        {
          "name": "G4",
          "midi": 67,
          "time": 446.2552083333321,
          "velocity": 1,
          "duration": 0.5989583333333144
        },
        {
          "name": "B4",
          "midi": 71,
          "time": 446.4999999999988,
          "velocity": 1,
          "duration": 0.20833333333331439
        },
        {
          "name": "D5",
          "midi": 74,
          "time": 446.7708333333321,
          "velocity": 1,
          "duration": 0.08333333333331439
        },
        {
          "name": "G5",
          "midi": 79,
          "time": 446.9895833333321,
          "velocity": 1,
          "duration": 0.07291666666668561
        },
        {
          "name": "B5",
          "midi": 83,
          "time": 447.2604166666655,
          "velocity": 1,
          "duration": 0.22395833333331439
        },
        {
          "name": "G4",
          "midi": 67,
          "time": 447.4374999999988,
          "velocity": 1,
          "duration": 0.13020833333337123
        },
        {
          "name": "D6",
          "midi": 86,
          "time": 447.4947916666655,
          "velocity": 1,
          "duration": 0.09895833333337123
        },
        {
          "name": "B5",
          "midi": 83,
          "time": 447.6145833333322,
          "velocity": 1,
          "duration": 0.11458333333331439
        },
        {
          "name": "G5",
          "midi": 79,
          "time": 447.7499999999988,
          "velocity": 1,
          "duration": 0.09895833333331439
        },
        {
          "name": "D5",
          "midi": 74,
          "time": 447.8958333333321,
          "velocity": 1,
          "duration": 0.026041666666685614
        },
        {
          "name": "A#3",
          "midi": 58,
          "time": 447.9999999999988,
          "velocity": 0.7874015748031497,
          "duration": 0.16145833333331439
        },
        {
          "name": "F4",
          "midi": 65,
          "time": 447.9999999999988,
          "velocity": 0.7874015748031497,
          "duration": 0.3177083333333144
        },
        {
          "name": "D4",
          "midi": 62,
          "time": 447.9999999999988,
          "velocity": 0.7874015748031497,
          "duration": 0.2864583333333144
        },
        {
          "name": "A#4",
          "midi": 70,
          "time": 447.9999999999988,
          "velocity": 0.7874015748031497,
          "duration": 0.328125
        },
        {
          "name": "D3",
          "midi": 50,
          "time": 448.0052083333321,
          "velocity": 0.7874015748031497,
          "duration": 1.6145833333333712
        },
        {
          "name": "A#2",
          "midi": 46,
          "time": 448.0208333333321,
          "velocity": 0.7874015748031497,
          "duration": 1.75
        },
        {
          "name": "A#3",
          "midi": 58,
          "time": 448.2552083333321,
          "velocity": 0.7795275590551181,
          "duration": 0.5989583333333144
        },
        {
          "name": "D4",
          "midi": 62,
          "time": 448.4999999999988,
          "velocity": 0.7716535433070866,
          "duration": 0.20833333333331439
        },
        {
          "name": "F4",
          "midi": 65,
          "time": 448.7708333333321,
          "velocity": 0.7637795275590551,
          "duration": 0.08333333333331439
        },
        {
          "name": "A#4",
          "midi": 70,
          "time": 448.9895833333321,
          "velocity": 0.7559055118110236,
          "duration": 0.07291666666668561
        },
        {
          "name": "D5",
          "midi": 74,
          "time": 449.2604166666655,
          "velocity": 0.7401574803149606,
          "duration": 0.22395833333331439
        },
        {
          "name": "A#3",
          "midi": 58,
          "time": 449.4374999999988,
          "velocity": 0.7322834645669292,
          "duration": 0.13020833333337123
        },
        {
          "name": "F5",
          "midi": 77,
          "time": 449.4947916666655,
          "velocity": 0.7322834645669292,
          "duration": 0.09895833333337123
        },
        {
          "name": "D5",
          "midi": 74,
          "time": 449.6145833333322,
          "velocity": 0.7244094488188977,
          "duration": 0.11458333333331439
        },
        {
          "name": "A#4",
          "midi": 70,
          "time": 449.7499999999988,
          "velocity": 0.7244094488188977,
          "duration": 0.09895833333331439
        },
        {
          "name": "F4",
          "midi": 65,
          "time": 449.8958333333321,
          "velocity": 0.7165354330708661,
          "duration": 0.026041666666685614
        },
        {
          "name": "E4",
          "midi": 64,
          "time": 450.0052083333321,
          "velocity": 0.7086614173228346,
          "duration": 0.5468749999999432
        },
        {
          "name": "C4",
          "midi": 60,
          "time": 450.0052083333321,
          "velocity": 0.7086614173228346,
          "duration": 0.5104166666666288
        },
        {
          "name": "C3",
          "midi": 48,
          "time": 450.01041666666544,
          "velocity": 0.7086614173228346,
          "duration": 1.916666666666572
        },
        {
          "name": "G3",
          "midi": 55,
          "time": 450.01041666666544,
          "velocity": 0.7086614173228346,
          "duration": 0.4375
        },
        {
          "name": "C2",
          "midi": 36,
          "time": 450.27604166666544,
          "velocity": 0.7007874015748031,
          "duration": 3.3072916666664582
        },
        {
          "name": "G3",
          "midi": 55,
          "time": 450.51562499999875,
          "velocity": 0.6929133858267716,
          "duration": 0.9583333333332575
        },
        {
          "name": "C4",
          "midi": 60,
          "time": 450.7604166666654,
          "velocity": 0.6850393700787402,
          "duration": 0.6614583333333144
        },
        {
          "name": "E4",
          "midi": 64,
          "time": 450.77083333333206,
          "velocity": 0.6850393700787402,
          "duration": 0.6458333333333144
        },
        {
          "name": "G3",
          "midi": 55,
          "time": 451.645833333332,
          "velocity": 0.6456692913385826,
          "duration": 1.5156249999999432
        },
        {
          "name": "C4",
          "midi": 60,
          "time": 451.770833333332,
          "velocity": 0.6456692913385826,
          "duration": 0.5364583333333144
        },
        {
          "name": "E4",
          "midi": 64,
          "time": 452.0156249999987,
          "velocity": 0.6299212598425197,
          "duration": 0.2864583333333144
        },
        {
          "name": "C3",
          "midi": 48,
          "time": 452.020833333332,
          "velocity": 0.6299212598425197,
          "duration": 1.0208333333333144
        },
        {
          "name": "C4",
          "midi": 60,
          "time": 452.473958333332,
          "velocity": 0.6141732283464567,
          "duration": 0.6666666666666288
        },
        {
          "name": "E4",
          "midi": 64,
          "time": 452.7447916666653,
          "velocity": 0.6062992125984252,
          "duration": 0.375
        },
        {
          "name": "C3",
          "midi": 48,
          "time": 453.24999999999864,
          "velocity": 0.5826771653543307,
          "duration": 0.3541666666665719
        },
        {
          "name": "C4",
          "midi": 60,
          "time": 453.50520833333195,
          "velocity": 0.5748031496062992,
          "duration": 0.32812499999994316
        },
        {
          "name": "G3",
          "midi": 55,
          "time": 453.51041666666526,
          "velocity": 0.5748031496062992,
          "duration": 0.33333333333325754
        },
        {
          "name": "E4",
          "midi": 64,
          "time": 453.5156249999986,
          "velocity": 0.5748031496062992,
          "duration": 0.32291666666662877
        },
        {
          "name": "G5",
          "midi": 79,
          "time": 454.02083333333184,
          "velocity": 0.5511811023622047,
          "duration": 0.8958333333333144
        },
        {
          "name": "D5",
          "midi": 74,
          "time": 454.02083333333184,
          "velocity": 0.5511811023622047,
          "duration": 0.875
        },
        {
          "name": "G2",
          "midi": 43,
          "time": 454.02083333333184,
          "velocity": 0.5511811023622047,
          "duration": 1.75
        },
        {
          "name": "B4",
          "midi": 71,
          "time": 454.02604166666515,
          "velocity": 0.5511811023622047,
          "duration": 0.8125
        },
        {
          "name": "G4",
          "midi": 67,
          "time": 454.02604166666515,
          "velocity": 0.5511811023622047,
          "duration": 0.5677083333333144
        },
        {
          "name": "G4",
          "midi": 67,
          "time": 454.74999999999847,
          "velocity": 0.5275590551181102,
          "duration": 1.0052083333333712
        },
        {
          "name": "B4",
          "midi": 71,
          "time": 455.24479166666515,
          "velocity": 0.5039370078740157,
          "duration": 0.4635416666666856
        },
        {
          "name": "G5",
          "midi": 79,
          "time": 455.47916666666515,
          "velocity": 0.49606299212598426,
          "duration": 0.21875
        },
        {
          "name": "D5",
          "midi": 74,
          "time": 455.48437499999847,
          "velocity": 0.49606299212598426,
          "duration": 0.22395833333337123
        },
        {
          "name": "A#3",
          "midi": 58,
          "time": 455.9999999999985,
          "velocity": 0.47244094488188976,
          "duration": 0.16145833333331439
        },
        {
          "name": "F4",
          "midi": 65,
          "time": 455.9999999999985,
          "velocity": 0.47244094488188976,
          "duration": 0.3177083333333144
        },
        {
          "name": "D4",
          "midi": 62,
          "time": 455.9999999999985,
          "velocity": 0.47244094488188976,
          "duration": 0.2864583333333144
        },
        {
          "name": "A#4",
          "midi": 70,
          "time": 455.9999999999985,
          "velocity": 0.47244094488188976,
          "duration": 0.328125
        },
        {
          "name": "D3",
          "midi": 50,
          "time": 456.00520833333184,
          "velocity": 0.47244094488188976,
          "duration": 1.6145833333333712
        },
        {
          "name": "A#2",
          "midi": 46,
          "time": 456.02083333333184,
          "velocity": 0.47244094488188976,
          "duration": 1.75
        },
        {
          "name": "A#3",
          "midi": 58,
          "time": 456.25520833333184,
          "velocity": 0.4645669291338583,
          "duration": 0.5989583333333144
        },
        {
          "name": "D4",
          "midi": 62,
          "time": 456.4999999999985,
          "velocity": 0.4566929133858268,
          "duration": 0.20833333333331439
        },
        {
          "name": "F4",
          "midi": 65,
          "time": 456.77083333333184,
          "velocity": 0.44881889763779526,
          "duration": 0.08333333333331439
        },
        {
          "name": "A#4",
          "midi": 70,
          "time": 456.98958333333184,
          "velocity": 0.4409448818897638,
          "duration": 0.07291666666668561
        },
        {
          "name": "D5",
          "midi": 74,
          "time": 457.2604166666652,
          "velocity": 0.4251968503937008,
          "duration": 0.22395833333331439
        },
        {
          "name": "A#3",
          "midi": 58,
          "time": 457.4374999999985,
          "velocity": 0.41732283464566927,
          "duration": 0.13020833333337123
        },
        {
          "name": "F5",
          "midi": 77,
          "time": 457.4947916666652,
          "velocity": 0.41732283464566927,
          "duration": 0.09895833333337123
        },
        {
          "name": "D5",
          "midi": 74,
          "time": 457.6145833333319,
          "velocity": 0.4094488188976378,
          "duration": 0.11458333333331439
        },
        {
          "name": "A#4",
          "midi": 70,
          "time": 457.7499999999985,
          "velocity": 0.4094488188976378,
          "duration": 0.09895833333331439
        },
        {
          "name": "F4",
          "midi": 65,
          "time": 457.89583333333184,
          "velocity": 0.4015748031496063,
          "duration": 0.026041666666685614
        },
        {
          "name": "C5",
          "midi": 72,
          "time": 458.02083333333184,
          "velocity": 0.3937007874015748,
          "duration": 0.8958333333333144
        },
        {
          "name": "G4",
          "midi": 67,
          "time": 458.02083333333184,
          "velocity": 0.3937007874015748,
          "duration": 0.875
        },
        {
          "name": "C3",
          "midi": 48,
          "time": 458.02083333333184,
          "velocity": 0.3937007874015748,
          "duration": 1.75
        },
        {
          "name": "E4",
          "midi": 64,
          "time": 458.02604166666515,
          "velocity": 0.3937007874015748,
          "duration": 0.8125
        },
        {
          "name": "C4",
          "midi": 60,
          "time": 458.02604166666515,
          "velocity": 0.3937007874015748,
          "duration": 0.5677083333333144
        },
        {
          "name": "C4",
          "midi": 60,
          "time": 458.74999999999847,
          "velocity": 0.3700787401574803,
          "duration": 1.0052083333333712
        },
        {
          "name": "E4",
          "midi": 64,
          "time": 459.24479166666515,
          "velocity": 0.3464566929133858,
          "duration": 0.4635416666666856
        },
        {
          "name": "C5",
          "midi": 72,
          "time": 459.47916666666515,
          "velocity": 0.33858267716535434,
          "duration": 0.21875
        },
        {
          "name": "G4",
          "midi": 67,
          "time": 459.48437499999847,
          "velocity": 0.33858267716535434,
          "duration": 0.22395833333337123
        },
        {
          "name": "E3",
          "midi": 52,
          "time": 459.9999999999985,
          "velocity": 0.31496062992125984,
          "duration": 1.8958333333333712
        },
        {
          "name": "C4",
          "midi": 60,
          "time": 459.9999999999985,
          "velocity": 0.31496062992125984,
          "duration": 1.875
        },
        {
          "name": "G4",
          "midi": 67,
          "time": 459.9999999999985,
          "velocity": 0.31496062992125984,
          "duration": 1.8854166666666856
        },
        {
          "name": "C5",
          "midi": 72,
          "time": 459.9999999999985,
          "velocity": 0.31496062992125984,
          "duration": 1.8854166666666856
        },
        {
          "name": "E5",
          "midi": 76,
          "time": 460.0416666666652,
          "velocity": 0.31496062992125984,
          "duration": 1.84375
        }
      ],
      "controlChanges": {
        "32": [
          {
            "number": 32,
            "time": 0,
            "value": 0
          }
        ],
        "64": [
          {
            "number": 64,
            "time": 1.984375,
            "value": 1
          },
          {
            "number": 64,
            "time": 2.291666666666667,
            "value": 1
          },
          {
            "number": 64,
            "time": 3.729166666666668,
            "value": 0
          },
          {
            "number": 64,
            "time": 3.807291666666668,
            "value": 0
          },
          {
            "number": 64,
            "time": 3.958333333333335,
            "value": 1
          },
          {
            "number": 64,
            "time": 4.125000000000001,
            "value": 1
          },
          {
            "number": 64,
            "time": 5.786458333333335,
            "value": 0
          },
          {
            "number": 64,
            "time": 6.026041666666667,
            "value": 0
          },
          {
            "number": 64,
            "time": 6.244791666666667,
            "value": 1
          },
          {
            "number": 64,
            "time": 6.677083333333333,
            "value": 1
          },
          {
            "number": 64,
            "time": 6.84375,
            "value": 0
          },
          {
            "number": 64,
            "time": 7.145833333333333,
            "value": 1
          },
          {
            "number": 64,
            "time": 7.869791666666666,
            "value": 0
          },
          {
            "number": 64,
            "time": 7.942708333333333,
            "value": 1
          },
          {
            "number": 64,
            "time": 7.989583333333333,
            "value": 0
          },
          {
            "number": 64,
            "time": 8.21875,
            "value": 1
          },
          {
            "number": 64,
            "time": 9.84895833333334,
            "value": 0
          },
          {
            "number": 64,
            "time": 10.00520833333334,
            "value": 0
          },
          {
            "number": 64,
            "time": 10.046875000000005,
            "value": 1
          },
          {
            "number": 64,
            "time": 10.182291666666673,
            "value": 1
          },
          {
            "number": 64,
            "time": 11.854166666666679,
            "value": 0
          },
          {
            "number": 64,
            "time": 11.854166666666679,
            "value": 0
          },
          {
            "number": 64,
            "time": 11.973958333333346,
            "value": 1
          },
          {
            "number": 64,
            "time": 12.015625000000012,
            "value": 1
          },
          {
            "number": 64,
            "time": 12.520833333333348,
            "value": 0
          },
          {
            "number": 64,
            "time": 12.578125000000014,
            "value": 1
          },
          {
            "number": 64,
            "time": 12.895833333333348,
            "value": 0
          },
          {
            "number": 64,
            "time": 13.25520833333335,
            "value": 1
          },
          {
            "number": 64,
            "time": 13.33333333333335,
            "value": 0
          },
          {
            "number": 64,
            "time": 13.781250000000023,
            "value": 0
          },
          {
            "number": 64,
            "time": 14.197916666666691,
            "value": 1
          },
          {
            "number": 64,
            "time": 14.447916666666691,
            "value": 0
          },
          {
            "number": 64,
            "time": 15.000000000000027,
            "value": 1
          },
          {
            "number": 64,
            "time": 15.97395833333336,
            "value": 0
          },
          {
            "number": 64,
            "time": 16.03125000000003,
            "value": 1
          },
          {
            "number": 64,
            "time": 16.817708333333357,
            "value": 0
          },
          {
            "number": 64,
            "time": 17.00000000000002,
            "value": 1
          },
          {
            "number": 64,
            "time": 17.973958333333357,
            "value": 0
          },
          {
            "number": 64,
            "time": 18.01562500000002,
            "value": 1
          },
          {
            "number": 64,
            "time": 19.78125000000003,
            "value": 0
          },
          {
            "number": 64,
            "time": 20.291666666666693,
            "value": 1
          },
          {
            "number": 64,
            "time": 21.729166666666693,
            "value": 0
          },
          {
            "number": 64,
            "time": 22.786458333333364,
            "value": 1
          },
          {
            "number": 64,
            "time": 23.84375000000003,
            "value": 0
          },
          {
            "number": 64,
            "time": 24.020833333333364,
            "value": 1
          },
          {
            "number": 64,
            "time": 25.68750000000003,
            "value": 0
          },
          {
            "number": 64,
            "time": 26.12500000000002,
            "value": 1
          },
          {
            "number": 64,
            "time": 27.786458333333357,
            "value": 0
          },
          {
            "number": 64,
            "time": 28.046875000000025,
            "value": 1
          },
          {
            "number": 64,
            "time": 29.85416666666669,
            "value": 0
          },
          {
            "number": 64,
            "time": 30.031250000000025,
            "value": 1
          },
          {
            "number": 64,
            "time": 30.817708333333357,
            "value": 0
          },
          {
            "number": 64,
            "time": 31.197916666666686,
            "value": 1
          },
          {
            "number": 64,
            "time": 31.447916666666686,
            "value": 0
          },
          {
            "number": 64,
            "time": 32.041666666666686,
            "value": 1
          },
          {
            "number": 64,
            "time": 32.80208333333337,
            "value": 0
          },
          {
            "number": 64,
            "time": 33.197916666666714,
            "value": 1
          },
          {
            "number": 64,
            "time": 33.447916666666714,
            "value": 0
          },
          {
            "number": 64,
            "time": 34.01562500000005,
            "value": 1
          },
          {
            "number": 64,
            "time": 35.78125000000004,
            "value": 0
          },
          {
            "number": 64,
            "time": 36.12500000000005,
            "value": 1
          },
          {
            "number": 64,
            "time": 37.78645833333338,
            "value": 0
          },
          {
            "number": 64,
            "time": 38.20833333333339,
            "value": 1
          },
          {
            "number": 64,
            "time": 39.96875000000006,
            "value": 0
          },
          {
            "number": 64,
            "time": 40.10416666666673,
            "value": 1
          },
          {
            "number": 64,
            "time": 41.82291666666673,
            "value": 0
          },
          {
            "number": 64,
            "time": 42.01562500000006,
            "value": 1
          },
          {
            "number": 64,
            "time": 43.78125000000005,
            "value": 0
          },
          {
            "number": 64,
            "time": 44.01562500000005,
            "value": 1
          },
          {
            "number": 64,
            "time": 45.78125000000004,
            "value": 0
          },
          {
            "number": 64,
            "time": 46.04166666666671,
            "value": 1
          },
          {
            "number": 64,
            "time": 46.80208333333339,
            "value": 0
          },
          {
            "number": 64,
            "time": 47.000000000000064,
            "value": 1
          },
          {
            "number": 64,
            "time": 47.97395833333339,
            "value": 0
          },
          {
            "number": 64,
            "time": 48.00000000000006,
            "value": 1
          },
          {
            "number": 64,
            "time": 48.97395833333338,
            "value": 0
          },
          {
            "number": 64,
            "time": 49.03125000000004,
            "value": 1
          },
          {
            "number": 64,
            "time": 49.817708333333385,
            "value": 0
          },
          {
            "number": 64,
            "time": 50.01562500000006,
            "value": 1
          },
          {
            "number": 64,
            "time": 51.78125000000005,
            "value": 0
          },
          {
            "number": 64,
            "time": 52.01562500000005,
            "value": 1
          },
          {
            "number": 64,
            "time": 53.78125000000004,
            "value": 0
          },
          {
            "number": 64,
            "time": 54.677083333333385,
            "value": 1
          },
          {
            "number": 64,
            "time": 54.84375000000005,
            "value": 0
          },
          {
            "number": 64,
            "time": 55.145833333333385,
            "value": 1
          },
          {
            "number": 64,
            "time": 55.98958333333339,
            "value": 0
          },
          {
            "number": 64,
            "time": 56.21875000000006,
            "value": 1
          },
          {
            "number": 64,
            "time": 57.848958333333414,
            "value": 0
          },
          {
            "number": 64,
            "time": 58.125000000000085,
            "value": 1
          },
          {
            "number": 64,
            "time": 59.786458333333414,
            "value": 0
          },
          {
            "number": 64,
            "time": 60.29166666666675,
            "value": 1
          },
          {
            "number": 64,
            "time": 61.72916666666675,
            "value": 0
          },
          {
            "number": 64,
            "time": 62.04166666666675,
            "value": 1
          },
          {
            "number": 64,
            "time": 62.77604166666676,
            "value": 0
          },
          {
            "number": 64,
            "time": 63.04166666666676,
            "value": 1
          },
          {
            "number": 64,
            "time": 63.776041666666764,
            "value": 0
          },
          {
            "number": 64,
            "time": 64.04166666666677,
            "value": 1
          },
          {
            "number": 64,
            "time": 64.8020833333334,
            "value": 0
          },
          {
            "number": 64,
            "time": 65.04166666666671,
            "value": 1
          },
          {
            "number": 64,
            "time": 65.7760416666667,
            "value": 0
          },
          {
            "number": 64,
            "time": 66.04687500000004,
            "value": 1
          },
          {
            "number": 64,
            "time": 67.8541666666667,
            "value": 0
          },
          {
            "number": 64,
            "time": 68.08854166666671,
            "value": 1
          },
          {
            "number": 64,
            "time": 69.82291666666671,
            "value": 0
          },
          {
            "number": 64,
            "time": 70.20833333333337,
            "value": 1
          },
          {
            "number": 64,
            "time": 71.96875000000004,
            "value": 0
          },
          {
            "number": 64,
            "time": 72.1041666666667,
            "value": 1
          },
          {
            "number": 64,
            "time": 73.8229166666667,
            "value": 0
          },
          {
            "number": 64,
            "time": 74.04687500000004,
            "value": 1
          },
          {
            "number": 64,
            "time": 75.8541666666667,
            "value": 0
          },
          {
            "number": 64,
            "time": 76.12500000000003,
            "value": 1
          },
          {
            "number": 64,
            "time": 77.78645833333337,
            "value": 0
          },
          {
            "number": 64,
            "time": 78.19791666666669,
            "value": 1
          },
          {
            "number": 64,
            "time": 78.44791666666669,
            "value": 0
          },
          {
            "number": 64,
            "time": 79.00000000000001,
            "value": 1
          },
          {
            "number": 64,
            "time": 79.97395833333337,
            "value": 0
          },
          {
            "number": 64,
            "time": 80.04166666666671,
            "value": 1
          },
          {
            "number": 64,
            "time": 80.80208333333334,
            "value": 0
          },
          {
            "number": 64,
            "time": 81,
            "value": 1
          },
          {
            "number": 64,
            "time": 81.97395833333334,
            "value": 0
          },
          {
            "number": 64,
            "time": 82.04687500000001,
            "value": 1
          },
          {
            "number": 64,
            "time": 83.85416666666667,
            "value": 0
          },
          {
            "number": 64,
            "time": 84.125,
            "value": 1
          },
          {
            "number": 64,
            "time": 85.78645833333334,
            "value": 0
          },
          {
            "number": 64,
            "time": 86.78645833333334,
            "value": 1
          },
          {
            "number": 64,
            "time": 87.84375,
            "value": 0
          },
          {
            "number": 64,
            "time": 88.02083333333334,
            "value": 1
          },
          {
            "number": 64,
            "time": 89.6875,
            "value": 0
          },
          {
            "number": 64,
            "time": 90.16145833333333,
            "value": 1
          },
          {
            "number": 64,
            "time": 91.82291666666666,
            "value": 0
          },
          {
            "number": 64,
            "time": 92.16145833333333,
            "value": 1
          },
          {
            "number": 64,
            "time": 93.82291666666666,
            "value": 0
          },
          {
            "number": 64,
            "time": 94.20833333333331,
            "value": 1
          },
          {
            "number": 64,
            "time": 95.96874999999999,
            "value": 0
          },
          {
            "number": 64,
            "time": 96.10416666666664,
            "value": 1
          },
          {
            "number": 64,
            "time": 97.82291666666664,
            "value": 0
          },
          {
            "number": 64,
            "time": 98.01562499999999,
            "value": 1
          },
          {
            "number": 64,
            "time": 99.78125,
            "value": 0
          },
          {
            "number": 64,
            "time": 100.12499999999999,
            "value": 1
          },
          {
            "number": 64,
            "time": 101.78645833333333,
            "value": 0
          },
          {
            "number": 64,
            "time": 101.99999999999999,
            "value": 1
          },
          {
            "number": 64,
            "time": 102.97395833333334,
            "value": 0
          },
          {
            "number": 64,
            "time": 103.00000000000001,
            "value": 1
          },
          {
            "number": 64,
            "time": 103.97395833333336,
            "value": 0
          },
          {
            "number": 64,
            "time": 104.0416666666667,
            "value": 1
          },
          {
            "number": 64,
            "time": 104.80208333333333,
            "value": 0
          },
          {
            "number": 64,
            "time": 105.03124999999999,
            "value": 1
          },
          {
            "number": 64,
            "time": 105.8177083333333,
            "value": 0
          },
          {
            "number": 64,
            "time": 106.12499999999994,
            "value": 1
          },
          {
            "number": 64,
            "time": 107.78645833333329,
            "value": 0
          },
          {
            "number": 64,
            "time": 108.16145833333329,
            "value": 1
          },
          {
            "number": 64,
            "time": 109.8229166666666,
            "value": 0
          },
          {
            "number": 64,
            "time": 110.67708333333326,
            "value": 1
          },
          {
            "number": 64,
            "time": 110.84374999999993,
            "value": 0
          },
          {
            "number": 64,
            "time": 111.14583333333326,
            "value": 1
          },
          {
            "number": 64,
            "time": 111.98958333333324,
            "value": 0
          },
          {
            "number": 64,
            "time": 112.21874999999991,
            "value": 1
          },
          {
            "number": 64,
            "time": 113.8489583333332,
            "value": 0
          },
          {
            "number": 64,
            "time": 114.12499999999986,
            "value": 1
          },
          {
            "number": 64,
            "time": 115.7864583333332,
            "value": 0
          },
          {
            "number": 64,
            "time": 116.06249999999987,
            "value": 1
          },
          {
            "number": 64,
            "time": 117.87499999999987,
            "value": 0
          },
          {
            "number": 64,
            "time": 118.04166666666654,
            "value": 1
          },
          {
            "number": 64,
            "time": 118.80208333333317,
            "value": 0
          },
          {
            "number": 64,
            "time": 119.19791666666649,
            "value": 1
          },
          {
            "number": 64,
            "time": 119.44791666666649,
            "value": 0
          },
          {
            "number": 64,
            "time": 120.03124999999982,
            "value": 1
          },
          {
            "number": 64,
            "time": 120.81770833333314,
            "value": 0
          },
          {
            "number": 64,
            "time": 121.04166666666647,
            "value": 1
          },
          {
            "number": 64,
            "time": 121.8020833333331,
            "value": 0
          },
          {
            "number": 64,
            "time": 122.1614583333331,
            "value": 1
          },
          {
            "number": 64,
            "time": 123.82291666666642,
            "value": 0
          },
          {
            "number": 64,
            "time": 124.06249999999974,
            "value": 1
          },
          {
            "number": 64,
            "time": 125.87499999999974,
            "value": 0
          },
          {
            "number": 64,
            "time": 126.67708333333306,
            "value": 1
          },
          {
            "number": 64,
            "time": 126.84374999999973,
            "value": 0
          },
          {
            "number": 64,
            "time": 127.14583333333306,
            "value": 1
          },
          {
            "number": 64,
            "time": 127.98958333333304,
            "value": 0
          },
          {
            "number": 64,
            "time": 128.21874999999972,
            "value": 1
          },
          {
            "number": 64,
            "time": 129.84895833333314,
            "value": 0
          },
          {
            "number": 64,
            "time": 130.16145833333314,
            "value": 1
          },
          {
            "number": 64,
            "time": 131.8229166666665,
            "value": 0
          },
          {
            "number": 64,
            "time": 132.16145833333314,
            "value": 1
          },
          {
            "number": 64,
            "time": 133.8229166666665,
            "value": 0
          },
          {
            "number": 64,
            "time": 134.0416666666665,
            "value": 1
          },
          {
            "number": 64,
            "time": 134.80208333333323,
            "value": 0
          },
          {
            "number": 64,
            "time": 135.03124999999991,
            "value": 1
          },
          {
            "number": 64,
            "time": 135.81770833333326,
            "value": 0
          },
          {
            "number": 64,
            "time": 136.0416666666666,
            "value": 1
          },
          {
            "number": 64,
            "time": 136.80208333333334,
            "value": 0
          },
          {
            "number": 64,
            "time": 137.03125000000003,
            "value": 1
          },
          {
            "number": 64,
            "time": 137.8177083333334,
            "value": 0
          },
          {
            "number": 64,
            "time": 138.1614583333334,
            "value": 1
          },
          {
            "number": 64,
            "time": 139.82291666666677,
            "value": 0
          },
          {
            "number": 64,
            "time": 140.0625000000001,
            "value": 1
          },
          {
            "number": 64,
            "time": 141.8750000000001,
            "value": 0
          },
          {
            "number": 64,
            "time": 142.67708333333348,
            "value": 1
          },
          {
            "number": 64,
            "time": 142.84375000000014,
            "value": 0
          },
          {
            "number": 64,
            "time": 143.14583333333348,
            "value": 1
          },
          {
            "number": 64,
            "time": 143.9895833333335,
            "value": 0
          },
          {
            "number": 64,
            "time": 144.21875000000017,
            "value": 1
          },
          {
            "number": 64,
            "time": 145.8489583333336,
            "value": 0
          },
          {
            "number": 64,
            "time": 146.06250000000026,
            "value": 1
          },
          {
            "number": 64,
            "time": 147.87500000000026,
            "value": 0
          },
          {
            "number": 64,
            "time": 148.06250000000026,
            "value": 1
          },
          {
            "number": 64,
            "time": 149.87500000000026,
            "value": 0
          },
          {
            "number": 64,
            "time": 150.0416666666669,
            "value": 1
          },
          {
            "number": 64,
            "time": 150.80208333333366,
            "value": 0
          },
          {
            "number": 64,
            "time": 151.03125000000034,
            "value": 1
          },
          {
            "number": 64,
            "time": 151.8177083333337,
            "value": 0
          },
          {
            "number": 64,
            "time": 152.19791666666708,
            "value": 1
          },
          {
            "number": 64,
            "time": 152.44791666666708,
            "value": 0
          },
          {
            "number": 64,
            "time": 153.1979166666671,
            "value": 1
          },
          {
            "number": 64,
            "time": 153.4479166666671,
            "value": 0
          },
          {
            "number": 64,
            "time": 154.2916666666671,
            "value": 1
          },
          {
            "number": 64,
            "time": 155.7291666666671,
            "value": 0
          },
          {
            "number": 64,
            "time": 156.16145833333377,
            "value": 1
          },
          {
            "number": 64,
            "time": 157.82291666666714,
            "value": 0
          },
          {
            "number": 64,
            "time": 158.67708333333383,
            "value": 1
          },
          {
            "number": 64,
            "time": 158.84375000000048,
            "value": 0
          },
          {
            "number": 64,
            "time": 159.14583333333383,
            "value": 1
          },
          {
            "number": 64,
            "time": 159.98958333333385,
            "value": 0
          },
          {
            "number": 64,
            "time": 160.2187500000005,
            "value": 1
          },
          {
            "number": 64,
            "time": 161.84895833333394,
            "value": 0
          },
          {
            "number": 64,
            "time": 162.08854166666725,
            "value": 1
          },
          {
            "number": 64,
            "time": 163.82291666666725,
            "value": 0
          },
          {
            "number": 64,
            "time": 164.1250000000006,
            "value": 1
          },
          {
            "number": 64,
            "time": 165.7864583333339,
            "value": 0
          },
          {
            "number": 64,
            "time": 166.0000000000006,
            "value": 1
          },
          {
            "number": 64,
            "time": 166.97395833333388,
            "value": 0
          },
          {
            "number": 64,
            "time": 167.04166666666723,
            "value": 1
          },
          {
            "number": 64,
            "time": 167.77604166666725,
            "value": 0
          },
          {
            "number": 64,
            "time": 168.00000000000057,
            "value": 1
          },
          {
            "number": 64,
            "time": 168.97395833333385,
            "value": 0
          },
          {
            "number": 64,
            "time": 169.1979166666672,
            "value": 1
          },
          {
            "number": 64,
            "time": 169.4479166666672,
            "value": 0
          },
          {
            "number": 64,
            "time": 170.04687500000054,
            "value": 1
          },
          {
            "number": 64,
            "time": 171.85416666666723,
            "value": 0
          },
          {
            "number": 64,
            "time": 172.16145833333385,
            "value": 1
          },
          {
            "number": 64,
            "time": 173.82291666666723,
            "value": 0
          },
          {
            "number": 64,
            "time": 174.6770833333339,
            "value": 1
          },
          {
            "number": 64,
            "time": 174.84375000000057,
            "value": 0
          },
          {
            "number": 64,
            "time": 175.1458333333339,
            "value": 1
          },
          {
            "number": 64,
            "time": 175.98958333333394,
            "value": 0
          },
          {
            "number": 64,
            "time": 176.2187500000006,
            "value": 1
          },
          {
            "number": 64,
            "time": 177.84895833333402,
            "value": 0
          },
          {
            "number": 64,
            "time": 178.08854166666734,
            "value": 1
          },
          {
            "number": 64,
            "time": 179.82291666666734,
            "value": 0
          },
          {
            "number": 64,
            "time": 180.161458333334,
            "value": 1
          },
          {
            "number": 64,
            "time": 181.82291666666734,
            "value": 0
          },
          {
            "number": 64,
            "time": 182.03125000000068,
            "value": 1
          },
          {
            "number": 64,
            "time": 182.81770833333402,
            "value": 0
          },
          {
            "number": 64,
            "time": 183.0312500000007,
            "value": 1
          },
          {
            "number": 64,
            "time": 183.81770833333405,
            "value": 0
          },
          {
            "number": 64,
            "time": 184.19791666666742,
            "value": 1
          },
          {
            "number": 64,
            "time": 184.44791666666742,
            "value": 0
          },
          {
            "number": 64,
            "time": 185.00000000000077,
            "value": 1
          },
          {
            "number": 64,
            "time": 185.97395833333408,
            "value": 0
          },
          {
            "number": 64,
            "time": 186.0885416666674,
            "value": 1
          },
          {
            "number": 64,
            "time": 187.8229166666674,
            "value": 0
          },
          {
            "number": 64,
            "time": 188.16145833333405,
            "value": 1
          },
          {
            "number": 64,
            "time": 189.82291666666742,
            "value": 0
          },
          {
            "number": 64,
            "time": 190.78645833333408,
            "value": 1
          },
          {
            "number": 64,
            "time": 191.84375000000077,
            "value": 0
          },
          {
            "number": 64,
            "time": 192.02083333333408,
            "value": 1
          },
          {
            "number": 64,
            "time": 193.68750000000077,
            "value": 0
          },
          {
            "number": 64,
            "time": 194.08854166666745,
            "value": 1
          },
          {
            "number": 64,
            "time": 195.82291666666745,
            "value": 0
          },
          {
            "number": 64,
            "time": 196.1614583333341,
            "value": 1
          },
          {
            "number": 64,
            "time": 197.82291666666745,
            "value": 0
          },
          {
            "number": 64,
            "time": 198.0000000000008,
            "value": 1
          },
          {
            "number": 64,
            "time": 198.97395833333408,
            "value": 0
          },
          {
            "number": 64,
            "time": 199.0416666666674,
            "value": 1
          },
          {
            "number": 64,
            "time": 199.80208333333414,
            "value": 0
          },
          {
            "number": 64,
            "time": 200.04166666666748,
            "value": 1
          },
          {
            "number": 64,
            "time": 200.80208333333422,
            "value": 0
          },
          {
            "number": 64,
            "time": 201.0000000000009,
            "value": 1
          },
          {
            "number": 64,
            "time": 201.97395833333422,
            "value": 0
          },
          {
            "number": 64,
            "time": 202.04687500000088,
            "value": 1
          },
          {
            "number": 64,
            "time": 203.85416666666757,
            "value": 0
          },
          {
            "number": 64,
            "time": 204.08854166666754,
            "value": 1
          },
          {
            "number": 64,
            "time": 205.82291666666754,
            "value": 0
          },
          {
            "number": 64,
            "time": 206.67708333333422,
            "value": 1
          },
          {
            "number": 64,
            "time": 206.84375000000088,
            "value": 0
          },
          {
            "number": 64,
            "time": 207.14583333333422,
            "value": 1
          },
          {
            "number": 64,
            "time": 207.98958333333425,
            "value": 0
          },
          {
            "number": 64,
            "time": 208.2187500000009,
            "value": 1
          },
          {
            "number": 64,
            "time": 209.84895833333434,
            "value": 0
          },
          {
            "number": 64,
            "time": 210.29166666666768,
            "value": 1
          },
          {
            "number": 64,
            "time": 211.72916666666768,
            "value": 0
          },
          {
            "number": 64,
            "time": 212.08854166666765,
            "value": 1
          },
          {
            "number": 64,
            "time": 213.82291666666765,
            "value": 0
          },
          {
            "number": 64,
            "time": 214.04166666666762,
            "value": 1
          },
          {
            "number": 64,
            "time": 214.80208333333437,
            "value": 0
          },
          {
            "number": 64,
            "time": 215.03125000000105,
            "value": 1
          },
          {
            "number": 64,
            "time": 215.81770833333442,
            "value": 0
          },
          {
            "number": 64,
            "time": 216.1979166666678,
            "value": 1
          },
          {
            "number": 64,
            "time": 216.4479166666678,
            "value": 0
          },
          {
            "number": 64,
            "time": 217.0416666666678,
            "value": 1
          },
          {
            "number": 64,
            "time": 217.80208333333454,
            "value": 0
          },
          {
            "number": 64,
            "time": 218.12500000000125,
            "value": 1
          },
          {
            "number": 64,
            "time": 219.78645833333456,
            "value": 0
          },
          {
            "number": 64,
            "time": 220.12500000000125,
            "value": 1
          },
          {
            "number": 64,
            "time": 221.78645833333456,
            "value": 0
          },
          {
            "number": 64,
            "time": 222.78645833333456,
            "value": 1
          },
          {
            "number": 64,
            "time": 223.84375000000125,
            "value": 0
          },
          {
            "number": 64,
            "time": 224.02083333333456,
            "value": 1
          },
          {
            "number": 64,
            "time": 225.68750000000125,
            "value": 0
          },
          {
            "number": 64,
            "time": 226.1250000000013,
            "value": 1
          },
          {
            "number": 64,
            "time": 227.78645833333462,
            "value": 0
          },
          {
            "number": 64,
            "time": 228.04687500000128,
            "value": 1
          },
          {
            "number": 64,
            "time": 229.85416666666796,
            "value": 0
          },
          {
            "number": 64,
            "time": 230.19791666666796,
            "value": 1
          },
          {
            "number": 64,
            "time": 230.44791666666796,
            "value": 0
          },
          {
            "number": 64,
            "time": 231.0312500000013,
            "value": 1
          },
          {
            "number": 64,
            "time": 231.81770833333465,
            "value": 0
          },
          {
            "number": 64,
            "time": 232.041666666668,
            "value": 1
          },
          {
            "number": 64,
            "time": 232.80208333333474,
            "value": 0
          },
          {
            "number": 64,
            "time": 233.04166666666808,
            "value": 1
          },
          {
            "number": 64,
            "time": 233.80208333333482,
            "value": 0
          },
          {
            "number": 64,
            "time": 234.0468750000015,
            "value": 1
          },
          {
            "number": 64,
            "time": 235.8541666666682,
            "value": 0
          },
          {
            "number": 64,
            "time": 236.0156250000015,
            "value": 1
          },
          {
            "number": 64,
            "time": 237.78125000000148,
            "value": 0
          },
          {
            "number": 64,
            "time": 238.7864583333348,
            "value": 1
          },
          {
            "number": 64,
            "time": 239.84375000000148,
            "value": 0
          },
          {
            "number": 64,
            "time": 240.0208333333348,
            "value": 1
          },
          {
            "number": 64,
            "time": 241.68750000000148,
            "value": 0
          },
          {
            "number": 64,
            "time": 242.12500000000153,
            "value": 1
          },
          {
            "number": 64,
            "time": 243.78645833333485,
            "value": 0
          },
          {
            "number": 64,
            "time": 244.08854166666816,
            "value": 1
          },
          {
            "number": 64,
            "time": 245.82291666666816,
            "value": 0
          },
          {
            "number": 64,
            "time": 246.7864583333348,
            "value": 1
          },
          {
            "number": 64,
            "time": 247.84375000000148,
            "value": 0
          },
          {
            "number": 64,
            "time": 248.0208333333348,
            "value": 1
          },
          {
            "number": 64,
            "time": 249.68750000000148,
            "value": 0
          },
          {
            "number": 64,
            "time": 250.12500000000153,
            "value": 1
          },
          {
            "number": 64,
            "time": 251.78645833333485,
            "value": 0
          },
          {
            "number": 64,
            "time": 252.0156250000015,
            "value": 1
          },
          {
            "number": 64,
            "time": 253.78125000000148,
            "value": 0
          },
          {
            "number": 64,
            "time": 254.03125000000148,
            "value": 1
          },
          {
            "number": 64,
            "time": 254.81770833333482,
            "value": 0
          },
          {
            "number": 64,
            "time": 255.0000000000015,
            "value": 1
          },
          {
            "number": 64,
            "time": 255.97395833333482,
            "value": 0
          },
          {
            "number": 64,
            "time": 256.0000000000015,
            "value": 1
          },
          {
            "number": 64,
            "time": 256.9739583333349,
            "value": 0
          },
          {
            "number": 64,
            "time": 257.0312500000016,
            "value": 1
          },
          {
            "number": 64,
            "time": 257.81770833333485,
            "value": 0
          },
          {
            "number": 64,
            "time": 258.08854166666816,
            "value": 1
          },
          {
            "number": 64,
            "time": 259.82291666666816,
            "value": 0
          },
          {
            "number": 64,
            "time": 260.2083333333348,
            "value": 1
          },
          {
            "number": 64,
            "time": 261.9687500000015,
            "value": 0
          },
          {
            "number": 64,
            "time": 262.16145833333485,
            "value": 1
          },
          {
            "number": 64,
            "time": 263.8229166666681,
            "value": 0
          },
          {
            "number": 64,
            "time": 264.2916666666681,
            "value": 1
          },
          {
            "number": 64,
            "time": 265.7291666666681,
            "value": 0
          },
          {
            "number": 64,
            "time": 266.78645833333485,
            "value": 1
          },
          {
            "number": 64,
            "time": 267.8437500000015,
            "value": 0
          },
          {
            "number": 64,
            "time": 268.1250000000014,
            "value": 1
          },
          {
            "number": 64,
            "time": 269.7864583333348,
            "value": 0
          },
          {
            "number": 64,
            "time": 270.0156250000015,
            "value": 1
          },
          {
            "number": 64,
            "time": 271.78125000000153,
            "value": 0
          },
          {
            "number": 64,
            "time": 272.6770833333348,
            "value": 1
          },
          {
            "number": 64,
            "time": 272.8437500000015,
            "value": 0
          },
          {
            "number": 64,
            "time": 273.1458333333348,
            "value": 1
          },
          {
            "number": 64,
            "time": 273.98958333333474,
            "value": 0
          },
          {
            "number": 64,
            "time": 274.2187500000014,
            "value": 1
          },
          {
            "number": 64,
            "time": 275.84895833333456,
            "value": 0
          },
          {
            "number": 64,
            "time": 276.2916666666679,
            "value": 1
          },
          {
            "number": 64,
            "time": 277.7291666666679,
            "value": 0
          },
          {
            "number": 64,
            "time": 278.2916666666679,
            "value": 1
          },
          {
            "number": 64,
            "time": 279.7291666666679,
            "value": 0
          },
          {
            "number": 64,
            "time": 280.6770833333345,
            "value": 1
          },
          {
            "number": 64,
            "time": 280.8437500000012,
            "value": 0
          },
          {
            "number": 64,
            "time": 281.1458333333345,
            "value": 1
          },
          {
            "number": 64,
            "time": 281.98958333333445,
            "value": 0
          },
          {
            "number": 64,
            "time": 282.21875000000114,
            "value": 1
          },
          {
            "number": 64,
            "time": 283.8489583333343,
            "value": 0
          },
          {
            "number": 64,
            "time": 284.1250000000009,
            "value": 1
          },
          {
            "number": 64,
            "time": 285.7864583333343,
            "value": 0
          },
          {
            "number": 64,
            "time": 286.1614583333343,
            "value": 1
          },
          {
            "number": 64,
            "time": 287.82291666666754,
            "value": 0
          },
          {
            "number": 64,
            "time": 288.08854166666754,
            "value": 1
          },
          {
            "number": 64,
            "time": 289.82291666666754,
            "value": 0
          },
          {
            "number": 64,
            "time": 290.20833333333417,
            "value": 1
          },
          {
            "number": 64,
            "time": 291.96875000000085,
            "value": 0
          },
          {
            "number": 64,
            "time": 292.1041666666675,
            "value": 1
          },
          {
            "number": 64,
            "time": 293.8229166666675,
            "value": 0
          },
          {
            "number": 64,
            "time": 294.2916666666675,
            "value": 1
          },
          {
            "number": 64,
            "time": 295.7291666666675,
            "value": 0
          },
          {
            "number": 64,
            "time": 296.01562500000085,
            "value": 1
          },
          {
            "number": 64,
            "time": 297.7812500000009,
            "value": 0
          },
          {
            "number": 64,
            "time": 298.2083333333342,
            "value": 1
          },
          {
            "number": 64,
            "time": 299.9687500000009,
            "value": 0
          },
          {
            "number": 64,
            "time": 300.10416666666754,
            "value": 1
          },
          {
            "number": 64,
            "time": 301.82291666666754,
            "value": 0
          },
          {
            "number": 64,
            "time": 302.12500000000085,
            "value": 1
          },
          {
            "number": 64,
            "time": 303.7864583333342,
            "value": 0
          },
          {
            "number": 64,
            "time": 304.12500000000085,
            "value": 1
          },
          {
            "number": 64,
            "time": 305.7864583333342,
            "value": 0
          },
          {
            "number": 64,
            "time": 306.2083333333341,
            "value": 1
          },
          {
            "number": 64,
            "time": 307.9687500000008,
            "value": 0
          },
          {
            "number": 64,
            "time": 308.1041666666674,
            "value": 1
          },
          {
            "number": 64,
            "time": 309.8229166666674,
            "value": 0
          },
          {
            "number": 64,
            "time": 310.0468750000008,
            "value": 1
          },
          {
            "number": 64,
            "time": 311.8541666666674,
            "value": 0
          },
          {
            "number": 64,
            "time": 312.0468750000008,
            "value": 1
          },
          {
            "number": 64,
            "time": 313.8541666666674,
            "value": 0
          },
          {
            "number": 64,
            "time": 314.67708333333405,
            "value": 1
          },
          {
            "number": 64,
            "time": 314.84375000000074,
            "value": 0
          },
          {
            "number": 64,
            "time": 315.14583333333405,
            "value": 1
          },
          {
            "number": 64,
            "time": 315.989583333334,
            "value": 0
          },
          {
            "number": 64,
            "time": 316.2187500000007,
            "value": 1
          },
          {
            "number": 64,
            "time": 317.8489583333338,
            "value": 0
          },
          {
            "number": 64,
            "time": 318.29166666666714,
            "value": 1
          },
          {
            "number": 64,
            "time": 319.72916666666714,
            "value": 0
          },
          {
            "number": 64,
            "time": 320.0468750000005,
            "value": 1
          },
          {
            "number": 64,
            "time": 321.85416666666714,
            "value": 0
          },
          {
            "number": 64,
            "time": 322.29166666666714,
            "value": 1
          },
          {
            "number": 64,
            "time": 323.72916666666714,
            "value": 0
          },
          {
            "number": 64,
            "time": 324.0885416666672,
            "value": 1
          },
          {
            "number": 64,
            "time": 325.8229166666672,
            "value": 0
          },
          {
            "number": 64,
            "time": 326.2083333333338,
            "value": 1
          },
          {
            "number": 64,
            "time": 327.9687500000005,
            "value": 0
          },
          {
            "number": 64,
            "time": 328.10416666666714,
            "value": 1
          },
          {
            "number": 64,
            "time": 329.82291666666714,
            "value": 0
          },
          {
            "number": 64,
            "time": 330.12500000000045,
            "value": 1
          },
          {
            "number": 64,
            "time": 331.7864583333338,
            "value": 0
          },
          {
            "number": 64,
            "time": 332.12500000000045,
            "value": 1
          },
          {
            "number": 64,
            "time": 333.7864583333338,
            "value": 0
          },
          {
            "number": 64,
            "time": 334.2083333333337,
            "value": 1
          },
          {
            "number": 64,
            "time": 335.9687500000004,
            "value": 0
          },
          {
            "number": 64,
            "time": 336.104166666667,
            "value": 1
          },
          {
            "number": 64,
            "time": 337.822916666667,
            "value": 0
          },
          {
            "number": 64,
            "time": 338.0468750000004,
            "value": 1
          },
          {
            "number": 64,
            "time": 339.854166666667,
            "value": 0
          },
          {
            "number": 64,
            "time": 340.0468750000004,
            "value": 1
          },
          {
            "number": 64,
            "time": 341.854166666667,
            "value": 0
          },
          {
            "number": 64,
            "time": 342.67708333333366,
            "value": 1
          },
          {
            "number": 64,
            "time": 342.84375000000034,
            "value": 0
          },
          {
            "number": 64,
            "time": 343.14583333333366,
            "value": 1
          },
          {
            "number": 64,
            "time": 343.9895833333336,
            "value": 0
          },
          {
            "number": 64,
            "time": 344.2187500000003,
            "value": 1
          },
          {
            "number": 64,
            "time": 345.8489583333334,
            "value": 0
          },
          {
            "number": 64,
            "time": 346.29166666666674,
            "value": 1
          },
          {
            "number": 64,
            "time": 347.72916666666674,
            "value": 0
          },
          {
            "number": 64,
            "time": 348.0468750000001,
            "value": 1
          },
          {
            "number": 64,
            "time": 349.85416666666674,
            "value": 0
          },
          {
            "number": 64,
            "time": 350.29166666666674,
            "value": 1
          },
          {
            "number": 64,
            "time": 351.72916666666674,
            "value": 0
          },
          {
            "number": 64,
            "time": 352.0885416666668,
            "value": 1
          },
          {
            "number": 64,
            "time": 353.8229166666668,
            "value": 0
          },
          {
            "number": 64,
            "time": 354.2083333333334,
            "value": 1
          },
          {
            "number": 64,
            "time": 355.9687500000001,
            "value": 0
          },
          {
            "number": 64,
            "time": 356.10416666666674,
            "value": 1
          },
          {
            "number": 64,
            "time": 357.82291666666674,
            "value": 0
          },
          {
            "number": 64,
            "time": 358.12500000000006,
            "value": 1
          },
          {
            "number": 64,
            "time": 359.7864583333334,
            "value": 0
          },
          {
            "number": 64,
            "time": 360.12500000000006,
            "value": 1
          },
          {
            "number": 64,
            "time": 361.7864583333334,
            "value": 0
          },
          {
            "number": 64,
            "time": 362.2083333333333,
            "value": 1
          },
          {
            "number": 64,
            "time": 363.96875,
            "value": 0
          },
          {
            "number": 64,
            "time": 364.10416666666663,
            "value": 1
          },
          {
            "number": 64,
            "time": 365.82291666666663,
            "value": 0
          },
          {
            "number": 64,
            "time": 366.046875,
            "value": 1
          },
          {
            "number": 64,
            "time": 367.8541666666666,
            "value": 0
          },
          {
            "number": 64,
            "time": 368.04687499999994,
            "value": 1
          },
          {
            "number": 64,
            "time": 369.8541666666666,
            "value": 0
          },
          {
            "number": 64,
            "time": 370.6770833333332,
            "value": 1
          },
          {
            "number": 64,
            "time": 370.8437499999999,
            "value": 0
          },
          {
            "number": 64,
            "time": 371.1458333333332,
            "value": 1
          },
          {
            "number": 64,
            "time": 371.98958333333314,
            "value": 0
          },
          {
            "number": 64,
            "time": 372.21874999999983,
            "value": 1
          },
          {
            "number": 64,
            "time": 373.848958333333,
            "value": 0
          },
          {
            "number": 64,
            "time": 374.2916666666663,
            "value": 1
          },
          {
            "number": 64,
            "time": 375.7291666666663,
            "value": 0
          },
          {
            "number": 64,
            "time": 376.04687499999966,
            "value": 1
          },
          {
            "number": 64,
            "time": 377.8541666666663,
            "value": 0
          },
          {
            "number": 64,
            "time": 378.2916666666663,
            "value": 1
          },
          {
            "number": 64,
            "time": 379.7291666666663,
            "value": 0
          },
          {
            "number": 64,
            "time": 380.08854166666634,
            "value": 1
          },
          {
            "number": 64,
            "time": 381.82291666666634,
            "value": 0
          },
          {
            "number": 64,
            "time": 382.12499999999966,
            "value": 1
          },
          {
            "number": 64,
            "time": 383.78645833333303,
            "value": 0
          },
          {
            "number": 64,
            "time": 384.12499999999966,
            "value": 1
          },
          {
            "number": 64,
            "time": 385.78645833333303,
            "value": 0
          },
          {
            "number": 64,
            "time": 386.2083333333329,
            "value": 1
          },
          {
            "number": 64,
            "time": 387.9687499999996,
            "value": 0
          },
          {
            "number": 64,
            "time": 388.10416666666623,
            "value": 1
          },
          {
            "number": 64,
            "time": 389.82291666666623,
            "value": 0
          },
          {
            "number": 64,
            "time": 390.0468749999996,
            "value": 1
          },
          {
            "number": 64,
            "time": 391.85416666666623,
            "value": 0
          },
          {
            "number": 64,
            "time": 392.0468749999996,
            "value": 1
          },
          {
            "number": 64,
            "time": 393.85416666666623,
            "value": 0
          },
          {
            "number": 64,
            "time": 394.67708333333286,
            "value": 1
          },
          {
            "number": 64,
            "time": 394.84374999999955,
            "value": 0
          },
          {
            "number": 64,
            "time": 395.14583333333286,
            "value": 1
          },
          {
            "number": 64,
            "time": 395.9895833333328,
            "value": 0
          },
          {
            "number": 64,
            "time": 396.2187499999995,
            "value": 1
          },
          {
            "number": 64,
            "time": 397.84895833333263,
            "value": 0
          },
          {
            "number": 64,
            "time": 398.29166666666595,
            "value": 1
          },
          {
            "number": 64,
            "time": 399.72916666666595,
            "value": 0
          },
          {
            "number": 64,
            "time": 400.0468749999993,
            "value": 1
          },
          {
            "number": 64,
            "time": 401.85416666666595,
            "value": 0
          },
          {
            "number": 64,
            "time": 402.29166666666595,
            "value": 1
          },
          {
            "number": 64,
            "time": 403.72916666666595,
            "value": 0
          },
          {
            "number": 64,
            "time": 404.088541666666,
            "value": 1
          },
          {
            "number": 64,
            "time": 405.822916666666,
            "value": 0
          },
          {
            "number": 64,
            "time": 406.20833333333263,
            "value": 1
          },
          {
            "number": 64,
            "time": 407.9687499999993,
            "value": 0
          },
          {
            "number": 64,
            "time": 408.10416666666595,
            "value": 1
          },
          {
            "number": 64,
            "time": 409.82291666666595,
            "value": 0
          },
          {
            "number": 64,
            "time": 410.12499999999926,
            "value": 1
          },
          {
            "number": 64,
            "time": 411.78645833333263,
            "value": 0
          },
          {
            "number": 64,
            "time": 412.12499999999926,
            "value": 1
          },
          {
            "number": 64,
            "time": 413.78645833333263,
            "value": 0
          },
          {
            "number": 64,
            "time": 414.2083333333325,
            "value": 1
          },
          {
            "number": 64,
            "time": 415.9687499999992,
            "value": 0
          },
          {
            "number": 64,
            "time": 416.10416666666583,
            "value": 1
          },
          {
            "number": 64,
            "time": 417.82291666666583,
            "value": 0
          },
          {
            "number": 64,
            "time": 418.0468749999992,
            "value": 1
          },
          {
            "number": 64,
            "time": 419.85416666666583,
            "value": 0
          },
          {
            "number": 64,
            "time": 420.0468749999992,
            "value": 1
          },
          {
            "number": 64,
            "time": 421.85416666666583,
            "value": 0
          },
          {
            "number": 64,
            "time": 422.67708333333246,
            "value": 1
          },
          {
            "number": 64,
            "time": 422.84374999999915,
            "value": 0
          },
          {
            "number": 64,
            "time": 423.14583333333246,
            "value": 1
          },
          {
            "number": 64,
            "time": 423.9895833333324,
            "value": 0
          },
          {
            "number": 64,
            "time": 424.2187499999991,
            "value": 1
          },
          {
            "number": 64,
            "time": 425.84895833333223,
            "value": 0
          },
          {
            "number": 64,
            "time": 426.29166666666555,
            "value": 1
          },
          {
            "number": 64,
            "time": 427.72916666666555,
            "value": 0
          },
          {
            "number": 64,
            "time": 428.0468749999989,
            "value": 1
          },
          {
            "number": 64,
            "time": 429.85416666666555,
            "value": 0
          },
          {
            "number": 64,
            "time": 430.29166666666555,
            "value": 1
          },
          {
            "number": 64,
            "time": 431.72916666666555,
            "value": 0
          },
          {
            "number": 64,
            "time": 432.0885416666656,
            "value": 1
          },
          {
            "number": 64,
            "time": 433.8229166666656,
            "value": 0
          },
          {
            "number": 64,
            "time": 434.20833333333223,
            "value": 1
          },
          {
            "number": 64,
            "time": 435.9687499999989,
            "value": 0
          },
          {
            "number": 64,
            "time": 436.10416666666555,
            "value": 1
          },
          {
            "number": 64,
            "time": 437.82291666666555,
            "value": 0
          },
          {
            "number": 64,
            "time": 438.12499999999886,
            "value": 1
          },
          {
            "number": 64,
            "time": 439.78645833333223,
            "value": 0
          },
          {
            "number": 64,
            "time": 440.12499999999886,
            "value": 1
          },
          {
            "number": 64,
            "time": 441.78645833333223,
            "value": 0
          },
          {
            "number": 64,
            "time": 442.2083333333321,
            "value": 1
          },
          {
            "number": 64,
            "time": 443.9687499999988,
            "value": 0
          },
          {
            "number": 64,
            "time": 444.10416666666544,
            "value": 1
          },
          {
            "number": 64,
            "time": 445.82291666666544,
            "value": 0
          },
          {
            "number": 64,
            "time": 446.0468749999988,
            "value": 1
          },
          {
            "number": 64,
            "time": 447.85416666666544,
            "value": 0
          },
          {
            "number": 64,
            "time": 448.0468749999988,
            "value": 1
          },
          {
            "number": 64,
            "time": 449.85416666666544,
            "value": 0
          },
          {
            "number": 64,
            "time": 450.67708333333206,
            "value": 1
          },
          {
            "number": 64,
            "time": 450.84374999999875,
            "value": 0
          },
          {
            "number": 64,
            "time": 451.14583333333206,
            "value": 1
          },
          {
            "number": 64,
            "time": 451.989583333332,
            "value": 0
          },
          {
            "number": 64,
            "time": 452.2187499999987,
            "value": 1
          },
          {
            "number": 64,
            "time": 453.84895833333184,
            "value": 0
          },
          {
            "number": 64,
            "time": 454.29166666666515,
            "value": 1
          },
          {
            "number": 64,
            "time": 455.72916666666515,
            "value": 0
          },
          {
            "number": 64,
            "time": 456.0468749999985,
            "value": 1
          },
          {
            "number": 64,
            "time": 457.85416666666515,
            "value": 0
          },
          {
            "number": 64,
            "time": 458.29166666666515,
            "value": 1
          },
          {
            "number": 64,
            "time": 459.72916666666515,
            "value": 0
          },
          {
            "number": 64,
            "time": 460.0885416666652,
            "value": 1
          },
          {
            "number": 64,
            "time": 461.8229166666652,
            "value": 0
          }
        ]
      },
      "id": 2,
      "instrumentNumber": 0,
      "instrument": "acoustic grand piano",
      "instrumentFamily": "piano",
      "channelNumber": 0,
      "isPercussion": false
    },
    {
      "startTime": 51,
      "duration": 137.2968750000012,
      "length": 115,
      "notes": [
        {
          "name": "B4",
          "midi": 71,
          "time": 51,
          "velocity": 0.8346456692913385,
          "duration": 0.2916666666666714
        },
        {
          "name": "D5",
          "midi": 74,
          "time": 51.255208333333336,
          "velocity": 0.8346456692913385,
          "duration": 0.421875
        },
        {
          "name": "B4",
          "midi": 71,
          "time": 51.739583333333336,
          "velocity": 0.8503937007874016,
          "duration": 0.7916666666666643
        },
        {
          "name": "A4",
          "midi": 69,
          "time": 52.5,
          "velocity": 0.7874015748031497,
          "duration": 0.3541666666666643
        },
        {
          "name": "A4",
          "midi": 69,
          "time": 52.98958333333333,
          "velocity": 0.8346456692913385,
          "duration": 0.4947916666666643
        },
        {
          "name": "B4",
          "midi": 71,
          "time": 53.49479166666666,
          "velocity": 0.8346456692913385,
          "duration": 0.234375
        },
        {
          "name": "A4",
          "midi": 69,
          "time": 53.73958333333332,
          "velocity": 0.8503937007874016,
          "duration": 1.3020833333333357
        },
        {
          "name": "G4",
          "midi": 67,
          "time": 54.97916666666666,
          "velocity": 0.8503937007874016,
          "duration": 2.9166666666666643
        },
        {
          "name": "A4",
          "midi": 69,
          "time": 58.984374999999986,
          "velocity": 0.8031496062992126,
          "duration": 0.1614583333333357
        },
        {
          "name": "A4",
          "midi": 69,
          "time": 59.234374999999986,
          "velocity": 0.7874015748031497,
          "duration": 0.5208333333333357
        },
        {
          "name": "G4",
          "midi": 67,
          "time": 59.749999999999986,
          "velocity": 0.905511811023622,
          "duration": 0.6666666666666714
        },
        {
          "name": "G4",
          "midi": 67,
          "time": 60.50520833333332,
          "velocity": 0.8031496062992126,
          "duration": 0.171875
        },
        {
          "name": "G4",
          "midi": 67,
          "time": 60.765624999999986,
          "velocity": 0.8110236220472441,
          "duration": 0.5260416666666643
        },
        {
          "name": "E4",
          "midi": 64,
          "time": 61.24479166666665,
          "velocity": 0.7637795275590551,
          "duration": 0.2135416666666643
        },
        {
          "name": "C4",
          "midi": 60,
          "time": 61.49479166666665,
          "velocity": 0.7322834645669292,
          "duration": 0.4583333333333357
        },
        {
          "name": "D4",
          "midi": 62,
          "time": 61.999999999999986,
          "velocity": 0.8346456692913385,
          "duration": 3.135416666666586
        },
        {
          "name": "B4",
          "midi": 71,
          "time": 66.9687499999999,
          "velocity": 0.8031496062992126,
          "duration": 0.3020833333333286
        },
        {
          "name": "D5",
          "midi": 74,
          "time": 67.23958333333323,
          "velocity": 0.8267716535433071,
          "duration": 0.4375
        },
        {
          "name": "B4",
          "midi": 71,
          "time": 67.7343749999999,
          "velocity": 0.8740157480314961,
          "duration": 0.7760416666666714
        },
        {
          "name": "A4",
          "midi": 69,
          "time": 68.52083333333324,
          "velocity": 0.7795275590551181,
          "duration": 0.2864583333333286
        },
        {
          "name": "A4",
          "midi": 69,
          "time": 69.0156249999999,
          "velocity": 0.8110236220472441,
          "duration": 0.46875
        },
        {
          "name": "B4",
          "midi": 71,
          "time": 69.48958333333323,
          "velocity": 0.8110236220472441,
          "duration": 0.21875
        },
        {
          "name": "A4",
          "midi": 69,
          "time": 69.74479166666656,
          "velocity": 0.8503937007874016,
          "duration": 1.046875
        },
        {
          "name": "G4",
          "midi": 67,
          "time": 70.74479166666656,
          "velocity": 0.8031496062992126,
          "duration": 0.1458333333333286
        },
        {
          "name": "G4",
          "midi": 67,
          "time": 71.01041666666656,
          "velocity": 0.8031496062992126,
          "duration": 3.515625
        },
        {
          "name": "A4",
          "midi": 69,
          "time": 74.48437499999989,
          "velocity": 0.7244094488188977,
          "duration": 0.21875
        },
        {
          "name": "A4",
          "midi": 69,
          "time": 74.75520833333321,
          "velocity": 0.7322834645669292,
          "duration": 0.1666666666666714
        },
        {
          "name": "A4",
          "midi": 69,
          "time": 74.99479166666656,
          "velocity": 0.7322834645669292,
          "duration": 0.1666666666666714
        },
        {
          "name": "A4",
          "midi": 69,
          "time": 75.22916666666656,
          "velocity": 0.6692913385826772,
          "duration": 0.1510416666666714
        },
        {
          "name": "A4",
          "midi": 69,
          "time": 75.47916666666656,
          "velocity": 0.7874015748031497,
          "duration": 0.2395833333333286
        },
        {
          "name": "G4",
          "midi": 67,
          "time": 75.71354166666656,
          "velocity": 0.8110236220472441,
          "duration": 0.640625
        },
        {
          "name": "G4",
          "midi": 67,
          "time": 76.44791666666656,
          "velocity": 0.7401574803149606,
          "duration": 0.1354166666666714
        },
        {
          "name": "G4",
          "midi": 67,
          "time": 76.7031249999999,
          "velocity": 0.7559055118110236,
          "duration": 0.5572916666666714
        },
        {
          "name": "E4",
          "midi": 64,
          "time": 77.21354166666657,
          "velocity": 0.7244094488188977,
          "duration": 0.2395833333333286
        },
        {
          "name": "C4",
          "midi": 60,
          "time": 77.46354166666657,
          "velocity": 0.7795275590551181,
          "duration": 0.4375
        },
        {
          "name": "D4",
          "midi": 62,
          "time": 77.9843749999999,
          "velocity": 0.8503937007874016,
          "duration": 3.6197916666669983
        },
        {
          "name": "A4",
          "midi": 69,
          "time": 83.00000000000023,
          "velocity": 0.7874015748031497,
          "duration": 0.2135416666666714
        },
        {
          "name": "D5",
          "midi": 74,
          "time": 83.29687500000023,
          "velocity": 0.8582677165354331,
          "duration": 0.4010416666666714
        },
        {
          "name": "B4",
          "midi": 71,
          "time": 83.78645833333357,
          "velocity": 0.9212598425196851,
          "duration": 0.6822916666666714
        },
        {
          "name": "A4",
          "midi": 69,
          "time": 84.49479166666691,
          "velocity": 0.7401574803149606,
          "duration": 0.3072916666666714
        },
        {
          "name": "A4",
          "midi": 69,
          "time": 84.96875000000026,
          "velocity": 0.8503937007874016,
          "duration": 0.484375
        },
        {
          "name": "B4",
          "midi": 71,
          "time": 85.46354166666693,
          "velocity": 0.8346456692913385,
          "duration": 0.25
        },
        {
          "name": "A4",
          "midi": 69,
          "time": 85.7239583333336,
          "velocity": 0.8582677165354331,
          "duration": 1.2552083333333286
        },
        {
          "name": "G4",
          "midi": 67,
          "time": 87.03125000000026,
          "velocity": 0.8582677165354331,
          "duration": 2.96875
        },
        {
          "name": "B4",
          "midi": 71,
          "time": 90.46875000000026,
          "velocity": 0.7322834645669292,
          "duration": 0.1458333333333286
        },
        {
          "name": "C5",
          "midi": 72,
          "time": 90.62500000000026,
          "velocity": 0.7874015748031497,
          "duration": 0.0833333333333286
        },
        {
          "name": "C5",
          "midi": 72,
          "time": 91.01562500000026,
          "velocity": 0.8582677165354331,
          "duration": 0.1770833333333286
        },
        {
          "name": "C5",
          "midi": 72,
          "time": 91.25000000000026,
          "velocity": 0.7795275590551181,
          "duration": 0.140625
        },
        {
          "name": "C5",
          "midi": 72,
          "time": 91.49479166666693,
          "velocity": 0.8110236220472441,
          "duration": 0.140625
        },
        {
          "name": "C5",
          "midi": 72,
          "time": 91.75000000000026,
          "velocity": 0.8740157480314961,
          "duration": 0.6354166666666714
        },
        {
          "name": "C5",
          "midi": 72,
          "time": 92.49479166666693,
          "velocity": 0.8582677165354331,
          "duration": 0.1458333333333286
        },
        {
          "name": "C5",
          "midi": 72,
          "time": 92.77604166666693,
          "velocity": 0.8976377952755905,
          "duration": 0.46875
        },
        {
          "name": "B4",
          "midi": 71,
          "time": 93.2395833333336,
          "velocity": 0.8818897637795275,
          "duration": 0.2083333333333286
        },
        {
          "name": "C5",
          "midi": 72,
          "time": 93.47916666666693,
          "velocity": 0.8818897637795275,
          "duration": 0.4427083333333286
        },
        {
          "name": "D5",
          "midi": 74,
          "time": 93.98437500000026,
          "velocity": 0.8740157480314961,
          "duration": 3.4166666666670267
        },
        {
          "name": "D5",
          "midi": 74,
          "time": 97.51562500000061,
          "velocity": 0.8503937007874016,
          "duration": 0.4583333333333428
        },
        {
          "name": "C5",
          "midi": 72,
          "time": 97.52604166666728,
          "velocity": 0.7795275590551181,
          "duration": 0.140625
        },
        {
          "name": "C5",
          "midi": 72,
          "time": 98.23437500000063,
          "velocity": 0.8267716535433071,
          "duration": 0.6354166666666714
        },
        {
          "name": "C5",
          "midi": 72,
          "time": 98.98437500000063,
          "velocity": 0.8818897637795275,
          "duration": 0.4114583333333286
        },
        {
          "name": "C5",
          "midi": 72,
          "time": 99.46354166666728,
          "velocity": 0.8110236220472441,
          "duration": 0.21875
        },
        {
          "name": "D5",
          "midi": 74,
          "time": 99.73437500000061,
          "velocity": 0.905511811023622,
          "duration": 0.6666666666666714
        },
        {
          "name": "D5",
          "midi": 74,
          "time": 100.50520833333395,
          "velocity": 0.8976377952755905,
          "duration": 0.3802083333333286
        },
        {
          "name": "D5",
          "midi": 74,
          "time": 100.98958333333395,
          "velocity": 0.8582677165354331,
          "duration": 0.2708333333333428
        },
        {
          "name": "C5",
          "midi": 72,
          "time": 101.23437500000063,
          "velocity": 0.7086614173228346,
          "duration": 0.2447916666666714
        },
        {
          "name": "A4",
          "midi": 69,
          "time": 101.4947916666673,
          "velocity": 0.7874015748031497,
          "duration": 0.2760416666666714
        },
        {
          "name": "D5",
          "midi": 74,
          "time": 101.7604166666673,
          "velocity": 0.8346456692913385,
          "duration": 3.760416666666842
        },
        {
          "name": "B4",
          "midi": 71,
          "time": 107.26041666666747,
          "velocity": 0.8582677165354331,
          "duration": 0.421875
        },
        {
          "name": "D5",
          "midi": 74,
          "time": 107.68229166666747,
          "velocity": 0.7322834645669292,
          "duration": 0.2604166666666714
        },
        {
          "name": "B4",
          "midi": 71,
          "time": 107.96875000000081,
          "velocity": 0.8267716535433071,
          "duration": 0.7395833333333286
        },
        {
          "name": "A4",
          "midi": 69,
          "time": 108.72395833333414,
          "velocity": 0.7559055118110236,
          "duration": 0.1354166666666714
        },
        {
          "name": "A4",
          "midi": 69,
          "time": 108.97395833333414,
          "velocity": 0.8503937007874016,
          "duration": 0.5
        },
        {
          "name": "B4",
          "midi": 71,
          "time": 109.48958333333414,
          "velocity": 0.8031496062992126,
          "duration": 0.1927083333333286
        },
        {
          "name": "A4",
          "midi": 69,
          "time": 109.7500000000008,
          "velocity": 0.905511811023622,
          "duration": 0.9739583333333286
        },
        {
          "name": "G4",
          "midi": 67,
          "time": 110.7343750000008,
          "velocity": 0.8110236220472441,
          "duration": 0.1770833333333286
        },
        {
          "name": "G4",
          "midi": 67,
          "time": 110.9843750000008,
          "velocity": 0.8110236220472441,
          "duration": 3
        },
        {
          "name": "A4",
          "midi": 69,
          "time": 114.98958333333412,
          "velocity": 0.8031496062992126,
          "duration": 0.140625
        },
        {
          "name": "A4",
          "midi": 69,
          "time": 115.23958333333412,
          "velocity": 0.8110236220472441,
          "duration": 0.3697916666666714
        },
        {
          "name": "G4",
          "midi": 67,
          "time": 115.6718750000008,
          "velocity": 0.8110236220472441,
          "duration": 0.7447916666666714
        },
        {
          "name": "G4",
          "midi": 67,
          "time": 116.50520833333414,
          "velocity": 0.7795275590551181,
          "duration": 0.171875
        },
        {
          "name": "G4",
          "midi": 67,
          "time": 116.76562500000081,
          "velocity": 0.8503937007874016,
          "duration": 0.5208333333333428
        },
        {
          "name": "E4",
          "midi": 64,
          "time": 117.24479166666748,
          "velocity": 0.7637795275590551,
          "duration": 0.2239583333333428
        },
        {
          "name": "C4",
          "midi": 60,
          "time": 117.50520833333415,
          "velocity": 0.8503937007874016,
          "duration": 0.4114583333333286
        },
        {
          "name": "D4",
          "midi": 62,
          "time": 118.02083333333415,
          "velocity": 0.937007874015748,
          "duration": 3.8593750000003837
        },
        {
          "name": "B4",
          "midi": 71,
          "time": 122.95833333333454,
          "velocity": 0.8110236220472441,
          "duration": 0.3229166666666572
        },
        {
          "name": "D5",
          "midi": 74,
          "time": 123.23958333333454,
          "velocity": 0.8503937007874016,
          "duration": 0.1145833333333286
        },
        {
          "name": "D5",
          "midi": 74,
          "time": 123.27604166666787,
          "velocity": 0.48031496062992124,
          "duration": 0.3854166666666714
        },
        {
          "name": "B4",
          "midi": 71,
          "time": 123.76041666666787,
          "velocity": 0.937007874015748,
          "duration": 0.7604166666666714
        },
        {
          "name": "A4",
          "midi": 69,
          "time": 124.51041666666787,
          "velocity": 0.7874015748031497,
          "duration": 0.3645833333333428
        },
        {
          "name": "A4",
          "midi": 69,
          "time": 125.02083333333454,
          "velocity": 0.8503937007874016,
          "duration": 0.4635416666666714
        },
        {
          "name": "B4",
          "midi": 71,
          "time": 125.49479166666788,
          "velocity": 0.8346456692913385,
          "duration": 0.2239583333333286
        },
        {
          "name": "A4",
          "midi": 69,
          "time": 125.73958333333454,
          "velocity": 0.8503937007874016,
          "duration": 0.7447916666666572
        },
        {
          "name": "A4",
          "midi": 69,
          "time": 125.97916666666787,
          "velocity": 0.023622047244094488,
          "duration": 0.8229166666666572
        },
        {
          "name": "G4",
          "midi": 67,
          "time": 126.75520833333452,
          "velocity": 0.7874015748031497,
          "duration": 0.1770833333333286
        },
        {
          "name": "G4",
          "midi": 67,
          "time": 127.01562500000118,
          "velocity": 0.8740157480314961,
          "duration": 2.8177083333333286
        },
        {
          "name": "A4",
          "midi": 69,
          "time": 130.50000000000117,
          "velocity": 0.8740157480314961,
          "duration": 0.125
        },
        {
          "name": "A4",
          "midi": 69,
          "time": 130.7552083333345,
          "velocity": 0.8976377952755905,
          "duration": 0.09375
        },
        {
          "name": "A4",
          "midi": 69,
          "time": 130.9895833333345,
          "velocity": 0.8110236220472441,
          "duration": 0.09895833333334281
        },
        {
          "name": "A4",
          "midi": 69,
          "time": 131.2343750000012,
          "velocity": 0.8976377952755905,
          "duration": 0.11458333333334281
        },
        {
          "name": "A4",
          "midi": 69,
          "time": 131.4843750000012,
          "velocity": 0.8818897637795275,
          "duration": 0.25
        },
        {
          "name": "G4",
          "midi": 67,
          "time": 131.75520833333454,
          "velocity": 0.9448818897637795,
          "duration": 0.640625
        },
        {
          "name": "G4",
          "midi": 67,
          "time": 132.47916666666788,
          "velocity": 0.8110236220472441,
          "duration": 0.140625
        },
        {
          "name": "G4",
          "midi": 67,
          "time": 132.74479166666788,
          "velocity": 0.8740157480314961,
          "duration": 0.5
        },
        {
          "name": "E4",
          "midi": 64,
          "time": 133.20833333333454,
          "velocity": 0.7559055118110236,
          "duration": 0.24479166666668561
        },
        {
          "name": "C4",
          "midi": 60,
          "time": 133.46354166666788,
          "velocity": 0.8346456692913385,
          "duration": 0.484375
        },
        {
          "name": "D4",
          "midi": 62,
          "time": 133.97395833333454,
          "velocity": 0.8503937007874016,
          "duration": 0.2916666666666572
        },
        {
          "name": "C#4",
          "midi": 61,
          "time": 134.23958333333454,
          "velocity": 0.8818897637795275,
          "duration": 0.2656249999999716
        },
        {
          "name": "D4",
          "midi": 62,
          "time": 134.47916666666785,
          "velocity": 0.7322834645669292,
          "duration": 0.78125
        },
        {
          "name": "C#4",
          "midi": 61,
          "time": 135.2239583333345,
          "velocity": 0.6456692913385826,
          "duration": 0.2604166666666856
        },
        {
          "name": "D4",
          "midi": 62,
          "time": 135.43229166666785,
          "velocity": 0.2125984251968504,
          "duration": 0.3125
        },
        {
          "name": "C#4",
          "midi": 61,
          "time": 135.7031250000012,
          "velocity": 0.5039370078740157,
          "duration": 0.3177083333333144
        },
        {
          "name": "D4",
          "midi": 62,
          "time": 135.97916666666785,
          "velocity": 0.5511811023622047,
          "duration": 0.3020833333333144
        },
        {
          "name": "C#4",
          "midi": 61,
          "time": 136.2395833333345,
          "velocity": 0.3937007874015748,
          "duration": 0.2916666666666572
        },
        {
          "name": "D4",
          "midi": 62,
          "time": 136.48437500000117,
          "velocity": 0.6062992125984252,
          "duration": 0.28125
        },
        {
          "name": "C#4",
          "midi": 61,
          "time": 136.71875000000117,
          "velocity": 0.4409448818897638,
          "duration": 0.2916666666666856
        },
        {
          "name": "D4",
          "midi": 62,
          "time": 136.9739583333345,
          "velocity": 0.6771653543307087,
          "duration": 0.3229166666666856
        }
      ],
      "controlChanges": {
        "7": [
          {
            "number": 7,
            "time": 0,
            "value": 0.7874015748031497
          }
        ],
        "10": [
          {
            "number": 10,
            "time": 0,
            "value": 0.5039370078740157
          }
        ],
        "32": [
          {
            "number": 32,
            "time": 0,
            "value": 0
          }
        ]
      },
      "id": 3,
      "instrumentNumber": 73,
      "instrument": "flute",
      "instrumentFamily": "pipe",
      "channelNumber": 5,
      "isPercussion": false
    },
    {
      "startTime": 17.984375,
      "duration": 404.8229166666674,
      "length": 166,
      "notes": [
        {
          "name": "G4",
          "midi": 67,
          "time": 17.984375,
          "velocity": 0.7559055118110236,
          "duration": 3.6822916666665506
        },
        {
          "name": "G4",
          "midi": 67,
          "time": 21.999999999999872,
          "velocity": 0.8188976377952756,
          "duration": 0.2604166666666643
        },
        {
          "name": "F#4",
          "midi": 66,
          "time": 22.239583333333204,
          "velocity": 0.6850393700787402,
          "duration": 0.25520833333333215
        },
        {
          "name": "E4",
          "midi": 64,
          "time": 22.494791666666536,
          "velocity": 0.7165354330708661,
          "duration": 0.25520833333333215
        },
        {
          "name": "D4",
          "midi": 62,
          "time": 22.73437499999987,
          "velocity": 0.7165354330708661,
          "duration": 0.28125
        },
        {
          "name": "E4",
          "midi": 64,
          "time": 23.010416666666536,
          "velocity": 0.7244094488188977,
          "duration": 0.26041666666666785
        },
        {
          "name": "F#4",
          "midi": 66,
          "time": 23.244791666666536,
          "velocity": 0.7322834645669292,
          "duration": 0.1458333333333357
        },
        {
          "name": "E4",
          "midi": 64,
          "time": 23.734374999999872,
          "velocity": 0.7322834645669292,
          "duration": 0.125
        },
        {
          "name": "D4",
          "midi": 62,
          "time": 23.843749999999872,
          "velocity": 0.7322834645669292,
          "duration": 0.15104166666666785
        },
        {
          "name": "E4",
          "midi": 64,
          "time": 23.968749999999872,
          "velocity": 0.8110236220472441,
          "duration": 0.46354166666666785
        },
        {
          "name": "E4",
          "midi": 64,
          "time": 24.47916666666654,
          "velocity": 0.6614173228346457,
          "duration": 0.2447916666666643
        },
        {
          "name": "D4",
          "midi": 62,
          "time": 24.718749999999872,
          "velocity": 0.7795275590551181,
          "duration": 0.27083333333333215
        },
        {
          "name": "E4",
          "midi": 64,
          "time": 24.973958333333204,
          "velocity": 0.7165354330708661,
          "duration": 0.29166666666666785
        },
        {
          "name": "D4",
          "midi": 62,
          "time": 25.218749999999872,
          "velocity": 0.6299212598425197,
          "duration": 0.5104166666666679
        },
        {
          "name": "B3",
          "midi": 59,
          "time": 25.71354166666654,
          "velocity": 0.6535433070866141,
          "duration": 0.28125
        },
        {
          "name": "C4",
          "midi": 60,
          "time": 25.968749999999872,
          "velocity": 0.7244094488188977,
          "duration": 0.5572916666666679
        },
        {
          "name": "F4",
          "midi": 65,
          "time": 26.499999999999872,
          "velocity": 0.7165354330708661,
          "duration": 0.0833333333333357
        },
        {
          "name": "F4",
          "midi": 65,
          "time": 26.703124999999876,
          "velocity": 0.7322834645669292,
          "duration": 0.203125
        },
        {
          "name": "F4",
          "midi": 65,
          "time": 26.979166666666544,
          "velocity": 0.7244094488188977,
          "duration": 0.27604166666666785
        },
        {
          "name": "E4",
          "midi": 64,
          "time": 27.229166666666544,
          "velocity": 0.7244094488188977,
          "duration": 0.5416666666666679
        },
        {
          "name": "C4",
          "midi": 60,
          "time": 27.73437499999988,
          "velocity": 0.6850393700787402,
          "duration": 0.25
        },
        {
          "name": "G3",
          "midi": 55,
          "time": 27.98437499999988,
          "velocity": 0.6614173228346457,
          "duration": 0.7135416666666679
        },
        {
          "name": "G3",
          "midi": 55,
          "time": 28.74999999999988,
          "velocity": 0.7165354330708661,
          "duration": 0.16666666666666785
        },
        {
          "name": "B3",
          "midi": 59,
          "time": 28.99999999999988,
          "velocity": 0.7165354330708661,
          "duration": 0.33333333333333215
        },
        {
          "name": "C4",
          "midi": 60,
          "time": 29.494791666666544,
          "velocity": 0.6614173228346457,
          "duration": 0.47916666666666785
        },
        {
          "name": "D4",
          "midi": 62,
          "time": 29.98437499999988,
          "velocity": 0.7007874015748031,
          "duration": 3.421875000000007
        },
        {
          "name": "G4",
          "midi": 67,
          "time": 33.999999999999886,
          "velocity": 0.7795275590551181,
          "duration": 3.5572916666669485
        },
        {
          "name": "G4",
          "midi": 67,
          "time": 38.005208333333535,
          "velocity": 0.7559055118110236,
          "duration": 0.25
        },
        {
          "name": "F#4",
          "midi": 66,
          "time": 38.239583333333535,
          "velocity": 0.6929133858267716,
          "duration": 0.2604166666666643
        },
        {
          "name": "E4",
          "midi": 64,
          "time": 38.489583333333535,
          "velocity": 0.6614173228346457,
          "duration": 0.2291666666666643
        },
        {
          "name": "D4",
          "midi": 62,
          "time": 38.723958333333535,
          "velocity": 0.6299212598425197,
          "duration": 0.2760416666666714
        },
        {
          "name": "E4",
          "midi": 64,
          "time": 38.97916666666687,
          "velocity": 0.7480314960629921,
          "duration": 0.2708333333333357
        },
        {
          "name": "F#4",
          "midi": 66,
          "time": 39.22395833333354,
          "velocity": 0.7165354330708661,
          "duration": 0.1822916666666643
        },
        {
          "name": "E4",
          "midi": 64,
          "time": 39.72395833333354,
          "velocity": 0.6850393700787402,
          "duration": 0.1302083333333357
        },
        {
          "name": "D4",
          "midi": 62,
          "time": 39.85416666666688,
          "velocity": 0.6850393700787402,
          "duration": 0.109375
        },
        {
          "name": "E4",
          "midi": 64,
          "time": 39.95833333333354,
          "velocity": 0.7559055118110236,
          "duration": 0.4635416666666714
        },
        {
          "name": "E4",
          "midi": 64,
          "time": 40.50000000000021,
          "velocity": 0.7559055118110236,
          "duration": 0.1041666666666643
        },
        {
          "name": "E4",
          "midi": 64,
          "time": 40.74479166666688,
          "velocity": 0.7637795275590551,
          "duration": 0.1041666666666643
        },
        {
          "name": "E4",
          "midi": 64,
          "time": 41.00520833333354,
          "velocity": 0.7952755905511811,
          "duration": 0.2447916666666643
        },
        {
          "name": "D4",
          "midi": 62,
          "time": 41.23958333333354,
          "velocity": 0.7244094488188977,
          "duration": 0.5312499999999929
        },
        {
          "name": "B3",
          "midi": 59,
          "time": 41.72916666666687,
          "velocity": 0.6850393700787402,
          "duration": 0.2552083333333286
        },
        {
          "name": "C4",
          "midi": 60,
          "time": 41.9687500000002,
          "velocity": 0.6850393700787402,
          "duration": 0.546875
        },
        {
          "name": "E4",
          "midi": 64,
          "time": 42.505208333333535,
          "velocity": 0.5275590551181102,
          "duration": 0.1458333333333286
        },
        {
          "name": "F4",
          "midi": 65,
          "time": 42.72916666666686,
          "velocity": 0.7007874015748031,
          "duration": 0.1875
        },
        {
          "name": "E4",
          "midi": 64,
          "time": 42.72916666666686,
          "velocity": 0.7007874015748031,
          "duration": 0.0989583333333357
        },
        {
          "name": "F4",
          "midi": 65,
          "time": 42.97395833333353,
          "velocity": 0.6614173228346457,
          "duration": 0.296875
        },
        {
          "name": "E4",
          "midi": 64,
          "time": 43.22916666666686,
          "velocity": 0.6850393700787402,
          "duration": 0.5104166666666643
        },
        {
          "name": "C4",
          "midi": 60,
          "time": 43.71354166666686,
          "velocity": 0.7244094488188977,
          "duration": 0.2604166666666643
        },
        {
          "name": "G3",
          "midi": 55,
          "time": 43.96354166666686,
          "velocity": 0.6220472440944882,
          "duration": 0.6770833333333286
        },
        {
          "name": "G3",
          "midi": 55,
          "time": 44.71875000000019,
          "velocity": 0.6062992125984252,
          "duration": 0.28125
        },
        {
          "name": "B3",
          "midi": 59,
          "time": 45.00000000000019,
          "velocity": 0.7165354330708661,
          "duration": 0.3333333333333357
        },
        {
          "name": "C4",
          "midi": 60,
          "time": 45.51041666666686,
          "velocity": 0.7322834645669292,
          "duration": 0.4270833333333357
        },
        {
          "name": "D4",
          "midi": 62,
          "time": 45.99479166666686,
          "velocity": 0.7480314960629921,
          "duration": 3.7864583333335986
        },
        {
          "name": "G4",
          "midi": 67,
          "time": 137.98437500000045,
          "velocity": 0.8503937007874016,
          "duration": 1.5208333333333428
        },
        {
          "name": "F#4",
          "midi": 66,
          "time": 139.48437500000045,
          "velocity": 0.6850393700787402,
          "duration": 0.3958333333333428
        },
        {
          "name": "G4",
          "midi": 67,
          "time": 139.85416666666714,
          "velocity": 0.41732283464566927,
          "duration": 0.16145833333331439
        },
        {
          "name": "F#4",
          "midi": 66,
          "time": 139.9895833333338,
          "velocity": 0.8267716535433071,
          "duration": 2.0052083333333144
        },
        {
          "name": "G4",
          "midi": 67,
          "time": 141.96875000000045,
          "velocity": 0.6850393700787402,
          "duration": 0.28125
        },
        {
          "name": "F#4",
          "midi": 66,
          "time": 142.21875000000045,
          "velocity": 0.7795275590551181,
          "duration": 0.25
        },
        {
          "name": "E4",
          "midi": 64,
          "time": 142.45312500000045,
          "velocity": 0.7480314960629921,
          "duration": 0.2916666666666856
        },
        {
          "name": "D4",
          "midi": 62,
          "time": 142.7239583333338,
          "velocity": 0.7559055118110236,
          "duration": 0.2708333333333428
        },
        {
          "name": "E4",
          "midi": 64,
          "time": 142.9739583333338,
          "velocity": 0.7795275590551181,
          "duration": 0.2864583333333428
        },
        {
          "name": "F#4",
          "midi": 66,
          "time": 143.23437500000048,
          "velocity": 0.7480314960629921,
          "duration": 0.09895833333331439
        },
        {
          "name": "E4",
          "midi": 64,
          "time": 143.72916666666714,
          "velocity": 0.7795275590551181,
          "duration": 0.171875
        },
        {
          "name": "D4",
          "midi": 62,
          "time": 143.86979166666714,
          "velocity": 0.7322834645669292,
          "duration": 0.1510416666666572
        },
        {
          "name": "E4",
          "midi": 64,
          "time": 143.9895833333338,
          "velocity": 0.8188976377952756,
          "duration": 0.46875
        },
        {
          "name": "E4",
          "midi": 64,
          "time": 144.4895833333338,
          "velocity": 0.7559055118110236,
          "duration": 0.15625
        },
        {
          "name": "E4",
          "midi": 64,
          "time": 144.7239583333338,
          "velocity": 0.7322834645669292,
          "duration": 0.1614583333333428
        },
        {
          "name": "E4",
          "midi": 64,
          "time": 144.97916666666714,
          "velocity": 0.7480314960629921,
          "duration": 0.2708333333333428
        },
        {
          "name": "D4",
          "midi": 62,
          "time": 145.21875000000048,
          "velocity": 0.7559055118110236,
          "duration": 0.5208333333333428
        },
        {
          "name": "B3",
          "midi": 59,
          "time": 145.71875000000048,
          "velocity": 0.6614173228346457,
          "duration": 0.2708333333333428
        },
        {
          "name": "C4",
          "midi": 60,
          "time": 145.96354166666717,
          "velocity": 0.7952755905511811,
          "duration": 0.7968749999999716
        },
        {
          "name": "F4",
          "midi": 65,
          "time": 146.73437500000048,
          "velocity": 0.7637795275590551,
          "duration": 0.17708333333331439
        },
        {
          "name": "F4",
          "midi": 65,
          "time": 146.97916666666714,
          "velocity": 0.7559055118110236,
          "duration": 0.2708333333333428
        },
        {
          "name": "E4",
          "midi": 64,
          "time": 147.21875000000048,
          "velocity": 0.7007874015748031,
          "duration": 0.2760416666666856
        },
        {
          "name": "C4",
          "midi": 60,
          "time": 147.45833333333383,
          "velocity": 0.7559055118110236,
          "duration": 0.5208333333333428
        },
        {
          "name": "G3",
          "midi": 55,
          "time": 147.9531250000005,
          "velocity": 0.6850393700787402,
          "duration": 0.7083333333333144
        },
        {
          "name": "G3",
          "midi": 55,
          "time": 148.73437500000048,
          "velocity": 0.7165354330708661,
          "duration": 0.2760416666666856
        },
        {
          "name": "B3",
          "midi": 59,
          "time": 148.97395833333383,
          "velocity": 0.7637795275590551,
          "duration": 0.265625
        },
        {
          "name": "C4",
          "midi": 60,
          "time": 149.21354166666717,
          "velocity": 0.7637795275590551,
          "duration": 0.5052083333333144
        },
        {
          "name": "D4",
          "midi": 62,
          "time": 149.73958333333383,
          "velocity": 0.7874015748031497,
          "duration": 0.5729166666666572
        },
        {
          "name": "C#4",
          "midi": 61,
          "time": 150.26562500000048,
          "velocity": 0.4881889763779528,
          "duration": 0.2760416666666856
        },
        {
          "name": "D4",
          "midi": 62,
          "time": 150.52083333333383,
          "velocity": 0.7480314960629921,
          "duration": 0.7604166666666856
        },
        {
          "name": "C#4",
          "midi": 61,
          "time": 151.2187500000005,
          "velocity": 0.6535433070866141,
          "duration": 0.3072916666666856
        },
        {
          "name": "D4",
          "midi": 62,
          "time": 151.48958333333385,
          "velocity": 0.7007874015748031,
          "duration": 0.7864583333333428
        },
        {
          "name": "C#4",
          "midi": 61,
          "time": 152.23958333333385,
          "velocity": 0.6535433070866141,
          "duration": 0.28125
        },
        {
          "name": "D4",
          "midi": 62,
          "time": 152.4947916666672,
          "velocity": 0.7244094488188977,
          "duration": 0.2916666666666572
        },
        {
          "name": "C#4",
          "midi": 61,
          "time": 152.73958333333385,
          "velocity": 0.6062992125984252,
          "duration": 0.3020833333333144
        },
        {
          "name": "D4",
          "midi": 62,
          "time": 153.0000000000005,
          "velocity": 0.6614173228346457,
          "duration": 0.9791666666666572
        },
        {
          "name": "G4",
          "midi": 67,
          "time": 153.9531250000005,
          "velocity": 0.7480314960629921,
          "duration": 1.5468749999999716
        },
        {
          "name": "F#4",
          "midi": 66,
          "time": 155.48958333333383,
          "velocity": 0.7795275590551181,
          "duration": 0.40625
        },
        {
          "name": "G4",
          "midi": 67,
          "time": 155.87500000000048,
          "velocity": 0.6377952755905512,
          "duration": 0.15104166666668561
        },
        {
          "name": "F#4",
          "midi": 66,
          "time": 155.99479166666717,
          "velocity": 0.8267716535433071,
          "duration": 1.9947916666666856
        },
        {
          "name": "G4",
          "midi": 67,
          "time": 157.9843750000005,
          "velocity": 0.7559055118110236,
          "duration": 0.3020833333333428
        },
        {
          "name": "F#4",
          "midi": 66,
          "time": 158.2447916666672,
          "velocity": 0.7559055118110236,
          "duration": 0.2552083333333428
        },
        {
          "name": "E4",
          "midi": 64,
          "time": 158.4791666666672,
          "velocity": 0.7165354330708661,
          "duration": 0.265625
        },
        {
          "name": "D4",
          "midi": 62,
          "time": 158.71875000000054,
          "velocity": 0.7007874015748031,
          "duration": 0.2968749999999716
        },
        {
          "name": "E4",
          "midi": 64,
          "time": 158.98958333333385,
          "velocity": 0.7795275590551181,
          "duration": 0.6249999999999716
        },
        {
          "name": "F#4",
          "midi": 66,
          "time": 159.58854166666717,
          "velocity": 0.7559055118110236,
          "duration": 0.1510416666666572
        },
        {
          "name": "E4",
          "midi": 64,
          "time": 159.71354166666717,
          "velocity": 0.7874015748031497,
          "duration": 0.14062499999997158
        },
        {
          "name": "D4",
          "midi": 62,
          "time": 159.84375000000048,
          "velocity": 0.7637795275590551,
          "duration": 0.1510416666666572
        },
        {
          "name": "E4",
          "midi": 64,
          "time": 159.96875000000048,
          "velocity": 0.8503937007874016,
          "duration": 0.4479166666666572
        },
        {
          "name": "E4",
          "midi": 64,
          "time": 160.4739583333338,
          "velocity": 0.8110236220472441,
          "duration": 0.11979166666665719
        },
        {
          "name": "E4",
          "midi": 64,
          "time": 160.7447916666671,
          "velocity": 0.8503937007874016,
          "duration": 0.078125
        },
        {
          "name": "E4",
          "midi": 64,
          "time": 160.98437500000045,
          "velocity": 0.8188976377952756,
          "duration": 0.2864583333333428
        },
        {
          "name": "D4",
          "midi": 62,
          "time": 161.2395833333338,
          "velocity": 0.7637795275590551,
          "duration": 0.5104166666666572
        },
        {
          "name": "B3",
          "midi": 59,
          "time": 161.7395833333338,
          "velocity": 0.6850393700787402,
          "duration": 0.2604166666666572
        },
        {
          "name": "C4",
          "midi": 60,
          "time": 161.9739583333338,
          "velocity": 0.6850393700787402,
          "duration": 0.8385416666666572
        },
        {
          "name": "F4",
          "midi": 65,
          "time": 162.7864583333338,
          "velocity": 0.7244094488188977,
          "duration": 0.1510416666666572
        },
        {
          "name": "F4",
          "midi": 65,
          "time": 163.00000000000045,
          "velocity": 0.7165354330708661,
          "duration": 0.28125
        },
        {
          "name": "E4",
          "midi": 64,
          "time": 163.2395833333338,
          "velocity": 0.6850393700787402,
          "duration": 0.2708333333333144
        },
        {
          "name": "C4",
          "midi": 60,
          "time": 163.4791666666671,
          "velocity": 0.7165354330708661,
          "duration": 0.515625
        },
        {
          "name": "G3",
          "midi": 55,
          "time": 163.97395833333377,
          "velocity": 0.6614173228346457,
          "duration": 0.6927083333333428
        },
        {
          "name": "G3",
          "midi": 55,
          "time": 164.75000000000045,
          "velocity": 0.6614173228346457,
          "duration": 0.2552083333333144
        },
        {
          "name": "B3",
          "midi": 59,
          "time": 164.9791666666671,
          "velocity": 0.7322834645669292,
          "duration": 0.2864583333333144
        },
        {
          "name": "C4",
          "midi": 60,
          "time": 165.23437500000043,
          "velocity": 0.7480314960629921,
          "duration": 0.4635416666666572
        },
        {
          "name": "D4",
          "midi": 62,
          "time": 165.71875000000043,
          "velocity": 0.7165354330708661,
          "duration": 3.817708333333826
        },
        {
          "name": "G3",
          "midi": 55,
          "time": 358.0052083333343,
          "velocity": 0.7795275590551181,
          "duration": 0.3333333333333144
        },
        {
          "name": "G3",
          "midi": 55,
          "time": 358.4947916666676,
          "velocity": 0.7795275590551181,
          "duration": 0.2864583333333144
        },
        {
          "name": "A#3",
          "midi": 58,
          "time": 360.0156250000009,
          "velocity": 0.7795275590551181,
          "duration": 0.2708333333333144
        },
        {
          "name": "A#3",
          "midi": 58,
          "time": 360.46354166666754,
          "velocity": 0.7795275590551181,
          "duration": 0.3645833333333144
        },
        {
          "name": "C4",
          "midi": 60,
          "time": 362.01041666666754,
          "velocity": 0.7795275590551181,
          "duration": 0.3177083333333144
        },
        {
          "name": "C4",
          "midi": 60,
          "time": 362.50000000000085,
          "velocity": 0.7795275590551181,
          "duration": 0.375
        },
        {
          "name": "C4",
          "midi": 60,
          "time": 363.97916666666754,
          "velocity": 0.7795275590551181,
          "duration": 0.3177083333333144
        },
        {
          "name": "C4",
          "midi": 60,
          "time": 364.47916666666754,
          "velocity": 0.7795275590551181,
          "duration": 0.3489583333333144
        },
        {
          "name": "G3",
          "midi": 55,
          "time": 366.01041666666754,
          "velocity": 0.7795275590551181,
          "duration": 0.2708333333333144
        },
        {
          "name": "G3",
          "midi": 55,
          "time": 366.45833333333417,
          "velocity": 0.7795275590551181,
          "duration": 0.3385416666666856
        },
        {
          "name": "A#3",
          "midi": 58,
          "time": 368.00000000000085,
          "velocity": 0.7795275590551181,
          "duration": 0.3333333333333144
        },
        {
          "name": "A#3",
          "midi": 58,
          "time": 368.50000000000085,
          "velocity": 0.7795275590551181,
          "duration": 0.3177083333333144
        },
        {
          "name": "C4",
          "midi": 60,
          "time": 369.95833333333417,
          "velocity": 0.7795275590551181,
          "duration": 0.359375
        },
        {
          "name": "C4",
          "midi": 60,
          "time": 370.4791666666675,
          "velocity": 0.7795275590551181,
          "duration": 0.359375
        },
        {
          "name": "C4",
          "midi": 60,
          "time": 371.98958333333417,
          "velocity": 0.7795275590551181,
          "duration": 0.328125
        },
        {
          "name": "C4",
          "midi": 60,
          "time": 372.48437500000085,
          "velocity": 0.7795275590551181,
          "duration": 0.3697916666666856
        },
        {
          "name": "G3",
          "midi": 55,
          "time": 373.97916666666754,
          "velocity": 0.7795275590551181,
          "duration": 0.2864583333333144
        },
        {
          "name": "G3",
          "midi": 55,
          "time": 374.45833333333417,
          "velocity": 0.7795275590551181,
          "duration": 0.3489583333333144
        },
        {
          "name": "A#3",
          "midi": 58,
          "time": 375.97395833333417,
          "velocity": 0.7795275590551181,
          "duration": 0.3177083333333144
        },
        {
          "name": "A#3",
          "midi": 58,
          "time": 376.4687500000008,
          "velocity": 0.7795275590551181,
          "duration": 0.328125
        },
        {
          "name": "C4",
          "midi": 60,
          "time": 377.9895833333341,
          "velocity": 0.7795275590551181,
          "duration": 0.34375
        },
        {
          "name": "C4",
          "midi": 60,
          "time": 378.5104166666674,
          "velocity": 0.7795275590551181,
          "duration": 0.328125
        },
        {
          "name": "C4",
          "midi": 60,
          "time": 379.9739583333341,
          "velocity": 0.7795275590551181,
          "duration": 0.3645833333333144
        },
        {
          "name": "B3",
          "midi": 59,
          "time": 379.9791666666674,
          "velocity": 0.7795275590551181,
          "duration": 0.16666666666668561
        },
        {
          "name": "C4",
          "midi": 60,
          "time": 380.4895833333341,
          "velocity": 0.7795275590551181,
          "duration": 0.4895833333333144
        },
        {
          "name": "G3",
          "midi": 55,
          "time": 382.4322916666674,
          "velocity": 0.7795275590551181,
          "duration": 0.265625
        },
        {
          "name": "G3",
          "midi": 55,
          "time": 383.0260416666674,
          "velocity": 0.7795275590551181,
          "duration": 0.4010416666666856
        },
        {
          "name": "A#3",
          "midi": 58,
          "time": 384.0000000000008,
          "velocity": 0.7795275590551181,
          "duration": 0.328125
        },
        {
          "name": "A#3",
          "midi": 58,
          "time": 384.5052083333341,
          "velocity": 0.7795275590551181,
          "duration": 0.390625
        },
        {
          "name": "C4",
          "midi": 60,
          "time": 385.9895833333341,
          "velocity": 0.7795275590551181,
          "duration": 0.3177083333333144
        },
        {
          "name": "C4",
          "midi": 60,
          "time": 386.4895833333341,
          "velocity": 0.7795275590551181,
          "duration": 0.4427083333333144
        },
        {
          "name": "C4",
          "midi": 60,
          "time": 388.0052083333341,
          "velocity": 0.7795275590551181,
          "duration": 0.2708333333333144
        },
        {
          "name": "C4",
          "midi": 60,
          "time": 388.4635416666674,
          "velocity": 0.7795275590551181,
          "duration": 0.5729166666666856
        },
        {
          "name": "G3",
          "midi": 55,
          "time": 389.9791666666674,
          "velocity": 0.7795275590551181,
          "duration": 0.3229166666666856
        },
        {
          "name": "G3",
          "midi": 55,
          "time": 390.4791666666674,
          "velocity": 0.7795275590551181,
          "duration": 0.4010416666666856
        },
        {
          "name": "A#3",
          "midi": 58,
          "time": 391.9635416666674,
          "velocity": 0.7795275590551181,
          "duration": 0.3541666666666856
        },
        {
          "name": "A#3",
          "midi": 58,
          "time": 392.4583333333341,
          "velocity": 0.7795275590551181,
          "duration": 0.3958333333333144
        },
        {
          "name": "C4",
          "midi": 60,
          "time": 393.96875000000074,
          "velocity": 0.7795275590551181,
          "duration": 0.375
        },
        {
          "name": "C4",
          "midi": 60,
          "time": 394.50520833333405,
          "velocity": 0.7795275590551181,
          "duration": 0.4166666666666856
        },
        {
          "name": "C4",
          "midi": 60,
          "time": 395.96875000000074,
          "velocity": 0.7795275590551181,
          "duration": 0.328125
        },
        {
          "name": "C4",
          "midi": 60,
          "time": 396.47395833333405,
          "velocity": 0.7795275590551181,
          "duration": 0.5885416666666856
        },
        {
          "name": "G3",
          "midi": 55,
          "time": 397.9791666666674,
          "velocity": 0.7795275590551181,
          "duration": 0.34375
        },
        {
          "name": "G3",
          "midi": 55,
          "time": 398.4791666666674,
          "velocity": 0.7795275590551181,
          "duration": 0.3697916666666856
        },
        {
          "name": "A#3",
          "midi": 58,
          "time": 399.9635416666674,
          "velocity": 0.7795275590551181,
          "duration": 0.3333333333333144
        },
        {
          "name": "A#3",
          "midi": 58,
          "time": 400.4635416666674,
          "velocity": 0.7795275590551181,
          "duration": 0.421875
        },
        {
          "name": "C4",
          "midi": 60,
          "time": 401.96875000000074,
          "velocity": 0.7795275590551181,
          "duration": 0.3489583333333144
        },
        {
          "name": "C4",
          "midi": 60,
          "time": 402.48958333333405,
          "velocity": 0.7795275590551181,
          "duration": 0.4166666666666856
        },
        {
          "name": "C4",
          "midi": 60,
          "time": 403.96875000000074,
          "velocity": 0.7795275590551181,
          "duration": 0.3333333333333144
        },
        {
          "name": "C4",
          "midi": 60,
          "time": 404.46875000000074,
          "velocity": 0.7795275590551181,
          "duration": 0.3541666666666856
        }
      ],
      "controlChanges": {
        "32": [
          {
            "number": 32,
            "time": 0,
            "value": 0
          }
        ]
      },
      "id": 4,
      "instrumentNumber": 29,
      "instrument": "overdriven guitar",
      "instrumentFamily": "guitar",
      "channelNumber": 4,
      "isPercussion": false
    },
    {
      "startTime": 170.72395833333334,
      "duration": 230.8697916666668,
      "length": 122,
      "notes": [
        {
          "name": "B5",
          "midi": 83,
          "time": 170.72395833333334,
          "velocity": 0.9448818897637795,
          "duration": 0.11979166666665719
        },
        {
          "name": "A5",
          "midi": 81,
          "time": 170.83333333333334,
          "velocity": 0.9448818897637795,
          "duration": 0.08854166666665719
        },
        {
          "name": "G5",
          "midi": 79,
          "time": 170.96354166666666,
          "velocity": 1,
          "duration": 0.5104166666666572
        },
        {
          "name": "A5",
          "midi": 81,
          "time": 171.49479166666666,
          "velocity": 0.9763779527559056,
          "duration": 0.375
        },
        {
          "name": "B5",
          "midi": 83,
          "time": 171.890625,
          "velocity": 0.9763779527559056,
          "duration": 0.07291666666665719
        },
        {
          "name": "A5",
          "midi": 81,
          "time": 172,
          "velocity": 0.9763779527559056,
          "duration": 0.71875
        },
        {
          "name": "D5",
          "midi": 74,
          "time": 172.71875,
          "velocity": 0.8267716535433071,
          "duration": 0.28125
        },
        {
          "name": "F#5",
          "midi": 78,
          "time": 172.96354166666666,
          "velocity": 0.905511811023622,
          "duration": 0.2239583333333428
        },
        {
          "name": "F#5",
          "midi": 78,
          "time": 173.29166666666666,
          "velocity": 0.7795275590551181,
          "duration": 0.078125
        },
        {
          "name": "G5",
          "midi": 79,
          "time": 173.453125,
          "velocity": 0.3779527559055118,
          "duration": 0.026041666666657193
        },
        {
          "name": "E5",
          "midi": 76,
          "time": 173.69791666666666,
          "velocity": 0.9212598425196851,
          "duration": 0.11458333333334281
        },
        {
          "name": "D5",
          "midi": 74,
          "time": 173.81770833333334,
          "velocity": 0.8267716535433071,
          "duration": 0.08854166666665719
        },
        {
          "name": "E5",
          "midi": 76,
          "time": 173.95833333333334,
          "velocity": 1,
          "duration": 1.0208333333333428
        },
        {
          "name": "F5",
          "midi": 77,
          "time": 178.72395833333334,
          "velocity": 0.9448818897637795,
          "duration": 0.13541666666668561
        },
        {
          "name": "G5",
          "midi": 79,
          "time": 178.83854166666669,
          "velocity": 0.8740157480314961,
          "duration": 0.07291666666668561
        },
        {
          "name": "A5",
          "midi": 81,
          "time": 178.95833333333337,
          "velocity": 1,
          "duration": 0.23958333333331439
        },
        {
          "name": "G5",
          "midi": 79,
          "time": 178.95833333333337,
          "velocity": 1,
          "duration": 0.07291666666665719
        },
        {
          "name": "G5",
          "midi": 79,
          "time": 179.22916666666669,
          "velocity": 0.952755905511811,
          "duration": 0.4895833333333428
        },
        {
          "name": "F5",
          "midi": 77,
          "time": 179.73437500000003,
          "velocity": 1,
          "duration": 0.2447916666666572
        },
        {
          "name": "D5",
          "midi": 74,
          "time": 179.98958333333334,
          "velocity": 0.8267716535433071,
          "duration": 0.06770833333334281
        },
        {
          "name": "C5",
          "midi": 72,
          "time": 180.23437500000003,
          "velocity": 0.968503937007874,
          "duration": 0.421875
        },
        {
          "name": "C5",
          "midi": 72,
          "time": 180.72395833333337,
          "velocity": 0.7952755905511811,
          "duration": 0.13541666666668561
        },
        {
          "name": "D5",
          "midi": 74,
          "time": 180.8385416666667,
          "velocity": 0.6535433070866141,
          "duration": 0.11458333333334281
        },
        {
          "name": "E5",
          "midi": 76,
          "time": 180.96875000000006,
          "velocity": 1,
          "duration": 0.2291666666666572
        },
        {
          "name": "D5",
          "midi": 74,
          "time": 181.21875000000006,
          "velocity": 1,
          "duration": 0.5052083333333428
        },
        {
          "name": "C5",
          "midi": 72,
          "time": 181.72916666666674,
          "velocity": 0.8818897637795275,
          "duration": 0.25
        },
        {
          "name": "D5",
          "midi": 74,
          "time": 181.97916666666674,
          "velocity": 0.8976377952755905,
          "duration": 0.140625
        },
        {
          "name": "C5",
          "midi": 72,
          "time": 182.10416666666674,
          "velocity": 0.8267716535433071,
          "duration": 0.08333333333334281
        },
        {
          "name": "D5",
          "midi": 74,
          "time": 182.20312500000009,
          "velocity": 0.9448818897637795,
          "duration": 1.3333333333333428
        },
        {
          "name": "B5",
          "midi": 83,
          "time": 186.72916666666677,
          "velocity": 0.952755905511811,
          "duration": 0.140625
        },
        {
          "name": "A5",
          "midi": 81,
          "time": 186.84895833333343,
          "velocity": 0.952755905511811,
          "duration": 0.08854166666668561
        },
        {
          "name": "G5",
          "midi": 79,
          "time": 186.9687500000001,
          "velocity": 1,
          "duration": 0.46875
        },
        {
          "name": "A5",
          "midi": 81,
          "time": 187.4687500000001,
          "velocity": 0.9448818897637795,
          "duration": 0.3958333333333428
        },
        {
          "name": "B5",
          "midi": 83,
          "time": 187.8854166666668,
          "velocity": 0.968503937007874,
          "duration": 0.06770833333334281
        },
        {
          "name": "A5",
          "midi": 81,
          "time": 187.9947916666668,
          "velocity": 1,
          "duration": 0.7604166666666572
        },
        {
          "name": "D5",
          "midi": 74,
          "time": 188.75520833333346,
          "velocity": 0.8976377952755905,
          "duration": 0.2395833333333428
        },
        {
          "name": "E5",
          "midi": 76,
          "time": 188.9791666666668,
          "velocity": 0.9212598425196851,
          "duration": 0.2708333333333428
        },
        {
          "name": "F#5",
          "midi": 78,
          "time": 189.23437500000014,
          "velocity": 0.7637795275590551,
          "duration": 0.2291666666666572
        },
        {
          "name": "E5",
          "midi": 76,
          "time": 189.46875000000014,
          "velocity": 0.9212598425196851,
          "duration": 0.06770833333334281
        },
        {
          "name": "F#5",
          "midi": 78,
          "time": 189.53645833333348,
          "velocity": 0.968503937007874,
          "duration": 0.05729166666665719
        },
        {
          "name": "E5",
          "midi": 76,
          "time": 189.59375000000014,
          "velocity": 0.952755905511811,
          "duration": 0.11458333333334281
        },
        {
          "name": "D5",
          "midi": 74,
          "time": 189.70312500000014,
          "velocity": 0.8740157480314961,
          "duration": 0.3177083333333428
        },
        {
          "name": "E5",
          "midi": 76,
          "time": 189.98958333333348,
          "velocity": 1,
          "duration": 1.265625
        },
        {
          "name": "F5",
          "midi": 77,
          "time": 194.72916666666683,
          "velocity": 0.9448818897637795,
          "duration": 0.1354166666666572
        },
        {
          "name": "G5",
          "midi": 79,
          "time": 194.83854166666683,
          "velocity": 0.8818897637795275,
          "duration": 0.07291666666665719
        },
        {
          "name": "A5",
          "midi": 81,
          "time": 194.96354166666683,
          "velocity": 1,
          "duration": 0.1875
        },
        {
          "name": "G5",
          "midi": 79,
          "time": 195.23437500000017,
          "velocity": 1,
          "duration": 0.4947916666666572
        },
        {
          "name": "F5",
          "midi": 77,
          "time": 195.73958333333348,
          "velocity": 0.9763779527559056,
          "duration": 0.234375
        },
        {
          "name": "E5",
          "midi": 76,
          "time": 195.98437500000014,
          "velocity": 0.952755905511811,
          "duration": 0.75
        },
        {
          "name": "C5",
          "midi": 72,
          "time": 196.73437500000014,
          "velocity": 0.8976377952755905,
          "duration": 0.125
        },
        {
          "name": "D5",
          "midi": 74,
          "time": 196.84375000000014,
          "velocity": 0.905511811023622,
          "duration": 0.09375
        },
        {
          "name": "E5",
          "midi": 76,
          "time": 196.9635416666668,
          "velocity": 1,
          "duration": 0.2604166666666856
        },
        {
          "name": "D5",
          "midi": 74,
          "time": 197.21875000000014,
          "velocity": 1,
          "duration": 0.24479166666668561
        },
        {
          "name": "C5",
          "midi": 72,
          "time": 197.46354166666683,
          "velocity": 0.8267716535433071,
          "duration": 0.08333333333331439
        },
        {
          "name": "D5",
          "midi": 74,
          "time": 197.53645833333348,
          "velocity": 0.968503937007874,
          "duration": 0.0625
        },
        {
          "name": "C5",
          "midi": 72,
          "time": 197.61458333333348,
          "velocity": 0.968503937007874,
          "duration": 0.171875
        },
        {
          "name": "B4",
          "midi": 71,
          "time": 197.76562500000014,
          "velocity": 0.968503937007874,
          "duration": 0.1666666666666572
        },
        {
          "name": "C5",
          "midi": 72,
          "time": 197.92187500000014,
          "velocity": 0.952755905511811,
          "duration": 0.1354166666666572
        },
        {
          "name": "D5",
          "midi": 74,
          "time": 198.0416666666668,
          "velocity": 0.968503937007874,
          "duration": 1.3229166666666572
        },
        {
          "name": "B6",
          "midi": 95,
          "time": 202.7500000000001,
          "velocity": 0.8976377952755905,
          "duration": 0.1354166666666572
        },
        {
          "name": "A6",
          "midi": 93,
          "time": 202.86979166666677,
          "velocity": 0.952755905511811,
          "duration": 0.08333333333334281
        },
        {
          "name": "G6",
          "midi": 91,
          "time": 202.98958333333346,
          "velocity": 1,
          "duration": 0.484375
        },
        {
          "name": "A6",
          "midi": 93,
          "time": 203.5000000000001,
          "velocity": 1,
          "duration": 0.34375
        },
        {
          "name": "B6",
          "midi": 95,
          "time": 203.88020833333346,
          "velocity": 0.9763779527559056,
          "duration": 0.0625
        },
        {
          "name": "A6",
          "midi": 93,
          "time": 203.9947916666668,
          "velocity": 1,
          "duration": 0.7291666666666572
        },
        {
          "name": "E6",
          "midi": 88,
          "time": 204.7291666666668,
          "velocity": 0.8740157480314961,
          "duration": 0.28125
        },
        {
          "name": "D6",
          "midi": 86,
          "time": 205.01562500000014,
          "velocity": 0.9212598425196851,
          "duration": 0.4947916666666572
        },
        {
          "name": "E6",
          "midi": 88,
          "time": 205.48437500000014,
          "velocity": 0.9448818897637795,
          "duration": 0.2552083333333428
        },
        {
          "name": "F#6",
          "midi": 90,
          "time": 205.71875000000014,
          "velocity": 0.9448818897637795,
          "duration": 0.234375
        },
        {
          "name": "E6",
          "midi": 88,
          "time": 205.9635416666668,
          "velocity": 0.9448818897637795,
          "duration": 1.328125
        },
        {
          "name": "A6",
          "midi": 93,
          "time": 209.23437500000014,
          "velocity": 0.8267716535433071,
          "duration": 0.13020833333331439
        },
        {
          "name": "G6",
          "midi": 91,
          "time": 209.3385416666668,
          "velocity": 0.8740157480314961,
          "duration": 0.1354166666666572
        },
        {
          "name": "F6",
          "midi": 89,
          "time": 209.48958333333346,
          "velocity": 1,
          "duration": 0.15625
        },
        {
          "name": "G6",
          "midi": 91,
          "time": 209.6250000000001,
          "velocity": 0.905511811023622,
          "duration": 0.08333333333334281
        },
        {
          "name": "A6",
          "midi": 93,
          "time": 209.73958333333346,
          "velocity": 0.9763779527559056,
          "duration": 0.2083333333333428
        },
        {
          "name": "A6",
          "midi": 93,
          "time": 210.00520833333346,
          "velocity": 1,
          "duration": 0.7083333333333428
        },
        {
          "name": "F6",
          "midi": 89,
          "time": 210.7291666666668,
          "velocity": 0.9448818897637795,
          "duration": 0.1458333333333428
        },
        {
          "name": "G6",
          "midi": 91,
          "time": 210.8541666666668,
          "velocity": 0.9448818897637795,
          "duration": 0.078125
        },
        {
          "name": "A6",
          "midi": 93,
          "time": 210.97395833333346,
          "velocity": 1,
          "duration": 0.2291666666666572
        },
        {
          "name": "G6",
          "midi": 91,
          "time": 211.22916666666677,
          "velocity": 0.968503937007874,
          "duration": 0.5104166666666572
        },
        {
          "name": "F6",
          "midi": 89,
          "time": 211.72395833333343,
          "velocity": 1,
          "duration": 0.2604166666666856
        },
        {
          "name": "E6",
          "midi": 88,
          "time": 211.97916666666677,
          "velocity": 0.9448818897637795,
          "duration": 0.7447916666666856
        },
        {
          "name": "C6",
          "midi": 84,
          "time": 212.7187500000001,
          "velocity": 0.9291338582677166,
          "duration": 0.1458333333333428
        },
        {
          "name": "D6",
          "midi": 86,
          "time": 212.83333333333346,
          "velocity": 0.8582677165354331,
          "duration": 0.13541666666668561
        },
        {
          "name": "E6",
          "midi": 88,
          "time": 212.9635416666668,
          "velocity": 0.9763779527559056,
          "duration": 0.24479166666668561
        },
        {
          "name": "D6",
          "midi": 86,
          "time": 213.22395833333348,
          "velocity": 1,
          "duration": 0.5572916666666572
        },
        {
          "name": "C6",
          "midi": 84,
          "time": 213.73437500000014,
          "velocity": 0.8582677165354331,
          "duration": 0.2135416666666572
        },
        {
          "name": "D6",
          "midi": 86,
          "time": 213.8541666666668,
          "velocity": 0.15748031496062992,
          "duration": 0.06770833333334281
        },
        {
          "name": "G6",
          "midi": 91,
          "time": 213.97395833333346,
          "velocity": 0.952755905511811,
          "duration": 0.9114583333333428
        },
        {
          "name": "F#6",
          "midi": 90,
          "time": 214.98437500000014,
          "velocity": 1,
          "duration": 0.8854166666666572
        },
        {
          "name": "E6",
          "midi": 88,
          "time": 215.9791666666668,
          "velocity": 1,
          "duration": 0.8697916666666572
        },
        {
          "name": "F#6",
          "midi": 90,
          "time": 216.9947916666668,
          "velocity": 1,
          "duration": 0.6197916666666572
        },
        {
          "name": "D6",
          "midi": 86,
          "time": 217.61458333333346,
          "velocity": 0.84251968503937,
          "duration": 0.13541666666668561
        },
        {
          "name": "E6",
          "midi": 88,
          "time": 217.7291666666668,
          "velocity": 0.9448818897637795,
          "duration": 0.1458333333333428
        },
        {
          "name": "F#6",
          "midi": 90,
          "time": 217.8385416666668,
          "velocity": 0.937007874015748,
          "duration": 0.125
        },
        {
          "name": "G6",
          "midi": 91,
          "time": 217.98958333333346,
          "velocity": 0.9291338582677166,
          "duration": 0.4114583333333428
        },
        {
          "name": "B6",
          "midi": 95,
          "time": 218.75000000000014,
          "velocity": 0.952755905511811,
          "duration": 0.13541666666668561
        },
        {
          "name": "A6",
          "midi": 93,
          "time": 218.86458333333348,
          "velocity": 0.952755905511811,
          "duration": 0.11458333333334281
        },
        {
          "name": "G6",
          "midi": 91,
          "time": 218.99479166666683,
          "velocity": 1,
          "duration": 0.2760416666666572
        },
        {
          "name": "A6",
          "midi": 93,
          "time": 219.23958333333348,
          "velocity": 0.968503937007874,
          "duration": 0.4791666666666572
        },
        {
          "name": "B6",
          "midi": 95,
          "time": 219.73437500000014,
          "velocity": 0.9212598425196851,
          "duration": 0.234375
        },
        {
          "name": "A6",
          "midi": 93,
          "time": 219.9791666666668,
          "velocity": 0.9448818897637795,
          "duration": 0.75
        },
        {
          "name": "D6",
          "midi": 86,
          "time": 220.73437500000014,
          "velocity": 0.8818897637795275,
          "duration": 0.2447916666666572
        },
        {
          "name": "E6",
          "midi": 88,
          "time": 220.95312500000014,
          "velocity": 0.9763779527559056,
          "duration": 0.2708333333333428
        },
        {
          "name": "F#6",
          "midi": 90,
          "time": 221.20312500000014,
          "velocity": 0.8976377952755905,
          "duration": 0.2395833333333428
        },
        {
          "name": "E6",
          "midi": 88,
          "time": 221.44791666666683,
          "velocity": 0.9448818897637795,
          "duration": 0.08333333333331439
        },
        {
          "name": "F#6",
          "midi": 90,
          "time": 221.52083333333348,
          "velocity": 1,
          "duration": 0.0625
        },
        {
          "name": "E6",
          "midi": 88,
          "time": 221.58333333333348,
          "velocity": 0.968503937007874,
          "duration": 0.078125
        },
        {
          "name": "D6",
          "midi": 86,
          "time": 221.64062500000014,
          "velocity": 0.8976377952755905,
          "duration": 0.4322916666666856
        },
        {
          "name": "E6",
          "midi": 88,
          "time": 222.05729166666683,
          "velocity": 0.9763779527559056,
          "duration": 1.46875
        },
        {
          "name": "F6",
          "midi": 89,
          "time": 226.72395833333348,
          "velocity": 0.9291338582677166,
          "duration": 0.1510416666666572
        },
        {
          "name": "G6",
          "midi": 91,
          "time": 226.84895833333348,
          "velocity": 0.8740157480314961,
          "duration": 0.078125
        },
        {
          "name": "A6",
          "midi": 93,
          "time": 226.95312500000014,
          "velocity": 1,
          "duration": 0.2291666666666572
        },
        {
          "name": "G6",
          "midi": 91,
          "time": 227.20312500000014,
          "velocity": 0.968503937007874,
          "duration": 0.5260416666666856
        },
        {
          "name": "F6",
          "midi": 89,
          "time": 227.72395833333348,
          "velocity": 1,
          "duration": 0.265625
        },
        {
          "name": "E6",
          "midi": 88,
          "time": 227.98958333333348,
          "velocity": 0.9291338582677166,
          "duration": 0.7291666666666572
        },
        {
          "name": "C6",
          "midi": 84,
          "time": 228.71875000000014,
          "velocity": 0.8188976377952756,
          "duration": 0.1510416666666572
        },
        {
          "name": "D6",
          "midi": 86,
          "time": 228.8229166666668,
          "velocity": 0.6771653543307087,
          "duration": 0.140625
        },
        {
          "name": "E6",
          "midi": 88,
          "time": 228.95312500000014,
          "velocity": 0.905511811023622,
          "duration": 0.2604166666666572
        },
        {
          "name": "D6",
          "midi": 86,
          "time": 229.20833333333346,
          "velocity": 1,
          "duration": 0.5520833333333428
        },
        {
          "name": "C6",
          "midi": 84,
          "time": 229.75000000000014,
          "velocity": 0.9212598425196851,
          "duration": 0.3072916666666572
        },
        {
          "name": "D6",
          "midi": 86,
          "time": 230.0416666666668,
          "velocity": 0.8976377952755905,
          "duration": 0.828125
        }
      ],
      "controlChanges": {
        "32": [
          {
            "number": 32,
            "time": 0,
            "value": 0
          }
        ]
      },
      "id": 5,
      "instrumentNumber": 0,
      "instrument": "acoustic grand piano",
      "instrumentFamily": "piano",
      "channelNumber": 0,
      "isPercussion": false
    },
    {
      "startTime": 202.265625,
      "duration": 230.5989583333333,
      "length": 100,
      "notes": [
        {
          "name": "G5",
          "midi": 79,
          "time": 202.265625,
          "velocity": 0.6062992125984252,
          "duration": 0.6927083333333144
        },
        {
          "name": "B5",
          "midi": 83,
          "time": 202.49479166666666,
          "velocity": 0.6299212598425197,
          "duration": 0.7552083333333144
        },
        {
          "name": "D6",
          "midi": 86,
          "time": 202.72916666666666,
          "velocity": 0.5826771653543307,
          "duration": 0.2656249999999716
        },
        {
          "name": "G6",
          "midi": 91,
          "time": 202.96874999999997,
          "velocity": 0.5669291338582677,
          "duration": 0.40625
        },
        {
          "name": "D6",
          "midi": 86,
          "time": 203.21354166666663,
          "velocity": 0.6692913385826772,
          "duration": 0.2708333333333428
        },
        {
          "name": "B5",
          "midi": 83,
          "time": 203.46354166666663,
          "velocity": 0.6692913385826772,
          "duration": 0.125
        },
        {
          "name": "D6",
          "midi": 86,
          "time": 203.56249999999997,
          "velocity": 0.6929133858267716,
          "duration": 0.11458333333331439
        },
        {
          "name": "B5",
          "midi": 83,
          "time": 203.65104166666663,
          "velocity": 0.7322834645669292,
          "duration": 0.12499999999997158
        },
        {
          "name": "G5",
          "midi": 79,
          "time": 203.73437499999994,
          "velocity": 0.7086614173228346,
          "duration": 0.28125
        },
        {
          "name": "E5",
          "midi": 76,
          "time": 204.32812499999994,
          "velocity": 0.6299212598425197,
          "duration": 0.1458333333333428
        },
        {
          "name": "F#5",
          "midi": 78,
          "time": 204.5520833333333,
          "velocity": 0.6220472440944882,
          "duration": 0.265625
        },
        {
          "name": "A5",
          "midi": 81,
          "time": 204.77604166666663,
          "velocity": 0.5826771653543307,
          "duration": 0.24999999999997158
        },
        {
          "name": "F#5",
          "midi": 78,
          "time": 204.99999999999994,
          "velocity": 0.05511811023622047,
          "duration": 0.25
        },
        {
          "name": "D6",
          "midi": 86,
          "time": 205.0104166666666,
          "velocity": 0.5905511811023622,
          "duration": 0.234375
        },
        {
          "name": "A5",
          "midi": 81,
          "time": 205.2291666666666,
          "velocity": 0.6062992125984252,
          "duration": 0.453125
        },
        {
          "name": "F#5",
          "midi": 78,
          "time": 205.48437499999994,
          "velocity": 0.6220472440944882,
          "duration": 0.3906249999999716
        },
        {
          "name": "D5",
          "midi": 74,
          "time": 205.72395833333326,
          "velocity": 0.6929133858267716,
          "duration": 0.23958333333331439
        },
        {
          "name": "E5",
          "midi": 76,
          "time": 206.23958333333323,
          "velocity": 0.6535433070866141,
          "duration": 0.5104166666666856
        },
        {
          "name": "G5",
          "midi": 79,
          "time": 206.49479166666657,
          "velocity": 0.5984251968503937,
          "duration": 0.7916666666666856
        },
        {
          "name": "B5",
          "midi": 83,
          "time": 206.72916666666657,
          "velocity": 0.5826771653543307,
          "duration": 0.2812500000000284
        },
        {
          "name": "E6",
          "midi": 88,
          "time": 206.98958333333326,
          "velocity": 0.6456692913385826,
          "duration": 0.3229166666666572
        },
        {
          "name": "B5",
          "midi": 83,
          "time": 207.2447916666666,
          "velocity": 0.6299212598425197,
          "duration": 0.25
        },
        {
          "name": "G5",
          "midi": 79,
          "time": 207.47395833333326,
          "velocity": 0.5984251968503937,
          "duration": 0.10416666666668561
        },
        {
          "name": "B5",
          "midi": 83,
          "time": 207.5572916666666,
          "velocity": 0.6850393700787402,
          "duration": 0.08854166666668561
        },
        {
          "name": "G5",
          "midi": 79,
          "time": 207.6302083333333,
          "velocity": 0.7086614173228346,
          "duration": 0.12499999999997158
        },
        {
          "name": "E5",
          "midi": 76,
          "time": 207.71874999999994,
          "velocity": 0.7244094488188977,
          "duration": 0.4427083333333144
        },
        {
          "name": "E6",
          "midi": 88,
          "time": 207.7447916666666,
          "velocity": 0.4015748031496063,
          "duration": 0.015625
        },
        {
          "name": "E5",
          "midi": 76,
          "time": 208.24999999999991,
          "velocity": 0.6692913385826772,
          "duration": 1.5364583333333428
        },
        {
          "name": "G5",
          "midi": 79,
          "time": 208.49479166666657,
          "velocity": 0.5905511811023622,
          "duration": 0.7604166666666572
        },
        {
          "name": "B5",
          "midi": 83,
          "time": 208.72395833333323,
          "velocity": 0.6456692913385826,
          "duration": 0.25
        },
        {
          "name": "E6",
          "midi": 88,
          "time": 208.96354166666657,
          "velocity": 0.6141732283464567,
          "duration": 0.8020833333333428
        },
        {
          "name": "B5",
          "midi": 83,
          "time": 209.20833333333323,
          "velocity": 0.7086614173228346,
          "duration": 0.8177083333333712
        },
        {
          "name": "G5",
          "midi": 79,
          "time": 209.72916666666657,
          "velocity": 0.6535433070866141,
          "duration": 0.2812500000000284
        },
        {
          "name": "F5",
          "midi": 77,
          "time": 210.22395833333326,
          "velocity": 0.6692913385826772,
          "duration": 1.2812499999999716
        },
        {
          "name": "A5",
          "midi": 81,
          "time": 210.48437499999991,
          "velocity": 0.6299212598425197,
          "duration": 0.7760416666666288
        },
        {
          "name": "C6",
          "midi": 84,
          "time": 210.72916666666657,
          "velocity": 0.5826771653543307,
          "duration": 0.2708333333333144
        },
        {
          "name": "F6",
          "midi": 89,
          "time": 210.97395833333323,
          "velocity": 0.6141732283464567,
          "duration": 0.3802083333333144
        },
        {
          "name": "C6",
          "midi": 84,
          "time": 211.22916666666654,
          "velocity": 0.6692913385826772,
          "duration": 0.24479166666668561
        },
        {
          "name": "A5",
          "midi": 81,
          "time": 211.4531249999999,
          "velocity": 0.6535433070866141,
          "duration": 0.09895833333334281
        },
        {
          "name": "C6",
          "midi": 84,
          "time": 211.5312499999999,
          "velocity": 0.6929133858267716,
          "duration": 0.09375
        },
        {
          "name": "A5",
          "midi": 81,
          "time": 211.6093749999999,
          "velocity": 0.7244094488188977,
          "duration": 0.109375
        },
        {
          "name": "F5",
          "midi": 77,
          "time": 211.68229166666654,
          "velocity": 0.7401574803149606,
          "duration": 0.2916666666666856
        },
        {
          "name": "F6",
          "midi": 89,
          "time": 211.69791666666654,
          "velocity": 0.5669291338582677,
          "duration": 0.026041666666685614
        },
        {
          "name": "C5",
          "midi": 72,
          "time": 212.22916666666657,
          "velocity": 0.6456692913385826,
          "duration": 1.2708333333333144
        },
        {
          "name": "E5",
          "midi": 76,
          "time": 212.48437499999991,
          "velocity": 0.6456692913385826,
          "duration": 0.7604166666666572
        },
        {
          "name": "G5",
          "midi": 79,
          "time": 212.73437499999991,
          "velocity": 0.6062992125984252,
          "duration": 0.2552083333333144
        },
        {
          "name": "C6",
          "midi": 84,
          "time": 212.97916666666657,
          "velocity": 0.6299212598425197,
          "duration": 0.2864583333333428
        },
        {
          "name": "G5",
          "midi": 79,
          "time": 213.21354166666657,
          "velocity": 0.6535433070866141,
          "duration": 0.2447916666666572
        },
        {
          "name": "E5",
          "midi": 76,
          "time": 213.43229166666657,
          "velocity": 0.6377952755905512,
          "duration": 0.08854166666665719
        },
        {
          "name": "G5",
          "midi": 79,
          "time": 213.52083333333323,
          "velocity": 0.6141732283464567,
          "duration": 0.08333333333331439
        },
        {
          "name": "E5",
          "midi": 76,
          "time": 213.5781249999999,
          "velocity": 0.6456692913385826,
          "duration": 0.125
        },
        {
          "name": "C5",
          "midi": 72,
          "time": 213.6718749999999,
          "velocity": 0.5984251968503937,
          "duration": 0.3489583333333428
        },
        {
          "name": "G5",
          "midi": 79,
          "time": 218.2499999999999,
          "velocity": 0.5275590551181102,
          "duration": 1.0468749999999716
        },
        {
          "name": "B5",
          "midi": 83,
          "time": 218.51041666666654,
          "velocity": 0.6062992125984252,
          "duration": 0.7447916666666572
        },
        {
          "name": "D6",
          "midi": 86,
          "time": 218.74479166666654,
          "velocity": 0.5826771653543307,
          "duration": 0.2447916666666572
        },
        {
          "name": "G6",
          "midi": 91,
          "time": 218.97916666666654,
          "velocity": 0.5354330708661418,
          "duration": 0.3489583333333144
        },
        {
          "name": "D6",
          "midi": 86,
          "time": 219.23437499999986,
          "velocity": 0.6692913385826772,
          "duration": 0.2552083333333428
        },
        {
          "name": "G5",
          "midi": 79,
          "time": 219.46874999999986,
          "velocity": 0.015748031496062992,
          "duration": 0.046875
        },
        {
          "name": "B5",
          "midi": 83,
          "time": 219.46874999999986,
          "velocity": 0.6456692913385826,
          "duration": 0.1302083333333428
        },
        {
          "name": "D6",
          "midi": 86,
          "time": 219.56249999999986,
          "velocity": 0.6692913385826772,
          "duration": 0.09375000000002842
        },
        {
          "name": "B5",
          "midi": 83,
          "time": 219.63541666666654,
          "velocity": 0.6692913385826772,
          "duration": 0.125
        },
        {
          "name": "G5",
          "midi": 79,
          "time": 219.71354166666654,
          "velocity": 0.6929133858267716,
          "duration": 0.3541666666666572
        },
        {
          "name": "E5",
          "midi": 76,
          "time": 220.26041666666654,
          "velocity": 0.6692913385826772,
          "duration": 0.109375
        },
        {
          "name": "F#5",
          "midi": 78,
          "time": 220.51041666666654,
          "velocity": 0.5826771653543307,
          "duration": 0.7552083333333144
        },
        {
          "name": "A5",
          "midi": 81,
          "time": 220.7395833333332,
          "velocity": 0.6062992125984252,
          "duration": 0.2552083333333428
        },
        {
          "name": "D6",
          "midi": 86,
          "time": 221.01041666666654,
          "velocity": 0.5669291338582677,
          "duration": 0.3177083333333144
        },
        {
          "name": "A5",
          "midi": 81,
          "time": 221.2395833333332,
          "velocity": 0.6456692913385826,
          "duration": 0.28125
        },
        {
          "name": "F#5",
          "midi": 78,
          "time": 221.4739583333332,
          "velocity": 0.6062992125984252,
          "duration": 0.2916666666666856
        },
        {
          "name": "D5",
          "midi": 74,
          "time": 221.72916666666654,
          "velocity": 0.6692913385826772,
          "duration": 0.2239583333333428
        },
        {
          "name": "E5",
          "midi": 76,
          "time": 222.25520833333323,
          "velocity": 0.6692913385826772,
          "duration": 0.916666666666714
        },
        {
          "name": "G5",
          "midi": 79,
          "time": 222.51041666666657,
          "velocity": 0.6141732283464567,
          "duration": 1.0208333333333712
        },
        {
          "name": "B5",
          "midi": 83,
          "time": 222.74999999999991,
          "velocity": 0.6062992125984252,
          "duration": 0.2708333333333428
        },
        {
          "name": "E6",
          "midi": 88,
          "time": 223.01041666666657,
          "velocity": 0.5984251968503937,
          "duration": 0.11458333333337123
        },
        {
          "name": "D6",
          "midi": 86,
          "time": 223.01562499999991,
          "velocity": 0.5905511811023622,
          "duration": 0.10416666666668561
        },
        {
          "name": "E6",
          "midi": 88,
          "time": 223.1614583333333,
          "velocity": 0.5905511811023622,
          "duration": 0.3489583333333144
        },
        {
          "name": "B5",
          "midi": 83,
          "time": 223.4947916666666,
          "velocity": 0.6692913385826772,
          "duration": 0.296875
        },
        {
          "name": "G5",
          "midi": 79,
          "time": 223.7447916666666,
          "velocity": 0.6535433070866141,
          "duration": 0.375
        },
        {
          "name": "G5",
          "midi": 79,
          "time": 224.2447916666666,
          "velocity": 0.6692913385826772,
          "duration": 0.53125
        },
        {
          "name": "B5",
          "midi": 83,
          "time": 224.36458333333326,
          "velocity": 0.6929133858267716,
          "duration": 0.1302083333333428
        },
        {
          "name": "E6",
          "midi": 88,
          "time": 224.47395833333326,
          "velocity": 0.6692913385826772,
          "duration": 0.28125
        },
        {
          "name": "B5",
          "midi": 83,
          "time": 224.7291666666666,
          "velocity": 0.7007874015748031,
          "duration": 0.28125
        },
        {
          "name": "G5",
          "midi": 79,
          "time": 224.98437499999994,
          "velocity": 0.6692913385826772,
          "duration": 0.2708333333333144
        },
        {
          "name": "B5",
          "midi": 83,
          "time": 225.2291666666666,
          "velocity": 0.6692913385826772,
          "duration": 0.3020833333333144
        },
        {
          "name": "G5",
          "midi": 79,
          "time": 225.48958333333326,
          "velocity": 0.6456692913385826,
          "duration": 0.2604166666666572
        },
        {
          "name": "E5",
          "midi": 76,
          "time": 225.73958333333326,
          "velocity": 0.7007874015748031,
          "duration": 0.203125
        },
        {
          "name": "F#5",
          "midi": 78,
          "time": 226.26562499999991,
          "velocity": 0.28346456692913385,
          "duration": 0.2083333333333428
        },
        {
          "name": "F5",
          "midi": 77,
          "time": 226.52083333333326,
          "velocity": 0.2992125984251969,
          "duration": 0.4947916666666856
        },
        {
          "name": "A5",
          "midi": 81,
          "time": 226.7291666666666,
          "velocity": 0.5905511811023622,
          "duration": 0.265625
        },
        {
          "name": "C6",
          "midi": 84,
          "time": 226.96874999999994,
          "velocity": 0.6299212598425197,
          "duration": 0.2916666666666572
        },
        {
          "name": "A5",
          "midi": 81,
          "time": 227.20312499999994,
          "velocity": 0.6377952755905512,
          "duration": 0.265625
        },
        {
          "name": "F5",
          "midi": 77,
          "time": 227.4479166666666,
          "velocity": 0.6929133858267716,
          "duration": 0.3958333333333428
        },
        {
          "name": "C5",
          "midi": 72,
          "time": 228.2447916666666,
          "velocity": 0.6141732283464567,
          "duration": 1.3072916666666572
        },
        {
          "name": "E5",
          "midi": 76,
          "time": 228.49999999999994,
          "velocity": 0.6456692913385826,
          "duration": 0.7447916666666572
        },
        {
          "name": "G5",
          "midi": 79,
          "time": 228.74999999999994,
          "velocity": 0.5669291338582677,
          "duration": 0.2395833333333428
        },
        {
          "name": "C6",
          "midi": 84,
          "time": 228.9739583333333,
          "velocity": 0.6456692913385826,
          "duration": 0.3072916666666572
        },
        {
          "name": "G5",
          "midi": 79,
          "time": 229.21874999999994,
          "velocity": 0.6377952755905512,
          "duration": 0.2604166666666572
        },
        {
          "name": "E5",
          "midi": 76,
          "time": 229.4635416666666,
          "velocity": 0.6377952755905512,
          "duration": 0.09375
        },
        {
          "name": "G5",
          "midi": 79,
          "time": 229.5416666666666,
          "velocity": 0.6456692913385826,
          "duration": 0.10416666666668561
        },
        {
          "name": "E5",
          "midi": 76,
          "time": 229.62499999999994,
          "velocity": 0.6692913385826772,
          "duration": 0.11979166666668561
        },
        {
          "name": "C5",
          "midi": 72,
          "time": 229.7083333333333,
          "velocity": 0.6377952755905512,
          "duration": 0.890625
        }
      ],
      "controlChanges": {
        "32": [
          {
            "number": 32,
            "time": 0,
            "value": 0
          }
        ]
      },
      "id": 6,
      "instrumentNumber": 0,
      "instrument": "acoustic grand piano",
      "instrumentFamily": "piano",
      "channelNumber": 0,
      "isPercussion": false
    },
    {
      "startTime": 219.015625,
      "duration": 302.19791666666663,
      "length": 130,
      "notes": [
        {
          "name": "B4",
          "midi": 71,
          "time": 219.015625,
          "velocity": 0.8976377952755905,
          "duration": 0.515625
        },
        {
          "name": "D5",
          "midi": 74,
          "time": 219.51041666666666,
          "velocity": 0.8976377952755905,
          "duration": 0.4583333333333428
        },
        {
          "name": "B4",
          "midi": 71,
          "time": 219.99479166666666,
          "velocity": 0.9448818897637795,
          "duration": 0.78125
        },
        {
          "name": "A4",
          "midi": 69,
          "time": 220.77604166666666,
          "velocity": 0.8976377952755905,
          "duration": 0.140625
        },
        {
          "name": "A4",
          "midi": 69,
          "time": 221.03645833333331,
          "velocity": 0.905511811023622,
          "duration": 0.4583333333333428
        },
        {
          "name": "B4",
          "midi": 71,
          "time": 221.48958333333331,
          "velocity": 0.8740157480314961,
          "duration": 0.21875
        },
        {
          "name": "A4",
          "midi": 69,
          "time": 221.74479166666666,
          "velocity": 0.9606299212598425,
          "duration": 1.0520833333333428
        },
        {
          "name": "F4",
          "midi": 65,
          "time": 222.77604166666666,
          "velocity": 0.8582677165354331,
          "duration": 0.171875
        },
        {
          "name": "G4",
          "midi": 67,
          "time": 223.11458333333331,
          "velocity": 0.7874015748031497,
          "duration": 2.802083333333343
        },
        {
          "name": "A4",
          "midi": 69,
          "time": 227.01041666666666,
          "velocity": 0.8582677165354331,
          "duration": 0.1614583333333428
        },
        {
          "name": "A4",
          "midi": 69,
          "time": 227.25520833333334,
          "velocity": 0.905511811023622,
          "duration": 0.6510416666666572
        },
        {
          "name": "G4",
          "midi": 67,
          "time": 227.96875,
          "velocity": 0.9606299212598425,
          "duration": 0.4583333333333428
        },
        {
          "name": "G4",
          "midi": 67,
          "time": 228.49479166666669,
          "velocity": 0.8267716535433071,
          "duration": 0.1510416666666572
        },
        {
          "name": "G4",
          "midi": 67,
          "time": 228.73958333333334,
          "velocity": 0.8503937007874016,
          "duration": 0.5260416666666572
        },
        {
          "name": "E4",
          "midi": 64,
          "time": 229.21875,
          "velocity": 0.8110236220472441,
          "duration": 0.2552083333333428
        },
        {
          "name": "C4",
          "midi": 60,
          "time": 229.47916666666669,
          "velocity": 0.8267716535433071,
          "duration": 0.484375
        },
        {
          "name": "D4",
          "midi": 62,
          "time": 229.97395833333334,
          "velocity": 0.8740157480314961,
          "duration": 0.8489583333333144
        },
        {
          "name": "C#4",
          "midi": 61,
          "time": 230.75,
          "velocity": 0.6456692913385826,
          "duration": 0.19270833333331439
        },
        {
          "name": "D4",
          "midi": 62,
          "time": 230.98437499999997,
          "velocity": 0.6299212598425197,
          "duration": 2.8020833333333712
        },
        {
          "name": "C#4",
          "midi": 61,
          "time": 231.20833333333331,
          "velocity": 0.3858267716535433,
          "duration": 0.171875
        },
        {
          "name": "C#4",
          "midi": 61,
          "time": 231.54166666666666,
          "velocity": 0.6456692913385826,
          "duration": 0.171875
        },
        {
          "name": "C#4",
          "midi": 61,
          "time": 232.328125,
          "velocity": 0.6929133858267716,
          "duration": 0.11458333333334281
        },
        {
          "name": "B4",
          "midi": 71,
          "time": 234.97395833333334,
          "velocity": 0.8267716535433071,
          "duration": 0.296875
        },
        {
          "name": "D5",
          "midi": 74,
          "time": 235.23958333333334,
          "velocity": 0.8976377952755905,
          "duration": 0.4166666666666572
        },
        {
          "name": "B4",
          "midi": 71,
          "time": 235.73958333333334,
          "velocity": 0.937007874015748,
          "duration": 0.6979166666666572
        },
        {
          "name": "A4",
          "midi": 69,
          "time": 236.484375,
          "velocity": 0.8976377952755905,
          "duration": 0.390625
        },
        {
          "name": "A4",
          "midi": 69,
          "time": 237.01041666666666,
          "velocity": 0.8976377952755905,
          "duration": 0.46875
        },
        {
          "name": "B4",
          "midi": 71,
          "time": 237.48958333333331,
          "velocity": 0.8503937007874016,
          "duration": 0.234375
        },
        {
          "name": "A4",
          "midi": 69,
          "time": 237.76041666666666,
          "velocity": 0.9448818897637795,
          "duration": 0.9739583333333144
        },
        {
          "name": "G4",
          "midi": 67,
          "time": 238.72395833333331,
          "velocity": 0.8110236220472441,
          "duration": 0.1979166666666572
        },
        {
          "name": "G4",
          "midi": 67,
          "time": 238.99999999999997,
          "velocity": 0.8267716535433071,
          "duration": 2.911458333333343
        },
        {
          "name": "C5",
          "midi": 72,
          "time": 242.97916666666666,
          "velocity": 0.9212598425196851,
          "duration": 0.40625
        },
        {
          "name": "C5",
          "midi": 72,
          "time": 243.46354166666666,
          "velocity": 0.8818897637795275,
          "duration": 0.1510416666666572
        },
        {
          "name": "C5",
          "midi": 72,
          "time": 243.72916666666666,
          "velocity": 0.937007874015748,
          "duration": 0.6510416666666572
        },
        {
          "name": "C5",
          "midi": 72,
          "time": 244.46874999999997,
          "velocity": 0.8976377952755905,
          "duration": 0.4166666666666572
        },
        {
          "name": "C5",
          "midi": 72,
          "time": 244.96874999999997,
          "velocity": 0.8740157480314961,
          "duration": 0.3125
        },
        {
          "name": "B4",
          "midi": 71,
          "time": 245.25520833333331,
          "velocity": 0.8740157480314961,
          "duration": 0.28125
        },
        {
          "name": "C5",
          "midi": 72,
          "time": 245.50520833333331,
          "velocity": 0.937007874015748,
          "duration": 0.46875
        },
        {
          "name": "D5",
          "midi": 74,
          "time": 245.99479166666666,
          "velocity": 0.8503937007874016,
          "duration": 0.8333333333333428
        },
        {
          "name": "C#5",
          "midi": 73,
          "time": 246.76041666666666,
          "velocity": 0.7401574803149606,
          "duration": 0.25
        },
        {
          "name": "D5",
          "midi": 74,
          "time": 246.96875,
          "velocity": 0.8031496062992126,
          "duration": 0.7864583333333428
        },
        {
          "name": "C#5",
          "midi": 73,
          "time": 247.71875,
          "velocity": 0.8661417322834646,
          "duration": 0.2500000000000284
        },
        {
          "name": "D5",
          "midi": 74,
          "time": 247.93229166666669,
          "velocity": 0.8031496062992126,
          "duration": 0.3177083333333428
        },
        {
          "name": "C#5",
          "midi": 73,
          "time": 248.18750000000003,
          "velocity": 0.8818897637795275,
          "duration": 0.2760416666666572
        },
        {
          "name": "D5",
          "midi": 74,
          "time": 248.43229166666669,
          "velocity": 0.8031496062992126,
          "duration": 0.3020833333333144
        },
        {
          "name": "C#5",
          "midi": 73,
          "time": 248.66145833333334,
          "velocity": 0.8661417322834646,
          "duration": 0.2708333333333144
        },
        {
          "name": "D5",
          "midi": 74,
          "time": 248.90104166666666,
          "velocity": 0.8031496062992126,
          "duration": 0.4739583333333428
        },
        {
          "name": "D5",
          "midi": 74,
          "time": 249.44791666666666,
          "velocity": 0.8740157480314961,
          "duration": 0.546875
        },
        {
          "name": "C5",
          "midi": 72,
          "time": 250,
          "velocity": 0.8503937007874016,
          "duration": 0.8645833333333428
        },
        {
          "name": "C5",
          "midi": 72,
          "time": 250.984375,
          "velocity": 0.905511811023622,
          "duration": 0.953125
        },
        {
          "name": "D5",
          "midi": 74,
          "time": 251.984375,
          "velocity": 0.8976377952755905,
          "duration": 0.1927083333333428
        },
        {
          "name": "D5",
          "midi": 74,
          "time": 252.23958333333334,
          "velocity": 0.8976377952755905,
          "duration": 0.6770833333333428
        },
        {
          "name": "D5",
          "midi": 74,
          "time": 253.00520833333334,
          "velocity": 0.8818897637795275,
          "duration": 0.3229166666666856
        },
        {
          "name": "C5",
          "midi": 72,
          "time": 253.26041666666669,
          "velocity": 0.6377952755905512,
          "duration": 0.3125
        },
        {
          "name": "A4",
          "midi": 69,
          "time": 253.53125000000003,
          "velocity": 0.7795275590551181,
          "duration": 0.4531249999999716
        },
        {
          "name": "G4",
          "midi": 67,
          "time": 253.54166666666669,
          "velocity": 0.7637795275590551,
          "duration": 0.08854166666665719
        },
        {
          "name": "D5",
          "midi": 74,
          "time": 253.96875,
          "velocity": 0.8346456692913385,
          "duration": 3.9739583333333144
        },
        {
          "name": "C5",
          "midi": 72,
          "time": 258.9895833333333,
          "velocity": 0.905511811023622,
          "duration": 0.9375
        },
        {
          "name": "D5",
          "midi": 74,
          "time": 259.99479166666663,
          "velocity": 0.8818897637795275,
          "duration": 0.19270833333331439
        },
        {
          "name": "D5",
          "midi": 74,
          "time": 260.26041666666663,
          "velocity": 0.8976377952755905,
          "duration": 0.609375
        },
        {
          "name": "D5",
          "midi": 74,
          "time": 260.98437499999994,
          "velocity": 0.9212598425196851,
          "duration": 0.3177083333333144
        },
        {
          "name": "C5",
          "midi": 72,
          "time": 261.23437499999994,
          "velocity": 0.8582677165354331,
          "duration": 0.30729166666662877
        },
        {
          "name": "A4",
          "midi": 69,
          "time": 261.4947916666666,
          "velocity": 0.8582677165354331,
          "duration": 0.5
        },
        {
          "name": "D5",
          "midi": 74,
          "time": 262.0104166666666,
          "velocity": 0.905511811023622,
          "duration": 1.984375
        },
        {
          "name": "C5",
          "midi": 72,
          "time": 264.97395833333326,
          "velocity": 0.9212598425196851,
          "duration": 0.28125
        },
        {
          "name": "C5",
          "midi": 72,
          "time": 265.05208333333326,
          "velocity": 0.7244094488188977,
          "duration": 0.8645833333333144
        },
        {
          "name": "D5",
          "midi": 74,
          "time": 265.9687499999999,
          "velocity": 0.8818897637795275,
          "duration": 0.19791666666668561
        },
        {
          "name": "D5",
          "midi": 74,
          "time": 266.2604166666666,
          "velocity": 0.905511811023622,
          "duration": 0.59375
        },
        {
          "name": "D5",
          "midi": 74,
          "time": 267.00520833333326,
          "velocity": 0.8976377952755905,
          "duration": 0.3125
        },
        {
          "name": "C5",
          "midi": 72,
          "time": 267.2447916666666,
          "velocity": 0.8110236220472441,
          "duration": 0.3072916666666856
        },
        {
          "name": "A4",
          "midi": 69,
          "time": 267.51562499999994,
          "velocity": 0.8582677165354331,
          "duration": 0.5
        },
        {
          "name": "D5",
          "midi": 74,
          "time": 267.99999999999994,
          "velocity": 0.905511811023622,
          "duration": 1.9583333333333144
        },
        {
          "name": "C5",
          "midi": 72,
          "time": 270.95833333333326,
          "velocity": 0.8582677165354331,
          "duration": 0.9270833333333144
        },
        {
          "name": "F5",
          "midi": 77,
          "time": 270.9791666666666,
          "velocity": 0.8740157480314961,
          "duration": 0.953125
        },
        {
          "name": "A4",
          "midi": 69,
          "time": 271.97395833333326,
          "velocity": 0.7401574803149606,
          "duration": 0.484375
        },
        {
          "name": "D5",
          "midi": 74,
          "time": 271.9791666666666,
          "velocity": 0.8818897637795275,
          "duration": 0.18229166666668561
        },
        {
          "name": "D5",
          "midi": 74,
          "time": 272.23958333333326,
          "velocity": 0.9212598425196851,
          "duration": 0.6510416666666856
        },
        {
          "name": "D5",
          "midi": 74,
          "time": 273.03124999999994,
          "velocity": 0.905511811023622,
          "duration": 0.2864583333333144
        },
        {
          "name": "C5",
          "midi": 72,
          "time": 273.27083333333326,
          "velocity": 0.8582677165354331,
          "duration": 0.2864583333333144
        },
        {
          "name": "A4",
          "midi": 69,
          "time": 273.5260416666666,
          "velocity": 0.8346456692913385,
          "duration": 0.265625
        },
        {
          "name": "D5",
          "midi": 74,
          "time": 273.75520833333326,
          "velocity": 0.8503937007874016,
          "duration": 1.5052083333333144
        },
        {
          "name": "C5",
          "midi": 72,
          "time": 275.22395833333326,
          "velocity": 0.8740157480314961,
          "duration": 0.3020833333333144
        },
        {
          "name": "A4",
          "midi": 69,
          "time": 275.4947916666666,
          "velocity": 0.8740157480314961,
          "duration": 0.265625
        },
        {
          "name": "C5",
          "midi": 72,
          "time": 275.7031249999999,
          "velocity": 0.8031496062992126,
          "duration": 0.3229166666666856
        },
        {
          "name": "D5",
          "midi": 74,
          "time": 275.9791666666666,
          "velocity": 0.937007874015748,
          "duration": 1.9427083333333144
        },
        {
          "name": "F5",
          "midi": 77,
          "time": 278.9999999999999,
          "velocity": 0.8976377952755905,
          "duration": 0.9270833333333144
        },
        {
          "name": "C5",
          "midi": 72,
          "time": 279.0208333333332,
          "velocity": 0.8818897637795275,
          "duration": 0.8229166666666856
        },
        {
          "name": "D5",
          "midi": 74,
          "time": 279.9635416666665,
          "velocity": 0.905511811023622,
          "duration": 0.90625
        },
        {
          "name": "D5",
          "midi": 74,
          "time": 280.9895833333332,
          "velocity": 0.8740157480314961,
          "duration": 0.2916666666666856
        },
        {
          "name": "C5",
          "midi": 72,
          "time": 281.2343749999999,
          "velocity": 0.7874015748031497,
          "duration": 0.28645833333337123
        },
        {
          "name": "A4",
          "midi": 69,
          "time": 281.4947916666666,
          "velocity": 0.8503937007874016,
          "duration": 0.2916666666666856
        },
        {
          "name": "C5",
          "midi": 72,
          "time": 281.73958333333326,
          "velocity": 0.8582677165354331,
          "duration": 0.2916666666666856
        },
        {
          "name": "D5",
          "midi": 74,
          "time": 281.98958333333326,
          "velocity": 0.9212598425196851,
          "duration": 1.2968750000000568
        },
        {
          "name": "C5",
          "midi": 72,
          "time": 283.24479166666663,
          "velocity": 0.8976377952755905,
          "duration": 0.2760416666666856
        },
        {
          "name": "A4",
          "midi": 69,
          "time": 283.49479166666663,
          "velocity": 0.8976377952755905,
          "duration": 0.2916666666666856
        },
        {
          "name": "C5",
          "midi": 72,
          "time": 283.71875,
          "velocity": 0.8740157480314961,
          "duration": 0.31249999999994316
        },
        {
          "name": "D5",
          "midi": 74,
          "time": 283.97916666666663,
          "velocity": 0.9448818897637795,
          "duration": 2.0208333333333144
        },
        {
          "name": "C5",
          "midi": 72,
          "time": 289.01562499999994,
          "velocity": 0.8976377952755905,
          "duration": 0.765625
        },
        {
          "name": "D5",
          "midi": 74,
          "time": 289.95833333333326,
          "velocity": 0.8976377952755905,
          "duration": 0.18229166666668561
        },
        {
          "name": "D5",
          "midi": 74,
          "time": 290.24479166666663,
          "velocity": 0.8976377952755905,
          "duration": 0.578125
        },
        {
          "name": "D5",
          "midi": 74,
          "time": 290.95312499999994,
          "velocity": 0.8818897637795275,
          "duration": 0.27604166666662877
        },
        {
          "name": "C5",
          "midi": 72,
          "time": 291.20833333333326,
          "velocity": 0.8503937007874016,
          "duration": 0.19791666666662877
        },
        {
          "name": "A4",
          "midi": 69,
          "time": 291.4843749999999,
          "velocity": 0.8740157480314961,
          "duration": 0.18229166666668561
        },
        {
          "name": "D5",
          "midi": 74,
          "time": 291.7343749999999,
          "velocity": 0.905511811023622,
          "duration": 1.3072916666666856
        },
        {
          "name": "C5",
          "midi": 72,
          "time": 293.09895833333326,
          "velocity": 0.8110236220472441,
          "duration": 0.359375
        },
        {
          "name": "A4",
          "midi": 69,
          "time": 293.43749999999994,
          "velocity": 0.6692913385826772,
          "duration": 0.3645833333333144
        },
        {
          "name": "C5",
          "midi": 72,
          "time": 293.76562499999994,
          "velocity": 0.8818897637795275,
          "duration": 0.171875
        },
        {
          "name": "D5",
          "midi": 74,
          "time": 294.00520833333326,
          "velocity": 0.8818897637795275,
          "duration": 1.3958333333333144
        },
        {
          "name": "C5",
          "midi": 72,
          "time": 295.3541666666666,
          "velocity": 0.7401574803149606,
          "duration": 0.16145833333331439
        },
        {
          "name": "A4",
          "midi": 69,
          "time": 295.4999999999999,
          "velocity": 0.7559055118110236,
          "duration": 0.28125
        },
        {
          "name": "C5",
          "midi": 72,
          "time": 295.7291666666666,
          "velocity": 0.8582677165354331,
          "duration": 0.16145833333331439
        },
        {
          "name": "D5",
          "midi": 74,
          "time": 295.9843749999999,
          "velocity": 0.9212598425196851,
          "duration": 1.2291666666666856
        },
        {
          "name": "C5",
          "midi": 72,
          "time": 297.2187499999999,
          "velocity": 0.8110236220472441,
          "duration": 0.23958333333331439
        },
        {
          "name": "A4",
          "midi": 69,
          "time": 297.4635416666665,
          "velocity": 0.8503937007874016,
          "duration": 0.3072916666666856
        },
        {
          "name": "C5",
          "midi": 72,
          "time": 297.7395833333332,
          "velocity": 0.8976377952755905,
          "duration": 0.16666666666668561
        },
        {
          "name": "D5",
          "midi": 74,
          "time": 297.9791666666666,
          "velocity": 0.9448818897637795,
          "duration": 0.40625
        },
        {
          "name": "D5",
          "midi": 74,
          "time": 298.5260416666666,
          "velocity": 0.8976377952755905,
          "duration": 0.375
        },
        {
          "name": "D5",
          "midi": 74,
          "time": 299.02083333333326,
          "velocity": 0.8976377952755905,
          "duration": 0.328125
        },
        {
          "name": "C5",
          "midi": 72,
          "time": 299.2916666666666,
          "velocity": 0.5511811023622047,
          "duration": 0.21354166666668561
        },
        {
          "name": "A4",
          "midi": 69,
          "time": 299.5104166666666,
          "velocity": 0.8267716535433071,
          "duration": 0.265625
        },
        {
          "name": "D5",
          "midi": 74,
          "time": 299.7343749999999,
          "velocity": 0.9606299212598425,
          "duration": 0.5677083333333712
        },
        {
          "name": "C5",
          "midi": 72,
          "time": 300.2760416666666,
          "velocity": 0.8740157480314961,
          "duration": 0.3072916666666856
        },
        {
          "name": "A4",
          "midi": 69,
          "time": 300.5572916666666,
          "velocity": 0.8976377952755905,
          "duration": 0.2760416666666856
        },
        {
          "name": "C5",
          "midi": 72,
          "time": 300.7916666666666,
          "velocity": 0.8818897637795275,
          "duration": 0.28645833333337123
        },
        {
          "name": "D5",
          "midi": 74,
          "time": 301.03124999999994,
          "velocity": 0.8582677165354331,
          "duration": 0.265625
        },
        {
          "name": "C5",
          "midi": 72,
          "time": 301.25520833333326,
          "velocity": 0.905511811023622,
          "duration": 0.31770833333337123
        },
        {
          "name": "A4",
          "midi": 69,
          "time": 301.53124999999994,
          "velocity": 0.8976377952755905,
          "duration": 0.2760416666666856
        },
        {
          "name": "C5",
          "midi": 72,
          "time": 301.76562499999994,
          "velocity": 0.8503937007874016,
          "duration": 0.16145833333337123
        },
        {
          "name": "C5",
          "midi": 72,
          "time": 301.9895833333333,
          "velocity": 0.6929133858267716,
          "duration": 0.09375
        },
        {
          "name": "D5",
          "midi": 74,
          "time": 302.015625,
          "velocity": 0.9448818897637795,
          "duration": 0.18229166666662877
        }
      ],
      "controlChanges": {
        "32": [
          {
            "number": 32,
            "time": 0,
            "value": 0
          }
        ]
      },
      "id": 7,
      "instrumentNumber": 73,
      "instrument": "flute",
      "instrumentFamily": "pipe",
      "channelNumber": 5,
      "isPercussion": false
    },
    {
      "startTime": 301.2708333333333,
      "duration": 461.9999999999995,
      "length": 511,
      "notes": [
        {
          "name": "G4",
          "midi": 67,
          "time": 301.2708333333333,
          "velocity": 0.6929133858267716,
          "duration": 0.140625
        },
        {
          "name": "A4",
          "midi": 69,
          "time": 301.38541666666663,
          "velocity": 0.7559055118110236,
          "duration": 0.18750000000005684
        },
        {
          "name": "C5",
          "midi": 72,
          "time": 301.53125,
          "velocity": 0.8031496062992126,
          "duration": 0.171875
        },
        {
          "name": "C5",
          "midi": 72,
          "time": 301.7760416666667,
          "velocity": 0.8740157480314961,
          "duration": 0.09895833333331439
        },
        {
          "name": "C5",
          "midi": 72,
          "time": 302,
          "velocity": 0.905511811023622,
          "duration": 0.28125
        },
        {
          "name": "D5",
          "midi": 74,
          "time": 302.2447916666667,
          "velocity": 0.9212598425196851,
          "duration": 0.15625
        },
        {
          "name": "D5",
          "midi": 74,
          "time": 302.5,
          "velocity": 0.9448818897637795,
          "duration": 0.3541666666666856
        },
        {
          "name": "D5",
          "midi": 74,
          "time": 302.9791666666667,
          "velocity": 0.9606299212598425,
          "duration": 0.5208333333333144
        },
        {
          "name": "C5",
          "midi": 72,
          "time": 303.4791666666667,
          "velocity": 0.8976377952755905,
          "duration": 0.23958333333331439
        },
        {
          "name": "A4",
          "midi": 69,
          "time": 303.7083333333333,
          "velocity": 0.8818897637795275,
          "duration": 0.21354166666668561
        },
        {
          "name": "C5",
          "midi": 72,
          "time": 303.96875,
          "velocity": 0.8976377952755905,
          "duration": 0.1875
        },
        {
          "name": "D5",
          "midi": 74,
          "time": 304.2447916666667,
          "velocity": 0.9606299212598425,
          "duration": 0.265625
        },
        {
          "name": "C5",
          "midi": 72,
          "time": 304.4791666666667,
          "velocity": 0.8740157480314961,
          "duration": 0.2552083333333144
        },
        {
          "name": "A4",
          "midi": 69,
          "time": 304.71875,
          "velocity": 0.8503937007874016,
          "duration": 0.22916666666668561
        },
        {
          "name": "D5",
          "midi": 74,
          "time": 304.9947916666667,
          "velocity": 0.9448818897637795,
          "duration": 0.5104166666666856
        },
        {
          "name": "C5",
          "midi": 72,
          "time": 305.48958333333337,
          "velocity": 0.8346456692913385,
          "duration": 0.23958333333331439
        },
        {
          "name": "A4",
          "midi": 69,
          "time": 305.72395833333337,
          "velocity": 0.8582677165354331,
          "duration": 0.21875
        },
        {
          "name": "D5",
          "midi": 74,
          "time": 305.98958333333337,
          "velocity": 0.8031496062992126,
          "duration": 0.17708333333331439
        },
        {
          "name": "D5",
          "midi": 74,
          "time": 306.2447916666667,
          "velocity": 0.8818897637795275,
          "duration": 0.5
        },
        {
          "name": "F5",
          "midi": 77,
          "time": 306.7291666666667,
          "velocity": 0.8818897637795275,
          "duration": 0.171875
        },
        {
          "name": "D5",
          "midi": 74,
          "time": 306.94270833333337,
          "velocity": 0.9212598425196851,
          "duration": 0.5520833333333144
        },
        {
          "name": "F5",
          "midi": 77,
          "time": 307.47395833333337,
          "velocity": 0.905511811023622,
          "duration": 0.11979166666662877
        },
        {
          "name": "D5",
          "midi": 74,
          "time": 307.7135416666667,
          "velocity": 0.9606299212598425,
          "duration": 0.5625
        },
        {
          "name": "F5",
          "midi": 77,
          "time": 308.2447916666667,
          "velocity": 0.905511811023622,
          "duration": 0.2604166666666856
        },
        {
          "name": "D5",
          "midi": 74,
          "time": 308.47395833333337,
          "velocity": 0.937007874015748,
          "duration": 0.4375
        },
        {
          "name": "D5",
          "midi": 74,
          "time": 308.9791666666667,
          "velocity": 0.905511811023622,
          "duration": 0.421875
        },
        {
          "name": "D5",
          "midi": 74,
          "time": 309.48958333333337,
          "velocity": 0.9212598425196851,
          "duration": 0.140625
        },
        {
          "name": "C5",
          "midi": 72,
          "time": 309.59895833333337,
          "velocity": 0.8976377952755905,
          "duration": 0.13020833333331439
        },
        {
          "name": "A4",
          "midi": 69,
          "time": 309.7291666666667,
          "velocity": 0.8976377952755905,
          "duration": 0.30729166666662877
        },
        {
          "name": "C5",
          "midi": 72,
          "time": 310.015625,
          "velocity": 0.905511811023622,
          "duration": 0.26041666666662877
        },
        {
          "name": "D5",
          "midi": 74,
          "time": 310.2395833333333,
          "velocity": 0.905511811023622,
          "duration": 0.1875
        },
        {
          "name": "D5",
          "midi": 74,
          "time": 310.51041666666663,
          "velocity": 0.9606299212598425,
          "duration": 0.3854166666666856
        },
        {
          "name": "D5",
          "midi": 74,
          "time": 310.9739583333333,
          "velocity": 0.905511811023622,
          "duration": 0.53125
        },
        {
          "name": "C5",
          "midi": 72,
          "time": 311.47916666666663,
          "velocity": 0.8582677165354331,
          "duration": 0.25520833333337123
        },
        {
          "name": "A4",
          "midi": 69,
          "time": 311.7083333333333,
          "velocity": 0.8582677165354331,
          "duration": 0.20833333333337123
        },
        {
          "name": "C5",
          "midi": 72,
          "time": 311.953125,
          "velocity": 0.8818897637795275,
          "duration": 0.1875
        },
        {
          "name": "D5",
          "midi": 74,
          "time": 312.2239583333333,
          "velocity": 0.937007874015748,
          "duration": 0.3020833333333144
        },
        {
          "name": "C5",
          "midi": 72,
          "time": 312.4739583333333,
          "velocity": 0.7795275590551181,
          "duration": 0.2864583333333144
        },
        {
          "name": "A4",
          "midi": 69,
          "time": 312.7083333333333,
          "velocity": 0.7637795275590551,
          "duration": 0.24479166666662877
        },
        {
          "name": "D5",
          "midi": 74,
          "time": 312.95833333333326,
          "velocity": 0.9212598425196851,
          "duration": 0.5625
        },
        {
          "name": "C5",
          "midi": 72,
          "time": 313.48958333333326,
          "velocity": 0.8346456692913385,
          "duration": 0.26041666666662877
        },
        {
          "name": "A4",
          "midi": 69,
          "time": 313.7135416666666,
          "velocity": 0.7007874015748031,
          "duration": 0.19270833333331439
        },
        {
          "name": "D5",
          "midi": 74,
          "time": 313.9791666666666,
          "velocity": 0.9212598425196851,
          "duration": 0.19791666666668561
        },
        {
          "name": "D5",
          "midi": 74,
          "time": 314.2447916666666,
          "velocity": 0.905511811023622,
          "duration": 0.515625
        },
        {
          "name": "F5",
          "midi": 77,
          "time": 314.73958333333326,
          "velocity": 0.8976377952755905,
          "duration": 0.171875
        },
        {
          "name": "D5",
          "midi": 74,
          "time": 314.98958333333326,
          "velocity": 0.937007874015748,
          "duration": 0.5416666666666288
        },
        {
          "name": "F5",
          "midi": 77,
          "time": 315.5104166666666,
          "velocity": 0.8818897637795275,
          "duration": 0.09895833333331439
        },
        {
          "name": "D5",
          "midi": 74,
          "time": 315.7447916666666,
          "velocity": 0.937007874015748,
          "duration": 0.5416666666666856
        },
        {
          "name": "F5",
          "midi": 77,
          "time": 316.25520833333326,
          "velocity": 0.8976377952755905,
          "duration": 0.125
        },
        {
          "name": "D5",
          "midi": 74,
          "time": 316.50520833333326,
          "velocity": 0.9448818897637795,
          "duration": 0.4010416666666856
        },
        {
          "name": "D5",
          "midi": 74,
          "time": 316.99999999999994,
          "velocity": 0.9448818897637795,
          "duration": 0.3958333333333144
        },
        {
          "name": "D5",
          "midi": 74,
          "time": 317.48437499999994,
          "velocity": 0.905511811023622,
          "duration": 0.14583333333337123
        },
        {
          "name": "C5",
          "midi": 72,
          "time": 317.60416666666663,
          "velocity": 0.8818897637795275,
          "duration": 0.125
        },
        {
          "name": "A4",
          "midi": 69,
          "time": 317.72916666666663,
          "velocity": 0.8346456692913385,
          "duration": 0.19791666666668561
        },
        {
          "name": "D5",
          "midi": 74,
          "time": 318,
          "velocity": 0.9212598425196851,
          "duration": 0.13541666666668561
        },
        {
          "name": "C5",
          "midi": 72,
          "time": 318.0885416666667,
          "velocity": 0.8976377952755905,
          "duration": 0.16145833333331439
        },
        {
          "name": "A4",
          "midi": 69,
          "time": 318.2291666666667,
          "velocity": 0.8740157480314961,
          "duration": 0.22395833333331439
        },
        {
          "name": "D5",
          "midi": 74,
          "time": 318.4739583333333,
          "velocity": 0.8582677165354331,
          "duration": 0.17708333333337123
        },
        {
          "name": "C5",
          "midi": 72,
          "time": 318.609375,
          "velocity": 0.905511811023622,
          "duration": 0.140625
        },
        {
          "name": "A4",
          "midi": 69,
          "time": 318.71875,
          "velocity": 0.8346456692913385,
          "duration": 0.2552083333333144
        },
        {
          "name": "D5",
          "midi": 74,
          "time": 318.9895833333333,
          "velocity": 0.8818897637795275,
          "duration": 0.14583333333331439
        },
        {
          "name": "C5",
          "midi": 72,
          "time": 319.08854166666663,
          "velocity": 0.8818897637795275,
          "duration": 0.17708333333337123
        },
        {
          "name": "A4",
          "midi": 69,
          "time": 319.2395833333333,
          "velocity": 0.8740157480314961,
          "duration": 0.27083333333337123
        },
        {
          "name": "D5",
          "midi": 74,
          "time": 319.4947916666667,
          "velocity": 0.8267716535433071,
          "duration": 0.16666666666668561
        },
        {
          "name": "C5",
          "midi": 72,
          "time": 319.6197916666667,
          "velocity": 0.8740157480314961,
          "duration": 0.15104166666668561
        },
        {
          "name": "A4",
          "midi": 69,
          "time": 319.73437500000006,
          "velocity": 0.8503937007874016,
          "duration": 0.2760416666666856
        },
        {
          "name": "D5",
          "midi": 74,
          "time": 320.00000000000006,
          "velocity": 0.9212598425196851,
          "duration": 0.15104166666668561
        },
        {
          "name": "C5",
          "midi": 72,
          "time": 320.10937500000006,
          "velocity": 0.8976377952755905,
          "duration": 0.16666666666668561
        },
        {
          "name": "A4",
          "midi": 69,
          "time": 320.24479166666674,
          "velocity": 0.8582677165354331,
          "duration": 0.27083333333337123
        },
        {
          "name": "D5",
          "midi": 74,
          "time": 320.4895833333334,
          "velocity": 0.8346456692913385,
          "duration": 0.15104166666668561
        },
        {
          "name": "C5",
          "midi": 72,
          "time": 320.6041666666668,
          "velocity": 0.8976377952755905,
          "duration": 0.16145833333331439
        },
        {
          "name": "A4",
          "midi": 69,
          "time": 320.7239583333334,
          "velocity": 0.8582677165354331,
          "duration": 0.28125
        },
        {
          "name": "D5",
          "midi": 74,
          "time": 320.9739583333334,
          "velocity": 0.905511811023622,
          "duration": 0.15625
        },
        {
          "name": "C5",
          "midi": 72,
          "time": 321.0833333333334,
          "velocity": 0.905511811023622,
          "duration": 0.140625
        },
        {
          "name": "A4",
          "midi": 69,
          "time": 321.1770833333334,
          "velocity": 0.8110236220472441,
          "duration": 0.33333333333337123
        },
        {
          "name": "D5",
          "midi": 74,
          "time": 321.4843750000001,
          "velocity": 0.9212598425196851,
          "duration": 0.16145833333337123
        },
        {
          "name": "C5",
          "midi": 72,
          "time": 321.5989583333335,
          "velocity": 0.8740157480314961,
          "duration": 0.17708333333337123
        },
        {
          "name": "A4",
          "midi": 69,
          "time": 321.73437500000017,
          "velocity": 0.8503937007874016,
          "duration": 0.2916666666666856
        },
        {
          "name": "D5",
          "midi": 74,
          "time": 322.00000000000017,
          "velocity": 0.9212598425196851,
          "duration": 0.16145833333331439
        },
        {
          "name": "C5",
          "midi": 72,
          "time": 322.10937500000017,
          "velocity": 0.8818897637795275,
          "duration": 0.16145833333331439
        },
        {
          "name": "A4",
          "midi": 69,
          "time": 322.2291666666668,
          "velocity": 0.8503937007874016,
          "duration": 0.2864583333333144
        },
        {
          "name": "D5",
          "midi": 74,
          "time": 322.4791666666668,
          "velocity": 0.8031496062992126,
          "duration": 0.18749999999994316
        },
        {
          "name": "C5",
          "midi": 72,
          "time": 322.5989583333334,
          "velocity": 0.7322834645669292,
          "duration": 0.14583333333331439
        },
        {
          "name": "A4",
          "midi": 69,
          "time": 322.6927083333334,
          "velocity": 0.7401574803149606,
          "duration": 0.3177083333333144
        },
        {
          "name": "D5",
          "midi": 74,
          "time": 322.97916666666674,
          "velocity": 0.9212598425196851,
          "duration": 0.19791666666662877
        },
        {
          "name": "C5",
          "midi": 72,
          "time": 323.12500000000006,
          "velocity": 0.8976377952755905,
          "duration": 0.109375
        },
        {
          "name": "A4",
          "midi": 69,
          "time": 323.18750000000006,
          "velocity": 0.8031496062992126,
          "duration": 0.3125
        },
        {
          "name": "D5",
          "midi": 74,
          "time": 323.46875000000006,
          "velocity": 0.8818897637795275,
          "duration": 0.18229166666662877
        },
        {
          "name": "C5",
          "midi": 72,
          "time": 323.59895833333337,
          "velocity": 0.8503937007874016,
          "duration": 0.125
        },
        {
          "name": "A4",
          "midi": 69,
          "time": 323.67708333333337,
          "velocity": 0.8267716535433071,
          "duration": 0.3072916666666856
        },
        {
          "name": "D5",
          "midi": 74,
          "time": 323.95833333333337,
          "velocity": 0.937007874015748,
          "duration": 0.2760416666666856
        },
        {
          "name": "C5",
          "midi": 72,
          "time": 324.18750000000006,
          "velocity": 0.8110236220472441,
          "duration": 0.11458333333331439
        },
        {
          "name": "A4",
          "midi": 69,
          "time": 324.27083333333337,
          "velocity": 0.7874015748031497,
          "duration": 0.21875
        },
        {
          "name": "D5",
          "midi": 74,
          "time": 324.45833333333337,
          "velocity": 0.9212598425196851,
          "duration": 0.171875
        },
        {
          "name": "C5",
          "midi": 72,
          "time": 324.57812500000006,
          "velocity": 0.8267716535433071,
          "duration": 0.21874999999994316
        },
        {
          "name": "A4",
          "midi": 69,
          "time": 324.7604166666667,
          "velocity": 0.6929133858267716,
          "duration": 0.2552083333333144
        },
        {
          "name": "D5",
          "midi": 74,
          "time": 324.984375,
          "velocity": 0.6377952755905512,
          "duration": 0.1875
        },
        {
          "name": "C5",
          "midi": 72,
          "time": 325.109375,
          "velocity": 0.8031496062992126,
          "duration": 0.15104166666662877
        },
        {
          "name": "A4",
          "midi": 69,
          "time": 325.2239583333333,
          "velocity": 0.8267716535433071,
          "duration": 0.2864583333333144
        },
        {
          "name": "D5",
          "midi": 74,
          "time": 325.47916666666663,
          "velocity": 0.937007874015748,
          "duration": 0.17708333333331439
        },
        {
          "name": "C5",
          "midi": 72,
          "time": 325.62499999999994,
          "velocity": 0.905511811023622,
          "duration": 0.15104166666662877
        },
        {
          "name": "A4",
          "midi": 69,
          "time": 325.75520833333326,
          "velocity": 0.8818897637795275,
          "duration": 0.2864583333333144
        },
        {
          "name": "D5",
          "midi": 74,
          "time": 325.98958333333326,
          "velocity": 0.8503937007874016,
          "duration": 0.21875
        },
        {
          "name": "D5",
          "midi": 74,
          "time": 326.27083333333326,
          "velocity": 0.9212598425196851,
          "duration": 0.15625
        },
        {
          "name": "C5",
          "midi": 72,
          "time": 326.5260416666666,
          "velocity": 0.9212598425196851,
          "duration": 0.22395833333331439
        },
        {
          "name": "D5",
          "midi": 74,
          "time": 326.7656249999999,
          "velocity": 0.905511811023622,
          "duration": 0.19791666666668561
        },
        {
          "name": "D5",
          "midi": 74,
          "time": 327.0312499999999,
          "velocity": 0.905511811023622,
          "duration": 0.25
        },
        {
          "name": "C5",
          "midi": 72,
          "time": 327.2187499999999,
          "velocity": 0.7559055118110236,
          "duration": 0.30729166666662877
        },
        {
          "name": "A4",
          "midi": 69,
          "time": 327.5052083333332,
          "velocity": 0.8818897637795275,
          "duration": 0.27604166666662877
        },
        {
          "name": "C5",
          "midi": 72,
          "time": 327.7447916666665,
          "velocity": 0.8503937007874016,
          "duration": 0.22395833333331439
        },
        {
          "name": "D5",
          "midi": 74,
          "time": 328.00520833333314,
          "velocity": 0.8976377952755905,
          "duration": 0.2552083333333144
        },
        {
          "name": "C5",
          "midi": 72,
          "time": 328.22916666666646,
          "velocity": 0.7559055118110236,
          "duration": 0.2916666666666856
        },
        {
          "name": "A4",
          "midi": 69,
          "time": 328.49479166666646,
          "velocity": 0.8031496062992126,
          "duration": 0.28125
        },
        {
          "name": "C5",
          "midi": 72,
          "time": 328.72916666666646,
          "velocity": 0.7795275590551181,
          "duration": 0.265625
        },
        {
          "name": "D5",
          "midi": 74,
          "time": 328.9843749999998,
          "velocity": 0.8740157480314961,
          "duration": 0.45833333333337123
        },
        {
          "name": "D5",
          "midi": 74,
          "time": 329.50520833333314,
          "velocity": 0.8818897637795275,
          "duration": 0.14583333333331439
        },
        {
          "name": "C5",
          "midi": 72,
          "time": 329.61979166666646,
          "velocity": 0.6929133858267716,
          "duration": 0.14583333333331439
        },
        {
          "name": "A4",
          "midi": 69,
          "time": 329.74479166666646,
          "velocity": 0.8346456692913385,
          "duration": 0.27604166666662877
        },
        {
          "name": "C5",
          "midi": 72,
          "time": 329.9999999999998,
          "velocity": 0.8582677165354331,
          "duration": 0.2708333333333144
        },
        {
          "name": "D5",
          "midi": 74,
          "time": 330.2395833333331,
          "velocity": 0.8976377952755905,
          "duration": 0.17708333333331439
        },
        {
          "name": "D5",
          "midi": 74,
          "time": 330.4947916666664,
          "velocity": 0.9212598425196851,
          "duration": 0.4479166666666856
        },
        {
          "name": "D5",
          "midi": 74,
          "time": 330.9947916666664,
          "velocity": 0.905511811023622,
          "duration": 0.4791666666666856
        },
        {
          "name": "C5",
          "midi": 72,
          "time": 331.4791666666664,
          "velocity": 0.8110236220472441,
          "duration": 0.2552083333333144
        },
        {
          "name": "A4",
          "midi": 69,
          "time": 331.7187499999997,
          "velocity": 0.8346456692913385,
          "duration": 0.20833333333331439
        },
        {
          "name": "C5",
          "midi": 72,
          "time": 331.9687499999997,
          "velocity": 0.8267716535433071,
          "duration": 0.15625
        },
        {
          "name": "D5",
          "midi": 74,
          "time": 332.23958333333303,
          "velocity": 0.905511811023622,
          "duration": 0.4479166666666856
        },
        {
          "name": "C5",
          "midi": 72,
          "time": 332.64583333333303,
          "velocity": 0.5826771653543307,
          "duration": 0.109375
        },
        {
          "name": "A4",
          "midi": 69,
          "time": 332.7187499999997,
          "velocity": 0.7007874015748031,
          "duration": 0.28125
        },
        {
          "name": "D5",
          "midi": 74,
          "time": 332.9687499999997,
          "velocity": 0.937007874015748,
          "duration": 0.515625
        },
        {
          "name": "C5",
          "midi": 72,
          "time": 333.4479166666664,
          "velocity": 0.8267716535433071,
          "duration": 0.2552083333333144
        },
        {
          "name": "A4",
          "midi": 69,
          "time": 333.6874999999997,
          "velocity": 0.8503937007874016,
          "duration": 0.22916666666668561
        },
        {
          "name": "D5",
          "midi": 74,
          "time": 333.9739583333331,
          "velocity": 0.937007874015748,
          "duration": 0.16145833333331439
        },
        {
          "name": "D5",
          "midi": 74,
          "time": 334.2343749999997,
          "velocity": 0.9212598425196851,
          "duration": 0.53125
        },
        {
          "name": "F5",
          "midi": 77,
          "time": 334.7343749999997,
          "velocity": 0.8740157480314961,
          "duration": 0.140625
        },
        {
          "name": "D5",
          "midi": 74,
          "time": 334.98958333333303,
          "velocity": 0.937007874015748,
          "duration": 0.5364583333333144
        },
        {
          "name": "F5",
          "midi": 77,
          "time": 335.49479166666634,
          "velocity": 0.8582677165354331,
          "duration": 0.11458333333331439
        },
        {
          "name": "D5",
          "midi": 74,
          "time": 335.739583333333,
          "velocity": 0.9448818897637795,
          "duration": 0.5520833333333144
        },
        {
          "name": "F5",
          "midi": 77,
          "time": 336.255208333333,
          "velocity": 0.8503937007874016,
          "duration": 0.13541666666662877
        },
        {
          "name": "D5",
          "midi": 74,
          "time": 336.4895833333329,
          "velocity": 0.9212598425196851,
          "duration": 0.4166666666666856
        },
        {
          "name": "D5",
          "midi": 74,
          "time": 336.9739583333329,
          "velocity": 0.8818897637795275,
          "duration": 0.40625
        },
        {
          "name": "D5",
          "midi": 74,
          "time": 337.47916666666623,
          "velocity": 0.905511811023622,
          "duration": 0.16145833333331439
        },
        {
          "name": "C5",
          "midi": 72,
          "time": 337.60416666666623,
          "velocity": 0.7401574803149606,
          "duration": 0.15104166666662877
        },
        {
          "name": "A4",
          "midi": 69,
          "time": 337.73958333333286,
          "velocity": 0.8031496062992126,
          "duration": 0.25
        },
        {
          "name": "C5",
          "midi": 72,
          "time": 338.0104166666662,
          "velocity": 0.9212598425196851,
          "duration": 0.27604166666662877
        },
        {
          "name": "D5",
          "midi": 74,
          "time": 338.2499999999995,
          "velocity": 0.8582677165354331,
          "duration": 0.13541666666662877
        },
        {
          "name": "D5",
          "midi": 74,
          "time": 338.5104166666661,
          "velocity": 0.9212598425196851,
          "duration": 0.4166666666666856
        },
        {
          "name": "D5",
          "midi": 74,
          "time": 338.9947916666661,
          "velocity": 0.905511811023622,
          "duration": 0.5
        },
        {
          "name": "C5",
          "midi": 72,
          "time": 339.4947916666661,
          "velocity": 0.8346456692913385,
          "duration": 0.234375
        },
        {
          "name": "A4",
          "midi": 69,
          "time": 339.7135416666661,
          "velocity": 0.8110236220472441,
          "duration": 0.23958333333331439
        },
        {
          "name": "C5",
          "midi": 72,
          "time": 339.9791666666661,
          "velocity": 0.8976377952755905,
          "duration": 0.19791666666668561
        },
        {
          "name": "D5",
          "midi": 74,
          "time": 340.2395833333328,
          "velocity": 0.8976377952755905,
          "duration": 0.265625
        },
        {
          "name": "C5",
          "midi": 72,
          "time": 340.4739583333328,
          "velocity": 0.8346456692913385,
          "duration": 0.2604166666666856
        },
        {
          "name": "A4",
          "midi": 69,
          "time": 340.7187499999995,
          "velocity": 0.8267716535433071,
          "duration": 0.22395833333331439
        },
        {
          "name": "D5",
          "midi": 74,
          "time": 340.9791666666661,
          "velocity": 0.9212598425196851,
          "duration": 0.578125
        },
        {
          "name": "C5",
          "midi": 72,
          "time": 341.5104166666661,
          "velocity": 0.7637795275590551,
          "duration": 0.234375
        },
        {
          "name": "A4",
          "midi": 69,
          "time": 341.71874999999943,
          "velocity": 0.8503937007874016,
          "duration": 0.3020833333333144
        },
        {
          "name": "C5",
          "midi": 72,
          "time": 341.98437499999943,
          "velocity": 0.8976377952755905,
          "duration": 0.22395833333331439
        },
        {
          "name": "D5",
          "midi": 74,
          "time": 342.23958333333275,
          "velocity": 0.8976377952755905,
          "duration": 0.265625
        },
        {
          "name": "C5",
          "midi": 72,
          "time": 342.46354166666606,
          "velocity": 0.8267716535433071,
          "duration": 0.3020833333333144
        },
        {
          "name": "A4",
          "midi": 69,
          "time": 342.74479166666606,
          "velocity": 0.8582677165354331,
          "duration": 0.24999999999994316
        },
        {
          "name": "D5",
          "midi": 74,
          "time": 342.9895833333327,
          "velocity": 0.9212598425196851,
          "duration": 0.5208333333333144
        },
        {
          "name": "C5",
          "midi": 72,
          "time": 343.4739583333327,
          "velocity": 0.8346456692913385,
          "duration": 0.28125
        },
        {
          "name": "A4",
          "midi": 69,
          "time": 343.7239583333327,
          "velocity": 0.8110236220472441,
          "duration": 0.21354166666668561
        },
        {
          "name": "D5",
          "midi": 74,
          "time": 343.9843749999994,
          "velocity": 0.8976377952755905,
          "duration": 0.16145833333337123
        },
        {
          "name": "C5",
          "midi": 72,
          "time": 344.08854166666606,
          "velocity": 0.8346456692913385,
          "duration": 0.171875
        },
        {
          "name": "A4",
          "midi": 69,
          "time": 344.23958333333275,
          "velocity": 0.7322834645669292,
          "duration": 0.2604166666666856
        },
        {
          "name": "D5",
          "midi": 74,
          "time": 344.47395833333275,
          "velocity": 0.8582677165354331,
          "duration": 0.19791666666668561
        },
        {
          "name": "C5",
          "midi": 72,
          "time": 344.59895833333275,
          "velocity": 0.8267716535433071,
          "duration": 0.140625
        },
        {
          "name": "A4",
          "midi": 69,
          "time": 344.69270833333275,
          "velocity": 0.7795275590551181,
          "duration": 0.29166666666662877
        },
        {
          "name": "D5",
          "midi": 74,
          "time": 344.96354166666606,
          "velocity": 0.8818897637795275,
          "duration": 0.171875
        },
        {
          "name": "C5",
          "midi": 72,
          "time": 345.0781249999994,
          "velocity": 0.6535433070866141,
          "duration": 0.13020833333337123
        },
        {
          "name": "A4",
          "midi": 69,
          "time": 345.16145833333275,
          "velocity": 0.8031496062992126,
          "duration": 0.390625
        },
        {
          "name": "C5",
          "midi": 72,
          "time": 345.47395833333275,
          "velocity": 0.8031496062992126,
          "duration": 0.28125
        },
        {
          "name": "D5",
          "midi": 74,
          "time": 345.72395833333275,
          "velocity": 0.8976377952755905,
          "duration": 0.2916666666666856
        },
        {
          "name": "F5",
          "midi": 77,
          "time": 345.96874999999943,
          "velocity": 0.8740157480314961,
          "duration": 0.21875
        },
        {
          "name": "G5",
          "midi": 79,
          "time": 346.25520833333275,
          "velocity": 0.8503937007874016,
          "duration": 0.15625
        },
        {
          "name": "G5",
          "midi": 79,
          "time": 346.49479166666606,
          "velocity": 0.8267716535433071,
          "duration": 0.2760416666666856
        },
        {
          "name": "F5",
          "midi": 77,
          "time": 346.72916666666606,
          "velocity": 0.8582677165354331,
          "duration": 0.265625
        },
        {
          "name": "D5",
          "midi": 74,
          "time": 347.02604166666606,
          "velocity": 0.8346456692913385,
          "duration": 0.38541666666662877
        },
        {
          "name": "E5",
          "midi": 76,
          "time": 347.02604166666606,
          "velocity": 0.8110236220472441,
          "duration": 0.11458333333331439
        },
        {
          "name": "D5",
          "midi": 74,
          "time": 347.494791666666,
          "velocity": 0.8503937007874016,
          "duration": 0.21875
        },
        {
          "name": "D5",
          "midi": 74,
          "time": 347.7499999999993,
          "velocity": 0.8346456692913385,
          "duration": 0.171875
        },
        {
          "name": "C5",
          "midi": 72,
          "time": 347.979166666666,
          "velocity": 0.8818897637795275,
          "duration": 0.2552083333333144
        },
        {
          "name": "D5",
          "midi": 74,
          "time": 348.2343749999993,
          "velocity": 0.905511811023622,
          "duration": 0.1875
        },
        {
          "name": "D5",
          "midi": 74,
          "time": 348.4843749999993,
          "velocity": 0.9212598425196851,
          "duration": 0.2760416666666856
        },
        {
          "name": "C5",
          "midi": 72,
          "time": 348.7343749999993,
          "velocity": 0.8740157480314961,
          "duration": 0.23958333333337123
        },
        {
          "name": "D5",
          "midi": 74,
          "time": 348.994791666666,
          "velocity": 0.937007874015748,
          "duration": 0.265625
        },
        {
          "name": "C5",
          "midi": 72,
          "time": 349.2343749999993,
          "velocity": 0.905511811023622,
          "duration": 0.24479166666668561
        },
        {
          "name": "A4",
          "midi": 69,
          "time": 349.494791666666,
          "velocity": 0.8031496062992126,
          "duration": 0.2552083333333144
        },
        {
          "name": "G4",
          "midi": 67,
          "time": 349.7187499999993,
          "velocity": 0.7559055118110236,
          "duration": 0.20833333333331439
        },
        {
          "name": "A4",
          "midi": 69,
          "time": 349.96354166666595,
          "velocity": 0.8346456692913385,
          "duration": 0.30729166666662877
        },
        {
          "name": "G4",
          "midi": 67,
          "time": 350.23437499999926,
          "velocity": 0.8818897637795275,
          "duration": 0.25
        },
        {
          "name": "F4",
          "midi": 65,
          "time": 350.4739583333326,
          "velocity": 0.7559055118110236,
          "duration": 0.2864583333333144
        },
        {
          "name": "E4",
          "midi": 64,
          "time": 350.7239583333326,
          "velocity": 0.7795275590551181,
          "duration": 0.26041666666662877
        },
        {
          "name": "F4",
          "midi": 65,
          "time": 350.9635416666659,
          "velocity": 0.7874015748031497,
          "duration": 0.2864583333333144
        },
        {
          "name": "E4",
          "midi": 64,
          "time": 351.2239583333325,
          "velocity": 0.8818897637795275,
          "duration": 0.2604166666666856
        },
        {
          "name": "D4",
          "midi": 62,
          "time": 351.4791666666659,
          "velocity": 0.8267716535433071,
          "duration": 0.2552083333333144
        },
        {
          "name": "C4",
          "midi": 60,
          "time": 351.7031249999992,
          "velocity": 0.8267716535433071,
          "duration": 0.28125
        },
        {
          "name": "D4",
          "midi": 62,
          "time": 351.9635416666659,
          "velocity": 0.8976377952755905,
          "duration": 0.28124999999994316
        },
        {
          "name": "E4",
          "midi": 64,
          "time": 352.2083333333325,
          "velocity": 0.8503937007874016,
          "duration": 0.3333333333333144
        },
        {
          "name": "F4",
          "midi": 65,
          "time": 352.4895833333325,
          "velocity": 0.8818897637795275,
          "duration": 0.3020833333333144
        },
        {
          "name": "E4",
          "midi": 64,
          "time": 352.7395833333325,
          "velocity": 0.8346456692913385,
          "duration": 0.3020833333333144
        },
        {
          "name": "D4",
          "midi": 62,
          "time": 352.99479166666583,
          "velocity": 0.905511811023622,
          "duration": 0.28125
        },
        {
          "name": "C4",
          "midi": 60,
          "time": 353.24479166666583,
          "velocity": 0.8740157480314961,
          "duration": 0.23958333333331439
        },
        {
          "name": "B3",
          "midi": 59,
          "time": 353.48958333333246,
          "velocity": 0.8346456692913385,
          "duration": 0.078125
        },
        {
          "name": "E4",
          "midi": 64,
          "time": 353.6041666666658,
          "velocity": 0.6614173228346457,
          "duration": 0.036458333333314386
        },
        {
          "name": "D4",
          "midi": 62,
          "time": 353.61458333333246,
          "velocity": 0.5039370078740157,
          "duration": 0.020833333333314386
        },
        {
          "name": "C4",
          "midi": 60,
          "time": 353.7656249999991,
          "velocity": 0.905511811023622,
          "duration": 0.25
        },
        {
          "name": "D4",
          "midi": 62,
          "time": 353.9843749999991,
          "velocity": 0.9212598425196851,
          "duration": 0.4895833333333144
        },
        {
          "name": "C4",
          "midi": 60,
          "time": 354.7291666666657,
          "velocity": 0.905511811023622,
          "duration": 0.28125
        },
        {
          "name": "D4",
          "midi": 62,
          "time": 354.9947916666657,
          "velocity": 0.8976377952755905,
          "duration": 0.984375
        },
        {
          "name": "G4",
          "midi": 67,
          "time": 358.5208333333324,
          "velocity": 0.8267716535433071,
          "duration": 0.3125
        },
        {
          "name": "G4",
          "midi": 67,
          "time": 358.9999999999991,
          "velocity": 0.905511811023622,
          "duration": 0.375
        },
        {
          "name": "G4",
          "midi": 67,
          "time": 374.4791666666658,
          "velocity": 0.7874015748031497,
          "duration": 0.375
        },
        {
          "name": "G4",
          "midi": 67,
          "time": 374.9843749999991,
          "velocity": 0.8818897637795275,
          "duration": 0.5416666666666856
        },
        {
          "name": "E4",
          "midi": 64,
          "time": 375.4791666666658,
          "velocity": 0.8346456692913385,
          "duration": 0.20833333333331439
        },
        {
          "name": "D4",
          "midi": 62,
          "time": 375.7135416666658,
          "velocity": 0.8110236220472441,
          "duration": 0.15104166666668561
        },
        {
          "name": "G4",
          "midi": 67,
          "time": 375.9791666666658,
          "velocity": 0.7795275590551181,
          "duration": 0.1875
        },
        {
          "name": "G4",
          "midi": 67,
          "time": 376.2499999999991,
          "velocity": 0.8346456692913385,
          "duration": 0.33854166666662877
        },
        {
          "name": "F4",
          "midi": 65,
          "time": 376.5833333333324,
          "velocity": 0.905511811023622,
          "duration": 0.140625
        },
        {
          "name": "D4",
          "midi": 62,
          "time": 376.7447916666657,
          "velocity": 0.6141732283464567,
          "duration": 0.13020833333331439
        },
        {
          "name": "G4",
          "midi": 67,
          "time": 376.94270833333235,
          "velocity": 0.8503937007874016,
          "duration": 0.5260416666666288
        },
        {
          "name": "F4",
          "midi": 65,
          "time": 377.44791666666566,
          "velocity": 0.8740157480314961,
          "duration": 0.20833333333331439
        },
        {
          "name": "D4",
          "midi": 62,
          "time": 377.63541666666566,
          "velocity": 0.7874015748031497,
          "duration": 0.17708333333331439
        },
        {
          "name": "G4",
          "midi": 67,
          "time": 377.91666666666566,
          "velocity": 0.8740157480314961,
          "duration": 0.16666666666668561
        },
        {
          "name": "G4",
          "midi": 67,
          "time": 378.16145833333235,
          "velocity": 0.8818897637795275,
          "duration": 0.59375
        },
        {
          "name": "A#4",
          "midi": 70,
          "time": 378.71354166666566,
          "velocity": 0.8267716535433071,
          "duration": 0.13020833333337123
        },
        {
          "name": "G4",
          "midi": 67,
          "time": 378.96874999999903,
          "velocity": 0.905511811023622,
          "duration": 0.4791666666666856
        },
        {
          "name": "A#4",
          "midi": 70,
          "time": 379.48437499999903,
          "velocity": 0.8818897637795275,
          "duration": 0.08854166666668561
        },
        {
          "name": "A4",
          "midi": 69,
          "time": 379.53124999999903,
          "velocity": 0.8818897637795275,
          "duration": 0.046875
        },
        {
          "name": "G4",
          "midi": 67,
          "time": 379.76562499999903,
          "velocity": 0.8818897637795275,
          "duration": 0.4895833333333144
        },
        {
          "name": "A#4",
          "midi": 70,
          "time": 380.21874999999903,
          "velocity": 0.8818897637795275,
          "duration": 0.09375
        },
        {
          "name": "G4",
          "midi": 67,
          "time": 380.4791666666657,
          "velocity": 0.8976377952755905,
          "duration": 0.4583333333333144
        },
        {
          "name": "G4",
          "midi": 67,
          "time": 380.98958333333235,
          "velocity": 0.8740157480314961,
          "duration": 0.3645833333333144
        },
        {
          "name": "G4",
          "midi": 67,
          "time": 381.43229166666566,
          "velocity": 0.8582677165354331,
          "duration": 0.15104166666668561
        },
        {
          "name": "F4",
          "midi": 65,
          "time": 381.56770833333235,
          "velocity": 0.8740157480314961,
          "duration": 0.125
        },
        {
          "name": "D4",
          "midi": 62,
          "time": 381.70833333333235,
          "velocity": 0.9212598425196851,
          "duration": 0.22395833333331439
        },
        {
          "name": "F4",
          "midi": 65,
          "time": 381.97395833333235,
          "velocity": 0.937007874015748,
          "duration": 0.2760416666666856
        },
        {
          "name": "G4",
          "midi": 67,
          "time": 382.22395833333235,
          "velocity": 0.8976377952755905,
          "duration": 0.14583333333337123
        },
        {
          "name": "G4",
          "midi": 67,
          "time": 382.49999999999903,
          "velocity": 0.937007874015748,
          "duration": 0.421875
        },
        {
          "name": "G4",
          "midi": 67,
          "time": 382.9947916666657,
          "velocity": 0.937007874015748,
          "duration": 0.4583333333333144
        },
        {
          "name": "G4",
          "midi": 67,
          "time": 383.52083333333235,
          "velocity": 0.8976377952755905,
          "duration": 0.14583333333337123
        },
        {
          "name": "F4",
          "midi": 65,
          "time": 383.62499999999903,
          "velocity": 0.8503937007874016,
          "duration": 0.140625
        },
        {
          "name": "D4",
          "midi": 62,
          "time": 383.76562499999903,
          "velocity": 0.905511811023622,
          "duration": 0.22916666666668561
        },
        {
          "name": "F4",
          "midi": 65,
          "time": 384.0104166666657,
          "velocity": 0.937007874015748,
          "duration": 0.25
        },
        {
          "name": "G4",
          "midi": 67,
          "time": 384.2291666666657,
          "velocity": 0.8740157480314961,
          "duration": 0.234375
        },
        {
          "name": "F4",
          "midi": 65,
          "time": 384.46874999999903,
          "velocity": 0.9212598425196851,
          "duration": 0.21875
        },
        {
          "name": "D4",
          "midi": 62,
          "time": 384.68749999999903,
          "velocity": 0.7874015748031497,
          "duration": 0.22916666666668561
        },
        {
          "name": "G4",
          "midi": 67,
          "time": 384.9635416666657,
          "velocity": 0.905511811023622,
          "duration": 0.5520833333333144
        },
        {
          "name": "F4",
          "midi": 65,
          "time": 385.4791666666657,
          "velocity": 0.8740157480314961,
          "duration": 0.22395833333331439
        },
        {
          "name": "D4",
          "midi": 62,
          "time": 385.67708333333235,
          "velocity": 0.7007874015748031,
          "duration": 0.21875
        },
        {
          "name": "G4",
          "midi": 67,
          "time": 385.97916666666566,
          "velocity": 0.8818897637795275,
          "duration": 0.15104166666668561
        },
        {
          "name": "G4",
          "midi": 67,
          "time": 386.20833333333235,
          "velocity": 0.8818897637795275,
          "duration": 0.5520833333333144
        },
        {
          "name": "A#4",
          "midi": 70,
          "time": 386.72395833333235,
          "velocity": 0.7716535433070866,
          "duration": 0.11458333333331439
        },
        {
          "name": "G4",
          "midi": 67,
          "time": 386.953124999999,
          "velocity": 0.8503937007874016,
          "duration": 0.5625
        },
        {
          "name": "A#4",
          "midi": 70,
          "time": 387.4427083333323,
          "velocity": 0.7244094488188977,
          "duration": 0.16145833333337123
        },
        {
          "name": "D5",
          "midi": 74,
          "time": 387.72916666666566,
          "velocity": 0.8503937007874016,
          "duration": 0.4010416666666856
        },
        {
          "name": "C5",
          "midi": 72,
          "time": 387.734374999999,
          "velocity": 0.8503937007874016,
          "duration": 0.07291666666668561
        },
        {
          "name": "D5",
          "midi": 74,
          "time": 388.21874999999903,
          "velocity": 0.8582677165354331,
          "duration": 0.15104166666668561
        },
        {
          "name": "D5",
          "midi": 74,
          "time": 388.4791666666657,
          "velocity": 0.8740157480314961,
          "duration": 0.11979166666668561
        },
        {
          "name": "D5",
          "midi": 74,
          "time": 388.7083333333324,
          "velocity": 0.8976377952755905,
          "duration": 0.11458333333331439
        },
        {
          "name": "C#5",
          "midi": 73,
          "time": 388.9739583333324,
          "velocity": 0.937007874015748,
          "duration": 0.140625
        },
        {
          "name": "C5",
          "midi": 72,
          "time": 389.2187499999991,
          "velocity": 0.8582677165354331,
          "duration": 0.125
        },
        {
          "name": "A#4",
          "midi": 70,
          "time": 389.4895833333324,
          "velocity": 0.9212598425196851,
          "duration": 0.11458333333331439
        },
        {
          "name": "A4",
          "midi": 69,
          "time": 389.7291666666657,
          "velocity": 0.8582677165354331,
          "duration": 0.13541666666668561
        },
        {
          "name": "G4",
          "midi": 67,
          "time": 390.0364583333324,
          "velocity": 0.8740157480314961,
          "duration": 0.25
        },
        {
          "name": "G4",
          "midi": 67,
          "time": 390.4531249999991,
          "velocity": 0.937007874015748,
          "duration": 0.4322916666666856
        },
        {
          "name": "G4",
          "midi": 67,
          "time": 390.9791666666658,
          "velocity": 0.8582677165354331,
          "duration": 0.4322916666666856
        },
        {
          "name": "G4",
          "midi": 67,
          "time": 391.4791666666658,
          "velocity": 0.8582677165354331,
          "duration": 0.14583333333337123
        },
        {
          "name": "F4",
          "midi": 65,
          "time": 391.59895833333246,
          "velocity": 0.8582677165354331,
          "duration": 0.11458333333337123
        },
        {
          "name": "D4",
          "midi": 62,
          "time": 391.7239583333325,
          "velocity": 0.8818897637795275,
          "duration": 0.24479166666668561
        },
        {
          "name": "F4",
          "midi": 65,
          "time": 392.0052083333325,
          "velocity": 0.905511811023622,
          "duration": 0.23958333333331439
        },
        {
          "name": "G4",
          "midi": 67,
          "time": 392.2083333333325,
          "velocity": 0.8267716535433071,
          "duration": 0.19270833333331439
        },
        {
          "name": "F4",
          "midi": 65,
          "time": 392.45312499999915,
          "velocity": 0.9212598425196851,
          "duration": 0.1875
        },
        {
          "name": "D4",
          "midi": 62,
          "time": 392.66666666666583,
          "velocity": 0.8346456692913385,
          "duration": 0.265625
        },
        {
          "name": "G4",
          "midi": 67,
          "time": 392.96354166666583,
          "velocity": 0.8976377952755905,
          "duration": 0.5364583333333144
        },
        {
          "name": "F4",
          "midi": 65,
          "time": 393.47916666666583,
          "velocity": 0.8503937007874016,
          "duration": 0.22916666666662877
        },
        {
          "name": "D4",
          "midi": 62,
          "time": 393.70312499999915,
          "velocity": 0.8582677165354331,
          "duration": 0.20833333333331439
        },
        {
          "name": "G4",
          "midi": 67,
          "time": 393.97395833333246,
          "velocity": 0.8818897637795275,
          "duration": 0.15104166666668561
        },
        {
          "name": "G4",
          "midi": 67,
          "time": 394.21354166666583,
          "velocity": 0.8818897637795275,
          "duration": 0.515625
        },
        {
          "name": "A#4",
          "midi": 70,
          "time": 394.76041666666583,
          "velocity": 0.8661417322834646,
          "duration": 0.10416666666668561
        },
        {
          "name": "G4",
          "midi": 67,
          "time": 395.0156249999992,
          "velocity": 0.8818897637795275,
          "duration": 0.515625
        },
        {
          "name": "A#4",
          "midi": 70,
          "time": 395.4947916666659,
          "velocity": 0.8661417322834646,
          "duration": 0.10416666666662877
        },
        {
          "name": "G4",
          "midi": 67,
          "time": 395.7552083333325,
          "velocity": 0.8818897637795275,
          "duration": 0.53125
        },
        {
          "name": "A#4",
          "midi": 70,
          "time": 396.2239583333325,
          "velocity": 0.84251968503937,
          "duration": 0.13020833333331439
        },
        {
          "name": "D5",
          "midi": 74,
          "time": 396.49479166666583,
          "velocity": 0.8503937007874016,
          "duration": 0.140625
        },
        {
          "name": "C5",
          "midi": 72,
          "time": 396.7395833333325,
          "velocity": 0.8976377952755905,
          "duration": 0.09895833333331439
        },
        {
          "name": "C#5",
          "midi": 73,
          "time": 396.9739583333325,
          "velocity": 0.8976377952755905,
          "duration": 0.16666666666668561
        },
        {
          "name": "D5",
          "midi": 74,
          "time": 397.2447916666659,
          "velocity": 0.8582677165354331,
          "duration": 0.11979166666668561
        },
        {
          "name": "C5",
          "midi": 72,
          "time": 397.2447916666659,
          "velocity": 0.8346456692913385,
          "duration": 0.015625
        },
        {
          "name": "C5",
          "midi": 72,
          "time": 397.5052083333326,
          "velocity": 0.8976377952755905,
          "duration": 0.140625
        },
        {
          "name": "A#4",
          "midi": 70,
          "time": 397.74999999999926,
          "velocity": 0.937007874015748,
          "duration": 0.09375
        },
        {
          "name": "G4",
          "midi": 67,
          "time": 398.01562499999926,
          "velocity": 0.9212598425196851,
          "duration": 0.140625
        },
        {
          "name": "A4",
          "midi": 69,
          "time": 398.01562499999926,
          "velocity": 0.905511811023622,
          "duration": 0.11979166666668561
        },
        {
          "name": "G4",
          "midi": 67,
          "time": 398.20312499999926,
          "velocity": 0.6377952755905512,
          "duration": 0.13541666666668561
        },
        {
          "name": "G4",
          "midi": 67,
          "time": 398.49479166666595,
          "velocity": 0.937007874015748,
          "duration": 0.4270833333333144
        },
        {
          "name": "G4",
          "midi": 67,
          "time": 399.01041666666595,
          "velocity": 0.905511811023622,
          "duration": 0.4322916666666856
        },
        {
          "name": "G4",
          "midi": 67,
          "time": 399.52083333333263,
          "velocity": 0.8976377952755905,
          "duration": 0.140625
        },
        {
          "name": "F4",
          "midi": 65,
          "time": 399.63541666666595,
          "velocity": 0.8582677165354331,
          "duration": 0.125
        },
        {
          "name": "D4",
          "midi": 62,
          "time": 399.78645833333263,
          "velocity": 0.8346456692913385,
          "duration": 0.2552083333333144
        },
        {
          "name": "F4",
          "midi": 65,
          "time": 400.02083333333263,
          "velocity": 0.8976377952755905,
          "duration": 0.234375
        },
        {
          "name": "G4",
          "midi": 67,
          "time": 400.22916666666595,
          "velocity": 0.8582677165354331,
          "duration": 0.23437500000005684
        },
        {
          "name": "F4",
          "midi": 65,
          "time": 400.4531249999993,
          "velocity": 0.8976377952755905,
          "duration": 0.21875
        },
        {
          "name": "D4",
          "midi": 62,
          "time": 400.6718749999993,
          "velocity": 0.8582677165354331,
          "duration": 0.24479166666668561
        },
        {
          "name": "G4",
          "midi": 67,
          "time": 400.932291666666,
          "velocity": 0.8740157480314961,
          "duration": 0.5729166666666856
        },
        {
          "name": "F4",
          "midi": 65,
          "time": 401.4895833333327,
          "velocity": 0.9212598425196851,
          "duration": 0.22395833333331439
        },
        {
          "name": "D4",
          "midi": 62,
          "time": 401.697916666666,
          "velocity": 0.8503937007874016,
          "duration": 0.203125
        },
        {
          "name": "G4",
          "midi": 67,
          "time": 401.9687499999993,
          "velocity": 0.8740157480314961,
          "duration": 0.15625
        },
        {
          "name": "G4",
          "midi": 67,
          "time": 402.2031249999993,
          "velocity": 0.8818897637795275,
          "duration": 0.546875
        },
        {
          "name": "A#4",
          "midi": 70,
          "time": 402.73958333333263,
          "velocity": 0.8818897637795275,
          "duration": 0.08333333333337123
        },
        {
          "name": "G4",
          "midi": 67,
          "time": 402.979166666666,
          "velocity": 0.8818897637795275,
          "duration": 0.5364583333333144
        },
        {
          "name": "A#4",
          "midi": 70,
          "time": 403.4687499999993,
          "velocity": 0.8661417322834646,
          "duration": 0.109375
        },
        {
          "name": "G4",
          "midi": 67,
          "time": 403.713541666666,
          "velocity": 0.8503937007874016,
          "duration": 0.53125
        },
        {
          "name": "A#4",
          "midi": 70,
          "time": 404.2031249999993,
          "velocity": 0.8661417322834646,
          "duration": 0.09375
        },
        {
          "name": "G4",
          "midi": 67,
          "time": 404.4687499999993,
          "velocity": 0.905511811023622,
          "duration": 0.5
        },
        {
          "name": "A#4",
          "midi": 70,
          "time": 404.9218749999993,
          "velocity": 0.8661417322834646,
          "duration": 0.09895833333331439
        },
        {
          "name": "G4",
          "midi": 67,
          "time": 405.2031249999993,
          "velocity": 0.8818897637795275,
          "duration": 0.546875
        },
        {
          "name": "A#4",
          "midi": 70,
          "time": 405.697916666666,
          "velocity": 0.8110236220472441,
          "duration": 0.08854166666662877
        },
        {
          "name": "G4",
          "midi": 67,
          "time": 405.9687499999993,
          "velocity": 0.8582677165354331,
          "duration": 0.421875
        },
        {
          "name": "A#4",
          "midi": 70,
          "time": 406.5312499999993,
          "velocity": 0.8818897637795275,
          "duration": 0.08854166666662877
        },
        {
          "name": "A4",
          "midi": 69,
          "time": 406.56770833333263,
          "velocity": 0.8740157480314961,
          "duration": 0.052083333333314386
        },
        {
          "name": "G4",
          "midi": 67,
          "time": 406.80729166666595,
          "velocity": 0.8818897637795275,
          "duration": 0.5104166666666856
        },
        {
          "name": "A#4",
          "midi": 70,
          "time": 407.27083333333263,
          "velocity": 0.8661417322834646,
          "duration": 0.10416666666668561
        },
        {
          "name": "G4",
          "midi": 67,
          "time": 407.52083333333263,
          "velocity": 0.8267716535433071,
          "duration": 0.48958333333337123
        },
        {
          "name": "A#4",
          "midi": 70,
          "time": 407.9687499999993,
          "velocity": 0.84251968503937,
          "duration": 0.08854166666668561
        },
        {
          "name": "G4",
          "midi": 67,
          "time": 408.2239583333327,
          "velocity": 0.8740157480314961,
          "duration": 0.48958333333337123
        },
        {
          "name": "A#4",
          "midi": 70,
          "time": 408.6718749999994,
          "velocity": 0.84251968503937,
          "duration": 0.11979166666668561
        },
        {
          "name": "G4",
          "midi": 67,
          "time": 408.9374999999994,
          "velocity": 0.8582677165354331,
          "duration": 0.46875
        },
        {
          "name": "G4",
          "midi": 67,
          "time": 409.5052083333327,
          "velocity": 0.8503937007874016,
          "duration": 0.140625
        },
        {
          "name": "F4",
          "midi": 65,
          "time": 409.604166666666,
          "velocity": 0.7795275590551181,
          "duration": 0.13020833333337123
        },
        {
          "name": "D4",
          "midi": 62,
          "time": 409.74479166666606,
          "velocity": 0.905511811023622,
          "duration": 0.23958333333331439
        },
        {
          "name": "F4",
          "midi": 65,
          "time": 410.0156249999994,
          "velocity": 0.937007874015748,
          "duration": 0.26041666666662877
        },
        {
          "name": "G4",
          "midi": 67,
          "time": 410.2395833333327,
          "velocity": 0.8818897637795275,
          "duration": 0.11458333333331439
        },
        {
          "name": "G4",
          "midi": 67,
          "time": 410.4999999999993,
          "velocity": 0.9212598425196851,
          "duration": 0.421875
        },
        {
          "name": "G4",
          "midi": 67,
          "time": 410.994791666666,
          "velocity": 0.9212598425196851,
          "duration": 0.4375
        },
        {
          "name": "G4",
          "midi": 67,
          "time": 411.4999999999993,
          "velocity": 0.8582677165354331,
          "duration": 0.140625
        },
        {
          "name": "F4",
          "midi": 65,
          "time": 411.604166666666,
          "velocity": 0.8031496062992126,
          "duration": 0.125
        },
        {
          "name": "D4",
          "midi": 62,
          "time": 411.7343749999993,
          "velocity": 0.905511811023622,
          "duration": 0.2604166666666856
        },
        {
          "name": "F4",
          "midi": 65,
          "time": 411.9843749999993,
          "velocity": 0.9212598425196851,
          "duration": 0.2604166666666856
        },
        {
          "name": "G4",
          "midi": 67,
          "time": 412.2187499999993,
          "velocity": 0.8503937007874016,
          "duration": 0.26562500000005684
        },
        {
          "name": "F4",
          "midi": 65,
          "time": 412.4583333333327,
          "velocity": 0.937007874015748,
          "duration": 0.22916666666668561
        },
        {
          "name": "D4",
          "midi": 62,
          "time": 412.6718749999994,
          "velocity": 0.8503937007874016,
          "duration": 0.2604166666666856
        },
        {
          "name": "G4",
          "midi": 67,
          "time": 412.9531249999994,
          "velocity": 0.8976377952755905,
          "duration": 0.5572916666666288
        },
        {
          "name": "F4",
          "midi": 65,
          "time": 413.4739583333327,
          "velocity": 0.8346456692913385,
          "duration": 0.24479166666668561
        },
        {
          "name": "D4",
          "midi": 62,
          "time": 413.6302083333327,
          "velocity": 0.6614173228346457,
          "duration": 0.34375000000005684
        },
        {
          "name": "G4",
          "midi": 67,
          "time": 413.96354166666606,
          "velocity": 0.8818897637795275,
          "duration": 0.19270833333337123
        },
        {
          "name": "G4",
          "midi": 67,
          "time": 414.23958333333275,
          "velocity": 0.905511811023622,
          "duration": 0.5416666666666856
        },
        {
          "name": "A#4",
          "midi": 70,
          "time": 414.74999999999943,
          "velocity": 0.8976377952755905,
          "duration": 0.078125
        },
        {
          "name": "G4",
          "midi": 67,
          "time": 414.98437499999943,
          "velocity": 0.8818897637795275,
          "duration": 0.5416666666666288
        },
        {
          "name": "A#4",
          "midi": 70,
          "time": 415.45833333333275,
          "velocity": 0.8818897637795275,
          "duration": 0.11979166666662877
        },
        {
          "name": "D5",
          "midi": 74,
          "time": 415.7083333333327,
          "velocity": 0.937007874015748,
          "duration": 0.453125
        },
        {
          "name": "D5",
          "midi": 74,
          "time": 416.2395833333327,
          "velocity": 0.8740157480314961,
          "duration": 0.14583333333331439
        },
        {
          "name": "D5",
          "midi": 74,
          "time": 416.4999999999993,
          "velocity": 0.8818897637795275,
          "duration": 0.125
        },
        {
          "name": "D5",
          "midi": 74,
          "time": 416.75520833333263,
          "velocity": 0.905511811023622,
          "duration": 0.109375
        },
        {
          "name": "C#5",
          "midi": 73,
          "time": 416.9843749999993,
          "velocity": 0.9212598425196851,
          "duration": 0.171875
        },
        {
          "name": "C5",
          "midi": 72,
          "time": 417.25520833333263,
          "velocity": 0.8740157480314961,
          "duration": 0.13020833333331439
        },
        {
          "name": "A#4",
          "midi": 70,
          "time": 417.50520833333263,
          "velocity": 0.937007874015748,
          "duration": 0.15625
        },
        {
          "name": "A4",
          "midi": 69,
          "time": 417.7499999999993,
          "velocity": 0.8267716535433071,
          "duration": 0.13020833333331439
        },
        {
          "name": "G4",
          "midi": 67,
          "time": 417.7499999999993,
          "velocity": 0.8503937007874016,
          "duration": 0.11458333333331439
        },
        {
          "name": "G4",
          "midi": 67,
          "time": 417.9999999999993,
          "velocity": 0.8976377952755905,
          "duration": 0.3489583333333144
        },
        {
          "name": "G4",
          "midi": 67,
          "time": 418.4687499999993,
          "velocity": 0.9212598425196851,
          "duration": 0.421875
        },
        {
          "name": "G4",
          "midi": 67,
          "time": 418.98958333333263,
          "velocity": 0.937007874015748,
          "duration": 0.4010416666666856
        },
        {
          "name": "G4",
          "midi": 67,
          "time": 419.479166666666,
          "velocity": 0.8740157480314961,
          "duration": 0.140625
        },
        {
          "name": "F4",
          "midi": 65,
          "time": 419.5937499999993,
          "velocity": 0.8582677165354331,
          "duration": 0.13541666666668561
        },
        {
          "name": "D4",
          "midi": 62,
          "time": 419.7395833333327,
          "velocity": 0.8818897637795275,
          "duration": 0.23958333333337123
        },
        {
          "name": "F4",
          "midi": 65,
          "time": 419.9687499999994,
          "velocity": 0.8346456692913385,
          "duration": 0.2760416666666856
        },
        {
          "name": "G4",
          "midi": 67,
          "time": 420.22395833333275,
          "velocity": 0.8582677165354331,
          "duration": 0.27604166666662877
        },
        {
          "name": "F4",
          "midi": 65,
          "time": 420.4687499999994,
          "velocity": 0.937007874015748,
          "duration": 0.23958333333337123
        },
        {
          "name": "D4",
          "midi": 62,
          "time": 420.69791666666606,
          "velocity": 0.8740157480314961,
          "duration": 0.2760416666666856
        },
        {
          "name": "G4",
          "midi": 67,
          "time": 420.95833333333275,
          "velocity": 0.905511811023622,
          "duration": 0.5364583333333144
        },
        {
          "name": "F4",
          "midi": 65,
          "time": 421.46354166666606,
          "velocity": 0.8976377952755905,
          "duration": 0.23958333333337123
        },
        {
          "name": "D4",
          "midi": 62,
          "time": 421.69270833333275,
          "velocity": 0.8503937007874016,
          "duration": 0.234375
        },
        {
          "name": "G4",
          "midi": 67,
          "time": 421.96874999999943,
          "velocity": 0.8267716535433071,
          "duration": 0.171875
        },
        {
          "name": "G4",
          "midi": 67,
          "time": 422.23958333333275,
          "velocity": 0.8976377952755905,
          "duration": 0.5364583333333144
        },
        {
          "name": "A#4",
          "midi": 70,
          "time": 422.72395833333275,
          "velocity": 0.8267716535433071,
          "duration": 0.08333333333331439
        },
        {
          "name": "G4",
          "midi": 67,
          "time": 423.00520833333275,
          "velocity": 0.8267716535433071,
          "duration": 0.546875
        },
        {
          "name": "A#4",
          "midi": 70,
          "time": 423.48437499999943,
          "velocity": 0.7952755905511811,
          "duration": 0.109375
        },
        {
          "name": "G4",
          "midi": 67,
          "time": 423.7604166666661,
          "velocity": 0.8818897637795275,
          "duration": 0.4635416666666856
        },
        {
          "name": "G4",
          "midi": 67,
          "time": 424.2708333333328,
          "velocity": 0.7874015748031497,
          "duration": 0.13020833333331439
        },
        {
          "name": "G4",
          "midi": 67,
          "time": 424.4947916666661,
          "velocity": 0.8740157480314961,
          "duration": 0.390625
        },
        {
          "name": "G4",
          "midi": 67,
          "time": 424.9791666666661,
          "velocity": 0.8976377952755905,
          "duration": 0.4114583333333144
        },
        {
          "name": "G4",
          "midi": 67,
          "time": 425.46874999999943,
          "velocity": 0.8740157480314961,
          "duration": 0.15104166666662877
        },
        {
          "name": "F4",
          "midi": 65,
          "time": 425.58333333333275,
          "velocity": 0.8110236220472441,
          "duration": 0.11979166666662877
        },
        {
          "name": "D4",
          "midi": 62,
          "time": 425.7083333333327,
          "velocity": 0.905511811023622,
          "duration": 0.296875
        },
        {
          "name": "F4",
          "midi": 65,
          "time": 425.979166666666,
          "velocity": 0.9212598425196851,
          "duration": 0.3020833333333144
        },
        {
          "name": "G4",
          "midi": 67,
          "time": 426.244791666666,
          "velocity": 0.8267716535433071,
          "duration": 0.13541666666662877
        },
        {
          "name": "G4",
          "midi": 67,
          "time": 426.50520833333263,
          "velocity": 0.9212598425196851,
          "duration": 0.4114583333333144
        },
        {
          "name": "G4",
          "midi": 67,
          "time": 426.99479166666595,
          "velocity": 0.8582677165354331,
          "duration": 0.4427083333333144
        },
        {
          "name": "G4",
          "midi": 67,
          "time": 427.5052083333326,
          "velocity": 0.8818897637795275,
          "duration": 0.14583333333331439
        },
        {
          "name": "D5",
          "midi": 74,
          "time": 427.7604166666659,
          "velocity": 0.937007874015748,
          "duration": 0.3802083333333144
        },
        {
          "name": "D5",
          "midi": 74,
          "time": 428.2604166666659,
          "velocity": 0.9212598425196851,
          "duration": 0.11458333333331439
        },
        {
          "name": "D5",
          "midi": 74,
          "time": 428.4843749999992,
          "velocity": 0.905511811023622,
          "duration": 0.11979166666668561
        },
        {
          "name": "D5",
          "midi": 74,
          "time": 428.7135416666659,
          "velocity": 0.8818897637795275,
          "duration": 0.13541666666668561
        },
        {
          "name": "C#5",
          "midi": 73,
          "time": 428.9583333333326,
          "velocity": 0.9606299212598425,
          "duration": 0.16145833333331439
        },
        {
          "name": "C5",
          "midi": 72,
          "time": 429.2083333333326,
          "velocity": 0.8818897637795275,
          "duration": 0.140625
        },
        {
          "name": "B4",
          "midi": 71,
          "time": 429.45312499999926,
          "velocity": 0.8740157480314961,
          "duration": 0.15625
        },
        {
          "name": "A#4",
          "midi": 70,
          "time": 429.71354166666595,
          "velocity": 0.9606299212598425,
          "duration": 0.16666666666668561
        },
        {
          "name": "A4",
          "midi": 69,
          "time": 429.97395833333263,
          "velocity": 0.8740157480314961,
          "duration": 0.18229166666668561
        },
        {
          "name": "G4",
          "midi": 67,
          "time": 430.244791666666,
          "velocity": 0.937007874015748,
          "duration": 0.171875
        },
        {
          "name": "G4",
          "midi": 67,
          "time": 430.4999999999993,
          "velocity": 0.905511811023622,
          "duration": 0.16666666666668561
        },
        {
          "name": "E4",
          "midi": 64,
          "time": 430.713541666666,
          "velocity": 0.7007874015748031,
          "duration": 0.07291666666668561
        },
        {
          "name": "G4",
          "midi": 67,
          "time": 430.979166666666,
          "velocity": 0.9212598425196851,
          "duration": 0.4270833333333144
        },
        {
          "name": "G4",
          "midi": 67,
          "time": 431.479166666666,
          "velocity": 0.8346456692913385,
          "duration": 0.11979166666668561
        },
        {
          "name": "F4",
          "midi": 65,
          "time": 431.572916666666,
          "velocity": 0.7874015748031497,
          "duration": 0.11979166666668561
        },
        {
          "name": "D4",
          "midi": 62,
          "time": 431.6874999999994,
          "velocity": 0.8503937007874016,
          "duration": 0.2916666666666856
        },
        {
          "name": "F4",
          "midi": 65,
          "time": 431.9531249999994,
          "velocity": 0.9212598425196851,
          "duration": 0.2916666666666856
        },
        {
          "name": "G4",
          "midi": 67,
          "time": 432.21354166666606,
          "velocity": 0.8503937007874016,
          "duration": 0.19791666666668561
        },
        {
          "name": "G4",
          "midi": 67,
          "time": 432.49999999999943,
          "velocity": 0.905511811023622,
          "duration": 0.2604166666666856
        },
        {
          "name": "F4",
          "midi": 65,
          "time": 432.6979166666661,
          "velocity": 0.7086614173228346,
          "duration": 0.25
        },
        {
          "name": "G4",
          "midi": 67,
          "time": 432.9791666666661,
          "velocity": 0.8740157480314961,
          "duration": 0.27083333333337123
        },
        {
          "name": "F4",
          "midi": 65,
          "time": 433.2239583333328,
          "velocity": 0.8976377952755905,
          "duration": 0.22916666666668561
        },
        {
          "name": "D4",
          "midi": 62,
          "time": 433.4583333333328,
          "velocity": 0.8818897637795275,
          "duration": 0.28125
        },
        {
          "name": "F4",
          "midi": 65,
          "time": 433.7083333333328,
          "velocity": 0.905511811023622,
          "duration": 0.1875
        },
        {
          "name": "F4",
          "midi": 65,
          "time": 433.9791666666661,
          "velocity": 0.9212598425196851,
          "duration": 0.296875
        },
        {
          "name": "G4",
          "midi": 67,
          "time": 434.2395833333328,
          "velocity": 0.7795275590551181,
          "duration": 0.17708333333331439
        },
        {
          "name": "G4",
          "midi": 67,
          "time": 434.5104166666661,
          "velocity": 0.8976377952755905,
          "duration": 0.3854166666666856
        },
        {
          "name": "G4",
          "midi": 67,
          "time": 434.9791666666661,
          "velocity": 0.8818897637795275,
          "duration": 0.4635416666666856
        },
        {
          "name": "F4",
          "midi": 65,
          "time": 435.4583333333328,
          "velocity": 0.8110236220472441,
          "duration": 0.17708333333331439
        },
        {
          "name": "G4",
          "midi": 67,
          "time": 435.7239583333328,
          "velocity": 0.9763779527559056,
          "duration": 0.4739583333333144
        },
        {
          "name": "F4",
          "midi": 65,
          "time": 436.2291666666661,
          "velocity": 0.937007874015748,
          "duration": 0.19791666666668561
        },
        {
          "name": "G4",
          "midi": 67,
          "time": 436.4947916666661,
          "velocity": 0.937007874015748,
          "duration": 0.4427083333333144
        },
        {
          "name": "G4",
          "midi": 67,
          "time": 437.02083333333275,
          "velocity": 0.937007874015748,
          "duration": 0.390625
        },
        {
          "name": "G4",
          "midi": 67,
          "time": 437.49479166666606,
          "velocity": 0.9212598425196851,
          "duration": 0.15625
        },
        {
          "name": "F4",
          "midi": 65,
          "time": 437.6249999999994,
          "velocity": 0.9212598425196851,
          "duration": 0.13541666666668561
        },
        {
          "name": "D4",
          "midi": 62,
          "time": 437.75520833333275,
          "velocity": 0.905511811023622,
          "duration": 0.2864583333333144
        },
        {
          "name": "F4",
          "midi": 65,
          "time": 438.0156249999994,
          "velocity": 0.9448818897637795,
          "duration": 0.2604166666666856
        },
        {
          "name": "G4",
          "midi": 67,
          "time": 438.24479166666606,
          "velocity": 0.8818897637795275,
          "duration": 0.17708333333331439
        },
        {
          "name": "G4",
          "midi": 67,
          "time": 438.5156249999994,
          "velocity": 0.9448818897637795,
          "duration": 0.34375
        },
        {
          "name": "G4",
          "midi": 67,
          "time": 438.9843749999994,
          "velocity": 0.9448818897637795,
          "duration": 0.4635416666666856
        },
        {
          "name": "G4",
          "midi": 67,
          "time": 439.4999999999994,
          "velocity": 0.8818897637795275,
          "duration": 0.140625
        },
        {
          "name": "F4",
          "midi": 65,
          "time": 439.6145833333327,
          "velocity": 0.8110236220472441,
          "duration": 0.125
        },
        {
          "name": "D4",
          "midi": 62,
          "time": 439.7343749999994,
          "velocity": 0.8976377952755905,
          "duration": 0.2864583333333144
        },
        {
          "name": "F4",
          "midi": 65,
          "time": 439.994791666666,
          "velocity": 0.9448818897637795,
          "duration": 0.2552083333333144
        },
        {
          "name": "G4",
          "midi": 67,
          "time": 440.229166666666,
          "velocity": 0.9212598425196851,
          "duration": 0.21875
        },
        {
          "name": "F4",
          "midi": 65,
          "time": 440.463541666666,
          "velocity": 0.9212598425196851,
          "duration": 0.22916666666668561
        },
        {
          "name": "D4",
          "midi": 62,
          "time": 440.6927083333327,
          "velocity": 0.8267716535433071,
          "duration": 0.23958333333331439
        },
        {
          "name": "G4",
          "midi": 67,
          "time": 440.963541666666,
          "velocity": 0.9448818897637795,
          "duration": 0.5364583333333712
        },
        {
          "name": "F4",
          "midi": 65,
          "time": 441.4739583333327,
          "velocity": 0.9212598425196851,
          "duration": 0.21354166666668561
        },
        {
          "name": "D4",
          "midi": 62,
          "time": 441.68229166666606,
          "velocity": 0.8503937007874016,
          "duration": 0.23958333333331439
        },
        {
          "name": "G4",
          "midi": 67,
          "time": 441.96354166666606,
          "velocity": 0.8740157480314961,
          "duration": 0.16666666666668561
        },
        {
          "name": "G4",
          "midi": 67,
          "time": 442.21874999999943,
          "velocity": 0.937007874015748,
          "duration": 0.5572916666666288
        },
        {
          "name": "A#4",
          "midi": 70,
          "time": 442.72395833333275,
          "velocity": 0.84251968503937,
          "duration": 0.109375
        },
        {
          "name": "G4",
          "midi": 67,
          "time": 442.98958333333275,
          "velocity": 0.8976377952755905,
          "duration": 0.53125
        },
        {
          "name": "A#4",
          "midi": 70,
          "time": 443.47395833333275,
          "velocity": 0.84251968503937,
          "duration": 0.125
        },
        {
          "name": "G4",
          "midi": 67,
          "time": 443.76562499999943,
          "velocity": 0.8976377952755905,
          "duration": 0.41145833333337123
        },
        {
          "name": "A#4",
          "midi": 70,
          "time": 443.78124999999943,
          "velocity": 0.8110236220472441,
          "duration": 0.026041666666685614
        },
        {
          "name": "D5",
          "midi": 74,
          "time": 444.2864583333328,
          "velocity": 0.905511811023622,
          "duration": 0.13020833333331439
        },
        {
          "name": "D5",
          "midi": 74,
          "time": 444.5104166666661,
          "velocity": 0.8582677165354331,
          "duration": 0.11979166666668561
        },
        {
          "name": "D5",
          "midi": 74,
          "time": 444.7656249999995,
          "velocity": 0.8740157480314961,
          "duration": 0.11458333333331439
        },
        {
          "name": "C#5",
          "midi": 73,
          "time": 444.9999999999995,
          "velocity": 0.9606299212598425,
          "duration": 0.15625
        },
        {
          "name": "C5",
          "midi": 72,
          "time": 445.2395833333328,
          "velocity": 0.8818897637795275,
          "duration": 0.125
        },
        {
          "name": "A#4",
          "midi": 70,
          "time": 445.4999999999995,
          "velocity": 0.9606299212598425,
          "duration": 0.14583333333331439
        },
        {
          "name": "A4",
          "midi": 69,
          "time": 445.7239583333328,
          "velocity": 0.8110236220472441,
          "duration": 0.140625
        },
        {
          "name": "G4",
          "midi": 67,
          "time": 445.9739583333328,
          "velocity": 0.9212598425196851,
          "duration": 0.359375
        },
        {
          "name": "G4",
          "midi": 67,
          "time": 446.4635416666661,
          "velocity": 0.9606299212598425,
          "duration": 0.3802083333333144
        },
        {
          "name": "G4",
          "midi": 67,
          "time": 446.96874999999943,
          "velocity": 0.937007874015748,
          "duration": 0.4322916666666856
        },
        {
          "name": "G4",
          "midi": 67,
          "time": 447.4791666666661,
          "velocity": 0.8818897637795275,
          "duration": 0.15104166666668561
        },
        {
          "name": "F4",
          "midi": 65,
          "time": 447.5989583333328,
          "velocity": 0.8818897637795275,
          "duration": 0.14583333333337123
        },
        {
          "name": "E4",
          "midi": 64,
          "time": 447.7343749999995,
          "velocity": 0.8267716535433071,
          "duration": 0.23958333333337123
        },
        {
          "name": "F4",
          "midi": 65,
          "time": 447.98958333333286,
          "velocity": 0.8346456692913385,
          "duration": 0.28125
        },
        {
          "name": "G4",
          "midi": 67,
          "time": 448.2447916666662,
          "velocity": 0.7795275590551181,
          "duration": 0.21875
        },
        {
          "name": "E4",
          "midi": 64,
          "time": 448.50520833333286,
          "velocity": 0.7637795275590551,
          "duration": 0.07291666666662877
        },
        {
          "name": "F4",
          "midi": 65,
          "time": 448.5729166666662,
          "velocity": 0.7637795275590551,
          "duration": 0.171875
        },
        {
          "name": "D4",
          "midi": 62,
          "time": 448.7656249999995,
          "velocity": 0.7559055118110236,
          "duration": 0.22395833333331439
        },
        {
          "name": "F4",
          "midi": 65,
          "time": 448.9739583333328,
          "velocity": 0.7401574803149606,
          "duration": 0.2916666666666856
        },
        {
          "name": "G4",
          "midi": 67,
          "time": 449.2343749999995,
          "velocity": 0.7322834645669292,
          "duration": 0.2864583333333144
        },
        {
          "name": "F4",
          "midi": 65,
          "time": 449.5052083333328,
          "velocity": 0.7165354330708661,
          "duration": 0.234375
        },
        {
          "name": "D4",
          "midi": 62,
          "time": 449.7239583333328,
          "velocity": 0.7086614173228346,
          "duration": 0.296875
        },
        {
          "name": "F4",
          "midi": 65,
          "time": 449.9947916666661,
          "velocity": 0.6929133858267716,
          "duration": 0.265625
        },
        {
          "name": "G4",
          "midi": 67,
          "time": 450.2291666666661,
          "velocity": 0.6850393700787402,
          "duration": 0.2864583333333144
        },
        {
          "name": "F4",
          "midi": 65,
          "time": 450.48437499999943,
          "velocity": 0.6692913385826772,
          "duration": 0.25
        },
        {
          "name": "D4",
          "midi": 62,
          "time": 450.71874999999943,
          "velocity": 0.6614173228346457,
          "duration": 0.30729166666662877
        },
        {
          "name": "G4",
          "midi": 67,
          "time": 450.98958333333275,
          "velocity": 0.6456692913385826,
          "duration": 0.3020833333333144
        },
        {
          "name": "F4",
          "midi": 65,
          "time": 451.2499999999994,
          "velocity": 0.6299212598425197,
          "duration": 0.2760416666666856
        },
        {
          "name": "D4",
          "midi": 62,
          "time": 451.4843749999994,
          "velocity": 0.6220472440944882,
          "duration": 0.31250000000005684
        },
        {
          "name": "G4",
          "midi": 67,
          "time": 451.73958333333275,
          "velocity": 0.6062992125984252,
          "duration": 0.3229166666666856
        },
        {
          "name": "F4",
          "midi": 65,
          "time": 452.0104166666661,
          "velocity": 0.5905511811023622,
          "duration": 0.2552083333333144
        },
        {
          "name": "D4",
          "midi": 62,
          "time": 452.2291666666661,
          "velocity": 0.5826771653543307,
          "duration": 0.30729166666662877
        },
        {
          "name": "G4",
          "midi": 67,
          "time": 452.48437499999943,
          "velocity": 0.5669291338582677,
          "duration": 0.296875
        },
        {
          "name": "F4",
          "midi": 65,
          "time": 452.71874999999943,
          "velocity": 0.5590551181102362,
          "duration": 0.28125
        },
        {
          "name": "D4",
          "midi": 62,
          "time": 452.97395833333275,
          "velocity": 0.5433070866141733,
          "duration": 0.39583333333337123
        },
        {
          "name": "F4",
          "midi": 65,
          "time": 453.1979166666661,
          "velocity": 0.5354330708661418,
          "duration": 0.3125
        },
        {
          "name": "G4",
          "midi": 67,
          "time": 453.46874999999943,
          "velocity": 0.5196850393700787,
          "duration": 0.2916666666666856
        },
        {
          "name": "F4",
          "midi": 65,
          "time": 453.7135416666661,
          "velocity": 0.5118110236220472,
          "duration": 0.21875
        },
        {
          "name": "F4",
          "midi": 65,
          "time": 453.99999999999943,
          "velocity": 0.49606299212598426,
          "duration": 0.296875
        },
        {
          "name": "G4",
          "midi": 67,
          "time": 454.25520833333275,
          "velocity": 0.48031496062992124,
          "duration": 0.21875
        },
        {
          "name": "G4",
          "midi": 67,
          "time": 454.52083333333275,
          "velocity": 0.47244094488188976,
          "duration": 0.4166666666666856
        },
        {
          "name": "G4",
          "midi": 67,
          "time": 455.0104166666661,
          "velocity": 0.44881889763779526,
          "duration": 0.453125
        },
        {
          "name": "G4",
          "midi": 67,
          "time": 455.5104166666661,
          "velocity": 0.4251968503937008,
          "duration": 0.140625
        },
        {
          "name": "F4",
          "midi": 65,
          "time": 455.60937499999943,
          "velocity": 0.41732283464566927,
          "duration": 0.140625
        },
        {
          "name": "D4",
          "midi": 62,
          "time": 455.7291666666661,
          "velocity": 0.4094488188976378,
          "duration": 0.2864583333333144
        },
        {
          "name": "F4",
          "midi": 65,
          "time": 455.96874999999943,
          "velocity": 0.4015748031496063,
          "duration": 0.29166666666662877
        },
        {
          "name": "G4",
          "midi": 67,
          "time": 456.22395833333275,
          "velocity": 0.3858267716535433,
          "duration": 0.28125
        },
        {
          "name": "F4",
          "midi": 65,
          "time": 456.47916666666606,
          "velocity": 0.3700787401574803,
          "duration": 0.21875
        },
        {
          "name": "D4",
          "midi": 62,
          "time": 456.68229166666606,
          "velocity": 0.36220472440944884,
          "duration": 0.30208333333337123
        },
        {
          "name": "G4",
          "midi": 67,
          "time": 456.95833333333275,
          "velocity": 0.3464566929133858,
          "duration": 0.5625000000000568
        },
        {
          "name": "F4",
          "midi": 65,
          "time": 457.4947916666661,
          "velocity": 0.3228346456692913,
          "duration": 0.2552083333333144
        },
        {
          "name": "D4",
          "midi": 62,
          "time": 457.7135416666661,
          "velocity": 0.31496062992125984,
          "duration": 0.18229166666662877
        },
        {
          "name": "G4",
          "midi": 67,
          "time": 457.96874999999943,
          "velocity": 0.2992125984251969,
          "duration": 0.15104166666668561
        },
        {
          "name": "G4",
          "midi": 67,
          "time": 458.1979166666661,
          "velocity": 0.29133858267716534,
          "duration": 0.5572916666666288
        },
        {
          "name": "A#4",
          "midi": 70,
          "time": 458.70312499999943,
          "velocity": 0.2677165354330709,
          "duration": 0.09375
        },
        {
          "name": "G4",
          "midi": 67,
          "time": 458.9635416666661,
          "velocity": 0.25196850393700787,
          "duration": 0.609375
        },
        {
          "name": "A#4",
          "midi": 70,
          "time": 459.48437499999943,
          "velocity": 0.2283464566929134,
          "duration": 0.11979166666668561
        },
        {
          "name": "G4",
          "midi": 67,
          "time": 459.7239583333328,
          "velocity": 0.2125984251968504,
          "duration": 0.625
        },
        {
          "name": "A#4",
          "midi": 70,
          "time": 460.2343749999995,
          "velocity": 0.1889763779527559,
          "duration": 0.125
        },
        {
          "name": "G4",
          "midi": 67,
          "time": 460.4791666666662,
          "velocity": 0.1732283464566929,
          "duration": 0.6145833333333712
        },
        {
          "name": "A#4",
          "midi": 70,
          "time": 460.95833333333286,
          "velocity": 0.14960629921259844,
          "duration": 0.140625
        },
        {
          "name": "G4",
          "midi": 67,
          "time": 461.2291666666662,
          "velocity": 0.14173228346456693,
          "duration": 0.609375
        },
        {
          "name": "A#4",
          "midi": 70,
          "time": 461.73958333333286,
          "velocity": 0.11811023622047244,
          "duration": 0.13020833333331439
        },
        {
          "name": "D5",
          "midi": 74,
          "time": 461.97395833333286,
          "velocity": 0.10236220472440945,
          "duration": 0.02604166666662877
        },
        {
          "name": "C5",
          "midi": 72,
          "time": 461.9791666666662,
          "velocity": 0.10236220472440945,
          "duration": 0.020833333333314386
        }
      ],
      "controlChanges": {
        "32": [
          {
            "number": 32,
            "time": 0,
            "value": 0
          }
        ]
      },
      "id": 8,
      "instrumentNumber": 30,
      "instrument": "distortion guitar",
      "instrumentFamily": "guitar",
      "channelNumber": 8,
      "isPercussion": false
    },
    {
      "startTime": 1.9999999999999998,
      "duration": 461.91666666666595,
      "length": 1038,
      "notes": [
        {
          "name": "G2",
          "midi": 43,
          "time": 1.9999999999999998,
          "velocity": 0.5669291338582677,
          "duration": 0.6250000000000002
        },
        {
          "name": "F#2",
          "midi": 42,
          "time": 4.010416666666667,
          "velocity": 0.5511811023622047,
          "duration": 0.619791666666667
        },
        {
          "name": "E2",
          "midi": 40,
          "time": 6.015625000000001,
          "velocity": 0.6692913385826772,
          "duration": 0.609375
        },
        {
          "name": "E2",
          "midi": 40,
          "time": 8.020833333333334,
          "velocity": 0.6850393700787402,
          "duration": 0.6458333333333339
        },
        {
          "name": "B1",
          "midi": 35,
          "time": 9.750000000000002,
          "velocity": 0.5196850393700787,
          "duration": 0.08854166666666607
        },
        {
          "name": "C2",
          "midi": 36,
          "time": 9.859375000000002,
          "velocity": 0.5354330708661418,
          "duration": 0.11458333333333393
        },
        {
          "name": "F2",
          "midi": 41,
          "time": 10.020833333333336,
          "velocity": 0.5354330708661418,
          "duration": 0.6770833333333339
        },
        {
          "name": "C2",
          "midi": 36,
          "time": 12.020833333333337,
          "velocity": 0.5354330708661418,
          "duration": 0.6770833333333339
        },
        {
          "name": "C2",
          "midi": 36,
          "time": 13.005208333333337,
          "velocity": 0.6141732283464567,
          "duration": 0.5989583333333339
        },
        {
          "name": "C2",
          "midi": 36,
          "time": 13.734375000000005,
          "velocity": 0.4566929133858268,
          "duration": 0.09375
        },
        {
          "name": "G2",
          "midi": 43,
          "time": 14.03645833333334,
          "velocity": 0.4881889763779528,
          "duration": 0.7552083333333339
        },
        {
          "name": "F#2",
          "midi": 42,
          "time": 15.00520833333334,
          "velocity": 0.6299212598425197,
          "duration": 0.6666666666666661
        },
        {
          "name": "E2",
          "midi": 40,
          "time": 16.036458333333336,
          "velocity": 0.4881889763779528,
          "duration": 0.7552083333333321
        },
        {
          "name": "F#2",
          "midi": 42,
          "time": 17.005208333333336,
          "velocity": 0.6299212598425197,
          "duration": 0.6666666666666679
        },
        {
          "name": "F#2",
          "midi": 42,
          "time": 17.76041666666667,
          "velocity": 0.5354330708661418,
          "duration": 0.109375
        },
        {
          "name": "G2",
          "midi": 43,
          "time": 18.02083333333334,
          "velocity": 0.5354330708661418,
          "duration": 0.6770833333333321
        },
        {
          "name": "D2",
          "midi": 38,
          "time": 18.76041666666667,
          "velocity": 0.4645669291338583,
          "duration": 0.05208333333333215
        },
        {
          "name": "E2",
          "midi": 40,
          "time": 18.859375000000004,
          "velocity": 0.6456692913385826,
          "duration": 0.08333333333333215
        },
        {
          "name": "G2",
          "midi": 43,
          "time": 19.005208333333336,
          "velocity": 0.6141732283464567,
          "duration": 0.5989583333333321
        },
        {
          "name": "G2",
          "midi": 43,
          "time": 19.734375,
          "velocity": 0.4566929133858268,
          "duration": 0.09375
        },
        {
          "name": "F#2",
          "midi": 42,
          "time": 20.020833333333332,
          "velocity": 0.5354330708661418,
          "duration": 0.6770833333333321
        },
        {
          "name": "A1",
          "midi": 33,
          "time": 20.760416666666664,
          "velocity": 0.4645669291338583,
          "duration": 0.05208333333333215
        },
        {
          "name": "B1",
          "midi": 35,
          "time": 20.859374999999996,
          "velocity": 0.6456692913385826,
          "duration": 0.08333333333333215
        },
        {
          "name": "F#2",
          "midi": 42,
          "time": 21.00520833333333,
          "velocity": 0.6141732283464567,
          "duration": 0.5989583333333321
        },
        {
          "name": "F#2",
          "midi": 42,
          "time": 21.734374999999993,
          "velocity": 0.4566929133858268,
          "duration": 0.09375
        },
        {
          "name": "E2",
          "midi": 40,
          "time": 21.999999999999993,
          "velocity": 0.5039370078740157,
          "duration": 0.640625
        },
        {
          "name": "E2",
          "midi": 40,
          "time": 22.76041666666666,
          "velocity": 0.5196850393700787,
          "duration": 0.08333333333333215
        },
        {
          "name": "E2",
          "midi": 40,
          "time": 23.020833333333325,
          "velocity": 0.47244094488188976,
          "duration": 0.6666666666666679
        },
        {
          "name": "B1",
          "midi": 35,
          "time": 23.755208333333325,
          "velocity": 0.4566929133858268,
          "duration": 0.11458333333333215
        },
        {
          "name": "C2",
          "midi": 36,
          "time": 23.869791666666657,
          "velocity": 0.48031496062992124,
          "duration": 0.10416666666666785
        },
        {
          "name": "E2",
          "midi": 40,
          "time": 24.005208333333325,
          "velocity": 0.44881889763779526,
          "duration": 0.7916666666666679
        },
        {
          "name": "E2",
          "midi": 40,
          "time": 24.890624999999993,
          "velocity": 0.4015748031496063,
          "duration": 0.06770833333333215
        },
        {
          "name": "E2",
          "midi": 40,
          "time": 25.026041666666657,
          "velocity": 0.5511811023622047,
          "duration": 0.04166666666666785
        },
        {
          "name": "E2",
          "midi": 40,
          "time": 25.255208333333325,
          "velocity": 0.6692913385826772,
          "duration": 0.38541666666666785
        },
        {
          "name": "E2",
          "midi": 40,
          "time": 25.74479166666666,
          "velocity": 0.6141732283464567,
          "duration": 0.16666666666666785
        },
        {
          "name": "F2",
          "midi": 41,
          "time": 26.02083333333333,
          "velocity": 0.5354330708661418,
          "duration": 0.6770833333333321
        },
        {
          "name": "C2",
          "midi": 36,
          "time": 26.76041666666666,
          "velocity": 0.4645669291338583,
          "duration": 0.05208333333333215
        },
        {
          "name": "D2",
          "midi": 38,
          "time": 26.859374999999993,
          "velocity": 0.6456692913385826,
          "duration": 0.08333333333333215
        },
        {
          "name": "F2",
          "midi": 41,
          "time": 27.005208333333325,
          "velocity": 0.6141732283464567,
          "duration": 0.5989583333333321
        },
        {
          "name": "F2",
          "midi": 41,
          "time": 27.73437499999999,
          "velocity": 0.4566929133858268,
          "duration": 0.09375
        },
        {
          "name": "C2",
          "midi": 36,
          "time": 28.02083333333332,
          "velocity": 0.5354330708661418,
          "duration": 0.6770833333333321
        },
        {
          "name": "G1",
          "midi": 31,
          "time": 28.760416666666654,
          "velocity": 0.4645669291338583,
          "duration": 0.05208333333333215
        },
        {
          "name": "A1",
          "midi": 33,
          "time": 28.859374999999986,
          "velocity": 0.6456692913385826,
          "duration": 0.08333333333333215
        },
        {
          "name": "C2",
          "midi": 36,
          "time": 29.005208333333318,
          "velocity": 0.6141732283464567,
          "duration": 0.5989583333333321
        },
        {
          "name": "C2",
          "midi": 36,
          "time": 29.734374999999982,
          "velocity": 0.4566929133858268,
          "duration": 0.09375
        },
        {
          "name": "G2",
          "midi": 43,
          "time": 30.020833333333314,
          "velocity": 0.49606299212598426,
          "duration": 0.06770833333333215
        },
        {
          "name": "G2",
          "midi": 43,
          "time": 30.255208333333314,
          "velocity": 0.49606299212598426,
          "duration": 0.36979166666666785
        },
        {
          "name": "G2",
          "midi": 43,
          "time": 30.755208333333314,
          "velocity": 0.5354330708661418,
          "duration": 0.16145833333333215
        },
        {
          "name": "D2",
          "midi": 38,
          "time": 31.020833333333314,
          "velocity": 0.49606299212598426,
          "duration": 0.06770833333333215
        },
        {
          "name": "D2",
          "midi": 38,
          "time": 31.255208333333314,
          "velocity": 0.49606299212598426,
          "duration": 0.36979166666666785
        },
        {
          "name": "D2",
          "midi": 38,
          "time": 31.755208333333314,
          "velocity": 0.5354330708661418,
          "duration": 0.16145833333333215
        },
        {
          "name": "E2",
          "midi": 40,
          "time": 32.005208333333314,
          "velocity": 0.6299212598425197,
          "duration": 0.6666666666666643
        },
        {
          "name": "E2",
          "midi": 40,
          "time": 32.76041666666664,
          "velocity": 0.5354330708661418,
          "duration": 0.109375
        },
        {
          "name": "D2",
          "midi": 38,
          "time": 33.00520833333331,
          "velocity": 0.6299212598425197,
          "duration": 0.6666666666666643
        },
        {
          "name": "D2",
          "midi": 38,
          "time": 33.760416666666636,
          "velocity": 0.5354330708661418,
          "duration": 0.109375
        },
        {
          "name": "G2",
          "midi": 43,
          "time": 33.99999999999997,
          "velocity": 0.5669291338582677,
          "duration": 0.625
        },
        {
          "name": "G2",
          "midi": 43,
          "time": 34.744791666666636,
          "velocity": 0.4881889763779528,
          "duration": 0.078125
        },
        {
          "name": "G2",
          "midi": 43,
          "time": 34.994791666666636,
          "velocity": 0.4094488188976378,
          "duration": 0.0885416666666643
        },
        {
          "name": "G2",
          "midi": 43,
          "time": 35.249999999999964,
          "velocity": 0.48031496062992124,
          "duration": 0.3958333333333357
        },
        {
          "name": "G2",
          "midi": 43,
          "time": 35.765624999999964,
          "velocity": 0.5354330708661418,
          "duration": 0.1510416666666643
        },
        {
          "name": "F#2",
          "midi": 42,
          "time": 36.01041666666663,
          "velocity": 0.5511811023622047,
          "duration": 0.6197916666666643
        },
        {
          "name": "F#2",
          "midi": 42,
          "time": 36.75520833333329,
          "velocity": 0.4566929133858268,
          "duration": 0.1145833333333357
        },
        {
          "name": "F#2",
          "midi": 42,
          "time": 37.01041666666663,
          "velocity": 0.5039370078740157,
          "duration": 0.6354166666666643
        },
        {
          "name": "F#2",
          "midi": 42,
          "time": 37.74999999999996,
          "velocity": 0.5354330708661418,
          "duration": 0.125
        },
        {
          "name": "E2",
          "midi": 40,
          "time": 37.99999999999996,
          "velocity": 0.5511811023622047,
          "duration": 0.6458333333333357
        },
        {
          "name": "E2",
          "midi": 40,
          "time": 38.75520833333329,
          "velocity": 0.6456692913385826,
          "duration": 0.078125
        },
        {
          "name": "E2",
          "midi": 40,
          "time": 39.00520833333329,
          "velocity": 0.6456692913385826,
          "duration": 0.6197916666666643
        },
        {
          "name": "E2",
          "midi": 40,
          "time": 39.73437499999996,
          "velocity": 0.47244094488188976,
          "duration": 0.0729166666666643
        },
        {
          "name": "E2",
          "midi": 40,
          "time": 39.98437499999996,
          "velocity": 0.49606299212598426,
          "duration": 0.9114583333333357
        },
        {
          "name": "B1",
          "midi": 35,
          "time": 40.89062499999996,
          "velocity": 0.33070866141732286,
          "duration": 0.0885416666666714
        },
        {
          "name": "E2",
          "midi": 40,
          "time": 40.98958333333329,
          "velocity": 0.6141732283464567,
          "duration": 0.0885416666666643
        },
        {
          "name": "E2",
          "midi": 40,
          "time": 41.27083333333329,
          "velocity": 0.6141732283464567,
          "duration": 0.3385416666666643
        },
        {
          "name": "E2",
          "midi": 40,
          "time": 41.75520833333329,
          "velocity": 0.6141732283464567,
          "duration": 0.140625
        },
        {
          "name": "F2",
          "midi": 41,
          "time": 42.01041666666663,
          "velocity": 0.5511811023622047,
          "duration": 0.6197916666666643
        },
        {
          "name": "F2",
          "midi": 41,
          "time": 42.75520833333329,
          "velocity": 0.4566929133858268,
          "duration": 0.1145833333333357
        },
        {
          "name": "F2",
          "midi": 41,
          "time": 43.01041666666663,
          "velocity": 0.5039370078740157,
          "duration": 0.6354166666666643
        },
        {
          "name": "F2",
          "midi": 41,
          "time": 43.74999999999996,
          "velocity": 0.5354330708661418,
          "duration": 0.125
        },
        {
          "name": "C2",
          "midi": 36,
          "time": 43.99999999999996,
          "velocity": 0.5669291338582677,
          "duration": 0.625
        },
        {
          "name": "C2",
          "midi": 36,
          "time": 44.74479166666662,
          "velocity": 0.4881889763779528,
          "duration": 0.078125
        },
        {
          "name": "C2",
          "midi": 36,
          "time": 44.99479166666662,
          "velocity": 0.4094488188976378,
          "duration": 0.0885416666666643
        },
        {
          "name": "C2",
          "midi": 36,
          "time": 45.24999999999995,
          "velocity": 0.48031496062992124,
          "duration": 0.3958333333333357
        },
        {
          "name": "C2",
          "midi": 36,
          "time": 45.76562499999995,
          "velocity": 0.5354330708661418,
          "duration": 0.1510416666666643
        },
        {
          "name": "G2",
          "midi": 43,
          "time": 46.00520833333328,
          "velocity": 0.6299212598425197,
          "duration": 0.6666666666666643
        },
        {
          "name": "G2",
          "midi": 43,
          "time": 46.76041666666661,
          "velocity": 0.5354330708661418,
          "duration": 0.109375
        },
        {
          "name": "F#2",
          "midi": 42,
          "time": 47.02083333333327,
          "velocity": 0.49606299212598426,
          "duration": 0.0677083333333357
        },
        {
          "name": "F#2",
          "midi": 42,
          "time": 47.25520833333327,
          "velocity": 0.49606299212598426,
          "duration": 0.3697916666666643
        },
        {
          "name": "F#2",
          "midi": 42,
          "time": 47.75520833333327,
          "velocity": 0.5354330708661418,
          "duration": 0.1614583333333357
        },
        {
          "name": "E2",
          "midi": 40,
          "time": 48.00520833333327,
          "velocity": 0.6299212598425197,
          "duration": 0.6666666666666643
        },
        {
          "name": "E2",
          "midi": 40,
          "time": 48.7604166666666,
          "velocity": 0.5354330708661418,
          "duration": 0.109375
        },
        {
          "name": "F#2",
          "midi": 42,
          "time": 49.005208333333265,
          "velocity": 0.6299212598425197,
          "duration": 0.6666666666666643
        },
        {
          "name": "F#2",
          "midi": 42,
          "time": 49.76041666666659,
          "velocity": 0.5354330708661418,
          "duration": 0.109375
        },
        {
          "name": "G2",
          "midi": 43,
          "time": 50.02083333333326,
          "velocity": 0.5354330708661418,
          "duration": 0.6770833333333357
        },
        {
          "name": "D2",
          "midi": 38,
          "time": 50.76041666666659,
          "velocity": 0.4645669291338583,
          "duration": 0.0520833333333357
        },
        {
          "name": "E2",
          "midi": 40,
          "time": 50.85937499999993,
          "velocity": 0.6456692913385826,
          "duration": 0.0833333333333357
        },
        {
          "name": "G2",
          "midi": 43,
          "time": 51.005208333333265,
          "velocity": 0.6141732283464567,
          "duration": 0.5989583333333357
        },
        {
          "name": "G2",
          "midi": 43,
          "time": 51.734374999999936,
          "velocity": 0.4566929133858268,
          "duration": 0.09375
        },
        {
          "name": "F#2",
          "midi": 42,
          "time": 51.999999999999936,
          "velocity": 0.5669291338582677,
          "duration": 0.625
        },
        {
          "name": "F#2",
          "midi": 42,
          "time": 52.7447916666666,
          "velocity": 0.4881889763779528,
          "duration": 0.078125
        },
        {
          "name": "F#2",
          "midi": 42,
          "time": 52.9947916666666,
          "velocity": 0.4094488188976378,
          "duration": 0.0885416666666643
        },
        {
          "name": "F#2",
          "midi": 42,
          "time": 53.24999999999993,
          "velocity": 0.48031496062992124,
          "duration": 0.3958333333333357
        },
        {
          "name": "F#2",
          "midi": 42,
          "time": 53.76562499999993,
          "velocity": 0.5354330708661418,
          "duration": 0.1510416666666643
        },
        {
          "name": "E2",
          "midi": 40,
          "time": 53.99999999999993,
          "velocity": 0.5039370078740157,
          "duration": 0.640625
        },
        {
          "name": "E2",
          "midi": 40,
          "time": 54.76041666666659,
          "velocity": 0.5196850393700787,
          "duration": 0.0833333333333357
        },
        {
          "name": "E2",
          "midi": 40,
          "time": 55.020833333333265,
          "velocity": 0.47244094488188976,
          "duration": 0.6666666666666643
        },
        {
          "name": "B1",
          "midi": 35,
          "time": 55.755208333333265,
          "velocity": 0.4566929133858268,
          "duration": 0.1145833333333357
        },
        {
          "name": "C2",
          "midi": 36,
          "time": 55.8697916666666,
          "velocity": 0.48031496062992124,
          "duration": 0.1041666666666643
        },
        {
          "name": "E2",
          "midi": 40,
          "time": 56.005208333333265,
          "velocity": 0.44881889763779526,
          "duration": 0.7916666666666643
        },
        {
          "name": "E2",
          "midi": 40,
          "time": 56.89062499999993,
          "velocity": 0.4015748031496063,
          "duration": 0.0677083333333357
        },
        {
          "name": "E2",
          "midi": 40,
          "time": 57.0260416666666,
          "velocity": 0.5511811023622047,
          "duration": 0.0416666666666643
        },
        {
          "name": "E2",
          "midi": 40,
          "time": 57.255208333333265,
          "velocity": 0.6692913385826772,
          "duration": 0.3854166666666643
        },
        {
          "name": "E2",
          "midi": 40,
          "time": 57.74479166666659,
          "velocity": 0.6141732283464567,
          "duration": 0.1666666666666643
        },
        {
          "name": "F2",
          "midi": 41,
          "time": 57.99999999999992,
          "velocity": 0.5669291338582677,
          "duration": 0.625
        },
        {
          "name": "F2",
          "midi": 41,
          "time": 58.744791666666586,
          "velocity": 0.4881889763779528,
          "duration": 0.078125
        },
        {
          "name": "F2",
          "midi": 41,
          "time": 58.994791666666586,
          "velocity": 0.4094488188976378,
          "duration": 0.0885416666666643
        },
        {
          "name": "F2",
          "midi": 41,
          "time": 59.249999999999915,
          "velocity": 0.48031496062992124,
          "duration": 0.3958333333333357
        },
        {
          "name": "F2",
          "midi": 41,
          "time": 59.765624999999915,
          "velocity": 0.5354330708661418,
          "duration": 0.1510416666666643
        },
        {
          "name": "C2",
          "midi": 36,
          "time": 59.999999999999915,
          "velocity": 0.5669291338582677,
          "duration": 0.625
        },
        {
          "name": "C2",
          "midi": 36,
          "time": 60.74479166666658,
          "velocity": 0.4881889763779528,
          "duration": 0.078125
        },
        {
          "name": "C2",
          "midi": 36,
          "time": 60.99479166666658,
          "velocity": 0.4094488188976378,
          "duration": 0.0885416666666643
        },
        {
          "name": "C2",
          "midi": 36,
          "time": 61.24999999999991,
          "velocity": 0.48031496062992124,
          "duration": 0.3958333333333357
        },
        {
          "name": "C2",
          "midi": 36,
          "time": 61.76562499999991,
          "velocity": 0.5354330708661418,
          "duration": 0.1510416666666643
        },
        {
          "name": "G2",
          "midi": 43,
          "time": 62.005208333333236,
          "velocity": 0.6299212598425197,
          "duration": 0.6666666666666643
        },
        {
          "name": "G2",
          "midi": 43,
          "time": 62.760416666666565,
          "velocity": 0.5354330708661418,
          "duration": 0.109375
        },
        {
          "name": "F#2",
          "midi": 42,
          "time": 63.00520833333323,
          "velocity": 0.6299212598425197,
          "duration": 0.6666666666666643
        },
        {
          "name": "F#2",
          "midi": 42,
          "time": 63.76041666666656,
          "velocity": 0.5354330708661418,
          "duration": 0.109375
        },
        {
          "name": "E2",
          "midi": 40,
          "time": 64.00520833333323,
          "velocity": 0.6299212598425197,
          "duration": 0.6666666666666714
        },
        {
          "name": "E2",
          "midi": 40,
          "time": 64.76041666666657,
          "velocity": 0.5354330708661418,
          "duration": 0.109375
        },
        {
          "name": "F#2",
          "midi": 42,
          "time": 65.02083333333324,
          "velocity": 0.49606299212598426,
          "duration": 0.0677083333333286
        },
        {
          "name": "F#2",
          "midi": 42,
          "time": 65.25520833333324,
          "velocity": 0.49606299212598426,
          "duration": 0.3697916666666714
        },
        {
          "name": "F#2",
          "midi": 42,
          "time": 65.75520833333324,
          "velocity": 0.5354330708661418,
          "duration": 0.1614583333333286
        },
        {
          "name": "G2",
          "midi": 43,
          "time": 66.01041666666657,
          "velocity": 0.5511811023622047,
          "duration": 0.6197916666666714
        },
        {
          "name": "G2",
          "midi": 43,
          "time": 66.75520833333324,
          "velocity": 0.4566929133858268,
          "duration": 0.1145833333333286
        },
        {
          "name": "G2",
          "midi": 43,
          "time": 67.01041666666657,
          "velocity": 0.5039370078740157,
          "duration": 0.6354166666666714
        },
        {
          "name": "G2",
          "midi": 43,
          "time": 67.74999999999991,
          "velocity": 0.5354330708661418,
          "duration": 0.125
        },
        {
          "name": "F#2",
          "midi": 42,
          "time": 67.99999999999991,
          "velocity": 0.5669291338582677,
          "duration": 0.625
        },
        {
          "name": "F#2",
          "midi": 42,
          "time": 68.74479166666659,
          "velocity": 0.4881889763779528,
          "duration": 0.078125
        },
        {
          "name": "F#2",
          "midi": 42,
          "time": 68.99479166666659,
          "velocity": 0.4094488188976378,
          "duration": 0.0885416666666714
        },
        {
          "name": "F#2",
          "midi": 42,
          "time": 69.24999999999993,
          "velocity": 0.48031496062992124,
          "duration": 0.3958333333333286
        },
        {
          "name": "F#2",
          "midi": 42,
          "time": 69.76562499999993,
          "velocity": 0.5354330708661418,
          "duration": 0.1510416666666714
        },
        {
          "name": "E2",
          "midi": 40,
          "time": 69.99999999999993,
          "velocity": 0.5511811023622047,
          "duration": 0.6458333333333286
        },
        {
          "name": "E2",
          "midi": 40,
          "time": 70.75520833333326,
          "velocity": 0.6456692913385826,
          "duration": 0.078125
        },
        {
          "name": "E2",
          "midi": 40,
          "time": 71.00520833333326,
          "velocity": 0.6456692913385826,
          "duration": 0.6197916666666714
        },
        {
          "name": "E2",
          "midi": 40,
          "time": 71.73437499999993,
          "velocity": 0.47244094488188976,
          "duration": 0.0729166666666714
        },
        {
          "name": "E2",
          "midi": 40,
          "time": 71.98437499999993,
          "velocity": 0.49606299212598426,
          "duration": 0.9114583333333286
        },
        {
          "name": "B1",
          "midi": 35,
          "time": 72.89062499999993,
          "velocity": 0.33070866141732286,
          "duration": 0.08854166666665719
        },
        {
          "name": "E2",
          "midi": 40,
          "time": 72.98958333333326,
          "velocity": 0.6141732283464567,
          "duration": 0.0885416666666714
        },
        {
          "name": "E2",
          "midi": 40,
          "time": 73.27083333333326,
          "velocity": 0.6141732283464567,
          "duration": 0.3385416666666714
        },
        {
          "name": "E2",
          "midi": 40,
          "time": 73.75520833333326,
          "velocity": 0.6141732283464567,
          "duration": 0.140625
        },
        {
          "name": "F2",
          "midi": 41,
          "time": 74.02083333333326,
          "velocity": 0.5354330708661418,
          "duration": 0.6770833333333286
        },
        {
          "name": "C2",
          "midi": 36,
          "time": 74.76041666666659,
          "velocity": 0.4645669291338583,
          "duration": 0.052083333333328596
        },
        {
          "name": "D2",
          "midi": 38,
          "time": 74.85937499999991,
          "velocity": 0.6456692913385826,
          "duration": 0.0833333333333286
        },
        {
          "name": "F2",
          "midi": 41,
          "time": 75.00520833333324,
          "velocity": 0.6141732283464567,
          "duration": 0.5989583333333286
        },
        {
          "name": "F2",
          "midi": 41,
          "time": 75.7343749999999,
          "velocity": 0.4566929133858268,
          "duration": 0.09375
        },
        {
          "name": "C2",
          "midi": 36,
          "time": 76.01041666666657,
          "velocity": 0.5511811023622047,
          "duration": 0.6197916666666714
        },
        {
          "name": "C2",
          "midi": 36,
          "time": 76.75520833333324,
          "velocity": 0.4566929133858268,
          "duration": 0.1145833333333286
        },
        {
          "name": "C2",
          "midi": 36,
          "time": 77.01041666666657,
          "velocity": 0.5039370078740157,
          "duration": 0.6354166666666714
        },
        {
          "name": "C2",
          "midi": 36,
          "time": 77.74999999999991,
          "velocity": 0.5354330708661418,
          "duration": 0.125
        },
        {
          "name": "G2",
          "midi": 43,
          "time": 78.00520833333324,
          "velocity": 0.6299212598425197,
          "duration": 0.6666666666666714
        },
        {
          "name": "G2",
          "midi": 43,
          "time": 78.76041666666659,
          "velocity": 0.5354330708661418,
          "duration": 0.109375
        },
        {
          "name": "D2",
          "midi": 38,
          "time": 79.00520833333326,
          "velocity": 0.6299212598425197,
          "duration": 0.6666666666666714
        },
        {
          "name": "D2",
          "midi": 38,
          "time": 79.7604166666666,
          "velocity": 0.5354330708661418,
          "duration": 0.109375
        },
        {
          "name": "E2",
          "midi": 40,
          "time": 80.03645833333327,
          "velocity": 0.4881889763779528,
          "duration": 0.7552083333333286
        },
        {
          "name": "E2",
          "midi": 40,
          "time": 80.89583333333327,
          "velocity": 0.6456692913385826,
          "duration": 0.0989583333333286
        },
        {
          "name": "D2",
          "midi": 38,
          "time": 81.00520833333327,
          "velocity": 0.6299212598425197,
          "duration": 0.6666666666666714
        },
        {
          "name": "D2",
          "midi": 38,
          "time": 81.76041666666661,
          "velocity": 0.5354330708661418,
          "duration": 0.109375
        },
        {
          "name": "G2",
          "midi": 43,
          "time": 81.99999999999994,
          "velocity": 0.5669291338582677,
          "duration": 0.625
        },
        {
          "name": "G2",
          "midi": 43,
          "time": 82.74479166666661,
          "velocity": 0.4881889763779528,
          "duration": 0.078125
        },
        {
          "name": "G2",
          "midi": 43,
          "time": 82.99479166666661,
          "velocity": 0.4094488188976378,
          "duration": 0.0885416666666714
        },
        {
          "name": "G2",
          "midi": 43,
          "time": 83.24999999999996,
          "velocity": 0.48031496062992124,
          "duration": 0.3958333333333286
        },
        {
          "name": "G2",
          "midi": 43,
          "time": 83.76562499999996,
          "velocity": 0.5354330708661418,
          "duration": 0.1510416666666714
        },
        {
          "name": "F#2",
          "midi": 42,
          "time": 84.01041666666663,
          "velocity": 0.5511811023622047,
          "duration": 0.6197916666666714
        },
        {
          "name": "F#2",
          "midi": 42,
          "time": 84.7552083333333,
          "velocity": 0.4566929133858268,
          "duration": 0.1145833333333286
        },
        {
          "name": "F#2",
          "midi": 42,
          "time": 85.01041666666663,
          "velocity": 0.5039370078740157,
          "duration": 0.6354166666666714
        },
        {
          "name": "F#2",
          "midi": 42,
          "time": 85.74999999999997,
          "velocity": 0.5354330708661418,
          "duration": 0.125
        },
        {
          "name": "E2",
          "midi": 40,
          "time": 85.99999999999997,
          "velocity": 0.5039370078740157,
          "duration": 0.640625
        },
        {
          "name": "E2",
          "midi": 40,
          "time": 86.76041666666664,
          "velocity": 0.5196850393700787,
          "duration": 0.0833333333333286
        },
        {
          "name": "E2",
          "midi": 40,
          "time": 87.0208333333333,
          "velocity": 0.47244094488188976,
          "duration": 0.6666666666666714
        },
        {
          "name": "B1",
          "midi": 35,
          "time": 87.7552083333333,
          "velocity": 0.4566929133858268,
          "duration": 0.1145833333333286
        },
        {
          "name": "C2",
          "midi": 36,
          "time": 87.86979166666663,
          "velocity": 0.48031496062992124,
          "duration": 0.1041666666666714
        },
        {
          "name": "E2",
          "midi": 40,
          "time": 88.0052083333333,
          "velocity": 0.44881889763779526,
          "duration": 0.7916666666666714
        },
        {
          "name": "E2",
          "midi": 40,
          "time": 88.89062499999997,
          "velocity": 0.4015748031496063,
          "duration": 0.0677083333333286
        },
        {
          "name": "E2",
          "midi": 40,
          "time": 89.02604166666663,
          "velocity": 0.5511811023622047,
          "duration": 0.041666666666671404
        },
        {
          "name": "E2",
          "midi": 40,
          "time": 89.2552083333333,
          "velocity": 0.6692913385826772,
          "duration": 0.3854166666666714
        },
        {
          "name": "E2",
          "midi": 40,
          "time": 89.74479166666664,
          "velocity": 0.6141732283464567,
          "duration": 0.1666666666666714
        },
        {
          "name": "F2",
          "midi": 41,
          "time": 90.01041666666664,
          "velocity": 0.5511811023622047,
          "duration": 0.6197916666666714
        },
        {
          "name": "F2",
          "midi": 41,
          "time": 90.75520833333331,
          "velocity": 0.4566929133858268,
          "duration": 0.1145833333333286
        },
        {
          "name": "F2",
          "midi": 41,
          "time": 91.01041666666664,
          "velocity": 0.5039370078740157,
          "duration": 0.6354166666666714
        },
        {
          "name": "F2",
          "midi": 41,
          "time": 91.74999999999999,
          "velocity": 0.5354330708661418,
          "duration": 0.125
        },
        {
          "name": "C2",
          "midi": 36,
          "time": 91.99999999999999,
          "velocity": 0.5669291338582677,
          "duration": 0.625
        },
        {
          "name": "C2",
          "midi": 36,
          "time": 92.74479166666666,
          "velocity": 0.4881889763779528,
          "duration": 0.078125
        },
        {
          "name": "C2",
          "midi": 36,
          "time": 92.99479166666666,
          "velocity": 0.4094488188976378,
          "duration": 0.0885416666666714
        },
        {
          "name": "C2",
          "midi": 36,
          "time": 93.25,
          "velocity": 0.48031496062992124,
          "duration": 0.3958333333333286
        },
        {
          "name": "C2",
          "midi": 36,
          "time": 93.765625,
          "velocity": 0.5354330708661418,
          "duration": 0.1510416666666714
        },
        {
          "name": "G2",
          "midi": 43,
          "time": 94.015625,
          "velocity": 0.6692913385826772,
          "duration": 0.609375
        },
        {
          "name": "G2",
          "midi": 43,
          "time": 94.75520833333333,
          "velocity": 0.4881889763779528,
          "duration": 0.0885416666666714
        },
        {
          "name": "G2",
          "midi": 43,
          "time": 95.01041666666667,
          "velocity": 0.5669291338582677,
          "duration": 0.640625
        },
        {
          "name": "G2",
          "midi": 43,
          "time": 95.78125,
          "velocity": 0.5984251968503937,
          "duration": 0.078125
        },
        {
          "name": "G2",
          "midi": 43,
          "time": 96.02083333333333,
          "velocity": 0.6850393700787402,
          "duration": 0.6458333333333286
        },
        {
          "name": "G2",
          "midi": 43,
          "time": 96.77083333333333,
          "velocity": 0.5826771653543307,
          "duration": 0.0885416666666714
        },
        {
          "name": "G2",
          "midi": 43,
          "time": 97.01041666666667,
          "velocity": 0.6456692913385826,
          "duration": 0.7291666666666714
        },
        {
          "name": "D2",
          "midi": 38,
          "time": 97.75000000000001,
          "velocity": 0.5196850393700787,
          "duration": 0.0885416666666714
        },
        {
          "name": "E2",
          "midi": 40,
          "time": 97.85937500000001,
          "velocity": 0.5354330708661418,
          "duration": 0.1145833333333286
        },
        {
          "name": "F2",
          "midi": 41,
          "time": 98.01041666666667,
          "velocity": 0.5511811023622047,
          "duration": 0.6197916666666714
        },
        {
          "name": "F2",
          "midi": 41,
          "time": 98.75520833333334,
          "velocity": 0.4566929133858268,
          "duration": 0.1145833333333286
        },
        {
          "name": "F2",
          "midi": 41,
          "time": 99.01041666666667,
          "velocity": 0.5039370078740157,
          "duration": 0.6354166666666714
        },
        {
          "name": "F2",
          "midi": 41,
          "time": 99.75000000000001,
          "velocity": 0.5354330708661418,
          "duration": 0.125
        },
        {
          "name": "C2",
          "midi": 36,
          "time": 100.01041666666669,
          "velocity": 0.5511811023622047,
          "duration": 0.6197916666666714
        },
        {
          "name": "C2",
          "midi": 36,
          "time": 100.75520833333336,
          "velocity": 0.4566929133858268,
          "duration": 0.1145833333333286
        },
        {
          "name": "C2",
          "midi": 36,
          "time": 101.01041666666669,
          "velocity": 0.5039370078740157,
          "duration": 0.6354166666666714
        },
        {
          "name": "C2",
          "midi": 36,
          "time": 101.75000000000003,
          "velocity": 0.5354330708661418,
          "duration": 0.125
        },
        {
          "name": "G2",
          "midi": 43,
          "time": 102.02083333333336,
          "velocity": 0.49606299212598426,
          "duration": 0.0677083333333286
        },
        {
          "name": "G2",
          "midi": 43,
          "time": 102.25520833333336,
          "velocity": 0.49606299212598426,
          "duration": 0.3697916666666714
        },
        {
          "name": "G2",
          "midi": 43,
          "time": 102.75520833333336,
          "velocity": 0.5354330708661418,
          "duration": 0.1614583333333286
        },
        {
          "name": "F#2",
          "midi": 42,
          "time": 103.00520833333336,
          "velocity": 0.6299212598425197,
          "duration": 0.6666666666666714
        },
        {
          "name": "F#2",
          "midi": 42,
          "time": 103.7604166666667,
          "velocity": 0.5354330708661418,
          "duration": 0.109375
        },
        {
          "name": "E2",
          "midi": 40,
          "time": 104.00520833333337,
          "velocity": 0.6299212598425197,
          "duration": 0.6666666666666714
        },
        {
          "name": "E2",
          "midi": 40,
          "time": 104.76041666666671,
          "velocity": 0.5354330708661418,
          "duration": 0.109375
        },
        {
          "name": "F#2",
          "midi": 42,
          "time": 105.00520833333339,
          "velocity": 0.6299212598425197,
          "duration": 0.6666666666666714
        },
        {
          "name": "F#2",
          "midi": 42,
          "time": 105.76041666666673,
          "velocity": 0.5354330708661418,
          "duration": 0.109375
        },
        {
          "name": "G2",
          "midi": 43,
          "time": 106.00000000000006,
          "velocity": 0.5196850393700787,
          "duration": 0.640625
        },
        {
          "name": "G2",
          "midi": 43,
          "time": 106.77083333333339,
          "velocity": 0.5984251968503937,
          "duration": 0.2083333333333286
        },
        {
          "name": "D2",
          "midi": 38,
          "time": 107.02083333333339,
          "velocity": 0.5669291338582677,
          "duration": 0.59375
        },
        {
          "name": "D2",
          "midi": 38,
          "time": 107.75520833333339,
          "velocity": 0.44881889763779526,
          "duration": 0.1041666666666714
        },
        {
          "name": "F#2",
          "midi": 42,
          "time": 108.00000000000006,
          "velocity": 0.5354330708661418,
          "duration": 0.5989583333333286
        },
        {
          "name": "F#2",
          "midi": 42,
          "time": 108.74479166666671,
          "velocity": 0.5354330708661418,
          "duration": 0.25
        },
        {
          "name": "F#2",
          "midi": 42,
          "time": 109.00520833333339,
          "velocity": 0.5826771653543307,
          "duration": 0.71875
        },
        {
          "name": "F#2",
          "midi": 42,
          "time": 109.73958333333339,
          "velocity": 0.6850393700787402,
          "duration": 0.1614583333333286
        },
        {
          "name": "E2",
          "midi": 40,
          "time": 110.02083333333339,
          "velocity": 0.5354330708661418,
          "duration": 0.6041666666666714
        },
        {
          "name": "E2",
          "midi": 40,
          "time": 110.77604166666673,
          "velocity": 0.5984251968503937,
          "duration": 0.2447916666666572
        },
        {
          "name": "B1",
          "midi": 35,
          "time": 111.01562500000006,
          "velocity": 0.5196850393700787,
          "duration": 0.640625
        },
        {
          "name": "B1",
          "midi": 35,
          "time": 111.75520833333339,
          "velocity": 0.6141732283464567,
          "duration": 0.203125
        },
        {
          "name": "E2",
          "midi": 40,
          "time": 112.01562500000006,
          "velocity": 0.5354330708661418,
          "duration": 0.5885416666666714
        },
        {
          "name": "E2",
          "midi": 40,
          "time": 112.7552083333334,
          "velocity": 0.6141732283464567,
          "duration": 0.25
        },
        {
          "name": "B1",
          "midi": 35,
          "time": 113.0052083333334,
          "velocity": 0.5511811023622047,
          "duration": 0.6197916666666714
        },
        {
          "name": "B1",
          "midi": 35,
          "time": 113.76041666666674,
          "velocity": 0.5511811023622047,
          "duration": 0.0833333333333286
        },
        {
          "name": "F2",
          "midi": 41,
          "time": 114.0208333333334,
          "velocity": 0.5354330708661418,
          "duration": 0.609375
        },
        {
          "name": "F2",
          "midi": 41,
          "time": 114.7552083333334,
          "velocity": 0.5669291338582677,
          "duration": 0.203125
        },
        {
          "name": "F2",
          "midi": 41,
          "time": 115.00000000000007,
          "velocity": 0.5196850393700787,
          "duration": 0.3802083333333286
        },
        {
          "name": "F2",
          "midi": 41,
          "time": 115.5052083333334,
          "velocity": 0.6692913385826772,
          "duration": 0.1666666666666714
        },
        {
          "name": "C2",
          "midi": 36,
          "time": 116.00000000000007,
          "velocity": 0.5354330708661418,
          "duration": 0.5989583333333286
        },
        {
          "name": "C2",
          "midi": 36,
          "time": 116.74479166666673,
          "velocity": 0.5354330708661418,
          "duration": 0.25
        },
        {
          "name": "G2",
          "midi": 43,
          "time": 117.0052083333334,
          "velocity": 0.5826771653543307,
          "duration": 0.71875
        },
        {
          "name": "E2",
          "midi": 40,
          "time": 117.7395833333334,
          "velocity": 0.6850393700787402,
          "duration": 0.1614583333333286
        },
        {
          "name": "G2",
          "midi": 43,
          "time": 118.01041666666673,
          "velocity": 0.5511811023622047,
          "duration": 0.6979166666666714
        },
        {
          "name": "G1",
          "midi": 31,
          "time": 118.7552083333334,
          "velocity": 0.5984251968503937,
          "duration": 0.140625
        },
        {
          "name": "F#2",
          "midi": 42,
          "time": 119.01041666666673,
          "velocity": 0.5511811023622047,
          "duration": 0.6979166666666714
        },
        {
          "name": "F#2",
          "midi": 42,
          "time": 119.7552083333334,
          "velocity": 0.5984251968503937,
          "duration": 0.140625
        },
        {
          "name": "E2",
          "midi": 40,
          "time": 120.0052083333334,
          "velocity": 0.6299212598425197,
          "duration": 0.6666666666666714
        },
        {
          "name": "E2",
          "midi": 40,
          "time": 120.76041666666674,
          "velocity": 0.5354330708661418,
          "duration": 0.109375
        },
        {
          "name": "F#2",
          "midi": 42,
          "time": 121.01041666666674,
          "velocity": 0.5511811023622047,
          "duration": 0.6979166666666714
        },
        {
          "name": "F#2",
          "midi": 42,
          "time": 121.75520833333341,
          "velocity": 0.5984251968503937,
          "duration": 0.140625
        },
        {
          "name": "G2",
          "midi": 43,
          "time": 122.00000000000009,
          "velocity": 0.5196850393700787,
          "duration": 0.640625
        },
        {
          "name": "G2",
          "midi": 43,
          "time": 122.77083333333341,
          "velocity": 0.5984251968503937,
          "duration": 0.2083333333333286
        },
        {
          "name": "D2",
          "midi": 38,
          "time": 123.02083333333341,
          "velocity": 0.5669291338582677,
          "duration": 0.59375
        },
        {
          "name": "D2",
          "midi": 38,
          "time": 123.75520833333341,
          "velocity": 0.44881889763779526,
          "duration": 0.1041666666666714
        },
        {
          "name": "F#2",
          "midi": 42,
          "time": 124.00000000000009,
          "velocity": 0.5196850393700787,
          "duration": 0.640625
        },
        {
          "name": "F#2",
          "midi": 42,
          "time": 124.77083333333341,
          "velocity": 0.5984251968503937,
          "duration": 0.2083333333333286
        },
        {
          "name": "F#2",
          "midi": 42,
          "time": 125.02083333333341,
          "velocity": 0.5669291338582677,
          "duration": 0.59375
        },
        {
          "name": "F#2",
          "midi": 42,
          "time": 125.75520833333341,
          "velocity": 0.44881889763779526,
          "duration": 0.1041666666666714
        },
        {
          "name": "E2",
          "midi": 40,
          "time": 126.02604166666676,
          "velocity": 0.5196850393700787,
          "duration": 0.578125
        },
        {
          "name": "E2",
          "midi": 40,
          "time": 126.76041666666676,
          "velocity": 0.5196850393700787,
          "duration": 0.140625
        },
        {
          "name": "B1",
          "midi": 35,
          "time": 127.02083333333343,
          "velocity": 0.6141732283464567,
          "duration": 0.5833333333333286
        },
        {
          "name": "B1",
          "midi": 35,
          "time": 127.75000000000009,
          "velocity": 0.5354330708661418,
          "duration": 0.40625
        },
        {
          "name": "E2",
          "midi": 40,
          "time": 128.01041666666674,
          "velocity": 0.49606299212598426,
          "duration": 0.5677083333333428
        },
        {
          "name": "E2",
          "midi": 40,
          "time": 128.76041666666674,
          "velocity": 0.47244094488188976,
          "duration": 0.1927083333333428
        },
        {
          "name": "E2",
          "midi": 40,
          "time": 129.01041666666674,
          "velocity": 0.4645669291338583,
          "duration": 0.3697916666666572
        },
        {
          "name": "E2",
          "midi": 40,
          "time": 129.53125000000006,
          "velocity": 0.5669291338582677,
          "duration": 0.25
        },
        {
          "name": "F2",
          "midi": 41,
          "time": 130.0208333333334,
          "velocity": 0.5354330708661418,
          "duration": 0.609375
        },
        {
          "name": "F2",
          "midi": 41,
          "time": 130.7552083333334,
          "velocity": 0.5669291338582677,
          "duration": 0.203125
        },
        {
          "name": "E2",
          "midi": 40,
          "time": 131.00000000000006,
          "velocity": 0.5196850393700787,
          "duration": 0.3802083333333428
        },
        {
          "name": "D2",
          "midi": 38,
          "time": 131.5052083333334,
          "velocity": 0.6692913385826772,
          "duration": 0.1666666666666572
        },
        {
          "name": "C2",
          "midi": 36,
          "time": 132.00000000000006,
          "velocity": 0.5196850393700787,
          "duration": 0.640625
        },
        {
          "name": "C2",
          "midi": 36,
          "time": 132.7708333333334,
          "velocity": 0.5984251968503937,
          "duration": 0.2083333333333428
        },
        {
          "name": "G2",
          "midi": 43,
          "time": 133.0208333333334,
          "velocity": 0.5669291338582677,
          "duration": 0.59375
        },
        {
          "name": "G2",
          "midi": 43,
          "time": 133.7552083333334,
          "velocity": 0.44881889763779526,
          "duration": 0.10416666666665719
        },
        {
          "name": "G2",
          "midi": 43,
          "time": 134.0104166666667,
          "velocity": 0.5511811023622047,
          "duration": 0.6979166666666572
        },
        {
          "name": "G2",
          "midi": 43,
          "time": 134.75520833333337,
          "velocity": 0.5984251968503937,
          "duration": 0.140625
        },
        {
          "name": "D2",
          "midi": 38,
          "time": 135.0104166666667,
          "velocity": 0.5511811023622047,
          "duration": 0.6979166666666572
        },
        {
          "name": "F#2",
          "midi": 42,
          "time": 135.75520833333337,
          "velocity": 0.5984251968503937,
          "duration": 0.140625
        },
        {
          "name": "E2",
          "midi": 40,
          "time": 136.0104166666667,
          "velocity": 0.5511811023622047,
          "duration": 0.6979166666666572
        },
        {
          "name": "D#2",
          "midi": 39,
          "time": 136.75520833333337,
          "velocity": 0.5984251968503937,
          "duration": 0.140625
        },
        {
          "name": "D2",
          "midi": 38,
          "time": 137.00520833333337,
          "velocity": 0.6299212598425197,
          "duration": 0.6666666666666572
        },
        {
          "name": "D2",
          "midi": 38,
          "time": 137.76041666666669,
          "velocity": 0.5354330708661418,
          "duration": 0.109375
        },
        {
          "name": "G2",
          "midi": 43,
          "time": 138.00000000000003,
          "velocity": 0.5196850393700787,
          "duration": 0.640625
        },
        {
          "name": "G2",
          "midi": 43,
          "time": 138.77083333333337,
          "velocity": 0.5984251968503937,
          "duration": 0.2083333333333428
        },
        {
          "name": "D2",
          "midi": 38,
          "time": 139.02083333333337,
          "velocity": 0.5669291338582677,
          "duration": 0.59375
        },
        {
          "name": "D2",
          "midi": 38,
          "time": 139.75520833333337,
          "velocity": 0.44881889763779526,
          "duration": 0.10416666666665719
        },
        {
          "name": "F#2",
          "midi": 42,
          "time": 140.02083333333337,
          "velocity": 0.5354330708661418,
          "duration": 0.609375
        },
        {
          "name": "F#2",
          "midi": 42,
          "time": 140.75520833333337,
          "velocity": 0.5669291338582677,
          "duration": 0.203125
        },
        {
          "name": "F#2",
          "midi": 42,
          "time": 141.00000000000003,
          "velocity": 0.5196850393700787,
          "duration": 0.3802083333333428
        },
        {
          "name": "F#2",
          "midi": 42,
          "time": 141.50520833333337,
          "velocity": 0.6692913385826772,
          "duration": 0.1666666666666572
        },
        {
          "name": "E2",
          "midi": 40,
          "time": 142.02604166666669,
          "velocity": 0.5196850393700787,
          "duration": 0.578125
        },
        {
          "name": "E2",
          "midi": 40,
          "time": 142.76041666666669,
          "velocity": 0.5196850393700787,
          "duration": 0.140625
        },
        {
          "name": "B1",
          "midi": 35,
          "time": 143.02083333333334,
          "velocity": 0.6141732283464567,
          "duration": 0.5833333333333428
        },
        {
          "name": "B1",
          "midi": 35,
          "time": 143.75000000000003,
          "velocity": 0.5354330708661418,
          "duration": 0.40625
        },
        {
          "name": "E2",
          "midi": 40,
          "time": 144.01041666666669,
          "velocity": 0.49606299212598426,
          "duration": 0.5677083333333428
        },
        {
          "name": "E2",
          "midi": 40,
          "time": 144.76041666666669,
          "velocity": 0.47244094488188976,
          "duration": 0.1927083333333428
        },
        {
          "name": "G2",
          "midi": 43,
          "time": 145.01041666666669,
          "velocity": 0.4645669291338583,
          "duration": 0.3697916666666572
        },
        {
          "name": "F#2",
          "midi": 42,
          "time": 145.53125,
          "velocity": 0.5669291338582677,
          "duration": 0.25
        },
        {
          "name": "F2",
          "midi": 41,
          "time": 146.02083333333334,
          "velocity": 0.5354330708661418,
          "duration": 0.609375
        },
        {
          "name": "F2",
          "midi": 41,
          "time": 146.75520833333334,
          "velocity": 0.5669291338582677,
          "duration": 0.203125
        },
        {
          "name": "F2",
          "midi": 41,
          "time": 147,
          "velocity": 0.5196850393700787,
          "duration": 0.3802083333333428
        },
        {
          "name": "F2",
          "midi": 41,
          "time": 147.50520833333334,
          "velocity": 0.6692913385826772,
          "duration": 0.1666666666666572
        },
        {
          "name": "C2",
          "midi": 36,
          "time": 148,
          "velocity": 0.5354330708661418,
          "duration": 0.5989583333333428
        },
        {
          "name": "C2",
          "midi": 36,
          "time": 148.74479166666669,
          "velocity": 0.5354330708661418,
          "duration": 0.25
        },
        {
          "name": "G2",
          "midi": 43,
          "time": 149.00520833333334,
          "velocity": 0.5826771653543307,
          "duration": 0.71875
        },
        {
          "name": "B2",
          "midi": 47,
          "time": 149.73958333333334,
          "velocity": 0.6850393700787402,
          "duration": 0.1614583333333428
        },
        {
          "name": "G2",
          "midi": 43,
          "time": 150.00520833333334,
          "velocity": 0.6299212598425197,
          "duration": 0.6666666666666572
        },
        {
          "name": "G2",
          "midi": 43,
          "time": 150.76041666666666,
          "velocity": 0.5354330708661418,
          "duration": 0.109375
        },
        {
          "name": "F#2",
          "midi": 42,
          "time": 151.00520833333331,
          "velocity": 0.6299212598425197,
          "duration": 0.6666666666666572
        },
        {
          "name": "F#2",
          "midi": 42,
          "time": 151.76041666666663,
          "velocity": 0.5354330708661418,
          "duration": 0.109375
        },
        {
          "name": "E2",
          "midi": 40,
          "time": 152.0052083333333,
          "velocity": 0.6299212598425197,
          "duration": 0.6666666666666572
        },
        {
          "name": "E2",
          "midi": 40,
          "time": 152.7604166666666,
          "velocity": 0.5354330708661418,
          "duration": 0.109375
        },
        {
          "name": "F#2",
          "midi": 42,
          "time": 153.00520833333326,
          "velocity": 0.6299212598425197,
          "duration": 0.6666666666666572
        },
        {
          "name": "F#2",
          "midi": 42,
          "time": 153.76041666666657,
          "velocity": 0.5354330708661418,
          "duration": 0.109375
        },
        {
          "name": "G2",
          "midi": 43,
          "time": 154.01041666666657,
          "velocity": 0.5511811023622047,
          "duration": 0.6197916666666572
        },
        {
          "name": "G2",
          "midi": 43,
          "time": 154.75520833333323,
          "velocity": 0.4566929133858268,
          "duration": 0.11458333333334281
        },
        {
          "name": "G2",
          "midi": 43,
          "time": 155.01041666666657,
          "velocity": 0.5039370078740157,
          "duration": 0.6354166666666572
        },
        {
          "name": "G2",
          "midi": 43,
          "time": 155.7499999999999,
          "velocity": 0.5354330708661418,
          "duration": 0.125
        },
        {
          "name": "F#2",
          "midi": 42,
          "time": 156.02083333333323,
          "velocity": 0.5354330708661418,
          "duration": 0.6770833333333428
        },
        {
          "name": "A1",
          "midi": 33,
          "time": 156.76041666666657,
          "velocity": 0.4645669291338583,
          "duration": 0.05208333333334281
        },
        {
          "name": "B1",
          "midi": 35,
          "time": 156.85937499999991,
          "velocity": 0.6456692913385826,
          "duration": 0.08333333333334281
        },
        {
          "name": "F#2",
          "midi": 42,
          "time": 157.00520833333326,
          "velocity": 0.6141732283464567,
          "duration": 0.5989583333333428
        },
        {
          "name": "F#2",
          "midi": 42,
          "time": 157.73437499999994,
          "velocity": 0.4566929133858268,
          "duration": 0.09375
        },
        {
          "name": "E2",
          "midi": 40,
          "time": 157.99999999999994,
          "velocity": 0.5039370078740157,
          "duration": 0.640625
        },
        {
          "name": "E2",
          "midi": 40,
          "time": 158.7604166666666,
          "velocity": 0.5196850393700787,
          "duration": 0.08333333333334281
        },
        {
          "name": "E2",
          "midi": 40,
          "time": 159.0208333333333,
          "velocity": 0.47244094488188976,
          "duration": 0.6666666666666572
        },
        {
          "name": "B1",
          "midi": 35,
          "time": 159.7552083333333,
          "velocity": 0.4566929133858268,
          "duration": 0.11458333333334281
        },
        {
          "name": "C2",
          "midi": 36,
          "time": 159.86979166666663,
          "velocity": 0.48031496062992124,
          "duration": 0.10416666666665719
        },
        {
          "name": "E2",
          "midi": 40,
          "time": 160.0052083333333,
          "velocity": 0.44881889763779526,
          "duration": 0.7916666666666572
        },
        {
          "name": "E2",
          "midi": 40,
          "time": 160.89062499999994,
          "velocity": 0.4015748031496063,
          "duration": 0.06770833333334281
        },
        {
          "name": "E2",
          "midi": 40,
          "time": 161.02604166666663,
          "velocity": 0.5511811023622047,
          "duration": 0.04166666666665719
        },
        {
          "name": "E2",
          "midi": 40,
          "time": 161.2552083333333,
          "velocity": 0.6692913385826772,
          "duration": 0.3854166666666572
        },
        {
          "name": "E2",
          "midi": 40,
          "time": 161.7447916666666,
          "velocity": 0.6141732283464567,
          "duration": 0.1666666666666572
        },
        {
          "name": "F2",
          "midi": 41,
          "time": 162.0104166666666,
          "velocity": 0.5511811023622047,
          "duration": 0.6197916666666572
        },
        {
          "name": "F2",
          "midi": 41,
          "time": 162.75520833333326,
          "velocity": 0.4566929133858268,
          "duration": 0.11458333333334281
        },
        {
          "name": "F2",
          "midi": 41,
          "time": 163.0104166666666,
          "velocity": 0.5039370078740157,
          "duration": 0.6354166666666572
        },
        {
          "name": "F2",
          "midi": 41,
          "time": 163.74999999999991,
          "velocity": 0.5354330708661418,
          "duration": 0.125
        },
        {
          "name": "C2",
          "midi": 36,
          "time": 163.99999999999991,
          "velocity": 0.5669291338582677,
          "duration": 0.625
        },
        {
          "name": "C2",
          "midi": 36,
          "time": 164.74479166666657,
          "velocity": 0.4881889763779528,
          "duration": 0.078125
        },
        {
          "name": "C2",
          "midi": 36,
          "time": 164.99479166666657,
          "velocity": 0.4094488188976378,
          "duration": 0.08854166666665719
        },
        {
          "name": "C2",
          "midi": 36,
          "time": 165.2499999999999,
          "velocity": 0.48031496062992124,
          "duration": 0.3958333333333428
        },
        {
          "name": "C2",
          "midi": 36,
          "time": 165.7656249999999,
          "velocity": 0.5354330708661418,
          "duration": 0.1510416666666572
        },
        {
          "name": "G2",
          "midi": 43,
          "time": 166.0364583333332,
          "velocity": 0.4881889763779528,
          "duration": 0.7552083333333428
        },
        {
          "name": "G2",
          "midi": 43,
          "time": 166.8958333333332,
          "velocity": 0.6456692913385826,
          "duration": 0.09895833333334281
        },
        {
          "name": "F#2",
          "midi": 42,
          "time": 167.0052083333332,
          "velocity": 0.6299212598425197,
          "duration": 0.6666666666666572
        },
        {
          "name": "F#2",
          "midi": 42,
          "time": 167.76041666666652,
          "velocity": 0.5354330708661418,
          "duration": 0.109375
        },
        {
          "name": "E2",
          "midi": 40,
          "time": 168.00520833333317,
          "velocity": 0.6299212598425197,
          "duration": 0.6666666666666572
        },
        {
          "name": "E2",
          "midi": 40,
          "time": 168.7604166666665,
          "velocity": 0.5354330708661418,
          "duration": 0.109375
        },
        {
          "name": "F#2",
          "midi": 42,
          "time": 169.03645833333314,
          "velocity": 0.4881889763779528,
          "duration": 0.7552083333333428
        },
        {
          "name": "F#2",
          "midi": 42,
          "time": 169.89583333333314,
          "velocity": 0.6456692913385826,
          "duration": 0.09895833333334281
        },
        {
          "name": "G2",
          "midi": 43,
          "time": 170.0104166666665,
          "velocity": 0.5511811023622047,
          "duration": 0.6197916666666572
        },
        {
          "name": "G2",
          "midi": 43,
          "time": 170.75520833333314,
          "velocity": 0.4566929133858268,
          "duration": 0.11458333333334281
        },
        {
          "name": "G2",
          "midi": 43,
          "time": 171.0104166666665,
          "velocity": 0.5039370078740157,
          "duration": 0.6354166666666572
        },
        {
          "name": "G2",
          "midi": 43,
          "time": 171.7499999999998,
          "velocity": 0.5354330708661418,
          "duration": 0.125
        },
        {
          "name": "F#2",
          "midi": 42,
          "time": 172.02083333333314,
          "velocity": 0.5354330708661418,
          "duration": 0.6770833333333428
        },
        {
          "name": "A1",
          "midi": 33,
          "time": 172.7604166666665,
          "velocity": 0.4645669291338583,
          "duration": 0.05208333333334281
        },
        {
          "name": "B1",
          "midi": 35,
          "time": 172.85937499999983,
          "velocity": 0.6456692913385826,
          "duration": 0.08333333333334281
        },
        {
          "name": "F#2",
          "midi": 42,
          "time": 173.00520833333317,
          "velocity": 0.6141732283464567,
          "duration": 0.5989583333333428
        },
        {
          "name": "F#2",
          "midi": 42,
          "time": 173.73437499999986,
          "velocity": 0.4566929133858268,
          "duration": 0.09375
        },
        {
          "name": "E2",
          "midi": 40,
          "time": 174.01562499999986,
          "velocity": 0.6692913385826772,
          "duration": 0.609375
        },
        {
          "name": "E2",
          "midi": 40,
          "time": 174.7552083333332,
          "velocity": 0.4881889763779528,
          "duration": 0.08854166666665719
        },
        {
          "name": "E2",
          "midi": 40,
          "time": 175.01041666666652,
          "velocity": 0.5669291338582677,
          "duration": 0.640625
        },
        {
          "name": "E2",
          "midi": 40,
          "time": 175.78124999999986,
          "velocity": 0.5984251968503937,
          "duration": 0.078125
        },
        {
          "name": "E2",
          "midi": 40,
          "time": 176.0208333333332,
          "velocity": 0.6850393700787402,
          "duration": 0.6458333333333428
        },
        {
          "name": "E2",
          "midi": 40,
          "time": 176.7708333333332,
          "velocity": 0.5826771653543307,
          "duration": 0.08854166666665719
        },
        {
          "name": "E2",
          "midi": 40,
          "time": 177.01041666666652,
          "velocity": 0.6456692913385826,
          "duration": 0.7291666666666572
        },
        {
          "name": "B1",
          "midi": 35,
          "time": 177.74999999999983,
          "velocity": 0.5196850393700787,
          "duration": 0.08854166666665719
        },
        {
          "name": "C2",
          "midi": 36,
          "time": 177.85937499999983,
          "velocity": 0.5354330708661418,
          "duration": 0.11458333333334281
        },
        {
          "name": "F2",
          "midi": 41,
          "time": 178.02083333333317,
          "velocity": 0.5354330708661418,
          "duration": 0.6770833333333428
        },
        {
          "name": "C2",
          "midi": 36,
          "time": 178.76041666666652,
          "velocity": 0.4645669291338583,
          "duration": 0.05208333333334281
        },
        {
          "name": "D2",
          "midi": 38,
          "time": 178.85937499999986,
          "velocity": 0.6456692913385826,
          "duration": 0.08333333333334281
        },
        {
          "name": "F2",
          "midi": 41,
          "time": 179.0052083333332,
          "velocity": 0.6141732283464567,
          "duration": 0.5989583333333428
        },
        {
          "name": "F2",
          "midi": 41,
          "time": 179.7343749999999,
          "velocity": 0.4566929133858268,
          "duration": 0.09375
        },
        {
          "name": "C2",
          "midi": 36,
          "time": 180.01041666666654,
          "velocity": 0.5511811023622047,
          "duration": 0.6197916666666572
        },
        {
          "name": "C2",
          "midi": 36,
          "time": 180.7552083333332,
          "velocity": 0.4566929133858268,
          "duration": 0.11458333333334281
        },
        {
          "name": "C2",
          "midi": 36,
          "time": 181.01041666666654,
          "velocity": 0.5039370078740157,
          "duration": 0.6354166666666572
        },
        {
          "name": "C2",
          "midi": 36,
          "time": 181.74999999999986,
          "velocity": 0.5354330708661418,
          "duration": 0.125
        },
        {
          "name": "G2",
          "midi": 43,
          "time": 182.0364583333332,
          "velocity": 0.4881889763779528,
          "duration": 0.7552083333333428
        },
        {
          "name": "G2",
          "midi": 43,
          "time": 182.8958333333332,
          "velocity": 0.6456692913385826,
          "duration": 0.09895833333334281
        },
        {
          "name": "D2",
          "midi": 38,
          "time": 183.0052083333332,
          "velocity": 0.6299212598425197,
          "duration": 0.6666666666666572
        },
        {
          "name": "D2",
          "midi": 38,
          "time": 183.76041666666652,
          "velocity": 0.5354330708661418,
          "duration": 0.109375
        },
        {
          "name": "E2",
          "midi": 40,
          "time": 184.02083333333317,
          "velocity": 0.49606299212598426,
          "duration": 0.06770833333334281
        },
        {
          "name": "E2",
          "midi": 40,
          "time": 184.25520833333317,
          "velocity": 0.49606299212598426,
          "duration": 0.3697916666666572
        },
        {
          "name": "E2",
          "midi": 40,
          "time": 184.75520833333317,
          "velocity": 0.5354330708661418,
          "duration": 0.1614583333333428
        },
        {
          "name": "D2",
          "midi": 38,
          "time": 185.00520833333317,
          "velocity": 0.6299212598425197,
          "duration": 0.6666666666666572
        },
        {
          "name": "D2",
          "midi": 38,
          "time": 185.7604166666665,
          "velocity": 0.5354330708661418,
          "duration": 0.109375
        },
        {
          "name": "G2",
          "midi": 43,
          "time": 186.02083333333314,
          "velocity": 0.5354330708661418,
          "duration": 0.6770833333333428
        },
        {
          "name": "D2",
          "midi": 38,
          "time": 186.7604166666665,
          "velocity": 0.4645669291338583,
          "duration": 0.05208333333334281
        },
        {
          "name": "E2",
          "midi": 40,
          "time": 186.85937499999983,
          "velocity": 0.6456692913385826,
          "duration": 0.08333333333334281
        },
        {
          "name": "G2",
          "midi": 43,
          "time": 187.00520833333317,
          "velocity": 0.6141732283464567,
          "duration": 0.5989583333333428
        },
        {
          "name": "G2",
          "midi": 43,
          "time": 187.73437499999986,
          "velocity": 0.4566929133858268,
          "duration": 0.09375
        },
        {
          "name": "F#2",
          "midi": 42,
          "time": 188.0208333333332,
          "velocity": 0.5354330708661418,
          "duration": 0.6770833333333428
        },
        {
          "name": "A1",
          "midi": 33,
          "time": 188.76041666666654,
          "velocity": 0.4645669291338583,
          "duration": 0.05208333333334281
        },
        {
          "name": "B1",
          "midi": 35,
          "time": 188.8593749999999,
          "velocity": 0.6456692913385826,
          "duration": 0.08333333333334281
        },
        {
          "name": "F#2",
          "midi": 42,
          "time": 189.00520833333323,
          "velocity": 0.6141732283464567,
          "duration": 0.5989583333333428
        },
        {
          "name": "F#2",
          "midi": 42,
          "time": 189.73437499999991,
          "velocity": 0.4566929133858268,
          "duration": 0.09375
        },
        {
          "name": "E2",
          "midi": 40,
          "time": 189.99999999999991,
          "velocity": 0.5039370078740157,
          "duration": 0.640625
        },
        {
          "name": "E2",
          "midi": 40,
          "time": 190.76041666666657,
          "velocity": 0.5196850393700787,
          "duration": 0.08333333333334281
        },
        {
          "name": "E2",
          "midi": 40,
          "time": 191.02083333333326,
          "velocity": 0.47244094488188976,
          "duration": 0.6666666666666572
        },
        {
          "name": "B1",
          "midi": 35,
          "time": 191.75520833333326,
          "velocity": 0.4566929133858268,
          "duration": 0.11458333333334281
        },
        {
          "name": "C2",
          "midi": 36,
          "time": 191.8697916666666,
          "velocity": 0.48031496062992124,
          "duration": 0.10416666666665719
        },
        {
          "name": "E2",
          "midi": 40,
          "time": 192.00520833333326,
          "velocity": 0.44881889763779526,
          "duration": 0.7916666666666572
        },
        {
          "name": "E2",
          "midi": 40,
          "time": 192.89062499999991,
          "velocity": 0.4015748031496063,
          "duration": 0.06770833333334281
        },
        {
          "name": "E2",
          "midi": 40,
          "time": 193.0260416666666,
          "velocity": 0.5511811023622047,
          "duration": 0.04166666666665719
        },
        {
          "name": "E2",
          "midi": 40,
          "time": 193.25520833333326,
          "velocity": 0.6692913385826772,
          "duration": 0.3854166666666572
        },
        {
          "name": "E2",
          "midi": 40,
          "time": 193.74479166666657,
          "velocity": 0.6141732283464567,
          "duration": 0.1666666666666572
        },
        {
          "name": "F2",
          "midi": 41,
          "time": 194.02083333333323,
          "velocity": 0.5354330708661418,
          "duration": 0.6770833333333428
        },
        {
          "name": "C2",
          "midi": 36,
          "time": 194.76041666666657,
          "velocity": 0.4645669291338583,
          "duration": 0.05208333333334281
        },
        {
          "name": "D2",
          "midi": 38,
          "time": 194.85937499999991,
          "velocity": 0.6456692913385826,
          "duration": 0.08333333333334281
        },
        {
          "name": "F2",
          "midi": 41,
          "time": 195.00520833333326,
          "velocity": 0.6141732283464567,
          "duration": 0.5989583333333428
        },
        {
          "name": "F2",
          "midi": 41,
          "time": 195.73437499999994,
          "velocity": 0.4566929133858268,
          "duration": 0.09375
        },
        {
          "name": "C2",
          "midi": 36,
          "time": 196.0208333333333,
          "velocity": 0.5354330708661418,
          "duration": 0.6770833333333428
        },
        {
          "name": "G1",
          "midi": 31,
          "time": 196.76041666666663,
          "velocity": 0.4645669291338583,
          "duration": 0.05208333333334281
        },
        {
          "name": "A1",
          "midi": 33,
          "time": 196.85937499999997,
          "velocity": 0.6456692913385826,
          "duration": 0.08333333333334281
        },
        {
          "name": "C2",
          "midi": 36,
          "time": 197.00520833333331,
          "velocity": 0.6141732283464567,
          "duration": 0.5989583333333428
        },
        {
          "name": "C2",
          "midi": 36,
          "time": 197.734375,
          "velocity": 0.4566929133858268,
          "duration": 0.09375
        },
        {
          "name": "G2",
          "midi": 43,
          "time": 198.00520833333334,
          "velocity": 0.6299212598425197,
          "duration": 0.6666666666666572
        },
        {
          "name": "G2",
          "midi": 43,
          "time": 198.76041666666666,
          "velocity": 0.5354330708661418,
          "duration": 0.109375
        },
        {
          "name": "F#2",
          "midi": 42,
          "time": 199.03645833333331,
          "velocity": 0.4881889763779528,
          "duration": 0.7552083333333428
        },
        {
          "name": "F#2",
          "midi": 42,
          "time": 199.89583333333331,
          "velocity": 0.6456692913385826,
          "duration": 0.09895833333334281
        },
        {
          "name": "E2",
          "midi": 40,
          "time": 200.02083333333331,
          "velocity": 0.49606299212598426,
          "duration": 0.06770833333334281
        },
        {
          "name": "E2",
          "midi": 40,
          "time": 200.25520833333331,
          "velocity": 0.49606299212598426,
          "duration": 0.3697916666666572
        },
        {
          "name": "E2",
          "midi": 40,
          "time": 200.75520833333331,
          "velocity": 0.5354330708661418,
          "duration": 0.1614583333333428
        },
        {
          "name": "F#2",
          "midi": 42,
          "time": 201.00520833333331,
          "velocity": 0.6299212598425197,
          "duration": 0.6666666666666572
        },
        {
          "name": "F#2",
          "midi": 42,
          "time": 201.76041666666663,
          "velocity": 0.5354330708661418,
          "duration": 0.109375
        },
        {
          "name": "G2",
          "midi": 43,
          "time": 201.99999999999997,
          "velocity": 0.5669291338582677,
          "duration": 0.625
        },
        {
          "name": "G2",
          "midi": 43,
          "time": 202.74479166666663,
          "velocity": 0.4881889763779528,
          "duration": 0.078125
        },
        {
          "name": "G2",
          "midi": 43,
          "time": 202.99479166666663,
          "velocity": 0.4094488188976378,
          "duration": 0.08854166666665719
        },
        {
          "name": "G2",
          "midi": 43,
          "time": 203.24999999999994,
          "velocity": 0.48031496062992124,
          "duration": 0.3958333333333428
        },
        {
          "name": "G2",
          "midi": 43,
          "time": 203.76562499999994,
          "velocity": 0.5354330708661418,
          "duration": 0.1510416666666572
        },
        {
          "name": "F#2",
          "midi": 42,
          "time": 204.02083333333326,
          "velocity": 0.5354330708661418,
          "duration": 0.6770833333333428
        },
        {
          "name": "A1",
          "midi": 33,
          "time": 204.7604166666666,
          "velocity": 0.4645669291338583,
          "duration": 0.05208333333334281
        },
        {
          "name": "B1",
          "midi": 35,
          "time": 204.85937499999994,
          "velocity": 0.6456692913385826,
          "duration": 0.08333333333334281
        },
        {
          "name": "F#2",
          "midi": 42,
          "time": 205.0052083333333,
          "velocity": 0.6141732283464567,
          "duration": 0.5989583333333428
        },
        {
          "name": "F#2",
          "midi": 42,
          "time": 205.73437499999997,
          "velocity": 0.4566929133858268,
          "duration": 0.09375
        },
        {
          "name": "E2",
          "midi": 40,
          "time": 206.01562499999997,
          "velocity": 0.6692913385826772,
          "duration": 0.609375
        },
        {
          "name": "E2",
          "midi": 40,
          "time": 206.75520833333331,
          "velocity": 0.4881889763779528,
          "duration": 0.08854166666665719
        },
        {
          "name": "E2",
          "midi": 40,
          "time": 207.01041666666663,
          "velocity": 0.5669291338582677,
          "duration": 0.640625
        },
        {
          "name": "E2",
          "midi": 40,
          "time": 207.78124999999997,
          "velocity": 0.5984251968503937,
          "duration": 0.078125
        },
        {
          "name": "E2",
          "midi": 40,
          "time": 208.02083333333331,
          "velocity": 0.6850393700787402,
          "duration": 0.6458333333333428
        },
        {
          "name": "E2",
          "midi": 40,
          "time": 208.77083333333331,
          "velocity": 0.5826771653543307,
          "duration": 0.08854166666665719
        },
        {
          "name": "E2",
          "midi": 40,
          "time": 209.01041666666663,
          "velocity": 0.6456692913385826,
          "duration": 0.7291666666666572
        },
        {
          "name": "B1",
          "midi": 35,
          "time": 209.74999999999994,
          "velocity": 0.5196850393700787,
          "duration": 0.08854166666665719
        },
        {
          "name": "C2",
          "midi": 36,
          "time": 209.85937499999994,
          "velocity": 0.5354330708661418,
          "duration": 0.11458333333334281
        },
        {
          "name": "F2",
          "midi": 41,
          "time": 210.0208333333333,
          "velocity": 0.5354330708661418,
          "duration": 0.6770833333333428
        },
        {
          "name": "C2",
          "midi": 36,
          "time": 210.76041666666663,
          "velocity": 0.4645669291338583,
          "duration": 0.05208333333334281
        },
        {
          "name": "D2",
          "midi": 38,
          "time": 210.85937499999997,
          "velocity": 0.6456692913385826,
          "duration": 0.08333333333334281
        },
        {
          "name": "F2",
          "midi": 41,
          "time": 211.00520833333331,
          "velocity": 0.6141732283464567,
          "duration": 0.5989583333333428
        },
        {
          "name": "F2",
          "midi": 41,
          "time": 211.734375,
          "velocity": 0.4566929133858268,
          "duration": 0.09375
        },
        {
          "name": "C2",
          "midi": 36,
          "time": 212.02083333333334,
          "velocity": 0.5354330708661418,
          "duration": 0.6770833333333428
        },
        {
          "name": "G1",
          "midi": 31,
          "time": 212.76041666666669,
          "velocity": 0.4645669291338583,
          "duration": 0.05208333333334281
        },
        {
          "name": "A1",
          "midi": 33,
          "time": 212.85937500000003,
          "velocity": 0.6456692913385826,
          "duration": 0.08333333333334281
        },
        {
          "name": "C2",
          "midi": 36,
          "time": 213.00520833333337,
          "velocity": 0.6141732283464567,
          "duration": 0.5989583333333428
        },
        {
          "name": "C2",
          "midi": 36,
          "time": 213.73437500000006,
          "velocity": 0.4566929133858268,
          "duration": 0.09375
        },
        {
          "name": "G2",
          "midi": 43,
          "time": 214.0208333333334,
          "velocity": 0.49606299212598426,
          "duration": 0.06770833333334281
        },
        {
          "name": "G2",
          "midi": 43,
          "time": 214.2552083333334,
          "velocity": 0.49606299212598426,
          "duration": 0.3697916666666572
        },
        {
          "name": "G2",
          "midi": 43,
          "time": 214.7552083333334,
          "velocity": 0.5354330708661418,
          "duration": 0.1614583333333428
        },
        {
          "name": "F#2",
          "midi": 42,
          "time": 215.0208333333334,
          "velocity": 0.49606299212598426,
          "duration": 0.06770833333334281
        },
        {
          "name": "F#2",
          "midi": 42,
          "time": 215.2552083333334,
          "velocity": 0.49606299212598426,
          "duration": 0.3697916666666572
        },
        {
          "name": "F#2",
          "midi": 42,
          "time": 215.7552083333334,
          "velocity": 0.5354330708661418,
          "duration": 0.1614583333333428
        },
        {
          "name": "E2",
          "midi": 40,
          "time": 216.0208333333334,
          "velocity": 0.49606299212598426,
          "duration": 0.06770833333334281
        },
        {
          "name": "E2",
          "midi": 40,
          "time": 216.2552083333334,
          "velocity": 0.49606299212598426,
          "duration": 0.3697916666666572
        },
        {
          "name": "E2",
          "midi": 40,
          "time": 216.7552083333334,
          "velocity": 0.5354330708661418,
          "duration": 0.1614583333333428
        },
        {
          "name": "F#2",
          "midi": 42,
          "time": 217.0364583333334,
          "velocity": 0.4881889763779528,
          "duration": 0.7552083333333428
        },
        {
          "name": "F#2",
          "midi": 42,
          "time": 217.8958333333334,
          "velocity": 0.6456692913385826,
          "duration": 0.09895833333334281
        },
        {
          "name": "G2",
          "midi": 43,
          "time": 218.00000000000009,
          "velocity": 0.5669291338582677,
          "duration": 0.625
        },
        {
          "name": "G2",
          "midi": 43,
          "time": 218.74479166666674,
          "velocity": 0.4881889763779528,
          "duration": 0.078125
        },
        {
          "name": "G2",
          "midi": 43,
          "time": 218.99479166666674,
          "velocity": 0.4094488188976378,
          "duration": 0.08854166666665719
        },
        {
          "name": "G2",
          "midi": 43,
          "time": 219.25000000000006,
          "velocity": 0.48031496062992124,
          "duration": 0.3958333333333428
        },
        {
          "name": "G2",
          "midi": 43,
          "time": 219.76562500000006,
          "velocity": 0.5354330708661418,
          "duration": 0.1510416666666572
        },
        {
          "name": "F#2",
          "midi": 42,
          "time": 220.0104166666667,
          "velocity": 0.5511811023622047,
          "duration": 0.6197916666666572
        },
        {
          "name": "F#2",
          "midi": 42,
          "time": 220.75520833333337,
          "velocity": 0.4566929133858268,
          "duration": 0.11458333333334281
        },
        {
          "name": "F#2",
          "midi": 42,
          "time": 221.0104166666667,
          "velocity": 0.5039370078740157,
          "duration": 0.6354166666666572
        },
        {
          "name": "F#2",
          "midi": 42,
          "time": 221.75000000000003,
          "velocity": 0.5354330708661418,
          "duration": 0.125
        },
        {
          "name": "E2",
          "midi": 40,
          "time": 222.00000000000003,
          "velocity": 0.5039370078740157,
          "duration": 0.640625
        },
        {
          "name": "E2",
          "midi": 40,
          "time": 222.76041666666669,
          "velocity": 0.5196850393700787,
          "duration": 0.08333333333334281
        },
        {
          "name": "E2",
          "midi": 40,
          "time": 223.02083333333337,
          "velocity": 0.47244094488188976,
          "duration": 0.6666666666666572
        },
        {
          "name": "B1",
          "midi": 35,
          "time": 223.75520833333337,
          "velocity": 0.4566929133858268,
          "duration": 0.11458333333334281
        },
        {
          "name": "C2",
          "midi": 36,
          "time": 223.8697916666667,
          "velocity": 0.48031496062992124,
          "duration": 0.10416666666665719
        },
        {
          "name": "E2",
          "midi": 40,
          "time": 224.00520833333337,
          "velocity": 0.44881889763779526,
          "duration": 0.7916666666666572
        },
        {
          "name": "E2",
          "midi": 40,
          "time": 224.89062500000003,
          "velocity": 0.4015748031496063,
          "duration": 0.06770833333334281
        },
        {
          "name": "E2",
          "midi": 40,
          "time": 225.0260416666667,
          "velocity": 0.5511811023622047,
          "duration": 0.04166666666665719
        },
        {
          "name": "E2",
          "midi": 40,
          "time": 225.25520833333337,
          "velocity": 0.6692913385826772,
          "duration": 0.3854166666666572
        },
        {
          "name": "E2",
          "midi": 40,
          "time": 225.74479166666669,
          "velocity": 0.6141732283464567,
          "duration": 0.1666666666666572
        },
        {
          "name": "F2",
          "midi": 41,
          "time": 226,
          "velocity": 0.5669291338582677,
          "duration": 0.625
        },
        {
          "name": "F2",
          "midi": 41,
          "time": 226.74479166666666,
          "velocity": 0.4881889763779528,
          "duration": 0.078125
        },
        {
          "name": "F2",
          "midi": 41,
          "time": 226.99479166666666,
          "velocity": 0.4094488188976378,
          "duration": 0.08854166666665719
        },
        {
          "name": "F2",
          "midi": 41,
          "time": 227.24999999999997,
          "velocity": 0.48031496062992124,
          "duration": 0.3958333333333428
        },
        {
          "name": "F2",
          "midi": 41,
          "time": 227.76562499999997,
          "velocity": 0.5354330708661418,
          "duration": 0.1510416666666572
        },
        {
          "name": "C2",
          "midi": 36,
          "time": 227.99999999999997,
          "velocity": 0.5669291338582677,
          "duration": 0.625
        },
        {
          "name": "C2",
          "midi": 36,
          "time": 228.74479166666663,
          "velocity": 0.4881889763779528,
          "duration": 0.078125
        },
        {
          "name": "C2",
          "midi": 36,
          "time": 228.99479166666663,
          "velocity": 0.4094488188976378,
          "duration": 0.08854166666665719
        },
        {
          "name": "C2",
          "midi": 36,
          "time": 229.24999999999994,
          "velocity": 0.48031496062992124,
          "duration": 0.3958333333333428
        },
        {
          "name": "C2",
          "midi": 36,
          "time": 229.76562499999994,
          "velocity": 0.5354330708661418,
          "duration": 0.1510416666666572
        },
        {
          "name": "G2",
          "midi": 43,
          "time": 230.00520833333326,
          "velocity": 0.6299212598425197,
          "duration": 0.6666666666666572
        },
        {
          "name": "G2",
          "midi": 43,
          "time": 230.76041666666657,
          "velocity": 0.5354330708661418,
          "duration": 0.109375
        },
        {
          "name": "D2",
          "midi": 38,
          "time": 231.00520833333323,
          "velocity": 0.6299212598425197,
          "duration": 0.6666666666666572
        },
        {
          "name": "D2",
          "midi": 38,
          "time": 231.76041666666654,
          "velocity": 0.5354330708661418,
          "duration": 0.109375
        },
        {
          "name": "E2",
          "midi": 40,
          "time": 232.0208333333332,
          "velocity": 0.49606299212598426,
          "duration": 0.06770833333334281
        },
        {
          "name": "E2",
          "midi": 40,
          "time": 232.2552083333332,
          "velocity": 0.49606299212598426,
          "duration": 0.3697916666666572
        },
        {
          "name": "E2",
          "midi": 40,
          "time": 232.7552083333332,
          "velocity": 0.5354330708661418,
          "duration": 0.1614583333333428
        },
        {
          "name": "D2",
          "midi": 38,
          "time": 233.0208333333332,
          "velocity": 0.49606299212598426,
          "duration": 0.06770833333334281
        },
        {
          "name": "D2",
          "midi": 38,
          "time": 233.2552083333332,
          "velocity": 0.49606299212598426,
          "duration": 0.3697916666666572
        },
        {
          "name": "D2",
          "midi": 38,
          "time": 233.7552083333332,
          "velocity": 0.5354330708661418,
          "duration": 0.1614583333333428
        },
        {
          "name": "G2",
          "midi": 43,
          "time": 233.9999999999999,
          "velocity": 0.5669291338582677,
          "duration": 0.625
        },
        {
          "name": "G2",
          "midi": 43,
          "time": 234.74479166666654,
          "velocity": 0.4881889763779528,
          "duration": 0.078125
        },
        {
          "name": "G2",
          "midi": 43,
          "time": 234.99479166666654,
          "velocity": 0.4094488188976378,
          "duration": 0.08854166666665719
        },
        {
          "name": "G2",
          "midi": 43,
          "time": 235.24999999999986,
          "velocity": 0.48031496062992124,
          "duration": 0.3958333333333428
        },
        {
          "name": "G2",
          "midi": 43,
          "time": 235.76562499999986,
          "velocity": 0.5354330708661418,
          "duration": 0.1510416666666572
        },
        {
          "name": "F#2",
          "midi": 42,
          "time": 236.01041666666652,
          "velocity": 0.5511811023622047,
          "duration": 0.6197916666666572
        },
        {
          "name": "F#2",
          "midi": 42,
          "time": 236.75520833333317,
          "velocity": 0.4566929133858268,
          "duration": 0.11458333333334281
        },
        {
          "name": "F#2",
          "midi": 42,
          "time": 237.01041666666652,
          "velocity": 0.5039370078740157,
          "duration": 0.6354166666666572
        },
        {
          "name": "F#2",
          "midi": 42,
          "time": 237.74999999999983,
          "velocity": 0.5354330708661418,
          "duration": 0.125
        },
        {
          "name": "E2",
          "midi": 40,
          "time": 237.99999999999983,
          "velocity": 0.5039370078740157,
          "duration": 0.640625
        },
        {
          "name": "E2",
          "midi": 40,
          "time": 238.7604166666665,
          "velocity": 0.5196850393700787,
          "duration": 0.08333333333334281
        },
        {
          "name": "E2",
          "midi": 40,
          "time": 239.02083333333317,
          "velocity": 0.47244094488188976,
          "duration": 0.6666666666666572
        },
        {
          "name": "B1",
          "midi": 35,
          "time": 239.75520833333317,
          "velocity": 0.4566929133858268,
          "duration": 0.11458333333334281
        },
        {
          "name": "C2",
          "midi": 36,
          "time": 239.86979166666652,
          "velocity": 0.48031496062992124,
          "duration": 0.10416666666665719
        },
        {
          "name": "E2",
          "midi": 40,
          "time": 240.00520833333317,
          "velocity": 0.44881889763779526,
          "duration": 0.7916666666666572
        },
        {
          "name": "E2",
          "midi": 40,
          "time": 240.89062499999983,
          "velocity": 0.4015748031496063,
          "duration": 0.06770833333334281
        },
        {
          "name": "E2",
          "midi": 40,
          "time": 241.02604166666652,
          "velocity": 0.5511811023622047,
          "duration": 0.04166666666665719
        },
        {
          "name": "E2",
          "midi": 40,
          "time": 241.25520833333317,
          "velocity": 0.6692913385826772,
          "duration": 0.3854166666666572
        },
        {
          "name": "E2",
          "midi": 40,
          "time": 241.7447916666665,
          "velocity": 0.6141732283464567,
          "duration": 0.1666666666666572
        },
        {
          "name": "F2",
          "midi": 41,
          "time": 242.0104166666665,
          "velocity": 0.5511811023622047,
          "duration": 0.6197916666666572
        },
        {
          "name": "F2",
          "midi": 41,
          "time": 242.75520833333314,
          "velocity": 0.4566929133858268,
          "duration": 0.11458333333334281
        },
        {
          "name": "F2",
          "midi": 41,
          "time": 243.0104166666665,
          "velocity": 0.5039370078740157,
          "duration": 0.6354166666666572
        },
        {
          "name": "F2",
          "midi": 41,
          "time": 243.7499999999998,
          "velocity": 0.5354330708661418,
          "duration": 0.125
        },
        {
          "name": "C2",
          "midi": 36,
          "time": 244.02083333333314,
          "velocity": 0.5354330708661418,
          "duration": 0.6770833333333428
        },
        {
          "name": "G1",
          "midi": 31,
          "time": 244.7604166666665,
          "velocity": 0.4645669291338583,
          "duration": 0.05208333333334281
        },
        {
          "name": "A1",
          "midi": 33,
          "time": 244.85937499999983,
          "velocity": 0.6456692913385826,
          "duration": 0.08333333333334281
        },
        {
          "name": "C2",
          "midi": 36,
          "time": 245.00520833333317,
          "velocity": 0.6141732283464567,
          "duration": 0.5989583333333428
        },
        {
          "name": "C2",
          "midi": 36,
          "time": 245.73437499999986,
          "velocity": 0.4566929133858268,
          "duration": 0.09375
        },
        {
          "name": "G2",
          "midi": 43,
          "time": 245.99999999999986,
          "velocity": 0.5511811023622047,
          "duration": 0.6458333333333428
        },
        {
          "name": "G2",
          "midi": 43,
          "time": 246.7552083333332,
          "velocity": 0.6456692913385826,
          "duration": 0.078125
        },
        {
          "name": "G2",
          "midi": 43,
          "time": 247.0052083333332,
          "velocity": 0.6456692913385826,
          "duration": 0.6197916666666572
        },
        {
          "name": "G2",
          "midi": 43,
          "time": 247.73437499999986,
          "velocity": 0.47244094488188976,
          "duration": 0.07291666666665719
        },
        {
          "name": "G2",
          "midi": 43,
          "time": 247.98437499999986,
          "velocity": 0.49606299212598426,
          "duration": 0.9114583333333428
        },
        {
          "name": "D2",
          "midi": 38,
          "time": 248.89062499999986,
          "velocity": 0.33070866141732286,
          "duration": 0.08854166666668561
        },
        {
          "name": "G2",
          "midi": 43,
          "time": 248.9895833333332,
          "velocity": 0.6141732283464567,
          "duration": 0.08854166666665719
        },
        {
          "name": "G2",
          "midi": 43,
          "time": 249.2708333333332,
          "velocity": 0.6141732283464567,
          "duration": 0.3385416666666572
        },
        {
          "name": "G2",
          "midi": 43,
          "time": 249.7552083333332,
          "velocity": 0.6141732283464567,
          "duration": 0.140625
        },
        {
          "name": "F2",
          "midi": 41,
          "time": 249.99999999999986,
          "velocity": 0.5669291338582677,
          "duration": 0.625
        },
        {
          "name": "F2",
          "midi": 41,
          "time": 250.74479166666652,
          "velocity": 0.4881889763779528,
          "duration": 0.078125
        },
        {
          "name": "F2",
          "midi": 41,
          "time": 250.99479166666652,
          "velocity": 0.4094488188976378,
          "duration": 0.08854166666665719
        },
        {
          "name": "F2",
          "midi": 41,
          "time": 251.24999999999983,
          "velocity": 0.48031496062992124,
          "duration": 0.3958333333333428
        },
        {
          "name": "F2",
          "midi": 41,
          "time": 251.76562499999983,
          "velocity": 0.5354330708661418,
          "duration": 0.1510416666666572
        },
        {
          "name": "C2",
          "midi": 36,
          "time": 252.02083333333314,
          "velocity": 0.5354330708661418,
          "duration": 0.6770833333333428
        },
        {
          "name": "G1",
          "midi": 31,
          "time": 252.7604166666665,
          "velocity": 0.4645669291338583,
          "duration": 0.05208333333334281
        },
        {
          "name": "A1",
          "midi": 33,
          "time": 252.85937499999983,
          "velocity": 0.6456692913385826,
          "duration": 0.08333333333334281
        },
        {
          "name": "C2",
          "midi": 36,
          "time": 253.00520833333317,
          "velocity": 0.6141732283464567,
          "duration": 0.5989583333333428
        },
        {
          "name": "C2",
          "midi": 36,
          "time": 253.73437499999986,
          "velocity": 0.4566929133858268,
          "duration": 0.09375
        },
        {
          "name": "G2",
          "midi": 43,
          "time": 254.0052083333332,
          "velocity": 0.6299212598425197,
          "duration": 0.6666666666666572
        },
        {
          "name": "G2",
          "midi": 43,
          "time": 254.76041666666652,
          "velocity": 0.5354330708661418,
          "duration": 0.109375
        },
        {
          "name": "F#2",
          "midi": 42,
          "time": 255.00520833333317,
          "velocity": 0.6299212598425197,
          "duration": 0.6666666666666572
        },
        {
          "name": "F#2",
          "midi": 42,
          "time": 255.7604166666665,
          "velocity": 0.5354330708661418,
          "duration": 0.109375
        },
        {
          "name": "E2",
          "midi": 40,
          "time": 256.02083333333314,
          "velocity": 0.49606299212598426,
          "duration": 0.06770833333331439
        },
        {
          "name": "E2",
          "midi": 40,
          "time": 256.25520833333314,
          "velocity": 0.49606299212598426,
          "duration": 0.3697916666666856
        },
        {
          "name": "E2",
          "midi": 40,
          "time": 256.75520833333314,
          "velocity": 0.5354330708661418,
          "duration": 0.16145833333331439
        },
        {
          "name": "F#2",
          "midi": 42,
          "time": 257.03645833333314,
          "velocity": 0.4881889763779528,
          "duration": 0.7552083333333144
        },
        {
          "name": "F#2",
          "midi": 42,
          "time": 257.89583333333314,
          "velocity": 0.6456692913385826,
          "duration": 0.09895833333331439
        },
        {
          "name": "A#1",
          "midi": 34,
          "time": 257.9999999999998,
          "velocity": 0.5669291338582677,
          "duration": 0.625
        },
        {
          "name": "A#1",
          "midi": 34,
          "time": 258.74479166666646,
          "velocity": 0.4881889763779528,
          "duration": 0.078125
        },
        {
          "name": "A#1",
          "midi": 34,
          "time": 258.99479166666646,
          "velocity": 0.4094488188976378,
          "duration": 0.08854166666668561
        },
        {
          "name": "A#1",
          "midi": 34,
          "time": 259.24999999999983,
          "velocity": 0.48031496062992124,
          "duration": 0.3958333333333144
        },
        {
          "name": "A#1",
          "midi": 34,
          "time": 259.76562499999983,
          "velocity": 0.5354330708661418,
          "duration": 0.15104166666668561
        },
        {
          "name": "C2",
          "midi": 36,
          "time": 260.01562499999983,
          "velocity": 0.6692913385826772,
          "duration": 0.609375
        },
        {
          "name": "C2",
          "midi": 36,
          "time": 260.75520833333314,
          "velocity": 0.4881889763779528,
          "duration": 0.08854166666668561
        },
        {
          "name": "C2",
          "midi": 36,
          "time": 261.0104166666665,
          "velocity": 0.5669291338582677,
          "duration": 0.640625
        },
        {
          "name": "C2",
          "midi": 36,
          "time": 261.78124999999983,
          "velocity": 0.5984251968503937,
          "duration": 0.078125
        },
        {
          "name": "G2",
          "midi": 43,
          "time": 261.99999999999983,
          "velocity": 0.5669291338582677,
          "duration": 0.625
        },
        {
          "name": "G2",
          "midi": 43,
          "time": 262.7447916666665,
          "velocity": 0.4881889763779528,
          "duration": 0.078125
        },
        {
          "name": "G2",
          "midi": 43,
          "time": 262.9947916666665,
          "velocity": 0.4094488188976378,
          "duration": 0.08854166666668561
        },
        {
          "name": "G2",
          "midi": 43,
          "time": 263.2499999999999,
          "velocity": 0.48031496062992124,
          "duration": 0.3958333333333144
        },
        {
          "name": "G2",
          "midi": 43,
          "time": 263.7656249999999,
          "velocity": 0.5354330708661418,
          "duration": 0.15104166666668561
        },
        {
          "name": "A#1",
          "midi": 34,
          "time": 263.9999999999999,
          "velocity": 0.5669291338582677,
          "duration": 0.625
        },
        {
          "name": "A#1",
          "midi": 34,
          "time": 264.7447916666666,
          "velocity": 0.4881889763779528,
          "duration": 0.078125
        },
        {
          "name": "A#1",
          "midi": 34,
          "time": 264.9947916666666,
          "velocity": 0.4094488188976378,
          "duration": 0.08854166666668561
        },
        {
          "name": "A#1",
          "midi": 34,
          "time": 265.24999999999994,
          "velocity": 0.48031496062992124,
          "duration": 0.3958333333333144
        },
        {
          "name": "A#1",
          "midi": 34,
          "time": 265.76562499999994,
          "velocity": 0.5354330708661418,
          "duration": 0.15104166666668561
        },
        {
          "name": "C2",
          "midi": 36,
          "time": 265.99999999999994,
          "velocity": 0.5039370078740157,
          "duration": 0.640625
        },
        {
          "name": "C2",
          "midi": 36,
          "time": 266.76041666666663,
          "velocity": 0.5196850393700787,
          "duration": 0.08333333333331439
        },
        {
          "name": "C2",
          "midi": 36,
          "time": 267.02083333333326,
          "velocity": 0.47244094488188976,
          "duration": 0.6666666666666856
        },
        {
          "name": "G1",
          "midi": 31,
          "time": 267.75520833333326,
          "velocity": 0.4566929133858268,
          "duration": 0.11458333333331439
        },
        {
          "name": "A1",
          "midi": 33,
          "time": 267.8697916666666,
          "velocity": 0.48031496062992124,
          "duration": 0.10416666666668561
        },
        {
          "name": "G2",
          "midi": 43,
          "time": 268.0104166666666,
          "velocity": 0.5511811023622047,
          "duration": 0.6197916666666856
        },
        {
          "name": "G2",
          "midi": 43,
          "time": 268.75520833333326,
          "velocity": 0.4566929133858268,
          "duration": 0.11458333333331439
        },
        {
          "name": "G2",
          "midi": 43,
          "time": 269.0104166666666,
          "velocity": 0.5039370078740157,
          "duration": 0.6354166666666856
        },
        {
          "name": "G2",
          "midi": 43,
          "time": 269.74999999999994,
          "velocity": 0.5354330708661418,
          "duration": 0.125
        },
        {
          "name": "A#1",
          "midi": 34,
          "time": 270.02083333333326,
          "velocity": 0.5354330708661418,
          "duration": 0.6770833333333144
        },
        {
          "name": "F1",
          "midi": 29,
          "time": 270.7604166666666,
          "velocity": 0.4645669291338583,
          "duration": 0.052083333333314386
        },
        {
          "name": "G1",
          "midi": 31,
          "time": 270.8593749999999,
          "velocity": 0.6456692913385826,
          "duration": 0.08333333333331439
        },
        {
          "name": "A#1",
          "midi": 34,
          "time": 271.0052083333332,
          "velocity": 0.6141732283464567,
          "duration": 0.5989583333333144
        },
        {
          "name": "A#1",
          "midi": 34,
          "time": 271.73437499999983,
          "velocity": 0.4566929133858268,
          "duration": 0.09375
        },
        {
          "name": "C2",
          "midi": 36,
          "time": 271.99999999999983,
          "velocity": 0.5039370078740157,
          "duration": 0.640625
        },
        {
          "name": "C2",
          "midi": 36,
          "time": 272.7604166666665,
          "velocity": 0.5196850393700787,
          "duration": 0.08333333333331439
        },
        {
          "name": "C2",
          "midi": 36,
          "time": 273.02083333333314,
          "velocity": 0.47244094488188976,
          "duration": 0.6666666666666856
        },
        {
          "name": "G1",
          "midi": 31,
          "time": 273.75520833333314,
          "velocity": 0.4566929133858268,
          "duration": 0.11458333333331439
        },
        {
          "name": "A1",
          "midi": 33,
          "time": 273.86979166666646,
          "velocity": 0.48031496062992124,
          "duration": 0.10416666666668561
        },
        {
          "name": "C2",
          "midi": 36,
          "time": 274.00520833333314,
          "velocity": 0.44881889763779526,
          "duration": 0.7916666666666856
        },
        {
          "name": "C2",
          "midi": 36,
          "time": 274.89062499999983,
          "velocity": 0.4015748031496063,
          "duration": 0.06770833333331439
        },
        {
          "name": "C2",
          "midi": 36,
          "time": 275.02604166666646,
          "velocity": 0.5511811023622047,
          "duration": 0.041666666666685614
        },
        {
          "name": "C2",
          "midi": 36,
          "time": 275.25520833333314,
          "velocity": 0.6692913385826772,
          "duration": 0.3854166666666856
        },
        {
          "name": "C2",
          "midi": 36,
          "time": 275.7447916666665,
          "velocity": 0.6141732283464567,
          "duration": 0.16666666666668561
        },
        {
          "name": "G2",
          "midi": 43,
          "time": 276.0208333333332,
          "velocity": 0.5354330708661418,
          "duration": 0.6770833333333144
        },
        {
          "name": "D2",
          "midi": 38,
          "time": 276.7604166666665,
          "velocity": 0.4645669291338583,
          "duration": 0.052083333333314386
        },
        {
          "name": "E2",
          "midi": 40,
          "time": 276.85937499999983,
          "velocity": 0.6456692913385826,
          "duration": 0.08333333333331439
        },
        {
          "name": "G2",
          "midi": 43,
          "time": 277.00520833333314,
          "velocity": 0.6141732283464567,
          "duration": 0.5989583333333144
        },
        {
          "name": "G2",
          "midi": 43,
          "time": 277.7343749999998,
          "velocity": 0.4566929133858268,
          "duration": 0.09375
        },
        {
          "name": "A#1",
          "midi": 34,
          "time": 278.01041666666646,
          "velocity": 0.5511811023622047,
          "duration": 0.6197916666666856
        },
        {
          "name": "A#1",
          "midi": 34,
          "time": 278.75520833333314,
          "velocity": 0.4566929133858268,
          "duration": 0.11458333333331439
        },
        {
          "name": "A#1",
          "midi": 34,
          "time": 279.01041666666646,
          "velocity": 0.5039370078740157,
          "duration": 0.6354166666666856
        },
        {
          "name": "A#1",
          "midi": 34,
          "time": 279.74999999999983,
          "velocity": 0.5354330708661418,
          "duration": 0.125
        },
        {
          "name": "C2",
          "midi": 36,
          "time": 279.99999999999983,
          "velocity": 0.5511811023622047,
          "duration": 0.6458333333333144
        },
        {
          "name": "C2",
          "midi": 36,
          "time": 280.75520833333314,
          "velocity": 0.6456692913385826,
          "duration": 0.078125
        },
        {
          "name": "C2",
          "midi": 36,
          "time": 281.00520833333314,
          "velocity": 0.6456692913385826,
          "duration": 0.6197916666666856
        },
        {
          "name": "C2",
          "midi": 36,
          "time": 281.73437499999983,
          "velocity": 0.47244094488188976,
          "duration": 0.07291666666668561
        },
        {
          "name": "C2",
          "midi": 36,
          "time": 281.98437499999983,
          "velocity": 0.49606299212598426,
          "duration": 0.9114583333333144
        },
        {
          "name": "G1",
          "midi": 31,
          "time": 282.89062499999983,
          "velocity": 0.33070866141732286,
          "duration": 0.08854166666662877
        },
        {
          "name": "C2",
          "midi": 36,
          "time": 282.98958333333314,
          "velocity": 0.6141732283464567,
          "duration": 0.08854166666668561
        },
        {
          "name": "C2",
          "midi": 36,
          "time": 283.27083333333314,
          "velocity": 0.6141732283464567,
          "duration": 0.3385416666666856
        },
        {
          "name": "C2",
          "midi": 36,
          "time": 283.75520833333314,
          "velocity": 0.6141732283464567,
          "duration": 0.140625
        },
        {
          "name": "G2",
          "midi": 43,
          "time": 284.01041666666646,
          "velocity": 0.5511811023622047,
          "duration": 0.6197916666666856
        },
        {
          "name": "G2",
          "midi": 43,
          "time": 284.75520833333314,
          "velocity": 0.4566929133858268,
          "duration": 0.11458333333331439
        },
        {
          "name": "G2",
          "midi": 43,
          "time": 285.01041666666646,
          "velocity": 0.5039370078740157,
          "duration": 0.6354166666666856
        },
        {
          "name": "G2",
          "midi": 43,
          "time": 285.74999999999983,
          "velocity": 0.5354330708661418,
          "duration": 0.125
        },
        {
          "name": "G2",
          "midi": 43,
          "time": 286.0104166666665,
          "velocity": 0.5511811023622047,
          "duration": 0.6197916666666856
        },
        {
          "name": "G2",
          "midi": 43,
          "time": 286.7552083333332,
          "velocity": 0.4566929133858268,
          "duration": 0.11458333333331439
        },
        {
          "name": "G2",
          "midi": 43,
          "time": 287.0104166666665,
          "velocity": 0.5039370078740157,
          "duration": 0.6354166666666856
        },
        {
          "name": "G2",
          "midi": 43,
          "time": 287.7499999999999,
          "velocity": 0.5354330708661418,
          "duration": 0.125
        },
        {
          "name": "A#1",
          "midi": 34,
          "time": 288.0104166666666,
          "velocity": 0.5511811023622047,
          "duration": 0.6197916666666856
        },
        {
          "name": "A#1",
          "midi": 34,
          "time": 288.75520833333326,
          "velocity": 0.4566929133858268,
          "duration": 0.11458333333331439
        },
        {
          "name": "A#1",
          "midi": 34,
          "time": 289.0104166666666,
          "velocity": 0.5039370078740157,
          "duration": 0.6354166666666856
        },
        {
          "name": "A#1",
          "midi": 34,
          "time": 289.74999999999994,
          "velocity": 0.5354330708661418,
          "duration": 0.125
        },
        {
          "name": "C2",
          "midi": 36,
          "time": 289.99999999999994,
          "velocity": 0.5511811023622047,
          "duration": 0.6458333333333144
        },
        {
          "name": "C2",
          "midi": 36,
          "time": 290.75520833333326,
          "velocity": 0.6456692913385826,
          "duration": 0.078125
        },
        {
          "name": "C2",
          "midi": 36,
          "time": 291.00520833333326,
          "velocity": 0.6456692913385826,
          "duration": 0.6197916666666856
        },
        {
          "name": "C2",
          "midi": 36,
          "time": 291.73437499999994,
          "velocity": 0.47244094488188976,
          "duration": 0.07291666666668561
        },
        {
          "name": "C2",
          "midi": 36,
          "time": 291.98437499999994,
          "velocity": 0.49606299212598426,
          "duration": 0.9114583333333144
        },
        {
          "name": "G1",
          "midi": 31,
          "time": 292.89062499999994,
          "velocity": 0.33070866141732286,
          "duration": 0.08854166666662877
        },
        {
          "name": "C2",
          "midi": 36,
          "time": 292.98958333333326,
          "velocity": 0.6141732283464567,
          "duration": 0.08854166666668561
        },
        {
          "name": "C2",
          "midi": 36,
          "time": 293.27083333333326,
          "velocity": 0.6141732283464567,
          "duration": 0.3385416666666856
        },
        {
          "name": "C2",
          "midi": 36,
          "time": 293.75520833333326,
          "velocity": 0.6141732283464567,
          "duration": 0.140625
        },
        {
          "name": "G2",
          "midi": 43,
          "time": 294.0104166666666,
          "velocity": 0.5511811023622047,
          "duration": 0.6197916666666856
        },
        {
          "name": "G2",
          "midi": 43,
          "time": 294.75520833333326,
          "velocity": 0.4566929133858268,
          "duration": 0.11458333333331439
        },
        {
          "name": "G2",
          "midi": 43,
          "time": 295.0104166666666,
          "velocity": 0.5039370078740157,
          "duration": 0.6354166666666856
        },
        {
          "name": "G2",
          "midi": 43,
          "time": 295.74999999999994,
          "velocity": 0.5354330708661418,
          "duration": 0.125
        },
        {
          "name": "A#1",
          "midi": 34,
          "time": 295.99999999999994,
          "velocity": 0.5669291338582677,
          "duration": 0.625
        },
        {
          "name": "A#1",
          "midi": 34,
          "time": 296.74479166666663,
          "velocity": 0.4881889763779528,
          "duration": 0.078125
        },
        {
          "name": "A#1",
          "midi": 34,
          "time": 296.99479166666663,
          "velocity": 0.4094488188976378,
          "duration": 0.08854166666668561
        },
        {
          "name": "A#1",
          "midi": 34,
          "time": 297.25,
          "velocity": 0.48031496062992124,
          "duration": 0.3958333333333144
        },
        {
          "name": "A#1",
          "midi": 34,
          "time": 297.765625,
          "velocity": 0.5354330708661418,
          "duration": 0.15104166666668561
        },
        {
          "name": "C2",
          "midi": 36,
          "time": 298,
          "velocity": 1,
          "duration": 0.6458333333333144
        },
        {
          "name": "C2",
          "midi": 36,
          "time": 298.7552083333333,
          "velocity": 1,
          "duration": 0.078125
        },
        {
          "name": "C2",
          "midi": 36,
          "time": 299.0052083333333,
          "velocity": 1,
          "duration": 0.6197916666666856
        },
        {
          "name": "C2",
          "midi": 36,
          "time": 299.734375,
          "velocity": 1,
          "duration": 0.07291666666668561
        },
        {
          "name": "C2",
          "midi": 36,
          "time": 299.984375,
          "velocity": 1,
          "duration": 0.9114583333333144
        },
        {
          "name": "G1",
          "midi": 31,
          "time": 300.890625,
          "velocity": 1,
          "duration": 0.08854166666662877
        },
        {
          "name": "C2",
          "midi": 36,
          "time": 300.9895833333333,
          "velocity": 1,
          "duration": 0.08854166666668561
        },
        {
          "name": "C2",
          "midi": 36,
          "time": 301.2708333333333,
          "velocity": 1,
          "duration": 0.3385416666666856
        },
        {
          "name": "C2",
          "midi": 36,
          "time": 301.7552083333333,
          "velocity": 1,
          "duration": 0.140625
        },
        {
          "name": "G2",
          "midi": 43,
          "time": 302,
          "velocity": 1,
          "duration": 0.625
        },
        {
          "name": "G2",
          "midi": 43,
          "time": 302.7447916666667,
          "velocity": 1,
          "duration": 0.078125
        },
        {
          "name": "G2",
          "midi": 43,
          "time": 302.9947916666667,
          "velocity": 1,
          "duration": 0.08854166666668561
        },
        {
          "name": "G2",
          "midi": 43,
          "time": 303.25000000000006,
          "velocity": 1,
          "duration": 0.3958333333333144
        },
        {
          "name": "G2",
          "midi": 43,
          "time": 303.76562500000006,
          "velocity": 1,
          "duration": 0.15104166666668561
        },
        {
          "name": "A#1",
          "midi": 34,
          "time": 304.0208333333334,
          "velocity": 1,
          "duration": 0.6770833333333144
        },
        {
          "name": "F1",
          "midi": 29,
          "time": 304.76041666666674,
          "velocity": 1,
          "duration": 0.052083333333314386
        },
        {
          "name": "G1",
          "midi": 31,
          "time": 304.85937500000006,
          "velocity": 1,
          "duration": 0.08333333333331439
        },
        {
          "name": "A#1",
          "midi": 34,
          "time": 305.00520833333337,
          "velocity": 1,
          "duration": 0.5989583333333144
        },
        {
          "name": "A#1",
          "midi": 34,
          "time": 305.734375,
          "velocity": 1,
          "duration": 0.09375
        },
        {
          "name": "C2",
          "midi": 36,
          "time": 306.015625,
          "velocity": 1,
          "duration": 0.609375
        },
        {
          "name": "C2",
          "midi": 36,
          "time": 306.7552083333333,
          "velocity": 1,
          "duration": 0.08854166666668561
        },
        {
          "name": "C2",
          "midi": 36,
          "time": 307.0104166666667,
          "velocity": 1,
          "duration": 0.640625
        },
        {
          "name": "C2",
          "midi": 36,
          "time": 307.78125,
          "velocity": 1,
          "duration": 0.078125
        },
        {
          "name": "C2",
          "midi": 36,
          "time": 308.0208333333333,
          "velocity": 1,
          "duration": 0.6458333333333144
        },
        {
          "name": "C2",
          "midi": 36,
          "time": 308.7708333333333,
          "velocity": 1,
          "duration": 0.08854166666668561
        },
        {
          "name": "C2",
          "midi": 36,
          "time": 309.0104166666667,
          "velocity": 1,
          "duration": 0.7291666666666856
        },
        {
          "name": "G1",
          "midi": 31,
          "time": 309.75000000000006,
          "velocity": 1,
          "duration": 0.08854166666668561
        },
        {
          "name": "A1",
          "midi": 33,
          "time": 309.85937500000006,
          "velocity": 1,
          "duration": 0.11458333333331439
        },
        {
          "name": "G2",
          "midi": 43,
          "time": 310.00000000000006,
          "velocity": 1,
          "duration": 0.625
        },
        {
          "name": "G2",
          "midi": 43,
          "time": 310.74479166666674,
          "velocity": 1,
          "duration": 0.078125
        },
        {
          "name": "G2",
          "midi": 43,
          "time": 310.99479166666674,
          "velocity": 1,
          "duration": 0.08854166666668561
        },
        {
          "name": "G2",
          "midi": 43,
          "time": 311.2500000000001,
          "velocity": 1,
          "duration": 0.3958333333333144
        },
        {
          "name": "G2",
          "midi": 43,
          "time": 311.7656250000001,
          "velocity": 1,
          "duration": 0.15104166666668561
        },
        {
          "name": "A#1",
          "midi": 34,
          "time": 312.0208333333335,
          "velocity": 1,
          "duration": 0.6770833333333144
        },
        {
          "name": "F1",
          "midi": 29,
          "time": 312.7604166666668,
          "velocity": 1,
          "duration": 0.052083333333314386
        },
        {
          "name": "G1",
          "midi": 31,
          "time": 312.8593750000001,
          "velocity": 1,
          "duration": 0.08333333333331439
        },
        {
          "name": "A#1",
          "midi": 34,
          "time": 313.0052083333334,
          "velocity": 1,
          "duration": 0.5989583333333144
        },
        {
          "name": "A#1",
          "midi": 34,
          "time": 313.73437500000006,
          "velocity": 1,
          "duration": 0.09375
        },
        {
          "name": "C2",
          "midi": 36,
          "time": 314.00000000000006,
          "velocity": 1,
          "duration": 0.6458333333333144
        },
        {
          "name": "C2",
          "midi": 36,
          "time": 314.75520833333337,
          "velocity": 1,
          "duration": 0.078125
        },
        {
          "name": "C2",
          "midi": 36,
          "time": 315.00520833333337,
          "velocity": 1,
          "duration": 0.6197916666666856
        },
        {
          "name": "C2",
          "midi": 36,
          "time": 315.73437500000006,
          "velocity": 1,
          "duration": 0.07291666666668561
        },
        {
          "name": "C2",
          "midi": 36,
          "time": 315.98437500000006,
          "velocity": 1,
          "duration": 0.9114583333333144
        },
        {
          "name": "G1",
          "midi": 31,
          "time": 316.89062500000006,
          "velocity": 1,
          "duration": 0.08854166666662877
        },
        {
          "name": "C2",
          "midi": 36,
          "time": 316.98958333333337,
          "velocity": 1,
          "duration": 0.08854166666668561
        },
        {
          "name": "C2",
          "midi": 36,
          "time": 317.27083333333337,
          "velocity": 1,
          "duration": 0.3385416666666856
        },
        {
          "name": "C2",
          "midi": 36,
          "time": 317.75520833333337,
          "velocity": 1,
          "duration": 0.140625
        },
        {
          "name": "G2",
          "midi": 43,
          "time": 318.0104166666667,
          "velocity": 1,
          "duration": 0.6197916666666856
        },
        {
          "name": "G2",
          "midi": 43,
          "time": 318.75520833333337,
          "velocity": 1,
          "duration": 0.11458333333331439
        },
        {
          "name": "G2",
          "midi": 43,
          "time": 319.0104166666667,
          "velocity": 1,
          "duration": 0.6354166666666856
        },
        {
          "name": "G2",
          "midi": 43,
          "time": 319.75000000000006,
          "velocity": 1,
          "duration": 0.125
        },
        {
          "name": "A#1",
          "midi": 34,
          "time": 320.02083333333337,
          "velocity": 1,
          "duration": 0.6770833333333144
        },
        {
          "name": "F1",
          "midi": 29,
          "time": 320.7604166666667,
          "velocity": 1,
          "duration": 0.052083333333314386
        },
        {
          "name": "G1",
          "midi": 31,
          "time": 320.859375,
          "velocity": 1,
          "duration": 0.08333333333331439
        },
        {
          "name": "A#1",
          "midi": 34,
          "time": 321.0052083333333,
          "velocity": 1,
          "duration": 0.5989583333333144
        },
        {
          "name": "A#1",
          "midi": 34,
          "time": 321.73437499999994,
          "velocity": 1,
          "duration": 0.09375
        },
        {
          "name": "C2",
          "midi": 36,
          "time": 322.02083333333326,
          "velocity": 1,
          "duration": 0.6770833333333144
        },
        {
          "name": "G1",
          "midi": 31,
          "time": 322.7604166666666,
          "velocity": 1,
          "duration": 0.052083333333314386
        },
        {
          "name": "A1",
          "midi": 33,
          "time": 322.8593749999999,
          "velocity": 1,
          "duration": 0.08333333333331439
        },
        {
          "name": "C2",
          "midi": 36,
          "time": 323.0052083333332,
          "velocity": 1,
          "duration": 0.5989583333333144
        },
        {
          "name": "C2",
          "midi": 36,
          "time": 323.73437499999983,
          "velocity": 1,
          "duration": 0.09375
        },
        {
          "name": "C2",
          "midi": 36,
          "time": 323.99999999999983,
          "velocity": 1,
          "duration": 0.625
        },
        {
          "name": "C2",
          "midi": 36,
          "time": 324.7447916666665,
          "velocity": 1,
          "duration": 0.078125
        },
        {
          "name": "C2",
          "midi": 36,
          "time": 324.9947916666665,
          "velocity": 1,
          "duration": 0.08854166666668561
        },
        {
          "name": "C2",
          "midi": 36,
          "time": 325.2499999999999,
          "velocity": 1,
          "duration": 0.3958333333333144
        },
        {
          "name": "C2",
          "midi": 36,
          "time": 325.7656249999999,
          "velocity": 1,
          "duration": 0.15104166666668561
        },
        {
          "name": "C2",
          "midi": 36,
          "time": 325.9999999999999,
          "velocity": 1,
          "duration": 0.6458333333333144
        },
        {
          "name": "C2",
          "midi": 36,
          "time": 326.7552083333332,
          "velocity": 1,
          "duration": 0.078125
        },
        {
          "name": "C2",
          "midi": 36,
          "time": 327.0052083333332,
          "velocity": 1,
          "duration": 0.6197916666666856
        },
        {
          "name": "C2",
          "midi": 36,
          "time": 327.7343749999999,
          "velocity": 1,
          "duration": 0.07291666666668561
        },
        {
          "name": "C2",
          "midi": 36,
          "time": 327.9843749999999,
          "velocity": 1,
          "duration": 0.9114583333333144
        },
        {
          "name": "G1",
          "midi": 31,
          "time": 328.8906249999999,
          "velocity": 1,
          "duration": 0.08854166666662877
        },
        {
          "name": "C2",
          "midi": 36,
          "time": 328.9895833333332,
          "velocity": 1,
          "duration": 0.08854166666668561
        },
        {
          "name": "C2",
          "midi": 36,
          "time": 329.2708333333332,
          "velocity": 1,
          "duration": 0.3385416666666856
        },
        {
          "name": "C2",
          "midi": 36,
          "time": 329.7552083333332,
          "velocity": 1,
          "duration": 0.140625
        },
        {
          "name": "G2",
          "midi": 43,
          "time": 329.9999999999999,
          "velocity": 1,
          "duration": 0.625
        },
        {
          "name": "G2",
          "midi": 43,
          "time": 330.7447916666666,
          "velocity": 1,
          "duration": 0.078125
        },
        {
          "name": "G2",
          "midi": 43,
          "time": 330.9947916666666,
          "velocity": 1,
          "duration": 0.08854166666668561
        },
        {
          "name": "G2",
          "midi": 43,
          "time": 331.24999999999994,
          "velocity": 1,
          "duration": 0.3958333333333144
        },
        {
          "name": "G2",
          "midi": 43,
          "time": 331.76562499999994,
          "velocity": 1,
          "duration": 0.15104166666668561
        },
        {
          "name": "A#1",
          "midi": 34,
          "time": 332.0208333333333,
          "velocity": 1,
          "duration": 0.6770833333333144
        },
        {
          "name": "F1",
          "midi": 29,
          "time": 332.76041666666663,
          "velocity": 1,
          "duration": 0.052083333333314386
        },
        {
          "name": "G1",
          "midi": 31,
          "time": 332.85937499999994,
          "velocity": 1,
          "duration": 0.08333333333331439
        },
        {
          "name": "A#1",
          "midi": 34,
          "time": 333.00520833333326,
          "velocity": 1,
          "duration": 0.5989583333333144
        },
        {
          "name": "A#1",
          "midi": 34,
          "time": 333.7343749999999,
          "velocity": 1,
          "duration": 0.09375
        },
        {
          "name": "C2",
          "midi": 36,
          "time": 334.0156249999999,
          "velocity": 1,
          "duration": 0.609375
        },
        {
          "name": "C2",
          "midi": 36,
          "time": 334.7552083333332,
          "velocity": 1,
          "duration": 0.08854166666668561
        },
        {
          "name": "C2",
          "midi": 36,
          "time": 335.0104166666666,
          "velocity": 1,
          "duration": 0.640625
        },
        {
          "name": "C2",
          "midi": 36,
          "time": 335.7812499999999,
          "velocity": 1,
          "duration": 0.078125
        },
        {
          "name": "C2",
          "midi": 36,
          "time": 336.0208333333332,
          "velocity": 1,
          "duration": 0.6458333333333144
        },
        {
          "name": "C2",
          "midi": 36,
          "time": 336.7708333333332,
          "velocity": 1,
          "duration": 0.08854166666668561
        },
        {
          "name": "C2",
          "midi": 36,
          "time": 337.0104166666666,
          "velocity": 1,
          "duration": 0.7291666666666856
        },
        {
          "name": "G1",
          "midi": 31,
          "time": 337.74999999999994,
          "velocity": 1,
          "duration": 0.08854166666668561
        },
        {
          "name": "A1",
          "midi": 33,
          "time": 337.85937499999994,
          "velocity": 1,
          "duration": 0.11458333333331439
        },
        {
          "name": "G2",
          "midi": 43,
          "time": 337.99999999999994,
          "velocity": 1,
          "duration": 0.625
        },
        {
          "name": "G2",
          "midi": 43,
          "time": 338.74479166666663,
          "velocity": 1,
          "duration": 0.078125
        },
        {
          "name": "G2",
          "midi": 43,
          "time": 338.99479166666663,
          "velocity": 1,
          "duration": 0.08854166666668561
        },
        {
          "name": "G2",
          "midi": 43,
          "time": 339.25,
          "velocity": 1,
          "duration": 0.3958333333333144
        },
        {
          "name": "G2",
          "midi": 43,
          "time": 339.765625,
          "velocity": 1,
          "duration": 0.15104166666668561
        },
        {
          "name": "A#1",
          "midi": 34,
          "time": 340.02083333333337,
          "velocity": 1,
          "duration": 0.6770833333333144
        },
        {
          "name": "F1",
          "midi": 29,
          "time": 340.7604166666667,
          "velocity": 1,
          "duration": 0.052083333333314386
        },
        {
          "name": "G1",
          "midi": 31,
          "time": 340.859375,
          "velocity": 1,
          "duration": 0.08333333333331439
        },
        {
          "name": "A#1",
          "midi": 34,
          "time": 341.0052083333333,
          "velocity": 1,
          "duration": 0.5989583333333144
        },
        {
          "name": "A#1",
          "midi": 34,
          "time": 341.73437499999994,
          "velocity": 1,
          "duration": 0.09375
        },
        {
          "name": "C2",
          "midi": 36,
          "time": 341.99999999999994,
          "velocity": 1,
          "duration": 0.6458333333333144
        },
        {
          "name": "C2",
          "midi": 36,
          "time": 342.75520833333326,
          "velocity": 1,
          "duration": 0.078125
        },
        {
          "name": "C2",
          "midi": 36,
          "time": 343.00520833333326,
          "velocity": 1,
          "duration": 0.6197916666666856
        },
        {
          "name": "C2",
          "midi": 36,
          "time": 343.73437499999994,
          "velocity": 1,
          "duration": 0.07291666666668561
        },
        {
          "name": "C2",
          "midi": 36,
          "time": 343.98437499999994,
          "velocity": 1,
          "duration": 0.9114583333333144
        },
        {
          "name": "G1",
          "midi": 31,
          "time": 344.89062499999994,
          "velocity": 1,
          "duration": 0.08854166666662877
        },
        {
          "name": "C2",
          "midi": 36,
          "time": 344.98958333333326,
          "velocity": 1,
          "duration": 0.08854166666668561
        },
        {
          "name": "C2",
          "midi": 36,
          "time": 345.27083333333326,
          "velocity": 1,
          "duration": 0.3385416666666856
        },
        {
          "name": "C2",
          "midi": 36,
          "time": 345.75520833333326,
          "velocity": 1,
          "duration": 0.140625
        },
        {
          "name": "G2",
          "midi": 43,
          "time": 346.0104166666666,
          "velocity": 1,
          "duration": 0.6197916666666856
        },
        {
          "name": "G2",
          "midi": 43,
          "time": 346.75520833333326,
          "velocity": 1,
          "duration": 0.11458333333331439
        },
        {
          "name": "G2",
          "midi": 43,
          "time": 347.0104166666666,
          "velocity": 1,
          "duration": 0.6354166666666856
        },
        {
          "name": "G2",
          "midi": 43,
          "time": 347.74999999999994,
          "velocity": 1,
          "duration": 0.125
        },
        {
          "name": "A#1",
          "midi": 34,
          "time": 348.02083333333326,
          "velocity": 1,
          "duration": 0.6770833333333144
        },
        {
          "name": "F1",
          "midi": 29,
          "time": 348.7604166666666,
          "velocity": 1,
          "duration": 0.052083333333314386
        },
        {
          "name": "G1",
          "midi": 31,
          "time": 348.8593749999999,
          "velocity": 1,
          "duration": 0.08333333333331439
        },
        {
          "name": "A#1",
          "midi": 34,
          "time": 349.0052083333332,
          "velocity": 1,
          "duration": 0.5989583333333144
        },
        {
          "name": "A#1",
          "midi": 34,
          "time": 349.73437499999983,
          "velocity": 1,
          "duration": 0.09375
        },
        {
          "name": "C2",
          "midi": 36,
          "time": 350.02083333333314,
          "velocity": 1,
          "duration": 0.6770833333333144
        },
        {
          "name": "G1",
          "midi": 31,
          "time": 350.76041666666646,
          "velocity": 1,
          "duration": 0.052083333333314386
        },
        {
          "name": "A1",
          "midi": 33,
          "time": 350.8593749999998,
          "velocity": 1,
          "duration": 0.08333333333331439
        },
        {
          "name": "C2",
          "midi": 36,
          "time": 351.0052083333331,
          "velocity": 1,
          "duration": 0.5989583333333144
        },
        {
          "name": "C2",
          "midi": 36,
          "time": 351.7343749999997,
          "velocity": 1,
          "duration": 0.09375
        },
        {
          "name": "C2",
          "midi": 36,
          "time": 351.9999999999997,
          "velocity": 1,
          "duration": 0.625
        },
        {
          "name": "C2",
          "midi": 36,
          "time": 352.7447916666664,
          "velocity": 1,
          "duration": 0.078125
        },
        {
          "name": "C2",
          "midi": 36,
          "time": 352.9947916666664,
          "velocity": 1,
          "duration": 0.08854166666668561
        },
        {
          "name": "C2",
          "midi": 36,
          "time": 353.2499999999998,
          "velocity": 1,
          "duration": 0.3958333333333144
        },
        {
          "name": "C2",
          "midi": 36,
          "time": 353.7656249999998,
          "velocity": 1,
          "duration": 0.15104166666668561
        },
        {
          "name": "C2",
          "midi": 36,
          "time": 353.9999999999998,
          "velocity": 1,
          "duration": 0.6458333333333144
        },
        {
          "name": "C2",
          "midi": 36,
          "time": 354.7552083333331,
          "velocity": 1,
          "duration": 0.078125
        },
        {
          "name": "C2",
          "midi": 36,
          "time": 355.0052083333331,
          "velocity": 1,
          "duration": 0.6197916666666856
        },
        {
          "name": "C2",
          "midi": 36,
          "time": 355.7343749999998,
          "velocity": 1,
          "duration": 0.07291666666668561
        },
        {
          "name": "C2",
          "midi": 36,
          "time": 355.9843749999998,
          "velocity": 1,
          "duration": 0.9114583333333144
        },
        {
          "name": "G1",
          "midi": 31,
          "time": 356.8906249999998,
          "velocity": 1,
          "duration": 0.08854166666662877
        },
        {
          "name": "C2",
          "midi": 36,
          "time": 356.9895833333331,
          "velocity": 1,
          "duration": 0.08854166666668561
        },
        {
          "name": "C2",
          "midi": 36,
          "time": 357.2708333333331,
          "velocity": 1,
          "duration": 0.3385416666666856
        },
        {
          "name": "C2",
          "midi": 36,
          "time": 357.7552083333331,
          "velocity": 1,
          "duration": 0.140625
        },
        {
          "name": "G1",
          "midi": 31,
          "time": 357.9947916666664,
          "velocity": 1,
          "duration": 0.359375
        },
        {
          "name": "G1",
          "midi": 31,
          "time": 358.4635416666664,
          "velocity": 1,
          "duration": 0.3802083333333144
        },
        {
          "name": "A#1",
          "midi": 34,
          "time": 359.9791666666664,
          "velocity": 1,
          "duration": 0.3177083333333144
        },
        {
          "name": "A#1",
          "midi": 34,
          "time": 360.4635416666664,
          "velocity": 1,
          "duration": 0.3333333333333144
        },
        {
          "name": "C2",
          "midi": 36,
          "time": 362.0156249999997,
          "velocity": 1,
          "duration": 0.3020833333333144
        },
        {
          "name": "C2",
          "midi": 36,
          "time": 362.50520833333303,
          "velocity": 1,
          "duration": 0.3645833333333144
        },
        {
          "name": "C2",
          "midi": 36,
          "time": 363.97916666666634,
          "velocity": 1,
          "duration": 0.09375
        },
        {
          "name": "E1",
          "midi": 28,
          "time": 364.22916666666634,
          "velocity": 1,
          "duration": 0.3489583333333144
        },
        {
          "name": "F1",
          "midi": 29,
          "time": 364.68749999999966,
          "velocity": 1,
          "duration": 0.4270833333333144
        },
        {
          "name": "F#1",
          "midi": 30,
          "time": 365.23437499999966,
          "velocity": 1,
          "duration": 0.46875
        },
        {
          "name": "G1",
          "midi": 31,
          "time": 365.76562499999966,
          "velocity": 1,
          "duration": 0.15104166666668561
        },
        {
          "name": "G1",
          "midi": 31,
          "time": 365.98437499999966,
          "velocity": 1,
          "duration": 0.359375
        },
        {
          "name": "G1",
          "midi": 31,
          "time": 366.489583333333,
          "velocity": 1,
          "duration": 0.5729166666666288
        },
        {
          "name": "F1",
          "midi": 29,
          "time": 366.4947916666663,
          "velocity": 1,
          "duration": 0.16145833333331439
        },
        {
          "name": "A#1",
          "midi": 34,
          "time": 367.9635416666663,
          "velocity": 1,
          "duration": 0.3645833333333144
        },
        {
          "name": "A#1",
          "midi": 34,
          "time": 368.4843749999996,
          "velocity": 1,
          "duration": 0.3020833333333144
        },
        {
          "name": "C2",
          "midi": 36,
          "time": 369.97916666666623,
          "velocity": 1,
          "duration": 0.3541666666666856
        },
        {
          "name": "C2",
          "midi": 36,
          "time": 370.49479166666623,
          "velocity": 1,
          "duration": 0.3645833333333144
        },
        {
          "name": "C2",
          "midi": 36,
          "time": 371.96874999999955,
          "velocity": 1,
          "duration": 0.08854166666668561
        },
        {
          "name": "E1",
          "midi": 28,
          "time": 372.2239583333329,
          "velocity": 1,
          "duration": 0.3645833333333144
        },
        {
          "name": "F1",
          "midi": 29,
          "time": 372.72916666666623,
          "velocity": 1,
          "duration": 0.390625
        },
        {
          "name": "F#1",
          "midi": 30,
          "time": 373.22916666666623,
          "velocity": 1,
          "duration": 0.40625
        },
        {
          "name": "F#1",
          "midi": 30,
          "time": 373.71354166666623,
          "velocity": 1,
          "duration": 0.17708333333331439
        },
        {
          "name": "G1",
          "midi": 31,
          "time": 373.96874999999955,
          "velocity": 1,
          "duration": 0.40625
        },
        {
          "name": "G1",
          "midi": 31,
          "time": 374.49479166666623,
          "velocity": 1,
          "duration": 0.3177083333333144
        },
        {
          "name": "A#1",
          "midi": 34,
          "time": 375.98958333333286,
          "velocity": 1,
          "duration": 0.328125
        },
        {
          "name": "A#1",
          "midi": 34,
          "time": 376.48437499999955,
          "velocity": 1,
          "duration": 0.3333333333333144
        },
        {
          "name": "C2",
          "midi": 36,
          "time": 377.99999999999955,
          "velocity": 1,
          "duration": 0.3385416666666856
        },
        {
          "name": "C2",
          "midi": 36,
          "time": 378.49999999999955,
          "velocity": 1,
          "duration": 0.4270833333333144
        },
        {
          "name": "C2",
          "midi": 36,
          "time": 379.98437499999955,
          "velocity": 1,
          "duration": 0.34375
        },
        {
          "name": "C2",
          "midi": 36,
          "time": 380.47395833333286,
          "velocity": 1,
          "duration": 0.4791666666666856
        },
        {
          "name": "C2",
          "midi": 36,
          "time": 381.30208333333286,
          "velocity": 1,
          "duration": 0.421875
        },
        {
          "name": "A#1",
          "midi": 34,
          "time": 383.98958333333286,
          "velocity": 1,
          "duration": 0.359375
        },
        {
          "name": "A#1",
          "midi": 34,
          "time": 384.02083333333286,
          "velocity": 1,
          "duration": 0.6770833333333144
        },
        {
          "name": "A#1",
          "midi": 34,
          "time": 384.47395833333286,
          "velocity": 1,
          "duration": 0.28125
        },
        {
          "name": "F1",
          "midi": 29,
          "time": 384.7604166666662,
          "velocity": 1,
          "duration": 0.052083333333314386
        },
        {
          "name": "G1",
          "midi": 31,
          "time": 384.8593749999995,
          "velocity": 1,
          "duration": 0.08333333333331439
        },
        {
          "name": "A#1",
          "midi": 34,
          "time": 385.0052083333328,
          "velocity": 1,
          "duration": 0.5989583333333144
        },
        {
          "name": "A#1",
          "midi": 34,
          "time": 385.73437499999943,
          "velocity": 1,
          "duration": 0.09375
        },
        {
          "name": "C2",
          "midi": 36,
          "time": 385.9947916666661,
          "velocity": 1,
          "duration": 0.3333333333333144
        },
        {
          "name": "C2",
          "midi": 36,
          "time": 386.01562499999943,
          "velocity": 1,
          "duration": 0.609375
        },
        {
          "name": "C2",
          "midi": 36,
          "time": 386.48437499999943,
          "velocity": 1,
          "duration": 0.359375
        },
        {
          "name": "C2",
          "midi": 36,
          "time": 386.75520833333275,
          "velocity": 1,
          "duration": 0.19270833333337123
        },
        {
          "name": "C2",
          "midi": 36,
          "time": 387.0104166666661,
          "velocity": 1,
          "duration": 0.640625
        },
        {
          "name": "C2",
          "midi": 36,
          "time": 387.78124999999943,
          "velocity": 1,
          "duration": 0.078125
        },
        {
          "name": "C2",
          "midi": 36,
          "time": 387.9479166666661,
          "velocity": 1,
          "duration": 0.10416666666668561
        },
        {
          "name": "C2",
          "midi": 36,
          "time": 388.0208333333328,
          "velocity": 1,
          "duration": 0.6458333333333144
        },
        {
          "name": "E1",
          "midi": 28,
          "time": 388.2291666666661,
          "velocity": 1,
          "duration": 0.390625
        },
        {
          "name": "F1",
          "midi": 29,
          "time": 388.73437499999943,
          "velocity": 1,
          "duration": 0.3854166666666856
        },
        {
          "name": "C2",
          "midi": 36,
          "time": 388.77083333333275,
          "velocity": 1,
          "duration": 0.08854166666668561
        },
        {
          "name": "C2",
          "midi": 36,
          "time": 389.0104166666661,
          "velocity": 1,
          "duration": 0.7291666666666288
        },
        {
          "name": "F#1",
          "midi": 30,
          "time": 389.23437499999943,
          "velocity": 1,
          "duration": 0.4375
        },
        {
          "name": "F#1",
          "midi": 30,
          "time": 389.73958333333275,
          "velocity": 1,
          "duration": 0.140625
        },
        {
          "name": "G1",
          "midi": 31,
          "time": 389.74999999999943,
          "velocity": 1,
          "duration": 0.08854166666668561
        },
        {
          "name": "A1",
          "midi": 33,
          "time": 389.85937499999943,
          "velocity": 1,
          "duration": 0.11458333333331439
        },
        {
          "name": "G1",
          "midi": 31,
          "time": 389.97916666666606,
          "velocity": 1,
          "duration": 0.40104166666662877
        },
        {
          "name": "G2",
          "midi": 43,
          "time": 389.9999999999994,
          "velocity": 1,
          "duration": 0.625
        },
        {
          "name": "G1",
          "midi": 31,
          "time": 390.4999999999994,
          "velocity": 1,
          "duration": 0.39583333333337123
        },
        {
          "name": "G2",
          "midi": 43,
          "time": 390.74479166666606,
          "velocity": 1,
          "duration": 0.078125
        },
        {
          "name": "G2",
          "midi": 43,
          "time": 390.99479166666606,
          "velocity": 1,
          "duration": 0.08854166666668561
        },
        {
          "name": "G2",
          "midi": 43,
          "time": 391.24999999999943,
          "velocity": 1,
          "duration": 0.3958333333333144
        },
        {
          "name": "G2",
          "midi": 43,
          "time": 391.76562499999943,
          "velocity": 1,
          "duration": 0.15104166666668561
        },
        {
          "name": "A#1",
          "midi": 34,
          "time": 391.9791666666661,
          "velocity": 1,
          "duration": 0.3385416666666856
        },
        {
          "name": "A#1",
          "midi": 34,
          "time": 392.0208333333328,
          "velocity": 1,
          "duration": 0.6770833333333712
        },
        {
          "name": "A#1",
          "midi": 34,
          "time": 392.4843749999995,
          "velocity": 1,
          "duration": 0.359375
        },
        {
          "name": "F1",
          "midi": 29,
          "time": 392.7604166666662,
          "velocity": 1,
          "duration": 0.052083333333314386
        },
        {
          "name": "G1",
          "midi": 31,
          "time": 392.8593749999995,
          "velocity": 1,
          "duration": 0.08333333333331439
        },
        {
          "name": "A#1",
          "midi": 34,
          "time": 393.0052083333328,
          "velocity": 1,
          "duration": 0.5989583333333144
        },
        {
          "name": "A#1",
          "midi": 34,
          "time": 393.73437499999943,
          "velocity": 1,
          "duration": 0.09375
        },
        {
          "name": "C2",
          "midi": 36,
          "time": 393.99999999999943,
          "velocity": 1,
          "duration": 0.3333333333333144
        },
        {
          "name": "C2",
          "midi": 36,
          "time": 393.99999999999943,
          "velocity": 1,
          "duration": 0.6458333333333144
        },
        {
          "name": "C2",
          "midi": 36,
          "time": 394.49999999999943,
          "velocity": 1,
          "duration": 0.3333333333333144
        },
        {
          "name": "C2",
          "midi": 36,
          "time": 394.75520833333275,
          "velocity": 1,
          "duration": 0.34375
        },
        {
          "name": "C2",
          "midi": 36,
          "time": 395.00520833333275,
          "velocity": 1,
          "duration": 0.6197916666666856
        },
        {
          "name": "C2",
          "midi": 36,
          "time": 395.73437499999943,
          "velocity": 1,
          "duration": 0.07291666666668561
        },
        {
          "name": "C2",
          "midi": 36,
          "time": 395.98437499999943,
          "velocity": 1,
          "duration": 0.109375
        },
        {
          "name": "C2",
          "midi": 36,
          "time": 395.98437499999943,
          "velocity": 1,
          "duration": 0.9114583333333144
        },
        {
          "name": "E1",
          "midi": 28,
          "time": 396.2604166666661,
          "velocity": 1,
          "duration": 0.3020833333333144
        },
        {
          "name": "F1",
          "midi": 29,
          "time": 396.73958333333275,
          "velocity": 1,
          "duration": 0.359375
        },
        {
          "name": "G1",
          "midi": 31,
          "time": 396.89062499999943,
          "velocity": 1,
          "duration": 0.08854166666662877
        },
        {
          "name": "C2",
          "midi": 36,
          "time": 396.98958333333275,
          "velocity": 1,
          "duration": 0.08854166666668561
        },
        {
          "name": "F#1",
          "midi": 30,
          "time": 397.21354166666606,
          "velocity": 1,
          "duration": 0.41145833333337123
        },
        {
          "name": "C2",
          "midi": 36,
          "time": 397.27083333333275,
          "velocity": 1,
          "duration": 0.3385416666666856
        },
        {
          "name": "F#1",
          "midi": 30,
          "time": 397.7291666666661,
          "velocity": 1,
          "duration": 0.15625
        },
        {
          "name": "C2",
          "midi": 36,
          "time": 397.7552083333328,
          "velocity": 1,
          "duration": 0.140625
        },
        {
          "name": "G1",
          "midi": 31,
          "time": 397.9687499999995,
          "velocity": 1,
          "duration": 0.359375
        },
        {
          "name": "G2",
          "midi": 43,
          "time": 398.0104166666662,
          "velocity": 1,
          "duration": 0.6197916666666288
        },
        {
          "name": "G1",
          "midi": 31,
          "time": 398.4895833333328,
          "velocity": 1,
          "duration": 0.3802083333333144
        },
        {
          "name": "G2",
          "midi": 43,
          "time": 398.7552083333328,
          "velocity": 1,
          "duration": 0.11458333333331439
        },
        {
          "name": "G2",
          "midi": 43,
          "time": 399.0104166666661,
          "velocity": 1,
          "duration": 0.6354166666666856
        },
        {
          "name": "G2",
          "midi": 43,
          "time": 399.7499999999995,
          "velocity": 1,
          "duration": 0.125
        },
        {
          "name": "A#1",
          "midi": 34,
          "time": 399.9739583333328,
          "velocity": 1,
          "duration": 0.3177083333333144
        },
        {
          "name": "A#1",
          "midi": 34,
          "time": 400.0208333333328,
          "velocity": 1,
          "duration": 0.6770833333333144
        },
        {
          "name": "A#1",
          "midi": 34,
          "time": 400.4791666666661,
          "velocity": 1,
          "duration": 0.40104166666662877
        },
        {
          "name": "F1",
          "midi": 29,
          "time": 400.7604166666661,
          "velocity": 1,
          "duration": 0.052083333333314386
        },
        {
          "name": "G1",
          "midi": 31,
          "time": 400.85937499999943,
          "velocity": 1,
          "duration": 0.08333333333331439
        },
        {
          "name": "A#1",
          "midi": 34,
          "time": 401.00520833333275,
          "velocity": 1,
          "duration": 0.5989583333333144
        },
        {
          "name": "A#1",
          "midi": 34,
          "time": 401.7343749999994,
          "velocity": 1,
          "duration": 0.09375
        },
        {
          "name": "C2",
          "midi": 36,
          "time": 401.99479166666606,
          "velocity": 1,
          "duration": 0.34375
        },
        {
          "name": "C2",
          "midi": 36,
          "time": 402.02083333333275,
          "velocity": 1,
          "duration": 0.6770833333333144
        },
        {
          "name": "C2",
          "midi": 36,
          "time": 402.52083333333275,
          "velocity": 1,
          "duration": 0.43749999999994316
        },
        {
          "name": "G1",
          "midi": 31,
          "time": 402.76041666666606,
          "velocity": 1,
          "duration": 0.052083333333314386
        },
        {
          "name": "A1",
          "midi": 33,
          "time": 402.8593749999994,
          "velocity": 1,
          "duration": 0.08333333333331439
        },
        {
          "name": "C2",
          "midi": 36,
          "time": 403.0052083333327,
          "velocity": 1,
          "duration": 0.5989583333333144
        },
        {
          "name": "C2",
          "midi": 36,
          "time": 403.7343749999993,
          "velocity": 1,
          "duration": 0.09375
        },
        {
          "name": "C2",
          "midi": 36,
          "time": 403.963541666666,
          "velocity": 1,
          "duration": 0.41666666666662877
        },
        {
          "name": "C2",
          "midi": 36,
          "time": 403.9999999999993,
          "velocity": 1,
          "duration": 0.625
        },
        {
          "name": "C2",
          "midi": 36,
          "time": 404.4687499999993,
          "velocity": 1,
          "duration": 0.3541666666666856
        },
        {
          "name": "C2",
          "midi": 36,
          "time": 404.744791666666,
          "velocity": 1,
          "duration": 0.19270833333331439
        },
        {
          "name": "C2",
          "midi": 36,
          "time": 404.994791666666,
          "velocity": 1,
          "duration": 0.08854166666668561
        },
        {
          "name": "C2",
          "midi": 36,
          "time": 405.2499999999994,
          "velocity": 1,
          "duration": 0.3958333333333144
        },
        {
          "name": "C2",
          "midi": 36,
          "time": 405.7656249999994,
          "velocity": 1,
          "duration": 0.15104166666668561
        },
        {
          "name": "E1",
          "midi": 28,
          "time": 405.98958333333275,
          "velocity": 1,
          "duration": 0.09895833333337123
        },
        {
          "name": "C2",
          "midi": 36,
          "time": 405.99999999999943,
          "velocity": 1,
          "duration": 0.6458333333333712
        },
        {
          "name": "C2",
          "midi": 36,
          "time": 406.7552083333328,
          "velocity": 1,
          "duration": 0.078125
        },
        {
          "name": "C2",
          "midi": 36,
          "time": 407.0052083333328,
          "velocity": 1,
          "duration": 0.6197916666666856
        },
        {
          "name": "C2",
          "midi": 36,
          "time": 407.7343749999995,
          "velocity": 1,
          "duration": 0.07291666666668561
        },
        {
          "name": "C2",
          "midi": 36,
          "time": 407.9843749999995,
          "velocity": 1,
          "duration": 0.9114583333333144
        },
        {
          "name": "G1",
          "midi": 31,
          "time": 408.8906249999995,
          "velocity": 1,
          "duration": 0.08854166666662877
        },
        {
          "name": "C2",
          "midi": 36,
          "time": 408.9895833333328,
          "velocity": 1,
          "duration": 0.08854166666668561
        },
        {
          "name": "C2",
          "midi": 36,
          "time": 409.2708333333328,
          "velocity": 1,
          "duration": 0.3385416666666856
        },
        {
          "name": "C2",
          "midi": 36,
          "time": 409.7552083333328,
          "velocity": 1,
          "duration": 0.140625
        },
        {
          "name": "G2",
          "midi": 43,
          "time": 409.9999999999995,
          "velocity": 1,
          "duration": 0.625
        },
        {
          "name": "G2",
          "midi": 43,
          "time": 410.7447916666662,
          "velocity": 1,
          "duration": 0.078125
        },
        {
          "name": "G2",
          "midi": 43,
          "time": 410.9947916666662,
          "velocity": 1,
          "duration": 0.08854166666668561
        },
        {
          "name": "G2",
          "midi": 43,
          "time": 411.24999999999955,
          "velocity": 1,
          "duration": 0.3958333333333144
        },
        {
          "name": "G2",
          "midi": 43,
          "time": 411.76562499999955,
          "velocity": 1,
          "duration": 0.15104166666668561
        },
        {
          "name": "A#1",
          "midi": 34,
          "time": 412.0208333333329,
          "velocity": 1,
          "duration": 0.6770833333333144
        },
        {
          "name": "F1",
          "midi": 29,
          "time": 412.76041666666623,
          "velocity": 1,
          "duration": 0.052083333333314386
        },
        {
          "name": "G1",
          "midi": 31,
          "time": 412.85937499999955,
          "velocity": 1,
          "duration": 0.08333333333331439
        },
        {
          "name": "A#1",
          "midi": 34,
          "time": 413.00520833333286,
          "velocity": 1,
          "duration": 0.5989583333333144
        },
        {
          "name": "A#1",
          "midi": 34,
          "time": 413.7343749999995,
          "velocity": 1,
          "duration": 0.09375
        },
        {
          "name": "C2",
          "midi": 36,
          "time": 414.0156249999995,
          "velocity": 1,
          "duration": 0.609375
        },
        {
          "name": "C2",
          "midi": 36,
          "time": 414.7552083333328,
          "velocity": 1,
          "duration": 0.08854166666668561
        },
        {
          "name": "C2",
          "midi": 36,
          "time": 415.0104166666662,
          "velocity": 1,
          "duration": 0.640625
        },
        {
          "name": "C2",
          "midi": 36,
          "time": 415.7812499999995,
          "velocity": 1,
          "duration": 0.078125
        },
        {
          "name": "C2",
          "midi": 36,
          "time": 416.0208333333328,
          "velocity": 1,
          "duration": 0.6458333333333144
        },
        {
          "name": "C2",
          "midi": 36,
          "time": 416.7708333333328,
          "velocity": 1,
          "duration": 0.08854166666668561
        },
        {
          "name": "C2",
          "midi": 36,
          "time": 417.0104166666662,
          "velocity": 1,
          "duration": 0.7291666666666856
        },
        {
          "name": "G1",
          "midi": 31,
          "time": 417.74999999999955,
          "velocity": 1,
          "duration": 0.08854166666668561
        },
        {
          "name": "A1",
          "midi": 33,
          "time": 417.85937499999955,
          "velocity": 1,
          "duration": 0.11458333333331439
        },
        {
          "name": "G2",
          "midi": 43,
          "time": 417.99999999999955,
          "velocity": 1,
          "duration": 0.625
        },
        {
          "name": "G2",
          "midi": 43,
          "time": 418.74479166666623,
          "velocity": 1,
          "duration": 0.078125
        },
        {
          "name": "G2",
          "midi": 43,
          "time": 418.99479166666623,
          "velocity": 1,
          "duration": 0.08854166666668561
        },
        {
          "name": "G2",
          "midi": 43,
          "time": 419.2499999999996,
          "velocity": 1,
          "duration": 0.3958333333333144
        },
        {
          "name": "G2",
          "midi": 43,
          "time": 419.7656249999996,
          "velocity": 1,
          "duration": 0.15104166666668561
        },
        {
          "name": "A#1",
          "midi": 34,
          "time": 420.020833333333,
          "velocity": 1,
          "duration": 0.6770833333333144
        },
        {
          "name": "F1",
          "midi": 29,
          "time": 420.7604166666663,
          "velocity": 1,
          "duration": 0.052083333333314386
        },
        {
          "name": "G1",
          "midi": 31,
          "time": 420.8593749999996,
          "velocity": 1,
          "duration": 0.08333333333331439
        },
        {
          "name": "A#1",
          "midi": 34,
          "time": 421.0052083333329,
          "velocity": 1,
          "duration": 0.5989583333333144
        },
        {
          "name": "A#1",
          "midi": 34,
          "time": 421.73437499999955,
          "velocity": 1,
          "duration": 0.09375
        },
        {
          "name": "C2",
          "midi": 36,
          "time": 421.99999999999955,
          "velocity": 1,
          "duration": 0.6458333333333144
        },
        {
          "name": "C2",
          "midi": 36,
          "time": 422.75520833333286,
          "velocity": 1,
          "duration": 0.078125
        },
        {
          "name": "C2",
          "midi": 36,
          "time": 423.00520833333286,
          "velocity": 1,
          "duration": 0.6197916666666856
        },
        {
          "name": "C2",
          "midi": 36,
          "time": 423.73437499999955,
          "velocity": 1,
          "duration": 0.07291666666668561
        },
        {
          "name": "C2",
          "midi": 36,
          "time": 423.98437499999955,
          "velocity": 1,
          "duration": 0.9114583333333144
        },
        {
          "name": "G1",
          "midi": 31,
          "time": 424.89062499999955,
          "velocity": 1,
          "duration": 0.08854166666662877
        },
        {
          "name": "C2",
          "midi": 36,
          "time": 424.98958333333286,
          "velocity": 1,
          "duration": 0.08854166666668561
        },
        {
          "name": "C2",
          "midi": 36,
          "time": 425.27083333333286,
          "velocity": 1,
          "duration": 0.3385416666666856
        },
        {
          "name": "C2",
          "midi": 36,
          "time": 425.75520833333286,
          "velocity": 1,
          "duration": 0.140625
        },
        {
          "name": "G2",
          "midi": 43,
          "time": 426.0104166666662,
          "velocity": 1,
          "duration": 0.6197916666666856
        },
        {
          "name": "G2",
          "midi": 43,
          "time": 426.75520833333286,
          "velocity": 1,
          "duration": 0.11458333333331439
        },
        {
          "name": "G2",
          "midi": 43,
          "time": 427.0104166666662,
          "velocity": 1,
          "duration": 0.6354166666666856
        },
        {
          "name": "G2",
          "midi": 43,
          "time": 427.74999999999955,
          "velocity": 1,
          "duration": 0.125
        },
        {
          "name": "A#1",
          "midi": 34,
          "time": 428.02083333333286,
          "velocity": 1,
          "duration": 0.6770833333333144
        },
        {
          "name": "F1",
          "midi": 29,
          "time": 428.7604166666662,
          "velocity": 1,
          "duration": 0.052083333333314386
        },
        {
          "name": "G1",
          "midi": 31,
          "time": 428.8593749999995,
          "velocity": 1,
          "duration": 0.08333333333331439
        },
        {
          "name": "A#1",
          "midi": 34,
          "time": 429.0052083333328,
          "velocity": 1,
          "duration": 0.5989583333333144
        },
        {
          "name": "A#1",
          "midi": 34,
          "time": 429.73437499999943,
          "velocity": 1,
          "duration": 0.09375
        },
        {
          "name": "C2",
          "midi": 36,
          "time": 430.02083333333275,
          "velocity": 1,
          "duration": 0.6770833333333144
        },
        {
          "name": "G1",
          "midi": 31,
          "time": 430.76041666666606,
          "velocity": 1,
          "duration": 0.052083333333314386
        },
        {
          "name": "A1",
          "midi": 33,
          "time": 430.8593749999994,
          "velocity": 1,
          "duration": 0.08333333333331439
        },
        {
          "name": "C2",
          "midi": 36,
          "time": 431.0052083333327,
          "velocity": 1,
          "duration": 0.5989583333333144
        },
        {
          "name": "C2",
          "midi": 36,
          "time": 431.7343749999993,
          "velocity": 1,
          "duration": 0.09375
        },
        {
          "name": "C2",
          "midi": 36,
          "time": 431.9999999999993,
          "velocity": 1,
          "duration": 0.625
        },
        {
          "name": "C2",
          "midi": 36,
          "time": 432.744791666666,
          "velocity": 1,
          "duration": 0.078125
        },
        {
          "name": "C2",
          "midi": 36,
          "time": 432.994791666666,
          "velocity": 1,
          "duration": 0.08854166666668561
        },
        {
          "name": "C2",
          "midi": 36,
          "time": 433.2499999999994,
          "velocity": 1,
          "duration": 0.3958333333333144
        },
        {
          "name": "C2",
          "midi": 36,
          "time": 433.7656249999994,
          "velocity": 1,
          "duration": 0.15104166666668561
        },
        {
          "name": "C2",
          "midi": 36,
          "time": 433.9999999999994,
          "velocity": 1,
          "duration": 0.6458333333333144
        },
        {
          "name": "C2",
          "midi": 36,
          "time": 434.7552083333327,
          "velocity": 1,
          "duration": 0.078125
        },
        {
          "name": "C2",
          "midi": 36,
          "time": 435.0052083333327,
          "velocity": 1,
          "duration": 0.6197916666666856
        },
        {
          "name": "C2",
          "midi": 36,
          "time": 435.7343749999994,
          "velocity": 1,
          "duration": 0.07291666666668561
        },
        {
          "name": "C2",
          "midi": 36,
          "time": 435.9843749999994,
          "velocity": 1,
          "duration": 0.9114583333333144
        },
        {
          "name": "G1",
          "midi": 31,
          "time": 436.8906249999994,
          "velocity": 1,
          "duration": 0.08854166666662877
        },
        {
          "name": "C2",
          "midi": 36,
          "time": 436.9895833333327,
          "velocity": 1,
          "duration": 0.08854166666668561
        },
        {
          "name": "C2",
          "midi": 36,
          "time": 437.2708333333327,
          "velocity": 1,
          "duration": 0.3385416666666856
        },
        {
          "name": "C2",
          "midi": 36,
          "time": 437.7552083333327,
          "velocity": 1,
          "duration": 0.140625
        },
        {
          "name": "G2",
          "midi": 43,
          "time": 437.9999999999994,
          "velocity": 1,
          "duration": 0.625
        },
        {
          "name": "G2",
          "midi": 43,
          "time": 438.74479166666606,
          "velocity": 1,
          "duration": 0.078125
        },
        {
          "name": "G2",
          "midi": 43,
          "time": 438.99479166666606,
          "velocity": 1,
          "duration": 0.08854166666668561
        },
        {
          "name": "G2",
          "midi": 43,
          "time": 439.24999999999943,
          "velocity": 1,
          "duration": 0.3958333333333144
        },
        {
          "name": "G2",
          "midi": 43,
          "time": 439.76562499999943,
          "velocity": 1,
          "duration": 0.15104166666668561
        },
        {
          "name": "A#1",
          "midi": 34,
          "time": 440.0208333333328,
          "velocity": 1,
          "duration": 0.6770833333333144
        },
        {
          "name": "F1",
          "midi": 29,
          "time": 440.7604166666661,
          "velocity": 1,
          "duration": 0.052083333333314386
        },
        {
          "name": "G1",
          "midi": 31,
          "time": 440.85937499999943,
          "velocity": 1,
          "duration": 0.08333333333331439
        },
        {
          "name": "A#1",
          "midi": 34,
          "time": 441.00520833333275,
          "velocity": 1,
          "duration": 0.5989583333333144
        },
        {
          "name": "A#1",
          "midi": 34,
          "time": 441.7343749999994,
          "velocity": 1,
          "duration": 0.09375
        },
        {
          "name": "C2",
          "midi": 36,
          "time": 442.0156249999994,
          "velocity": 1,
          "duration": 0.609375
        },
        {
          "name": "C2",
          "midi": 36,
          "time": 442.7552083333327,
          "velocity": 1,
          "duration": 0.08854166666668561
        },
        {
          "name": "C2",
          "midi": 36,
          "time": 443.01041666666606,
          "velocity": 1,
          "duration": 0.640625
        },
        {
          "name": "C2",
          "midi": 36,
          "time": 443.7812499999994,
          "velocity": 1,
          "duration": 0.078125
        },
        {
          "name": "C2",
          "midi": 36,
          "time": 444.0208333333327,
          "velocity": 1,
          "duration": 0.6458333333333144
        },
        {
          "name": "C2",
          "midi": 36,
          "time": 444.7708333333327,
          "velocity": 1,
          "duration": 0.08854166666668561
        },
        {
          "name": "C2",
          "midi": 36,
          "time": 445.01041666666606,
          "velocity": 1,
          "duration": 0.7291666666666856
        },
        {
          "name": "G1",
          "midi": 31,
          "time": 445.74999999999943,
          "velocity": 1,
          "duration": 0.08854166666668561
        },
        {
          "name": "A1",
          "midi": 33,
          "time": 445.85937499999943,
          "velocity": 1,
          "duration": 0.11458333333331439
        },
        {
          "name": "G2",
          "midi": 43,
          "time": 445.99999999999943,
          "velocity": 1,
          "duration": 0.625
        },
        {
          "name": "G2",
          "midi": 43,
          "time": 446.7447916666661,
          "velocity": 1,
          "duration": 0.078125
        },
        {
          "name": "G2",
          "midi": 43,
          "time": 446.9947916666661,
          "velocity": 1,
          "duration": 0.08854166666668561
        },
        {
          "name": "G2",
          "midi": 43,
          "time": 447.2499999999995,
          "velocity": 1,
          "duration": 0.3958333333333144
        },
        {
          "name": "G2",
          "midi": 43,
          "time": 447.7656249999995,
          "velocity": 1,
          "duration": 0.15104166666668561
        },
        {
          "name": "A#1",
          "midi": 34,
          "time": 448.02083333333286,
          "velocity": 0.7874015748031497,
          "duration": 0.6770833333333144
        },
        {
          "name": "F1",
          "midi": 29,
          "time": 448.7604166666662,
          "velocity": 0.7559055118110236,
          "duration": 0.052083333333314386
        },
        {
          "name": "G1",
          "midi": 31,
          "time": 448.8593749999995,
          "velocity": 0.7480314960629921,
          "duration": 0.08333333333331439
        },
        {
          "name": "A#1",
          "midi": 34,
          "time": 449.0052083333328,
          "velocity": 0.7401574803149606,
          "duration": 0.5989583333333144
        },
        {
          "name": "A#1",
          "midi": 34,
          "time": 449.73437499999943,
          "velocity": 0.7086614173228346,
          "duration": 0.09375
        },
        {
          "name": "C2",
          "midi": 36,
          "time": 449.99999999999943,
          "velocity": 0.6929133858267716,
          "duration": 0.6458333333333144
        },
        {
          "name": "C2",
          "midi": 36,
          "time": 450.75520833333275,
          "velocity": 0.6535433070866141,
          "duration": 0.078125
        },
        {
          "name": "C2",
          "midi": 36,
          "time": 451.00520833333275,
          "velocity": 0.6456692913385826,
          "duration": 0.6197916666666856
        },
        {
          "name": "C2",
          "midi": 36,
          "time": 451.73437499999943,
          "velocity": 0.6062992125984252,
          "duration": 0.07291666666668561
        },
        {
          "name": "C2",
          "midi": 36,
          "time": 451.98437499999943,
          "velocity": 0.5984251968503937,
          "duration": 0.9114583333333144
        },
        {
          "name": "G1",
          "midi": 31,
          "time": 452.89062499999943,
          "velocity": 0.5511811023622047,
          "duration": 0.08854166666662877
        },
        {
          "name": "C2",
          "midi": 36,
          "time": 452.98958333333275,
          "velocity": 0.5433070866141733,
          "duration": 0.08854166666668561
        },
        {
          "name": "C2",
          "midi": 36,
          "time": 453.27083333333275,
          "velocity": 0.5354330708661418,
          "duration": 0.3385416666666856
        },
        {
          "name": "C2",
          "midi": 36,
          "time": 453.75520833333275,
          "velocity": 0.5118110236220472,
          "duration": 0.140625
        },
        {
          "name": "G2",
          "midi": 43,
          "time": 454.01041666666606,
          "velocity": 0.49606299212598426,
          "duration": 0.6197916666666856
        },
        {
          "name": "G2",
          "midi": 43,
          "time": 454.75520833333275,
          "velocity": 0.4566929133858268,
          "duration": 0.11458333333331439
        },
        {
          "name": "G2",
          "midi": 43,
          "time": 455.01041666666606,
          "velocity": 0.44881889763779526,
          "duration": 0.6354166666666856
        },
        {
          "name": "G2",
          "midi": 43,
          "time": 455.74999999999943,
          "velocity": 0.4094488188976378,
          "duration": 0.125
        },
        {
          "name": "A#1",
          "midi": 34,
          "time": 456.02083333333275,
          "velocity": 0.3937007874015748,
          "duration": 0.6770833333333144
        },
        {
          "name": "F1",
          "midi": 29,
          "time": 456.76041666666606,
          "velocity": 0.36220472440944884,
          "duration": 0.052083333333314386
        },
        {
          "name": "G1",
          "midi": 31,
          "time": 456.8593749999994,
          "velocity": 0.3543307086614173,
          "duration": 0.08333333333331439
        },
        {
          "name": "A#1",
          "midi": 34,
          "time": 457.0052083333327,
          "velocity": 0.3464566929133858,
          "duration": 0.5989583333333144
        },
        {
          "name": "A#1",
          "midi": 34,
          "time": 457.7343749999993,
          "velocity": 0.31496062992125984,
          "duration": 0.09375
        },
        {
          "name": "C2",
          "midi": 36,
          "time": 458.02083333333263,
          "velocity": 0.2992125984251969,
          "duration": 0.6770833333333144
        },
        {
          "name": "G1",
          "midi": 31,
          "time": 458.76041666666595,
          "velocity": 0.25984251968503935,
          "duration": 0.052083333333314386
        },
        {
          "name": "A1",
          "midi": 33,
          "time": 458.85937499999926,
          "velocity": 0.25984251968503935,
          "duration": 0.08333333333331439
        },
        {
          "name": "C2",
          "midi": 36,
          "time": 459.0052083333326,
          "velocity": 0.25196850393700787,
          "duration": 0.5989583333333144
        },
        {
          "name": "C2",
          "midi": 36,
          "time": 459.7343749999992,
          "velocity": 0.2125984251968504,
          "duration": 0.09375
        },
        {
          "name": "C2",
          "midi": 36,
          "time": 459.9999999999992,
          "velocity": 0.1968503937007874,
          "duration": 0.625
        },
        {
          "name": "C2",
          "midi": 36,
          "time": 460.7447916666659,
          "velocity": 0.16535433070866143,
          "duration": 0.078125
        },
        {
          "name": "C2",
          "midi": 36,
          "time": 460.9947916666659,
          "velocity": 0.14960629921259844,
          "duration": 0.08854166666668561
        },
        {
          "name": "C2",
          "midi": 36,
          "time": 461.24999999999926,
          "velocity": 0.14173228346456693,
          "duration": 0.3958333333333144
        },
        {
          "name": "C2",
          "midi": 36,
          "time": 461.76562499999926,
          "velocity": 0.11023622047244094,
          "duration": 0.15104166666668561
        }
      ],
      "controlChanges": {
        "32": [
          {
            "number": 32,
            "time": 0,
            "value": 0
          }
        ],
        "64": [
          {
            "number": 64,
            "time": 1.4895833333333333,
            "value": 1
          },
          {
            "number": 64,
            "time": 1.6510416666666665,
            "value": 0
          },
          {
            "number": 64,
            "time": 1.9322916666666665,
            "value": 1
          },
          {
            "number": 64,
            "time": 3.78125,
            "value": 0
          },
          {
            "number": 64,
            "time": 3.984375,
            "value": 1
          },
          {
            "number": 64,
            "time": 5.671875000000001,
            "value": 0
          },
          {
            "number": 64,
            "time": 5.994791666666668,
            "value": 1
          },
          {
            "number": 64,
            "time": 7.869791666666668,
            "value": 0
          },
          {
            "number": 64,
            "time": 8.005208333333334,
            "value": 1
          },
          {
            "number": 64,
            "time": 9.765625000000002,
            "value": 0
          },
          {
            "number": 64,
            "time": 9.958333333333336,
            "value": 1
          },
          {
            "number": 64,
            "time": 11.796875000000004,
            "value": 0
          },
          {
            "number": 64,
            "time": 12.000000000000004,
            "value": 1
          },
          {
            "number": 64,
            "time": 13.84895833333334,
            "value": 0
          },
          {
            "number": 64,
            "time": 13.994791666666673,
            "value": 1
          },
          {
            "number": 64,
            "time": 14.83333333333334,
            "value": 0
          },
          {
            "number": 64,
            "time": 14.984375000000005,
            "value": 1
          },
          {
            "number": 64,
            "time": 15.885416666666671,
            "value": 0
          },
          {
            "number": 64,
            "time": 16.000000000000004,
            "value": 1
          },
          {
            "number": 64,
            "time": 16.880208333333336,
            "value": 0
          },
          {
            "number": 64,
            "time": 16.984375000000004,
            "value": 1
          },
          {
            "number": 64,
            "time": 17.81770833333334,
            "value": 0
          }
        ]
      },
      "id": 9,
      "instrumentNumber": 35,
      "instrument": "fretless bass",
      "instrumentFamily": "bass",
      "channelNumber": 1,
      "isPercussion": false
    },
    {
      "startTime": 294.4739583333333,
      "duration": 461.99999999999994,
      "length": 664,
      "notes": [
        {
          "name": "G4",
          "midi": 67,
          "time": 294.4739583333333,
          "velocity": 0.7401574803149606,
          "duration": 0.3645833333333144
        },
        {
          "name": "F4",
          "midi": 65,
          "time": 294.47916666666663,
          "velocity": 0.8740157480314961,
          "duration": 0.08333333333331439
        },
        {
          "name": "G4",
          "midi": 67,
          "time": 294.99999999999994,
          "velocity": 0.8582677165354331,
          "duration": 0.5260416666666288
        },
        {
          "name": "F4",
          "midi": 65,
          "time": 295.48958333333326,
          "velocity": 0.8346456692913385,
          "duration": 0.2604166666666856
        },
        {
          "name": "D4",
          "midi": 62,
          "time": 295.72395833333326,
          "velocity": 0.8346456692913385,
          "duration": 0.25
        },
        {
          "name": "F4",
          "midi": 65,
          "time": 295.98437499999994,
          "velocity": 0.8582677165354331,
          "duration": 0.21875
        },
        {
          "name": "G4",
          "midi": 67,
          "time": 296.23958333333326,
          "velocity": 0.8346456692913385,
          "duration": 0.2708333333333144
        },
        {
          "name": "F4",
          "midi": 65,
          "time": 296.48958333333326,
          "velocity": 0.8818897637795275,
          "duration": 0.2864583333333144
        },
        {
          "name": "D4",
          "midi": 62,
          "time": 296.7447916666666,
          "velocity": 0.7874015748031497,
          "duration": 0.24479166666668561
        },
        {
          "name": "G4",
          "midi": 67,
          "time": 297.01562499999994,
          "velocity": 0.8110236220472441,
          "duration": 0.4947916666666856
        },
        {
          "name": "F4",
          "midi": 65,
          "time": 297.47916666666663,
          "velocity": 0.7874015748031497,
          "duration": 0.23958333333331439
        },
        {
          "name": "D4",
          "midi": 62,
          "time": 297.70312499999994,
          "velocity": 0.7874015748031497,
          "duration": 0.22395833333331439
        },
        {
          "name": "G4",
          "midi": 67,
          "time": 297.9791666666666,
          "velocity": 0.8110236220472441,
          "duration": 0.18229166666668561
        },
        {
          "name": "G4",
          "midi": 67,
          "time": 298.23958333333326,
          "velocity": 0.8110236220472441,
          "duration": 0.4947916666666856
        },
        {
          "name": "A#4",
          "midi": 70,
          "time": 298.74999999999994,
          "velocity": 0.6771653543307087,
          "duration": 0.15625
        },
        {
          "name": "G4",
          "midi": 67,
          "time": 298.99999999999994,
          "velocity": 0.7795275590551181,
          "duration": 0.546875
        },
        {
          "name": "A#4",
          "midi": 70,
          "time": 299.51562499999994,
          "velocity": 0.7716535433070866,
          "duration": 0.1875
        },
        {
          "name": "G4",
          "midi": 67,
          "time": 299.76041666666663,
          "velocity": 0.8503937007874016,
          "duration": 0.4479166666666856
        },
        {
          "name": "D4",
          "midi": 62,
          "time": 300.21875,
          "velocity": 0.8110236220472441,
          "duration": 0.265625
        },
        {
          "name": "D4",
          "midi": 62,
          "time": 300.765625,
          "velocity": 0.8110236220472441,
          "duration": 0.2760416666666856
        },
        {
          "name": "E4",
          "midi": 64,
          "time": 301.0416666666667,
          "velocity": 0.8110236220472441,
          "duration": 0.25
        },
        {
          "name": "F4",
          "midi": 65,
          "time": 301.5104166666667,
          "velocity": 0.8976377952755905,
          "duration": 0.4375
        },
        {
          "name": "F4",
          "midi": 65,
          "time": 302.0260416666667,
          "velocity": 0.8740157480314961,
          "duration": 0.28125
        },
        {
          "name": "F4",
          "midi": 65,
          "time": 302.6979166666667,
          "velocity": 0.8031496062992126,
          "duration": 0.23958333333331439
        },
        {
          "name": "G4",
          "midi": 67,
          "time": 303.0104166666667,
          "velocity": 0.8267716535433071,
          "duration": 0.4739583333333144
        },
        {
          "name": "F4",
          "midi": 65,
          "time": 303.5,
          "velocity": 0.8818897637795275,
          "duration": 0.22916666666668561
        },
        {
          "name": "D4",
          "midi": 62,
          "time": 303.7291666666667,
          "velocity": 0.7401574803149606,
          "duration": 0.25
        },
        {
          "name": "F4",
          "midi": 65,
          "time": 304,
          "velocity": 0.8267716535433071,
          "duration": 0.21354166666668561
        },
        {
          "name": "G4",
          "midi": 67,
          "time": 304.2447916666667,
          "velocity": 0.7874015748031497,
          "duration": 0.30208333333337123
        },
        {
          "name": "F4",
          "midi": 65,
          "time": 304.52083333333337,
          "velocity": 0.8582677165354331,
          "duration": 0.19791666666668561
        },
        {
          "name": "D4",
          "midi": 62,
          "time": 304.69791666666674,
          "velocity": 0.6299212598425197,
          "duration": 0.25
        },
        {
          "name": "G4",
          "midi": 67,
          "time": 304.96354166666674,
          "velocity": 0.7795275590551181,
          "duration": 0.5625
        },
        {
          "name": "F4",
          "midi": 65,
          "time": 305.5052083333334,
          "velocity": 0.7244094488188977,
          "duration": 0.234375
        },
        {
          "name": "D4",
          "midi": 62,
          "time": 305.72916666666674,
          "velocity": 0.7637795275590551,
          "duration": 0.19270833333337123
        },
        {
          "name": "G4",
          "midi": 67,
          "time": 305.9583333333334,
          "velocity": 0.8110236220472441,
          "duration": 0.21875
        },
        {
          "name": "G4",
          "midi": 67,
          "time": 306.2343750000001,
          "velocity": 0.8267716535433071,
          "duration": 0.46875
        },
        {
          "name": "F4",
          "midi": 65,
          "time": 306.7291666666668,
          "velocity": 0.8740157480314961,
          "duration": 0.20833333333331439
        },
        {
          "name": "G4",
          "midi": 67,
          "time": 306.9895833333334,
          "velocity": 0.8818897637795275,
          "duration": 0.4895833333333144
        },
        {
          "name": "F4",
          "midi": 65,
          "time": 307.49479166666674,
          "velocity": 0.8346456692913385,
          "duration": 0.234375
        },
        {
          "name": "G4",
          "midi": 67,
          "time": 307.7083333333334,
          "velocity": 0.8110236220472441,
          "duration": 0.5364583333333144
        },
        {
          "name": "F4",
          "midi": 65,
          "time": 308.2552083333334,
          "velocity": 0.8976377952755905,
          "duration": 0.18229166666668561
        },
        {
          "name": "G4",
          "midi": 67,
          "time": 308.4843750000001,
          "velocity": 0.8740157480314961,
          "duration": 0.4270833333333144
        },
        {
          "name": "G4",
          "midi": 67,
          "time": 309.0156250000001,
          "velocity": 0.8818897637795275,
          "duration": 0.4427083333333144
        },
        {
          "name": "G4",
          "midi": 67,
          "time": 309.51041666666674,
          "velocity": 0.8346456692913385,
          "duration": 0.15104166666668561
        },
        {
          "name": "F4",
          "midi": 65,
          "time": 309.61979166666674,
          "velocity": 0.7795275590551181,
          "duration": 0.13541666666668561
        },
        {
          "name": "D4",
          "midi": 62,
          "time": 309.7552083333334,
          "velocity": 0.8582677165354331,
          "duration": 0.24479166666668561
        },
        {
          "name": "F4",
          "midi": 65,
          "time": 309.9895833333334,
          "velocity": 0.8346456692913385,
          "duration": 0.13020833333337123
        },
        {
          "name": "G4",
          "midi": 67,
          "time": 310.1302083333335,
          "velocity": 0.7874015748031497,
          "duration": 0.13020833333337123
        },
        {
          "name": "F4",
          "midi": 65,
          "time": 310.23437500000017,
          "velocity": 0.8346456692913385,
          "duration": 0.140625
        },
        {
          "name": "G4",
          "midi": 67,
          "time": 310.4739583333335,
          "velocity": 0.8740157480314961,
          "duration": 0.13541666666668561
        },
        {
          "name": "F4",
          "midi": 65,
          "time": 310.5833333333335,
          "velocity": 0.8582677165354331,
          "duration": 0.15104166666668561
        },
        {
          "name": "D4",
          "midi": 62,
          "time": 310.71875000000017,
          "velocity": 0.8110236220472441,
          "duration": 0.2916666666666856
        },
        {
          "name": "G4",
          "midi": 67,
          "time": 310.97916666666686,
          "velocity": 0.8031496062992126,
          "duration": 0.13541666666668561
        },
        {
          "name": "F4",
          "midi": 65,
          "time": 311.08854166666686,
          "velocity": 0.8976377952755905,
          "duration": 0.15104166666668561
        },
        {
          "name": "D4",
          "midi": 62,
          "time": 311.20833333333354,
          "velocity": 0.7874015748031497,
          "duration": 0.2760416666666856
        },
        {
          "name": "G4",
          "midi": 67,
          "time": 311.4531250000002,
          "velocity": 0.7637795275590551,
          "duration": 0.15104166666662877
        },
        {
          "name": "F4",
          "midi": 65,
          "time": 311.56770833333354,
          "velocity": 0.8740157480314961,
          "duration": 0.15625
        },
        {
          "name": "D4",
          "midi": 62,
          "time": 311.69270833333354,
          "velocity": 0.8267716535433071,
          "duration": 0.29166666666662877
        },
        {
          "name": "G4",
          "midi": 67,
          "time": 311.94791666666686,
          "velocity": 0.7795275590551181,
          "duration": 0.15104166666662877
        },
        {
          "name": "F4",
          "midi": 65,
          "time": 312.0677083333335,
          "velocity": 0.8740157480314961,
          "duration": 0.16666666666668561
        },
        {
          "name": "D4",
          "midi": 62,
          "time": 312.2083333333335,
          "velocity": 0.8110236220472441,
          "duration": 0.26562500000005684
        },
        {
          "name": "G4",
          "midi": 67,
          "time": 312.44791666666686,
          "velocity": 0.7874015748031497,
          "duration": 0.15625
        },
        {
          "name": "F4",
          "midi": 65,
          "time": 312.56770833333354,
          "velocity": 0.8740157480314961,
          "duration": 0.15625
        },
        {
          "name": "D4",
          "midi": 62,
          "time": 312.69270833333354,
          "velocity": 0.7637795275590551,
          "duration": 0.296875
        },
        {
          "name": "G4",
          "midi": 67,
          "time": 312.94270833333354,
          "velocity": 0.7559055118110236,
          "duration": 0.15104166666662877
        },
        {
          "name": "F4",
          "midi": 65,
          "time": 313.05729166666686,
          "velocity": 0.8346456692913385,
          "duration": 0.171875
        },
        {
          "name": "D4",
          "midi": 62,
          "time": 313.20312500000017,
          "velocity": 0.7401574803149606,
          "duration": 0.28125
        },
        {
          "name": "G4",
          "midi": 67,
          "time": 313.45312500000017,
          "velocity": 0.7401574803149606,
          "duration": 0.17708333333331439
        },
        {
          "name": "F4",
          "midi": 65,
          "time": 313.5989583333335,
          "velocity": 0.8503937007874016,
          "duration": 0.15625
        },
        {
          "name": "D4",
          "midi": 62,
          "time": 313.7239583333335,
          "velocity": 0.8031496062992126,
          "duration": 0.26041666666662877
        },
        {
          "name": "G4",
          "midi": 67,
          "time": 313.9479166666668,
          "velocity": 0.7637795275590551,
          "duration": 0.17187499999994316
        },
        {
          "name": "F4",
          "midi": 65,
          "time": 314.0833333333334,
          "velocity": 0.8740157480314961,
          "duration": 0.16145833333331439
        },
        {
          "name": "D4",
          "midi": 62,
          "time": 314.19791666666674,
          "velocity": 0.7559055118110236,
          "duration": 0.28125
        },
        {
          "name": "G4",
          "midi": 67,
          "time": 314.4583333333334,
          "velocity": 0.7244094488188977,
          "duration": 0.14583333333331439
        },
        {
          "name": "F4",
          "midi": 65,
          "time": 314.57812500000006,
          "velocity": 0.8503937007874016,
          "duration": 0.15104166666668561
        },
        {
          "name": "D4",
          "midi": 62,
          "time": 314.69791666666674,
          "velocity": 0.8031496062992126,
          "duration": 0.2708333333333144
        },
        {
          "name": "G4",
          "midi": 67,
          "time": 314.95312500000006,
          "velocity": 0.7637795275590551,
          "duration": 0.16666666666668561
        },
        {
          "name": "F4",
          "midi": 65,
          "time": 315.07812500000006,
          "velocity": 0.8740157480314961,
          "duration": 0.16666666666668561
        },
        {
          "name": "D4",
          "midi": 62,
          "time": 315.21354166666674,
          "velocity": 0.7322834645669292,
          "duration": 0.4322916666666856
        },
        {
          "name": "F4",
          "midi": 65,
          "time": 315.43229166666674,
          "velocity": 0.7874015748031497,
          "duration": 0.22395833333337123
        },
        {
          "name": "C5",
          "midi": 72,
          "time": 315.7604166666668,
          "velocity": 0.937007874015748,
          "duration": 0.11458333333337123
        },
        {
          "name": "D5",
          "midi": 74,
          "time": 315.7708333333335,
          "velocity": 0.7244094488188977,
          "duration": 0.09375
        },
        {
          "name": "D5",
          "midi": 74,
          "time": 315.93229166666686,
          "velocity": 0.7086614173228346,
          "duration": 0.21354166666668561
        },
        {
          "name": "D5",
          "midi": 74,
          "time": 316.24479166666686,
          "velocity": 0.9448818897637795,
          "duration": 0.171875
        },
        {
          "name": "D5",
          "midi": 74,
          "time": 316.52083333333354,
          "velocity": 0.905511811023622,
          "duration": 0.13541666666668561
        },
        {
          "name": "D5",
          "midi": 74,
          "time": 316.7500000000002,
          "velocity": 0.8740157480314961,
          "duration": 0.13020833333331439
        },
        {
          "name": "C#5",
          "midi": 73,
          "time": 317.01041666666686,
          "velocity": 0.9606299212598425,
          "duration": 0.16666666666668561
        },
        {
          "name": "C5",
          "midi": 72,
          "time": 317.25520833333354,
          "velocity": 0.8976377952755905,
          "duration": 0.15104166666668561
        },
        {
          "name": "D5",
          "midi": 74,
          "time": 317.26041666666686,
          "velocity": 0.9212598425196851,
          "duration": 0.08854166666668561
        },
        {
          "name": "B4",
          "midi": 71,
          "time": 317.5000000000002,
          "velocity": 0.8976377952755905,
          "duration": 0.16666666666668561
        },
        {
          "name": "A4",
          "midi": 69,
          "time": 317.7656250000002,
          "velocity": 0.8976377952755905,
          "duration": 0.171875
        },
        {
          "name": "G4",
          "midi": 67,
          "time": 318.0156250000002,
          "velocity": 0.8740157480314961,
          "duration": 0.3541666666666856
        },
        {
          "name": "G4",
          "midi": 67,
          "time": 318.5156250000002,
          "velocity": 0.937007874015748,
          "duration": 0.3645833333333144
        },
        {
          "name": "G4",
          "midi": 67,
          "time": 318.9843750000002,
          "velocity": 0.8818897637795275,
          "duration": 0.18229166666668561
        },
        {
          "name": "F4",
          "midi": 65,
          "time": 319.1197916666669,
          "velocity": 0.8582677165354331,
          "duration": 0.140625
        },
        {
          "name": "D4",
          "midi": 62,
          "time": 319.2604166666669,
          "velocity": 0.8503937007874016,
          "duration": 0.2760416666666856
        },
        {
          "name": "F4",
          "midi": 65,
          "time": 319.5208333333336,
          "velocity": 0.905511811023622,
          "duration": 0.22395833333337123
        },
        {
          "name": "G4",
          "midi": 67,
          "time": 319.7187500000003,
          "velocity": 0.8503937007874016,
          "duration": 0.17708333333337123
        },
        {
          "name": "G4",
          "midi": 67,
          "time": 319.99479166666697,
          "velocity": 0.9212598425196851,
          "duration": 0.17708333333331439
        },
        {
          "name": "G4",
          "midi": 67,
          "time": 320.24479166666697,
          "velocity": 0.905511811023622,
          "duration": 0.25
        },
        {
          "name": "F4",
          "midi": 65,
          "time": 320.4843750000003,
          "velocity": 0.8976377952755905,
          "duration": 0.21354166666668561
        },
        {
          "name": "D4",
          "midi": 62,
          "time": 320.6875000000003,
          "velocity": 0.7559055118110236,
          "duration": 0.203125
        },
        {
          "name": "G4",
          "midi": 67,
          "time": 320.9687500000003,
          "velocity": 0.8740157480314961,
          "duration": 0.5729166666666856
        },
        {
          "name": "F4",
          "midi": 65,
          "time": 321.52604166666697,
          "velocity": 0.905511811023622,
          "duration": 0.21875
        },
        {
          "name": "D4",
          "midi": 62,
          "time": 321.72395833333366,
          "velocity": 0.7086614173228346,
          "duration": 0.17708333333331439
        },
        {
          "name": "G4",
          "midi": 67,
          "time": 322.01041666666697,
          "velocity": 0.8818897637795275,
          "duration": 0.15625
        },
        {
          "name": "G4",
          "midi": 67,
          "time": 322.2500000000003,
          "velocity": 0.905511811023622,
          "duration": 0.4635416666666856
        },
        {
          "name": "A#4",
          "midi": 70,
          "time": 322.73958333333366,
          "velocity": 0.84251968503937,
          "duration": 0.08854166666668561
        },
        {
          "name": "G4",
          "midi": 67,
          "time": 322.75000000000034,
          "velocity": 0.6929133858267716,
          "duration": 0.020833333333314386
        },
        {
          "name": "A4",
          "midi": 69,
          "time": 322.78125000000034,
          "velocity": 0.905511811023622,
          "duration": 0.046875
        },
        {
          "name": "G4",
          "midi": 67,
          "time": 323.02083333333366,
          "velocity": 0.8582677165354331,
          "duration": 0.5052083333333712
        },
        {
          "name": "A#4",
          "midi": 70,
          "time": 323.48437500000034,
          "velocity": 0.84251968503937,
          "duration": 0.11458333333337123
        },
        {
          "name": "G4",
          "midi": 67,
          "time": 323.7343750000004,
          "velocity": 0.8740157480314961,
          "duration": 0.5104166666666856
        },
        {
          "name": "A#4",
          "midi": 70,
          "time": 324.2447916666671,
          "velocity": 0.84251968503937,
          "duration": 0.16145833333331439
        },
        {
          "name": "G4",
          "midi": 67,
          "time": 324.4947916666671,
          "velocity": 0.8740157480314961,
          "duration": 0.4166666666666856
        },
        {
          "name": "G4",
          "midi": 67,
          "time": 324.98437500000045,
          "velocity": 0.8503937007874016,
          "duration": 0.4166666666666856
        },
        {
          "name": "G4",
          "midi": 67,
          "time": 325.46875000000045,
          "velocity": 0.8031496062992126,
          "duration": 0.16145833333337123
        },
        {
          "name": "F4",
          "midi": 65,
          "time": 325.60416666666714,
          "velocity": 0.8740157480314961,
          "duration": 0.140625
        },
        {
          "name": "D4",
          "midi": 62,
          "time": 325.7395833333338,
          "velocity": 0.8503937007874016,
          "duration": 0.21875
        },
        {
          "name": "G4",
          "midi": 67,
          "time": 325.9895833333338,
          "velocity": 0.7874015748031497,
          "duration": 0.27604166666662877
        },
        {
          "name": "F4",
          "midi": 65,
          "time": 326.24479166666714,
          "velocity": 0.8818897637795275,
          "duration": 0.2760416666666856
        },
        {
          "name": "D4",
          "midi": 62,
          "time": 326.51041666666714,
          "velocity": 0.8503937007874016,
          "duration": 0.28125
        },
        {
          "name": "F4",
          "midi": 65,
          "time": 326.7552083333338,
          "velocity": 0.8740157480314961,
          "duration": 0.26041666666662877
        },
        {
          "name": "G4",
          "midi": 67,
          "time": 326.99479166666714,
          "velocity": 0.8346456692913385,
          "duration": 0.46354166666662877
        },
        {
          "name": "F4",
          "midi": 65,
          "time": 327.51562500000045,
          "velocity": 0.9448818897637795,
          "duration": 0.20833333333331439
        },
        {
          "name": "D4",
          "midi": 62,
          "time": 327.72395833333377,
          "velocity": 0.7874015748031497,
          "duration": 0.27604166666662877
        },
        {
          "name": "G4",
          "midi": 67,
          "time": 327.9947916666671,
          "velocity": 0.8740157480314961,
          "duration": 0.20833333333331439
        },
        {
          "name": "G4",
          "midi": 67,
          "time": 328.4895833333337,
          "velocity": 0.8818897637795275,
          "duration": 0.3072916666666856
        },
        {
          "name": "G4",
          "midi": 67,
          "time": 328.9947916666671,
          "velocity": 0.9212598425196851,
          "duration": 0.2708333333333144
        },
        {
          "name": "F4",
          "midi": 65,
          "time": 329.2343750000004,
          "velocity": 0.8818897637795275,
          "duration": 0.23958333333337123
        },
        {
          "name": "D4",
          "midi": 62,
          "time": 329.4479166666671,
          "velocity": 0.7322834645669292,
          "duration": 0.3229166666666856
        },
        {
          "name": "F4",
          "midi": 65,
          "time": 329.71875000000045,
          "velocity": 0.8818897637795275,
          "duration": 0.20833333333331439
        },
        {
          "name": "F4",
          "midi": 65,
          "time": 329.9947916666671,
          "velocity": 0.8976377952755905,
          "duration": 0.27083333333337123
        },
        {
          "name": "G4",
          "midi": 67,
          "time": 330.23958333333377,
          "velocity": 0.8740157480314961,
          "duration": 0.20833333333337123
        },
        {
          "name": "G4",
          "midi": 67,
          "time": 330.5208333333338,
          "velocity": 0.905511811023622,
          "duration": 0.4427083333333144
        },
        {
          "name": "G4",
          "midi": 67,
          "time": 331.02604166666714,
          "velocity": 0.8818897637795275,
          "duration": 0.4739583333333144
        },
        {
          "name": "F4",
          "midi": 65,
          "time": 331.49479166666714,
          "velocity": 0.8976377952755905,
          "duration": 0.22916666666668561
        },
        {
          "name": "D4",
          "midi": 62,
          "time": 331.71354166666714,
          "velocity": 0.7559055118110236,
          "duration": 0.20833333333337123
        },
        {
          "name": "G4",
          "midi": 67,
          "time": 331.9739583333338,
          "velocity": 0.8031496062992126,
          "duration": 0.17708333333331439
        },
        {
          "name": "G4",
          "midi": 67,
          "time": 332.23437500000045,
          "velocity": 0.8818897637795275,
          "duration": 0.4739583333333144
        },
        {
          "name": "F4",
          "midi": 65,
          "time": 332.73437500000045,
          "velocity": 0.9212598425196851,
          "duration": 0.19791666666668561
        },
        {
          "name": "G4",
          "midi": 67,
          "time": 332.97916666666714,
          "velocity": 0.905511811023622,
          "duration": 0.5572916666666288
        },
        {
          "name": "F4",
          "midi": 65,
          "time": 333.51562500000045,
          "velocity": 0.9212598425196851,
          "duration": 0.19791666666668561
        },
        {
          "name": "D4",
          "midi": 62,
          "time": 333.68750000000045,
          "velocity": 0.6299212598425197,
          "duration": 0.203125
        },
        {
          "name": "G4",
          "midi": 67,
          "time": 333.94791666666714,
          "velocity": 0.8346456692913385,
          "duration": 0.19791666666668561
        },
        {
          "name": "G4",
          "midi": 67,
          "time": 334.2187500000005,
          "velocity": 0.8740157480314961,
          "duration": 0.5
        },
        {
          "name": "F4",
          "midi": 65,
          "time": 334.7187500000005,
          "velocity": 0.905511811023622,
          "duration": 0.1875
        },
        {
          "name": "G4",
          "midi": 67,
          "time": 334.9947916666672,
          "velocity": 0.905511811023622,
          "duration": 0.46875
        },
        {
          "name": "G4",
          "midi": 67,
          "time": 335.5260416666672,
          "velocity": 0.8740157480314961,
          "duration": 0.15104166666668561
        },
        {
          "name": "F4",
          "midi": 65,
          "time": 335.6510416666672,
          "velocity": 0.8503937007874016,
          "duration": 0.13020833333331439
        },
        {
          "name": "D4",
          "midi": 62,
          "time": 335.7760416666672,
          "velocity": 0.8582677165354331,
          "duration": 0.20833333333331439
        },
        {
          "name": "G4",
          "midi": 67,
          "time": 335.9947916666672,
          "velocity": 0.8110236220472441,
          "duration": 0.19270833333331439
        },
        {
          "name": "D4",
          "midi": 62,
          "time": 336.2395833333338,
          "velocity": 0.8740157480314961,
          "duration": 0.26041666666662877
        },
        {
          "name": "F4",
          "midi": 65,
          "time": 336.47916666666714,
          "velocity": 0.8976377952755905,
          "duration": 0.26562499999994316
        },
        {
          "name": "G4",
          "midi": 67,
          "time": 336.72395833333377,
          "velocity": 0.7244094488188977,
          "duration": 0.171875
        },
        {
          "name": "G4",
          "midi": 67,
          "time": 336.98437500000045,
          "velocity": 0.905511811023622,
          "duration": 0.2552083333333144
        },
        {
          "name": "F4",
          "midi": 65,
          "time": 337.21875000000045,
          "velocity": 0.937007874015748,
          "duration": 0.25
        },
        {
          "name": "D4",
          "midi": 62,
          "time": 337.45833333333377,
          "velocity": 0.7795275590551181,
          "duration": 0.3020833333333144
        },
        {
          "name": "F4",
          "midi": 65,
          "time": 337.70833333333377,
          "velocity": 0.8582677165354331,
          "duration": 0.30729166666662877
        },
        {
          "name": "D5",
          "midi": 74,
          "time": 337.9791666666671,
          "velocity": 0.8503937007874016,
          "duration": 0.11458333333331439
        },
        {
          "name": "C5",
          "midi": 72,
          "time": 337.9791666666671,
          "velocity": 0.8346456692913385,
          "duration": 0.08854166666662877
        },
        {
          "name": "D5",
          "midi": 74,
          "time": 338.2760416666671,
          "velocity": 0.8740157480314961,
          "duration": 0.140625
        },
        {
          "name": "D5",
          "midi": 74,
          "time": 338.50520833333377,
          "velocity": 0.8503937007874016,
          "duration": 0.15625
        },
        {
          "name": "D5",
          "midi": 74,
          "time": 338.75000000000045,
          "velocity": 0.8503937007874016,
          "duration": 0.13541666666668561
        },
        {
          "name": "C#5",
          "midi": 73,
          "time": 338.99479166666714,
          "velocity": 0.8661417322834646,
          "duration": 0.1875
        },
        {
          "name": "C5",
          "midi": 72,
          "time": 339.2239583333338,
          "velocity": 0.8740157480314961,
          "duration": 0.140625
        },
        {
          "name": "B4",
          "midi": 71,
          "time": 339.47916666666714,
          "velocity": 0.8818897637795275,
          "duration": 0.15625
        },
        {
          "name": "A4",
          "midi": 69,
          "time": 339.71354166666714,
          "velocity": 0.8031496062992126,
          "duration": 0.15625
        },
        {
          "name": "G4",
          "midi": 67,
          "time": 339.98437500000045,
          "velocity": 0.8110236220472441,
          "duration": 0.19270833333331439
        },
        {
          "name": "G4",
          "midi": 67,
          "time": 340.25000000000045,
          "velocity": 0.7874015748031497,
          "duration": 0.03125
        },
        {
          "name": "F4",
          "midi": 65,
          "time": 340.25000000000045,
          "velocity": 0.8346456692913385,
          "duration": 0.13020833333331439
        },
        {
          "name": "E4",
          "midi": 64,
          "time": 340.48437500000045,
          "velocity": 0.8267716535433071,
          "duration": 0.16666666666668561
        },
        {
          "name": "D4",
          "midi": 62,
          "time": 340.7395833333338,
          "velocity": 0.8582677165354331,
          "duration": 0.16145833333331439
        },
        {
          "name": "C4",
          "midi": 60,
          "time": 341.00000000000045,
          "velocity": 0.8110236220472441,
          "duration": 0.14583333333331439
        },
        {
          "name": "B3",
          "midi": 59,
          "time": 341.23958333333377,
          "velocity": 0.7559055118110236,
          "duration": 0.13020833333331439
        },
        {
          "name": "A3",
          "midi": 57,
          "time": 341.48958333333377,
          "velocity": 0.8346456692913385,
          "duration": 0.16666666666668561
        },
        {
          "name": "G3",
          "midi": 55,
          "time": 341.73958333333377,
          "velocity": 0.8110236220472441,
          "duration": 0.171875
        },
        {
          "name": "F3",
          "midi": 53,
          "time": 341.98958333333377,
          "velocity": 0.8503937007874016,
          "duration": 0.19270833333331439
        },
        {
          "name": "G3",
          "midi": 55,
          "time": 342.25520833333377,
          "velocity": 0.7086614173228346,
          "duration": 0.15104166666668561
        },
        {
          "name": "F3",
          "midi": 53,
          "time": 342.26562500000045,
          "velocity": 0.6929133858267716,
          "duration": 0.0625
        },
        {
          "name": "G3",
          "midi": 55,
          "time": 342.48958333333377,
          "velocity": 0.8110236220472441,
          "duration": 0.16666666666668561
        },
        {
          "name": "G3",
          "midi": 55,
          "time": 342.73437500000045,
          "velocity": 0.8267716535433071,
          "duration": 0.14583333333331439
        },
        {
          "name": "G3",
          "midi": 55,
          "time": 343.00000000000045,
          "velocity": 0.8976377952755905,
          "duration": 0.14583333333331439
        },
        {
          "name": "G3",
          "midi": 55,
          "time": 343.23958333333377,
          "velocity": 0.8110236220472441,
          "duration": 0.125
        },
        {
          "name": "G3",
          "midi": 55,
          "time": 343.5104166666671,
          "velocity": 0.8346456692913385,
          "duration": 0.08333333333331439
        },
        {
          "name": "G4",
          "midi": 67,
          "time": 343.7447916666671,
          "velocity": 0.9212598425196851,
          "duration": 0.203125
        },
        {
          "name": "F4",
          "midi": 65,
          "time": 344.2447916666671,
          "velocity": 0.9212598425196851,
          "duration": 0.10416666666668561
        },
        {
          "name": "E4",
          "midi": 64,
          "time": 344.4947916666671,
          "velocity": 0.8818897637795275,
          "duration": 0.140625
        },
        {
          "name": "D4",
          "midi": 62,
          "time": 344.7604166666671,
          "velocity": 0.8582677165354331,
          "duration": 0.09895833333331439
        },
        {
          "name": "D4",
          "midi": 62,
          "time": 344.9947916666671,
          "velocity": 0.937007874015748,
          "duration": 0.11979166666668561
        },
        {
          "name": "C4",
          "midi": 60,
          "time": 345.20312500000045,
          "velocity": 0.8110236220472441,
          "duration": 0.11979166666668561
        },
        {
          "name": "B3",
          "midi": 59,
          "time": 345.46875000000045,
          "velocity": 0.8267716535433071,
          "duration": 0.13541666666668561
        },
        {
          "name": "C4",
          "midi": 60,
          "time": 345.73437500000045,
          "velocity": 0.8740157480314961,
          "duration": 0.140625
        },
        {
          "name": "D4",
          "midi": 62,
          "time": 345.98958333333377,
          "velocity": 0.8818897637795275,
          "duration": 0.4635416666666856
        },
        {
          "name": "D4",
          "midi": 62,
          "time": 346.52604166666714,
          "velocity": 0.8740157480314961,
          "duration": 0.4166666666666856
        },
        {
          "name": "D4",
          "midi": 62,
          "time": 347.0208333333338,
          "velocity": 0.8740157480314961,
          "duration": 0.265625
        },
        {
          "name": "F4",
          "midi": 65,
          "time": 347.24479166666714,
          "velocity": 0.6535433070866141,
          "duration": 0.17708333333337123
        },
        {
          "name": "G4",
          "midi": 67,
          "time": 347.5156250000005,
          "velocity": 0.8503937007874016,
          "duration": 0.17708333333331439
        },
        {
          "name": "G4",
          "midi": 67,
          "time": 348.0312500000005,
          "velocity": 0.8818897637795275,
          "duration": 0.1875
        },
        {
          "name": "F4",
          "midi": 65,
          "time": 348.2656250000005,
          "velocity": 0.905511811023622,
          "duration": 0.17708333333331439
        },
        {
          "name": "D4",
          "midi": 62,
          "time": 348.49479166666714,
          "velocity": 0.8582677165354331,
          "duration": 0.15625
        },
        {
          "name": "F4",
          "midi": 65,
          "time": 348.7395833333338,
          "velocity": 0.905511811023622,
          "duration": 0.18229166666668561
        },
        {
          "name": "G4",
          "midi": 67,
          "time": 348.9895833333338,
          "velocity": 0.905511811023622,
          "duration": 0.22916666666668561
        },
        {
          "name": "F4",
          "midi": 65,
          "time": 349.2239583333338,
          "velocity": 0.8503937007874016,
          "duration": 0.21354166666668561
        },
        {
          "name": "D4",
          "midi": 62,
          "time": 349.4687500000005,
          "velocity": 0.8740157480314961,
          "duration": 0.29166666666662877
        },
        {
          "name": "F4",
          "midi": 65,
          "time": 349.7239583333338,
          "velocity": 0.8503937007874016,
          "duration": 0.17708333333331439
        },
        {
          "name": "G4",
          "midi": 67,
          "time": 349.97916666666714,
          "velocity": 0.937007874015748,
          "duration": 0.4427083333333144
        },
        {
          "name": "G4",
          "midi": 67,
          "time": 350.51562500000045,
          "velocity": 0.8503937007874016,
          "duration": 0.140625
        },
        {
          "name": "F4",
          "midi": 65,
          "time": 350.61979166666714,
          "velocity": 0.8346456692913385,
          "duration": 0.140625
        },
        {
          "name": "D4",
          "midi": 62,
          "time": 350.74479166666714,
          "velocity": 0.8740157480314961,
          "duration": 0.21354166666668561
        },
        {
          "name": "G4",
          "midi": 67,
          "time": 350.9843750000005,
          "velocity": 0.8503937007874016,
          "duration": 0.4322916666666856
        },
        {
          "name": "G4",
          "midi": 67,
          "time": 351.5000000000005,
          "velocity": 0.8818897637795275,
          "duration": 0.14583333333331439
        },
        {
          "name": "F4",
          "midi": 65,
          "time": 351.6093750000005,
          "velocity": 0.8503937007874016,
          "duration": 0.13020833333331439
        },
        {
          "name": "D4",
          "midi": 62,
          "time": 351.7187500000005,
          "velocity": 0.8582677165354331,
          "duration": 0.203125
        },
        {
          "name": "G4",
          "midi": 67,
          "time": 351.9635416666672,
          "velocity": 0.8582677165354331,
          "duration": 0.15104166666662877
        },
        {
          "name": "F4",
          "midi": 65,
          "time": 352.0625000000005,
          "velocity": 0.8818897637795275,
          "duration": 0.17708333333331439
        },
        {
          "name": "D4",
          "midi": 62,
          "time": 352.2083333333338,
          "velocity": 0.8818897637795275,
          "duration": 0.23958333333331439
        },
        {
          "name": "G4",
          "midi": 67,
          "time": 352.43229166666714,
          "velocity": 0.8110236220472441,
          "duration": 0.171875
        },
        {
          "name": "F4",
          "midi": 65,
          "time": 352.56250000000045,
          "velocity": 0.8031496062992126,
          "duration": 0.125
        },
        {
          "name": "D4",
          "midi": 62,
          "time": 352.65104166666714,
          "velocity": 0.8503937007874016,
          "duration": 0.35416666666662877
        },
        {
          "name": "G4",
          "midi": 67,
          "time": 352.96875000000045,
          "velocity": 0.8818897637795275,
          "duration": 0.34375
        },
        {
          "name": "D4",
          "midi": 62,
          "time": 353.28125000000045,
          "velocity": 0.8740157480314961,
          "duration": 0.25
        },
        {
          "name": "G4",
          "midi": 67,
          "time": 353.50520833333377,
          "velocity": 0.8582677165354331,
          "duration": 0.359375
        },
        {
          "name": "D4",
          "midi": 62,
          "time": 354.0260416666671,
          "velocity": 0.9448818897637795,
          "duration": 0.3020833333333144
        },
        {
          "name": "G4",
          "midi": 67,
          "time": 354.4375000000004,
          "velocity": 0.8110236220472441,
          "duration": 0.34375
        },
        {
          "name": "G4",
          "midi": 67,
          "time": 354.9635416666671,
          "velocity": 0.8582677165354331,
          "duration": 0.4322916666666856
        },
        {
          "name": "G4",
          "midi": 67,
          "time": 355.4791666666671,
          "velocity": 0.7401574803149606,
          "duration": 0.15104166666662877
        },
        {
          "name": "F4",
          "midi": 65,
          "time": 355.5937500000004,
          "velocity": 0.7637795275590551,
          "duration": 0.17187499999994316
        },
        {
          "name": "D4",
          "midi": 62,
          "time": 355.744791666667,
          "velocity": 0.8582677165354331,
          "duration": 0.21875
        },
        {
          "name": "G4",
          "midi": 67,
          "time": 356.00000000000034,
          "velocity": 0.8267716535433071,
          "duration": 0.4583333333333144
        },
        {
          "name": "G4",
          "midi": 67,
          "time": 356.51041666666697,
          "velocity": 0.8503937007874016,
          "duration": 0.22395833333331439
        },
        {
          "name": "F4",
          "midi": 65,
          "time": 356.7031250000003,
          "velocity": 0.7086614173228346,
          "duration": 0.2552083333333144
        },
        {
          "name": "G4",
          "midi": 67,
          "time": 357.0156250000003,
          "velocity": 0.8818897637795275,
          "duration": 0.28125
        },
        {
          "name": "F4",
          "midi": 65,
          "time": 357.2552083333336,
          "velocity": 0.8582677165354331,
          "duration": 0.2760416666666856
        },
        {
          "name": "D4",
          "midi": 62,
          "time": 357.5052083333336,
          "velocity": 0.8740157480314961,
          "duration": 0.28125000000005684
        },
        {
          "name": "F4",
          "midi": 65,
          "time": 357.74479166666697,
          "velocity": 0.8346456692913385,
          "duration": 0.203125
        },
        {
          "name": "F4",
          "midi": 65,
          "time": 358.03645833333366,
          "velocity": 0.8031496062992126,
          "duration": 0.0625
        },
        {
          "name": "G4",
          "midi": 67,
          "time": 358.05208333333366,
          "velocity": 0.7795275590551181,
          "duration": 0.3177083333333144
        },
        {
          "name": "G4",
          "midi": 67,
          "time": 358.49479166666697,
          "velocity": 0.937007874015748,
          "duration": 0.4010416666666856
        },
        {
          "name": "G4",
          "midi": 67,
          "time": 359.00520833333366,
          "velocity": 0.8582677165354331,
          "duration": 0.140625
        },
        {
          "name": "F4",
          "midi": 65,
          "time": 359.10937500000034,
          "velocity": 0.8503937007874016,
          "duration": 0.15104166666662877
        },
        {
          "name": "D4",
          "midi": 62,
          "time": 359.26041666666697,
          "velocity": 0.8740157480314961,
          "duration": 0.18229166666668561
        },
        {
          "name": "G4",
          "midi": 67,
          "time": 359.48958333333366,
          "velocity": 0.8976377952755905,
          "duration": 0.15104166666668561
        },
        {
          "name": "F4",
          "midi": 65,
          "time": 359.59895833333366,
          "velocity": 0.8740157480314961,
          "duration": 0.11979166666668561
        },
        {
          "name": "D4",
          "midi": 62,
          "time": 359.70312500000034,
          "velocity": 0.7244094488188977,
          "duration": 0.21875
        },
        {
          "name": "G4",
          "midi": 67,
          "time": 359.98437500000034,
          "velocity": 0.905511811023622,
          "duration": 0.1875
        },
        {
          "name": "F4",
          "midi": 65,
          "time": 360.09895833333366,
          "velocity": 0.8740157480314961,
          "duration": 0.16666666666668561
        },
        {
          "name": "D4",
          "midi": 62,
          "time": 360.23437500000034,
          "velocity": 0.8503937007874016,
          "duration": 0.203125
        },
        {
          "name": "C4",
          "midi": 60,
          "time": 360.23958333333366,
          "velocity": 0.8503937007874016,
          "duration": 0.16145833333337123
        },
        {
          "name": "G4",
          "midi": 67,
          "time": 360.47395833333366,
          "velocity": 0.8818897637795275,
          "duration": 0.18229166666662877
        },
        {
          "name": "F4",
          "midi": 65,
          "time": 360.58854166666697,
          "velocity": 0.8818897637795275,
          "duration": 0.15104166666662877
        },
        {
          "name": "D4",
          "midi": 62,
          "time": 360.6927083333336,
          "velocity": 0.8818897637795275,
          "duration": 0.28125
        },
        {
          "name": "G4",
          "midi": 67,
          "time": 360.9635416666669,
          "velocity": 0.7637795275590551,
          "duration": 0.16666666666668561
        },
        {
          "name": "F4",
          "midi": 65,
          "time": 361.0729166666669,
          "velocity": 0.8582677165354331,
          "duration": 0.18229166666668561
        },
        {
          "name": "D4",
          "midi": 62,
          "time": 361.1979166666669,
          "velocity": 0.8031496062992126,
          "duration": 0.28125000000005684
        },
        {
          "name": "G4",
          "midi": 67,
          "time": 361.4531250000003,
          "velocity": 0.8503937007874016,
          "duration": 0.19791666666668561
        },
        {
          "name": "F4",
          "midi": 65,
          "time": 361.57291666666697,
          "velocity": 0.8503937007874016,
          "duration": 0.15104166666662877
        },
        {
          "name": "D4",
          "midi": 62,
          "time": 361.6718750000003,
          "velocity": 0.8582677165354331,
          "duration": 0.296875
        },
        {
          "name": "G4",
          "midi": 67,
          "time": 361.9375000000003,
          "velocity": 0.8110236220472441,
          "duration": 0.21354166666668561
        },
        {
          "name": "F4",
          "midi": 65,
          "time": 362.05729166666697,
          "velocity": 0.8503937007874016,
          "duration": 0.18229166666668561
        },
        {
          "name": "D4",
          "midi": 62,
          "time": 362.17708333333366,
          "velocity": 0.8503937007874016,
          "duration": 0.3333333333333144
        },
        {
          "name": "G4",
          "midi": 67,
          "time": 362.47916666666697,
          "velocity": 0.8582677165354331,
          "duration": 0.203125
        },
        {
          "name": "F4",
          "midi": 65,
          "time": 362.60416666666697,
          "velocity": 0.8503937007874016,
          "duration": 0.16666666666668561
        },
        {
          "name": "D4",
          "midi": 62,
          "time": 362.71354166666697,
          "velocity": 0.8346456692913385,
          "duration": 0.296875
        },
        {
          "name": "G4",
          "midi": 67,
          "time": 362.97395833333366,
          "velocity": 0.7874015748031497,
          "duration": 0.20833333333331439
        },
        {
          "name": "F4",
          "midi": 65,
          "time": 363.0937500000003,
          "velocity": 0.7795275590551181,
          "duration": 0.17187500000005684
        },
        {
          "name": "D4",
          "midi": 62,
          "time": 363.20833333333366,
          "velocity": 0.7795275590551181,
          "duration": 0.296875
        },
        {
          "name": "G4",
          "midi": 67,
          "time": 363.47395833333366,
          "velocity": 0.8031496062992126,
          "duration": 0.17708333333331439
        },
        {
          "name": "F4",
          "midi": 65,
          "time": 363.56770833333366,
          "velocity": 0.7874015748031497,
          "duration": 0.17187499999994316
        },
        {
          "name": "D4",
          "midi": 62,
          "time": 363.6875000000003,
          "velocity": 0.8110236220472441,
          "duration": 0.296875
        },
        {
          "name": "G4",
          "midi": 67,
          "time": 363.9531250000003,
          "velocity": 0.8503937007874016,
          "duration": 0.19270833333331439
        },
        {
          "name": "F4",
          "midi": 65,
          "time": 364.0677083333336,
          "velocity": 0.8267716535433071,
          "duration": 0.16666666666668561
        },
        {
          "name": "D4",
          "midi": 62,
          "time": 364.1770833333336,
          "velocity": 0.8267716535433071,
          "duration": 0.31770833333337123
        },
        {
          "name": "G4",
          "midi": 67,
          "time": 364.46354166666697,
          "velocity": 0.8503937007874016,
          "duration": 0.19791666666668561
        },
        {
          "name": "F4",
          "midi": 65,
          "time": 364.57291666666697,
          "velocity": 0.7637795275590551,
          "duration": 0.17187500000005684
        },
        {
          "name": "D4",
          "midi": 62,
          "time": 364.68750000000034,
          "velocity": 0.8267716535433071,
          "duration": 0.29687500000005684
        },
        {
          "name": "G4",
          "midi": 67,
          "time": 364.9583333333337,
          "velocity": 0.8818897637795275,
          "duration": 0.1875
        },
        {
          "name": "F4",
          "midi": 65,
          "time": 365.0625000000004,
          "velocity": 0.8267716535433071,
          "duration": 0.16145833333331439
        },
        {
          "name": "D4",
          "midi": 62,
          "time": 365.166666666667,
          "velocity": 0.8267716535433071,
          "duration": 0.31770833333337123
        },
        {
          "name": "G4",
          "midi": 67,
          "time": 365.4375000000004,
          "velocity": 0.8031496062992126,
          "duration": 0.24479166666668561
        },
        {
          "name": "D5",
          "midi": 74,
          "time": 365.9947916666671,
          "velocity": 0.8740157480314961,
          "duration": 0.21354166666668561
        },
        {
          "name": "C5",
          "midi": 72,
          "time": 366.0000000000004,
          "velocity": 0.8740157480314961,
          "duration": 0.10416666666668561
        },
        {
          "name": "C5",
          "midi": 72,
          "time": 366.26562500000045,
          "velocity": 0.8503937007874016,
          "duration": 0.11979166666668561
        },
        {
          "name": "D5",
          "midi": 74,
          "time": 366.53125000000045,
          "velocity": 0.9212598425196851,
          "duration": 0.24479166666668561
        },
        {
          "name": "D5",
          "midi": 74,
          "time": 366.98437500000045,
          "velocity": 0.8818897637795275,
          "duration": 0.17708333333331439
        },
        {
          "name": "C5",
          "midi": 72,
          "time": 367.10937500000045,
          "velocity": 0.7007874015748031,
          "duration": 0.15104166666662877
        },
        {
          "name": "A4",
          "midi": 69,
          "time": 367.22395833333377,
          "velocity": 0.7795275590551181,
          "duration": 0.1875
        },
        {
          "name": "D5",
          "midi": 74,
          "time": 367.4635416666671,
          "velocity": 0.7086614173228346,
          "duration": 0.23958333333337123
        },
        {
          "name": "C5",
          "midi": 72,
          "time": 367.56770833333377,
          "velocity": 0.7244094488188977,
          "duration": 0.140625
        },
        {
          "name": "A#4",
          "midi": 70,
          "time": 367.67708333333377,
          "velocity": 0.84251968503937,
          "duration": 0.22916666666668561
        },
        {
          "name": "C5",
          "midi": 72,
          "time": 367.98958333333377,
          "velocity": 0.7874015748031497,
          "duration": 0.19270833333337123
        },
        {
          "name": "D5",
          "midi": 74,
          "time": 368.00000000000045,
          "velocity": 0.7007874015748031,
          "duration": 0.19270833333337123
        },
        {
          "name": "A4",
          "midi": 69,
          "time": 368.15104166666714,
          "velocity": 0.8740157480314961,
          "duration": 0.2760416666666856
        },
        {
          "name": "D5",
          "midi": 74,
          "time": 368.4531250000005,
          "velocity": 0.8582677165354331,
          "duration": 0.17708333333337123
        },
        {
          "name": "C5",
          "midi": 72,
          "time": 368.5572916666672,
          "velocity": 0.7795275590551181,
          "duration": 0.17708333333337123
        },
        {
          "name": "A4",
          "midi": 69,
          "time": 368.6927083333339,
          "velocity": 0.8346456692913385,
          "duration": 0.3072916666666856
        },
        {
          "name": "D5",
          "midi": 74,
          "time": 368.97916666666725,
          "velocity": 0.8267716535433071,
          "duration": 0.20833333333331439
        },
        {
          "name": "C5",
          "midi": 72,
          "time": 369.12500000000057,
          "velocity": 0.8582677165354331,
          "duration": 0.11979166666668561
        },
        {
          "name": "A4",
          "midi": 69,
          "time": 369.19791666666725,
          "velocity": 0.8503937007874016,
          "duration": 0.30208333333337123
        },
        {
          "name": "D5",
          "midi": 74,
          "time": 369.47395833333394,
          "velocity": 0.8976377952755905,
          "duration": 0.1875
        },
        {
          "name": "C5",
          "midi": 72,
          "time": 369.5937500000006,
          "velocity": 0.8267716535433071,
          "duration": 0.14583333333331439
        },
        {
          "name": "A4",
          "midi": 69,
          "time": 369.68229166666725,
          "velocity": 0.7874015748031497,
          "duration": 0.3072916666666856
        },
        {
          "name": "D5",
          "midi": 74,
          "time": 369.96354166666725,
          "velocity": 0.9212598425196851,
          "duration": 0.16145833333337123
        },
        {
          "name": "C5",
          "midi": 72,
          "time": 370.0781250000006,
          "velocity": 0.8582677165354331,
          "duration": 0.11979166666668561
        },
        {
          "name": "A4",
          "midi": 69,
          "time": 370.1510416666673,
          "velocity": 0.8110236220472441,
          "duration": 0.3229166666666856
        },
        {
          "name": "D5",
          "midi": 74,
          "time": 370.442708333334,
          "velocity": 0.9212598425196851,
          "duration": 0.234375
        },
        {
          "name": "C5",
          "midi": 72,
          "time": 370.5937500000007,
          "velocity": 0.6929133858267716,
          "duration": 0.15625
        },
        {
          "name": "A4",
          "midi": 69,
          "time": 370.708333333334,
          "velocity": 0.7401574803149606,
          "duration": 0.2760416666666856
        },
        {
          "name": "D5",
          "midi": 74,
          "time": 370.942708333334,
          "velocity": 0.8976377952755905,
          "duration": 0.20833333333337123
        },
        {
          "name": "C5",
          "midi": 72,
          "time": 371.0937500000007,
          "velocity": 0.7322834645669292,
          "duration": 0.125
        },
        {
          "name": "A4",
          "midi": 69,
          "time": 371.18229166666737,
          "velocity": 0.7795275590551181,
          "duration": 0.2708333333333144
        },
        {
          "name": "D5",
          "midi": 74,
          "time": 371.427083333334,
          "velocity": 0.8976377952755905,
          "duration": 0.16666666666668561
        },
        {
          "name": "C5",
          "midi": 72,
          "time": 371.54166666666737,
          "velocity": 0.6220472440944882,
          "duration": 0.10416666666668561
        },
        {
          "name": "A4",
          "midi": 69,
          "time": 371.61979166666737,
          "velocity": 0.7795275590551181,
          "duration": 0.140625
        },
        {
          "name": "B4",
          "midi": 71,
          "time": 371.73437500000074,
          "velocity": 0.8031496062992126,
          "duration": 0.036458333333314386
        },
        {
          "name": "C5",
          "midi": 72,
          "time": 371.75520833333405,
          "velocity": 0.30708661417322836,
          "duration": 0.052083333333314386
        },
        {
          "name": "D5",
          "midi": 74,
          "time": 371.80208333333405,
          "velocity": 0.8740157480314961,
          "duration": 0.03125
        },
        {
          "name": "E5",
          "midi": 76,
          "time": 371.82291666666737,
          "velocity": 0.9212598425196851,
          "duration": 0.03125000000005684
        },
        {
          "name": "F5",
          "midi": 77,
          "time": 371.84375000000074,
          "velocity": 0.9212598425196851,
          "duration": 0.057291666666685614
        },
        {
          "name": "G5",
          "midi": 79,
          "time": 371.8697916666674,
          "velocity": 0.8818897637795275,
          "duration": 0.11458333333331439
        },
        {
          "name": "A5",
          "midi": 81,
          "time": 371.9010416666674,
          "velocity": 0.7559055118110236,
          "duration": 0.03125
        },
        {
          "name": "A5",
          "midi": 81,
          "time": 371.95312500000074,
          "velocity": 0.6141732283464567,
          "duration": 0.28125
        },
        {
          "name": "G5",
          "midi": 79,
          "time": 372.3072916666674,
          "velocity": 0.8976377952755905,
          "duration": 0.13541666666668561
        },
        {
          "name": "G5",
          "midi": 79,
          "time": 372.5208333333341,
          "velocity": 0.8976377952755905,
          "duration": 0.140625
        },
        {
          "name": "G5",
          "midi": 79,
          "time": 372.7604166666674,
          "velocity": 0.8976377952755905,
          "duration": 0.109375
        },
        {
          "name": "F#5",
          "midi": 78,
          "time": 372.9895833333341,
          "velocity": 0.9606299212598425,
          "duration": 0.15104166666668561
        },
        {
          "name": "F5",
          "midi": 77,
          "time": 373.2500000000008,
          "velocity": 0.937007874015748,
          "duration": 0.13020833333331439
        },
        {
          "name": "E5",
          "midi": 76,
          "time": 373.4895833333341,
          "velocity": 0.8976377952755905,
          "duration": 0.16145833333331439
        },
        {
          "name": "D5",
          "midi": 74,
          "time": 373.7447916666674,
          "velocity": 0.9212598425196851,
          "duration": 0.171875
        },
        {
          "name": "C5",
          "midi": 72,
          "time": 374.26562500000074,
          "velocity": 0.5275590551181102,
          "duration": 0.026041666666685614
        },
        {
          "name": "B4",
          "midi": 71,
          "time": 374.26562500000074,
          "velocity": 0.47244094488188976,
          "duration": 0.026041666666685614
        },
        {
          "name": "A4",
          "midi": 69,
          "time": 374.5052083333341,
          "velocity": 0.8267716535433071,
          "duration": 0.078125
        },
        {
          "name": "F4",
          "midi": 65,
          "time": 374.9791666666674,
          "velocity": 0.8976377952755905,
          "duration": 0.20833333333331439
        },
        {
          "name": "E4",
          "midi": 64,
          "time": 375.50520833333405,
          "velocity": 0.9212598425196851,
          "duration": 0.13020833333331439
        },
        {
          "name": "F4",
          "midi": 65,
          "time": 376.0000000000007,
          "velocity": 0.9212598425196851,
          "duration": 0.25
        },
        {
          "name": "G4",
          "midi": 67,
          "time": 376.223958333334,
          "velocity": 0.8503937007874016,
          "duration": 0.15625
        },
        {
          "name": "G4",
          "midi": 67,
          "time": 376.489583333334,
          "velocity": 0.8267716535433071,
          "duration": 0.22916666666668561
        },
        {
          "name": "F4",
          "midi": 65,
          "time": 376.692708333334,
          "velocity": 0.7795275590551181,
          "duration": 0.140625
        },
        {
          "name": "G4",
          "midi": 67,
          "time": 376.958333333334,
          "velocity": 0.8976377952755905,
          "duration": 0.16666666666662877
        },
        {
          "name": "F4",
          "midi": 65,
          "time": 377.0885416666673,
          "velocity": 0.8346456692913385,
          "duration": 0.11458333333331439
        },
        {
          "name": "E4",
          "midi": 64,
          "time": 377.1875000000006,
          "velocity": 0.7007874015748031,
          "duration": 0.21354166666662877
        },
        {
          "name": "D4",
          "midi": 62,
          "time": 377.19270833333394,
          "velocity": 0.7401574803149606,
          "duration": 0.140625
        },
        {
          "name": "G4",
          "midi": 67,
          "time": 377.44270833333394,
          "velocity": 0.7795275590551181,
          "duration": 0.1875
        },
        {
          "name": "F4",
          "midi": 65,
          "time": 377.69270833333394,
          "velocity": 0.9212598425196851,
          "duration": 0.19791666666668561
        },
        {
          "name": "G4",
          "midi": 67,
          "time": 377.9843750000006,
          "velocity": 0.8818897637795275,
          "duration": 0.25520833333337123
        },
        {
          "name": "F4",
          "midi": 65,
          "time": 377.9947916666673,
          "velocity": 0.8503937007874016,
          "duration": 0.06770833333331439
        },
        {
          "name": "F4",
          "midi": 65,
          "time": 378.1822916666673,
          "velocity": 0.7322834645669292,
          "duration": 0.25520833333337123
        },
        {
          "name": "D4",
          "midi": 62,
          "time": 378.4687500000007,
          "velocity": 0.8976377952755905,
          "duration": 0.22395833333331439
        },
        {
          "name": "G4",
          "midi": 67,
          "time": 378.723958333334,
          "velocity": 0.8031496062992126,
          "duration": 0.28125
        },
        {
          "name": "F4",
          "midi": 65,
          "time": 378.9531250000007,
          "velocity": 0.7007874015748031,
          "duration": 0.296875
        },
        {
          "name": "D4",
          "midi": 62,
          "time": 379.223958333334,
          "velocity": 0.8346456692913385,
          "duration": 0.28645833333337123
        },
        {
          "name": "G4",
          "midi": 67,
          "time": 379.47916666666737,
          "velocity": 0.8582677165354331,
          "duration": 0.13020833333331439
        },
        {
          "name": "B4",
          "midi": 71,
          "time": 379.7343750000007,
          "velocity": 0.8110236220472441,
          "duration": 0.15625
        },
        {
          "name": "C5",
          "midi": 72,
          "time": 379.8906250000007,
          "velocity": 0.6614173228346457,
          "duration": 0.010416666666685614
        },
        {
          "name": "C5",
          "midi": 72,
          "time": 379.93229166666737,
          "velocity": 0.5748031496062992,
          "duration": 0.13020833333331439
        },
        {
          "name": "D5",
          "midi": 74,
          "time": 379.9687500000007,
          "velocity": 0.41732283464566927,
          "duration": 0.19791666666668561
        },
        {
          "name": "D5",
          "midi": 74,
          "time": 380.2500000000007,
          "velocity": 0.8503937007874016,
          "duration": 0.109375
        },
        {
          "name": "D5",
          "midi": 74,
          "time": 380.505208333334,
          "velocity": 0.905511811023622,
          "duration": 0.10416666666668561
        },
        {
          "name": "D5",
          "midi": 74,
          "time": 380.7500000000007,
          "velocity": 0.8976377952755905,
          "duration": 0.08854166666668561
        },
        {
          "name": "C#5",
          "midi": 73,
          "time": 380.9843750000007,
          "velocity": 0.9606299212598425,
          "duration": 0.15104166666668561
        },
        {
          "name": "C5",
          "midi": 72,
          "time": 381.22916666666737,
          "velocity": 0.8582677165354331,
          "duration": 0.109375
        },
        {
          "name": "A4",
          "midi": 69,
          "time": 381.52083333333405,
          "velocity": 0.8740157480314961,
          "duration": 0.15104166666668561
        },
        {
          "name": "A#4",
          "midi": 70,
          "time": 381.8229166666674,
          "velocity": 0.937007874015748,
          "duration": 0.109375
        },
        {
          "name": "G4",
          "midi": 67,
          "time": 382.29687500000074,
          "velocity": 0.905511811023622,
          "duration": 0.09375
        },
        {
          "name": "G4",
          "midi": 67,
          "time": 382.5260416666674,
          "velocity": 0.905511811023622,
          "duration": 0.3020833333333144
        },
        {
          "name": "G4",
          "midi": 67,
          "time": 382.9791666666674,
          "velocity": 0.905511811023622,
          "duration": 0.4427083333333144
        },
        {
          "name": "G4",
          "midi": 67,
          "time": 383.52083333333405,
          "velocity": 0.8582677165354331,
          "duration": 0.13541666666668561
        },
        {
          "name": "F4",
          "midi": 65,
          "time": 383.61458333333405,
          "velocity": 0.8267716535433071,
          "duration": 0.15625
        },
        {
          "name": "D4",
          "midi": 62,
          "time": 383.73958333333405,
          "velocity": 0.8818897637795275,
          "duration": 0.2916666666666856
        },
        {
          "name": "F4",
          "midi": 65,
          "time": 384.00520833333405,
          "velocity": 0.8740157480314961,
          "duration": 0.27083333333337123
        },
        {
          "name": "G4",
          "midi": 67,
          "time": 384.23437500000074,
          "velocity": 0.8503937007874016,
          "duration": 0.18229166666668561
        },
        {
          "name": "G4",
          "midi": 67,
          "time": 384.5104166666674,
          "velocity": 0.8818897637795275,
          "duration": 0.14583333333331439
        },
        {
          "name": "F4",
          "midi": 65,
          "time": 384.6041666666674,
          "velocity": 0.7795275590551181,
          "duration": 0.15104166666662877
        },
        {
          "name": "D4",
          "midi": 62,
          "time": 384.72395833333405,
          "velocity": 0.8503937007874016,
          "duration": 0.265625
        },
        {
          "name": "G4",
          "midi": 67,
          "time": 384.98958333333405,
          "velocity": 0.9212598425196851,
          "duration": 0.4427083333333144
        },
        {
          "name": "G4",
          "midi": 67,
          "time": 385.50520833333405,
          "velocity": 0.8818897637795275,
          "duration": 0.15625
        },
        {
          "name": "F4",
          "midi": 65,
          "time": 385.60937500000074,
          "velocity": 0.7874015748031497,
          "duration": 0.16145833333331439
        },
        {
          "name": "D4",
          "midi": 62,
          "time": 385.73437500000074,
          "velocity": 0.8503937007874016,
          "duration": 0.2708333333333144
        },
        {
          "name": "F4",
          "midi": 65,
          "time": 386.04166666666737,
          "velocity": 0.937007874015748,
          "duration": 0.14583333333331439
        },
        {
          "name": "D4",
          "midi": 62,
          "time": 386.0468750000007,
          "velocity": 0.5511811023622047,
          "duration": 0.020833333333314386
        },
        {
          "name": "G4",
          "midi": 67,
          "time": 386.2500000000007,
          "velocity": 0.8740157480314961,
          "duration": 0.40625
        },
        {
          "name": "A#4",
          "midi": 70,
          "time": 386.817708333334,
          "velocity": 0.8661417322834646,
          "duration": 0.09895833333331439
        },
        {
          "name": "G4",
          "midi": 67,
          "time": 387.0156250000006,
          "velocity": 0.8346456692913385,
          "duration": 0.4114583333333144
        },
        {
          "name": "A#4",
          "midi": 70,
          "time": 387.46354166666725,
          "velocity": 0.8818897637795275,
          "duration": 0.11458333333331439
        },
        {
          "name": "G4",
          "midi": 67,
          "time": 387.72916666666725,
          "velocity": 0.9448818897637795,
          "duration": 0.390625
        },
        {
          "name": "D5",
          "midi": 74,
          "time": 388.21875000000057,
          "velocity": 0.8976377952755905,
          "duration": 0.15625
        },
        {
          "name": "C5",
          "midi": 72,
          "time": 388.47916666666725,
          "velocity": 0.8976377952755905,
          "duration": 0.13541666666668561
        },
        {
          "name": "D5",
          "midi": 74,
          "time": 388.98958333333394,
          "velocity": 0.9212598425196851,
          "duration": 0.13020833333331439
        },
        {
          "name": "C#5",
          "midi": 73,
          "time": 389.23437500000057,
          "velocity": 0.937007874015748,
          "duration": 0.13020833333331439
        },
        {
          "name": "C5",
          "midi": 72,
          "time": 389.4895833333339,
          "velocity": 0.6929133858267716,
          "duration": 0.07291666666668561
        },
        {
          "name": "A4",
          "midi": 69,
          "time": 389.7552083333339,
          "velocity": 0.8582677165354331,
          "duration": 0.16145833333331439
        },
        {
          "name": "G4",
          "midi": 67,
          "time": 390.0104166666672,
          "velocity": 0.8267716535433071,
          "duration": 0.140625
        },
        {
          "name": "G4",
          "midi": 67,
          "time": 390.2395833333339,
          "velocity": 0.8582677165354331,
          "duration": 0.11458333333331439
        },
        {
          "name": "B4",
          "midi": 71,
          "time": 390.2447916666672,
          "velocity": 0.7559055118110236,
          "duration": 0.140625
        },
        {
          "name": "G4",
          "midi": 67,
          "time": 390.4791666666672,
          "velocity": 0.937007874015748,
          "duration": 0.39583333333337123
        },
        {
          "name": "B4",
          "midi": 71,
          "time": 390.4895833333339,
          "velocity": 0.7007874015748031,
          "duration": 0.13541666666668561
        },
        {
          "name": "B4",
          "midi": 71,
          "time": 390.72916666666725,
          "velocity": 0.7401574803149606,
          "duration": 0.14583333333331439
        },
        {
          "name": "B4",
          "midi": 71,
          "time": 390.98437500000057,
          "velocity": 0.8267716535433071,
          "duration": 0.4375
        },
        {
          "name": "G4",
          "midi": 67,
          "time": 390.99479166666725,
          "velocity": 0.8976377952755905,
          "duration": 0.4114583333333144
        },
        {
          "name": "G4",
          "midi": 67,
          "time": 391.5052083333339,
          "velocity": 0.8582677165354331,
          "duration": 0.171875
        },
        {
          "name": "B4",
          "midi": 71,
          "time": 391.5052083333339,
          "velocity": 0.7874015748031497,
          "duration": 0.11458333333331439
        },
        {
          "name": "A4",
          "midi": 69,
          "time": 391.6041666666672,
          "velocity": 0.5748031496062992,
          "duration": 0.13541666666668561
        },
        {
          "name": "E4",
          "midi": 64,
          "time": 391.6354166666672,
          "velocity": 0.6535433070866141,
          "duration": 0.125
        },
        {
          "name": "F4",
          "midi": 65,
          "time": 391.6458333333339,
          "velocity": 0.6535433070866141,
          "duration": 0.06770833333331439
        },
        {
          "name": "G4",
          "midi": 67,
          "time": 391.7135416666672,
          "velocity": 0.7401574803149606,
          "duration": 0.23958333333337123
        },
        {
          "name": "D4",
          "midi": 62,
          "time": 391.75000000000057,
          "velocity": 0.7322834645669292,
          "duration": 0.3020833333333144
        },
        {
          "name": "C4",
          "midi": 60,
          "time": 391.7552083333339,
          "velocity": 0.7007874015748031,
          "duration": 0.09375
        },
        {
          "name": "A4",
          "midi": 69,
          "time": 391.9895833333339,
          "velocity": 0.8031496062992126,
          "duration": 0.21354166666668561
        },
        {
          "name": "E4",
          "midi": 64,
          "time": 392.0260416666672,
          "velocity": 0.905511811023622,
          "duration": 0.22916666666668561
        },
        {
          "name": "B4",
          "midi": 71,
          "time": 392.21875000000057,
          "velocity": 0.8346456692913385,
          "duration": 0.17708333333331439
        },
        {
          "name": "G4",
          "midi": 67,
          "time": 392.2239583333339,
          "velocity": 0.7874015748031497,
          "duration": 0.17708333333331439
        },
        {
          "name": "B4",
          "midi": 71,
          "time": 392.4791666666672,
          "velocity": 0.8976377952755905,
          "duration": 0.13541666666668561
        },
        {
          "name": "G4",
          "midi": 67,
          "time": 392.4895833333339,
          "velocity": 0.8818897637795275,
          "duration": 0.19270833333337123
        },
        {
          "name": "E4",
          "midi": 64,
          "time": 392.64062500000057,
          "velocity": 0.7559055118110236,
          "duration": 0.11979166666668561
        },
        {
          "name": "D4",
          "midi": 62,
          "time": 392.73437500000057,
          "velocity": 0.8267716535433071,
          "duration": 0.14583333333337123
        },
        {
          "name": "G4",
          "midi": 67,
          "time": 392.9218750000006,
          "velocity": 0.8976377952755905,
          "duration": 0.421875
        },
        {
          "name": "F4",
          "midi": 65,
          "time": 392.92708333333394,
          "velocity": 0.937007874015748,
          "duration": 0.15104166666668561
        },
        {
          "name": "G4",
          "midi": 67,
          "time": 393.45833333333394,
          "velocity": 0.8740157480314961,
          "duration": 0.16145833333331439
        },
        {
          "name": "G4",
          "midi": 67,
          "time": 393.49479166666725,
          "velocity": 0.7795275590551181,
          "duration": 0.23958333333331439
        },
        {
          "name": "D4",
          "midi": 62,
          "time": 393.71354166666725,
          "velocity": 0.8740157480314961,
          "duration": 0.15104166666662877
        },
        {
          "name": "G4",
          "midi": 67,
          "time": 393.7395833333339,
          "velocity": 0.7874015748031497,
          "duration": 0.109375
        },
        {
          "name": "G4",
          "midi": 67,
          "time": 394.0052083333339,
          "velocity": 0.8346456692913385,
          "duration": 0.4791666666666856
        },
        {
          "name": "G4",
          "midi": 67,
          "time": 394.75000000000057,
          "velocity": 0.8818897637795275,
          "duration": 0.13020833333331439
        },
        {
          "name": "G4",
          "midi": 67,
          "time": 395.01562500000057,
          "velocity": 0.8818897637795275,
          "duration": 0.4114583333333144
        },
        {
          "name": "G4",
          "midi": 67,
          "time": 395.7291666666672,
          "velocity": 0.905511811023622,
          "duration": 0.13541666666668561
        },
        {
          "name": "G4",
          "midi": 67,
          "time": 395.9947916666672,
          "velocity": 0.905511811023622,
          "duration": 0.4947916666666856
        },
        {
          "name": "G4",
          "midi": 67,
          "time": 396.7083333333339,
          "velocity": 0.905511811023622,
          "duration": 0.14583333333331439
        },
        {
          "name": "G4",
          "midi": 67,
          "time": 396.9687500000005,
          "velocity": 0.8740157480314961,
          "duration": 0.15625
        },
        {
          "name": "E4",
          "midi": 64,
          "time": 397.2083333333338,
          "velocity": 0.8503937007874016,
          "duration": 0.16145833333331439
        },
        {
          "name": "E4",
          "midi": 64,
          "time": 397.46875000000045,
          "velocity": 0.8740157480314961,
          "duration": 0.15104166666668561
        },
        {
          "name": "G4",
          "midi": 67,
          "time": 397.73437500000045,
          "velocity": 0.8740157480314961,
          "duration": 0.13020833333331439
        },
        {
          "name": "G4",
          "midi": 67,
          "time": 397.98437500000045,
          "velocity": 0.8976377952755905,
          "duration": 0.2760416666666856
        },
        {
          "name": "F4",
          "midi": 65,
          "time": 398.21354166666714,
          "velocity": 0.5433070866141733,
          "duration": 0.16145833333331439
        },
        {
          "name": "D4",
          "midi": 62,
          "time": 398.46875000000045,
          "velocity": 0.9212598425196851,
          "duration": 0.20833333333331439
        },
        {
          "name": "G4",
          "midi": 67,
          "time": 398.70833333333377,
          "velocity": 0.6929133858267716,
          "duration": 0.21875
        },
        {
          "name": "F4",
          "midi": 65,
          "time": 398.9635416666671,
          "velocity": 0.8740157480314961,
          "duration": 0.21354166666668561
        },
        {
          "name": "D4",
          "midi": 62,
          "time": 399.2291666666671,
          "velocity": 0.8976377952755905,
          "duration": 0.21875
        },
        {
          "name": "G4",
          "midi": 67,
          "time": 399.50520833333377,
          "velocity": 0.8740157480314961,
          "duration": 0.22916666666668561
        },
        {
          "name": "F4",
          "midi": 65,
          "time": 399.70312500000045,
          "velocity": 0.8267716535433071,
          "duration": 0.28125
        },
        {
          "name": "D4",
          "midi": 62,
          "time": 399.98437500000045,
          "velocity": 0.9212598425196851,
          "duration": 0.24479166666668561
        },
        {
          "name": "G4",
          "midi": 67,
          "time": 400.23437500000045,
          "velocity": 0.8503937007874016,
          "duration": 0.25
        },
        {
          "name": "F4",
          "midi": 65,
          "time": 400.45833333333377,
          "velocity": 0.8582677165354331,
          "duration": 0.2760416666666856
        },
        {
          "name": "D4",
          "midi": 62,
          "time": 400.70833333333377,
          "velocity": 0.905511811023622,
          "duration": 0.265625
        },
        {
          "name": "G4",
          "midi": 67,
          "time": 400.95312500000045,
          "velocity": 0.8740157480314961,
          "duration": 0.296875
        },
        {
          "name": "F4",
          "midi": 65,
          "time": 401.18750000000045,
          "velocity": 0.8346456692913385,
          "duration": 0.3177083333333144
        },
        {
          "name": "D4",
          "midi": 62,
          "time": 401.46875000000045,
          "velocity": 0.9212598425196851,
          "duration": 0.26041666666662877
        },
        {
          "name": "G4",
          "midi": 67,
          "time": 401.6979166666671,
          "velocity": 0.8267716535433071,
          "duration": 0.3229166666666856
        },
        {
          "name": "F4",
          "midi": 65,
          "time": 401.95833333333377,
          "velocity": 0.8582677165354331,
          "duration": 0.29166666666662877
        },
        {
          "name": "D4",
          "midi": 62,
          "time": 402.1979166666671,
          "velocity": 0.8818897637795275,
          "duration": 0.2864583333333144
        },
        {
          "name": "G4",
          "midi": 67,
          "time": 402.4375000000004,
          "velocity": 0.8267716535433071,
          "duration": 0.33854166666662877
        },
        {
          "name": "F4",
          "midi": 65,
          "time": 402.6927083333337,
          "velocity": 0.8582677165354331,
          "duration": 0.31249999999994316
        },
        {
          "name": "D4",
          "midi": 62,
          "time": 402.96875000000034,
          "velocity": 0.8976377952755905,
          "duration": 0.29166666666662877
        },
        {
          "name": "G4",
          "midi": 67,
          "time": 403.21354166666697,
          "velocity": 0.8110236220472441,
          "duration": 0.296875
        },
        {
          "name": "F4",
          "midi": 65,
          "time": 403.47395833333366,
          "velocity": 0.8818897637795275,
          "duration": 0.15625
        },
        {
          "name": "D5",
          "midi": 74,
          "time": 403.75520833333366,
          "velocity": 0.9212598425196851,
          "duration": 0.4166666666666856
        },
        {
          "name": "D5",
          "midi": 74,
          "time": 404.23437500000034,
          "velocity": 0.8582677165354331,
          "duration": 0.15625
        },
        {
          "name": "D5",
          "midi": 74,
          "time": 404.479166666667,
          "velocity": 0.9212598425196851,
          "duration": 0.11458333333331439
        },
        {
          "name": "D5",
          "midi": 74,
          "time": 404.713541666667,
          "velocity": 0.8976377952755905,
          "duration": 0.125
        },
        {
          "name": "C#5",
          "midi": 73,
          "time": 404.95312500000034,
          "velocity": 0.9212598425196851,
          "duration": 0.17708333333331439
        },
        {
          "name": "C5",
          "midi": 72,
          "time": 405.21875000000034,
          "velocity": 0.905511811023622,
          "duration": 0.13020833333331439
        },
        {
          "name": "B4",
          "midi": 71,
          "time": 405.52604166666697,
          "velocity": 0.9212598425196851,
          "duration": 0.13020833333331439
        },
        {
          "name": "A#4",
          "midi": 70,
          "time": 405.7500000000003,
          "velocity": 0.937007874015748,
          "duration": 0.09375
        },
        {
          "name": "A4",
          "midi": 69,
          "time": 405.9895833333336,
          "velocity": 0.8976377952755905,
          "duration": 0.18229166666668561
        },
        {
          "name": "G4",
          "midi": 67,
          "time": 406.2500000000003,
          "velocity": 0.8503937007874016,
          "duration": 0.171875
        },
        {
          "name": "F4",
          "midi": 65,
          "time": 406.2500000000003,
          "velocity": 0.905511811023622,
          "duration": 0.140625
        },
        {
          "name": "G4",
          "midi": 67,
          "time": 406.4843750000003,
          "velocity": 0.7401574803149606,
          "duration": 0.13020833333331439
        },
        {
          "name": "G4",
          "midi": 67,
          "time": 407.0572916666669,
          "velocity": 0.9212598425196851,
          "duration": 0.4635416666666856
        },
        {
          "name": "F4",
          "midi": 65,
          "time": 407.4895833333336,
          "velocity": 0.8503937007874016,
          "duration": 0.24479166666668561
        },
        {
          "name": "D4",
          "midi": 62,
          "time": 407.7343750000003,
          "velocity": 0.8976377952755905,
          "duration": 0.24479166666668561
        },
        {
          "name": "F4",
          "midi": 65,
          "time": 407.98958333333366,
          "velocity": 0.8976377952755905,
          "duration": 0.265625
        },
        {
          "name": "G4",
          "midi": 67,
          "time": 408.20833333333366,
          "velocity": 0.8582677165354331,
          "duration": 0.16145833333331439
        },
        {
          "name": "G4",
          "midi": 67,
          "time": 408.45833333333366,
          "velocity": 0.8976377952755905,
          "duration": 0.4010416666666856
        },
        {
          "name": "G4",
          "midi": 67,
          "time": 408.93750000000034,
          "velocity": 0.905511811023622,
          "duration": 0.4583333333333144
        },
        {
          "name": "G4",
          "midi": 67,
          "time": 409.50000000000034,
          "velocity": 0.8582677165354331,
          "duration": 0.19270833333331439
        },
        {
          "name": "F4",
          "midi": 65,
          "time": 409.56250000000034,
          "velocity": 0.8031496062992126,
          "duration": 0.19270833333331439
        },
        {
          "name": "D4",
          "midi": 62,
          "time": 409.72916666666697,
          "velocity": 0.9212598425196851,
          "duration": 0.2916666666666856
        },
        {
          "name": "F4",
          "midi": 65,
          "time": 410.00000000000034,
          "velocity": 0.8976377952755905,
          "duration": 0.27604166666662877
        },
        {
          "name": "G4",
          "midi": 67,
          "time": 410.22916666666697,
          "velocity": 0.8818897637795275,
          "duration": 0.203125
        },
        {
          "name": "G4",
          "midi": 67,
          "time": 410.50520833333366,
          "velocity": 0.8976377952755905,
          "duration": 0.3958333333333144
        },
        {
          "name": "G4",
          "midi": 67,
          "time": 410.98958333333366,
          "velocity": 0.905511811023622,
          "duration": 0.484375
        },
        {
          "name": "F4",
          "midi": 65,
          "time": 411.48958333333366,
          "velocity": 0.8503937007874016,
          "duration": 0.13541666666662877
        },
        {
          "name": "D4",
          "midi": 62,
          "time": 411.61979166666697,
          "velocity": 0.905511811023622,
          "duration": 0.40625000000005684
        },
        {
          "name": "F4",
          "midi": 65,
          "time": 411.77604166666697,
          "velocity": 0.8267716535433071,
          "duration": 0.07291666666668561
        },
        {
          "name": "F4",
          "midi": 65,
          "time": 411.98437500000034,
          "velocity": 0.937007874015748,
          "duration": 0.30208333333337123
        },
        {
          "name": "G4",
          "midi": 67,
          "time": 412.244791666667,
          "velocity": 0.8818897637795275,
          "duration": 0.265625
        },
        {
          "name": "F4",
          "midi": 65,
          "time": 412.4739583333337,
          "velocity": 0.8346456692913385,
          "duration": 0.2552083333333144
        },
        {
          "name": "D4",
          "midi": 62,
          "time": 412.7083333333337,
          "velocity": 0.9212598425196851,
          "duration": 0.30729166666662877
        },
        {
          "name": "G4",
          "midi": 67,
          "time": 412.979166666667,
          "velocity": 0.8818897637795275,
          "duration": 0.5104166666666288
        },
        {
          "name": "F4",
          "midi": 65,
          "time": 413.45833333333366,
          "velocity": 0.8503937007874016,
          "duration": 0.2708333333333144
        },
        {
          "name": "D4",
          "midi": 62,
          "time": 413.69270833333366,
          "velocity": 0.8818897637795275,
          "duration": 0.22916666666662877
        },
        {
          "name": "G4",
          "midi": 67,
          "time": 413.9687500000003,
          "velocity": 0.8503937007874016,
          "duration": 0.17708333333331439
        },
        {
          "name": "G4",
          "midi": 67,
          "time": 414.2239583333336,
          "velocity": 0.8976377952755905,
          "duration": 0.5572916666666856
        },
        {
          "name": "A#4",
          "midi": 70,
          "time": 414.7395833333336,
          "velocity": 0.7952755905511811,
          "duration": 0.125
        },
        {
          "name": "G4",
          "midi": 67,
          "time": 414.9947916666669,
          "velocity": 0.8267716535433071,
          "duration": 0.5572916666666856
        },
        {
          "name": "A#4",
          "midi": 70,
          "time": 415.4583333333336,
          "velocity": 0.7559055118110236,
          "duration": 0.125
        },
        {
          "name": "G4",
          "midi": 67,
          "time": 415.7135416666669,
          "velocity": 0.8503937007874016,
          "duration": 0.5885416666666856
        },
        {
          "name": "D4",
          "midi": 62,
          "time": 416.2708333333336,
          "velocity": 0.8976377952755905,
          "duration": 0.15104166666668561
        },
        {
          "name": "D4",
          "midi": 62,
          "time": 416.49479166666697,
          "velocity": 0.8976377952755905,
          "duration": 0.546875
        },
        {
          "name": "F4",
          "midi": 65,
          "time": 417.0312500000003,
          "velocity": 0.8031496062992126,
          "duration": 0.19270833333337123
        },
        {
          "name": "D4",
          "midi": 62,
          "time": 417.25000000000034,
          "velocity": 0.8976377952755905,
          "duration": 0.2760416666666856
        },
        {
          "name": "F4",
          "midi": 65,
          "time": 417.494791666667,
          "velocity": 0.8818897637795275,
          "duration": 0.421875
        },
        {
          "name": "F4",
          "midi": 65,
          "time": 417.9895833333337,
          "velocity": 0.905511811023622,
          "duration": 0.2916666666666856
        },
        {
          "name": "G4",
          "midi": 67,
          "time": 418.2343750000004,
          "velocity": 0.7874015748031497,
          "duration": 0.21875
        },
        {
          "name": "G4",
          "midi": 67,
          "time": 418.5156250000004,
          "velocity": 0.8976377952755905,
          "duration": 0.40625
        },
        {
          "name": "G4",
          "midi": 67,
          "time": 418.9895833333337,
          "velocity": 0.8976377952755905,
          "duration": 0.421875
        },
        {
          "name": "G4",
          "midi": 67,
          "time": 419.494791666667,
          "velocity": 0.7322834645669292,
          "duration": 0.17708333333331439
        },
        {
          "name": "F4",
          "midi": 65,
          "time": 419.494791666667,
          "velocity": 0.8267716535433071,
          "duration": 0.28125
        },
        {
          "name": "D4",
          "midi": 62,
          "time": 419.75000000000034,
          "velocity": 0.8346456692913385,
          "duration": 0.2604166666666856
        },
        {
          "name": "F4",
          "midi": 65,
          "time": 419.9739583333337,
          "velocity": 0.8818897637795275,
          "duration": 0.2864583333333144
        },
        {
          "name": "G4",
          "midi": 67,
          "time": 420.2239583333337,
          "velocity": 0.8503937007874016,
          "duration": 0.4739583333333144
        },
        {
          "name": "F4",
          "midi": 65,
          "time": 420.70312500000034,
          "velocity": 0.8740157480314961,
          "duration": 0.23958333333331439
        },
        {
          "name": "G4",
          "midi": 67,
          "time": 420.95833333333366,
          "velocity": 0.8818897637795275,
          "duration": 0.546875
        },
        {
          "name": "F4",
          "midi": 65,
          "time": 421.48437500000034,
          "velocity": 0.8976377952755905,
          "duration": 0.18229166666662877
        },
        {
          "name": "G4",
          "midi": 67,
          "time": 421.71354166666697,
          "velocity": 0.905511811023622,
          "duration": 0.515625
        },
        {
          "name": "F4",
          "midi": 65,
          "time": 422.2343750000003,
          "velocity": 0.905511811023622,
          "duration": 0.21875
        },
        {
          "name": "G4",
          "midi": 67,
          "time": 422.4739583333336,
          "velocity": 0.8740157480314961,
          "duration": 0.5260416666666288
        },
        {
          "name": "F4",
          "midi": 65,
          "time": 422.9791666666669,
          "velocity": 0.9212598425196851,
          "duration": 0.29166666666662877
        },
        {
          "name": "G4",
          "midi": 67,
          "time": 423.2343750000002,
          "velocity": 0.8740157480314961,
          "duration": 0.5052083333333144
        },
        {
          "name": "F4",
          "midi": 65,
          "time": 423.72395833333354,
          "velocity": 0.905511811023622,
          "duration": 0.234375
        },
        {
          "name": "G4",
          "midi": 67,
          "time": 423.97916666666686,
          "velocity": 0.8503937007874016,
          "duration": 0.515625
        },
        {
          "name": "F4",
          "midi": 65,
          "time": 424.47916666666686,
          "velocity": 0.8976377952755905,
          "duration": 0.2708333333333144
        },
        {
          "name": "G4",
          "midi": 67,
          "time": 424.71354166666686,
          "velocity": 0.8582677165354331,
          "duration": 0.515625
        },
        {
          "name": "F4",
          "midi": 65,
          "time": 425.20312500000017,
          "velocity": 0.8267716535433071,
          "duration": 0.3072916666666856
        },
        {
          "name": "G4",
          "midi": 67,
          "time": 425.47395833333354,
          "velocity": 0.8740157480314961,
          "duration": 0.5052083333333144
        },
        {
          "name": "F4",
          "midi": 65,
          "time": 425.97916666666686,
          "velocity": 0.8818897637795275,
          "duration": 0.2864583333333144
        },
        {
          "name": "G4",
          "midi": 67,
          "time": 426.22916666666686,
          "velocity": 0.8976377952755905,
          "duration": 0.22916666666662877
        },
        {
          "name": "G4",
          "midi": 67,
          "time": 426.5104166666668,
          "velocity": 0.8818897637795275,
          "duration": 0.3645833333333144
        },
        {
          "name": "G4",
          "midi": 67,
          "time": 426.9635416666668,
          "velocity": 0.905511811023622,
          "duration": 0.453125
        },
        {
          "name": "G4",
          "midi": 67,
          "time": 427.4791666666668,
          "velocity": 0.8740157480314961,
          "duration": 0.140625
        },
        {
          "name": "F4",
          "midi": 65,
          "time": 427.5833333333335,
          "velocity": 0.6377952755905512,
          "duration": 0.171875
        },
        {
          "name": "D4",
          "midi": 62,
          "time": 427.7291666666668,
          "velocity": 0.8976377952755905,
          "duration": 0.25520833333337123
        },
        {
          "name": "G4",
          "midi": 67,
          "time": 428.00000000000017,
          "velocity": 0.8110236220472441,
          "duration": 0.1875
        },
        {
          "name": "F4",
          "midi": 65,
          "time": 428.12500000000017,
          "velocity": 0.8740157480314961,
          "duration": 0.18229166666662877
        },
        {
          "name": "D4",
          "midi": 62,
          "time": 428.2708333333335,
          "velocity": 0.8818897637795275,
          "duration": 0.26562499999994316
        },
        {
          "name": "G4",
          "midi": 67,
          "time": 428.5156250000001,
          "velocity": 0.7874015748031497,
          "duration": 0.1875
        },
        {
          "name": "F4",
          "midi": 65,
          "time": 428.6250000000001,
          "velocity": 0.7637795275590551,
          "duration": 0.17708333333337123
        },
        {
          "name": "D4",
          "midi": 62,
          "time": 428.7447916666668,
          "velocity": 0.8346456692913385,
          "duration": 0.2604166666666856
        },
        {
          "name": "G4",
          "midi": 67,
          "time": 428.9791666666668,
          "velocity": 0.8267716535433071,
          "duration": 0.18229166666668561
        },
        {
          "name": "F4",
          "midi": 65,
          "time": 429.0885416666668,
          "velocity": 0.8267716535433071,
          "duration": 0.171875
        },
        {
          "name": "D4",
          "midi": 62,
          "time": 429.1927083333335,
          "velocity": 0.8503937007874016,
          "duration": 0.2864583333333144
        },
        {
          "name": "G4",
          "midi": 67,
          "time": 429.4427083333335,
          "velocity": 0.7559055118110236,
          "duration": 0.19270833333331439
        },
        {
          "name": "F4",
          "midi": 65,
          "time": 429.5572916666668,
          "velocity": 0.7874015748031497,
          "duration": 0.16666666666668561
        },
        {
          "name": "D4",
          "midi": 62,
          "time": 429.6666666666668,
          "velocity": 0.8346456692913385,
          "duration": 0.2760416666666856
        },
        {
          "name": "G4",
          "midi": 67,
          "time": 429.90625000000017,
          "velocity": 0.8346456692913385,
          "duration": 0.19791666666668561
        },
        {
          "name": "F4",
          "midi": 65,
          "time": 430.01562500000017,
          "velocity": 0.8110236220472441,
          "duration": 0.23958333333331439
        },
        {
          "name": "D4",
          "midi": 62,
          "time": 430.18750000000017,
          "velocity": 0.8503937007874016,
          "duration": 0.3125
        },
        {
          "name": "G4",
          "midi": 67,
          "time": 430.4583333333335,
          "velocity": 0.7007874015748031,
          "duration": 0.20312500000005684
        },
        {
          "name": "F4",
          "midi": 65,
          "time": 430.57291666666686,
          "velocity": 0.7559055118110236,
          "duration": 0.20833333333331439
        },
        {
          "name": "D4",
          "midi": 62,
          "time": 430.72916666666686,
          "velocity": 0.8740157480314961,
          "duration": 0.3020833333333144
        },
        {
          "name": "G4",
          "midi": 67,
          "time": 430.99479166666686,
          "velocity": 0.7637795275590551,
          "duration": 0.19791666666662877
        },
        {
          "name": "F4",
          "midi": 65,
          "time": 431.10937500000017,
          "velocity": 0.7874015748031497,
          "duration": 0.1875
        },
        {
          "name": "D4",
          "midi": 62,
          "time": 431.21875000000017,
          "velocity": 0.7874015748031497,
          "duration": 0.30208333333337123
        },
        {
          "name": "G4",
          "midi": 67,
          "time": 431.47916666666686,
          "velocity": 0.7795275590551181,
          "duration": 0.19270833333331439
        },
        {
          "name": "F4",
          "midi": 65,
          "time": 431.58854166666686,
          "velocity": 0.8110236220472441,
          "duration": 0.19270833333331439
        },
        {
          "name": "D4",
          "midi": 62,
          "time": 431.7239583333335,
          "velocity": 0.8110236220472441,
          "duration": 0.2916666666666856
        },
        {
          "name": "G4",
          "midi": 67,
          "time": 431.96875000000017,
          "velocity": 0.7874015748031497,
          "duration": 0.23958333333331439
        },
        {
          "name": "F4",
          "midi": 65,
          "time": 432.09375000000017,
          "velocity": 0.7322834645669292,
          "duration": 0.19791666666662877
        },
        {
          "name": "D4",
          "midi": 62,
          "time": 432.2239583333335,
          "velocity": 0.8267716535433071,
          "duration": 0.2864583333333144
        },
        {
          "name": "G4",
          "midi": 67,
          "time": 432.4635416666668,
          "velocity": 0.8031496062992126,
          "duration": 0.20833333333337123
        },
        {
          "name": "F4",
          "midi": 65,
          "time": 432.5833333333335,
          "velocity": 0.7874015748031497,
          "duration": 0.1875
        },
        {
          "name": "D4",
          "midi": 62,
          "time": 432.6927083333335,
          "velocity": 0.8346456692913385,
          "duration": 0.3229166666666856
        },
        {
          "name": "G4",
          "midi": 67,
          "time": 432.96875000000017,
          "velocity": 0.8740157480314961,
          "duration": 0.578125
        },
        {
          "name": "D5",
          "midi": 74,
          "time": 433.7083333333335,
          "velocity": 0.9448818897637795,
          "duration": 0.390625
        },
        {
          "name": "D5",
          "midi": 74,
          "time": 434.23437500000017,
          "velocity": 0.937007874015748,
          "duration": 0.16666666666668561
        },
        {
          "name": "D5",
          "midi": 74,
          "time": 434.53125000000017,
          "velocity": 0.8503937007874016,
          "duration": 0.07291666666662877
        },
        {
          "name": "C5",
          "midi": 72,
          "time": 434.53125000000017,
          "velocity": 0.8503937007874016,
          "duration": 0.06770833333331439
        },
        {
          "name": "D5",
          "midi": 74,
          "time": 434.7708333333335,
          "velocity": 0.905511811023622,
          "duration": 0.125
        },
        {
          "name": "D5",
          "midi": 74,
          "time": 435.0260416666668,
          "velocity": 0.8818897637795275,
          "duration": 0.125
        },
        {
          "name": "D5",
          "midi": 74,
          "time": 435.2604166666668,
          "velocity": 0.8582677165354331,
          "duration": 0.125
        },
        {
          "name": "D5",
          "midi": 74,
          "time": 435.5208333333335,
          "velocity": 0.8976377952755905,
          "duration": 0.10416666666668561
        },
        {
          "name": "D5",
          "midi": 74,
          "time": 435.7395833333335,
          "velocity": 0.8976377952755905,
          "duration": 0.109375
        },
        {
          "name": "D5",
          "midi": 74,
          "time": 435.9947916666668,
          "velocity": 0.905511811023622,
          "duration": 0.11458333333331439
        },
        {
          "name": "C#5",
          "midi": 73,
          "time": 436.2239583333334,
          "velocity": 0.8976377952755905,
          "duration": 0.15625
        },
        {
          "name": "C5",
          "midi": 72,
          "time": 436.4895833333334,
          "velocity": 0.8818897637795275,
          "duration": 0.140625
        },
        {
          "name": "B4",
          "midi": 71,
          "time": 436.7395833333334,
          "velocity": 0.8267716535433071,
          "duration": 0.14583333333331439
        },
        {
          "name": "A#4",
          "midi": 70,
          "time": 437.0052083333334,
          "velocity": 0.9212598425196851,
          "duration": 0.140625
        },
        {
          "name": "A4",
          "midi": 69,
          "time": 437.2395833333334,
          "velocity": 0.8110236220472441,
          "duration": 0.14583333333331439
        },
        {
          "name": "G4",
          "midi": 67,
          "time": 437.5052083333334,
          "velocity": 0.8976377952755905,
          "duration": 0.15625
        },
        {
          "name": "G4",
          "midi": 67,
          "time": 437.72916666666674,
          "velocity": 0.8582677165354331,
          "duration": 0.13541666666668561
        },
        {
          "name": "G4",
          "midi": 67,
          "time": 437.9843750000001,
          "velocity": 0.8582677165354331,
          "duration": 0.18229166666668561
        },
        {
          "name": "G4",
          "midi": 67,
          "time": 438.2239583333335,
          "velocity": 0.8031496062992126,
          "duration": 0.1875
        },
        {
          "name": "G4",
          "midi": 67,
          "time": 438.4947916666668,
          "velocity": 0.8818897637795275,
          "duration": 0.4322916666666856
        },
        {
          "name": "G4",
          "midi": 67,
          "time": 439.0052083333335,
          "velocity": 0.8818897637795275,
          "duration": 0.3802083333333144
        },
        {
          "name": "G4",
          "midi": 67,
          "time": 439.4791666666668,
          "velocity": 0.8346456692913385,
          "duration": 0.171875
        },
        {
          "name": "F4",
          "midi": 65,
          "time": 439.6145833333335,
          "velocity": 0.7795275590551181,
          "duration": 0.16145833333331439
        },
        {
          "name": "D4",
          "midi": 62,
          "time": 439.7395833333335,
          "velocity": 0.8740157480314961,
          "duration": 0.265625
        },
        {
          "name": "F4",
          "midi": 65,
          "time": 439.9739583333335,
          "velocity": 0.8740157480314961,
          "duration": 0.2760416666666856
        },
        {
          "name": "G4",
          "midi": 67,
          "time": 440.2083333333335,
          "velocity": 0.8582677165354331,
          "duration": 0.2864583333333144
        },
        {
          "name": "F4",
          "midi": 65,
          "time": 440.4583333333335,
          "velocity": 0.9448818897637795,
          "duration": 0.2552083333333144
        },
        {
          "name": "D4",
          "midi": 62,
          "time": 440.6770833333335,
          "velocity": 0.905511811023622,
          "duration": 0.3020833333333144
        },
        {
          "name": "G4",
          "midi": 67,
          "time": 440.9583333333335,
          "velocity": 0.8818897637795275,
          "duration": 0.5729166666666856
        },
        {
          "name": "F4",
          "midi": 65,
          "time": 441.4895833333335,
          "velocity": 0.7874015748031497,
          "duration": 0.265625
        },
        {
          "name": "D4",
          "midi": 62,
          "time": 441.71875000000017,
          "velocity": 0.8976377952755905,
          "duration": 0.21875
        },
        {
          "name": "G4",
          "midi": 67,
          "time": 441.94791666666686,
          "velocity": 0.7874015748031497,
          "duration": 0.19270833333331439
        },
        {
          "name": "G4",
          "midi": 67,
          "time": 442.2239583333335,
          "velocity": 0.8031496062992126,
          "duration": 0.5520833333333712
        },
        {
          "name": "A#4",
          "midi": 70,
          "time": 442.73437500000017,
          "velocity": 0.84251968503937,
          "duration": 0.13020833333337123
        },
        {
          "name": "G4",
          "midi": 67,
          "time": 442.97395833333354,
          "velocity": 0.7874015748031497,
          "duration": 0.5572916666666288
        },
        {
          "name": "A#4",
          "midi": 70,
          "time": 443.49479166666686,
          "velocity": 0.8110236220472441,
          "duration": 0.125
        },
        {
          "name": "G4",
          "midi": 67,
          "time": 443.71354166666686,
          "velocity": 0.8346456692913385,
          "duration": 0.75
        },
        {
          "name": "E4",
          "midi": 64,
          "time": 444.52083333333354,
          "velocity": 0.8740157480314961,
          "duration": 0.4375
        },
        {
          "name": "E4",
          "midi": 64,
          "time": 445.02604166666686,
          "velocity": 0.8582677165354331,
          "duration": 0.5
        },
        {
          "name": "F4",
          "midi": 65,
          "time": 445.50000000000017,
          "velocity": 0.9212598425196851,
          "duration": 0.22395833333337123
        },
        {
          "name": "F#4",
          "midi": 66,
          "time": 445.7968750000002,
          "velocity": 0.9606299212598425,
          "duration": 0.125
        },
        {
          "name": "G4",
          "midi": 67,
          "time": 445.98958333333354,
          "velocity": 0.7795275590551181,
          "duration": 0.16666666666662877
        },
        {
          "name": "A4",
          "midi": 69,
          "time": 445.98958333333354,
          "velocity": 0.8110236220472441,
          "duration": 0.08333333333331439
        },
        {
          "name": "G4",
          "midi": 67,
          "time": 446.20312500000017,
          "velocity": 0.7086614173228346,
          "duration": 0.140625
        },
        {
          "name": "G4",
          "midi": 67,
          "time": 446.46875000000017,
          "velocity": 0.9212598425196851,
          "duration": 0.4322916666666856
        },
        {
          "name": "G4",
          "midi": 67,
          "time": 446.98958333333354,
          "velocity": 0.7874015748031497,
          "duration": 0.3854166666666856
        },
        {
          "name": "F4",
          "midi": 65,
          "time": 447.3125000000002,
          "velocity": 0.8110236220472441,
          "duration": 0.203125
        },
        {
          "name": "D4",
          "midi": 62,
          "time": 447.5000000000002,
          "velocity": 0.8818897637795275,
          "duration": 0.4791666666666856
        },
        {
          "name": "G4",
          "midi": 67,
          "time": 447.9843750000002,
          "velocity": 0.8346456692913385,
          "duration": 0.21875
        },
        {
          "name": "G4",
          "midi": 67,
          "time": 448.2500000000002,
          "velocity": 0.7795275590551181,
          "duration": 0.17708333333331439
        },
        {
          "name": "G4",
          "midi": 67,
          "time": 448.50520833333354,
          "velocity": 0.7637795275590551,
          "duration": 0.16145833333331439
        },
        {
          "name": "G4",
          "midi": 67,
          "time": 448.74479166666686,
          "velocity": 0.7559055118110236,
          "duration": 0.16145833333331439
        },
        {
          "name": "G4",
          "midi": 67,
          "time": 449.0052083333335,
          "velocity": 0.7401574803149606,
          "duration": 0.2604166666666856
        },
        {
          "name": "F4",
          "midi": 65,
          "time": 449.21875000000017,
          "velocity": 0.7322834645669292,
          "duration": 0.2864583333333144
        },
        {
          "name": "D4",
          "midi": 62,
          "time": 449.46875000000017,
          "velocity": 0.7165354330708661,
          "duration": 0.46875
        },
        {
          "name": "G4",
          "midi": 67,
          "time": 449.99479166666686,
          "velocity": 0.6929133858267716,
          "duration": 0.28125
        },
        {
          "name": "F4",
          "midi": 65,
          "time": 450.22395833333354,
          "velocity": 0.6850393700787402,
          "duration": 0.27604166666662877
        },
        {
          "name": "D4",
          "midi": 62,
          "time": 450.47916666666686,
          "velocity": 0.6692913385826772,
          "duration": 0.23958333333331439
        },
        {
          "name": "G4",
          "midi": 67,
          "time": 450.71354166666686,
          "velocity": 0.6614173228346457,
          "duration": 0.32291666666662877
        },
        {
          "name": "F4",
          "midi": 65,
          "time": 450.9583333333335,
          "velocity": 0.6456692913385826,
          "duration": 0.32291666666662877
        },
        {
          "name": "D4",
          "midi": 62,
          "time": 451.2291666666668,
          "velocity": 0.6299212598425197,
          "duration": 0.30729166666662877
        },
        {
          "name": "G4",
          "midi": 67,
          "time": 451.4895833333334,
          "velocity": 0.6220472440944882,
          "duration": 0.3020833333333144
        },
        {
          "name": "F4",
          "midi": 65,
          "time": 451.7239583333334,
          "velocity": 0.6062992125984252,
          "duration": 0.3020833333333144
        },
        {
          "name": "D4",
          "midi": 62,
          "time": 451.97916666666674,
          "velocity": 0.5984251968503937,
          "duration": 0.29166666666662877
        },
        {
          "name": "G4",
          "midi": 67,
          "time": 452.21875000000006,
          "velocity": 0.5826771653543307,
          "duration": 0.3645833333333144
        },
        {
          "name": "F4",
          "midi": 65,
          "time": 452.46875000000006,
          "velocity": 0.5748031496062992,
          "duration": 0.296875
        },
        {
          "name": "D4",
          "midi": 62,
          "time": 452.70833333333337,
          "velocity": 0.5590551181102362,
          "duration": 0.296875
        },
        {
          "name": "G4",
          "midi": 67,
          "time": 452.96875000000006,
          "velocity": 0.5433070866141733,
          "duration": 0.5208333333333144
        },
        {
          "name": "F4",
          "midi": 65,
          "time": 453.43750000000006,
          "velocity": 0.5275590551181102,
          "duration": 0.30729166666662877
        },
        {
          "name": "D4",
          "midi": 62,
          "time": 453.70833333333337,
          "velocity": 0.5118110236220472,
          "duration": 0.3020833333333144
        },
        {
          "name": "F4",
          "midi": 65,
          "time": 453.953125,
          "velocity": 0.49606299212598426,
          "duration": 0.3125
        },
        {
          "name": "G4",
          "midi": 67,
          "time": 454.2135416666667,
          "velocity": 0.4881889763779528,
          "duration": 0.24479166666662877
        },
        {
          "name": "G4",
          "midi": 67,
          "time": 454.51041666666663,
          "velocity": 0.47244094488188976,
          "duration": 0.234375
        },
        {
          "name": "F4",
          "midi": 65,
          "time": 454.69791666666663,
          "velocity": 0.4645669291338583,
          "duration": 0.2864583333333144
        },
        {
          "name": "G4",
          "midi": 67,
          "time": 454.98958333333326,
          "velocity": 0.44881889763779526,
          "duration": 0.46875
        },
        {
          "name": "G4",
          "midi": 67,
          "time": 455.51562499999994,
          "velocity": 0.4251968503937008,
          "duration": 0.13541666666668561
        },
        {
          "name": "D5",
          "midi": 74,
          "time": 455.74999999999994,
          "velocity": 0.4094488188976378,
          "duration": 0.4375
        },
        {
          "name": "D5",
          "midi": 74,
          "time": 456.24999999999994,
          "velocity": 0.3858267716535433,
          "duration": 0.140625
        },
        {
          "name": "D5",
          "midi": 74,
          "time": 456.50520833333326,
          "velocity": 0.3700787401574803,
          "duration": 0.13541666666668561
        },
        {
          "name": "D5",
          "midi": 74,
          "time": 456.73958333333326,
          "velocity": 0.36220472440944884,
          "duration": 0.13020833333331439
        },
        {
          "name": "D5",
          "midi": 74,
          "time": 456.9947916666666,
          "velocity": 0.3464566929133858,
          "duration": 0.125
        },
        {
          "name": "C#5",
          "midi": 73,
          "time": 457.2291666666666,
          "velocity": 0.33858267716535434,
          "duration": 0.11979166666668561
        },
        {
          "name": "C5",
          "midi": 72,
          "time": 457.45833333333326,
          "velocity": 0.3228346456692913,
          "duration": 0.40625
        },
        {
          "name": "A4",
          "midi": 69,
          "time": 457.9635416666666,
          "velocity": 0.2992125984251969,
          "duration": 0.24479166666668561
        },
        {
          "name": "G4",
          "midi": 67,
          "time": 458.27083333333326,
          "velocity": 0.28346456692913385,
          "duration": 0.09375
        },
        {
          "name": "A4",
          "midi": 69,
          "time": 458.27083333333326,
          "velocity": 0.28346456692913385,
          "duration": 0.06770833333331439
        },
        {
          "name": "G4",
          "midi": 67,
          "time": 458.4479166666666,
          "velocity": 0.2755905511811024,
          "duration": 0.4895833333333144
        },
        {
          "name": "G4",
          "midi": 67,
          "time": 459.0104166666666,
          "velocity": 0.25196850393700787,
          "duration": 0.4114583333333144
        },
        {
          "name": "G4",
          "midi": 67,
          "time": 459.4791666666666,
          "velocity": 0.2283464566929134,
          "duration": 0.15625
        },
        {
          "name": "E4",
          "midi": 64,
          "time": 459.59895833333326,
          "velocity": 0.2204724409448819,
          "duration": 0.14583333333331439
        },
        {
          "name": "C4",
          "midi": 60,
          "time": 459.7447916666666,
          "velocity": 0.2125984251968504,
          "duration": 0.046875
        },
        {
          "name": "G4",
          "midi": 67,
          "time": 459.8229166666666,
          "velocity": 0.2125984251968504,
          "duration": 0.05729166666662877
        },
        {
          "name": "A4",
          "midi": 69,
          "time": 459.8385416666666,
          "velocity": 0.2047244094488189,
          "duration": 0.02604166666662877
        },
        {
          "name": "E4",
          "midi": 64,
          "time": 459.8385416666666,
          "velocity": 0.2047244094488189,
          "duration": 0.020833333333314386
        },
        {
          "name": "G4",
          "midi": 67,
          "time": 459.9999999999999,
          "velocity": 0.1968503937007874,
          "duration": 0.2864583333333144
        },
        {
          "name": "E4",
          "midi": 64,
          "time": 460.2499999999999,
          "velocity": 0.1889763779527559,
          "duration": 0.46875
        },
        {
          "name": "G4",
          "midi": 67,
          "time": 460.7499999999999,
          "velocity": 0.16535433070866143,
          "duration": 0.15104166666668561
        },
        {
          "name": "G4",
          "midi": 67,
          "time": 460.98958333333326,
          "velocity": 0.14960629921259844,
          "duration": 0.4322916666666856
        },
        {
          "name": "G4",
          "midi": 67,
          "time": 461.47395833333326,
          "velocity": 0.12598425196850394,
          "duration": 0.13541666666668561
        },
        {
          "name": "F4",
          "midi": 65,
          "time": 461.57812499999994,
          "velocity": 0.12598425196850394,
          "duration": 0.15104166666668561
        },
        {
          "name": "D4",
          "midi": 62,
          "time": 461.72916666666663,
          "velocity": 0.11811023622047244,
          "duration": 0.2708333333333144
        },
        {
          "name": "F4",
          "midi": 65,
          "time": 461.98437499999994,
          "velocity": 0.10236220472440945,
          "duration": 0.015625
        }
      ],
      "controlChanges": {
        "32": [
          {
            "number": 32,
            "time": 0,
            "value": 0
          }
        ]
      },
      "id": 10,
      "instrumentNumber": 32,
      "instrument": "jazz kit",
      "instrumentFamily": "drums",
      "channelNumber": 10,
      "isPercussion": true
    }
  ]
}