{
  "header": {
    "PPQ": 384,
    "bpm": 112.00089600716805,
    "timeSignature": [
      4,
      4
    ],
    "name": "GMReset"
  },
  "startTime": 0,
  "duration": 201.29303249999953,
  "tracks": [
    {
      "startTime": 0,
      "duration": 0,
      "length": 0,
      "notes": [],
      "controlChanges": {},
      "id": 0
    },
    {
      "startTime": 10.714200000000002,
      "duration": 200.7573224999993,
      "length": 477,
      "notes": [
        {
          "name": "D2",
          "midi": 38,
          "time": 10.714200000000002,
          "velocity": 1,
          "duration": 1.8749850000000006
        },
        {
          "name": "A1",
          "midi": 33,
          "time": 12.589185000000002,
          "velocity": 1,
          "duration": 0.26785500000000084
        },
        {
          "name": "C2",
          "midi": 36,
          "time": 12.857040000000003,
          "velocity": 1,
          "duration": 0.8035650000000008
        },
        {
          "name": "B1",
          "midi": 35,
          "time": 13.660605000000004,
          "velocity": 1,
          "duration": 0.8035650000000008
        },
        {
          "name": "G1",
          "midi": 31,
          "time": 14.464170000000005,
          "velocity": 1,
          "duration": 0.5357099999999999
        },
        {
          "name": "D2",
          "midi": 38,
          "time": 14.999880000000005,
          "velocity": 1,
          "duration": 1.8749849999999988
        },
        {
          "name": "A1",
          "midi": 33,
          "time": 16.874865000000003,
          "velocity": 1,
          "duration": 0.26785500000000084
        },
        {
          "name": "C2",
          "midi": 36,
          "time": 17.142720000000004,
          "velocity": 1,
          "duration": 0.803564999999999
        },
        {
          "name": "B1",
          "midi": 35,
          "time": 17.946285000000003,
          "velocity": 1,
          "duration": 0.803564999999999
        },
        {
          "name": "G1",
          "midi": 31,
          "time": 18.749850000000002,
          "velocity": 1,
          "duration": 0.5357100000000017
        },
        {
          "name": "D2",
          "midi": 38,
          "time": 19.285560000000004,
          "velocity": 1,
          "duration": 1.3392750000000007
        },
        {
          "name": "A1",
          "midi": 33,
          "time": 20.624835000000004,
          "velocity": 1,
          "duration": 0.26785500000000084
        },
        {
          "name": "D2",
          "midi": 38,
          "time": 20.892690000000005,
          "velocity": 1,
          "duration": 0.13392749999999864
        },
        {
          "name": "A1",
          "midi": 33,
          "time": 21.026617500000004,
          "velocity": 1,
          "duration": 0.13392749999999864
        },
        {
          "name": "D2",
          "midi": 38,
          "time": 21.160545000000003,
          "velocity": 1,
          "duration": 0.26785500000000084
        },
        {
          "name": "C2",
          "midi": 36,
          "time": 21.428400000000003,
          "velocity": 1,
          "duration": 0.803564999999999
        },
        {
          "name": "B1",
          "midi": 35,
          "time": 22.231965000000002,
          "velocity": 1,
          "duration": 0.803564999999999
        },
        {
          "name": "G1",
          "midi": 31,
          "time": 23.03553,
          "velocity": 1,
          "duration": 0.5357100000000017
        },
        {
          "name": "D2",
          "midi": 38,
          "time": 23.571240000000003,
          "velocity": 1,
          "duration": 1.3392750000000007
        },
        {
          "name": "D2",
          "midi": 38,
          "time": 24.910515000000004,
          "velocity": 1,
          "duration": 0.26785500000000084
        },
        {
          "name": "A2",
          "midi": 45,
          "time": 25.178370000000005,
          "velocity": 1,
          "duration": 0.13392749999999864
        },
        {
          "name": "D2",
          "midi": 38,
          "time": 25.312297500000003,
          "velocity": 1,
          "duration": 0.13392749999999864
        },
        {
          "name": "A1",
          "midi": 33,
          "time": 25.446225000000002,
          "velocity": 1,
          "duration": 0.26785500000000084
        },
        {
          "name": "C2",
          "midi": 36,
          "time": 25.714080000000003,
          "velocity": 1,
          "duration": 0.803564999999999
        },
        {
          "name": "B1",
          "midi": 35,
          "time": 26.517645,
          "velocity": 1,
          "duration": 0.803564999999999
        },
        {
          "name": "G1",
          "midi": 31,
          "time": 27.32121,
          "velocity": 1,
          "duration": 0.5357100000000017
        },
        {
          "name": "D2",
          "midi": 38,
          "time": 27.856920000000002,
          "velocity": 1,
          "duration": 1.3392750000000007
        },
        {
          "name": "D2",
          "midi": 38,
          "time": 29.196195000000003,
          "velocity": 1,
          "duration": 0.26785500000000084
        },
        {
          "name": "D2",
          "midi": 38,
          "time": 29.464050000000004,
          "velocity": 1,
          "duration": 0.13392749999999864
        },
        {
          "name": "E2",
          "midi": 40,
          "time": 29.597977500000002,
          "velocity": 1,
          "duration": 0.13392749999999864
        },
        {
          "name": "D2",
          "midi": 38,
          "time": 29.731905,
          "velocity": 1,
          "duration": 0.26785500000000084
        },
        {
          "name": "C2",
          "midi": 36,
          "time": 29.999760000000002,
          "velocity": 1,
          "duration": 0.803564999999999
        },
        {
          "name": "B1",
          "midi": 35,
          "time": 30.803325,
          "velocity": 1,
          "duration": 0.803564999999999
        },
        {
          "name": "G1",
          "midi": 31,
          "time": 31.60689,
          "velocity": 1,
          "duration": 0.5357100000000017
        },
        {
          "name": "D2",
          "midi": 38,
          "time": 32.1426,
          "velocity": 1,
          "duration": 1.3392750000000007
        },
        {
          "name": "A1",
          "midi": 33,
          "time": 33.481875,
          "velocity": 1,
          "duration": 0.2678549999999973
        },
        {
          "name": "D2",
          "midi": 38,
          "time": 33.74973,
          "velocity": 1,
          "duration": 0.13392749999999864
        },
        {
          "name": "A1",
          "midi": 33,
          "time": 33.8836575,
          "velocity": 1,
          "duration": 0.13392749999999864
        },
        {
          "name": "D2",
          "midi": 38,
          "time": 34.017585,
          "velocity": 1,
          "duration": 0.2678549999999973
        },
        {
          "name": "C2",
          "midi": 36,
          "time": 34.285439999999994,
          "velocity": 1,
          "duration": 2.1428399999999996
        },
        {
          "name": "B1",
          "midi": 35,
          "time": 36.428279999999994,
          "velocity": 1,
          "duration": 2.1428399999999996
        },
        {
          "name": "A2",
          "midi": 45,
          "time": 38.57111999999999,
          "velocity": 1,
          "duration": 0.5357100000000017
        },
        {
          "name": "A2",
          "midi": 45,
          "time": 39.106829999999995,
          "velocity": 1,
          "duration": 0.13392749999999864
        },
        {
          "name": "G2",
          "midi": 43,
          "time": 39.240757499999994,
          "velocity": 1,
          "duration": 0.13392749999999864
        },
        {
          "name": "E2",
          "midi": 40,
          "time": 39.37468499999999,
          "velocity": 1,
          "duration": 0.2678549999999973
        },
        {
          "name": "G2",
          "midi": 43,
          "time": 39.64253999999999,
          "velocity": 1,
          "duration": 0.5357100000000017
        },
        {
          "name": "A2",
          "midi": 45,
          "time": 40.17824999999999,
          "velocity": 1,
          "duration": 0.13392749999999864
        },
        {
          "name": "G2",
          "midi": 43,
          "time": 40.31217749999999,
          "velocity": 1,
          "duration": 0.13392749999999864
        },
        {
          "name": "E2",
          "midi": 40,
          "time": 40.44610499999999,
          "velocity": 1,
          "duration": 0.2678549999999973
        },
        {
          "name": "D2",
          "midi": 38,
          "time": 40.713959999999986,
          "velocity": 1,
          "duration": 0.803564999999999
        },
        {
          "name": "D2",
          "midi": 38,
          "time": 41.517524999999985,
          "velocity": 1,
          "duration": 0.40178249999999593
        },
        {
          "name": "A2",
          "midi": 45,
          "time": 41.78537999999998,
          "velocity": 0.9448818897637795,
          "duration": 0.2678549999999973
        },
        {
          "name": "D2",
          "midi": 38,
          "time": 42.05323499999998,
          "velocity": 1,
          "duration": 0.40178249999999593
        },
        {
          "name": "A2",
          "midi": 45,
          "time": 42.32108999999998,
          "velocity": 0.9606299212598425,
          "duration": 0.2678549999999973
        },
        {
          "name": "A1",
          "midi": 33,
          "time": 42.588944999999974,
          "velocity": 1,
          "duration": 0.2678549999999973
        },
        {
          "name": "G1",
          "midi": 31,
          "time": 42.85679999999997,
          "velocity": 1,
          "duration": 0.5357100000000017
        },
        {
          "name": "G1",
          "midi": 31,
          "time": 43.39250999999997,
          "velocity": 1,
          "duration": 0.2678549999999973
        },
        {
          "name": "G1",
          "midi": 31,
          "time": 43.66036499999997,
          "velocity": 1,
          "duration": 0.2678550000000044
        },
        {
          "name": "C2",
          "midi": 36,
          "time": 43.91705937499997,
          "velocity": 1,
          "duration": 0.07533421875000101
        },
        {
          "name": "C2",
          "midi": 36,
          "time": 44.19607499999997,
          "velocity": 1,
          "duration": 0.13392749999999864
        },
        {
          "name": "C2",
          "midi": 36,
          "time": 44.46392999999997,
          "velocity": 1,
          "duration": 0.40178250000000304
        },
        {
          "name": "E2",
          "midi": 40,
          "time": 44.99963999999997,
          "velocity": 1,
          "duration": 0.2678549999999973
        },
        {
          "name": "B1",
          "midi": 35,
          "time": 45.40142249999997,
          "velocity": 0.968503937007874,
          "duration": 0.13392749999999864
        },
        {
          "name": "E2",
          "midi": 40,
          "time": 45.535349999999966,
          "velocity": 1,
          "duration": 0.13392749999999864
        },
        {
          "name": "E2",
          "midi": 40,
          "time": 45.80320499999996,
          "velocity": 1,
          "duration": 0.2678549999999973
        },
        {
          "name": "C2",
          "midi": 36,
          "time": 46.20498749999996,
          "velocity": 1,
          "duration": 0.13392749999999864
        },
        {
          "name": "D2",
          "midi": 38,
          "time": 46.33891499999996,
          "velocity": 1,
          "duration": 0.13392749999999864
        },
        {
          "name": "D2",
          "midi": 38,
          "time": 46.472842499999956,
          "velocity": 1,
          "duration": 0.13392749999999864
        },
        {
          "name": "D2",
          "midi": 38,
          "time": 46.606769999999955,
          "velocity": 1,
          "duration": 0.2678549999999973
        },
        {
          "name": "C2",
          "midi": 36,
          "time": 46.89694624999995,
          "velocity": 1,
          "duration": 0.2678549999999973
        },
        {
          "name": "G1",
          "midi": 31,
          "time": 47.14247999999995,
          "velocity": 1,
          "duration": 0.5357099999999946
        },
        {
          "name": "G1",
          "midi": 31,
          "time": 47.678189999999944,
          "velocity": 1,
          "duration": 0.2678549999999973
        },
        {
          "name": "G1",
          "midi": 31,
          "time": 47.94604499999994,
          "velocity": 1,
          "duration": 0.2678550000000044
        },
        {
          "name": "C2",
          "midi": 36,
          "time": 48.20273937499994,
          "velocity": 1,
          "duration": 0.07533421875000101
        },
        {
          "name": "C2",
          "midi": 36,
          "time": 48.48175499999994,
          "velocity": 1,
          "duration": 0.13392749999999864
        },
        {
          "name": "C2",
          "midi": 36,
          "time": 48.74960999999994,
          "velocity": 1,
          "duration": 0.40178250000000304
        },
        {
          "name": "E2",
          "midi": 40,
          "time": 49.28531999999994,
          "velocity": 1,
          "duration": 0.2678549999999973
        },
        {
          "name": "B1",
          "midi": 35,
          "time": 49.68710249999994,
          "velocity": 0.968503937007874,
          "duration": 0.13392749999999864
        },
        {
          "name": "E2",
          "midi": 40,
          "time": 49.821029999999936,
          "velocity": 1,
          "duration": 0.13392749999999864
        },
        {
          "name": "E2",
          "midi": 40,
          "time": 50.088884999999934,
          "velocity": 1,
          "duration": 0.2678549999999973
        },
        {
          "name": "C2",
          "midi": 36,
          "time": 50.49066749999993,
          "velocity": 1,
          "duration": 0.13392749999999864
        },
        {
          "name": "D2",
          "midi": 38,
          "time": 50.62459499999993,
          "velocity": 1,
          "duration": 0.13392749999999864
        },
        {
          "name": "D2",
          "midi": 38,
          "time": 50.75852249999993,
          "velocity": 1,
          "duration": 0.13392749999999864
        },
        {
          "name": "D2",
          "midi": 38,
          "time": 50.892449999999926,
          "velocity": 1,
          "duration": 0.2678549999999973
        },
        {
          "name": "C2",
          "midi": 36,
          "time": 51.16030499999992,
          "velocity": 1,
          "duration": 0.2678549999999973
        },
        {
          "name": "G1",
          "midi": 31,
          "time": 51.42815999999992,
          "velocity": 1,
          "duration": 0.5357100000000017
        },
        {
          "name": "G1",
          "midi": 31,
          "time": 51.96386999999992,
          "velocity": 1,
          "duration": 0.2678549999999973
        },
        {
          "name": "G1",
          "midi": 31,
          "time": 52.23172499999992,
          "velocity": 1,
          "duration": 0.2678550000000044
        },
        {
          "name": "C2",
          "midi": 36,
          "time": 52.48841937499992,
          "velocity": 1,
          "duration": 0.07533421875000101
        },
        {
          "name": "C2",
          "midi": 36,
          "time": 52.76743499999992,
          "velocity": 1,
          "duration": 0.13392749999999864
        },
        {
          "name": "C2",
          "midi": 36,
          "time": 53.03528999999992,
          "velocity": 1,
          "duration": 0.40178250000000304
        },
        {
          "name": "E2",
          "midi": 40,
          "time": 53.57099999999992,
          "velocity": 1,
          "duration": 0.2678549999999973
        },
        {
          "name": "B1",
          "midi": 35,
          "time": 53.972782499999916,
          "velocity": 0.968503937007874,
          "duration": 0.13392749999999864
        },
        {
          "name": "E2",
          "midi": 40,
          "time": 54.106709999999914,
          "velocity": 1,
          "duration": 0.13392749999999864
        },
        {
          "name": "E2",
          "midi": 40,
          "time": 54.37456499999991,
          "velocity": 1,
          "duration": 0.2678549999999973
        },
        {
          "name": "C2",
          "midi": 36,
          "time": 54.77634749999991,
          "velocity": 1,
          "duration": 0.13392749999999864
        },
        {
          "name": "D2",
          "midi": 38,
          "time": 54.910274999999906,
          "velocity": 1,
          "duration": 0.13392749999999864
        },
        {
          "name": "D2",
          "midi": 38,
          "time": 55.044202499999905,
          "velocity": 1,
          "duration": 0.13392749999999864
        },
        {
          "name": "D2",
          "midi": 38,
          "time": 55.1781299999999,
          "velocity": 1,
          "duration": 0.2678549999999973
        },
        {
          "name": "F1",
          "midi": 29,
          "time": 55.4459849999999,
          "velocity": 1,
          "duration": 0.2678549999999973
        },
        {
          "name": "G1",
          "midi": 31,
          "time": 55.7138399999999,
          "velocity": 1,
          "duration": 0.5357100000000017
        },
        {
          "name": "G1",
          "midi": 31,
          "time": 56.2495499999999,
          "velocity": 1,
          "duration": 0.2678549999999973
        },
        {
          "name": "G1",
          "midi": 31,
          "time": 56.5174049999999,
          "velocity": 1,
          "duration": 0.2678550000000044
        },
        {
          "name": "C2",
          "midi": 36,
          "time": 56.7740993749999,
          "velocity": 1,
          "duration": 0.07533421875000101
        },
        {
          "name": "C2",
          "midi": 36,
          "time": 57.0531149999999,
          "velocity": 1,
          "duration": 0.13392749999999864
        },
        {
          "name": "C2",
          "midi": 36,
          "time": 57.320969999999896,
          "velocity": 1,
          "duration": 0.40178250000000304
        },
        {
          "name": "E2",
          "midi": 40,
          "time": 57.8566799999999,
          "velocity": 1,
          "duration": 0.2678549999999973
        },
        {
          "name": "B1",
          "midi": 35,
          "time": 58.258462499999894,
          "velocity": 0.968503937007874,
          "duration": 0.13392749999999864
        },
        {
          "name": "E2",
          "midi": 40,
          "time": 58.39238999999989,
          "velocity": 1,
          "duration": 0.13392749999999864
        },
        {
          "name": "E2",
          "midi": 40,
          "time": 58.66024499999989,
          "velocity": 1,
          "duration": 0.2678549999999973
        },
        {
          "name": "C2",
          "midi": 36,
          "time": 59.062027499999886,
          "velocity": 1,
          "duration": 0.13392749999999864
        },
        {
          "name": "D2",
          "midi": 38,
          "time": 59.195954999999884,
          "velocity": 1,
          "duration": 0.13392749999999864
        },
        {
          "name": "D2",
          "midi": 38,
          "time": 59.32988249999988,
          "velocity": 1,
          "duration": 0.13392749999999864
        },
        {
          "name": "D2",
          "midi": 38,
          "time": 59.46380999999988,
          "velocity": 1,
          "duration": 0.2678549999999973
        },
        {
          "name": "F1",
          "midi": 29,
          "time": 59.73166499999988,
          "velocity": 1,
          "duration": 0.2678549999999973
        },
        {
          "name": "G1",
          "midi": 31,
          "time": 59.999519999999876,
          "velocity": 1,
          "duration": 0.5357100000000017
        },
        {
          "name": "G1",
          "midi": 31,
          "time": 60.53522999999988,
          "velocity": 1,
          "duration": 0.2678549999999973
        },
        {
          "name": "G1",
          "midi": 31,
          "time": 60.803084999999875,
          "velocity": 1,
          "duration": 0.2678550000000044
        },
        {
          "name": "C2",
          "midi": 36,
          "time": 61.05977937499988,
          "velocity": 1,
          "duration": 0.07533421875000101
        },
        {
          "name": "C2",
          "midi": 36,
          "time": 61.33879499999988,
          "velocity": 1,
          "duration": 0.13392749999999864
        },
        {
          "name": "C2",
          "midi": 36,
          "time": 61.606649999999874,
          "velocity": 1,
          "duration": 0.40178250000000304
        },
        {
          "name": "E2",
          "midi": 40,
          "time": 62.142359999999876,
          "velocity": 1,
          "duration": 0.2678549999999973
        },
        {
          "name": "B1",
          "midi": 35,
          "time": 62.54414249999987,
          "velocity": 0.968503937007874,
          "duration": 0.13392749999999864
        },
        {
          "name": "E2",
          "midi": 40,
          "time": 62.67806999999987,
          "velocity": 1,
          "duration": 0.13392749999999864
        },
        {
          "name": "E2",
          "midi": 40,
          "time": 62.94592499999987,
          "velocity": 1,
          "duration": 0.2678549999999973
        },
        {
          "name": "C2",
          "midi": 36,
          "time": 63.34770749999986,
          "velocity": 1,
          "duration": 0.13392749999999864
        },
        {
          "name": "D2",
          "midi": 38,
          "time": 63.48163499999986,
          "velocity": 1,
          "duration": 0.13392749999999864
        },
        {
          "name": "D2",
          "midi": 38,
          "time": 63.61556249999986,
          "velocity": 1,
          "duration": 0.13392749999999864
        },
        {
          "name": "D2",
          "midi": 38,
          "time": 63.74948999999986,
          "velocity": 1,
          "duration": 0.2678550000000044
        },
        {
          "name": "F1",
          "midi": 29,
          "time": 64.01734499999986,
          "velocity": 1,
          "duration": 0.2678549999999973
        },
        {
          "name": "G1",
          "midi": 31,
          "time": 64.28519999999986,
          "velocity": 1,
          "duration": 0.5357099999999946
        },
        {
          "name": "G1",
          "midi": 31,
          "time": 64.82090999999986,
          "velocity": 1,
          "duration": 0.2678549999999973
        },
        {
          "name": "G1",
          "midi": 31,
          "time": 65.08876499999985,
          "velocity": 1,
          "duration": 0.2678549999999973
        },
        {
          "name": "C2",
          "midi": 36,
          "time": 65.34545937499985,
          "velocity": 1,
          "duration": 0.07533421875000101
        },
        {
          "name": "C2",
          "midi": 36,
          "time": 65.62447499999985,
          "velocity": 1,
          "duration": 0.13392749999999864
        },
        {
          "name": "C2",
          "midi": 36,
          "time": 65.89232999999984,
          "velocity": 1,
          "duration": 0.40178249999999593
        },
        {
          "name": "D#2",
          "midi": 39,
          "time": 66.42803999999984,
          "velocity": 1,
          "duration": 2.1428400000000067
        },
        {
          "name": "E1",
          "midi": 28,
          "time": 68.57087999999985,
          "velocity": 0.9448818897637795,
          "duration": 0.5357099999999946
        },
        {
          "name": "E2",
          "midi": 40,
          "time": 69.10658999999984,
          "velocity": 0.9448818897637795,
          "duration": 0.40178249999999593
        },
        {
          "name": "E2",
          "midi": 40,
          "time": 69.50837249999984,
          "velocity": 0.9448818897637795,
          "duration": 0.13392749999999864
        },
        {
          "name": "F#2",
          "midi": 42,
          "time": 69.64229999999984,
          "velocity": 0.9606299212598425,
          "duration": 0.2678549999999973
        },
        {
          "name": "E2",
          "midi": 40,
          "time": 69.91015499999983,
          "velocity": 0.9606299212598425,
          "duration": 0.2678549999999973
        },
        {
          "name": "F#2",
          "midi": 42,
          "time": 70.17800999999983,
          "velocity": 0.9763779527559056,
          "duration": 0.2678549999999973
        },
        {
          "name": "E2",
          "midi": 40,
          "time": 70.44586499999983,
          "velocity": 0.984251968503937,
          "duration": 0.2678549999999973
        },
        {
          "name": "A1",
          "midi": 33,
          "time": 70.71371999999982,
          "velocity": 1,
          "duration": 0.2678549999999973
        },
        {
          "name": "A2",
          "midi": 45,
          "time": 70.98157499999982,
          "velocity": 1,
          "duration": 0.5357099999999946
        },
        {
          "name": "B2",
          "midi": 47,
          "time": 71.51728499999982,
          "velocity": 1,
          "duration": 0.5357099999999946
        },
        {
          "name": "F#2",
          "midi": 42,
          "time": 72.05299499999981,
          "velocity": 1,
          "duration": 0.2678549999999973
        },
        {
          "name": "A2",
          "midi": 45,
          "time": 72.32084999999981,
          "velocity": 1,
          "duration": 0.13392749999999864
        },
        {
          "name": "F#2",
          "midi": 42,
          "time": 72.4547774999998,
          "velocity": 1,
          "duration": 0.13392749999999864
        },
        {
          "name": "A2",
          "midi": 45,
          "time": 72.5887049999998,
          "velocity": 1,
          "duration": 0.2678549999999973
        },
        {
          "name": "B2",
          "midi": 47,
          "time": 72.8565599999998,
          "velocity": 1,
          "duration": 0.2678549999999973
        },
        {
          "name": "B2",
          "midi": 47,
          "time": 73.1244149999998,
          "velocity": 1,
          "duration": 0.2678549999999973
        },
        {
          "name": "B2",
          "midi": 47,
          "time": 73.3922699999998,
          "velocity": 1,
          "duration": 0.2678549999999973
        },
        {
          "name": "B2",
          "midi": 47,
          "time": 73.6601249999998,
          "velocity": 1,
          "duration": 0.2678549999999973
        },
        {
          "name": "A2",
          "midi": 45,
          "time": 73.92797999999979,
          "velocity": 1,
          "duration": 0.2678549999999973
        },
        {
          "name": "A2",
          "midi": 45,
          "time": 74.19583499999979,
          "velocity": 1,
          "duration": 0.2678549999999973
        },
        {
          "name": "A2",
          "midi": 45,
          "time": 74.46368999999979,
          "velocity": 1,
          "duration": 0.2678549999999973
        },
        {
          "name": "A2",
          "midi": 45,
          "time": 74.73154499999978,
          "velocity": 1,
          "duration": 0.2678549999999973
        },
        {
          "name": "G2",
          "midi": 43,
          "time": 74.99939999999978,
          "velocity": 1,
          "duration": 0.2678549999999973
        },
        {
          "name": "G2",
          "midi": 43,
          "time": 75.26725499999978,
          "velocity": 1,
          "duration": 0.2678549999999973
        },
        {
          "name": "G2",
          "midi": 43,
          "time": 75.53510999999978,
          "velocity": 1,
          "duration": 0.2678549999999973
        },
        {
          "name": "G2",
          "midi": 43,
          "time": 75.80296499999977,
          "velocity": 1,
          "duration": 0.2678549999999973
        },
        {
          "name": "F#2",
          "midi": 42,
          "time": 76.07081999999977,
          "velocity": 1,
          "duration": 0.2678549999999973
        },
        {
          "name": "F#2",
          "midi": 42,
          "time": 76.33867499999977,
          "velocity": 1,
          "duration": 0.2678549999999973
        },
        {
          "name": "F#2",
          "midi": 42,
          "time": 76.60652999999976,
          "velocity": 1,
          "duration": 0.2678549999999973
        },
        {
          "name": "F#2",
          "midi": 42,
          "time": 76.87438499999976,
          "velocity": 1,
          "duration": 0.2678549999999973
        },
        {
          "name": "A2",
          "midi": 45,
          "time": 77.14223999999976,
          "velocity": 1,
          "duration": 0.2678549999999973
        },
        {
          "name": "A2",
          "midi": 45,
          "time": 77.41009499999976,
          "velocity": 1,
          "duration": 0.2678549999999973
        },
        {
          "name": "A2",
          "midi": 45,
          "time": 77.67794999999975,
          "velocity": 1,
          "duration": 0.2678549999999973
        },
        {
          "name": "A2",
          "midi": 45,
          "time": 77.94580499999975,
          "velocity": 1,
          "duration": 0.2678549999999973
        },
        {
          "name": "A2",
          "midi": 45,
          "time": 78.21365999999975,
          "velocity": 1,
          "duration": 0.2678549999999973
        },
        {
          "name": "A2",
          "midi": 45,
          "time": 78.48151499999975,
          "velocity": 1,
          "duration": 0.2678549999999973
        },
        {
          "name": "A2",
          "midi": 45,
          "time": 78.74936999999974,
          "velocity": 1,
          "duration": 0.2678549999999973
        },
        {
          "name": "F#2",
          "midi": 42,
          "time": 79.01722499999974,
          "velocity": 1,
          "duration": 0.13392749999999864
        },
        {
          "name": "E2",
          "midi": 40,
          "time": 79.15115249999974,
          "velocity": 1,
          "duration": 0.13392749999999864
        },
        {
          "name": "A1",
          "midi": 33,
          "time": 79.28507999999974,
          "velocity": 1,
          "duration": 0.2678549999999973
        },
        {
          "name": "A1",
          "midi": 33,
          "time": 79.55293499999974,
          "velocity": 1,
          "duration": 0.2678549999999973
        },
        {
          "name": "A1",
          "midi": 33,
          "time": 79.82078999999973,
          "velocity": 1,
          "duration": 0.2678549999999973
        },
        {
          "name": "A1",
          "midi": 33,
          "time": 80.08864499999973,
          "velocity": 1,
          "duration": 0.2678549999999973
        },
        {
          "name": "A1",
          "midi": 33,
          "time": 80.35649999999973,
          "velocity": 1,
          "duration": 0.2678549999999973
        },
        {
          "name": "A1",
          "midi": 33,
          "time": 80.62435499999972,
          "velocity": 1,
          "duration": 0.2678549999999973
        },
        {
          "name": "A2",
          "midi": 45,
          "time": 80.89220999999972,
          "velocity": 1,
          "duration": 0.13392749999999864
        },
        {
          "name": "F#2",
          "midi": 42,
          "time": 81.02613749999972,
          "velocity": 1,
          "duration": 0.13392749999999864
        },
        {
          "name": "E2",
          "midi": 40,
          "time": 81.16006499999972,
          "velocity": 1,
          "duration": 0.13392749999999864
        },
        {
          "name": "A1",
          "midi": 33,
          "time": 81.29399249999972,
          "velocity": 1,
          "duration": 0.13392749999999864
        },
        {
          "name": "D2",
          "midi": 38,
          "time": 81.42791999999972,
          "velocity": 1,
          "duration": 0.6696374999999932
        },
        {
          "name": "D2",
          "midi": 38,
          "time": 82.23148499999971,
          "velocity": 1,
          "duration": 0.2678549999999973
        },
        {
          "name": "G2",
          "midi": 43,
          "time": 82.4993399999997,
          "velocity": 1,
          "duration": 0.06696374999999932
        },
        {
          "name": "G1",
          "midi": 31,
          "time": 82.6332674999997,
          "velocity": 1,
          "duration": 0.13392749999999864
        },
        {
          "name": "G1",
          "midi": 31,
          "time": 82.7671949999997,
          "velocity": 1,
          "duration": 0.13392749999999864
        },
        {
          "name": "G1",
          "midi": 31,
          "time": 83.0350499999997,
          "velocity": 1,
          "duration": 0.5357099999999946
        },
        {
          "name": "F#1",
          "midi": 30,
          "time": 83.5707599999997,
          "velocity": 1,
          "duration": 0.2678549999999973
        },
        {
          "name": "F#1",
          "midi": 30,
          "time": 83.97254249999969,
          "velocity": 1,
          "duration": 0.13392749999999864
        },
        {
          "name": "F#1",
          "midi": 30,
          "time": 84.10646999999969,
          "velocity": 1,
          "duration": 0.13392749999999864
        },
        {
          "name": "F#1",
          "midi": 30,
          "time": 84.37432499999969,
          "velocity": 1,
          "duration": 0.40178249999999593
        },
        {
          "name": "E1",
          "midi": 28,
          "time": 84.91003499999968,
          "velocity": 1,
          "duration": 0.13392749999999864
        },
        {
          "name": "E1",
          "midi": 28,
          "time": 85.17788999999968,
          "velocity": 1,
          "duration": 0.40178249999999593
        },
        {
          "name": "D2",
          "midi": 38,
          "time": 85.71359999999967,
          "velocity": 1,
          "duration": 0.5357099999999946
        },
        {
          "name": "D2",
          "midi": 38,
          "time": 86.51716499999966,
          "velocity": 1,
          "duration": 0.2678549999999973
        },
        {
          "name": "G2",
          "midi": 43,
          "time": 86.78501999999966,
          "velocity": 1,
          "duration": 0.40178249999999593
        },
        {
          "name": "D2",
          "midi": 38,
          "time": 87.18680249999966,
          "velocity": 1,
          "duration": 0.13392749999999864
        },
        {
          "name": "G2",
          "midi": 43,
          "time": 87.32072999999966,
          "velocity": 1,
          "duration": 0.5357099999999946
        },
        {
          "name": "F#2",
          "midi": 42,
          "time": 87.85643999999965,
          "velocity": 1,
          "duration": 0.40178249999999593
        },
        {
          "name": "F#2",
          "midi": 42,
          "time": 88.39214999999965,
          "velocity": 1,
          "duration": 0.13392749999999864
        },
        {
          "name": "A1",
          "midi": 33,
          "time": 88.66000499999964,
          "velocity": 1,
          "duration": 0.6696374999999932
        },
        {
          "name": "A2",
          "midi": 45,
          "time": 89.46356999999963,
          "velocity": 0.9763779527559056,
          "duration": 0.20228632812499825
        },
        {
          "name": "G2",
          "midi": 43,
          "time": 89.59749749999963,
          "velocity": 1,
          "duration": 0.17159460937499205
        },
        {
          "name": "F#2",
          "midi": 42,
          "time": 89.73142499999963,
          "velocity": 1,
          "duration": 0.15903890625000372
        },
        {
          "name": "E2",
          "midi": 40,
          "time": 89.86535249999963,
          "velocity": 0.968503937007874,
          "duration": 0.09068007812500412
        },
        {
          "name": "D2",
          "midi": 38,
          "time": 89.99927999999963,
          "velocity": 1,
          "duration": 0.37946125000000563
        },
        {
          "name": "D2",
          "midi": 38,
          "time": 90.53498999999964,
          "velocity": 1,
          "duration": 0.5482657031249971
        },
        {
          "name": "G1",
          "midi": 31,
          "time": 91.33855499999963,
          "velocity": 1,
          "duration": 0.14229796875000034
        },
        {
          "name": "G1",
          "midi": 31,
          "time": 91.60640999999963,
          "velocity": 1,
          "duration": 0.3138925781250066
        },
        {
          "name": "B1",
          "midi": 35,
          "time": 92.14211999999964,
          "velocity": 1,
          "duration": 0.24692882812499306
        },
        {
          "name": "B1",
          "midi": 35,
          "time": 92.54390249999963,
          "velocity": 0.968503937007874,
          "duration": 0.06975390624999989
        },
        {
          "name": "B1",
          "midi": 35,
          "time": 92.67782999999963,
          "velocity": 1,
          "duration": 0.12137179687499611
        },
        {
          "name": "B1",
          "midi": 35,
          "time": 92.94568499999963,
          "velocity": 1,
          "duration": 0.40038742187499565
        },
        {
          "name": "C#2",
          "midi": 37,
          "time": 93.48139499999962,
          "velocity": 1,
          "duration": 0.15624875000000316
        },
        {
          "name": "C#2",
          "midi": 37,
          "time": 93.74924999999962,
          "velocity": 1,
          "duration": 0.20786664062499938
        },
        {
          "name": "A1",
          "midi": 33,
          "time": 94.01710499999962,
          "velocity": 1,
          "duration": 0.21205187500000022
        },
        {
          "name": "D2",
          "midi": 38,
          "time": 94.28495999999961,
          "velocity": 1,
          "duration": 0.5357099999999946
        },
        {
          "name": "D2",
          "midi": 38,
          "time": 94.82066999999961,
          "velocity": 1,
          "duration": 0.21623710937500107
        },
        {
          "name": "A1",
          "midi": 33,
          "time": 95.0885249999996,
          "velocity": 1,
          "duration": 0.2678549999999973
        },
        {
          "name": "B1",
          "midi": 35,
          "time": 95.3563799999996,
          "velocity": 1,
          "duration": 0.5357099999999946
        },
        {
          "name": "B1",
          "midi": 35,
          "time": 95.8920899999996,
          "velocity": 1,
          "duration": 0.13392749999999864
        },
        {
          "name": "D1",
          "midi": 26,
          "time": 96.1599449999996,
          "velocity": 1,
          "duration": 0.2971516406250032
        },
        {
          "name": "E1",
          "midi": 28,
          "time": 96.42779999999959,
          "velocity": 1,
          "duration": 0.5357100000000088
        },
        {
          "name": "E1",
          "midi": 28,
          "time": 96.9635099999996,
          "velocity": 1,
          "duration": 0.11718656249999526
        },
        {
          "name": "D1",
          "midi": 26,
          "time": 97.2313649999996,
          "velocity": 1,
          "duration": 0.2678549999999973
        },
        {
          "name": "A1",
          "midi": 33,
          "time": 97.4992199999996,
          "velocity": 1,
          "duration": 0.5357099999999946
        },
        {
          "name": "C#2",
          "midi": 37,
          "time": 98.03492999999959,
          "velocity": 1,
          "duration": 0.2678549999999973
        },
        {
          "name": "D2",
          "midi": 38,
          "time": 98.30278499999959,
          "velocity": 1,
          "duration": 0.2678549999999973
        },
        {
          "name": "G1",
          "midi": 31,
          "time": 98.57063999999959,
          "velocity": 0.968503937007874,
          "duration": 0.5357099999999946
        },
        {
          "name": "G1",
          "midi": 31,
          "time": 99.10634999999958,
          "velocity": 1,
          "duration": 0.17856999999999346
        },
        {
          "name": "G2",
          "midi": 43,
          "time": 99.37420499999958,
          "velocity": 1,
          "duration": 0.5357099999999946
        },
        {
          "name": "G2",
          "midi": 43,
          "time": 99.90991499999957,
          "velocity": 1,
          "duration": 0.2678549999999973
        },
        {
          "name": "G2",
          "midi": 43,
          "time": 100.17776999999957,
          "velocity": 1,
          "duration": 0.2678549999999973
        },
        {
          "name": "G2",
          "midi": 43,
          "time": 100.44562499999957,
          "velocity": 1,
          "duration": 0.2678549999999973
        },
        {
          "name": "G1",
          "midi": 31,
          "time": 100.71347999999956,
          "velocity": 1,
          "duration": 0.8035650000000061
        },
        {
          "name": "F#1",
          "midi": 30,
          "time": 101.51704499999957,
          "velocity": 1,
          "duration": 0.8035650000000061
        },
        {
          "name": "E1",
          "midi": 28,
          "time": 102.32060999999958,
          "velocity": 1,
          "duration": 0.5357099999999946
        },
        {
          "name": "D1",
          "midi": 26,
          "time": 102.85631999999957,
          "velocity": 1,
          "duration": 8.571359999999999
        },
        {
          "name": "D2",
          "midi": 38,
          "time": 126.42755999999957,
          "velocity": 0.8346456692913385,
          "duration": 0.1143964062499947
        },
        {
          "name": "D2",
          "midi": 38,
          "time": 126.69541499999957,
          "velocity": 0.84251968503937,
          "duration": 0.11160624999999413
        },
        {
          "name": "D2",
          "midi": 38,
          "time": 126.96326999999957,
          "velocity": 1,
          "duration": 0.09765546875000553
        },
        {
          "name": "D2",
          "midi": 38,
          "time": 127.23112499999958,
          "velocity": 1,
          "duration": 0.10323578125000665
        },
        {
          "name": "D2",
          "midi": 38,
          "time": 127.49897999999959,
          "velocity": 1,
          "duration": 0.11997671874999583
        },
        {
          "name": "D2",
          "midi": 38,
          "time": 127.76683499999959,
          "velocity": 1,
          "duration": 0.11997671874999583
        },
        {
          "name": "D2",
          "midi": 38,
          "time": 128.03468999999959,
          "velocity": 1,
          "duration": 0.12137179687499611
        },
        {
          "name": "D2",
          "midi": 38,
          "time": 128.30254499999958,
          "velocity": 1,
          "duration": 0.13532257812499893
        },
        {
          "name": "C2",
          "midi": 36,
          "time": 128.57039999999958,
          "velocity": 1,
          "duration": 0.11021117187499385
        },
        {
          "name": "C2",
          "midi": 36,
          "time": 128.83825499999958,
          "velocity": 1,
          "duration": 0.0990505468749916
        },
        {
          "name": "C2",
          "midi": 36,
          "time": 129.10610999999957,
          "velocity": 1,
          "duration": 0.11579148437499498
        },
        {
          "name": "B1",
          "midi": 35,
          "time": 129.37396499999957,
          "velocity": 1,
          "duration": 0.11160624999999413
        },
        {
          "name": "B1",
          "midi": 35,
          "time": 129.64181999999957,
          "velocity": 1,
          "duration": 0.09765546874999131
        },
        {
          "name": "B1",
          "midi": 35,
          "time": 129.90967499999957,
          "velocity": 1,
          "duration": 0.12695210937499724
        },
        {
          "name": "C2",
          "midi": 36,
          "time": 130.17752999999956,
          "velocity": 1,
          "duration": 0.39341203124999424
        },
        {
          "name": "D2",
          "midi": 38,
          "time": 130.71323999999956,
          "velocity": 1,
          "duration": 0.8035649999999919
        },
        {
          "name": "D2",
          "midi": 38,
          "time": 131.51680499999955,
          "velocity": 1,
          "duration": 0.5357099999999946
        },
        {
          "name": "A1",
          "midi": 33,
          "time": 132.05251499999954,
          "velocity": 1,
          "duration": 0.2678549999999973
        },
        {
          "name": "D2",
          "midi": 38,
          "time": 132.32036999999954,
          "velocity": 1,
          "duration": 0.13392749999999864
        },
        {
          "name": "A1",
          "midi": 33,
          "time": 132.45429749999954,
          "velocity": 1,
          "duration": 0.13392749999999864
        },
        {
          "name": "D2",
          "midi": 38,
          "time": 132.58822499999954,
          "velocity": 1,
          "duration": 0.2678549999999973
        },
        {
          "name": "C2",
          "midi": 36,
          "time": 132.85607999999954,
          "velocity": 1,
          "duration": 0.8035649999999919
        },
        {
          "name": "B1",
          "midi": 35,
          "time": 133.65964499999953,
          "velocity": 1,
          "duration": 0.8035649999999919
        },
        {
          "name": "C2",
          "midi": 36,
          "time": 134.46320999999952,
          "velocity": 1,
          "duration": 0.5357099999999946
        },
        {
          "name": "D2",
          "midi": 38,
          "time": 134.99891999999952,
          "velocity": 1,
          "duration": 0.6696374999999932
        },
        {
          "name": "D2",
          "midi": 38,
          "time": 135.8024849999995,
          "velocity": 1,
          "duration": 0.40178249999999593
        },
        {
          "name": "A1",
          "midi": 33,
          "time": 136.2042674999995,
          "velocity": 0.9921259842519685,
          "duration": 0.13392749999999864
        },
        {
          "name": "D2",
          "midi": 38,
          "time": 136.3381949999995,
          "velocity": 1,
          "duration": 0.2678549999999973
        },
        {
          "name": "A1",
          "midi": 33,
          "time": 136.6060499999995,
          "velocity": 1,
          "duration": 0.2678549999999973
        },
        {
          "name": "B1",
          "midi": 35,
          "time": 136.8739049999995,
          "velocity": 1,
          "duration": 0.2678549999999973
        },
        {
          "name": "C2",
          "midi": 36,
          "time": 137.1417599999995,
          "velocity": 1,
          "duration": 0.8035649999999919
        },
        {
          "name": "B1",
          "midi": 35,
          "time": 137.94532499999949,
          "velocity": 1,
          "duration": 0.5357099999999946
        },
        {
          "name": "B1",
          "midi": 35,
          "time": 138.48103499999948,
          "velocity": 1,
          "duration": 0.2678549999999973
        },
        {
          "name": "C2",
          "midi": 36,
          "time": 138.74888999999948,
          "velocity": 1,
          "duration": 0.13392749999999864
        },
        {
          "name": "B1",
          "midi": 35,
          "time": 138.88281749999948,
          "velocity": 1,
          "duration": 0.13392749999999864
        },
        {
          "name": "G1",
          "midi": 31,
          "time": 139.01674499999947,
          "velocity": 1,
          "duration": 0.2678549999999973
        },
        {
          "name": "D2",
          "midi": 38,
          "time": 139.28459999999947,
          "velocity": 1,
          "duration": 0.2678549999999973
        },
        {
          "name": "A1",
          "midi": 33,
          "time": 139.68638249999947,
          "velocity": 1,
          "duration": 0.13392749999999864
        },
        {
          "name": "D2",
          "midi": 38,
          "time": 139.82030999999947,
          "velocity": 1,
          "duration": 0.13392749999999864
        },
        {
          "name": "G2",
          "midi": 43,
          "time": 140.08816499999946,
          "velocity": 0.9921259842519685,
          "duration": 0.5357099999999946
        },
        {
          "name": "F#2",
          "midi": 42,
          "time": 140.62387499999946,
          "velocity": 1,
          "duration": 0.2678549999999973
        },
        {
          "name": "E2",
          "midi": 40,
          "time": 140.89172999999946,
          "velocity": 1,
          "duration": 0.13392749999999864
        },
        {
          "name": "F#2",
          "midi": 42,
          "time": 141.02565749999945,
          "velocity": 1,
          "duration": 0.13392749999999864
        },
        {
          "name": "D2",
          "midi": 38,
          "time": 141.15958499999945,
          "velocity": 1,
          "duration": 0.2678549999999973
        },
        {
          "name": "C2",
          "midi": 36,
          "time": 141.42743999999945,
          "velocity": 1,
          "duration": 0.8035649999999919
        },
        {
          "name": "B1",
          "midi": 35,
          "time": 142.23100499999944,
          "velocity": 1,
          "duration": 0.5357099999999946
        },
        {
          "name": "B1",
          "midi": 35,
          "time": 142.76671499999944,
          "velocity": 1,
          "duration": 0.2678549999999973
        },
        {
          "name": "C2",
          "midi": 36,
          "time": 143.03456999999943,
          "velocity": 1,
          "duration": 0.13392749999999864
        },
        {
          "name": "B1",
          "midi": 35,
          "time": 143.16849749999943,
          "velocity": 1,
          "duration": 0.13392749999999864
        },
        {
          "name": "C2",
          "midi": 36,
          "time": 143.30242499999943,
          "velocity": 1,
          "duration": 0.2678549999999973
        },
        {
          "name": "D2",
          "midi": 38,
          "time": 143.57027999999943,
          "velocity": 1,
          "duration": 0.5357099999999946
        },
        {
          "name": "D2",
          "midi": 38,
          "time": 144.37384499999942,
          "velocity": 1,
          "duration": 0.40178249999999593
        },
        {
          "name": "A1",
          "midi": 33,
          "time": 144.77562749999942,
          "velocity": 1,
          "duration": 0.13392749999999864
        },
        {
          "name": "D2",
          "midi": 38,
          "time": 144.90955499999941,
          "velocity": 1,
          "duration": 0.2678549999999973
        },
        {
          "name": "A1",
          "midi": 33,
          "time": 145.1774099999994,
          "velocity": 1,
          "duration": 0.2678549999999973
        },
        {
          "name": "B1",
          "midi": 35,
          "time": 145.4452649999994,
          "velocity": 1,
          "duration": 0.2678549999999973
        },
        {
          "name": "C2",
          "midi": 36,
          "time": 145.7131199999994,
          "velocity": 1,
          "duration": 2.1651612500000113
        },
        {
          "name": "B1",
          "midi": 35,
          "time": 147.8559599999994,
          "velocity": 1,
          "duration": 2.1651612500000113
        },
        {
          "name": "A1",
          "midi": 33,
          "time": 149.99879999999942,
          "velocity": 1,
          "duration": 1.0714200000000176
        },
        {
          "name": "F#1",
          "midi": 30,
          "time": 149.99879999999942,
          "velocity": 0.9133858267716536,
          "duration": 0.17857000000000767
        },
        {
          "name": "G1",
          "midi": 31,
          "time": 151.07021999999944,
          "velocity": 1,
          "duration": 0.40178249999999593
        },
        {
          "name": "B1",
          "midi": 35,
          "time": 151.60592999999943,
          "velocity": 1,
          "duration": 0.2678549999999973
        },
        {
          "name": "C2",
          "midi": 36,
          "time": 151.87378499999943,
          "velocity": 1,
          "duration": 0.2678549999999973
        },
        {
          "name": "D2",
          "midi": 38,
          "time": 152.14163999999943,
          "velocity": 1,
          "duration": 0.11579148437499498
        },
        {
          "name": "D2",
          "midi": 38,
          "time": 152.40949499999942,
          "velocity": 1,
          "duration": 0.10463085937499272
        },
        {
          "name": "D2",
          "midi": 38,
          "time": 152.67734999999942,
          "velocity": 1,
          "duration": 0.10742101562499329
        },
        {
          "name": "D2",
          "midi": 38,
          "time": 152.94520499999942,
          "velocity": 1,
          "duration": 0.10184070312499216
        },
        {
          "name": "D2",
          "midi": 38,
          "time": 153.21305999999942,
          "velocity": 1,
          "duration": 0.106025937499993
        },
        {
          "name": "A1",
          "midi": 33,
          "time": 153.34698749999941,
          "velocity": 0.8031496062992126,
          "duration": 0.10323578124999244
        },
        {
          "name": "D2",
          "midi": 38,
          "time": 153.4809149999994,
          "velocity": 1,
          "duration": 0.0990505468749916
        },
        {
          "name": "D2",
          "midi": 38,
          "time": 153.7487699999994,
          "velocity": 1,
          "duration": 0.0990505468749916
        },
        {
          "name": "D2",
          "midi": 38,
          "time": 154.0166249999994,
          "velocity": 1,
          "duration": 0.16322414062500457
        },
        {
          "name": "A2",
          "midi": 45,
          "time": 154.2844799999994,
          "velocity": 0.9133858267716536,
          "duration": 0.17438476562500682
        },
        {
          "name": "D2",
          "midi": 38,
          "time": 154.4184074999994,
          "velocity": 0.9921259842519685,
          "duration": 0.1143964062499947
        },
        {
          "name": "D2",
          "midi": 38,
          "time": 154.6862624999994,
          "velocity": 1,
          "duration": 0.13253242187499836
        },
        {
          "name": "A2",
          "midi": 45,
          "time": 154.8201899999994,
          "velocity": 0.9133858267716536,
          "duration": 0.15624875000000316
        },
        {
          "name": "D2",
          "midi": 38,
          "time": 154.9541174999994,
          "velocity": 0.968503937007874,
          "duration": 0.11160624999999413
        },
        {
          "name": "D2",
          "midi": 38,
          "time": 155.2219724999994,
          "velocity": 0.9763779527559056,
          "duration": 0.11579148437499498
        },
        {
          "name": "A2",
          "midi": 45,
          "time": 155.3558999999994,
          "velocity": 0.9133858267716536,
          "duration": 0.16322414062500457
        },
        {
          "name": "D2",
          "midi": 38,
          "time": 155.4898274999994,
          "velocity": 0.952755905511811,
          "duration": 0.1143964062499947
        },
        {
          "name": "D2",
          "midi": 38,
          "time": 155.7576824999994,
          "velocity": 0.9448818897637795,
          "duration": 0.11718656249999526
        },
        {
          "name": "A2",
          "midi": 45,
          "time": 155.8916099999994,
          "velocity": 0.9133858267716536,
          "duration": 0.15066843750000203
        },
        {
          "name": "D2",
          "midi": 38,
          "time": 156.0255374999994,
          "velocity": 0.968503937007874,
          "duration": 0.13392749999999864
        },
        {
          "name": "A1",
          "midi": 33,
          "time": 156.1594649999994,
          "velocity": 0.9763779527559056,
          "duration": 0.1827552343750085
        },
        {
          "name": "F#1",
          "midi": 30,
          "time": 156.29339249999938,
          "velocity": 1,
          "duration": 0.08788992187501776
        },
        {
          "name": "G1",
          "midi": 31,
          "time": 156.4273199999994,
          "velocity": 1,
          "duration": 0.5357099999999946
        },
        {
          "name": "G1",
          "midi": 31,
          "time": 156.9630299999994,
          "velocity": 1,
          "duration": 0.2678549999999973
        },
        {
          "name": "G1",
          "midi": 31,
          "time": 157.2308849999994,
          "velocity": 1,
          "duration": 0.2678549999999973
        },
        {
          "name": "C2",
          "midi": 36,
          "time": 157.4875793749994,
          "velocity": 1,
          "duration": 0.07533421875001522
        },
        {
          "name": "C2",
          "midi": 36,
          "time": 157.76659499999943,
          "velocity": 1,
          "duration": 0.13392749999999864
        },
        {
          "name": "C2",
          "midi": 36,
          "time": 158.03444999999942,
          "velocity": 1,
          "duration": 0.40178249999999593
        },
        {
          "name": "E2",
          "midi": 40,
          "time": 158.57015999999942,
          "velocity": 1,
          "duration": 0.2678549999999973
        },
        {
          "name": "B1",
          "midi": 35,
          "time": 158.97194249999941,
          "velocity": 0.968503937007874,
          "duration": 0.13392749999999864
        },
        {
          "name": "E2",
          "midi": 40,
          "time": 159.1058699999994,
          "velocity": 1,
          "duration": 0.13392749999999864
        },
        {
          "name": "E2",
          "midi": 40,
          "time": 159.3737249999994,
          "velocity": 1,
          "duration": 0.2678549999999973
        },
        {
          "name": "C2",
          "midi": 36,
          "time": 159.7755074999994,
          "velocity": 1,
          "duration": 0.13392749999999864
        },
        {
          "name": "D2",
          "midi": 38,
          "time": 159.9094349999994,
          "velocity": 1,
          "duration": 0.13392749999999864
        },
        {
          "name": "D2",
          "midi": 38,
          "time": 160.0433624999994,
          "velocity": 1,
          "duration": 0.13392749999999864
        },
        {
          "name": "D2",
          "midi": 38,
          "time": 160.1772899999994,
          "velocity": 1,
          "duration": 0.2678549999999973
        },
        {
          "name": "C2",
          "midi": 36,
          "time": 160.4451449999994,
          "velocity": 1,
          "duration": 0.2678549999999973
        },
        {
          "name": "G1",
          "midi": 31,
          "time": 160.7129999999994,
          "velocity": 1,
          "duration": 0.5357099999999946
        },
        {
          "name": "G1",
          "midi": 31,
          "time": 161.2487099999994,
          "velocity": 1,
          "duration": 0.2678549999999973
        },
        {
          "name": "G1",
          "midi": 31,
          "time": 161.5165649999994,
          "velocity": 1,
          "duration": 0.2678549999999973
        },
        {
          "name": "C2",
          "midi": 36,
          "time": 161.77325937499938,
          "velocity": 1,
          "duration": 0.07533421875001522
        },
        {
          "name": "C2",
          "midi": 36,
          "time": 162.0522749999994,
          "velocity": 1,
          "duration": 0.13392749999999864
        },
        {
          "name": "C2",
          "midi": 36,
          "time": 162.3201299999994,
          "velocity": 1,
          "duration": 0.40178249999999593
        },
        {
          "name": "E2",
          "midi": 40,
          "time": 162.8558399999994,
          "velocity": 1,
          "duration": 0.2678549999999973
        },
        {
          "name": "B1",
          "midi": 35,
          "time": 163.2576224999994,
          "velocity": 0.968503937007874,
          "duration": 0.13392749999999864
        },
        {
          "name": "E2",
          "midi": 40,
          "time": 163.3915499999994,
          "velocity": 1,
          "duration": 0.13392749999999864
        },
        {
          "name": "E2",
          "midi": 40,
          "time": 163.6594049999994,
          "velocity": 1,
          "duration": 0.2678549999999973
        },
        {
          "name": "C2",
          "midi": 36,
          "time": 164.0611874999994,
          "velocity": 1,
          "duration": 0.13392749999999864
        },
        {
          "name": "D2",
          "midi": 38,
          "time": 164.1951149999994,
          "velocity": 1,
          "duration": 0.13392749999999864
        },
        {
          "name": "D2",
          "midi": 38,
          "time": 164.3290424999994,
          "velocity": 1,
          "duration": 0.13392749999999864
        },
        {
          "name": "D2",
          "midi": 38,
          "time": 164.4629699999994,
          "velocity": 1,
          "duration": 0.2678549999999973
        },
        {
          "name": "C2",
          "midi": 36,
          "time": 164.73082499999938,
          "velocity": 1,
          "duration": 0.2678549999999973
        },
        {
          "name": "G1",
          "midi": 31,
          "time": 164.99867999999938,
          "velocity": 1,
          "duration": 0.5357099999999946
        },
        {
          "name": "G1",
          "midi": 31,
          "time": 165.53438999999938,
          "velocity": 1,
          "duration": 0.2678549999999973
        },
        {
          "name": "G1",
          "midi": 31,
          "time": 165.80224499999937,
          "velocity": 1,
          "duration": 0.2678549999999973
        },
        {
          "name": "C2",
          "midi": 36,
          "time": 166.05893937499937,
          "velocity": 1,
          "duration": 0.07533421875001522
        },
        {
          "name": "C2",
          "midi": 36,
          "time": 166.3379549999994,
          "velocity": 1,
          "duration": 0.13392749999999864
        },
        {
          "name": "C2",
          "midi": 36,
          "time": 166.6058099999994,
          "velocity": 1,
          "duration": 0.40178249999999593
        },
        {
          "name": "E2",
          "midi": 40,
          "time": 167.1415199999994,
          "velocity": 1,
          "duration": 0.2678549999999973
        },
        {
          "name": "B1",
          "midi": 35,
          "time": 167.54330249999938,
          "velocity": 0.968503937007874,
          "duration": 0.13392749999999864
        },
        {
          "name": "E2",
          "midi": 40,
          "time": 167.67722999999938,
          "velocity": 1,
          "duration": 0.13392749999999864
        },
        {
          "name": "E2",
          "midi": 40,
          "time": 167.94508499999938,
          "velocity": 1,
          "duration": 0.2678549999999973
        },
        {
          "name": "C2",
          "midi": 36,
          "time": 168.34686749999938,
          "velocity": 1,
          "duration": 0.13392749999999864
        },
        {
          "name": "D2",
          "midi": 38,
          "time": 168.48079499999938,
          "velocity": 1,
          "duration": 0.13392749999999864
        },
        {
          "name": "D2",
          "midi": 38,
          "time": 168.61472249999937,
          "velocity": 1,
          "duration": 0.13392749999999864
        },
        {
          "name": "D2",
          "midi": 38,
          "time": 168.74864999999937,
          "velocity": 1,
          "duration": 0.2678549999999973
        },
        {
          "name": "F#1",
          "midi": 30,
          "time": 169.01650499999937,
          "velocity": 1,
          "duration": 0.2678549999999973
        },
        {
          "name": "G1",
          "midi": 31,
          "time": 169.28435999999937,
          "velocity": 1,
          "duration": 0.5357099999999946
        },
        {
          "name": "G1",
          "midi": 31,
          "time": 169.82006999999936,
          "velocity": 1,
          "duration": 0.2678549999999973
        },
        {
          "name": "G1",
          "midi": 31,
          "time": 170.08792499999936,
          "velocity": 1,
          "duration": 0.2678549999999973
        },
        {
          "name": "C2",
          "midi": 36,
          "time": 170.34461937499935,
          "velocity": 1,
          "duration": 0.07533421875001522
        },
        {
          "name": "C2",
          "midi": 36,
          "time": 170.62363499999938,
          "velocity": 1,
          "duration": 0.13392749999999864
        },
        {
          "name": "C2",
          "midi": 36,
          "time": 170.89148999999938,
          "velocity": 1,
          "duration": 0.40178249999999593
        },
        {
          "name": "E2",
          "midi": 40,
          "time": 171.42719999999937,
          "velocity": 1,
          "duration": 0.2678549999999973
        },
        {
          "name": "B1",
          "midi": 35,
          "time": 171.82898249999937,
          "velocity": 0.968503937007874,
          "duration": 0.13392749999999864
        },
        {
          "name": "E2",
          "midi": 40,
          "time": 171.96290999999937,
          "velocity": 1,
          "duration": 0.13392749999999864
        },
        {
          "name": "E2",
          "midi": 40,
          "time": 172.23076499999937,
          "velocity": 1,
          "duration": 0.2678549999999973
        },
        {
          "name": "C2",
          "midi": 36,
          "time": 172.63254749999936,
          "velocity": 1,
          "duration": 0.13392749999999864
        },
        {
          "name": "D2",
          "midi": 38,
          "time": 172.76647499999936,
          "velocity": 1,
          "duration": 0.13392749999999864
        },
        {
          "name": "D2",
          "midi": 38,
          "time": 172.90040249999936,
          "velocity": 1,
          "duration": 0.13392749999999864
        },
        {
          "name": "D2",
          "midi": 38,
          "time": 173.03432999999936,
          "velocity": 1,
          "duration": 0.2678549999999973
        },
        {
          "name": "F#1",
          "midi": 30,
          "time": 173.30218499999935,
          "velocity": 1,
          "duration": 0.2678549999999973
        },
        {
          "name": "G1",
          "midi": 31,
          "time": 173.57003999999935,
          "velocity": 1,
          "duration": 0.5357099999999946
        },
        {
          "name": "G1",
          "midi": 31,
          "time": 174.10574999999935,
          "velocity": 1,
          "duration": 0.2678549999999973
        },
        {
          "name": "G1",
          "midi": 31,
          "time": 174.37360499999934,
          "velocity": 1,
          "duration": 0.2678549999999973
        },
        {
          "name": "C2",
          "midi": 36,
          "time": 174.63029937499934,
          "velocity": 1,
          "duration": 0.07533421875001522
        },
        {
          "name": "C2",
          "midi": 36,
          "time": 174.90931499999937,
          "velocity": 1,
          "duration": 0.13392749999999864
        },
        {
          "name": "C2",
          "midi": 36,
          "time": 175.17716999999936,
          "velocity": 1,
          "duration": 0.40178249999999593
        },
        {
          "name": "E2",
          "midi": 40,
          "time": 175.71287999999936,
          "velocity": 1,
          "duration": 0.2678549999999973
        },
        {
          "name": "B1",
          "midi": 35,
          "time": 176.11466249999935,
          "velocity": 0.968503937007874,
          "duration": 0.13392749999999864
        },
        {
          "name": "E2",
          "midi": 40,
          "time": 176.24858999999935,
          "velocity": 1,
          "duration": 0.13392749999999864
        },
        {
          "name": "E2",
          "midi": 40,
          "time": 176.51644499999935,
          "velocity": 1,
          "duration": 0.2678549999999973
        },
        {
          "name": "C2",
          "midi": 36,
          "time": 176.91822749999935,
          "velocity": 1,
          "duration": 0.13392749999999864
        },
        {
          "name": "D2",
          "midi": 38,
          "time": 177.05215499999935,
          "velocity": 1,
          "duration": 0.13392749999999864
        },
        {
          "name": "D2",
          "midi": 38,
          "time": 177.18608249999934,
          "velocity": 1,
          "duration": 0.13392749999999864
        },
        {
          "name": "D2",
          "midi": 38,
          "time": 177.32000999999934,
          "velocity": 1,
          "duration": 0.2678549999999973
        },
        {
          "name": "C2",
          "midi": 36,
          "time": 177.58786499999934,
          "velocity": 1,
          "duration": 0.2678549999999973
        },
        {
          "name": "G1",
          "midi": 31,
          "time": 177.85571999999934,
          "velocity": 1,
          "duration": 0.5357099999999946
        },
        {
          "name": "G1",
          "midi": 31,
          "time": 178.39142999999933,
          "velocity": 1,
          "duration": 0.2678549999999973
        },
        {
          "name": "G1",
          "midi": 31,
          "time": 178.65928499999933,
          "velocity": 1,
          "duration": 0.2678549999999973
        },
        {
          "name": "C2",
          "midi": 36,
          "time": 178.91597937499932,
          "velocity": 1,
          "duration": 0.07533421875001522
        },
        {
          "name": "C2",
          "midi": 36,
          "time": 179.19499499999935,
          "velocity": 1,
          "duration": 0.13392749999999864
        },
        {
          "name": "C2",
          "midi": 36,
          "time": 179.46284999999935,
          "velocity": 1,
          "duration": 0.40178249999999593
        },
        {
          "name": "E2",
          "midi": 40,
          "time": 179.99855999999934,
          "velocity": 1,
          "duration": 0.2678549999999973
        },
        {
          "name": "B1",
          "midi": 35,
          "time": 180.40034249999934,
          "velocity": 0.968503937007874,
          "duration": 0.13392749999999864
        },
        {
          "name": "E2",
          "midi": 40,
          "time": 180.53426999999934,
          "velocity": 1,
          "duration": 0.13392749999999864
        },
        {
          "name": "E2",
          "midi": 40,
          "time": 180.80212499999934,
          "velocity": 1,
          "duration": 0.2678549999999973
        },
        {
          "name": "D2",
          "midi": 38,
          "time": 181.33783499999933,
          "velocity": 1,
          "duration": 0.2678549999999973
        },
        {
          "name": "D2",
          "midi": 38,
          "time": 181.73961749999933,
          "velocity": 1,
          "duration": 0.2678549999999973
        },
        {
          "name": "G1",
          "midi": 31,
          "time": 182.14139999999932,
          "velocity": 1,
          "duration": 0.5357099999999946
        },
        {
          "name": "G1",
          "midi": 31,
          "time": 182.67710999999932,
          "velocity": 1,
          "duration": 0.2678549999999973
        },
        {
          "name": "G1",
          "midi": 31,
          "time": 182.9449649999993,
          "velocity": 1,
          "duration": 0.2678549999999973
        },
        {
          "name": "C2",
          "midi": 36,
          "time": 183.2016593749993,
          "velocity": 1,
          "duration": 0.07533421875001522
        },
        {
          "name": "C2",
          "midi": 36,
          "time": 183.48067499999934,
          "velocity": 1,
          "duration": 0.13392749999999864
        },
        {
          "name": "C2",
          "midi": 36,
          "time": 183.74852999999933,
          "velocity": 1,
          "duration": 0.40178249999999593
        },
        {
          "name": "E2",
          "midi": 40,
          "time": 184.28423999999933,
          "velocity": 1,
          "duration": 0.2678549999999973
        },
        {
          "name": "B1",
          "midi": 35,
          "time": 184.68602249999932,
          "velocity": 0.968503937007874,
          "duration": 0.13392749999999864
        },
        {
          "name": "E2",
          "midi": 40,
          "time": 184.81994999999932,
          "velocity": 1,
          "duration": 0.13392749999999864
        },
        {
          "name": "E2",
          "midi": 40,
          "time": 185.08780499999932,
          "velocity": 1,
          "duration": 0.2678549999999973
        },
        {
          "name": "C2",
          "midi": 36,
          "time": 185.48958749999932,
          "velocity": 1,
          "duration": 0.13392749999999864
        },
        {
          "name": "D2",
          "midi": 38,
          "time": 185.62351499999932,
          "velocity": 1,
          "duration": 0.13392749999999864
        },
        {
          "name": "D2",
          "midi": 38,
          "time": 185.7574424999993,
          "velocity": 1,
          "duration": 0.13392749999999864
        },
        {
          "name": "D2",
          "midi": 38,
          "time": 185.8913699999993,
          "velocity": 1,
          "duration": 0.2678549999999973
        },
        {
          "name": "D2",
          "midi": 38,
          "time": 186.1592249999993,
          "velocity": 0.8503937007874016,
          "duration": 0.13392749999999864
        },
        {
          "name": "G1",
          "midi": 31,
          "time": 186.4270799999993,
          "velocity": 1,
          "duration": 0.5357099999999946
        },
        {
          "name": "G1",
          "midi": 31,
          "time": 186.9627899999993,
          "velocity": 1,
          "duration": 0.2678549999999973
        },
        {
          "name": "G1",
          "midi": 31,
          "time": 187.2306449999993,
          "velocity": 1,
          "duration": 0.2678549999999973
        },
        {
          "name": "C2",
          "midi": 36,
          "time": 187.4873393749993,
          "velocity": 1,
          "duration": 0.07533421875001522
        },
        {
          "name": "C2",
          "midi": 36,
          "time": 187.76635499999932,
          "velocity": 1,
          "duration": 0.13392749999999864
        },
        {
          "name": "C2",
          "midi": 36,
          "time": 188.03420999999932,
          "velocity": 1,
          "duration": 0.40178249999999593
        },
        {
          "name": "E2",
          "midi": 40,
          "time": 188.5699199999993,
          "velocity": 1,
          "duration": 0.2678550000000257
        },
        {
          "name": "B1",
          "midi": 35,
          "time": 188.97170249999934,
          "velocity": 0.968503937007874,
          "duration": 0.13392749999999864
        },
        {
          "name": "E2",
          "midi": 40,
          "time": 189.10562999999934,
          "velocity": 1,
          "duration": 0.13392749999999864
        },
        {
          "name": "E2",
          "midi": 40,
          "time": 189.37348499999933,
          "velocity": 1,
          "duration": 0.40178249999999593
        },
        {
          "name": "D2",
          "midi": 38,
          "time": 189.90919499999933,
          "velocity": 1,
          "duration": 0.40178249999999593
        },
        {
          "name": "C2",
          "midi": 36,
          "time": 190.44490499999932,
          "velocity": 1,
          "duration": 0.2678549999999973
        },
        {
          "name": "G1",
          "midi": 31,
          "time": 190.71275999999932,
          "velocity": 1,
          "duration": 0.5357099999999946
        },
        {
          "name": "G1",
          "midi": 31,
          "time": 191.24846999999932,
          "velocity": 1,
          "duration": 0.2678549999999973
        },
        {
          "name": "G1",
          "midi": 31,
          "time": 191.5163249999993,
          "velocity": 1,
          "duration": 0.2678549999999973
        },
        {
          "name": "C2",
          "midi": 36,
          "time": 191.7730193749993,
          "velocity": 1,
          "duration": 0.07533421875001522
        },
        {
          "name": "C2",
          "midi": 36,
          "time": 192.05203499999934,
          "velocity": 1,
          "duration": 0.13392749999999864
        },
        {
          "name": "C2",
          "midi": 36,
          "time": 192.31988999999933,
          "velocity": 1,
          "duration": 0.40178249999999593
        },
        {
          "name": "E1",
          "midi": 28,
          "time": 192.85559999999933,
          "velocity": 1,
          "duration": 0.2678549999999973
        },
        {
          "name": "E1",
          "midi": 28,
          "time": 193.25738249999932,
          "velocity": 0.968503937007874,
          "duration": 0.13392749999999864
        },
        {
          "name": "E1",
          "midi": 28,
          "time": 193.39130999999932,
          "velocity": 1,
          "duration": 0.13392749999999864
        },
        {
          "name": "E1",
          "midi": 28,
          "time": 193.65916499999932,
          "velocity": 1,
          "duration": 0.2678549999999973
        },
        {
          "name": "D1",
          "midi": 26,
          "time": 194.06094749999932,
          "velocity": 1,
          "duration": 0.13392749999999864
        },
        {
          "name": "D1",
          "midi": 26,
          "time": 194.1948749999993,
          "velocity": 1,
          "duration": 0.13392749999999864
        },
        {
          "name": "D1",
          "midi": 26,
          "time": 194.3288024999993,
          "velocity": 1,
          "duration": 0.13392749999999864
        },
        {
          "name": "D1",
          "midi": 26,
          "time": 194.4627299999993,
          "velocity": 1,
          "duration": 0.2678549999999973
        },
        {
          "name": "E1",
          "midi": 28,
          "time": 194.7305849999993,
          "velocity": 1,
          "duration": 0.2678549999999973
        },
        {
          "name": "G1",
          "midi": 31,
          "time": 194.9984399999993,
          "velocity": 1,
          "duration": 0.5357099999999946
        },
        {
          "name": "G1",
          "midi": 31,
          "time": 195.5341499999993,
          "velocity": 1,
          "duration": 0.2678549999999973
        },
        {
          "name": "G1",
          "midi": 31,
          "time": 195.8020049999993,
          "velocity": 1,
          "duration": 0.2678549999999973
        },
        {
          "name": "C2",
          "midi": 36,
          "time": 196.0586993749993,
          "velocity": 1,
          "duration": 0.07533421875001522
        },
        {
          "name": "C2",
          "midi": 36,
          "time": 196.33771499999932,
          "velocity": 1,
          "duration": 0.13392749999999864
        },
        {
          "name": "C2",
          "midi": 36,
          "time": 196.60556999999932,
          "velocity": 1,
          "duration": 0.40178249999999593
        },
        {
          "name": "E1",
          "midi": 28,
          "time": 197.1412799999993,
          "velocity": 1,
          "duration": 0.2678549999999973
        },
        {
          "name": "E1",
          "midi": 28,
          "time": 197.5430624999993,
          "velocity": 0.968503937007874,
          "duration": 0.13392749999999864
        },
        {
          "name": "E1",
          "midi": 28,
          "time": 197.6769899999993,
          "velocity": 1,
          "duration": 0.13392749999999864
        },
        {
          "name": "E1",
          "midi": 28,
          "time": 197.9448449999993,
          "velocity": 1,
          "duration": 0.2678549999999973
        },
        {
          "name": "D1",
          "midi": 26,
          "time": 198.3466274999993,
          "velocity": 1,
          "duration": 0.13392749999999864
        },
        {
          "name": "D1",
          "midi": 26,
          "time": 198.4805549999993,
          "velocity": 1,
          "duration": 0.13392749999999864
        },
        {
          "name": "D1",
          "midi": 26,
          "time": 198.6144824999993,
          "velocity": 1,
          "duration": 0.13392749999999864
        },
        {
          "name": "D1",
          "midi": 26,
          "time": 198.7484099999993,
          "velocity": 1,
          "duration": 0.2678549999999973
        },
        {
          "name": "D1",
          "midi": 26,
          "time": 199.0162649999993,
          "velocity": 1,
          "duration": 0.2678549999999973
        },
        {
          "name": "G1",
          "midi": 31,
          "time": 199.2841199999993,
          "velocity": 1,
          "duration": 0.5357099999999946
        },
        {
          "name": "G1",
          "midi": 31,
          "time": 199.81982999999929,
          "velocity": 1,
          "duration": 0.2678549999999973
        },
        {
          "name": "G1",
          "midi": 31,
          "time": 200.08768499999928,
          "velocity": 1,
          "duration": 0.2678549999999973
        },
        {
          "name": "C2",
          "midi": 36,
          "time": 200.34437937499928,
          "velocity": 1,
          "duration": 0.07533421875001522
        },
        {
          "name": "C2",
          "midi": 36,
          "time": 200.6233949999993,
          "velocity": 1,
          "duration": 0.13392749999999864
        }
      ],
      "controlChanges": {
        "1": [
          {
            "number": 1,
            "time": 1.4062387500000004,
            "value": 0
          }
        ],
        "2": [
          {
            "number": 2,
            "time": 1.8080212500000004,
            "value": 0
          }
        ],
        "7": [
          {
            "number": 7,
            "time": 1.2053475000000002,
            "value": 1
          }
        ],
        "10": [
          {
            "number": 10,
            "time": 1.3057931250000003,
            "value": 0.5039370078740157
          }
        ],
        "11": [
          {
            "number": 11,
            "time": 1.2388293750000003,
            "value": 1
          },
          {
            "number": 11,
            "time": 188.63688374999933,
            "value": 0.9448818897637795
          },
          {
            "number": 11,
            "time": 189.09446937499933,
            "value": 0.905511811023622
          },
          {
            "number": 11,
            "time": 189.64133999999933,
            "value": 0.8661417322834646
          },
          {
            "number": 11,
            "time": 190.16588937499932,
            "value": 0.8267716535433071
          },
          {
            "number": 11,
            "time": 190.71275999999932,
            "value": 0.7874015748031497
          },
          {
            "number": 11,
            "time": 191.24846999999932,
            "value": 0.7480314960629921
          },
          {
            "number": 11,
            "time": 191.7730193749993,
            "value": 0.7086614173228346
          },
          {
            "number": 11,
            "time": 192.33105062499934,
            "value": 0.6692913385826772
          },
          {
            "number": 11,
            "time": 192.86676062499933,
            "value": 0.6299212598425197
          },
          {
            "number": 11,
            "time": 193.38014937499932,
            "value": 0.5905511811023622
          },
          {
            "number": 11,
            "time": 193.91585937499931,
            "value": 0.5511811023622047
          },
          {
            "number": 11,
            "time": 194.4627299999993,
            "value": 0.5118110236220472
          },
          {
            "number": 11,
            "time": 195.0096006249993,
            "value": 0.47244094488188976
          },
          {
            "number": 11,
            "time": 195.5341499999993,
            "value": 0.4330708661417323
          },
          {
            "number": 11,
            "time": 196.0586993749993,
            "value": 0.3937007874015748
          },
          {
            "number": 11,
            "time": 196.61673062499932,
            "value": 0.3543307086614173
          },
          {
            "number": 11,
            "time": 197.1412799999993,
            "value": 0.31496062992125984
          },
          {
            "number": 11,
            "time": 197.6769899999993,
            "value": 0.2755905511811024
          },
          {
            "number": 11,
            "time": 198.2015393749993,
            "value": 0.23622047244094488
          },
          {
            "number": 11,
            "time": 198.7595706249993,
            "value": 0.1968503937007874
          },
          {
            "number": 11,
            "time": 199.2729593749993,
            "value": 0.15748031496062992
          },
          {
            "number": 11,
            "time": 199.81982999999929,
            "value": 0.11811023622047244
          },
          {
            "number": 11,
            "time": 200.35553999999928,
            "value": 0.07874015748031496
          },
          {
            "number": 11,
            "time": 200.8800893749993,
            "value": 0.03937007874015748
          },
          {
            "number": 11,
            "time": 201.37115687499931,
            "value": 0
          },
          {
            "number": 11,
            "time": 201.42695999999933,
            "value": 1
          }
        ],
        "32": [
          {
            "number": 32,
            "time": 1.1718656250000001,
            "value": 0
          }
        ],
        "84": [
          {
            "number": 84,
            "time": 43.79429249999997,
            "value": 0.2440944881889764
          },
          {
            "number": 84,
            "time": 48.07997249999994,
            "value": 0.2440944881889764
          },
          {
            "number": 84,
            "time": 52.36565249999992,
            "value": 0.2440944881889764
          },
          {
            "number": 84,
            "time": 56.651332499999896,
            "value": 0.2440944881889764
          },
          {
            "number": 84,
            "time": 60.937012499999874,
            "value": 0.2440944881889764
          },
          {
            "number": 84,
            "time": 157.3648124999994,
            "value": 0.2440944881889764
          },
          {
            "number": 84,
            "time": 161.6504924999994,
            "value": 0.2440944881889764
          },
          {
            "number": 84,
            "time": 165.93617249999937,
            "value": 0.2440944881889764
          },
          {
            "number": 84,
            "time": 170.22185249999936,
            "value": 0.2440944881889764
          },
          {
            "number": 84,
            "time": 174.50753249999934,
            "value": 0.2440944881889764
          },
          {
            "number": 84,
            "time": 178.79321249999933,
            "value": 0.2440944881889764
          },
          {
            "number": 84,
            "time": 183.0788924999993,
            "value": 0.2440944881889764
          },
          {
            "number": 84,
            "time": 187.3645724999993,
            "value": 0.2440944881889764
          },
          {
            "number": 84,
            "time": 191.6502524999993,
            "value": 0.2440944881889764
          },
          {
            "number": 84,
            "time": 195.9359324999993,
            "value": 0.2440944881889764
          },
          {
            "number": 84,
            "time": 200.22161249999928,
            "value": 0.2440944881889764
          }
        ],
        "91": [
          {
            "number": 91,
            "time": 1.5401662500000004,
            "value": 1
          }
        ],
        "93": [
          {
            "number": 93,
            "time": 1.6740937500000004,
            "value": 0
          }
        ],
        "121": [
          {
            "number": 121,
            "time": 0.9040106250000001,
            "value": 0
          }
        ]
      },
      "id": 1,
      "name": "BassGuitar",
      "instrumentNumber": 33,
      "instrument": "electric bass (finger)",
      "instrumentFamily": "bass",
      "channelNumber": 0,
      "isPercussion": false
    },
    {
      "startTime": 2.14284,
      "duration": 130.71323999999973,
      "length": 228,
      "notes": [
        {
          "name": "D3",
          "midi": 50,
          "time": 2.14284,
          "velocity": 0.84251968503937,
          "duration": 1.8749850000000001
        },
        {
          "name": "D4",
          "midi": 62,
          "time": 2.410695,
          "velocity": 0.84251968503937,
          "duration": 0.5357099999999999
        },
        {
          "name": "A3",
          "midi": 57,
          "time": 2.67855,
          "velocity": 0.84251968503937,
          "duration": 0.8035649999999999
        },
        {
          "name": "G4",
          "midi": 67,
          "time": 2.946405,
          "velocity": 0.84251968503937,
          "duration": 0.5357099999999999
        },
        {
          "name": "F#4",
          "midi": 66,
          "time": 3.482115,
          "velocity": 0.84251968503937,
          "duration": 0.5357100000000004
        },
        {
          "name": "D4",
          "midi": 62,
          "time": 3.74997,
          "velocity": 0.84251968503937,
          "duration": 0.5357100000000004
        },
        {
          "name": "A2",
          "midi": 45,
          "time": 4.017825,
          "velocity": 0.8267716535433071,
          "duration": 0.26785499999999995
        },
        {
          "name": "C3",
          "midi": 48,
          "time": 4.28568,
          "velocity": 0.8267716535433071,
          "duration": 0.8035649999999999
        },
        {
          "name": "G3",
          "midi": 55,
          "time": 4.553535,
          "velocity": 0.84251968503937,
          "duration": 0.5357099999999999
        },
        {
          "name": "D4",
          "midi": 62,
          "time": 4.82139,
          "velocity": 0.84251968503937,
          "duration": 0.5357099999999999
        },
        {
          "name": "B2",
          "midi": 47,
          "time": 5.089245,
          "velocity": 0.8582677165354331,
          "duration": 0.8035649999999999
        },
        {
          "name": "G3",
          "midi": 55,
          "time": 5.3571,
          "velocity": 0.8661417322834646,
          "duration": 0.5357099999999999
        },
        {
          "name": "D4",
          "midi": 62,
          "time": 5.624955,
          "velocity": 0.8818897637795275,
          "duration": 0.5357099999999999
        },
        {
          "name": "G2",
          "midi": 43,
          "time": 5.89281,
          "velocity": 0.8976377952755905,
          "duration": 0.4017825000000004
        },
        {
          "name": "D4",
          "midi": 62,
          "time": 6.160665,
          "velocity": 0.8818897637795275,
          "duration": 0.26785500000000084
        },
        {
          "name": "D3",
          "midi": 50,
          "time": 6.428520000000001,
          "velocity": 0.84251968503937,
          "duration": 1.8749850000000006
        },
        {
          "name": "D4",
          "midi": 62,
          "time": 6.696375000000001,
          "velocity": 0.84251968503937,
          "duration": 0.5357099999999999
        },
        {
          "name": "A3",
          "midi": 57,
          "time": 6.964230000000001,
          "velocity": 0.84251968503937,
          "duration": 0.8035649999999999
        },
        {
          "name": "G4",
          "midi": 67,
          "time": 7.2320850000000005,
          "velocity": 0.84251968503937,
          "duration": 0.5357099999999999
        },
        {
          "name": "F#4",
          "midi": 66,
          "time": 7.7677950000000004,
          "velocity": 0.84251968503937,
          "duration": 0.5357100000000008
        },
        {
          "name": "D4",
          "midi": 62,
          "time": 8.03565,
          "velocity": 0.84251968503937,
          "duration": 0.5357100000000017
        },
        {
          "name": "A2",
          "midi": 45,
          "time": 8.303505000000001,
          "velocity": 0.8267716535433071,
          "duration": 0.26785500000000084
        },
        {
          "name": "C3",
          "midi": 48,
          "time": 8.571360000000002,
          "velocity": 0.8267716535433071,
          "duration": 0.8035650000000025
        },
        {
          "name": "G3",
          "midi": 55,
          "time": 8.839215000000003,
          "velocity": 0.84251968503937,
          "duration": 0.5357100000000017
        },
        {
          "name": "D4",
          "midi": 62,
          "time": 9.107070000000004,
          "velocity": 0.84251968503937,
          "duration": 0.5357100000000017
        },
        {
          "name": "B2",
          "midi": 47,
          "time": 9.374925000000005,
          "velocity": 0.8582677165354331,
          "duration": 0.8035650000000025
        },
        {
          "name": "G3",
          "midi": 55,
          "time": 9.642780000000005,
          "velocity": 0.8661417322834646,
          "duration": 0.5357100000000017
        },
        {
          "name": "D4",
          "midi": 62,
          "time": 9.910635000000006,
          "velocity": 0.8818897637795275,
          "duration": 0.5357100000000017
        },
        {
          "name": "G2",
          "midi": 43,
          "time": 10.178490000000007,
          "velocity": 0.8976377952755905,
          "duration": 0.40178250000000126
        },
        {
          "name": "D4",
          "midi": 62,
          "time": 10.446345000000008,
          "velocity": 0.8818897637795275,
          "duration": 0.26785500000000084
        },
        {
          "name": "D3",
          "midi": 50,
          "time": 10.714200000000009,
          "velocity": 0.84251968503937,
          "duration": 1.8749850000000041
        },
        {
          "name": "D4",
          "midi": 62,
          "time": 10.98205500000001,
          "velocity": 0.84251968503937,
          "duration": 0.5357100000000017
        },
        {
          "name": "A3",
          "midi": 57,
          "time": 11.24991000000001,
          "velocity": 0.84251968503937,
          "duration": 0.8035650000000008
        },
        {
          "name": "G4",
          "midi": 67,
          "time": 11.517765000000011,
          "velocity": 0.84251968503937,
          "duration": 0.5357099999999999
        },
        {
          "name": "F#4",
          "midi": 66,
          "time": 12.053475000000011,
          "velocity": 0.84251968503937,
          "duration": 0.5357100000000017
        },
        {
          "name": "D4",
          "midi": 62,
          "time": 12.321330000000012,
          "velocity": 0.84251968503937,
          "duration": 0.5357100000000017
        },
        {
          "name": "A2",
          "midi": 45,
          "time": 12.589185000000013,
          "velocity": 0.8267716535433071,
          "duration": 0.26785500000000084
        },
        {
          "name": "C3",
          "midi": 48,
          "time": 12.857040000000014,
          "velocity": 0.8267716535433071,
          "duration": 0.8035650000000025
        },
        {
          "name": "G3",
          "midi": 55,
          "time": 13.124895000000015,
          "velocity": 0.84251968503937,
          "duration": 0.5357100000000017
        },
        {
          "name": "D4",
          "midi": 62,
          "time": 13.392750000000015,
          "velocity": 0.84251968503937,
          "duration": 0.5357100000000017
        },
        {
          "name": "B2",
          "midi": 47,
          "time": 13.660605000000016,
          "velocity": 0.8582677165354331,
          "duration": 0.8035650000000025
        },
        {
          "name": "G3",
          "midi": 55,
          "time": 13.928460000000017,
          "velocity": 0.8661417322834646,
          "duration": 0.5357100000000017
        },
        {
          "name": "D4",
          "midi": 62,
          "time": 14.196315000000018,
          "velocity": 0.8818897637795275,
          "duration": 0.5357100000000017
        },
        {
          "name": "G2",
          "midi": 43,
          "time": 14.464170000000019,
          "velocity": 0.8976377952755905,
          "duration": 0.40178250000000126
        },
        {
          "name": "D4",
          "midi": 62,
          "time": 14.73202500000002,
          "velocity": 0.8818897637795275,
          "duration": 0.26785500000000084
        },
        {
          "name": "D3",
          "midi": 50,
          "time": 14.99988000000002,
          "velocity": 0.84251968503937,
          "duration": 1.8749850000000041
        },
        {
          "name": "D4",
          "midi": 62,
          "time": 15.267735000000021,
          "velocity": 0.84251968503937,
          "duration": 0.5357100000000017
        },
        {
          "name": "A3",
          "midi": 57,
          "time": 15.535590000000022,
          "velocity": 0.84251968503937,
          "duration": 0.8035650000000008
        },
        {
          "name": "G4",
          "midi": 67,
          "time": 15.803445000000023,
          "velocity": 0.84251968503937,
          "duration": 0.5357099999999999
        },
        {
          "name": "F#4",
          "midi": 66,
          "time": 16.339155000000023,
          "velocity": 0.84251968503937,
          "duration": 0.5357100000000017
        },
        {
          "name": "D4",
          "midi": 62,
          "time": 16.607010000000024,
          "velocity": 0.84251968503937,
          "duration": 0.5357100000000017
        },
        {
          "name": "A2",
          "midi": 45,
          "time": 16.874865000000025,
          "velocity": 0.8267716535433071,
          "duration": 0.26785500000000084
        },
        {
          "name": "C3",
          "midi": 48,
          "time": 17.142720000000025,
          "velocity": 0.8267716535433071,
          "duration": 0.8035650000000025
        },
        {
          "name": "G3",
          "midi": 55,
          "time": 17.410575000000026,
          "velocity": 0.84251968503937,
          "duration": 0.5357100000000017
        },
        {
          "name": "D4",
          "midi": 62,
          "time": 17.678430000000027,
          "velocity": 0.84251968503937,
          "duration": 0.5357100000000017
        },
        {
          "name": "B2",
          "midi": 47,
          "time": 17.946285000000028,
          "velocity": 0.8582677165354331,
          "duration": 0.8035650000000025
        },
        {
          "name": "G3",
          "midi": 55,
          "time": 18.21414000000003,
          "velocity": 0.8661417322834646,
          "duration": 0.5357100000000017
        },
        {
          "name": "D4",
          "midi": 62,
          "time": 18.48199500000003,
          "velocity": 0.8818897637795275,
          "duration": 0.5357100000000017
        },
        {
          "name": "G2",
          "midi": 43,
          "time": 18.74985000000003,
          "velocity": 0.8976377952755905,
          "duration": 0.4017824999999995
        },
        {
          "name": "D4",
          "midi": 62,
          "time": 19.01770500000003,
          "velocity": 0.8818897637795275,
          "duration": 0.2678549999999973
        },
        {
          "name": "D3",
          "midi": 50,
          "time": 19.28556000000003,
          "velocity": 0.84251968503937,
          "duration": 1.874985000000006
        },
        {
          "name": "D4",
          "midi": 62,
          "time": 19.55341500000003,
          "velocity": 0.84251968503937,
          "duration": 0.5357100000000017
        },
        {
          "name": "A3",
          "midi": 57,
          "time": 19.82127000000003,
          "velocity": 0.84251968503937,
          "duration": 0.8035650000000025
        },
        {
          "name": "G4",
          "midi": 67,
          "time": 20.08912500000003,
          "velocity": 0.84251968503937,
          "duration": 0.5357100000000017
        },
        {
          "name": "F#4",
          "midi": 66,
          "time": 20.624835000000033,
          "velocity": 0.84251968503937,
          "duration": 0.5357100000000017
        },
        {
          "name": "D4",
          "midi": 62,
          "time": 20.892690000000034,
          "velocity": 0.84251968503937,
          "duration": 0.5357100000000017
        },
        {
          "name": "A2",
          "midi": 45,
          "time": 21.160545000000035,
          "velocity": 0.8267716535433071,
          "duration": 0.26785500000000084
        },
        {
          "name": "C3",
          "midi": 48,
          "time": 21.428400000000035,
          "velocity": 0.8267716535433071,
          "duration": 0.8035650000000025
        },
        {
          "name": "G3",
          "midi": 55,
          "time": 21.696255000000036,
          "velocity": 0.84251968503937,
          "duration": 0.5357100000000017
        },
        {
          "name": "D4",
          "midi": 62,
          "time": 21.964110000000037,
          "velocity": 0.84251968503937,
          "duration": 0.5357100000000017
        },
        {
          "name": "B2",
          "midi": 47,
          "time": 22.231965000000038,
          "velocity": 0.8582677165354331,
          "duration": 0.8035650000000025
        },
        {
          "name": "G3",
          "midi": 55,
          "time": 22.49982000000004,
          "velocity": 0.8661417322834646,
          "duration": 0.5357100000000017
        },
        {
          "name": "D4",
          "midi": 62,
          "time": 22.76767500000004,
          "velocity": 0.8818897637795275,
          "duration": 0.5357100000000017
        },
        {
          "name": "G2",
          "midi": 43,
          "time": 23.03553000000004,
          "velocity": 0.8976377952755905,
          "duration": 0.4017824999999995
        },
        {
          "name": "D4",
          "midi": 62,
          "time": 23.30338500000004,
          "velocity": 0.8818897637795275,
          "duration": 0.2678549999999973
        },
        {
          "name": "D3",
          "midi": 50,
          "time": 23.57124000000004,
          "velocity": 0.84251968503937,
          "duration": 1.874985000000006
        },
        {
          "name": "D4",
          "midi": 62,
          "time": 23.83909500000004,
          "velocity": 0.84251968503937,
          "duration": 0.5357100000000017
        },
        {
          "name": "A3",
          "midi": 57,
          "time": 24.10695000000004,
          "velocity": 0.84251968503937,
          "duration": 0.8035650000000025
        },
        {
          "name": "G4",
          "midi": 67,
          "time": 24.37480500000004,
          "velocity": 0.84251968503937,
          "duration": 0.5357100000000017
        },
        {
          "name": "F#4",
          "midi": 66,
          "time": 24.910515000000043,
          "velocity": 0.84251968503937,
          "duration": 0.5357100000000017
        },
        {
          "name": "D4",
          "midi": 62,
          "time": 25.178370000000044,
          "velocity": 0.84251968503937,
          "duration": 0.5357100000000017
        },
        {
          "name": "A2",
          "midi": 45,
          "time": 25.446225000000045,
          "velocity": 0.8267716535433071,
          "duration": 0.26785500000000084
        },
        {
          "name": "C3",
          "midi": 48,
          "time": 25.714080000000045,
          "velocity": 0.8267716535433071,
          "duration": 0.8035650000000025
        },
        {
          "name": "G3",
          "midi": 55,
          "time": 25.981935000000046,
          "velocity": 0.84251968503937,
          "duration": 0.5357100000000017
        },
        {
          "name": "D4",
          "midi": 62,
          "time": 26.249790000000047,
          "velocity": 0.84251968503937,
          "duration": 0.5357100000000017
        },
        {
          "name": "B2",
          "midi": 47,
          "time": 26.517645000000048,
          "velocity": 0.8582677165354331,
          "duration": 0.8035650000000025
        },
        {
          "name": "G3",
          "midi": 55,
          "time": 26.78550000000005,
          "velocity": 0.8661417322834646,
          "duration": 0.5357100000000017
        },
        {
          "name": "D4",
          "midi": 62,
          "time": 27.05335500000005,
          "velocity": 0.8818897637795275,
          "duration": 0.5357100000000017
        },
        {
          "name": "G2",
          "midi": 43,
          "time": 27.32121000000005,
          "velocity": 0.8976377952755905,
          "duration": 0.4017824999999995
        },
        {
          "name": "D4",
          "midi": 62,
          "time": 27.58906500000005,
          "velocity": 0.8818897637795275,
          "duration": 0.2678549999999973
        },
        {
          "name": "D3",
          "midi": 50,
          "time": 27.85692000000005,
          "velocity": 0.84251968503937,
          "duration": 1.874985000000006
        },
        {
          "name": "D4",
          "midi": 62,
          "time": 28.12477500000005,
          "velocity": 0.84251968503937,
          "duration": 0.5357100000000017
        },
        {
          "name": "A3",
          "midi": 57,
          "time": 28.39263000000005,
          "velocity": 0.84251968503937,
          "duration": 0.8035650000000025
        },
        {
          "name": "G4",
          "midi": 67,
          "time": 28.66048500000005,
          "velocity": 0.84251968503937,
          "duration": 0.5357100000000017
        },
        {
          "name": "F#4",
          "midi": 66,
          "time": 29.196195000000053,
          "velocity": 0.84251968503937,
          "duration": 0.5357100000000017
        },
        {
          "name": "D4",
          "midi": 62,
          "time": 29.464050000000054,
          "velocity": 0.84251968503937,
          "duration": 0.5357100000000017
        },
        {
          "name": "A2",
          "midi": 45,
          "time": 29.731905000000054,
          "velocity": 0.8267716535433071,
          "duration": 0.26785500000000084
        },
        {
          "name": "C3",
          "midi": 48,
          "time": 29.999760000000055,
          "velocity": 0.8267716535433071,
          "duration": 0.8035650000000025
        },
        {
          "name": "G3",
          "midi": 55,
          "time": 30.267615000000056,
          "velocity": 0.84251968503937,
          "duration": 0.5357100000000017
        },
        {
          "name": "D4",
          "midi": 62,
          "time": 30.535470000000057,
          "velocity": 0.84251968503937,
          "duration": 0.5357100000000017
        },
        {
          "name": "B2",
          "midi": 47,
          "time": 30.803325000000058,
          "velocity": 0.8582677165354331,
          "duration": 0.8035650000000025
        },
        {
          "name": "G3",
          "midi": 55,
          "time": 31.07118000000006,
          "velocity": 0.8661417322834646,
          "duration": 0.5357100000000017
        },
        {
          "name": "D4",
          "midi": 62,
          "time": 31.33903500000006,
          "velocity": 0.8818897637795275,
          "duration": 0.5357100000000017
        },
        {
          "name": "G2",
          "midi": 43,
          "time": 31.60689000000006,
          "velocity": 0.8976377952755905,
          "duration": 0.4017824999999995
        },
        {
          "name": "D4",
          "midi": 62,
          "time": 31.87474500000006,
          "velocity": 0.8818897637795275,
          "duration": 0.2678549999999973
        },
        {
          "name": "D3",
          "midi": 50,
          "time": 32.14260000000006,
          "velocity": 0.84251968503937,
          "duration": 1.8749849999999881
        },
        {
          "name": "D4",
          "midi": 62,
          "time": 32.410455000000056,
          "velocity": 0.84251968503937,
          "duration": 0.5357099999999946
        },
        {
          "name": "A3",
          "midi": 57,
          "time": 32.67831000000005,
          "velocity": 0.84251968503937,
          "duration": 0.803564999999999
        },
        {
          "name": "G4",
          "midi": 67,
          "time": 32.94616500000005,
          "velocity": 0.84251968503937,
          "duration": 0.5357100000000017
        },
        {
          "name": "F#4",
          "midi": 66,
          "time": 33.48187500000005,
          "velocity": 0.84251968503937,
          "duration": 0.5357099999999946
        },
        {
          "name": "D4",
          "midi": 62,
          "time": 33.74973000000005,
          "velocity": 0.84251968503937,
          "duration": 0.5357099999999946
        },
        {
          "name": "A2",
          "midi": 45,
          "time": 34.01758500000005,
          "velocity": 0.8267716535433071,
          "duration": 0.2678549999999973
        },
        {
          "name": "C3",
          "midi": 48,
          "time": 34.285440000000044,
          "velocity": 0.8267716535433071,
          "duration": 0.8035649999999919
        },
        {
          "name": "E4",
          "midi": 64,
          "time": 34.55329500000004,
          "velocity": 0.84251968503937,
          "duration": 0.5357099999999946
        },
        {
          "name": "D4",
          "midi": 62,
          "time": 34.82115000000004,
          "velocity": 0.84251968503937,
          "duration": 0.5357099999999946
        },
        {
          "name": "G3",
          "midi": 55,
          "time": 35.089005000000036,
          "velocity": 0.8582677165354331,
          "duration": 0.8035649999999919
        },
        {
          "name": "E4",
          "midi": 64,
          "time": 35.35686000000003,
          "velocity": 0.8661417322834646,
          "duration": 0.5357099999999946
        },
        {
          "name": "D4",
          "midi": 62,
          "time": 35.62471500000003,
          "velocity": 0.8818897637795275,
          "duration": 0.5357099999999946
        },
        {
          "name": "G3",
          "midi": 55,
          "time": 35.89257000000003,
          "velocity": 0.8976377952755905,
          "duration": 0.40178249999999593
        },
        {
          "name": "E4",
          "midi": 64,
          "time": 36.160425000000025,
          "velocity": 0.8818897637795275,
          "duration": 0.2678549999999973
        },
        {
          "name": "B2",
          "midi": 47,
          "time": 36.42828000000002,
          "velocity": 0.8267716535433071,
          "duration": 0.8035649999999919
        },
        {
          "name": "B3",
          "midi": 59,
          "time": 36.69613500000002,
          "velocity": 0.84251968503937,
          "duration": 0.5357099999999946
        },
        {
          "name": "D4",
          "midi": 62,
          "time": 36.96399000000002,
          "velocity": 0.84251968503937,
          "duration": 0.5357099999999946
        },
        {
          "name": "B3",
          "midi": 59,
          "time": 37.231845000000014,
          "velocity": 0.8582677165354331,
          "duration": 0.8035649999999919
        },
        {
          "name": "G4",
          "midi": 67,
          "time": 37.49970000000001,
          "velocity": 0.8661417322834646,
          "duration": 0.5357099999999946
        },
        {
          "name": "D4",
          "midi": 62,
          "time": 37.76755500000001,
          "velocity": 0.8818897637795275,
          "duration": 0.5357099999999946
        },
        {
          "name": "B3",
          "midi": 59,
          "time": 38.035410000000006,
          "velocity": 0.8976377952755905,
          "duration": 0.40178249999999593
        },
        {
          "name": "G3",
          "midi": 55,
          "time": 38.303265,
          "velocity": 0.8818897637795275,
          "duration": 0.2678549999999973
        },
        {
          "name": "D3",
          "midi": 50,
          "time": 102.85632000000001,
          "velocity": 0.3700787401574803,
          "duration": 2.1428399999999783
        },
        {
          "name": "D4",
          "midi": 62,
          "time": 103.12417500000001,
          "velocity": 0.3700787401574803,
          "duration": 0.5357099999999946
        },
        {
          "name": "A3",
          "midi": 57,
          "time": 103.39203,
          "velocity": 0.3937007874015748,
          "duration": 0.8035649999999919
        },
        {
          "name": "D4",
          "midi": 62,
          "time": 103.659885,
          "velocity": 0.4094488188976378,
          "duration": 0.2678549999999973
        },
        {
          "name": "D4",
          "midi": 62,
          "time": 103.92774,
          "velocity": 0.4251968503937008,
          "duration": 0.5357099999999946
        },
        {
          "name": "A3",
          "midi": 57,
          "time": 104.195595,
          "velocity": 0.4251968503937008,
          "duration": 1.3392749999999864
        },
        {
          "name": "D4",
          "midi": 62,
          "time": 104.46345,
          "velocity": 0.4251968503937008,
          "duration": 0.2678549999999973
        },
        {
          "name": "D4",
          "midi": 62,
          "time": 104.73130499999999,
          "velocity": 0.4251968503937008,
          "duration": 0.5357099999999946
        },
        {
          "name": "D3",
          "midi": 50,
          "time": 104.99915999999999,
          "velocity": 0.4251968503937008,
          "duration": 2.1428399999999783
        },
        {
          "name": "D4",
          "midi": 62,
          "time": 105.26701499999999,
          "velocity": 0.44881889763779526,
          "duration": 0.5357099999999946
        },
        {
          "name": "A3",
          "midi": 57,
          "time": 105.53486999999998,
          "velocity": 0.4645669291338583,
          "duration": 0.8035649999999919
        },
        {
          "name": "D4",
          "midi": 62,
          "time": 105.80272499999998,
          "velocity": 0.48031496062992124,
          "duration": 0.2678549999999973
        },
        {
          "name": "D4",
          "midi": 62,
          "time": 106.07057999999998,
          "velocity": 0.5196850393700787,
          "duration": 0.5357099999999946
        },
        {
          "name": "A3",
          "midi": 57,
          "time": 106.33843499999998,
          "velocity": 0.5196850393700787,
          "duration": 0.8035649999999919
        },
        {
          "name": "D4",
          "midi": 62,
          "time": 106.60628999999997,
          "velocity": 0.5354330708661418,
          "duration": 0.2678549999999973
        },
        {
          "name": "D4",
          "midi": 62,
          "time": 106.87414499999997,
          "velocity": 0.5590551181102362,
          "duration": 0.8035649999999919
        },
        {
          "name": "C3",
          "midi": 48,
          "time": 107.14199999999997,
          "velocity": 0.5590551181102362,
          "duration": 0.8035649999999919
        },
        {
          "name": "G3",
          "midi": 55,
          "time": 107.40985499999996,
          "velocity": 0.5748031496062992,
          "duration": 0.8035649999999919
        },
        {
          "name": "D4",
          "midi": 62,
          "time": 107.67770999999996,
          "velocity": 0.5748031496062992,
          "duration": 0.8035649999999919
        },
        {
          "name": "B2",
          "midi": 47,
          "time": 107.94556499999996,
          "velocity": 0.5905511811023622,
          "duration": 0.8035649999999919
        },
        {
          "name": "G3",
          "midi": 55,
          "time": 108.21341999999996,
          "velocity": 0.6141732283464567,
          "duration": 1.0714199999999892
        },
        {
          "name": "D4",
          "midi": 62,
          "time": 108.48127499999995,
          "velocity": 0.6141732283464567,
          "duration": 0.5357099999999946
        },
        {
          "name": "G2",
          "midi": 43,
          "time": 108.74912999999995,
          "velocity": 0.6299212598425197,
          "duration": 0.40178249999999593
        },
        {
          "name": "D4",
          "midi": 62,
          "time": 109.01698499999995,
          "velocity": 0.6614173228346457,
          "duration": 0.5357099999999946
        },
        {
          "name": "D3",
          "midi": 50,
          "time": 109.28483999999995,
          "velocity": 0.6614173228346457,
          "duration": 2.1428399999999783
        },
        {
          "name": "D4",
          "midi": 62,
          "time": 109.55269499999994,
          "velocity": 0.6692913385826772,
          "duration": 0.5357099999999946
        },
        {
          "name": "A3",
          "midi": 57,
          "time": 109.82054999999994,
          "velocity": 0.6850393700787402,
          "duration": 0.8035649999999919
        },
        {
          "name": "D4",
          "midi": 62,
          "time": 110.08840499999994,
          "velocity": 0.6850393700787402,
          "duration": 0.2678549999999973
        },
        {
          "name": "D4",
          "midi": 62,
          "time": 110.35625999999993,
          "velocity": 0.7244094488188977,
          "duration": 0.5357099999999946
        },
        {
          "name": "A3",
          "midi": 57,
          "time": 110.62411499999993,
          "velocity": 0.7244094488188977,
          "duration": 0.8035649999999919
        },
        {
          "name": "D4",
          "midi": 62,
          "time": 110.89196999999993,
          "velocity": 0.7401574803149606,
          "duration": 0.2678549999999973
        },
        {
          "name": "D4",
          "midi": 62,
          "time": 111.15982499999993,
          "velocity": 0.7559055118110236,
          "duration": 0.8035649999999919
        },
        {
          "name": "C3",
          "midi": 48,
          "time": 111.42767999999992,
          "velocity": 0.7795275590551181,
          "duration": 0.8035649999999919
        },
        {
          "name": "G3",
          "midi": 55,
          "time": 111.69553499999992,
          "velocity": 0.7952755905511811,
          "duration": 0.8035649999999919
        },
        {
          "name": "D4",
          "midi": 62,
          "time": 111.96338999999992,
          "velocity": 0.8110236220472441,
          "duration": 0.8035649999999919
        },
        {
          "name": "B2",
          "midi": 47,
          "time": 112.23124499999992,
          "velocity": 0.8346456692913385,
          "duration": 0.8035649999999919
        },
        {
          "name": "G3",
          "midi": 55,
          "time": 112.49909999999991,
          "velocity": 0.8503937007874016,
          "duration": 1.0714199999999892
        },
        {
          "name": "D4",
          "midi": 62,
          "time": 112.76695499999991,
          "velocity": 0.8503937007874016,
          "duration": 0.5357099999999946
        },
        {
          "name": "G2",
          "midi": 43,
          "time": 113.03480999999991,
          "velocity": 0.8503937007874016,
          "duration": 0.40178249999999593
        },
        {
          "name": "D4",
          "midi": 62,
          "time": 113.3026649999999,
          "velocity": 0.889763779527559,
          "duration": 0.2678549999999973
        },
        {
          "name": "D3",
          "midi": 50,
          "time": 113.5705199999999,
          "velocity": 0.84251968503937,
          "duration": 1.874984999999981
        },
        {
          "name": "D4",
          "midi": 62,
          "time": 113.8383749999999,
          "velocity": 0.84251968503937,
          "duration": 0.5357099999999946
        },
        {
          "name": "A3",
          "midi": 57,
          "time": 114.1062299999999,
          "velocity": 0.84251968503937,
          "duration": 0.8035649999999919
        },
        {
          "name": "G4",
          "midi": 67,
          "time": 114.3740849999999,
          "velocity": 0.84251968503937,
          "duration": 0.5357099999999946
        },
        {
          "name": "F#4",
          "midi": 66,
          "time": 114.90979499999989,
          "velocity": 0.84251968503937,
          "duration": 0.5357099999999946
        },
        {
          "name": "D4",
          "midi": 62,
          "time": 115.17764999999989,
          "velocity": 0.84251968503937,
          "duration": 0.5357099999999946
        },
        {
          "name": "A2",
          "midi": 45,
          "time": 115.44550499999988,
          "velocity": 0.8267716535433071,
          "duration": 0.2678549999999973
        },
        {
          "name": "C3",
          "midi": 48,
          "time": 115.71335999999988,
          "velocity": 0.8267716535433071,
          "duration": 0.8035649999999919
        },
        {
          "name": "G3",
          "midi": 55,
          "time": 115.98121499999988,
          "velocity": 0.84251968503937,
          "duration": 0.5357099999999946
        },
        {
          "name": "D4",
          "midi": 62,
          "time": 116.24906999999988,
          "velocity": 0.84251968503937,
          "duration": 0.5357099999999946
        },
        {
          "name": "B2",
          "midi": 47,
          "time": 116.51692499999987,
          "velocity": 0.8582677165354331,
          "duration": 0.8035649999999919
        },
        {
          "name": "G3",
          "midi": 55,
          "time": 116.78477999999987,
          "velocity": 0.8661417322834646,
          "duration": 0.5357099999999946
        },
        {
          "name": "D4",
          "midi": 62,
          "time": 117.05263499999987,
          "velocity": 0.8818897637795275,
          "duration": 0.5357099999999946
        },
        {
          "name": "G2",
          "midi": 43,
          "time": 117.32048999999986,
          "velocity": 0.8976377952755905,
          "duration": 0.40178249999999593
        },
        {
          "name": "D4",
          "midi": 62,
          "time": 117.58834499999986,
          "velocity": 0.8818897637795275,
          "duration": 0.2678549999999973
        },
        {
          "name": "D3",
          "midi": 50,
          "time": 117.85619999999986,
          "velocity": 0.84251968503937,
          "duration": 1.874984999999981
        },
        {
          "name": "D4",
          "midi": 62,
          "time": 118.12405499999986,
          "velocity": 0.84251968503937,
          "duration": 0.5357099999999946
        },
        {
          "name": "A3",
          "midi": 57,
          "time": 118.39190999999985,
          "velocity": 0.84251968503937,
          "duration": 0.8035649999999919
        },
        {
          "name": "G4",
          "midi": 67,
          "time": 118.65976499999985,
          "velocity": 0.84251968503937,
          "duration": 0.5357099999999946
        },
        {
          "name": "F#4",
          "midi": 66,
          "time": 119.19547499999985,
          "velocity": 0.84251968503937,
          "duration": 0.5357099999999946
        },
        {
          "name": "D4",
          "midi": 62,
          "time": 119.46332999999984,
          "velocity": 0.84251968503937,
          "duration": 0.5357099999999946
        },
        {
          "name": "A2",
          "midi": 45,
          "time": 119.73118499999984,
          "velocity": 0.8267716535433071,
          "duration": 0.2678549999999973
        },
        {
          "name": "C3",
          "midi": 48,
          "time": 119.99903999999984,
          "velocity": 0.8267716535433071,
          "duration": 0.8035649999999919
        },
        {
          "name": "G3",
          "midi": 55,
          "time": 120.26689499999983,
          "velocity": 0.84251968503937,
          "duration": 0.5357099999999946
        },
        {
          "name": "D4",
          "midi": 62,
          "time": 120.53474999999983,
          "velocity": 0.84251968503937,
          "duration": 0.5357099999999946
        },
        {
          "name": "B2",
          "midi": 47,
          "time": 120.80260499999983,
          "velocity": 0.8582677165354331,
          "duration": 0.8035649999999919
        },
        {
          "name": "G3",
          "midi": 55,
          "time": 121.07045999999983,
          "velocity": 0.8661417322834646,
          "duration": 0.5357099999999946
        },
        {
          "name": "D4",
          "midi": 62,
          "time": 121.33831499999982,
          "velocity": 0.8818897637795275,
          "duration": 0.5357099999999946
        },
        {
          "name": "G2",
          "midi": 43,
          "time": 121.60616999999982,
          "velocity": 0.8976377952755905,
          "duration": 0.40178249999999593
        },
        {
          "name": "D4",
          "midi": 62,
          "time": 121.87402499999982,
          "velocity": 0.8818897637795275,
          "duration": 0.2678549999999973
        },
        {
          "name": "D3",
          "midi": 50,
          "time": 122.14187999999982,
          "velocity": 0.84251968503937,
          "duration": 1.874984999999981
        },
        {
          "name": "D4",
          "midi": 62,
          "time": 122.40973499999981,
          "velocity": 0.84251968503937,
          "duration": 0.5357099999999946
        },
        {
          "name": "A3",
          "midi": 57,
          "time": 122.67758999999981,
          "velocity": 0.84251968503937,
          "duration": 0.8035649999999919
        },
        {
          "name": "G4",
          "midi": 67,
          "time": 122.94544499999981,
          "velocity": 0.84251968503937,
          "duration": 0.5357099999999946
        },
        {
          "name": "F#4",
          "midi": 66,
          "time": 123.4811549999998,
          "velocity": 0.84251968503937,
          "duration": 0.5357099999999946
        },
        {
          "name": "D4",
          "midi": 62,
          "time": 123.7490099999998,
          "velocity": 0.84251968503937,
          "duration": 0.5357099999999946
        },
        {
          "name": "A2",
          "midi": 45,
          "time": 124.0168649999998,
          "velocity": 0.8267716535433071,
          "duration": 0.2678549999999973
        },
        {
          "name": "C3",
          "midi": 48,
          "time": 124.2847199999998,
          "velocity": 0.8267716535433071,
          "duration": 0.8035649999999919
        },
        {
          "name": "G3",
          "midi": 55,
          "time": 124.55257499999979,
          "velocity": 0.84251968503937,
          "duration": 0.5357099999999946
        },
        {
          "name": "D4",
          "midi": 62,
          "time": 124.82042999999979,
          "velocity": 0.84251968503937,
          "duration": 0.5357099999999946
        },
        {
          "name": "B2",
          "midi": 47,
          "time": 125.08828499999979,
          "velocity": 0.8582677165354331,
          "duration": 0.8035649999999919
        },
        {
          "name": "G3",
          "midi": 55,
          "time": 125.35613999999978,
          "velocity": 0.8661417322834646,
          "duration": 0.5357099999999946
        },
        {
          "name": "D4",
          "midi": 62,
          "time": 125.62399499999978,
          "velocity": 0.8818897637795275,
          "duration": 0.5357099999999946
        },
        {
          "name": "G2",
          "midi": 43,
          "time": 125.89184999999978,
          "velocity": 0.8976377952755905,
          "duration": 0.40178249999999593
        },
        {
          "name": "D4",
          "midi": 62,
          "time": 126.15970499999978,
          "velocity": 0.8818897637795275,
          "duration": 0.2678549999999973
        },
        {
          "name": "D3",
          "midi": 50,
          "time": 126.42755999999977,
          "velocity": 0.84251968503937,
          "duration": 1.874984999999981
        },
        {
          "name": "D4",
          "midi": 62,
          "time": 126.69541499999977,
          "velocity": 0.84251968503937,
          "duration": 0.5357099999999946
        },
        {
          "name": "A3",
          "midi": 57,
          "time": 126.96326999999977,
          "velocity": 0.84251968503937,
          "duration": 0.8035649999999919
        },
        {
          "name": "G4",
          "midi": 67,
          "time": 127.23112499999976,
          "velocity": 0.84251968503937,
          "duration": 0.5357099999999946
        },
        {
          "name": "F#4",
          "midi": 66,
          "time": 127.76683499999976,
          "velocity": 0.84251968503937,
          "duration": 0.5357099999999946
        },
        {
          "name": "D4",
          "midi": 62,
          "time": 128.03468999999976,
          "velocity": 0.84251968503937,
          "duration": 0.5357099999999946
        },
        {
          "name": "A2",
          "midi": 45,
          "time": 128.30254499999975,
          "velocity": 0.8267716535433071,
          "duration": 0.2678549999999973
        },
        {
          "name": "C3",
          "midi": 48,
          "time": 128.57039999999975,
          "velocity": 0.8267716535433071,
          "duration": 0.8035649999999919
        },
        {
          "name": "G3",
          "midi": 55,
          "time": 128.83825499999975,
          "velocity": 0.84251968503937,
          "duration": 0.5357099999999946
        },
        {
          "name": "D4",
          "midi": 62,
          "time": 129.10610999999975,
          "velocity": 0.84251968503937,
          "duration": 0.5357099999999946
        },
        {
          "name": "B2",
          "midi": 47,
          "time": 129.37396499999974,
          "velocity": 0.8582677165354331,
          "duration": 0.8035649999999919
        },
        {
          "name": "G3",
          "midi": 55,
          "time": 129.64181999999974,
          "velocity": 0.8661417322834646,
          "duration": 0.5357099999999946
        },
        {
          "name": "D4",
          "midi": 62,
          "time": 129.90967499999974,
          "velocity": 0.8818897637795275,
          "duration": 0.5357099999999946
        },
        {
          "name": "G2",
          "midi": 43,
          "time": 130.17752999999973,
          "velocity": 0.8976377952755905,
          "duration": 0.40178249999999593
        },
        {
          "name": "D4",
          "midi": 62,
          "time": 130.44538499999973,
          "velocity": 0.8818897637795275,
          "duration": 0.2678549999999973
        }
      ],
      "controlChanges": {
        "1": [
          {
            "number": 1,
            "time": 1.4062387500000002,
            "value": 0
          }
        ],
        "2": [
          {
            "number": 2,
            "time": 1.8080212500000001,
            "value": 0
          }
        ],
        "7": [
          {
            "number": 7,
            "time": 1.2388293750000001,
            "value": 1
          }
        ],
        "10": [
          {
            "number": 10,
            "time": 1.305793125,
            "value": 0.5039370078740157
          }
        ],
        "32": [
          {
            "number": 32,
            "time": 1.1718656250000001,
            "value": 0
          }
        ],
        "91": [
          {
            "number": 91,
            "time": 1.5401662500000002,
            "value": 1
          }
        ],
        "93": [
          {
            "number": 93,
            "time": 1.6740937500000002,
            "value": 0.3937007874015748
          }
        ],
        "121": [
          {
            "number": 121,
            "time": 0.859368125,
            "value": 0
          }
        ]
      },
      "id": 2,
      "name": "12String",
      "instrumentNumber": 25,
      "instrument": "acoustic guitar (steel)",
      "instrumentFamily": "guitar",
      "channelNumber": 1,
      "isPercussion": false
    },
    {
      "startTime": 17.14272,
      "duration": 77.14224000000003,
      "length": 117,
      "notes": [
        {
          "name": "D4",
          "midi": 62,
          "time": 17.14272,
          "velocity": 0.5748031496062992,
          "duration": 0.7617126562499976
        },
        {
          "name": "E3",
          "midi": 52,
          "time": 17.14272,
          "velocity": 0.5748031496062992,
          "duration": 0.7617126562499976
        },
        {
          "name": "A3",
          "midi": 57,
          "time": 17.153880625,
          "velocity": 0.5748031496062992,
          "duration": 0.7617126562499976
        },
        {
          "name": "E4",
          "midi": 64,
          "time": 17.1873625,
          "velocity": 0.6850393700787402,
          "duration": 0.7617126562499976
        },
        {
          "name": "D3",
          "midi": 50,
          "time": 17.968606249999997,
          "velocity": 0.5354330708661418,
          "duration": 0.7728732812499999
        },
        {
          "name": "G3",
          "midi": 55,
          "time": 17.974186562499998,
          "velocity": 0.6377952755905512,
          "duration": 0.7728732812499999
        },
        {
          "name": "B3",
          "midi": 59,
          "time": 17.981161953125,
          "velocity": 0.5354330708661418,
          "duration": 0.7728732812499999
        },
        {
          "name": "D4",
          "midi": 62,
          "time": 17.990927499999998,
          "velocity": 0.6377952755905512,
          "duration": 0.7728732812500034
        },
        {
          "name": "A2",
          "midi": 45,
          "time": 18.74985,
          "velocity": 0.5039370078740157,
          "duration": 0.2929664062500059
        },
        {
          "name": "D3",
          "midi": 50,
          "time": 18.761010625,
          "velocity": 0.5039370078740157,
          "duration": 0.29296640625000236
        },
        {
          "name": "F#3",
          "midi": 54,
          "time": 18.783331875000002,
          "velocity": 0.5039370078740157,
          "duration": 0.29296640625000236
        },
        {
          "name": "A3",
          "midi": 57,
          "time": 18.805653125000003,
          "velocity": 0.5905511811023622,
          "duration": 0.29296640625000236
        },
        {
          "name": "F#3",
          "midi": 54,
          "time": 19.285560000000004,
          "velocity": 0.47244094488188976,
          "duration": 1.93357828125
        },
        {
          "name": "A3",
          "midi": 57,
          "time": 19.293930468750006,
          "velocity": 0.47244094488188976,
          "duration": 1.93357828125
        },
        {
          "name": "D4",
          "midi": 62,
          "time": 19.299510781250007,
          "velocity": 0.5748031496062992,
          "duration": 1.93357828125
        },
        {
          "name": "F#4",
          "midi": 66,
          "time": 19.310671406250005,
          "velocity": 0.6692913385826772,
          "duration": 2.053555000000003
        },
        {
          "name": "E3",
          "midi": 52,
          "time": 21.41723937500001,
          "velocity": 0.5748031496062992,
          "duration": 0.7617126562499976
        },
        {
          "name": "A3",
          "midi": 57,
          "time": 21.428400000000007,
          "velocity": 0.5748031496062992,
          "duration": 0.7617126562499976
        },
        {
          "name": "D4",
          "midi": 62,
          "time": 21.481412968750007,
          "velocity": 0.5748031496062992,
          "duration": 0.7617126562499976
        },
        {
          "name": "E4",
          "midi": 64,
          "time": 21.484203125000008,
          "velocity": 0.6850393700787402,
          "duration": 0.7617126562499976
        },
        {
          "name": "D3",
          "midi": 50,
          "time": 22.243125625000005,
          "velocity": 0.5354330708661418,
          "duration": 0.7728732812499999
        },
        {
          "name": "G3",
          "midi": 55,
          "time": 22.248705937500006,
          "velocity": 0.6377952755905512,
          "duration": 0.7728732812499999
        },
        {
          "name": "B3",
          "midi": 59,
          "time": 22.255681328125007,
          "velocity": 0.5354330708661418,
          "duration": 0.7728732812499999
        },
        {
          "name": "D4",
          "midi": 62,
          "time": 22.265446875000006,
          "velocity": 0.6377952755905512,
          "duration": 0.7728732812500034
        },
        {
          "name": "A2",
          "midi": 45,
          "time": 23.024369375000006,
          "velocity": 0.5039370078740157,
          "duration": 0.2929664062500059
        },
        {
          "name": "D3",
          "midi": 50,
          "time": 23.03553000000001,
          "velocity": 0.5039370078740157,
          "duration": 0.29296640625000236
        },
        {
          "name": "F#3",
          "midi": 54,
          "time": 23.05785125000001,
          "velocity": 0.5039370078740157,
          "duration": 0.29296640625000236
        },
        {
          "name": "A3",
          "midi": 57,
          "time": 23.08017250000001,
          "velocity": 0.5905511811023622,
          "duration": 0.29296640625000236
        },
        {
          "name": "F#3",
          "midi": 54,
          "time": 23.571240000000014,
          "velocity": 0.5748031496062992,
          "duration": 1.93357828125
        },
        {
          "name": "A3",
          "midi": 57,
          "time": 23.582400625000012,
          "velocity": 0.5748031496062992,
          "duration": 1.93357828125
        },
        {
          "name": "D4",
          "midi": 62,
          "time": 23.604721875000013,
          "velocity": 0.5748031496062992,
          "duration": 1.93357828125
        },
        {
          "name": "F#4",
          "midi": 66,
          "time": 23.615882500000012,
          "velocity": 0.6220472440944882,
          "duration": 2.031233750000002
        },
        {
          "name": "E3",
          "midi": 52,
          "time": 25.714080000000013,
          "velocity": 0.5748031496062992,
          "duration": 0.7617126562500012
        },
        {
          "name": "A3",
          "midi": 57,
          "time": 25.725240625000012,
          "velocity": 0.5748031496062992,
          "duration": 0.7617126562500012
        },
        {
          "name": "D4",
          "midi": 62,
          "time": 25.75593234375001,
          "velocity": 0.5748031496062992,
          "duration": 0.7617126562500012
        },
        {
          "name": "E4",
          "midi": 64,
          "time": 25.781043750000013,
          "velocity": 0.6850393700787402,
          "duration": 0.7617126562500012
        },
        {
          "name": "D3",
          "midi": 50,
          "time": 26.539966250000013,
          "velocity": 0.5354330708661418,
          "duration": 0.7728732812499999
        },
        {
          "name": "G3",
          "midi": 55,
          "time": 26.545546562500014,
          "velocity": 0.6377952755905512,
          "duration": 0.7728732812499999
        },
        {
          "name": "B3",
          "midi": 59,
          "time": 26.552521953125016,
          "velocity": 0.5354330708661418,
          "duration": 0.7728732812499999
        },
        {
          "name": "D4",
          "midi": 62,
          "time": 26.562287500000014,
          "velocity": 0.6377952755905512,
          "duration": 0.7728732812500034
        },
        {
          "name": "A2",
          "midi": 45,
          "time": 27.321210000000015,
          "velocity": 0.5039370078740157,
          "duration": 0.2929664062500059
        },
        {
          "name": "D3",
          "midi": 50,
          "time": 27.332370625000017,
          "velocity": 0.5039370078740157,
          "duration": 0.29296640625000236
        },
        {
          "name": "F#3",
          "midi": 54,
          "time": 27.354691875000018,
          "velocity": 0.5039370078740157,
          "duration": 0.29296640625000236
        },
        {
          "name": "A3",
          "midi": 57,
          "time": 27.37701312500002,
          "velocity": 0.5905511811023622,
          "duration": 0.29296640625000236
        },
        {
          "name": "F#3",
          "midi": 54,
          "time": 27.868080625000022,
          "velocity": 0.5748031496062992,
          "duration": 1.93357828125
        },
        {
          "name": "A3",
          "midi": 57,
          "time": 27.87924125000002,
          "velocity": 0.5748031496062992,
          "duration": 1.93357828125
        },
        {
          "name": "D4",
          "midi": 62,
          "time": 27.901562500000022,
          "velocity": 0.5748031496062992,
          "duration": 1.93357828125
        },
        {
          "name": "F#4",
          "midi": 66,
          "time": 27.91272312500002,
          "velocity": 0.6220472440944882,
          "duration": 2.031233750000002
        },
        {
          "name": "E3",
          "midi": 52,
          "time": 29.999760000000023,
          "velocity": 0.5748031496062992,
          "duration": 0.7617126562499976
        },
        {
          "name": "A3",
          "midi": 57,
          "time": 30.010920625000022,
          "velocity": 0.5748031496062992,
          "duration": 0.7617126562499976
        },
        {
          "name": "D4",
          "midi": 62,
          "time": 30.04440250000002,
          "velocity": 0.5748031496062992,
          "duration": 0.7617126562499976
        },
        {
          "name": "E4",
          "midi": 64,
          "time": 30.066723750000023,
          "velocity": 0.6850393700787402,
          "duration": 0.7617126562499976
        },
        {
          "name": "D3",
          "midi": 50,
          "time": 30.82564625000002,
          "velocity": 0.5354330708661418,
          "duration": 0.7728732812499999
        },
        {
          "name": "G3",
          "midi": 55,
          "time": 30.83122656250002,
          "velocity": 0.6377952755905512,
          "duration": 0.7728732812499999
        },
        {
          "name": "B3",
          "midi": 59,
          "time": 30.838201953125022,
          "velocity": 0.5354330708661418,
          "duration": 0.7728732812499999
        },
        {
          "name": "D4",
          "midi": 62,
          "time": 30.84796750000002,
          "velocity": 0.6377952755905512,
          "duration": 0.7728732812500034
        },
        {
          "name": "A2",
          "midi": 45,
          "time": 31.60689000000002,
          "velocity": 0.5039370078740157,
          "duration": 0.2929664062500059
        },
        {
          "name": "D3",
          "midi": 50,
          "time": 31.618050625000024,
          "velocity": 0.5039370078740157,
          "duration": 0.29296640625000236
        },
        {
          "name": "F#3",
          "midi": 54,
          "time": 31.640371875000024,
          "velocity": 0.5039370078740157,
          "duration": 0.29296640625000236
        },
        {
          "name": "A3",
          "midi": 57,
          "time": 31.662693125000025,
          "velocity": 0.5905511811023622,
          "duration": 0.29296640625000236
        },
        {
          "name": "F#3",
          "midi": 54,
          "time": 32.153760625000025,
          "velocity": 0.5748031496062992,
          "duration": 1.93357828125
        },
        {
          "name": "A3",
          "midi": 57,
          "time": 32.16492125000003,
          "velocity": 0.5748031496062992,
          "duration": 1.93357828125
        },
        {
          "name": "D4",
          "midi": 62,
          "time": 32.187242500000025,
          "velocity": 0.5748031496062992,
          "duration": 1.93357828125
        },
        {
          "name": "F#4",
          "midi": 66,
          "time": 32.19840312500003,
          "velocity": 0.6220472440944882,
          "duration": 2.0312337499999984
        },
        {
          "name": "C3",
          "midi": 48,
          "time": 34.28544000000002,
          "velocity": 0.5039370078740157,
          "duration": 1.9754306249999942
        },
        {
          "name": "G3",
          "midi": 55,
          "time": 34.30776125000002,
          "velocity": 0.5039370078740157,
          "duration": 1.9977518749999987
        },
        {
          "name": "D4",
          "midi": 62,
          "time": 34.33008250000002,
          "velocity": 0.5039370078740157,
          "duration": 1.9977518749999987
        },
        {
          "name": "E4",
          "midi": 64,
          "time": 34.34124312500002,
          "velocity": 0.5748031496062992,
          "duration": 2.053554999999996
        },
        {
          "name": "B2",
          "midi": 47,
          "time": 36.428280000000015,
          "velocity": 0.5196850393700787,
          "duration": 1.9531093749999968
        },
        {
          "name": "G3",
          "midi": 55,
          "time": 36.461761875000015,
          "velocity": 0.5196850393700787,
          "duration": 1.9307881249999994
        },
        {
          "name": "B3",
          "midi": 59,
          "time": 36.47292250000002,
          "velocity": 0.5196850393700787,
          "duration": 1.9531093749999968
        },
        {
          "name": "D4",
          "midi": 62,
          "time": 36.495243750000014,
          "velocity": 0.6062992125984252,
          "duration": 2.020073124999996
        },
        {
          "name": "E3",
          "midi": 52,
          "time": 68.57088000000002,
          "velocity": 0.6535433070866141,
          "duration": 1.3225340625000115
        },
        {
          "name": "G3",
          "midi": 55,
          "time": 68.58483078125002,
          "velocity": 0.7559055118110236,
          "duration": 1.3225340625000115
        },
        {
          "name": "B3",
          "midi": 59,
          "time": 68.59878156250002,
          "velocity": 0.7165354330708661,
          "duration": 1.305793125000008
        },
        {
          "name": "D4",
          "midi": 62,
          "time": 68.61273234375003,
          "velocity": 0.7874015748031497,
          "duration": 1.2974226562500064
        },
        {
          "name": "E4",
          "midi": 64,
          "time": 68.62668312500003,
          "velocity": 0.6299212598425197,
          "duration": 1.2890521875000047
        },
        {
          "name": "E4",
          "midi": 64,
          "time": 69.91015500000003,
          "velocity": 0.6299212598425197,
          "duration": 0.8035650000000061
        },
        {
          "name": "D4",
          "midi": 62,
          "time": 69.91015500000003,
          "velocity": 0.7874015748031497,
          "duration": 0.8035650000000061
        },
        {
          "name": "B3",
          "midi": 59,
          "time": 69.91015500000003,
          "velocity": 0.7165354330708661,
          "duration": 0.8035650000000061
        },
        {
          "name": "G3",
          "midi": 55,
          "time": 69.91015500000003,
          "velocity": 0.7559055118110236,
          "duration": 0.8035650000000061
        },
        {
          "name": "E3",
          "midi": 52,
          "time": 69.91015500000003,
          "velocity": 0.6535433070866141,
          "duration": 0.8035650000000061
        },
        {
          "name": "E4",
          "midi": 64,
          "time": 70.71372000000004,
          "velocity": 0.6299212598425197,
          "duration": 0.2678549999999973
        },
        {
          "name": "D4",
          "midi": 62,
          "time": 70.71372000000004,
          "velocity": 0.8031496062992126,
          "duration": 0.2678549999999973
        },
        {
          "name": "B3",
          "midi": 59,
          "time": 70.71372000000004,
          "velocity": 0.7165354330708661,
          "duration": 0.2678549999999973
        },
        {
          "name": "G3",
          "midi": 55,
          "time": 70.71372000000004,
          "velocity": 0.7559055118110236,
          "duration": 0.2678549999999973
        },
        {
          "name": "E3",
          "midi": 52,
          "time": 70.71372000000004,
          "velocity": 0.6535433070866141,
          "duration": 0.2678549999999973
        },
        {
          "name": "E4",
          "midi": 64,
          "time": 70.98157500000003,
          "velocity": 0.6299212598425197,
          "duration": 0.5357099999999946
        },
        {
          "name": "C#4",
          "midi": 61,
          "time": 70.98157500000003,
          "velocity": 0.7952755905511811,
          "duration": 0.5357099999999946
        },
        {
          "name": "B3",
          "midi": 59,
          "time": 70.98157500000003,
          "velocity": 0.7165354330708661,
          "duration": 0.5357099999999946
        },
        {
          "name": "G3",
          "midi": 55,
          "time": 70.98157500000003,
          "velocity": 0.7559055118110236,
          "duration": 0.5357099999999946
        },
        {
          "name": "E3",
          "midi": 52,
          "time": 70.98157500000003,
          "velocity": 0.6535433070866141,
          "duration": 0.5357099999999946
        },
        {
          "name": "E4",
          "midi": 64,
          "time": 71.51728500000003,
          "velocity": 0.6299212598425197,
          "duration": 0.5357099999999946
        },
        {
          "name": "B3",
          "midi": 59,
          "time": 71.51728500000003,
          "velocity": 0.7874015748031497,
          "duration": 0.5357099999999946
        },
        {
          "name": "G3",
          "midi": 55,
          "time": 71.51728500000003,
          "velocity": 0.7559055118110236,
          "duration": 0.5357099999999946
        },
        {
          "name": "E3",
          "midi": 52,
          "time": 71.51728500000003,
          "velocity": 0.6535433070866141,
          "duration": 0.5357099999999946
        },
        {
          "name": "E4",
          "midi": 64,
          "time": 72.05299500000002,
          "velocity": 0.7559055118110236,
          "duration": 0.6696374999999932
        },
        {
          "name": "B3",
          "midi": 59,
          "time": 72.05299500000002,
          "velocity": 0.7559055118110236,
          "duration": 0.6696374999999932
        },
        {
          "name": "C#4",
          "midi": 61,
          "time": 72.05299500000002,
          "velocity": 0.7559055118110236,
          "duration": 0.6696374999999932
        },
        {
          "name": "G3",
          "midi": 55,
          "time": 72.05299500000002,
          "velocity": 0.7559055118110236,
          "duration": 0.6696374999999932
        },
        {
          "name": "E3",
          "midi": 52,
          "time": 72.05299500000002,
          "velocity": 0.7559055118110236,
          "duration": 0.6696374999999932
        },
        {
          "name": "B2",
          "midi": 47,
          "time": 72.85656000000002,
          "velocity": 0.6220472440944882,
          "duration": 1.0714200000000034
        },
        {
          "name": "F#3",
          "midi": 54,
          "time": 72.85656000000002,
          "velocity": 0.6220472440944882,
          "duration": 1.0714200000000034
        },
        {
          "name": "D3",
          "midi": 50,
          "time": 72.85656000000002,
          "velocity": 0.6220472440944882,
          "duration": 1.0714200000000034
        },
        {
          "name": "B3",
          "midi": 59,
          "time": 72.85656000000002,
          "velocity": 0.6220472440944882,
          "duration": 1.0714200000000034
        },
        {
          "name": "A2",
          "midi": 45,
          "time": 73.92798000000002,
          "velocity": 0.5590551181102362,
          "duration": 1.0714200000000034
        },
        {
          "name": "F#3",
          "midi": 54,
          "time": 73.92798000000002,
          "velocity": 0.5590551181102362,
          "duration": 1.0714200000000034
        },
        {
          "name": "D3",
          "midi": 50,
          "time": 73.92798000000002,
          "velocity": 0.5590551181102362,
          "duration": 1.0714200000000034
        },
        {
          "name": "A3",
          "midi": 57,
          "time": 73.92798000000002,
          "velocity": 0.5590551181102362,
          "duration": 1.0714200000000034
        },
        {
          "name": "B2",
          "midi": 47,
          "time": 74.99940000000002,
          "velocity": 0.5433070866141733,
          "duration": 1.0714200000000034
        },
        {
          "name": "G2",
          "midi": 43,
          "time": 74.99940000000002,
          "velocity": 0.5433070866141733,
          "duration": 1.0714200000000034
        },
        {
          "name": "D3",
          "midi": 50,
          "time": 74.99940000000002,
          "velocity": 0.5433070866141733,
          "duration": 1.0714200000000034
        },
        {
          "name": "G3",
          "midi": 55,
          "time": 74.99940000000002,
          "velocity": 0.5433070866141733,
          "duration": 1.0714200000000034
        },
        {
          "name": "A2",
          "midi": 45,
          "time": 76.07082000000003,
          "velocity": 0.5275590551181102,
          "duration": 1.0714200000000034
        },
        {
          "name": "D3",
          "midi": 50,
          "time": 76.07082000000003,
          "velocity": 0.5275590551181102,
          "duration": 1.0714200000000034
        },
        {
          "name": "F#3",
          "midi": 54,
          "time": 76.07082000000003,
          "velocity": 0.5275590551181102,
          "duration": 1.0714200000000034
        },
        {
          "name": "F#2",
          "midi": 42,
          "time": 76.07082000000003,
          "velocity": 0.5275590551181102,
          "duration": 1.0714200000000034
        }
      ],
      "controlChanges": {
        "1": [
          {
            "number": 1,
            "time": 1.4062387500000002,
            "value": 0
          }
        ],
        "2": [
          {
            "number": 2,
            "time": 1.8080212500000001,
            "value": 0
          }
        ],
        "7": [
          {
            "number": 7,
            "time": 1.2388293750000001,
            "value": 1
          }
        ],
        "10": [
          {
            "number": 10,
            "time": 1.305793125,
            "value": 0.5039370078740157
          }
        ],
        "32": [
          {
            "number": 32,
            "time": 1.1718656250000001,
            "value": 0
          }
        ],
        "91": [
          {
            "number": 91,
            "time": 1.5401662500000002,
            "value": 1
          }
        ],
        "93": [
          {
            "number": 93,
            "time": 1.6740937500000002,
            "value": 0.3937007874015748
          }
        ],
        "121": [
          {
            "number": 121,
            "time": 0.9040106250000001,
            "value": 0
          }
        ]
      },
      "id": 3,
      "name": "CleanGuitr",
      "instrumentNumber": 27,
      "instrument": "electric guitar (clean)",
      "instrumentFamily": "guitar",
      "channelNumber": 2,
      "isPercussion": false
    },
    {
      "startTime": 42.85680000000001,
      "duration": 201.2930324999994,
      "length": 576,
      "notes": [
        {
          "name": "B2",
          "midi": 47,
          "time": 42.85680000000001,
          "velocity": 0.5826771653543307,
          "duration": 0.40178250000000304
        },
        {
          "name": "G2",
          "midi": 43,
          "time": 42.85680000000001,
          "velocity": 0.7007874015748031,
          "duration": 0.40178250000000304
        },
        {
          "name": "B2",
          "midi": 47,
          "time": 43.39251000000001,
          "velocity": 0.6062992125984252,
          "duration": 0.2678549999999973
        },
        {
          "name": "G2",
          "midi": 43,
          "time": 43.39251000000001,
          "velocity": 0.7244094488188977,
          "duration": 0.2678549999999973
        },
        {
          "name": "B2",
          "midi": 47,
          "time": 43.660365000000006,
          "velocity": 0.6062992125984252,
          "duration": 0.2678549999999973
        },
        {
          "name": "G2",
          "midi": 43,
          "time": 43.660365000000006,
          "velocity": 0.7244094488188977,
          "duration": 0.2678549999999973
        },
        {
          "name": "C3",
          "midi": 48,
          "time": 44.196075,
          "velocity": 0.7244094488188977,
          "duration": 0.13392749999999864
        },
        {
          "name": "E3",
          "midi": 52,
          "time": 44.196075,
          "velocity": 0.6062992125984252,
          "duration": 0.13392749999999864
        },
        {
          "name": "C3",
          "midi": 48,
          "time": 44.46393,
          "velocity": 0.7244094488188977,
          "duration": 0.40178250000000304
        },
        {
          "name": "E3",
          "midi": 52,
          "time": 44.46393,
          "velocity": 0.6062992125984252,
          "duration": 0.40178250000000304
        },
        {
          "name": "E3",
          "midi": 52,
          "time": 44.99964,
          "velocity": 0.7244094488188977,
          "duration": 0.2678549999999973
        },
        {
          "name": "G3",
          "midi": 55,
          "time": 44.99964,
          "velocity": 0.6062992125984252,
          "duration": 0.2678549999999973
        },
        {
          "name": "E3",
          "midi": 52,
          "time": 45.401422499999995,
          "velocity": 0.7086614173228346,
          "duration": 0.13392749999999864
        },
        {
          "name": "G3",
          "midi": 55,
          "time": 45.401422499999995,
          "velocity": 0.6062992125984252,
          "duration": 0.13392749999999864
        },
        {
          "name": "E3",
          "midi": 52,
          "time": 45.535349999999994,
          "velocity": 0.7086614173228346,
          "duration": 0.13392749999999864
        },
        {
          "name": "G3",
          "midi": 55,
          "time": 45.535349999999994,
          "velocity": 0.6062992125984252,
          "duration": 0.13392749999999864
        },
        {
          "name": "E3",
          "midi": 52,
          "time": 45.80320499999999,
          "velocity": 0.7007874015748031,
          "duration": 0.2678549999999973
        },
        {
          "name": "G3",
          "midi": 55,
          "time": 45.80320499999999,
          "velocity": 0.6062992125984252,
          "duration": 0.2678549999999973
        },
        {
          "name": "D3",
          "midi": 50,
          "time": 46.338914999999986,
          "velocity": 0.7007874015748031,
          "duration": 0.13392749999999864
        },
        {
          "name": "F#3",
          "midi": 54,
          "time": 46.338914999999986,
          "velocity": 0.6062992125984252,
          "duration": 0.13392749999999864
        },
        {
          "name": "D3",
          "midi": 50,
          "time": 46.60676999999998,
          "velocity": 0.7086614173228346,
          "duration": 0.2678549999999973
        },
        {
          "name": "F#3",
          "midi": 54,
          "time": 46.60676999999998,
          "velocity": 0.6062992125984252,
          "duration": 0.2678549999999973
        },
        {
          "name": "A2",
          "midi": 45,
          "time": 46.87462499999998,
          "velocity": 0.6062992125984252,
          "duration": 0.2678549999999973
        },
        {
          "name": "F#2",
          "midi": 42,
          "time": 46.87462499999998,
          "velocity": 0.7244094488188977,
          "duration": 0.2678549999999973
        },
        {
          "name": "B2",
          "midi": 47,
          "time": 47.14247999999998,
          "velocity": 0.5826771653543307,
          "duration": 0.40178250000000304
        },
        {
          "name": "G2",
          "midi": 43,
          "time": 47.14247999999998,
          "velocity": 0.7007874015748031,
          "duration": 0.40178250000000304
        },
        {
          "name": "B2",
          "midi": 47,
          "time": 47.67818999999998,
          "velocity": 0.6062992125984252,
          "duration": 0.2678549999999973
        },
        {
          "name": "G2",
          "midi": 43,
          "time": 47.67818999999998,
          "velocity": 0.7244094488188977,
          "duration": 0.2678549999999973
        },
        {
          "name": "B2",
          "midi": 47,
          "time": 47.94604499999998,
          "velocity": 0.6062992125984252,
          "duration": 0.2678549999999973
        },
        {
          "name": "G2",
          "midi": 43,
          "time": 47.94604499999998,
          "velocity": 0.7244094488188977,
          "duration": 0.2678549999999973
        },
        {
          "name": "C3",
          "midi": 48,
          "time": 48.48175499999997,
          "velocity": 0.7244094488188977,
          "duration": 0.13392749999999864
        },
        {
          "name": "E3",
          "midi": 52,
          "time": 48.48175499999997,
          "velocity": 0.6062992125984252,
          "duration": 0.13392749999999864
        },
        {
          "name": "C3",
          "midi": 48,
          "time": 48.74960999999997,
          "velocity": 0.7244094488188977,
          "duration": 0.40178250000000304
        },
        {
          "name": "E3",
          "midi": 52,
          "time": 48.74960999999997,
          "velocity": 0.6062992125984252,
          "duration": 0.40178250000000304
        },
        {
          "name": "E3",
          "midi": 52,
          "time": 49.28531999999997,
          "velocity": 0.7244094488188977,
          "duration": 0.2678549999999973
        },
        {
          "name": "G3",
          "midi": 55,
          "time": 49.28531999999997,
          "velocity": 0.6062992125984252,
          "duration": 0.2678549999999973
        },
        {
          "name": "E3",
          "midi": 52,
          "time": 49.687102499999966,
          "velocity": 0.7086614173228346,
          "duration": 0.13392749999999864
        },
        {
          "name": "G3",
          "midi": 55,
          "time": 49.687102499999966,
          "velocity": 0.6062992125984252,
          "duration": 0.13392749999999864
        },
        {
          "name": "E3",
          "midi": 52,
          "time": 49.821029999999965,
          "velocity": 0.7086614173228346,
          "duration": 0.13392749999999864
        },
        {
          "name": "G3",
          "midi": 55,
          "time": 49.821029999999965,
          "velocity": 0.6062992125984252,
          "duration": 0.13392749999999864
        },
        {
          "name": "E3",
          "midi": 52,
          "time": 50.08888499999996,
          "velocity": 0.7007874015748031,
          "duration": 0.2678549999999973
        },
        {
          "name": "G3",
          "midi": 55,
          "time": 50.08888499999996,
          "velocity": 0.6062992125984252,
          "duration": 0.2678549999999973
        },
        {
          "name": "D3",
          "midi": 50,
          "time": 50.62459499999996,
          "velocity": 0.7007874015748031,
          "duration": 0.13392749999999864
        },
        {
          "name": "F#3",
          "midi": 54,
          "time": 50.62459499999996,
          "velocity": 0.6062992125984252,
          "duration": 0.13392749999999864
        },
        {
          "name": "D3",
          "midi": 50,
          "time": 50.892449999999954,
          "velocity": 0.7086614173228346,
          "duration": 0.2678549999999973
        },
        {
          "name": "F#3",
          "midi": 54,
          "time": 50.892449999999954,
          "velocity": 0.6062992125984252,
          "duration": 0.2678549999999973
        },
        {
          "name": "A2",
          "midi": 45,
          "time": 51.16030499999995,
          "velocity": 0.6062992125984252,
          "duration": 0.2678549999999973
        },
        {
          "name": "F#2",
          "midi": 42,
          "time": 51.16030499999995,
          "velocity": 0.7244094488188977,
          "duration": 0.2678549999999973
        },
        {
          "name": "B2",
          "midi": 47,
          "time": 51.42815999999995,
          "velocity": 0.5826771653543307,
          "duration": 0.40178250000000304
        },
        {
          "name": "G2",
          "midi": 43,
          "time": 51.42815999999995,
          "velocity": 0.7007874015748031,
          "duration": 0.40178250000000304
        },
        {
          "name": "B2",
          "midi": 47,
          "time": 51.96386999999995,
          "velocity": 0.6062992125984252,
          "duration": 0.2678549999999973
        },
        {
          "name": "G2",
          "midi": 43,
          "time": 51.96386999999995,
          "velocity": 0.7244094488188977,
          "duration": 0.2678549999999973
        },
        {
          "name": "B2",
          "midi": 47,
          "time": 52.23172499999995,
          "velocity": 0.6062992125984252,
          "duration": 0.2678549999999973
        },
        {
          "name": "G2",
          "midi": 43,
          "time": 52.23172499999995,
          "velocity": 0.7244094488188977,
          "duration": 0.2678549999999973
        },
        {
          "name": "C3",
          "midi": 48,
          "time": 52.76743499999994,
          "velocity": 0.7244094488188977,
          "duration": 0.13392749999999864
        },
        {
          "name": "E3",
          "midi": 52,
          "time": 52.76743499999994,
          "velocity": 0.6062992125984252,
          "duration": 0.13392749999999864
        },
        {
          "name": "C3",
          "midi": 48,
          "time": 53.03528999999994,
          "velocity": 0.7244094488188977,
          "duration": 0.40178250000000304
        },
        {
          "name": "E3",
          "midi": 52,
          "time": 53.03528999999994,
          "velocity": 0.6062992125984252,
          "duration": 0.40178250000000304
        },
        {
          "name": "E3",
          "midi": 52,
          "time": 53.57099999999994,
          "velocity": 0.7244094488188977,
          "duration": 0.2678549999999973
        },
        {
          "name": "G3",
          "midi": 55,
          "time": 53.57099999999994,
          "velocity": 0.6062992125984252,
          "duration": 0.2678549999999973
        },
        {
          "name": "E3",
          "midi": 52,
          "time": 53.97278249999994,
          "velocity": 0.7086614173228346,
          "duration": 0.13392749999999864
        },
        {
          "name": "G3",
          "midi": 55,
          "time": 53.97278249999994,
          "velocity": 0.6062992125984252,
          "duration": 0.13392749999999864
        },
        {
          "name": "E3",
          "midi": 52,
          "time": 54.106709999999936,
          "velocity": 0.7086614173228346,
          "duration": 0.13392749999999864
        },
        {
          "name": "G3",
          "midi": 55,
          "time": 54.106709999999936,
          "velocity": 0.6062992125984252,
          "duration": 0.13392749999999864
        },
        {
          "name": "E3",
          "midi": 52,
          "time": 54.37456499999993,
          "velocity": 0.7007874015748031,
          "duration": 0.2678549999999973
        },
        {
          "name": "G3",
          "midi": 55,
          "time": 54.37456499999993,
          "velocity": 0.6062992125984252,
          "duration": 0.2678549999999973
        },
        {
          "name": "D3",
          "midi": 50,
          "time": 54.91027499999993,
          "velocity": 0.7007874015748031,
          "duration": 0.13392749999999864
        },
        {
          "name": "F#3",
          "midi": 54,
          "time": 54.91027499999993,
          "velocity": 0.6062992125984252,
          "duration": 0.13392749999999864
        },
        {
          "name": "D3",
          "midi": 50,
          "time": 55.178129999999925,
          "velocity": 0.7086614173228346,
          "duration": 0.2678549999999973
        },
        {
          "name": "F#3",
          "midi": 54,
          "time": 55.178129999999925,
          "velocity": 0.6062992125984252,
          "duration": 0.2678549999999973
        },
        {
          "name": "A2",
          "midi": 45,
          "time": 55.44598499999992,
          "velocity": 0.6062992125984252,
          "duration": 0.2678549999999973
        },
        {
          "name": "F#2",
          "midi": 42,
          "time": 55.44598499999992,
          "velocity": 0.7244094488188977,
          "duration": 0.2678549999999973
        },
        {
          "name": "B2",
          "midi": 47,
          "time": 55.71383999999992,
          "velocity": 0.5826771653543307,
          "duration": 0.40178250000000304
        },
        {
          "name": "G2",
          "midi": 43,
          "time": 55.71383999999992,
          "velocity": 0.7007874015748031,
          "duration": 0.40178250000000304
        },
        {
          "name": "B2",
          "midi": 47,
          "time": 56.24954999999992,
          "velocity": 0.6062992125984252,
          "duration": 0.2678549999999973
        },
        {
          "name": "G2",
          "midi": 43,
          "time": 56.24954999999992,
          "velocity": 0.7244094488188977,
          "duration": 0.2678549999999973
        },
        {
          "name": "B2",
          "midi": 47,
          "time": 56.51740499999992,
          "velocity": 0.6062992125984252,
          "duration": 0.2678549999999973
        },
        {
          "name": "G2",
          "midi": 43,
          "time": 56.51740499999992,
          "velocity": 0.7244094488188977,
          "duration": 0.2678549999999973
        },
        {
          "name": "C3",
          "midi": 48,
          "time": 57.05311499999991,
          "velocity": 0.7244094488188977,
          "duration": 0.13392749999999864
        },
        {
          "name": "E3",
          "midi": 52,
          "time": 57.05311499999991,
          "velocity": 0.6062992125984252,
          "duration": 0.13392749999999864
        },
        {
          "name": "C3",
          "midi": 48,
          "time": 57.32096999999991,
          "velocity": 0.7244094488188977,
          "duration": 0.40178250000000304
        },
        {
          "name": "E3",
          "midi": 52,
          "time": 57.32096999999991,
          "velocity": 0.6062992125984252,
          "duration": 0.40178250000000304
        },
        {
          "name": "E3",
          "midi": 52,
          "time": 57.85667999999991,
          "velocity": 0.7244094488188977,
          "duration": 0.2678549999999973
        },
        {
          "name": "G3",
          "midi": 55,
          "time": 57.85667999999991,
          "velocity": 0.6062992125984252,
          "duration": 0.2678549999999973
        },
        {
          "name": "E3",
          "midi": 52,
          "time": 58.25846249999991,
          "velocity": 0.7086614173228346,
          "duration": 0.13392749999999864
        },
        {
          "name": "G3",
          "midi": 55,
          "time": 58.25846249999991,
          "velocity": 0.6062992125984252,
          "duration": 0.13392749999999864
        },
        {
          "name": "E3",
          "midi": 52,
          "time": 58.39238999999991,
          "velocity": 0.7086614173228346,
          "duration": 0.13392749999999864
        },
        {
          "name": "G3",
          "midi": 55,
          "time": 58.39238999999991,
          "velocity": 0.6062992125984252,
          "duration": 0.13392749999999864
        },
        {
          "name": "E3",
          "midi": 52,
          "time": 58.660244999999904,
          "velocity": 0.7007874015748031,
          "duration": 0.2678549999999973
        },
        {
          "name": "G3",
          "midi": 55,
          "time": 58.660244999999904,
          "velocity": 0.6062992125984252,
          "duration": 0.2678549999999973
        },
        {
          "name": "D3",
          "midi": 50,
          "time": 59.1959549999999,
          "velocity": 0.7007874015748031,
          "duration": 0.13392749999999864
        },
        {
          "name": "F#3",
          "midi": 54,
          "time": 59.1959549999999,
          "velocity": 0.6062992125984252,
          "duration": 0.13392749999999864
        },
        {
          "name": "D3",
          "midi": 50,
          "time": 59.463809999999896,
          "velocity": 0.7086614173228346,
          "duration": 0.2678549999999973
        },
        {
          "name": "F#3",
          "midi": 54,
          "time": 59.463809999999896,
          "velocity": 0.6062992125984252,
          "duration": 0.2678549999999973
        },
        {
          "name": "A2",
          "midi": 45,
          "time": 59.73166499999989,
          "velocity": 0.6062992125984252,
          "duration": 0.2678549999999973
        },
        {
          "name": "F#2",
          "midi": 42,
          "time": 59.73166499999989,
          "velocity": 0.7244094488188977,
          "duration": 0.2678549999999973
        },
        {
          "name": "B2",
          "midi": 47,
          "time": 59.99951999999989,
          "velocity": 0.5826771653543307,
          "duration": 0.40178250000000304
        },
        {
          "name": "G2",
          "midi": 43,
          "time": 59.99951999999989,
          "velocity": 0.7007874015748031,
          "duration": 0.40178250000000304
        },
        {
          "name": "B2",
          "midi": 47,
          "time": 60.53522999999989,
          "velocity": 0.6062992125984252,
          "duration": 0.2678549999999973
        },
        {
          "name": "G2",
          "midi": 43,
          "time": 60.53522999999989,
          "velocity": 0.7244094488188977,
          "duration": 0.2678549999999973
        },
        {
          "name": "B2",
          "midi": 47,
          "time": 60.80308499999989,
          "velocity": 0.6062992125984252,
          "duration": 0.2678549999999973
        },
        {
          "name": "G2",
          "midi": 43,
          "time": 60.80308499999989,
          "velocity": 0.7244094488188977,
          "duration": 0.2678549999999973
        },
        {
          "name": "C3",
          "midi": 48,
          "time": 61.338794999999884,
          "velocity": 0.7244094488188977,
          "duration": 0.13392749999999864
        },
        {
          "name": "E3",
          "midi": 52,
          "time": 61.338794999999884,
          "velocity": 0.6062992125984252,
          "duration": 0.13392749999999864
        },
        {
          "name": "C3",
          "midi": 48,
          "time": 61.60664999999988,
          "velocity": 0.7244094488188977,
          "duration": 0.40178250000000304
        },
        {
          "name": "E3",
          "midi": 52,
          "time": 61.60664999999988,
          "velocity": 0.6062992125984252,
          "duration": 0.40178250000000304
        },
        {
          "name": "E3",
          "midi": 52,
          "time": 62.14235999999988,
          "velocity": 0.7244094488188977,
          "duration": 0.2678549999999973
        },
        {
          "name": "G3",
          "midi": 55,
          "time": 62.14235999999988,
          "velocity": 0.6062992125984252,
          "duration": 0.2678549999999973
        },
        {
          "name": "E3",
          "midi": 52,
          "time": 62.54414249999988,
          "velocity": 0.7086614173228346,
          "duration": 0.13392749999999864
        },
        {
          "name": "G3",
          "midi": 55,
          "time": 62.54414249999988,
          "velocity": 0.6062992125984252,
          "duration": 0.13392749999999864
        },
        {
          "name": "E3",
          "midi": 52,
          "time": 62.67806999999988,
          "velocity": 0.7086614173228346,
          "duration": 0.13392749999999864
        },
        {
          "name": "G3",
          "midi": 55,
          "time": 62.67806999999988,
          "velocity": 0.6062992125984252,
          "duration": 0.13392749999999864
        },
        {
          "name": "E3",
          "midi": 52,
          "time": 62.945924999999875,
          "velocity": 0.7007874015748031,
          "duration": 0.2678549999999973
        },
        {
          "name": "G3",
          "midi": 55,
          "time": 62.945924999999875,
          "velocity": 0.6062992125984252,
          "duration": 0.2678549999999973
        },
        {
          "name": "D3",
          "midi": 50,
          "time": 63.48163499999987,
          "velocity": 0.7007874015748031,
          "duration": 0.13392749999999864
        },
        {
          "name": "F#3",
          "midi": 54,
          "time": 63.48163499999987,
          "velocity": 0.6062992125984252,
          "duration": 0.13392749999999864
        },
        {
          "name": "D3",
          "midi": 50,
          "time": 63.74948999999987,
          "velocity": 0.7086614173228346,
          "duration": 0.2678549999999973
        },
        {
          "name": "F#3",
          "midi": 54,
          "time": 63.74948999999987,
          "velocity": 0.6062992125984252,
          "duration": 0.2678549999999973
        },
        {
          "name": "A2",
          "midi": 45,
          "time": 64.01734499999986,
          "velocity": 0.6062992125984252,
          "duration": 0.2678549999999973
        },
        {
          "name": "F#2",
          "midi": 42,
          "time": 64.01734499999986,
          "velocity": 0.7244094488188977,
          "duration": 0.2678549999999973
        },
        {
          "name": "B2",
          "midi": 47,
          "time": 64.28519999999986,
          "velocity": 0.5826771653543307,
          "duration": 0.40178249999999593
        },
        {
          "name": "G2",
          "midi": 43,
          "time": 64.28519999999986,
          "velocity": 0.7007874015748031,
          "duration": 0.40178249999999593
        },
        {
          "name": "B2",
          "midi": 47,
          "time": 64.82090999999986,
          "velocity": 0.6062992125984252,
          "duration": 0.2678549999999973
        },
        {
          "name": "G2",
          "midi": 43,
          "time": 64.82090999999986,
          "velocity": 0.7244094488188977,
          "duration": 0.2678549999999973
        },
        {
          "name": "B2",
          "midi": 47,
          "time": 65.08876499999985,
          "velocity": 0.6062992125984252,
          "duration": 0.2678549999999973
        },
        {
          "name": "G2",
          "midi": 43,
          "time": 65.08876499999985,
          "velocity": 0.7244094488188977,
          "duration": 0.2678549999999973
        },
        {
          "name": "C3",
          "midi": 48,
          "time": 65.62447499999985,
          "velocity": 0.7244094488188977,
          "duration": 0.13392749999999864
        },
        {
          "name": "E3",
          "midi": 52,
          "time": 65.62447499999985,
          "velocity": 0.6062992125984252,
          "duration": 0.13392749999999864
        },
        {
          "name": "C3",
          "midi": 48,
          "time": 65.89232999999984,
          "velocity": 0.7244094488188977,
          "duration": 0.40178249999999593
        },
        {
          "name": "E3",
          "midi": 52,
          "time": 65.89232999999984,
          "velocity": 0.6062992125984252,
          "duration": 0.40178249999999593
        },
        {
          "name": "G3",
          "midi": 55,
          "time": 66.42803999999984,
          "velocity": 0.6929133858267716,
          "duration": 2.1428400000000067
        },
        {
          "name": "A#3",
          "midi": 58,
          "time": 66.42803999999984,
          "velocity": 0.6929133858267716,
          "duration": 2.1428400000000067
        },
        {
          "name": "D#4",
          "midi": 63,
          "time": 66.42803999999984,
          "velocity": 0.6929133858267716,
          "duration": 2.1428400000000067
        },
        {
          "name": "B3",
          "midi": 59,
          "time": 72.85655999999985,
          "velocity": 0.5039370078740157,
          "duration": 0.2678549999999973
        },
        {
          "name": "D3",
          "midi": 50,
          "time": 72.85655999999985,
          "velocity": 0.5039370078740157,
          "duration": 0.2678549999999973
        },
        {
          "name": "F#3",
          "midi": 54,
          "time": 72.85655999999985,
          "velocity": 0.5039370078740157,
          "duration": 0.2678549999999973
        },
        {
          "name": "B2",
          "midi": 47,
          "time": 72.85655999999985,
          "velocity": 0.5039370078740157,
          "duration": 0.2678549999999973
        },
        {
          "name": "B3",
          "midi": 59,
          "time": 73.12441499999984,
          "velocity": 0.5039370078740157,
          "duration": 0.2678549999999973
        },
        {
          "name": "D3",
          "midi": 50,
          "time": 73.12441499999984,
          "velocity": 0.5039370078740157,
          "duration": 0.2678549999999973
        },
        {
          "name": "F#3",
          "midi": 54,
          "time": 73.12441499999984,
          "velocity": 0.5039370078740157,
          "duration": 0.2678549999999973
        },
        {
          "name": "B2",
          "midi": 47,
          "time": 73.12441499999984,
          "velocity": 0.5039370078740157,
          "duration": 0.2678549999999973
        },
        {
          "name": "B3",
          "midi": 59,
          "time": 73.39226999999984,
          "velocity": 0.5196850393700787,
          "duration": 0.2678549999999973
        },
        {
          "name": "D3",
          "midi": 50,
          "time": 73.39226999999984,
          "velocity": 0.5196850393700787,
          "duration": 0.2678549999999973
        },
        {
          "name": "F#3",
          "midi": 54,
          "time": 73.39226999999984,
          "velocity": 0.5196850393700787,
          "duration": 0.2678549999999973
        },
        {
          "name": "B2",
          "midi": 47,
          "time": 73.39226999999984,
          "velocity": 0.5196850393700787,
          "duration": 0.2678549999999973
        },
        {
          "name": "B3",
          "midi": 59,
          "time": 73.66012499999984,
          "velocity": 0.5354330708661418,
          "duration": 0.2678549999999973
        },
        {
          "name": "D3",
          "midi": 50,
          "time": 73.66012499999984,
          "velocity": 0.5354330708661418,
          "duration": 0.2678549999999973
        },
        {
          "name": "F#3",
          "midi": 54,
          "time": 73.66012499999984,
          "velocity": 0.5354330708661418,
          "duration": 0.2678549999999973
        },
        {
          "name": "B2",
          "midi": 47,
          "time": 73.66012499999984,
          "velocity": 0.5354330708661418,
          "duration": 0.2678549999999973
        },
        {
          "name": "A3",
          "midi": 57,
          "time": 73.92797999999983,
          "velocity": 0.5511811023622047,
          "duration": 0.2678549999999973
        },
        {
          "name": "D3",
          "midi": 50,
          "time": 73.92797999999983,
          "velocity": 0.5511811023622047,
          "duration": 0.2678549999999973
        },
        {
          "name": "F#3",
          "midi": 54,
          "time": 73.92797999999983,
          "velocity": 0.5511811023622047,
          "duration": 0.2678549999999973
        },
        {
          "name": "A2",
          "midi": 45,
          "time": 73.92797999999983,
          "velocity": 0.5511811023622047,
          "duration": 0.2678549999999973
        },
        {
          "name": "A3",
          "midi": 57,
          "time": 74.19583499999983,
          "velocity": 0.5748031496062992,
          "duration": 0.2678549999999973
        },
        {
          "name": "D3",
          "midi": 50,
          "time": 74.19583499999983,
          "velocity": 0.5748031496062992,
          "duration": 0.2678549999999973
        },
        {
          "name": "F#3",
          "midi": 54,
          "time": 74.19583499999983,
          "velocity": 0.5748031496062992,
          "duration": 0.2678549999999973
        },
        {
          "name": "A2",
          "midi": 45,
          "time": 74.19583499999983,
          "velocity": 0.5748031496062992,
          "duration": 0.2678549999999973
        },
        {
          "name": "A3",
          "midi": 57,
          "time": 74.46368999999983,
          "velocity": 0.5748031496062992,
          "duration": 0.2678549999999973
        },
        {
          "name": "D3",
          "midi": 50,
          "time": 74.46368999999983,
          "velocity": 0.5748031496062992,
          "duration": 0.2678549999999973
        },
        {
          "name": "F#3",
          "midi": 54,
          "time": 74.46368999999983,
          "velocity": 0.5748031496062992,
          "duration": 0.2678549999999973
        },
        {
          "name": "A2",
          "midi": 45,
          "time": 74.46368999999983,
          "velocity": 0.5748031496062992,
          "duration": 0.2678549999999973
        },
        {
          "name": "A3",
          "midi": 57,
          "time": 74.73154499999983,
          "velocity": 0.5748031496062992,
          "duration": 0.2678549999999973
        },
        {
          "name": "D3",
          "midi": 50,
          "time": 74.73154499999983,
          "velocity": 0.5748031496062992,
          "duration": 0.2678549999999973
        },
        {
          "name": "F#3",
          "midi": 54,
          "time": 74.73154499999983,
          "velocity": 0.5748031496062992,
          "duration": 0.2678549999999973
        },
        {
          "name": "A2",
          "midi": 45,
          "time": 74.73154499999983,
          "velocity": 0.5748031496062992,
          "duration": 0.2678549999999973
        },
        {
          "name": "G3",
          "midi": 55,
          "time": 74.99939999999982,
          "velocity": 0.5748031496062992,
          "duration": 0.2678549999999973
        },
        {
          "name": "D3",
          "midi": 50,
          "time": 74.99939999999982,
          "velocity": 0.5748031496062992,
          "duration": 0.2678549999999973
        },
        {
          "name": "G2",
          "midi": 43,
          "time": 74.99939999999982,
          "velocity": 0.5748031496062992,
          "duration": 0.2678549999999973
        },
        {
          "name": "B2",
          "midi": 47,
          "time": 74.99939999999982,
          "velocity": 0.5748031496062992,
          "duration": 0.2678549999999973
        },
        {
          "name": "G3",
          "midi": 55,
          "time": 75.26725499999982,
          "velocity": 0.5511811023622047,
          "duration": 0.2678549999999973
        },
        {
          "name": "D3",
          "midi": 50,
          "time": 75.26725499999982,
          "velocity": 0.5511811023622047,
          "duration": 0.2678549999999973
        },
        {
          "name": "G2",
          "midi": 43,
          "time": 75.26725499999982,
          "velocity": 0.5511811023622047,
          "duration": 0.2678549999999973
        },
        {
          "name": "B2",
          "midi": 47,
          "time": 75.26725499999982,
          "velocity": 0.5511811023622047,
          "duration": 0.2678549999999973
        },
        {
          "name": "G3",
          "midi": 55,
          "time": 75.53510999999982,
          "velocity": 0.5748031496062992,
          "duration": 0.2678549999999973
        },
        {
          "name": "D3",
          "midi": 50,
          "time": 75.53510999999982,
          "velocity": 0.5748031496062992,
          "duration": 0.2678549999999973
        },
        {
          "name": "G2",
          "midi": 43,
          "time": 75.53510999999982,
          "velocity": 0.5748031496062992,
          "duration": 0.2678549999999973
        },
        {
          "name": "B2",
          "midi": 47,
          "time": 75.53510999999982,
          "velocity": 0.5748031496062992,
          "duration": 0.2678549999999973
        },
        {
          "name": "G3",
          "midi": 55,
          "time": 75.80296499999982,
          "velocity": 0.5905511811023622,
          "duration": 0.2678549999999973
        },
        {
          "name": "D3",
          "midi": 50,
          "time": 75.80296499999982,
          "velocity": 0.5905511811023622,
          "duration": 0.2678549999999973
        },
        {
          "name": "G2",
          "midi": 43,
          "time": 75.80296499999982,
          "velocity": 0.5905511811023622,
          "duration": 0.2678549999999973
        },
        {
          "name": "B2",
          "midi": 47,
          "time": 75.80296499999982,
          "velocity": 0.5905511811023622,
          "duration": 0.2678549999999973
        },
        {
          "name": "F#2",
          "midi": 42,
          "time": 76.07081999999981,
          "velocity": 0.5905511811023622,
          "duration": 0.2678549999999973
        },
        {
          "name": "F#3",
          "midi": 54,
          "time": 76.07081999999981,
          "velocity": 0.5905511811023622,
          "duration": 0.2678549999999973
        },
        {
          "name": "D3",
          "midi": 50,
          "time": 76.07081999999981,
          "velocity": 0.5905511811023622,
          "duration": 0.2678549999999973
        },
        {
          "name": "A2",
          "midi": 45,
          "time": 76.07081999999981,
          "velocity": 0.5905511811023622,
          "duration": 0.2678549999999973
        },
        {
          "name": "F#2",
          "midi": 42,
          "time": 76.33867499999981,
          "velocity": 0.6062992125984252,
          "duration": 0.2678549999999973
        },
        {
          "name": "F#3",
          "midi": 54,
          "time": 76.33867499999981,
          "velocity": 0.6062992125984252,
          "duration": 0.2678549999999973
        },
        {
          "name": "D3",
          "midi": 50,
          "time": 76.33867499999981,
          "velocity": 0.6062992125984252,
          "duration": 0.2678549999999973
        },
        {
          "name": "A2",
          "midi": 45,
          "time": 76.33867499999981,
          "velocity": 0.6062992125984252,
          "duration": 0.2678549999999973
        },
        {
          "name": "F#2",
          "midi": 42,
          "time": 76.60652999999981,
          "velocity": 0.6062992125984252,
          "duration": 0.2678549999999973
        },
        {
          "name": "F#3",
          "midi": 54,
          "time": 76.60652999999981,
          "velocity": 0.6062992125984252,
          "duration": 0.2678549999999973
        },
        {
          "name": "D3",
          "midi": 50,
          "time": 76.60652999999981,
          "velocity": 0.6062992125984252,
          "duration": 0.2678549999999973
        },
        {
          "name": "A2",
          "midi": 45,
          "time": 76.60652999999981,
          "velocity": 0.6062992125984252,
          "duration": 0.2678549999999973
        },
        {
          "name": "F#2",
          "midi": 42,
          "time": 76.8743849999998,
          "velocity": 0.6535433070866141,
          "duration": 0.2678549999999973
        },
        {
          "name": "F#3",
          "midi": 54,
          "time": 76.8743849999998,
          "velocity": 0.6535433070866141,
          "duration": 0.2678549999999973
        },
        {
          "name": "D3",
          "midi": 50,
          "time": 76.8743849999998,
          "velocity": 0.6535433070866141,
          "duration": 0.2678549999999973
        },
        {
          "name": "A2",
          "midi": 45,
          "time": 76.8743849999998,
          "velocity": 0.6535433070866141,
          "duration": 0.2678549999999973
        },
        {
          "name": "C#3",
          "midi": 49,
          "time": 77.1422399999998,
          "velocity": 0.6535433070866141,
          "duration": 1.607129999999998
        },
        {
          "name": "A2",
          "midi": 45,
          "time": 77.1422399999998,
          "velocity": 0.6535433070866141,
          "duration": 1.607129999999998
        },
        {
          "name": "E3",
          "midi": 52,
          "time": 77.1422399999998,
          "velocity": 0.6535433070866141,
          "duration": 1.607129999999998
        },
        {
          "name": "A3",
          "midi": 57,
          "time": 77.1422399999998,
          "velocity": 0.6535433070866141,
          "duration": 1.607129999999998
        },
        {
          "name": "A2",
          "midi": 45,
          "time": 78.7493699999998,
          "velocity": 0.6535433070866141,
          "duration": 0.5357099999999946
        },
        {
          "name": "C#3",
          "midi": 49,
          "time": 78.7493699999998,
          "velocity": 0.6535433070866141,
          "duration": 0.5357099999999946
        },
        {
          "name": "E3",
          "midi": 52,
          "time": 78.7493699999998,
          "velocity": 0.6535433070866141,
          "duration": 0.5357099999999946
        },
        {
          "name": "A3",
          "midi": 57,
          "time": 78.7493699999998,
          "velocity": 0.6535433070866141,
          "duration": 0.5357099999999946
        },
        {
          "name": "C#3",
          "midi": 49,
          "time": 79.2850799999998,
          "velocity": 0.6456692913385826,
          "duration": 2.1428400000000067
        },
        {
          "name": "A2",
          "midi": 45,
          "time": 79.2850799999998,
          "velocity": 0.6456692913385826,
          "duration": 2.1428400000000067
        },
        {
          "name": "E3",
          "midi": 52,
          "time": 79.2850799999998,
          "velocity": 0.6456692913385826,
          "duration": 2.1428400000000067
        },
        {
          "name": "A3",
          "midi": 57,
          "time": 79.2850799999998,
          "velocity": 0.6456692913385826,
          "duration": 2.1428400000000067
        },
        {
          "name": "F#3",
          "midi": 54,
          "time": 81.4279199999998,
          "velocity": 0.6456692913385826,
          "duration": 1.0714200000000034
        },
        {
          "name": "A3",
          "midi": 57,
          "time": 81.4279199999998,
          "velocity": 0.6456692913385826,
          "duration": 1.0714200000000034
        },
        {
          "name": "D4",
          "midi": 62,
          "time": 81.4279199999998,
          "velocity": 0.6456692913385826,
          "duration": 1.0714200000000034
        },
        {
          "name": "B2",
          "midi": 47,
          "time": 82.4993399999998,
          "velocity": 0.6692913385826772,
          "duration": 1.0714200000000034
        },
        {
          "name": "D3",
          "midi": 50,
          "time": 82.4993399999998,
          "velocity": 0.6692913385826772,
          "duration": 1.0714200000000034
        },
        {
          "name": "G3",
          "midi": 55,
          "time": 82.4993399999998,
          "velocity": 0.6692913385826772,
          "duration": 1.0714200000000034
        },
        {
          "name": "D3",
          "midi": 50,
          "time": 83.57075999999981,
          "velocity": 0.7007874015748031,
          "duration": 1.0714200000000034
        },
        {
          "name": "A2",
          "midi": 45,
          "time": 83.57075999999981,
          "velocity": 0.7007874015748031,
          "duration": 1.0714200000000034
        },
        {
          "name": "F#3",
          "midi": 54,
          "time": 83.57075999999981,
          "velocity": 0.7007874015748031,
          "duration": 1.0714200000000034
        },
        {
          "name": "C#3",
          "midi": 49,
          "time": 84.64217999999981,
          "velocity": 0.6692913385826772,
          "duration": 1.0714200000000034
        },
        {
          "name": "A2",
          "midi": 45,
          "time": 84.64217999999981,
          "velocity": 0.6692913385826772,
          "duration": 1.0714200000000034
        },
        {
          "name": "E3",
          "midi": 52,
          "time": 84.64217999999981,
          "velocity": 0.6692913385826772,
          "duration": 1.0714200000000034
        },
        {
          "name": "F#3",
          "midi": 54,
          "time": 85.71359999999981,
          "velocity": 0.6614173228346457,
          "duration": 1.0714200000000034
        },
        {
          "name": "A3",
          "midi": 57,
          "time": 85.71359999999981,
          "velocity": 0.6614173228346457,
          "duration": 1.0714200000000034
        },
        {
          "name": "D4",
          "midi": 62,
          "time": 85.71359999999981,
          "velocity": 0.6614173228346457,
          "duration": 1.0714200000000034
        },
        {
          "name": "B2",
          "midi": 47,
          "time": 86.78501999999982,
          "velocity": 0.6614173228346457,
          "duration": 1.0714200000000034
        },
        {
          "name": "D3",
          "midi": 50,
          "time": 86.78501999999982,
          "velocity": 0.6614173228346457,
          "duration": 1.0714200000000034
        },
        {
          "name": "G3",
          "midi": 55,
          "time": 86.78501999999982,
          "velocity": 0.6614173228346457,
          "duration": 1.0714200000000034
        },
        {
          "name": "A2",
          "midi": 45,
          "time": 87.85643999999982,
          "velocity": 0.6614173228346457,
          "duration": 0.8035650000000061
        },
        {
          "name": "D3",
          "midi": 50,
          "time": 87.85643999999982,
          "velocity": 0.6614173228346457,
          "duration": 0.8035650000000061
        },
        {
          "name": "F#3",
          "midi": 54,
          "time": 87.85643999999982,
          "velocity": 0.6614173228346457,
          "duration": 0.8035650000000061
        },
        {
          "name": "C#3",
          "midi": 49,
          "time": 88.66000499999983,
          "velocity": 0.6692913385826772,
          "duration": 1.205347500000002
        },
        {
          "name": "E3",
          "midi": 52,
          "time": 88.66000499999983,
          "velocity": 0.6692913385826772,
          "duration": 1.205347500000002
        },
        {
          "name": "A3",
          "midi": 57,
          "time": 88.66000499999983,
          "velocity": 0.6692913385826772,
          "duration": 1.205347500000002
        },
        {
          "name": "F#3",
          "midi": 54,
          "time": 89.99927999999983,
          "velocity": 0.7086614173228346,
          "duration": 1.0714200000000034
        },
        {
          "name": "A3",
          "midi": 57,
          "time": 89.99927999999983,
          "velocity": 0.7086614173228346,
          "duration": 1.0714200000000034
        },
        {
          "name": "D4",
          "midi": 62,
          "time": 89.99927999999983,
          "velocity": 0.7086614173228346,
          "duration": 1.0714200000000034
        },
        {
          "name": "B2",
          "midi": 47,
          "time": 91.07069999999983,
          "velocity": 0.7244094488188977,
          "duration": 1.0714200000000034
        },
        {
          "name": "D3",
          "midi": 50,
          "time": 91.07069999999983,
          "velocity": 0.7244094488188977,
          "duration": 1.0714200000000034
        },
        {
          "name": "G3",
          "midi": 55,
          "time": 91.07069999999983,
          "velocity": 0.7244094488188977,
          "duration": 1.0714200000000034
        },
        {
          "name": "D3",
          "midi": 50,
          "time": 92.14211999999984,
          "velocity": 0.7244094488188977,
          "duration": 1.3392750000000007
        },
        {
          "name": "F#3",
          "midi": 54,
          "time": 92.14211999999984,
          "velocity": 0.7244094488188977,
          "duration": 1.3392750000000007
        },
        {
          "name": "B3",
          "midi": 59,
          "time": 92.14211999999984,
          "velocity": 0.7244094488188977,
          "duration": 1.3392750000000007
        },
        {
          "name": "E3",
          "midi": 52,
          "time": 93.48139499999984,
          "velocity": 0.7401574803149606,
          "duration": 0.8035650000000061
        },
        {
          "name": "A3",
          "midi": 57,
          "time": 93.48139499999984,
          "velocity": 0.7401574803149606,
          "duration": 0.8035650000000061
        },
        {
          "name": "C#4",
          "midi": 61,
          "time": 93.48139499999984,
          "velocity": 0.7401574803149606,
          "duration": 0.8035650000000061
        },
        {
          "name": "F#3",
          "midi": 54,
          "time": 94.28495999999984,
          "velocity": 0.7401574803149606,
          "duration": 0.8035650000000061
        },
        {
          "name": "A3",
          "midi": 57,
          "time": 94.28495999999984,
          "velocity": 0.7401574803149606,
          "duration": 0.8035650000000061
        },
        {
          "name": "D4",
          "midi": 62,
          "time": 94.28495999999984,
          "velocity": 0.7401574803149606,
          "duration": 0.8035650000000061
        },
        {
          "name": "D3",
          "midi": 50,
          "time": 95.08852499999985,
          "velocity": 0.7401574803149606,
          "duration": 0.2678549999999973
        },
        {
          "name": "F#3",
          "midi": 54,
          "time": 95.08852499999985,
          "velocity": 0.7401574803149606,
          "duration": 0.2678549999999973
        },
        {
          "name": "A3",
          "midi": 57,
          "time": 95.08852499999985,
          "velocity": 0.7401574803149606,
          "duration": 0.2678549999999973
        },
        {
          "name": "F#3",
          "midi": 54,
          "time": 95.35637999999985,
          "velocity": 0.7244094488188977,
          "duration": 0.8035650000000061
        },
        {
          "name": "D3",
          "midi": 50,
          "time": 95.35637999999985,
          "velocity": 0.7244094488188977,
          "duration": 0.8035650000000061
        },
        {
          "name": "B3",
          "midi": 59,
          "time": 95.35637999999985,
          "velocity": 0.7244094488188977,
          "duration": 0.8035650000000061
        },
        {
          "name": "F#3",
          "midi": 54,
          "time": 96.15994499999985,
          "velocity": 0.7086614173228346,
          "duration": 0.2678549999999973
        },
        {
          "name": "B2",
          "midi": 47,
          "time": 96.15994499999985,
          "velocity": 0.7086614173228346,
          "duration": 0.2678549999999973
        },
        {
          "name": "D3",
          "midi": 50,
          "time": 96.15994499999985,
          "velocity": 0.7086614173228346,
          "duration": 0.2678549999999973
        },
        {
          "name": "G2",
          "midi": 43,
          "time": 96.42779999999985,
          "velocity": 0.7086614173228346,
          "duration": 0.8035650000000061
        },
        {
          "name": "B2",
          "midi": 47,
          "time": 96.42779999999985,
          "velocity": 0.7086614173228346,
          "duration": 0.8035650000000061
        },
        {
          "name": "E3",
          "midi": 52,
          "time": 96.42779999999985,
          "velocity": 0.7086614173228346,
          "duration": 0.8035650000000061
        },
        {
          "name": "B2",
          "midi": 47,
          "time": 97.23136499999985,
          "velocity": 0.7086614173228346,
          "duration": 0.2678549999999973
        },
        {
          "name": "F#2",
          "midi": 42,
          "time": 97.23136499999985,
          "velocity": 0.7086614173228346,
          "duration": 0.2678549999999973
        },
        {
          "name": "D3",
          "midi": 50,
          "time": 97.23136499999985,
          "velocity": 0.7086614173228346,
          "duration": 0.2678549999999973
        },
        {
          "name": "C#3",
          "midi": 49,
          "time": 97.49921999999985,
          "velocity": 0.7086614173228346,
          "duration": 1.0714200000000034
        },
        {
          "name": "E3",
          "midi": 52,
          "time": 97.49921999999985,
          "velocity": 0.7086614173228346,
          "duration": 1.0714200000000034
        },
        {
          "name": "A3",
          "midi": 57,
          "time": 97.49921999999985,
          "velocity": 0.7086614173228346,
          "duration": 1.0714200000000034
        },
        {
          "name": "B2",
          "midi": 47,
          "time": 98.57063999999986,
          "velocity": 0.7086614173228346,
          "duration": 0.8035650000000061
        },
        {
          "name": "D3",
          "midi": 50,
          "time": 98.57063999999986,
          "velocity": 0.7086614173228346,
          "duration": 0.8035650000000061
        },
        {
          "name": "G3",
          "midi": 55,
          "time": 98.57063999999986,
          "velocity": 0.7086614173228346,
          "duration": 0.8035650000000061
        },
        {
          "name": "B2",
          "midi": 47,
          "time": 99.37420499999986,
          "velocity": 0.7086614173228346,
          "duration": 1.3392750000000007
        },
        {
          "name": "D3",
          "midi": 50,
          "time": 99.37420499999986,
          "velocity": 0.7086614173228346,
          "duration": 1.3392750000000007
        },
        {
          "name": "G3",
          "midi": 55,
          "time": 99.37420499999986,
          "velocity": 0.7086614173228346,
          "duration": 1.3392750000000007
        },
        {
          "name": "B2",
          "midi": 47,
          "time": 100.71347999999986,
          "velocity": 0.7244094488188977,
          "duration": 0.8035650000000061
        },
        {
          "name": "D3",
          "midi": 50,
          "time": 100.71347999999986,
          "velocity": 0.7244094488188977,
          "duration": 0.8035650000000061
        },
        {
          "name": "G3",
          "midi": 55,
          "time": 100.71347999999986,
          "velocity": 0.7244094488188977,
          "duration": 0.8035650000000061
        },
        {
          "name": "A2",
          "midi": 45,
          "time": 101.51704499999987,
          "velocity": 0.7007874015748031,
          "duration": 0.8035650000000061
        },
        {
          "name": "D3",
          "midi": 50,
          "time": 101.51704499999987,
          "velocity": 0.7007874015748031,
          "duration": 0.8035650000000061
        },
        {
          "name": "F#3",
          "midi": 54,
          "time": 101.51704499999987,
          "velocity": 0.7007874015748031,
          "duration": 0.8035650000000061
        },
        {
          "name": "G2",
          "midi": 43,
          "time": 102.32060999999987,
          "velocity": 0.7086614173228346,
          "duration": 0.5357099999999946
        },
        {
          "name": "B2",
          "midi": 47,
          "time": 102.32060999999987,
          "velocity": 0.7086614173228346,
          "duration": 0.5357099999999946
        },
        {
          "name": "E3",
          "midi": 52,
          "time": 102.32060999999987,
          "velocity": 0.7086614173228346,
          "duration": 0.5357099999999946
        },
        {
          "name": "D3",
          "midi": 50,
          "time": 102.85631999999987,
          "velocity": 0.5984251968503937,
          "duration": 8.303505000000001
        },
        {
          "name": "A2",
          "midi": 45,
          "time": 102.85631999999987,
          "velocity": 0.5984251968503937,
          "duration": 8.303505000000001
        },
        {
          "name": "F#2",
          "midi": 42,
          "time": 102.85631999999987,
          "velocity": 0.5984251968503937,
          "duration": 8.303505000000001
        },
        {
          "name": "F#3",
          "midi": 54,
          "time": 126.42755999999987,
          "velocity": 0.5275590551181102,
          "duration": 0.1143964062499947
        },
        {
          "name": "D3",
          "midi": 50,
          "time": 126.42755999999987,
          "velocity": 0.5275590551181102,
          "duration": 0.1143964062499947
        },
        {
          "name": "F#3",
          "midi": 54,
          "time": 126.69541499999987,
          "velocity": 0.5118110236220472,
          "duration": 0.11160624999999413
        },
        {
          "name": "D3",
          "midi": 50,
          "time": 126.69541499999987,
          "velocity": 0.5118110236220472,
          "duration": 0.11160624999999413
        },
        {
          "name": "F#3",
          "midi": 54,
          "time": 126.96326999999987,
          "velocity": 0.5275590551181102,
          "duration": 0.09765546875000553
        },
        {
          "name": "D3",
          "midi": 50,
          "time": 126.96326999999987,
          "velocity": 0.5275590551181102,
          "duration": 0.09765546875000553
        },
        {
          "name": "F#3",
          "midi": 54,
          "time": 127.23112499999988,
          "velocity": 0.5511811023622047,
          "duration": 0.10323578125000665
        },
        {
          "name": "D3",
          "midi": 50,
          "time": 127.23112499999988,
          "velocity": 0.5511811023622047,
          "duration": 0.10323578125000665
        },
        {
          "name": "F#3",
          "midi": 54,
          "time": 127.49897999999989,
          "velocity": 0.5511811023622047,
          "duration": 0.11997671874999583
        },
        {
          "name": "D3",
          "midi": 50,
          "time": 127.49897999999989,
          "velocity": 0.5511811023622047,
          "duration": 0.11997671874999583
        },
        {
          "name": "F#3",
          "midi": 54,
          "time": 127.76683499999989,
          "velocity": 0.5511811023622047,
          "duration": 0.11997671874999583
        },
        {
          "name": "D3",
          "midi": 50,
          "time": 127.76683499999989,
          "velocity": 0.5511811023622047,
          "duration": 0.11997671874999583
        },
        {
          "name": "F#3",
          "midi": 54,
          "time": 128.03468999999987,
          "velocity": 0.5511811023622047,
          "duration": 0.12137179687499611
        },
        {
          "name": "D3",
          "midi": 50,
          "time": 128.03468999999987,
          "velocity": 0.5511811023622047,
          "duration": 0.12137179687499611
        },
        {
          "name": "F#3",
          "midi": 54,
          "time": 128.30254499999987,
          "velocity": 0.5275590551181102,
          "duration": 0.13532257812499893
        },
        {
          "name": "D3",
          "midi": 50,
          "time": 128.30254499999987,
          "velocity": 0.5275590551181102,
          "duration": 0.13532257812499893
        },
        {
          "name": "E3",
          "midi": 52,
          "time": 128.57039999999986,
          "velocity": 0.5275590551181102,
          "duration": 0.13392749999999864
        },
        {
          "name": "C3",
          "midi": 48,
          "time": 128.57039999999986,
          "velocity": 0.5275590551181102,
          "duration": 0.13392749999999864
        },
        {
          "name": "E3",
          "midi": 52,
          "time": 128.83825499999986,
          "velocity": 0.5275590551181102,
          "duration": 0.13392749999999864
        },
        {
          "name": "C3",
          "midi": 48,
          "time": 128.83825499999986,
          "velocity": 0.5275590551181102,
          "duration": 0.13392749999999864
        },
        {
          "name": "E3",
          "midi": 52,
          "time": 129.10610999999986,
          "velocity": 0.5275590551181102,
          "duration": 0.13392749999999864
        },
        {
          "name": "C3",
          "midi": 48,
          "time": 129.10610999999986,
          "velocity": 0.5275590551181102,
          "duration": 0.13532257812499893
        },
        {
          "name": "D3",
          "midi": 50,
          "time": 129.37396499999986,
          "velocity": 0.5275590551181102,
          "duration": 0.8035649999999919
        },
        {
          "name": "B2",
          "midi": 47,
          "time": 129.37396499999986,
          "velocity": 0.5275590551181102,
          "duration": 0.8035649999999919
        },
        {
          "name": "E3",
          "midi": 52,
          "time": 130.17752999999985,
          "velocity": 0.5669291338582677,
          "duration": 0.5357099999999946
        },
        {
          "name": "C3",
          "midi": 48,
          "time": 130.17752999999985,
          "velocity": 0.5669291338582677,
          "duration": 0.5357099999999946
        },
        {
          "name": "F#3",
          "midi": 54,
          "time": 139.28459999999984,
          "velocity": 0.7086614173228346,
          "duration": 2.1428400000000067
        },
        {
          "name": "D3",
          "midi": 50,
          "time": 139.28459999999984,
          "velocity": 0.7086614173228346,
          "duration": 2.1428400000000067
        },
        {
          "name": "E3",
          "midi": 52,
          "time": 141.42743999999985,
          "velocity": 0.7086614173228346,
          "duration": 0.8035649999999919
        },
        {
          "name": "C3",
          "midi": 48,
          "time": 141.42743999999985,
          "velocity": 0.7086614173228346,
          "duration": 0.8035649999999919
        },
        {
          "name": "D3",
          "midi": 50,
          "time": 142.23100499999984,
          "velocity": 0.7086614173228346,
          "duration": 0.8035649999999919
        },
        {
          "name": "B2",
          "midi": 47,
          "time": 142.23100499999984,
          "velocity": 0.7086614173228346,
          "duration": 0.8035649999999919
        },
        {
          "name": "E3",
          "midi": 52,
          "time": 143.03456999999983,
          "velocity": 0.7086614173228346,
          "duration": 0.5357099999999946
        },
        {
          "name": "C3",
          "midi": 48,
          "time": 143.03456999999983,
          "velocity": 0.7086614173228346,
          "duration": 0.5357099999999946
        },
        {
          "name": "F#3",
          "midi": 54,
          "time": 143.57027999999983,
          "velocity": 0.7086614173228346,
          "duration": 1.6071300000000122
        },
        {
          "name": "D3",
          "midi": 50,
          "time": 143.57027999999983,
          "velocity": 0.7086614173228346,
          "duration": 1.6071300000000122
        },
        {
          "name": "A2",
          "midi": 45,
          "time": 145.17740999999984,
          "velocity": 0.7086614173228346,
          "duration": 0.2678549999999973
        },
        {
          "name": "B2",
          "midi": 47,
          "time": 145.44526499999984,
          "velocity": 0.7086614173228346,
          "duration": 0.2678549999999973
        },
        {
          "name": "E3",
          "midi": 52,
          "time": 145.71311999999983,
          "velocity": 0.8267716535433071,
          "duration": 2.1428400000000067
        },
        {
          "name": "C3",
          "midi": 48,
          "time": 145.71311999999983,
          "velocity": 0.8267716535433071,
          "duration": 2.1428400000000067
        },
        {
          "name": "G2",
          "midi": 43,
          "time": 147.85595999999984,
          "velocity": 0.8267716535433071,
          "duration": 2.1428400000000067
        },
        {
          "name": "B2",
          "midi": 47,
          "time": 147.85595999999984,
          "velocity": 0.8267716535433071,
          "duration": 2.1428400000000067
        },
        {
          "name": "B2",
          "midi": 47,
          "time": 156.42731999999984,
          "velocity": 0.5826771653543307,
          "duration": 0.40178249999999593
        },
        {
          "name": "G2",
          "midi": 43,
          "time": 156.42731999999984,
          "velocity": 0.7007874015748031,
          "duration": 0.40178249999999593
        },
        {
          "name": "B2",
          "midi": 47,
          "time": 156.96302999999983,
          "velocity": 0.6062992125984252,
          "duration": 0.2678549999999973
        },
        {
          "name": "G2",
          "midi": 43,
          "time": 156.96302999999983,
          "velocity": 0.7244094488188977,
          "duration": 0.2678549999999973
        },
        {
          "name": "B2",
          "midi": 47,
          "time": 157.23088499999983,
          "velocity": 0.6062992125984252,
          "duration": 0.2678549999999973
        },
        {
          "name": "G2",
          "midi": 43,
          "time": 157.23088499999983,
          "velocity": 0.7244094488188977,
          "duration": 0.2678549999999973
        },
        {
          "name": "C3",
          "midi": 48,
          "time": 157.76659499999982,
          "velocity": 0.7244094488188977,
          "duration": 0.13392749999999864
        },
        {
          "name": "E3",
          "midi": 52,
          "time": 157.76659499999982,
          "velocity": 0.6062992125984252,
          "duration": 0.13392749999999864
        },
        {
          "name": "C3",
          "midi": 48,
          "time": 158.03444999999982,
          "velocity": 0.7244094488188977,
          "duration": 0.40178249999999593
        },
        {
          "name": "E3",
          "midi": 52,
          "time": 158.03444999999982,
          "velocity": 0.6062992125984252,
          "duration": 0.40178249999999593
        },
        {
          "name": "E3",
          "midi": 52,
          "time": 158.57015999999982,
          "velocity": 0.7244094488188977,
          "duration": 0.2678549999999973
        },
        {
          "name": "G3",
          "midi": 55,
          "time": 158.57015999999982,
          "velocity": 0.6062992125984252,
          "duration": 0.2678549999999973
        },
        {
          "name": "E3",
          "midi": 52,
          "time": 158.9719424999998,
          "velocity": 0.7086614173228346,
          "duration": 0.13392749999999864
        },
        {
          "name": "G3",
          "midi": 55,
          "time": 158.9719424999998,
          "velocity": 0.6062992125984252,
          "duration": 0.13392749999999864
        },
        {
          "name": "E3",
          "midi": 52,
          "time": 159.1058699999998,
          "velocity": 0.7086614173228346,
          "duration": 0.13392749999999864
        },
        {
          "name": "G3",
          "midi": 55,
          "time": 159.1058699999998,
          "velocity": 0.6062992125984252,
          "duration": 0.13392749999999864
        },
        {
          "name": "E3",
          "midi": 52,
          "time": 159.3737249999998,
          "velocity": 0.7007874015748031,
          "duration": 0.2678549999999973
        },
        {
          "name": "G3",
          "midi": 55,
          "time": 159.3737249999998,
          "velocity": 0.6062992125984252,
          "duration": 0.2678549999999973
        },
        {
          "name": "D3",
          "midi": 50,
          "time": 159.9094349999998,
          "velocity": 0.7007874015748031,
          "duration": 0.13392749999999864
        },
        {
          "name": "F#3",
          "midi": 54,
          "time": 159.9094349999998,
          "velocity": 0.6062992125984252,
          "duration": 0.13392749999999864
        },
        {
          "name": "D3",
          "midi": 50,
          "time": 160.1772899999998,
          "velocity": 0.7086614173228346,
          "duration": 0.2678549999999973
        },
        {
          "name": "F#3",
          "midi": 54,
          "time": 160.1772899999998,
          "velocity": 0.6062992125984252,
          "duration": 0.2678549999999973
        },
        {
          "name": "A2",
          "midi": 45,
          "time": 160.4451449999998,
          "velocity": 0.6062992125984252,
          "duration": 0.2678549999999973
        },
        {
          "name": "F#2",
          "midi": 42,
          "time": 160.4451449999998,
          "velocity": 0.7244094488188977,
          "duration": 0.2678549999999973
        },
        {
          "name": "B2",
          "midi": 47,
          "time": 160.7129999999998,
          "velocity": 0.5826771653543307,
          "duration": 0.40178249999999593
        },
        {
          "name": "G2",
          "midi": 43,
          "time": 160.7129999999998,
          "velocity": 0.7007874015748031,
          "duration": 0.40178249999999593
        },
        {
          "name": "B2",
          "midi": 47,
          "time": 161.2487099999998,
          "velocity": 0.6062992125984252,
          "duration": 0.2678549999999973
        },
        {
          "name": "G2",
          "midi": 43,
          "time": 161.2487099999998,
          "velocity": 0.7244094488188977,
          "duration": 0.2678549999999973
        },
        {
          "name": "B2",
          "midi": 47,
          "time": 161.5165649999998,
          "velocity": 0.6062992125984252,
          "duration": 0.2678549999999973
        },
        {
          "name": "G2",
          "midi": 43,
          "time": 161.5165649999998,
          "velocity": 0.7244094488188977,
          "duration": 0.2678549999999973
        },
        {
          "name": "C3",
          "midi": 48,
          "time": 162.05227499999978,
          "velocity": 0.7244094488188977,
          "duration": 0.13392749999999864
        },
        {
          "name": "E3",
          "midi": 52,
          "time": 162.05227499999978,
          "velocity": 0.6062992125984252,
          "duration": 0.13392749999999864
        },
        {
          "name": "C3",
          "midi": 48,
          "time": 162.32012999999978,
          "velocity": 0.7244094488188977,
          "duration": 0.40178249999999593
        },
        {
          "name": "E3",
          "midi": 52,
          "time": 162.32012999999978,
          "velocity": 0.6062992125984252,
          "duration": 0.40178249999999593
        },
        {
          "name": "E3",
          "midi": 52,
          "time": 162.85583999999977,
          "velocity": 0.7244094488188977,
          "duration": 0.2678549999999973
        },
        {
          "name": "G3",
          "midi": 55,
          "time": 162.85583999999977,
          "velocity": 0.6062992125984252,
          "duration": 0.2678549999999973
        },
        {
          "name": "E3",
          "midi": 52,
          "time": 163.25762249999977,
          "velocity": 0.7086614173228346,
          "duration": 0.13392749999999864
        },
        {
          "name": "G3",
          "midi": 55,
          "time": 163.25762249999977,
          "velocity": 0.6062992125984252,
          "duration": 0.13392749999999864
        },
        {
          "name": "E3",
          "midi": 52,
          "time": 163.39154999999977,
          "velocity": 0.7086614173228346,
          "duration": 0.13392749999999864
        },
        {
          "name": "G3",
          "midi": 55,
          "time": 163.39154999999977,
          "velocity": 0.6062992125984252,
          "duration": 0.13392749999999864
        },
        {
          "name": "E3",
          "midi": 52,
          "time": 163.65940499999977,
          "velocity": 0.7007874015748031,
          "duration": 0.2678549999999973
        },
        {
          "name": "G3",
          "midi": 55,
          "time": 163.65940499999977,
          "velocity": 0.6062992125984252,
          "duration": 0.2678549999999973
        },
        {
          "name": "D3",
          "midi": 50,
          "time": 164.19511499999976,
          "velocity": 0.7007874015748031,
          "duration": 0.13392749999999864
        },
        {
          "name": "F#3",
          "midi": 54,
          "time": 164.19511499999976,
          "velocity": 0.6062992125984252,
          "duration": 0.13392749999999864
        },
        {
          "name": "D3",
          "midi": 50,
          "time": 164.46296999999976,
          "velocity": 0.7086614173228346,
          "duration": 0.2678549999999973
        },
        {
          "name": "F#3",
          "midi": 54,
          "time": 164.46296999999976,
          "velocity": 0.6062992125984252,
          "duration": 0.2678549999999973
        },
        {
          "name": "A2",
          "midi": 45,
          "time": 164.73082499999975,
          "velocity": 0.6062992125984252,
          "duration": 0.2678549999999973
        },
        {
          "name": "F#2",
          "midi": 42,
          "time": 164.73082499999975,
          "velocity": 0.7244094488188977,
          "duration": 0.2678549999999973
        },
        {
          "name": "B2",
          "midi": 47,
          "time": 164.99867999999975,
          "velocity": 0.5826771653543307,
          "duration": 0.40178249999999593
        },
        {
          "name": "G2",
          "midi": 43,
          "time": 164.99867999999975,
          "velocity": 0.7007874015748031,
          "duration": 0.40178249999999593
        },
        {
          "name": "B2",
          "midi": 47,
          "time": 165.53438999999975,
          "velocity": 0.6062992125984252,
          "duration": 0.2678549999999973
        },
        {
          "name": "G2",
          "midi": 43,
          "time": 165.53438999999975,
          "velocity": 0.7244094488188977,
          "duration": 0.2678549999999973
        },
        {
          "name": "B2",
          "midi": 47,
          "time": 165.80224499999974,
          "velocity": 0.6062992125984252,
          "duration": 0.2678549999999973
        },
        {
          "name": "G2",
          "midi": 43,
          "time": 165.80224499999974,
          "velocity": 0.7244094488188977,
          "duration": 0.2678549999999973
        },
        {
          "name": "C3",
          "midi": 48,
          "time": 166.33795499999974,
          "velocity": 0.7244094488188977,
          "duration": 0.13392749999999864
        },
        {
          "name": "E3",
          "midi": 52,
          "time": 166.33795499999974,
          "velocity": 0.6062992125984252,
          "duration": 0.13392749999999864
        },
        {
          "name": "C3",
          "midi": 48,
          "time": 166.60580999999974,
          "velocity": 0.7244094488188977,
          "duration": 0.40178249999999593
        },
        {
          "name": "E3",
          "midi": 52,
          "time": 166.60580999999974,
          "velocity": 0.6062992125984252,
          "duration": 0.40178249999999593
        },
        {
          "name": "E3",
          "midi": 52,
          "time": 167.14151999999973,
          "velocity": 0.7244094488188977,
          "duration": 0.2678549999999973
        },
        {
          "name": "G3",
          "midi": 55,
          "time": 167.14151999999973,
          "velocity": 0.6062992125984252,
          "duration": 0.2678549999999973
        },
        {
          "name": "E3",
          "midi": 52,
          "time": 167.54330249999973,
          "velocity": 0.7086614173228346,
          "duration": 0.13392749999999864
        },
        {
          "name": "G3",
          "midi": 55,
          "time": 167.54330249999973,
          "velocity": 0.6062992125984252,
          "duration": 0.13392749999999864
        },
        {
          "name": "E3",
          "midi": 52,
          "time": 167.67722999999972,
          "velocity": 0.7086614173228346,
          "duration": 0.13392749999999864
        },
        {
          "name": "G3",
          "midi": 55,
          "time": 167.67722999999972,
          "velocity": 0.6062992125984252,
          "duration": 0.13392749999999864
        },
        {
          "name": "E3",
          "midi": 52,
          "time": 167.94508499999972,
          "velocity": 0.7007874015748031,
          "duration": 0.2678549999999973
        },
        {
          "name": "G3",
          "midi": 55,
          "time": 167.94508499999972,
          "velocity": 0.6062992125984252,
          "duration": 0.2678549999999973
        },
        {
          "name": "D3",
          "midi": 50,
          "time": 168.48079499999972,
          "velocity": 0.7007874015748031,
          "duration": 0.13392749999999864
        },
        {
          "name": "F#3",
          "midi": 54,
          "time": 168.48079499999972,
          "velocity": 0.6062992125984252,
          "duration": 0.13392749999999864
        },
        {
          "name": "D3",
          "midi": 50,
          "time": 168.7486499999997,
          "velocity": 0.7086614173228346,
          "duration": 0.2678549999999973
        },
        {
          "name": "F#3",
          "midi": 54,
          "time": 168.7486499999997,
          "velocity": 0.6062992125984252,
          "duration": 0.2678549999999973
        },
        {
          "name": "A2",
          "midi": 45,
          "time": 169.0165049999997,
          "velocity": 0.6062992125984252,
          "duration": 0.2678549999999973
        },
        {
          "name": "F#2",
          "midi": 42,
          "time": 169.0165049999997,
          "velocity": 0.7244094488188977,
          "duration": 0.2678549999999973
        },
        {
          "name": "B2",
          "midi": 47,
          "time": 169.2843599999997,
          "velocity": 0.5826771653543307,
          "duration": 0.40178249999999593
        },
        {
          "name": "G2",
          "midi": 43,
          "time": 169.2843599999997,
          "velocity": 0.7007874015748031,
          "duration": 0.40178249999999593
        },
        {
          "name": "B2",
          "midi": 47,
          "time": 169.8200699999997,
          "velocity": 0.6062992125984252,
          "duration": 0.2678549999999973
        },
        {
          "name": "G2",
          "midi": 43,
          "time": 169.8200699999997,
          "velocity": 0.7244094488188977,
          "duration": 0.2678549999999973
        },
        {
          "name": "B2",
          "midi": 47,
          "time": 170.0879249999997,
          "velocity": 0.6062992125984252,
          "duration": 0.2678549999999973
        },
        {
          "name": "G2",
          "midi": 43,
          "time": 170.0879249999997,
          "velocity": 0.7244094488188977,
          "duration": 0.2678549999999973
        },
        {
          "name": "C3",
          "midi": 48,
          "time": 170.6236349999997,
          "velocity": 0.7244094488188977,
          "duration": 0.13392749999999864
        },
        {
          "name": "E3",
          "midi": 52,
          "time": 170.6236349999997,
          "velocity": 0.6062992125984252,
          "duration": 0.13392749999999864
        },
        {
          "name": "C3",
          "midi": 48,
          "time": 170.8914899999997,
          "velocity": 0.7244094488188977,
          "duration": 0.40178249999999593
        },
        {
          "name": "E3",
          "midi": 52,
          "time": 170.8914899999997,
          "velocity": 0.6062992125984252,
          "duration": 0.40178249999999593
        },
        {
          "name": "E3",
          "midi": 52,
          "time": 171.4271999999997,
          "velocity": 0.7244094488188977,
          "duration": 0.2678549999999973
        },
        {
          "name": "G3",
          "midi": 55,
          "time": 171.4271999999997,
          "velocity": 0.6062992125984252,
          "duration": 0.2678549999999973
        },
        {
          "name": "E3",
          "midi": 52,
          "time": 171.82898249999968,
          "velocity": 0.7086614173228346,
          "duration": 0.13392749999999864
        },
        {
          "name": "G3",
          "midi": 55,
          "time": 171.82898249999968,
          "velocity": 0.6062992125984252,
          "duration": 0.13392749999999864
        },
        {
          "name": "E3",
          "midi": 52,
          "time": 171.96290999999968,
          "velocity": 0.7086614173228346,
          "duration": 0.13392749999999864
        },
        {
          "name": "G3",
          "midi": 55,
          "time": 171.96290999999968,
          "velocity": 0.6062992125984252,
          "duration": 0.13392749999999864
        },
        {
          "name": "E3",
          "midi": 52,
          "time": 172.23076499999968,
          "velocity": 0.7007874015748031,
          "duration": 0.2678549999999973
        },
        {
          "name": "G3",
          "midi": 55,
          "time": 172.23076499999968,
          "velocity": 0.6062992125984252,
          "duration": 0.2678549999999973
        },
        {
          "name": "D3",
          "midi": 50,
          "time": 172.76647499999967,
          "velocity": 0.7007874015748031,
          "duration": 0.13392749999999864
        },
        {
          "name": "F#3",
          "midi": 54,
          "time": 172.76647499999967,
          "velocity": 0.6062992125984252,
          "duration": 0.13392749999999864
        },
        {
          "name": "D3",
          "midi": 50,
          "time": 173.03432999999967,
          "velocity": 0.7086614173228346,
          "duration": 0.2678549999999973
        },
        {
          "name": "F#3",
          "midi": 54,
          "time": 173.03432999999967,
          "velocity": 0.6062992125984252,
          "duration": 0.2678549999999973
        },
        {
          "name": "A2",
          "midi": 45,
          "time": 173.30218499999967,
          "velocity": 0.6062992125984252,
          "duration": 0.2678549999999973
        },
        {
          "name": "F#2",
          "midi": 42,
          "time": 173.30218499999967,
          "velocity": 0.7244094488188977,
          "duration": 0.2678549999999973
        },
        {
          "name": "B2",
          "midi": 47,
          "time": 173.57003999999966,
          "velocity": 0.5826771653543307,
          "duration": 0.40178249999999593
        },
        {
          "name": "G2",
          "midi": 43,
          "time": 173.57003999999966,
          "velocity": 0.7007874015748031,
          "duration": 0.40178249999999593
        },
        {
          "name": "B2",
          "midi": 47,
          "time": 174.10574999999966,
          "velocity": 0.6062992125984252,
          "duration": 0.2678549999999973
        },
        {
          "name": "G2",
          "midi": 43,
          "time": 174.10574999999966,
          "velocity": 0.7244094488188977,
          "duration": 0.2678549999999973
        },
        {
          "name": "B2",
          "midi": 47,
          "time": 174.37360499999966,
          "velocity": 0.6062992125984252,
          "duration": 0.2678549999999973
        },
        {
          "name": "G2",
          "midi": 43,
          "time": 174.37360499999966,
          "velocity": 0.7244094488188977,
          "duration": 0.2678549999999973
        },
        {
          "name": "C3",
          "midi": 48,
          "time": 174.90931499999965,
          "velocity": 0.7244094488188977,
          "duration": 0.13392749999999864
        },
        {
          "name": "E3",
          "midi": 52,
          "time": 174.90931499999965,
          "velocity": 0.6062992125984252,
          "duration": 0.13392749999999864
        },
        {
          "name": "C3",
          "midi": 48,
          "time": 175.17716999999965,
          "velocity": 0.7244094488188977,
          "duration": 0.40178249999999593
        },
        {
          "name": "E3",
          "midi": 52,
          "time": 175.17716999999965,
          "velocity": 0.6062992125984252,
          "duration": 0.40178249999999593
        },
        {
          "name": "E3",
          "midi": 52,
          "time": 175.71287999999964,
          "velocity": 0.7244094488188977,
          "duration": 0.2678549999999973
        },
        {
          "name": "G3",
          "midi": 55,
          "time": 175.71287999999964,
          "velocity": 0.6062992125984252,
          "duration": 0.2678549999999973
        },
        {
          "name": "E3",
          "midi": 52,
          "time": 176.11466249999964,
          "velocity": 0.7086614173228346,
          "duration": 0.13392749999999864
        },
        {
          "name": "G3",
          "midi": 55,
          "time": 176.11466249999964,
          "velocity": 0.6062992125984252,
          "duration": 0.13392749999999864
        },
        {
          "name": "E3",
          "midi": 52,
          "time": 176.24858999999964,
          "velocity": 0.7086614173228346,
          "duration": 0.13392749999999864
        },
        {
          "name": "G3",
          "midi": 55,
          "time": 176.24858999999964,
          "velocity": 0.6062992125984252,
          "duration": 0.13392749999999864
        },
        {
          "name": "E3",
          "midi": 52,
          "time": 176.51644499999964,
          "velocity": 0.7007874015748031,
          "duration": 0.2678549999999973
        },
        {
          "name": "G3",
          "midi": 55,
          "time": 176.51644499999964,
          "velocity": 0.6062992125984252,
          "duration": 0.2678549999999973
        },
        {
          "name": "D3",
          "midi": 50,
          "time": 177.05215499999963,
          "velocity": 0.7007874015748031,
          "duration": 0.13392749999999864
        },
        {
          "name": "F#3",
          "midi": 54,
          "time": 177.05215499999963,
          "velocity": 0.6062992125984252,
          "duration": 0.13392749999999864
        },
        {
          "name": "D3",
          "midi": 50,
          "time": 177.32000999999963,
          "velocity": 0.7086614173228346,
          "duration": 0.2678549999999973
        },
        {
          "name": "F#3",
          "midi": 54,
          "time": 177.32000999999963,
          "velocity": 0.6062992125984252,
          "duration": 0.2678549999999973
        },
        {
          "name": "A2",
          "midi": 45,
          "time": 177.58786499999962,
          "velocity": 0.6062992125984252,
          "duration": 0.2678549999999973
        },
        {
          "name": "F#2",
          "midi": 42,
          "time": 177.58786499999962,
          "velocity": 0.7244094488188977,
          "duration": 0.2678549999999973
        },
        {
          "name": "B2",
          "midi": 47,
          "time": 177.85571999999962,
          "velocity": 0.5826771653543307,
          "duration": 0.40178249999999593
        },
        {
          "name": "G2",
          "midi": 43,
          "time": 177.85571999999962,
          "velocity": 0.7007874015748031,
          "duration": 0.40178249999999593
        },
        {
          "name": "B2",
          "midi": 47,
          "time": 178.39142999999962,
          "velocity": 0.6062992125984252,
          "duration": 0.2678549999999973
        },
        {
          "name": "G2",
          "midi": 43,
          "time": 178.39142999999962,
          "velocity": 0.7244094488188977,
          "duration": 0.2678549999999973
        },
        {
          "name": "B2",
          "midi": 47,
          "time": 178.6592849999996,
          "velocity": 0.6062992125984252,
          "duration": 0.2678549999999973
        },
        {
          "name": "G2",
          "midi": 43,
          "time": 178.6592849999996,
          "velocity": 0.7244094488188977,
          "duration": 0.2678549999999973
        },
        {
          "name": "C3",
          "midi": 48,
          "time": 179.1949949999996,
          "velocity": 0.7244094488188977,
          "duration": 0.13392749999999864
        },
        {
          "name": "E3",
          "midi": 52,
          "time": 179.1949949999996,
          "velocity": 0.6062992125984252,
          "duration": 0.13392749999999864
        },
        {
          "name": "C3",
          "midi": 48,
          "time": 179.4628499999996,
          "velocity": 0.7244094488188977,
          "duration": 0.40178249999999593
        },
        {
          "name": "E3",
          "midi": 52,
          "time": 179.4628499999996,
          "velocity": 0.6062992125984252,
          "duration": 0.40178249999999593
        },
        {
          "name": "E3",
          "midi": 52,
          "time": 179.9985599999996,
          "velocity": 0.7244094488188977,
          "duration": 0.2678549999999973
        },
        {
          "name": "G3",
          "midi": 55,
          "time": 179.9985599999996,
          "velocity": 0.6062992125984252,
          "duration": 0.2678549999999973
        },
        {
          "name": "E3",
          "midi": 52,
          "time": 180.4003424999996,
          "velocity": 0.7086614173228346,
          "duration": 0.13392749999999864
        },
        {
          "name": "G3",
          "midi": 55,
          "time": 180.4003424999996,
          "velocity": 0.6062992125984252,
          "duration": 0.13392749999999864
        },
        {
          "name": "E3",
          "midi": 52,
          "time": 180.5342699999996,
          "velocity": 0.7086614173228346,
          "duration": 0.13392749999999864
        },
        {
          "name": "G3",
          "midi": 55,
          "time": 180.5342699999996,
          "velocity": 0.6062992125984252,
          "duration": 0.13392749999999864
        },
        {
          "name": "E3",
          "midi": 52,
          "time": 180.8021249999996,
          "velocity": 0.7007874015748031,
          "duration": 0.2678549999999973
        },
        {
          "name": "G3",
          "midi": 55,
          "time": 180.8021249999996,
          "velocity": 0.6062992125984252,
          "duration": 0.2678549999999973
        },
        {
          "name": "D3",
          "midi": 50,
          "time": 181.3378349999996,
          "velocity": 0.7007874015748031,
          "duration": 0.13392749999999864
        },
        {
          "name": "F#3",
          "midi": 54,
          "time": 181.3378349999996,
          "velocity": 0.6062992125984252,
          "duration": 0.13392749999999864
        },
        {
          "name": "D3",
          "midi": 50,
          "time": 181.60568999999958,
          "velocity": 0.7086614173228346,
          "duration": 0.2678549999999973
        },
        {
          "name": "F#3",
          "midi": 54,
          "time": 181.60568999999958,
          "velocity": 0.6062992125984252,
          "duration": 0.2678549999999973
        },
        {
          "name": "A2",
          "midi": 45,
          "time": 181.87354499999958,
          "velocity": 0.6062992125984252,
          "duration": 0.2678549999999973
        },
        {
          "name": "F#2",
          "midi": 42,
          "time": 181.87354499999958,
          "velocity": 0.7244094488188977,
          "duration": 0.2678549999999973
        },
        {
          "name": "B2",
          "midi": 47,
          "time": 182.14139999999958,
          "velocity": 0.5826771653543307,
          "duration": 0.40178249999999593
        },
        {
          "name": "G2",
          "midi": 43,
          "time": 182.14139999999958,
          "velocity": 0.7007874015748031,
          "duration": 0.40178249999999593
        },
        {
          "name": "B2",
          "midi": 47,
          "time": 182.67710999999957,
          "velocity": 0.6062992125984252,
          "duration": 0.2678549999999973
        },
        {
          "name": "G2",
          "midi": 43,
          "time": 182.67710999999957,
          "velocity": 0.7244094488188977,
          "duration": 0.2678549999999973
        },
        {
          "name": "B2",
          "midi": 47,
          "time": 182.94496499999957,
          "velocity": 0.6062992125984252,
          "duration": 0.2678549999999973
        },
        {
          "name": "G2",
          "midi": 43,
          "time": 182.94496499999957,
          "velocity": 0.7244094488188977,
          "duration": 0.2678549999999973
        },
        {
          "name": "C3",
          "midi": 48,
          "time": 183.48067499999956,
          "velocity": 0.7244094488188977,
          "duration": 0.13392749999999864
        },
        {
          "name": "E3",
          "midi": 52,
          "time": 183.48067499999956,
          "velocity": 0.6062992125984252,
          "duration": 0.13392749999999864
        },
        {
          "name": "C3",
          "midi": 48,
          "time": 183.74852999999956,
          "velocity": 0.7244094488188977,
          "duration": 0.40178249999999593
        },
        {
          "name": "E3",
          "midi": 52,
          "time": 183.74852999999956,
          "velocity": 0.6062992125984252,
          "duration": 0.40178249999999593
        },
        {
          "name": "E3",
          "midi": 52,
          "time": 184.28423999999956,
          "velocity": 0.7244094488188977,
          "duration": 0.2678549999999973
        },
        {
          "name": "G3",
          "midi": 55,
          "time": 184.28423999999956,
          "velocity": 0.6062992125984252,
          "duration": 0.2678549999999973
        },
        {
          "name": "E3",
          "midi": 52,
          "time": 184.68602249999955,
          "velocity": 0.7086614173228346,
          "duration": 0.13392749999999864
        },
        {
          "name": "G3",
          "midi": 55,
          "time": 184.68602249999955,
          "velocity": 0.6062992125984252,
          "duration": 0.13392749999999864
        },
        {
          "name": "E3",
          "midi": 52,
          "time": 184.81994999999955,
          "velocity": 0.7086614173228346,
          "duration": 0.13392749999999864
        },
        {
          "name": "G3",
          "midi": 55,
          "time": 184.81994999999955,
          "velocity": 0.6062992125984252,
          "duration": 0.13392749999999864
        },
        {
          "name": "E3",
          "midi": 52,
          "time": 185.08780499999955,
          "velocity": 0.7007874015748031,
          "duration": 0.2678549999999973
        },
        {
          "name": "G3",
          "midi": 55,
          "time": 185.08780499999955,
          "velocity": 0.6062992125984252,
          "duration": 0.2678549999999973
        },
        {
          "name": "D3",
          "midi": 50,
          "time": 185.62351499999954,
          "velocity": 0.7007874015748031,
          "duration": 0.13392749999999864
        },
        {
          "name": "F#3",
          "midi": 54,
          "time": 185.62351499999954,
          "velocity": 0.6062992125984252,
          "duration": 0.13392749999999864
        },
        {
          "name": "D3",
          "midi": 50,
          "time": 185.89136999999954,
          "velocity": 0.7086614173228346,
          "duration": 0.2678549999999973
        },
        {
          "name": "F#3",
          "midi": 54,
          "time": 185.89136999999954,
          "velocity": 0.6062992125984252,
          "duration": 0.2678549999999973
        },
        {
          "name": "A2",
          "midi": 45,
          "time": 186.15922499999954,
          "velocity": 0.6062992125984252,
          "duration": 0.2678549999999973
        },
        {
          "name": "F#2",
          "midi": 42,
          "time": 186.15922499999954,
          "velocity": 0.7244094488188977,
          "duration": 0.2678549999999973
        },
        {
          "name": "B2",
          "midi": 47,
          "time": 186.42707999999953,
          "velocity": 0.5826771653543307,
          "duration": 0.40178249999999593
        },
        {
          "name": "G2",
          "midi": 43,
          "time": 186.42707999999953,
          "velocity": 0.7007874015748031,
          "duration": 0.40178249999999593
        },
        {
          "name": "B2",
          "midi": 47,
          "time": 186.96278999999953,
          "velocity": 0.6062992125984252,
          "duration": 0.2678549999999973
        },
        {
          "name": "G2",
          "midi": 43,
          "time": 186.96278999999953,
          "velocity": 0.7244094488188977,
          "duration": 0.2678549999999973
        },
        {
          "name": "B2",
          "midi": 47,
          "time": 187.23064499999953,
          "velocity": 0.6062992125984252,
          "duration": 0.2678549999999973
        },
        {
          "name": "G2",
          "midi": 43,
          "time": 187.23064499999953,
          "velocity": 0.7244094488188977,
          "duration": 0.2678549999999973
        },
        {
          "name": "C3",
          "midi": 48,
          "time": 187.76635499999952,
          "velocity": 0.7244094488188977,
          "duration": 0.13392749999999864
        },
        {
          "name": "E3",
          "midi": 52,
          "time": 187.76635499999952,
          "velocity": 0.6062992125984252,
          "duration": 0.13392749999999864
        },
        {
          "name": "C3",
          "midi": 48,
          "time": 188.03420999999952,
          "velocity": 0.7244094488188977,
          "duration": 0.40178249999999593
        },
        {
          "name": "E3",
          "midi": 52,
          "time": 188.03420999999952,
          "velocity": 0.6062992125984252,
          "duration": 0.40178249999999593
        },
        {
          "name": "E3",
          "midi": 52,
          "time": 188.5699199999995,
          "velocity": 0.7244094488188977,
          "duration": 0.2678550000000257
        },
        {
          "name": "G3",
          "midi": 55,
          "time": 188.5699199999995,
          "velocity": 0.6062992125984252,
          "duration": 0.2678550000000257
        },
        {
          "name": "E3",
          "midi": 52,
          "time": 188.97170249999954,
          "velocity": 0.7086614173228346,
          "duration": 0.13392749999999864
        },
        {
          "name": "G3",
          "midi": 55,
          "time": 188.97170249999954,
          "velocity": 0.6062992125984252,
          "duration": 0.13392749999999864
        },
        {
          "name": "E3",
          "midi": 52,
          "time": 189.10562999999954,
          "velocity": 0.7086614173228346,
          "duration": 0.13392749999999864
        },
        {
          "name": "G3",
          "midi": 55,
          "time": 189.10562999999954,
          "velocity": 0.6062992125984252,
          "duration": 0.13392749999999864
        },
        {
          "name": "E3",
          "midi": 52,
          "time": 189.37348499999953,
          "velocity": 0.7007874015748031,
          "duration": 0.2678549999999973
        },
        {
          "name": "G3",
          "midi": 55,
          "time": 189.37348499999953,
          "velocity": 0.6062992125984252,
          "duration": 0.2678549999999973
        },
        {
          "name": "D3",
          "midi": 50,
          "time": 189.90919499999953,
          "velocity": 0.7007874015748031,
          "duration": 0.13392749999999864
        },
        {
          "name": "F#3",
          "midi": 54,
          "time": 189.90919499999953,
          "velocity": 0.6062992125984252,
          "duration": 0.13392749999999864
        },
        {
          "name": "D3",
          "midi": 50,
          "time": 190.17704999999953,
          "velocity": 0.7086614173228346,
          "duration": 0.2678549999999973
        },
        {
          "name": "F#3",
          "midi": 54,
          "time": 190.17704999999953,
          "velocity": 0.6062992125984252,
          "duration": 0.2678549999999973
        },
        {
          "name": "A2",
          "midi": 45,
          "time": 190.44490499999952,
          "velocity": 0.6062992125984252,
          "duration": 0.2678549999999973
        },
        {
          "name": "F#2",
          "midi": 42,
          "time": 190.44490499999952,
          "velocity": 0.7244094488188977,
          "duration": 0.2678549999999973
        },
        {
          "name": "B2",
          "midi": 47,
          "time": 190.71275999999952,
          "velocity": 0.5826771653543307,
          "duration": 0.40178249999999593
        },
        {
          "name": "G2",
          "midi": 43,
          "time": 190.71275999999952,
          "velocity": 0.7007874015748031,
          "duration": 0.40178249999999593
        },
        {
          "name": "B2",
          "midi": 47,
          "time": 191.24846999999951,
          "velocity": 0.6062992125984252,
          "duration": 0.2678549999999973
        },
        {
          "name": "G2",
          "midi": 43,
          "time": 191.24846999999951,
          "velocity": 0.7244094488188977,
          "duration": 0.2678549999999973
        },
        {
          "name": "B2",
          "midi": 47,
          "time": 191.5163249999995,
          "velocity": 0.6062992125984252,
          "duration": 0.2678549999999973
        },
        {
          "name": "G2",
          "midi": 43,
          "time": 191.5163249999995,
          "velocity": 0.7244094488188977,
          "duration": 0.2678549999999973
        },
        {
          "name": "C3",
          "midi": 48,
          "time": 192.0520349999995,
          "velocity": 0.7244094488188977,
          "duration": 0.13392749999999864
        },
        {
          "name": "E3",
          "midi": 52,
          "time": 192.0520349999995,
          "velocity": 0.6062992125984252,
          "duration": 0.13392749999999864
        },
        {
          "name": "C3",
          "midi": 48,
          "time": 192.3198899999995,
          "velocity": 0.7244094488188977,
          "duration": 0.40178249999999593
        },
        {
          "name": "E3",
          "midi": 52,
          "time": 192.3198899999995,
          "velocity": 0.6062992125984252,
          "duration": 0.40178249999999593
        },
        {
          "name": "E3",
          "midi": 52,
          "time": 192.8555999999995,
          "velocity": 0.7244094488188977,
          "duration": 0.2678549999999973
        },
        {
          "name": "G3",
          "midi": 55,
          "time": 192.8555999999995,
          "velocity": 0.6062992125984252,
          "duration": 0.2678549999999973
        },
        {
          "name": "E3",
          "midi": 52,
          "time": 193.2573824999995,
          "velocity": 0.7086614173228346,
          "duration": 0.13392749999999864
        },
        {
          "name": "G3",
          "midi": 55,
          "time": 193.2573824999995,
          "velocity": 0.6062992125984252,
          "duration": 0.13392749999999864
        },
        {
          "name": "E3",
          "midi": 52,
          "time": 193.3913099999995,
          "velocity": 0.7086614173228346,
          "duration": 0.13392749999999864
        },
        {
          "name": "G3",
          "midi": 55,
          "time": 193.3913099999995,
          "velocity": 0.6062992125984252,
          "duration": 0.13392749999999864
        },
        {
          "name": "E3",
          "midi": 52,
          "time": 193.6591649999995,
          "velocity": 0.7007874015748031,
          "duration": 0.2678549999999973
        },
        {
          "name": "G3",
          "midi": 55,
          "time": 193.6591649999995,
          "velocity": 0.6062992125984252,
          "duration": 0.2678549999999973
        },
        {
          "name": "D3",
          "midi": 50,
          "time": 194.19487499999948,
          "velocity": 0.7007874015748031,
          "duration": 0.13392749999999864
        },
        {
          "name": "F#3",
          "midi": 54,
          "time": 194.19487499999948,
          "velocity": 0.6062992125984252,
          "duration": 0.13392749999999864
        },
        {
          "name": "D3",
          "midi": 50,
          "time": 194.46272999999948,
          "velocity": 0.7086614173228346,
          "duration": 0.2678549999999973
        },
        {
          "name": "F#3",
          "midi": 54,
          "time": 194.46272999999948,
          "velocity": 0.6062992125984252,
          "duration": 0.2678549999999973
        },
        {
          "name": "A2",
          "midi": 45,
          "time": 194.73058499999948,
          "velocity": 0.6062992125984252,
          "duration": 0.2678549999999973
        },
        {
          "name": "F#2",
          "midi": 42,
          "time": 194.73058499999948,
          "velocity": 0.7244094488188977,
          "duration": 0.2678549999999973
        },
        {
          "name": "B2",
          "midi": 47,
          "time": 194.99843999999948,
          "velocity": 0.5826771653543307,
          "duration": 0.40178249999999593
        },
        {
          "name": "G2",
          "midi": 43,
          "time": 194.99843999999948,
          "velocity": 0.7007874015748031,
          "duration": 0.40178249999999593
        },
        {
          "name": "B2",
          "midi": 47,
          "time": 195.53414999999947,
          "velocity": 0.6062992125984252,
          "duration": 0.2678549999999973
        },
        {
          "name": "G2",
          "midi": 43,
          "time": 195.53414999999947,
          "velocity": 0.7244094488188977,
          "duration": 0.2678549999999973
        },
        {
          "name": "B2",
          "midi": 47,
          "time": 195.80200499999947,
          "velocity": 0.6062992125984252,
          "duration": 0.2678549999999973
        },
        {
          "name": "G2",
          "midi": 43,
          "time": 195.80200499999947,
          "velocity": 0.7244094488188977,
          "duration": 0.2678549999999973
        },
        {
          "name": "C3",
          "midi": 48,
          "time": 196.33771499999946,
          "velocity": 0.7244094488188977,
          "duration": 0.13392749999999864
        },
        {
          "name": "E3",
          "midi": 52,
          "time": 196.33771499999946,
          "velocity": 0.6062992125984252,
          "duration": 0.13392749999999864
        },
        {
          "name": "C3",
          "midi": 48,
          "time": 196.60556999999946,
          "velocity": 0.7244094488188977,
          "duration": 0.40178249999999593
        },
        {
          "name": "E3",
          "midi": 52,
          "time": 196.60556999999946,
          "velocity": 0.6062992125984252,
          "duration": 0.40178249999999593
        },
        {
          "name": "E3",
          "midi": 52,
          "time": 197.14127999999945,
          "velocity": 0.7244094488188977,
          "duration": 0.2678549999999973
        },
        {
          "name": "G3",
          "midi": 55,
          "time": 197.14127999999945,
          "velocity": 0.6062992125984252,
          "duration": 0.2678549999999973
        },
        {
          "name": "E3",
          "midi": 52,
          "time": 197.54306249999945,
          "velocity": 0.7086614173228346,
          "duration": 0.13392749999999864
        },
        {
          "name": "G3",
          "midi": 55,
          "time": 197.54306249999945,
          "velocity": 0.6062992125984252,
          "duration": 0.13392749999999864
        },
        {
          "name": "E3",
          "midi": 52,
          "time": 197.67698999999945,
          "velocity": 0.7086614173228346,
          "duration": 0.13392749999999864
        },
        {
          "name": "G3",
          "midi": 55,
          "time": 197.67698999999945,
          "velocity": 0.6062992125984252,
          "duration": 0.13392749999999864
        },
        {
          "name": "E3",
          "midi": 52,
          "time": 197.94484499999945,
          "velocity": 0.7007874015748031,
          "duration": 0.2678549999999973
        },
        {
          "name": "G3",
          "midi": 55,
          "time": 197.94484499999945,
          "velocity": 0.6062992125984252,
          "duration": 0.2678549999999973
        },
        {
          "name": "D3",
          "midi": 50,
          "time": 198.48055499999944,
          "velocity": 0.7007874015748031,
          "duration": 0.13392749999999864
        },
        {
          "name": "F#3",
          "midi": 54,
          "time": 198.48055499999944,
          "velocity": 0.6062992125984252,
          "duration": 0.13392749999999864
        },
        {
          "name": "D3",
          "midi": 50,
          "time": 198.74840999999944,
          "velocity": 0.7086614173228346,
          "duration": 0.2678549999999973
        },
        {
          "name": "F#3",
          "midi": 54,
          "time": 198.74840999999944,
          "velocity": 0.6062992125984252,
          "duration": 0.2678549999999973
        },
        {
          "name": "A2",
          "midi": 45,
          "time": 199.01626499999944,
          "velocity": 0.6062992125984252,
          "duration": 0.2678549999999973
        },
        {
          "name": "F#2",
          "midi": 42,
          "time": 199.01626499999944,
          "velocity": 0.7244094488188977,
          "duration": 0.2678549999999973
        },
        {
          "name": "B2",
          "midi": 47,
          "time": 199.28411999999943,
          "velocity": 0.5826771653543307,
          "duration": 0.40178249999999593
        },
        {
          "name": "G2",
          "midi": 43,
          "time": 199.28411999999943,
          "velocity": 0.7007874015748031,
          "duration": 0.40178249999999593
        },
        {
          "name": "B2",
          "midi": 47,
          "time": 199.81982999999943,
          "velocity": 0.6062992125984252,
          "duration": 0.2678549999999973
        },
        {
          "name": "G2",
          "midi": 43,
          "time": 199.81982999999943,
          "velocity": 0.7244094488188977,
          "duration": 0.2678549999999973
        },
        {
          "name": "B2",
          "midi": 47,
          "time": 200.08768499999942,
          "velocity": 0.6062992125984252,
          "duration": 0.2678549999999973
        },
        {
          "name": "G2",
          "midi": 43,
          "time": 200.08768499999942,
          "velocity": 0.7244094488188977,
          "duration": 0.2678549999999973
        },
        {
          "name": "C3",
          "midi": 48,
          "time": 200.62339499999942,
          "velocity": 0.7244094488188977,
          "duration": 0.13392749999999864
        },
        {
          "name": "E3",
          "midi": 52,
          "time": 200.62339499999942,
          "velocity": 0.6062992125984252,
          "duration": 0.13392749999999864
        },
        {
          "name": "C3",
          "midi": 48,
          "time": 200.89124999999942,
          "velocity": 0.7244094488188977,
          "duration": 0.40178249999999593
        },
        {
          "name": "E3",
          "midi": 52,
          "time": 200.89124999999942,
          "velocity": 0.6062992125984252,
          "duration": 0.40178249999999593
        }
      ],
      "controlChanges": {
        "1": [
          {
            "number": 1,
            "time": 1.4062387500000002,
            "value": 0
          }
        ],
        "2": [
          {
            "number": 2,
            "time": 1.8080212500000001,
            "value": 0
          }
        ],
        "7": [
          {
            "number": 7,
            "time": 1.2388293750000001,
            "value": 1
          }
        ],
        "10": [
          {
            "number": 10,
            "time": 1.305793125,
            "value": 0.5039370078740157
          }
        ],
        "11": [
          {
            "number": 11,
            "time": 105.57951249999986,
            "value": 0.9448818897637795
          },
          {
            "number": 11,
            "time": 106.56164749999986,
            "value": 0.8661417322834646
          },
          {
            "number": 11,
            "time": 107.63306749999987,
            "value": 0.7874015748031497
          },
          {
            "number": 11,
            "time": 108.21341999999987,
            "value": 0.7086614173228346
          },
          {
            "number": 11,
            "time": 108.70448749999987,
            "value": 0.6299212598425197
          },
          {
            "number": 11,
            "time": 109.19555499999987,
            "value": 0.5511811023622047
          },
          {
            "number": 11,
            "time": 109.73126499999987,
            "value": 0.47244094488188976
          },
          {
            "number": 11,
            "time": 110.26697499999986,
            "value": 0.31496062992125984
          },
          {
            "number": 11,
            "time": 110.84732749999986,
            "value": 0.07874015748031496
          },
          {
            "number": 11,
            "time": 111.29375249999987,
            "value": 1
          },
          {
            "number": 11,
            "time": 188.63688374999953,
            "value": 0.9448818897637795
          },
          {
            "number": 11,
            "time": 189.09446937499953,
            "value": 0.905511811023622
          },
          {
            "number": 11,
            "time": 189.64133999999953,
            "value": 0.8661417322834646
          },
          {
            "number": 11,
            "time": 190.16588937499952,
            "value": 0.8267716535433071
          },
          {
            "number": 11,
            "time": 190.71275999999952,
            "value": 0.7874015748031497
          },
          {
            "number": 11,
            "time": 191.24846999999951,
            "value": 0.7480314960629921
          },
          {
            "number": 11,
            "time": 191.7730193749995,
            "value": 0.7086614173228346
          },
          {
            "number": 11,
            "time": 192.3310506249995,
            "value": 0.6692913385826772
          },
          {
            "number": 11,
            "time": 192.8667606249995,
            "value": 0.6299212598425197
          },
          {
            "number": 11,
            "time": 193.3801493749995,
            "value": 0.5905511811023622
          },
          {
            "number": 11,
            "time": 193.91585937499948,
            "value": 0.5511811023622047
          },
          {
            "number": 11,
            "time": 194.46272999999948,
            "value": 0.5118110236220472
          },
          {
            "number": 11,
            "time": 195.00960062499948,
            "value": 0.47244094488188976
          },
          {
            "number": 11,
            "time": 195.53414999999947,
            "value": 0.4330708661417323
          },
          {
            "number": 11,
            "time": 196.05869937499946,
            "value": 0.3937007874015748
          },
          {
            "number": 11,
            "time": 196.61673062499946,
            "value": 0.3543307086614173
          },
          {
            "number": 11,
            "time": 197.14127999999945,
            "value": 0.31496062992125984
          },
          {
            "number": 11,
            "time": 197.67698999999945,
            "value": 0.2755905511811024
          },
          {
            "number": 11,
            "time": 198.20153937499944,
            "value": 0.23622047244094488
          },
          {
            "number": 11,
            "time": 198.75957062499944,
            "value": 0.1968503937007874
          },
          {
            "number": 11,
            "time": 199.27295937499943,
            "value": 0.15748031496062992
          },
          {
            "number": 11,
            "time": 199.81982999999943,
            "value": 0.11811023622047244
          },
          {
            "number": 11,
            "time": 200.35553999999942,
            "value": 0.07874015748031496
          },
          {
            "number": 11,
            "time": 200.88008937499941,
            "value": 0.03937007874015748
          },
          {
            "number": 11,
            "time": 201.3711568749994,
            "value": 0
          },
          {
            "number": 11,
            "time": 201.4269599999994,
            "value": 1
          }
        ],
        "32": [
          {
            "number": 32,
            "time": 1.1718656250000001,
            "value": 0
          }
        ],
        "91": [
          {
            "number": 91,
            "time": 1.5401662500000002,
            "value": 1
          }
        ],
        "93": [
          {
            "number": 93,
            "time": 1.6740937500000002,
            "value": 0
          }
        ],
        "121": [
          {
            "number": 121,
            "time": 0.9040106250000001,
            "value": 0
          }
        ]
      },
      "id": 4,
      "name": "OverDrive",
      "instrumentNumber": 29,
      "instrument": "overdriven guitar",
      "instrumentFamily": "guitar",
      "channelNumber": 3,
      "isPercussion": false
    },
    {
      "startTime": 42.85680000000001,
      "duration": 201.29303249999953,
      "length": 258,
      "notes": [
        {
          "name": "G2",
          "midi": 43,
          "time": 42.85680000000001,
          "velocity": 0.7480314960629921,
          "duration": 0.40178250000000304
        },
        {
          "name": "G2",
          "midi": 43,
          "time": 43.39251000000001,
          "velocity": 0.7480314960629921,
          "duration": 0.2678549999999973
        },
        {
          "name": "G2",
          "midi": 43,
          "time": 43.660365000000006,
          "velocity": 0.7480314960629921,
          "duration": 0.276225468749999
        },
        {
          "name": "C3",
          "midi": 48,
          "time": 44.19607500000001,
          "velocity": 0.7480314960629921,
          "duration": 0.13392749999999864
        },
        {
          "name": "C3",
          "midi": 48,
          "time": 44.463930000000005,
          "velocity": 0.7480314960629921,
          "duration": 0.40178250000000304
        },
        {
          "name": "E3",
          "midi": 52,
          "time": 44.99964000000001,
          "velocity": 0.7480314960629921,
          "duration": 0.2678549999999973
        },
        {
          "name": "E3",
          "midi": 52,
          "time": 45.4014225,
          "velocity": 0.7480314960629921,
          "duration": 0.13392749999999864
        },
        {
          "name": "E3",
          "midi": 52,
          "time": 45.53535,
          "velocity": 0.7480314960629921,
          "duration": 0.13392749999999864
        },
        {
          "name": "E3",
          "midi": 52,
          "time": 45.803205,
          "velocity": 0.7480314960629921,
          "duration": 0.40178250000000304
        },
        {
          "name": "D3",
          "midi": 50,
          "time": 46.338915,
          "velocity": 0.7480314960629921,
          "duration": 0.24274359374999932
        },
        {
          "name": "D3",
          "midi": 50,
          "time": 46.60677,
          "velocity": 0.7480314960629921,
          "duration": 0.276225468749999
        },
        {
          "name": "C3",
          "midi": 48,
          "time": 46.874624999999995,
          "velocity": 0.7480314960629921,
          "duration": 0.2678550000000044
        },
        {
          "name": "G2",
          "midi": 43,
          "time": 47.14248,
          "velocity": 0.7480314960629921,
          "duration": 0.40178250000000304
        },
        {
          "name": "G2",
          "midi": 43,
          "time": 47.67819,
          "velocity": 0.7480314960629921,
          "duration": 0.2678549999999973
        },
        {
          "name": "G2",
          "midi": 43,
          "time": 47.946045,
          "velocity": 0.7480314960629921,
          "duration": 0.276225468749999
        },
        {
          "name": "C3",
          "midi": 48,
          "time": 48.481755,
          "velocity": 0.7480314960629921,
          "duration": 0.13392749999999864
        },
        {
          "name": "C3",
          "midi": 48,
          "time": 48.74961,
          "velocity": 0.7480314960629921,
          "duration": 0.40178250000000304
        },
        {
          "name": "E3",
          "midi": 52,
          "time": 49.28532,
          "velocity": 0.7480314960629921,
          "duration": 0.2678549999999973
        },
        {
          "name": "E3",
          "midi": 52,
          "time": 49.687102499999995,
          "velocity": 0.7480314960629921,
          "duration": 0.13392749999999864
        },
        {
          "name": "E3",
          "midi": 52,
          "time": 49.82102999999999,
          "velocity": 0.7480314960629921,
          "duration": 0.13392749999999864
        },
        {
          "name": "E3",
          "midi": 52,
          "time": 50.08888499999999,
          "velocity": 0.7480314960629921,
          "duration": 0.40178250000000304
        },
        {
          "name": "D3",
          "midi": 50,
          "time": 50.62459499999999,
          "velocity": 0.7480314960629921,
          "duration": 0.24274359374999932
        },
        {
          "name": "D3",
          "midi": 50,
          "time": 50.89244999999999,
          "velocity": 0.7480314960629921,
          "duration": 0.276225468749999
        },
        {
          "name": "C3",
          "midi": 48,
          "time": 51.16030499999999,
          "velocity": 0.7480314960629921,
          "duration": 0.2678550000000044
        },
        {
          "name": "G2",
          "midi": 43,
          "time": 51.42815999999999,
          "velocity": 0.7480314960629921,
          "duration": 0.40178250000000304
        },
        {
          "name": "G2",
          "midi": 43,
          "time": 51.96386999999999,
          "velocity": 0.7480314960629921,
          "duration": 0.2678549999999973
        },
        {
          "name": "G2",
          "midi": 43,
          "time": 52.23172499999999,
          "velocity": 0.7480314960629921,
          "duration": 0.276225468749999
        },
        {
          "name": "C3",
          "midi": 48,
          "time": 52.76743499999999,
          "velocity": 0.7480314960629921,
          "duration": 0.13392749999999864
        },
        {
          "name": "C3",
          "midi": 48,
          "time": 53.03528999999999,
          "velocity": 0.7480314960629921,
          "duration": 0.40178250000000304
        },
        {
          "name": "E3",
          "midi": 52,
          "time": 53.57099999999999,
          "velocity": 0.7480314960629921,
          "duration": 0.2678549999999973
        },
        {
          "name": "E3",
          "midi": 52,
          "time": 53.97278249999999,
          "velocity": 0.7480314960629921,
          "duration": 0.13392749999999864
        },
        {
          "name": "E3",
          "midi": 52,
          "time": 54.106709999999985,
          "velocity": 0.7480314960629921,
          "duration": 0.13392749999999864
        },
        {
          "name": "E3",
          "midi": 52,
          "time": 54.37456499999998,
          "velocity": 0.7480314960629921,
          "duration": 0.40178250000000304
        },
        {
          "name": "D3",
          "midi": 50,
          "time": 54.910274999999984,
          "velocity": 0.7480314960629921,
          "duration": 0.24274359374999932
        },
        {
          "name": "D3",
          "midi": 50,
          "time": 55.17812999999998,
          "velocity": 0.7480314960629921,
          "duration": 0.276225468749999
        },
        {
          "name": "C3",
          "midi": 48,
          "time": 55.44598499999998,
          "velocity": 0.7480314960629921,
          "duration": 0.2678550000000044
        },
        {
          "name": "G2",
          "midi": 43,
          "time": 55.71383999999998,
          "velocity": 0.7480314960629921,
          "duration": 0.40178250000000304
        },
        {
          "name": "G2",
          "midi": 43,
          "time": 56.249549999999985,
          "velocity": 0.7480314960629921,
          "duration": 0.2678549999999973
        },
        {
          "name": "G2",
          "midi": 43,
          "time": 56.51740499999998,
          "velocity": 0.7480314960629921,
          "duration": 0.276225468749999
        },
        {
          "name": "C3",
          "midi": 48,
          "time": 57.053114999999984,
          "velocity": 0.7480314960629921,
          "duration": 0.13392749999999864
        },
        {
          "name": "C3",
          "midi": 48,
          "time": 57.32096999999998,
          "velocity": 0.7480314960629921,
          "duration": 0.40178250000000304
        },
        {
          "name": "E3",
          "midi": 52,
          "time": 57.85667999999998,
          "velocity": 0.7480314960629921,
          "duration": 0.2678549999999973
        },
        {
          "name": "E3",
          "midi": 52,
          "time": 58.25846249999998,
          "velocity": 0.7480314960629921,
          "duration": 0.13392749999999864
        },
        {
          "name": "E3",
          "midi": 52,
          "time": 58.39238999999998,
          "velocity": 0.7480314960629921,
          "duration": 0.13392749999999864
        },
        {
          "name": "E3",
          "midi": 52,
          "time": 58.660244999999975,
          "velocity": 0.7480314960629921,
          "duration": 0.40178250000000304
        },
        {
          "name": "D3",
          "midi": 50,
          "time": 59.19595499999998,
          "velocity": 0.7480314960629921,
          "duration": 0.24274359374999932
        },
        {
          "name": "D3",
          "midi": 50,
          "time": 59.463809999999974,
          "velocity": 0.7480314960629921,
          "duration": 0.276225468749999
        },
        {
          "name": "C3",
          "midi": 48,
          "time": 59.73166499999997,
          "velocity": 0.7480314960629921,
          "duration": 0.2678550000000044
        },
        {
          "name": "G2",
          "midi": 43,
          "time": 59.999519999999976,
          "velocity": 0.7480314960629921,
          "duration": 0.40178250000000304
        },
        {
          "name": "G2",
          "midi": 43,
          "time": 60.53522999999998,
          "velocity": 0.7480314960629921,
          "duration": 0.2678549999999973
        },
        {
          "name": "G2",
          "midi": 43,
          "time": 60.803084999999975,
          "velocity": 0.7480314960629921,
          "duration": 0.276225468749999
        },
        {
          "name": "C3",
          "midi": 48,
          "time": 61.338794999999976,
          "velocity": 0.7480314960629921,
          "duration": 0.13392749999999864
        },
        {
          "name": "C3",
          "midi": 48,
          "time": 61.60664999999997,
          "velocity": 0.7480314960629921,
          "duration": 0.40178250000000304
        },
        {
          "name": "E3",
          "midi": 52,
          "time": 62.142359999999975,
          "velocity": 0.7480314960629921,
          "duration": 0.2678549999999973
        },
        {
          "name": "E3",
          "midi": 52,
          "time": 62.54414249999997,
          "velocity": 0.7480314960629921,
          "duration": 0.13392749999999864
        },
        {
          "name": "E3",
          "midi": 52,
          "time": 62.67806999999997,
          "velocity": 0.7480314960629921,
          "duration": 0.13392749999999864
        },
        {
          "name": "E3",
          "midi": 52,
          "time": 62.94592499999997,
          "velocity": 0.7480314960629921,
          "duration": 0.40178250000000304
        },
        {
          "name": "D3",
          "midi": 50,
          "time": 63.48163499999997,
          "velocity": 0.7480314960629921,
          "duration": 0.24274359374999932
        },
        {
          "name": "D3",
          "midi": 50,
          "time": 63.749489999999966,
          "velocity": 0.7480314960629921,
          "duration": 0.276225468749999
        },
        {
          "name": "C3",
          "midi": 48,
          "time": 64.01734499999996,
          "velocity": 0.7480314960629921,
          "duration": 0.2678549999999973
        },
        {
          "name": "G2",
          "midi": 43,
          "time": 64.28519999999996,
          "velocity": 0.7480314960629921,
          "duration": 0.40178249999999593
        },
        {
          "name": "G2",
          "midi": 43,
          "time": 64.82090999999996,
          "velocity": 0.7480314960629921,
          "duration": 0.2678549999999973
        },
        {
          "name": "G2",
          "midi": 43,
          "time": 65.08876499999995,
          "velocity": 0.7480314960629921,
          "duration": 0.276225468749999
        },
        {
          "name": "C3",
          "midi": 48,
          "time": 65.62447499999995,
          "velocity": 0.7480314960629921,
          "duration": 0.13392749999999864
        },
        {
          "name": "C3",
          "midi": 48,
          "time": 65.89232999999994,
          "velocity": 0.7480314960629921,
          "duration": 0.40178249999999593
        },
        {
          "name": "D#3",
          "midi": 51,
          "time": 66.42803999999994,
          "velocity": 0.7874015748031497,
          "duration": 2.1428400000000067
        },
        {
          "name": "A2",
          "midi": 45,
          "time": 76.07081999999994,
          "velocity": 0.7165354330708661,
          "duration": 1.0714200000000034
        },
        {
          "name": "A2",
          "midi": 45,
          "time": 77.14223999999994,
          "velocity": 0.9133858267716536,
          "duration": 1.607129999999998
        },
        {
          "name": "A2",
          "midi": 45,
          "time": 78.74936999999994,
          "velocity": 0.9291338582677166,
          "duration": 0.5357099999999946
        },
        {
          "name": "A2",
          "midi": 45,
          "time": 79.28507999999994,
          "velocity": 0.968503937007874,
          "duration": 2.1428400000000067
        },
        {
          "name": "D3",
          "midi": 50,
          "time": 81.42791999999994,
          "velocity": 0.8188976377952756,
          "duration": 1.0714200000000034
        },
        {
          "name": "G2",
          "midi": 43,
          "time": 82.49933999999995,
          "velocity": 0.84251968503937,
          "duration": 1.0714200000000034
        },
        {
          "name": "F#2",
          "midi": 42,
          "time": 83.57075999999995,
          "velocity": 0.8503937007874016,
          "duration": 1.0714200000000034
        },
        {
          "name": "E2",
          "midi": 40,
          "time": 84.64217999999995,
          "velocity": 0.8582677165354331,
          "duration": 1.0714200000000034
        },
        {
          "name": "D3",
          "midi": 50,
          "time": 85.71359999999996,
          "velocity": 0.8661417322834646,
          "duration": 1.0714200000000034
        },
        {
          "name": "G2",
          "midi": 43,
          "time": 86.78501999999996,
          "velocity": 0.8740157480314961,
          "duration": 1.0714200000000034
        },
        {
          "name": "F#2",
          "midi": 42,
          "time": 87.85643999999996,
          "velocity": 0.8188976377952756,
          "duration": 0.8035650000000061
        },
        {
          "name": "A2",
          "midi": 45,
          "time": 88.66000499999997,
          "velocity": 0.8267716535433071,
          "duration": 1.205347500000002
        },
        {
          "name": "D3",
          "midi": 50,
          "time": 89.99927999999997,
          "velocity": 0.8582677165354331,
          "duration": 1.0714200000000034
        },
        {
          "name": "G2",
          "midi": 43,
          "time": 91.07069999999997,
          "velocity": 0.84251968503937,
          "duration": 1.0714200000000034
        },
        {
          "name": "B2",
          "midi": 47,
          "time": 92.14211999999998,
          "velocity": 0.8582677165354331,
          "duration": 1.3392750000000007
        },
        {
          "name": "C#3",
          "midi": 49,
          "time": 93.48139499999998,
          "velocity": 0.8818897637795275,
          "duration": 0.8035650000000061
        },
        {
          "name": "D3",
          "midi": 50,
          "time": 94.28495999999998,
          "velocity": 0.905511811023622,
          "duration": 0.8035650000000061
        },
        {
          "name": "A2",
          "midi": 45,
          "time": 95.08852499999999,
          "velocity": 0.905511811023622,
          "duration": 0.2678549999999973
        },
        {
          "name": "B2",
          "midi": 47,
          "time": 95.35637999999999,
          "velocity": 0.905511811023622,
          "duration": 0.8035650000000061
        },
        {
          "name": "D2",
          "midi": 38,
          "time": 96.159945,
          "velocity": 0.905511811023622,
          "duration": 0.2678549999999973
        },
        {
          "name": "E2",
          "midi": 40,
          "time": 96.42779999999999,
          "velocity": 0.905511811023622,
          "duration": 0.8035650000000061
        },
        {
          "name": "D2",
          "midi": 38,
          "time": 97.231365,
          "velocity": 0.905511811023622,
          "duration": 0.2678549999999973
        },
        {
          "name": "A2",
          "midi": 45,
          "time": 97.49922,
          "velocity": 0.905511811023622,
          "duration": 1.0714200000000034
        },
        {
          "name": "G2",
          "midi": 43,
          "time": 98.57064,
          "velocity": 0.905511811023622,
          "duration": 0.8035650000000061
        },
        {
          "name": "G2",
          "midi": 43,
          "time": 99.374205,
          "velocity": 0.905511811023622,
          "duration": 1.3392750000000007
        },
        {
          "name": "G2",
          "midi": 43,
          "time": 100.71348,
          "velocity": 0.9212598425196851,
          "duration": 0.8035650000000061
        },
        {
          "name": "F#2",
          "midi": 42,
          "time": 101.51704500000001,
          "velocity": 0.905511811023622,
          "duration": 0.8035650000000061
        },
        {
          "name": "E2",
          "midi": 40,
          "time": 102.32061000000002,
          "velocity": 0.905511811023622,
          "duration": 0.5357099999999946
        },
        {
          "name": "D2",
          "midi": 38,
          "time": 102.85632000000001,
          "velocity": 0.905511811023622,
          "duration": 8.303505000000001
        },
        {
          "name": "D3",
          "midi": 50,
          "time": 126.42756000000001,
          "velocity": 0.5905511811023622,
          "duration": 0.1143964062499947
        },
        {
          "name": "D3",
          "midi": 50,
          "time": 126.69541500000001,
          "velocity": 0.5905511811023622,
          "duration": 0.11160624999999413
        },
        {
          "name": "D3",
          "midi": 50,
          "time": 126.96327000000001,
          "velocity": 0.6062992125984252,
          "duration": 0.09765546875000553
        },
        {
          "name": "D3",
          "midi": 50,
          "time": 127.23112500000002,
          "velocity": 0.6299212598425197,
          "duration": 0.10323578125000665
        },
        {
          "name": "D3",
          "midi": 50,
          "time": 127.49898000000003,
          "velocity": 0.6456692913385826,
          "duration": 0.11997671874999583
        },
        {
          "name": "D3",
          "midi": 50,
          "time": 127.76683500000003,
          "velocity": 0.6614173228346457,
          "duration": 0.11997671874999583
        },
        {
          "name": "D3",
          "midi": 50,
          "time": 128.03469,
          "velocity": 0.6850393700787402,
          "duration": 0.12137179687499611
        },
        {
          "name": "D3",
          "midi": 50,
          "time": 128.302545,
          "velocity": 0.7007874015748031,
          "duration": 0.13532257812499893
        },
        {
          "name": "C3",
          "midi": 48,
          "time": 128.5704,
          "velocity": 0.7637795275590551,
          "duration": 0.2678549999999973
        },
        {
          "name": "C3",
          "midi": 48,
          "time": 128.838255,
          "velocity": 0.8031496062992126,
          "duration": 0.2678549999999973
        },
        {
          "name": "C3",
          "midi": 48,
          "time": 129.10611,
          "velocity": 0.8267716535433071,
          "duration": 0.2678549999999973
        },
        {
          "name": "B2",
          "midi": 47,
          "time": 129.373965,
          "velocity": 0.905511811023622,
          "duration": 0.8035649999999919
        },
        {
          "name": "C3",
          "midi": 48,
          "time": 130.17753,
          "velocity": 0.9448818897637795,
          "duration": 0.5357099999999946
        },
        {
          "name": "D3",
          "midi": 50,
          "time": 130.71323999999998,
          "velocity": 0.984251968503937,
          "duration": 2.1428400000000067
        },
        {
          "name": "C3",
          "midi": 48,
          "time": 132.85608,
          "velocity": 0.968503937007874,
          "duration": 0.8035649999999919
        },
        {
          "name": "B2",
          "midi": 47,
          "time": 133.65964499999998,
          "velocity": 0.9606299212598425,
          "duration": 0.8035649999999919
        },
        {
          "name": "C3",
          "midi": 48,
          "time": 134.46320999999998,
          "velocity": 0.9606299212598425,
          "duration": 0.5357099999999946
        },
        {
          "name": "D3",
          "midi": 50,
          "time": 134.99891999999997,
          "velocity": 0.9606299212598425,
          "duration": 1.6071300000000122
        },
        {
          "name": "A2",
          "midi": 45,
          "time": 136.60604999999998,
          "velocity": 0.9606299212598425,
          "duration": 0.2678549999999973
        },
        {
          "name": "B2",
          "midi": 47,
          "time": 136.87390499999998,
          "velocity": 0.9606299212598425,
          "duration": 0.2678549999999973
        },
        {
          "name": "C3",
          "midi": 48,
          "time": 137.14175999999998,
          "velocity": 0.9606299212598425,
          "duration": 0.8035649999999919
        },
        {
          "name": "B2",
          "midi": 47,
          "time": 137.94532499999997,
          "velocity": 0.9606299212598425,
          "duration": 0.9374924999999905
        },
        {
          "name": "C3",
          "midi": 48,
          "time": 138.74888999999996,
          "velocity": 0.9606299212598425,
          "duration": 0.5357099999999946
        },
        {
          "name": "D3",
          "midi": 50,
          "time": 139.28459999999995,
          "velocity": 0.984251968503937,
          "duration": 2.1428400000000067
        },
        {
          "name": "C3",
          "midi": 48,
          "time": 141.42743999999996,
          "velocity": 0.9448818897637795,
          "duration": 0.8035649999999919
        },
        {
          "name": "B2",
          "midi": 47,
          "time": 142.23100499999995,
          "velocity": 0.984251968503937,
          "duration": 0.8035649999999919
        },
        {
          "name": "C3",
          "midi": 48,
          "time": 143.03456999999995,
          "velocity": 0.9606299212598425,
          "duration": 0.5357099999999946
        },
        {
          "name": "D3",
          "midi": 50,
          "time": 143.57027999999994,
          "velocity": 0.9448818897637795,
          "duration": 1.6071300000000122
        },
        {
          "name": "A2",
          "midi": 45,
          "time": 145.17740999999995,
          "velocity": 0.9448818897637795,
          "duration": 0.2678549999999973
        },
        {
          "name": "B2",
          "midi": 47,
          "time": 145.44526499999995,
          "velocity": 0.9448818897637795,
          "duration": 0.2678549999999973
        },
        {
          "name": "C3",
          "midi": 48,
          "time": 145.71311999999995,
          "velocity": 0.968503937007874,
          "duration": 2.1428400000000067
        },
        {
          "name": "B2",
          "midi": 47,
          "time": 147.85595999999995,
          "velocity": 0.968503937007874,
          "duration": 2.1428400000000067
        },
        {
          "name": "A2",
          "midi": 45,
          "time": 149.99879999999996,
          "velocity": 0.9606299212598425,
          "duration": 1.0714199999999892
        },
        {
          "name": "G2",
          "midi": 43,
          "time": 151.07021999999995,
          "velocity": 0.9606299212598425,
          "duration": 0.5357099999999946
        },
        {
          "name": "B2",
          "midi": 47,
          "time": 151.60592999999994,
          "velocity": 0.968503937007874,
          "duration": 0.2678549999999973
        },
        {
          "name": "C3",
          "midi": 48,
          "time": 151.87378499999994,
          "velocity": 0.984251968503937,
          "duration": 0.2678549999999973
        },
        {
          "name": "D3",
          "midi": 50,
          "time": 152.14163999999994,
          "velocity": 0.8976377952755905,
          "duration": 2.1428400000000067
        },
        {
          "name": "D3",
          "midi": 50,
          "time": 154.28447999999995,
          "velocity": 0.9291338582677166,
          "duration": 2.1428400000000067
        },
        {
          "name": "G2",
          "midi": 43,
          "time": 156.42731999999995,
          "velocity": 0.7874015748031497,
          "duration": 0.40178249999999593
        },
        {
          "name": "G2",
          "midi": 43,
          "time": 156.96302999999995,
          "velocity": 0.7874015748031497,
          "duration": 0.2678549999999973
        },
        {
          "name": "G2",
          "midi": 43,
          "time": 157.23088499999994,
          "velocity": 0.7874015748031497,
          "duration": 0.276225468749999
        },
        {
          "name": "C3",
          "midi": 48,
          "time": 157.76659499999994,
          "velocity": 0.7874015748031497,
          "duration": 0.13392749999999864
        },
        {
          "name": "C3",
          "midi": 48,
          "time": 158.03444999999994,
          "velocity": 0.7874015748031497,
          "duration": 0.40178249999999593
        },
        {
          "name": "E3",
          "midi": 52,
          "time": 158.57015999999993,
          "velocity": 0.7874015748031497,
          "duration": 0.2678549999999973
        },
        {
          "name": "E3",
          "midi": 52,
          "time": 158.97194249999993,
          "velocity": 0.7874015748031497,
          "duration": 0.13392749999999864
        },
        {
          "name": "E3",
          "midi": 52,
          "time": 159.10586999999992,
          "velocity": 0.7874015748031497,
          "duration": 0.13392749999999864
        },
        {
          "name": "E3",
          "midi": 52,
          "time": 159.37372499999992,
          "velocity": 0.7874015748031497,
          "duration": 0.40178249999999593
        },
        {
          "name": "D3",
          "midi": 50,
          "time": 159.90943499999992,
          "velocity": 0.7874015748031497,
          "duration": 0.24274359374999221
        },
        {
          "name": "D3",
          "midi": 50,
          "time": 160.1772899999999,
          "velocity": 0.7874015748031497,
          "duration": 0.276225468749999
        },
        {
          "name": "C3",
          "midi": 48,
          "time": 160.4451449999999,
          "velocity": 0.7874015748031497,
          "duration": 0.2678549999999973
        },
        {
          "name": "G2",
          "midi": 43,
          "time": 160.7129999999999,
          "velocity": 0.7874015748031497,
          "duration": 0.40178249999999593
        },
        {
          "name": "G2",
          "midi": 43,
          "time": 161.2487099999999,
          "velocity": 0.7874015748031497,
          "duration": 0.2678549999999973
        },
        {
          "name": "G2",
          "midi": 43,
          "time": 161.5165649999999,
          "velocity": 0.7874015748031497,
          "duration": 0.276225468749999
        },
        {
          "name": "C3",
          "midi": 48,
          "time": 162.0522749999999,
          "velocity": 0.7874015748031497,
          "duration": 0.13392749999999864
        },
        {
          "name": "C3",
          "midi": 48,
          "time": 162.3201299999999,
          "velocity": 0.7874015748031497,
          "duration": 0.40178249999999593
        },
        {
          "name": "E3",
          "midi": 52,
          "time": 162.8558399999999,
          "velocity": 0.7874015748031497,
          "duration": 0.2678549999999973
        },
        {
          "name": "E3",
          "midi": 52,
          "time": 163.25762249999988,
          "velocity": 0.7874015748031497,
          "duration": 0.13392749999999864
        },
        {
          "name": "E3",
          "midi": 52,
          "time": 163.39154999999988,
          "velocity": 0.7874015748031497,
          "duration": 0.13392749999999864
        },
        {
          "name": "E3",
          "midi": 52,
          "time": 163.65940499999988,
          "velocity": 0.7874015748031497,
          "duration": 0.40178249999999593
        },
        {
          "name": "D3",
          "midi": 50,
          "time": 164.19511499999987,
          "velocity": 0.7874015748031497,
          "duration": 0.24274359374999221
        },
        {
          "name": "D3",
          "midi": 50,
          "time": 164.46296999999987,
          "velocity": 0.7874015748031497,
          "duration": 0.276225468749999
        },
        {
          "name": "C3",
          "midi": 48,
          "time": 164.73082499999987,
          "velocity": 0.7874015748031497,
          "duration": 0.2678549999999973
        },
        {
          "name": "G2",
          "midi": 43,
          "time": 164.99867999999987,
          "velocity": 0.7874015748031497,
          "duration": 0.40178249999999593
        },
        {
          "name": "G2",
          "midi": 43,
          "time": 165.53438999999986,
          "velocity": 0.7874015748031497,
          "duration": 0.2678549999999973
        },
        {
          "name": "G2",
          "midi": 43,
          "time": 165.80224499999986,
          "velocity": 0.7874015748031497,
          "duration": 0.276225468749999
        },
        {
          "name": "C3",
          "midi": 48,
          "time": 166.33795499999985,
          "velocity": 0.7874015748031497,
          "duration": 0.13392749999999864
        },
        {
          "name": "C3",
          "midi": 48,
          "time": 166.60580999999985,
          "velocity": 0.7874015748031497,
          "duration": 0.40178249999999593
        },
        {
          "name": "E3",
          "midi": 52,
          "time": 167.14151999999984,
          "velocity": 0.7874015748031497,
          "duration": 0.2678549999999973
        },
        {
          "name": "E3",
          "midi": 52,
          "time": 167.54330249999984,
          "velocity": 0.7874015748031497,
          "duration": 0.13392749999999864
        },
        {
          "name": "E3",
          "midi": 52,
          "time": 167.67722999999984,
          "velocity": 0.7874015748031497,
          "duration": 0.13392749999999864
        },
        {
          "name": "E3",
          "midi": 52,
          "time": 167.94508499999984,
          "velocity": 0.7874015748031497,
          "duration": 0.40178249999999593
        },
        {
          "name": "D3",
          "midi": 50,
          "time": 168.48079499999983,
          "velocity": 0.7874015748031497,
          "duration": 0.24274359374999221
        },
        {
          "name": "D3",
          "midi": 50,
          "time": 168.74864999999983,
          "velocity": 0.7874015748031497,
          "duration": 0.276225468749999
        },
        {
          "name": "C3",
          "midi": 48,
          "time": 169.01650499999982,
          "velocity": 0.7874015748031497,
          "duration": 0.2678549999999973
        },
        {
          "name": "G2",
          "midi": 43,
          "time": 169.28435999999982,
          "velocity": 0.7874015748031497,
          "duration": 0.40178249999999593
        },
        {
          "name": "G2",
          "midi": 43,
          "time": 169.82006999999982,
          "velocity": 0.7874015748031497,
          "duration": 0.2678549999999973
        },
        {
          "name": "G2",
          "midi": 43,
          "time": 170.0879249999998,
          "velocity": 0.7874015748031497,
          "duration": 0.276225468749999
        },
        {
          "name": "C3",
          "midi": 48,
          "time": 170.6236349999998,
          "velocity": 0.7874015748031497,
          "duration": 0.13392749999999864
        },
        {
          "name": "C3",
          "midi": 48,
          "time": 170.8914899999998,
          "velocity": 0.7874015748031497,
          "duration": 0.40178249999999593
        },
        {
          "name": "E3",
          "midi": 52,
          "time": 171.4271999999998,
          "velocity": 0.7874015748031497,
          "duration": 0.2678549999999973
        },
        {
          "name": "E3",
          "midi": 52,
          "time": 171.8289824999998,
          "velocity": 0.7874015748031497,
          "duration": 0.13392749999999864
        },
        {
          "name": "E3",
          "midi": 52,
          "time": 171.9629099999998,
          "velocity": 0.7874015748031497,
          "duration": 0.13392749999999864
        },
        {
          "name": "E3",
          "midi": 52,
          "time": 172.2307649999998,
          "velocity": 0.7874015748031497,
          "duration": 0.40178249999999593
        },
        {
          "name": "D3",
          "midi": 50,
          "time": 172.7664749999998,
          "velocity": 0.7874015748031497,
          "duration": 0.24274359374999221
        },
        {
          "name": "D3",
          "midi": 50,
          "time": 173.03432999999978,
          "velocity": 0.7874015748031497,
          "duration": 0.276225468749999
        },
        {
          "name": "C3",
          "midi": 48,
          "time": 173.30218499999978,
          "velocity": 0.7874015748031497,
          "duration": 0.2678549999999973
        },
        {
          "name": "G2",
          "midi": 43,
          "time": 173.57003999999978,
          "velocity": 0.7874015748031497,
          "duration": 0.40178249999999593
        },
        {
          "name": "G2",
          "midi": 43,
          "time": 174.10574999999977,
          "velocity": 0.7874015748031497,
          "duration": 0.2678549999999973
        },
        {
          "name": "G2",
          "midi": 43,
          "time": 174.37360499999977,
          "velocity": 0.7874015748031497,
          "duration": 0.276225468749999
        },
        {
          "name": "C3",
          "midi": 48,
          "time": 174.90931499999976,
          "velocity": 0.7874015748031497,
          "duration": 0.13392749999999864
        },
        {
          "name": "C3",
          "midi": 48,
          "time": 175.17716999999976,
          "velocity": 0.7874015748031497,
          "duration": 0.40178249999999593
        },
        {
          "name": "E3",
          "midi": 52,
          "time": 175.71287999999976,
          "velocity": 0.7874015748031497,
          "duration": 0.2678549999999973
        },
        {
          "name": "E3",
          "midi": 52,
          "time": 176.11466249999975,
          "velocity": 0.7874015748031497,
          "duration": 0.13392749999999864
        },
        {
          "name": "E3",
          "midi": 52,
          "time": 176.24858999999975,
          "velocity": 0.7874015748031497,
          "duration": 0.13392749999999864
        },
        {
          "name": "E3",
          "midi": 52,
          "time": 176.51644499999975,
          "velocity": 0.7874015748031497,
          "duration": 0.40178249999999593
        },
        {
          "name": "D3",
          "midi": 50,
          "time": 177.05215499999974,
          "velocity": 0.7874015748031497,
          "duration": 0.24274359374999221
        },
        {
          "name": "D3",
          "midi": 50,
          "time": 177.32000999999974,
          "velocity": 0.7874015748031497,
          "duration": 0.276225468749999
        },
        {
          "name": "C3",
          "midi": 48,
          "time": 177.58786499999974,
          "velocity": 0.7874015748031497,
          "duration": 0.2678549999999973
        },
        {
          "name": "G2",
          "midi": 43,
          "time": 177.85571999999974,
          "velocity": 0.7874015748031497,
          "duration": 0.40178249999999593
        },
        {
          "name": "G2",
          "midi": 43,
          "time": 178.39142999999973,
          "velocity": 0.7874015748031497,
          "duration": 0.2678549999999973
        },
        {
          "name": "G2",
          "midi": 43,
          "time": 178.65928499999973,
          "velocity": 0.7874015748031497,
          "duration": 0.276225468749999
        },
        {
          "name": "C3",
          "midi": 48,
          "time": 179.19499499999972,
          "velocity": 0.7874015748031497,
          "duration": 0.13392749999999864
        },
        {
          "name": "C3",
          "midi": 48,
          "time": 179.46284999999972,
          "velocity": 0.7874015748031497,
          "duration": 0.40178249999999593
        },
        {
          "name": "E3",
          "midi": 52,
          "time": 179.9985599999997,
          "velocity": 0.7874015748031497,
          "duration": 0.2678549999999973
        },
        {
          "name": "E3",
          "midi": 52,
          "time": 180.4003424999997,
          "velocity": 0.7874015748031497,
          "duration": 0.13392749999999864
        },
        {
          "name": "E3",
          "midi": 52,
          "time": 180.5342699999997,
          "velocity": 0.7874015748031497,
          "duration": 0.13392749999999864
        },
        {
          "name": "E3",
          "midi": 52,
          "time": 180.8021249999997,
          "velocity": 0.7874015748031497,
          "duration": 0.40178249999999593
        },
        {
          "name": "D3",
          "midi": 50,
          "time": 181.3378349999997,
          "velocity": 0.7874015748031497,
          "duration": 0.24274359374999221
        },
        {
          "name": "D3",
          "midi": 50,
          "time": 181.6056899999997,
          "velocity": 0.7874015748031497,
          "duration": 0.276225468749999
        },
        {
          "name": "C3",
          "midi": 48,
          "time": 181.8735449999997,
          "velocity": 0.7874015748031497,
          "duration": 0.2678549999999973
        },
        {
          "name": "G2",
          "midi": 43,
          "time": 182.1413999999997,
          "velocity": 0.7480314960629921,
          "duration": 0.40178249999999593
        },
        {
          "name": "G2",
          "midi": 43,
          "time": 182.6771099999997,
          "velocity": 0.7480314960629921,
          "duration": 0.2678549999999973
        },
        {
          "name": "G2",
          "midi": 43,
          "time": 182.94496499999968,
          "velocity": 0.7480314960629921,
          "duration": 0.276225468749999
        },
        {
          "name": "C3",
          "midi": 48,
          "time": 183.48067499999968,
          "velocity": 0.7480314960629921,
          "duration": 0.13392749999999864
        },
        {
          "name": "C3",
          "midi": 48,
          "time": 183.74852999999968,
          "velocity": 0.7480314960629921,
          "duration": 0.40178249999999593
        },
        {
          "name": "E3",
          "midi": 52,
          "time": 184.28423999999967,
          "velocity": 0.7480314960629921,
          "duration": 0.2678549999999973
        },
        {
          "name": "E3",
          "midi": 52,
          "time": 184.68602249999967,
          "velocity": 0.7480314960629921,
          "duration": 0.13392749999999864
        },
        {
          "name": "E3",
          "midi": 52,
          "time": 184.81994999999966,
          "velocity": 0.7480314960629921,
          "duration": 0.13392749999999864
        },
        {
          "name": "E3",
          "midi": 52,
          "time": 185.08780499999966,
          "velocity": 0.7480314960629921,
          "duration": 0.40178249999999593
        },
        {
          "name": "D3",
          "midi": 50,
          "time": 185.62351499999966,
          "velocity": 0.7480314960629921,
          "duration": 0.24274359374999221
        },
        {
          "name": "D3",
          "midi": 50,
          "time": 185.89136999999965,
          "velocity": 0.7480314960629921,
          "duration": 0.276225468749999
        },
        {
          "name": "C3",
          "midi": 48,
          "time": 186.15922499999965,
          "velocity": 0.7480314960629921,
          "duration": 0.2678549999999973
        },
        {
          "name": "G2",
          "midi": 43,
          "time": 186.42707999999965,
          "velocity": 0.7480314960629921,
          "duration": 0.40178249999999593
        },
        {
          "name": "G2",
          "midi": 43,
          "time": 186.96278999999964,
          "velocity": 0.7480314960629921,
          "duration": 0.2678549999999973
        },
        {
          "name": "G2",
          "midi": 43,
          "time": 187.23064499999964,
          "velocity": 0.7480314960629921,
          "duration": 0.276225468749999
        },
        {
          "name": "C3",
          "midi": 48,
          "time": 187.76635499999963,
          "velocity": 0.7480314960629921,
          "duration": 0.13392749999999864
        },
        {
          "name": "C3",
          "midi": 48,
          "time": 188.03420999999963,
          "velocity": 0.7480314960629921,
          "duration": 0.40178249999999593
        },
        {
          "name": "E3",
          "midi": 52,
          "time": 188.56991999999963,
          "velocity": 0.7480314960629921,
          "duration": 0.2678550000000257
        },
        {
          "name": "E3",
          "midi": 52,
          "time": 188.97170249999965,
          "velocity": 0.7480314960629921,
          "duration": 0.13392749999999864
        },
        {
          "name": "E3",
          "midi": 52,
          "time": 189.10562999999965,
          "velocity": 0.7480314960629921,
          "duration": 0.13392749999999864
        },
        {
          "name": "E3",
          "midi": 52,
          "time": 189.37348499999965,
          "velocity": 0.7480314960629921,
          "duration": 0.40178249999999593
        },
        {
          "name": "D3",
          "midi": 50,
          "time": 189.90919499999964,
          "velocity": 0.7480314960629921,
          "duration": 0.24274359374999221
        },
        {
          "name": "D3",
          "midi": 50,
          "time": 190.17704999999964,
          "velocity": 0.7480314960629921,
          "duration": 0.276225468749999
        },
        {
          "name": "C3",
          "midi": 48,
          "time": 190.44490499999964,
          "velocity": 0.7480314960629921,
          "duration": 0.2678549999999973
        },
        {
          "name": "G2",
          "midi": 43,
          "time": 190.71275999999963,
          "velocity": 0.7480314960629921,
          "duration": 0.40178249999999593
        },
        {
          "name": "G2",
          "midi": 43,
          "time": 191.24846999999963,
          "velocity": 0.7480314960629921,
          "duration": 0.2678549999999973
        },
        {
          "name": "G2",
          "midi": 43,
          "time": 191.51632499999963,
          "velocity": 0.7480314960629921,
          "duration": 0.276225468749999
        },
        {
          "name": "C3",
          "midi": 48,
          "time": 192.05203499999962,
          "velocity": 0.7480314960629921,
          "duration": 0.13392749999999864
        },
        {
          "name": "C3",
          "midi": 48,
          "time": 192.31988999999962,
          "velocity": 0.7480314960629921,
          "duration": 0.40178249999999593
        },
        {
          "name": "E3",
          "midi": 52,
          "time": 192.8555999999996,
          "velocity": 0.7480314960629921,
          "duration": 0.2678549999999973
        },
        {
          "name": "E3",
          "midi": 52,
          "time": 193.2573824999996,
          "velocity": 0.7480314960629921,
          "duration": 0.13392749999999864
        },
        {
          "name": "E3",
          "midi": 52,
          "time": 193.3913099999996,
          "velocity": 0.7480314960629921,
          "duration": 0.13392749999999864
        },
        {
          "name": "E3",
          "midi": 52,
          "time": 193.6591649999996,
          "velocity": 0.7480314960629921,
          "duration": 0.40178249999999593
        },
        {
          "name": "D3",
          "midi": 50,
          "time": 194.1948749999996,
          "velocity": 0.7480314960629921,
          "duration": 0.24274359374999221
        },
        {
          "name": "D3",
          "midi": 50,
          "time": 194.4627299999996,
          "velocity": 0.7480314960629921,
          "duration": 0.276225468749999
        },
        {
          "name": "C3",
          "midi": 48,
          "time": 194.7305849999996,
          "velocity": 0.7480314960629921,
          "duration": 0.2678549999999973
        },
        {
          "name": "G2",
          "midi": 43,
          "time": 194.9984399999996,
          "velocity": 0.7480314960629921,
          "duration": 0.40178249999999593
        },
        {
          "name": "G2",
          "midi": 43,
          "time": 195.53414999999958,
          "velocity": 0.7480314960629921,
          "duration": 0.2678549999999973
        },
        {
          "name": "G2",
          "midi": 43,
          "time": 195.80200499999958,
          "velocity": 0.7480314960629921,
          "duration": 0.276225468749999
        },
        {
          "name": "C3",
          "midi": 48,
          "time": 196.33771499999958,
          "velocity": 0.7480314960629921,
          "duration": 0.13392749999999864
        },
        {
          "name": "C3",
          "midi": 48,
          "time": 196.60556999999957,
          "velocity": 0.7480314960629921,
          "duration": 0.40178249999999593
        },
        {
          "name": "E3",
          "midi": 52,
          "time": 197.14127999999957,
          "velocity": 0.7480314960629921,
          "duration": 0.2678549999999973
        },
        {
          "name": "E3",
          "midi": 52,
          "time": 197.54306249999956,
          "velocity": 0.7480314960629921,
          "duration": 0.13392749999999864
        },
        {
          "name": "E3",
          "midi": 52,
          "time": 197.67698999999956,
          "velocity": 0.7480314960629921,
          "duration": 0.13392749999999864
        },
        {
          "name": "E3",
          "midi": 52,
          "time": 197.94484499999956,
          "velocity": 0.7480314960629921,
          "duration": 0.40178249999999593
        },
        {
          "name": "D3",
          "midi": 50,
          "time": 198.48055499999955,
          "velocity": 0.7480314960629921,
          "duration": 0.24274359374999221
        },
        {
          "name": "D3",
          "midi": 50,
          "time": 198.74840999999955,
          "velocity": 0.7480314960629921,
          "duration": 0.276225468749999
        },
        {
          "name": "C3",
          "midi": 48,
          "time": 199.01626499999955,
          "velocity": 0.7480314960629921,
          "duration": 0.2678549999999973
        },
        {
          "name": "G2",
          "midi": 43,
          "time": 199.28411999999955,
          "velocity": 0.7480314960629921,
          "duration": 0.40178249999999593
        },
        {
          "name": "G2",
          "midi": 43,
          "time": 199.81982999999954,
          "velocity": 0.7480314960629921,
          "duration": 0.2678549999999973
        },
        {
          "name": "G2",
          "midi": 43,
          "time": 200.08768499999954,
          "velocity": 0.7480314960629921,
          "duration": 0.276225468749999
        },
        {
          "name": "C3",
          "midi": 48,
          "time": 200.62339499999953,
          "velocity": 0.7480314960629921,
          "duration": 0.13392749999999864
        },
        {
          "name": "C3",
          "midi": 48,
          "time": 200.89124999999953,
          "velocity": 0.7480314960629921,
          "duration": 0.40178249999999593
        }
      ],
      "controlChanges": {
        "1": [
          {
            "number": 1,
            "time": 1.4062387500000002,
            "value": 0
          }
        ],
        "2": [
          {
            "number": 2,
            "time": 1.8080212500000001,
            "value": 0
          }
        ],
        "7": [
          {
            "number": 7,
            "time": 1.2388293750000001,
            "value": 1
          }
        ],
        "10": [
          {
            "number": 10,
            "time": 1.305793125,
            "value": 0.5039370078740157
          }
        ],
        "11": [
          {
            "number": 11,
            "time": 105.5795125,
            "value": 0.9448818897637795
          },
          {
            "number": 11,
            "time": 106.5616475,
            "value": 0.8661417322834646
          },
          {
            "number": 11,
            "time": 107.63306750000001,
            "value": 0.7874015748031497
          },
          {
            "number": 11,
            "time": 108.21342000000001,
            "value": 0.7086614173228346
          },
          {
            "number": 11,
            "time": 108.70448750000001,
            "value": 0.6299212598425197
          },
          {
            "number": 11,
            "time": 109.19555500000001,
            "value": 0.5511811023622047
          },
          {
            "number": 11,
            "time": 109.73126500000001,
            "value": 0.47244094488188976
          },
          {
            "number": 11,
            "time": 110.266975,
            "value": 0.31496062992125984
          },
          {
            "number": 11,
            "time": 110.8473275,
            "value": 0.07874015748031496
          },
          {
            "number": 11,
            "time": 111.29375250000001,
            "value": 1
          },
          {
            "number": 11,
            "time": 188.63688374999964,
            "value": 0.9448818897637795
          },
          {
            "number": 11,
            "time": 189.09446937499965,
            "value": 0.905511811023622
          },
          {
            "number": 11,
            "time": 189.64133999999964,
            "value": 0.8661417322834646
          },
          {
            "number": 11,
            "time": 190.16588937499964,
            "value": 0.8267716535433071
          },
          {
            "number": 11,
            "time": 190.71275999999963,
            "value": 0.7874015748031497
          },
          {
            "number": 11,
            "time": 191.24846999999963,
            "value": 0.7480314960629921
          },
          {
            "number": 11,
            "time": 191.77301937499962,
            "value": 0.7086614173228346
          },
          {
            "number": 11,
            "time": 192.33105062499962,
            "value": 0.6692913385826772
          },
          {
            "number": 11,
            "time": 192.8667606249996,
            "value": 0.6299212598425197
          },
          {
            "number": 11,
            "time": 193.3801493749996,
            "value": 0.5905511811023622
          },
          {
            "number": 11,
            "time": 193.9158593749996,
            "value": 0.5511811023622047
          },
          {
            "number": 11,
            "time": 194.4627299999996,
            "value": 0.5118110236220472
          },
          {
            "number": 11,
            "time": 195.0096006249996,
            "value": 0.47244094488188976
          },
          {
            "number": 11,
            "time": 195.53414999999958,
            "value": 0.4330708661417323
          },
          {
            "number": 11,
            "time": 196.05869937499958,
            "value": 0.3937007874015748
          },
          {
            "number": 11,
            "time": 196.61673062499958,
            "value": 0.3543307086614173
          },
          {
            "number": 11,
            "time": 197.14127999999957,
            "value": 0.31496062992125984
          },
          {
            "number": 11,
            "time": 197.67698999999956,
            "value": 0.2755905511811024
          },
          {
            "number": 11,
            "time": 198.20153937499956,
            "value": 0.23622047244094488
          },
          {
            "number": 11,
            "time": 198.75957062499955,
            "value": 0.1968503937007874
          },
          {
            "number": 11,
            "time": 199.27295937499954,
            "value": 0.15748031496062992
          },
          {
            "number": 11,
            "time": 199.81982999999954,
            "value": 0.11811023622047244
          },
          {
            "number": 11,
            "time": 200.35553999999954,
            "value": 0.07874015748031496
          },
          {
            "number": 11,
            "time": 200.88008937499953,
            "value": 0.03937007874015748
          },
          {
            "number": 11,
            "time": 201.3711568749995,
            "value": 0
          },
          {
            "number": 11,
            "time": 201.42695999999953,
            "value": 1
          }
        ],
        "32": [
          {
            "number": 32,
            "time": 1.1718656250000001,
            "value": 0
          }
        ],
        "91": [
          {
            "number": 91,
            "time": 1.5401662500000002,
            "value": 1
          }
        ],
        "93": [
          {
            "number": 93,
            "time": 1.6740937500000002,
            "value": 0
          }
        ],
        "121": [
          {
            "number": 121,
            "time": 0.9040106250000001,
            "value": 0
          }
        ]
      },
      "id": 5,
      "name": "RockRythm1",
      "instrumentNumber": 30,
      "instrument": "distortion guitar",
      "instrumentFamily": "guitar",
      "channelNumber": 4,
      "isPercussion": false
    },
    {
      "startTime": 38.57112,
      "duration": 166.73973750000187,
      "length": 75,
      "notes": [
        {
          "name": "C5",
          "midi": 72,
          "time": 38.57112,
          "velocity": 0.9212598425196851,
          "duration": 1.0714200000000744
        },
        {
          "name": "B4",
          "midi": 71,
          "time": 39.642540000000075,
          "velocity": 1,
          "duration": 1.071420000000046
        },
        {
          "name": "A4",
          "midi": 69,
          "time": 40.71396000000012,
          "velocity": 0.9921259842519685,
          "duration": 1.0407282812499972
        },
        {
          "name": "C5",
          "midi": 72,
          "time": 41.78538000000012,
          "velocity": 1,
          "duration": 0.2678549999999973
        },
        {
          "name": "B4",
          "midi": 71,
          "time": 42.053235000000114,
          "velocity": 1,
          "duration": 0.2678549999999973
        },
        {
          "name": "A4",
          "midi": 69,
          "time": 42.32109000000011,
          "velocity": 1,
          "duration": 0.5315247656250222
        },
        {
          "name": "G4",
          "midi": 67,
          "time": 42.856800000000135,
          "velocity": 0.8818897637795275,
          "duration": 10.58027250000012
        },
        {
          "name": "C#4",
          "midi": 61,
          "time": 79.82079000000026,
          "velocity": 0.937007874015748,
          "duration": 0.5357099999999946
        },
        {
          "name": "D4",
          "midi": 62,
          "time": 80.35650000000025,
          "velocity": 0.937007874015748,
          "duration": 0.5357099999999946
        },
        {
          "name": "E4",
          "midi": 64,
          "time": 80.89221000000025,
          "velocity": 0.937007874015748,
          "duration": 0.5357099999999946
        },
        {
          "name": "F#4",
          "midi": 66,
          "time": 81.42792000000024,
          "velocity": 0.937007874015748,
          "duration": 0.8035650000000629
        },
        {
          "name": "F#4",
          "midi": 66,
          "time": 82.2314850000003,
          "velocity": 0.937007874015748,
          "duration": 0.2678549999999973
        },
        {
          "name": "G4",
          "midi": 67,
          "time": 82.4993400000003,
          "velocity": 0.937007874015748,
          "duration": 0.2678549999999973
        },
        {
          "name": "F#4",
          "midi": 66,
          "time": 82.7671950000003,
          "velocity": 0.9212598425196851,
          "duration": 0.2678550000000115
        },
        {
          "name": "E4",
          "midi": 64,
          "time": 83.03505000000031,
          "velocity": 0.937007874015748,
          "duration": 0.2678549999999973
        },
        {
          "name": "D4",
          "midi": 62,
          "time": 83.30290500000031,
          "velocity": 0.937007874015748,
          "duration": 0.2678549999999973
        },
        {
          "name": "A4",
          "midi": 69,
          "time": 83.5707600000003,
          "velocity": 0.9763779527559056,
          "duration": 0.8021699218750484
        },
        {
          "name": "D4",
          "midi": 62,
          "time": 84.37432500000035,
          "velocity": 0.937007874015748,
          "duration": 0.2678549999999973
        },
        {
          "name": "G4",
          "midi": 67,
          "time": 84.64218000000035,
          "velocity": 0.937007874015748,
          "duration": 0.2678549999999973
        },
        {
          "name": "F#4",
          "midi": 66,
          "time": 84.91003500000035,
          "velocity": 0.937007874015748,
          "duration": 0.2678549999999973
        },
        {
          "name": "E4",
          "midi": 64,
          "time": 85.17789000000035,
          "velocity": 0.937007874015748,
          "duration": 0.2678550000000115
        },
        {
          "name": "D4",
          "midi": 62,
          "time": 85.44574500000036,
          "velocity": 0.937007874015748,
          "duration": 0.2678549999999973
        },
        {
          "name": "E4",
          "midi": 64,
          "time": 85.71360000000035,
          "velocity": 0.937007874015748,
          "duration": 0.2678549999999973
        },
        {
          "name": "F#4",
          "midi": 66,
          "time": 85.98145500000035,
          "velocity": 0.937007874015748,
          "duration": 0.5357099999999946
        },
        {
          "name": "D4",
          "midi": 62,
          "time": 86.51716500000035,
          "velocity": 0.937007874015748,
          "duration": 0.2678549999999973
        },
        {
          "name": "G4",
          "midi": 67,
          "time": 86.78502000000034,
          "velocity": 0.937007874015748,
          "duration": 0.276225468749999
        },
        {
          "name": "F#4",
          "midi": 66,
          "time": 87.05287500000034,
          "velocity": 0.937007874015748,
          "duration": 0.2678550000000115
        },
        {
          "name": "E4",
          "midi": 64,
          "time": 87.32073000000035,
          "velocity": 0.937007874015748,
          "duration": 0.2678549999999973
        },
        {
          "name": "D4",
          "midi": 62,
          "time": 87.58858500000035,
          "velocity": 0.937007874015748,
          "duration": 0.2678549999999973
        },
        {
          "name": "E4",
          "midi": 64,
          "time": 87.85644000000035,
          "velocity": 0.8740157480314961,
          "duration": 0.2678550000000115
        },
        {
          "name": "E4",
          "midi": 64,
          "time": 88.12429500000036,
          "velocity": 0.937007874015748,
          "duration": 0.2678549999999973
        },
        {
          "name": "D4",
          "midi": 62,
          "time": 88.39215000000036,
          "velocity": 0.937007874015748,
          "duration": 0.2678549999999973
        },
        {
          "name": "C#4",
          "midi": 61,
          "time": 88.66000500000035,
          "velocity": 0.937007874015748,
          "duration": 0.5357099999999946
        },
        {
          "name": "A3",
          "midi": 57,
          "time": 89.19571500000035,
          "velocity": 0.937007874015748,
          "duration": 0.5357099999999946
        },
        {
          "name": "E4",
          "midi": 64,
          "time": 89.73142500000034,
          "velocity": 0.937007874015748,
          "duration": 0.2678549999999973
        },
        {
          "name": "F#4",
          "midi": 66,
          "time": 89.99928000000034,
          "velocity": 0.937007874015748,
          "duration": 0.8035650000000629
        },
        {
          "name": "F#4",
          "midi": 66,
          "time": 90.8028450000004,
          "velocity": 0.937007874015748,
          "duration": 0.2678549999999973
        },
        {
          "name": "G4",
          "midi": 67,
          "time": 91.0707000000004,
          "velocity": 0.937007874015748,
          "duration": 0.2678549999999973
        },
        {
          "name": "F#4",
          "midi": 66,
          "time": 91.3385550000004,
          "velocity": 0.9212598425196851,
          "duration": 0.2678550000000115
        },
        {
          "name": "E4",
          "midi": 64,
          "time": 91.60641000000041,
          "velocity": 0.937007874015748,
          "duration": 0.2678549999999973
        },
        {
          "name": "D4",
          "midi": 62,
          "time": 91.8742650000004,
          "velocity": 0.937007874015748,
          "duration": 0.2678549999999973
        },
        {
          "name": "B4",
          "midi": 71,
          "time": 92.1421200000004,
          "velocity": 0.937007874015748,
          "duration": 1.071420000000046
        },
        {
          "name": "A4",
          "midi": 69,
          "time": 93.21354000000045,
          "velocity": 0.937007874015748,
          "duration": 0.2678549999999973
        },
        {
          "name": "G4",
          "midi": 67,
          "time": 93.48139500000045,
          "velocity": 0.937007874015748,
          "duration": 0.2678549999999973
        },
        {
          "name": "F#4",
          "midi": 66,
          "time": 93.74925000000044,
          "velocity": 0.937007874015748,
          "duration": 0.2678550000000115
        },
        {
          "name": "E4",
          "midi": 64,
          "time": 94.01710500000046,
          "velocity": 0.937007874015748,
          "duration": 0.2678549999999973
        },
        {
          "name": "F#4",
          "midi": 66,
          "time": 94.28496000000045,
          "velocity": 0.937007874015748,
          "duration": 0.8035650000000061
        },
        {
          "name": "D4",
          "midi": 62,
          "time": 95.08852500000046,
          "velocity": 0.937007874015748,
          "duration": 0.2678549999999973
        },
        {
          "name": "G4",
          "midi": 67,
          "time": 95.35638000000046,
          "velocity": 0.937007874015748,
          "duration": 0.2678549999999973
        },
        {
          "name": "F#4",
          "midi": 66,
          "time": 95.62423500000045,
          "velocity": 0.937007874015748,
          "duration": 0.2678549999999973
        },
        {
          "name": "E4",
          "midi": 64,
          "time": 95.89209000000045,
          "velocity": 0.937007874015748,
          "duration": 0.2678550000000115
        },
        {
          "name": "D4",
          "midi": 62,
          "time": 96.15994500000046,
          "velocity": 0.937007874015748,
          "duration": 0.2678549999999973
        },
        {
          "name": "E4",
          "midi": 64,
          "time": 96.42780000000046,
          "velocity": 0.937007874015748,
          "duration": 0.8035650000000061
        },
        {
          "name": "D4",
          "midi": 62,
          "time": 97.23136500000047,
          "velocity": 0.937007874015748,
          "duration": 0.2678549999999973
        },
        {
          "name": "F#4",
          "midi": 66,
          "time": 97.49922000000046,
          "velocity": 0.937007874015748,
          "duration": 0.2845959375000007
        },
        {
          "name": "E4",
          "midi": 64,
          "time": 97.76707500000046,
          "velocity": 0.937007874015748,
          "duration": 0.2678550000000115
        },
        {
          "name": "D4",
          "midi": 62,
          "time": 98.03493000000047,
          "velocity": 0.937007874015748,
          "duration": 0.2678549999999973
        },
        {
          "name": "C#4",
          "midi": 61,
          "time": 98.30278500000047,
          "velocity": 0.937007874015748,
          "duration": 0.2678549999999973
        },
        {
          "name": "D4",
          "midi": 62,
          "time": 98.57064000000047,
          "velocity": 0.937007874015748,
          "duration": 0.5357099999999946
        },
        {
          "name": "D5",
          "midi": 74,
          "time": 99.10635000000046,
          "velocity": 0.937007874015748,
          "duration": 0.13392749999999864
        },
        {
          "name": "C#5",
          "midi": 73,
          "time": 99.24027750000046,
          "velocity": 0.937007874015748,
          "duration": 0.13392749999999864
        },
        {
          "name": "B4",
          "midi": 71,
          "time": 99.37420500000046,
          "velocity": 0.937007874015748,
          "duration": 0.2678550000000115
        },
        {
          "name": "B4",
          "midi": 71,
          "time": 99.64206000000047,
          "velocity": 0.937007874015748,
          "duration": 1.0714200000000602
        },
        {
          "name": "F#4",
          "midi": 66,
          "time": 133.65964500000055,
          "velocity": 0.8346456692913385,
          "duration": 0.23995343750002007
        },
        {
          "name": "F#4",
          "midi": 66,
          "time": 134.1018847656256,
          "velocity": 0.8661417322834646,
          "duration": 0.18694046875003778
        },
        {
          "name": "F#4",
          "midi": 66,
          "time": 134.46321000000066,
          "velocity": 0.905511811023622,
          "duration": 2.1358646093752327
        },
        {
          "name": "B4",
          "midi": 71,
          "time": 137.40961500000088,
          "velocity": 0.889763779527559,
          "duration": 1.3839175000000807
        },
        {
          "name": "C5",
          "midi": 72,
          "time": 149.99880000000095,
          "velocity": 0.905511811023622,
          "duration": 1.060259375000129
        },
        {
          "name": "B4",
          "midi": 71,
          "time": 151.0702200000011,
          "velocity": 0.9448818897637795,
          "duration": 1.0602593750000437
        },
        {
          "name": "A4",
          "midi": 69,
          "time": 152.14164000000113,
          "velocity": 0.9606299212598425,
          "duration": 1.87498500000018
        },
        {
          "name": "A4",
          "midi": 69,
          "time": 154.0166250000013,
          "velocity": 0.9606299212598425,
          "duration": 1.4076338281251708
        },
        {
          "name": "C5",
          "midi": 72,
          "time": 155.35590000000147,
          "velocity": 0.9448818897637795,
          "duration": 0.2678550000000257
        },
        {
          "name": "B4",
          "midi": 71,
          "time": 155.6237550000015,
          "velocity": 0.9448818897637795,
          "duration": 0.3152876562500069
        },
        {
          "name": "A4",
          "midi": 69,
          "time": 155.8916100000015,
          "velocity": 0.9448818897637795,
          "duration": 0.5510558593750261
        },
        {
          "name": "G4",
          "midi": 67,
          "time": 156.42732000000152,
          "velocity": 0.937007874015748,
          "duration": 10.31241750000035
        }
      ],
      "controlChanges": {
        "1": [
          {
            "number": 1,
            "time": 1.4062387500000002,
            "value": 0
          },
          {
            "number": 1,
            "time": 38.838975,
            "value": 0.015748031496062992
          },
          {
            "number": 1,
            "time": 38.868271640625,
            "value": 0.007874015748031496
          },
          {
            "number": 1,
            "time": 38.87524703125,
            "value": 0.06299212598425197
          },
          {
            "number": 1,
            "time": 38.87524703125,
            "value": 0.03937007874015748
          },
          {
            "number": 1,
            "time": 38.882222421875,
            "value": 0.08661417322834646
          },
          {
            "number": 1,
            "time": 38.8836175,
            "value": 0.10236220472440945
          },
          {
            "number": 1,
            "time": 38.893383046875,
            "value": 0.12598425196850394
          },
          {
            "number": 1,
            "time": 38.894778125,
            "value": 0.14960629921259844
          },
          {
            "number": 1,
            "time": 38.9003584375,
            "value": 0.1732283464566929
          },
          {
            "number": 1,
            "time": 38.903148593750004,
            "value": 0.2047244094488189
          },
          {
            "number": 1,
            "time": 38.908728906250005,
            "value": 0.2204724409448819
          },
          {
            "number": 1,
            "time": 38.911519062500005,
            "value": 0.23622047244094488
          },
          {
            "number": 1,
            "time": 38.91709937500001,
            "value": 0.2677165354330709
          },
          {
            "number": 1,
            "time": 38.91849445312501,
            "value": 0.29133858267716534
          },
          {
            "number": 1,
            "time": 38.92546984375001,
            "value": 0.3228346456692913
          },
          {
            "number": 1,
            "time": 38.92546984375001,
            "value": 0.30708661417322836
          },
          {
            "number": 1,
            "time": 38.93244523437501,
            "value": 0.33070866141732286
          },
          {
            "number": 1,
            "time": 38.93384031250001,
            "value": 0.3464566929133858
          },
          {
            "number": 1,
            "time": 38.94081570312501,
            "value": 0.3543307086614173
          },
          {
            "number": 1,
            "time": 38.94221078125001,
            "value": 0.36220472440944884
          },
          {
            "number": 1,
            "time": 38.95058125000001,
            "value": 0.3858267716535433
          },
          {
            "number": 1,
            "time": 38.95058125000001,
            "value": 0.3700787401574803
          },
          {
            "number": 1,
            "time": 38.958951718750015,
            "value": 0.4015748031496063
          },
          {
            "number": 1,
            "time": 38.958951718750015,
            "value": 0.3937007874015748
          },
          {
            "number": 1,
            "time": 38.96732218750002,
            "value": 0.4251968503937008
          },
          {
            "number": 1,
            "time": 38.96732218750002,
            "value": 0.41732283464566927
          },
          {
            "number": 1,
            "time": 38.97429757812502,
            "value": 0.4409448818897638
          },
          {
            "number": 1,
            "time": 38.97708773437502,
            "value": 0.44881889763779526
          },
          {
            "number": 1,
            "time": 38.98266804687502,
            "value": 0.4566929133858268
          },
          {
            "number": 1,
            "time": 38.98545820312502,
            "value": 0.47244094488188976
          },
          {
            "number": 1,
            "time": 38.99103851562502,
            "value": 0.4881889763779528
          },
          {
            "number": 1,
            "time": 38.99243359375002,
            "value": 0.49606299212598426
          },
          {
            "number": 1,
            "time": 39.00080406250002,
            "value": 0.5118110236220472
          },
          {
            "number": 1,
            "time": 39.00080406250002,
            "value": 0.5039370078740157
          },
          {
            "number": 1,
            "time": 39.009174531250025,
            "value": 0.5196850393700787
          },
          {
            "number": 1,
            "time": 39.01614992187503,
            "value": 0.5354330708661418
          },
          {
            "number": 1,
            "time": 39.01614992187503,
            "value": 0.5275590551181102
          },
          {
            "number": 1,
            "time": 39.02452039062503,
            "value": 0.5511811023622047
          },
          {
            "number": 1,
            "time": 39.02452039062503,
            "value": 0.5433070866141733
          },
          {
            "number": 1,
            "time": 39.03289085937503,
            "value": 0.5590551181102362
          },
          {
            "number": 1,
            "time": 39.04963179687503,
            "value": 0.5669291338582677
          },
          {
            "number": 1,
            "time": 39.064977656250036,
            "value": 0.5748031496062992
          },
          {
            "number": 1,
            "time": 39.06637273437504,
            "value": 0.5826771653543307
          },
          {
            "number": 1,
            "time": 39.08171859375004,
            "value": 0.5905511811023622
          },
          {
            "number": 1,
            "time": 39.08450875000004,
            "value": 0.5984251968503937
          },
          {
            "number": 1,
            "time": 39.09845953125004,
            "value": 0.6062992125984252
          },
          {
            "number": 1,
            "time": 39.09985460937504,
            "value": 0.6141732283464567
          },
          {
            "number": 1,
            "time": 39.106830000000045,
            "value": 0.6220472440944882
          },
          {
            "number": 1,
            "time": 39.13333648437504,
            "value": 0.6299212598425197
          },
          {
            "number": 1,
            "time": 39.148682343750046,
            "value": 0.6377952755905512
          },
          {
            "number": 1,
            "time": 39.16681835937504,
            "value": 0.6456692913385826
          },
          {
            "number": 1,
            "time": 39.172398671875044,
            "value": 0.6535433070866141
          },
          {
            "number": 1,
            "time": 39.18913960937505,
            "value": 0.6614173228346457
          },
          {
            "number": 1,
            "time": 39.207275625000044,
            "value": 0.6692913385826772
          },
          {
            "number": 1,
            "time": 39.23936242187504,
            "value": 0.6614173228346457
          },
          {
            "number": 1,
            "time": 39.254708281250046,
            "value": 0.6535433070866141
          },
          {
            "number": 1,
            "time": 39.26447382812505,
            "value": 0.6456692913385826
          },
          {
            "number": 1,
            "time": 39.27284429687505,
            "value": 0.6377952755905512
          },
          {
            "number": 1,
            "time": 39.28260984375005,
            "value": 0.6299212598425197
          },
          {
            "number": 1,
            "time": 39.290980312500054,
            "value": 0.6220472440944882
          },
          {
            "number": 1,
            "time": 39.296560625000055,
            "value": 0.6141732283464567
          },
          {
            "number": 1,
            "time": 39.30493109375006,
            "value": 0.6062992125984252
          },
          {
            "number": 1,
            "time": 39.30632617187506,
            "value": 0.5984251968503937
          },
          {
            "number": 1,
            "time": 39.31469664062506,
            "value": 0.5748031496062992
          },
          {
            "number": 1,
            "time": 39.31469664062506,
            "value": 0.5826771653543307
          },
          {
            "number": 1,
            "time": 39.32306710937506,
            "value": 0.5511811023622047
          },
          {
            "number": 1,
            "time": 39.32306710937506,
            "value": 0.5590551181102362
          },
          {
            "number": 1,
            "time": 39.33143757812506,
            "value": 0.5275590551181102
          },
          {
            "number": 1,
            "time": 39.33143757812506,
            "value": 0.5354330708661418
          },
          {
            "number": 1,
            "time": 39.33841296875006,
            "value": 0.5196850393700787
          },
          {
            "number": 1,
            "time": 39.341203125000064,
            "value": 0.5118110236220472
          },
          {
            "number": 1,
            "time": 39.36352437500006,
            "value": 0.4881889763779528
          },
          {
            "number": 1,
            "time": 39.36352437500006,
            "value": 0.49606299212598426
          },
          {
            "number": 1,
            "time": 39.37049976562506,
            "value": 0.47244094488188976
          },
          {
            "number": 1,
            "time": 39.37189484375006,
            "value": 0.4566929133858268
          },
          {
            "number": 1,
            "time": 39.377475156250064,
            "value": 0.4251968503937008
          },
          {
            "number": 1,
            "time": 39.377475156250064,
            "value": 0.4409448818897638
          },
          {
            "number": 1,
            "time": 39.388635781250066,
            "value": 0.4094488188976378
          },
          {
            "number": 1,
            "time": 39.39142593750007,
            "value": 0.3937007874015748
          },
          {
            "number": 1,
            "time": 39.39421609375007,
            "value": 0.3700787401574803
          },
          {
            "number": 1,
            "time": 39.39700625000007,
            "value": 0.3543307086614173
          },
          {
            "number": 1,
            "time": 39.40398164062507,
            "value": 0.3228346456692913
          },
          {
            "number": 1,
            "time": 39.40677179687507,
            "value": 0.2992125984251969
          },
          {
            "number": 1,
            "time": 39.41374718750007,
            "value": 0.2283464566929134
          },
          {
            "number": 1,
            "time": 39.41374718750007,
            "value": 0.2677165354330709
          },
          {
            "number": 1,
            "time": 39.42072257812507,
            "value": 0.2047244094488189
          },
          {
            "number": 1,
            "time": 39.42211765625007,
            "value": 0.18110236220472442
          },
          {
            "number": 1,
            "time": 39.430488125000075,
            "value": 0.08661417322834646
          },
          {
            "number": 1,
            "time": 39.430488125000075,
            "value": 0.13385826771653545
          },
          {
            "number": 1,
            "time": 39.438858593750076,
            "value": 0
          },
          {
            "number": 1,
            "time": 39.438858593750076,
            "value": 0.031496062992125984
          },
          {
            "number": 1,
            "time": 45.01219570312514,
            "value": 0.007874015748031496
          },
          {
            "number": 1,
            "time": 45.02754156250014,
            "value": 0.015748031496062992
          },
          {
            "number": 1,
            "time": 45.06102343750014,
            "value": 0.031496062992125984
          },
          {
            "number": 1,
            "time": 45.06102343750014,
            "value": 0.023622047244094488
          },
          {
            "number": 1,
            "time": 45.07776437500014,
            "value": 0.03937007874015748
          },
          {
            "number": 1,
            "time": 45.086134843750145,
            "value": 0.047244094488188976
          },
          {
            "number": 1,
            "time": 45.09450531250015,
            "value": 0.05511811023622047
          },
          {
            "number": 1,
            "time": 45.11264132812514,
            "value": 0.06299212598425197
          },
          {
            "number": 1,
            "time": 45.118221640625144,
            "value": 0.07086614173228346
          },
          {
            "number": 1,
            "time": 45.126592109375146,
            "value": 0.07874015748031496
          },
          {
            "number": 1,
            "time": 45.13356750000015,
            "value": 0.08661417322834646
          },
          {
            "number": 1,
            "time": 45.151703515625144,
            "value": 0.10236220472440945
          },
          {
            "number": 1,
            "time": 45.151703515625144,
            "value": 0.09448818897637795
          },
          {
            "number": 1,
            "time": 45.16983953125014,
            "value": 0.11023622047244094
          },
          {
            "number": 1,
            "time": 45.20192632812514,
            "value": 0.11811023622047244
          },
          {
            "number": 1,
            "time": 45.21029679687514,
            "value": 0.12598425196850394
          },
          {
            "number": 1,
            "time": 45.22843281250014,
            "value": 0.13385826771653545
          },
          {
            "number": 1,
            "time": 45.23680328125014,
            "value": 0.14173228346456693
          },
          {
            "number": 1,
            "time": 45.24238359375014,
            "value": 0.14960629921259844
          },
          {
            "number": 1,
            "time": 45.24377867187514,
            "value": 0.15748031496062992
          },
          {
            "number": 1,
            "time": 45.25075406250014,
            "value": 0.16535433070866143
          },
          {
            "number": 1,
            "time": 45.257729453125144,
            "value": 0.1732283464566929
          },
          {
            "number": 1,
            "time": 45.259124531250144,
            "value": 0.18110236220472442
          },
          {
            "number": 1,
            "time": 45.268890078125146,
            "value": 0.1889763779527559
          },
          {
            "number": 1,
            "time": 45.27586546875015,
            "value": 0.1968503937007874
          },
          {
            "number": 1,
            "time": 45.29260640625015,
            "value": 0.2047244094488189
          },
          {
            "number": 1,
            "time": 45.29958179687515,
            "value": 0.2125984251968504
          },
          {
            "number": 1,
            "time": 45.30237195312515,
            "value": 0.2204724409448819
          },
          {
            "number": 1,
            "time": 45.307952265625154,
            "value": 0.2283464566929134
          },
          {
            "number": 1,
            "time": 45.310742421875155,
            "value": 0.23622047244094488
          },
          {
            "number": 1,
            "time": 45.317717812500156,
            "value": 0.2440944881889764
          },
          {
            "number": 1,
            "time": 45.33445875000016,
            "value": 0.25196850393700787
          },
          {
            "number": 1,
            "time": 45.34980460937516,
            "value": 0.25984251968503935
          },
          {
            "number": 1,
            "time": 45.366545546875166,
            "value": 0.2677165354330709
          },
          {
            "number": 1,
            "time": 45.38189140625017,
            "value": 0.2755905511811024
          },
          {
            "number": 1,
            "time": 45.41676835937517,
            "value": 0.28346456692913385
          },
          {
            "number": 1,
            "time": 45.473966562500166,
            "value": 0.29133858267716534
          },
          {
            "number": 1,
            "time": 45.497682890625164,
            "value": 0.2992125984251969
          },
          {
            "number": 1,
            "time": 45.54790570312517,
            "value": 0.30708661417322836
          },
          {
            "number": 1,
            "time": 45.579992500000166,
            "value": 0.31496062992125984
          },
          {
            "number": 1,
            "time": 45.59673343750017,
            "value": 0.3228346456692913
          },
          {
            "number": 1,
            "time": 45.61207929687517,
            "value": 0.33070866141732286
          },
          {
            "number": 1,
            "time": 45.624635000000175,
            "value": 0.33858267716535434
          },
          {
            "number": 1,
            "time": 45.64835132812517,
            "value": 0.3464566929133858
          },
          {
            "number": 1,
            "time": 45.663697187500176,
            "value": 0.3543307086614173
          },
          {
            "number": 1,
            "time": 45.71392000000018,
            "value": 0.36220472440944884
          },
          {
            "number": 1,
            "time": 45.75437726562518,
            "value": 0.3700787401574803
          },
          {
            "number": 1,
            "time": 45.76414281250018,
            "value": 0.3779527559055118
          },
          {
            "number": 1,
            "time": 45.78646406250018,
            "value": 0.3858267716535433
          },
          {
            "number": 1,
            "time": 45.83668687500018,
            "value": 0.3937007874015748
          },
          {
            "number": 1,
            "time": 45.846452421875185,
            "value": 0.4015748031496063
          },
          {
            "number": 1,
            "time": 45.86179828125019,
            "value": 0.4094488188976378
          },
          {
            "number": 1,
            "time": 45.879934296875184,
            "value": 0.41732283464566927
          },
          {
            "number": 1,
            "time": 45.89667523437519,
            "value": 0.4251968503937008
          },
          {
            "number": 1,
            "time": 45.94689804687519,
            "value": 0.4330708661417323
          },
          {
            "number": 1,
            "time": 45.98875039062519,
            "value": 0.4409448818897638
          },
          {
            "number": 1,
            "time": 46.01246671875019,
            "value": 0.44881889763779526
          },
          {
            "number": 1,
            "time": 46.11988773437519,
            "value": 0.4566929133858268
          },
          {
            "number": 1,
            "time": 46.16034500000019,
            "value": 0.4645669291338583
          },
          {
            "number": 1,
            "time": 46.29287742187519,
            "value": 0.47244094488188976
          },
          {
            "number": 1,
            "time": 46.39053289062519,
            "value": 0.48031496062992124
          },
          {
            "number": 1,
            "time": 46.72256148437519,
            "value": 0.4881889763779528
          },
          {
            "number": 1,
            "time": 46.804871093750194,
            "value": 0.49606299212598426
          },
          {
            "number": 1,
            "time": 47.11876367187519,
            "value": 0.5039370078740157
          },
          {
            "number": 1,
            "time": 47.28477796875019,
            "value": 0.5118110236220472
          },
          {
            "number": 1,
            "time": 47.54007726562519,
            "value": 0.5039370078740157
          },
          {
            "number": 1,
            "time": 47.57076898437519,
            "value": 0.5118110236220472
          },
          {
            "number": 1,
            "time": 47.761894687500195,
            "value": 0.5196850393700787
          },
          {
            "number": 1,
            "time": 47.8121175000002,
            "value": 0.5118110236220472
          },
          {
            "number": 1,
            "time": 48.1427510156252,
            "value": 0.5196850393700787
          },
          {
            "number": 1,
            "time": 48.2083196875002,
            "value": 0.5275590551181102
          },
          {
            "number": 1,
            "time": 48.471989453125204,
            "value": 0.5354330708661418
          },
          {
            "number": 1,
            "time": 48.5375581250002,
            "value": 0.5275590551181102
          },
          {
            "number": 1,
            "time": 48.5961514062502,
            "value": 0.5354330708661418
          },
          {
            "number": 1,
            "time": 48.7440296875002,
            "value": 0.5275590551181102
          },
          {
            "number": 1,
            "time": 48.8416851562502,
            "value": 0.5196850393700787
          },
          {
            "number": 1,
            "time": 48.8500556250002,
            "value": 0.5118110236220472
          },
          {
            "number": 1,
            "time": 48.8528457812502,
            "value": 0.5039370078740157
          },
          {
            "number": 1,
            "time": 48.859821171875204,
            "value": 0.49606299212598426
          },
          {
            "number": 1,
            "time": 48.866796562500205,
            "value": 0.4881889763779528
          },
          {
            "number": 1,
            "time": 48.87377195312521,
            "value": 0.48031496062992124
          },
          {
            "number": 1,
            "time": 48.87516703125021,
            "value": 0.47244094488188976
          },
          {
            "number": 1,
            "time": 48.88353750000021,
            "value": 0.4566929133858268
          },
          {
            "number": 1,
            "time": 48.88353750000021,
            "value": 0.4645669291338583
          },
          {
            "number": 1,
            "time": 48.89190796875021,
            "value": 0.44881889763779526
          },
          {
            "number": 1,
            "time": 48.90027843750021,
            "value": 0.4409448818897638
          },
          {
            "number": 1,
            "time": 48.908648906250214,
            "value": 0.4330708661417323
          },
          {
            "number": 1,
            "time": 48.910043984375214,
            "value": 0.4251968503937008
          },
          {
            "number": 1,
            "time": 48.915624296875215,
            "value": 0.41732283464566927
          },
          {
            "number": 1,
            "time": 48.92399476562522,
            "value": 0.4094488188976378
          },
          {
            "number": 1,
            "time": 48.93376031250022,
            "value": 0.3937007874015748
          },
          {
            "number": 1,
            "time": 48.93376031250022,
            "value": 0.4015748031496063
          },
          {
            "number": 1,
            "time": 48.94213078125022,
            "value": 0.3779527559055118
          },
          {
            "number": 1,
            "time": 48.94213078125022,
            "value": 0.3858267716535433
          },
          {
            "number": 1,
            "time": 48.94771109375022,
            "value": 0.3700787401574803
          },
          {
            "number": 1,
            "time": 48.958871718750224,
            "value": 0.3543307086614173
          },
          {
            "number": 1,
            "time": 48.958871718750224,
            "value": 0.36220472440944884
          },
          {
            "number": 1,
            "time": 48.968637265625226,
            "value": 0.3464566929133858
          },
          {
            "number": 1,
            "time": 48.97561265625023,
            "value": 0.33858267716535434
          },
          {
            "number": 1,
            "time": 48.98258804687523,
            "value": 0.33070866141732286
          },
          {
            "number": 1,
            "time": 48.98956343750023,
            "value": 0.3228346456692913
          },
          {
            "number": 1,
            "time": 48.99095851562523,
            "value": 0.30708661417322836
          },
          {
            "number": 1,
            "time": 48.99793390625023,
            "value": 0.2992125984251969
          },
          {
            "number": 1,
            "time": 49.006304375000234,
            "value": 0.29133858267716534
          },
          {
            "number": 1,
            "time": 49.007699453125234,
            "value": 0.28346456692913385
          },
          {
            "number": 1,
            "time": 49.016069921875236,
            "value": 0.2755905511811024
          },
          {
            "number": 1,
            "time": 49.018860078125236,
            "value": 0.2677165354330709
          },
          {
            "number": 1,
            "time": 49.02165023437524,
            "value": 0.25984251968503935
          },
          {
            "number": 1,
            "time": 49.02583546875024,
            "value": 0.25196850393700787
          },
          {
            "number": 1,
            "time": 49.03281085937524,
            "value": 0.2440944881889764
          },
          {
            "number": 1,
            "time": 49.03978625000024,
            "value": 0.23622047244094488
          },
          {
            "number": 1,
            "time": 49.09279921875024,
            "value": 0.2283464566929134
          },
          {
            "number": 1,
            "time": 49.09837953125024,
            "value": 0.2125984251968504
          },
          {
            "number": 1,
            "time": 49.09837953125024,
            "value": 0.2204724409448819
          },
          {
            "number": 1,
            "time": 49.116515546875235,
            "value": 0.1968503937007874
          },
          {
            "number": 1,
            "time": 49.116515546875235,
            "value": 0.2047244094488189
          },
          {
            "number": 1,
            "time": 49.124886015625236,
            "value": 0.1889763779527559
          },
          {
            "number": 1,
            "time": 49.13186140625024,
            "value": 0.1732283464566929
          },
          {
            "number": 1,
            "time": 49.13186140625024,
            "value": 0.18110236220472442
          },
          {
            "number": 1,
            "time": 49.14162695312524,
            "value": 0.16535433070866143
          },
          {
            "number": 1,
            "time": 49.14999742187524,
            "value": 0.15748031496062992
          },
          {
            "number": 1,
            "time": 49.19603500000024,
            "value": 0.14960629921259844
          },
          {
            "number": 1,
            "time": 49.197430078125244,
            "value": 0.12598425196850394
          },
          {
            "number": 1,
            "time": 49.197430078125244,
            "value": 0.13385826771653545
          },
          {
            "number": 1,
            "time": 49.21417101562525,
            "value": 0.09448818897637795
          },
          {
            "number": 1,
            "time": 49.21417101562525,
            "value": 0.11023622047244094
          },
          {
            "number": 1,
            "time": 49.22254148437525,
            "value": 0.07874015748031496
          },
          {
            "number": 1,
            "time": 49.22393656250025,
            "value": 0.07086614173228346
          },
          {
            "number": 1,
            "time": 49.22951687500025,
            "value": 0.06299212598425197
          },
          {
            "number": 1,
            "time": 49.23788734375025,
            "value": 0.05511811023622047
          },
          {
            "number": 1,
            "time": 49.23928242187525,
            "value": 0.047244094488188976
          },
          {
            "number": 1,
            "time": 49.247652890625254,
            "value": 0.03937007874015748
          },
          {
            "number": 1,
            "time": 49.254628281250255,
            "value": 0.031496062992125984
          },
          {
            "number": 1,
            "time": 49.321592031250255,
            "value": 0.023622047244094488
          },
          {
            "number": 1,
            "time": 49.329962500000256,
            "value": 0.015748031496062992
          },
          {
            "number": 1,
            "time": 49.33833296875026,
            "value": 0.007874015748031496
          },
          {
            "number": 1,
            "time": 49.34670343750026,
            "value": 0
          },
          {
            "number": 1,
            "time": 81.73623226562525,
            "value": 0.007874015748031496
          },
          {
            "number": 1,
            "time": 81.74181257812525,
            "value": 0.023622047244094488
          },
          {
            "number": 1,
            "time": 81.74460273437525,
            "value": 0.031496062992125984
          },
          {
            "number": 1,
            "time": 81.75018304687525,
            "value": 0.047244094488188976
          },
          {
            "number": 1,
            "time": 81.75157812500025,
            "value": 0.07086614173228346
          },
          {
            "number": 1,
            "time": 81.75855351562525,
            "value": 0.11023622047244094
          },
          {
            "number": 1,
            "time": 81.75855351562525,
            "value": 0.08661417322834646
          },
          {
            "number": 1,
            "time": 81.76552890625025,
            "value": 0.13385826771653545
          },
          {
            "number": 1,
            "time": 81.76831906250025,
            "value": 0.15748031496062992
          },
          {
            "number": 1,
            "time": 81.77529445312526,
            "value": 0.1889763779527559
          },
          {
            "number": 1,
            "time": 81.77529445312526,
            "value": 0.1732283464566929
          },
          {
            "number": 1,
            "time": 81.78366492187526,
            "value": 0.2204724409448819
          },
          {
            "number": 1,
            "time": 81.78366492187526,
            "value": 0.2047244094488189
          },
          {
            "number": 1,
            "time": 81.79203539062526,
            "value": 0.23622047244094488
          },
          {
            "number": 1,
            "time": 81.79343046875026,
            "value": 0.25196850393700787
          },
          {
            "number": 1,
            "time": 81.79761570312526,
            "value": 0.2677165354330709
          },
          {
            "number": 1,
            "time": 81.80180093750026,
            "value": 0.28346456692913385
          },
          {
            "number": 1,
            "time": 81.80738125000026,
            "value": 0.2992125984251969
          },
          {
            "number": 1,
            "time": 81.80877632812526,
            "value": 0.3228346456692913
          },
          {
            "number": 1,
            "time": 81.81575171875026,
            "value": 0.33858267716535434
          },
          {
            "number": 1,
            "time": 81.81714679687526,
            "value": 0.3543307086614173
          },
          {
            "number": 1,
            "time": 81.82412218750027,
            "value": 0.3700787401574803
          },
          {
            "number": 1,
            "time": 81.82551726562527,
            "value": 0.3937007874015748
          },
          {
            "number": 1,
            "time": 81.83807296875027,
            "value": 0.4251968503937008
          },
          {
            "number": 1,
            "time": 81.83807296875027,
            "value": 0.4094488188976378
          },
          {
            "number": 1,
            "time": 81.83946804687527,
            "value": 0.44881889763779526
          },
          {
            "number": 1,
            "time": 81.83946804687527,
            "value": 0.4409448818897638
          },
          {
            "number": 1,
            "time": 81.85062867187527,
            "value": 0.48031496062992124
          },
          {
            "number": 1,
            "time": 81.85062867187527,
            "value": 0.4645669291338583
          },
          {
            "number": 1,
            "time": 81.85760406250027,
            "value": 0.49606299212598426
          },
          {
            "number": 1,
            "time": 81.86039421875027,
            "value": 0.5118110236220472
          },
          {
            "number": 1,
            "time": 81.86597453125027,
            "value": 0.5433070866141733
          },
          {
            "number": 1,
            "time": 81.86597453125027,
            "value": 0.5275590551181102
          },
          {
            "number": 1,
            "time": 81.87434500000028,
            "value": 0.5748031496062992
          },
          {
            "number": 1,
            "time": 81.87434500000028,
            "value": 0.5590551181102362
          },
          {
            "number": 1,
            "time": 81.88411054687528,
            "value": 0.5905511811023622
          },
          {
            "number": 1,
            "time": 81.88411054687528,
            "value": 0.5826771653543307
          },
          {
            "number": 1,
            "time": 81.89248101562528,
            "value": 0.6141732283464567
          },
          {
            "number": 1,
            "time": 81.89248101562528,
            "value": 0.6062992125984252
          },
          {
            "number": 1,
            "time": 81.89945640625028,
            "value": 0.6377952755905512
          },
          {
            "number": 1,
            "time": 81.89945640625028,
            "value": 0.6220472440944882
          },
          {
            "number": 1,
            "time": 81.90782687500028,
            "value": 0.6535433070866141
          },
          {
            "number": 1,
            "time": 81.91061703125028,
            "value": 0.6614173228346457
          },
          {
            "number": 1,
            "time": 81.91619734375028,
            "value": 0.6850393700787402
          },
          {
            "number": 1,
            "time": 81.91619734375028,
            "value": 0.6692913385826772
          },
          {
            "number": 1,
            "time": 81.92456781250029,
            "value": 0.7165354330708661
          },
          {
            "number": 1,
            "time": 81.92456781250029,
            "value": 0.7007874015748031
          },
          {
            "number": 1,
            "time": 81.93154320312529,
            "value": 0.7322834645669292
          },
          {
            "number": 1,
            "time": 81.93293828125029,
            "value": 0.7637795275590551
          },
          {
            "number": 1,
            "time": 81.93991367187529,
            "value": 0.7952755905511811
          },
          {
            "number": 1,
            "time": 81.94130875000029,
            "value": 0.8267716535433071
          },
          {
            "number": 1,
            "time": 81.94828414062529,
            "value": 0.8740157480314961
          },
          {
            "number": 1,
            "time": 81.94828414062529,
            "value": 0.84251968503937
          },
          {
            "number": 1,
            "time": 81.95804968750029,
            "value": 0.9212598425196851
          },
          {
            "number": 1,
            "time": 81.95804968750029,
            "value": 0.905511811023622
          },
          {
            "number": 1,
            "time": 81.9664201562503,
            "value": 0.937007874015748
          },
          {
            "number": 1,
            "time": 81.9678152343753,
            "value": 0.952755905511811
          },
          {
            "number": 1,
            "time": 81.9733955468753,
            "value": 0.968503937007874
          },
          {
            "number": 1,
            "time": 81.9761857031253,
            "value": 0.984251968503937
          },
          {
            "number": 1,
            "time": 81.9817660156253,
            "value": 1
          },
          {
            "number": 1,
            "time": 82.1505704687503,
            "value": 0.9212598425196851
          },
          {
            "number": 1,
            "time": 82.1533606250003,
            "value": 0.8267716535433071
          },
          {
            "number": 1,
            "time": 82.1561507812503,
            "value": 0.7165354330708661
          },
          {
            "number": 1,
            "time": 82.1645212500003,
            "value": 0.6299212598425197
          },
          {
            "number": 1,
            "time": 82.1659163281253,
            "value": 0.5511811023622047
          },
          {
            "number": 1,
            "time": 82.1714966406253,
            "value": 0.44881889763779526
          },
          {
            "number": 1,
            "time": 82.17428679687531,
            "value": 0.33858267716535434
          },
          {
            "number": 1,
            "time": 82.17986710937531,
            "value": 0.2204724409448819
          },
          {
            "number": 1,
            "time": 82.18126218750031,
            "value": 0.10236220472440945
          },
          {
            "number": 1,
            "time": 82.18963265625031,
            "value": 0
          },
          {
            "number": 1,
            "time": 82.18963265625031,
            "value": 0.031496062992125984
          },
          {
            "number": 1,
            "time": 83.65167453125031,
            "value": 0.023622047244094488
          },
          {
            "number": 1,
            "time": 83.65725484375031,
            "value": 0.031496062992125984
          },
          {
            "number": 1,
            "time": 83.66004500000031,
            "value": 0.03937007874015748
          },
          {
            "number": 1,
            "time": 83.66562531250031,
            "value": 0.07086614173228346
          },
          {
            "number": 1,
            "time": 83.66562531250031,
            "value": 0.05511811023622047
          },
          {
            "number": 1,
            "time": 83.67399578125031,
            "value": 0.08661417322834646
          },
          {
            "number": 1,
            "time": 83.67539085937531,
            "value": 0.11023622047244094
          },
          {
            "number": 1,
            "time": 83.68236625000031,
            "value": 0.13385826771653545
          },
          {
            "number": 1,
            "time": 83.68376132812531,
            "value": 0.15748031496062992
          },
          {
            "number": 1,
            "time": 83.69213179687532,
            "value": 0.1968503937007874
          },
          {
            "number": 1,
            "time": 83.69213179687532,
            "value": 0.18110236220472442
          },
          {
            "number": 1,
            "time": 83.70050226562532,
            "value": 0.2204724409448819
          },
          {
            "number": 1,
            "time": 83.70189734375032,
            "value": 0.2440944881889764
          },
          {
            "number": 1,
            "time": 83.70747765625032,
            "value": 0.25984251968503935
          },
          {
            "number": 1,
            "time": 83.71026781250032,
            "value": 0.28346456692913385
          },
          {
            "number": 1,
            "time": 83.71584812500032,
            "value": 0.30708661417322836
          },
          {
            "number": 1,
            "time": 83.71724320312532,
            "value": 0.33070866141732286
          },
          {
            "number": 1,
            "time": 83.72421859375032,
            "value": 0.3543307086614173
          },
          {
            "number": 1,
            "time": 83.72561367187532,
            "value": 0.3700787401574803
          },
          {
            "number": 1,
            "time": 83.73258906250032,
            "value": 0.4094488188976378
          },
          {
            "number": 1,
            "time": 83.73258906250032,
            "value": 0.3937007874015748
          },
          {
            "number": 1,
            "time": 83.73956445312533,
            "value": 0.4251968503937008
          },
          {
            "number": 1,
            "time": 83.74095953125033,
            "value": 0.4409448818897638
          },
          {
            "number": 1,
            "time": 83.74793492187533,
            "value": 0.4566929133858268
          },
          {
            "number": 1,
            "time": 83.75212015625033,
            "value": 0.48031496062992124
          },
          {
            "number": 1,
            "time": 83.75630539062533,
            "value": 0.49606299212598426
          },
          {
            "number": 1,
            "time": 83.75770046875033,
            "value": 0.5196850393700787
          },
          {
            "number": 1,
            "time": 83.76607093750033,
            "value": 0.5511811023622047
          },
          {
            "number": 1,
            "time": 83.76607093750033,
            "value": 0.5354330708661418
          },
          {
            "number": 1,
            "time": 83.77444140625033,
            "value": 0.5826771653543307
          },
          {
            "number": 1,
            "time": 83.77444140625033,
            "value": 0.5669291338582677
          },
          {
            "number": 1,
            "time": 83.78141679687533,
            "value": 0.6141732283464567
          },
          {
            "number": 1,
            "time": 83.78141679687533,
            "value": 0.5984251968503937
          },
          {
            "number": 1,
            "time": 83.79118234375034,
            "value": 0.6456692913385826
          },
          {
            "number": 1,
            "time": 83.79118234375034,
            "value": 0.6299212598425197
          },
          {
            "number": 1,
            "time": 83.79955281250034,
            "value": 0.6692913385826772
          },
          {
            "number": 1,
            "time": 83.79955281250034,
            "value": 0.6614173228346457
          },
          {
            "number": 1,
            "time": 83.80792328125034,
            "value": 0.7007874015748031
          },
          {
            "number": 1,
            "time": 83.80792328125034,
            "value": 0.6850393700787402
          },
          {
            "number": 1,
            "time": 83.81629375000034,
            "value": 0.7480314960629921
          },
          {
            "number": 1,
            "time": 83.81629375000034,
            "value": 0.7165354330708661
          },
          {
            "number": 1,
            "time": 83.82326914062534,
            "value": 0.7637795275590551
          },
          {
            "number": 1,
            "time": 83.82605929687534,
            "value": 0.7795275590551181
          },
          {
            "number": 1,
            "time": 83.83163960937534,
            "value": 0.8110236220472441
          },
          {
            "number": 1,
            "time": 83.83442976562534,
            "value": 0.8267716535433071
          },
          {
            "number": 1,
            "time": 83.84001007812535,
            "value": 0.8582677165354331
          },
          {
            "number": 1,
            "time": 83.84140515625035,
            "value": 0.8740157480314961
          },
          {
            "number": 1,
            "time": 83.84977562500035,
            "value": 0.9212598425196851
          },
          {
            "number": 1,
            "time": 83.84977562500035,
            "value": 0.905511811023622
          },
          {
            "number": 1,
            "time": 83.85814609375035,
            "value": 0.952755905511811
          },
          {
            "number": 1,
            "time": 83.85814609375035,
            "value": 0.937007874015748
          },
          {
            "number": 1,
            "time": 83.86372640625035,
            "value": 0.968503937007874
          },
          {
            "number": 1,
            "time": 83.86651656250035,
            "value": 0.984251968503937
          },
          {
            "number": 1,
            "time": 83.87349195312535,
            "value": 1
          },
          {
            "number": 1,
            "time": 84.12181585937535,
            "value": 0.968503937007874
          },
          {
            "number": 1,
            "time": 84.12739617187535,
            "value": 0.84251968503937
          },
          {
            "number": 1,
            "time": 84.12879125000035,
            "value": 0.7322834645669292
          },
          {
            "number": 1,
            "time": 84.13855679687535,
            "value": 0.5275590551181102
          },
          {
            "number": 1,
            "time": 84.13855679687535,
            "value": 0.6220472440944882
          },
          {
            "number": 1,
            "time": 84.14553218750035,
            "value": 0.4094488188976378
          },
          {
            "number": 1,
            "time": 84.14832234375035,
            "value": 0.2755905511811024
          },
          {
            "number": 1,
            "time": 84.15390265625035,
            "value": 0.16535433070866143
          },
          {
            "number": 1,
            "time": 84.15529773437535,
            "value": 0.06299212598425197
          },
          {
            "number": 1,
            "time": 84.16227312500035,
            "value": 0
          },
          {
            "number": 1,
            "time": 84.16227312500035,
            "value": 0.007874015748031496
          },
          {
            "number": 1,
            "time": 90.19598601562534,
            "value": 0.007874015748031496
          },
          {
            "number": 1,
            "time": 90.19738109375034,
            "value": 0.015748031496062992
          },
          {
            "number": 1,
            "time": 90.20435648437534,
            "value": 0.031496062992125984
          },
          {
            "number": 1,
            "time": 90.20575156250034,
            "value": 0.047244094488188976
          },
          {
            "number": 1,
            "time": 90.21133187500034,
            "value": 0.06299212598425197
          },
          {
            "number": 1,
            "time": 90.21272695312534,
            "value": 0.07874015748031496
          },
          {
            "number": 1,
            "time": 90.21970234375034,
            "value": 0.09448818897637795
          },
          {
            "number": 1,
            "time": 90.22109742187534,
            "value": 0.11023622047244094
          },
          {
            "number": 1,
            "time": 90.22807281250034,
            "value": 0.13385826771653545
          },
          {
            "number": 1,
            "time": 90.22946789062534,
            "value": 0.14960629921259844
          },
          {
            "number": 1,
            "time": 90.23644328125035,
            "value": 0.16535433070866143
          },
          {
            "number": 1,
            "time": 90.23783835937535,
            "value": 0.18110236220472442
          },
          {
            "number": 1,
            "time": 90.24620882812535,
            "value": 0.2125984251968504
          },
          {
            "number": 1,
            "time": 90.24620882812535,
            "value": 0.1968503937007874
          },
          {
            "number": 1,
            "time": 90.25318421875035,
            "value": 0.2283464566929134
          },
          {
            "number": 1,
            "time": 90.25597437500035,
            "value": 0.23622047244094488
          },
          {
            "number": 1,
            "time": 90.26015960937535,
            "value": 0.25196850393700787
          },
          {
            "number": 1,
            "time": 90.26434484375035,
            "value": 0.2677165354330709
          },
          {
            "number": 1,
            "time": 90.27132023437535,
            "value": 0.2992125984251969
          },
          {
            "number": 1,
            "time": 90.27132023437535,
            "value": 0.28346456692913385
          },
          {
            "number": 1,
            "time": 90.27829562500035,
            "value": 0.33070866141732286
          },
          {
            "number": 1,
            "time": 90.27829562500035,
            "value": 0.31496062992125984
          },
          {
            "number": 1,
            "time": 90.28527101562536,
            "value": 0.3464566929133858
          },
          {
            "number": 1,
            "time": 90.28806117187536,
            "value": 0.36220472440944884
          },
          {
            "number": 1,
            "time": 90.29643164062536,
            "value": 0.3937007874015748
          },
          {
            "number": 1,
            "time": 90.29643164062536,
            "value": 0.3779527559055118
          },
          {
            "number": 1,
            "time": 90.30340703125036,
            "value": 0.4251968503937008
          },
          {
            "number": 1,
            "time": 90.30340703125036,
            "value": 0.4094488188976378
          },
          {
            "number": 1,
            "time": 90.31177750000036,
            "value": 0.4409448818897638
          },
          {
            "number": 1,
            "time": 90.31456765625036,
            "value": 0.4566929133858268
          },
          {
            "number": 1,
            "time": 90.32014796875036,
            "value": 0.48031496062992124
          },
          {
            "number": 1,
            "time": 90.32154304687536,
            "value": 0.49606299212598426
          },
          {
            "number": 1,
            "time": 90.32851843750036,
            "value": 0.5275590551181102
          },
          {
            "number": 1,
            "time": 90.32851843750036,
            "value": 0.5118110236220472
          },
          {
            "number": 1,
            "time": 90.33549382812537,
            "value": 0.5433070866141733
          },
          {
            "number": 1,
            "time": 90.33688890625037,
            "value": 0.5590551181102362
          },
          {
            "number": 1,
            "time": 90.34525937500037,
            "value": 0.5905511811023622
          },
          {
            "number": 1,
            "time": 90.34525937500037,
            "value": 0.5748031496062992
          },
          {
            "number": 1,
            "time": 90.35362984375037,
            "value": 0.6220472440944882
          },
          {
            "number": 1,
            "time": 90.35362984375037,
            "value": 0.6062992125984252
          },
          {
            "number": 1,
            "time": 90.35921015625037,
            "value": 0.6377952755905512
          },
          {
            "number": 1,
            "time": 90.36339539062537,
            "value": 0.6535433070866141
          },
          {
            "number": 1,
            "time": 90.36758062500037,
            "value": 0.6692913385826772
          },
          {
            "number": 1,
            "time": 90.37176585937537,
            "value": 0.6771653543307087
          },
          {
            "number": 1,
            "time": 90.37734617187537,
            "value": 0.6850393700787402
          },
          {
            "number": 1,
            "time": 90.38013632812537,
            "value": 0.7007874015748031
          },
          {
            "number": 1,
            "time": 90.38571664062538,
            "value": 0.7322834645669292
          },
          {
            "number": 1,
            "time": 90.38711171875038,
            "value": 0.7480314960629921
          },
          {
            "number": 1,
            "time": 90.39548218750038,
            "value": 0.7952755905511811
          },
          {
            "number": 1,
            "time": 90.39548218750038,
            "value": 0.7795275590551181
          },
          {
            "number": 1,
            "time": 90.40245757812538,
            "value": 0.8267716535433071
          },
          {
            "number": 1,
            "time": 90.40385265625038,
            "value": 0.84251968503937
          },
          {
            "number": 1,
            "time": 90.41222312500038,
            "value": 0.889763779527559
          },
          {
            "number": 1,
            "time": 90.41222312500038,
            "value": 0.8582677165354331
          },
          {
            "number": 1,
            "time": 90.41919851562538,
            "value": 0.937007874015748
          },
          {
            "number": 1,
            "time": 90.41919851562538,
            "value": 0.9212598425196851
          },
          {
            "number": 1,
            "time": 90.42756898437538,
            "value": 0.952755905511811
          },
          {
            "number": 1,
            "time": 90.43035914062538,
            "value": 0.968503937007874
          },
          {
            "number": 1,
            "time": 90.43593945312539,
            "value": 1
          },
          {
            "number": 1,
            "time": 90.43593945312539,
            "value": 0.984251968503937
          },
          {
            "number": 1,
            "time": 90.66054703125039,
            "value": 0.905511811023622
          },
          {
            "number": 1,
            "time": 90.66612734375039,
            "value": 0.7480314960629921
          },
          {
            "number": 1,
            "time": 90.66752242187539,
            "value": 0.6377952755905512
          },
          {
            "number": 1,
            "time": 90.67589289062539,
            "value": 0.44881889763779526
          },
          {
            "number": 1,
            "time": 90.67589289062539,
            "value": 0.5433070866141733
          },
          {
            "number": 1,
            "time": 90.6842633593754,
            "value": 0.3228346456692913
          },
          {
            "number": 1,
            "time": 90.6856584375004,
            "value": 0.2047244094488189
          },
          {
            "number": 1,
            "time": 90.6898436718754,
            "value": 0.11811023622047244
          },
          {
            "number": 1,
            "time": 90.6940289062504,
            "value": 0.031496062992125984
          },
          {
            "number": 1,
            "time": 90.6996092187504,
            "value": 0
          },
          {
            "number": 1,
            "time": 92.4281110156254,
            "value": 0.015748031496062992
          },
          {
            "number": 1,
            "time": 92.4336913281254,
            "value": 0.023622047244094488
          },
          {
            "number": 1,
            "time": 92.4364814843754,
            "value": 0.031496062992125984
          },
          {
            "number": 1,
            "time": 92.44206179687541,
            "value": 0.047244094488188976
          },
          {
            "number": 1,
            "time": 92.44345687500041,
            "value": 0.06299212598425197
          },
          {
            "number": 1,
            "time": 92.45043226562541,
            "value": 0.09448818897637795
          },
          {
            "number": 1,
            "time": 92.45043226562541,
            "value": 0.07874015748031496
          },
          {
            "number": 1,
            "time": 92.45740765625041,
            "value": 0.11023622047244094
          },
          {
            "number": 1,
            "time": 92.45880273437541,
            "value": 0.12598425196850394
          },
          {
            "number": 1,
            "time": 92.46577812500041,
            "value": 0.14173228346456693
          },
          {
            "number": 1,
            "time": 92.46717320312541,
            "value": 0.16535433070866143
          },
          {
            "number": 1,
            "time": 92.47554367187541,
            "value": 0.18110236220472442
          },
          {
            "number": 1,
            "time": 92.47833382812541,
            "value": 0.1968503937007874
          },
          {
            "number": 1,
            "time": 92.48251906250042,
            "value": 0.2125984251968504
          },
          {
            "number": 1,
            "time": 92.48530921875042,
            "value": 0.2283464566929134
          },
          {
            "number": 1,
            "time": 92.49088953125042,
            "value": 0.2440944881889764
          },
          {
            "number": 1,
            "time": 92.49367968750042,
            "value": 0.25984251968503935
          },
          {
            "number": 1,
            "time": 92.49926000000042,
            "value": 0.2677165354330709
          },
          {
            "number": 1,
            "time": 92.50065507812542,
            "value": 0.28346456692913385
          },
          {
            "number": 1,
            "time": 92.50763046875042,
            "value": 0.30708661417322836
          },
          {
            "number": 1,
            "time": 92.50902554687542,
            "value": 0.3228346456692913
          },
          {
            "number": 1,
            "time": 92.51600093750042,
            "value": 0.33858267716535434
          },
          {
            "number": 1,
            "time": 92.51739601562542,
            "value": 0.3543307086614173
          },
          {
            "number": 1,
            "time": 92.52576648437542,
            "value": 0.3858267716535433
          },
          {
            "number": 1,
            "time": 92.52576648437542,
            "value": 0.3700787401574803
          },
          {
            "number": 1,
            "time": 92.53413695312543,
            "value": 0.41732283464566927
          },
          {
            "number": 1,
            "time": 92.53413695312543,
            "value": 0.4015748031496063
          },
          {
            "number": 1,
            "time": 92.54250742187543,
            "value": 0.4566929133858268
          },
          {
            "number": 1,
            "time": 92.54250742187543,
            "value": 0.4409448818897638
          },
          {
            "number": 1,
            "time": 92.54948281250043,
            "value": 0.47244094488188976
          },
          {
            "number": 1,
            "time": 92.55227296875043,
            "value": 0.4881889763779528
          },
          {
            "number": 1,
            "time": 92.55785328125043,
            "value": 0.5118110236220472
          },
          {
            "number": 1,
            "time": 92.55924835937543,
            "value": 0.5275590551181102
          },
          {
            "number": 1,
            "time": 92.56622375000043,
            "value": 0.5433070866141733
          },
          {
            "number": 1,
            "time": 92.56761882812543,
            "value": 0.5590551181102362
          },
          {
            "number": 1,
            "time": 92.57319914062543,
            "value": 0.5748031496062992
          },
          {
            "number": 1,
            "time": 92.57598929687543,
            "value": 0.5905511811023622
          },
          {
            "number": 1,
            "time": 92.58435976562544,
            "value": 0.6141732283464567
          },
          {
            "number": 1,
            "time": 92.58435976562544,
            "value": 0.6062992125984252
          },
          {
            "number": 1,
            "time": 92.59133515625044,
            "value": 0.6535433070866141
          },
          {
            "number": 1,
            "time": 92.59133515625044,
            "value": 0.6299212598425197
          },
          {
            "number": 1,
            "time": 92.59831054687544,
            "value": 0.6692913385826772
          },
          {
            "number": 1,
            "time": 92.59970562500044,
            "value": 0.6850393700787402
          },
          {
            "number": 1,
            "time": 92.60807609375044,
            "value": 0.7322834645669292
          },
          {
            "number": 1,
            "time": 92.60807609375044,
            "value": 0.7007874015748031
          },
          {
            "number": 1,
            "time": 92.61644656250044,
            "value": 0.7637795275590551
          },
          {
            "number": 1,
            "time": 92.61784164062544,
            "value": 0.7795275590551181
          },
          {
            "number": 1,
            "time": 92.62342195312544,
            "value": 0.8110236220472441
          },
          {
            "number": 1,
            "time": 92.62621210937544,
            "value": 0.84251968503937
          },
          {
            "number": 1,
            "time": 92.63179242187545,
            "value": 0.8582677165354331
          },
          {
            "number": 1,
            "time": 92.63318750000045,
            "value": 0.889763779527559
          },
          {
            "number": 1,
            "time": 92.64155796875045,
            "value": 0.9212598425196851
          },
          {
            "number": 1,
            "time": 92.64155796875045,
            "value": 0.905511811023622
          },
          {
            "number": 1,
            "time": 92.64992843750045,
            "value": 0.968503937007874
          },
          {
            "number": 1,
            "time": 92.64992843750045,
            "value": 0.952755905511811
          },
          {
            "number": 1,
            "time": 92.65829890625045,
            "value": 1
          },
          {
            "number": 1,
            "time": 93.05589617187545,
            "value": 0.9212598425196851
          },
          {
            "number": 1,
            "time": 93.06147648437545,
            "value": 0.7322834645669292
          },
          {
            "number": 1,
            "time": 93.06426664062545,
            "value": 0.6141732283464567
          },
          {
            "number": 1,
            "time": 93.06984695312545,
            "value": 0.49606299212598426
          },
          {
            "number": 1,
            "time": 93.07124203125045,
            "value": 0.3858267716535433
          },
          {
            "number": 1,
            "time": 93.07821742187545,
            "value": 0.14173228346456693
          },
          {
            "number": 1,
            "time": 93.07821742187545,
            "value": 0.25984251968503935
          },
          {
            "number": 1,
            "time": 93.08519281250045,
            "value": 0.06299212598425197
          },
          {
            "number": 1,
            "time": 93.08798296875045,
            "value": 0
          },
          {
            "number": 1,
            "time": 99.89038390625048,
            "value": 0.015748031496062992
          },
          {
            "number": 1,
            "time": 99.89596421875048,
            "value": 0.023622047244094488
          },
          {
            "number": 1,
            "time": 99.89735929687548,
            "value": 0.03937007874015748
          },
          {
            "number": 1,
            "time": 99.90433468750048,
            "value": 0.07086614173228346
          },
          {
            "number": 1,
            "time": 99.90433468750048,
            "value": 0.05511811023622047
          },
          {
            "number": 1,
            "time": 99.91410023437548,
            "value": 0.11023622047244094
          },
          {
            "number": 1,
            "time": 99.91410023437548,
            "value": 0.09448818897637795
          },
          {
            "number": 1,
            "time": 99.92247070312548,
            "value": 0.14960629921259844
          },
          {
            "number": 1,
            "time": 99.92247070312548,
            "value": 0.13385826771653545
          },
          {
            "number": 1,
            "time": 99.92944609375049,
            "value": 0.1889763779527559
          },
          {
            "number": 1,
            "time": 99.92944609375049,
            "value": 0.16535433070866143
          },
          {
            "number": 1,
            "time": 99.93781656250049,
            "value": 0.2204724409448819
          },
          {
            "number": 1,
            "time": 99.93781656250049,
            "value": 0.2047244094488189
          },
          {
            "number": 1,
            "time": 99.94618703125049,
            "value": 0.23622047244094488
          },
          {
            "number": 1,
            "time": 99.94758210937549,
            "value": 0.25196850393700787
          },
          {
            "number": 1,
            "time": 99.95316242187549,
            "value": 0.2677165354330709
          },
          {
            "number": 1,
            "time": 99.95595257812549,
            "value": 0.28346456692913385
          },
          {
            "number": 1,
            "time": 99.96153289062549,
            "value": 0.2992125984251969
          },
          {
            "number": 1,
            "time": 99.96292796875049,
            "value": 0.31496062992125984
          },
          {
            "number": 1,
            "time": 99.9699033593755,
            "value": 0.33858267716535434
          },
          {
            "number": 1,
            "time": 99.9712984375005,
            "value": 0.3543307086614173
          },
          {
            "number": 1,
            "time": 99.9782738281255,
            "value": 0.3937007874015748
          },
          {
            "number": 1,
            "time": 99.9782738281255,
            "value": 0.3700787401574803
          },
          {
            "number": 1,
            "time": 99.9880393750005,
            "value": 0.4330708661417323
          },
          {
            "number": 1,
            "time": 99.9880393750005,
            "value": 0.4094488188976378
          },
          {
            "number": 1,
            "time": 99.9950147656255,
            "value": 0.4566929133858268
          },
          {
            "number": 1,
            "time": 99.9964098437505,
            "value": 0.47244094488188976
          },
          {
            "number": 1,
            "time": 100.0033852343755,
            "value": 0.5118110236220472
          },
          {
            "number": 1,
            "time": 100.0033852343755,
            "value": 0.49606299212598426
          },
          {
            "number": 1,
            "time": 100.0117557031255,
            "value": 0.5275590551181102
          },
          {
            "number": 1,
            "time": 100.0131507812505,
            "value": 0.5433070866141733
          },
          {
            "number": 1,
            "time": 100.0201261718755,
            "value": 0.5669291338582677
          },
          {
            "number": 1,
            "time": 100.0201261718755,
            "value": 0.5590551181102362
          },
          {
            "number": 1,
            "time": 100.0284966406255,
            "value": 0.6062992125984252
          },
          {
            "number": 1,
            "time": 100.0284966406255,
            "value": 0.5826771653543307
          },
          {
            "number": 1,
            "time": 100.0354720312505,
            "value": 0.6299212598425197
          },
          {
            "number": 1,
            "time": 100.0354720312505,
            "value": 0.6141732283464567
          },
          {
            "number": 1,
            "time": 100.04523757812551,
            "value": 0.6535433070866141
          },
          {
            "number": 1,
            "time": 100.04523757812551,
            "value": 0.6377952755905512
          },
          {
            "number": 1,
            "time": 100.05360804687551,
            "value": 0.6850393700787402
          },
          {
            "number": 1,
            "time": 100.05360804687551,
            "value": 0.6692913385826772
          },
          {
            "number": 1,
            "time": 100.06197851562551,
            "value": 0.7480314960629921
          },
          {
            "number": 1,
            "time": 100.06197851562551,
            "value": 0.7165354330708661
          },
          {
            "number": 1,
            "time": 100.07034898437551,
            "value": 0.7952755905511811
          },
          {
            "number": 1,
            "time": 100.07034898437551,
            "value": 0.7795275590551181
          },
          {
            "number": 1,
            "time": 100.07732437500052,
            "value": 0.8267716535433071
          },
          {
            "number": 1,
            "time": 100.08011453125052,
            "value": 0.84251968503937
          },
          {
            "number": 1,
            "time": 100.08569484375052,
            "value": 0.8740157480314961
          },
          {
            "number": 1,
            "time": 100.08848500000052,
            "value": 0.889763779527559
          },
          {
            "number": 1,
            "time": 100.09406531250052,
            "value": 0.905511811023622
          },
          {
            "number": 1,
            "time": 100.09546039062552,
            "value": 0.9212598425196851
          },
          {
            "number": 1,
            "time": 100.10383085937552,
            "value": 0.968503937007874
          },
          {
            "number": 1,
            "time": 100.10383085937552,
            "value": 0.952755905511811
          },
          {
            "number": 1,
            "time": 100.11220132812552,
            "value": 1
          },
          {
            "number": 1,
            "time": 100.11220132812552,
            "value": 0.984251968503937
          },
          {
            "number": 1,
            "time": 100.55723125000053,
            "value": 0.6692913385826772
          },
          {
            "number": 1,
            "time": 100.55723125000053,
            "value": 0.84251968503937
          },
          {
            "number": 1,
            "time": 100.56560171875053,
            "value": 0.44881889763779526
          },
          {
            "number": 1,
            "time": 100.56560171875053,
            "value": 0.5590551181102362
          },
          {
            "number": 1,
            "time": 100.57118203125053,
            "value": 0.25196850393700787
          },
          {
            "number": 1,
            "time": 100.57536726562553,
            "value": 0.07086614173228346
          },
          {
            "number": 1,
            "time": 100.58234265625053,
            "value": 0.015748031496062992
          },
          {
            "number": 1,
            "time": 100.58373773437553,
            "value": 0
          },
          {
            "number": 1,
            "time": 135.51509890625078,
            "value": 0.007874015748031496
          },
          {
            "number": 1,
            "time": 135.5234693750008,
            "value": 0.015748031496062992
          },
          {
            "number": 1,
            "time": 135.5304447656258,
            "value": 0.03937007874015748
          },
          {
            "number": 1,
            "time": 135.5304447656258,
            "value": 0.023622047244094488
          },
          {
            "number": 1,
            "time": 135.5416053906258,
            "value": 0.047244094488188976
          },
          {
            "number": 1,
            "time": 135.5471857031258,
            "value": 0.05511811023622047
          },
          {
            "number": 1,
            "time": 135.5485807812508,
            "value": 0.06299212598425197
          },
          {
            "number": 1,
            "time": 135.5555561718758,
            "value": 0.07086614173228346
          },
          {
            "number": 1,
            "time": 135.5625315625008,
            "value": 0.07874015748031496
          },
          {
            "number": 1,
            "time": 135.5639266406258,
            "value": 0.08661417322834646
          },
          {
            "number": 1,
            "time": 135.5709020312508,
            "value": 0.09448818897637795
          },
          {
            "number": 1,
            "time": 135.5806675781258,
            "value": 0.11023622047244094
          },
          {
            "number": 1,
            "time": 135.5806675781258,
            "value": 0.10236220472440945
          },
          {
            "number": 1,
            "time": 135.5890380468758,
            "value": 0.12598425196850394
          },
          {
            "number": 1,
            "time": 135.5890380468758,
            "value": 0.11811023622047244
          },
          {
            "number": 1,
            "time": 135.5974085156258,
            "value": 0.14960629921259844
          },
          {
            "number": 1,
            "time": 135.5974085156258,
            "value": 0.14173228346456693
          },
          {
            "number": 1,
            "time": 135.6057789843758,
            "value": 0.16535433070866143
          },
          {
            "number": 1,
            "time": 135.6071740625008,
            "value": 0.1732283464566929
          },
          {
            "number": 1,
            "time": 135.6141494531258,
            "value": 0.1889763779527559
          },
          {
            "number": 1,
            "time": 135.6141494531258,
            "value": 0.18110236220472442
          },
          {
            "number": 1,
            "time": 135.6211248437508,
            "value": 0.2047244094488189
          },
          {
            "number": 1,
            "time": 135.6225199218758,
            "value": 0.2125984251968504
          },
          {
            "number": 1,
            "time": 135.6308903906258,
            "value": 0.2204724409448819
          },
          {
            "number": 1,
            "time": 135.6392608593758,
            "value": 0.23622047244094488
          },
          {
            "number": 1,
            "time": 135.6392608593758,
            "value": 0.2283464566929134
          },
          {
            "number": 1,
            "time": 135.6476313281258,
            "value": 0.25196850393700787
          },
          {
            "number": 1,
            "time": 135.6476313281258,
            "value": 0.2440944881889764
          },
          {
            "number": 1,
            "time": 135.6546067187508,
            "value": 0.28346456692913385
          },
          {
            "number": 1,
            "time": 135.6546067187508,
            "value": 0.2677165354330709
          },
          {
            "number": 1,
            "time": 135.66297718750081,
            "value": 0.2992125984251969
          },
          {
            "number": 1,
            "time": 135.66576734375082,
            "value": 0.31496062992125984
          },
          {
            "number": 1,
            "time": 135.67134765625082,
            "value": 0.3464566929133858
          },
          {
            "number": 1,
            "time": 135.67134765625082,
            "value": 0.33070866141732286
          },
          {
            "number": 1,
            "time": 135.67971812500082,
            "value": 0.36220472440944884
          },
          {
            "number": 1,
            "time": 135.68111320312582,
            "value": 0.3779527559055118
          },
          {
            "number": 1,
            "time": 135.68669351562582,
            "value": 0.3937007874015748
          },
          {
            "number": 1,
            "time": 135.68948367187582,
            "value": 0.4015748031496063
          },
          {
            "number": 1,
            "time": 135.69645906250082,
            "value": 0.4251968503937008
          },
          {
            "number": 1,
            "time": 135.69645906250082,
            "value": 0.41732283464566927
          },
          {
            "number": 1,
            "time": 135.70343445312582,
            "value": 0.4330708661417323
          },
          {
            "number": 1,
            "time": 135.70482953125082,
            "value": 0.4409448818897638
          },
          {
            "number": 1,
            "time": 135.71320000000082,
            "value": 0.44881889763779526
          },
          {
            "number": 1,
            "time": 135.71459507812583,
            "value": 0.4566929133858268
          },
          {
            "number": 1,
            "time": 135.72157046875083,
            "value": 0.4645669291338583
          },
          {
            "number": 1,
            "time": 135.72296554687583,
            "value": 0.47244094488188976
          },
          {
            "number": 1,
            "time": 135.72854585937583,
            "value": 0.48031496062992124
          },
          {
            "number": 1,
            "time": 135.73133601562583,
            "value": 0.49606299212598426
          },
          {
            "number": 1,
            "time": 135.73691632812583,
            "value": 0.5039370078740157
          },
          {
            "number": 1,
            "time": 135.73970648437583,
            "value": 0.5118110236220472
          },
          {
            "number": 1,
            "time": 135.74528679687583,
            "value": 0.5196850393700787
          },
          {
            "number": 1,
            "time": 135.74668187500083,
            "value": 0.5275590551181102
          },
          {
            "number": 1,
            "time": 135.75365726562583,
            "value": 0.5511811023622047
          },
          {
            "number": 1,
            "time": 135.75365726562583,
            "value": 0.5433070866141733
          },
          {
            "number": 1,
            "time": 135.76342281250083,
            "value": 0.5590551181102362
          },
          {
            "number": 1,
            "time": 135.76481789062584,
            "value": 0.5669291338582677
          },
          {
            "number": 1,
            "time": 135.77179328125084,
            "value": 0.5826771653543307
          },
          {
            "number": 1,
            "time": 135.77318835937584,
            "value": 0.5905511811023622
          },
          {
            "number": 1,
            "time": 135.77876867187584,
            "value": 0.5984251968503937
          },
          {
            "number": 1,
            "time": 135.78155882812584,
            "value": 0.6062992125984252
          },
          {
            "number": 1,
            "time": 135.78713914062584,
            "value": 0.6141732283464567
          },
          {
            "number": 1,
            "time": 135.78853421875084,
            "value": 0.6220472440944882
          },
          {
            "number": 1,
            "time": 135.79550960937584,
            "value": 0.6299212598425197
          },
          {
            "number": 1,
            "time": 135.79690468750084,
            "value": 0.6456692913385826
          },
          {
            "number": 1,
            "time": 135.80248500000084,
            "value": 0.6535433070866141
          },
          {
            "number": 1,
            "time": 135.80946039062584,
            "value": 0.6692913385826772
          },
          {
            "number": 1,
            "time": 135.81364562500085,
            "value": 0.6850393700787402
          },
          {
            "number": 1,
            "time": 135.82062101562585,
            "value": 0.7165354330708661
          },
          {
            "number": 1,
            "time": 135.82062101562585,
            "value": 0.7007874015748031
          },
          {
            "number": 1,
            "time": 135.82899148437585,
            "value": 0.7637795275590551
          },
          {
            "number": 1,
            "time": 135.82899148437585,
            "value": 0.7322834645669292
          },
          {
            "number": 1,
            "time": 135.83736195312585,
            "value": 0.7952755905511811
          },
          {
            "number": 1,
            "time": 135.83736195312585,
            "value": 0.7795275590551181
          },
          {
            "number": 1,
            "time": 135.84573242187585,
            "value": 0.84251968503937
          },
          {
            "number": 1,
            "time": 135.84573242187585,
            "value": 0.8110236220472441
          },
          {
            "number": 1,
            "time": 135.85270781250085,
            "value": 0.8582677165354331
          },
          {
            "number": 1,
            "time": 135.85549796875085,
            "value": 0.8740157480314961
          },
          {
            "number": 1,
            "time": 135.86247335937585,
            "value": 0.905511811023622
          },
          {
            "number": 1,
            "time": 135.86247335937585,
            "value": 0.889763779527559
          },
          {
            "number": 1,
            "time": 135.87084382812586,
            "value": 0.937007874015748
          },
          {
            "number": 1,
            "time": 135.87084382812586,
            "value": 0.9212598425196851
          },
          {
            "number": 1,
            "time": 135.87921429687586,
            "value": 0.952755905511811
          },
          {
            "number": 1,
            "time": 135.88758476562586,
            "value": 0.968503937007874
          },
          {
            "number": 1,
            "time": 135.88897984375086,
            "value": 0.984251968503937
          },
          {
            "number": 1,
            "time": 135.89456015625086,
            "value": 1
          },
          {
            "number": 1,
            "time": 136.51536992187587,
            "value": 0.937007874015748
          },
          {
            "number": 1,
            "time": 136.52374039062587,
            "value": 0.5748031496062992
          },
          {
            "number": 1,
            "time": 136.52374039062587,
            "value": 0.7007874015748031
          },
          {
            "number": 1,
            "time": 136.53071578125088,
            "value": 0.41732283464566927
          },
          {
            "number": 1,
            "time": 136.53350593750088,
            "value": 0.25984251968503935
          },
          {
            "number": 1,
            "time": 136.53908625000088,
            "value": 0.14173228346456693
          },
          {
            "number": 1,
            "time": 136.54048132812588,
            "value": 0.031496062992125984
          },
          {
            "number": 1,
            "time": 136.54745671875088,
            "value": 0
          },
          {
            "number": 1,
            "time": 137.8769661718759,
            "value": 0.007874015748031496
          },
          {
            "number": 1,
            "time": 137.8825464843759,
            "value": 0.015748031496062992
          },
          {
            "number": 1,
            "time": 137.8839415625009,
            "value": 0.023622047244094488
          },
          {
            "number": 1,
            "time": 137.8909169531259,
            "value": 0.031496062992125984
          },
          {
            "number": 1,
            "time": 137.8937071093759,
            "value": 0.03937007874015748
          },
          {
            "number": 1,
            "time": 137.9006825000009,
            "value": 0.05511811023622047
          },
          {
            "number": 1,
            "time": 137.9034726562509,
            "value": 0.06299212598425197
          },
          {
            "number": 1,
            "time": 137.9090529687509,
            "value": 0.08661417322834646
          },
          {
            "number": 1,
            "time": 137.9090529687509,
            "value": 0.07874015748031496
          },
          {
            "number": 1,
            "time": 137.9174234375009,
            "value": 0.10236220472440945
          },
          {
            "number": 1,
            "time": 137.9174234375009,
            "value": 0.09448818897637795
          },
          {
            "number": 1,
            "time": 137.9243988281259,
            "value": 0.11023622047244094
          },
          {
            "number": 1,
            "time": 137.9257939062509,
            "value": 0.11811023622047244
          },
          {
            "number": 1,
            "time": 137.9327692968759,
            "value": 0.13385826771653545
          },
          {
            "number": 1,
            "time": 137.9327692968759,
            "value": 0.12598425196850394
          },
          {
            "number": 1,
            "time": 137.9425348437509,
            "value": 0.15748031496062992
          },
          {
            "number": 1,
            "time": 137.9425348437509,
            "value": 0.14960629921259844
          },
          {
            "number": 1,
            "time": 137.9467200781259,
            "value": 0.18110236220472442
          },
          {
            "number": 1,
            "time": 137.9467200781259,
            "value": 0.1732283464566929
          },
          {
            "number": 1,
            "time": 137.9592757812509,
            "value": 0.1889763779527559
          },
          {
            "number": 1,
            "time": 137.9606708593759,
            "value": 0.1968503937007874
          },
          {
            "number": 1,
            "time": 137.9732265625009,
            "value": 0.2047244094488189
          },
          {
            "number": 1,
            "time": 137.9746216406259,
            "value": 0.23622047244094488
          },
          {
            "number": 1,
            "time": 137.9746216406259,
            "value": 0.2283464566929134
          },
          {
            "number": 1,
            "time": 137.9746216406259,
            "value": 0.2204724409448819
          },
          {
            "number": 1,
            "time": 137.9829921093759,
            "value": 0.2440944881889764
          },
          {
            "number": 1,
            "time": 137.98438718750091,
            "value": 0.25196850393700787
          },
          {
            "number": 1,
            "time": 137.99275765625092,
            "value": 0.2677165354330709
          },
          {
            "number": 1,
            "time": 137.99275765625092,
            "value": 0.25984251968503935
          },
          {
            "number": 1,
            "time": 137.99973304687592,
            "value": 0.29133858267716534
          },
          {
            "number": 1,
            "time": 137.99973304687592,
            "value": 0.2755905511811024
          },
          {
            "number": 1,
            "time": 138.00670843750092,
            "value": 0.2992125984251969
          },
          {
            "number": 1,
            "time": 138.00949859375092,
            "value": 0.30708661417322836
          },
          {
            "number": 1,
            "time": 138.01647398437592,
            "value": 0.33070866141732286
          },
          {
            "number": 1,
            "time": 138.01647398437592,
            "value": 0.3228346456692913
          },
          {
            "number": 1,
            "time": 138.02344937500092,
            "value": 0.33858267716535434
          },
          {
            "number": 1,
            "time": 138.02763460937592,
            "value": 0.3543307086614173
          },
          {
            "number": 1,
            "time": 138.03321492187592,
            "value": 0.3700787401574803
          },
          {
            "number": 1,
            "time": 138.03321492187592,
            "value": 0.36220472440944884
          },
          {
            "number": 1,
            "time": 138.04158539062593,
            "value": 0.3858267716535433
          },
          {
            "number": 1,
            "time": 138.04298046875093,
            "value": 0.4015748031496063
          },
          {
            "number": 1,
            "time": 138.04995585937593,
            "value": 0.4251968503937008
          },
          {
            "number": 1,
            "time": 138.04995585937593,
            "value": 0.41732283464566927
          },
          {
            "number": 1,
            "time": 138.05693125000093,
            "value": 0.4409448818897638
          },
          {
            "number": 1,
            "time": 138.05972140625093,
            "value": 0.44881889763779526
          },
          {
            "number": 1,
            "time": 138.06669679687593,
            "value": 0.4645669291338583
          },
          {
            "number": 1,
            "time": 138.06669679687593,
            "value": 0.4566929133858268
          },
          {
            "number": 1,
            "time": 138.07506726562593,
            "value": 0.4881889763779528
          },
          {
            "number": 1,
            "time": 138.07506726562593,
            "value": 0.47244094488188976
          },
          {
            "number": 1,
            "time": 138.08343773437593,
            "value": 0.49606299212598426
          },
          {
            "number": 1,
            "time": 138.08483281250093,
            "value": 0.5039370078740157
          },
          {
            "number": 1,
            "time": 138.09041312500094,
            "value": 0.5118110236220472
          },
          {
            "number": 1,
            "time": 138.09320328125094,
            "value": 0.5196850393700787
          },
          {
            "number": 1,
            "time": 138.09878359375094,
            "value": 0.5275590551181102
          },
          {
            "number": 1,
            "time": 138.10157375000094,
            "value": 0.5354330708661418
          },
          {
            "number": 1,
            "time": 138.10854914062594,
            "value": 0.5511811023622047
          },
          {
            "number": 1,
            "time": 138.10854914062594,
            "value": 0.5433070866141733
          },
          {
            "number": 1,
            "time": 138.11552453125094,
            "value": 0.5590551181102362
          },
          {
            "number": 1,
            "time": 138.12529007812594,
            "value": 0.5826771653543307
          },
          {
            "number": 1,
            "time": 138.12529007812594,
            "value": 0.5748031496062992
          },
          {
            "number": 1,
            "time": 138.13366054687594,
            "value": 0.6062992125984252
          },
          {
            "number": 1,
            "time": 138.13366054687594,
            "value": 0.5984251968503937
          },
          {
            "number": 1,
            "time": 138.14063593750095,
            "value": 0.6141732283464567
          },
          {
            "number": 1,
            "time": 138.14900640625095,
            "value": 0.6220472440944882
          },
          {
            "number": 1,
            "time": 138.15040148437595,
            "value": 0.6299212598425197
          },
          {
            "number": 1,
            "time": 138.15737687500095,
            "value": 0.6377952755905512
          },
          {
            "number": 1,
            "time": 138.15877195312595,
            "value": 0.6456692913385826
          },
          {
            "number": 1,
            "time": 138.16574734375095,
            "value": 0.6535433070866141
          },
          {
            "number": 1,
            "time": 138.16714242187595,
            "value": 0.6614173228346457
          },
          {
            "number": 1,
            "time": 138.17272273437595,
            "value": 0.6692913385826772
          },
          {
            "number": 1,
            "time": 138.17411781250095,
            "value": 0.6771653543307087
          },
          {
            "number": 1,
            "time": 138.18248828125095,
            "value": 0.7165354330708661
          },
          {
            "number": 1,
            "time": 138.18248828125095,
            "value": 0.7007874015748031
          },
          {
            "number": 1,
            "time": 138.19085875000096,
            "value": 0.7480314960629921
          },
          {
            "number": 1,
            "time": 138.19085875000096,
            "value": 0.7322834645669292
          },
          {
            "number": 1,
            "time": 138.19922921875096,
            "value": 0.7637795275590551
          },
          {
            "number": 1,
            "time": 138.20759968750096,
            "value": 0.7795275590551181
          },
          {
            "number": 1,
            "time": 138.20899476562596,
            "value": 0.7952755905511811
          },
          {
            "number": 1,
            "time": 138.21457507812596,
            "value": 0.8267716535433071
          },
          {
            "number": 1,
            "time": 138.21457507812596,
            "value": 0.8110236220472441
          },
          {
            "number": 1,
            "time": 138.22294554687596,
            "value": 0.84251968503937
          },
          {
            "number": 1,
            "time": 138.23131601562596,
            "value": 0.8582677165354331
          },
          {
            "number": 1,
            "time": 138.23271109375096,
            "value": 0.8740157480314961
          },
          {
            "number": 1,
            "time": 138.24108156250097,
            "value": 0.889763779527559
          },
          {
            "number": 1,
            "time": 138.24666187500097,
            "value": 0.905511811023622
          },
          {
            "number": 1,
            "time": 138.24805695312597,
            "value": 0.9212598425196851
          },
          {
            "number": 1,
            "time": 138.26479789062597,
            "value": 0.952755905511811
          },
          {
            "number": 1,
            "time": 138.26479789062597,
            "value": 0.937007874015748
          },
          {
            "number": 1,
            "time": 138.27316835937597,
            "value": 0.968503937007874
          },
          {
            "number": 1,
            "time": 138.28153882812597,
            "value": 1
          },
          {
            "number": 1,
            "time": 138.28153882812597,
            "value": 0.984251968503937
          },
          {
            "number": 1,
            "time": 138.63728375000096,
            "value": 0.84251968503937
          },
          {
            "number": 1,
            "time": 138.63728375000096,
            "value": 0.952755905511811
          },
          {
            "number": 1,
            "time": 138.64565421875096,
            "value": 0.6220472440944882
          },
          {
            "number": 1,
            "time": 138.64565421875096,
            "value": 0.7007874015748031
          },
          {
            "number": 1,
            "time": 138.65262960937596,
            "value": 0.5433070866141733
          },
          {
            "number": 1,
            "time": 138.65541976562596,
            "value": 0.4645669291338583
          },
          {
            "number": 1,
            "time": 138.66100007812597,
            "value": 0.3779527559055118
          },
          {
            "number": 1,
            "time": 138.66239515625097,
            "value": 0.2992125984251969
          },
          {
            "number": 1,
            "time": 138.66937054687597,
            "value": 0.2204724409448819
          },
          {
            "number": 1,
            "time": 138.67076562500097,
            "value": 0.14960629921259844
          },
          {
            "number": 1,
            "time": 138.67774101562597,
            "value": 0.05511811023622047
          },
          {
            "number": 1,
            "time": 138.67774101562597,
            "value": 0.10236220472440945
          },
          {
            "number": 1,
            "time": 138.68471640625097,
            "value": 0.015748031496062992
          },
          {
            "number": 1,
            "time": 138.68611148437597,
            "value": 0
          },
          {
            "number": 1,
            "time": 150.34059414062597,
            "value": 0.007874015748031496
          },
          {
            "number": 1,
            "time": 150.34896460937597,
            "value": 0.023622047244094488
          },
          {
            "number": 1,
            "time": 150.34896460937597,
            "value": 0.015748031496062992
          },
          {
            "number": 1,
            "time": 150.35594000000097,
            "value": 0.03937007874015748
          },
          {
            "number": 1,
            "time": 150.35594000000097,
            "value": 0.031496062992125984
          },
          {
            "number": 1,
            "time": 150.36431046875097,
            "value": 0.05511811023622047
          },
          {
            "number": 1,
            "time": 150.36431046875097,
            "value": 0.047244094488188976
          },
          {
            "number": 1,
            "time": 150.37268093750097,
            "value": 0.06299212598425197
          },
          {
            "number": 1,
            "time": 150.37407601562597,
            "value": 0.07086614173228346
          },
          {
            "number": 1,
            "time": 150.38105140625098,
            "value": 0.08661417322834646
          },
          {
            "number": 1,
            "time": 150.38105140625098,
            "value": 0.07874015748031496
          },
          {
            "number": 1,
            "time": 150.38802679687598,
            "value": 0.09448818897637795
          },
          {
            "number": 1,
            "time": 150.39081695312598,
            "value": 0.10236220472440945
          },
          {
            "number": 1,
            "time": 150.39918742187598,
            "value": 0.12598425196850394
          },
          {
            "number": 1,
            "time": 150.39918742187598,
            "value": 0.11023622047244094
          },
          {
            "number": 1,
            "time": 150.40616281250098,
            "value": 0.14960629921259844
          },
          {
            "number": 1,
            "time": 150.40616281250098,
            "value": 0.13385826771653545
          },
          {
            "number": 1,
            "time": 150.41453328125098,
            "value": 0.1732283464566929
          },
          {
            "number": 1,
            "time": 150.41453328125098,
            "value": 0.15748031496062992
          },
          {
            "number": 1,
            "time": 150.42290375000098,
            "value": 0.1889763779527559
          },
          {
            "number": 1,
            "time": 150.42429882812598,
            "value": 0.1968503937007874
          },
          {
            "number": 1,
            "time": 150.43127421875099,
            "value": 0.2047244094488189
          },
          {
            "number": 1,
            "time": 150.43266929687599,
            "value": 0.2204724409448819
          },
          {
            "number": 1,
            "time": 150.438249609376,
            "value": 0.2283464566929134
          },
          {
            "number": 1,
            "time": 150.441039765626,
            "value": 0.23622047244094488
          },
          {
            "number": 1,
            "time": 150.446620078126,
            "value": 0.25984251968503935
          },
          {
            "number": 1,
            "time": 150.446620078126,
            "value": 0.2440944881889764
          },
          {
            "number": 1,
            "time": 150.454990546876,
            "value": 0.28346456692913385
          },
          {
            "number": 1,
            "time": 150.454990546876,
            "value": 0.2677165354330709
          },
          {
            "number": 1,
            "time": 150.461965937501,
            "value": 0.29133858267716534
          },
          {
            "number": 1,
            "time": 150.463361015626,
            "value": 0.30708661417322836
          },
          {
            "number": 1,
            "time": 150.473126562501,
            "value": 0.31496062992125984
          },
          {
            "number": 1,
            "time": 150.474521640626,
            "value": 0.3228346456692913
          },
          {
            "number": 1,
            "time": 150.480101953126,
            "value": 0.3464566929133858
          },
          {
            "number": 1,
            "time": 150.480101953126,
            "value": 0.33070866141732286
          },
          {
            "number": 1,
            "time": 150.488472421876,
            "value": 0.36220472440944884
          },
          {
            "number": 1,
            "time": 150.488472421876,
            "value": 0.3543307086614173
          },
          {
            "number": 1,
            "time": 150.496842890626,
            "value": 0.3858267716535433
          },
          {
            "number": 1,
            "time": 150.496842890626,
            "value": 0.3700787401574803
          },
          {
            "number": 1,
            "time": 150.505213359376,
            "value": 0.3937007874015748
          },
          {
            "number": 1,
            "time": 150.506608437501,
            "value": 0.4094488188976378
          },
          {
            "number": 1,
            "time": 150.512188750001,
            "value": 0.4251968503937008
          },
          {
            "number": 1,
            "time": 150.514978906251,
            "value": 0.4330708661417323
          },
          {
            "number": 1,
            "time": 150.521954296876,
            "value": 0.44881889763779526
          },
          {
            "number": 1,
            "time": 150.521954296876,
            "value": 0.4409448818897638
          },
          {
            "number": 1,
            "time": 150.530324765626,
            "value": 0.47244094488188976
          },
          {
            "number": 1,
            "time": 150.530324765626,
            "value": 0.4645669291338583
          },
          {
            "number": 1,
            "time": 150.538695234376,
            "value": 0.48031496062992124
          },
          {
            "number": 1,
            "time": 150.547065703126,
            "value": 0.5039370078740157
          },
          {
            "number": 1,
            "time": 150.547065703126,
            "value": 0.49606299212598426
          },
          {
            "number": 1,
            "time": 150.554041093751,
            "value": 0.5118110236220472
          },
          {
            "number": 1,
            "time": 150.556831250001,
            "value": 0.5196850393700787
          },
          {
            "number": 1,
            "time": 150.562411562501,
            "value": 0.5275590551181102
          },
          {
            "number": 1,
            "time": 150.565201718751,
            "value": 0.5354330708661418
          },
          {
            "number": 1,
            "time": 150.570782031251,
            "value": 0.5433070866141733
          },
          {
            "number": 1,
            "time": 150.572177109376,
            "value": 0.5511811023622047
          },
          {
            "number": 1,
            "time": 150.58054757812602,
            "value": 0.5669291338582677
          },
          {
            "number": 1,
            "time": 150.58054757812602,
            "value": 0.5590551181102362
          },
          {
            "number": 1,
            "time": 150.58891804687602,
            "value": 0.5748031496062992
          },
          {
            "number": 1,
            "time": 150.59728851562602,
            "value": 0.5905511811023622
          },
          {
            "number": 1,
            "time": 150.59728851562602,
            "value": 0.5826771653543307
          },
          {
            "number": 1,
            "time": 150.60426390625102,
            "value": 0.5984251968503937
          },
          {
            "number": 1,
            "time": 150.61263437500102,
            "value": 0.6062992125984252
          },
          {
            "number": 1,
            "time": 150.61402945312602,
            "value": 0.6141732283464567
          },
          {
            "number": 1,
            "time": 150.62100484375102,
            "value": 0.6220472440944882
          },
          {
            "number": 1,
            "time": 150.63077039062603,
            "value": 0.6299212598425197
          },
          {
            "number": 1,
            "time": 150.63635070312603,
            "value": 0.6377952755905512
          },
          {
            "number": 1,
            "time": 150.64472117187603,
            "value": 0.6456692913385826
          },
          {
            "number": 1,
            "time": 150.65448671875103,
            "value": 0.6535433070866141
          },
          {
            "number": 1,
            "time": 150.66285718750103,
            "value": 0.6614173228346457
          },
          {
            "number": 1,
            "time": 150.68099320312604,
            "value": 0.6692913385826772
          },
          {
            "number": 1,
            "time": 150.68657351562604,
            "value": 0.6771653543307087
          },
          {
            "number": 1,
            "time": 150.68796859375104,
            "value": 0.6850393700787402
          },
          {
            "number": 1,
            "time": 150.70191937500104,
            "value": 0.7007874015748031
          },
          {
            "number": 1,
            "time": 150.70331445312604,
            "value": 0.7165354330708661
          },
          {
            "number": 1,
            "time": 150.71308000000104,
            "value": 0.7322834645669292
          },
          {
            "number": 1,
            "time": 150.72842585937605,
            "value": 0.7480314960629921
          },
          {
            "number": 1,
            "time": 150.74516679687605,
            "value": 0.7637795275590551
          },
          {
            "number": 1,
            "time": 150.75214218750105,
            "value": 0.7795275590551181
          },
          {
            "number": 1,
            "time": 150.77725359375106,
            "value": 0.8110236220472441
          },
          {
            "number": 1,
            "time": 150.77725359375106,
            "value": 0.7952755905511811
          },
          {
            "number": 1,
            "time": 150.78701914062606,
            "value": 0.8267716535433071
          },
          {
            "number": 1,
            "time": 150.80515515625106,
            "value": 0.84251968503937
          },
          {
            "number": 1,
            "time": 150.82608132812607,
            "value": 0.8582677165354331
          },
          {
            "number": 1,
            "time": 150.85956320312607,
            "value": 0.8740157480314961
          },
          {
            "number": 1,
            "time": 150.87630414062608,
            "value": 0.889763779527559
          },
          {
            "number": 1,
            "time": 150.88467460937608,
            "value": 0.905511811023622
          },
          {
            "number": 1,
            "time": 150.90002046875108,
            "value": 0.889763779527559
          },
          {
            "number": 1,
            "time": 150.90141554687608,
            "value": 0.8740157480314961
          },
          {
            "number": 1,
            "time": 150.91118109375108,
            "value": 0.8110236220472441
          },
          {
            "number": 1,
            "time": 150.91118109375108,
            "value": 0.84251968503937
          },
          {
            "number": 1,
            "time": 150.91815648437608,
            "value": 0.7637795275590551
          },
          {
            "number": 1,
            "time": 150.92094664062608,
            "value": 0.7007874015748031
          },
          {
            "number": 1,
            "time": 150.92652695312609,
            "value": 0.6456692913385826
          },
          {
            "number": 1,
            "time": 150.9279220312511,
            "value": 0.5984251968503937
          },
          {
            "number": 1,
            "time": 150.9348974218761,
            "value": 0.44881889763779526
          },
          {
            "number": 1,
            "time": 150.9348974218761,
            "value": 0.5275590551181102
          },
          {
            "number": 1,
            "time": 150.9432678906261,
            "value": 0.25196850393700787
          },
          {
            "number": 1,
            "time": 150.9432678906261,
            "value": 0.3464566929133858
          },
          {
            "number": 1,
            "time": 150.9502432812511,
            "value": 0.14960629921259844
          },
          {
            "number": 1,
            "time": 150.9516383593761,
            "value": 0.05511811023622047
          },
          {
            "number": 1,
            "time": 150.9600088281261,
            "value": 0
          },
          {
            "number": 1,
            "time": 150.9600088281261,
            "value": 0.015748031496062992
          },
          {
            "number": 1,
            "time": 152.39833437500113,
            "value": 0.007874015748031496
          },
          {
            "number": 1,
            "time": 152.40391468750113,
            "value": 0.023622047244094488
          },
          {
            "number": 1,
            "time": 152.40670484375113,
            "value": 0.031496062992125984
          },
          {
            "number": 1,
            "time": 152.41368023437613,
            "value": 0.047244094488188976
          },
          {
            "number": 1,
            "time": 152.41507531250113,
            "value": 0.05511811023622047
          },
          {
            "number": 1,
            "time": 152.42205070312613,
            "value": 0.07874015748031496
          },
          {
            "number": 1,
            "time": 152.42205070312613,
            "value": 0.06299212598425197
          },
          {
            "number": 1,
            "time": 152.43042117187613,
            "value": 0.10236220472440945
          },
          {
            "number": 1,
            "time": 152.43042117187613,
            "value": 0.09448818897637795
          },
          {
            "number": 1,
            "time": 152.44158179687614,
            "value": 0.13385826771653545
          },
          {
            "number": 1,
            "time": 152.44158179687614,
            "value": 0.11811023622047244
          },
          {
            "number": 1,
            "time": 152.44855718750114,
            "value": 0.14960629921259844
          },
          {
            "number": 1,
            "time": 152.44855718750114,
            "value": 0.14173228346456693
          },
          {
            "number": 1,
            "time": 152.45553257812614,
            "value": 0.1732283464566929
          },
          {
            "number": 1,
            "time": 152.45553257812614,
            "value": 0.16535433070866143
          },
          {
            "number": 1,
            "time": 152.46250796875114,
            "value": 0.1889763779527559
          },
          {
            "number": 1,
            "time": 152.46669320312614,
            "value": 0.1968503937007874
          },
          {
            "number": 1,
            "time": 152.47227351562614,
            "value": 0.2125984251968504
          },
          {
            "number": 1,
            "time": 152.47366859375114,
            "value": 0.2204724409448819
          },
          {
            "number": 1,
            "time": 152.47785382812614,
            "value": 0.2283464566929134
          },
          {
            "number": 1,
            "time": 152.48203906250114,
            "value": 0.2440944881889764
          },
          {
            "number": 1,
            "time": 152.48761937500115,
            "value": 0.25984251968503935
          },
          {
            "number": 1,
            "time": 152.48901445312615,
            "value": 0.2677165354330709
          },
          {
            "number": 1,
            "time": 152.49598984375115,
            "value": 0.28346456692913385
          },
          {
            "number": 1,
            "time": 152.49738492187615,
            "value": 0.29133858267716534
          },
          {
            "number": 1,
            "time": 152.50436031250115,
            "value": 0.30708661417322836
          },
          {
            "number": 1,
            "time": 152.50436031250115,
            "value": 0.2992125984251969
          },
          {
            "number": 1,
            "time": 152.51412585937615,
            "value": 0.3228346456692913
          },
          {
            "number": 1,
            "time": 152.51412585937615,
            "value": 0.31496062992125984
          },
          {
            "number": 1,
            "time": 152.52249632812615,
            "value": 0.33858267716535434
          },
          {
            "number": 1,
            "time": 152.52249632812615,
            "value": 0.33070866141732286
          },
          {
            "number": 1,
            "time": 152.52947171875115,
            "value": 0.3464566929133858
          },
          {
            "number": 1,
            "time": 152.53226187500115,
            "value": 0.3543307086614173
          },
          {
            "number": 1,
            "time": 152.53784218750116,
            "value": 0.36220472440944884
          },
          {
            "number": 1,
            "time": 152.54063234375116,
            "value": 0.3700787401574803
          },
          {
            "number": 1,
            "time": 152.54621265625116,
            "value": 0.3779527559055118
          },
          {
            "number": 1,
            "time": 152.54760773437616,
            "value": 0.3937007874015748
          },
          {
            "number": 1,
            "time": 152.55458312500116,
            "value": 0.4015748031496063
          },
          {
            "number": 1,
            "time": 152.55597820312616,
            "value": 0.4094488188976378
          },
          {
            "number": 1,
            "time": 152.56434867187616,
            "value": 0.4251968503937008
          },
          {
            "number": 1,
            "time": 152.56434867187616,
            "value": 0.41732283464566927
          },
          {
            "number": 1,
            "time": 152.57271914062616,
            "value": 0.4330708661417323
          },
          {
            "number": 1,
            "time": 152.57969453125116,
            "value": 0.44881889763779526
          },
          {
            "number": 1,
            "time": 152.57969453125116,
            "value": 0.4409448818897638
          },
          {
            "number": 1,
            "time": 152.58946007812617,
            "value": 0.4566929133858268
          },
          {
            "number": 1,
            "time": 152.59643546875117,
            "value": 0.4645669291338583
          },
          {
            "number": 1,
            "time": 152.60620101562617,
            "value": 0.47244094488188976
          },
          {
            "number": 1,
            "time": 152.61178132812617,
            "value": 0.48031496062992124
          },
          {
            "number": 1,
            "time": 152.61317640625117,
            "value": 0.4881889763779528
          },
          {
            "number": 1,
            "time": 152.62154687500117,
            "value": 0.49606299212598426
          },
          {
            "number": 1,
            "time": 152.62991734375117,
            "value": 0.5039370078740157
          },
          {
            "number": 1,
            "time": 152.63828781250118,
            "value": 0.5196850393700787
          },
          {
            "number": 1,
            "time": 152.63828781250118,
            "value": 0.5118110236220472
          },
          {
            "number": 1,
            "time": 152.64665828125118,
            "value": 0.5275590551181102
          },
          {
            "number": 1,
            "time": 152.65642382812618,
            "value": 0.5354330708661418
          },
          {
            "number": 1,
            "time": 152.66200414062618,
            "value": 0.5433070866141733
          },
          {
            "number": 1,
            "time": 152.67037460937618,
            "value": 0.5511811023622047
          },
          {
            "number": 1,
            "time": 152.67735000000118,
            "value": 0.5590551181102362
          },
          {
            "number": 1,
            "time": 152.6885106250012,
            "value": 0.5748031496062992
          },
          {
            "number": 1,
            "time": 152.6885106250012,
            "value": 0.5669291338582677
          },
          {
            "number": 1,
            "time": 152.6954860156262,
            "value": 0.5826771653543307
          },
          {
            "number": 1,
            "time": 152.7038564843762,
            "value": 0.5984251968503937
          },
          {
            "number": 1,
            "time": 152.7038564843762,
            "value": 0.5905511811023622
          },
          {
            "number": 1,
            "time": 152.7205974218762,
            "value": 0.6062992125984252
          },
          {
            "number": 1,
            "time": 152.7219925000012,
            "value": 0.6141732283464567
          },
          {
            "number": 1,
            "time": 152.7303629687512,
            "value": 0.6220472440944882
          },
          {
            "number": 1,
            "time": 152.7457088281262,
            "value": 0.6299212598425197
          },
          {
            "number": 1,
            "time": 152.7624497656262,
            "value": 0.6377952755905512
          },
          {
            "number": 1,
            "time": 152.7777956250012,
            "value": 0.6456692913385826
          },
          {
            "number": 1,
            "time": 152.7945365625012,
            "value": 0.6535433070866141
          },
          {
            "number": 1,
            "time": 152.8015119531262,
            "value": 0.6614173228346457
          },
          {
            "number": 1,
            "time": 152.8126725781262,
            "value": 0.6692913385826772
          },
          {
            "number": 1,
            "time": 152.83638890625122,
            "value": 0.6771653543307087
          },
          {
            "number": 1,
            "time": 152.86010523437622,
            "value": 0.6850393700787402
          },
          {
            "number": 1,
            "time": 152.88661171875123,
            "value": 0.7007874015748031
          },
          {
            "number": 1,
            "time": 152.94939023437624,
            "value": 0.7165354330708661
          },
          {
            "number": 1,
            "time": 152.98566226562625,
            "value": 0.7322834645669292
          },
          {
            "number": 1,
            "time": 153.03449000000126,
            "value": 0.7480314960629921
          },
          {
            "number": 1,
            "time": 153.10842914062624,
            "value": 0.7637795275590551
          },
          {
            "number": 1,
            "time": 153.20747968750123,
            "value": 0.7795275590551181
          },
          {
            "number": 1,
            "time": 153.37349398437624,
            "value": 0.7952755905511811
          },
          {
            "number": 1,
            "time": 153.38186445312624,
            "value": 0.8110236220472441
          },
          {
            "number": 1,
            "time": 153.42232171875125,
            "value": 0.8267716535433071
          },
          {
            "number": 1,
            "time": 153.45580359375126,
            "value": 0.8110236220472441
          },
          {
            "number": 1,
            "time": 153.48231007812626,
            "value": 0.8267716535433071
          },
          {
            "number": 1,
            "time": 153.50602640625127,
            "value": 0.84251968503937
          },
          {
            "number": 1,
            "time": 153.56461968750128,
            "value": 0.8267716535433071
          },
          {
            "number": 1,
            "time": 153.58973109375128,
            "value": 0.84251968503937
          },
          {
            "number": 1,
            "time": 153.6134474218763,
            "value": 0.8582677165354331
          },
          {
            "number": 1,
            "time": 153.72226351562628,
            "value": 0.8740157480314961
          },
          {
            "number": 1,
            "time": 153.7459798437513,
            "value": 0.8582677165354331
          },
          {
            "number": 1,
            "time": 153.7543503125013,
            "value": 0.8267716535433071
          },
          {
            "number": 1,
            "time": 153.7543503125013,
            "value": 0.84251968503937
          },
          {
            "number": 1,
            "time": 153.7599306250013,
            "value": 0.8110236220472441
          },
          {
            "number": 1,
            "time": 153.7613257031263,
            "value": 0.7952755905511811
          },
          {
            "number": 1,
            "time": 153.7683010937513,
            "value": 0.7795275590551181
          },
          {
            "number": 1,
            "time": 153.7696961718763,
            "value": 0.7480314960629921
          },
          {
            "number": 1,
            "time": 153.7780666406263,
            "value": 0.7165354330708661
          },
          {
            "number": 1,
            "time": 153.7794617187513,
            "value": 0.6771653543307087
          },
          {
            "number": 1,
            "time": 153.7850420312513,
            "value": 0.6535433070866141
          },
          {
            "number": 1,
            "time": 153.7878321875013,
            "value": 0.6220472440944882
          },
          {
            "number": 1,
            "time": 153.7934125000013,
            "value": 0.5826771653543307
          },
          {
            "number": 1,
            "time": 153.7962026562513,
            "value": 0.5511811023622047
          },
          {
            "number": 1,
            "time": 153.8003878906263,
            "value": 0.5039370078740157
          },
          {
            "number": 1,
            "time": 153.8017829687513,
            "value": 0.4645669291338583
          },
          {
            "number": 1,
            "time": 153.8101534375013,
            "value": 0.4094488188976378
          },
          {
            "number": 1,
            "time": 153.8115485156263,
            "value": 0.3543307086614173
          },
          {
            "number": 1,
            "time": 153.8185239062513,
            "value": 0.2283464566929134
          },
          {
            "number": 1,
            "time": 153.8185239062513,
            "value": 0.29133858267716534
          },
          {
            "number": 1,
            "time": 153.8282894531263,
            "value": 0.015748031496062992
          },
          {
            "number": 1,
            "time": 153.8282894531263,
            "value": 0.11811023622047244
          },
          {
            "number": 1,
            "time": 153.8366599218763,
            "value": 0
          },
          {
            "number": 1,
            "time": 154.52024820312633,
            "value": 0.007874015748031496
          },
          {
            "number": 1,
            "time": 154.52722359375133,
            "value": 0.023622047244094488
          },
          {
            "number": 1,
            "time": 154.52722359375133,
            "value": 0.015748031496062992
          },
          {
            "number": 1,
            "time": 154.53559406250133,
            "value": 0.03937007874015748
          },
          {
            "number": 1,
            "time": 154.53559406250133,
            "value": 0.031496062992125984
          },
          {
            "number": 1,
            "time": 154.54396453125133,
            "value": 0.05511811023622047
          },
          {
            "number": 1,
            "time": 154.54396453125133,
            "value": 0.047244094488188976
          },
          {
            "number": 1,
            "time": 154.55093992187633,
            "value": 0.06299212598425197
          },
          {
            "number": 1,
            "time": 154.55931039062634,
            "value": 0.07086614173228346
          },
          {
            "number": 1,
            "time": 154.56210054687634,
            "value": 0.07874015748031496
          },
          {
            "number": 1,
            "time": 154.56768085937634,
            "value": 0.10236220472440945
          },
          {
            "number": 1,
            "time": 154.56768085937634,
            "value": 0.09448818897637795
          },
          {
            "number": 1,
            "time": 154.57605132812634,
            "value": 0.11811023622047244
          },
          {
            "number": 1,
            "time": 154.57605132812634,
            "value": 0.11023622047244094
          },
          {
            "number": 1,
            "time": 154.58442179687634,
            "value": 0.13385826771653545
          },
          {
            "number": 1,
            "time": 154.58442179687634,
            "value": 0.12598425196850394
          },
          {
            "number": 1,
            "time": 154.59279226562634,
            "value": 0.15748031496062992
          },
          {
            "number": 1,
            "time": 154.59279226562634,
            "value": 0.14173228346456693
          },
          {
            "number": 1,
            "time": 154.60116273437635,
            "value": 0.18110236220472442
          },
          {
            "number": 1,
            "time": 154.60116273437635,
            "value": 0.1732283464566929
          },
          {
            "number": 1,
            "time": 154.60953320312635,
            "value": 0.2047244094488189
          },
          {
            "number": 1,
            "time": 154.60953320312635,
            "value": 0.1889763779527559
          },
          {
            "number": 1,
            "time": 154.61650859375135,
            "value": 0.2125984251968504
          },
          {
            "number": 1,
            "time": 154.61929875000135,
            "value": 0.2283464566929134
          },
          {
            "number": 1,
            "time": 154.62487906250135,
            "value": 0.2440944881889764
          },
          {
            "number": 1,
            "time": 154.62627414062635,
            "value": 0.25984251968503935
          },
          {
            "number": 1,
            "time": 154.63324953125135,
            "value": 0.2677165354330709
          },
          {
            "number": 1,
            "time": 154.63464460937635,
            "value": 0.28346456692913385
          },
          {
            "number": 1,
            "time": 154.64022492187635,
            "value": 0.29133858267716534
          },
          {
            "number": 1,
            "time": 154.64162000000135,
            "value": 0.2992125984251969
          },
          {
            "number": 1,
            "time": 154.64859539062635,
            "value": 0.30708661417322836
          },
          {
            "number": 1,
            "time": 154.64999046875135,
            "value": 0.3228346456692913
          },
          {
            "number": 1,
            "time": 154.65696585937636,
            "value": 0.33858267716535434
          },
          {
            "number": 1,
            "time": 154.65696585937636,
            "value": 0.33070866141732286
          },
          {
            "number": 1,
            "time": 154.66673140625136,
            "value": 0.3543307086614173
          },
          {
            "number": 1,
            "time": 154.66812648437636,
            "value": 0.36220472440944884
          },
          {
            "number": 1,
            "time": 154.67510187500136,
            "value": 0.3700787401574803
          },
          {
            "number": 1,
            "time": 154.67649695312636,
            "value": 0.3858267716535433
          },
          {
            "number": 1,
            "time": 154.68068218750136,
            "value": 0.3937007874015748
          },
          {
            "number": 1,
            "time": 154.68486742187636,
            "value": 0.4094488188976378
          },
          {
            "number": 1,
            "time": 154.69044773437636,
            "value": 0.41732283464566927
          },
          {
            "number": 1,
            "time": 154.69184281250136,
            "value": 0.4330708661417323
          },
          {
            "number": 1,
            "time": 154.69881820312636,
            "value": 0.44881889763779526
          },
          {
            "number": 1,
            "time": 154.69881820312636,
            "value": 0.4409448818897638
          },
          {
            "number": 1,
            "time": 154.70579359375137,
            "value": 0.4566929133858268
          },
          {
            "number": 1,
            "time": 154.70718867187637,
            "value": 0.4645669291338583
          },
          {
            "number": 1,
            "time": 154.71416406250137,
            "value": 0.47244094488188976
          },
          {
            "number": 1,
            "time": 154.72392960937637,
            "value": 0.48031496062992124
          },
          {
            "number": 1,
            "time": 154.72671976562637,
            "value": 0.4881889763779528
          },
          {
            "number": 1,
            "time": 154.73230007812637,
            "value": 0.49606299212598426
          },
          {
            "number": 1,
            "time": 154.73369515625137,
            "value": 0.5039370078740157
          },
          {
            "number": 1,
            "time": 154.73788039062637,
            "value": 0.5118110236220472
          },
          {
            "number": 1,
            "time": 154.74206562500137,
            "value": 0.5196850393700787
          },
          {
            "number": 1,
            "time": 154.74904101562637,
            "value": 0.5433070866141733
          },
          {
            "number": 1,
            "time": 154.74904101562637,
            "value": 0.5354330708661418
          },
          {
            "number": 1,
            "time": 154.75741148437638,
            "value": 0.5590551181102362
          },
          {
            "number": 1,
            "time": 154.75741148437638,
            "value": 0.5511811023622047
          },
          {
            "number": 1,
            "time": 154.76438687500138,
            "value": 0.5748031496062992
          },
          {
            "number": 1,
            "time": 154.76438687500138,
            "value": 0.5669291338582677
          },
          {
            "number": 1,
            "time": 154.77415242187638,
            "value": 0.5905511811023622
          },
          {
            "number": 1,
            "time": 154.77415242187638,
            "value": 0.5826771653543307
          },
          {
            "number": 1,
            "time": 154.78391796875138,
            "value": 0.5984251968503937
          },
          {
            "number": 1,
            "time": 154.78949828125138,
            "value": 0.6062992125984252
          },
          {
            "number": 1,
            "time": 154.79786875000138,
            "value": 0.6141732283464567
          },
          {
            "number": 1,
            "time": 154.79926382812639,
            "value": 0.6220472440944882
          },
          {
            "number": 1,
            "time": 154.8076342968764,
            "value": 0.6299212598425197
          },
          {
            "number": 1,
            "time": 154.8201900000014,
            "value": 0.6377952755905512
          },
          {
            "number": 1,
            "time": 154.8383260156264,
            "value": 0.6456692913385826
          },
          {
            "number": 1,
            "time": 154.8466964843764,
            "value": 0.6535433070866141
          },
          {
            "number": 1,
            "time": 154.8550669531264,
            "value": 0.6692913385826772
          },
          {
            "number": 1,
            "time": 154.8550669531264,
            "value": 0.6614173228346457
          },
          {
            "number": 1,
            "time": 154.8732029687514,
            "value": 0.6771653543307087
          },
          {
            "number": 1,
            "time": 154.8885488281264,
            "value": 0.6850393700787402
          },
          {
            "number": 1,
            "time": 154.9038946875014,
            "value": 0.7007874015748031
          },
          {
            "number": 1,
            "time": 154.9206356250014,
            "value": 0.7165354330708661
          },
          {
            "number": 1,
            "time": 154.9304011718764,
            "value": 0.7322834645669292
          },
          {
            "number": 1,
            "time": 154.95411750000142,
            "value": 0.7480314960629921
          },
          {
            "number": 1,
            "time": 154.99317968750142,
            "value": 0.7637795275590551
          },
          {
            "number": 1,
            "time": 155.02666156250143,
            "value": 0.7795275590551181
          },
          {
            "number": 1,
            "time": 155.04479757812643,
            "value": 0.7952755905511811
          },
          {
            "number": 1,
            "time": 155.06711882812644,
            "value": 0.8110236220472441
          },
          {
            "number": 1,
            "time": 155.10060070312645,
            "value": 0.8267716535433071
          },
          {
            "number": 1,
            "time": 155.12571210937645,
            "value": 0.8110236220472441
          },
          {
            "number": 1,
            "time": 155.13408257812645,
            "value": 0.7952755905511811
          },
          {
            "number": 1,
            "time": 155.13966289062645,
            "value": 0.7795275590551181
          },
          {
            "number": 1,
            "time": 155.14105796875145,
            "value": 0.7637795275590551
          },
          {
            "number": 1,
            "time": 155.14803335937646,
            "value": 0.7165354330708661
          },
          {
            "number": 1,
            "time": 155.14942843750146,
            "value": 0.6771653543307087
          },
          {
            "number": 1,
            "time": 155.15640382812646,
            "value": 0.6456692913385826
          },
          {
            "number": 1,
            "time": 155.15779890625146,
            "value": 0.6062992125984252
          },
          {
            "number": 1,
            "time": 155.16616937500146,
            "value": 0.5669291338582677
          },
          {
            "number": 1,
            "time": 155.16756445312646,
            "value": 0.5196850393700787
          },
          {
            "number": 1,
            "time": 155.17174968750146,
            "value": 0.4566929133858268
          },
          {
            "number": 1,
            "time": 155.17453984375146,
            "value": 0.4015748031496063
          },
          {
            "number": 1,
            "time": 155.18151523437646,
            "value": 0.3228346456692913
          },
          {
            "number": 1,
            "time": 155.18291031250146,
            "value": 0.25196850393700787
          },
          {
            "number": 1,
            "time": 155.18988570312646,
            "value": 0.16535433070866143
          },
          {
            "number": 1,
            "time": 155.19128078125146,
            "value": 0.07874015748031496
          },
          {
            "number": 1,
            "time": 155.19965125000147,
            "value": 0
          },
          {
            "number": 1,
            "time": 155.19965125000147,
            "value": 0.023622047244094488
          },
          {
            "number": 1,
            "time": 158.58271570312652,
            "value": 0.007874015748031496
          },
          {
            "number": 1,
            "time": 158.59806156250153,
            "value": 0.015748031496062992
          },
          {
            "number": 1,
            "time": 158.63154343750153,
            "value": 0.031496062992125984
          },
          {
            "number": 1,
            "time": 158.63154343750153,
            "value": 0.023622047244094488
          },
          {
            "number": 1,
            "time": 158.64828437500154,
            "value": 0.03937007874015748
          },
          {
            "number": 1,
            "time": 158.65665484375154,
            "value": 0.047244094488188976
          },
          {
            "number": 1,
            "time": 158.66502531250154,
            "value": 0.05511811023622047
          },
          {
            "number": 1,
            "time": 158.68316132812654,
            "value": 0.06299212598425197
          },
          {
            "number": 1,
            "time": 158.68874164062655,
            "value": 0.07086614173228346
          },
          {
            "number": 1,
            "time": 158.69711210937655,
            "value": 0.07874015748031496
          },
          {
            "number": 1,
            "time": 158.70408750000155,
            "value": 0.08661417322834646
          },
          {
            "number": 1,
            "time": 158.72222351562655,
            "value": 0.10236220472440945
          },
          {
            "number": 1,
            "time": 158.72222351562655,
            "value": 0.09448818897637795
          },
          {
            "number": 1,
            "time": 158.74035953125156,
            "value": 0.11023622047244094
          },
          {
            "number": 1,
            "time": 158.77244632812656,
            "value": 0.11811023622047244
          },
          {
            "number": 1,
            "time": 158.78081679687656,
            "value": 0.12598425196850394
          },
          {
            "number": 1,
            "time": 158.79895281250157,
            "value": 0.13385826771653545
          },
          {
            "number": 1,
            "time": 158.80732328125157,
            "value": 0.14173228346456693
          },
          {
            "number": 1,
            "time": 158.81290359375157,
            "value": 0.14960629921259844
          },
          {
            "number": 1,
            "time": 158.81429867187657,
            "value": 0.15748031496062992
          },
          {
            "number": 1,
            "time": 158.82127406250157,
            "value": 0.16535433070866143
          },
          {
            "number": 1,
            "time": 158.82824945312657,
            "value": 0.1732283464566929
          },
          {
            "number": 1,
            "time": 158.82964453125157,
            "value": 0.18110236220472442
          },
          {
            "number": 1,
            "time": 158.83941007812658,
            "value": 0.1889763779527559
          },
          {
            "number": 1,
            "time": 158.84638546875158,
            "value": 0.1968503937007874
          },
          {
            "number": 1,
            "time": 158.86312640625158,
            "value": 0.2047244094488189
          },
          {
            "number": 1,
            "time": 158.87010179687658,
            "value": 0.2125984251968504
          },
          {
            "number": 1,
            "time": 158.87289195312658,
            "value": 0.2204724409448819
          },
          {
            "number": 1,
            "time": 158.87847226562658,
            "value": 0.2283464566929134
          },
          {
            "number": 1,
            "time": 158.88126242187658,
            "value": 0.23622047244094488
          },
          {
            "number": 1,
            "time": 158.8882378125016,
            "value": 0.2440944881889764
          },
          {
            "number": 1,
            "time": 158.9049787500016,
            "value": 0.25196850393700787
          },
          {
            "number": 1,
            "time": 158.9203246093766,
            "value": 0.25984251968503935
          },
          {
            "number": 1,
            "time": 158.9370655468766,
            "value": 0.2677165354330709
          },
          {
            "number": 1,
            "time": 158.9524114062516,
            "value": 0.2755905511811024
          },
          {
            "number": 1,
            "time": 158.9872883593766,
            "value": 0.28346456692913385
          },
          {
            "number": 1,
            "time": 159.04448656250162,
            "value": 0.29133858267716534
          },
          {
            "number": 1,
            "time": 159.06820289062662,
            "value": 0.2992125984251969
          },
          {
            "number": 1,
            "time": 159.11842570312663,
            "value": 0.30708661417322836
          },
          {
            "number": 1,
            "time": 159.15051250000164,
            "value": 0.31496062992125984
          },
          {
            "number": 1,
            "time": 159.16725343750164,
            "value": 0.3228346456692913
          },
          {
            "number": 1,
            "time": 159.18259929687665,
            "value": 0.33070866141732286
          },
          {
            "number": 1,
            "time": 159.19515500000165,
            "value": 0.33858267716535434
          },
          {
            "number": 1,
            "time": 159.21887132812665,
            "value": 0.3464566929133858
          },
          {
            "number": 1,
            "time": 159.23421718750166,
            "value": 0.3543307086614173
          },
          {
            "number": 1,
            "time": 159.28444000000167,
            "value": 0.36220472440944884
          },
          {
            "number": 1,
            "time": 159.32489726562667,
            "value": 0.3700787401574803
          },
          {
            "number": 1,
            "time": 159.33466281250168,
            "value": 0.3779527559055118
          },
          {
            "number": 1,
            "time": 159.35698406250168,
            "value": 0.3858267716535433
          },
          {
            "number": 1,
            "time": 159.4072068750017,
            "value": 0.3937007874015748
          },
          {
            "number": 1,
            "time": 159.4169724218767,
            "value": 0.4015748031496063
          },
          {
            "number": 1,
            "time": 159.4323182812517,
            "value": 0.4094488188976378
          },
          {
            "number": 1,
            "time": 159.4504542968767,
            "value": 0.41732283464566927
          },
          {
            "number": 1,
            "time": 159.4671952343767,
            "value": 0.4251968503937008
          },
          {
            "number": 1,
            "time": 159.5174180468767,
            "value": 0.4330708661417323
          },
          {
            "number": 1,
            "time": 159.55927039062672,
            "value": 0.4409448818897638
          },
          {
            "number": 1,
            "time": 159.58298671875173,
            "value": 0.44881889763779526
          },
          {
            "number": 1,
            "time": 159.69040773437672,
            "value": 0.4566929133858268
          },
          {
            "number": 1,
            "time": 159.73086500000173,
            "value": 0.4645669291338583
          },
          {
            "number": 1,
            "time": 159.86339742187673,
            "value": 0.47244094488188976
          },
          {
            "number": 1,
            "time": 159.96105289062672,
            "value": 0.48031496062992124
          },
          {
            "number": 1,
            "time": 160.29308148437673,
            "value": 0.4881889763779528
          },
          {
            "number": 1,
            "time": 160.37539109375172,
            "value": 0.49606299212598426
          },
          {
            "number": 1,
            "time": 160.68928367187672,
            "value": 0.5039370078740157
          },
          {
            "number": 1,
            "time": 160.85529796875173,
            "value": 0.5118110236220472
          },
          {
            "number": 1,
            "time": 161.11059726562672,
            "value": 0.5039370078740157
          },
          {
            "number": 1,
            "time": 161.14128898437673,
            "value": 0.5118110236220472
          },
          {
            "number": 1,
            "time": 161.33241468750174,
            "value": 0.5196850393700787
          },
          {
            "number": 1,
            "time": 161.38263750000175,
            "value": 0.5118110236220472
          },
          {
            "number": 1,
            "time": 161.71327101562676,
            "value": 0.5196850393700787
          },
          {
            "number": 1,
            "time": 161.77883968750177,
            "value": 0.5275590551181102
          },
          {
            "number": 1,
            "time": 162.04250945312677,
            "value": 0.5354330708661418
          },
          {
            "number": 1,
            "time": 162.10807812500178,
            "value": 0.5275590551181102
          },
          {
            "number": 1,
            "time": 162.1666714062518,
            "value": 0.5354330708661418
          },
          {
            "number": 1,
            "time": 162.3145496875018,
            "value": 0.5275590551181102
          },
          {
            "number": 1,
            "time": 162.4122051562518,
            "value": 0.5196850393700787
          },
          {
            "number": 1,
            "time": 162.4205756250018,
            "value": 0.5118110236220472
          },
          {
            "number": 1,
            "time": 162.4233657812518,
            "value": 0.5039370078740157
          },
          {
            "number": 1,
            "time": 162.4303411718768,
            "value": 0.49606299212598426
          },
          {
            "number": 1,
            "time": 162.4373165625018,
            "value": 0.4881889763779528
          },
          {
            "number": 1,
            "time": 162.4442919531268,
            "value": 0.48031496062992124
          },
          {
            "number": 1,
            "time": 162.4456870312518,
            "value": 0.47244094488188976
          },
          {
            "number": 1,
            "time": 162.4540575000018,
            "value": 0.4566929133858268
          },
          {
            "number": 1,
            "time": 162.4540575000018,
            "value": 0.4645669291338583
          },
          {
            "number": 1,
            "time": 162.4624279687518,
            "value": 0.44881889763779526
          },
          {
            "number": 1,
            "time": 162.4707984375018,
            "value": 0.4409448818897638
          },
          {
            "number": 1,
            "time": 162.4791689062518,
            "value": 0.4330708661417323
          },
          {
            "number": 1,
            "time": 162.4805639843768,
            "value": 0.4251968503937008
          },
          {
            "number": 1,
            "time": 162.4861442968768,
            "value": 0.41732283464566927
          },
          {
            "number": 1,
            "time": 162.4945147656268,
            "value": 0.4094488188976378
          },
          {
            "number": 1,
            "time": 162.5042803125018,
            "value": 0.3937007874015748
          },
          {
            "number": 1,
            "time": 162.5042803125018,
            "value": 0.4015748031496063
          },
          {
            "number": 1,
            "time": 162.5126507812518,
            "value": 0.3779527559055118
          },
          {
            "number": 1,
            "time": 162.5126507812518,
            "value": 0.3858267716535433
          },
          {
            "number": 1,
            "time": 162.5182310937518,
            "value": 0.3700787401574803
          },
          {
            "number": 1,
            "time": 162.5293917187518,
            "value": 0.3543307086614173
          },
          {
            "number": 1,
            "time": 162.5293917187518,
            "value": 0.36220472440944884
          },
          {
            "number": 1,
            "time": 162.5391572656268,
            "value": 0.3464566929133858
          },
          {
            "number": 1,
            "time": 162.5461326562518,
            "value": 0.33858267716535434
          },
          {
            "number": 1,
            "time": 162.55310804687682,
            "value": 0.33070866141732286
          },
          {
            "number": 1,
            "time": 162.56008343750182,
            "value": 0.3228346456692913
          },
          {
            "number": 1,
            "time": 162.56147851562682,
            "value": 0.30708661417322836
          },
          {
            "number": 1,
            "time": 162.56845390625182,
            "value": 0.2992125984251969
          },
          {
            "number": 1,
            "time": 162.57682437500182,
            "value": 0.29133858267716534
          },
          {
            "number": 1,
            "time": 162.57821945312682,
            "value": 0.28346456692913385
          },
          {
            "number": 1,
            "time": 162.58658992187682,
            "value": 0.2755905511811024
          },
          {
            "number": 1,
            "time": 162.58938007812682,
            "value": 0.2677165354330709
          },
          {
            "number": 1,
            "time": 162.59217023437682,
            "value": 0.25984251968503935
          },
          {
            "number": 1,
            "time": 162.59635546875182,
            "value": 0.25196850393700787
          },
          {
            "number": 1,
            "time": 162.60333085937683,
            "value": 0.2440944881889764
          },
          {
            "number": 1,
            "time": 162.61030625000183,
            "value": 0.23622047244094488
          },
          {
            "number": 1,
            "time": 162.66331921875184,
            "value": 0.2283464566929134
          },
          {
            "number": 1,
            "time": 162.66889953125184,
            "value": 0.2125984251968504
          },
          {
            "number": 1,
            "time": 162.66889953125184,
            "value": 0.2204724409448819
          },
          {
            "number": 1,
            "time": 162.68703554687684,
            "value": 0.1968503937007874
          },
          {
            "number": 1,
            "time": 162.68703554687684,
            "value": 0.2047244094488189
          },
          {
            "number": 1,
            "time": 162.69540601562684,
            "value": 0.1889763779527559
          },
          {
            "number": 1,
            "time": 162.70238140625185,
            "value": 0.1732283464566929
          },
          {
            "number": 1,
            "time": 162.70238140625185,
            "value": 0.18110236220472442
          },
          {
            "number": 1,
            "time": 162.71214695312685,
            "value": 0.16535433070866143
          },
          {
            "number": 1,
            "time": 162.72051742187685,
            "value": 0.15748031496062992
          },
          {
            "number": 1,
            "time": 162.76655500000186,
            "value": 0.14960629921259844
          },
          {
            "number": 1,
            "time": 162.76795007812686,
            "value": 0.12598425196850394
          },
          {
            "number": 1,
            "time": 162.76795007812686,
            "value": 0.13385826771653545
          },
          {
            "number": 1,
            "time": 162.78469101562686,
            "value": 0.09448818897637795
          },
          {
            "number": 1,
            "time": 162.78469101562686,
            "value": 0.11023622047244094
          },
          {
            "number": 1,
            "time": 162.79306148437686,
            "value": 0.07874015748031496
          },
          {
            "number": 1,
            "time": 162.79445656250186,
            "value": 0.07086614173228346
          },
          {
            "number": 1,
            "time": 162.80003687500187,
            "value": 0.06299212598425197
          },
          {
            "number": 1,
            "time": 162.80840734375187,
            "value": 0.05511811023622047
          },
          {
            "number": 1,
            "time": 162.80980242187687,
            "value": 0.047244094488188976
          },
          {
            "number": 1,
            "time": 162.81817289062687,
            "value": 0.03937007874015748
          },
          {
            "number": 1,
            "time": 162.82514828125187,
            "value": 0.031496062992125984
          },
          {
            "number": 1,
            "time": 162.89211203125188,
            "value": 0.023622047244094488
          },
          {
            "number": 1,
            "time": 162.90048250000189,
            "value": 0.015748031496062992
          },
          {
            "number": 1,
            "time": 162.9088529687519,
            "value": 0.007874015748031496
          },
          {
            "number": 1,
            "time": 162.9172234375019,
            "value": 0
          }
        ],
        "2": [
          {
            "number": 2,
            "time": 1.7857,
            "value": 0
          }
        ],
        "7": [
          {
            "number": 7,
            "time": 1.2388293750000001,
            "value": 1
          }
        ],
        "10": [
          {
            "number": 10,
            "time": 1.305793125,
            "value": 0.5039370078740157
          }
        ],
        "11": [
          {
            "number": 11,
            "time": 49.84056109375026,
            "value": 0.9448818897637795
          },
          {
            "number": 11,
            "time": 50.35394984375026,
            "value": 0.8661417322834646
          },
          {
            "number": 11,
            "time": 50.911981093750256,
            "value": 0.7874015748031497
          },
          {
            "number": 11,
            "time": 51.44769109375026,
            "value": 0.7086614173228346
          },
          {
            "number": 11,
            "time": 51.93875859375026,
            "value": 0.6299212598425197
          },
          {
            "number": 11,
            "time": 52.385183593750256,
            "value": 0.47244094488188976
          },
          {
            "number": 11,
            "time": 52.74232359375026,
            "value": 0.31496062992125984
          },
          {
            "number": 11,
            "time": 53.010178593750254,
            "value": 0.15748031496062992
          },
          {
            "number": 11,
            "time": 53.52356734375026,
            "value": 1
          },
          {
            "number": 11,
            "time": 163.42224171875188,
            "value": 0.9448818897637795
          },
          {
            "number": 11,
            "time": 163.93563046875187,
            "value": 0.8661417322834646
          },
          {
            "number": 11,
            "time": 164.49366171875187,
            "value": 0.7874015748031497
          },
          {
            "number": 11,
            "time": 165.02937171875186,
            "value": 0.7086614173228346
          },
          {
            "number": 11,
            "time": 165.52043921875187,
            "value": 0.6299212598425197
          },
          {
            "number": 11,
            "time": 165.96686421875188,
            "value": 0.47244094488188976
          },
          {
            "number": 11,
            "time": 166.32400421875187,
            "value": 0.31496062992125984
          },
          {
            "number": 11,
            "time": 166.59185921875186,
            "value": 0.15748031496062992
          },
          {
            "number": 11,
            "time": 166.91551734375187,
            "value": 1
          }
        ],
        "32": [
          {
            "number": 32,
            "time": 1.1718656250000001,
            "value": 0
          }
        ],
        "84": [
          {
            "number": 84,
            "time": 82.7839359375003,
            "value": 0.5196850393700787
          },
          {
            "number": 84,
            "time": 97.32065000000047,
            "value": 0.4881889763779528
          }
        ],
        "91": [
          {
            "number": 91,
            "time": 1.5401662500000002,
            "value": 1
          }
        ],
        "93": [
          {
            "number": 93,
            "time": 1.6740937500000002,
            "value": 0
          }
        ],
        "121": [
          {
            "number": 121,
            "time": 0.9040106250000001,
            "value": 0
          }
        ]
      },
      "id": 6,
      "name": "Lead 1",
      "instrumentNumber": 30,
      "instrument": "distortion guitar",
      "instrumentFamily": "guitar",
      "channelNumber": 5,
      "isPercussion": false
    },
    {
      "startTime": 38.57112000000001,
      "duration": 167.00759250000104,
      "length": 34,
      "notes": [
        {
          "name": "C5",
          "midi": 72,
          "time": 38.57112000000001,
          "velocity": 0.9212598425196851,
          "duration": 1.0714200000000034
        },
        {
          "name": "B4",
          "midi": 71,
          "time": 39.64254000000001,
          "velocity": 1,
          "duration": 1.0714200000000247
        },
        {
          "name": "A4",
          "midi": 69,
          "time": 40.713960000000036,
          "velocity": 0.9921259842519685,
          "duration": 1.0407282812499972
        },
        {
          "name": "E5",
          "midi": 76,
          "time": 41.78538000000003,
          "velocity": 0.7637795275590551,
          "duration": 0.2678549999999973
        },
        {
          "name": "D5",
          "midi": 74,
          "time": 42.05323500000003,
          "velocity": 0.7795275590551181,
          "duration": 0.2678549999999973
        },
        {
          "name": "C5",
          "midi": 72,
          "time": 42.32109000000003,
          "velocity": 0.7874015748031497,
          "duration": 0.5315247656250222
        },
        {
          "name": "D4",
          "midi": 62,
          "time": 86.51716500000005,
          "velocity": 0.8582677165354331,
          "duration": 0.2678549999999973
        },
        {
          "name": "B4",
          "midi": 71,
          "time": 86.78502000000005,
          "velocity": 0.8582677165354331,
          "duration": 0.276225468749999
        },
        {
          "name": "A4",
          "midi": 69,
          "time": 87.05287500000004,
          "velocity": 0.8582677165354331,
          "duration": 0.2678550000000257
        },
        {
          "name": "G4",
          "midi": 67,
          "time": 87.32073000000007,
          "velocity": 0.8582677165354331,
          "duration": 0.2678549999999973
        },
        {
          "name": "F#4",
          "midi": 66,
          "time": 87.58858500000007,
          "velocity": 0.8582677165354331,
          "duration": 0.2678549999999973
        },
        {
          "name": "G4",
          "midi": 67,
          "time": 87.85644000000006,
          "velocity": 0.7952755905511811,
          "duration": 0.2678550000000115
        },
        {
          "name": "G4",
          "midi": 67,
          "time": 88.12429500000007,
          "velocity": 0.8582677165354331,
          "duration": 0.2678549999999973
        },
        {
          "name": "F#4",
          "midi": 66,
          "time": 88.39215000000007,
          "velocity": 0.8582677165354331,
          "duration": 0.2678549999999973
        },
        {
          "name": "E4",
          "midi": 64,
          "time": 88.66000500000007,
          "velocity": 0.8582677165354331,
          "duration": 0.5357099999999946
        },
        {
          "name": "C#4",
          "midi": 61,
          "time": 89.19571500000006,
          "velocity": 0.8582677165354331,
          "duration": 0.5357099999999946
        },
        {
          "name": "G4",
          "midi": 67,
          "time": 89.73142500000006,
          "velocity": 0.8582677165354331,
          "duration": 0.2678549999999973
        },
        {
          "name": "D5",
          "midi": 74,
          "time": 92.14212000000006,
          "velocity": 0.8582677165354331,
          "duration": 1.0714200000000744
        },
        {
          "name": "C#5",
          "midi": 73,
          "time": 93.21354000000014,
          "velocity": 0.8582677165354331,
          "duration": 0.2678549999999973
        },
        {
          "name": "B4",
          "midi": 71,
          "time": 93.48139500000013,
          "velocity": 0.8582677165354331,
          "duration": 0.2678549999999973
        },
        {
          "name": "A4",
          "midi": 69,
          "time": 93.74925000000013,
          "velocity": 0.8582677165354331,
          "duration": 0.2678550000000115
        },
        {
          "name": "G4",
          "midi": 67,
          "time": 94.01710500000014,
          "velocity": 0.8582677165354331,
          "duration": 0.2678549999999973
        },
        {
          "name": "F#5",
          "midi": 78,
          "time": 99.10635000000013,
          "velocity": 0.8582677165354331,
          "duration": 0.13392749999999864
        },
        {
          "name": "E5",
          "midi": 76,
          "time": 99.24027750000013,
          "velocity": 0.8582677165354331,
          "duration": 0.13392749999999864
        },
        {
          "name": "D5",
          "midi": 74,
          "time": 99.37420500000013,
          "velocity": 0.8582677165354331,
          "duration": 0.2678550000000115
        },
        {
          "name": "D5",
          "midi": 74,
          "time": 99.64206000000014,
          "velocity": 0.8582677165354331,
          "duration": 1.0714200000000886
        },
        {
          "name": "E5",
          "midi": 76,
          "time": 149.99880000000024,
          "velocity": 0.905511811023622,
          "duration": 1.0714200000001597
        },
        {
          "name": "D5",
          "midi": 74,
          "time": 151.0702200000004,
          "velocity": 0.9212598425196851,
          "duration": 1.0714199999999892
        },
        {
          "name": "C5",
          "midi": 72,
          "time": 152.1416400000004,
          "velocity": 0.9212598425196851,
          "duration": 1.8749850000001516
        },
        {
          "name": "C5",
          "midi": 72,
          "time": 154.01662500000054,
          "velocity": 0.9606299212598425,
          "duration": 1.339275000000157
        },
        {
          "name": "E5",
          "midi": 76,
          "time": 155.3559000000007,
          "velocity": 0.9763779527559056,
          "duration": 0.2678549999999973
        },
        {
          "name": "D5",
          "midi": 74,
          "time": 155.6237550000007,
          "velocity": 0.9763779527559056,
          "duration": 0.2678549999999973
        },
        {
          "name": "C5",
          "midi": 72,
          "time": 155.8916100000007,
          "velocity": 0.9606299212598425,
          "duration": 0.5357099999999946
        },
        {
          "name": "B4",
          "midi": 71,
          "time": 156.4273200000007,
          "velocity": 0.952755905511811,
          "duration": 10.580272500000348
        }
      ],
      "controlChanges": {
        "1": [
          {
            "number": 1,
            "time": 1.4062387500000002,
            "value": 0
          },
          {
            "number": 1,
            "time": 92.57319914062506,
            "value": 0.007874015748031496
          },
          {
            "number": 1,
            "time": 92.58156960937507,
            "value": 0.015748031496062992
          },
          {
            "number": 1,
            "time": 92.58296468750007,
            "value": 0.031496062992125984
          },
          {
            "number": 1,
            "time": 92.58854500000007,
            "value": 0.05511811023622047
          },
          {
            "number": 1,
            "time": 92.59133515625007,
            "value": 0.07086614173228346
          },
          {
            "number": 1,
            "time": 92.59691546875007,
            "value": 0.09448818897637795
          },
          {
            "number": 1,
            "time": 92.59831054687507,
            "value": 0.11023622047244094
          },
          {
            "number": 1,
            "time": 92.60528593750007,
            "value": 0.14173228346456693
          },
          {
            "number": 1,
            "time": 92.60528593750007,
            "value": 0.12598425196850394
          },
          {
            "number": 1,
            "time": 92.61365640625007,
            "value": 0.1732283464566929
          },
          {
            "number": 1,
            "time": 92.61365640625007,
            "value": 0.15748031496062992
          },
          {
            "number": 1,
            "time": 92.62063179687507,
            "value": 0.18110236220472442
          },
          {
            "number": 1,
            "time": 92.62202687500007,
            "value": 0.1968503937007874
          },
          {
            "number": 1,
            "time": 92.63039734375008,
            "value": 0.2283464566929134
          },
          {
            "number": 1,
            "time": 92.63039734375008,
            "value": 0.2125984251968504
          },
          {
            "number": 1,
            "time": 92.63876781250008,
            "value": 0.25196850393700787
          },
          {
            "number": 1,
            "time": 92.63876781250008,
            "value": 0.2440944881889764
          },
          {
            "number": 1,
            "time": 92.64434812500008,
            "value": 0.2677165354330709
          },
          {
            "number": 1,
            "time": 92.64574320312508,
            "value": 0.28346456692913385
          },
          {
            "number": 1,
            "time": 92.65550875000008,
            "value": 0.30708661417322836
          },
          {
            "number": 1,
            "time": 92.65550875000008,
            "value": 0.29133858267716534
          },
          {
            "number": 1,
            "time": 92.66248414062508,
            "value": 0.31496062992125984
          },
          {
            "number": 1,
            "time": 92.66387921875008,
            "value": 0.33070866141732286
          },
          {
            "number": 1,
            "time": 92.67085460937508,
            "value": 0.3464566929133858
          },
          {
            "number": 1,
            "time": 92.67224968750008,
            "value": 0.36220472440944884
          },
          {
            "number": 1,
            "time": 92.68062015625009,
            "value": 0.3858267716535433
          },
          {
            "number": 1,
            "time": 92.68062015625009,
            "value": 0.3700787401574803
          },
          {
            "number": 1,
            "time": 92.68899062500009,
            "value": 0.41732283464566927
          },
          {
            "number": 1,
            "time": 92.68899062500009,
            "value": 0.4015748031496063
          },
          {
            "number": 1,
            "time": 92.69736109375009,
            "value": 0.4409448818897638
          },
          {
            "number": 1,
            "time": 92.69736109375009,
            "value": 0.4330708661417323
          },
          {
            "number": 1,
            "time": 92.70433648437509,
            "value": 0.4566929133858268
          },
          {
            "number": 1,
            "time": 92.70712664062509,
            "value": 0.4645669291338583
          },
          {
            "number": 1,
            "time": 92.71270695312509,
            "value": 0.49606299212598426
          },
          {
            "number": 1,
            "time": 92.7154971093751,
            "value": 0.5196850393700787
          },
          {
            "number": 1,
            "time": 92.7210774218751,
            "value": 0.5354330708661418
          },
          {
            "number": 1,
            "time": 92.7224725000001,
            "value": 0.5511811023622047
          },
          {
            "number": 1,
            "time": 92.7294478906251,
            "value": 0.5669291338582677
          },
          {
            "number": 1,
            "time": 92.7308429687501,
            "value": 0.5826771653543307
          },
          {
            "number": 1,
            "time": 92.7392134375001,
            "value": 0.6062992125984252
          },
          {
            "number": 1,
            "time": 92.7392134375001,
            "value": 0.5984251968503937
          },
          {
            "number": 1,
            "time": 92.7447937500001,
            "value": 0.6220472440944882
          },
          {
            "number": 1,
            "time": 92.7461888281251,
            "value": 0.6377952755905512
          },
          {
            "number": 1,
            "time": 92.7545592968751,
            "value": 0.6456692913385826
          },
          {
            "number": 1,
            "time": 92.7573494531251,
            "value": 0.6614173228346457
          },
          {
            "number": 1,
            "time": 92.7629297656251,
            "value": 0.6692913385826772
          },
          {
            "number": 1,
            "time": 92.7643248437501,
            "value": 0.6771653543307087
          },
          {
            "number": 1,
            "time": 92.7713002343751,
            "value": 0.6850393700787402
          },
          {
            "number": 1,
            "time": 92.7726953125001,
            "value": 0.7007874015748031
          },
          {
            "number": 1,
            "time": 92.7796707031251,
            "value": 0.7480314960629921
          },
          {
            "number": 1,
            "time": 92.7796707031251,
            "value": 0.7322834645669292
          },
          {
            "number": 1,
            "time": 92.78664609375011,
            "value": 0.7637795275590551
          },
          {
            "number": 1,
            "time": 92.78804117187511,
            "value": 0.7795275590551181
          },
          {
            "number": 1,
            "time": 92.79501656250011,
            "value": 0.7952755905511811
          },
          {
            "number": 1,
            "time": 92.79641164062511,
            "value": 0.8110236220472441
          },
          {
            "number": 1,
            "time": 92.80338703125011,
            "value": 0.8582677165354331
          },
          {
            "number": 1,
            "time": 92.80338703125011,
            "value": 0.84251968503937
          },
          {
            "number": 1,
            "time": 92.81315257812511,
            "value": 0.889763779527559
          },
          {
            "number": 1,
            "time": 92.81315257812511,
            "value": 0.8740157480314961
          },
          {
            "number": 1,
            "time": 92.82152304687511,
            "value": 0.9212598425196851
          },
          {
            "number": 1,
            "time": 92.82152304687511,
            "value": 0.905511811023622
          },
          {
            "number": 1,
            "time": 92.82849843750012,
            "value": 0.937007874015748
          },
          {
            "number": 1,
            "time": 92.83128859375012,
            "value": 0.952755905511811
          },
          {
            "number": 1,
            "time": 92.84523937500012,
            "value": 0.984251968503937
          },
          {
            "number": 1,
            "time": 92.84523937500012,
            "value": 0.968503937007874
          },
          {
            "number": 1,
            "time": 92.85500492187512,
            "value": 1
          },
          {
            "number": 1,
            "time": 93.06845187500012,
            "value": 0.8582677165354331
          },
          {
            "number": 1,
            "time": 93.06845187500012,
            "value": 0.937007874015748
          },
          {
            "number": 1,
            "time": 93.07682234375012,
            "value": 0.7165354330708661
          },
          {
            "number": 1,
            "time": 93.07961250000012,
            "value": 0.6299212598425197
          },
          {
            "number": 1,
            "time": 93.08379773437512,
            "value": 0.5354330708661418
          },
          {
            "number": 1,
            "time": 93.08658789062513,
            "value": 0.4330708661417323
          },
          {
            "number": 1,
            "time": 93.09216820312513,
            "value": 0.31496062992125984
          },
          {
            "number": 1,
            "time": 93.09495835937513,
            "value": 0.2047244094488189
          },
          {
            "number": 1,
            "time": 93.10751406250013,
            "value": 0.11023622047244094
          },
          {
            "number": 1,
            "time": 93.10890914062513,
            "value": 0
          },
          {
            "number": 1,
            "time": 99.88759375000015,
            "value": 0.015748031496062992
          },
          {
            "number": 1,
            "time": 99.88759375000015,
            "value": 0.007874015748031496
          },
          {
            "number": 1,
            "time": 99.89317406250015,
            "value": 0.023622047244094488
          },
          {
            "number": 1,
            "time": 99.89456914062515,
            "value": 0.031496062992125984
          },
          {
            "number": 1,
            "time": 99.90293960937515,
            "value": 0.05511811023622047
          },
          {
            "number": 1,
            "time": 99.90293960937515,
            "value": 0.03937007874015748
          },
          {
            "number": 1,
            "time": 99.91131007812515,
            "value": 0.06299212598425197
          },
          {
            "number": 1,
            "time": 99.91270515625015,
            "value": 0.07874015748031496
          },
          {
            "number": 1,
            "time": 99.91828546875016,
            "value": 0.08661417322834646
          },
          {
            "number": 1,
            "time": 99.92107562500016,
            "value": 0.10236220472440945
          },
          {
            "number": 1,
            "time": 99.92665593750016,
            "value": 0.12598425196850394
          },
          {
            "number": 1,
            "time": 99.92665593750016,
            "value": 0.11023622047244094
          },
          {
            "number": 1,
            "time": 99.93502640625016,
            "value": 0.13385826771653545
          },
          {
            "number": 1,
            "time": 99.93642148437516,
            "value": 0.14960629921259844
          },
          {
            "number": 1,
            "time": 99.94339687500016,
            "value": 0.18110236220472442
          },
          {
            "number": 1,
            "time": 99.94339687500016,
            "value": 0.16535433070866143
          },
          {
            "number": 1,
            "time": 99.95037226562516,
            "value": 0.1889763779527559
          },
          {
            "number": 1,
            "time": 99.95176734375016,
            "value": 0.2047244094488189
          },
          {
            "number": 1,
            "time": 99.96153289062516,
            "value": 0.23622047244094488
          },
          {
            "number": 1,
            "time": 99.96153289062516,
            "value": 0.2204724409448819
          },
          {
            "number": 1,
            "time": 99.96711320312517,
            "value": 0.2440944881889764
          },
          {
            "number": 1,
            "time": 99.96850828125017,
            "value": 0.25984251968503935
          },
          {
            "number": 1,
            "time": 99.97687875000017,
            "value": 0.2755905511811024
          },
          {
            "number": 1,
            "time": 99.97687875000017,
            "value": 0.2677165354330709
          },
          {
            "number": 1,
            "time": 99.98524921875017,
            "value": 0.28346456692913385
          },
          {
            "number": 1,
            "time": 99.99222460937517,
            "value": 0.29133858267716534
          },
          {
            "number": 1,
            "time": 99.99501476562517,
            "value": 0.2992125984251969
          },
          {
            "number": 1,
            "time": 100.00199015625017,
            "value": 0.31496062992125984
          },
          {
            "number": 1,
            "time": 100.00199015625017,
            "value": 0.30708661417322836
          },
          {
            "number": 1,
            "time": 100.00896554687517,
            "value": 0.3228346456692913
          },
          {
            "number": 1,
            "time": 100.01036062500017,
            "value": 0.33070866141732286
          },
          {
            "number": 1,
            "time": 100.01873109375018,
            "value": 0.3464566929133858
          },
          {
            "number": 1,
            "time": 100.01873109375018,
            "value": 0.33858267716535434
          },
          {
            "number": 1,
            "time": 100.02710156250018,
            "value": 0.36220472440944884
          },
          {
            "number": 1,
            "time": 100.02710156250018,
            "value": 0.3543307086614173
          },
          {
            "number": 1,
            "time": 100.03547203125018,
            "value": 0.3779527559055118
          },
          {
            "number": 1,
            "time": 100.03547203125018,
            "value": 0.3700787401574803
          },
          {
            "number": 1,
            "time": 100.04244742187518,
            "value": 0.3858267716535433
          },
          {
            "number": 1,
            "time": 100.05081789062518,
            "value": 0.3937007874015748
          },
          {
            "number": 1,
            "time": 100.05918835937518,
            "value": 0.4015748031496063
          },
          {
            "number": 1,
            "time": 100.06058343750018,
            "value": 0.4094488188976378
          },
          {
            "number": 1,
            "time": 100.06755882812519,
            "value": 0.4251968503937008
          },
          {
            "number": 1,
            "time": 100.06755882812519,
            "value": 0.41732283464566927
          },
          {
            "number": 1,
            "time": 100.07732437500019,
            "value": 0.44881889763779526
          },
          {
            "number": 1,
            "time": 100.07732437500019,
            "value": 0.4409448818897638
          },
          {
            "number": 1,
            "time": 100.08429976562519,
            "value": 0.4645669291338583
          },
          {
            "number": 1,
            "time": 100.08429976562519,
            "value": 0.4566929133858268
          },
          {
            "number": 1,
            "time": 100.09267023437519,
            "value": 0.49606299212598426
          },
          {
            "number": 1,
            "time": 100.09267023437519,
            "value": 0.48031496062992124
          },
          {
            "number": 1,
            "time": 100.1010407031252,
            "value": 0.5039370078740157
          },
          {
            "number": 1,
            "time": 100.1024357812502,
            "value": 0.5118110236220472
          },
          {
            "number": 1,
            "time": 100.1094111718752,
            "value": 0.5196850393700787
          },
          {
            "number": 1,
            "time": 100.1108062500002,
            "value": 0.5354330708661418
          },
          {
            "number": 1,
            "time": 100.1163865625002,
            "value": 0.5433070866141733
          },
          {
            "number": 1,
            "time": 100.1191767187502,
            "value": 0.5511811023622047
          },
          {
            "number": 1,
            "time": 100.1247570312502,
            "value": 0.5590551181102362
          },
          {
            "number": 1,
            "time": 100.1275471875002,
            "value": 0.5669291338582677
          },
          {
            "number": 1,
            "time": 100.1345225781252,
            "value": 0.5748031496062992
          },
          {
            "number": 1,
            "time": 100.1428930468752,
            "value": 0.5905511811023622
          },
          {
            "number": 1,
            "time": 100.1428930468752,
            "value": 0.5826771653543307
          },
          {
            "number": 1,
            "time": 100.1512635156252,
            "value": 0.6062992125984252
          },
          {
            "number": 1,
            "time": 100.1512635156252,
            "value": 0.5984251968503937
          },
          {
            "number": 1,
            "time": 100.1582389062502,
            "value": 0.6220472440944882
          },
          {
            "number": 1,
            "time": 100.1610290625002,
            "value": 0.6299212598425197
          },
          {
            "number": 1,
            "time": 100.1666093750002,
            "value": 0.6377952755905512
          },
          {
            "number": 1,
            "time": 100.1693995312502,
            "value": 0.6456692913385826
          },
          {
            "number": 1,
            "time": 100.17497984375021,
            "value": 0.6535433070866141
          },
          {
            "number": 1,
            "time": 100.18335031250021,
            "value": 0.6771653543307087
          },
          {
            "number": 1,
            "time": 100.18335031250021,
            "value": 0.6692913385826772
          },
          {
            "number": 1,
            "time": 100.19311585937521,
            "value": 0.6850393700787402
          },
          {
            "number": 1,
            "time": 100.20148632812521,
            "value": 0.7322834645669292
          },
          {
            "number": 1,
            "time": 100.20148632812521,
            "value": 0.7165354330708661
          },
          {
            "number": 1,
            "time": 100.21125187500022,
            "value": 0.7480314960629921
          },
          {
            "number": 1,
            "time": 100.21683218750022,
            "value": 0.7637795275590551
          },
          {
            "number": 1,
            "time": 100.21822726562522,
            "value": 0.7795275590551181
          },
          {
            "number": 1,
            "time": 100.22520265625022,
            "value": 0.7952755905511811
          },
          {
            "number": 1,
            "time": 100.23357312500022,
            "value": 0.8110236220472441
          },
          {
            "number": 1,
            "time": 100.23496820312522,
            "value": 0.8267716535433071
          },
          {
            "number": 1,
            "time": 100.24054851562522,
            "value": 0.84251968503937
          },
          {
            "number": 1,
            "time": 100.24194359375022,
            "value": 0.8582677165354331
          },
          {
            "number": 1,
            "time": 100.24891898437522,
            "value": 0.8740157480314961
          },
          {
            "number": 1,
            "time": 100.25868453125022,
            "value": 0.9212598425196851
          },
          {
            "number": 1,
            "time": 100.25868453125022,
            "value": 0.905511811023622
          },
          {
            "number": 1,
            "time": 100.26705500000023,
            "value": 0.937007874015748
          },
          {
            "number": 1,
            "time": 100.27542546875023,
            "value": 0.968503937007874
          },
          {
            "number": 1,
            "time": 100.27542546875023,
            "value": 0.952755905511811
          },
          {
            "number": 1,
            "time": 100.28240085937523,
            "value": 1
          },
          {
            "number": 1,
            "time": 100.28240085937523,
            "value": 0.984251968503937
          },
          {
            "number": 1,
            "time": 100.60745406250022,
            "value": 0.984251968503937
          },
          {
            "number": 1,
            "time": 100.61303437500023,
            "value": 0.8582677165354331
          },
          {
            "number": 1,
            "time": 100.61442945312523,
            "value": 0
          },
          {
            "number": 1,
            "time": 150.16341921875025,
            "value": 0.007874015748031496
          },
          {
            "number": 1,
            "time": 150.16620937500025,
            "value": 0.015748031496062992
          },
          {
            "number": 1,
            "time": 150.17318476562525,
            "value": 0.031496062992125984
          },
          {
            "number": 1,
            "time": 150.17318476562525,
            "value": 0.023622047244094488
          },
          {
            "number": 1,
            "time": 150.18016015625025,
            "value": 0.047244094488188976
          },
          {
            "number": 1,
            "time": 150.18016015625025,
            "value": 0.03937007874015748
          },
          {
            "number": 1,
            "time": 150.18992570312525,
            "value": 0.06299212598425197
          },
          {
            "number": 1,
            "time": 150.18992570312525,
            "value": 0.05511811023622047
          },
          {
            "number": 1,
            "time": 150.19829617187526,
            "value": 0.07874015748031496
          },
          {
            "number": 1,
            "time": 150.19829617187526,
            "value": 0.07086614173228346
          },
          {
            "number": 1,
            "time": 150.20527156250026,
            "value": 0.09448818897637795
          },
          {
            "number": 1,
            "time": 150.20527156250026,
            "value": 0.08661417322834646
          },
          {
            "number": 1,
            "time": 150.21364203125026,
            "value": 0.10236220472440945
          },
          {
            "number": 1,
            "time": 150.21643218750026,
            "value": 0.11023622047244094
          },
          {
            "number": 1,
            "time": 150.22201250000026,
            "value": 0.11811023622047244
          },
          {
            "number": 1,
            "time": 150.22340757812526,
            "value": 0.12598425196850394
          },
          {
            "number": 1,
            "time": 150.23038296875026,
            "value": 0.13385826771653545
          },
          {
            "number": 1,
            "time": 150.23177804687526,
            "value": 0.14173228346456693
          },
          {
            "number": 1,
            "time": 150.23735835937526,
            "value": 0.14960629921259844
          },
          {
            "number": 1,
            "time": 150.24014851562526,
            "value": 0.15748031496062992
          },
          {
            "number": 1,
            "time": 150.24851898437527,
            "value": 0.16535433070866143
          },
          {
            "number": 1,
            "time": 150.25549437500027,
            "value": 0.1732283464566929
          },
          {
            "number": 1,
            "time": 150.26386484375027,
            "value": 0.1889763779527559
          },
          {
            "number": 1,
            "time": 150.26386484375027,
            "value": 0.18110236220472442
          },
          {
            "number": 1,
            "time": 150.27223531250027,
            "value": 0.2125984251968504
          },
          {
            "number": 1,
            "time": 150.27223531250027,
            "value": 0.2047244094488189
          },
          {
            "number": 1,
            "time": 150.27921070312527,
            "value": 0.2204724409448819
          },
          {
            "number": 1,
            "time": 150.28200085937527,
            "value": 0.2283464566929134
          },
          {
            "number": 1,
            "time": 150.28758117187527,
            "value": 0.25196850393700787
          },
          {
            "number": 1,
            "time": 150.28758117187527,
            "value": 0.2440944881889764
          },
          {
            "number": 1,
            "time": 150.29595164062528,
            "value": 0.2755905511811024
          },
          {
            "number": 1,
            "time": 150.29595164062528,
            "value": 0.25984251968503935
          },
          {
            "number": 1,
            "time": 150.30571718750028,
            "value": 0.29133858267716534
          },
          {
            "number": 1,
            "time": 150.30571718750028,
            "value": 0.28346456692913385
          },
          {
            "number": 1,
            "time": 150.31408765625028,
            "value": 0.31496062992125984
          },
          {
            "number": 1,
            "time": 150.31408765625028,
            "value": 0.30708661417322836
          },
          {
            "number": 1,
            "time": 150.32245812500028,
            "value": 0.33070866141732286
          },
          {
            "number": 1,
            "time": 150.32245812500028,
            "value": 0.3228346456692913
          },
          {
            "number": 1,
            "time": 150.32943351562528,
            "value": 0.33858267716535434
          },
          {
            "number": 1,
            "time": 150.33222367187528,
            "value": 0.3464566929133858
          },
          {
            "number": 1,
            "time": 150.33780398437528,
            "value": 0.3543307086614173
          },
          {
            "number": 1,
            "time": 150.33919906250028,
            "value": 0.36220472440944884
          },
          {
            "number": 1,
            "time": 150.3461744531253,
            "value": 0.3700787401574803
          },
          {
            "number": 1,
            "time": 150.3559400000003,
            "value": 0.3858267716535433
          },
          {
            "number": 1,
            "time": 150.3559400000003,
            "value": 0.3779527559055118
          },
          {
            "number": 1,
            "time": 150.3657055468753,
            "value": 0.3937007874015748
          },
          {
            "number": 1,
            "time": 150.3712858593753,
            "value": 0.4094488188976378
          },
          {
            "number": 1,
            "time": 150.3712858593753,
            "value": 0.4015748031496063
          },
          {
            "number": 1,
            "time": 150.3796563281253,
            "value": 0.4251968503937008
          },
          {
            "number": 1,
            "time": 150.3824464843753,
            "value": 0.4330708661417323
          },
          {
            "number": 1,
            "time": 150.3880267968753,
            "value": 0.4409448818897638
          },
          {
            "number": 1,
            "time": 150.3894218750003,
            "value": 0.44881889763779526
          },
          {
            "number": 1,
            "time": 150.3963972656253,
            "value": 0.4645669291338583
          },
          {
            "number": 1,
            "time": 150.3977923437503,
            "value": 0.47244094488188976
          },
          {
            "number": 1,
            "time": 150.4033726562503,
            "value": 0.48031496062992124
          },
          {
            "number": 1,
            "time": 150.4061628125003,
            "value": 0.4881889763779528
          },
          {
            "number": 1,
            "time": 150.4117431250003,
            "value": 0.49606299212598426
          },
          {
            "number": 1,
            "time": 150.4131382031253,
            "value": 0.5039370078740157
          },
          {
            "number": 1,
            "time": 150.4201135937503,
            "value": 0.5118110236220472
          },
          {
            "number": 1,
            "time": 150.4215086718753,
            "value": 0.5196850393700787
          },
          {
            "number": 1,
            "time": 150.4284840625003,
            "value": 0.5275590551181102
          },
          {
            "number": 1,
            "time": 150.4382496093753,
            "value": 0.5433070866141733
          },
          {
            "number": 1,
            "time": 150.4382496093753,
            "value": 0.5354330708661418
          },
          {
            "number": 1,
            "time": 150.4452250000003,
            "value": 0.5511811023622047
          },
          {
            "number": 1,
            "time": 150.4535954687503,
            "value": 0.5590551181102362
          },
          {
            "number": 1,
            "time": 150.4619659375003,
            "value": 0.5669291338582677
          },
          {
            "number": 1,
            "time": 150.4703364062503,
            "value": 0.5748031496062992
          },
          {
            "number": 1,
            "time": 150.4773117968753,
            "value": 0.5826771653543307
          },
          {
            "number": 1,
            "time": 150.4787068750003,
            "value": 0.5905511811023622
          },
          {
            "number": 1,
            "time": 150.48847242187531,
            "value": 0.5984251968503937
          },
          {
            "number": 1,
            "time": 150.50521335937532,
            "value": 0.6062992125984252
          },
          {
            "number": 1,
            "time": 150.52753460937532,
            "value": 0.6141732283464567
          },
          {
            "number": 1,
            "time": 150.53730015625032,
            "value": 0.6220472440944882
          },
          {
            "number": 1,
            "time": 150.55125093750033,
            "value": 0.6299212598425197
          },
          {
            "number": 1,
            "time": 150.55264601562533,
            "value": 0.6377952755905512
          },
          {
            "number": 1,
            "time": 150.56938695312533,
            "value": 0.6456692913385826
          },
          {
            "number": 1,
            "time": 150.58752296875033,
            "value": 0.6535433070866141
          },
          {
            "number": 1,
            "time": 150.60984421875034,
            "value": 0.6614173228346457
          },
          {
            "number": 1,
            "time": 150.62798023437534,
            "value": 0.6692913385826772
          },
          {
            "number": 1,
            "time": 150.65448671875035,
            "value": 0.6771653543307087
          },
          {
            "number": 1,
            "time": 150.69354890625036,
            "value": 0.6850393700787402
          },
          {
            "number": 1,
            "time": 150.72842585937536,
            "value": 0.7007874015748031
          },
          {
            "number": 1,
            "time": 150.75214218750037,
            "value": 0.7165354330708661
          },
          {
            "number": 1,
            "time": 150.76748804687537,
            "value": 0.7322834645669292
          },
          {
            "number": 1,
            "time": 150.78422898437537,
            "value": 0.7165354330708661
          },
          {
            "number": 1,
            "time": 150.81771085937538,
            "value": 0.7007874015748031
          },
          {
            "number": 1,
            "time": 150.82747640625038,
            "value": 0.6850393700787402
          },
          {
            "number": 1,
            "time": 150.83445179687538,
            "value": 0.6771653543307087
          },
          {
            "number": 1,
            "time": 150.8414271875004,
            "value": 0.6692913385826772
          },
          {
            "number": 1,
            "time": 150.8442173437504,
            "value": 0.6614173228346457
          },
          {
            "number": 1,
            "time": 150.8497976562504,
            "value": 0.6456692913385826
          },
          {
            "number": 1,
            "time": 150.8511927343754,
            "value": 0.6299212598425197
          },
          {
            "number": 1,
            "time": 150.8595632031254,
            "value": 0.5826771653543307
          },
          {
            "number": 1,
            "time": 150.8595632031254,
            "value": 0.6062992125984252
          },
          {
            "number": 1,
            "time": 150.8679336718754,
            "value": 0.5354330708661418
          },
          {
            "number": 1,
            "time": 150.8679336718754,
            "value": 0.5590551181102362
          },
          {
            "number": 1,
            "time": 150.8763041406254,
            "value": 0.4566929133858268
          },
          {
            "number": 1,
            "time": 150.8763041406254,
            "value": 0.49606299212598426
          },
          {
            "number": 1,
            "time": 150.8832795312504,
            "value": 0.41732283464566927
          },
          {
            "number": 1,
            "time": 150.8860696875004,
            "value": 0.36220472440944884
          },
          {
            "number": 1,
            "time": 150.8916500000004,
            "value": 0.2440944881889764
          },
          {
            "number": 1,
            "time": 150.8916500000004,
            "value": 0.2992125984251969
          },
          {
            "number": 1,
            "time": 150.8986253906254,
            "value": 0.18110236220472442
          },
          {
            "number": 1,
            "time": 150.9014155468754,
            "value": 0.11023622047244094
          },
          {
            "number": 1,
            "time": 150.9083909375004,
            "value": 0.007874015748031496
          },
          {
            "number": 1,
            "time": 150.9083909375004,
            "value": 0.06299212598425197
          },
          {
            "number": 1,
            "time": 150.9153663281254,
            "value": 0
          },
          {
            "number": 1,
            "time": 152.5364471093754,
            "value": 0.007874015748031496
          },
          {
            "number": 1,
            "time": 152.5434225000004,
            "value": 0.015748031496062992
          },
          {
            "number": 1,
            "time": 152.5503978906254,
            "value": 0.023622047244094488
          },
          {
            "number": 1,
            "time": 152.5517929687504,
            "value": 0.031496062992125984
          },
          {
            "number": 1,
            "time": 152.5601634375004,
            "value": 0.047244094488188976
          },
          {
            "number": 1,
            "time": 152.5601634375004,
            "value": 0.03937007874015748
          },
          {
            "number": 1,
            "time": 152.5671388281254,
            "value": 0.05511811023622047
          },
          {
            "number": 1,
            "time": 152.5755092968754,
            "value": 0.07086614173228346
          },
          {
            "number": 1,
            "time": 152.5755092968754,
            "value": 0.06299212598425197
          },
          {
            "number": 1,
            "time": 152.5838797656254,
            "value": 0.08661417322834646
          },
          {
            "number": 1,
            "time": 152.5838797656254,
            "value": 0.07874015748031496
          },
          {
            "number": 1,
            "time": 152.5922502343754,
            "value": 0.09448818897637795
          },
          {
            "number": 1,
            "time": 152.5936453125004,
            "value": 0.11023622047244094
          },
          {
            "number": 1,
            "time": 152.5992256250004,
            "value": 0.11811023622047244
          },
          {
            "number": 1,
            "time": 152.6020157812504,
            "value": 0.12598425196850394
          },
          {
            "number": 1,
            "time": 152.6075960937504,
            "value": 0.13385826771653545
          },
          {
            "number": 1,
            "time": 152.6103862500004,
            "value": 0.14173228346456693
          },
          {
            "number": 1,
            "time": 152.6173616406254,
            "value": 0.15748031496062992
          },
          {
            "number": 1,
            "time": 152.6173616406254,
            "value": 0.14960629921259844
          },
          {
            "number": 1,
            "time": 152.6257321093754,
            "value": 0.18110236220472442
          },
          {
            "number": 1,
            "time": 152.6257321093754,
            "value": 0.16535433070866143
          },
          {
            "number": 1,
            "time": 152.6341025781254,
            "value": 0.1968503937007874
          },
          {
            "number": 1,
            "time": 152.6341025781254,
            "value": 0.1889763779527559
          },
          {
            "number": 1,
            "time": 152.6396828906254,
            "value": 0.2047244094488189
          },
          {
            "number": 1,
            "time": 152.6438681250004,
            "value": 0.2125984251968504
          },
          {
            "number": 1,
            "time": 152.6494484375004,
            "value": 0.2204724409448819
          },
          {
            "number": 1,
            "time": 152.6522385937504,
            "value": 0.2283464566929134
          },
          {
            "number": 1,
            "time": 152.6578189062504,
            "value": 0.23622047244094488
          },
          {
            "number": 1,
            "time": 152.6592139843754,
            "value": 0.25196850393700787
          },
          {
            "number": 1,
            "time": 152.6661893750004,
            "value": 0.2677165354330709
          },
          {
            "number": 1,
            "time": 152.6661893750004,
            "value": 0.25984251968503935
          },
          {
            "number": 1,
            "time": 152.67316476562542,
            "value": 0.2755905511811024
          },
          {
            "number": 1,
            "time": 152.67455984375042,
            "value": 0.28346456692913385
          },
          {
            "number": 1,
            "time": 152.68432539062542,
            "value": 0.2992125984251969
          },
          {
            "number": 1,
            "time": 152.68432539062542,
            "value": 0.29133858267716534
          },
          {
            "number": 1,
            "time": 152.69130078125042,
            "value": 0.31496062992125984
          },
          {
            "number": 1,
            "time": 152.69130078125042,
            "value": 0.30708661417322836
          },
          {
            "number": 1,
            "time": 152.69967125000042,
            "value": 0.33070866141732286
          },
          {
            "number": 1,
            "time": 152.69967125000042,
            "value": 0.3228346456692913
          },
          {
            "number": 1,
            "time": 152.70804171875042,
            "value": 0.33858267716535434
          },
          {
            "number": 1,
            "time": 152.71362203125042,
            "value": 0.3464566929133858
          },
          {
            "number": 1,
            "time": 152.71780726562542,
            "value": 0.3543307086614173
          },
          {
            "number": 1,
            "time": 152.72617773437543,
            "value": 0.36220472440944884
          },
          {
            "number": 1,
            "time": 152.73175804687543,
            "value": 0.3700787401574803
          },
          {
            "number": 1,
            "time": 152.73315312500043,
            "value": 0.3779527559055118
          },
          {
            "number": 1,
            "time": 152.74152359375043,
            "value": 0.3858267716535433
          },
          {
            "number": 1,
            "time": 152.74989406250043,
            "value": 0.3937007874015748
          },
          {
            "number": 1,
            "time": 152.75826453125043,
            "value": 0.4015748031496063
          },
          {
            "number": 1,
            "time": 152.76523992187543,
            "value": 0.4094488188976378
          },
          {
            "number": 1,
            "time": 152.76803007812543,
            "value": 0.41732283464566927
          },
          {
            "number": 1,
            "time": 152.77361039062544,
            "value": 0.4251968503937008
          },
          {
            "number": 1,
            "time": 152.77640054687544,
            "value": 0.4330708661417323
          },
          {
            "number": 1,
            "time": 152.78198085937544,
            "value": 0.4409448818897638
          },
          {
            "number": 1,
            "time": 152.78337593750044,
            "value": 0.44881889763779526
          },
          {
            "number": 1,
            "time": 152.79174640625044,
            "value": 0.4566929133858268
          },
          {
            "number": 1,
            "time": 152.80011687500044,
            "value": 0.4645669291338583
          },
          {
            "number": 1,
            "time": 152.80848734375044,
            "value": 0.48031496062992124
          },
          {
            "number": 1,
            "time": 152.80848734375044,
            "value": 0.47244094488188976
          },
          {
            "number": 1,
            "time": 152.82383320312545,
            "value": 0.4881889763779528
          },
          {
            "number": 1,
            "time": 152.82522828125045,
            "value": 0.49606299212598426
          },
          {
            "number": 1,
            "time": 152.83220367187545,
            "value": 0.5039370078740157
          },
          {
            "number": 1,
            "time": 152.83359875000045,
            "value": 0.5118110236220472
          },
          {
            "number": 1,
            "time": 152.84196921875045,
            "value": 0.5196850393700787
          },
          {
            "number": 1,
            "time": 152.84754953125045,
            "value": 0.5275590551181102
          },
          {
            "number": 1,
            "time": 152.85592000000045,
            "value": 0.5354330708661418
          },
          {
            "number": 1,
            "time": 152.86568554687545,
            "value": 0.5433070866141733
          },
          {
            "number": 1,
            "time": 152.87405601562546,
            "value": 0.5511811023622047
          },
          {
            "number": 1,
            "time": 152.88382156250046,
            "value": 0.5590551181102362
          },
          {
            "number": 1,
            "time": 152.89777234375046,
            "value": 0.5669291338582677
          },
          {
            "number": 1,
            "time": 152.89916742187546,
            "value": 0.5748031496062992
          },
          {
            "number": 1,
            "time": 152.91590835937546,
            "value": 0.5905511811023622
          },
          {
            "number": 1,
            "time": 152.91590835937546,
            "value": 0.5826771653543307
          },
          {
            "number": 1,
            "time": 152.92427882812547,
            "value": 0.5984251968503937
          },
          {
            "number": 1,
            "time": 152.93125421875047,
            "value": 0.6062992125984252
          },
          {
            "number": 1,
            "time": 152.93962468750047,
            "value": 0.6141732283464567
          },
          {
            "number": 1,
            "time": 152.94939023437547,
            "value": 0.6220472440944882
          },
          {
            "number": 1,
            "time": 152.95776070312547,
            "value": 0.6299212598425197
          },
          {
            "number": 1,
            "time": 152.97450164062548,
            "value": 0.6377952755905512
          },
          {
            "number": 1,
            "time": 152.99124257812548,
            "value": 0.6456692913385826
          },
          {
            "number": 1,
            "time": 152.99961304687548,
            "value": 0.6535433070866141
          },
          {
            "number": 1,
            "time": 153.01635398437548,
            "value": 0.6614173228346457
          },
          {
            "number": 1,
            "time": 153.0400703125005,
            "value": 0.6692913385826772
          },
          {
            "number": 1,
            "time": 153.0554161718755,
            "value": 0.6771653543307087
          },
          {
            "number": 1,
            "time": 153.0819226562505,
            "value": 0.6850393700787402
          },
          {
            "number": 1,
            "time": 153.1042439062505,
            "value": 0.7007874015748031
          },
          {
            "number": 1,
            "time": 153.1223799218755,
            "value": 0.7165354330708661
          },
          {
            "number": 1,
            "time": 153.1544667187505,
            "value": 0.7322834645669292
          },
          {
            "number": 1,
            "time": 153.19771414062552,
            "value": 0.7480314960629921
          },
          {
            "number": 1,
            "time": 153.22840585937553,
            "value": 0.7637795275590551
          },
          {
            "number": 1,
            "time": 153.25351726562553,
            "value": 0.7795275590551181
          },
          {
            "number": 1,
            "time": 153.31211054687554,
            "value": 0.7952755905511811
          },
          {
            "number": 1,
            "time": 153.38744476562553,
            "value": 0.8110236220472441
          },
          {
            "number": 1,
            "time": 153.47812484375052,
            "value": 0.8267716535433071
          },
          {
            "number": 1,
            "time": 153.59391632812552,
            "value": 0.8110236220472441
          },
          {
            "number": 1,
            "time": 153.60228679687552,
            "value": 0.7952755905511811
          },
          {
            "number": 1,
            "time": 153.60926218750052,
            "value": 0.7637795275590551
          },
          {
            "number": 1,
            "time": 153.60926218750052,
            "value": 0.7795275590551181
          },
          {
            "number": 1,
            "time": 153.61763265625052,
            "value": 0.7007874015748031
          },
          {
            "number": 1,
            "time": 153.61763265625052,
            "value": 0.7322834645669292
          },
          {
            "number": 1,
            "time": 153.62600312500052,
            "value": 0.6377952755905512
          },
          {
            "number": 1,
            "time": 153.62600312500052,
            "value": 0.6692913385826772
          },
          {
            "number": 1,
            "time": 153.63437359375052,
            "value": 0.5984251968503937
          },
          {
            "number": 1,
            "time": 153.63576867187552,
            "value": 0.5590551181102362
          },
          {
            "number": 1,
            "time": 153.64134898437553,
            "value": 0.44881889763779526
          },
          {
            "number": 1,
            "time": 153.64134898437553,
            "value": 0.5118110236220472
          },
          {
            "number": 1,
            "time": 153.64832437500053,
            "value": 0.3700787401574803
          },
          {
            "number": 1,
            "time": 153.65250960937553,
            "value": 0.29133858267716534
          },
          {
            "number": 1,
            "time": 153.65808992187553,
            "value": 0.2047244094488189
          },
          {
            "number": 1,
            "time": 153.65948500000053,
            "value": 0.11811023622047244
          },
          {
            "number": 1,
            "time": 153.66646039062553,
            "value": 0
          },
          {
            "number": 1,
            "time": 153.66646039062553,
            "value": 0.05511811023622047
          },
          {
            "number": 1,
            "time": 154.47421062500055,
            "value": 0.015748031496062992
          },
          {
            "number": 1,
            "time": 154.47421062500055,
            "value": 0.007874015748031496
          },
          {
            "number": 1,
            "time": 154.48258109375055,
            "value": 0.031496062992125984
          },
          {
            "number": 1,
            "time": 154.48258109375055,
            "value": 0.023622047244094488
          },
          {
            "number": 1,
            "time": 154.48955648437556,
            "value": 0.03937007874015748
          },
          {
            "number": 1,
            "time": 154.49234664062556,
            "value": 0.047244094488188976
          },
          {
            "number": 1,
            "time": 154.49792695312556,
            "value": 0.05511811023622047
          },
          {
            "number": 1,
            "time": 154.49932203125056,
            "value": 0.06299212598425197
          },
          {
            "number": 1,
            "time": 154.50629742187556,
            "value": 0.07086614173228346
          },
          {
            "number": 1,
            "time": 154.50769250000056,
            "value": 0.07874015748031496
          },
          {
            "number": 1,
            "time": 154.51606296875056,
            "value": 0.09448818897637795
          },
          {
            "number": 1,
            "time": 154.51606296875056,
            "value": 0.08661417322834646
          },
          {
            "number": 1,
            "time": 154.52303835937556,
            "value": 0.11811023622047244
          },
          {
            "number": 1,
            "time": 154.52303835937556,
            "value": 0.11023622047244094
          },
          {
            "number": 1,
            "time": 154.53140882812556,
            "value": 0.13385826771653545
          },
          {
            "number": 1,
            "time": 154.53140882812556,
            "value": 0.12598425196850394
          },
          {
            "number": 1,
            "time": 154.53698914062556,
            "value": 0.14960629921259844
          },
          {
            "number": 1,
            "time": 154.54117437500057,
            "value": 0.16535433070866143
          },
          {
            "number": 1,
            "time": 154.54675468750057,
            "value": 0.18110236220472442
          },
          {
            "number": 1,
            "time": 154.54954484375057,
            "value": 0.1968503937007874
          },
          {
            "number": 1,
            "time": 154.55512515625057,
            "value": 0.2125984251968504
          },
          {
            "number": 1,
            "time": 154.55791531250057,
            "value": 0.2204724409448819
          },
          {
            "number": 1,
            "time": 154.56489070312557,
            "value": 0.25196850393700787
          },
          {
            "number": 1,
            "time": 154.56489070312557,
            "value": 0.23622047244094488
          },
          {
            "number": 1,
            "time": 154.57186609375057,
            "value": 0.2677165354330709
          },
          {
            "number": 1,
            "time": 154.57186609375057,
            "value": 0.25984251968503935
          },
          {
            "number": 1,
            "time": 154.57884148437557,
            "value": 0.2755905511811024
          },
          {
            "number": 1,
            "time": 154.58023656250057,
            "value": 0.29133858267716534
          },
          {
            "number": 1,
            "time": 154.58860703125058,
            "value": 0.30708661417322836
          },
          {
            "number": 1,
            "time": 154.59139718750058,
            "value": 0.3228346456692913
          },
          {
            "number": 1,
            "time": 154.59697750000058,
            "value": 0.33070866141732286
          },
          {
            "number": 1,
            "time": 154.59837257812558,
            "value": 0.33858267716535434
          },
          {
            "number": 1,
            "time": 154.60534796875058,
            "value": 0.3543307086614173
          },
          {
            "number": 1,
            "time": 154.60674304687558,
            "value": 0.36220472440944884
          },
          {
            "number": 1,
            "time": 154.61232335937558,
            "value": 0.3700787401574803
          },
          {
            "number": 1,
            "time": 154.61511351562558,
            "value": 0.3779527559055118
          },
          {
            "number": 1,
            "time": 154.62208890625058,
            "value": 0.4015748031496063
          },
          {
            "number": 1,
            "time": 154.62208890625058,
            "value": 0.3937007874015748
          },
          {
            "number": 1,
            "time": 154.62906429687558,
            "value": 0.41732283464566927
          },
          {
            "number": 1,
            "time": 154.62906429687558,
            "value": 0.4094488188976378
          },
          {
            "number": 1,
            "time": 154.63882984375059,
            "value": 0.4409448818897638
          },
          {
            "number": 1,
            "time": 154.63882984375059,
            "value": 0.4251968503937008
          },
          {
            "number": 1,
            "time": 154.6472003125006,
            "value": 0.44881889763779526
          },
          {
            "number": 1,
            "time": 154.6541757031256,
            "value": 0.4645669291338583
          },
          {
            "number": 1,
            "time": 154.6541757031256,
            "value": 0.4566929133858268
          },
          {
            "number": 1,
            "time": 154.6625461718756,
            "value": 0.48031496062992124
          },
          {
            "number": 1,
            "time": 154.6625461718756,
            "value": 0.47244094488188976
          },
          {
            "number": 1,
            "time": 154.6723117187506,
            "value": 0.4881889763779528
          },
          {
            "number": 1,
            "time": 154.6792871093756,
            "value": 0.5039370078740157
          },
          {
            "number": 1,
            "time": 154.6792871093756,
            "value": 0.49606299212598426
          },
          {
            "number": 1,
            "time": 154.6904477343756,
            "value": 0.5118110236220472
          },
          {
            "number": 1,
            "time": 154.6946329687506,
            "value": 0.5275590551181102
          },
          {
            "number": 1,
            "time": 154.6946329687506,
            "value": 0.5196850393700787
          },
          {
            "number": 1,
            "time": 154.7043985156256,
            "value": 0.5433070866141733
          },
          {
            "number": 1,
            "time": 154.7043985156256,
            "value": 0.5354330708661418
          },
          {
            "number": 1,
            "time": 154.7113739062506,
            "value": 0.5511811023622047
          },
          {
            "number": 1,
            "time": 154.7183492968756,
            "value": 0.5590551181102362
          },
          {
            "number": 1,
            "time": 154.7197443750006,
            "value": 0.5669291338582677
          },
          {
            "number": 1,
            "time": 154.7295099218756,
            "value": 0.5748031496062992
          },
          {
            "number": 1,
            "time": 154.7378803906256,
            "value": 0.5826771653543307
          },
          {
            "number": 1,
            "time": 154.7434607031256,
            "value": 0.5905511811023622
          },
          {
            "number": 1,
            "time": 154.7518311718756,
            "value": 0.5984251968503937
          },
          {
            "number": 1,
            "time": 154.7699671875006,
            "value": 0.6141732283464567
          },
          {
            "number": 1,
            "time": 154.7699671875006,
            "value": 0.6062992125984252
          },
          {
            "number": 1,
            "time": 154.78670812500062,
            "value": 0.6220472440944882
          },
          {
            "number": 1,
            "time": 154.79368351562562,
            "value": 0.6299212598425197
          },
          {
            "number": 1,
            "time": 154.80065890625062,
            "value": 0.6377952755905512
          },
          {
            "number": 1,
            "time": 154.81042445312562,
            "value": 0.6456692913385826
          },
          {
            "number": 1,
            "time": 154.81879492187562,
            "value": 0.6535433070866141
          },
          {
            "number": 1,
            "time": 154.83553585937563,
            "value": 0.6614173228346457
          },
          {
            "number": 1,
            "time": 154.84251125000063,
            "value": 0.6692913385826772
          },
          {
            "number": 1,
            "time": 154.85925218750063,
            "value": 0.6771653543307087
          },
          {
            "number": 1,
            "time": 154.88436359375063,
            "value": 0.6850393700787402
          },
          {
            "number": 1,
            "time": 154.89970945312564,
            "value": 0.7007874015748031
          },
          {
            "number": 1,
            "time": 154.90807992187564,
            "value": 0.7165354330708661
          },
          {
            "number": 1,
            "time": 154.92342578125064,
            "value": 0.7322834645669292
          },
          {
            "number": 1,
            "time": 154.94016671875065,
            "value": 0.7480314960629921
          },
          {
            "number": 1,
            "time": 154.95830273437565,
            "value": 0.7637795275590551
          },
          {
            "number": 1,
            "time": 154.98201906250065,
            "value": 0.7795275590551181
          },
          {
            "number": 1,
            "time": 155.00713046875066,
            "value": 0.7952755905511811
          },
          {
            "number": 1,
            "time": 155.06293359375067,
            "value": 0.8110236220472441
          },
          {
            "number": 1,
            "time": 155.08106960937567,
            "value": 0.8267716535433071
          },
          {
            "number": 1,
            "time": 155.12989734375068,
            "value": 0.8110236220472441
          },
          {
            "number": 1,
            "time": 155.1382678125007,
            "value": 0.7952755905511811
          },
          {
            "number": 1,
            "time": 155.1438481250007,
            "value": 0.7637795275590551
          },
          {
            "number": 1,
            "time": 155.1452432031257,
            "value": 0.7322834645669292
          },
          {
            "number": 1,
            "time": 155.1536136718757,
            "value": 0.6850393700787402
          },
          {
            "number": 1,
            "time": 155.1564038281257,
            "value": 0.6535433070866141
          },
          {
            "number": 1,
            "time": 155.1605890625007,
            "value": 0.6220472440944882
          },
          {
            "number": 1,
            "time": 155.1633792187507,
            "value": 0.5826771653543307
          },
          {
            "number": 1,
            "time": 155.1689595312507,
            "value": 0.5275590551181102
          },
          {
            "number": 1,
            "time": 155.1717496875007,
            "value": 0.47244094488188976
          },
          {
            "number": 1,
            "time": 155.1773300000007,
            "value": 0.3464566929133858
          },
          {
            "number": 1,
            "time": 155.1773300000007,
            "value": 0.4094488188976378
          },
          {
            "number": 1,
            "time": 155.1857004687507,
            "value": 0.29133858267716534
          },
          {
            "number": 1,
            "time": 155.1870955468757,
            "value": 0.23622047244094488
          },
          {
            "number": 1,
            "time": 155.1940709375007,
            "value": 0.11023622047244094
          },
          {
            "number": 1,
            "time": 155.1940709375007,
            "value": 0.1732283464566929
          },
          {
            "number": 1,
            "time": 155.2038364843757,
            "value": 0.031496062992125984
          },
          {
            "number": 1,
            "time": 155.2038364843757,
            "value": 0.07086614173228346
          },
          {
            "number": 1,
            "time": 155.2108118750007,
            "value": 0
          },
          {
            "number": 1,
            "time": 158.5827157031257,
            "value": 0.007874015748031496
          },
          {
            "number": 1,
            "time": 158.5980615625007,
            "value": 0.015748031496062992
          },
          {
            "number": 1,
            "time": 158.6315434375007,
            "value": 0.031496062992125984
          },
          {
            "number": 1,
            "time": 158.6315434375007,
            "value": 0.023622047244094488
          },
          {
            "number": 1,
            "time": 158.6482843750007,
            "value": 0.03937007874015748
          },
          {
            "number": 1,
            "time": 158.65665484375072,
            "value": 0.047244094488188976
          },
          {
            "number": 1,
            "time": 158.66502531250072,
            "value": 0.05511811023622047
          },
          {
            "number": 1,
            "time": 158.68316132812572,
            "value": 0.06299212598425197
          },
          {
            "number": 1,
            "time": 158.68874164062572,
            "value": 0.07086614173228346
          },
          {
            "number": 1,
            "time": 158.69711210937572,
            "value": 0.07874015748031496
          },
          {
            "number": 1,
            "time": 158.70408750000072,
            "value": 0.08661417322834646
          },
          {
            "number": 1,
            "time": 158.72222351562573,
            "value": 0.10236220472440945
          },
          {
            "number": 1,
            "time": 158.72222351562573,
            "value": 0.09448818897637795
          },
          {
            "number": 1,
            "time": 158.74035953125073,
            "value": 0.11023622047244094
          },
          {
            "number": 1,
            "time": 158.77244632812574,
            "value": 0.11811023622047244
          },
          {
            "number": 1,
            "time": 158.78081679687574,
            "value": 0.12598425196850394
          },
          {
            "number": 1,
            "time": 158.79895281250074,
            "value": 0.13385826771653545
          },
          {
            "number": 1,
            "time": 158.80732328125075,
            "value": 0.14173228346456693
          },
          {
            "number": 1,
            "time": 158.81290359375075,
            "value": 0.14960629921259844
          },
          {
            "number": 1,
            "time": 158.81429867187575,
            "value": 0.15748031496062992
          },
          {
            "number": 1,
            "time": 158.82127406250075,
            "value": 0.16535433070866143
          },
          {
            "number": 1,
            "time": 158.82824945312575,
            "value": 0.1732283464566929
          },
          {
            "number": 1,
            "time": 158.82964453125075,
            "value": 0.18110236220472442
          },
          {
            "number": 1,
            "time": 158.83941007812575,
            "value": 0.1889763779527559
          },
          {
            "number": 1,
            "time": 158.84638546875075,
            "value": 0.1968503937007874
          },
          {
            "number": 1,
            "time": 158.86312640625076,
            "value": 0.2047244094488189
          },
          {
            "number": 1,
            "time": 158.87010179687576,
            "value": 0.2125984251968504
          },
          {
            "number": 1,
            "time": 158.87289195312576,
            "value": 0.2204724409448819
          },
          {
            "number": 1,
            "time": 158.87847226562576,
            "value": 0.2283464566929134
          },
          {
            "number": 1,
            "time": 158.88126242187576,
            "value": 0.23622047244094488
          },
          {
            "number": 1,
            "time": 158.88823781250076,
            "value": 0.2440944881889764
          },
          {
            "number": 1,
            "time": 158.90497875000077,
            "value": 0.25196850393700787
          },
          {
            "number": 1,
            "time": 158.92032460937577,
            "value": 0.25984251968503935
          },
          {
            "number": 1,
            "time": 158.93706554687577,
            "value": 0.2677165354330709
          },
          {
            "number": 1,
            "time": 158.95241140625077,
            "value": 0.2755905511811024
          },
          {
            "number": 1,
            "time": 158.98728835937578,
            "value": 0.28346456692913385
          },
          {
            "number": 1,
            "time": 159.0444865625008,
            "value": 0.29133858267716534
          },
          {
            "number": 1,
            "time": 159.0682028906258,
            "value": 0.2992125984251969
          },
          {
            "number": 1,
            "time": 159.1184257031258,
            "value": 0.30708661417322836
          },
          {
            "number": 1,
            "time": 159.15051250000081,
            "value": 0.31496062992125984
          },
          {
            "number": 1,
            "time": 159.16725343750082,
            "value": 0.3228346456692913
          },
          {
            "number": 1,
            "time": 159.18259929687582,
            "value": 0.33070866141732286
          },
          {
            "number": 1,
            "time": 159.19515500000082,
            "value": 0.33858267716535434
          },
          {
            "number": 1,
            "time": 159.21887132812583,
            "value": 0.3464566929133858
          },
          {
            "number": 1,
            "time": 159.23421718750083,
            "value": 0.3543307086614173
          },
          {
            "number": 1,
            "time": 159.28444000000084,
            "value": 0.36220472440944884
          },
          {
            "number": 1,
            "time": 159.32489726562585,
            "value": 0.3700787401574803
          },
          {
            "number": 1,
            "time": 159.33466281250085,
            "value": 0.3779527559055118
          },
          {
            "number": 1,
            "time": 159.35698406250086,
            "value": 0.3858267716535433
          },
          {
            "number": 1,
            "time": 159.40720687500087,
            "value": 0.3937007874015748
          },
          {
            "number": 1,
            "time": 159.41697242187587,
            "value": 0.4015748031496063
          },
          {
            "number": 1,
            "time": 159.43231828125087,
            "value": 0.4094488188976378
          },
          {
            "number": 1,
            "time": 159.45045429687588,
            "value": 0.41732283464566927
          },
          {
            "number": 1,
            "time": 159.46719523437588,
            "value": 0.4251968503937008
          },
          {
            "number": 1,
            "time": 159.5174180468759,
            "value": 0.4330708661417323
          },
          {
            "number": 1,
            "time": 159.5592703906259,
            "value": 0.4409448818897638
          },
          {
            "number": 1,
            "time": 159.5829867187509,
            "value": 0.44881889763779526
          },
          {
            "number": 1,
            "time": 159.6904077343759,
            "value": 0.4566929133858268
          },
          {
            "number": 1,
            "time": 159.7308650000009,
            "value": 0.4645669291338583
          },
          {
            "number": 1,
            "time": 159.8633974218759,
            "value": 0.47244094488188976
          },
          {
            "number": 1,
            "time": 159.9610528906259,
            "value": 0.48031496062992124
          },
          {
            "number": 1,
            "time": 160.2930814843759,
            "value": 0.4881889763779528
          },
          {
            "number": 1,
            "time": 160.3753910937509,
            "value": 0.49606299212598426
          },
          {
            "number": 1,
            "time": 160.6892836718759,
            "value": 0.5039370078740157
          },
          {
            "number": 1,
            "time": 160.8552979687509,
            "value": 0.5118110236220472
          },
          {
            "number": 1,
            "time": 161.1105972656259,
            "value": 0.5039370078740157
          },
          {
            "number": 1,
            "time": 161.1412889843759,
            "value": 0.5118110236220472
          },
          {
            "number": 1,
            "time": 161.33241468750091,
            "value": 0.5196850393700787
          },
          {
            "number": 1,
            "time": 161.38263750000093,
            "value": 0.5118110236220472
          },
          {
            "number": 1,
            "time": 161.71327101562593,
            "value": 0.5196850393700787
          },
          {
            "number": 1,
            "time": 161.77883968750095,
            "value": 0.5275590551181102
          },
          {
            "number": 1,
            "time": 162.04250945312594,
            "value": 0.5354330708661418
          },
          {
            "number": 1,
            "time": 162.10807812500096,
            "value": 0.5275590551181102
          },
          {
            "number": 1,
            "time": 162.16667140625097,
            "value": 0.5354330708661418
          },
          {
            "number": 1,
            "time": 162.31454968750097,
            "value": 0.5275590551181102
          },
          {
            "number": 1,
            "time": 162.41220515625096,
            "value": 0.5196850393700787
          },
          {
            "number": 1,
            "time": 162.42057562500096,
            "value": 0.5118110236220472
          },
          {
            "number": 1,
            "time": 162.42336578125096,
            "value": 0.5039370078740157
          },
          {
            "number": 1,
            "time": 162.43034117187597,
            "value": 0.49606299212598426
          },
          {
            "number": 1,
            "time": 162.43731656250097,
            "value": 0.4881889763779528
          },
          {
            "number": 1,
            "time": 162.44429195312597,
            "value": 0.48031496062992124
          },
          {
            "number": 1,
            "time": 162.44568703125097,
            "value": 0.47244094488188976
          },
          {
            "number": 1,
            "time": 162.45405750000097,
            "value": 0.4566929133858268
          },
          {
            "number": 1,
            "time": 162.45405750000097,
            "value": 0.4645669291338583
          },
          {
            "number": 1,
            "time": 162.46242796875097,
            "value": 0.44881889763779526
          },
          {
            "number": 1,
            "time": 162.47079843750097,
            "value": 0.4409448818897638
          },
          {
            "number": 1,
            "time": 162.47916890625098,
            "value": 0.4330708661417323
          },
          {
            "number": 1,
            "time": 162.48056398437598,
            "value": 0.4251968503937008
          },
          {
            "number": 1,
            "time": 162.48614429687598,
            "value": 0.41732283464566927
          },
          {
            "number": 1,
            "time": 162.49451476562598,
            "value": 0.4094488188976378
          },
          {
            "number": 1,
            "time": 162.50428031250098,
            "value": 0.3937007874015748
          },
          {
            "number": 1,
            "time": 162.50428031250098,
            "value": 0.4015748031496063
          },
          {
            "number": 1,
            "time": 162.51265078125098,
            "value": 0.3779527559055118
          },
          {
            "number": 1,
            "time": 162.51265078125098,
            "value": 0.3858267716535433
          },
          {
            "number": 1,
            "time": 162.51823109375098,
            "value": 0.3700787401574803
          },
          {
            "number": 1,
            "time": 162.529391718751,
            "value": 0.3543307086614173
          },
          {
            "number": 1,
            "time": 162.529391718751,
            "value": 0.36220472440944884
          },
          {
            "number": 1,
            "time": 162.539157265626,
            "value": 0.3464566929133858
          },
          {
            "number": 1,
            "time": 162.546132656251,
            "value": 0.33858267716535434
          },
          {
            "number": 1,
            "time": 162.553108046876,
            "value": 0.33070866141732286
          },
          {
            "number": 1,
            "time": 162.560083437501,
            "value": 0.3228346456692913
          },
          {
            "number": 1,
            "time": 162.561478515626,
            "value": 0.30708661417322836
          },
          {
            "number": 1,
            "time": 162.568453906251,
            "value": 0.2992125984251969
          },
          {
            "number": 1,
            "time": 162.576824375001,
            "value": 0.29133858267716534
          },
          {
            "number": 1,
            "time": 162.578219453126,
            "value": 0.28346456692913385
          },
          {
            "number": 1,
            "time": 162.586589921876,
            "value": 0.2755905511811024
          },
          {
            "number": 1,
            "time": 162.589380078126,
            "value": 0.2677165354330709
          },
          {
            "number": 1,
            "time": 162.592170234376,
            "value": 0.25984251968503935
          },
          {
            "number": 1,
            "time": 162.596355468751,
            "value": 0.25196850393700787
          },
          {
            "number": 1,
            "time": 162.603330859376,
            "value": 0.2440944881889764
          },
          {
            "number": 1,
            "time": 162.610306250001,
            "value": 0.23622047244094488
          },
          {
            "number": 1,
            "time": 162.663319218751,
            "value": 0.2283464566929134
          },
          {
            "number": 1,
            "time": 162.66889953125101,
            "value": 0.2125984251968504
          },
          {
            "number": 1,
            "time": 162.66889953125101,
            "value": 0.2204724409448819
          },
          {
            "number": 1,
            "time": 162.68703554687602,
            "value": 0.1968503937007874
          },
          {
            "number": 1,
            "time": 162.68703554687602,
            "value": 0.2047244094488189
          },
          {
            "number": 1,
            "time": 162.69540601562602,
            "value": 0.1889763779527559
          },
          {
            "number": 1,
            "time": 162.70238140625102,
            "value": 0.1732283464566929
          },
          {
            "number": 1,
            "time": 162.70238140625102,
            "value": 0.18110236220472442
          },
          {
            "number": 1,
            "time": 162.71214695312602,
            "value": 0.16535433070866143
          },
          {
            "number": 1,
            "time": 162.72051742187602,
            "value": 0.15748031496062992
          },
          {
            "number": 1,
            "time": 162.76655500000103,
            "value": 0.14960629921259844
          },
          {
            "number": 1,
            "time": 162.76795007812603,
            "value": 0.12598425196850394
          },
          {
            "number": 1,
            "time": 162.76795007812603,
            "value": 0.13385826771653545
          },
          {
            "number": 1,
            "time": 162.78469101562604,
            "value": 0.09448818897637795
          },
          {
            "number": 1,
            "time": 162.78469101562604,
            "value": 0.11023622047244094
          },
          {
            "number": 1,
            "time": 162.79306148437604,
            "value": 0.07874015748031496
          },
          {
            "number": 1,
            "time": 162.79445656250104,
            "value": 0.07086614173228346
          },
          {
            "number": 1,
            "time": 162.80003687500104,
            "value": 0.06299212598425197
          },
          {
            "number": 1,
            "time": 162.80840734375104,
            "value": 0.05511811023622047
          },
          {
            "number": 1,
            "time": 162.80980242187604,
            "value": 0.047244094488188976
          },
          {
            "number": 1,
            "time": 162.81817289062604,
            "value": 0.03937007874015748
          },
          {
            "number": 1,
            "time": 162.82514828125105,
            "value": 0.031496062992125984
          },
          {
            "number": 1,
            "time": 162.89211203125106,
            "value": 0.023622047244094488
          },
          {
            "number": 1,
            "time": 162.90048250000106,
            "value": 0.015748031496062992
          },
          {
            "number": 1,
            "time": 162.90885296875106,
            "value": 0.007874015748031496
          },
          {
            "number": 1,
            "time": 162.91722343750106,
            "value": 0
          }
        ],
        "2": [
          {
            "number": 2,
            "time": 1.8080212500000001,
            "value": 0
          }
        ],
        "7": [
          {
            "number": 7,
            "time": 1.2388293750000001,
            "value": 1
          }
        ],
        "10": [
          {
            "number": 10,
            "time": 1.305793125,
            "value": 0.5039370078740157
          }
        ],
        "11": [
          {
            "number": 11,
            "time": 163.41108109375105,
            "value": 0.9448818897637795
          },
          {
            "number": 11,
            "time": 163.92446984375104,
            "value": 0.8661417322834646
          },
          {
            "number": 11,
            "time": 164.48250109375104,
            "value": 0.7874015748031497
          },
          {
            "number": 11,
            "time": 165.01821109375103,
            "value": 0.7086614173228346
          },
          {
            "number": 11,
            "time": 165.50927859375105,
            "value": 0.6299212598425197
          },
          {
            "number": 11,
            "time": 165.95570359375105,
            "value": 0.47244094488188976
          },
          {
            "number": 11,
            "time": 166.31284359375104,
            "value": 0.31496062992125984
          },
          {
            "number": 11,
            "time": 166.58069859375104,
            "value": 0.15748031496062992
          },
          {
            "number": 11,
            "time": 167.09408734375103,
            "value": 1
          }
        ],
        "32": [
          {
            "number": 32,
            "time": 1.1718656250000001,
            "value": 0
          }
        ],
        "91": [
          {
            "number": 91,
            "time": 1.5401662500000002,
            "value": 1
          }
        ],
        "93": [
          {
            "number": 93,
            "time": 1.6740937500000002,
            "value": 0
          }
        ],
        "121": [
          {
            "number": 121,
            "time": 0.9040106250000001,
            "value": 0
          }
        ]
      },
      "id": 7,
      "name": "Lead 2",
      "instrumentNumber": 30,
      "instrument": "distortion guitar",
      "instrumentFamily": "guitar",
      "channelNumber": 6,
      "isPercussion": false
    },
    {
      "startTime": 10.7142,
      "duration": 126.18481640625001,
      "length": 21,
      "notes": [
        {
          "name": "F#3",
          "midi": 54,
          "time": 10.7142,
          "velocity": 0.4566929133858268,
          "duration": 2.0423943750000007
        },
        {
          "name": "E3",
          "midi": 52,
          "time": 12.865410468750001,
          "velocity": 0.4566929133858268,
          "duration": 0.7617126562499994
        },
        {
          "name": "D3",
          "midi": 50,
          "time": 13.7052475,
          "velocity": 0.4566929133858268,
          "duration": 0.7728732812499999
        },
        {
          "name": "A2",
          "midi": 45,
          "time": 14.464170000000001,
          "velocity": 0.4566929133858268,
          "duration": 0.5357099999999999
        },
        {
          "name": "F#3",
          "midi": 54,
          "time": 14.999880000000001,
          "velocity": 0.4645669291338583,
          "duration": 2.0423943750000007
        },
        {
          "name": "F#3",
          "midi": 54,
          "time": 109.29600062500002,
          "velocity": 0.3937007874015748,
          "duration": 1.933578281250007
        },
        {
          "name": "E3",
          "midi": 52,
          "time": 111.42768000000002,
          "velocity": 0.3937007874015748,
          "duration": 0.7617126562499976
        },
        {
          "name": "D3",
          "midi": 50,
          "time": 112.25356625000002,
          "velocity": 0.3937007874015748,
          "duration": 0.7728732812499999
        },
        {
          "name": "A2",
          "midi": 45,
          "time": 113.03481000000002,
          "velocity": 0.3937007874015748,
          "duration": 0.29296640625000236
        },
        {
          "name": "F#3",
          "midi": 54,
          "time": 113.58168062500002,
          "velocity": 0.3937007874015748,
          "duration": 1.9335782812499929
        },
        {
          "name": "E3",
          "midi": 52,
          "time": 115.71336000000001,
          "velocity": 0.3937007874015748,
          "duration": 0.7617126562499976
        },
        {
          "name": "D3",
          "midi": 50,
          "time": 116.53924625,
          "velocity": 0.3937007874015748,
          "duration": 0.7728732812499999
        },
        {
          "name": "A2",
          "midi": 45,
          "time": 117.32049,
          "velocity": 0.3937007874015748,
          "duration": 0.29296640625000236
        },
        {
          "name": "F#3",
          "midi": 54,
          "time": 117.85620000000002,
          "velocity": 0.3937007874015748,
          "duration": 1.933578281250007
        },
        {
          "name": "E3",
          "midi": 52,
          "time": 119.98787937500002,
          "velocity": 0.3937007874015748,
          "duration": 0.7617126562499976
        },
        {
          "name": "D3",
          "midi": 50,
          "time": 120.81376562500002,
          "velocity": 0.3937007874015748,
          "duration": 0.7728732812499999
        },
        {
          "name": "A2",
          "midi": 45,
          "time": 121.59500937500002,
          "velocity": 0.3937007874015748,
          "duration": 0.29296640625000236
        },
        {
          "name": "F#3",
          "midi": 54,
          "time": 122.14188000000001,
          "velocity": 0.3937007874015748,
          "duration": 1.9335782812499929
        },
        {
          "name": "E3",
          "midi": 52,
          "time": 124.28472000000001,
          "velocity": 0.3937007874015748,
          "duration": 0.7617126562499976
        },
        {
          "name": "D3",
          "midi": 50,
          "time": 125.11060625,
          "velocity": 0.3937007874015748,
          "duration": 0.7728732812499999
        },
        {
          "name": "A2",
          "midi": 45,
          "time": 125.89185,
          "velocity": 0.3937007874015748,
          "duration": 0.29296640625000236
        }
      ],
      "controlChanges": {
        "1": [
          {
            "number": 1,
            "time": 1.4062387500000002,
            "value": 0
          }
        ],
        "2": [
          {
            "number": 2,
            "time": 1.8080212500000001,
            "value": 0
          }
        ],
        "7": [
          {
            "number": 7,
            "time": 1.2388293750000001,
            "value": 1
          }
        ],
        "10": [
          {
            "number": 10,
            "time": 1.305793125,
            "value": 0.5039370078740157
          }
        ],
        "32": [
          {
            "number": 32,
            "time": 1.1718656250000001,
            "value": 0
          }
        ],
        "91": [
          {
            "number": 91,
            "time": 1.5401662500000002,
            "value": 1
          }
        ],
        "93": [
          {
            "number": 93,
            "time": 1.6740937500000002,
            "value": 0
          }
        ],
        "121": [
          {
            "number": 121,
            "time": 0.9040106250000001,
            "value": 0
          }
        ]
      },
      "id": 8,
      "name": "Harmonics",
      "instrumentNumber": 31,
      "instrument": "guitar harmonics",
      "instrumentFamily": "guitar",
      "channelNumber": 7,
      "isPercussion": false
    },
    {
      "startTime": 17.151090468750002,
      "duration": 200.95263343750588,
      "length": 1299,
      "notes": [
        {
          "name": "D2",
          "midi": 38,
          "time": 17.151090468750002,
          "velocity": 0.937007874015748,
          "duration": 0.06696374999999932
        },
        {
          "name": "A2",
          "midi": 45,
          "time": 17.4049946875,
          "velocity": 0.8267716535433071,
          "duration": 0.06696374999999932
        },
        {
          "name": "F2",
          "midi": 41,
          "time": 17.6728496875,
          "velocity": 0.7007874015748031,
          "duration": 0.06696374999999932
        },
        {
          "name": "D2",
          "midi": 38,
          "time": 17.940704687500002,
          "velocity": 0.7480314960629921,
          "duration": 0.06696374999999932
        },
        {
          "name": "D2",
          "midi": 38,
          "time": 18.0746321875,
          "velocity": 0.84251968503937,
          "duration": 0.06696374999999932
        },
        {
          "name": "D2",
          "midi": 38,
          "time": 18.2085596875,
          "velocity": 0.8976377952755905,
          "duration": 0.06696374999999932
        },
        {
          "name": "D2",
          "midi": 38,
          "time": 18.342487187499998,
          "velocity": 0.905511811023622,
          "duration": 0.06696374999999932
        },
        {
          "name": "A2",
          "midi": 45,
          "time": 18.476414687499997,
          "velocity": 0.8267716535433071,
          "duration": 0.06696374999999932
        },
        {
          "name": "A2",
          "midi": 45,
          "time": 18.610342187499995,
          "velocity": 0.8267716535433071,
          "duration": 0.06696374999999932
        },
        {
          "name": "G2",
          "midi": 43,
          "time": 18.744269687499994,
          "velocity": 0.8031496062992126,
          "duration": 0.06696374999999932
        },
        {
          "name": "G2",
          "midi": 43,
          "time": 18.878197187499993,
          "velocity": 0.8031496062992126,
          "duration": 0.06696374999999932
        },
        {
          "name": "F2",
          "midi": 41,
          "time": 19.01212468749999,
          "velocity": 0.7874015748031497,
          "duration": 0.06696374999999932
        },
        {
          "name": "F2",
          "midi": 41,
          "time": 19.14605218749999,
          "velocity": 0.7795275590551181,
          "duration": 0.06696374999999932
        },
        {
          "name": "C#3",
          "midi": 49,
          "time": 19.27997968749999,
          "velocity": 0.905511811023622,
          "duration": 0.06696374999999932
        },
        {
          "name": "B1",
          "midi": 35,
          "time": 19.27997968749999,
          "velocity": 1,
          "duration": 0.06696374999999932
        },
        {
          "name": "C#2",
          "midi": 37,
          "time": 19.815689687499987,
          "velocity": 0.905511811023622,
          "duration": 0.06696374999999932
        },
        {
          "name": "F#2",
          "midi": 42,
          "time": 19.815689687499987,
          "velocity": 0.7086614173228346,
          "duration": 0.06696374999999932
        },
        {
          "name": "F#2",
          "midi": 42,
          "time": 20.083544687499987,
          "velocity": 0.5669291338582677,
          "duration": 0.06696374999999932
        },
        {
          "name": "B1",
          "midi": 35,
          "time": 20.083544687499987,
          "velocity": 1,
          "duration": 0.06696374999999932
        },
        {
          "name": "F#2",
          "midi": 42,
          "time": 20.35139968749999,
          "velocity": 0.7086614173228346,
          "duration": 0.06696374999999932
        },
        {
          "name": "F#2",
          "midi": 42,
          "time": 20.61925468749999,
          "velocity": 0.5669291338582677,
          "duration": 0.06696374999999932
        },
        {
          "name": "B1",
          "midi": 35,
          "time": 20.61925468749999,
          "velocity": 1,
          "duration": 0.06696374999999932
        },
        {
          "name": "C#2",
          "midi": 37,
          "time": 20.88710968749999,
          "velocity": 0.9133858267716536,
          "duration": 0.06696374999999932
        },
        {
          "name": "F#2",
          "midi": 42,
          "time": 20.88710968749999,
          "velocity": 0.7086614173228346,
          "duration": 0.06696374999999932
        },
        {
          "name": "F#2",
          "midi": 42,
          "time": 21.15496468749999,
          "velocity": 0.5669291338582677,
          "duration": 0.06696374999999932
        },
        {
          "name": "B1",
          "midi": 35,
          "time": 21.42281968749999,
          "velocity": 1,
          "duration": 0.06696374999999932
        },
        {
          "name": "F#2",
          "midi": 42,
          "time": 21.42281968749999,
          "velocity": 0.7086614173228346,
          "duration": 0.06696374999999932
        },
        {
          "name": "F#2",
          "midi": 42,
          "time": 21.690674687499993,
          "velocity": 0.5669291338582677,
          "duration": 0.06696374999999932
        },
        {
          "name": "C#2",
          "midi": 37,
          "time": 21.958529687499993,
          "velocity": 0.905511811023622,
          "duration": 0.06696374999999932
        },
        {
          "name": "F#2",
          "midi": 42,
          "time": 21.958529687499993,
          "velocity": 0.7086614173228346,
          "duration": 0.06696374999999932
        },
        {
          "name": "F#2",
          "midi": 42,
          "time": 22.226384687499994,
          "velocity": 0.5826771653543307,
          "duration": 0.06696374999999932
        },
        {
          "name": "B1",
          "midi": 35,
          "time": 22.226384687499994,
          "velocity": 1,
          "duration": 0.06696374999999932
        },
        {
          "name": "F#2",
          "midi": 42,
          "time": 22.494239687499995,
          "velocity": 0.7086614173228346,
          "duration": 0.06696374999999932
        },
        {
          "name": "F#2",
          "midi": 42,
          "time": 22.762094687499996,
          "velocity": 0.5669291338582677,
          "duration": 0.06696374999999932
        },
        {
          "name": "B1",
          "midi": 35,
          "time": 22.762094687499996,
          "velocity": 1,
          "duration": 0.06696374999999932
        },
        {
          "name": "C#2",
          "midi": 37,
          "time": 23.029949687499997,
          "velocity": 0.9133858267716536,
          "duration": 0.06696374999999932
        },
        {
          "name": "F#2",
          "midi": 42,
          "time": 23.029949687499997,
          "velocity": 0.7086614173228346,
          "duration": 0.06696374999999932
        },
        {
          "name": "F#2",
          "midi": 42,
          "time": 23.297804687499998,
          "velocity": 0.5669291338582677,
          "duration": 0.06696374999999932
        },
        {
          "name": "B1",
          "midi": 35,
          "time": 23.5656596875,
          "velocity": 1,
          "duration": 0.06696374999999932
        },
        {
          "name": "F#2",
          "midi": 42,
          "time": 23.5656596875,
          "velocity": 0.7086614173228346,
          "duration": 0.06696374999999932
        },
        {
          "name": "F#2",
          "midi": 42,
          "time": 23.8335146875,
          "velocity": 0.5669291338582677,
          "duration": 0.06696374999999932
        },
        {
          "name": "C#2",
          "midi": 37,
          "time": 24.1013696875,
          "velocity": 0.905511811023622,
          "duration": 0.06696374999999932
        },
        {
          "name": "F#2",
          "midi": 42,
          "time": 24.1013696875,
          "velocity": 0.7086614173228346,
          "duration": 0.06696374999999932
        },
        {
          "name": "F#2",
          "midi": 42,
          "time": 24.3692246875,
          "velocity": 0.5275590551181102,
          "duration": 0.06696374999999932
        },
        {
          "name": "B1",
          "midi": 35,
          "time": 24.3692246875,
          "velocity": 1,
          "duration": 0.06696374999999932
        },
        {
          "name": "F#2",
          "midi": 42,
          "time": 24.6370796875,
          "velocity": 0.7086614173228346,
          "duration": 0.06696374999999932
        },
        {
          "name": "F#2",
          "midi": 42,
          "time": 24.904934687500003,
          "velocity": 0.5433070866141733,
          "duration": 0.06696374999999932
        },
        {
          "name": "B1",
          "midi": 35,
          "time": 24.904934687500003,
          "velocity": 1,
          "duration": 0.06696374999999932
        },
        {
          "name": "C#2",
          "midi": 37,
          "time": 25.172789687500003,
          "velocity": 0.9133858267716536,
          "duration": 0.06696374999999932
        },
        {
          "name": "F#2",
          "midi": 42,
          "time": 25.172789687500003,
          "velocity": 0.7086614173228346,
          "duration": 0.06696374999999932
        },
        {
          "name": "F#2",
          "midi": 42,
          "time": 25.440644687500004,
          "velocity": 0.5433070866141733,
          "duration": 0.06696374999999932
        },
        {
          "name": "B1",
          "midi": 35,
          "time": 25.708499687500005,
          "velocity": 1,
          "duration": 0.06696374999999932
        },
        {
          "name": "F#2",
          "midi": 42,
          "time": 25.708499687500005,
          "velocity": 0.7086614173228346,
          "duration": 0.06696374999999932
        },
        {
          "name": "F#2",
          "midi": 42,
          "time": 25.976354687500006,
          "velocity": 0.5433070866141733,
          "duration": 0.06696374999999932
        },
        {
          "name": "C#2",
          "midi": 37,
          "time": 26.244209687500007,
          "velocity": 0.905511811023622,
          "duration": 0.06696374999999932
        },
        {
          "name": "F#2",
          "midi": 42,
          "time": 26.244209687500007,
          "velocity": 0.7086614173228346,
          "duration": 0.06696374999999932
        },
        {
          "name": "F#2",
          "midi": 42,
          "time": 26.512064687500008,
          "velocity": 0.5275590551181102,
          "duration": 0.06696374999999932
        },
        {
          "name": "B1",
          "midi": 35,
          "time": 26.512064687500008,
          "velocity": 1,
          "duration": 0.06696374999999932
        },
        {
          "name": "F#2",
          "midi": 42,
          "time": 26.77991968750001,
          "velocity": 0.7086614173228346,
          "duration": 0.06696374999999932
        },
        {
          "name": "F#2",
          "midi": 42,
          "time": 27.04777468750001,
          "velocity": 0.5590551181102362,
          "duration": 0.06696374999999932
        },
        {
          "name": "B1",
          "midi": 35,
          "time": 27.04777468750001,
          "velocity": 1,
          "duration": 0.06696374999999932
        },
        {
          "name": "C#2",
          "midi": 37,
          "time": 27.31562968750001,
          "velocity": 0.9133858267716536,
          "duration": 0.06696374999999932
        },
        {
          "name": "F#2",
          "midi": 42,
          "time": 27.31562968750001,
          "velocity": 0.7086614173228346,
          "duration": 0.06696374999999932
        },
        {
          "name": "F#2",
          "midi": 42,
          "time": 27.58348468750001,
          "velocity": 0.5590551181102362,
          "duration": 0.06696374999999932
        },
        {
          "name": "B1",
          "midi": 35,
          "time": 27.851339687500012,
          "velocity": 1,
          "duration": 0.06696374999999932
        },
        {
          "name": "F#2",
          "midi": 42,
          "time": 27.851339687500012,
          "velocity": 0.7086614173228346,
          "duration": 0.06696374999999932
        },
        {
          "name": "F#2",
          "midi": 42,
          "time": 28.119194687500013,
          "velocity": 0.5590551181102362,
          "duration": 0.06696374999999932
        },
        {
          "name": "C#2",
          "midi": 37,
          "time": 28.387049687500014,
          "velocity": 0.905511811023622,
          "duration": 0.06696374999999932
        },
        {
          "name": "F#2",
          "midi": 42,
          "time": 28.387049687500014,
          "velocity": 0.7086614173228346,
          "duration": 0.06696374999999932
        },
        {
          "name": "F#2",
          "midi": 42,
          "time": 28.654904687500014,
          "velocity": 0.5433070866141733,
          "duration": 0.06696374999999932
        },
        {
          "name": "B1",
          "midi": 35,
          "time": 28.654904687500014,
          "velocity": 1,
          "duration": 0.06696374999999932
        },
        {
          "name": "F#2",
          "midi": 42,
          "time": 28.922759687500015,
          "velocity": 0.7086614173228346,
          "duration": 0.06696374999999932
        },
        {
          "name": "F#2",
          "midi": 42,
          "time": 29.190614687500016,
          "velocity": 0.5196850393700787,
          "duration": 0.06696374999999932
        },
        {
          "name": "B1",
          "midi": 35,
          "time": 29.190614687500016,
          "velocity": 1,
          "duration": 0.06696374999999932
        },
        {
          "name": "C#2",
          "midi": 37,
          "time": 29.458469687500017,
          "velocity": 0.9133858267716536,
          "duration": 0.06696374999999932
        },
        {
          "name": "F#2",
          "midi": 42,
          "time": 29.458469687500017,
          "velocity": 0.7086614173228346,
          "duration": 0.06696374999999932
        },
        {
          "name": "F#2",
          "midi": 42,
          "time": 29.726324687500018,
          "velocity": 0.7086614173228346,
          "duration": 0.06696374999999932
        },
        {
          "name": "B1",
          "midi": 35,
          "time": 29.99417968750002,
          "velocity": 1,
          "duration": 0.06696374999999932
        },
        {
          "name": "F#2",
          "midi": 42,
          "time": 29.99417968750002,
          "velocity": 0.7086614173228346,
          "duration": 0.06696374999999932
        },
        {
          "name": "F#2",
          "midi": 42,
          "time": 30.26203468750002,
          "velocity": 0.5669291338582677,
          "duration": 0.06696374999999932
        },
        {
          "name": "C#2",
          "midi": 37,
          "time": 30.52988968750002,
          "velocity": 0.905511811023622,
          "duration": 0.06696374999999932
        },
        {
          "name": "F#2",
          "midi": 42,
          "time": 30.52988968750002,
          "velocity": 0.7086614173228346,
          "duration": 0.06696374999999932
        },
        {
          "name": "F#2",
          "midi": 42,
          "time": 30.79774468750002,
          "velocity": 0.5590551181102362,
          "duration": 0.06696374999999932
        },
        {
          "name": "B1",
          "midi": 35,
          "time": 30.79774468750002,
          "velocity": 1,
          "duration": 0.06696374999999932
        },
        {
          "name": "F#2",
          "midi": 42,
          "time": 31.065599687500022,
          "velocity": 0.7086614173228346,
          "duration": 0.06696374999999932
        },
        {
          "name": "F#2",
          "midi": 42,
          "time": 31.333454687500023,
          "velocity": 0.5669291338582677,
          "duration": 0.06696374999999932
        },
        {
          "name": "B1",
          "midi": 35,
          "time": 31.333454687500023,
          "velocity": 1,
          "duration": 0.06696374999999932
        },
        {
          "name": "C#2",
          "midi": 37,
          "time": 31.601309687500024,
          "velocity": 0.9133858267716536,
          "duration": 0.06696374999999932
        },
        {
          "name": "F#2",
          "midi": 42,
          "time": 31.601309687500024,
          "velocity": 0.7086614173228346,
          "duration": 0.06696374999999932
        },
        {
          "name": "F#2",
          "midi": 42,
          "time": 31.869164687500025,
          "velocity": 0.5590551181102362,
          "duration": 0.06696374999999932
        },
        {
          "name": "B1",
          "midi": 35,
          "time": 32.13701968750002,
          "velocity": 1,
          "duration": 0.06696374999999932
        },
        {
          "name": "F#2",
          "midi": 42,
          "time": 32.13701968750002,
          "velocity": 0.7086614173228346,
          "duration": 0.06696374999999932
        },
        {
          "name": "F#2",
          "midi": 42,
          "time": 32.40487468750002,
          "velocity": 0.5669291338582677,
          "duration": 0.06696374999999932
        },
        {
          "name": "C#2",
          "midi": 37,
          "time": 32.672729687500016,
          "velocity": 0.905511811023622,
          "duration": 0.06696374999999932
        },
        {
          "name": "F#2",
          "midi": 42,
          "time": 32.672729687500016,
          "velocity": 0.7086614173228346,
          "duration": 0.06696374999999932
        },
        {
          "name": "F#2",
          "midi": 42,
          "time": 32.940584687500014,
          "velocity": 0.5669291338582677,
          "duration": 0.06696374999999932
        },
        {
          "name": "B1",
          "midi": 35,
          "time": 32.940584687500014,
          "velocity": 1,
          "duration": 0.06696374999999932
        },
        {
          "name": "F#2",
          "midi": 42,
          "time": 33.20843968750001,
          "velocity": 0.7086614173228346,
          "duration": 0.06696374999999932
        },
        {
          "name": "F#2",
          "midi": 42,
          "time": 33.47629468750001,
          "velocity": 0.5669291338582677,
          "duration": 0.06696374999999932
        },
        {
          "name": "B1",
          "midi": 35,
          "time": 33.47629468750001,
          "velocity": 1,
          "duration": 0.06696374999999932
        },
        {
          "name": "C#2",
          "midi": 37,
          "time": 33.744149687500006,
          "velocity": 0.9133858267716536,
          "duration": 0.06696374999999932
        },
        {
          "name": "F#2",
          "midi": 42,
          "time": 33.744149687500006,
          "velocity": 0.7086614173228346,
          "duration": 0.06696374999999932
        },
        {
          "name": "F#2",
          "midi": 42,
          "time": 34.0120046875,
          "velocity": 0.5826771653543307,
          "duration": 0.06696374999999932
        },
        {
          "name": "B1",
          "midi": 35,
          "time": 34.2798596875,
          "velocity": 1,
          "duration": 0.06696374999999932
        },
        {
          "name": "C#3",
          "midi": 49,
          "time": 34.2798596875,
          "velocity": 0.905511811023622,
          "duration": 0.06696374999999932
        },
        {
          "name": "C#3",
          "midi": 49,
          "time": 36.4226996875,
          "velocity": 0.905511811023622,
          "duration": 0.06696374999999932
        },
        {
          "name": "B1",
          "midi": 35,
          "time": 36.4226996875,
          "velocity": 1,
          "duration": 0.06696374999999932
        },
        {
          "name": "D2",
          "midi": 38,
          "time": 37.47737875,
          "velocity": 0.8110236220472441,
          "duration": 0.06696374999999932
        },
        {
          "name": "D2",
          "midi": 38,
          "time": 37.510860625,
          "velocity": 0.952755905511811,
          "duration": 0.06696374999999932
        },
        {
          "name": "B2",
          "midi": 47,
          "time": 37.7619746875,
          "velocity": 0.8346456692913385,
          "duration": 0.06696374999999932
        },
        {
          "name": "G2",
          "midi": 43,
          "time": 38.0298296875,
          "velocity": 0.8267716535433071,
          "duration": 0.06696374999999932
        },
        {
          "name": "G2",
          "midi": 43,
          "time": 38.163757187499996,
          "velocity": 0.8110236220472441,
          "duration": 0.06696374999999932
        },
        {
          "name": "F2",
          "midi": 41,
          "time": 38.297684687499995,
          "velocity": 0.8346456692913385,
          "duration": 0.06696374999999932
        },
        {
          "name": "B1",
          "midi": 35,
          "time": 38.56553968749999,
          "velocity": 1,
          "duration": 0.06696374999999932
        },
        {
          "name": "C#3",
          "midi": 49,
          "time": 38.56553968749999,
          "velocity": 0.8740157480314961,
          "duration": 0.06696374999999932
        },
        {
          "name": "B1",
          "midi": 35,
          "time": 38.83339468749999,
          "velocity": 1,
          "duration": 0.06696374999999932
        },
        {
          "name": "D2",
          "midi": 38,
          "time": 39.10124968749999,
          "velocity": 0.952755905511811,
          "duration": 0.06696374999999932
        },
        {
          "name": "D#3",
          "midi": 51,
          "time": 39.10124968749999,
          "velocity": 0.8188976377952756,
          "duration": 0.06696374999999932
        },
        {
          "name": "B1",
          "midi": 35,
          "time": 39.369104687499984,
          "velocity": 1,
          "duration": 0.06696374999999932
        },
        {
          "name": "D#3",
          "midi": 51,
          "time": 39.369104687499984,
          "velocity": 0.6929133858267716,
          "duration": 0.06696374999999932
        },
        {
          "name": "B1",
          "midi": 35,
          "time": 39.63695968749998,
          "velocity": 1,
          "duration": 0.06696374999999932
        },
        {
          "name": "D#3",
          "midi": 51,
          "time": 39.63695968749998,
          "velocity": 0.8188976377952756,
          "duration": 0.06696374999999932
        },
        {
          "name": "D#3",
          "midi": 51,
          "time": 39.90481468749998,
          "velocity": 0.6850393700787402,
          "duration": 0.06696374999999932
        },
        {
          "name": "B1",
          "midi": 35,
          "time": 40.03874218749998,
          "velocity": 1,
          "duration": 0.06696374999999932
        },
        {
          "name": "D2",
          "midi": 38,
          "time": 40.172669687499976,
          "velocity": 0.937007874015748,
          "duration": 0.06696374999999932
        },
        {
          "name": "D#3",
          "midi": 51,
          "time": 40.172669687499976,
          "velocity": 0.8188976377952756,
          "duration": 0.06696374999999932
        },
        {
          "name": "D#3",
          "midi": 51,
          "time": 40.44052468749997,
          "velocity": 0.6614173228346457,
          "duration": 0.06696374999999932
        },
        {
          "name": "B1",
          "midi": 35,
          "time": 40.70837968749997,
          "velocity": 1,
          "duration": 0.06696374999999932
        },
        {
          "name": "D#3",
          "midi": 51,
          "time": 40.70837968749997,
          "velocity": 0.8188976377952756,
          "duration": 0.06696374999999932
        },
        {
          "name": "B1",
          "midi": 35,
          "time": 40.97623468749997,
          "velocity": 1,
          "duration": 0.06696374999999932
        },
        {
          "name": "D#3",
          "midi": 51,
          "time": 40.97623468749997,
          "velocity": 0.6692913385826772,
          "duration": 0.06696374999999932
        },
        {
          "name": "B1",
          "midi": 35,
          "time": 41.244089687499965,
          "velocity": 1,
          "duration": 0.06696374999999932
        },
        {
          "name": "D2",
          "midi": 38,
          "time": 41.244089687499965,
          "velocity": 0.937007874015748,
          "duration": 0.06696374999999932
        },
        {
          "name": "D#3",
          "midi": 51,
          "time": 41.244089687499965,
          "velocity": 0.8188976377952756,
          "duration": 0.06696374999999932
        },
        {
          "name": "B1",
          "midi": 35,
          "time": 41.51194468749996,
          "velocity": 1,
          "duration": 0.06696374999999932
        },
        {
          "name": "D#3",
          "midi": 51,
          "time": 41.51194468749996,
          "velocity": 0.6614173228346457,
          "duration": 0.06696374999999932
        },
        {
          "name": "B1",
          "midi": 35,
          "time": 41.77979968749996,
          "velocity": 1,
          "duration": 0.06696374999999932
        },
        {
          "name": "D2",
          "midi": 38,
          "time": 41.77979968749996,
          "velocity": 0.952755905511811,
          "duration": 0.06696374999999932
        },
        {
          "name": "D#3",
          "midi": 51,
          "time": 41.77979968749996,
          "velocity": 0.8188976377952756,
          "duration": 0.06696374999999932
        },
        {
          "name": "B1",
          "midi": 35,
          "time": 42.04765468749996,
          "velocity": 1,
          "duration": 0.06696374999999932
        },
        {
          "name": "D#3",
          "midi": 51,
          "time": 42.04765468749996,
          "velocity": 0.7165354330708661,
          "duration": 0.06696374999999932
        },
        {
          "name": "B1",
          "midi": 35,
          "time": 42.315509687499954,
          "velocity": 1,
          "duration": 0.06696374999999932
        },
        {
          "name": "D2",
          "midi": 38,
          "time": 42.315509687499954,
          "velocity": 0.952755905511811,
          "duration": 0.06696374999999932
        },
        {
          "name": "D2",
          "midi": 38,
          "time": 42.44943718749995,
          "velocity": 0.952755905511811,
          "duration": 0.06696374999999932
        },
        {
          "name": "B1",
          "midi": 35,
          "time": 42.58336468749995,
          "velocity": 1,
          "duration": 0.06696374999999932
        },
        {
          "name": "D2",
          "midi": 38,
          "time": 42.58336468749995,
          "velocity": 0.9448818897637795,
          "duration": 0.06696374999999932
        },
        {
          "name": "D2",
          "midi": 38,
          "time": 42.71729218749995,
          "velocity": 0.9763779527559056,
          "duration": 0.06696374999999932
        },
        {
          "name": "C#3",
          "midi": 49,
          "time": 42.85121968749995,
          "velocity": 0.984251968503937,
          "duration": 0.06696374999999932
        },
        {
          "name": "B1",
          "midi": 35,
          "time": 42.85121968749995,
          "velocity": 1,
          "duration": 0.06696374999999932
        },
        {
          "name": "D#2",
          "midi": 39,
          "time": 42.85121968749995,
          "velocity": 0.5511811023622047,
          "duration": 0.06696374999999932
        },
        {
          "name": "D2",
          "midi": 38,
          "time": 43.38692968749995,
          "velocity": 0.9606299212598425,
          "duration": 0.06696374999999932
        },
        {
          "name": "F#2",
          "midi": 42,
          "time": 43.38692968749995,
          "velocity": 0.7086614173228346,
          "duration": 0.06696374999999932
        },
        {
          "name": "D#2",
          "midi": 39,
          "time": 43.38692968749995,
          "velocity": 0.5511811023622047,
          "duration": 0.06696374999999932
        },
        {
          "name": "F#2",
          "midi": 42,
          "time": 43.65478468749995,
          "velocity": 0.6062992125984252,
          "duration": 0.06696374999999932
        },
        {
          "name": "B1",
          "midi": 35,
          "time": 43.922639687499945,
          "velocity": 1,
          "duration": 0.06696374999999932
        },
        {
          "name": "F#2",
          "midi": 42,
          "time": 43.922639687499945,
          "velocity": 0.7086614173228346,
          "duration": 0.06696374999999932
        },
        {
          "name": "D#2",
          "midi": 39,
          "time": 43.922639687499945,
          "velocity": 0.5590551181102362,
          "duration": 0.06696374999999932
        },
        {
          "name": "B1",
          "midi": 35,
          "time": 44.19049468749994,
          "velocity": 1,
          "duration": 0.06696374999999932
        },
        {
          "name": "F#2",
          "midi": 42,
          "time": 44.19049468749994,
          "velocity": 0.6062992125984252,
          "duration": 0.06696374999999932
        },
        {
          "name": "D2",
          "midi": 38,
          "time": 44.45834968749994,
          "velocity": 0.9606299212598425,
          "duration": 0.06696374999999932
        },
        {
          "name": "F#2",
          "midi": 42,
          "time": 44.45834968749994,
          "velocity": 0.7086614173228346,
          "duration": 0.06696374999999932
        },
        {
          "name": "D#2",
          "midi": 39,
          "time": 44.45834968749994,
          "velocity": 0.5511811023622047,
          "duration": 0.06696374999999932
        },
        {
          "name": "F#2",
          "midi": 42,
          "time": 44.72620468749994,
          "velocity": 0.6062992125984252,
          "duration": 0.06696374999999932
        },
        {
          "name": "B1",
          "midi": 35,
          "time": 44.994059687499934,
          "velocity": 1,
          "duration": 0.06696374999999932
        },
        {
          "name": "F#2",
          "midi": 42,
          "time": 44.994059687499934,
          "velocity": 0.7086614173228346,
          "duration": 0.06696374999999932
        },
        {
          "name": "D#2",
          "midi": 39,
          "time": 44.994059687499934,
          "velocity": 0.5511811023622047,
          "duration": 0.06696374999999932
        },
        {
          "name": "F#2",
          "midi": 42,
          "time": 45.26191468749993,
          "velocity": 0.6062992125984252,
          "duration": 0.06696374999999932
        },
        {
          "name": "B1",
          "midi": 35,
          "time": 45.39584218749993,
          "velocity": 1,
          "duration": 0.06696374999999932
        },
        {
          "name": "D2",
          "midi": 38,
          "time": 45.52976968749993,
          "velocity": 0.9606299212598425,
          "duration": 0.06696374999999932
        },
        {
          "name": "F#2",
          "midi": 42,
          "time": 45.52976968749993,
          "velocity": 0.7086614173228346,
          "duration": 0.06696374999999932
        },
        {
          "name": "D#2",
          "midi": 39,
          "time": 45.52976968749993,
          "velocity": 0.5590551181102362,
          "duration": 0.06696374999999932
        },
        {
          "name": "B1",
          "midi": 35,
          "time": 45.797624687499926,
          "velocity": 1,
          "duration": 0.06696374999999932
        },
        {
          "name": "F#2",
          "midi": 42,
          "time": 45.797624687499926,
          "velocity": 0.5826771653543307,
          "duration": 0.06696374999999932
        },
        {
          "name": "D2",
          "midi": 38,
          "time": 46.06547968749992,
          "velocity": 0.9606299212598425,
          "duration": 0.06696374999999932
        },
        {
          "name": "F#2",
          "midi": 42,
          "time": 46.06547968749992,
          "velocity": 0.7086614173228346,
          "duration": 0.06696374999999932
        },
        {
          "name": "D#2",
          "midi": 39,
          "time": 46.06547968749992,
          "velocity": 0.5354330708661418,
          "duration": 0.06696374999999932
        },
        {
          "name": "B1",
          "midi": 35,
          "time": 46.33333468749992,
          "velocity": 1,
          "duration": 0.06696374999999932
        },
        {
          "name": "F#2",
          "midi": 42,
          "time": 46.33333468749992,
          "velocity": 0.5669291338582677,
          "duration": 0.06696374999999932
        },
        {
          "name": "B1",
          "midi": 35,
          "time": 46.46726218749992,
          "velocity": 1,
          "duration": 0.06696374999999932
        },
        {
          "name": "D2",
          "midi": 38,
          "time": 46.60118968749992,
          "velocity": 0.9606299212598425,
          "duration": 0.06696374999999932
        },
        {
          "name": "F#2",
          "midi": 42,
          "time": 46.60118968749992,
          "velocity": 0.7086614173228346,
          "duration": 0.06696374999999932
        },
        {
          "name": "D#2",
          "midi": 39,
          "time": 46.60118968749992,
          "velocity": 0.5511811023622047,
          "duration": 0.06696374999999932
        },
        {
          "name": "B1",
          "midi": 35,
          "time": 46.869044687499915,
          "velocity": 1,
          "duration": 0.06696374999999932
        },
        {
          "name": "F#2",
          "midi": 42,
          "time": 46.869044687499915,
          "velocity": 0.5826771653543307,
          "duration": 0.06696374999999932
        },
        {
          "name": "B1",
          "midi": 35,
          "time": 47.13689968749991,
          "velocity": 1,
          "duration": 0.06696374999999932
        },
        {
          "name": "F#2",
          "midi": 42,
          "time": 47.13689968749991,
          "velocity": 0.7086614173228346,
          "duration": 0.06696374999999932
        },
        {
          "name": "D#2",
          "midi": 39,
          "time": 47.13689968749991,
          "velocity": 0.5511811023622047,
          "duration": 0.06696374999999932
        },
        {
          "name": "F#2",
          "midi": 42,
          "time": 47.40475468749991,
          "velocity": 0.5669291338582677,
          "duration": 0.06696374999999932
        },
        {
          "name": "F#2",
          "midi": 42,
          "time": 47.67260968749991,
          "velocity": 0.7086614173228346,
          "duration": 0.06696374999999932
        },
        {
          "name": "D2",
          "midi": 38,
          "time": 47.67260968749991,
          "velocity": 0.9606299212598425,
          "duration": 0.06696374999999932
        },
        {
          "name": "D#2",
          "midi": 39,
          "time": 47.67260968749991,
          "velocity": 0.5511811023622047,
          "duration": 0.06696374999999932
        },
        {
          "name": "F#2",
          "midi": 42,
          "time": 47.940464687499905,
          "velocity": 0.5590551181102362,
          "duration": 0.06696374999999932
        },
        {
          "name": "F#2",
          "midi": 42,
          "time": 48.2083196874999,
          "velocity": 0.7086614173228346,
          "duration": 0.06696374999999932
        },
        {
          "name": "B1",
          "midi": 35,
          "time": 48.2083196874999,
          "velocity": 1,
          "duration": 0.06696374999999932
        },
        {
          "name": "D#2",
          "midi": 39,
          "time": 48.2083196874999,
          "velocity": 0.5511811023622047,
          "duration": 0.06696374999999932
        },
        {
          "name": "F#2",
          "midi": 42,
          "time": 48.4761746874999,
          "velocity": 0.5590551181102362,
          "duration": 0.06696374999999932
        },
        {
          "name": "B1",
          "midi": 35,
          "time": 48.4761746874999,
          "velocity": 1,
          "duration": 0.06696374999999932
        },
        {
          "name": "F#2",
          "midi": 42,
          "time": 48.744029687499896,
          "velocity": 0.7086614173228346,
          "duration": 0.06696374999999932
        },
        {
          "name": "D2",
          "midi": 38,
          "time": 48.744029687499896,
          "velocity": 0.9606299212598425,
          "duration": 0.06696374999999932
        },
        {
          "name": "D#2",
          "midi": 39,
          "time": 48.744029687499896,
          "velocity": 0.5590551181102362,
          "duration": 0.06696374999999932
        },
        {
          "name": "F#2",
          "midi": 42,
          "time": 49.011884687499894,
          "velocity": 0.5590551181102362,
          "duration": 0.06696374999999932
        },
        {
          "name": "F#2",
          "midi": 42,
          "time": 49.27973968749989,
          "velocity": 0.7086614173228346,
          "duration": 0.06696374999999932
        },
        {
          "name": "B1",
          "midi": 35,
          "time": 49.27973968749989,
          "velocity": 1,
          "duration": 0.06696374999999932
        },
        {
          "name": "D#2",
          "midi": 39,
          "time": 49.27973968749989,
          "velocity": 0.5354330708661418,
          "duration": 0.06696374999999932
        },
        {
          "name": "F#2",
          "midi": 42,
          "time": 49.54759468749989,
          "velocity": 0.5433070866141733,
          "duration": 0.06696374999999932
        },
        {
          "name": "B1",
          "midi": 35,
          "time": 49.68152218749989,
          "velocity": 1,
          "duration": 0.06696374999999932
        },
        {
          "name": "F#2",
          "midi": 42,
          "time": 49.815449687499886,
          "velocity": 0.7086614173228346,
          "duration": 0.06696374999999932
        },
        {
          "name": "D2",
          "midi": 38,
          "time": 49.815449687499886,
          "velocity": 0.9606299212598425,
          "duration": 0.06696374999999932
        },
        {
          "name": "D#2",
          "midi": 39,
          "time": 49.815449687499886,
          "velocity": 0.5511811023622047,
          "duration": 0.06696374999999932
        },
        {
          "name": "F#2",
          "midi": 42,
          "time": 50.08330468749988,
          "velocity": 0.5590551181102362,
          "duration": 0.06696374999999932
        },
        {
          "name": "B1",
          "midi": 35,
          "time": 50.08330468749988,
          "velocity": 1,
          "duration": 0.06696374999999932
        },
        {
          "name": "D2",
          "midi": 38,
          "time": 50.35115968749988,
          "velocity": 0.9606299212598425,
          "duration": 0.06696374999999932
        },
        {
          "name": "D#2",
          "midi": 39,
          "time": 50.35115968749988,
          "velocity": 0.5511811023622047,
          "duration": 0.06696374999999932
        },
        {
          "name": "D2",
          "midi": 38,
          "time": 50.48508718749988,
          "velocity": 0.9763779527559056,
          "duration": 0.06696374999999932
        },
        {
          "name": "B1",
          "midi": 35,
          "time": 50.61901468749988,
          "velocity": 1,
          "duration": 0.06696374999999932
        },
        {
          "name": "D2",
          "midi": 38,
          "time": 50.886869687499875,
          "velocity": 0.9606299212598425,
          "duration": 0.06696374999999932
        },
        {
          "name": "D#2",
          "midi": 39,
          "time": 50.886869687499875,
          "velocity": 0.5511811023622047,
          "duration": 0.06696374999999932
        },
        {
          "name": "D2",
          "midi": 38,
          "time": 51.02079718749987,
          "velocity": 0.9763779527559056,
          "duration": 0.06696374999999932
        },
        {
          "name": "D2",
          "midi": 38,
          "time": 51.15472468749987,
          "velocity": 0.9606299212598425,
          "duration": 0.06696374999999932
        },
        {
          "name": "D2",
          "midi": 38,
          "time": 51.28865218749987,
          "velocity": 0.9763779527559056,
          "duration": 0.06696374999999932
        },
        {
          "name": "C#3",
          "midi": 49,
          "time": 51.42257968749987,
          "velocity": 0.984251968503937,
          "duration": 0.06696374999999932
        },
        {
          "name": "B1",
          "midi": 35,
          "time": 51.42257968749987,
          "velocity": 1,
          "duration": 0.06696374999999932
        },
        {
          "name": "D#2",
          "midi": 39,
          "time": 51.42257968749987,
          "velocity": 0.5511811023622047,
          "duration": 0.06696374999999932
        },
        {
          "name": "D2",
          "midi": 38,
          "time": 51.95828968749987,
          "velocity": 0.9606299212598425,
          "duration": 0.06696374999999932
        },
        {
          "name": "F#2",
          "midi": 42,
          "time": 51.95828968749987,
          "velocity": 0.7086614173228346,
          "duration": 0.06696374999999932
        },
        {
          "name": "D#2",
          "midi": 39,
          "time": 51.95828968749987,
          "velocity": 0.5511811023622047,
          "duration": 0.06696374999999932
        },
        {
          "name": "F#2",
          "midi": 42,
          "time": 52.22614468749987,
          "velocity": 0.5669291338582677,
          "duration": 0.06696374999999932
        },
        {
          "name": "B1",
          "midi": 35,
          "time": 52.493999687499866,
          "velocity": 1,
          "duration": 0.06696374999999932
        },
        {
          "name": "F#2",
          "midi": 42,
          "time": 52.493999687499866,
          "velocity": 0.7086614173228346,
          "duration": 0.06696374999999932
        },
        {
          "name": "D#2",
          "midi": 39,
          "time": 52.493999687499866,
          "velocity": 0.5590551181102362,
          "duration": 0.06696374999999932
        },
        {
          "name": "B1",
          "midi": 35,
          "time": 52.76185468749986,
          "velocity": 1,
          "duration": 0.06696374999999932
        },
        {
          "name": "F#2",
          "midi": 42,
          "time": 52.76185468749986,
          "velocity": 0.5905511811023622,
          "duration": 0.06696374999999932
        },
        {
          "name": "D2",
          "midi": 38,
          "time": 53.02970968749986,
          "velocity": 0.9606299212598425,
          "duration": 0.06696374999999932
        },
        {
          "name": "F#2",
          "midi": 42,
          "time": 53.02970968749986,
          "velocity": 0.7086614173228346,
          "duration": 0.06696374999999932
        },
        {
          "name": "D#2",
          "midi": 39,
          "time": 53.02970968749986,
          "velocity": 0.5354330708661418,
          "duration": 0.06696374999999932
        },
        {
          "name": "F#2",
          "midi": 42,
          "time": 53.29756468749986,
          "velocity": 0.5905511811023622,
          "duration": 0.06696374999999932
        },
        {
          "name": "B1",
          "midi": 35,
          "time": 53.565419687499855,
          "velocity": 1,
          "duration": 0.06696374999999932
        },
        {
          "name": "F#2",
          "midi": 42,
          "time": 53.565419687499855,
          "velocity": 0.7086614173228346,
          "duration": 0.06696374999999932
        },
        {
          "name": "D#2",
          "midi": 39,
          "time": 53.565419687499855,
          "velocity": 0.5511811023622047,
          "duration": 0.06696374999999932
        },
        {
          "name": "F#2",
          "midi": 42,
          "time": 53.83327468749985,
          "velocity": 0.6062992125984252,
          "duration": 0.06696374999999932
        },
        {
          "name": "B1",
          "midi": 35,
          "time": 53.96720218749985,
          "velocity": 1,
          "duration": 0.06696374999999932
        },
        {
          "name": "D2",
          "midi": 38,
          "time": 54.10112968749985,
          "velocity": 0.9606299212598425,
          "duration": 0.06696374999999932
        },
        {
          "name": "F#2",
          "midi": 42,
          "time": 54.10112968749985,
          "velocity": 0.7086614173228346,
          "duration": 0.06696374999999932
        },
        {
          "name": "D#2",
          "midi": 39,
          "time": 54.10112968749985,
          "velocity": 0.5511811023622047,
          "duration": 0.06696374999999932
        },
        {
          "name": "B1",
          "midi": 35,
          "time": 54.36898468749985,
          "velocity": 1,
          "duration": 0.06696374999999932
        },
        {
          "name": "F#2",
          "midi": 42,
          "time": 54.36898468749985,
          "velocity": 0.5905511811023622,
          "duration": 0.06696374999999932
        },
        {
          "name": "D2",
          "midi": 38,
          "time": 54.636839687499844,
          "velocity": 0.9606299212598425,
          "duration": 0.06696374999999932
        },
        {
          "name": "F#2",
          "midi": 42,
          "time": 54.636839687499844,
          "velocity": 0.7086614173228346,
          "duration": 0.06696374999999932
        },
        {
          "name": "D#2",
          "midi": 39,
          "time": 54.636839687499844,
          "velocity": 0.5590551181102362,
          "duration": 0.06696374999999932
        },
        {
          "name": "B1",
          "midi": 35,
          "time": 54.90469468749984,
          "velocity": 1,
          "duration": 0.06696374999999932
        },
        {
          "name": "F#2",
          "midi": 42,
          "time": 54.90469468749984,
          "velocity": 0.6062992125984252,
          "duration": 0.06696374999999932
        },
        {
          "name": "B1",
          "midi": 35,
          "time": 55.03862218749984,
          "velocity": 1,
          "duration": 0.06696374999999932
        },
        {
          "name": "D2",
          "midi": 38,
          "time": 55.17254968749984,
          "velocity": 0.9606299212598425,
          "duration": 0.06696374999999932
        },
        {
          "name": "F#2",
          "midi": 42,
          "time": 55.17254968749984,
          "velocity": 0.7086614173228346,
          "duration": 0.06696374999999932
        },
        {
          "name": "D#2",
          "midi": 39,
          "time": 55.17254968749984,
          "velocity": 0.5354330708661418,
          "duration": 0.06696374999999932
        },
        {
          "name": "B1",
          "midi": 35,
          "time": 55.440404687499836,
          "velocity": 1,
          "duration": 0.06696374999999932
        },
        {
          "name": "F#2",
          "midi": 42,
          "time": 55.440404687499836,
          "velocity": 0.5826771653543307,
          "duration": 0.06696374999999932
        },
        {
          "name": "B1",
          "midi": 35,
          "time": 55.70825968749983,
          "velocity": 1,
          "duration": 0.06696374999999932
        },
        {
          "name": "F#2",
          "midi": 42,
          "time": 55.70825968749983,
          "velocity": 0.7086614173228346,
          "duration": 0.06696374999999932
        },
        {
          "name": "D#2",
          "midi": 39,
          "time": 55.70825968749983,
          "velocity": 0.5433070866141733,
          "duration": 0.06696374999999932
        },
        {
          "name": "F#2",
          "midi": 42,
          "time": 55.97611468749983,
          "velocity": 0.5905511811023622,
          "duration": 0.06696374999999932
        },
        {
          "name": "F#2",
          "midi": 42,
          "time": 56.24396968749983,
          "velocity": 0.7086614173228346,
          "duration": 0.06696374999999932
        },
        {
          "name": "D2",
          "midi": 38,
          "time": 56.24396968749983,
          "velocity": 0.9606299212598425,
          "duration": 0.06696374999999932
        },
        {
          "name": "D#2",
          "midi": 39,
          "time": 56.24396968749983,
          "velocity": 0.5590551181102362,
          "duration": 0.06696374999999932
        },
        {
          "name": "F#2",
          "midi": 42,
          "time": 56.511824687499825,
          "velocity": 0.5905511811023622,
          "duration": 0.06696374999999932
        },
        {
          "name": "F#2",
          "midi": 42,
          "time": 56.77967968749982,
          "velocity": 0.7086614173228346,
          "duration": 0.06696374999999932
        },
        {
          "name": "B1",
          "midi": 35,
          "time": 56.77967968749982,
          "velocity": 1,
          "duration": 0.06696374999999932
        },
        {
          "name": "D#2",
          "midi": 39,
          "time": 56.77967968749982,
          "velocity": 0.5433070866141733,
          "duration": 0.06696374999999932
        },
        {
          "name": "F#2",
          "midi": 42,
          "time": 57.04753468749982,
          "velocity": 0.5905511811023622,
          "duration": 0.06696374999999932
        },
        {
          "name": "B1",
          "midi": 35,
          "time": 57.04753468749982,
          "velocity": 1,
          "duration": 0.06696374999999932
        },
        {
          "name": "F#2",
          "midi": 42,
          "time": 57.31538968749982,
          "velocity": 0.7086614173228346,
          "duration": 0.06696374999999932
        },
        {
          "name": "D2",
          "midi": 38,
          "time": 57.31538968749982,
          "velocity": 0.9606299212598425,
          "duration": 0.06696374999999932
        },
        {
          "name": "D#2",
          "midi": 39,
          "time": 57.31538968749982,
          "velocity": 0.5433070866141733,
          "duration": 0.06696374999999932
        },
        {
          "name": "F#2",
          "midi": 42,
          "time": 57.583244687499814,
          "velocity": 0.5826771653543307,
          "duration": 0.06696374999999932
        },
        {
          "name": "F#2",
          "midi": 42,
          "time": 57.85109968749981,
          "velocity": 0.7086614173228346,
          "duration": 0.06696374999999932
        },
        {
          "name": "B1",
          "midi": 35,
          "time": 57.85109968749981,
          "velocity": 1,
          "duration": 0.06696374999999932
        },
        {
          "name": "D#2",
          "midi": 39,
          "time": 57.85109968749981,
          "velocity": 0.5433070866141733,
          "duration": 0.06696374999999932
        },
        {
          "name": "F#2",
          "midi": 42,
          "time": 58.11895468749981,
          "velocity": 0.5669291338582677,
          "duration": 0.06696374999999932
        },
        {
          "name": "B1",
          "midi": 35,
          "time": 58.25288218749981,
          "velocity": 1,
          "duration": 0.06696374999999932
        },
        {
          "name": "F#2",
          "midi": 42,
          "time": 58.386809687499806,
          "velocity": 0.7086614173228346,
          "duration": 0.06696374999999932
        },
        {
          "name": "D2",
          "midi": 38,
          "time": 58.386809687499806,
          "velocity": 0.9606299212598425,
          "duration": 0.06696374999999932
        },
        {
          "name": "D#2",
          "midi": 39,
          "time": 58.386809687499806,
          "velocity": 0.5748031496062992,
          "duration": 0.06696374999999932
        },
        {
          "name": "F#2",
          "midi": 42,
          "time": 58.6546646874998,
          "velocity": 0.5669291338582677,
          "duration": 0.06696374999999932
        },
        {
          "name": "B1",
          "midi": 35,
          "time": 58.6546646874998,
          "velocity": 1,
          "duration": 0.06696374999999932
        },
        {
          "name": "B1",
          "midi": 35,
          "time": 58.7885921874998,
          "velocity": 1,
          "duration": 0.06696374999999932
        },
        {
          "name": "D2",
          "midi": 38,
          "time": 58.9225196874998,
          "velocity": 0.9448818897637795,
          "duration": 0.06696374999999932
        },
        {
          "name": "F#2",
          "midi": 42,
          "time": 58.9225196874998,
          "velocity": 0.7086614173228346,
          "duration": 0.06696374999999932
        },
        {
          "name": "D#2",
          "midi": 39,
          "time": 58.9225196874998,
          "velocity": 0.5511811023622047,
          "duration": 0.06696374999999932
        },
        {
          "name": "B1",
          "midi": 35,
          "time": 59.1903746874998,
          "velocity": 1,
          "duration": 0.06696374999999932
        },
        {
          "name": "F#2",
          "midi": 42,
          "time": 59.1903746874998,
          "velocity": 0.5433070866141733,
          "duration": 0.06696374999999932
        },
        {
          "name": "D2",
          "midi": 38,
          "time": 59.458229687499795,
          "velocity": 0.952755905511811,
          "duration": 0.06696374999999932
        },
        {
          "name": "F#2",
          "midi": 42,
          "time": 59.458229687499795,
          "velocity": 0.7086614173228346,
          "duration": 0.06696374999999932
        },
        {
          "name": "D#2",
          "midi": 39,
          "time": 59.458229687499795,
          "velocity": 0.5511811023622047,
          "duration": 0.06696374999999932
        },
        {
          "name": "B1",
          "midi": 35,
          "time": 59.72608468749979,
          "velocity": 1,
          "duration": 0.06696374999999932
        },
        {
          "name": "F#2",
          "midi": 42,
          "time": 59.72608468749979,
          "velocity": 0.5669291338582677,
          "duration": 0.06696374999999932
        },
        {
          "name": "C#3",
          "midi": 49,
          "time": 59.99393968749979,
          "velocity": 0.7716535433070866,
          "duration": 0.06696374999999932
        },
        {
          "name": "B1",
          "midi": 35,
          "time": 59.99393968749979,
          "velocity": 1,
          "duration": 0.06696374999999932
        },
        {
          "name": "D#2",
          "midi": 39,
          "time": 59.99393968749979,
          "velocity": 0.5590551181102362,
          "duration": 0.06696374999999932
        },
        {
          "name": "D2",
          "midi": 38,
          "time": 60.52964968749979,
          "velocity": 0.9606299212598425,
          "duration": 0.06696374999999932
        },
        {
          "name": "F#2",
          "midi": 42,
          "time": 60.52964968749979,
          "velocity": 0.7086614173228346,
          "duration": 0.06696374999999932
        },
        {
          "name": "D#2",
          "midi": 39,
          "time": 60.52964968749979,
          "velocity": 0.5354330708661418,
          "duration": 0.06696374999999932
        },
        {
          "name": "F#2",
          "midi": 42,
          "time": 60.79750468749979,
          "velocity": 0.5590551181102362,
          "duration": 0.06696374999999932
        },
        {
          "name": "B1",
          "midi": 35,
          "time": 61.065359687499786,
          "velocity": 1,
          "duration": 0.06696374999999932
        },
        {
          "name": "F#2",
          "midi": 42,
          "time": 61.065359687499786,
          "velocity": 0.7086614173228346,
          "duration": 0.06696374999999932
        },
        {
          "name": "D#2",
          "midi": 39,
          "time": 61.065359687499786,
          "velocity": 0.5433070866141733,
          "duration": 0.06696374999999932
        },
        {
          "name": "B1",
          "midi": 35,
          "time": 61.33321468749978,
          "velocity": 1,
          "duration": 0.06696374999999932
        },
        {
          "name": "F#2",
          "midi": 42,
          "time": 61.33321468749978,
          "velocity": 0.5826771653543307,
          "duration": 0.06696374999999932
        },
        {
          "name": "D2",
          "midi": 38,
          "time": 61.60106968749978,
          "velocity": 0.9606299212598425,
          "duration": 0.06696374999999932
        },
        {
          "name": "F#2",
          "midi": 42,
          "time": 61.60106968749978,
          "velocity": 0.7086614173228346,
          "duration": 0.06696374999999932
        },
        {
          "name": "D#2",
          "midi": 39,
          "time": 61.60106968749978,
          "velocity": 0.5590551181102362,
          "duration": 0.06696374999999932
        },
        {
          "name": "F#2",
          "midi": 42,
          "time": 61.86892468749978,
          "velocity": 0.5590551181102362,
          "duration": 0.06696374999999932
        },
        {
          "name": "B1",
          "midi": 35,
          "time": 62.136779687499775,
          "velocity": 1,
          "duration": 0.06696374999999932
        },
        {
          "name": "F#2",
          "midi": 42,
          "time": 62.136779687499775,
          "velocity": 0.7086614173228346,
          "duration": 0.06696374999999932
        },
        {
          "name": "D#2",
          "midi": 39,
          "time": 62.136779687499775,
          "velocity": 0.5433070866141733,
          "duration": 0.06696374999999932
        },
        {
          "name": "F#2",
          "midi": 42,
          "time": 62.40463468749977,
          "velocity": 0.5669291338582677,
          "duration": 0.06696374999999932
        },
        {
          "name": "B1",
          "midi": 35,
          "time": 62.53856218749977,
          "velocity": 1,
          "duration": 0.06696374999999932
        },
        {
          "name": "D2",
          "midi": 38,
          "time": 62.67248968749977,
          "velocity": 0.9606299212598425,
          "duration": 0.06696374999999932
        },
        {
          "name": "F#2",
          "midi": 42,
          "time": 62.67248968749977,
          "velocity": 0.7086614173228346,
          "duration": 0.06696374999999932
        },
        {
          "name": "D#2",
          "midi": 39,
          "time": 62.67248968749977,
          "velocity": 0.5433070866141733,
          "duration": 0.06696374999999932
        },
        {
          "name": "B1",
          "midi": 35,
          "time": 62.94034468749977,
          "velocity": 1,
          "duration": 0.06696374999999932
        },
        {
          "name": "F#2",
          "midi": 42,
          "time": 62.94034468749977,
          "velocity": 0.5826771653543307,
          "duration": 0.06696374999999932
        },
        {
          "name": "D2",
          "midi": 38,
          "time": 63.208199687499764,
          "velocity": 0.9606299212598425,
          "duration": 0.06696374999999932
        },
        {
          "name": "F#2",
          "midi": 42,
          "time": 63.208199687499764,
          "velocity": 0.7086614173228346,
          "duration": 0.06696374999999932
        },
        {
          "name": "D#2",
          "midi": 39,
          "time": 63.208199687499764,
          "velocity": 0.5433070866141733,
          "duration": 0.06696374999999932
        },
        {
          "name": "B1",
          "midi": 35,
          "time": 63.47605468749976,
          "velocity": 1,
          "duration": 0.06696374999999932
        },
        {
          "name": "F#2",
          "midi": 42,
          "time": 63.47605468749976,
          "velocity": 0.5826771653543307,
          "duration": 0.06696374999999932
        },
        {
          "name": "B1",
          "midi": 35,
          "time": 63.60998218749976,
          "velocity": 1,
          "duration": 0.06696374999999932
        },
        {
          "name": "D2",
          "midi": 38,
          "time": 63.74390968749976,
          "velocity": 0.9606299212598425,
          "duration": 0.06696374999999932
        },
        {
          "name": "F#2",
          "midi": 42,
          "time": 63.74390968749976,
          "velocity": 0.7086614173228346,
          "duration": 0.06696374999999932
        },
        {
          "name": "D#2",
          "midi": 39,
          "time": 63.74390968749976,
          "velocity": 0.5748031496062992,
          "duration": 0.06696374999999932
        },
        {
          "name": "B1",
          "midi": 35,
          "time": 64.01176468749976,
          "velocity": 1,
          "duration": 0.06696374999999932
        },
        {
          "name": "F#2",
          "midi": 42,
          "time": 64.01176468749976,
          "velocity": 0.5826771653543307,
          "duration": 0.06696374999999932
        },
        {
          "name": "B1",
          "midi": 35,
          "time": 64.27961968749976,
          "velocity": 1,
          "duration": 0.06696374999999932
        },
        {
          "name": "F#2",
          "midi": 42,
          "time": 64.27961968749976,
          "velocity": 0.7086614173228346,
          "duration": 0.06696374999999932
        },
        {
          "name": "D#2",
          "midi": 39,
          "time": 64.27961968749976,
          "velocity": 0.5511811023622047,
          "duration": 0.06696374999999932
        },
        {
          "name": "F#2",
          "midi": 42,
          "time": 64.54747468749976,
          "velocity": 0.5433070866141733,
          "duration": 0.06696374999999932
        },
        {
          "name": "F#2",
          "midi": 42,
          "time": 64.81532968749976,
          "velocity": 0.7086614173228346,
          "duration": 0.06696374999999932
        },
        {
          "name": "D2",
          "midi": 38,
          "time": 64.81532968749976,
          "velocity": 0.9606299212598425,
          "duration": 0.06696374999999932
        },
        {
          "name": "D#2",
          "midi": 39,
          "time": 64.81532968749976,
          "velocity": 0.5511811023622047,
          "duration": 0.06696374999999932
        },
        {
          "name": "F#2",
          "midi": 42,
          "time": 65.08318468749975,
          "velocity": 0.6062992125984252,
          "duration": 0.06696374999999932
        },
        {
          "name": "F#2",
          "midi": 42,
          "time": 65.35103968749975,
          "velocity": 0.7086614173228346,
          "duration": 0.06696374999999932
        },
        {
          "name": "B1",
          "midi": 35,
          "time": 65.35103968749975,
          "velocity": 1,
          "duration": 0.06696374999999932
        },
        {
          "name": "D#2",
          "midi": 39,
          "time": 65.35103968749975,
          "velocity": 0.5590551181102362,
          "duration": 0.06696374999999932
        },
        {
          "name": "F#2",
          "midi": 42,
          "time": 65.61889468749975,
          "velocity": 0.6062992125984252,
          "duration": 0.06696374999999932
        },
        {
          "name": "B1",
          "midi": 35,
          "time": 65.61889468749975,
          "velocity": 1,
          "duration": 0.06696374999999932
        },
        {
          "name": "F#2",
          "midi": 42,
          "time": 65.88674968749974,
          "velocity": 0.7086614173228346,
          "duration": 0.06696374999999932
        },
        {
          "name": "D2",
          "midi": 38,
          "time": 65.88674968749974,
          "velocity": 0.9606299212598425,
          "duration": 0.06696374999999932
        },
        {
          "name": "D#2",
          "midi": 39,
          "time": 65.88674968749974,
          "velocity": 0.5354330708661418,
          "duration": 0.06696374999999932
        },
        {
          "name": "F#2",
          "midi": 42,
          "time": 66.15460468749974,
          "velocity": 0.5905511811023622,
          "duration": 0.06696374999999932
        },
        {
          "name": "B1",
          "midi": 35,
          "time": 66.42245968749974,
          "velocity": 1,
          "duration": 0.06696374999999932
        },
        {
          "name": "C#3",
          "midi": 49,
          "time": 66.42245968749974,
          "velocity": 0.8661417322834646,
          "duration": 0.06696374999999932
        },
        {
          "name": "D2",
          "midi": 38,
          "time": 67.76173468749974,
          "velocity": 0.952755905511811,
          "duration": 0.06696374999999932
        },
        {
          "name": "G2",
          "midi": 43,
          "time": 68.02958968749974,
          "velocity": 0.7244094488188977,
          "duration": 0.06696374999999932
        },
        {
          "name": "F2",
          "midi": 41,
          "time": 68.29744468749973,
          "velocity": 0.7165354330708661,
          "duration": 0.06696374999999932
        },
        {
          "name": "B1",
          "midi": 35,
          "time": 68.56529968749973,
          "velocity": 1,
          "duration": 0.06696374999999932
        },
        {
          "name": "C#3",
          "midi": 49,
          "time": 68.56529968749973,
          "velocity": 0.7086614173228346,
          "duration": 0.06696374999999932
        },
        {
          "name": "D#3",
          "midi": 51,
          "time": 68.83315468749973,
          "velocity": 0.5905511811023622,
          "duration": 0.06696374999999932
        },
        {
          "name": "C#2",
          "midi": 37,
          "time": 69.10100968749973,
          "velocity": 0.8110236220472441,
          "duration": 0.06696374999999932
        },
        {
          "name": "D#3",
          "midi": 51,
          "time": 69.10100968749973,
          "velocity": 0.6929133858267716,
          "duration": 0.06696374999999932
        },
        {
          "name": "D#3",
          "midi": 51,
          "time": 69.36886468749972,
          "velocity": 0.6220472440944882,
          "duration": 0.06696374999999932
        },
        {
          "name": "B1",
          "midi": 35,
          "time": 69.63671968749972,
          "velocity": 1,
          "duration": 0.06696374999999932
        },
        {
          "name": "D#3",
          "midi": 51,
          "time": 69.63671968749972,
          "velocity": 0.6929133858267716,
          "duration": 0.06696374999999932
        },
        {
          "name": "B1",
          "midi": 35,
          "time": 69.90457468749972,
          "velocity": 1,
          "duration": 0.06696374999999932
        },
        {
          "name": "D#3",
          "midi": 51,
          "time": 69.90457468749972,
          "velocity": 0.5826771653543307,
          "duration": 0.06696374999999932
        },
        {
          "name": "C#2",
          "midi": 37,
          "time": 70.17242968749972,
          "velocity": 0.8031496062992126,
          "duration": 0.06696374999999932
        },
        {
          "name": "D#3",
          "midi": 51,
          "time": 70.17242968749972,
          "velocity": 0.6929133858267716,
          "duration": 0.06696374999999932
        },
        {
          "name": "D#3",
          "midi": 51,
          "time": 70.44028468749971,
          "velocity": 0.5590551181102362,
          "duration": 0.06696374999999932
        },
        {
          "name": "B1",
          "midi": 35,
          "time": 70.70813968749971,
          "velocity": 1,
          "duration": 0.06696374999999932
        },
        {
          "name": "D#3",
          "midi": 51,
          "time": 70.70813968749971,
          "velocity": 0.6850393700787402,
          "duration": 0.06696374999999932
        },
        {
          "name": "B1",
          "midi": 35,
          "time": 70.9759946874997,
          "velocity": 1,
          "duration": 0.06696374999999932
        },
        {
          "name": "D#3",
          "midi": 51,
          "time": 70.9759946874997,
          "velocity": 0.5826771653543307,
          "duration": 0.06696374999999932
        },
        {
          "name": "C#2",
          "midi": 37,
          "time": 71.2438496874997,
          "velocity": 0.8031496062992126,
          "duration": 0.06696374999999932
        },
        {
          "name": "D#3",
          "midi": 51,
          "time": 71.2438496874997,
          "velocity": 0.6929133858267716,
          "duration": 0.06696374999999932
        },
        {
          "name": "B1",
          "midi": 35,
          "time": 71.5117046874997,
          "velocity": 1,
          "duration": 0.06696374999999932
        },
        {
          "name": "D#3",
          "midi": 51,
          "time": 71.5117046874997,
          "velocity": 0.5826771653543307,
          "duration": 0.06696374999999932
        },
        {
          "name": "D#3",
          "midi": 51,
          "time": 71.7795596874997,
          "velocity": 0.7086614173228346,
          "duration": 0.06696374999999932
        },
        {
          "name": "B1",
          "midi": 35,
          "time": 72.0474146874997,
          "velocity": 1,
          "duration": 0.06696374999999932
        },
        {
          "name": "D#3",
          "midi": 51,
          "time": 72.0474146874997,
          "velocity": 0.5905511811023622,
          "duration": 0.06696374999999932
        },
        {
          "name": "C#2",
          "midi": 37,
          "time": 72.3152696874997,
          "velocity": 0.8110236220472441,
          "duration": 0.06696374999999932
        },
        {
          "name": "D#3",
          "midi": 51,
          "time": 72.3152696874997,
          "velocity": 0.7086614173228346,
          "duration": 0.06696374999999932
        },
        {
          "name": "D#3",
          "midi": 51,
          "time": 72.58312468749969,
          "velocity": 0.5905511811023622,
          "duration": 0.06696374999999932
        },
        {
          "name": "B1",
          "midi": 35,
          "time": 72.85097968749969,
          "velocity": 1,
          "duration": 0.06696374999999932
        },
        {
          "name": "D#3",
          "midi": 51,
          "time": 72.85097968749969,
          "velocity": 0.7086614173228346,
          "duration": 0.06696374999999932
        },
        {
          "name": "B1",
          "midi": 35,
          "time": 73.11883468749969,
          "velocity": 1,
          "duration": 0.06696374999999932
        },
        {
          "name": "D#3",
          "midi": 51,
          "time": 73.11883468749969,
          "velocity": 0.6062992125984252,
          "duration": 0.06696374999999932
        },
        {
          "name": "D2",
          "midi": 38,
          "time": 73.38668968749968,
          "velocity": 0.7874015748031497,
          "duration": 0.06696374999999932
        },
        {
          "name": "D#3",
          "midi": 51,
          "time": 73.38668968749968,
          "velocity": 0.7086614173228346,
          "duration": 0.06696374999999932
        },
        {
          "name": "D#3",
          "midi": 51,
          "time": 73.65454468749968,
          "velocity": 0.5905511811023622,
          "duration": 0.06696374999999932
        },
        {
          "name": "B1",
          "midi": 35,
          "time": 73.92239968749968,
          "velocity": 1,
          "duration": 0.06696374999999932
        },
        {
          "name": "D#3",
          "midi": 51,
          "time": 73.92239968749968,
          "velocity": 0.7086614173228346,
          "duration": 0.06696374999999932
        },
        {
          "name": "B1",
          "midi": 35,
          "time": 74.19025468749967,
          "velocity": 1,
          "duration": 0.06696374999999932
        },
        {
          "name": "D#3",
          "midi": 51,
          "time": 74.19025468749967,
          "velocity": 0.5905511811023622,
          "duration": 0.06696374999999932
        },
        {
          "name": "D2",
          "midi": 38,
          "time": 74.45810968749967,
          "velocity": 0.8503937007874016,
          "duration": 0.06696374999999932
        },
        {
          "name": "D#3",
          "midi": 51,
          "time": 74.45810968749967,
          "velocity": 0.7086614173228346,
          "duration": 0.06696374999999932
        },
        {
          "name": "D#3",
          "midi": 51,
          "time": 74.72596468749967,
          "velocity": 0.5826771653543307,
          "duration": 0.06696374999999932
        },
        {
          "name": "B1",
          "midi": 35,
          "time": 74.99381968749967,
          "velocity": 1,
          "duration": 0.06696374999999932
        },
        {
          "name": "D#3",
          "midi": 51,
          "time": 74.99381968749967,
          "velocity": 0.7086614173228346,
          "duration": 0.06696374999999932
        },
        {
          "name": "B1",
          "midi": 35,
          "time": 75.26167468749966,
          "velocity": 1,
          "duration": 0.06696374999999932
        },
        {
          "name": "D#3",
          "midi": 51,
          "time": 75.26167468749966,
          "velocity": 0.5669291338582677,
          "duration": 0.06696374999999932
        },
        {
          "name": "D2",
          "midi": 38,
          "time": 75.52952968749966,
          "velocity": 0.8976377952755905,
          "duration": 0.06696374999999932
        },
        {
          "name": "D#3",
          "midi": 51,
          "time": 75.52952968749966,
          "velocity": 0.7086614173228346,
          "duration": 0.06696374999999932
        },
        {
          "name": "D#3",
          "midi": 51,
          "time": 75.79738468749966,
          "velocity": 0.5905511811023622,
          "duration": 0.06696374999999932
        },
        {
          "name": "B1",
          "midi": 35,
          "time": 76.06523968749966,
          "velocity": 1,
          "duration": 0.06696374999999932
        },
        {
          "name": "D#3",
          "midi": 51,
          "time": 76.06523968749966,
          "velocity": 0.7086614173228346,
          "duration": 0.06696374999999932
        },
        {
          "name": "B1",
          "midi": 35,
          "time": 76.33309468749965,
          "velocity": 1,
          "duration": 0.06696374999999932
        },
        {
          "name": "D#3",
          "midi": 51,
          "time": 76.33309468749965,
          "velocity": 0.5905511811023622,
          "duration": 0.06696374999999932
        },
        {
          "name": "D2",
          "midi": 38,
          "time": 76.60094968749965,
          "velocity": 0.9448818897637795,
          "duration": 0.06696374999999932
        },
        {
          "name": "D#3",
          "midi": 51,
          "time": 76.60094968749965,
          "velocity": 0.7086614173228346,
          "duration": 0.06696374999999932
        },
        {
          "name": "D#3",
          "midi": 51,
          "time": 76.86880468749965,
          "velocity": 0.6220472440944882,
          "duration": 0.06696374999999932
        },
        {
          "name": "B1",
          "midi": 35,
          "time": 77.13665968749964,
          "velocity": 1,
          "duration": 0.06696374999999932
        },
        {
          "name": "C#3",
          "midi": 49,
          "time": 77.13665968749964,
          "velocity": 0.7086614173228346,
          "duration": 0.06696374999999932
        },
        {
          "name": "B1",
          "midi": 35,
          "time": 77.40451468749964,
          "velocity": 1,
          "duration": 0.06696374999999932
        },
        {
          "name": "D#3",
          "midi": 51,
          "time": 77.40451468749964,
          "velocity": 0.6062992125984252,
          "duration": 0.06696374999999932
        },
        {
          "name": "D2",
          "midi": 38,
          "time": 77.67236968749964,
          "velocity": 0.9448818897637795,
          "duration": 0.06696374999999932
        },
        {
          "name": "D#3",
          "midi": 51,
          "time": 77.67236968749964,
          "velocity": 0.7086614173228346,
          "duration": 0.06696374999999932
        },
        {
          "name": "D#3",
          "midi": 51,
          "time": 77.94022468749964,
          "velocity": 0.5905511811023622,
          "duration": 0.06696374999999932
        },
        {
          "name": "B1",
          "midi": 35,
          "time": 78.20807968749963,
          "velocity": 1,
          "duration": 0.06696374999999932
        },
        {
          "name": "D2",
          "midi": 38,
          "time": 78.20807968749963,
          "velocity": 0.9921259842519685,
          "duration": 0.06696374999999932
        },
        {
          "name": "D#3",
          "midi": 51,
          "time": 78.20807968749963,
          "velocity": 0.7086614173228346,
          "duration": 0.06696374999999932
        },
        {
          "name": "B1",
          "midi": 35,
          "time": 78.47593468749963,
          "velocity": 1,
          "duration": 0.06696374999999932
        },
        {
          "name": "D#3",
          "midi": 51,
          "time": 78.47593468749963,
          "velocity": 0.5826771653543307,
          "duration": 0.06696374999999932
        },
        {
          "name": "D2",
          "midi": 38,
          "time": 78.74378968749963,
          "velocity": 0.9921259842519685,
          "duration": 0.06696374999999932
        },
        {
          "name": "D#3",
          "midi": 51,
          "time": 78.74378968749963,
          "velocity": 0.7086614173228346,
          "duration": 0.06696374999999932
        },
        {
          "name": "D#3",
          "midi": 51,
          "time": 79.01164468749963,
          "velocity": 0.5826771653543307,
          "duration": 0.06696374999999932
        },
        {
          "name": "B1",
          "midi": 35,
          "time": 79.27949968749962,
          "velocity": 1,
          "duration": 0.06696374999999932
        },
        {
          "name": "D2",
          "midi": 38,
          "time": 79.27949968749962,
          "velocity": 0.984251968503937,
          "duration": 0.06696374999999932
        },
        {
          "name": "D#3",
          "midi": 51,
          "time": 79.27949968749962,
          "velocity": 0.7086614173228346,
          "duration": 0.06696374999999932
        },
        {
          "name": "B1",
          "midi": 35,
          "time": 79.54735468749962,
          "velocity": 1,
          "duration": 0.06696374999999932
        },
        {
          "name": "D#3",
          "midi": 51,
          "time": 79.54735468749962,
          "velocity": 0.5826771653543307,
          "duration": 0.06696374999999932
        },
        {
          "name": "D2",
          "midi": 38,
          "time": 79.81520968749962,
          "velocity": 0.984251968503937,
          "duration": 0.06696374999999932
        },
        {
          "name": "D#3",
          "midi": 51,
          "time": 79.81520968749962,
          "velocity": 0.7086614173228346,
          "duration": 0.06696374999999932
        },
        {
          "name": "D2",
          "midi": 38,
          "time": 79.94913718749962,
          "velocity": 0.9921259842519685,
          "duration": 0.06696374999999932
        },
        {
          "name": "B1",
          "midi": 35,
          "time": 80.08306468749961,
          "velocity": 1,
          "duration": 0.06696374999999932
        },
        {
          "name": "D#3",
          "midi": 51,
          "time": 80.08306468749961,
          "velocity": 0.5669291338582677,
          "duration": 0.06696374999999932
        },
        {
          "name": "D2",
          "midi": 38,
          "time": 80.35091968749961,
          "velocity": 0.984251968503937,
          "duration": 0.06696374999999932
        },
        {
          "name": "D#3",
          "midi": 51,
          "time": 80.35091968749961,
          "velocity": 0.7086614173228346,
          "duration": 0.06696374999999932
        },
        {
          "name": "D2",
          "midi": 38,
          "time": 80.61877468749961,
          "velocity": 0.984251968503937,
          "duration": 0.06696374999999932
        },
        {
          "name": "D2",
          "midi": 38,
          "time": 80.8866296874996,
          "velocity": 0.984251968503937,
          "duration": 0.06696374999999932
        },
        {
          "name": "D2",
          "midi": 38,
          "time": 81.0205571874996,
          "velocity": 0.9763779527559056,
          "duration": 0.06696374999999932
        },
        {
          "name": "G2",
          "midi": 43,
          "time": 81.1544846874996,
          "velocity": 0.8031496062992126,
          "duration": 0.06696374999999932
        },
        {
          "name": "G2",
          "midi": 43,
          "time": 81.2884121874996,
          "velocity": 0.8110236220472441,
          "duration": 0.06696374999999932
        },
        {
          "name": "C#3",
          "midi": 49,
          "time": 81.4223396874996,
          "velocity": 0.7086614173228346,
          "duration": 0.06696374999999932
        },
        {
          "name": "B1",
          "midi": 35,
          "time": 81.4223396874996,
          "velocity": 1,
          "duration": 0.06696374999999932
        },
        {
          "name": "D#3",
          "midi": 51,
          "time": 81.6901946874996,
          "velocity": 0.5905511811023622,
          "duration": 0.06696374999999932
        },
        {
          "name": "D2",
          "midi": 38,
          "time": 81.9580496874996,
          "velocity": 0.905511811023622,
          "duration": 0.06696374999999932
        },
        {
          "name": "D#3",
          "midi": 51,
          "time": 81.9580496874996,
          "velocity": 0.7559055118110236,
          "duration": 0.06696374999999932
        },
        {
          "name": "D#3",
          "midi": 51,
          "time": 82.2259046874996,
          "velocity": 0.6220472440944882,
          "duration": 0.06696374999999932
        },
        {
          "name": "B1",
          "midi": 35,
          "time": 82.49375968749959,
          "velocity": 1,
          "duration": 0.06696374999999932
        },
        {
          "name": "D#3",
          "midi": 51,
          "time": 82.49375968749959,
          "velocity": 0.7559055118110236,
          "duration": 0.06696374999999932
        },
        {
          "name": "B1",
          "midi": 35,
          "time": 82.76161468749959,
          "velocity": 1,
          "duration": 0.06696374999999932
        },
        {
          "name": "D#3",
          "midi": 51,
          "time": 82.76161468749959,
          "velocity": 0.6062992125984252,
          "duration": 0.06696374999999932
        },
        {
          "name": "D2",
          "midi": 38,
          "time": 83.02946968749959,
          "velocity": 0.8976377952755905,
          "duration": 0.06696374999999932
        },
        {
          "name": "D#3",
          "midi": 51,
          "time": 83.02946968749959,
          "velocity": 0.7559055118110236,
          "duration": 0.06696374999999932
        },
        {
          "name": "D#3",
          "midi": 51,
          "time": 83.29732468749958,
          "velocity": 0.6062992125984252,
          "duration": 0.06696374999999932
        },
        {
          "name": "B1",
          "midi": 35,
          "time": 83.56517968749958,
          "velocity": 1,
          "duration": 0.06696374999999932
        },
        {
          "name": "D#3",
          "midi": 51,
          "time": 83.56517968749958,
          "velocity": 0.7480314960629921,
          "duration": 0.06696374999999932
        },
        {
          "name": "B1",
          "midi": 35,
          "time": 83.83303468749958,
          "velocity": 1,
          "duration": 0.06696374999999932
        },
        {
          "name": "D#3",
          "midi": 51,
          "time": 83.83303468749958,
          "velocity": 0.5669291338582677,
          "duration": 0.06696374999999932
        },
        {
          "name": "D2",
          "midi": 38,
          "time": 84.10088968749957,
          "velocity": 0.889763779527559,
          "duration": 0.06696374999999932
        },
        {
          "name": "D#3",
          "midi": 51,
          "time": 84.10088968749957,
          "velocity": 0.7086614173228346,
          "duration": 0.06696374999999932
        },
        {
          "name": "D#3",
          "midi": 51,
          "time": 84.36874468749957,
          "velocity": 0.6062992125984252,
          "duration": 0.06696374999999932
        },
        {
          "name": "B1",
          "midi": 35,
          "time": 84.63659968749957,
          "velocity": 1,
          "duration": 0.06696374999999932
        },
        {
          "name": "D#3",
          "midi": 51,
          "time": 84.63659968749957,
          "velocity": 0.7086614173228346,
          "duration": 0.06696374999999932
        },
        {
          "name": "B1",
          "midi": 35,
          "time": 84.90445468749957,
          "velocity": 1,
          "duration": 0.06696374999999932
        },
        {
          "name": "D#3",
          "midi": 51,
          "time": 84.90445468749957,
          "velocity": 0.6299212598425197,
          "duration": 0.06696374999999932
        },
        {
          "name": "D2",
          "midi": 38,
          "time": 85.17230968749956,
          "velocity": 0.8661417322834646,
          "duration": 0.06696374999999932
        },
        {
          "name": "D#3",
          "midi": 51,
          "time": 85.17230968749956,
          "velocity": 0.7086614173228346,
          "duration": 0.06696374999999932
        },
        {
          "name": "D#3",
          "midi": 51,
          "time": 85.44016468749956,
          "velocity": 0.6062992125984252,
          "duration": 0.06696374999999932
        },
        {
          "name": "B1",
          "midi": 35,
          "time": 85.70801968749956,
          "velocity": 1,
          "duration": 0.06696374999999932
        },
        {
          "name": "D#3",
          "midi": 51,
          "time": 85.70801968749956,
          "velocity": 0.7086614173228346,
          "duration": 0.06696374999999932
        },
        {
          "name": "D#3",
          "midi": 51,
          "time": 85.97587468749956,
          "velocity": 0.5905511811023622,
          "duration": 0.06696374999999932
        },
        {
          "name": "D2",
          "midi": 38,
          "time": 86.24372968749955,
          "velocity": 0.8976377952755905,
          "duration": 0.06696374999999932
        },
        {
          "name": "D#3",
          "midi": 51,
          "time": 86.24372968749955,
          "velocity": 0.7086614173228346,
          "duration": 0.06696374999999932
        },
        {
          "name": "D#3",
          "midi": 51,
          "time": 86.51158468749955,
          "velocity": 0.5826771653543307,
          "duration": 0.06696374999999932
        },
        {
          "name": "B1",
          "midi": 35,
          "time": 86.77943968749955,
          "velocity": 1,
          "duration": 0.06696374999999932
        },
        {
          "name": "D#3",
          "midi": 51,
          "time": 86.77943968749955,
          "velocity": 0.7086614173228346,
          "duration": 0.06696374999999932
        },
        {
          "name": "B1",
          "midi": 35,
          "time": 87.04729468749954,
          "velocity": 1,
          "duration": 0.06696374999999932
        },
        {
          "name": "D#3",
          "midi": 51,
          "time": 87.04729468749954,
          "velocity": 0.5826771653543307,
          "duration": 0.06696374999999932
        },
        {
          "name": "D2",
          "midi": 38,
          "time": 87.31514968749954,
          "velocity": 0.889763779527559,
          "duration": 0.06696374999999932
        },
        {
          "name": "D#3",
          "midi": 51,
          "time": 87.31514968749954,
          "velocity": 0.7086614173228346,
          "duration": 0.06696374999999932
        },
        {
          "name": "D#3",
          "midi": 51,
          "time": 87.58300468749954,
          "velocity": 0.6062992125984252,
          "duration": 0.06696374999999932
        },
        {
          "name": "B1",
          "midi": 35,
          "time": 87.85085968749954,
          "velocity": 1,
          "duration": 0.06696374999999932
        },
        {
          "name": "D#3",
          "midi": 51,
          "time": 87.85085968749954,
          "velocity": 0.7086614173228346,
          "duration": 0.06696374999999932
        },
        {
          "name": "B1",
          "midi": 35,
          "time": 88.11871468749953,
          "velocity": 1,
          "duration": 0.06696374999999932
        },
        {
          "name": "D#3",
          "midi": 51,
          "time": 88.11871468749953,
          "velocity": 0.5826771653543307,
          "duration": 0.06696374999999932
        },
        {
          "name": "D2",
          "midi": 38,
          "time": 88.38656968749953,
          "velocity": 0.8661417322834646,
          "duration": 0.06696374999999932
        },
        {
          "name": "D#3",
          "midi": 51,
          "time": 88.38656968749953,
          "velocity": 0.7086614173228346,
          "duration": 0.06696374999999932
        },
        {
          "name": "B1",
          "midi": 35,
          "time": 88.65442468749953,
          "velocity": 1,
          "duration": 0.06696374999999932
        },
        {
          "name": "D#3",
          "midi": 51,
          "time": 88.65442468749953,
          "velocity": 0.6299212598425197,
          "duration": 0.06696374999999932
        },
        {
          "name": "D#3",
          "midi": 51,
          "time": 88.92227968749953,
          "velocity": 0.7086614173228346,
          "duration": 0.06696374999999932
        },
        {
          "name": "B1",
          "midi": 35,
          "time": 89.19013468749952,
          "velocity": 1,
          "duration": 0.06696374999999932
        },
        {
          "name": "D#3",
          "midi": 51,
          "time": 89.19013468749952,
          "velocity": 0.6299212598425197,
          "duration": 0.06696374999999932
        },
        {
          "name": "D2",
          "midi": 38,
          "time": 89.45798968749952,
          "velocity": 0.8661417322834646,
          "duration": 0.06696374999999932
        },
        {
          "name": "D2",
          "midi": 38,
          "time": 89.59191718749952,
          "velocity": 0.8661417322834646,
          "duration": 0.06696374999999932
        },
        {
          "name": "D2",
          "midi": 38,
          "time": 89.72584468749952,
          "velocity": 0.8661417322834646,
          "duration": 0.06696374999999932
        },
        {
          "name": "D2",
          "midi": 38,
          "time": 89.85977218749952,
          "velocity": 0.905511811023622,
          "duration": 0.06696374999999932
        },
        {
          "name": "C#3",
          "midi": 49,
          "time": 89.99369968749951,
          "velocity": 0.7086614173228346,
          "duration": 0.06696374999999932
        },
        {
          "name": "B1",
          "midi": 35,
          "time": 89.99369968749951,
          "velocity": 1,
          "duration": 0.06696374999999932
        },
        {
          "name": "D#3",
          "midi": 51,
          "time": 90.26155468749951,
          "velocity": 0.6062992125984252,
          "duration": 0.06696374999999932
        },
        {
          "name": "D2",
          "midi": 38,
          "time": 90.52940968749951,
          "velocity": 0.905511811023622,
          "duration": 0.06696374999999932
        },
        {
          "name": "D#3",
          "midi": 51,
          "time": 90.52940968749951,
          "velocity": 0.7086614173228346,
          "duration": 0.06696374999999932
        },
        {
          "name": "D#3",
          "midi": 51,
          "time": 90.7972646874995,
          "velocity": 0.5826771653543307,
          "duration": 0.06696374999999932
        },
        {
          "name": "B1",
          "midi": 35,
          "time": 91.0651196874995,
          "velocity": 1,
          "duration": 0.06696374999999932
        },
        {
          "name": "D#3",
          "midi": 51,
          "time": 91.0651196874995,
          "velocity": 0.7086614173228346,
          "duration": 0.06696374999999932
        },
        {
          "name": "B1",
          "midi": 35,
          "time": 91.3329746874995,
          "velocity": 1,
          "duration": 0.06696374999999932
        },
        {
          "name": "D#3",
          "midi": 51,
          "time": 91.3329746874995,
          "velocity": 0.5669291338582677,
          "duration": 0.06696374999999932
        },
        {
          "name": "D2",
          "midi": 38,
          "time": 91.6008296874995,
          "velocity": 0.8976377952755905,
          "duration": 0.06696374999999932
        },
        {
          "name": "D#3",
          "midi": 51,
          "time": 91.6008296874995,
          "velocity": 0.7086614173228346,
          "duration": 0.06696374999999932
        },
        {
          "name": "D#3",
          "midi": 51,
          "time": 91.8686846874995,
          "velocity": 0.5433070866141733,
          "duration": 0.06696374999999932
        },
        {
          "name": "B1",
          "midi": 35,
          "time": 92.13653968749949,
          "velocity": 1,
          "duration": 0.06696374999999932
        },
        {
          "name": "D#3",
          "midi": 51,
          "time": 92.13653968749949,
          "velocity": 0.7086614173228346,
          "duration": 0.06696374999999932
        },
        {
          "name": "B1",
          "midi": 35,
          "time": 92.40439468749949,
          "velocity": 1,
          "duration": 0.06696374999999932
        },
        {
          "name": "D#3",
          "midi": 51,
          "time": 92.40439468749949,
          "velocity": 0.5826771653543307,
          "duration": 0.06696374999999932
        },
        {
          "name": "D2",
          "midi": 38,
          "time": 92.67224968749949,
          "velocity": 0.889763779527559,
          "duration": 0.06696374999999932
        },
        {
          "name": "D#3",
          "midi": 51,
          "time": 92.67224968749949,
          "velocity": 0.7086614173228346,
          "duration": 0.06696374999999932
        },
        {
          "name": "D#3",
          "midi": 51,
          "time": 92.94010468749948,
          "velocity": 0.5669291338582677,
          "duration": 0.06696374999999932
        },
        {
          "name": "B1",
          "midi": 35,
          "time": 92.94010468749948,
          "velocity": 1,
          "duration": 0.06696374999999932
        },
        {
          "name": "D#3",
          "midi": 51,
          "time": 93.20795968749948,
          "velocity": 0.7086614173228346,
          "duration": 0.06696374999999932
        },
        {
          "name": "B1",
          "midi": 35,
          "time": 93.47581468749948,
          "velocity": 1,
          "duration": 0.06696374999999932
        },
        {
          "name": "D#3",
          "midi": 51,
          "time": 93.47581468749948,
          "velocity": 0.5669291338582677,
          "duration": 0.06696374999999932
        },
        {
          "name": "D2",
          "midi": 38,
          "time": 93.74366968749948,
          "velocity": 0.8661417322834646,
          "duration": 0.06696374999999932
        },
        {
          "name": "D#3",
          "midi": 51,
          "time": 93.74366968749948,
          "velocity": 0.7086614173228346,
          "duration": 0.06696374999999932
        },
        {
          "name": "D#3",
          "midi": 51,
          "time": 94.01152468749947,
          "velocity": 0.5590551181102362,
          "duration": 0.06696374999999932
        },
        {
          "name": "B1",
          "midi": 35,
          "time": 94.01152468749947,
          "velocity": 1,
          "duration": 0.06696374999999932
        },
        {
          "name": "B1",
          "midi": 35,
          "time": 94.27937968749947,
          "velocity": 1,
          "duration": 0.06696374999999932
        },
        {
          "name": "D#3",
          "midi": 51,
          "time": 94.27937968749947,
          "velocity": 0.7086614173228346,
          "duration": 0.06696374999999932
        },
        {
          "name": "D#3",
          "midi": 51,
          "time": 94.54723468749947,
          "velocity": 0.5826771653543307,
          "duration": 0.06696374999999932
        },
        {
          "name": "D2",
          "midi": 38,
          "time": 94.81508968749947,
          "velocity": 0.8976377952755905,
          "duration": 0.06696374999999932
        },
        {
          "name": "D#3",
          "midi": 51,
          "time": 94.81508968749947,
          "velocity": 0.7086614173228346,
          "duration": 0.06696374999999932
        },
        {
          "name": "D#3",
          "midi": 51,
          "time": 95.08294468749946,
          "velocity": 0.5669291338582677,
          "duration": 0.06696374999999932
        },
        {
          "name": "B1",
          "midi": 35,
          "time": 95.35079968749946,
          "velocity": 1,
          "duration": 0.06696374999999932
        },
        {
          "name": "D#3",
          "midi": 51,
          "time": 95.35079968749946,
          "velocity": 0.7086614173228346,
          "duration": 0.06696374999999932
        },
        {
          "name": "B1",
          "midi": 35,
          "time": 95.61865468749946,
          "velocity": 1,
          "duration": 0.06696374999999932
        },
        {
          "name": "D#3",
          "midi": 51,
          "time": 95.61865468749946,
          "velocity": 0.5905511811023622,
          "duration": 0.06696374999999932
        },
        {
          "name": "D2",
          "midi": 38,
          "time": 95.88650968749945,
          "velocity": 0.889763779527559,
          "duration": 0.06696374999999932
        },
        {
          "name": "D#3",
          "midi": 51,
          "time": 95.88650968749945,
          "velocity": 0.7086614173228346,
          "duration": 0.06696374999999932
        },
        {
          "name": "D#3",
          "midi": 51,
          "time": 96.15436468749945,
          "velocity": 0.5669291338582677,
          "duration": 0.06696374999999932
        },
        {
          "name": "B1",
          "midi": 35,
          "time": 96.15436468749945,
          "velocity": 1,
          "duration": 0.06696374999999932
        },
        {
          "name": "B1",
          "midi": 35,
          "time": 96.42221968749945,
          "velocity": 1,
          "duration": 0.06696374999999932
        },
        {
          "name": "D#3",
          "midi": 51,
          "time": 96.42221968749945,
          "velocity": 0.7086614173228346,
          "duration": 0.06696374999999932
        },
        {
          "name": "D#3",
          "midi": 51,
          "time": 96.69007468749945,
          "velocity": 0.5669291338582677,
          "duration": 0.06696374999999932
        },
        {
          "name": "D2",
          "midi": 38,
          "time": 96.95792968749944,
          "velocity": 0.8661417322834646,
          "duration": 0.06696374999999932
        },
        {
          "name": "D#3",
          "midi": 51,
          "time": 96.95792968749944,
          "velocity": 0.7086614173228346,
          "duration": 0.06696374999999932
        },
        {
          "name": "D#3",
          "midi": 51,
          "time": 97.22578468749944,
          "velocity": 0.5905511811023622,
          "duration": 0.06696374999999932
        },
        {
          "name": "B1",
          "midi": 35,
          "time": 97.49363968749944,
          "velocity": 1,
          "duration": 0.06696374999999932
        },
        {
          "name": "D#3",
          "midi": 51,
          "time": 97.49363968749944,
          "velocity": 0.7086614173228346,
          "duration": 0.06696374999999932
        },
        {
          "name": "D#3",
          "midi": 51,
          "time": 97.76149468749944,
          "velocity": 0.6062992125984252,
          "duration": 0.06696374999999932
        },
        {
          "name": "B1",
          "midi": 35,
          "time": 97.76149468749944,
          "velocity": 1,
          "duration": 0.06696374999999932
        },
        {
          "name": "D2",
          "midi": 38,
          "time": 98.02934968749943,
          "velocity": 0.8976377952755905,
          "duration": 0.06696374999999932
        },
        {
          "name": "D#3",
          "midi": 51,
          "time": 98.02934968749943,
          "velocity": 0.7086614173228346,
          "duration": 0.06696374999999932
        },
        {
          "name": "D#3",
          "midi": 51,
          "time": 98.29720468749943,
          "velocity": 0.6062992125984252,
          "duration": 0.06696374999999932
        },
        {
          "name": "B1",
          "midi": 35,
          "time": 98.29720468749943,
          "velocity": 1,
          "duration": 0.06696374999999932
        },
        {
          "name": "B1",
          "midi": 35,
          "time": 98.56505968749943,
          "velocity": 1,
          "duration": 0.06696374999999932
        },
        {
          "name": "D#3",
          "midi": 51,
          "time": 98.56505968749943,
          "velocity": 0.7086614173228346,
          "duration": 0.06696374999999932
        },
        {
          "name": "D#3",
          "midi": 51,
          "time": 98.83291468749943,
          "velocity": 0.5669291338582677,
          "duration": 0.06696374999999932
        },
        {
          "name": "D2",
          "midi": 38,
          "time": 99.10076968749942,
          "velocity": 0.889763779527559,
          "duration": 0.06696374999999932
        },
        {
          "name": "D#3",
          "midi": 51,
          "time": 99.10076968749942,
          "velocity": 0.7086614173228346,
          "duration": 0.06696374999999932
        },
        {
          "name": "D#3",
          "midi": 51,
          "time": 99.36862468749942,
          "velocity": 0.5669291338582677,
          "duration": 0.06696374999999932
        },
        {
          "name": "B1",
          "midi": 35,
          "time": 99.36862468749942,
          "velocity": 1,
          "duration": 0.06696374999999932
        },
        {
          "name": "D#3",
          "midi": 51,
          "time": 99.63647968749942,
          "velocity": 0.7086614173228346,
          "duration": 0.06696374999999932
        },
        {
          "name": "D#3",
          "midi": 51,
          "time": 99.90433468749941,
          "velocity": 0.5669291338582677,
          "duration": 0.06696374999999932
        },
        {
          "name": "B1",
          "midi": 35,
          "time": 99.90433468749941,
          "velocity": 1,
          "duration": 0.06696374999999932
        },
        {
          "name": "D#3",
          "midi": 51,
          "time": 100.17218968749941,
          "velocity": 0.7086614173228346,
          "duration": 0.06696374999999932
        },
        {
          "name": "D2",
          "midi": 38,
          "time": 100.17218968749941,
          "velocity": 0.7874015748031497,
          "duration": 0.06696374999999932
        },
        {
          "name": "D#3",
          "midi": 51,
          "time": 100.44004468749941,
          "velocity": 0.5826771653543307,
          "duration": 0.06696374999999932
        },
        {
          "name": "B1",
          "midi": 35,
          "time": 100.44004468749941,
          "velocity": 1,
          "duration": 0.06696374999999932
        },
        {
          "name": "B1",
          "midi": 35,
          "time": 100.7078996874994,
          "velocity": 1,
          "duration": 0.06696374999999932
        },
        {
          "name": "C#3",
          "midi": 49,
          "time": 100.7078996874994,
          "velocity": 0.7086614173228346,
          "duration": 0.06696374999999932
        },
        {
          "name": "D#3",
          "midi": 51,
          "time": 100.9757546874994,
          "velocity": 0.5826771653543307,
          "duration": 0.06696374999999932
        },
        {
          "name": "B1",
          "midi": 35,
          "time": 100.9757546874994,
          "velocity": 1,
          "duration": 0.06696374999999932
        },
        {
          "name": "D#3",
          "midi": 51,
          "time": 101.2436096874994,
          "velocity": 0.7086614173228346,
          "duration": 0.06696374999999932
        },
        {
          "name": "D2",
          "midi": 38,
          "time": 101.2436096874994,
          "velocity": 0.7874015748031497,
          "duration": 0.06696374999999932
        },
        {
          "name": "D#3",
          "midi": 51,
          "time": 101.5114646874994,
          "velocity": 0.5669291338582677,
          "duration": 0.06696374999999932
        },
        {
          "name": "B1",
          "midi": 35,
          "time": 101.5114646874994,
          "velocity": 1,
          "duration": 0.06696374999999932
        },
        {
          "name": "D#3",
          "midi": 51,
          "time": 101.7793196874994,
          "velocity": 0.7086614173228346,
          "duration": 0.06696374999999932
        },
        {
          "name": "D#3",
          "midi": 51,
          "time": 102.04717468749939,
          "velocity": 0.5590551181102362,
          "duration": 0.06696374999999932
        },
        {
          "name": "B1",
          "midi": 35,
          "time": 102.04717468749939,
          "velocity": 1,
          "duration": 0.06696374999999932
        },
        {
          "name": "D#3",
          "midi": 51,
          "time": 102.31502968749939,
          "velocity": 0.7086614173228346,
          "duration": 0.06696374999999932
        },
        {
          "name": "D2",
          "midi": 38,
          "time": 102.31502968749939,
          "velocity": 0.7874015748031497,
          "duration": 0.06696374999999932
        },
        {
          "name": "D#3",
          "midi": 51,
          "time": 102.58288468749939,
          "velocity": 0.5826771653543307,
          "duration": 0.06696374999999932
        },
        {
          "name": "B1",
          "midi": 35,
          "time": 102.85073968749938,
          "velocity": 1,
          "duration": 0.06696374999999932
        },
        {
          "name": "C#3",
          "midi": 49,
          "time": 102.85073968749938,
          "velocity": 0.7086614173228346,
          "duration": 0.06696374999999932
        },
        {
          "name": "D2",
          "midi": 38,
          "time": 126.42197968749939,
          "velocity": 0.5669291338582677,
          "duration": 0.06696374999999932
        },
        {
          "name": "F2",
          "midi": 41,
          "time": 126.42197968749939,
          "velocity": 0.6220472440944882,
          "duration": 0.06696374999999932
        },
        {
          "name": "B1",
          "midi": 35,
          "time": 126.42197968749939,
          "velocity": 0.5826771653543307,
          "duration": 0.06696374999999932
        },
        {
          "name": "D2",
          "midi": 38,
          "time": 126.68983468749938,
          "velocity": 0.5669291338582677,
          "duration": 0.06696374999999932
        },
        {
          "name": "F2",
          "midi": 41,
          "time": 126.68983468749938,
          "velocity": 0.6220472440944882,
          "duration": 0.06696374999999932
        },
        {
          "name": "B1",
          "midi": 35,
          "time": 126.68983468749938,
          "velocity": 0.6692913385826772,
          "duration": 0.06696374999999932
        },
        {
          "name": "D2",
          "midi": 38,
          "time": 126.95768968749938,
          "velocity": 0.5905511811023622,
          "duration": 0.06696374999999932
        },
        {
          "name": "F2",
          "midi": 41,
          "time": 126.95768968749938,
          "velocity": 0.6692913385826772,
          "duration": 0.06696374999999932
        },
        {
          "name": "B1",
          "midi": 35,
          "time": 126.95768968749938,
          "velocity": 0.6692913385826772,
          "duration": 0.06696374999999932
        },
        {
          "name": "D2",
          "midi": 38,
          "time": 127.22554468749938,
          "velocity": 0.5905511811023622,
          "duration": 0.06696374999999932
        },
        {
          "name": "F2",
          "midi": 41,
          "time": 127.22554468749938,
          "velocity": 0.6692913385826772,
          "duration": 0.06696374999999932
        },
        {
          "name": "B1",
          "midi": 35,
          "time": 127.22554468749938,
          "velocity": 0.7559055118110236,
          "duration": 0.06696374999999932
        },
        {
          "name": "D2",
          "midi": 38,
          "time": 127.49339968749938,
          "velocity": 0.5905511811023622,
          "duration": 0.06696374999999932
        },
        {
          "name": "F2",
          "midi": 41,
          "time": 127.49339968749938,
          "velocity": 0.6692913385826772,
          "duration": 0.06696374999999932
        },
        {
          "name": "B1",
          "midi": 35,
          "time": 127.49339968749938,
          "velocity": 0.7795275590551181,
          "duration": 0.06696374999999932
        },
        {
          "name": "D2",
          "midi": 38,
          "time": 127.76125468749937,
          "velocity": 0.5905511811023622,
          "duration": 0.06696374999999932
        },
        {
          "name": "F2",
          "midi": 41,
          "time": 127.76125468749937,
          "velocity": 0.6929133858267716,
          "duration": 0.06696374999999932
        },
        {
          "name": "B1",
          "midi": 35,
          "time": 127.76125468749937,
          "velocity": 0.8267716535433071,
          "duration": 0.06696374999999932
        },
        {
          "name": "D2",
          "midi": 38,
          "time": 128.02910968749939,
          "velocity": 0.6141732283464567,
          "duration": 0.06696375000001353
        },
        {
          "name": "F2",
          "midi": 41,
          "time": 128.02910968749939,
          "velocity": 0.7165354330708661,
          "duration": 0.06696375000001353
        },
        {
          "name": "B1",
          "midi": 35,
          "time": 128.02910968749939,
          "velocity": 0.8267716535433071,
          "duration": 0.06696375000001353
        },
        {
          "name": "D2",
          "midi": 38,
          "time": 128.2969646874994,
          "velocity": 0.6377952755905512,
          "duration": 0.06696375000001353
        },
        {
          "name": "F2",
          "midi": 41,
          "time": 128.2969646874994,
          "velocity": 0.7322834645669292,
          "duration": 0.06696375000001353
        },
        {
          "name": "B1",
          "midi": 35,
          "time": 128.2969646874994,
          "velocity": 0.889763779527559,
          "duration": 0.06696375000001353
        },
        {
          "name": "D2",
          "midi": 38,
          "time": 128.56481968749944,
          "velocity": 0.6614173228346457,
          "duration": 0.06696375000001353
        },
        {
          "name": "F2",
          "midi": 41,
          "time": 128.56481968749944,
          "velocity": 0.7559055118110236,
          "duration": 0.06696375000001353
        },
        {
          "name": "B1",
          "midi": 35,
          "time": 128.56481968749944,
          "velocity": 0.889763779527559,
          "duration": 0.06696375000001353
        },
        {
          "name": "D2",
          "midi": 38,
          "time": 128.83267468749946,
          "velocity": 0.7007874015748031,
          "duration": 0.06696375000001353
        },
        {
          "name": "F2",
          "midi": 41,
          "time": 128.83267468749946,
          "velocity": 0.7559055118110236,
          "duration": 0.06696375000001353
        },
        {
          "name": "B1",
          "midi": 35,
          "time": 128.83267468749946,
          "velocity": 1,
          "duration": 0.06696375000001353
        },
        {
          "name": "D2",
          "midi": 38,
          "time": 129.1005296874995,
          "velocity": 0.8110236220472441,
          "duration": 0.06696375000001353
        },
        {
          "name": "F2",
          "midi": 41,
          "time": 129.1005296874995,
          "velocity": 0.7559055118110236,
          "duration": 0.06696375000001353
        },
        {
          "name": "B1",
          "midi": 35,
          "time": 129.1005296874995,
          "velocity": 1,
          "duration": 0.06696375000001353
        },
        {
          "name": "D2",
          "midi": 38,
          "time": 129.3683846874995,
          "velocity": 0.8582677165354331,
          "duration": 0.06696375000001353
        },
        {
          "name": "F2",
          "midi": 41,
          "time": 129.3683846874995,
          "velocity": 0.7322834645669292,
          "duration": 0.06696375000001353
        },
        {
          "name": "B1",
          "midi": 35,
          "time": 129.3683846874995,
          "velocity": 1,
          "duration": 0.06696375000001353
        },
        {
          "name": "D2",
          "midi": 38,
          "time": 129.63623968749954,
          "velocity": 0.952755905511811,
          "duration": 0.06696375000001353
        },
        {
          "name": "F2",
          "midi": 41,
          "time": 129.63623968749954,
          "velocity": 0.7322834645669292,
          "duration": 0.06696375000001353
        },
        {
          "name": "B1",
          "midi": 35,
          "time": 129.63623968749954,
          "velocity": 1,
          "duration": 0.06696375000001353
        },
        {
          "name": "D2",
          "midi": 38,
          "time": 129.90409468749957,
          "velocity": 0.952755905511811,
          "duration": 0.06696375000001353
        },
        {
          "name": "F2",
          "midi": 41,
          "time": 129.90409468749957,
          "velocity": 0.7559055118110236,
          "duration": 0.06696375000001353
        },
        {
          "name": "B1",
          "midi": 35,
          "time": 129.90409468749957,
          "velocity": 1,
          "duration": 0.06696375000001353
        },
        {
          "name": "F2",
          "midi": 41,
          "time": 130.1719496874996,
          "velocity": 1,
          "duration": 0.06696375000001353
        },
        {
          "name": "F2",
          "midi": 41,
          "time": 130.30587718749962,
          "velocity": 1,
          "duration": 0.06696375000001353
        },
        {
          "name": "F2",
          "midi": 41,
          "time": 130.43980468749965,
          "velocity": 1,
          "duration": 0.06696375000001353
        },
        {
          "name": "F2",
          "midi": 41,
          "time": 130.57373218749967,
          "velocity": 1,
          "duration": 0.06696375000001353
        },
        {
          "name": "G#2",
          "midi": 44,
          "time": 130.7076596874997,
          "velocity": 1,
          "duration": 0.24134851562502035
        },
        {
          "name": "B1",
          "midi": 35,
          "time": 130.7076596874997,
          "velocity": 1,
          "duration": 0.4520053125000061
        },
        {
          "name": "C#3",
          "midi": 49,
          "time": 130.7076596874997,
          "velocity": 1,
          "duration": 0.06696375000001353
        },
        {
          "name": "D#3",
          "midi": 51,
          "time": 130.97551468749973,
          "velocity": 0.6614173228346457,
          "duration": 0.08509976562498878
        },
        {
          "name": "G#2",
          "midi": 44,
          "time": 131.2433696874997,
          "velocity": 0.5511811023622047,
          "duration": 0.22600265624998883
        },
        {
          "name": "D2",
          "midi": 38,
          "time": 131.2433696874997,
          "velocity": 0.905511811023622,
          "duration": 0.22460757812498855
        },
        {
          "name": "D#3",
          "midi": 51,
          "time": 131.2433696874997,
          "velocity": 0.7795275590551181,
          "duration": 0.08788992187498934
        },
        {
          "name": "D#3",
          "midi": 51,
          "time": 131.5112246874997,
          "velocity": 0.6692913385826772,
          "duration": 0.10184070312499216
        },
        {
          "name": "B1",
          "midi": 35,
          "time": 131.5112246874997,
          "velocity": 1,
          "duration": 0.32644828125000913
        },
        {
          "name": "D#3",
          "midi": 51,
          "time": 131.7790796874997,
          "velocity": 0.7795275590551181,
          "duration": 0.11160625000002256
        },
        {
          "name": "G#2",
          "midi": 44,
          "time": 131.7790796874997,
          "velocity": 0.5511811023622047,
          "duration": 0.2385583593750198
        },
        {
          "name": "B1",
          "midi": 35,
          "time": 132.04693468749971,
          "velocity": 1,
          "duration": 0.23855835937499137
        },
        {
          "name": "D#3",
          "midi": 51,
          "time": 132.04693468749971,
          "velocity": 0.6614173228346457,
          "duration": 0.10742101562499329
        },
        {
          "name": "D2",
          "midi": 38,
          "time": 132.3147896874997,
          "velocity": 0.905511811023622,
          "duration": 0.3948071093749945
        },
        {
          "name": "G#2",
          "midi": 44,
          "time": 132.3147896874997,
          "velocity": 0.5511811023622047,
          "duration": 0.27064515624999785
        },
        {
          "name": "D#3",
          "midi": 51,
          "time": 132.3147896874997,
          "velocity": 0.7795275590551181,
          "duration": 0.10463085937499272
        },
        {
          "name": "D#3",
          "midi": 51,
          "time": 132.5826446874997,
          "velocity": 0.6456692913385826,
          "duration": 0.0906800781249899
        },
        {
          "name": "G#2",
          "midi": 44,
          "time": 132.8504996874997,
          "velocity": 0.5511811023622047,
          "duration": 0.23158296874998996
        },
        {
          "name": "D#3",
          "midi": 51,
          "time": 132.8504996874997,
          "velocity": 0.7716535433070866,
          "duration": 0.09347023437499047
        },
        {
          "name": "B1",
          "midi": 35,
          "time": 132.8504996874997,
          "velocity": 1,
          "duration": 0.44363484374997597
        },
        {
          "name": "D#3",
          "midi": 51,
          "time": 133.1183546874997,
          "velocity": 0.6299212598425197,
          "duration": 0.08091453124998793
        },
        {
          "name": "D2",
          "midi": 38,
          "time": 133.38620968749967,
          "velocity": 0.905511811023622,
          "duration": 0.22181742187498799
        },
        {
          "name": "G#2",
          "midi": 44,
          "time": 133.38620968749967,
          "velocity": 0.5511811023622047,
          "duration": 0.2608796093749959
        },
        {
          "name": "D#3",
          "midi": 51,
          "time": 133.38620968749967,
          "velocity": 0.7795275590551181,
          "duration": 0.09765546874999131
        },
        {
          "name": "B1",
          "midi": 35,
          "time": 133.65406468749967,
          "velocity": 1,
          "duration": 0.3278433593750094
        },
        {
          "name": "D#3",
          "midi": 51,
          "time": 133.65406468749967,
          "velocity": 0.6456692913385826,
          "duration": 0.08928499999998962
        },
        {
          "name": "G#2",
          "midi": 44,
          "time": 133.92191968749967,
          "velocity": 0.5511811023622047,
          "duration": 0.25808945312502374
        },
        {
          "name": "D#3",
          "midi": 51,
          "time": 133.92191968749967,
          "velocity": 0.7716535433070866,
          "duration": 0.1004456250000203
        },
        {
          "name": "B1",
          "midi": 35,
          "time": 134.1897746874997,
          "velocity": 1,
          "duration": 0.2887811718750015
        },
        {
          "name": "D#3",
          "midi": 51,
          "time": 134.1897746874997,
          "velocity": 0.6220472440944882,
          "duration": 0.09765546874999131
        },
        {
          "name": "D2",
          "midi": 38,
          "time": 134.4576296874997,
          "velocity": 0.905511811023622,
          "duration": 0.3348187500000108
        },
        {
          "name": "G#2",
          "midi": 44,
          "time": 134.4576296874997,
          "velocity": 0.5511811023622047,
          "duration": 0.24971898437499362
        },
        {
          "name": "D#3",
          "midi": 51,
          "time": 134.4576296874997,
          "velocity": 0.7716535433070866,
          "duration": 0.09765546874999131
        },
        {
          "name": "D#3",
          "midi": 51,
          "time": 134.7254846874997,
          "velocity": 0.6220472440944882,
          "duration": 0.08928500000001804
        },
        {
          "name": "G#2",
          "midi": 44,
          "time": 134.9933396874997,
          "velocity": 0.5511811023622047,
          "duration": 0.25669437499999503
        },
        {
          "name": "B1",
          "midi": 35,
          "time": 134.9933396874997,
          "velocity": 1,
          "duration": 0.4715364062499816
        },
        {
          "name": "D#3",
          "midi": 51,
          "time": 134.9933396874997,
          "velocity": 0.7716535433070866,
          "duration": 0.08788992187498934
        },
        {
          "name": "D#3",
          "midi": 51,
          "time": 135.2611946874997,
          "velocity": 0.6299212598425197,
          "duration": 0.08649484374998906
        },
        {
          "name": "D#3",
          "midi": 51,
          "time": 135.5290496874997,
          "velocity": 0.7874015748031497,
          "duration": 0.0906800781249899
        },
        {
          "name": "G#2",
          "midi": 44,
          "time": 135.5290496874997,
          "velocity": 0.5511811023622047,
          "duration": 0.2804107031249998
        },
        {
          "name": "D2",
          "midi": 38,
          "time": 135.5290496874997,
          "velocity": 0.905511811023622,
          "duration": 0.2357682031249908
        },
        {
          "name": "D#3",
          "midi": 51,
          "time": 135.7969046874997,
          "velocity": 0.6062992125984252,
          "duration": 0.09207515624999019
        },
        {
          "name": "B1",
          "midi": 35,
          "time": 135.7969046874997,
          "velocity": 1,
          "duration": 0.3738809374999903
        },
        {
          "name": "G#2",
          "midi": 44,
          "time": 136.0647596874997,
          "velocity": 0.5511811023622047,
          "duration": 0.3292384375000097
        },
        {
          "name": "D#3",
          "midi": 51,
          "time": 136.0647596874997,
          "velocity": 0.7874015748031497,
          "duration": 0.0753342187499868
        },
        {
          "name": "D#3",
          "midi": 51,
          "time": 136.3326146874997,
          "velocity": 0.6062992125984252,
          "duration": 0.08928500000001804
        },
        {
          "name": "B1",
          "midi": 35,
          "time": 136.3326146874997,
          "velocity": 1,
          "duration": 0.07951945312501607
        },
        {
          "name": "G#2",
          "midi": 44,
          "time": 136.60046968749973,
          "velocity": 0.5511811023622047,
          "duration": 0.2552992968750232
        },
        {
          "name": "B1",
          "midi": 35,
          "time": 136.60046968749973,
          "velocity": 1,
          "duration": 0.10184070312502058
        },
        {
          "name": "C#3",
          "midi": 49,
          "time": 136.60046968749973,
          "velocity": 0.7086614173228346,
          "duration": 0.06696375000001353
        },
        {
          "name": "A3",
          "midi": 57,
          "time": 136.60604999999973,
          "velocity": 0.7086614173228346,
          "duration": 0.06696375000001353
        },
        {
          "name": "B1",
          "midi": 35,
          "time": 136.86832468749975,
          "velocity": 1,
          "duration": 0.10881609375002199
        },
        {
          "name": "C#3",
          "midi": 49,
          "time": 136.86832468749975,
          "velocity": 0.7086614173228346,
          "duration": 0.06696375000001353
        },
        {
          "name": "A3",
          "midi": 57,
          "time": 136.87390499999975,
          "velocity": 0.7086614173228346,
          "duration": 0.06696375000001353
        },
        {
          "name": "B1",
          "midi": 35,
          "time": 137.13617968749978,
          "velocity": 1,
          "duration": 0.37946125000001985
        },
        {
          "name": "G#2",
          "midi": 44,
          "time": 137.13617968749978,
          "velocity": 0.5511811023622047,
          "duration": 0.25808945312502374
        },
        {
          "name": "C#3",
          "midi": 49,
          "time": 137.14175999999978,
          "velocity": 0.7086614173228346,
          "duration": 0.06696375000001353
        },
        {
          "name": "A3",
          "midi": 57,
          "time": 137.14175999999978,
          "velocity": 0.7086614173228346,
          "duration": 0.06696375000001353
        },
        {
          "name": "D2",
          "midi": 38,
          "time": 137.6718896874998,
          "velocity": 0.905511811023622,
          "duration": 0.17159460937497784
        },
        {
          "name": "D#3",
          "midi": 51,
          "time": 137.6718896874998,
          "velocity": 0.7874015748031497,
          "duration": 0.09207515624999019
        },
        {
          "name": "G#2",
          "midi": 44,
          "time": 137.6718896874998,
          "velocity": 0.5511811023622047,
          "duration": 0.2427435937499638
        },
        {
          "name": "B1",
          "midi": 35,
          "time": 137.93974468749977,
          "velocity": 1,
          "duration": 0.2804107031249998
        },
        {
          "name": "D#3",
          "midi": 51,
          "time": 137.93974468749977,
          "velocity": 0.6614173228346457,
          "duration": 0.0906800781249899
        },
        {
          "name": "G#2",
          "midi": 44,
          "time": 138.20759968749977,
          "velocity": 0.5511811023622047,
          "duration": 0.25390421874999447
        },
        {
          "name": "D#3",
          "midi": 51,
          "time": 138.20759968749977,
          "velocity": 0.7874015748031497,
          "duration": 0.09486531249999075
        },
        {
          "name": "B1",
          "midi": 35,
          "time": 138.47545468749976,
          "velocity": 1,
          "duration": 0.2371632812499911
        },
        {
          "name": "D#3",
          "midi": 51,
          "time": 138.47545468749976,
          "velocity": 0.6614173228346457,
          "duration": 0.09207515624999019
        },
        {
          "name": "D2",
          "midi": 38,
          "time": 138.74330968749976,
          "velocity": 0.905511811023622,
          "duration": 0.35574492187501505
        },
        {
          "name": "G#2",
          "midi": 44,
          "time": 138.74330968749976,
          "velocity": 0.5511811023622047,
          "duration": 0.2985467187500035
        },
        {
          "name": "D#3",
          "midi": 51,
          "time": 138.74330968749976,
          "velocity": 0.7874015748031497,
          "duration": 0.10044562499999188
        },
        {
          "name": "D#3",
          "midi": 51,
          "time": 139.01116468749976,
          "velocity": 0.6456692913385826,
          "duration": 0.08788992187501776
        },
        {
          "name": "B1",
          "midi": 35,
          "time": 139.27901968749978,
          "velocity": 1,
          "duration": 0.27762054687499926
        },
        {
          "name": "D#3",
          "midi": 51,
          "time": 139.27901968749978,
          "velocity": 0.7874015748031497,
          "duration": 0.09207515624999019
        },
        {
          "name": "G#2",
          "midi": 44,
          "time": 139.27901968749978,
          "velocity": 0.5511811023622047,
          "duration": 0.2845959375000007
        },
        {
          "name": "D#3",
          "midi": 51,
          "time": 139.54687468749978,
          "velocity": 0.6850393700787402,
          "duration": 0.07393914062501494
        },
        {
          "name": "B1",
          "midi": 35,
          "time": 139.6808021874998,
          "velocity": 1,
          "duration": 0.06696375000001353
        },
        {
          "name": "D2",
          "midi": 38,
          "time": 139.81472968749983,
          "velocity": 0.905511811023622,
          "duration": 0.23158296874998996
        },
        {
          "name": "G#2",
          "midi": 44,
          "time": 139.81472968749983,
          "velocity": 0.5511811023622047,
          "duration": 0.2818057812500001
        },
        {
          "name": "D#3",
          "midi": 51,
          "time": 139.81472968749983,
          "velocity": 0.7874015748031497,
          "duration": 0.09347023437499047
        },
        {
          "name": "B1",
          "midi": 35,
          "time": 140.08258468749983,
          "velocity": 1,
          "duration": 0.3362138281250395
        },
        {
          "name": "D#3",
          "midi": 51,
          "time": 140.08258468749983,
          "velocity": 0.6850393700787402,
          "duration": 0.07812437500001579
        },
        {
          "name": "D#3",
          "midi": 51,
          "time": 140.35043968749986,
          "velocity": 0.7874015748031497,
          "duration": 0.0850997656250172
        },
        {
          "name": "G#2",
          "midi": 44,
          "time": 140.35043968749986,
          "velocity": 0.5511811023622047,
          "duration": 0.27204023437502656
        },
        {
          "name": "B1",
          "midi": 35,
          "time": 140.61829468749988,
          "velocity": 1,
          "duration": 0.21623710937498686
        },
        {
          "name": "D#3",
          "midi": 51,
          "time": 140.61829468749988,
          "velocity": 0.6614173228346457,
          "duration": 0.09207515624999019
        },
        {
          "name": "D2",
          "midi": 38,
          "time": 140.88614968749988,
          "velocity": 0.905511811023622,
          "duration": 0.40178250000002436
        },
        {
          "name": "G#2",
          "midi": 44,
          "time": 140.88614968749988,
          "velocity": 0.5511811023622047,
          "duration": 0.29575656250000293
        },
        {
          "name": "D#3",
          "midi": 51,
          "time": 140.88614968749988,
          "velocity": 0.7874015748031497,
          "duration": 0.0990505468749916
        },
        {
          "name": "D#3",
          "midi": 51,
          "time": 141.15400468749988,
          "velocity": 0.6614173228346457,
          "duration": 0.09207515625001861
        },
        {
          "name": "B1",
          "midi": 35,
          "time": 141.4218596874999,
          "velocity": 1,
          "duration": 0.4422397656250041
        },
        {
          "name": "G#2",
          "midi": 44,
          "time": 141.4218596874999,
          "velocity": 0.5511811023622047,
          "duration": 0.32644828125000913
        },
        {
          "name": "D#3",
          "midi": 51,
          "time": 141.4218596874999,
          "velocity": 0.7874015748031497,
          "duration": 0.09207515624999019
        },
        {
          "name": "D#3",
          "midi": 51,
          "time": 141.6897146874999,
          "velocity": 0.6614173228346457,
          "duration": 0.09207515625001861
        },
        {
          "name": "D2",
          "midi": 38,
          "time": 141.9575696874999,
          "velocity": 0.905511811023622,
          "duration": 0.19252078124998206
        },
        {
          "name": "D#3",
          "midi": 51,
          "time": 141.9575696874999,
          "velocity": 0.7874015748031497,
          "duration": 0.08928499999998962
        },
        {
          "name": "G#2",
          "midi": 44,
          "time": 141.9575696874999,
          "velocity": 0.5511811023622047,
          "duration": 0.2594845312499956
        },
        {
          "name": "B1",
          "midi": 35,
          "time": 142.2254246874999,
          "velocity": 1,
          "duration": 0.3417941406249838
        },
        {
          "name": "D#3",
          "midi": 51,
          "time": 142.2254246874999,
          "velocity": 0.6614173228346457,
          "duration": 0.09207515624999019
        },
        {
          "name": "D#3",
          "midi": 51,
          "time": 142.4932796874999,
          "velocity": 0.7874015748031497,
          "duration": 0.09765546874999131
        },
        {
          "name": "G#2",
          "midi": 44,
          "time": 142.4932796874999,
          "velocity": 0.5511811023622047,
          "duration": 0.26366976562499644
        },
        {
          "name": "D#3",
          "midi": 51,
          "time": 142.7611346874999,
          "velocity": 0.6299212598425197,
          "duration": 0.09207515624999019
        },
        {
          "name": "B1",
          "midi": 35,
          "time": 142.7611346874999,
          "velocity": 1,
          "duration": 0.23437312499999052
        },
        {
          "name": "D#3",
          "midi": 51,
          "time": 143.0289896874999,
          "velocity": 0.7874015748031497,
          "duration": 0.08649484374998906
        },
        {
          "name": "G#2",
          "midi": 44,
          "time": 143.0289896874999,
          "velocity": 0.5511811023622047,
          "duration": 0.25390421874999447
        },
        {
          "name": "D2",
          "midi": 38,
          "time": 143.0289896874999,
          "velocity": 0.905511811023622,
          "duration": 0.39341203124999424
        },
        {
          "name": "D#3",
          "midi": 51,
          "time": 143.29684468749988,
          "velocity": 0.6614173228346457,
          "duration": 0.08509976562498878
        },
        {
          "name": "D#3",
          "midi": 51,
          "time": 143.56469968749988,
          "velocity": 0.7874015748031497,
          "duration": 0.0906800781249899
        },
        {
          "name": "B1",
          "midi": 35,
          "time": 143.56469968749988,
          "velocity": 1,
          "duration": 0.4799068749999833
        },
        {
          "name": "G#2",
          "midi": 44,
          "time": 143.56469968749988,
          "velocity": 0.5511811023622047,
          "duration": 0.2734353124999984
        },
        {
          "name": "D#3",
          "midi": 51,
          "time": 143.83255468749988,
          "velocity": 0.6299212598425197,
          "duration": 0.07672929687498709
        },
        {
          "name": "D2",
          "midi": 38,
          "time": 144.10040968749988,
          "velocity": 0.905511811023622,
          "duration": 0.2580894531249953
        },
        {
          "name": "G#2",
          "midi": 44,
          "time": 144.10040968749988,
          "velocity": 0.5511811023622047,
          "duration": 0.276225468749999
        },
        {
          "name": "D#3",
          "midi": 51,
          "time": 144.10040968749988,
          "velocity": 0.7874015748031497,
          "duration": 0.08509976562498878
        },
        {
          "name": "B1",
          "midi": 35,
          "time": 144.36826468749987,
          "velocity": 1,
          "duration": 0.3501646093749855
        },
        {
          "name": "D#3",
          "midi": 51,
          "time": 144.36826468749987,
          "velocity": 0.6220472440944882,
          "duration": 0.09207515624999019
        },
        {
          "name": "D#3",
          "midi": 51,
          "time": 144.63611968749987,
          "velocity": 0.7874015748031497,
          "duration": 0.09347023437499047
        },
        {
          "name": "G#2",
          "midi": 44,
          "time": 144.63611968749987,
          "velocity": 0.5511811023622047,
          "duration": 0.27064515624999785
        },
        {
          "name": "B1",
          "midi": 35,
          "time": 144.90397468749987,
          "velocity": 1,
          "duration": 0.14787828125000146
        },
        {
          "name": "D#3",
          "midi": 51,
          "time": 144.90397468749987,
          "velocity": 0.6062992125984252,
          "duration": 0.06696375000001353
        },
        {
          "name": "B1",
          "midi": 35,
          "time": 145.17182968749987,
          "velocity": 1,
          "duration": 0.1157914843750234
        },
        {
          "name": "C#3",
          "midi": 49,
          "time": 145.17182968749987,
          "velocity": 0.7086614173228346,
          "duration": 0.06696375000001353
        },
        {
          "name": "B1",
          "midi": 35,
          "time": 145.4396846874999,
          "velocity": 1,
          "duration": 0.12695210937502566
        },
        {
          "name": "C#3",
          "midi": 49,
          "time": 145.4396846874999,
          "velocity": 0.7086614173228346,
          "duration": 0.06696375000001353
        },
        {
          "name": "B1",
          "midi": 35,
          "time": 145.70753968749992,
          "velocity": 1,
          "duration": 0.06696375000001353
        },
        {
          "name": "C#3",
          "midi": 49,
          "time": 145.70753968749992,
          "velocity": 0.7086614173228346,
          "duration": 0.06696375000001353
        },
        {
          "name": "D2",
          "midi": 38,
          "time": 146.77895968749993,
          "velocity": 0.7874015748031497,
          "duration": 0.06696375000001353
        },
        {
          "name": "D2",
          "midi": 38,
          "time": 146.81244156249994,
          "velocity": 0.968503937007874,
          "duration": 0.06696375000001353
        },
        {
          "name": "B1",
          "midi": 35,
          "time": 146.91288718749996,
          "velocity": 1,
          "duration": 0.06696375000001353
        },
        {
          "name": "B1",
          "midi": 35,
          "time": 147.1807421875,
          "velocity": 1,
          "duration": 0.06696375000001353
        },
        {
          "name": "B1",
          "midi": 35,
          "time": 147.4485971875,
          "velocity": 1,
          "duration": 0.06696375000001353
        },
        {
          "name": "D2",
          "midi": 38,
          "time": 147.58252468750004,
          "velocity": 0.7874015748031497,
          "duration": 0.06696375000001353
        },
        {
          "name": "D2",
          "midi": 38,
          "time": 147.61600656250005,
          "velocity": 0.952755905511811,
          "duration": 0.06696375000001353
        },
        {
          "name": "B1",
          "midi": 35,
          "time": 147.85037968750007,
          "velocity": 1,
          "duration": 0.06696375000001353
        },
        {
          "name": "A3",
          "midi": 57,
          "time": 147.85037968750007,
          "velocity": 0.7086614173228346,
          "duration": 0.06696375000001353
        },
        {
          "name": "D2",
          "midi": 38,
          "time": 148.3860896875001,
          "velocity": 0.952755905511811,
          "duration": 0.06696375000001353
        },
        {
          "name": "D2",
          "midi": 38,
          "time": 148.52001718750012,
          "velocity": 0.952755905511811,
          "duration": 0.06696375000001353
        },
        {
          "name": "A2",
          "midi": 45,
          "time": 148.65394468750014,
          "velocity": 0.7952755905511811,
          "duration": 0.06696375000001353
        },
        {
          "name": "D2",
          "midi": 38,
          "time": 148.78787218750017,
          "velocity": 0.952755905511811,
          "duration": 0.06696375000001353
        },
        {
          "name": "D2",
          "midi": 38,
          "time": 148.9217996875002,
          "velocity": 0.952755905511811,
          "duration": 0.06696375000001353
        },
        {
          "name": "D2",
          "midi": 38,
          "time": 149.05572718750022,
          "velocity": 0.952755905511811,
          "duration": 0.06696375000001353
        },
        {
          "name": "D2",
          "midi": 38,
          "time": 149.18965468750025,
          "velocity": 0.952755905511811,
          "duration": 0.06696375000001353
        },
        {
          "name": "D2",
          "midi": 38,
          "time": 149.32358218750028,
          "velocity": 0.9291338582677166,
          "duration": 0.06696375000001353
        },
        {
          "name": "G2",
          "midi": 43,
          "time": 149.4575096875003,
          "velocity": 0.8740157480314961,
          "duration": 0.06696375000001353
        },
        {
          "name": "G2",
          "midi": 43,
          "time": 149.59143718750033,
          "velocity": 0.8503937007874016,
          "duration": 0.06696375000001353
        },
        {
          "name": "F2",
          "midi": 41,
          "time": 149.72536468750036,
          "velocity": 0.889763779527559,
          "duration": 0.06696375000001353
        },
        {
          "name": "F2",
          "midi": 41,
          "time": 149.8592921875004,
          "velocity": 0.8503937007874016,
          "duration": 0.06696375000001353
        },
        {
          "name": "B1",
          "midi": 35,
          "time": 149.9932196875004,
          "velocity": 1,
          "duration": 0.06696375000001353
        },
        {
          "name": "C#3",
          "midi": 49,
          "time": 149.9932196875004,
          "velocity": 0.8740157480314961,
          "duration": 0.06696375000001353
        },
        {
          "name": "G#2",
          "midi": 44,
          "time": 149.9932196875004,
          "velocity": 0.5511811023622047,
          "duration": 0.06696375000001353
        },
        {
          "name": "B1",
          "midi": 35,
          "time": 150.26107468750044,
          "velocity": 1,
          "duration": 0.06696375000001353
        },
        {
          "name": "D2",
          "midi": 38,
          "time": 150.52892968750047,
          "velocity": 0.952755905511811,
          "duration": 0.06696375000001353
        },
        {
          "name": "D#3",
          "midi": 51,
          "time": 150.52892968750047,
          "velocity": 0.8188976377952756,
          "duration": 0.06696375000001353
        },
        {
          "name": "G#2",
          "midi": 44,
          "time": 150.52892968750047,
          "velocity": 0.5511811023622047,
          "duration": 0.15903890625000372
        },
        {
          "name": "D#3",
          "midi": 51,
          "time": 150.79678468750046,
          "velocity": 0.6614173228346457,
          "duration": 0.06696375000001353
        },
        {
          "name": "B1",
          "midi": 35,
          "time": 151.0646396875005,
          "velocity": 1,
          "duration": 0.06696375000001353
        },
        {
          "name": "D#3",
          "midi": 51,
          "time": 151.0646396875005,
          "velocity": 0.8188976377952756,
          "duration": 0.06696375000001353
        },
        {
          "name": "G#2",
          "midi": 44,
          "time": 151.0646396875005,
          "velocity": 0.5511811023622047,
          "duration": 0.14090289062500005
        },
        {
          "name": "D#3",
          "midi": 51,
          "time": 151.33249468750049,
          "velocity": 0.6692913385826772,
          "duration": 0.06696375000001353
        },
        {
          "name": "B1",
          "midi": 35,
          "time": 151.33249468750049,
          "velocity": 1,
          "duration": 0.06696375000001353
        },
        {
          "name": "D2",
          "midi": 38,
          "time": 151.6003496875005,
          "velocity": 0.937007874015748,
          "duration": 0.06696375000001353
        },
        {
          "name": "D#3",
          "midi": 51,
          "time": 151.6003496875005,
          "velocity": 0.8188976377952756,
          "duration": 0.06696375000001353
        },
        {
          "name": "G#2",
          "midi": 44,
          "time": 151.6003496875005,
          "velocity": 0.5511811023622047,
          "duration": 0.16182906250000428
        },
        {
          "name": "D#3",
          "midi": 51,
          "time": 151.8682046875005,
          "velocity": 0.6692913385826772,
          "duration": 0.06696375000001353
        },
        {
          "name": "B1",
          "midi": 35,
          "time": 152.13605968750053,
          "velocity": 1,
          "duration": 0.06696375000001353
        },
        {
          "name": "D#3",
          "midi": 51,
          "time": 152.13605968750053,
          "velocity": 0.8188976377952756,
          "duration": 0.06696375000001353
        },
        {
          "name": "G#2",
          "midi": 44,
          "time": 152.13605968750053,
          "velocity": 0.5511811023622047,
          "duration": 0.1381127343749995
        },
        {
          "name": "B1",
          "midi": 35,
          "time": 152.40391468750053,
          "velocity": 1,
          "duration": 0.06696375000001353
        },
        {
          "name": "D#3",
          "midi": 51,
          "time": 152.40391468750053,
          "velocity": 0.6614173228346457,
          "duration": 0.06696375000001353
        },
        {
          "name": "D2",
          "midi": 38,
          "time": 152.67176968750056,
          "velocity": 0.937007874015748,
          "duration": 0.06696375000001353
        },
        {
          "name": "D#3",
          "midi": 51,
          "time": 152.67176968750056,
          "velocity": 0.8188976377952756,
          "duration": 0.06696375000001353
        },
        {
          "name": "G#2",
          "midi": 44,
          "time": 152.67176968750056,
          "velocity": 0.5511811023622047,
          "duration": 0.16461921875000485
        },
        {
          "name": "B1",
          "midi": 35,
          "time": 152.93962468750055,
          "velocity": 1,
          "duration": 0.06696375000001353
        },
        {
          "name": "D#3",
          "midi": 51,
          "time": 152.93962468750055,
          "velocity": 0.6692913385826772,
          "duration": 0.06696375000001353
        },
        {
          "name": "D2",
          "midi": 38,
          "time": 153.20747968750058,
          "velocity": 0.952755905511811,
          "duration": 0.06696375000001353
        },
        {
          "name": "D#3",
          "midi": 51,
          "time": 153.20747968750058,
          "velocity": 0.8188976377952756,
          "duration": 0.06696375000001353
        },
        {
          "name": "G#2",
          "midi": 44,
          "time": 153.20747968750058,
          "velocity": 0.5511811023622047,
          "duration": 0.15624875000000316
        },
        {
          "name": "B1",
          "midi": 35,
          "time": 153.47533468750058,
          "velocity": 1,
          "duration": 0.06696375000001353
        },
        {
          "name": "D#3",
          "midi": 51,
          "time": 153.47533468750058,
          "velocity": 0.6929133858267716,
          "duration": 0.06696375000001353
        },
        {
          "name": "D2",
          "midi": 38,
          "time": 153.7431896875006,
          "velocity": 0.952755905511811,
          "duration": 0.06696375000001353
        },
        {
          "name": "D#3",
          "midi": 51,
          "time": 153.7431896875006,
          "velocity": 0.8188976377952756,
          "duration": 0.06696375000001353
        },
        {
          "name": "G#2",
          "midi": 44,
          "time": 153.7431896875006,
          "velocity": 0.5511811023622047,
          "duration": 0.18554539062500908
        },
        {
          "name": "B1",
          "midi": 35,
          "time": 154.0110446875006,
          "velocity": 1,
          "duration": 0.06696375000001353
        },
        {
          "name": "D#3",
          "midi": 51,
          "time": 154.0110446875006,
          "velocity": 0.6929133858267716,
          "duration": 0.06696375000001353
        },
        {
          "name": "D2",
          "midi": 38,
          "time": 154.27889968750063,
          "velocity": 0.952755905511811,
          "duration": 0.06696375000001353
        },
        {
          "name": "D#3",
          "midi": 51,
          "time": 154.27889968750063,
          "velocity": 0.8188976377952756,
          "duration": 0.06696375000001353
        },
        {
          "name": "G#2",
          "midi": 44,
          "time": 154.27889968750063,
          "velocity": 0.5511811023622047,
          "duration": 0.14508812500002932
        },
        {
          "name": "B1",
          "midi": 35,
          "time": 154.41282718750065,
          "velocity": 1,
          "duration": 0.06696375000001353
        },
        {
          "name": "D#3",
          "midi": 51,
          "time": 154.54675468750068,
          "velocity": 0.7086614173228346,
          "duration": 0.06696375000001353
        },
        {
          "name": "B1",
          "midi": 35,
          "time": 154.6806821875007,
          "velocity": 1,
          "duration": 0.06696375000001353
        },
        {
          "name": "D2",
          "midi": 38,
          "time": 154.81460968750073,
          "velocity": 0.9291338582677166,
          "duration": 0.06696375000001353
        },
        {
          "name": "D#3",
          "midi": 51,
          "time": 154.81460968750073,
          "velocity": 0.8188976377952756,
          "duration": 0.06696375000001353
        },
        {
          "name": "G#2",
          "midi": 44,
          "time": 154.81460968750073,
          "velocity": 0.5511811023622047,
          "duration": 0.1381127343750279
        },
        {
          "name": "B1",
          "midi": 35,
          "time": 154.94853718750076,
          "velocity": 1,
          "duration": 0.06696375000001353
        },
        {
          "name": "D#3",
          "midi": 51,
          "time": 155.0824646875008,
          "velocity": 0.6614173228346457,
          "duration": 0.06696375000001353
        },
        {
          "name": "B1",
          "midi": 35,
          "time": 155.21639218750082,
          "velocity": 1,
          "duration": 0.06696375000001353
        },
        {
          "name": "D2",
          "midi": 38,
          "time": 155.35031968750084,
          "velocity": 0.9291338582677166,
          "duration": 0.06696375000001353
        },
        {
          "name": "D#3",
          "midi": 51,
          "time": 155.35031968750084,
          "velocity": 0.8188976377952756,
          "duration": 0.06696375000001353
        },
        {
          "name": "G#2",
          "midi": 44,
          "time": 155.35031968750084,
          "velocity": 0.5511811023622047,
          "duration": 0.14927335937503017
        },
        {
          "name": "B1",
          "midi": 35,
          "time": 155.48424718750087,
          "velocity": 1,
          "duration": 0.06696375000001353
        },
        {
          "name": "D#3",
          "midi": 51,
          "time": 155.6181746875009,
          "velocity": 0.6456692913385826,
          "duration": 0.06696375000001353
        },
        {
          "name": "B1",
          "midi": 35,
          "time": 155.75210218750092,
          "velocity": 1,
          "duration": 0.06696375000001353
        },
        {
          "name": "D2",
          "midi": 38,
          "time": 155.88602968750095,
          "velocity": 0.9291338582677166,
          "duration": 0.06696375000001353
        },
        {
          "name": "G#2",
          "midi": 44,
          "time": 155.88602968750095,
          "velocity": 0.5511811023622047,
          "duration": 0.12974226562502622
        },
        {
          "name": "D2",
          "midi": 38,
          "time": 156.01995718750098,
          "velocity": 0.8346456692913385,
          "duration": 0.06696375000001353
        },
        {
          "name": "D2",
          "midi": 38,
          "time": 156.153884687501,
          "velocity": 0.952755905511811,
          "duration": 0.06696375000001353
        },
        {
          "name": "D2",
          "midi": 38,
          "time": 156.28781218750103,
          "velocity": 0.8818897637795275,
          "duration": 0.06696375000001353
        },
        {
          "name": "C#3",
          "midi": 49,
          "time": 156.42173968750106,
          "velocity": 0.984251968503937,
          "duration": 0.06696375000001353
        },
        {
          "name": "B1",
          "midi": 35,
          "time": 156.42173968750106,
          "velocity": 1,
          "duration": 0.06696375000001353
        },
        {
          "name": "D#2",
          "midi": 39,
          "time": 156.42173968750106,
          "velocity": 0.5511811023622047,
          "duration": 0.06696375000001353
        },
        {
          "name": "D2",
          "midi": 38,
          "time": 156.95744968750108,
          "velocity": 0.9606299212598425,
          "duration": 0.06696375000001353
        },
        {
          "name": "D#2",
          "midi": 39,
          "time": 156.95744968750108,
          "velocity": 0.5511811023622047,
          "duration": 0.06696375000001353
        },
        {
          "name": "D#3",
          "midi": 51,
          "time": 156.95744968750108,
          "velocity": 0.7480314960629921,
          "duration": 0.06696375000001353
        },
        {
          "name": "G#2",
          "midi": 44,
          "time": 156.95744968750108,
          "velocity": 0.5511811023622047,
          "duration": 0.06696375000001353
        },
        {
          "name": "D#3",
          "midi": 51,
          "time": 157.2253046875011,
          "velocity": 0.6299212598425197,
          "duration": 0.06696375000001353
        },
        {
          "name": "B1",
          "midi": 35,
          "time": 157.49315968750113,
          "velocity": 1,
          "duration": 0.06696375000001353
        },
        {
          "name": "D#2",
          "midi": 39,
          "time": 157.49315968750113,
          "velocity": 0.5590551181102362,
          "duration": 0.06696375000001353
        },
        {
          "name": "D#3",
          "midi": 51,
          "time": 157.49315968750113,
          "velocity": 0.7480314960629921,
          "duration": 0.06696375000001353
        },
        {
          "name": "G#2",
          "midi": 44,
          "time": 157.49315968750113,
          "velocity": 0.5590551181102362,
          "duration": 0.06696375000001353
        },
        {
          "name": "B1",
          "midi": 35,
          "time": 157.76101468750116,
          "velocity": 1,
          "duration": 0.06696375000001353
        },
        {
          "name": "D#3",
          "midi": 51,
          "time": 157.76101468750116,
          "velocity": 0.6062992125984252,
          "duration": 0.06696375000001353
        },
        {
          "name": "D2",
          "midi": 38,
          "time": 158.02886968750119,
          "velocity": 0.9606299212598425,
          "duration": 0.06696375000001353
        },
        {
          "name": "D#2",
          "midi": 39,
          "time": 158.02886968750119,
          "velocity": 0.5511811023622047,
          "duration": 0.06696375000001353
        },
        {
          "name": "D#3",
          "midi": 51,
          "time": 158.02886968750119,
          "velocity": 0.7086614173228346,
          "duration": 0.06696375000001353
        },
        {
          "name": "G#2",
          "midi": 44,
          "time": 158.02886968750119,
          "velocity": 0.5511811023622047,
          "duration": 0.06696375000001353
        },
        {
          "name": "D#3",
          "midi": 51,
          "time": 158.2967246875012,
          "velocity": 0.5905511811023622,
          "duration": 0.06696375000001353
        },
        {
          "name": "B1",
          "midi": 35,
          "time": 158.56457968750124,
          "velocity": 1,
          "duration": 0.06696375000001353
        },
        {
          "name": "D#2",
          "midi": 39,
          "time": 158.56457968750124,
          "velocity": 0.5511811023622047,
          "duration": 0.06696375000001353
        },
        {
          "name": "D#3",
          "midi": 51,
          "time": 158.56457968750124,
          "velocity": 0.7086614173228346,
          "duration": 0.06696375000001353
        },
        {
          "name": "G#2",
          "midi": 44,
          "time": 158.56457968750124,
          "velocity": 0.5511811023622047,
          "duration": 0.06696375000001353
        },
        {
          "name": "D#3",
          "midi": 51,
          "time": 158.83243468750126,
          "velocity": 0.6062992125984252,
          "duration": 0.06696375000001353
        },
        {
          "name": "B1",
          "midi": 35,
          "time": 158.9663621875013,
          "velocity": 1,
          "duration": 0.06696375000001353
        },
        {
          "name": "D2",
          "midi": 38,
          "time": 159.10028968750132,
          "velocity": 0.9606299212598425,
          "duration": 0.06696375000001353
        },
        {
          "name": "D#2",
          "midi": 39,
          "time": 159.10028968750132,
          "velocity": 0.5590551181102362,
          "duration": 0.06696375000001353
        },
        {
          "name": "D#3",
          "midi": 51,
          "time": 159.10028968750132,
          "velocity": 0.7086614173228346,
          "duration": 0.06696375000001353
        },
        {
          "name": "G#2",
          "midi": 44,
          "time": 159.10028968750132,
          "velocity": 0.5590551181102362,
          "duration": 0.06696375000001353
        },
        {
          "name": "B1",
          "midi": 35,
          "time": 159.36814468750134,
          "velocity": 1,
          "duration": 0.06696375000001353
        },
        {
          "name": "D#3",
          "midi": 51,
          "time": 159.36814468750134,
          "velocity": 0.5905511811023622,
          "duration": 0.06696375000001353
        },
        {
          "name": "D2",
          "midi": 38,
          "time": 159.63599968750137,
          "velocity": 0.9606299212598425,
          "duration": 0.06696375000001353
        },
        {
          "name": "D#2",
          "midi": 39,
          "time": 159.63599968750137,
          "velocity": 0.5354330708661418,
          "duration": 0.06696375000001353
        },
        {
          "name": "D#3",
          "midi": 51,
          "time": 159.63599968750137,
          "velocity": 0.7086614173228346,
          "duration": 0.06696375000001353
        },
        {
          "name": "G#2",
          "midi": 44,
          "time": 159.63599968750137,
          "velocity": 0.5354330708661418,
          "duration": 0.06696375000001353
        },
        {
          "name": "B1",
          "midi": 35,
          "time": 159.9038546875014,
          "velocity": 1,
          "duration": 0.06696375000001353
        },
        {
          "name": "D#3",
          "midi": 51,
          "time": 159.9038546875014,
          "velocity": 0.5905511811023622,
          "duration": 0.06696375000001353
        },
        {
          "name": "B1",
          "midi": 35,
          "time": 160.03778218750142,
          "velocity": 1,
          "duration": 0.06696375000001353
        },
        {
          "name": "D2",
          "midi": 38,
          "time": 160.17170968750145,
          "velocity": 0.9606299212598425,
          "duration": 0.06696375000001353
        },
        {
          "name": "D#2",
          "midi": 39,
          "time": 160.17170968750145,
          "velocity": 0.5511811023622047,
          "duration": 0.06696375000001353
        },
        {
          "name": "D#3",
          "midi": 51,
          "time": 160.17170968750145,
          "velocity": 0.7086614173228346,
          "duration": 0.06696375000001353
        },
        {
          "name": "G#2",
          "midi": 44,
          "time": 160.17170968750145,
          "velocity": 0.5511811023622047,
          "duration": 0.06696375000001353
        },
        {
          "name": "B1",
          "midi": 35,
          "time": 160.43956468750147,
          "velocity": 1,
          "duration": 0.06696375000001353
        },
        {
          "name": "D#3",
          "midi": 51,
          "time": 160.43956468750147,
          "velocity": 0.5826771653543307,
          "duration": 0.06696375000001353
        },
        {
          "name": "B1",
          "midi": 35,
          "time": 160.7074196875015,
          "velocity": 1,
          "duration": 0.06696375000001353
        },
        {
          "name": "D#2",
          "midi": 39,
          "time": 160.7074196875015,
          "velocity": 0.5511811023622047,
          "duration": 0.06696375000001353
        },
        {
          "name": "D#3",
          "midi": 51,
          "time": 160.7074196875015,
          "velocity": 0.7086614173228346,
          "duration": 0.06696375000001353
        },
        {
          "name": "G#2",
          "midi": 44,
          "time": 160.7074196875015,
          "velocity": 0.5511811023622047,
          "duration": 0.06696375000001353
        },
        {
          "name": "C#3",
          "midi": 49,
          "time": 160.7074196875015,
          "velocity": 0.7086614173228346,
          "duration": 0.06696375000001353
        },
        {
          "name": "D#3",
          "midi": 51,
          "time": 160.97527468750152,
          "velocity": 0.5905511811023622,
          "duration": 0.06696375000001353
        },
        {
          "name": "D2",
          "midi": 38,
          "time": 161.24312968750155,
          "velocity": 0.9606299212598425,
          "duration": 0.06696375000001353
        },
        {
          "name": "D#2",
          "midi": 39,
          "time": 161.24312968750155,
          "velocity": 0.5511811023622047,
          "duration": 0.06696375000001353
        },
        {
          "name": "D#3",
          "midi": 51,
          "time": 161.24312968750155,
          "velocity": 0.7086614173228346,
          "duration": 0.06696375000001353
        },
        {
          "name": "G#2",
          "midi": 44,
          "time": 161.24312968750155,
          "velocity": 0.5511811023622047,
          "duration": 0.06696375000001353
        },
        {
          "name": "D#3",
          "midi": 51,
          "time": 161.51098468750158,
          "velocity": 0.5826771653543307,
          "duration": 0.06696375000001353
        },
        {
          "name": "B1",
          "midi": 35,
          "time": 161.7788396875016,
          "velocity": 1,
          "duration": 0.06696375000001353
        },
        {
          "name": "D#2",
          "midi": 39,
          "time": 161.7788396875016,
          "velocity": 0.5511811023622047,
          "duration": 0.06696375000001353
        },
        {
          "name": "D#3",
          "midi": 51,
          "time": 161.7788396875016,
          "velocity": 0.7086614173228346,
          "duration": 0.06696375000001353
        },
        {
          "name": "G#2",
          "midi": 44,
          "time": 161.7788396875016,
          "velocity": 0.5511811023622047,
          "duration": 0.06696375000001353
        },
        {
          "name": "B1",
          "midi": 35,
          "time": 162.04669468750163,
          "velocity": 1,
          "duration": 0.06696375000001353
        },
        {
          "name": "D#3",
          "midi": 51,
          "time": 162.04669468750163,
          "velocity": 0.5826771653543307,
          "duration": 0.06696375000001353
        },
        {
          "name": "D2",
          "midi": 38,
          "time": 162.31454968750165,
          "velocity": 0.9606299212598425,
          "duration": 0.06696375000001353
        },
        {
          "name": "D#2",
          "midi": 39,
          "time": 162.31454968750165,
          "velocity": 0.5590551181102362,
          "duration": 0.06696375000001353
        },
        {
          "name": "D#3",
          "midi": 51,
          "time": 162.31454968750165,
          "velocity": 0.7086614173228346,
          "duration": 0.06696375000001353
        },
        {
          "name": "G#2",
          "midi": 44,
          "time": 162.31454968750165,
          "velocity": 0.5590551181102362,
          "duration": 0.06696375000001353
        },
        {
          "name": "D#3",
          "midi": 51,
          "time": 162.58240468750168,
          "velocity": 0.5826771653543307,
          "duration": 0.06696375000001353
        },
        {
          "name": "B1",
          "midi": 35,
          "time": 162.8502596875017,
          "velocity": 1,
          "duration": 0.06696375000001353
        },
        {
          "name": "D#2",
          "midi": 39,
          "time": 162.8502596875017,
          "velocity": 0.5354330708661418,
          "duration": 0.06696375000001353
        },
        {
          "name": "D#3",
          "midi": 51,
          "time": 162.8502596875017,
          "velocity": 0.7086614173228346,
          "duration": 0.06696375000001353
        },
        {
          "name": "G#2",
          "midi": 44,
          "time": 162.8502596875017,
          "velocity": 0.5354330708661418,
          "duration": 0.06696375000001353
        },
        {
          "name": "D#3",
          "midi": 51,
          "time": 163.11811468750173,
          "velocity": 0.5826771653543307,
          "duration": 0.06696375000001353
        },
        {
          "name": "B1",
          "midi": 35,
          "time": 163.25204218750176,
          "velocity": 1,
          "duration": 0.06696375000001353
        },
        {
          "name": "D2",
          "midi": 38,
          "time": 163.38596968750178,
          "velocity": 0.9606299212598425,
          "duration": 0.06696375000001353
        },
        {
          "name": "D#2",
          "midi": 39,
          "time": 163.38596968750178,
          "velocity": 0.5511811023622047,
          "duration": 0.06696375000001353
        },
        {
          "name": "D#3",
          "midi": 51,
          "time": 163.38596968750178,
          "velocity": 0.7086614173228346,
          "duration": 0.06696375000001353
        },
        {
          "name": "G#2",
          "midi": 44,
          "time": 163.38596968750178,
          "velocity": 0.5511811023622047,
          "duration": 0.06696375000001353
        },
        {
          "name": "B1",
          "midi": 35,
          "time": 163.6538246875018,
          "velocity": 1,
          "duration": 0.06696375000001353
        },
        {
          "name": "D#3",
          "midi": 51,
          "time": 163.6538246875018,
          "velocity": 0.5905511811023622,
          "duration": 0.06696375000001353
        },
        {
          "name": "D2",
          "midi": 38,
          "time": 163.92167968750184,
          "velocity": 0.9606299212598425,
          "duration": 0.06696375000001353
        },
        {
          "name": "D#2",
          "midi": 39,
          "time": 163.92167968750184,
          "velocity": 0.5511811023622047,
          "duration": 0.06696375000001353
        },
        {
          "name": "G#2",
          "midi": 44,
          "time": 163.92167968750184,
          "velocity": 0.5511811023622047,
          "duration": 0.06696375000001353
        },
        {
          "name": "D2",
          "midi": 38,
          "time": 164.05560718750186,
          "velocity": 0.9763779527559056,
          "duration": 0.06696375000001353
        },
        {
          "name": "B1",
          "midi": 35,
          "time": 164.1895346875019,
          "velocity": 1,
          "duration": 0.06696375000001353
        },
        {
          "name": "D2",
          "midi": 38,
          "time": 164.45738968750192,
          "velocity": 0.9606299212598425,
          "duration": 0.06696375000001353
        },
        {
          "name": "D#2",
          "midi": 39,
          "time": 164.45738968750192,
          "velocity": 0.5511811023622047,
          "duration": 0.06696375000001353
        },
        {
          "name": "G#2",
          "midi": 44,
          "time": 164.45738968750192,
          "velocity": 0.5511811023622047,
          "duration": 0.06696375000001353
        },
        {
          "name": "D2",
          "midi": 38,
          "time": 164.59131718750194,
          "velocity": 0.9763779527559056,
          "duration": 0.06696375000001353
        },
        {
          "name": "D2",
          "midi": 38,
          "time": 164.72524468750197,
          "velocity": 0.9606299212598425,
          "duration": 0.06696375000001353
        },
        {
          "name": "D2",
          "midi": 38,
          "time": 164.859172187502,
          "velocity": 0.9763779527559056,
          "duration": 0.06696375000001353
        },
        {
          "name": "B1",
          "midi": 35,
          "time": 164.99309968750202,
          "velocity": 1,
          "duration": 0.06696375000001353
        },
        {
          "name": "D#2",
          "midi": 39,
          "time": 164.99309968750202,
          "velocity": 0.5511811023622047,
          "duration": 0.06696375000001353
        },
        {
          "name": "G#2",
          "midi": 44,
          "time": 164.99309968750202,
          "velocity": 0.5511811023622047,
          "duration": 0.06696375000001353
        },
        {
          "name": "A3",
          "midi": 57,
          "time": 164.99309968750202,
          "velocity": 0.7086614173228346,
          "duration": 0.06696375000001353
        },
        {
          "name": "D2",
          "midi": 38,
          "time": 165.52880968750205,
          "velocity": 0.9606299212598425,
          "duration": 0.06696375000001353
        },
        {
          "name": "D#2",
          "midi": 39,
          "time": 165.52880968750205,
          "velocity": 0.5511811023622047,
          "duration": 0.06696375000001353
        },
        {
          "name": "D#3",
          "midi": 51,
          "time": 165.52880968750205,
          "velocity": 0.7086614173228346,
          "duration": 0.06696375000001353
        },
        {
          "name": "G#2",
          "midi": 44,
          "time": 165.52880968750205,
          "velocity": 0.5511811023622047,
          "duration": 0.06696375000001353
        },
        {
          "name": "D#3",
          "midi": 51,
          "time": 165.79666468750207,
          "velocity": 0.6220472440944882,
          "duration": 0.06696375000001353
        },
        {
          "name": "B1",
          "midi": 35,
          "time": 166.0645196875021,
          "velocity": 1,
          "duration": 0.06696375000001353
        },
        {
          "name": "D#2",
          "midi": 39,
          "time": 166.0645196875021,
          "velocity": 0.5590551181102362,
          "duration": 0.06696375000001353
        },
        {
          "name": "D#3",
          "midi": 51,
          "time": 166.0645196875021,
          "velocity": 0.7086614173228346,
          "duration": 0.06696375000001353
        },
        {
          "name": "G#2",
          "midi": 44,
          "time": 166.0645196875021,
          "velocity": 0.5590551181102362,
          "duration": 0.06696375000001353
        },
        {
          "name": "B1",
          "midi": 35,
          "time": 166.33237468750212,
          "velocity": 1,
          "duration": 0.06696375000001353
        },
        {
          "name": "D#3",
          "midi": 51,
          "time": 166.33237468750212,
          "velocity": 0.6062992125984252,
          "duration": 0.06696375000001353
        },
        {
          "name": "D2",
          "midi": 38,
          "time": 166.60022968750215,
          "velocity": 0.9606299212598425,
          "duration": 0.06696375000001353
        },
        {
          "name": "D#2",
          "midi": 39,
          "time": 166.60022968750215,
          "velocity": 0.5354330708661418,
          "duration": 0.06696375000001353
        },
        {
          "name": "D#3",
          "midi": 51,
          "time": 166.60022968750215,
          "velocity": 0.7086614173228346,
          "duration": 0.06696375000001353
        },
        {
          "name": "G#2",
          "midi": 44,
          "time": 166.60022968750215,
          "velocity": 0.5354330708661418,
          "duration": 0.06696375000001353
        },
        {
          "name": "D#3",
          "midi": 51,
          "time": 166.86808468750218,
          "velocity": 0.6062992125984252,
          "duration": 0.06696375000001353
        },
        {
          "name": "B1",
          "midi": 35,
          "time": 167.1359396875022,
          "velocity": 1,
          "duration": 0.06696375000001353
        },
        {
          "name": "D#2",
          "midi": 39,
          "time": 167.1359396875022,
          "velocity": 0.5511811023622047,
          "duration": 0.06696375000001353
        },
        {
          "name": "D#3",
          "midi": 51,
          "time": 167.1359396875022,
          "velocity": 0.7086614173228346,
          "duration": 0.06696375000001353
        },
        {
          "name": "G#2",
          "midi": 44,
          "time": 167.1359396875022,
          "velocity": 0.5511811023622047,
          "duration": 0.06696375000001353
        },
        {
          "name": "D#3",
          "midi": 51,
          "time": 167.40379468750223,
          "velocity": 0.5826771653543307,
          "duration": 0.06696375000001353
        },
        {
          "name": "B1",
          "midi": 35,
          "time": 167.53772218750225,
          "velocity": 1,
          "duration": 0.06696375000001353
        },
        {
          "name": "D2",
          "midi": 38,
          "time": 167.67164968750228,
          "velocity": 0.9606299212598425,
          "duration": 0.06696375000001353
        },
        {
          "name": "D#2",
          "midi": 39,
          "time": 167.67164968750228,
          "velocity": 0.5511811023622047,
          "duration": 0.06696375000001353
        },
        {
          "name": "D#3",
          "midi": 51,
          "time": 167.67164968750228,
          "velocity": 0.7086614173228346,
          "duration": 0.06696375000001353
        },
        {
          "name": "G#2",
          "midi": 44,
          "time": 167.67164968750228,
          "velocity": 0.5511811023622047,
          "duration": 0.06696375000001353
        },
        {
          "name": "B1",
          "midi": 35,
          "time": 167.9395046875023,
          "velocity": 1,
          "duration": 0.06696375000001353
        },
        {
          "name": "D#3",
          "midi": 51,
          "time": 167.9395046875023,
          "velocity": 0.5826771653543307,
          "duration": 0.06696375000001353
        },
        {
          "name": "D2",
          "midi": 38,
          "time": 168.20735968750233,
          "velocity": 0.9606299212598425,
          "duration": 0.06696375000001353
        },
        {
          "name": "D#2",
          "midi": 39,
          "time": 168.20735968750233,
          "velocity": 0.5590551181102362,
          "duration": 0.06696375000001353
        },
        {
          "name": "D#3",
          "midi": 51,
          "time": 168.20735968750233,
          "velocity": 0.7086614173228346,
          "duration": 0.06696375000001353
        },
        {
          "name": "G#2",
          "midi": 44,
          "time": 168.20735968750233,
          "velocity": 0.5590551181102362,
          "duration": 0.06696375000001353
        },
        {
          "name": "B1",
          "midi": 35,
          "time": 168.47521468750236,
          "velocity": 1,
          "duration": 0.06696375000001353
        },
        {
          "name": "D#3",
          "midi": 51,
          "time": 168.47521468750236,
          "velocity": 0.5433070866141733,
          "duration": 0.06696375000001353
        },
        {
          "name": "B1",
          "midi": 35,
          "time": 168.60914218750239,
          "velocity": 1,
          "duration": 0.06696375000001353
        },
        {
          "name": "D2",
          "midi": 38,
          "time": 168.7430696875024,
          "velocity": 0.9606299212598425,
          "duration": 0.06696375000001353
        },
        {
          "name": "D#2",
          "midi": 39,
          "time": 168.7430696875024,
          "velocity": 0.5354330708661418,
          "duration": 0.06696375000001353
        },
        {
          "name": "D#3",
          "midi": 51,
          "time": 168.7430696875024,
          "velocity": 0.7086614173228346,
          "duration": 0.06696375000001353
        },
        {
          "name": "G#2",
          "midi": 44,
          "time": 168.7430696875024,
          "velocity": 0.5354330708661418,
          "duration": 0.06696375000001353
        },
        {
          "name": "B1",
          "midi": 35,
          "time": 169.01092468750244,
          "velocity": 1,
          "duration": 0.06696375000001353
        },
        {
          "name": "D#3",
          "midi": 51,
          "time": 169.01092468750244,
          "velocity": 0.6220472440944882,
          "duration": 0.06696375000001353
        },
        {
          "name": "B1",
          "midi": 35,
          "time": 169.27877968750246,
          "velocity": 1,
          "duration": 0.06696375000001353
        },
        {
          "name": "D#2",
          "midi": 39,
          "time": 169.27877968750246,
          "velocity": 0.5433070866141733,
          "duration": 0.06696375000001353
        },
        {
          "name": "D#3",
          "midi": 51,
          "time": 169.27877968750246,
          "velocity": 0.7086614173228346,
          "duration": 0.06696375000001353
        },
        {
          "name": "G#2",
          "midi": 44,
          "time": 169.27877968750246,
          "velocity": 0.5433070866141733,
          "duration": 0.06696375000001353
        },
        {
          "name": "D#3",
          "midi": 51,
          "time": 169.5466346875025,
          "velocity": 0.6062992125984252,
          "duration": 0.06696375000001353
        },
        {
          "name": "D2",
          "midi": 38,
          "time": 169.81448968750252,
          "velocity": 0.9606299212598425,
          "duration": 0.06696375000001353
        },
        {
          "name": "D#2",
          "midi": 39,
          "time": 169.81448968750252,
          "velocity": 0.5590551181102362,
          "duration": 0.06696375000001353
        },
        {
          "name": "D#3",
          "midi": 51,
          "time": 169.81448968750252,
          "velocity": 0.6850393700787402,
          "duration": 0.06696375000001353
        },
        {
          "name": "G#2",
          "midi": 44,
          "time": 169.81448968750252,
          "velocity": 0.5590551181102362,
          "duration": 0.06696375000001353
        },
        {
          "name": "D#3",
          "midi": 51,
          "time": 170.08234468750254,
          "velocity": 0.6062992125984252,
          "duration": 0.06696375000001353
        },
        {
          "name": "B1",
          "midi": 35,
          "time": 170.35019968750257,
          "velocity": 1,
          "duration": 0.06696375000001353
        },
        {
          "name": "D#2",
          "midi": 39,
          "time": 170.35019968750257,
          "velocity": 0.5433070866141733,
          "duration": 0.06696375000001353
        },
        {
          "name": "D#3",
          "midi": 51,
          "time": 170.35019968750257,
          "velocity": 0.7086614173228346,
          "duration": 0.06696375000001353
        },
        {
          "name": "G#2",
          "midi": 44,
          "time": 170.35019968750257,
          "velocity": 0.5433070866141733,
          "duration": 0.06696375000001353
        },
        {
          "name": "B1",
          "midi": 35,
          "time": 170.6180546875026,
          "velocity": 1,
          "duration": 0.06696375000001353
        },
        {
          "name": "D#3",
          "midi": 51,
          "time": 170.6180546875026,
          "velocity": 0.6299212598425197,
          "duration": 0.06696375000001353
        },
        {
          "name": "D2",
          "midi": 38,
          "time": 170.88590968750262,
          "velocity": 0.9606299212598425,
          "duration": 0.06696375000001353
        },
        {
          "name": "D#2",
          "midi": 39,
          "time": 170.88590968750262,
          "velocity": 0.5433070866141733,
          "duration": 0.06696375000001353
        },
        {
          "name": "D#3",
          "midi": 51,
          "time": 170.88590968750262,
          "velocity": 0.7086614173228346,
          "duration": 0.06696375000001353
        },
        {
          "name": "G#2",
          "midi": 44,
          "time": 170.88590968750262,
          "velocity": 0.5433070866141733,
          "duration": 0.06696375000001353
        },
        {
          "name": "D#3",
          "midi": 51,
          "time": 171.15376468750264,
          "velocity": 0.5669291338582677,
          "duration": 0.06696375000001353
        },
        {
          "name": "B1",
          "midi": 35,
          "time": 171.42161968750267,
          "velocity": 1,
          "duration": 0.06696375000001353
        },
        {
          "name": "D#2",
          "midi": 39,
          "time": 171.42161968750267,
          "velocity": 0.5433070866141733,
          "duration": 0.06696375000001353
        },
        {
          "name": "D#3",
          "midi": 51,
          "time": 171.42161968750267,
          "velocity": 0.7086614173228346,
          "duration": 0.06696375000001353
        },
        {
          "name": "G#2",
          "midi": 44,
          "time": 171.42161968750267,
          "velocity": 0.5433070866141733,
          "duration": 0.06696375000001353
        },
        {
          "name": "D#3",
          "midi": 51,
          "time": 171.6894746875027,
          "velocity": 0.7086614173228346,
          "duration": 0.06696375000001353
        },
        {
          "name": "B1",
          "midi": 35,
          "time": 171.82340218750272,
          "velocity": 1,
          "duration": 0.06696375000001353
        },
        {
          "name": "D2",
          "midi": 38,
          "time": 171.95732968750275,
          "velocity": 0.9606299212598425,
          "duration": 0.06696375000001353
        },
        {
          "name": "D#2",
          "midi": 39,
          "time": 171.95732968750275,
          "velocity": 0.5748031496062992,
          "duration": 0.06696375000001353
        },
        {
          "name": "D#3",
          "midi": 51,
          "time": 171.95732968750275,
          "velocity": 0.7086614173228346,
          "duration": 0.06696375000001353
        },
        {
          "name": "G#2",
          "midi": 44,
          "time": 171.95732968750275,
          "velocity": 0.5748031496062992,
          "duration": 0.06696375000001353
        },
        {
          "name": "B1",
          "midi": 35,
          "time": 172.22518468750278,
          "velocity": 1,
          "duration": 0.06696375000001353
        },
        {
          "name": "D#3",
          "midi": 51,
          "time": 172.22518468750278,
          "velocity": 0.5826771653543307,
          "duration": 0.06696375000001353
        },
        {
          "name": "B1",
          "midi": 35,
          "time": 172.3591121875028,
          "velocity": 1,
          "duration": 0.06696375000001353
        },
        {
          "name": "D2",
          "midi": 38,
          "time": 172.49303968750283,
          "velocity": 0.9448818897637795,
          "duration": 0.06696375000001353
        },
        {
          "name": "D#2",
          "midi": 39,
          "time": 172.49303968750283,
          "velocity": 0.5511811023622047,
          "duration": 0.06696375000001353
        },
        {
          "name": "D#3",
          "midi": 51,
          "time": 172.49303968750283,
          "velocity": 0.7086614173228346,
          "duration": 0.06696375000001353
        },
        {
          "name": "G#2",
          "midi": 44,
          "time": 172.49303968750283,
          "velocity": 0.5511811023622047,
          "duration": 0.06696375000001353
        },
        {
          "name": "B1",
          "midi": 35,
          "time": 172.76089468750286,
          "velocity": 1,
          "duration": 0.06696375000001353
        },
        {
          "name": "D#3",
          "midi": 51,
          "time": 172.76089468750286,
          "velocity": 0.5826771653543307,
          "duration": 0.06696375000001353
        },
        {
          "name": "D2",
          "midi": 38,
          "time": 173.02874968750288,
          "velocity": 0.952755905511811,
          "duration": 0.06696375000001353
        },
        {
          "name": "D#2",
          "midi": 39,
          "time": 173.02874968750288,
          "velocity": 0.5511811023622047,
          "duration": 0.06696375000001353
        },
        {
          "name": "D#3",
          "midi": 51,
          "time": 173.02874968750288,
          "velocity": 0.7086614173228346,
          "duration": 0.06696375000001353
        },
        {
          "name": "G#2",
          "midi": 44,
          "time": 173.02874968750288,
          "velocity": 0.5511811023622047,
          "duration": 0.06696375000001353
        },
        {
          "name": "B1",
          "midi": 35,
          "time": 173.2966046875029,
          "velocity": 1,
          "duration": 0.06696375000001353
        },
        {
          "name": "D#3",
          "midi": 51,
          "time": 173.2966046875029,
          "velocity": 0.6062992125984252,
          "duration": 0.06696375000001353
        },
        {
          "name": "C#3",
          "midi": 49,
          "time": 173.56445968750293,
          "velocity": 0.7716535433070866,
          "duration": 0.06696375000001353
        },
        {
          "name": "B1",
          "midi": 35,
          "time": 173.56445968750293,
          "velocity": 1,
          "duration": 0.06696375000001353
        },
        {
          "name": "D#2",
          "midi": 39,
          "time": 173.56445968750293,
          "velocity": 0.5590551181102362,
          "duration": 0.06696375000001353
        },
        {
          "name": "G#2",
          "midi": 44,
          "time": 173.56445968750293,
          "velocity": 0.5590551181102362,
          "duration": 0.06696375000001353
        },
        {
          "name": "D2",
          "midi": 38,
          "time": 174.10016968750296,
          "velocity": 0.9606299212598425,
          "duration": 0.06696375000001353
        },
        {
          "name": "D#2",
          "midi": 39,
          "time": 174.10016968750296,
          "velocity": 0.5354330708661418,
          "duration": 0.06696375000001353
        },
        {
          "name": "D#3",
          "midi": 51,
          "time": 174.10016968750296,
          "velocity": 0.7086614173228346,
          "duration": 0.06696375000001353
        },
        {
          "name": "G#2",
          "midi": 44,
          "time": 174.10016968750296,
          "velocity": 0.5354330708661418,
          "duration": 0.06696375000001353
        },
        {
          "name": "D#3",
          "midi": 51,
          "time": 174.36802468750298,
          "velocity": 0.6062992125984252,
          "duration": 0.06696375000001353
        },
        {
          "name": "B1",
          "midi": 35,
          "time": 174.635879687503,
          "velocity": 1,
          "duration": 0.06696375000001353
        },
        {
          "name": "D#2",
          "midi": 39,
          "time": 174.635879687503,
          "velocity": 0.5433070866141733,
          "duration": 0.06696375000001353
        },
        {
          "name": "D#3",
          "midi": 51,
          "time": 174.635879687503,
          "velocity": 0.7086614173228346,
          "duration": 0.06696375000001353
        },
        {
          "name": "G#2",
          "midi": 44,
          "time": 174.635879687503,
          "velocity": 0.5433070866141733,
          "duration": 0.06696375000001353
        },
        {
          "name": "B1",
          "midi": 35,
          "time": 174.90373468750303,
          "velocity": 1,
          "duration": 0.06696375000001353
        },
        {
          "name": "D#3",
          "midi": 51,
          "time": 174.90373468750303,
          "velocity": 0.6062992125984252,
          "duration": 0.06696375000001353
        },
        {
          "name": "D2",
          "midi": 38,
          "time": 175.17158968750306,
          "velocity": 0.9606299212598425,
          "duration": 0.06696375000001353
        },
        {
          "name": "D#2",
          "midi": 39,
          "time": 175.17158968750306,
          "velocity": 0.5590551181102362,
          "duration": 0.06696375000001353
        },
        {
          "name": "D#3",
          "midi": 51,
          "time": 175.17158968750306,
          "velocity": 0.7086614173228346,
          "duration": 0.06696375000001353
        },
        {
          "name": "G#2",
          "midi": 44,
          "time": 175.17158968750306,
          "velocity": 0.5590551181102362,
          "duration": 0.06696375000001353
        },
        {
          "name": "D#3",
          "midi": 51,
          "time": 175.43944468750308,
          "velocity": 0.6062992125984252,
          "duration": 0.06696375000001353
        },
        {
          "name": "B1",
          "midi": 35,
          "time": 175.7072996875031,
          "velocity": 1,
          "duration": 0.06696375000001353
        },
        {
          "name": "D#2",
          "midi": 39,
          "time": 175.7072996875031,
          "velocity": 0.5433070866141733,
          "duration": 0.06696375000001353
        },
        {
          "name": "D#3",
          "midi": 51,
          "time": 175.7072996875031,
          "velocity": 0.7086614173228346,
          "duration": 0.06696375000001353
        },
        {
          "name": "G#2",
          "midi": 44,
          "time": 175.7072996875031,
          "velocity": 0.5433070866141733,
          "duration": 0.06696375000001353
        },
        {
          "name": "D#3",
          "midi": 51,
          "time": 175.97515468750314,
          "velocity": 0.6220472440944882,
          "duration": 0.06696375000001353
        },
        {
          "name": "B1",
          "midi": 35,
          "time": 176.10908218750316,
          "velocity": 1,
          "duration": 0.06696375000001353
        },
        {
          "name": "D2",
          "midi": 38,
          "time": 176.2430096875032,
          "velocity": 0.9606299212598425,
          "duration": 0.06696375000001353
        },
        {
          "name": "D#2",
          "midi": 39,
          "time": 176.2430096875032,
          "velocity": 0.5433070866141733,
          "duration": 0.06696375000001353
        },
        {
          "name": "D#3",
          "midi": 51,
          "time": 176.2430096875032,
          "velocity": 0.7086614173228346,
          "duration": 0.06696375000001353
        },
        {
          "name": "G#2",
          "midi": 44,
          "time": 176.2430096875032,
          "velocity": 0.5433070866141733,
          "duration": 0.06696375000001353
        },
        {
          "name": "B1",
          "midi": 35,
          "time": 176.51086468750322,
          "velocity": 1,
          "duration": 0.06696375000001353
        },
        {
          "name": "D#3",
          "midi": 51,
          "time": 176.51086468750322,
          "velocity": 0.5826771653543307,
          "duration": 0.06696375000001353
        },
        {
          "name": "D2",
          "midi": 38,
          "time": 176.77871968750324,
          "velocity": 0.9606299212598425,
          "duration": 0.06696375000001353
        },
        {
          "name": "D#2",
          "midi": 39,
          "time": 176.77871968750324,
          "velocity": 0.5433070866141733,
          "duration": 0.06696375000001353
        },
        {
          "name": "D#3",
          "midi": 51,
          "time": 176.77871968750324,
          "velocity": 0.7086614173228346,
          "duration": 0.06696375000001353
        },
        {
          "name": "G#2",
          "midi": 44,
          "time": 176.77871968750324,
          "velocity": 0.5433070866141733,
          "duration": 0.06696375000001353
        },
        {
          "name": "B1",
          "midi": 35,
          "time": 177.04657468750327,
          "velocity": 1,
          "duration": 0.06696375000001353
        },
        {
          "name": "D#3",
          "midi": 51,
          "time": 177.04657468750327,
          "velocity": 0.5826771653543307,
          "duration": 0.06696375000001353
        },
        {
          "name": "B1",
          "midi": 35,
          "time": 177.1805021875033,
          "velocity": 1,
          "duration": 0.06696375000001353
        },
        {
          "name": "D2",
          "midi": 38,
          "time": 177.31442968750332,
          "velocity": 0.9606299212598425,
          "duration": 0.06696375000001353
        },
        {
          "name": "D#2",
          "midi": 39,
          "time": 177.31442968750332,
          "velocity": 0.5748031496062992,
          "duration": 0.06696375000001353
        },
        {
          "name": "D#3",
          "midi": 51,
          "time": 177.31442968750332,
          "velocity": 0.7086614173228346,
          "duration": 0.06696375000001353
        },
        {
          "name": "G#2",
          "midi": 44,
          "time": 177.31442968750332,
          "velocity": 0.5748031496062992,
          "duration": 0.06696375000001353
        },
        {
          "name": "B1",
          "midi": 35,
          "time": 177.58228468750335,
          "velocity": 1,
          "duration": 0.06696375000001353
        },
        {
          "name": "D#3",
          "midi": 51,
          "time": 177.58228468750335,
          "velocity": 0.6220472440944882,
          "duration": 0.06696375000001353
        },
        {
          "name": "B1",
          "midi": 35,
          "time": 177.85013968750337,
          "velocity": 1,
          "duration": 0.06696375000001353
        },
        {
          "name": "D#2",
          "midi": 39,
          "time": 177.85013968750337,
          "velocity": 0.5590551181102362,
          "duration": 0.06696375000001353
        },
        {
          "name": "G#2",
          "midi": 44,
          "time": 177.85013968750337,
          "velocity": 0.5590551181102362,
          "duration": 0.06696375000001353
        },
        {
          "name": "D#3",
          "midi": 51,
          "time": 177.85013968750337,
          "velocity": 0.7086614173228346,
          "duration": 0.06696375000001353
        },
        {
          "name": "D#3",
          "midi": 51,
          "time": 178.1179946875034,
          "velocity": 0.5905511811023622,
          "duration": 0.06696375000001353
        },
        {
          "name": "D2",
          "midi": 38,
          "time": 178.38584968750342,
          "velocity": 0.9606299212598425,
          "duration": 0.06696375000001353
        },
        {
          "name": "D#2",
          "midi": 39,
          "time": 178.38584968750342,
          "velocity": 0.5354330708661418,
          "duration": 0.06696375000001353
        },
        {
          "name": "D#3",
          "midi": 51,
          "time": 178.38584968750342,
          "velocity": 0.7086614173228346,
          "duration": 0.06696375000001353
        },
        {
          "name": "G#2",
          "midi": 44,
          "time": 178.38584968750342,
          "velocity": 0.5354330708661418,
          "duration": 0.06696375000001353
        },
        {
          "name": "D#3",
          "midi": 51,
          "time": 178.65370468750345,
          "velocity": 0.5826771653543307,
          "duration": 0.06696375000001353
        },
        {
          "name": "B1",
          "midi": 35,
          "time": 178.92155968750347,
          "velocity": 1,
          "duration": 0.06696375000001353
        },
        {
          "name": "D#2",
          "midi": 39,
          "time": 178.92155968750347,
          "velocity": 0.5433070866141733,
          "duration": 0.06696375000001353
        },
        {
          "name": "D#3",
          "midi": 51,
          "time": 178.92155968750347,
          "velocity": 0.7086614173228346,
          "duration": 0.06696375000001353
        },
        {
          "name": "G#2",
          "midi": 44,
          "time": 178.92155968750347,
          "velocity": 0.5433070866141733,
          "duration": 0.06696375000001353
        },
        {
          "name": "B1",
          "midi": 35,
          "time": 179.1894146875035,
          "velocity": 1,
          "duration": 0.06696375000001353
        },
        {
          "name": "D#3",
          "midi": 51,
          "time": 179.1894146875035,
          "velocity": 0.5905511811023622,
          "duration": 0.06696375000001353
        },
        {
          "name": "D2",
          "midi": 38,
          "time": 179.45726968750353,
          "velocity": 0.9606299212598425,
          "duration": 0.06696375000001353
        },
        {
          "name": "D#2",
          "midi": 39,
          "time": 179.45726968750353,
          "velocity": 0.5590551181102362,
          "duration": 0.06696375000001353
        },
        {
          "name": "D#3",
          "midi": 51,
          "time": 179.45726968750353,
          "velocity": 0.7086614173228346,
          "duration": 0.06696375000001353
        },
        {
          "name": "G#2",
          "midi": 44,
          "time": 179.45726968750353,
          "velocity": 0.5590551181102362,
          "duration": 0.06696375000001353
        },
        {
          "name": "D#3",
          "midi": 51,
          "time": 179.72512468750355,
          "velocity": 0.5905511811023622,
          "duration": 0.06696375000001353
        },
        {
          "name": "B1",
          "midi": 35,
          "time": 179.99297968750358,
          "velocity": 1,
          "duration": 0.06696375000001353
        },
        {
          "name": "D#2",
          "midi": 39,
          "time": 179.99297968750358,
          "velocity": 0.5433070866141733,
          "duration": 0.06696375000001353
        },
        {
          "name": "D#3",
          "midi": 51,
          "time": 179.99297968750358,
          "velocity": 0.7086614173228346,
          "duration": 0.06696375000001353
        },
        {
          "name": "G#2",
          "midi": 44,
          "time": 179.99297968750358,
          "velocity": 0.5433070866141733,
          "duration": 0.06696375000001353
        },
        {
          "name": "D#3",
          "midi": 51,
          "time": 180.2608346875036,
          "velocity": 0.5826771653543307,
          "duration": 0.06696375000001353
        },
        {
          "name": "B1",
          "midi": 35,
          "time": 180.39476218750363,
          "velocity": 1,
          "duration": 0.06696375000001353
        },
        {
          "name": "D2",
          "midi": 38,
          "time": 180.52868968750366,
          "velocity": 0.9606299212598425,
          "duration": 0.06696375000001353
        },
        {
          "name": "D#2",
          "midi": 39,
          "time": 180.52868968750366,
          "velocity": 0.5433070866141733,
          "duration": 0.06696375000001353
        },
        {
          "name": "D#3",
          "midi": 51,
          "time": 180.52868968750366,
          "velocity": 0.7086614173228346,
          "duration": 0.06696375000001353
        },
        {
          "name": "G#2",
          "midi": 44,
          "time": 180.52868968750366,
          "velocity": 0.5433070866141733,
          "duration": 0.06696375000001353
        },
        {
          "name": "B1",
          "midi": 35,
          "time": 180.79654468750368,
          "velocity": 1,
          "duration": 0.06696375000001353
        },
        {
          "name": "D#3",
          "midi": 51,
          "time": 180.79654468750368,
          "velocity": 0.5905511811023622,
          "duration": 0.06696375000001353
        },
        {
          "name": "D2",
          "midi": 38,
          "time": 181.0643996875037,
          "velocity": 0.9606299212598425,
          "duration": 0.06696375000001353
        },
        {
          "name": "D#2",
          "midi": 39,
          "time": 181.0643996875037,
          "velocity": 0.5433070866141733,
          "duration": 0.06696375000001353
        },
        {
          "name": "G#2",
          "midi": 44,
          "time": 181.0643996875037,
          "velocity": 0.5433070866141733,
          "duration": 0.06696375000001353
        },
        {
          "name": "D2",
          "midi": 38,
          "time": 181.19832718750374,
          "velocity": 0.8818897637795275,
          "duration": 0.06696375000001353
        },
        {
          "name": "B1",
          "midi": 35,
          "time": 181.33225468750376,
          "velocity": 1,
          "duration": 0.06696375000001353
        },
        {
          "name": "C#3",
          "midi": 49,
          "time": 181.33225468750376,
          "velocity": 0.7086614173228346,
          "duration": 0.06696375000001353
        },
        {
          "name": "D#2",
          "midi": 39,
          "time": 181.6001096875038,
          "velocity": 0.5748031496062992,
          "duration": 0.06696375000001353
        },
        {
          "name": "G#2",
          "midi": 44,
          "time": 181.6001096875038,
          "velocity": 0.5748031496062992,
          "duration": 0.06696375000001353
        },
        {
          "name": "D2",
          "midi": 38,
          "time": 181.6001096875038,
          "velocity": 0.952755905511811,
          "duration": 0.06696375000001353
        },
        {
          "name": "B1",
          "midi": 35,
          "time": 181.73403718750382,
          "velocity": 1,
          "duration": 0.06696375000001353
        },
        {
          "name": "A3",
          "midi": 57,
          "time": 181.73403718750382,
          "velocity": 0.7086614173228346,
          "duration": 0.06696375000001353
        },
        {
          "name": "D2",
          "midi": 38,
          "time": 182.00189218750384,
          "velocity": 0.952755905511811,
          "duration": 0.06696375000001353
        },
        {
          "name": "C#3",
          "midi": 49,
          "time": 182.13581968750387,
          "velocity": 0.984251968503937,
          "duration": 0.06696375000001353
        },
        {
          "name": "B1",
          "midi": 35,
          "time": 182.13581968750387,
          "velocity": 1,
          "duration": 0.06696375000001353
        },
        {
          "name": "D#2",
          "midi": 39,
          "time": 182.13581968750387,
          "velocity": 0.5511811023622047,
          "duration": 0.06696375000001353
        },
        {
          "name": "D2",
          "midi": 38,
          "time": 182.6715296875039,
          "velocity": 0.9606299212598425,
          "duration": 0.06696375000001353
        },
        {
          "name": "D#2",
          "midi": 39,
          "time": 182.6715296875039,
          "velocity": 0.5511811023622047,
          "duration": 0.06696375000001353
        },
        {
          "name": "D#3",
          "midi": 51,
          "time": 182.6715296875039,
          "velocity": 0.7086614173228346,
          "duration": 0.06696375000001353
        },
        {
          "name": "G#2",
          "midi": 44,
          "time": 182.6715296875039,
          "velocity": 0.5511811023622047,
          "duration": 0.06696375000001353
        },
        {
          "name": "D#3",
          "midi": 51,
          "time": 182.93938468750392,
          "velocity": 0.6062992125984252,
          "duration": 0.06696375000001353
        },
        {
          "name": "B1",
          "midi": 35,
          "time": 183.20723968750394,
          "velocity": 1,
          "duration": 0.06696375000001353
        },
        {
          "name": "D#2",
          "midi": 39,
          "time": 183.20723968750394,
          "velocity": 0.5590551181102362,
          "duration": 0.06696375000001353
        },
        {
          "name": "D#3",
          "midi": 51,
          "time": 183.20723968750394,
          "velocity": 0.7086614173228346,
          "duration": 0.06696375000001353
        },
        {
          "name": "G#2",
          "midi": 44,
          "time": 183.20723968750394,
          "velocity": 0.5590551181102362,
          "duration": 0.06696375000001353
        },
        {
          "name": "B1",
          "midi": 35,
          "time": 183.47509468750397,
          "velocity": 1,
          "duration": 0.06696375000001353
        },
        {
          "name": "D#3",
          "midi": 51,
          "time": 183.47509468750397,
          "velocity": 0.5669291338582677,
          "duration": 0.06696375000001353
        },
        {
          "name": "D2",
          "midi": 38,
          "time": 183.742949687504,
          "velocity": 0.9606299212598425,
          "duration": 0.06696375000001353
        },
        {
          "name": "D#2",
          "midi": 39,
          "time": 183.742949687504,
          "velocity": 0.5511811023622047,
          "duration": 0.06696375000001353
        },
        {
          "name": "D#3",
          "midi": 51,
          "time": 183.742949687504,
          "velocity": 0.7086614173228346,
          "duration": 0.06696375000001353
        },
        {
          "name": "G#2",
          "midi": 44,
          "time": 183.742949687504,
          "velocity": 0.5511811023622047,
          "duration": 0.06696375000001353
        },
        {
          "name": "D#3",
          "midi": 51,
          "time": 184.01080468750402,
          "velocity": 0.5826771653543307,
          "duration": 0.06696375000001353
        },
        {
          "name": "B1",
          "midi": 35,
          "time": 184.27865968750405,
          "velocity": 1,
          "duration": 0.06696375000001353
        },
        {
          "name": "D#2",
          "midi": 39,
          "time": 184.27865968750405,
          "velocity": 0.5511811023622047,
          "duration": 0.06696375000001353
        },
        {
          "name": "D#3",
          "midi": 51,
          "time": 184.27865968750405,
          "velocity": 0.7086614173228346,
          "duration": 0.06696375000001353
        },
        {
          "name": "G#2",
          "midi": 44,
          "time": 184.27865968750405,
          "velocity": 0.5511811023622047,
          "duration": 0.06696375000001353
        },
        {
          "name": "D#3",
          "midi": 51,
          "time": 184.54651468750407,
          "velocity": 0.5826771653543307,
          "duration": 0.06696375000001353
        },
        {
          "name": "B1",
          "midi": 35,
          "time": 184.6804421875041,
          "velocity": 1,
          "duration": 0.06696375000001353
        },
        {
          "name": "D2",
          "midi": 38,
          "time": 184.81436968750413,
          "velocity": 0.9606299212598425,
          "duration": 0.06696375000001353
        },
        {
          "name": "D#2",
          "midi": 39,
          "time": 184.81436968750413,
          "velocity": 0.5590551181102362,
          "duration": 0.06696375000001353
        },
        {
          "name": "D#3",
          "midi": 51,
          "time": 184.81436968750413,
          "velocity": 0.7086614173228346,
          "duration": 0.06696375000001353
        },
        {
          "name": "G#2",
          "midi": 44,
          "time": 184.81436968750413,
          "velocity": 0.5590551181102362,
          "duration": 0.06696375000001353
        },
        {
          "name": "B1",
          "midi": 35,
          "time": 185.08222468750415,
          "velocity": 1,
          "duration": 0.06696375000001353
        },
        {
          "name": "D#3",
          "midi": 51,
          "time": 185.08222468750415,
          "velocity": 0.5826771653543307,
          "duration": 0.06696375000001353
        },
        {
          "name": "D2",
          "midi": 38,
          "time": 185.35007968750418,
          "velocity": 0.9606299212598425,
          "duration": 0.06696375000001353
        },
        {
          "name": "D#2",
          "midi": 39,
          "time": 185.35007968750418,
          "velocity": 0.5354330708661418,
          "duration": 0.06696375000001353
        },
        {
          "name": "D#3",
          "midi": 51,
          "time": 185.35007968750418,
          "velocity": 0.7086614173228346,
          "duration": 0.06696375000001353
        },
        {
          "name": "G#2",
          "midi": 44,
          "time": 185.35007968750418,
          "velocity": 0.5354330708661418,
          "duration": 0.06696375000001353
        },
        {
          "name": "B1",
          "midi": 35,
          "time": 185.6179346875042,
          "velocity": 1,
          "duration": 0.06696375000001353
        },
        {
          "name": "D#3",
          "midi": 51,
          "time": 185.6179346875042,
          "velocity": 0.5826771653543307,
          "duration": 0.06696375000001353
        },
        {
          "name": "B1",
          "midi": 35,
          "time": 185.75186218750423,
          "velocity": 1,
          "duration": 0.06696375000001353
        },
        {
          "name": "D2",
          "midi": 38,
          "time": 185.88578968750426,
          "velocity": 0.9606299212598425,
          "duration": 0.06696375000001353
        },
        {
          "name": "D#2",
          "midi": 39,
          "time": 185.88578968750426,
          "velocity": 0.5511811023622047,
          "duration": 0.06696375000001353
        },
        {
          "name": "D#3",
          "midi": 51,
          "time": 185.88578968750426,
          "velocity": 0.7086614173228346,
          "duration": 0.06696375000001353
        },
        {
          "name": "G#2",
          "midi": 44,
          "time": 185.88578968750426,
          "velocity": 0.5511811023622047,
          "duration": 0.06696375000001353
        },
        {
          "name": "B1",
          "midi": 35,
          "time": 186.15364468750428,
          "velocity": 1,
          "duration": 0.06696375000001353
        },
        {
          "name": "D#3",
          "midi": 51,
          "time": 186.15364468750428,
          "velocity": 0.5590551181102362,
          "duration": 0.06696375000001353
        },
        {
          "name": "B1",
          "midi": 35,
          "time": 186.4214996875043,
          "velocity": 1,
          "duration": 0.06696375000001353
        },
        {
          "name": "D#2",
          "midi": 39,
          "time": 186.4214996875043,
          "velocity": 0.5511811023622047,
          "duration": 0.06696375000001353
        },
        {
          "name": "D#3",
          "midi": 51,
          "time": 186.4214996875043,
          "velocity": 0.7086614173228346,
          "duration": 0.06696375000001353
        },
        {
          "name": "G#2",
          "midi": 44,
          "time": 186.4214996875043,
          "velocity": 0.5511811023622047,
          "duration": 0.06696375000001353
        },
        {
          "name": "D#3",
          "midi": 51,
          "time": 186.68935468750433,
          "velocity": 0.5669291338582677,
          "duration": 0.06696375000001353
        },
        {
          "name": "D2",
          "midi": 38,
          "time": 186.95720968750436,
          "velocity": 0.9606299212598425,
          "duration": 0.06696375000001353
        },
        {
          "name": "D#2",
          "midi": 39,
          "time": 186.95720968750436,
          "velocity": 0.5511811023622047,
          "duration": 0.06696375000001353
        },
        {
          "name": "D#3",
          "midi": 51,
          "time": 186.95720968750436,
          "velocity": 0.7086614173228346,
          "duration": 0.06696375000001353
        },
        {
          "name": "G#2",
          "midi": 44,
          "time": 186.95720968750436,
          "velocity": 0.5511811023622047,
          "duration": 0.06696375000001353
        },
        {
          "name": "D#3",
          "midi": 51,
          "time": 187.22506468750439,
          "velocity": 0.5590551181102362,
          "duration": 0.06696375000001353
        },
        {
          "name": "B1",
          "midi": 35,
          "time": 187.4929196875044,
          "velocity": 1,
          "duration": 0.06696375000001353
        },
        {
          "name": "D#2",
          "midi": 39,
          "time": 187.4929196875044,
          "velocity": 0.5511811023622047,
          "duration": 0.06696375000001353
        },
        {
          "name": "D#3",
          "midi": 51,
          "time": 187.4929196875044,
          "velocity": 0.7086614173228346,
          "duration": 0.06696375000001353
        },
        {
          "name": "G#2",
          "midi": 44,
          "time": 187.4929196875044,
          "velocity": 0.5511811023622047,
          "duration": 0.06696375000001353
        },
        {
          "name": "B1",
          "midi": 35,
          "time": 187.76077468750444,
          "velocity": 1,
          "duration": 0.06696375000001353
        },
        {
          "name": "D#3",
          "midi": 51,
          "time": 187.76077468750444,
          "velocity": 0.5590551181102362,
          "duration": 0.06696375000001353
        },
        {
          "name": "D2",
          "midi": 38,
          "time": 188.02862968750446,
          "velocity": 0.9606299212598425,
          "duration": 0.06696375000001353
        },
        {
          "name": "D#2",
          "midi": 39,
          "time": 188.02862968750446,
          "velocity": 0.5590551181102362,
          "duration": 0.06696375000001353
        },
        {
          "name": "D#3",
          "midi": 51,
          "time": 188.02862968750446,
          "velocity": 0.7086614173228346,
          "duration": 0.06696375000001353
        },
        {
          "name": "G#2",
          "midi": 44,
          "time": 188.02862968750446,
          "velocity": 0.5590551181102362,
          "duration": 0.06696375000001353
        },
        {
          "name": "D#3",
          "midi": 51,
          "time": 188.2964846875045,
          "velocity": 0.5196850393700787,
          "duration": 0.06696375000001353
        },
        {
          "name": "B1",
          "midi": 35,
          "time": 188.5643396875045,
          "velocity": 1,
          "duration": 0.06696375000001353
        },
        {
          "name": "D#2",
          "midi": 39,
          "time": 188.5643396875045,
          "velocity": 0.5354330708661418,
          "duration": 0.06696375000001353
        },
        {
          "name": "D#3",
          "midi": 51,
          "time": 188.5643396875045,
          "velocity": 0.7086614173228346,
          "duration": 0.06696375000001353
        },
        {
          "name": "G#2",
          "midi": 44,
          "time": 188.5643396875045,
          "velocity": 0.5354330708661418,
          "duration": 0.06696375000001353
        },
        {
          "name": "D#3",
          "midi": 51,
          "time": 188.83219468750454,
          "velocity": 0.5590551181102362,
          "duration": 0.06696375000001353
        },
        {
          "name": "B1",
          "midi": 35,
          "time": 188.96612218750457,
          "velocity": 1,
          "duration": 0.06696375000001353
        },
        {
          "name": "D2",
          "midi": 38,
          "time": 189.1000496875046,
          "velocity": 0.9606299212598425,
          "duration": 0.06696375000001353
        },
        {
          "name": "D#2",
          "midi": 39,
          "time": 189.1000496875046,
          "velocity": 0.5511811023622047,
          "duration": 0.06696375000001353
        },
        {
          "name": "D#3",
          "midi": 51,
          "time": 189.1000496875046,
          "velocity": 0.6929133858267716,
          "duration": 0.06696375000001353
        },
        {
          "name": "G#2",
          "midi": 44,
          "time": 189.1000496875046,
          "velocity": 0.5511811023622047,
          "duration": 0.06696375000001353
        },
        {
          "name": "B1",
          "midi": 35,
          "time": 189.36790468750462,
          "velocity": 1,
          "duration": 0.06696375000001353
        },
        {
          "name": "D#3",
          "midi": 51,
          "time": 189.36790468750462,
          "velocity": 0.6220472440944882,
          "duration": 0.06696375000001353
        },
        {
          "name": "D2",
          "midi": 38,
          "time": 189.63575968750465,
          "velocity": 0.9606299212598425,
          "duration": 0.06696375000001353
        },
        {
          "name": "D#2",
          "midi": 39,
          "time": 189.63575968750465,
          "velocity": 0.5511811023622047,
          "duration": 0.06696375000001353
        },
        {
          "name": "G#2",
          "midi": 44,
          "time": 189.63575968750465,
          "velocity": 0.5511811023622047,
          "duration": 0.06696375000001353
        },
        {
          "name": "D2",
          "midi": 38,
          "time": 189.76968718750467,
          "velocity": 0.9763779527559056,
          "duration": 0.06696375000001353
        },
        {
          "name": "B1",
          "midi": 35,
          "time": 189.9036146875047,
          "velocity": 1,
          "duration": 0.06696375000001353
        },
        {
          "name": "C#3",
          "midi": 49,
          "time": 189.9036146875047,
          "velocity": 0.7086614173228346,
          "duration": 0.06696375000001353
        },
        {
          "name": "D2",
          "midi": 38,
          "time": 190.17146968750473,
          "velocity": 0.9606299212598425,
          "duration": 0.06696375000001353
        },
        {
          "name": "D#2",
          "midi": 39,
          "time": 190.17146968750473,
          "velocity": 0.5511811023622047,
          "duration": 0.06696375000001353
        },
        {
          "name": "G#2",
          "midi": 44,
          "time": 190.17146968750473,
          "velocity": 0.5511811023622047,
          "duration": 0.06696375000001353
        },
        {
          "name": "D2",
          "midi": 38,
          "time": 190.30539718750475,
          "velocity": 0.9763779527559056,
          "duration": 0.06696375000001353
        },
        {
          "name": "B1",
          "midi": 35,
          "time": 190.43932468750478,
          "velocity": 1,
          "duration": 0.06696375000001353
        },
        {
          "name": "A3",
          "midi": 57,
          "time": 190.43932468750478,
          "velocity": 0.7086614173228346,
          "duration": 0.06696375000001353
        },
        {
          "name": "B1",
          "midi": 35,
          "time": 190.7071796875048,
          "velocity": 1,
          "duration": 0.06696375000001353
        },
        {
          "name": "D#2",
          "midi": 39,
          "time": 190.7071796875048,
          "velocity": 0.5511811023622047,
          "duration": 0.06696375000001353
        },
        {
          "name": "G#2",
          "midi": 44,
          "time": 190.7071796875048,
          "velocity": 0.5511811023622047,
          "duration": 0.06696375000001353
        },
        {
          "name": "C#3",
          "midi": 49,
          "time": 190.7071796875048,
          "velocity": 0.7086614173228346,
          "duration": 0.06696375000001353
        },
        {
          "name": "D2",
          "midi": 38,
          "time": 191.24288968750483,
          "velocity": 0.9606299212598425,
          "duration": 0.06696375000001353
        },
        {
          "name": "D#2",
          "midi": 39,
          "time": 191.24288968750483,
          "velocity": 0.5511811023622047,
          "duration": 0.06696375000001353
        },
        {
          "name": "D#3",
          "midi": 51,
          "time": 191.24288968750483,
          "velocity": 0.7086614173228346,
          "duration": 0.06696375000001353
        },
        {
          "name": "G#2",
          "midi": 44,
          "time": 191.24288968750483,
          "velocity": 0.5511811023622047,
          "duration": 0.06696375000001353
        },
        {
          "name": "D#3",
          "midi": 51,
          "time": 191.51074468750485,
          "velocity": 0.5905511811023622,
          "duration": 0.06696375000001353
        },
        {
          "name": "B1",
          "midi": 35,
          "time": 191.77859968750488,
          "velocity": 1,
          "duration": 0.06696375000001353
        },
        {
          "name": "D#2",
          "midi": 39,
          "time": 191.77859968750488,
          "velocity": 0.5590551181102362,
          "duration": 0.06696375000001353
        },
        {
          "name": "D#3",
          "midi": 51,
          "time": 191.77859968750488,
          "velocity": 0.7086614173228346,
          "duration": 0.06696375000001353
        },
        {
          "name": "G#2",
          "midi": 44,
          "time": 191.77859968750488,
          "velocity": 0.5590551181102362,
          "duration": 0.06696375000001353
        },
        {
          "name": "B1",
          "midi": 35,
          "time": 192.0464546875049,
          "velocity": 1,
          "duration": 0.06696375000001353
        },
        {
          "name": "D#3",
          "midi": 51,
          "time": 192.0464546875049,
          "velocity": 0.5433070866141733,
          "duration": 0.06696375000001353
        },
        {
          "name": "D2",
          "midi": 38,
          "time": 192.31430968750493,
          "velocity": 0.9606299212598425,
          "duration": 0.06696375000001353
        },
        {
          "name": "D#2",
          "midi": 39,
          "time": 192.31430968750493,
          "velocity": 0.5354330708661418,
          "duration": 0.06696375000001353
        },
        {
          "name": "D#3",
          "midi": 51,
          "time": 192.31430968750493,
          "velocity": 0.7086614173228346,
          "duration": 0.06696375000001353
        },
        {
          "name": "G#2",
          "midi": 44,
          "time": 192.31430968750493,
          "velocity": 0.5354330708661418,
          "duration": 0.06696375000001353
        },
        {
          "name": "D#3",
          "midi": 51,
          "time": 192.58216468750496,
          "velocity": 0.5433070866141733,
          "duration": 0.06696375000001353
        },
        {
          "name": "B1",
          "midi": 35,
          "time": 192.85001968750498,
          "velocity": 1,
          "duration": 0.06696375000001353
        },
        {
          "name": "D#2",
          "midi": 39,
          "time": 192.85001968750498,
          "velocity": 0.5511811023622047,
          "duration": 0.06696375000001353
        },
        {
          "name": "D#3",
          "midi": 51,
          "time": 192.85001968750498,
          "velocity": 0.7086614173228346,
          "duration": 0.06696375000001353
        },
        {
          "name": "G#2",
          "midi": 44,
          "time": 192.85001968750498,
          "velocity": 0.5511811023622047,
          "duration": 0.06696375000001353
        },
        {
          "name": "D#3",
          "midi": 51,
          "time": 193.117874687505,
          "velocity": 0.5590551181102362,
          "duration": 0.06696375000001353
        },
        {
          "name": "B1",
          "midi": 35,
          "time": 193.25180218750504,
          "velocity": 1,
          "duration": 0.06696375000001353
        },
        {
          "name": "D2",
          "midi": 38,
          "time": 193.38572968750506,
          "velocity": 0.9606299212598425,
          "duration": 0.06696375000001353
        },
        {
          "name": "D#2",
          "midi": 39,
          "time": 193.38572968750506,
          "velocity": 0.5511811023622047,
          "duration": 0.06696375000001353
        },
        {
          "name": "D#3",
          "midi": 51,
          "time": 193.38572968750506,
          "velocity": 0.7086614173228346,
          "duration": 0.06696375000001353
        },
        {
          "name": "G#2",
          "midi": 44,
          "time": 193.38572968750506,
          "velocity": 0.5511811023622047,
          "duration": 0.06696375000001353
        },
        {
          "name": "B1",
          "midi": 35,
          "time": 193.6535846875051,
          "velocity": 1,
          "duration": 0.06696375000001353
        },
        {
          "name": "D#3",
          "midi": 51,
          "time": 193.6535846875051,
          "velocity": 0.5590551181102362,
          "duration": 0.06696375000001353
        },
        {
          "name": "D2",
          "midi": 38,
          "time": 193.9214396875051,
          "velocity": 0.9606299212598425,
          "duration": 0.06696375000001353
        },
        {
          "name": "D#2",
          "midi": 39,
          "time": 193.9214396875051,
          "velocity": 0.5590551181102362,
          "duration": 0.06696375000001353
        },
        {
          "name": "D#3",
          "midi": 51,
          "time": 193.9214396875051,
          "velocity": 0.7086614173228346,
          "duration": 0.06696375000001353
        },
        {
          "name": "G#2",
          "midi": 44,
          "time": 193.9214396875051,
          "velocity": 0.5590551181102362,
          "duration": 0.06696375000001353
        },
        {
          "name": "B1",
          "midi": 35,
          "time": 194.18929468750514,
          "velocity": 1,
          "duration": 0.06696375000001353
        },
        {
          "name": "D#3",
          "midi": 51,
          "time": 194.18929468750514,
          "velocity": 0.5669291338582677,
          "duration": 0.06696375000001353
        },
        {
          "name": "B1",
          "midi": 35,
          "time": 194.32322218750517,
          "velocity": 1,
          "duration": 0.06696375000001353
        },
        {
          "name": "D2",
          "midi": 38,
          "time": 194.4571496875052,
          "velocity": 0.9606299212598425,
          "duration": 0.06696375000001353
        },
        {
          "name": "D#2",
          "midi": 39,
          "time": 194.4571496875052,
          "velocity": 0.5354330708661418,
          "duration": 0.06696375000001353
        },
        {
          "name": "D#3",
          "midi": 51,
          "time": 194.4571496875052,
          "velocity": 0.7086614173228346,
          "duration": 0.06696375000001353
        },
        {
          "name": "G#2",
          "midi": 44,
          "time": 194.4571496875052,
          "velocity": 0.5354330708661418,
          "duration": 0.06696375000001353
        },
        {
          "name": "B1",
          "midi": 35,
          "time": 194.72500468750522,
          "velocity": 1,
          "duration": 0.06696375000001353
        },
        {
          "name": "D#3",
          "midi": 51,
          "time": 194.72500468750522,
          "velocity": 0.5826771653543307,
          "duration": 0.06696375000001353
        },
        {
          "name": "B1",
          "midi": 35,
          "time": 194.99285968750524,
          "velocity": 1,
          "duration": 0.06696375000001353
        },
        {
          "name": "D#2",
          "midi": 39,
          "time": 194.99285968750524,
          "velocity": 0.5433070866141733,
          "duration": 0.06696375000001353
        },
        {
          "name": "D#3",
          "midi": 51,
          "time": 194.99285968750524,
          "velocity": 0.7086614173228346,
          "duration": 0.06696375000001353
        },
        {
          "name": "G#2",
          "midi": 44,
          "time": 194.99285968750524,
          "velocity": 0.5433070866141733,
          "duration": 0.06696375000001353
        },
        {
          "name": "D#3",
          "midi": 51,
          "time": 195.26071468750527,
          "velocity": 0.5590551181102362,
          "duration": 0.06696375000001353
        },
        {
          "name": "D2",
          "midi": 38,
          "time": 195.5285696875053,
          "velocity": 0.9606299212598425,
          "duration": 0.06696375000001353
        },
        {
          "name": "D#2",
          "midi": 39,
          "time": 195.5285696875053,
          "velocity": 0.5590551181102362,
          "duration": 0.06696375000001353
        },
        {
          "name": "D#3",
          "midi": 51,
          "time": 195.5285696875053,
          "velocity": 0.7086614173228346,
          "duration": 0.06696375000001353
        },
        {
          "name": "G#2",
          "midi": 44,
          "time": 195.5285696875053,
          "velocity": 0.5590551181102362,
          "duration": 0.06696375000001353
        },
        {
          "name": "D#3",
          "midi": 51,
          "time": 195.79642468750532,
          "velocity": 0.5669291338582677,
          "duration": 0.06696375000001353
        },
        {
          "name": "B1",
          "midi": 35,
          "time": 196.06427968750535,
          "velocity": 1,
          "duration": 0.06696375000001353
        },
        {
          "name": "D#2",
          "midi": 39,
          "time": 196.06427968750535,
          "velocity": 0.5433070866141733,
          "duration": 0.06696375000001353
        },
        {
          "name": "D#3",
          "midi": 51,
          "time": 196.06427968750535,
          "velocity": 0.7086614173228346,
          "duration": 0.06696375000001353
        },
        {
          "name": "G#2",
          "midi": 44,
          "time": 196.06427968750535,
          "velocity": 0.5433070866141733,
          "duration": 0.06696375000001353
        },
        {
          "name": "B1",
          "midi": 35,
          "time": 196.33213468750537,
          "velocity": 1,
          "duration": 0.06696375000001353
        },
        {
          "name": "D#3",
          "midi": 51,
          "time": 196.33213468750537,
          "velocity": 0.5669291338582677,
          "duration": 0.06696375000001353
        },
        {
          "name": "D2",
          "midi": 38,
          "time": 196.5999896875054,
          "velocity": 0.9606299212598425,
          "duration": 0.06696375000001353
        },
        {
          "name": "D#2",
          "midi": 39,
          "time": 196.5999896875054,
          "velocity": 0.5433070866141733,
          "duration": 0.06696375000001353
        },
        {
          "name": "D#3",
          "midi": 51,
          "time": 196.5999896875054,
          "velocity": 0.7086614173228346,
          "duration": 0.06696375000001353
        },
        {
          "name": "G#2",
          "midi": 44,
          "time": 196.5999896875054,
          "velocity": 0.5433070866141733,
          "duration": 0.06696375000001353
        },
        {
          "name": "D#3",
          "midi": 51,
          "time": 196.86784468750542,
          "velocity": 0.5826771653543307,
          "duration": 0.06696375000001353
        },
        {
          "name": "B1",
          "midi": 35,
          "time": 197.13569968750545,
          "velocity": 1,
          "duration": 0.06696375000001353
        },
        {
          "name": "D#2",
          "midi": 39,
          "time": 197.13569968750545,
          "velocity": 0.5433070866141733,
          "duration": 0.06696375000001353
        },
        {
          "name": "D#3",
          "midi": 51,
          "time": 197.13569968750545,
          "velocity": 0.7086614173228346,
          "duration": 0.06696375000001353
        },
        {
          "name": "G#2",
          "midi": 44,
          "time": 197.13569968750545,
          "velocity": 0.5433070866141733,
          "duration": 0.06696375000001353
        },
        {
          "name": "D#3",
          "midi": 51,
          "time": 197.40355468750548,
          "velocity": 0.6220472440944882,
          "duration": 0.06696375000001353
        },
        {
          "name": "B1",
          "midi": 35,
          "time": 197.5374821875055,
          "velocity": 1,
          "duration": 0.06696375000001353
        },
        {
          "name": "D2",
          "midi": 38,
          "time": 197.67140968750553,
          "velocity": 0.9606299212598425,
          "duration": 0.06696375000001353
        },
        {
          "name": "D#2",
          "midi": 39,
          "time": 197.67140968750553,
          "velocity": 0.5748031496062992,
          "duration": 0.06696375000001353
        },
        {
          "name": "D#3",
          "midi": 51,
          "time": 197.67140968750553,
          "velocity": 0.7165354330708661,
          "duration": 0.06696375000001353
        },
        {
          "name": "G#2",
          "midi": 44,
          "time": 197.67140968750553,
          "velocity": 0.5748031496062992,
          "duration": 0.06696375000001353
        },
        {
          "name": "B1",
          "midi": 35,
          "time": 197.93926468750556,
          "velocity": 1,
          "duration": 0.06696375000001353
        },
        {
          "name": "D#3",
          "midi": 51,
          "time": 197.93926468750556,
          "velocity": 0.6456692913385826,
          "duration": 0.06696375000001353
        },
        {
          "name": "D2",
          "midi": 38,
          "time": 198.20711968750558,
          "velocity": 0.9448818897637795,
          "duration": 0.06696375000001353
        },
        {
          "name": "D#2",
          "midi": 39,
          "time": 198.20711968750558,
          "velocity": 0.5511811023622047,
          "duration": 0.06696375000001353
        },
        {
          "name": "G#2",
          "midi": 44,
          "time": 198.20711968750558,
          "velocity": 0.5511811023622047,
          "duration": 0.06696375000001353
        },
        {
          "name": "D2",
          "midi": 38,
          "time": 198.3410471875056,
          "velocity": 0.905511811023622,
          "duration": 0.06696375000001353
        },
        {
          "name": "B1",
          "midi": 35,
          "time": 198.47497468750564,
          "velocity": 1,
          "duration": 0.06696375000001353
        },
        {
          "name": "C#3",
          "midi": 49,
          "time": 198.47497468750564,
          "velocity": 0.7086614173228346,
          "duration": 0.06696375000001353
        },
        {
          "name": "D2",
          "midi": 38,
          "time": 198.74282968750566,
          "velocity": 0.952755905511811,
          "duration": 0.06696375000001353
        },
        {
          "name": "D#2",
          "midi": 39,
          "time": 198.74282968750566,
          "velocity": 0.5511811023622047,
          "duration": 0.06696375000001353
        },
        {
          "name": "G#2",
          "midi": 44,
          "time": 198.74282968750566,
          "velocity": 0.5511811023622047,
          "duration": 0.06696375000001353
        },
        {
          "name": "D2",
          "midi": 38,
          "time": 198.8767571875057,
          "velocity": 0.8818897637795275,
          "duration": 0.06696375000001353
        },
        {
          "name": "B1",
          "midi": 35,
          "time": 199.01068468750572,
          "velocity": 1,
          "duration": 0.06696375000001353
        },
        {
          "name": "A3",
          "midi": 57,
          "time": 199.01068468750572,
          "velocity": 0.7086614173228346,
          "duration": 0.06696375000001353
        },
        {
          "name": "C#3",
          "midi": 49,
          "time": 199.27853968750574,
          "velocity": 0.7716535433070866,
          "duration": 0.06696375000001353
        },
        {
          "name": "B1",
          "midi": 35,
          "time": 199.27853968750574,
          "velocity": 1,
          "duration": 0.06696375000001353
        },
        {
          "name": "D#2",
          "midi": 39,
          "time": 199.27853968750574,
          "velocity": 0.5590551181102362,
          "duration": 0.06696375000001353
        },
        {
          "name": "G#2",
          "midi": 44,
          "time": 199.27853968750574,
          "velocity": 0.5590551181102362,
          "duration": 0.06696375000001353
        },
        {
          "name": "D2",
          "midi": 38,
          "time": 199.81424968750576,
          "velocity": 0.9606299212598425,
          "duration": 0.06696375000001353
        },
        {
          "name": "D#2",
          "midi": 39,
          "time": 199.81424968750576,
          "velocity": 0.5354330708661418,
          "duration": 0.06696375000001353
        },
        {
          "name": "D#3",
          "midi": 51,
          "time": 199.81424968750576,
          "velocity": 0.48031496062992124,
          "duration": 0.06696375000001353
        },
        {
          "name": "G#2",
          "midi": 44,
          "time": 199.81424968750576,
          "velocity": 0.5354330708661418,
          "duration": 0.06696375000001353
        },
        {
          "name": "D#3",
          "midi": 51,
          "time": 200.0821046875058,
          "velocity": 0.4330708661417323,
          "duration": 0.06696375000001353
        },
        {
          "name": "B1",
          "midi": 35,
          "time": 200.34995968750582,
          "velocity": 1,
          "duration": 0.06696375000001353
        },
        {
          "name": "D#2",
          "midi": 39,
          "time": 200.34995968750582,
          "velocity": 0.5433070866141733,
          "duration": 0.06696375000001353
        },
        {
          "name": "G#2",
          "midi": 44,
          "time": 200.34995968750582,
          "velocity": 0.7086614173228346,
          "duration": 0.06696375000001353
        },
        {
          "name": "B1",
          "midi": 35,
          "time": 200.61781468750584,
          "velocity": 1,
          "duration": 0.06696375000001353
        },
        {
          "name": "D2",
          "midi": 38,
          "time": 200.88566968750587,
          "velocity": 0.9606299212598425,
          "duration": 0.06696375000001353
        },
        {
          "name": "D#2",
          "midi": 39,
          "time": 200.88566968750587,
          "velocity": 0.5590551181102362,
          "duration": 0.06696375000001353
        },
        {
          "name": "G#2",
          "midi": 44,
          "time": 200.88566968750587,
          "velocity": 0.7086614173228346,
          "duration": 0.06696375000001353
        }
      ],
      "controlChanges": {
        "1": [
          {
            "number": 1,
            "time": 1.4062387500000002,
            "value": 0
          }
        ],
        "2": [
          {
            "number": 2,
            "time": 1.8080212500000001,
            "value": 0
          }
        ],
        "7": [
          {
            "number": 7,
            "time": 1.2388293750000001,
            "value": 1
          }
        ],
        "10": [
          {
            "number": 10,
            "time": 1.305793125,
            "value": 0.5039370078740157
          }
        ],
        "11": [
          {
            "number": 11,
            "time": 188.63688375000453,
            "value": 0.9448818897637795
          },
          {
            "number": 11,
            "time": 189.0944693750046,
            "value": 0.905511811023622
          },
          {
            "number": 11,
            "time": 189.64134000000465,
            "value": 0.8661417322834646
          },
          {
            "number": 11,
            "time": 190.16588937500472,
            "value": 0.8267716535433071
          },
          {
            "number": 11,
            "time": 190.7127600000048,
            "value": 0.7874015748031497
          },
          {
            "number": 11,
            "time": 191.24847000000483,
            "value": 0.7480314960629921
          },
          {
            "number": 11,
            "time": 191.77301937500488,
            "value": 0.7086614173228346
          },
          {
            "number": 11,
            "time": 192.33105062500493,
            "value": 0.6692913385826772
          },
          {
            "number": 11,
            "time": 192.86676062500499,
            "value": 0.6299212598425197
          },
          {
            "number": 11,
            "time": 193.38014937500506,
            "value": 0.5905511811023622
          },
          {
            "number": 11,
            "time": 193.9158593750051,
            "value": 0.5511811023622047
          },
          {
            "number": 11,
            "time": 194.4627300000052,
            "value": 0.5118110236220472
          },
          {
            "number": 11,
            "time": 195.00960062500525,
            "value": 0.47244094488188976
          },
          {
            "number": 11,
            "time": 195.5341500000053,
            "value": 0.4330708661417323
          },
          {
            "number": 11,
            "time": 196.05869937500535,
            "value": 0.3937007874015748
          },
          {
            "number": 11,
            "time": 196.6167306250054,
            "value": 0.3543307086614173
          },
          {
            "number": 11,
            "time": 197.14128000000545,
            "value": 0.31496062992125984
          },
          {
            "number": 11,
            "time": 197.67699000000553,
            "value": 0.2755905511811024
          },
          {
            "number": 11,
            "time": 198.20153937500558,
            "value": 0.23622047244094488
          },
          {
            "number": 11,
            "time": 198.75957062500567,
            "value": 0.1968503937007874
          },
          {
            "number": 11,
            "time": 199.27295937500574,
            "value": 0.15748031496062992
          },
          {
            "number": 11,
            "time": 199.81983000000577,
            "value": 0.11811023622047244
          },
          {
            "number": 11,
            "time": 200.35554000000582,
            "value": 0.07874015748031496
          },
          {
            "number": 11,
            "time": 200.88008937500587,
            "value": 0.03937007874015748
          },
          {
            "number": 11,
            "time": 201.37115687500588,
            "value": 0
          },
          {
            "number": 11,
            "time": 201.4269600000059,
            "value": 1
          }
        ],
        "32": [
          {
            "number": 32,
            "time": 1.1718656250000001,
            "value": 0
          }
        ],
        "91": [
          {
            "number": 91,
            "time": 1.5401662500000002,
            "value": 1
          }
        ],
        "93": [
          {
            "number": 93,
            "time": 1.6740937500000002,
            "value": 0
          }
        ],
        "121": [
          {
            "number": 121,
            "time": 0.9040106250000001,
            "value": 0
          }
        ]
      },
      "id": 9,
      "name": "Drums",
      "instrumentNumber": 0,
      "instrument": "standard kit",
      "instrumentFamily": "drums",
      "channelNumber": 9,
      "isPercussion": true
    },
    {
      "startTime": 41.78538,
      "duration": 139.59709750000002,
      "length": 2,
      "notes": [
        {
          "name": "B3",
          "midi": 59,
          "time": 41.78538,
          "velocity": 0.5905511811023622,
          "duration": 1.0714200000000034
        },
        {
          "name": "E3",
          "midi": 52,
          "time": 138.74889000000002,
          "velocity": 0.6299212598425197,
          "duration": 0.8482075000000009
        }
      ],
      "controlChanges": {
        "1": [
          {
            "number": 1,
            "time": 1.4062387500000002,
            "value": 0
          }
        ],
        "2": [
          {
            "number": 2,
            "time": 1.8080212500000001,
            "value": 0
          }
        ],
        "7": [
          {
            "number": 7,
            "time": 1.2388293750000001,
            "value": 0.7874015748031497
          }
        ],
        "10": [
          {
            "number": 10,
            "time": 1.305793125,
            "value": 0.5039370078740157
          }
        ],
        "32": [
          {
            "number": 32,
            "time": 1.1718656250000001,
            "value": 0
          }
        ],
        "91": [
          {
            "number": 91,
            "time": 1.5401662500000002,
            "value": 1
          }
        ],
        "93": [
          {
            "number": 93,
            "time": 1.6740937500000002,
            "value": 0
          }
        ],
        "121": [
          {
            "number": 121,
            "time": 0.9040106250000001,
            "value": 0
          }
        ]
      },
      "id": 10,
      "name": "GuitSlide",
      "instrumentNumber": 120,
      "instrumentFamily": "drums",
      "channelNumber": 10,
      "isPercussion": true
    },
    {
      "startTime": 100.71348,
      "duration": 109.82055000000001,
      "length": 13,
      "notes": [
        {
          "name": "D4",
          "midi": 62,
          "time": 100.71348,
          "velocity": 0.44881889763779526,
          "duration": 0.8035650000000061
        },
        {
          "name": "G4",
          "midi": 67,
          "time": 100.71348,
          "velocity": 0.44881889763779526,
          "duration": 0.8035650000000061
        },
        {
          "name": "G3",
          "midi": 55,
          "time": 100.71348,
          "velocity": 0.44881889763779526,
          "duration": 0.8035650000000061
        },
        {
          "name": "C#4",
          "midi": 61,
          "time": 101.51704500000001,
          "velocity": 0.4409448818897638,
          "duration": 0.8035650000000061
        },
        {
          "name": "F#4",
          "midi": 66,
          "time": 101.51704500000001,
          "velocity": 0.4409448818897638,
          "duration": 0.8035650000000061
        },
        {
          "name": "F#3",
          "midi": 54,
          "time": 101.51704500000001,
          "velocity": 0.4409448818897638,
          "duration": 0.8035650000000061
        },
        {
          "name": "B3",
          "midi": 59,
          "time": 102.32061000000002,
          "velocity": 0.4409448818897638,
          "duration": 0.5357099999999946
        },
        {
          "name": "E4",
          "midi": 64,
          "time": 102.32061000000002,
          "velocity": 0.4409448818897638,
          "duration": 0.5357099999999946
        },
        {
          "name": "E3",
          "midi": 52,
          "time": 102.32061000000002,
          "velocity": 0.4409448818897638,
          "duration": 0.5357099999999946
        },
        {
          "name": "F#3",
          "midi": 54,
          "time": 102.85632000000001,
          "velocity": 0.4409448818897638,
          "duration": 7.321370000000002
        },
        {
          "name": "A3",
          "midi": 57,
          "time": 102.85632000000001,
          "velocity": 0.4409448818897638,
          "duration": 7.857079999999996
        },
        {
          "name": "D4",
          "midi": 62,
          "time": 102.85632000000001,
          "velocity": 0.4409448818897638,
          "duration": 10.714199999999991
        },
        {
          "name": "D3",
          "midi": 50,
          "time": 102.85632000000001,
          "velocity": 0.4409448818897638,
          "duration": 6.964230000000001
        }
      ],
      "controlChanges": {
        "1": [
          {
            "number": 1,
            "time": 1.4062387500000002,
            "value": 0
          }
        ],
        "2": [
          {
            "number": 2,
            "time": 1.8080212500000001,
            "value": 0
          }
        ],
        "7": [
          {
            "number": 7,
            "time": 1.2388293750000001,
            "value": 0.7874015748031497
          }
        ],
        "10": [
          {
            "number": 10,
            "time": 1.305793125,
            "value": 0.5039370078740157
          }
        ],
        "32": [
          {
            "number": 32,
            "time": 1.1718656250000001,
            "value": 0
          }
        ],
        "91": [
          {
            "number": 91,
            "time": 1.5401662500000002,
            "value": 1
          }
        ],
        "93": [
          {
            "number": 93,
            "time": 1.6740937500000002,
            "value": 0
          }
        ],
        "121": [
          {
            "number": 121,
            "time": 0.9040106250000001,
            "value": 0
          }
        ]
      },
      "id": 11,
      "name": "GuitrFdBk",
      "instrumentNumber": 26,
      "instrument": "electric guitar (jazz)",
      "instrumentFamily": "guitar",
      "channelNumber": 11,
      "isPercussion": false
    },
    {
      "startTime": 53.571000000000005,
      "duration": 201.0251775000005,
      "length": 69,
      "notes": [
        {
          "name": "E4",
          "midi": 64,
          "time": 53.571000000000005,
          "velocity": 0.9448818897637795,
          "duration": 0.2594845312500027
        },
        {
          "name": "G4",
          "midi": 67,
          "time": 53.571000000000005,
          "velocity": 0.9448818897637795,
          "duration": 0.2594845312500027
        },
        {
          "name": "E4",
          "midi": 64,
          "time": 53.83885500000001,
          "velocity": 0.9448818897637795,
          "duration": 0.25529929687500186
        },
        {
          "name": "G4",
          "midi": 67,
          "time": 53.83885500000001,
          "velocity": 0.9448818897637795,
          "duration": 0.25529929687500186
        },
        {
          "name": "E4",
          "midi": 64,
          "time": 54.106710000000014,
          "velocity": 0.9448818897637795,
          "duration": 0.25529929687500186
        },
        {
          "name": "G4",
          "midi": 67,
          "time": 54.106710000000014,
          "velocity": 0.9448818897637795,
          "duration": 0.25529929687500186
        },
        {
          "name": "E4",
          "midi": 64,
          "time": 54.37456500000002,
          "velocity": 0.9448818897637795,
          "duration": 0.5357100000000017
        },
        {
          "name": "G4",
          "midi": 67,
          "time": 54.37456500000002,
          "velocity": 0.9448818897637795,
          "duration": 0.5357100000000017
        },
        {
          "name": "E4",
          "midi": 64,
          "time": 54.91027500000002,
          "velocity": 0.9448818897637795,
          "duration": 0.6696375000000074
        },
        {
          "name": "G4",
          "midi": 67,
          "time": 54.91027500000002,
          "velocity": 0.9448818897637795,
          "duration": 0.6696375000000074
        },
        {
          "name": "E4",
          "midi": 64,
          "time": 57.85668000000003,
          "velocity": 0.9448818897637795,
          "duration": 0.2594845312500027
        },
        {
          "name": "G4",
          "midi": 67,
          "time": 57.85668000000003,
          "velocity": 0.9448818897637795,
          "duration": 0.2594845312500027
        },
        {
          "name": "E4",
          "midi": 64,
          "time": 58.12453500000004,
          "velocity": 0.9448818897637795,
          "duration": 0.25529929687500186
        },
        {
          "name": "G4",
          "midi": 67,
          "time": 58.12453500000004,
          "velocity": 0.9448818897637795,
          "duration": 0.25529929687500186
        },
        {
          "name": "E4",
          "midi": 64,
          "time": 58.39239000000004,
          "velocity": 0.9448818897637795,
          "duration": 0.25529929687500186
        },
        {
          "name": "G4",
          "midi": 67,
          "time": 58.39239000000004,
          "velocity": 0.9448818897637795,
          "duration": 0.25529929687500186
        },
        {
          "name": "E4",
          "midi": 64,
          "time": 58.660245000000046,
          "velocity": 0.9448818897637795,
          "duration": 0.5357100000000017
        },
        {
          "name": "G4",
          "midi": 67,
          "time": 58.660245000000046,
          "velocity": 0.9448818897637795,
          "duration": 0.5357100000000017
        },
        {
          "name": "E4",
          "midi": 64,
          "time": 59.19595500000005,
          "velocity": 0.9448818897637795,
          "duration": 0.6696375000000074
        },
        {
          "name": "G4",
          "midi": 67,
          "time": 59.19595500000005,
          "velocity": 0.9448818897637795,
          "duration": 0.6696375000000074
        },
        {
          "name": "E4",
          "midi": 64,
          "time": 62.14236000000006,
          "velocity": 0.9448818897637795,
          "duration": 0.2594845312500027
        },
        {
          "name": "G4",
          "midi": 67,
          "time": 62.14236000000006,
          "velocity": 0.9448818897637795,
          "duration": 0.2594845312500027
        },
        {
          "name": "E4",
          "midi": 64,
          "time": 62.410215000000065,
          "velocity": 0.9448818897637795,
          "duration": 0.25529929687500186
        },
        {
          "name": "G4",
          "midi": 67,
          "time": 62.410215000000065,
          "velocity": 0.9448818897637795,
          "duration": 0.25529929687500186
        },
        {
          "name": "E4",
          "midi": 64,
          "time": 62.67807000000007,
          "velocity": 0.9448818897637795,
          "duration": 0.25529929687500186
        },
        {
          "name": "G4",
          "midi": 67,
          "time": 62.67807000000007,
          "velocity": 0.9448818897637795,
          "duration": 0.25529929687500186
        },
        {
          "name": "E4",
          "midi": 64,
          "time": 62.945925000000074,
          "velocity": 0.9448818897637795,
          "duration": 0.5357100000000017
        },
        {
          "name": "G4",
          "midi": 67,
          "time": 62.945925000000074,
          "velocity": 0.9448818897637795,
          "duration": 0.5357100000000017
        },
        {
          "name": "E4",
          "midi": 64,
          "time": 63.481635000000075,
          "velocity": 0.9448818897637795,
          "duration": 0.6696375000000003
        },
        {
          "name": "G4",
          "midi": 67,
          "time": 63.481635000000075,
          "velocity": 0.9448818897637795,
          "duration": 0.6696375000000003
        },
        {
          "name": "G4",
          "midi": 67,
          "time": 64.28520000000009,
          "velocity": 0.9448818897637795,
          "duration": 4.2856800000000135
        },
        {
          "name": "B4",
          "midi": 71,
          "time": 64.28520000000009,
          "velocity": 0.9448818897637795,
          "duration": 2.1428400000000067
        },
        {
          "name": "A#4",
          "midi": 70,
          "time": 66.4280400000001,
          "velocity": 0.9448818897637795,
          "duration": 2.1428400000000067
        },
        {
          "name": "A5",
          "midi": 81,
          "time": 143.5702800000001,
          "velocity": 0.8031496062992126,
          "duration": 4.284284921875241
        },
        {
          "name": "D5",
          "midi": 74,
          "time": 143.5702800000001,
          "velocity": 0.8031496062992126,
          "duration": 4.284284921875241
        },
        {
          "name": "B5",
          "midi": 83,
          "time": 147.85596000000035,
          "velocity": 0.9212598425196851,
          "duration": 2.1428400000002057
        },
        {
          "name": "B4",
          "midi": 71,
          "time": 147.85596000000035,
          "velocity": 0.9212598425196851,
          "duration": 2.1428400000002057
        },
        {
          "name": "E4",
          "midi": 64,
          "time": 167.14152000000055,
          "velocity": 0.9448818897637795,
          "duration": 0.2594845312499956
        },
        {
          "name": "G4",
          "midi": 67,
          "time": 167.14152000000055,
          "velocity": 0.9448818897637795,
          "duration": 0.2594845312499956
        },
        {
          "name": "E4",
          "midi": 64,
          "time": 167.40937500000055,
          "velocity": 0.9448818897637795,
          "duration": 0.25529929687499475
        },
        {
          "name": "G4",
          "midi": 67,
          "time": 167.40937500000055,
          "velocity": 0.9448818897637795,
          "duration": 0.25529929687499475
        },
        {
          "name": "E4",
          "midi": 64,
          "time": 167.67723000000055,
          "velocity": 0.9448818897637795,
          "duration": 0.25529929687499475
        },
        {
          "name": "G4",
          "midi": 67,
          "time": 167.67723000000055,
          "velocity": 0.9448818897637795,
          "duration": 0.25529929687499475
        },
        {
          "name": "E4",
          "midi": 64,
          "time": 167.94508500000055,
          "velocity": 0.9448818897637795,
          "duration": 0.5357099999999946
        },
        {
          "name": "G4",
          "midi": 67,
          "time": 167.94508500000055,
          "velocity": 0.9448818897637795,
          "duration": 0.5357099999999946
        },
        {
          "name": "E4",
          "midi": 64,
          "time": 168.48079500000054,
          "velocity": 0.9448818897637795,
          "duration": 0.6696374999999932
        },
        {
          "name": "G4",
          "midi": 67,
          "time": 168.48079500000054,
          "velocity": 0.9448818897637795,
          "duration": 0.6696374999999932
        },
        {
          "name": "E4",
          "midi": 64,
          "time": 171.42720000000054,
          "velocity": 0.9448818897637795,
          "duration": 0.2594845312499956
        },
        {
          "name": "G4",
          "midi": 67,
          "time": 171.42720000000054,
          "velocity": 0.9448818897637795,
          "duration": 0.2594845312499956
        },
        {
          "name": "E4",
          "midi": 64,
          "time": 171.69505500000054,
          "velocity": 0.9448818897637795,
          "duration": 0.25529929687499475
        },
        {
          "name": "G4",
          "midi": 67,
          "time": 171.69505500000054,
          "velocity": 0.9448818897637795,
          "duration": 0.25529929687499475
        },
        {
          "name": "E4",
          "midi": 64,
          "time": 171.96291000000053,
          "velocity": 0.9448818897637795,
          "duration": 0.25529929687499475
        },
        {
          "name": "G4",
          "midi": 67,
          "time": 171.96291000000053,
          "velocity": 0.9448818897637795,
          "duration": 0.25529929687499475
        },
        {
          "name": "E4",
          "midi": 64,
          "time": 172.23076500000053,
          "velocity": 0.9448818897637795,
          "duration": 0.6696374999999932
        },
        {
          "name": "G4",
          "midi": 67,
          "time": 172.23076500000053,
          "velocity": 0.9448818897637795,
          "duration": 0.6696374999999932
        },
        {
          "name": "E4",
          "midi": 64,
          "time": 172.76647500000053,
          "velocity": 0.9448818897637795,
          "duration": 0.6696374999999932
        },
        {
          "name": "G4",
          "midi": 67,
          "time": 172.76647500000053,
          "velocity": 0.9448818897637795,
          "duration": 0.6696374999999932
        },
        {
          "name": "E4",
          "midi": 64,
          "time": 175.71288000000052,
          "velocity": 0.9448818897637795,
          "duration": 0.2594845312499956
        },
        {
          "name": "G4",
          "midi": 67,
          "time": 175.71288000000052,
          "velocity": 0.9448818897637795,
          "duration": 0.2594845312499956
        },
        {
          "name": "E4",
          "midi": 64,
          "time": 175.98073500000052,
          "velocity": 0.9448818897637795,
          "duration": 0.25529929687499475
        },
        {
          "name": "G4",
          "midi": 67,
          "time": 175.98073500000052,
          "velocity": 0.9448818897637795,
          "duration": 0.25529929687499475
        },
        {
          "name": "E4",
          "midi": 64,
          "time": 176.24859000000052,
          "velocity": 0.9448818897637795,
          "duration": 0.25529929687499475
        },
        {
          "name": "G4",
          "midi": 67,
          "time": 176.24859000000052,
          "velocity": 0.9448818897637795,
          "duration": 0.25529929687499475
        },
        {
          "name": "E4",
          "midi": 64,
          "time": 176.51644500000052,
          "velocity": 0.9448818897637795,
          "duration": 0.5357099999999946
        },
        {
          "name": "G4",
          "midi": 67,
          "time": 176.51644500000052,
          "velocity": 0.9448818897637795,
          "duration": 0.5357099999999946
        },
        {
          "name": "E4",
          "midi": 64,
          "time": 177.0521550000005,
          "velocity": 0.9448818897637795,
          "duration": 0.7924043749999896
        },
        {
          "name": "G4",
          "midi": 67,
          "time": 177.0521550000005,
          "velocity": 0.9448818897637795,
          "duration": 0.7924043749999896
        },
        {
          "name": "G4",
          "midi": 67,
          "time": 177.8557200000005,
          "velocity": 0.9133858267716536,
          "duration": 23.169457499999993
        },
        {
          "name": "B4",
          "midi": 71,
          "time": 177.8557200000005,
          "velocity": 0.9133858267716536,
          "duration": 23.169457499999993
        }
      ],
      "controlChanges": {
        "1": [
          {
            "number": 1,
            "time": 1.4062387500000002,
            "value": 0
          },
          {
            "number": 1,
            "time": 144.59147718750012,
            "value": 0.007874015748031496
          },
          {
            "number": 1,
            "time": 144.62495906250012,
            "value": 0.015748031496062992
          },
          {
            "number": 1,
            "time": 144.63890984375013,
            "value": 0.023622047244094488
          },
          {
            "number": 1,
            "time": 144.66541632812513,
            "value": 0.031496062992125984
          },
          {
            "number": 1,
            "time": 144.67518187500013,
            "value": 0.03937007874015748
          },
          {
            "number": 1,
            "time": 144.69192281250014,
            "value": 0.047244094488188976
          },
          {
            "number": 1,
            "time": 144.70866375000014,
            "value": 0.05511811023622047
          },
          {
            "number": 1,
            "time": 144.72540468750014,
            "value": 0.06299212598425197
          },
          {
            "number": 1,
            "time": 144.74075054687515,
            "value": 0.07086614173228346
          },
          {
            "number": 1,
            "time": 144.74772593750015,
            "value": 0.07874015748031496
          },
          {
            "number": 1,
            "time": 144.75749148437515,
            "value": 0.08661417322834646
          },
          {
            "number": 1,
            "time": 144.77144226562515,
            "value": 0.09448818897637795
          },
          {
            "number": 1,
            "time": 144.78399796875016,
            "value": 0.10236220472440945
          },
          {
            "number": 1,
            "time": 144.79934382812516,
            "value": 0.11023622047244094
          },
          {
            "number": 1,
            "time": 144.80492414062516,
            "value": 0.11811023622047244
          },
          {
            "number": 1,
            "time": 144.81329460937516,
            "value": 0.12598425196850394
          },
          {
            "number": 1,
            "time": 144.83143062500017,
            "value": 0.14173228346456693
          },
          {
            "number": 1,
            "time": 144.83143062500017,
            "value": 0.13385826771653545
          },
          {
            "number": 1,
            "time": 144.84956664062517,
            "value": 0.14960629921259844
          },
          {
            "number": 1,
            "time": 144.86491250000017,
            "value": 0.15748031496062992
          },
          {
            "number": 1,
            "time": 144.88165343750018,
            "value": 0.1732283464566929
          },
          {
            "number": 1,
            "time": 144.88165343750018,
            "value": 0.16535433070866143
          },
          {
            "number": 1,
            "time": 144.89699929687518,
            "value": 0.18110236220472442
          },
          {
            "number": 1,
            "time": 144.90676484375018,
            "value": 0.1889763779527559
          },
          {
            "number": 1,
            "time": 144.92350578125019,
            "value": 0.1968503937007874
          },
          {
            "number": 1,
            "time": 144.9290860937502,
            "value": 0.2047244094488189
          },
          {
            "number": 1,
            "time": 144.9472221093752,
            "value": 0.2125984251968504
          },
          {
            "number": 1,
            "time": 144.9639630468752,
            "value": 0.2204724409448819
          },
          {
            "number": 1,
            "time": 144.9737285937502,
            "value": 0.2283464566929134
          },
          {
            "number": 1,
            "time": 144.9876793750002,
            "value": 0.23622047244094488
          },
          {
            "number": 1,
            "time": 144.9974449218752,
            "value": 0.2440944881889764
          },
          {
            "number": 1,
            "time": 145.0113957031252,
            "value": 0.25196850393700787
          },
          {
            "number": 1,
            "time": 145.0127907812502,
            "value": 0.25984251968503935
          },
          {
            "number": 1,
            "time": 145.0211612500002,
            "value": 0.2677165354330709
          },
          {
            "number": 1,
            "time": 145.0295317187502,
            "value": 0.2755905511811024
          },
          {
            "number": 1,
            "time": 145.0448775781252,
            "value": 0.28346456692913385
          },
          {
            "number": 1,
            "time": 145.0560382031252,
            "value": 0.29133858267716534
          },
          {
            "number": 1,
            "time": 145.0616185156252,
            "value": 0.2992125984251969
          },
          {
            "number": 1,
            "time": 145.07138406250021,
            "value": 0.31496062992125984
          },
          {
            "number": 1,
            "time": 145.07138406250021,
            "value": 0.30708661417322836
          },
          {
            "number": 1,
            "time": 145.07975453125022,
            "value": 0.3228346456692913
          },
          {
            "number": 1,
            "time": 145.08952007812522,
            "value": 0.33070866141732286
          },
          {
            "number": 1,
            "time": 145.09510039062522,
            "value": 0.33858267716535434
          },
          {
            "number": 1,
            "time": 145.09789054687522,
            "value": 0.3464566929133858
          },
          {
            "number": 1,
            "time": 145.10486593750022,
            "value": 0.3543307086614173
          },
          {
            "number": 1,
            "time": 145.11184132812522,
            "value": 0.36220472440944884
          },
          {
            "number": 1,
            "time": 145.11881671875022,
            "value": 0.3700787401574803
          },
          {
            "number": 1,
            "time": 145.12718718750023,
            "value": 0.3779527559055118
          },
          {
            "number": 1,
            "time": 145.13695273437523,
            "value": 0.3937007874015748
          },
          {
            "number": 1,
            "time": 145.13695273437523,
            "value": 0.3858267716535433
          },
          {
            "number": 1,
            "time": 145.14671828125023,
            "value": 0.4015748031496063
          },
          {
            "number": 1,
            "time": 145.15508875000023,
            "value": 0.4094488188976378
          },
          {
            "number": 1,
            "time": 145.16066906250023,
            "value": 0.41732283464566927
          },
          {
            "number": 1,
            "time": 145.16345921875023,
            "value": 0.4251968503937008
          },
          {
            "number": 1,
            "time": 145.17182968750024,
            "value": 0.4330708661417323
          },
          {
            "number": 1,
            "time": 145.17601492187524,
            "value": 0.44881889763779526
          },
          {
            "number": 1,
            "time": 145.17601492187524,
            "value": 0.4409448818897638
          },
          {
            "number": 1,
            "time": 145.18159523437524,
            "value": 0.4566929133858268
          },
          {
            "number": 1,
            "time": 145.18299031250024,
            "value": 0.4645669291338583
          },
          {
            "number": 1,
            "time": 145.19554601562524,
            "value": 0.48031496062992124
          },
          {
            "number": 1,
            "time": 145.19554601562524,
            "value": 0.47244094488188976
          },
          {
            "number": 1,
            "time": 145.20391648437524,
            "value": 0.4881889763779528
          },
          {
            "number": 1,
            "time": 145.20531156250024,
            "value": 0.49606299212598426
          },
          {
            "number": 1,
            "time": 145.21089187500024,
            "value": 0.5039370078740157
          },
          {
            "number": 1,
            "time": 145.21926234375024,
            "value": 0.5118110236220472
          },
          {
            "number": 1,
            "time": 145.22065742187525,
            "value": 0.5196850393700787
          },
          {
            "number": 1,
            "time": 145.23600328125025,
            "value": 0.5275590551181102
          },
          {
            "number": 1,
            "time": 145.24297867187525,
            "value": 0.5354330708661418
          },
          {
            "number": 1,
            "time": 145.24437375000025,
            "value": 0.5433070866141733
          },
          {
            "number": 1,
            "time": 145.25134914062525,
            "value": 0.5511811023622047
          },
          {
            "number": 1,
            "time": 145.25971960937525,
            "value": 0.5590551181102362
          },
          {
            "number": 1,
            "time": 145.26809007812525,
            "value": 0.5669291338582677
          },
          {
            "number": 1,
            "time": 145.27785562500026,
            "value": 0.5748031496062992
          },
          {
            "number": 1,
            "time": 145.27925070312526,
            "value": 0.5826771653543307
          },
          {
            "number": 1,
            "time": 145.28762117187526,
            "value": 0.5905511811023622
          },
          {
            "number": 1,
            "time": 145.29599164062526,
            "value": 0.5984251968503937
          },
          {
            "number": 1,
            "time": 145.30296703125026,
            "value": 0.6062992125984252
          },
          {
            "number": 1,
            "time": 145.31970796875027,
            "value": 0.6220472440944882
          },
          {
            "number": 1,
            "time": 145.31970796875027,
            "value": 0.6141732283464567
          },
          {
            "number": 1,
            "time": 145.32668335937527,
            "value": 0.6299212598425197
          },
          {
            "number": 1,
            "time": 145.34481937500027,
            "value": 0.6377952755905512
          },
          {
            "number": 1,
            "time": 145.36156031250027,
            "value": 0.6456692913385826
          },
          {
            "number": 1,
            "time": 145.39364710937528,
            "value": 0.6535433070866141
          },
          {
            "number": 1,
            "time": 145.41038804687528,
            "value": 0.6614173228346457
          },
          {
            "number": 1,
            "time": 145.4438699218753,
            "value": 0.6692913385826772
          },
          {
            "number": 1,
            "time": 145.4592157812503,
            "value": 0.6771653543307087
          },
          {
            "number": 1,
            "time": 145.4857222656253,
            "value": 0.6850393700787402
          },
          {
            "number": 1,
            "time": 145.5094385937503,
            "value": 0.7007874015748031
          },
          {
            "number": 1,
            "time": 145.5331549218753,
            "value": 0.7165354330708661
          },
          {
            "number": 1,
            "time": 145.5596614062503,
            "value": 0.7322834645669292
          },
          {
            "number": 1,
            "time": 145.58337773437532,
            "value": 0.7480314960629921
          },
          {
            "number": 1,
            "time": 145.61685960937533,
            "value": 0.7637795275590551
          },
          {
            "number": 1,
            "time": 145.65731687500033,
            "value": 0.7795275590551181
          },
          {
            "number": 1,
            "time": 145.69079875000034,
            "value": 0.7952755905511811
          },
          {
            "number": 1,
            "time": 145.71451507812534,
            "value": 0.8110236220472441
          },
          {
            "number": 1,
            "time": 145.79124437500033,
            "value": 0.8267716535433071
          },
          {
            "number": 1,
            "time": 145.86378843750032,
            "value": 0.84251968503937
          },
          {
            "number": 1,
            "time": 145.9474931250003,
            "value": 0.8582677165354331
          },
          {
            "number": 1,
            "time": 146.0479387500003,
            "value": 0.8740157480314961
          },
          {
            "number": 1,
            "time": 146.2292989062503,
            "value": 0.889763779527559
          },
          {
            "number": 1,
            "time": 146.3534608593753,
            "value": 0.905511811023622
          },
          {
            "number": 1,
            "time": 146.55993242187532,
            "value": 0.9212598425196851
          },
          {
            "number": 1,
            "time": 147.12912429687532,
            "value": 0.937007874015748
          },
          {
            "number": 1,
            "time": 147.2449157812503,
            "value": 0.952755905511811
          },
          {
            "number": 1,
            "time": 147.3439663281253,
            "value": 0.968503937007874
          },
          {
            "number": 1,
            "time": 147.3676826562503,
            "value": 0.952755905511811
          },
          {
            "number": 1,
            "time": 147.43325132812532,
            "value": 0.968503937007874
          },
          {
            "number": 1,
            "time": 147.48905445312533,
            "value": 0.952755905511811
          },
          {
            "number": 1,
            "time": 147.49742492187534,
            "value": 0.937007874015748
          },
          {
            "number": 1,
            "time": 147.49882000000034,
            "value": 0.9212598425196851
          },
          {
            "number": 1,
            "time": 147.50719046875034,
            "value": 0.905511811023622
          },
          {
            "number": 1,
            "time": 147.51556093750034,
            "value": 0.8740157480314961
          },
          {
            "number": 1,
            "time": 147.51556093750034,
            "value": 0.889763779527559
          },
          {
            "number": 1,
            "time": 147.52393140625034,
            "value": 0.8582677165354331
          },
          {
            "number": 1,
            "time": 147.52532648437534,
            "value": 0.84251968503937
          },
          {
            "number": 1,
            "time": 147.53090679687534,
            "value": 0.8267716535433071
          },
          {
            "number": 1,
            "time": 147.53369695312534,
            "value": 0.8110236220472441
          },
          {
            "number": 1,
            "time": 147.53927726562534,
            "value": 0.7795275590551181
          },
          {
            "number": 1,
            "time": 147.53927726562534,
            "value": 0.7952755905511811
          },
          {
            "number": 1,
            "time": 147.55601820312535,
            "value": 0.6614173228346457
          },
          {
            "number": 1,
            "time": 147.55601820312535,
            "value": 0.6850393700787402
          },
          {
            "number": 1,
            "time": 147.55601820312535,
            "value": 0.7322834645669292
          },
          {
            "number": 1,
            "time": 147.55601820312535,
            "value": 0.7480314960629921
          },
          {
            "number": 1,
            "time": 147.56438867187535,
            "value": 0.6299212598425197
          },
          {
            "number": 1,
            "time": 147.56578375000035,
            "value": 0.5984251968503937
          },
          {
            "number": 1,
            "time": 147.57275914062535,
            "value": 0.5039370078740157
          },
          {
            "number": 1,
            "time": 147.57275914062535,
            "value": 0.5511811023622047
          },
          {
            "number": 1,
            "time": 147.58112960937535,
            "value": 0.4566929133858268
          },
          {
            "number": 1,
            "time": 147.58391976562535,
            "value": 0.4015748031496063
          },
          {
            "number": 1,
            "time": 147.58950007812535,
            "value": 0.28346456692913385
          },
          {
            "number": 1,
            "time": 147.58950007812535,
            "value": 0.33858267716535434
          },
          {
            "number": 1,
            "time": 147.59787054687536,
            "value": 0.18110236220472442
          },
          {
            "number": 1,
            "time": 147.59787054687536,
            "value": 0.23622047244094488
          },
          {
            "number": 1,
            "time": 147.60484593750036,
            "value": 0.11023622047244094
          },
          {
            "number": 1,
            "time": 147.60624101562536,
            "value": 0.03937007874015748
          },
          {
            "number": 1,
            "time": 147.61600656250036,
            "value": 0
          },
          {
            "number": 1,
            "time": 147.99546781250035,
            "value": 0.015748031496062992
          },
          {
            "number": 1,
            "time": 148.00383828125035,
            "value": 0.047244094488188976
          },
          {
            "number": 1,
            "time": 148.00383828125035,
            "value": 0.023622047244094488
          },
          {
            "number": 1,
            "time": 148.01081367187535,
            "value": 0.09448818897637795
          },
          {
            "number": 1,
            "time": 148.01081367187535,
            "value": 0.07086614173228346
          },
          {
            "number": 1,
            "time": 148.01778906250036,
            "value": 0.11811023622047244
          },
          {
            "number": 1,
            "time": 148.02197429687536,
            "value": 0.14173228346456693
          },
          {
            "number": 1,
            "time": 148.02755460937536,
            "value": 0.16535433070866143
          },
          {
            "number": 1,
            "time": 148.02894968750036,
            "value": 0.1889763779527559
          },
          {
            "number": 1,
            "time": 148.03453000000036,
            "value": 0.2125984251968504
          },
          {
            "number": 1,
            "time": 148.03592507812536,
            "value": 0.2283464566929134
          },
          {
            "number": 1,
            "time": 148.04290046875036,
            "value": 0.25196850393700787
          },
          {
            "number": 1,
            "time": 148.04429554687536,
            "value": 0.2677165354330709
          },
          {
            "number": 1,
            "time": 148.05127093750036,
            "value": 0.29133858267716534
          },
          {
            "number": 1,
            "time": 148.05266601562536,
            "value": 0.31496062992125984
          },
          {
            "number": 1,
            "time": 148.05964140625036,
            "value": 0.3543307086614173
          },
          {
            "number": 1,
            "time": 148.05964140625036,
            "value": 0.33858267716535434
          },
          {
            "number": 1,
            "time": 148.06940695312537,
            "value": 0.3937007874015748
          },
          {
            "number": 1,
            "time": 148.07777742187537,
            "value": 0.41732283464566927
          },
          {
            "number": 1,
            "time": 148.07777742187537,
            "value": 0.4015748031496063
          },
          {
            "number": 1,
            "time": 148.08475281250037,
            "value": 0.4409448818897638
          },
          {
            "number": 1,
            "time": 148.08475281250037,
            "value": 0.4330708661417323
          },
          {
            "number": 1,
            "time": 148.09312328125037,
            "value": 0.44881889763779526
          },
          {
            "number": 1,
            "time": 148.09591343750037,
            "value": 0.4645669291338583
          },
          {
            "number": 1,
            "time": 148.10288882812537,
            "value": 0.48031496062992124
          },
          {
            "number": 1,
            "time": 148.10288882812537,
            "value": 0.47244094488188976
          },
          {
            "number": 1,
            "time": 148.10986421875037,
            "value": 0.49606299212598426
          },
          {
            "number": 1,
            "time": 148.10986421875037,
            "value": 0.4881889763779528
          },
          {
            "number": 1,
            "time": 148.11962976562538,
            "value": 0.5118110236220472
          },
          {
            "number": 1,
            "time": 148.11962976562538,
            "value": 0.5039370078740157
          },
          {
            "number": 1,
            "time": 148.12800023437538,
            "value": 0.5275590551181102
          },
          {
            "number": 1,
            "time": 148.12800023437538,
            "value": 0.5196850393700787
          },
          {
            "number": 1,
            "time": 148.13497562500038,
            "value": 0.5354330708661418
          },
          {
            "number": 1,
            "time": 148.14334609375038,
            "value": 0.5433070866141733
          },
          {
            "number": 1,
            "time": 148.15171656250038,
            "value": 0.5511811023622047
          },
          {
            "number": 1,
            "time": 148.15311164062538,
            "value": 0.5590551181102362
          },
          {
            "number": 1,
            "time": 148.16148210937538,
            "value": 0.5669291338582677
          },
          {
            "number": 1,
            "time": 148.1768279687504,
            "value": 0.5748031496062992
          },
          {
            "number": 1,
            "time": 148.1838033593754,
            "value": 0.5826771653543307
          },
          {
            "number": 1,
            "time": 148.1935689062504,
            "value": 0.5905511811023622
          },
          {
            "number": 1,
            "time": 148.2089147656254,
            "value": 0.5984251968503937
          },
          {
            "number": 1,
            "time": 148.2172852343754,
            "value": 0.6062992125984252
          },
          {
            "number": 1,
            "time": 148.2270507812504,
            "value": 0.6141732283464567
          },
          {
            "number": 1,
            "time": 148.2354212500004,
            "value": 0.6220472440944882
          },
          {
            "number": 1,
            "time": 148.2437917187504,
            "value": 0.6299212598425197
          },
          {
            "number": 1,
            "time": 148.2577425000004,
            "value": 0.6377952755905512
          },
          {
            "number": 1,
            "time": 148.2758785156254,
            "value": 0.6456692913385826
          },
          {
            "number": 1,
            "time": 148.2995948437504,
            "value": 0.6535433070866141
          },
          {
            "number": 1,
            "time": 148.31494070312542,
            "value": 0.6614173228346457
          },
          {
            "number": 1,
            "time": 148.33307671875042,
            "value": 0.6692913385826772
          },
          {
            "number": 1,
            "time": 148.34284226562542,
            "value": 0.6771653543307087
          },
          {
            "number": 1,
            "time": 148.35958320312542,
            "value": 0.6850393700787402
          },
          {
            "number": 1,
            "time": 148.38329953125043,
            "value": 0.7007874015748031
          },
          {
            "number": 1,
            "time": 148.41678140625044,
            "value": 0.7165354330708661
          },
          {
            "number": 1,
            "time": 148.45165835937544,
            "value": 0.7322834645669292
          },
          {
            "number": 1,
            "time": 148.48374515625045,
            "value": 0.7480314960629921
          },
          {
            "number": 1,
            "time": 148.53396796875046,
            "value": 0.7637795275590551
          },
          {
            "number": 1,
            "time": 148.56465968750047,
            "value": 0.7795275590551181
          },
          {
            "number": 1,
            "time": 148.60790710937547,
            "value": 0.7952755905511811
          },
          {
            "number": 1,
            "time": 148.62325296875048,
            "value": 0.8110236220472441
          },
          {
            "number": 1,
            "time": 148.63999390625048,
            "value": 0.8267716535433071
          },
          {
            "number": 1,
            "time": 148.6651053125005,
            "value": 0.84251968503937
          },
          {
            "number": 1,
            "time": 148.7027724218755,
            "value": 0.8582677165354331
          },
          {
            "number": 1,
            "time": 148.7292789062505,
            "value": 0.8740157480314961
          },
          {
            "number": 1,
            "time": 148.7474149218755,
            "value": 0.889763779527559
          },
          {
            "number": 1,
            "time": 148.7808967968755,
            "value": 0.905511811023622
          },
          {
            "number": 1,
            "time": 148.81298359375052,
            "value": 0.9212598425196851
          },
          {
            "number": 1,
            "time": 148.85483593750052,
            "value": 0.937007874015748
          },
          {
            "number": 1,
            "time": 148.88692273437553,
            "value": 0.952755905511811
          },
          {
            "number": 1,
            "time": 148.96086187500052,
            "value": 0.968503937007874
          },
          {
            "number": 1,
            "time": 148.98597328125052,
            "value": 0.984251968503937
          },
          {
            "number": 1,
            "time": 149.01108468750053,
            "value": 1
          },
          {
            "number": 1,
            "time": 149.77977273437554,
            "value": 0.8582677165354331
          },
          {
            "number": 1,
            "time": 149.77977273437554,
            "value": 0.937007874015748
          },
          {
            "number": 1,
            "time": 149.78535304687554,
            "value": 0.7480314960629921
          },
          {
            "number": 1,
            "time": 149.78674812500054,
            "value": 0.6692913385826772
          },
          {
            "number": 1,
            "time": 149.79511859375054,
            "value": 0.4566929133858268
          },
          {
            "number": 1,
            "time": 149.79511859375054,
            "value": 0.5748031496062992
          },
          {
            "number": 1,
            "time": 149.80209398437555,
            "value": 0.1968503937007874
          },
          {
            "number": 1,
            "time": 149.80348906250055,
            "value": 0
          },
          {
            "number": 1,
            "time": 181.2555253906255,
            "value": 0.007874015748031496
          },
          {
            "number": 1,
            "time": 181.2611057031255,
            "value": 0.015748031496062992
          },
          {
            "number": 1,
            "time": 181.2708712500005,
            "value": 0.023622047244094488
          },
          {
            "number": 1,
            "time": 181.2792417187505,
            "value": 0.031496062992125984
          },
          {
            "number": 1,
            "time": 181.2862171093755,
            "value": 0.03937007874015748
          },
          {
            "number": 1,
            "time": 181.29458757812552,
            "value": 0.047244094488188976
          },
          {
            "number": 1,
            "time": 181.30993343750052,
            "value": 0.05511811023622047
          },
          {
            "number": 1,
            "time": 181.31830390625052,
            "value": 0.06299212598425197
          },
          {
            "number": 1,
            "time": 181.33504484375052,
            "value": 0.07086614173228346
          },
          {
            "number": 1,
            "time": 181.33643992187552,
            "value": 0.07874015748031496
          },
          {
            "number": 1,
            "time": 181.36015625000053,
            "value": 0.08661417322834646
          },
          {
            "number": 1,
            "time": 181.37829226562553,
            "value": 0.09448818897637795
          },
          {
            "number": 1,
            "time": 181.39363812500054,
            "value": 0.10236220472440945
          },
          {
            "number": 1,
            "time": 181.40200859375054,
            "value": 0.11023622047244094
          },
          {
            "number": 1,
            "time": 181.42572492187554,
            "value": 0.11811023622047244
          },
          {
            "number": 1,
            "time": 181.45781171875055,
            "value": 0.12598425196850394
          },
          {
            "number": 1,
            "time": 181.55686226562554,
            "value": 0.13385826771653545
          },
          {
            "number": 1,
            "time": 181.67962914062554,
            "value": 0.14173228346456693
          },
          {
            "number": 1,
            "time": 181.74659289062555,
            "value": 0.14960629921259844
          },
          {
            "number": 1,
            "time": 181.97399062500054,
            "value": 0.15748031496062992
          },
          {
            "number": 1,
            "time": 182.09815257812554,
            "value": 0.16535433070866143
          },
          {
            "number": 1,
            "time": 182.14279507812554,
            "value": 0.15748031496062992
          },
          {
            "number": 1,
            "time": 182.26974718750054,
            "value": 0.16535433070866143
          },
          {
            "number": 1,
            "time": 182.29904382812555,
            "value": 0.14960629921259844
          },
          {
            "number": 1,
            "time": 182.30322906250055,
            "value": 0.13385826771653545
          },
          {
            "number": 1,
            "time": 182.31159953125055,
            "value": 0.14173228346456693
          },
          {
            "number": 1,
            "time": 182.34368632812556,
            "value": 0.14960629921259844
          },
          {
            "number": 1,
            "time": 182.35903218750056,
            "value": 0.15748031496062992
          },
          {
            "number": 1,
            "time": 182.44971226562555,
            "value": 0.16535433070866143
          },
          {
            "number": 1,
            "time": 182.48877445312556,
            "value": 0.1732283464566929
          },
          {
            "number": 1,
            "time": 182.56550375000054,
            "value": 0.18110236220472442
          },
          {
            "number": 1,
            "time": 182.68827062500054,
            "value": 0.1889763779527559
          },
          {
            "number": 1,
            "time": 183.08865804687554,
            "value": 0.1968503937007874
          },
          {
            "number": 1,
            "time": 183.20305445312553,
            "value": 0.2047244094488189
          },
          {
            "number": 1,
            "time": 183.34953765625053,
            "value": 0.1968503937007874
          },
          {
            "number": 1,
            "time": 183.47369960937553,
            "value": 0.2047244094488189
          },
          {
            "number": 1,
            "time": 183.58809601562552,
            "value": 0.2125984251968504
          },
          {
            "number": 1,
            "time": 183.69551703125052,
            "value": 0.2204724409448819
          },
          {
            "number": 1,
            "time": 183.9466310937505,
            "value": 0.2283464566929134
          },
          {
            "number": 1,
            "time": 184.0693979687505,
            "value": 0.23622047244094488
          },
          {
            "number": 1,
            "time": 184.27586953125052,
            "value": 0.2440944881889764
          },
          {
            "number": 1,
            "time": 184.71810929687553,
            "value": 0.25196850393700787
          },
          {
            "number": 1,
            "time": 185.19941125000054,
            "value": 0.25984251968503935
          },
          {
            "number": 1,
            "time": 185.79789976562554,
            "value": 0.2677165354330709
          },
          {
            "number": 1,
            "time": 185.95275343750055,
            "value": 0.2755905511811024
          },
          {
            "number": 1,
            "time": 186.07552031250054,
            "value": 0.28346456692913385
          },
          {
            "number": 1,
            "time": 186.14945945312553,
            "value": 0.29133858267716534
          },
          {
            "number": 1,
            "time": 186.42847507812553,
            "value": 0.2992125984251969
          },
          {
            "number": 1,
            "time": 186.68795960937553,
            "value": 0.30708661417322836
          },
          {
            "number": 1,
            "time": 187.00743250000053,
            "value": 0.2992125984251969
          },
          {
            "number": 1,
            "time": 187.05626023437554,
            "value": 0.30708661417322836
          },
          {
            "number": 1,
            "time": 187.27807765625053,
            "value": 0.31496062992125984
          },
          {
            "number": 1,
            "time": 187.53198187500053,
            "value": 0.3228346456692913
          },
          {
            "number": 1,
            "time": 187.68683554687553,
            "value": 0.31496062992125984
          },
          {
            "number": 1,
            "time": 187.85145476562553,
            "value": 0.3228346456692913
          },
          {
            "number": 1,
            "time": 188.12907531250053,
            "value": 0.33070866141732286
          },
          {
            "number": 1,
            "time": 188.82521929687553,
            "value": 0.33858267716535434
          },
          {
            "number": 1,
            "time": 189.32465726562552,
            "value": 0.3464566929133858
          },
          {
            "number": 1,
            "time": 189.4292881250005,
            "value": 0.33858267716535434
          },
          {
            "number": 1,
            "time": 189.72364960937549,
            "value": 0.3464566929133858
          },
          {
            "number": 1,
            "time": 190.0696289843755,
            "value": 0.3543307086614173
          },
          {
            "number": 1,
            "time": 190.3319036718755,
            "value": 0.3464566929133858
          },
          {
            "number": 1,
            "time": 190.42676898437549,
            "value": 0.3543307086614173
          },
          {
            "number": 1,
            "time": 190.78669914062547,
            "value": 0.36220472440944884
          },
          {
            "number": 1,
            "time": 190.92062664062547,
            "value": 0.3543307086614173
          },
          {
            "number": 1,
            "time": 191.27079125000049,
            "value": 0.36220472440944884
          },
          {
            "number": 1,
            "time": 191.67954914062548,
            "value": 0.3543307086614173
          },
          {
            "number": 1,
            "time": 191.7283768750005,
            "value": 0.36220472440944884
          },
          {
            "number": 1,
            "time": 192.3352358593755,
            "value": 0.3700787401574803
          },
          {
            "number": 1,
            "time": 193.2099498437505,
            "value": 0.3779527559055118
          },
          {
            "number": 1,
            "time": 194.2088257812505,
            "value": 0.3858267716535433
          },
          {
            "number": 1,
            "time": 194.3567040625005,
            "value": 0.3937007874015748
          },
          {
            "number": 1,
            "time": 194.65804093750052,
            "value": 0.4015748031496063
          },
          {
            "number": 1,
            "time": 194.8882288281255,
            "value": 0.4094488188976378
          },
          {
            "number": 1,
            "time": 195.3039621093755,
            "value": 0.41732283464566927
          },
          {
            "number": 1,
            "time": 195.5662367968755,
            "value": 0.4251968503937008
          },
          {
            "number": 1,
            "time": 195.7043495312505,
            "value": 0.4330708661417323
          },
          {
            "number": 1,
            "time": 195.9498832812505,
            "value": 0.4409448818897638
          },
          {
            "number": 1,
            "time": 196.4981489843755,
            "value": 0.44881889763779526
          },
          {
            "number": 1,
            "time": 196.6306814062505,
            "value": 0.4409448818897638
          },
          {
            "number": 1,
            "time": 197.0785014843755,
            "value": 0.44881889763779526
          },
          {
            "number": 1,
            "time": 197.1538357031255,
            "value": 0.4566929133858268
          },
          {
            "number": 1,
            "time": 197.4230857812505,
            "value": 0.4645669291338583
          },
          {
            "number": 1,
            "time": 198.3229111718755,
            "value": 0.47244094488188976
          },
          {
            "number": 1,
            "time": 198.6005317187505,
            "value": 0.48031496062992124
          },
          {
            "number": 1,
            "time": 198.8962882812505,
            "value": 0.47244094488188976
          },
          {
            "number": 1,
            "time": 198.9032636718755,
            "value": 0.4645669291338583
          },
          {
            "number": 1,
            "time": 198.9283750781255,
            "value": 0.47244094488188976
          },
          {
            "number": 1,
            "time": 198.9437209375005,
            "value": 0.4645669291338583
          },
          {
            "number": 1,
            "time": 198.9520914062505,
            "value": 0.4409448818897638
          },
          {
            "number": 1,
            "time": 198.9534864843755,
            "value": 0.4251968503937008
          },
          {
            "number": 1,
            "time": 198.9590667968755,
            "value": 0.3858267716535433
          },
          {
            "number": 1,
            "time": 198.9618569531255,
            "value": 0.3543307086614173
          },
          {
            "number": 1,
            "time": 198.9660421875005,
            "value": 0.31496062992125984
          },
          {
            "number": 1,
            "time": 198.9688323437505,
            "value": 0.2755905511811024
          },
          {
            "number": 1,
            "time": 198.9758077343755,
            "value": 0.2047244094488189
          },
          {
            "number": 1,
            "time": 198.9758077343755,
            "value": 0.2440944881889764
          },
          {
            "number": 1,
            "time": 198.9827831250005,
            "value": 0.16535433070866143
          },
          {
            "number": 1,
            "time": 198.9841782031255,
            "value": 0.10236220472440945
          },
          {
            "number": 1,
            "time": 198.9911535937505,
            "value": 0.031496062992125984
          },
          {
            "number": 1,
            "time": 198.9925486718755,
            "value": 0
          }
        ],
        "2": [
          {
            "number": 2,
            "time": 1.8080212500000001,
            "value": 0
          }
        ],
        "7": [
          {
            "number": 7,
            "time": 1.2388293750000001,
            "value": 0.7874015748031497
          }
        ],
        "10": [
          {
            "number": 10,
            "time": 1.305793125,
            "value": 0.47244094488188976
          }
        ],
        "11": [
          {
            "number": 11,
            "time": 188.63688375000052,
            "value": 0.9448818897637795
          },
          {
            "number": 11,
            "time": 189.09446937500053,
            "value": 0.905511811023622
          },
          {
            "number": 11,
            "time": 189.6413400000005,
            "value": 0.8661417322834646
          },
          {
            "number": 11,
            "time": 190.1658893750005,
            "value": 0.8267716535433071
          },
          {
            "number": 11,
            "time": 190.7127600000005,
            "value": 0.7874015748031497
          },
          {
            "number": 11,
            "time": 191.24847000000048,
            "value": 0.7480314960629921
          },
          {
            "number": 11,
            "time": 191.7730193750005,
            "value": 0.7086614173228346
          },
          {
            "number": 11,
            "time": 192.3310506250005,
            "value": 0.6692913385826772
          },
          {
            "number": 11,
            "time": 192.8667606250005,
            "value": 0.6299212598425197
          },
          {
            "number": 11,
            "time": 193.3801493750005,
            "value": 0.5905511811023622
          },
          {
            "number": 11,
            "time": 193.9158593750005,
            "value": 0.5511811023622047
          },
          {
            "number": 11,
            "time": 194.4627300000005,
            "value": 0.5118110236220472
          },
          {
            "number": 11,
            "time": 195.0096006250005,
            "value": 0.47244094488188976
          },
          {
            "number": 11,
            "time": 195.5341500000005,
            "value": 0.4330708661417323
          },
          {
            "number": 11,
            "time": 196.0586993750005,
            "value": 0.3937007874015748
          },
          {
            "number": 11,
            "time": 196.61673062500049,
            "value": 0.3543307086614173
          },
          {
            "number": 11,
            "time": 197.1412800000005,
            "value": 0.31496062992125984
          },
          {
            "number": 11,
            "time": 197.6769900000005,
            "value": 0.2755905511811024
          },
          {
            "number": 11,
            "time": 198.2015393750005,
            "value": 0.23622047244094488
          },
          {
            "number": 11,
            "time": 198.7595706250005,
            "value": 0.1968503937007874
          },
          {
            "number": 11,
            "time": 199.2729593750005,
            "value": 0.15748031496062992
          },
          {
            "number": 11,
            "time": 199.8198300000005,
            "value": 0.11811023622047244
          },
          {
            "number": 11,
            "time": 200.3555400000005,
            "value": 0.07874015748031496
          },
          {
            "number": 11,
            "time": 200.8800893750005,
            "value": 0.03937007874015748
          },
          {
            "number": 11,
            "time": 201.3711568750005,
            "value": 0
          },
          {
            "number": 11,
            "time": 201.42696000000052,
            "value": 1
          }
        ],
        "32": [
          {
            "number": 32,
            "time": 1.1718656250000001,
            "value": 0
          }
        ],
        "91": [
          {
            "number": 91,
            "time": 1.5401662500000002,
            "value": 1
          }
        ],
        "93": [
          {
            "number": 93,
            "time": 1.6740937500000002,
            "value": 0
          }
        ],
        "121": [
          {
            "number": 121,
            "time": 0.9040106250000001,
            "value": 0
          }
        ]
      },
      "id": 12,
      "name": "B Vocals 1",
      "instrumentNumber": 65,
      "instrument": "alto sax",
      "instrumentFamily": "reed",
      "channelNumber": 13,
      "isPercussion": false
    },
    {
      "startTime": 53.571000000000005,
      "duration": 201.02517750000027,
      "length": 33,
      "notes": [
        {
          "name": "B3",
          "midi": 59,
          "time": 53.571000000000005,
          "velocity": 0.9448818897637795,
          "duration": 0.2594845312500027
        },
        {
          "name": "B3",
          "midi": 59,
          "time": 53.83885500000001,
          "velocity": 0.9448818897637795,
          "duration": 0.25529929687500186
        },
        {
          "name": "B3",
          "midi": 59,
          "time": 54.106710000000014,
          "velocity": 0.9448818897637795,
          "duration": 0.25529929687500186
        },
        {
          "name": "B3",
          "midi": 59,
          "time": 54.37456500000002,
          "velocity": 0.9448818897637795,
          "duration": 0.5357100000000017
        },
        {
          "name": "B3",
          "midi": 59,
          "time": 54.91027500000002,
          "velocity": 0.9448818897637795,
          "duration": 0.6696375000000074
        },
        {
          "name": "B3",
          "midi": 59,
          "time": 57.85668000000003,
          "velocity": 0.9448818897637795,
          "duration": 0.2594845312500027
        },
        {
          "name": "B3",
          "midi": 59,
          "time": 58.12453500000004,
          "velocity": 0.9448818897637795,
          "duration": 0.25529929687500186
        },
        {
          "name": "B3",
          "midi": 59,
          "time": 58.39239000000004,
          "velocity": 0.9448818897637795,
          "duration": 0.25529929687500186
        },
        {
          "name": "B3",
          "midi": 59,
          "time": 58.660245000000046,
          "velocity": 0.9448818897637795,
          "duration": 0.5357100000000017
        },
        {
          "name": "B3",
          "midi": 59,
          "time": 59.19595500000005,
          "velocity": 0.9448818897637795,
          "duration": 0.6696375000000074
        },
        {
          "name": "B3",
          "midi": 59,
          "time": 62.14236000000006,
          "velocity": 0.9448818897637795,
          "duration": 0.2594845312500027
        },
        {
          "name": "B3",
          "midi": 59,
          "time": 62.410215000000065,
          "velocity": 0.9448818897637795,
          "duration": 0.25529929687500186
        },
        {
          "name": "B3",
          "midi": 59,
          "time": 62.67807000000007,
          "velocity": 0.9448818897637795,
          "duration": 0.25529929687500186
        },
        {
          "name": "B3",
          "midi": 59,
          "time": 62.945925000000074,
          "velocity": 0.9448818897637795,
          "duration": 0.5357100000000017
        },
        {
          "name": "B3",
          "midi": 59,
          "time": 63.481635000000075,
          "velocity": 0.9448818897637795,
          "duration": 0.6696375000000003
        },
        {
          "name": "G3",
          "midi": 55,
          "time": 64.28520000000009,
          "velocity": 0.9448818897637795,
          "duration": 2.1428400000000067
        },
        {
          "name": "A#3",
          "midi": 58,
          "time": 66.4280400000001,
          "velocity": 0.9448818897637795,
          "duration": 2.1428400000000067
        },
        {
          "name": "B3",
          "midi": 59,
          "time": 167.1415200000001,
          "velocity": 0.9448818897637795,
          "duration": 0.2594845312499956
        },
        {
          "name": "B3",
          "midi": 59,
          "time": 167.4093750000001,
          "velocity": 0.9448818897637795,
          "duration": 0.25529929687499475
        },
        {
          "name": "B3",
          "midi": 59,
          "time": 167.6772300000001,
          "velocity": 0.9448818897637795,
          "duration": 0.25529929687499475
        },
        {
          "name": "B3",
          "midi": 59,
          "time": 167.9450850000001,
          "velocity": 0.9448818897637795,
          "duration": 0.5357099999999946
        },
        {
          "name": "B3",
          "midi": 59,
          "time": 168.4807950000001,
          "velocity": 0.9448818897637795,
          "duration": 0.6696374999999932
        },
        {
          "name": "B3",
          "midi": 59,
          "time": 171.42720000000008,
          "velocity": 0.9448818897637795,
          "duration": 0.2594845312499956
        },
        {
          "name": "B3",
          "midi": 59,
          "time": 171.69505500000008,
          "velocity": 0.9448818897637795,
          "duration": 0.25529929687499475
        },
        {
          "name": "B3",
          "midi": 59,
          "time": 171.96291000000008,
          "velocity": 0.9448818897637795,
          "duration": 0.25529929687499475
        },
        {
          "name": "B3",
          "midi": 59,
          "time": 172.23076500000008,
          "velocity": 0.9448818897637795,
          "duration": 0.5357099999999946
        },
        {
          "name": "B3",
          "midi": 59,
          "time": 172.76647500000007,
          "velocity": 0.9448818897637795,
          "duration": 0.6696374999999932
        },
        {
          "name": "B3",
          "midi": 59,
          "time": 175.71288000000007,
          "velocity": 0.9448818897637795,
          "duration": 0.2594845312499956
        },
        {
          "name": "B3",
          "midi": 59,
          "time": 175.98073500000007,
          "velocity": 0.9448818897637795,
          "duration": 0.25529929687499475
        },
        {
          "name": "B3",
          "midi": 59,
          "time": 176.24859000000006,
          "velocity": 0.9448818897637795,
          "duration": 0.25529929687499475
        },
        {
          "name": "B3",
          "midi": 59,
          "time": 176.51644500000006,
          "velocity": 0.9448818897637795,
          "duration": 0.5357099999999946
        },
        {
          "name": "B3",
          "midi": 59,
          "time": 177.05215500000006,
          "velocity": 0.9448818897637795,
          "duration": 0.7812437500000158
        },
        {
          "name": "B3",
          "midi": 59,
          "time": 177.85572000000008,
          "velocity": 0.8976377952755905,
          "duration": 23.169457500000192
        }
      ],
      "controlChanges": {
        "1": [
          {
            "number": 1,
            "time": 1.4062387500000002,
            "value": 0
          },
          {
            "number": 1,
            "time": 179.65537078125007,
            "value": 0.007874015748031496
          },
          {
            "number": 1,
            "time": 179.68606250000008,
            "value": 0.015748031496062992
          },
          {
            "number": 1,
            "time": 179.70280343750008,
            "value": 0.023622047244094488
          },
          {
            "number": 1,
            "time": 179.72791484375009,
            "value": 0.031496062992125984
          },
          {
            "number": 1,
            "time": 179.7683721093751,
            "value": 0.03937007874015748
          },
          {
            "number": 1,
            "time": 179.7851130468751,
            "value": 0.047244094488188976
          },
          {
            "number": 1,
            "time": 179.7920884375001,
            "value": 0.05511811023622047
          },
          {
            "number": 1,
            "time": 179.8018539843751,
            "value": 0.06299212598425197
          },
          {
            "number": 1,
            "time": 179.8255703125001,
            "value": 0.07086614173228346
          },
          {
            "number": 1,
            "time": 179.9246208593751,
            "value": 0.07874015748031496
          },
          {
            "number": 1,
            "time": 180.0864499218751,
            "value": 0.08661417322834646
          },
          {
            "number": 1,
            "time": 180.1855004687501,
            "value": 0.09448818897637795
          },
          {
            "number": 1,
            "time": 180.3668606250001,
            "value": 0.10236220472440945
          },
          {
            "number": 1,
            "time": 180.4561456250001,
            "value": 0.11023622047244094
          },
          {
            "number": 1,
            "time": 180.84816257812508,
            "value": 0.11811023622047244
          },
          {
            "number": 1,
            "time": 180.98627531250008,
            "value": 0.12598425196850394
          },
          {
            "number": 1,
            "time": 181.1439191406251,
            "value": 0.13385826771653545
          },
          {
            "number": 1,
            "time": 181.2820318750001,
            "value": 0.14173228346456693
          },
          {
            "number": 1,
            "time": 181.3476005468751,
            "value": 0.14960629921259844
          },
          {
            "number": 1,
            "time": 181.5331459375001,
            "value": 0.15748031496062992
          },
          {
            "number": 1,
            "time": 181.6335915625001,
            "value": 0.16535433070866143
          },
          {
            "number": 1,
            "time": 181.7954206250001,
            "value": 0.1732283464566929
          },
          {
            "number": 1,
            "time": 181.85540898437512,
            "value": 0.18110236220472442
          },
          {
            "number": 1,
            "time": 181.9698053906251,
            "value": 0.1889763779527559
          },
          {
            "number": 1,
            "time": 182.28648812500012,
            "value": 0.1968503937007874
          },
          {
            "number": 1,
            "time": 182.4022796093751,
            "value": 0.2047244094488189
          },
          {
            "number": 1,
            "time": 182.6799001562501,
            "value": 0.2125984251968504
          },
          {
            "number": 1,
            "time": 183.27001820312512,
            "value": 0.2204724409448819
          },
          {
            "number": 1,
            "time": 183.3732539843751,
            "value": 0.2283464566929134
          },
          {
            "number": 1,
            "time": 183.4583537500001,
            "value": 0.23622047244094488
          },
          {
            "number": 1,
            "time": 183.6369237500001,
            "value": 0.2440944881889764
          },
          {
            "number": 1,
            "time": 183.7861971093751,
            "value": 0.25196850393700787
          },
          {
            "number": 1,
            "time": 183.95639664062512,
            "value": 0.25984251968503935
          },
          {
            "number": 1,
            "time": 184.09450937500011,
            "value": 0.2677165354330709
          },
          {
            "number": 1,
            "time": 184.26749906250012,
            "value": 0.2755905511811024
          },
          {
            "number": 1,
            "time": 184.53535406250012,
            "value": 0.28346456692913385
          },
          {
            "number": 1,
            "time": 184.9036546875001,
            "value": 0.29133858267716534
          },
          {
            "number": 1,
            "time": 185.67234273437512,
            "value": 0.28346456692913385
          },
          {
            "number": 1,
            "time": 185.73233109375013,
            "value": 0.29133858267716534
          },
          {
            "number": 1,
            "time": 185.94159281250015,
            "value": 0.2992125984251969
          },
          {
            "number": 1,
            "time": 186.56379765625016,
            "value": 0.30708661417322836
          },
          {
            "number": 1,
            "time": 186.86792468750016,
            "value": 0.31496062992125984
          },
          {
            "number": 1,
            "time": 187.35899218750018,
            "value": 0.3228346456692913
          },
          {
            "number": 1,
            "time": 187.9714314843752,
            "value": 0.33070866141732286
          },
          {
            "number": 1,
            "time": 188.38158445312519,
            "value": 0.33858267716535434
          },
          {
            "number": 1,
            "time": 189.06238257812518,
            "value": 0.3464566929133858
          },
          {
            "number": 1,
            "time": 189.21444609375018,
            "value": 0.3543307086614173
          },
          {
            "number": 1,
            "time": 189.75573640625018,
            "value": 0.36220472440944884
          },
          {
            "number": 1,
            "time": 190.2300629687502,
            "value": 0.3700787401574803
          },
          {
            "number": 1,
            "time": 190.46722625000018,
            "value": 0.3779527559055118
          },
          {
            "number": 1,
            "time": 191.29311250000018,
            "value": 0.3858267716535433
          },
          {
            "number": 1,
            "time": 191.73395718750018,
            "value": 0.3937007874015748
          },
          {
            "number": 1,
            "time": 192.1859625000002,
            "value": 0.4015748031496063
          },
          {
            "number": 1,
            "time": 193.02021921875019,
            "value": 0.4094488188976378
          },
          {
            "number": 1,
            "time": 193.42060664062518,
            "value": 0.41732283464566927
          },
          {
            "number": 1,
            "time": 194.24649289062518,
            "value": 0.4251968503937008
          },
          {
            "number": 1,
            "time": 194.58968210937516,
            "value": 0.4330708661417323
          },
          {
            "number": 1,
            "time": 195.05563820312517,
            "value": 0.4409448818897638
          },
          {
            "number": 1,
            "time": 195.18817062500017,
            "value": 0.4330708661417323
          },
          {
            "number": 1,
            "time": 195.55507617187519,
            "value": 0.4409448818897638
          },
          {
            "number": 1,
            "time": 196.64323710937518,
            "value": 0.44881889763779526
          },
          {
            "number": 1,
            "time": 197.31287460937517,
            "value": 0.4566929133858268
          },
          {
            "number": 1,
            "time": 197.57654437500017,
            "value": 0.4645669291338583
          },
          {
            "number": 1,
            "time": 197.91973359375015,
            "value": 0.4566929133858268
          },
          {
            "number": 1,
            "time": 198.06621679687515,
            "value": 0.4645669291338583
          },
          {
            "number": 1,
            "time": 198.20572460937515,
            "value": 0.47244094488188976
          },
          {
            "number": 1,
            "time": 198.23920648437516,
            "value": 0.48031496062992124
          },
          {
            "number": 1,
            "time": 198.30477515625017,
            "value": 0.4881889763779528
          },
          {
            "number": 1,
            "time": 198.36197335937518,
            "value": 0.49606299212598426
          },
          {
            "number": 1,
            "time": 198.4094060156252,
            "value": 0.5039370078740157
          },
          {
            "number": 1,
            "time": 198.4428878906252,
            "value": 0.5118110236220472
          },
          {
            "number": 1,
            "time": 198.4847402343752,
            "value": 0.5196850393700787
          },
          {
            "number": 1,
            "time": 198.54054335937522,
            "value": 0.5275590551181102
          },
          {
            "number": 1,
            "time": 198.57402523437523,
            "value": 0.5354330708661418
          },
          {
            "number": 1,
            "time": 198.69679210937522,
            "value": 0.5433070866141733
          },
          {
            "number": 1,
            "time": 198.72887890625023,
            "value": 0.5511811023622047
          },
          {
            "number": 1,
            "time": 198.78607710937524,
            "value": 0.5590551181102362
          },
          {
            "number": 1,
            "time": 198.86001625000023,
            "value": 0.5669291338582677
          },
          {
            "number": 1,
            "time": 198.92698000000024,
            "value": 0.5590551181102362
          },
          {
            "number": 1,
            "time": 198.94232585937525,
            "value": 0.5511811023622047
          },
          {
            "number": 1,
            "time": 198.96046187500025,
            "value": 0.5433070866141733
          },
          {
            "number": 1,
            "time": 198.97441265625025,
            "value": 0.5354330708661418
          },
          {
            "number": 1,
            "time": 198.98278312500025,
            "value": 0.5275590551181102
          },
          {
            "number": 1,
            "time": 198.98975851562525,
            "value": 0.5196850393700787
          },
          {
            "number": 1,
            "time": 198.99115359375025,
            "value": 0.5118110236220472
          },
          {
            "number": 1,
            "time": 199.00091914062526,
            "value": 0.49606299212598426
          },
          {
            "number": 1,
            "time": 199.00091914062526,
            "value": 0.5039370078740157
          },
          {
            "number": 1,
            "time": 199.00789453125026,
            "value": 0.4645669291338583
          },
          {
            "number": 1,
            "time": 199.00789453125026,
            "value": 0.48031496062992124
          },
          {
            "number": 1,
            "time": 199.01486992187526,
            "value": 0.4251968503937008
          },
          {
            "number": 1,
            "time": 199.01486992187526,
            "value": 0.4409448818897638
          },
          {
            "number": 1,
            "time": 199.01766007812526,
            "value": 0.3700787401574803
          },
          {
            "number": 1,
            "time": 199.01766007812526,
            "value": 0.4015748031496063
          },
          {
            "number": 1,
            "time": 199.03161085937526,
            "value": 0.3228346456692913
          },
          {
            "number": 1,
            "time": 199.03161085937526,
            "value": 0.3464566929133858
          },
          {
            "number": 1,
            "time": 199.03998132812526,
            "value": 0.29133858267716534
          },
          {
            "number": 1,
            "time": 199.04137640625027,
            "value": 0.25984251968503935
          },
          {
            "number": 1,
            "time": 199.04974687500027,
            "value": 0.18110236220472442
          },
          {
            "number": 1,
            "time": 199.04974687500027,
            "value": 0.2204724409448819
          },
          {
            "number": 1,
            "time": 199.05532718750027,
            "value": 0.13385826771653545
          },
          {
            "number": 1,
            "time": 199.05811734375027,
            "value": 0.08661417322834646
          },
          {
            "number": 1,
            "time": 199.06509273437527,
            "value": 0.015748031496062992
          },
          {
            "number": 1,
            "time": 199.06509273437527,
            "value": 0.05511811023622047
          },
          {
            "number": 1,
            "time": 199.07346320312527,
            "value": 0
          }
        ],
        "2": [
          {
            "number": 2,
            "time": 1.8080212500000001,
            "value": 0
          }
        ],
        "7": [
          {
            "number": 7,
            "time": 1.2388293750000001,
            "value": 0.7874015748031497
          }
        ],
        "10": [
          {
            "number": 10,
            "time": 1.305793125,
            "value": 0.47244094488188976
          }
        ],
        "11": [
          {
            "number": 11,
            "time": 188.63688375000018,
            "value": 0.9448818897637795
          },
          {
            "number": 11,
            "time": 189.0944693750002,
            "value": 0.905511811023622
          },
          {
            "number": 11,
            "time": 189.64134000000018,
            "value": 0.8661417322834646
          },
          {
            "number": 11,
            "time": 190.16588937500018,
            "value": 0.8267716535433071
          },
          {
            "number": 11,
            "time": 190.71276000000017,
            "value": 0.7874015748031497
          },
          {
            "number": 11,
            "time": 191.24847000000017,
            "value": 0.7480314960629921
          },
          {
            "number": 11,
            "time": 191.7730193750002,
            "value": 0.7086614173228346
          },
          {
            "number": 11,
            "time": 192.3310506250002,
            "value": 0.6692913385826772
          },
          {
            "number": 11,
            "time": 192.86676062500018,
            "value": 0.6299212598425197
          },
          {
            "number": 11,
            "time": 193.38014937500017,
            "value": 0.5905511811023622
          },
          {
            "number": 11,
            "time": 193.91585937500017,
            "value": 0.5511811023622047
          },
          {
            "number": 11,
            "time": 194.46273000000016,
            "value": 0.5118110236220472
          },
          {
            "number": 11,
            "time": 195.00960062500016,
            "value": 0.47244094488188976
          },
          {
            "number": 11,
            "time": 195.53415000000018,
            "value": 0.4330708661417323
          },
          {
            "number": 11,
            "time": 196.05869937500017,
            "value": 0.3937007874015748
          },
          {
            "number": 11,
            "time": 196.61673062500017,
            "value": 0.3543307086614173
          },
          {
            "number": 11,
            "time": 197.14128000000017,
            "value": 0.31496062992125984
          },
          {
            "number": 11,
            "time": 197.67699000000016,
            "value": 0.2755905511811024
          },
          {
            "number": 11,
            "time": 198.20153937500015,
            "value": 0.23622047244094488
          },
          {
            "number": 11,
            "time": 198.75957062500024,
            "value": 0.1968503937007874
          },
          {
            "number": 11,
            "time": 199.27295937500028,
            "value": 0.15748031496062992
          },
          {
            "number": 11,
            "time": 199.81983000000028,
            "value": 0.11811023622047244
          },
          {
            "number": 11,
            "time": 200.35554000000027,
            "value": 0.07874015748031496
          },
          {
            "number": 11,
            "time": 200.88008937500027,
            "value": 0.03937007874015748
          },
          {
            "number": 11,
            "time": 201.37115687500028,
            "value": 0
          },
          {
            "number": 11,
            "time": 201.4269600000003,
            "value": 1
          }
        ],
        "32": [
          {
            "number": 32,
            "time": 1.1718656250000001,
            "value": 0
          }
        ],
        "91": [
          {
            "number": 91,
            "time": 1.5401662500000002,
            "value": 1
          }
        ],
        "93": [
          {
            "number": 93,
            "time": 1.6740937500000002,
            "value": 0
          }
        ],
        "121": [
          {
            "number": 121,
            "time": 0.9040106250000001,
            "value": 0
          }
        ]
      },
      "id": 13,
      "name": "B Vocals 2",
      "instrumentNumber": 65,
      "instrument": "alto sax",
      "instrumentFamily": "reed",
      "channelNumber": 14,
      "isPercussion": false
    },
    {
      "startTime": 19.017705000000003,
      "duration": 199.28412000000162,
      "length": 121,
      "notes": [
        {
          "name": "F#4",
          "midi": 66,
          "time": 19.017705000000003,
          "velocity": 0.9448818897637795,
          "duration": 0.27762054687499926
        },
        {
          "name": "A4",
          "midi": 69,
          "time": 19.285560000000004,
          "velocity": 0.9291338582677166,
          "duration": 0.13392749999999864
        },
        {
          "name": "A4",
          "midi": 69,
          "time": 19.553415,
          "velocity": 0.9212598425196851,
          "duration": 0.12276687499999994
        },
        {
          "name": "A4",
          "midi": 69,
          "time": 19.821270000000002,
          "velocity": 0.9133858267716536,
          "duration": 1.2946325000000023
        },
        {
          "name": "A4",
          "midi": 69,
          "time": 21.160545000000003,
          "velocity": 0.905511811023622,
          "duration": 0.22321249999999893
        },
        {
          "name": "A4",
          "midi": 69,
          "time": 21.4284,
          "velocity": 0.905511811023622,
          "duration": 0.26785500000000084
        },
        {
          "name": "G4",
          "midi": 67,
          "time": 21.696255,
          "velocity": 0.905511811023622,
          "duration": 0.26785500000000084
        },
        {
          "name": "F#4",
          "midi": 66,
          "time": 21.96411,
          "velocity": 0.889763779527559,
          "duration": 0.26785500000000084
        },
        {
          "name": "D4",
          "midi": 62,
          "time": 22.231965000000002,
          "velocity": 0.8740157480314961,
          "duration": 0.8370468749999986
        },
        {
          "name": "A4",
          "midi": 69,
          "time": 23.57124,
          "velocity": 0.8582677165354331,
          "duration": 0.13392749999999864
        },
        {
          "name": "A4",
          "midi": 69,
          "time": 23.839094999999997,
          "velocity": 0.8503937007874016,
          "duration": 0.13392749999999864
        },
        {
          "name": "A4",
          "midi": 69,
          "time": 24.106949999999994,
          "velocity": 0.8346456692913385,
          "duration": 1.3392750000000042
        },
        {
          "name": "B4",
          "midi": 71,
          "time": 25.446225,
          "velocity": 0.905511811023622,
          "duration": 0.26785500000000084
        },
        {
          "name": "C5",
          "midi": 72,
          "time": 25.71408,
          "velocity": 0.905511811023622,
          "duration": 0.7700831250000029
        },
        {
          "name": "B4",
          "midi": 71,
          "time": 26.517645000000005,
          "velocity": 0.8661417322834646,
          "duration": 0.803564999999999
        },
        {
          "name": "F#4",
          "midi": 66,
          "time": 27.589065000000005,
          "velocity": 0.8661417322834646,
          "duration": 0.2901762500000018
        },
        {
          "name": "F#4",
          "midi": 66,
          "time": 27.589065000000005,
          "velocity": 0.8661417322834646,
          "duration": 0.3292384375000026
        },
        {
          "name": "A4",
          "midi": 69,
          "time": 27.856920000000006,
          "velocity": 0.8661417322834646,
          "duration": 0.163224140625001
        },
        {
          "name": "A4",
          "midi": 69,
          "time": 28.124775000000007,
          "velocity": 0.8740157480314961,
          "duration": 1.0546790625000035
        },
        {
          "name": "G4",
          "midi": 67,
          "time": 29.19619500000001,
          "velocity": 0.9133858267716536,
          "duration": 1.6071300000000086
        },
        {
          "name": "G4",
          "midi": 67,
          "time": 31.606890000000018,
          "velocity": 0.9133858267716536,
          "duration": 0.5357099999999981
        },
        {
          "name": "F#4",
          "midi": 66,
          "time": 32.142600000000016,
          "velocity": 0.9133858267716536,
          "duration": 0.2678549999999973
        },
        {
          "name": "G4",
          "midi": 67,
          "time": 32.41045500000001,
          "velocity": 0.9133858267716536,
          "duration": 0.5357100000000017
        },
        {
          "name": "D5",
          "midi": 74,
          "time": 32.946165000000015,
          "velocity": 0.9291338582677166,
          "duration": 0.5357100000000088
        },
        {
          "name": "A4",
          "midi": 69,
          "time": 33.481875000000024,
          "velocity": 0.9448818897637795,
          "duration": 0.5357100000000017
        },
        {
          "name": "G4",
          "midi": 67,
          "time": 34.017585000000025,
          "velocity": 0.968503937007874,
          "duration": 0.2678549999999973
        },
        {
          "name": "F#4",
          "midi": 66,
          "time": 34.28544000000002,
          "velocity": 0.984251968503937,
          "duration": 0.2678549999999973
        },
        {
          "name": "G4",
          "midi": 67,
          "time": 34.55329500000002,
          "velocity": 1,
          "duration": 0.5357100000000159
        },
        {
          "name": "B4",
          "midi": 71,
          "time": 35.089005000000036,
          "velocity": 1,
          "duration": 2.9464050000000057
        },
        {
          "name": "G3",
          "midi": 55,
          "time": 51.160305000000044,
          "velocity": 0.889763779527559,
          "duration": 0.2678549999999973
        },
        {
          "name": "G4",
          "midi": 67,
          "time": 51.42816000000004,
          "velocity": 1,
          "duration": 0.2678549999999973
        },
        {
          "name": "G4",
          "midi": 67,
          "time": 51.69601500000004,
          "velocity": 1,
          "duration": 0.2678549999999973
        },
        {
          "name": "G4",
          "midi": 67,
          "time": 51.963870000000036,
          "velocity": 1,
          "duration": 0.2678549999999973
        },
        {
          "name": "F#4",
          "midi": 66,
          "time": 52.23172500000003,
          "velocity": 1,
          "duration": 0.5357100000000017
        },
        {
          "name": "G4",
          "midi": 67,
          "time": 52.767435000000035,
          "velocity": 1,
          "duration": 2.008912500000001
        },
        {
          "name": "G4",
          "midi": 67,
          "time": 54.910275000000034,
          "velocity": 1,
          "duration": 0.2678549999999973
        },
        {
          "name": "A4",
          "midi": 69,
          "time": 55.17813000000003,
          "velocity": 1,
          "duration": 0.47711671874999695
        },
        {
          "name": "B4",
          "midi": 71,
          "time": 55.713840000000026,
          "velocity": 1,
          "duration": 1.0490987500000202
        },
        {
          "name": "B4",
          "midi": 71,
          "time": 56.785260000000044,
          "velocity": 1,
          "duration": 0.5357099999999946
        },
        {
          "name": "G4",
          "midi": 67,
          "time": 57.32097000000004,
          "velocity": 0.9448818897637795,
          "duration": 2.166556328125104
        },
        {
          "name": "G3",
          "midi": 55,
          "time": 59.73166500000014,
          "velocity": 0.889763779527559,
          "duration": 0.2678549999999973
        },
        {
          "name": "G4",
          "midi": 67,
          "time": 59.99952000000014,
          "velocity": 1,
          "duration": 0.2678549999999973
        },
        {
          "name": "G4",
          "midi": 67,
          "time": 60.267375000000136,
          "velocity": 1,
          "duration": 0.2678549999999973
        },
        {
          "name": "G4",
          "midi": 67,
          "time": 60.53523000000013,
          "velocity": 1,
          "duration": 0.2678549999999973
        },
        {
          "name": "F#4",
          "midi": 66,
          "time": 60.80308500000013,
          "velocity": 1,
          "duration": 0.5357100000000017
        },
        {
          "name": "G4",
          "midi": 67,
          "time": 61.33879500000013,
          "velocity": 1,
          "duration": 2.008912500000001
        },
        {
          "name": "G4",
          "midi": 67,
          "time": 63.48163500000013,
          "velocity": 1,
          "duration": 0.2678549999999973
        },
        {
          "name": "A4",
          "midi": 69,
          "time": 63.74949000000013,
          "velocity": 1,
          "duration": 0.40178250000000304
        },
        {
          "name": "B4",
          "midi": 71,
          "time": 64.28520000000013,
          "velocity": 1,
          "duration": 1.0490987500000415
        },
        {
          "name": "B4",
          "midi": 71,
          "time": 65.35662000000018,
          "velocity": 1,
          "duration": 0.5357099999999946
        },
        {
          "name": "G4",
          "midi": 67,
          "time": 65.89233000000017,
          "velocity": 1,
          "duration": 2.723192500000181
        },
        {
          "name": "F#3",
          "midi": 54,
          "time": 69.50837250000035,
          "velocity": 0.7322834645669292,
          "duration": 0.15624875000000316
        },
        {
          "name": "F#4",
          "midi": 66,
          "time": 69.64230000000035,
          "velocity": 0.968503937007874,
          "duration": 1.339275000000029
        },
        {
          "name": "E4",
          "midi": 64,
          "time": 70.98157500000038,
          "velocity": 0.8503937007874016,
          "duration": 0.22321250000000248
        },
        {
          "name": "E4",
          "midi": 64,
          "time": 71.24943000000037,
          "velocity": 0.968503937007874,
          "duration": 1.0937412500000079
        },
        {
          "name": "D4",
          "midi": 62,
          "time": 72.32085000000038,
          "velocity": 0.968503937007874,
          "duration": 0.17857000000000767
        },
        {
          "name": "D4",
          "midi": 62,
          "time": 72.58870500000039,
          "velocity": 1,
          "duration": 2.4106950000000182
        },
        {
          "name": "D5",
          "midi": 74,
          "time": 74.9101150000004,
          "velocity": 1,
          "duration": 6.227628750000051
        },
        {
          "name": "A3",
          "midi": 57,
          "time": 113.58028554687547,
          "velocity": 0.8110236220472441,
          "duration": 0.11579148437499498
        },
        {
          "name": "A3",
          "midi": 57,
          "time": 113.85930117187547,
          "velocity": 0.968503937007874,
          "duration": 0.22739773437500332
        },
        {
          "name": "A3",
          "midi": 57,
          "time": 114.29875078125048,
          "velocity": 0.9921259842519685,
          "duration": 1.0714200000000176
        },
        {
          "name": "G3",
          "midi": 55,
          "time": 115.3869117187505,
          "velocity": 0.9133858267716536,
          "duration": 0.19391585937501077
        },
        {
          "name": "F#3",
          "midi": 54,
          "time": 115.5529260156255,
          "velocity": 0.952755905511811,
          "duration": 0.16601429687500513
        },
        {
          "name": "G3",
          "midi": 55,
          "time": 115.7649778906255,
          "velocity": 1,
          "duration": 0.5301296874999935
        },
        {
          "name": "D3",
          "midi": 50,
          "time": 117.5688139062505,
          "velocity": 0.905511811023622,
          "duration": 0.27901562499999955
        },
        {
          "name": "A3",
          "midi": 57,
          "time": 117.8603852343755,
          "velocity": 0.952755905511811,
          "duration": 0.11718656249999526
        },
        {
          "name": "A3",
          "midi": 57,
          "time": 118.1184746875005,
          "velocity": 0.952755905511811,
          "duration": 0.11997671874999583
        },
        {
          "name": "A3",
          "midi": 57,
          "time": 118.37237890625049,
          "velocity": 0.952755905511811,
          "duration": 1.3392750000000149
        },
        {
          "name": "B3",
          "midi": 59,
          "time": 119.7256046875005,
          "velocity": 0.952755905511811,
          "duration": 0.3041270312499904
        },
        {
          "name": "C4",
          "midi": 60,
          "time": 119.9795089062505,
          "velocity": 0.984251968503937,
          "duration": 0.809145312499993
        },
        {
          "name": "A3",
          "midi": 57,
          "time": 120.7844689843755,
          "velocity": 0.9921259842519685,
          "duration": 0.6640571875000063
        },
        {
          "name": "F#3",
          "midi": 54,
          "time": 121.8837905468755,
          "velocity": 1,
          "duration": 0.2678549999999973
        },
        {
          "name": "A3",
          "midi": 57,
          "time": 122.1697815625005,
          "velocity": 1,
          "duration": 0.22321250000000248
        },
        {
          "name": "A3",
          "midi": 57,
          "time": 122.4306611718755,
          "velocity": 1,
          "duration": 0.22321250000000248
        },
        {
          "name": "A3",
          "midi": 57,
          "time": 122.6775900000005,
          "velocity": 0.9921259842519685,
          "duration": 0.8035650000000061
        },
        {
          "name": "A3",
          "midi": 57,
          "time": 123.97361757812553,
          "velocity": 0.984251968503937,
          "duration": 0.34597937499999887
        },
        {
          "name": "G3",
          "midi": 55,
          "time": 124.26239875000053,
          "velocity": 0.968503937007874,
          "duration": 0.28738609375000124
        },
        {
          "name": "A3",
          "midi": 57,
          "time": 124.54420453125053,
          "velocity": 0.968503937007874,
          "duration": 0.2734353124999984
        },
        {
          "name": "G3",
          "midi": 55,
          "time": 124.80368906250052,
          "velocity": 0.952755905511811,
          "duration": 0.552450937499998
        },
        {
          "name": "D4",
          "midi": 62,
          "time": 126.15970500000053,
          "velocity": 0.968503937007874,
          "duration": 0.2678549999999973
        },
        {
          "name": "F#4",
          "midi": 66,
          "time": 126.42756000000053,
          "velocity": 1,
          "duration": 0.2678549999999973
        },
        {
          "name": "G4",
          "midi": 67,
          "time": 126.69541500000052,
          "velocity": 1,
          "duration": 0.5357100000000088
        },
        {
          "name": "D5",
          "midi": 74,
          "time": 127.23112500000053,
          "velocity": 1,
          "duration": 0.5357100000000088
        },
        {
          "name": "G4",
          "midi": 67,
          "time": 127.76683500000054,
          "velocity": 1,
          "duration": 0.5357100000000088
        },
        {
          "name": "F#4",
          "midi": 66,
          "time": 128.30254500000055,
          "velocity": 1,
          "duration": 0.2678549999999973
        },
        {
          "name": "G4",
          "midi": 67,
          "time": 128.57040000000055,
          "velocity": 1,
          "duration": 0.2678549999999973
        },
        {
          "name": "F#4",
          "midi": 66,
          "time": 128.83825500000054,
          "velocity": 1,
          "duration": 0.5357099999999946
        },
        {
          "name": "G4",
          "midi": 67,
          "time": 129.37396500000054,
          "velocity": 1,
          "duration": 2.6785500000000013
        },
        {
          "name": "F#4",
          "midi": 66,
          "time": 132.05251500000054,
          "velocity": 1,
          "duration": 0.2678549999999973
        },
        {
          "name": "E4",
          "midi": 64,
          "time": 132.32037000000054,
          "velocity": 1,
          "duration": 0.2678549999999973
        },
        {
          "name": "D4",
          "midi": 62,
          "time": 132.58822500000053,
          "velocity": 1,
          "duration": 1.0714199999999892
        },
        {
          "name": "D4",
          "midi": 62,
          "time": 137.94532500000054,
          "velocity": 1,
          "duration": 0.2678549999999973
        },
        {
          "name": "F#4",
          "midi": 66,
          "time": 138.21318000000053,
          "velocity": 1,
          "duration": 0.2678549999999973
        },
        {
          "name": "G4",
          "midi": 67,
          "time": 138.48103500000053,
          "velocity": 1,
          "duration": 0.2678549999999973
        },
        {
          "name": "A4",
          "midi": 69,
          "time": 138.74889000000053,
          "velocity": 1,
          "duration": 0.5357099999999946
        },
        {
          "name": "D5",
          "midi": 74,
          "time": 139.28460000000052,
          "velocity": 1,
          "duration": 3.7499699999999905
        },
        {
          "name": "A4",
          "midi": 69,
          "time": 143.05549617187552,
          "velocity": 1,
          "duration": 0.5357099999999946
        },
        {
          "name": "F#5",
          "midi": 78,
          "time": 143.5716750781255,
          "velocity": 1,
          "duration": 4.284284921875297
        },
        {
          "name": "G5",
          "midi": 79,
          "time": 147.8559600000008,
          "velocity": 1,
          "duration": 2.1428400000000636
        },
        {
          "name": "G3",
          "midi": 55,
          "time": 164.73082500000086,
          "velocity": 0.9921259842519685,
          "duration": 0.2678549999999973
        },
        {
          "name": "G4",
          "midi": 67,
          "time": 164.99868000000086,
          "velocity": 1,
          "duration": 0.2678549999999973
        },
        {
          "name": "G4",
          "midi": 67,
          "time": 165.26653500000086,
          "velocity": 1,
          "duration": 0.2678549999999973
        },
        {
          "name": "G4",
          "midi": 67,
          "time": 165.53439000000085,
          "velocity": 1,
          "duration": 0.2678549999999973
        },
        {
          "name": "F#4",
          "midi": 66,
          "time": 165.80224500000085,
          "velocity": 1,
          "duration": 0.5357099999999946
        },
        {
          "name": "G4",
          "midi": 67,
          "time": 166.33795500000085,
          "velocity": 1,
          "duration": 2.008912500000008
        },
        {
          "name": "G4",
          "midi": 67,
          "time": 168.48079500000085,
          "velocity": 1,
          "duration": 0.2678549999999973
        },
        {
          "name": "A4",
          "midi": 69,
          "time": 168.74865000000085,
          "velocity": 1,
          "duration": 0.47711671875001116
        },
        {
          "name": "B4",
          "midi": 71,
          "time": 169.28436000000087,
          "velocity": 1,
          "duration": 1.04909875000007
        },
        {
          "name": "B4",
          "midi": 71,
          "time": 170.35578000000095,
          "velocity": 1,
          "duration": 0.5357099999999946
        },
        {
          "name": "G4",
          "midi": 67,
          "time": 170.86916875000094,
          "velocity": 1,
          "duration": 2.4330162500001506
        },
        {
          "name": "G3",
          "midi": 55,
          "time": 173.3021850000011,
          "velocity": 0.9921259842519685,
          "duration": 0.2678549999999973
        },
        {
          "name": "G4",
          "midi": 67,
          "time": 173.5700400000011,
          "velocity": 1,
          "duration": 0.2678549999999973
        },
        {
          "name": "G4",
          "midi": 67,
          "time": 173.83789500000108,
          "velocity": 1,
          "duration": 0.2678549999999973
        },
        {
          "name": "G4",
          "midi": 67,
          "time": 174.10575000000108,
          "velocity": 1,
          "duration": 0.2678549999999973
        },
        {
          "name": "F#4",
          "midi": 66,
          "time": 174.37360500000108,
          "velocity": 1,
          "duration": 0.5357099999999946
        },
        {
          "name": "G4",
          "midi": 67,
          "time": 174.90931500000107,
          "velocity": 1,
          "duration": 2.008912500000008
        },
        {
          "name": "G4",
          "midi": 67,
          "time": 177.05215500000108,
          "velocity": 1,
          "duration": 0.2678549999999973
        },
        {
          "name": "A4",
          "midi": 69,
          "time": 177.32001000000108,
          "velocity": 1,
          "duration": 0.40178249999999593
        },
        {
          "name": "B4",
          "midi": 71,
          "time": 177.85572000000107,
          "velocity": 1,
          "duration": 1.04909875000007
        },
        {
          "name": "B4",
          "midi": 71,
          "time": 178.92714000000115,
          "velocity": 1,
          "duration": 0.5357099999999946
        },
        {
          "name": "G4",
          "midi": 67,
          "time": 179.44052875000114,
          "velocity": 0.952755905511811,
          "duration": 19.843591250000486
        }
      ],
      "controlChanges": {
        "1": [
          {
            "number": 1,
            "time": 1.4062387500000002,
            "value": 0
          },
          {
            "number": 1,
            "time": 58.44540296875004,
            "value": 0.007874015748031496
          },
          {
            "number": 1,
            "time": 58.45237835937504,
            "value": 0.015748031496062992
          },
          {
            "number": 1,
            "time": 58.45935375000004,
            "value": 0.023622047244094488
          },
          {
            "number": 1,
            "time": 58.46911929687504,
            "value": 0.03937007874015748
          },
          {
            "number": 1,
            "time": 58.46911929687504,
            "value": 0.031496062992125984
          },
          {
            "number": 1,
            "time": 58.477489765625045,
            "value": 0.05511811023622047
          },
          {
            "number": 1,
            "time": 58.477489765625045,
            "value": 0.047244094488188976
          },
          {
            "number": 1,
            "time": 58.484465156250046,
            "value": 0.06299212598425197
          },
          {
            "number": 1,
            "time": 58.49423070312505,
            "value": 0.07086614173228346
          },
          {
            "number": 1,
            "time": 58.51097164062505,
            "value": 0.08661417322834646
          },
          {
            "number": 1,
            "time": 58.51097164062505,
            "value": 0.07874015748031496
          },
          {
            "number": 1,
            "time": 58.51934210937505,
            "value": 0.09448818897637795
          },
          {
            "number": 1,
            "time": 58.524922421875054,
            "value": 0.10236220472440945
          },
          {
            "number": 1,
            "time": 58.533292890625056,
            "value": 0.11023622047244094
          },
          {
            "number": 1,
            "time": 58.54305843750006,
            "value": 0.11811023622047244
          },
          {
            "number": 1,
            "time": 58.54445351562506,
            "value": 0.12598425196850394
          },
          {
            "number": 1,
            "time": 58.55979937500006,
            "value": 0.14173228346456693
          },
          {
            "number": 1,
            "time": 58.55979937500006,
            "value": 0.13385826771653545
          },
          {
            "number": 1,
            "time": 58.575145234375064,
            "value": 0.14960629921259844
          },
          {
            "number": 1,
            "time": 58.576540312500065,
            "value": 0.15748031496062992
          },
          {
            "number": 1,
            "time": 58.584910781250066,
            "value": 0.1732283464566929
          },
          {
            "number": 1,
            "time": 58.58630585937507,
            "value": 0.18110236220472442
          },
          {
            "number": 1,
            "time": 58.59467632812507,
            "value": 0.1889763779527559
          },
          {
            "number": 1,
            "time": 58.60025664062507,
            "value": 0.2047244094488189
          },
          {
            "number": 1,
            "time": 58.60304679687507,
            "value": 0.2125984251968504
          },
          {
            "number": 1,
            "time": 58.60862710937507,
            "value": 0.2204724409448819
          },
          {
            "number": 1,
            "time": 58.61699757812507,
            "value": 0.2283464566929134
          },
          {
            "number": 1,
            "time": 58.61839265625007,
            "value": 0.23622047244094488
          },
          {
            "number": 1,
            "time": 58.626763125000075,
            "value": 0.2440944881889764
          },
          {
            "number": 1,
            "time": 58.635133593750076,
            "value": 0.25196850393700787
          },
          {
            "number": 1,
            "time": 58.64350406250008,
            "value": 0.25984251968503935
          },
          {
            "number": 1,
            "time": 58.65047945312508,
            "value": 0.2677165354330709
          },
          {
            "number": 1,
            "time": 58.65884992187508,
            "value": 0.2755905511811024
          },
          {
            "number": 1,
            "time": 58.66164007812508,
            "value": 0.30708661417322836
          },
          {
            "number": 1,
            "time": 58.66164007812508,
            "value": 0.2992125984251969
          },
          {
            "number": 1,
            "time": 58.66164007812508,
            "value": 0.28346456692913385
          },
          {
            "number": 1,
            "time": 58.674195781250084,
            "value": 0.31496062992125984
          },
          {
            "number": 1,
            "time": 58.682566250000086,
            "value": 0.3228346456692913
          },
          {
            "number": 1,
            "time": 58.683961328125086,
            "value": 0.33070866141732286
          },
          {
            "number": 1,
            "time": 58.69233179687509,
            "value": 0.33858267716535434
          },
          {
            "number": 1,
            "time": 58.69930718750009,
            "value": 0.3464566929133858
          },
          {
            "number": 1,
            "time": 58.70907273437509,
            "value": 0.36220472440944884
          },
          {
            "number": 1,
            "time": 58.70907273437509,
            "value": 0.3543307086614173
          },
          {
            "number": 1,
            "time": 58.71883828125009,
            "value": 0.3700787401574803
          },
          {
            "number": 1,
            "time": 58.734184140625096,
            "value": 0.3779527559055118
          },
          {
            "number": 1,
            "time": 58.7411595312501,
            "value": 0.3858267716535433
          },
          {
            "number": 1,
            "time": 58.7509250781251,
            "value": 0.3937007874015748
          },
          {
            "number": 1,
            "time": 58.7662709375001,
            "value": 0.4015748031496063
          },
          {
            "number": 1,
            "time": 58.7913823437501,
            "value": 0.4094488188976378
          },
          {
            "number": 1,
            "time": 58.806728203125104,
            "value": 0.41732283464566927
          },
          {
            "number": 1,
            "time": 58.808123281250104,
            "value": 0.4251968503937008
          },
          {
            "number": 1,
            "time": 58.82486421875011,
            "value": 0.4330708661417323
          },
          {
            "number": 1,
            "time": 58.84021007812511,
            "value": 0.4409448818897638
          },
          {
            "number": 1,
            "time": 58.85137070312511,
            "value": 0.44881889763779526
          },
          {
            "number": 1,
            "time": 58.866716562500116,
            "value": 0.4566929133858268
          },
          {
            "number": 1,
            "time": 58.88066734375012,
            "value": 0.4645669291338583
          },
          {
            "number": 1,
            "time": 58.89043289062512,
            "value": 0.47244094488188976
          },
          {
            "number": 1,
            "time": 58.905778750000124,
            "value": 0.48031496062992124
          },
          {
            "number": 1,
            "time": 58.92530984375012,
            "value": 0.4881889763779528
          },
          {
            "number": 1,
            "time": 58.940655703125124,
            "value": 0.49606299212598426
          },
          {
            "number": 1,
            "time": 58.96437203125012,
            "value": 0.5039370078740157
          },
          {
            "number": 1,
            "time": 58.99087851562512,
            "value": 0.5118110236220472
          },
          {
            "number": 1,
            "time": 59.01459484375012,
            "value": 0.5196850393700787
          },
          {
            "number": 1,
            "time": 59.05505210937512,
            "value": 0.5275590551181102
          },
          {
            "number": 1,
            "time": 59.08853398437512,
            "value": 0.5354330708661418
          },
          {
            "number": 1,
            "time": 59.180609140625116,
            "value": 0.5433070866141733
          },
          {
            "number": 1,
            "time": 59.212695937500115,
            "value": 0.5354330708661418
          },
          {
            "number": 1,
            "time": 59.22246148437512,
            "value": 0.5275590551181102
          },
          {
            "number": 1,
            "time": 59.22943687500012,
            "value": 0.5118110236220472
          },
          {
            "number": 1,
            "time": 59.23083195312512,
            "value": 0.49606299212598426
          },
          {
            "number": 1,
            "time": 59.23780734375012,
            "value": 0.47244094488188976
          },
          {
            "number": 1,
            "time": 59.23780734375012,
            "value": 0.4881889763779528
          },
          {
            "number": 1,
            "time": 59.24478273437512,
            "value": 0.4566929133858268
          },
          {
            "number": 1,
            "time": 59.24617781250012,
            "value": 0.44881889763779526
          },
          {
            "number": 1,
            "time": 59.25315320312512,
            "value": 0.4330708661417323
          },
          {
            "number": 1,
            "time": 59.25454828125012,
            "value": 0.4094488188976378
          },
          {
            "number": 1,
            "time": 59.261523671875125,
            "value": 0.3779527559055118
          },
          {
            "number": 1,
            "time": 59.261523671875125,
            "value": 0.3937007874015748
          },
          {
            "number": 1,
            "time": 59.27128921875013,
            "value": 0.33858267716535434
          },
          {
            "number": 1,
            "time": 59.27128921875013,
            "value": 0.3543307086614173
          },
          {
            "number": 1,
            "time": 59.27826460937513,
            "value": 0.30708661417322836
          },
          {
            "number": 1,
            "time": 59.27826460937513,
            "value": 0.3228346456692913
          },
          {
            "number": 1,
            "time": 59.28663507812513,
            "value": 0.29133858267716534
          },
          {
            "number": 1,
            "time": 59.28663507812513,
            "value": 0.2992125984251969
          },
          {
            "number": 1,
            "time": 59.29500554687513,
            "value": 0.28346456692913385
          },
          {
            "number": 1,
            "time": 59.310351406250135,
            "value": 0.2755905511811024
          },
          {
            "number": 1,
            "time": 59.32151203125014,
            "value": 0.25196850393700787
          },
          {
            "number": 1,
            "time": 59.32151203125014,
            "value": 0.25984251968503935
          },
          {
            "number": 1,
            "time": 59.32848742187514,
            "value": 0.1968503937007874
          },
          {
            "number": 1,
            "time": 59.32848742187514,
            "value": 0.2204724409448819
          },
          {
            "number": 1,
            "time": 59.33685789062514,
            "value": 0.09448818897637795
          },
          {
            "number": 1,
            "time": 59.33685789062514,
            "value": 0.14960629921259844
          },
          {
            "number": 1,
            "time": 59.34522835937514,
            "value": 0.047244094488188976
          },
          {
            "number": 1,
            "time": 59.34662343750014,
            "value": 0
          },
          {
            "number": 1,
            "time": 67.0167629687502,
            "value": 0.007874015748031496
          },
          {
            "number": 1,
            "time": 67.0237383593752,
            "value": 0.015748031496062992
          },
          {
            "number": 1,
            "time": 67.0307137500002,
            "value": 0.023622047244094488
          },
          {
            "number": 1,
            "time": 67.0404792968752,
            "value": 0.03937007874015748
          },
          {
            "number": 1,
            "time": 67.0404792968752,
            "value": 0.031496062992125984
          },
          {
            "number": 1,
            "time": 67.0488497656252,
            "value": 0.05511811023622047
          },
          {
            "number": 1,
            "time": 67.0488497656252,
            "value": 0.047244094488188976
          },
          {
            "number": 1,
            "time": 67.05582515625021,
            "value": 0.06299212598425197
          },
          {
            "number": 1,
            "time": 67.06559070312521,
            "value": 0.07086614173228346
          },
          {
            "number": 1,
            "time": 67.08233164062521,
            "value": 0.08661417322834646
          },
          {
            "number": 1,
            "time": 67.08233164062521,
            "value": 0.07874015748031496
          },
          {
            "number": 1,
            "time": 67.09070210937521,
            "value": 0.09448818897637795
          },
          {
            "number": 1,
            "time": 67.09628242187522,
            "value": 0.10236220472440945
          },
          {
            "number": 1,
            "time": 67.10465289062522,
            "value": 0.11023622047244094
          },
          {
            "number": 1,
            "time": 67.11441843750022,
            "value": 0.11811023622047244
          },
          {
            "number": 1,
            "time": 67.11581351562522,
            "value": 0.12598425196850394
          },
          {
            "number": 1,
            "time": 67.13115937500022,
            "value": 0.14173228346456693
          },
          {
            "number": 1,
            "time": 67.13115937500022,
            "value": 0.13385826771653545
          },
          {
            "number": 1,
            "time": 67.14650523437523,
            "value": 0.14960629921259844
          },
          {
            "number": 1,
            "time": 67.14790031250023,
            "value": 0.15748031496062992
          },
          {
            "number": 1,
            "time": 67.15627078125023,
            "value": 0.1732283464566929
          },
          {
            "number": 1,
            "time": 67.15766585937523,
            "value": 0.18110236220472442
          },
          {
            "number": 1,
            "time": 67.16603632812523,
            "value": 0.1889763779527559
          },
          {
            "number": 1,
            "time": 67.17161664062523,
            "value": 0.2047244094488189
          },
          {
            "number": 1,
            "time": 67.17440679687523,
            "value": 0.2125984251968504
          },
          {
            "number": 1,
            "time": 67.17998710937523,
            "value": 0.2204724409448819
          },
          {
            "number": 1,
            "time": 67.18835757812523,
            "value": 0.2283464566929134
          },
          {
            "number": 1,
            "time": 67.18975265625023,
            "value": 0.23622047244094488
          },
          {
            "number": 1,
            "time": 67.19812312500024,
            "value": 0.2440944881889764
          },
          {
            "number": 1,
            "time": 67.20649359375024,
            "value": 0.25196850393700787
          },
          {
            "number": 1,
            "time": 67.21486406250024,
            "value": 0.25984251968503935
          },
          {
            "number": 1,
            "time": 67.22183945312524,
            "value": 0.2677165354330709
          },
          {
            "number": 1,
            "time": 67.23020992187524,
            "value": 0.2755905511811024
          },
          {
            "number": 1,
            "time": 67.23300007812524,
            "value": 0.30708661417322836
          },
          {
            "number": 1,
            "time": 67.23300007812524,
            "value": 0.2992125984251969
          },
          {
            "number": 1,
            "time": 67.23300007812524,
            "value": 0.28346456692913385
          },
          {
            "number": 1,
            "time": 67.24555578125025,
            "value": 0.31496062992125984
          },
          {
            "number": 1,
            "time": 67.25392625000025,
            "value": 0.3228346456692913
          },
          {
            "number": 1,
            "time": 67.25532132812525,
            "value": 0.33070866141732286
          },
          {
            "number": 1,
            "time": 67.26369179687525,
            "value": 0.33858267716535434
          },
          {
            "number": 1,
            "time": 67.27066718750025,
            "value": 0.3464566929133858
          },
          {
            "number": 1,
            "time": 67.28043273437525,
            "value": 0.36220472440944884
          },
          {
            "number": 1,
            "time": 67.28043273437525,
            "value": 0.3543307086614173
          },
          {
            "number": 1,
            "time": 67.29019828125026,
            "value": 0.3700787401574803
          },
          {
            "number": 1,
            "time": 67.30554414062526,
            "value": 0.3779527559055118
          },
          {
            "number": 1,
            "time": 67.31251953125026,
            "value": 0.3858267716535433
          },
          {
            "number": 1,
            "time": 67.32228507812526,
            "value": 0.3937007874015748
          },
          {
            "number": 1,
            "time": 67.33763093750026,
            "value": 0.4015748031496063
          },
          {
            "number": 1,
            "time": 67.36274234375027,
            "value": 0.4094488188976378
          },
          {
            "number": 1,
            "time": 67.37808820312527,
            "value": 0.41732283464566927
          },
          {
            "number": 1,
            "time": 67.37948328125027,
            "value": 0.4251968503937008
          },
          {
            "number": 1,
            "time": 67.39622421875028,
            "value": 0.4330708661417323
          },
          {
            "number": 1,
            "time": 67.41157007812528,
            "value": 0.4409448818897638
          },
          {
            "number": 1,
            "time": 67.42273070312528,
            "value": 0.44881889763779526
          },
          {
            "number": 1,
            "time": 67.43807656250029,
            "value": 0.4566929133858268
          },
          {
            "number": 1,
            "time": 67.45202734375029,
            "value": 0.4645669291338583
          },
          {
            "number": 1,
            "time": 67.46179289062529,
            "value": 0.47244094488188976
          },
          {
            "number": 1,
            "time": 67.4771387500003,
            "value": 0.48031496062992124
          },
          {
            "number": 1,
            "time": 67.4966698437503,
            "value": 0.4881889763779528
          },
          {
            "number": 1,
            "time": 67.5120157031253,
            "value": 0.49606299212598426
          },
          {
            "number": 1,
            "time": 67.5357320312503,
            "value": 0.5039370078740157
          },
          {
            "number": 1,
            "time": 67.56223851562531,
            "value": 0.5118110236220472
          },
          {
            "number": 1,
            "time": 67.58595484375032,
            "value": 0.5196850393700787
          },
          {
            "number": 1,
            "time": 67.62641210937531,
            "value": 0.5275590551181102
          },
          {
            "number": 1,
            "time": 67.65989398437532,
            "value": 0.5354330708661418
          },
          {
            "number": 1,
            "time": 67.75196914062532,
            "value": 0.5433070866141733
          },
          {
            "number": 1,
            "time": 67.78405593750033,
            "value": 0.5354330708661418
          },
          {
            "number": 1,
            "time": 67.79382148437533,
            "value": 0.5275590551181102
          },
          {
            "number": 1,
            "time": 67.80079687500033,
            "value": 0.5118110236220472
          },
          {
            "number": 1,
            "time": 67.80219195312533,
            "value": 0.49606299212598426
          },
          {
            "number": 1,
            "time": 67.80916734375033,
            "value": 0.47244094488188976
          },
          {
            "number": 1,
            "time": 67.80916734375033,
            "value": 0.4881889763779528
          },
          {
            "number": 1,
            "time": 67.81614273437533,
            "value": 0.4566929133858268
          },
          {
            "number": 1,
            "time": 67.81753781250033,
            "value": 0.44881889763779526
          },
          {
            "number": 1,
            "time": 67.82451320312533,
            "value": 0.4330708661417323
          },
          {
            "number": 1,
            "time": 67.82590828125034,
            "value": 0.4094488188976378
          },
          {
            "number": 1,
            "time": 67.83288367187534,
            "value": 0.3779527559055118
          },
          {
            "number": 1,
            "time": 67.83288367187534,
            "value": 0.3937007874015748
          },
          {
            "number": 1,
            "time": 67.84264921875034,
            "value": 0.33858267716535434
          },
          {
            "number": 1,
            "time": 67.84264921875034,
            "value": 0.3543307086614173
          },
          {
            "number": 1,
            "time": 67.84962460937534,
            "value": 0.30708661417322836
          },
          {
            "number": 1,
            "time": 67.84962460937534,
            "value": 0.3228346456692913
          },
          {
            "number": 1,
            "time": 67.85799507812534,
            "value": 0.29133858267716534
          },
          {
            "number": 1,
            "time": 67.85799507812534,
            "value": 0.2992125984251969
          },
          {
            "number": 1,
            "time": 67.86636554687534,
            "value": 0.28346456692913385
          },
          {
            "number": 1,
            "time": 67.88171140625035,
            "value": 0.2755905511811024
          },
          {
            "number": 1,
            "time": 67.89287203125035,
            "value": 0.25196850393700787
          },
          {
            "number": 1,
            "time": 67.89287203125035,
            "value": 0.25984251968503935
          },
          {
            "number": 1,
            "time": 67.89984742187535,
            "value": 0.1968503937007874
          },
          {
            "number": 1,
            "time": 67.89984742187535,
            "value": 0.2204724409448819
          },
          {
            "number": 1,
            "time": 67.90821789062535,
            "value": 0.09448818897637795
          },
          {
            "number": 1,
            "time": 67.90821789062535,
            "value": 0.14960629921259844
          },
          {
            "number": 1,
            "time": 67.91658835937535,
            "value": 0.047244094488188976
          },
          {
            "number": 1,
            "time": 67.91798343750035,
            "value": 0
          },
          {
            "number": 1,
            "time": 73.93914062500039,
            "value": 0.007874015748031496
          },
          {
            "number": 1,
            "time": 73.9712274218754,
            "value": 0.015748031496062992
          },
          {
            "number": 1,
            "time": 74.0061043750004,
            "value": 0.023622047244094488
          },
          {
            "number": 1,
            "time": 74.0479567187504,
            "value": 0.031496062992125984
          },
          {
            "number": 1,
            "time": 74.1121303125004,
            "value": 0.03937007874015748
          },
          {
            "number": 1,
            "time": 74.1930448437504,
            "value": 0.031496062992125984
          },
          {
            "number": 1,
            "time": 74.2195513281254,
            "value": 0.023622047244094488
          },
          {
            "number": 1,
            "time": 74.23489718750041,
            "value": 0.015748031496062992
          },
          {
            "number": 1,
            "time": 74.25303320312541,
            "value": 0.007874015748031496
          },
          {
            "number": 1,
            "time": 74.26698398437541,
            "value": 0
          },
          {
            "number": 1,
            "time": 78.41176109375041,
            "value": 0.007874015748031496
          },
          {
            "number": 1,
            "time": 78.44524296875042,
            "value": 0.015748031496062992
          },
          {
            "number": 1,
            "time": 78.48011992187543,
            "value": 0.023622047244094488
          },
          {
            "number": 1,
            "time": 78.53034273437542,
            "value": 0.031496062992125984
          },
          {
            "number": 1,
            "time": 78.70193734375043,
            "value": 0.023622047244094488
          },
          {
            "number": 1,
            "time": 78.70333242187543,
            "value": 0.015748031496062992
          },
          {
            "number": 1,
            "time": 78.72007335937543,
            "value": 0.007874015748031496
          },
          {
            "number": 1,
            "time": 78.74378968750044,
            "value": 0
          },
          {
            "number": 1,
            "time": 144.8258503125005,
            "value": 0.007874015748031496
          },
          {
            "number": 1,
            "time": 144.8411961718755,
            "value": 0.015748031496062992
          },
          {
            "number": 1,
            "time": 144.8481715625005,
            "value": 0.023622047244094488
          },
          {
            "number": 1,
            "time": 144.8495666406255,
            "value": 0.031496062992125984
          },
          {
            "number": 1,
            "time": 144.8551469531255,
            "value": 0.03937007874015748
          },
          {
            "number": 1,
            "time": 144.8579371093755,
            "value": 0.047244094488188976
          },
          {
            "number": 1,
            "time": 144.8635174218755,
            "value": 0.05511811023622047
          },
          {
            "number": 1,
            "time": 144.87328296875052,
            "value": 0.06299212598425197
          },
          {
            "number": 1,
            "time": 144.88165343750052,
            "value": 0.07874015748031496
          },
          {
            "number": 1,
            "time": 144.88165343750052,
            "value": 0.07086614173228346
          },
          {
            "number": 1,
            "time": 144.89002390625052,
            "value": 0.08661417322834646
          },
          {
            "number": 1,
            "time": 144.89699929687552,
            "value": 0.10236220472440945
          },
          {
            "number": 1,
            "time": 144.89699929687552,
            "value": 0.09448818897637795
          },
          {
            "number": 1,
            "time": 144.90536976562552,
            "value": 0.11023622047244094
          },
          {
            "number": 1,
            "time": 144.90676484375052,
            "value": 0.11811023622047244
          },
          {
            "number": 1,
            "time": 144.91095007812552,
            "value": 0.12598425196850394
          },
          {
            "number": 1,
            "time": 144.92350578125053,
            "value": 0.13385826771653545
          },
          {
            "number": 1,
            "time": 144.92908609375053,
            "value": 0.14173228346456693
          },
          {
            "number": 1,
            "time": 144.93745656250053,
            "value": 0.14960629921259844
          },
          {
            "number": 1,
            "time": 144.94722210937553,
            "value": 0.16535433070866143
          },
          {
            "number": 1,
            "time": 144.94722210937553,
            "value": 0.15748031496062992
          },
          {
            "number": 1,
            "time": 144.95559257812553,
            "value": 0.1732283464566929
          },
          {
            "number": 1,
            "time": 144.96396304687553,
            "value": 0.18110236220472442
          },
          {
            "number": 1,
            "time": 144.96535812500053,
            "value": 0.1889763779527559
          },
          {
            "number": 1,
            "time": 144.97372859375054,
            "value": 0.1968503937007874
          },
          {
            "number": 1,
            "time": 144.97930890625054,
            "value": 0.2047244094488189
          },
          {
            "number": 1,
            "time": 144.98767937500054,
            "value": 0.2125984251968504
          },
          {
            "number": 1,
            "time": 144.99744492187554,
            "value": 0.2283464566929134
          },
          {
            "number": 1,
            "time": 144.99744492187554,
            "value": 0.2204724409448819
          },
          {
            "number": 1,
            "time": 145.00581539062554,
            "value": 0.23622047244094488
          },
          {
            "number": 1,
            "time": 145.01418585937554,
            "value": 0.2440944881889764
          },
          {
            "number": 1,
            "time": 145.02116125000055,
            "value": 0.25196850393700787
          },
          {
            "number": 1,
            "time": 145.02534648437555,
            "value": 0.25984251968503935
          },
          {
            "number": 1,
            "time": 145.02953171875055,
            "value": 0.2677165354330709
          },
          {
            "number": 1,
            "time": 145.03929726562555,
            "value": 0.2755905511811024
          },
          {
            "number": 1,
            "time": 145.04627265625055,
            "value": 0.29133858267716534
          },
          {
            "number": 1,
            "time": 145.04627265625055,
            "value": 0.28346456692913385
          },
          {
            "number": 1,
            "time": 145.05603820312555,
            "value": 0.2992125984251969
          },
          {
            "number": 1,
            "time": 145.06301359375055,
            "value": 0.30708661417322836
          },
          {
            "number": 1,
            "time": 145.07138406250056,
            "value": 0.31496062992125984
          },
          {
            "number": 1,
            "time": 145.07975453125056,
            "value": 0.3228346456692913
          },
          {
            "number": 1,
            "time": 145.08812500000056,
            "value": 0.33070866141732286
          },
          {
            "number": 1,
            "time": 145.09510039062556,
            "value": 0.33858267716535434
          },
          {
            "number": 1,
            "time": 145.10347085937556,
            "value": 0.3464566929133858
          },
          {
            "number": 1,
            "time": 145.10486593750056,
            "value": 0.3543307086614173
          },
          {
            "number": 1,
            "time": 145.11323640625056,
            "value": 0.36220472440944884
          },
          {
            "number": 1,
            "time": 145.12160687500057,
            "value": 0.3700787401574803
          },
          {
            "number": 1,
            "time": 145.13974289062557,
            "value": 0.3779527559055118
          },
          {
            "number": 1,
            "time": 145.16206414062557,
            "value": 0.3858267716535433
          },
          {
            "number": 1,
            "time": 145.17601492187558,
            "value": 0.4015748031496063
          },
          {
            "number": 1,
            "time": 145.17601492187558,
            "value": 0.3937007874015748
          },
          {
            "number": 1,
            "time": 145.17880507812558,
            "value": 0.4094488188976378
          },
          {
            "number": 1,
            "time": 145.2192623437506,
            "value": 0.41732283464566927
          },
          {
            "number": 1,
            "time": 145.2457688281256,
            "value": 0.4251968503937008
          },
          {
            "number": 1,
            "time": 145.2932014843756,
            "value": 0.4330708661417323
          },
          {
            "number": 1,
            "time": 145.3517947656256,
            "value": 0.4409448818897638
          },
          {
            "number": 1,
            "time": 145.41736343750063,
            "value": 0.44881889763779526
          },
          {
            "number": 1,
            "time": 145.4940927343756,
            "value": 0.4566929133858268
          },
          {
            "number": 1,
            "time": 145.55129093750062,
            "value": 0.4645669291338583
          },
          {
            "number": 1,
            "time": 145.6238350000006,
            "value": 0.47244094488188976
          },
          {
            "number": 1,
            "time": 145.65731687500062,
            "value": 0.48031496062992124
          },
          {
            "number": 1,
            "time": 145.69916921875063,
            "value": 0.4881889763779528
          },
          {
            "number": 1,
            "time": 145.73404617187563,
            "value": 0.49606299212598426
          },
          {
            "number": 1,
            "time": 145.78147882812564,
            "value": 0.5039370078740157
          },
          {
            "number": 1,
            "time": 145.82333117187565,
            "value": 0.5118110236220472
          },
          {
            "number": 1,
            "time": 145.89029492187566,
            "value": 0.5196850393700787
          },
          {
            "number": 1,
            "time": 145.92098664062567,
            "value": 0.5275590551181102
          },
          {
            "number": 1,
            "time": 145.95307343750068,
            "value": 0.5354330708661418
          },
          {
            "number": 1,
            "time": 145.9963208593757,
            "value": 0.5433070866141733
          },
          {
            "number": 1,
            "time": 146.0298027343757,
            "value": 0.5511811023622047
          },
          {
            "number": 1,
            "time": 146.1609400781257,
            "value": 0.5590551181102362
          },
          {
            "number": 1,
            "time": 146.2111628906257,
            "value": 0.5669291338582677
          },
          {
            "number": 1,
            "time": 146.2613857031257,
            "value": 0.5748031496062992
          },
          {
            "number": 1,
            "time": 146.31021343750072,
            "value": 0.5826771653543307
          },
          {
            "number": 1,
            "time": 146.35904117187573,
            "value": 0.5905511811023622
          },
          {
            "number": 1,
            "time": 146.39112796875074,
            "value": 0.5984251968503937
          },
          {
            "number": 1,
            "time": 146.41623937500074,
            "value": 0.6062992125984252
          },
          {
            "number": 1,
            "time": 146.47343757812575,
            "value": 0.6141732283464567
          },
          {
            "number": 1,
            "time": 146.61573554687575,
            "value": 0.6220472440944882
          },
          {
            "number": 1,
            "time": 146.78174984375076,
            "value": 0.6299212598425197
          },
          {
            "number": 1,
            "time": 146.91428226562576,
            "value": 0.6377952755905512
          },
          {
            "number": 1,
            "time": 147.07750640625076,
            "value": 0.6456692913385826
          },
          {
            "number": 1,
            "time": 147.27560750000077,
            "value": 0.6535433070866141
          },
          {
            "number": 1,
            "time": 147.44999226562578,
            "value": 0.6456692913385826
          },
          {
            "number": 1,
            "time": 147.46533812500078,
            "value": 0.6535433070866141
          },
          {
            "number": 1,
            "time": 147.4918446093758,
            "value": 0.6377952755905512
          },
          {
            "number": 1,
            "time": 147.5002150781258,
            "value": 0.6062992125984252
          },
          {
            "number": 1,
            "time": 147.5002150781258,
            "value": 0.6220472440944882
          },
          {
            "number": 1,
            "time": 147.5071904687508,
            "value": 0.5826771653543307
          },
          {
            "number": 1,
            "time": 147.5085855468758,
            "value": 0.5590551181102362
          },
          {
            "number": 1,
            "time": 147.5155609375008,
            "value": 0.49606299212598426
          },
          {
            "number": 1,
            "time": 147.5155609375008,
            "value": 0.5275590551181102
          },
          {
            "number": 1,
            "time": 147.5239314062508,
            "value": 0.44881889763779526
          },
          {
            "number": 1,
            "time": 147.5253264843758,
            "value": 0.3937007874015748
          },
          {
            "number": 1,
            "time": 147.5323018750008,
            "value": 0.15748031496062992
          },
          {
            "number": 1,
            "time": 147.5323018750008,
            "value": 0.2204724409448819
          },
          {
            "number": 1,
            "time": 147.5323018750008,
            "value": 0.28346456692913385
          },
          {
            "number": 1,
            "time": 147.5323018750008,
            "value": 0.33858267716535434
          },
          {
            "number": 1,
            "time": 147.5420674218758,
            "value": 0.015748031496062992
          },
          {
            "number": 1,
            "time": 147.5420674218758,
            "value": 0.08661417322834646
          },
          {
            "number": 1,
            "time": 147.5574132812508,
            "value": 0
          },
          {
            "number": 1,
            "time": 147.92292375000082,
            "value": 0.015748031496062992
          },
          {
            "number": 1,
            "time": 147.92710898437582,
            "value": 0.023622047244094488
          },
          {
            "number": 1,
            "time": 147.92850406250082,
            "value": 0.03937007874015748
          },
          {
            "number": 1,
            "time": 147.93826960937582,
            "value": 0.06299212598425197
          },
          {
            "number": 1,
            "time": 147.93826960937582,
            "value": 0.05511811023622047
          },
          {
            "number": 1,
            "time": 147.94524500000082,
            "value": 0.11023622047244094
          },
          {
            "number": 1,
            "time": 147.94524500000082,
            "value": 0.08661417322834646
          },
          {
            "number": 1,
            "time": 147.95361546875083,
            "value": 0.14173228346456693
          },
          {
            "number": 1,
            "time": 147.95361546875083,
            "value": 0.12598425196850394
          },
          {
            "number": 1,
            "time": 147.96198593750083,
            "value": 0.15748031496062992
          },
          {
            "number": 1,
            "time": 147.96338101562583,
            "value": 0.1732283464566929
          },
          {
            "number": 1,
            "time": 147.96896132812583,
            "value": 0.1889763779527559
          },
          {
            "number": 1,
            "time": 147.97175148437583,
            "value": 0.2047244094488189
          },
          {
            "number": 1,
            "time": 147.97733179687583,
            "value": 0.2204724409448819
          },
          {
            "number": 1,
            "time": 147.98012195312583,
            "value": 0.23622047244094488
          },
          {
            "number": 1,
            "time": 147.98709734375083,
            "value": 0.25984251968503935
          },
          {
            "number": 1,
            "time": 147.98709734375083,
            "value": 0.25196850393700787
          },
          {
            "number": 1,
            "time": 147.99407273437583,
            "value": 0.29133858267716534
          },
          {
            "number": 1,
            "time": 147.99407273437583,
            "value": 0.2755905511811024
          },
          {
            "number": 1,
            "time": 148.00383828125084,
            "value": 0.3228346456692913
          },
          {
            "number": 1,
            "time": 148.00383828125084,
            "value": 0.30708661417322836
          },
          {
            "number": 1,
            "time": 148.01220875000084,
            "value": 0.33070866141732286
          },
          {
            "number": 1,
            "time": 148.01360382812584,
            "value": 0.3464566929133858
          },
          {
            "number": 1,
            "time": 148.01918414062584,
            "value": 0.36220472440944884
          },
          {
            "number": 1,
            "time": 148.02197429687584,
            "value": 0.3779527559055118
          },
          {
            "number": 1,
            "time": 148.02755460937584,
            "value": 0.3858267716535433
          },
          {
            "number": 1,
            "time": 148.02894968750084,
            "value": 0.4015748031496063
          },
          {
            "number": 1,
            "time": 148.03453000000084,
            "value": 0.41732283464566927
          },
          {
            "number": 1,
            "time": 148.03453000000084,
            "value": 0.4094488188976378
          },
          {
            "number": 1,
            "time": 148.04429554687584,
            "value": 0.4330708661417323
          },
          {
            "number": 1,
            "time": 148.04429554687584,
            "value": 0.4251968503937008
          },
          {
            "number": 1,
            "time": 148.05127093750085,
            "value": 0.4409448818897638
          },
          {
            "number": 1,
            "time": 148.05266601562585,
            "value": 0.44881889763779526
          },
          {
            "number": 1,
            "time": 148.05964140625085,
            "value": 0.4566929133858268
          },
          {
            "number": 1,
            "time": 148.06103648437585,
            "value": 0.4645669291338583
          },
          {
            "number": 1,
            "time": 148.06940695312585,
            "value": 0.47244094488188976
          },
          {
            "number": 1,
            "time": 148.07777742187585,
            "value": 0.48031496062992124
          },
          {
            "number": 1,
            "time": 148.07917250000085,
            "value": 0.4881889763779528
          },
          {
            "number": 1,
            "time": 148.08196265625085,
            "value": 0.49606299212598426
          },
          {
            "number": 1,
            "time": 148.09312328125085,
            "value": 0.5039370078740157
          },
          {
            "number": 1,
            "time": 148.10149375000086,
            "value": 0.5118110236220472
          },
          {
            "number": 1,
            "time": 148.10986421875086,
            "value": 0.5196850393700787
          },
          {
            "number": 1,
            "time": 148.11962976562586,
            "value": 0.5275590551181102
          },
          {
            "number": 1,
            "time": 148.12800023437586,
            "value": 0.5354330708661418
          },
          {
            "number": 1,
            "time": 148.13358054687586,
            "value": 0.5433070866141733
          },
          {
            "number": 1,
            "time": 148.14334609375086,
            "value": 0.5511811023622047
          },
          {
            "number": 1,
            "time": 148.15171656250087,
            "value": 0.5590551181102362
          },
          {
            "number": 1,
            "time": 148.16008703125087,
            "value": 0.5669291338582677
          },
          {
            "number": 1,
            "time": 148.17543289062587,
            "value": 0.5748031496062992
          },
          {
            "number": 1,
            "time": 148.19356890625087,
            "value": 0.5826771653543307
          },
          {
            "number": 1,
            "time": 148.20333445312588,
            "value": 0.5905511811023622
          },
          {
            "number": 1,
            "time": 148.22565570312588,
            "value": 0.5984251968503937
          },
          {
            "number": 1,
            "time": 148.2521621875009,
            "value": 0.6062992125984252
          },
          {
            "number": 1,
            "time": 148.2786686718759,
            "value": 0.6141732283464567
          },
          {
            "number": 1,
            "time": 148.3177308593759,
            "value": 0.6220472440944882
          },
          {
            "number": 1,
            "time": 148.3832995312509,
            "value": 0.6299212598425197
          },
          {
            "number": 1,
            "time": 148.5074614843759,
            "value": 0.6377952755905512
          },
          {
            "number": 1,
            "time": 148.5814006250009,
            "value": 0.6456692913385826
          },
          {
            "number": 1,
            "time": 148.6902167187509,
            "value": 0.6535433070866141
          },
          {
            "number": 1,
            "time": 148.76415585937588,
            "value": 0.6614173228346457
          },
          {
            "number": 1,
            "time": 148.79763773437588,
            "value": 0.6692913385826772
          },
          {
            "number": 1,
            "time": 148.8297245312509,
            "value": 0.6771653543307087
          },
          {
            "number": 1,
            "time": 148.91342921875088,
            "value": 0.6850393700787402
          },
          {
            "number": 1,
            "time": 149.00410929687587,
            "value": 0.7007874015748031
          },
          {
            "number": 1,
            "time": 149.05154195312588,
            "value": 0.7165354330708661
          },
          {
            "number": 1,
            "time": 149.13524664062587,
            "value": 0.7322834645669292
          },
          {
            "number": 1,
            "time": 149.20918578125085,
            "value": 0.7480314960629921
          },
          {
            "number": 1,
            "time": 149.50773250000086,
            "value": 0.7637795275590551
          },
          {
            "number": 1,
            "time": 149.63189445312585,
            "value": 0.7480314960629921
          },
          {
            "number": 1,
            "time": 149.68769757812586,
            "value": 0.7637795275590551
          },
          {
            "number": 1,
            "time": 149.70583359375087,
            "value": 0.7795275590551181
          },
          {
            "number": 1,
            "time": 149.72815484375087,
            "value": 0.7952755905511811
          },
          {
            "number": 1,
            "time": 149.83697093750087,
            "value": 0.8110236220472441
          },
          {
            "number": 1,
            "time": 149.85092171875087,
            "value": 0.7795275590551181
          },
          {
            "number": 1,
            "time": 149.85231679687587,
            "value": 0.7480314960629921
          },
          {
            "number": 1,
            "time": 149.85929218750087,
            "value": 0.6771653543307087
          },
          {
            "number": 1,
            "time": 149.85929218750087,
            "value": 0.7165354330708661
          },
          {
            "number": 1,
            "time": 149.86905773437587,
            "value": 0.5826771653543307
          },
          {
            "number": 1,
            "time": 149.86905773437587,
            "value": 0.6299212598425197
          },
          {
            "number": 1,
            "time": 149.87742820312587,
            "value": 0.4645669291338583
          },
          {
            "number": 1,
            "time": 149.87742820312587,
            "value": 0.5275590551181102
          },
          {
            "number": 1,
            "time": 149.88579867187588,
            "value": 0.31496062992125984
          },
          {
            "number": 1,
            "time": 149.88579867187588,
            "value": 0.3858267716535433
          },
          {
            "number": 1,
            "time": 149.89416914062588,
            "value": 0.25196850393700787
          },
          {
            "number": 1,
            "time": 149.89556421875088,
            "value": 0.1968503937007874
          },
          {
            "number": 1,
            "time": 149.90114453125088,
            "value": 0.11811023622047244
          },
          {
            "number": 1,
            "time": 149.90393468750088,
            "value": 0.023622047244094488
          },
          {
            "number": 1,
            "time": 149.90951500000088,
            "value": 0
          },
          {
            "number": 1,
            "time": 172.01592296875094,
            "value": 0.007874015748031496
          },
          {
            "number": 1,
            "time": 172.02289835937594,
            "value": 0.015748031496062992
          },
          {
            "number": 1,
            "time": 172.02987375000095,
            "value": 0.023622047244094488
          },
          {
            "number": 1,
            "time": 172.03963929687595,
            "value": 0.03937007874015748
          },
          {
            "number": 1,
            "time": 172.03963929687595,
            "value": 0.031496062992125984
          },
          {
            "number": 1,
            "time": 172.04800976562595,
            "value": 0.05511811023622047
          },
          {
            "number": 1,
            "time": 172.04800976562595,
            "value": 0.047244094488188976
          },
          {
            "number": 1,
            "time": 172.05498515625095,
            "value": 0.06299212598425197
          },
          {
            "number": 1,
            "time": 172.06475070312595,
            "value": 0.07086614173228346
          },
          {
            "number": 1,
            "time": 172.08149164062596,
            "value": 0.08661417322834646
          },
          {
            "number": 1,
            "time": 172.08149164062596,
            "value": 0.07874015748031496
          },
          {
            "number": 1,
            "time": 172.08986210937596,
            "value": 0.09448818897637795
          },
          {
            "number": 1,
            "time": 172.09544242187596,
            "value": 0.10236220472440945
          },
          {
            "number": 1,
            "time": 172.10381289062596,
            "value": 0.11023622047244094
          },
          {
            "number": 1,
            "time": 172.11357843750096,
            "value": 0.11811023622047244
          },
          {
            "number": 1,
            "time": 172.11497351562596,
            "value": 0.12598425196850394
          },
          {
            "number": 1,
            "time": 172.13031937500097,
            "value": 0.14173228346456693
          },
          {
            "number": 1,
            "time": 172.13031937500097,
            "value": 0.13385826771653545
          },
          {
            "number": 1,
            "time": 172.14566523437597,
            "value": 0.14960629921259844
          },
          {
            "number": 1,
            "time": 172.14706031250097,
            "value": 0.15748031496062992
          },
          {
            "number": 1,
            "time": 172.15543078125097,
            "value": 0.1732283464566929
          },
          {
            "number": 1,
            "time": 172.15682585937597,
            "value": 0.18110236220472442
          },
          {
            "number": 1,
            "time": 172.16519632812597,
            "value": 0.1889763779527559
          },
          {
            "number": 1,
            "time": 172.17077664062597,
            "value": 0.2047244094488189
          },
          {
            "number": 1,
            "time": 172.17356679687597,
            "value": 0.2125984251968504
          },
          {
            "number": 1,
            "time": 172.17914710937598,
            "value": 0.2204724409448819
          },
          {
            "number": 1,
            "time": 172.18751757812598,
            "value": 0.2283464566929134
          },
          {
            "number": 1,
            "time": 172.18891265625098,
            "value": 0.23622047244094488
          },
          {
            "number": 1,
            "time": 172.19728312500098,
            "value": 0.2440944881889764
          },
          {
            "number": 1,
            "time": 172.20565359375098,
            "value": 0.25196850393700787
          },
          {
            "number": 1,
            "time": 172.21402406250098,
            "value": 0.25984251968503935
          },
          {
            "number": 1,
            "time": 172.22099945312598,
            "value": 0.2677165354330709
          },
          {
            "number": 1,
            "time": 172.22936992187599,
            "value": 0.2755905511811024
          },
          {
            "number": 1,
            "time": 172.232160078126,
            "value": 0.30708661417322836
          },
          {
            "number": 1,
            "time": 172.232160078126,
            "value": 0.2992125984251969
          },
          {
            "number": 1,
            "time": 172.232160078126,
            "value": 0.28346456692913385
          },
          {
            "number": 1,
            "time": 172.244715781251,
            "value": 0.31496062992125984
          },
          {
            "number": 1,
            "time": 172.253086250001,
            "value": 0.3228346456692913
          },
          {
            "number": 1,
            "time": 172.254481328126,
            "value": 0.33070866141732286
          },
          {
            "number": 1,
            "time": 172.262851796876,
            "value": 0.33858267716535434
          },
          {
            "number": 1,
            "time": 172.269827187501,
            "value": 0.3464566929133858
          },
          {
            "number": 1,
            "time": 172.279592734376,
            "value": 0.36220472440944884
          },
          {
            "number": 1,
            "time": 172.279592734376,
            "value": 0.3543307086614173
          },
          {
            "number": 1,
            "time": 172.289358281251,
            "value": 0.3700787401574803
          },
          {
            "number": 1,
            "time": 172.304704140626,
            "value": 0.3779527559055118
          },
          {
            "number": 1,
            "time": 172.311679531251,
            "value": 0.3858267716535433
          },
          {
            "number": 1,
            "time": 172.321445078126,
            "value": 0.3937007874015748
          },
          {
            "number": 1,
            "time": 172.336790937501,
            "value": 0.4015748031496063
          },
          {
            "number": 1,
            "time": 172.361902343751,
            "value": 0.4094488188976378
          },
          {
            "number": 1,
            "time": 172.37724820312602,
            "value": 0.41732283464566927
          },
          {
            "number": 1,
            "time": 172.37864328125102,
            "value": 0.4251968503937008
          },
          {
            "number": 1,
            "time": 172.39538421875102,
            "value": 0.4330708661417323
          },
          {
            "number": 1,
            "time": 172.41073007812602,
            "value": 0.4409448818897638
          },
          {
            "number": 1,
            "time": 172.42189070312602,
            "value": 0.44881889763779526
          },
          {
            "number": 1,
            "time": 172.43723656250103,
            "value": 0.4566929133858268
          },
          {
            "number": 1,
            "time": 172.45118734375103,
            "value": 0.4645669291338583
          },
          {
            "number": 1,
            "time": 172.46095289062603,
            "value": 0.47244094488188976
          },
          {
            "number": 1,
            "time": 172.47629875000104,
            "value": 0.48031496062992124
          },
          {
            "number": 1,
            "time": 172.49582984375104,
            "value": 0.4881889763779528
          },
          {
            "number": 1,
            "time": 172.51117570312604,
            "value": 0.49606299212598426
          },
          {
            "number": 1,
            "time": 172.53489203125105,
            "value": 0.5039370078740157
          },
          {
            "number": 1,
            "time": 172.56139851562605,
            "value": 0.5118110236220472
          },
          {
            "number": 1,
            "time": 172.58511484375106,
            "value": 0.5196850393700787
          },
          {
            "number": 1,
            "time": 172.62557210937607,
            "value": 0.5275590551181102
          },
          {
            "number": 1,
            "time": 172.65905398437607,
            "value": 0.5354330708661418
          },
          {
            "number": 1,
            "time": 172.75112914062606,
            "value": 0.5433070866141733
          },
          {
            "number": 1,
            "time": 172.78321593750107,
            "value": 0.5354330708661418
          },
          {
            "number": 1,
            "time": 172.79298148437607,
            "value": 0.5275590551181102
          },
          {
            "number": 1,
            "time": 172.79995687500107,
            "value": 0.5118110236220472
          },
          {
            "number": 1,
            "time": 172.80135195312607,
            "value": 0.49606299212598426
          },
          {
            "number": 1,
            "time": 172.80832734375107,
            "value": 0.47244094488188976
          },
          {
            "number": 1,
            "time": 172.80832734375107,
            "value": 0.4881889763779528
          },
          {
            "number": 1,
            "time": 172.81530273437608,
            "value": 0.4566929133858268
          },
          {
            "number": 1,
            "time": 172.81669781250108,
            "value": 0.44881889763779526
          },
          {
            "number": 1,
            "time": 172.82367320312608,
            "value": 0.4330708661417323
          },
          {
            "number": 1,
            "time": 172.82506828125108,
            "value": 0.4094488188976378
          },
          {
            "number": 1,
            "time": 172.83204367187608,
            "value": 0.3779527559055118
          },
          {
            "number": 1,
            "time": 172.83204367187608,
            "value": 0.3937007874015748
          },
          {
            "number": 1,
            "time": 172.84180921875108,
            "value": 0.33858267716535434
          },
          {
            "number": 1,
            "time": 172.84180921875108,
            "value": 0.3543307086614173
          },
          {
            "number": 1,
            "time": 172.84878460937608,
            "value": 0.30708661417322836
          },
          {
            "number": 1,
            "time": 172.84878460937608,
            "value": 0.3228346456692913
          },
          {
            "number": 1,
            "time": 172.85715507812608,
            "value": 0.29133858267716534
          },
          {
            "number": 1,
            "time": 172.85715507812608,
            "value": 0.2992125984251969
          },
          {
            "number": 1,
            "time": 172.86552554687609,
            "value": 0.28346456692913385
          },
          {
            "number": 1,
            "time": 172.8808714062511,
            "value": 0.2755905511811024
          },
          {
            "number": 1,
            "time": 172.8920320312511,
            "value": 0.25196850393700787
          },
          {
            "number": 1,
            "time": 172.8920320312511,
            "value": 0.25984251968503935
          },
          {
            "number": 1,
            "time": 172.8990074218761,
            "value": 0.1968503937007874
          },
          {
            "number": 1,
            "time": 172.8990074218761,
            "value": 0.2204724409448819
          },
          {
            "number": 1,
            "time": 172.9073778906261,
            "value": 0.09448818897637795
          },
          {
            "number": 1,
            "time": 172.9073778906261,
            "value": 0.14960629921259844
          },
          {
            "number": 1,
            "time": 172.9157483593761,
            "value": 0.047244094488188976
          },
          {
            "number": 1,
            "time": 172.9171434375011,
            "value": 0
          },
          {
            "number": 1,
            "time": 183.02308937500115,
            "value": 0.007874015748031496
          },
          {
            "number": 1,
            "time": 183.05517617187616,
            "value": 0.015748031496062992
          },
          {
            "number": 1,
            "time": 183.08028757812616,
            "value": 0.023622047244094488
          },
          {
            "number": 1,
            "time": 183.09702851562616,
            "value": 0.031496062992125984
          },
          {
            "number": 1,
            "time": 183.12213992187617,
            "value": 0.03937007874015748
          },
          {
            "number": 1,
            "time": 183.13888085937617,
            "value": 0.047244094488188976
          },
          {
            "number": 1,
            "time": 183.17236273437618,
            "value": 0.05511811023622047
          },
          {
            "number": 1,
            "time": 183.20305445312619,
            "value": 0.06299212598425197
          },
          {
            "number": 1,
            "time": 183.2295609375012,
            "value": 0.07086614173228346
          },
          {
            "number": 1,
            "time": 183.2616477343762,
            "value": 0.07874015748031496
          },
          {
            "number": 1,
            "time": 183.2769935937512,
            "value": 0.08661417322834646
          },
          {
            "number": 1,
            "time": 183.3090803906262,
            "value": 0.09448818897637795
          },
          {
            "number": 1,
            "time": 183.34814257812621,
            "value": 0.10236220472440945
          },
          {
            "number": 1,
            "time": 183.35790812500122,
            "value": 0.11023622047244094
          },
          {
            "number": 1,
            "time": 183.37604414062622,
            "value": 0.11811023622047244
          },
          {
            "number": 1,
            "time": 183.39139000000122,
            "value": 0.12598425196850394
          },
          {
            "number": 1,
            "time": 183.40813093750123,
            "value": 0.13385826771653545
          },
          {
            "number": 1,
            "time": 183.41510632812623,
            "value": 0.14173228346456693
          },
          {
            "number": 1,
            "time": 183.42626695312623,
            "value": 0.14960629921259844
          },
          {
            "number": 1,
            "time": 183.44161281250123,
            "value": 0.15748031496062992
          },
          {
            "number": 1,
            "time": 183.46672421875124,
            "value": 0.16535433070866143
          },
          {
            "number": 1,
            "time": 183.48067500000124,
            "value": 0.1732283464566929
          },
          {
            "number": 1,
            "time": 183.49881101562625,
            "value": 0.18110236220472442
          },
          {
            "number": 1,
            "time": 183.50439132812625,
            "value": 0.1889763779527559
          },
          {
            "number": 1,
            "time": 183.54624367187625,
            "value": 0.1968503937007874
          },
          {
            "number": 1,
            "time": 183.56437968750126,
            "value": 0.2047244094488189
          },
          {
            "number": 1,
            "time": 183.58670093750126,
            "value": 0.2125984251968504
          },
          {
            "number": 1,
            "time": 183.62715820312627,
            "value": 0.2204724409448819
          },
          {
            "number": 1,
            "time": 183.65366468750128,
            "value": 0.2283464566929134
          },
          {
            "number": 1,
            "time": 183.7010973437513,
            "value": 0.23622047244094488
          },
          {
            "number": 1,
            "time": 183.7345792187513,
            "value": 0.2440944881889764
          },
          {
            "number": 1,
            "time": 183.7582955468763,
            "value": 0.25196850393700787
          },
          {
            "number": 1,
            "time": 183.7917774218763,
            "value": 0.25984251968503935
          },
          {
            "number": 1,
            "time": 183.8238642187513,
            "value": 0.2677165354330709
          },
          {
            "number": 1,
            "time": 183.86571656250132,
            "value": 0.2755905511811024
          },
          {
            "number": 1,
            "time": 183.92291476562633,
            "value": 0.28346456692913385
          },
          {
            "number": 1,
            "time": 184.02057023437632,
            "value": 0.29133858267716534
          },
          {
            "number": 1,
            "time": 184.14891742187632,
            "value": 0.2992125984251969
          },
          {
            "number": 1,
            "time": 184.34004312500133,
            "value": 0.30708661417322836
          },
          {
            "number": 1,
            "time": 184.38050039062634,
            "value": 0.2992125984251969
          },
          {
            "number": 1,
            "time": 184.56186054687635,
            "value": 0.30708661417322836
          },
          {
            "number": 1,
            "time": 184.87993835937635,
            "value": 0.2992125984251969
          },
          {
            "number": 1,
            "time": 184.90365468750136,
            "value": 0.30708661417322836
          },
          {
            "number": 1,
            "time": 184.93853164062637,
            "value": 0.31496062992125984
          },
          {
            "number": 1,
            "time": 185.03479203125136,
            "value": 0.3228346456692913
          },
          {
            "number": 1,
            "time": 185.28869625000135,
            "value": 0.33070866141732286
          },
          {
            "number": 1,
            "time": 185.41146312500135,
            "value": 0.33858267716535434
          },
          {
            "number": 1,
            "time": 185.57608234375135,
            "value": 0.3464566929133858
          },
          {
            "number": 1,
            "time": 185.63188546875136,
            "value": 0.33858267716535434
          },
          {
            "number": 1,
            "time": 185.86904875000135,
            "value": 0.3464566929133858
          },
          {
            "number": 1,
            "time": 185.96112390625134,
            "value": 0.3543307086614173
          },
          {
            "number": 1,
            "time": 186.52613054687635,
            "value": 0.36220472440944884
          },
          {
            "number": 1,
            "time": 186.76189875000134,
            "value": 0.3700787401574803
          },
          {
            "number": 1,
            "time": 187.18600250000134,
            "value": 0.3779527559055118
          },
          {
            "number": 1,
            "time": 187.37573312500135,
            "value": 0.3700787401574803
          },
          {
            "number": 1,
            "time": 187.46501812500134,
            "value": 0.36220472440944884
          },
          {
            "number": 1,
            "time": 187.52221632812635,
            "value": 0.3700787401574803
          },
          {
            "number": 1,
            "time": 187.63800781250134,
            "value": 0.3779527559055118
          },
          {
            "number": 1,
            "time": 187.79286148437635,
            "value": 0.3700787401574803
          },
          {
            "number": 1,
            "time": 187.87377601562633,
            "value": 0.36220472440944884
          },
          {
            "number": 1,
            "time": 188.28392898437633,
            "value": 0.3700787401574803
          },
          {
            "number": 1,
            "time": 188.53783320312633,
            "value": 0.36220472440944884
          },
          {
            "number": 1,
            "time": 188.83637992187633,
            "value": 0.3700787401574803
          },
          {
            "number": 1,
            "time": 189.01913515625134,
            "value": 0.3779527559055118
          },
          {
            "number": 1,
            "time": 189.33023757812632,
            "value": 0.3700787401574803
          },
          {
            "number": 1,
            "time": 189.4111521093763,
            "value": 0.36220472440944884
          },
          {
            "number": 1,
            "time": 189.4460290625013,
            "value": 0.3543307086614173
          },
          {
            "number": 1,
            "time": 189.47114046875132,
            "value": 0.3700787401574803
          },
          {
            "number": 1,
            "time": 189.47114046875132,
            "value": 0.36220472440944884
          },
          {
            "number": 1,
            "time": 189.5925122656263,
            "value": 0.3779527559055118
          },
          {
            "number": 1,
            "time": 189.64971046875132,
            "value": 0.3700787401574803
          },
          {
            "number": 1,
            "time": 189.67482187500133,
            "value": 0.3779527559055118
          },
          {
            "number": 1,
            "time": 189.90361468750132,
            "value": 0.3858267716535433
          },
          {
            "number": 1,
            "time": 190.32911351562632,
            "value": 0.3937007874015748
          },
          {
            "number": 1,
            "time": 190.5495358593763,
            "value": 0.4015748031496063
          },
          {
            "number": 1,
            "time": 191.06431968750132,
            "value": 0.4094488188976378
          },
          {
            "number": 1,
            "time": 191.31124851562635,
            "value": 0.4015748031496063
          },
          {
            "number": 1,
            "time": 191.33496484375135,
            "value": 0.3937007874015748
          },
          {
            "number": 1,
            "time": 191.45075632812635,
            "value": 0.4015748031496063
          },
          {
            "number": 1,
            "time": 191.62932632812635,
            "value": 0.4094488188976378
          },
          {
            "number": 1,
            "time": 192.07156609375136,
            "value": 0.4015748031496063
          },
          {
            "number": 1,
            "time": 192.07435625000136,
            "value": 0.3937007874015748
          },
          {
            "number": 1,
            "time": 192.10504796875136,
            "value": 0.4015748031496063
          },
          {
            "number": 1,
            "time": 192.17898710937635,
            "value": 0.4094488188976378
          },
          {
            "number": 1,
            "time": 193.16949257812635,
            "value": 0.4015748031496063
          },
          {
            "number": 1,
            "time": 193.30900039062635,
            "value": 0.4094488188976378
          },
          {
            "number": 1,
            "time": 193.72473367187635,
            "value": 0.41732283464566927
          },
          {
            "number": 1,
            "time": 194.02746562500135,
            "value": 0.4094488188976378
          },
          {
            "number": 1,
            "time": 194.04141640625136,
            "value": 0.4015748031496063
          },
          {
            "number": 1,
            "time": 194.05955242187636,
            "value": 0.3937007874015748
          },
          {
            "number": 1,
            "time": 194.09163921875137,
            "value": 0.4015748031496063
          },
          {
            "number": 1,
            "time": 194.19068976562636,
            "value": 0.4094488188976378
          },
          {
            "number": 1,
            "time": 194.59107718750136,
            "value": 0.4015748031496063
          },
          {
            "number": 1,
            "time": 194.64827539062637,
            "value": 0.4094488188976378
          },
          {
            "number": 1,
            "time": 194.95240242187637,
            "value": 0.41732283464566927
          },
          {
            "number": 1,
            "time": 195.0249464843764,
            "value": 0.4094488188976378
          },
          {
            "number": 1,
            "time": 195.2049115625014,
            "value": 0.41732283464566927
          },
          {
            "number": 1,
            "time": 195.2607146875014,
            "value": 0.4094488188976378
          },
          {
            "number": 1,
            "time": 195.45742070312642,
            "value": 0.41732283464566927
          },
          {
            "number": 1,
            "time": 195.74480679687642,
            "value": 0.4094488188976378
          },
          {
            "number": 1,
            "time": 195.92477187500143,
            "value": 0.4015748031496063
          },
          {
            "number": 1,
            "time": 195.93453742187643,
            "value": 0.3937007874015748
          },
          {
            "number": 1,
            "time": 196.0056864062514,
            "value": 0.4015748031496063
          },
          {
            "number": 1,
            "time": 196.31678882812642,
            "value": 0.3937007874015748
          },
          {
            "number": 1,
            "time": 196.33352976562642,
            "value": 0.3858267716535433
          },
          {
            "number": 1,
            "time": 196.35864117187643,
            "value": 0.3779527559055118
          },
          {
            "number": 1,
            "time": 196.47024742187642,
            "value": 0.3858267716535433
          },
          {
            "number": 1,
            "time": 196.5637176562514,
            "value": 0.3937007874015748
          },
          {
            "number": 1,
            "time": 196.64463218750143,
            "value": 0.4015748031496063
          },
          {
            "number": 1,
            "time": 196.87482007812642,
            "value": 0.4094488188976378
          },
          {
            "number": 1,
            "time": 197.00456234375142,
            "value": 0.4015748031496063
          },
          {
            "number": 1,
            "time": 197.06873593750143,
            "value": 0.3937007874015748
          },
          {
            "number": 1,
            "time": 197.09384734375143,
            "value": 0.3858267716535433
          },
          {
            "number": 1,
            "time": 197.13569968750144,
            "value": 0.3779527559055118
          },
          {
            "number": 1,
            "time": 197.14407015625144,
            "value": 0.3700787401574803
          },
          {
            "number": 1,
            "time": 197.15941601562645,
            "value": 0.36220472440944884
          },
          {
            "number": 1,
            "time": 197.16220617187645,
            "value": 0.3543307086614173
          },
          {
            "number": 1,
            "time": 197.16778648437645,
            "value": 0.3464566929133858
          },
          {
            "number": 1,
            "time": 197.17615695312645,
            "value": 0.33858267716535434
          },
          {
            "number": 1,
            "time": 197.22777484375146,
            "value": 0.3464566929133858
          },
          {
            "number": 1,
            "time": 197.24870101562647,
            "value": 0.33858267716535434
          },
          {
            "number": 1,
            "time": 197.25009609375147,
            "value": 0.33070866141732286
          },
          {
            "number": 1,
            "time": 197.25846656250147,
            "value": 0.3228346456692913
          },
          {
            "number": 1,
            "time": 197.26683703125147,
            "value": 0.31496062992125984
          },
          {
            "number": 1,
            "time": 197.32403523437648,
            "value": 0.3228346456692913
          },
          {
            "number": 1,
            "time": 197.3477515625015,
            "value": 0.33070866141732286
          },
          {
            "number": 1,
            "time": 197.3979743750015,
            "value": 0.3228346456692913
          },
          {
            "number": 1,
            "time": 197.4607528906265,
            "value": 0.31496062992125984
          },
          {
            "number": 1,
            "time": 197.4788889062515,
            "value": 0.30708661417322836
          },
          {
            "number": 1,
            "time": 197.49702492187652,
            "value": 0.31496062992125984
          },
          {
            "number": 1,
            "time": 197.54445757812653,
            "value": 0.30708661417322836
          },
          {
            "number": 1,
            "time": 197.56817390625153,
            "value": 0.2992125984251969
          },
          {
            "number": 1,
            "time": 197.60444593750154,
            "value": 0.30708661417322836
          },
          {
            "number": 1,
            "time": 197.64211304687655,
            "value": 0.29133858267716534
          },
          {
            "number": 1,
            "time": 197.64211304687655,
            "value": 0.2992125984251969
          },
          {
            "number": 1,
            "time": 197.65187859375155,
            "value": 0.28346456692913385
          },
          {
            "number": 1,
            "time": 197.65885398437655,
            "value": 0.2755905511811024
          },
          {
            "number": 1,
            "time": 197.69233585937656,
            "value": 0.28346456692913385
          },
          {
            "number": 1,
            "time": 197.71465710937656,
            "value": 0.29133858267716534
          },
          {
            "number": 1,
            "time": 197.74116359375157,
            "value": 0.28346456692913385
          },
          {
            "number": 1,
            "time": 197.74813898437657,
            "value": 0.2755905511811024
          },
          {
            "number": 1,
            "time": 197.75650945312657,
            "value": 0.2677165354330709
          },
          {
            "number": 1,
            "time": 197.75790453125157,
            "value": 0.25984251968503935
          },
          {
            "number": 1,
            "time": 197.84021414062656,
            "value": 0.2677165354330709
          },
          {
            "number": 1,
            "time": 197.92252375000155,
            "value": 0.25984251968503935
          },
          {
            "number": 1,
            "time": 197.95321546875155,
            "value": 0.2677165354330709
          },
          {
            "number": 1,
            "time": 198.00483335937656,
            "value": 0.25984251968503935
          },
          {
            "number": 1,
            "time": 198.01180875000156,
            "value": 0.25196850393700787
          },
          {
            "number": 1,
            "time": 198.02017921875157,
            "value": 0.2440944881889764
          },
          {
            "number": 1,
            "time": 198.04389554687657,
            "value": 0.25984251968503935
          },
          {
            "number": 1,
            "time": 198.04389554687657,
            "value": 0.25196850393700787
          },
          {
            "number": 1,
            "time": 198.06761187500157,
            "value": 0.2677165354330709
          },
          {
            "number": 1,
            "time": 198.10946421875158,
            "value": 0.2755905511811024
          },
          {
            "number": 1,
            "time": 198.18479843750157,
            "value": 0.28346456692913385
          },
          {
            "number": 1,
            "time": 198.32151609375157,
            "value": 0.2755905511811024
          },
          {
            "number": 1,
            "time": 198.32988656250157,
            "value": 0.2677165354330709
          },
          {
            "number": 1,
            "time": 198.34662750000157,
            "value": 0.25984251968503935
          },
          {
            "number": 1,
            "time": 198.36336843750158,
            "value": 0.25196850393700787
          },
          {
            "number": 1,
            "time": 198.36476351562658,
            "value": 0.2440944881889764
          },
          {
            "number": 1,
            "time": 198.38847984375158,
            "value": 0.23622047244094488
          },
          {
            "number": 1,
            "time": 198.39406015625158,
            "value": 0.2283464566929134
          },
          {
            "number": 1,
            "time": 198.4442829687516,
            "value": 0.23622047244094488
          },
          {
            "number": 1,
            "time": 198.4693943750016,
            "value": 0.25196850393700787
          },
          {
            "number": 1,
            "time": 198.4693943750016,
            "value": 0.2440944881889764
          },
          {
            "number": 1,
            "time": 198.4875303906266,
            "value": 0.25984251968503935
          },
          {
            "number": 1,
            "time": 198.5014811718766,
            "value": 0.2677165354330709
          },
          {
            "number": 1,
            "time": 198.5851858593766,
            "value": 0.2755905511811024
          },
          {
            "number": 1,
            "time": 198.67447085937658,
            "value": 0.2677165354330709
          },
          {
            "number": 1,
            "time": 198.7316690625016,
            "value": 0.25984251968503935
          },
          {
            "number": 1,
            "time": 198.7498050781266,
            "value": 0.25196850393700787
          },
          {
            "number": 1,
            "time": 198.7637558593766,
            "value": 0.2440944881889764
          },
          {
            "number": 1,
            "time": 198.8390900781266,
            "value": 0.23622047244094488
          },
          {
            "number": 1,
            "time": 198.8446703906266,
            "value": 0.2283464566929134
          },
          {
            "number": 1,
            "time": 198.8460654687516,
            "value": 0.2204724409448819
          },
          {
            "number": 1,
            "time": 198.8530408593766,
            "value": 0.2125984251968504
          },
          {
            "number": 1,
            "time": 198.8558310156266,
            "value": 0.2047244094488189
          },
          {
            "number": 1,
            "time": 198.8614113281266,
            "value": 0.1968503937007874
          },
          {
            "number": 1,
            "time": 198.8628064062516,
            "value": 0.1889763779527559
          },
          {
            "number": 1,
            "time": 198.8697817968766,
            "value": 0.18110236220472442
          },
          {
            "number": 1,
            "time": 198.8725719531266,
            "value": 0.1732283464566929
          },
          {
            "number": 1,
            "time": 198.8809424218766,
            "value": 0.16535433070866143
          },
          {
            "number": 1,
            "time": 198.8865227343766,
            "value": 0.15748031496062992
          },
          {
            "number": 1,
            "time": 198.8934981250016,
            "value": 0.14960629921259844
          },
          {
            "number": 1,
            "time": 198.9046587500016,
            "value": 0.14173228346456693
          },
          {
            "number": 1,
            "time": 198.9200046093766,
            "value": 0.14960629921259844
          },
          {
            "number": 1,
            "time": 198.9339553906266,
            "value": 0.15748031496062992
          },
          {
            "number": 1,
            "time": 198.9618569531266,
            "value": 0.16535433070866143
          },
          {
            "number": 1,
            "time": 198.98557328125162,
            "value": 0.14173228346456693
          },
          {
            "number": 1,
            "time": 198.98557328125162,
            "value": 0.14960629921259844
          },
          {
            "number": 1,
            "time": 198.99254867187662,
            "value": 0.11811023622047244
          },
          {
            "number": 1,
            "time": 198.99254867187662,
            "value": 0.13385826771653545
          },
          {
            "number": 1,
            "time": 199.00091914062662,
            "value": 0.11023622047244094
          },
          {
            "number": 1,
            "time": 199.00370929687662,
            "value": 0.10236220472440945
          },
          {
            "number": 1,
            "time": 199.00789453125162,
            "value": 0.08661417322834646
          },
          {
            "number": 1,
            "time": 199.01068468750162,
            "value": 0.07874015748031496
          },
          {
            "number": 1,
            "time": 199.01486992187662,
            "value": 0.07086614173228346
          },
          {
            "number": 1,
            "time": 199.01626500000162,
            "value": 0.05511811023622047
          },
          {
            "number": 1,
            "time": 199.01766007812662,
            "value": 0.03937007874015748
          },
          {
            "number": 1,
            "time": 199.01766007812662,
            "value": 0.047244094488188976
          },
          {
            "number": 1,
            "time": 199.02184531250163,
            "value": 0.023622047244094488
          },
          {
            "number": 1,
            "time": 199.02324039062663,
            "value": 0.007874015748031496
          },
          {
            "number": 1,
            "time": 199.04277148437663,
            "value": 0
          }
        ],
        "2": [
          {
            "number": 2,
            "time": 1.796860625,
            "value": 0
          }
        ],
        "5": [
          {
            "number": 5,
            "time": 74.73154500000041,
            "value": 0.4881889763779528
          }
        ],
        "7": [
          {
            "number": 7,
            "time": 1.2388293750000001,
            "value": 1
          }
        ],
        "10": [
          {
            "number": 10,
            "time": 1.305793125,
            "value": 0.47244094488188976
          }
        ],
        "11": [
          {
            "number": 11,
            "time": 188.63688375000132,
            "value": 0.9448818897637795
          },
          {
            "number": 11,
            "time": 189.09446937500132,
            "value": 0.905511811023622
          },
          {
            "number": 11,
            "time": 189.64134000000132,
            "value": 0.8661417322834646
          },
          {
            "number": 11,
            "time": 190.1658893750013,
            "value": 0.8267716535433071
          },
          {
            "number": 11,
            "time": 190.7127600000013,
            "value": 0.7874015748031497
          },
          {
            "number": 11,
            "time": 191.24847000000133,
            "value": 0.7480314960629921
          },
          {
            "number": 11,
            "time": 191.77301937500135,
            "value": 0.7086614173228346
          },
          {
            "number": 11,
            "time": 192.33105062500135,
            "value": 0.6692913385826772
          },
          {
            "number": 11,
            "time": 192.86676062500135,
            "value": 0.6299212598425197
          },
          {
            "number": 11,
            "time": 193.38014937500134,
            "value": 0.5905511811023622
          },
          {
            "number": 11,
            "time": 193.91585937500136,
            "value": 0.5511811023622047
          },
          {
            "number": 11,
            "time": 194.46273000000136,
            "value": 0.5118110236220472
          },
          {
            "number": 11,
            "time": 195.00960062500138,
            "value": 0.47244094488188976
          },
          {
            "number": 11,
            "time": 195.5341500000014,
            "value": 0.4330708661417323
          },
          {
            "number": 11,
            "time": 196.05869937500142,
            "value": 0.3937007874015748
          },
          {
            "number": 11,
            "time": 196.61673062500142,
            "value": 0.3543307086614173
          },
          {
            "number": 11,
            "time": 197.14128000000144,
            "value": 0.31496062992125984
          },
          {
            "number": 11,
            "time": 197.67699000000155,
            "value": 0.2755905511811024
          },
          {
            "number": 11,
            "time": 198.20153937500157,
            "value": 0.23622047244094488
          },
          {
            "number": 11,
            "time": 198.7595706250016,
            "value": 0.1968503937007874
          },
          {
            "number": 11,
            "time": 199.27295937500162,
            "value": 0.15748031496062992
          },
          {
            "number": 11,
            "time": 199.81983000000162,
            "value": 0.11811023622047244
          },
          {
            "number": 11,
            "time": 200.3555400000016,
            "value": 0.07874015748031496
          },
          {
            "number": 11,
            "time": 200.8800893750016,
            "value": 0.03937007874015748
          },
          {
            "number": 11,
            "time": 201.37115687500162,
            "value": 0
          },
          {
            "number": 11,
            "time": 201.42696000000163,
            "value": 1
          }
        ],
        "32": [
          {
            "number": 32,
            "time": 1.1718656250000001,
            "value": 0
          }
        ],
        "84": [
          {
            "number": 84,
            "time": 74.7873481250004,
            "value": 0.5669291338582677
          }
        ],
        "91": [
          {
            "number": 91,
            "time": 1.5401662500000002,
            "value": 1
          }
        ],
        "93": [
          {
            "number": 93,
            "time": 1.6740937500000002,
            "value": 0
          }
        ],
        "121": [
          {
            "number": 121,
            "time": 0.9040106250000001,
            "value": 0
          }
        ]
      },
      "id": 14,
      "name": "Melody",
      "instrumentNumber": 65,
      "instrument": "alto sax",
      "instrumentFamily": "reed",
      "channelNumber": 15,
      "isPercussion": false
    },
    {
      "startTime": 0,
      "duration": 0,
      "length": 0,
      "notes": [],
      "controlChanges": {},
      "id": 15,
      "name": "GMReset"
    },
    {
      "startTime": 0,
      "duration": 0,
      "length": 0,
      "notes": [],
      "controlChanges": {
        "7": [
          {
            "number": 7,
            "time": 203.56980000000001,
            "value": 1
          }
        ],
        "11": [
          {
            "number": 11,
            "time": 203.58654093750002,
            "value": 1
          }
        ]
      },
      "id": 16,
      "name": "a feeling,"
    },
    {
      "startTime": 0,
      "duration": 0,
      "length": 0,
      "notes": [],
      "controlChanges": {
        "7": [
          {
            "number": 7,
            "time": 203.56980000000001,
            "value": 1
          }
        ],
        "11": [
          {
            "number": 11,
            "time": 203.58654093750002,
            "value": 1
          }
        ]
      },
      "id": 17,
      "name": "By Boston."
    },
    {
      "startTime": 0,
      "duration": 0,
      "length": 0,
      "notes": [],
      "controlChanges": {
        "7": [
          {
            "number": 7,
            "time": 203.56980000000001,
            "value": 1
          }
        ],
        "11": [
          {
            "number": 11,
            "time": 203.58654093750002,
            "value": 1
          }
        ]
      },
      "id": 18,
      "name": "Sequenced"
    },
    {
      "startTime": 0,
      "duration": 0,
      "length": 0,
      "notes": [],
      "controlChanges": {
        "7": [
          {
            "number": 7,
            "time": 203.56980000000001,
            "value": 1
          }
        ],
        "11": [
          {
            "number": 11,
            "time": 203.58654093750002,
            "value": 1
          }
        ]
      },
      "id": 19,
      "name": "by"
    },
    {
      "startTime": 0,
      "duration": 0,
      "length": 0,
      "notes": [],
      "controlChanges": {
        "7": [
          {
            "number": 7,
            "time": 203.56980000000001,
            "value": 1
          }
        ],
        "11": [
          {
            "number": 11,
            "time": 203.58654093750002,
            "value": 1
          }
        ]
      },
      "id": 20,
      "name": "Stuart"
    },
    {
      "startTime": 0,
      "duration": 0,
      "length": 0,
      "notes": [],
      "controlChanges": {
        "7": [
          {
            "number": 7,
            "time": 203.56980000000001,
            "value": 1
          }
        ],
        "11": [
          {
            "number": 11,
            "time": 203.58654093750002,
            "value": 1
          }
        ]
      },
      "id": 21,
      "name": "Wright."
    },
    {
      "startTime": 0,
      "duration": 0,
      "length": 0,
      "notes": [],
      "controlChanges": {
        "7": [
          {
            "number": 7,
            "time": 203.56980000000001,
            "value": 1
          }
        ],
        "11": [
          {
            "number": 11,
            "time": 203.58654093750002,
            "value": 1
          }
        ]
      },
      "id": 22,
      "name": "Please"
    },
    {
      "startTime": 0,
      "duration": 0,
      "length": 0,
      "notes": [],
      "controlChanges": {
        "7": [
          {
            "number": 7,
            "time": 203.56980000000001,
            "value": 1
          }
        ],
        "11": [
          {
            "number": 11,
            "time": 203.58654093750002,
            "value": 1
          }
        ]
      },
      "id": 23,
      "name": "contact"
    },
    {
      "startTime": 0,
      "duration": 0,
      "length": 0,
      "notes": [],
      "controlChanges": {
        "7": [
          {
            "number": 7,
            "time": 203.56980000000001,
            "value": 1
          }
        ],
        "11": [
          {
            "number": 11,
            "time": 203.58654093750002,
            "value": 1
          }
        ]
      },
      "id": 24,
      "name": "stu-w@"
    },
    {
      "startTime": 0,
      "duration": 0,
      "length": 0,
      "notes": [],
      "controlChanges": {
        "7": [
          {
            "number": 7,
            "time": 203.56980000000001,
            "value": 1
          }
        ],
        "11": [
          {
            "number": 11,
            "time": 203.58654093750002,
            "value": 1
          }
        ]
      },
      "id": 25,
      "name": "usa.net"
    },
    {
      "startTime": 0,
      "duration": 0,
      "length": 0,
      "notes": [],
      "controlChanges": {
        "7": [
          {
            "number": 7,
            "time": 203.56980000000001,
            "value": 1
          }
        ],
        "11": [
          {
            "number": 11,
            "time": 203.58654093750002,
            "value": 1
          }
        ]
      },
      "id": 26,
      "name": "Thanks!"
    }
  ]
}